M48
; DRILL file {KiCad (5.1.5-0-10_14)} date Sunday, 13 September 2020 at 21:22:11
; FORMAT={-:-/ absolute / metric / decimal}
; #@! TF.CreationDate,2020-09-13T21:22:11+01:00
; #@! TF.GenerationSoftware,Kicad,Pcbnew,(5.1.5-0-10_14)
FMAT,2
METRIC
T1C0.700
T2C0.750
T3C0.800
T4C1.000
T5C1.200
T6C3.200
%
G90
G05
T1
X130.556Y-103.632
X133.096Y-101.092
X133.096Y-106.172
X105.664Y-111.76
X105.664Y-116.84
X108.204Y-114.3
T2
X165.608Y-121.92
X165.608Y-124.46
X166.878Y-123.19
X160.528Y-134.112
X161.798Y-132.842
X163.068Y-134.112
T3
X118.872Y-130.048
X118.872Y-140.208
X117.856Y-116.412
X117.856Y-121.412
X115.824Y-130.048
X115.824Y-140.208
X138.176Y-130.048
X138.176Y-140.208
X129.032Y-130.048
X129.032Y-140.208
X132.08Y-130.048
X132.08Y-140.208
X141.732Y-119.888
X145.232Y-119.888
X141.224Y-130.048
X141.224Y-140.208
X104.648Y-123.952
X104.648Y-134.112
X157.48Y-114.808
X160.98Y-114.808
X157.052Y-129.54
X162.052Y-129.54
X116.84Y-104.648
X127.0Y-104.648
X150.876Y-123.444
X152.876Y-123.444
X124.46Y-114.808
X124.46Y-122.428
X127.0Y-114.808
X127.0Y-122.428
X129.54Y-114.808
X129.54Y-122.428
X132.08Y-114.808
X132.08Y-122.428
X157.48Y-123.444
X160.98Y-123.444
X138.764Y-104.648
X143.764Y-104.648
X121.92Y-130.048
X121.92Y-140.208
X107.696Y-123.952
X107.696Y-134.112
X136.652Y-114.3
X136.652Y-124.46
X152.908Y-112.348
X152.908Y-117.348
X120.904Y-117.388
X120.904Y-119.888
X150.876Y-131.064
X152.876Y-131.064
X125.476Y-132.588
X125.476Y-137.588
X135.128Y-130.048
X135.128Y-140.208
X114.3Y-114.3
X114.3Y-124.46
T4
X168.148Y-127.508
X168.148Y-137.668
X148.416Y-105.664
X153.416Y-105.664
X141.224Y-144.272
X160.1Y-105.664
X165.1Y-105.664
X117.856Y-109.22
X120.396Y-109.22
X122.936Y-109.22
X125.476Y-109.22
X128.016Y-109.22
X130.556Y-109.22
X133.096Y-109.22
X135.636Y-109.22
X138.176Y-109.22
X140.716Y-109.22
X121.92Y-144.272
X171.704Y-127.508
X171.704Y-137.668
T5
X152.4Y-141.732
X157.48Y-141.732
X162.56Y-141.732
X171.196Y-112.268
X171.196Y-117.348
T6
X171.704Y-104.648
X104.648Y-142.748
X171.704Y-142.748
X104.648Y-104.648
T0
M30
