%TF.GenerationSoftware,KiCad,Pcbnew,(5.1.5-0-10_14)*%
%TF.CreationDate,2020-09-13T21:22:06+01:00*%
%TF.ProjectId,SSFXPCB,53534658-5043-4422-9e6b-696361645f70,rev?*%
%TF.SameCoordinates,Original*%
%TF.FileFunction,Copper,L2,Bot*%
%TF.FilePolarity,Positive*%
%FSLAX46Y46*%
G04 Gerber Fmt 4.6, Leading zero omitted, Abs format (unit mm)*
G04 Created by KiCad (PCBNEW (5.1.5-0-10_14)) date 2020-09-13 21:22:06*
%MOMM*%
%LPD*%
G04 APERTURE LIST*
%ADD10C,1.500000*%
%ADD11R,1.800000X3.600000*%
%ADD12O,1.800000X3.600000*%
%ADD13C,1.600000*%
%ADD14C,1.260000*%
%ADD15O,1.600000X1.600000*%
%ADD16R,1.600000X1.600000*%
%ADD17R,2.000000X2.000000*%
%ADD18O,2.000000X2.000000*%
%ADD19R,3.600000X1.800000*%
%ADD20O,3.600000X1.800000*%
%ADD21C,2.000000*%
%ADD22R,1.700000X1.700000*%
%ADD23C,0.100000*%
%ADD24R,1.800000X1.100000*%
%ADD25R,1.100000X1.800000*%
%ADD26C,0.500000*%
%ADD27C,0.254000*%
G04 APERTURE END LIST*
D10*
X117856000Y-109220000D03*
X120396000Y-109220000D03*
X122936000Y-109220000D03*
X125476000Y-109220000D03*
X140716000Y-109220000D03*
X138176000Y-109220000D03*
X135636000Y-109220000D03*
X133096000Y-109220000D03*
X130556000Y-109220000D03*
X128016000Y-109220000D03*
D11*
X162560000Y-141732000D03*
D12*
X157480000Y-141732000D03*
X152400000Y-141732000D03*
D13*
X152908000Y-112348000D03*
X152908000Y-117348000D03*
D14*
X105664000Y-111760000D03*
X108204000Y-114300000D03*
X105664000Y-116840000D03*
D15*
X135128000Y-140208000D03*
D13*
X135128000Y-130048000D03*
X160980000Y-123444000D03*
D16*
X157480000Y-123444000D03*
D13*
X160980000Y-114808000D03*
D16*
X157480000Y-114808000D03*
X141732000Y-119888000D03*
D13*
X145232000Y-119888000D03*
D17*
X168148000Y-137668000D03*
D18*
X168148000Y-127508000D03*
X171704000Y-127508000D03*
D17*
X171704000Y-137668000D03*
D15*
X138176000Y-130048000D03*
D13*
X138176000Y-140208000D03*
D15*
X104648000Y-123952000D03*
D13*
X104648000Y-134112000D03*
D19*
X171196000Y-112268000D03*
D20*
X171196000Y-117348000D03*
D16*
X124460000Y-122428000D03*
D15*
X132080000Y-114808000D03*
X127000000Y-122428000D03*
X129540000Y-114808000D03*
X129540000Y-122428000D03*
X127000000Y-114808000D03*
X132080000Y-122428000D03*
X124460000Y-114808000D03*
D14*
X133096000Y-106172000D03*
X130556000Y-103632000D03*
X133096000Y-101092000D03*
D13*
X125476000Y-132588000D03*
X125476000Y-137588000D03*
X138764000Y-104648000D03*
X143764000Y-104648000D03*
X117856000Y-121412000D03*
X117856000Y-116412000D03*
D16*
X150876000Y-131064000D03*
D13*
X152876000Y-131064000D03*
X152876000Y-123444000D03*
D16*
X150876000Y-123444000D03*
D13*
X157052000Y-129540000D03*
X162052000Y-129540000D03*
X121920000Y-140208000D03*
D15*
X121920000Y-130048000D03*
D13*
X129032000Y-130048000D03*
D15*
X129032000Y-140208000D03*
D13*
X118872000Y-140208000D03*
D15*
X118872000Y-130048000D03*
D13*
X115824000Y-130048000D03*
D15*
X115824000Y-140208000D03*
D13*
X114300000Y-124460000D03*
D15*
X114300000Y-114300000D03*
X136652000Y-114300000D03*
D13*
X136652000Y-124460000D03*
X107696000Y-134112000D03*
D15*
X107696000Y-123952000D03*
X127000000Y-104648000D03*
D13*
X116840000Y-104648000D03*
X141224000Y-130048000D03*
D15*
X141224000Y-140208000D03*
D13*
X132080000Y-130048000D03*
D15*
X132080000Y-140208000D03*
D21*
X160100000Y-105664000D03*
D17*
X165100000Y-105664000D03*
X153416000Y-105664000D03*
D21*
X148416000Y-105664000D03*
D22*
X121920000Y-144272000D03*
X141224000Y-144272000D03*
D13*
X120904000Y-119888000D03*
X120904000Y-117388000D03*
%TA.AperFunction,ComponentPad*%
D23*
G36*
X167929955Y-122641324D02*
G01*
X167956650Y-122645284D01*
X167982828Y-122651841D01*
X168008238Y-122660933D01*
X168032634Y-122672472D01*
X168055782Y-122686346D01*
X168077458Y-122702422D01*
X168097454Y-122720546D01*
X168115578Y-122740542D01*
X168131654Y-122762218D01*
X168145528Y-122785366D01*
X168157067Y-122809762D01*
X168166159Y-122835172D01*
X168172716Y-122861350D01*
X168176676Y-122888045D01*
X168178000Y-122915000D01*
X168178000Y-123465000D01*
X168176676Y-123491955D01*
X168172716Y-123518650D01*
X168166159Y-123544828D01*
X168157067Y-123570238D01*
X168145528Y-123594634D01*
X168131654Y-123617782D01*
X168115578Y-123639458D01*
X168097454Y-123659454D01*
X168077458Y-123677578D01*
X168055782Y-123693654D01*
X168032634Y-123707528D01*
X168008238Y-123719067D01*
X167982828Y-123728159D01*
X167956650Y-123734716D01*
X167929955Y-123738676D01*
X167903000Y-123740000D01*
X166653000Y-123740000D01*
X166626045Y-123738676D01*
X166599350Y-123734716D01*
X166573172Y-123728159D01*
X166547762Y-123719067D01*
X166523366Y-123707528D01*
X166500218Y-123693654D01*
X166478542Y-123677578D01*
X166458546Y-123659454D01*
X166440422Y-123639458D01*
X166424346Y-123617782D01*
X166410472Y-123594634D01*
X166398933Y-123570238D01*
X166389841Y-123544828D01*
X166383284Y-123518650D01*
X166379324Y-123491955D01*
X166378000Y-123465000D01*
X166378000Y-122915000D01*
X166379324Y-122888045D01*
X166383284Y-122861350D01*
X166389841Y-122835172D01*
X166398933Y-122809762D01*
X166410472Y-122785366D01*
X166424346Y-122762218D01*
X166440422Y-122740542D01*
X166458546Y-122720546D01*
X166478542Y-122702422D01*
X166500218Y-122686346D01*
X166523366Y-122672472D01*
X166547762Y-122660933D01*
X166573172Y-122651841D01*
X166599350Y-122645284D01*
X166626045Y-122641324D01*
X166653000Y-122640000D01*
X167903000Y-122640000D01*
X167929955Y-122641324D01*
G37*
%TD.AperFunction*%
%TA.AperFunction,ComponentPad*%
G36*
X165859955Y-123911324D02*
G01*
X165886650Y-123915284D01*
X165912828Y-123921841D01*
X165938238Y-123930933D01*
X165962634Y-123942472D01*
X165985782Y-123956346D01*
X166007458Y-123972422D01*
X166027454Y-123990546D01*
X166045578Y-124010542D01*
X166061654Y-124032218D01*
X166075528Y-124055366D01*
X166087067Y-124079762D01*
X166096159Y-124105172D01*
X166102716Y-124131350D01*
X166106676Y-124158045D01*
X166108000Y-124185000D01*
X166108000Y-124735000D01*
X166106676Y-124761955D01*
X166102716Y-124788650D01*
X166096159Y-124814828D01*
X166087067Y-124840238D01*
X166075528Y-124864634D01*
X166061654Y-124887782D01*
X166045578Y-124909458D01*
X166027454Y-124929454D01*
X166007458Y-124947578D01*
X165985782Y-124963654D01*
X165962634Y-124977528D01*
X165938238Y-124989067D01*
X165912828Y-124998159D01*
X165886650Y-125004716D01*
X165859955Y-125008676D01*
X165833000Y-125010000D01*
X164583000Y-125010000D01*
X164556045Y-125008676D01*
X164529350Y-125004716D01*
X164503172Y-124998159D01*
X164477762Y-124989067D01*
X164453366Y-124977528D01*
X164430218Y-124963654D01*
X164408542Y-124947578D01*
X164388546Y-124929454D01*
X164370422Y-124909458D01*
X164354346Y-124887782D01*
X164340472Y-124864634D01*
X164328933Y-124840238D01*
X164319841Y-124814828D01*
X164313284Y-124788650D01*
X164309324Y-124761955D01*
X164308000Y-124735000D01*
X164308000Y-124185000D01*
X164309324Y-124158045D01*
X164313284Y-124131350D01*
X164319841Y-124105172D01*
X164328933Y-124079762D01*
X164340472Y-124055366D01*
X164354346Y-124032218D01*
X164370422Y-124010542D01*
X164388546Y-123990546D01*
X164408542Y-123972422D01*
X164430218Y-123956346D01*
X164453366Y-123942472D01*
X164477762Y-123930933D01*
X164503172Y-123921841D01*
X164529350Y-123915284D01*
X164556045Y-123911324D01*
X164583000Y-123910000D01*
X165833000Y-123910000D01*
X165859955Y-123911324D01*
G37*
%TD.AperFunction*%
D24*
X165208000Y-121920000D03*
D25*
X160528000Y-134512000D03*
%TA.AperFunction,ComponentPad*%
D23*
G36*
X163369955Y-133613324D02*
G01*
X163396650Y-133617284D01*
X163422828Y-133623841D01*
X163448238Y-133632933D01*
X163472634Y-133644472D01*
X163495782Y-133658346D01*
X163517458Y-133674422D01*
X163537454Y-133692546D01*
X163555578Y-133712542D01*
X163571654Y-133734218D01*
X163585528Y-133757366D01*
X163597067Y-133781762D01*
X163606159Y-133807172D01*
X163612716Y-133833350D01*
X163616676Y-133860045D01*
X163618000Y-133887000D01*
X163618000Y-135137000D01*
X163616676Y-135163955D01*
X163612716Y-135190650D01*
X163606159Y-135216828D01*
X163597067Y-135242238D01*
X163585528Y-135266634D01*
X163571654Y-135289782D01*
X163555578Y-135311458D01*
X163537454Y-135331454D01*
X163517458Y-135349578D01*
X163495782Y-135365654D01*
X163472634Y-135379528D01*
X163448238Y-135391067D01*
X163422828Y-135400159D01*
X163396650Y-135406716D01*
X163369955Y-135410676D01*
X163343000Y-135412000D01*
X162793000Y-135412000D01*
X162766045Y-135410676D01*
X162739350Y-135406716D01*
X162713172Y-135400159D01*
X162687762Y-135391067D01*
X162663366Y-135379528D01*
X162640218Y-135365654D01*
X162618542Y-135349578D01*
X162598546Y-135331454D01*
X162580422Y-135311458D01*
X162564346Y-135289782D01*
X162550472Y-135266634D01*
X162538933Y-135242238D01*
X162529841Y-135216828D01*
X162523284Y-135190650D01*
X162519324Y-135163955D01*
X162518000Y-135137000D01*
X162518000Y-133887000D01*
X162519324Y-133860045D01*
X162523284Y-133833350D01*
X162529841Y-133807172D01*
X162538933Y-133781762D01*
X162550472Y-133757366D01*
X162564346Y-133734218D01*
X162580422Y-133712542D01*
X162598546Y-133692546D01*
X162618542Y-133674422D01*
X162640218Y-133658346D01*
X162663366Y-133644472D01*
X162687762Y-133632933D01*
X162713172Y-133623841D01*
X162739350Y-133617284D01*
X162766045Y-133613324D01*
X162793000Y-133612000D01*
X163343000Y-133612000D01*
X163369955Y-133613324D01*
G37*
%TD.AperFunction*%
%TA.AperFunction,ComponentPad*%
G36*
X162099955Y-131543324D02*
G01*
X162126650Y-131547284D01*
X162152828Y-131553841D01*
X162178238Y-131562933D01*
X162202634Y-131574472D01*
X162225782Y-131588346D01*
X162247458Y-131604422D01*
X162267454Y-131622546D01*
X162285578Y-131642542D01*
X162301654Y-131664218D01*
X162315528Y-131687366D01*
X162327067Y-131711762D01*
X162336159Y-131737172D01*
X162342716Y-131763350D01*
X162346676Y-131790045D01*
X162348000Y-131817000D01*
X162348000Y-133067000D01*
X162346676Y-133093955D01*
X162342716Y-133120650D01*
X162336159Y-133146828D01*
X162327067Y-133172238D01*
X162315528Y-133196634D01*
X162301654Y-133219782D01*
X162285578Y-133241458D01*
X162267454Y-133261454D01*
X162247458Y-133279578D01*
X162225782Y-133295654D01*
X162202634Y-133309528D01*
X162178238Y-133321067D01*
X162152828Y-133330159D01*
X162126650Y-133336716D01*
X162099955Y-133340676D01*
X162073000Y-133342000D01*
X161523000Y-133342000D01*
X161496045Y-133340676D01*
X161469350Y-133336716D01*
X161443172Y-133330159D01*
X161417762Y-133321067D01*
X161393366Y-133309528D01*
X161370218Y-133295654D01*
X161348542Y-133279578D01*
X161328546Y-133261454D01*
X161310422Y-133241458D01*
X161294346Y-133219782D01*
X161280472Y-133196634D01*
X161268933Y-133172238D01*
X161259841Y-133146828D01*
X161253284Y-133120650D01*
X161249324Y-133093955D01*
X161248000Y-133067000D01*
X161248000Y-131817000D01*
X161249324Y-131790045D01*
X161253284Y-131763350D01*
X161259841Y-131737172D01*
X161268933Y-131711762D01*
X161280472Y-131687366D01*
X161294346Y-131664218D01*
X161310422Y-131642542D01*
X161328546Y-131622546D01*
X161348542Y-131604422D01*
X161370218Y-131588346D01*
X161393366Y-131574472D01*
X161417762Y-131562933D01*
X161443172Y-131553841D01*
X161469350Y-131547284D01*
X161496045Y-131543324D01*
X161523000Y-131542000D01*
X162073000Y-131542000D01*
X162099955Y-131543324D01*
G37*
%TD.AperFunction*%
D26*
X117348000Y-121412000D02*
X117856000Y-121412000D01*
X114300000Y-124460000D02*
X117348000Y-121412000D01*
X123157998Y-113284000D02*
X125476000Y-113284000D01*
X125476000Y-113284000D02*
X127000000Y-114808000D01*
X118655999Y-117785999D02*
X123157998Y-113284000D01*
X118655999Y-120612001D02*
X118655999Y-117785999D01*
X117856000Y-121412000D02*
X118655999Y-120612001D01*
X152876000Y-132195370D02*
X152876000Y-131064000D01*
X139310631Y-132314001D02*
X152757369Y-132314001D01*
X138176000Y-131179370D02*
X139310631Y-132314001D01*
X152757369Y-132314001D02*
X152876000Y-132195370D01*
X138176000Y-130048000D02*
X138176000Y-131179370D01*
X149860000Y-124460000D02*
X150876000Y-123444000D01*
X136652000Y-124460000D02*
X149860000Y-124460000D01*
X165608000Y-131572000D02*
X163068000Y-134112000D01*
X165608000Y-124460000D02*
X165608000Y-131572000D01*
X163092000Y-134112000D02*
X163068000Y-134112000D01*
X166648000Y-137668000D02*
X163092000Y-134112000D01*
X168148000Y-137668000D02*
X166648000Y-137668000D01*
X154916000Y-105664000D02*
X160100000Y-105664000D01*
X153416000Y-105664000D02*
X154916000Y-105664000D01*
X166704000Y-112268000D02*
X171196000Y-112268000D01*
X160100000Y-105664000D02*
X166704000Y-112268000D01*
X163576000Y-121920000D02*
X157480000Y-115824000D01*
X165608000Y-121920000D02*
X163576000Y-121920000D01*
X157480000Y-115824000D02*
X157480000Y-114808000D01*
X148844000Y-117348000D02*
X152908000Y-117348000D01*
X140716000Y-109220000D02*
X148844000Y-117348000D01*
X155956000Y-117348000D02*
X157480000Y-115824000D01*
X152908000Y-117348000D02*
X155956000Y-117348000D01*
X157052000Y-123872000D02*
X157480000Y-123444000D01*
X157052000Y-127508000D02*
X157052000Y-123872000D01*
X157052000Y-129540000D02*
X157052000Y-127508000D01*
X137668000Y-127508000D02*
X157052000Y-127508000D01*
X135128000Y-130048000D02*
X137668000Y-127508000D01*
X160528000Y-133016000D02*
X160528000Y-134112000D01*
X157052000Y-129540000D02*
X160528000Y-133016000D01*
X129540000Y-117348000D02*
X132080000Y-114808000D01*
X129540000Y-122428000D02*
X129540000Y-117348000D01*
X129540000Y-127508000D02*
X132080000Y-130048000D01*
X129540000Y-122428000D02*
X129540000Y-127508000D01*
X135128000Y-133096000D02*
X132080000Y-130048000D01*
X135128000Y-140208000D02*
X135128000Y-133096000D01*
X137160000Y-119888000D02*
X132080000Y-114808000D01*
X141732000Y-119888000D02*
X137160000Y-119888000D01*
X115824000Y-140208000D02*
X118872000Y-140208000D01*
X120122001Y-128065999D02*
X124460000Y-123728000D01*
X124460000Y-123728000D02*
X124460000Y-122428000D01*
X120122001Y-138957999D02*
X120122001Y-128065999D01*
X118872000Y-140208000D02*
X120122001Y-138957999D01*
X123220000Y-119888000D02*
X120904000Y-119888000D01*
X124460000Y-121128000D02*
X123220000Y-119888000D01*
X124460000Y-122428000D02*
X124460000Y-121128000D01*
X135852001Y-113500001D02*
X136652000Y-114300000D01*
X134620000Y-112268000D02*
X135852001Y-113500001D01*
X117856000Y-116412000D02*
X122000000Y-112268000D01*
X129540000Y-112268000D02*
X129540000Y-114808000D01*
X122000000Y-112268000D02*
X129540000Y-112268000D01*
X129540000Y-112268000D02*
X134620000Y-112268000D01*
X117856000Y-116412000D02*
X111760000Y-116412000D01*
X111760000Y-125984000D02*
X111760000Y-116412000D01*
X115824000Y-130048000D02*
X111760000Y-125984000D01*
X111332000Y-116840000D02*
X111760000Y-116412000D01*
X105664000Y-116840000D02*
X111332000Y-116840000D01*
X106605598Y-109220000D02*
X117856000Y-109220000D01*
X103124000Y-112701598D02*
X106605598Y-109220000D01*
X103124000Y-122428000D02*
X103124000Y-112701598D01*
X104648000Y-123952000D02*
X103124000Y-122428000D01*
X119195999Y-108019999D02*
X120396000Y-109220000D01*
X102423990Y-112411645D02*
X106815636Y-108019999D01*
X106815636Y-108019999D02*
X119195999Y-108019999D01*
X102423990Y-131887990D02*
X102423990Y-112411645D01*
X104648000Y-134112000D02*
X102423990Y-131887990D01*
X128016000Y-105664000D02*
X127000000Y-104648000D01*
X128016000Y-109220000D02*
X128016000Y-105664000D01*
X137748000Y-103632000D02*
X138764000Y-104648000D01*
X130556000Y-103632000D02*
X137748000Y-103632000D01*
X168148000Y-134112000D02*
X171704000Y-137668000D01*
X168148000Y-127508000D02*
X168148000Y-134112000D01*
X171196000Y-124460000D02*
X168148000Y-127508000D01*
X171196000Y-117348000D02*
X171196000Y-124460000D01*
X129032000Y-136144000D02*
X125476000Y-132588000D01*
X129032000Y-140208000D02*
X129032000Y-136144000D01*
X108204000Y-114300000D02*
X114300000Y-114300000D01*
X105664000Y-111760000D02*
X108204000Y-114300000D01*
X120396000Y-101092000D02*
X133096000Y-101092000D01*
X116840000Y-104648000D02*
X120396000Y-101092000D01*
X130556000Y-108712000D02*
X133096000Y-106172000D01*
X130556000Y-109220000D02*
X130556000Y-108712000D01*
X124540000Y-137588000D02*
X125476000Y-137588000D01*
X121920000Y-140208000D02*
X124540000Y-137588000D01*
X121920000Y-140208000D02*
X121920000Y-144272000D01*
X138176000Y-140208000D02*
X141224000Y-140208000D01*
X141224000Y-140208000D02*
X141224000Y-144272000D01*
D27*
G36*
X116902472Y-102921000D02*
G01*
X116669905Y-102921000D01*
X116336253Y-102987368D01*
X116021959Y-103117553D01*
X115739102Y-103306552D01*
X115498552Y-103547102D01*
X115309553Y-103829959D01*
X115179368Y-104144253D01*
X115113000Y-104477905D01*
X115113000Y-104818095D01*
X115179368Y-105151747D01*
X115309553Y-105466041D01*
X115498552Y-105748898D01*
X115739102Y-105989448D01*
X116021959Y-106178447D01*
X116336253Y-106308632D01*
X116669905Y-106375000D01*
X117010095Y-106375000D01*
X117343747Y-106308632D01*
X117658041Y-106178447D01*
X117940898Y-105989448D01*
X118181448Y-105748898D01*
X118370447Y-105466041D01*
X118500632Y-105151747D01*
X118567000Y-104818095D01*
X118567000Y-104585528D01*
X120883529Y-102269000D01*
X129793347Y-102269000D01*
X129563470Y-102422599D01*
X129346599Y-102639470D01*
X129176204Y-102894484D01*
X129058834Y-103177840D01*
X128999000Y-103478649D01*
X128999000Y-103785351D01*
X129058834Y-104086160D01*
X129176204Y-104369516D01*
X129346599Y-104624530D01*
X129563470Y-104841401D01*
X129818484Y-105011796D01*
X130101840Y-105129166D01*
X130402649Y-105189000D01*
X130709351Y-105189000D01*
X131010160Y-105129166D01*
X131293516Y-105011796D01*
X131548530Y-104841401D01*
X131580931Y-104809000D01*
X132333347Y-104809000D01*
X132103470Y-104962599D01*
X131886599Y-105179470D01*
X131716204Y-105434484D01*
X131598834Y-105717840D01*
X131539000Y-106018649D01*
X131539000Y-106064471D01*
X129945955Y-107657517D01*
X129761643Y-107733862D01*
X129486975Y-107917389D01*
X129286000Y-108118364D01*
X129193000Y-108025364D01*
X129193000Y-105721812D01*
X129198694Y-105664000D01*
X129175969Y-105433268D01*
X129137080Y-105305069D01*
X129108667Y-105211403D01*
X128999374Y-105006930D01*
X128852291Y-104827709D01*
X128807382Y-104790853D01*
X128727000Y-104710471D01*
X128727000Y-104477905D01*
X128660632Y-104144253D01*
X128530447Y-103829959D01*
X128341448Y-103547102D01*
X128100898Y-103306552D01*
X127818041Y-103117553D01*
X127503747Y-102987368D01*
X127170095Y-102921000D01*
X126829905Y-102921000D01*
X126496253Y-102987368D01*
X126181959Y-103117553D01*
X125899102Y-103306552D01*
X125658552Y-103547102D01*
X125469553Y-103829959D01*
X125339368Y-104144253D01*
X125273000Y-104477905D01*
X125273000Y-104818095D01*
X125339368Y-105151747D01*
X125469553Y-105466041D01*
X125658552Y-105748898D01*
X125899102Y-105989448D01*
X126181959Y-106178447D01*
X126496253Y-106308632D01*
X126829905Y-106375000D01*
X126839001Y-106375000D01*
X126839000Y-108025364D01*
X126746000Y-108118364D01*
X126545025Y-107917389D01*
X126270357Y-107733862D01*
X125965163Y-107607446D01*
X125641170Y-107543000D01*
X125310830Y-107543000D01*
X124986837Y-107607446D01*
X124681643Y-107733862D01*
X124406975Y-107917389D01*
X124206000Y-108118364D01*
X124005025Y-107917389D01*
X123730357Y-107733862D01*
X123425163Y-107607446D01*
X123101170Y-107543000D01*
X122770830Y-107543000D01*
X122446837Y-107607446D01*
X122141643Y-107733862D01*
X121866975Y-107917389D01*
X121666000Y-108118364D01*
X121465025Y-107917389D01*
X121190357Y-107733862D01*
X120885163Y-107607446D01*
X120561170Y-107543000D01*
X120383529Y-107543000D01*
X120069149Y-107228621D01*
X120032290Y-107183708D01*
X119853069Y-107036625D01*
X119648596Y-106927332D01*
X119426731Y-106860030D01*
X119253811Y-106842999D01*
X119195999Y-106837305D01*
X119138187Y-106842999D01*
X106873437Y-106842999D01*
X106815635Y-106837306D01*
X106757833Y-106842999D01*
X106757824Y-106842999D01*
X106584904Y-106860030D01*
X106363039Y-106927332D01*
X106158566Y-107036625D01*
X105979345Y-107183708D01*
X105942489Y-107228617D01*
X101632608Y-111538499D01*
X101587700Y-111575354D01*
X101550847Y-111620260D01*
X101440616Y-111754576D01*
X101331324Y-111959048D01*
X101264021Y-112180914D01*
X101241296Y-112411645D01*
X101246991Y-112469467D01*
X101246990Y-131830178D01*
X101241296Y-131887990D01*
X101254751Y-132024597D01*
X101264021Y-132118721D01*
X101331323Y-132340586D01*
X101440616Y-132545059D01*
X101587699Y-132724281D01*
X101632613Y-132761141D01*
X102921000Y-134049529D01*
X102921000Y-134282095D01*
X102987368Y-134615747D01*
X103117553Y-134930041D01*
X103306552Y-135212898D01*
X103547102Y-135453448D01*
X103829959Y-135642447D01*
X104144253Y-135772632D01*
X104477905Y-135839000D01*
X104818095Y-135839000D01*
X105151747Y-135772632D01*
X105466041Y-135642447D01*
X105748898Y-135453448D01*
X105989448Y-135212898D01*
X106172000Y-134939690D01*
X106354552Y-135212898D01*
X106595102Y-135453448D01*
X106877959Y-135642447D01*
X107192253Y-135772632D01*
X107525905Y-135839000D01*
X107866095Y-135839000D01*
X108199747Y-135772632D01*
X108514041Y-135642447D01*
X108796898Y-135453448D01*
X109037448Y-135212898D01*
X109226447Y-134930041D01*
X109356632Y-134615747D01*
X109423000Y-134282095D01*
X109423000Y-133941905D01*
X109356632Y-133608253D01*
X109226447Y-133293959D01*
X109037448Y-133011102D01*
X108796898Y-132770552D01*
X108514041Y-132581553D01*
X108199747Y-132451368D01*
X107866095Y-132385000D01*
X107525905Y-132385000D01*
X107192253Y-132451368D01*
X106877959Y-132581553D01*
X106595102Y-132770552D01*
X106354552Y-133011102D01*
X106172000Y-133284310D01*
X105989448Y-133011102D01*
X105748898Y-132770552D01*
X105466041Y-132581553D01*
X105151747Y-132451368D01*
X104818095Y-132385000D01*
X104585529Y-132385000D01*
X103600990Y-131400462D01*
X103600990Y-125329455D01*
X103829959Y-125482447D01*
X104144253Y-125612632D01*
X104477905Y-125679000D01*
X104818095Y-125679000D01*
X105151747Y-125612632D01*
X105466041Y-125482447D01*
X105748898Y-125293448D01*
X105989448Y-125052898D01*
X106172000Y-124779690D01*
X106354552Y-125052898D01*
X106595102Y-125293448D01*
X106877959Y-125482447D01*
X107192253Y-125612632D01*
X107525905Y-125679000D01*
X107866095Y-125679000D01*
X108199747Y-125612632D01*
X108514041Y-125482447D01*
X108796898Y-125293448D01*
X109037448Y-125052898D01*
X109226447Y-124770041D01*
X109356632Y-124455747D01*
X109423000Y-124122095D01*
X109423000Y-123781905D01*
X109356632Y-123448253D01*
X109226447Y-123133959D01*
X109037448Y-122851102D01*
X108796898Y-122610552D01*
X108514041Y-122421553D01*
X108199747Y-122291368D01*
X107866095Y-122225000D01*
X107525905Y-122225000D01*
X107192253Y-122291368D01*
X106877959Y-122421553D01*
X106595102Y-122610552D01*
X106354552Y-122851102D01*
X106172000Y-123124310D01*
X105989448Y-122851102D01*
X105748898Y-122610552D01*
X105466041Y-122421553D01*
X105151747Y-122291368D01*
X104818095Y-122225000D01*
X104585528Y-122225000D01*
X104301000Y-121940472D01*
X104301000Y-117602653D01*
X104454599Y-117832530D01*
X104671470Y-118049401D01*
X104926484Y-118219796D01*
X105209840Y-118337166D01*
X105510649Y-118397000D01*
X105817351Y-118397000D01*
X106118160Y-118337166D01*
X106401516Y-118219796D01*
X106656530Y-118049401D01*
X106688931Y-118017000D01*
X110583001Y-118017000D01*
X110583000Y-125926188D01*
X110577306Y-125984000D01*
X110583000Y-126041811D01*
X110600031Y-126214731D01*
X110667333Y-126436596D01*
X110776626Y-126641069D01*
X110923709Y-126820291D01*
X110968623Y-126857151D01*
X114097000Y-129985529D01*
X114097000Y-130218095D01*
X114163368Y-130551747D01*
X114293553Y-130866041D01*
X114482552Y-131148898D01*
X114723102Y-131389448D01*
X115005959Y-131578447D01*
X115320253Y-131708632D01*
X115653905Y-131775000D01*
X115994095Y-131775000D01*
X116327747Y-131708632D01*
X116642041Y-131578447D01*
X116924898Y-131389448D01*
X117165448Y-131148898D01*
X117348000Y-130875690D01*
X117530552Y-131148898D01*
X117771102Y-131389448D01*
X118053959Y-131578447D01*
X118368253Y-131708632D01*
X118701905Y-131775000D01*
X118945002Y-131775000D01*
X118945001Y-138470470D01*
X118934471Y-138481000D01*
X118701905Y-138481000D01*
X118368253Y-138547368D01*
X118053959Y-138677553D01*
X117771102Y-138866552D01*
X117606654Y-139031000D01*
X117089346Y-139031000D01*
X116924898Y-138866552D01*
X116642041Y-138677553D01*
X116327747Y-138547368D01*
X115994095Y-138481000D01*
X115653905Y-138481000D01*
X115320253Y-138547368D01*
X115005959Y-138677553D01*
X114723102Y-138866552D01*
X114482552Y-139107102D01*
X114293553Y-139389959D01*
X114163368Y-139704253D01*
X114097000Y-140037905D01*
X114097000Y-140378095D01*
X114163368Y-140711747D01*
X114293553Y-141026041D01*
X114482552Y-141308898D01*
X114723102Y-141549448D01*
X115005959Y-141738447D01*
X115320253Y-141868632D01*
X115653905Y-141935000D01*
X115994095Y-141935000D01*
X116327747Y-141868632D01*
X116642041Y-141738447D01*
X116924898Y-141549448D01*
X117089346Y-141385000D01*
X117606654Y-141385000D01*
X117771102Y-141549448D01*
X118053959Y-141738447D01*
X118368253Y-141868632D01*
X118701905Y-141935000D01*
X119042095Y-141935000D01*
X119375747Y-141868632D01*
X119690041Y-141738447D01*
X119972898Y-141549448D01*
X120213448Y-141308898D01*
X120396000Y-141035690D01*
X120578552Y-141308898D01*
X120743000Y-141473346D01*
X120743001Y-142552482D01*
X120713536Y-142561420D01*
X120552495Y-142647499D01*
X120411341Y-142763341D01*
X120295499Y-142904495D01*
X120209420Y-143065536D01*
X120156413Y-143240276D01*
X120138515Y-143422000D01*
X120138515Y-145122000D01*
X120156413Y-145303724D01*
X120209420Y-145478464D01*
X120295499Y-145639505D01*
X120411341Y-145780659D01*
X120552495Y-145896501D01*
X120713536Y-145982580D01*
X120888276Y-146035587D01*
X121070000Y-146053485D01*
X122770000Y-146053485D01*
X122951724Y-146035587D01*
X123126464Y-145982580D01*
X123287505Y-145896501D01*
X123428659Y-145780659D01*
X123544501Y-145639505D01*
X123630580Y-145478464D01*
X123683587Y-145303724D01*
X123701485Y-145122000D01*
X123701485Y-143422000D01*
X123683587Y-143240276D01*
X123630580Y-143065536D01*
X123544501Y-142904495D01*
X123428659Y-142763341D01*
X123287505Y-142647499D01*
X123126464Y-142561420D01*
X123097000Y-142552482D01*
X123097000Y-141473346D01*
X123261448Y-141308898D01*
X123450447Y-141026041D01*
X123580632Y-140711747D01*
X123647000Y-140378095D01*
X123647000Y-140145529D01*
X124669360Y-139123169D01*
X124972253Y-139248632D01*
X125305905Y-139315000D01*
X125646095Y-139315000D01*
X125979747Y-139248632D01*
X126294041Y-139118447D01*
X126576898Y-138929448D01*
X126817448Y-138688898D01*
X127006447Y-138406041D01*
X127136632Y-138091747D01*
X127203000Y-137758095D01*
X127203000Y-137417905D01*
X127136632Y-137084253D01*
X127006447Y-136769959D01*
X126817448Y-136487102D01*
X126576898Y-136246552D01*
X126294041Y-136057553D01*
X125979747Y-135927368D01*
X125646095Y-135861000D01*
X125305905Y-135861000D01*
X124972253Y-135927368D01*
X124657959Y-136057553D01*
X124375102Y-136246552D01*
X124143267Y-136478387D01*
X124087403Y-136495333D01*
X123897951Y-136596597D01*
X123882930Y-136604626D01*
X123785450Y-136684626D01*
X123703709Y-136751709D01*
X123666858Y-136796612D01*
X121982471Y-138481000D01*
X121749905Y-138481000D01*
X121416253Y-138547368D01*
X121299001Y-138595935D01*
X121299001Y-132417905D01*
X123749000Y-132417905D01*
X123749000Y-132758095D01*
X123815368Y-133091747D01*
X123945553Y-133406041D01*
X124134552Y-133688898D01*
X124375102Y-133929448D01*
X124657959Y-134118447D01*
X124972253Y-134248632D01*
X125305905Y-134315000D01*
X125538472Y-134315000D01*
X127855001Y-136631530D01*
X127855000Y-138942654D01*
X127690552Y-139107102D01*
X127501553Y-139389959D01*
X127371368Y-139704253D01*
X127305000Y-140037905D01*
X127305000Y-140378095D01*
X127371368Y-140711747D01*
X127501553Y-141026041D01*
X127690552Y-141308898D01*
X127931102Y-141549448D01*
X128213959Y-141738447D01*
X128528253Y-141868632D01*
X128861905Y-141935000D01*
X129202095Y-141935000D01*
X129535747Y-141868632D01*
X129850041Y-141738447D01*
X130132898Y-141549448D01*
X130373448Y-141308898D01*
X130562447Y-141026041D01*
X130692632Y-140711747D01*
X130710794Y-140620440D01*
X130782930Y-140821881D01*
X130927615Y-141063131D01*
X131116586Y-141271519D01*
X131342580Y-141439037D01*
X131596913Y-141559246D01*
X131730961Y-141599904D01*
X131953000Y-141477915D01*
X131953000Y-140335000D01*
X131933000Y-140335000D01*
X131933000Y-140081000D01*
X131953000Y-140081000D01*
X131953000Y-138938085D01*
X131730961Y-138816096D01*
X131596913Y-138856754D01*
X131342580Y-138976963D01*
X131116586Y-139144481D01*
X130927615Y-139352869D01*
X130782930Y-139594119D01*
X130710794Y-139795560D01*
X130692632Y-139704253D01*
X130562447Y-139389959D01*
X130373448Y-139107102D01*
X130209000Y-138942654D01*
X130209000Y-136201801D01*
X130214693Y-136143999D01*
X130209000Y-136086197D01*
X130209000Y-136086188D01*
X130191969Y-135913268D01*
X130124667Y-135691403D01*
X130015374Y-135486930D01*
X129868291Y-135307709D01*
X129823382Y-135270853D01*
X127203000Y-132650472D01*
X127203000Y-132417905D01*
X127136632Y-132084253D01*
X127006447Y-131769959D01*
X126817448Y-131487102D01*
X126576898Y-131246552D01*
X126294041Y-131057553D01*
X125979747Y-130927368D01*
X125646095Y-130861000D01*
X125305905Y-130861000D01*
X124972253Y-130927368D01*
X124657959Y-131057553D01*
X124375102Y-131246552D01*
X124134552Y-131487102D01*
X123945553Y-131769959D01*
X123815368Y-132084253D01*
X123749000Y-132417905D01*
X121299001Y-132417905D01*
X121299001Y-131334063D01*
X121436913Y-131399246D01*
X121570961Y-131439904D01*
X121793000Y-131317915D01*
X121793000Y-130175000D01*
X122047000Y-130175000D01*
X122047000Y-131317915D01*
X122269039Y-131439904D01*
X122403087Y-131399246D01*
X122657420Y-131279037D01*
X122883414Y-131111519D01*
X123072385Y-130903131D01*
X123217070Y-130661881D01*
X123311909Y-130397040D01*
X123190624Y-130175000D01*
X122047000Y-130175000D01*
X121793000Y-130175000D01*
X121773000Y-130175000D01*
X121773000Y-129921000D01*
X121793000Y-129921000D01*
X121793000Y-128778085D01*
X122047000Y-128778085D01*
X122047000Y-129921000D01*
X123190624Y-129921000D01*
X123311909Y-129698960D01*
X123217070Y-129434119D01*
X123072385Y-129192869D01*
X122883414Y-128984481D01*
X122657420Y-128816963D01*
X122403087Y-128696754D01*
X122269039Y-128656096D01*
X122047000Y-128778085D01*
X121793000Y-128778085D01*
X121570961Y-128656096D01*
X121436913Y-128696754D01*
X121299001Y-128761937D01*
X121299001Y-128553527D01*
X125251384Y-124601145D01*
X125296291Y-124564291D01*
X125443374Y-124385070D01*
X125552667Y-124180597D01*
X125576943Y-124100568D01*
X125616464Y-124088580D01*
X125777505Y-124002501D01*
X125918659Y-123886659D01*
X125973858Y-123819399D01*
X126181959Y-123958447D01*
X126496253Y-124088632D01*
X126829905Y-124155000D01*
X127170095Y-124155000D01*
X127503747Y-124088632D01*
X127818041Y-123958447D01*
X128100898Y-123769448D01*
X128270000Y-123600346D01*
X128363000Y-123693346D01*
X128363001Y-127450178D01*
X128357306Y-127508000D01*
X128380031Y-127738731D01*
X128447334Y-127960597D01*
X128556626Y-128165069D01*
X128584105Y-128198552D01*
X128703710Y-128344291D01*
X128711729Y-128350872D01*
X128528253Y-128387368D01*
X128213959Y-128517553D01*
X127931102Y-128706552D01*
X127690552Y-128947102D01*
X127501553Y-129229959D01*
X127371368Y-129544253D01*
X127305000Y-129877905D01*
X127305000Y-130218095D01*
X127371368Y-130551747D01*
X127501553Y-130866041D01*
X127690552Y-131148898D01*
X127931102Y-131389448D01*
X128213959Y-131578447D01*
X128528253Y-131708632D01*
X128861905Y-131775000D01*
X129202095Y-131775000D01*
X129535747Y-131708632D01*
X129850041Y-131578447D01*
X130132898Y-131389448D01*
X130373448Y-131148898D01*
X130556000Y-130875690D01*
X130738552Y-131148898D01*
X130979102Y-131389448D01*
X131261959Y-131578447D01*
X131576253Y-131708632D01*
X131909905Y-131775000D01*
X132142472Y-131775000D01*
X133951001Y-133583530D01*
X133951000Y-138942654D01*
X133786552Y-139107102D01*
X133597553Y-139389959D01*
X133467368Y-139704253D01*
X133449206Y-139795560D01*
X133377070Y-139594119D01*
X133232385Y-139352869D01*
X133043414Y-139144481D01*
X132817420Y-138976963D01*
X132563087Y-138856754D01*
X132429039Y-138816096D01*
X132207000Y-138938085D01*
X132207000Y-140081000D01*
X132227000Y-140081000D01*
X132227000Y-140335000D01*
X132207000Y-140335000D01*
X132207000Y-141477915D01*
X132429039Y-141599904D01*
X132563087Y-141559246D01*
X132817420Y-141439037D01*
X133043414Y-141271519D01*
X133232385Y-141063131D01*
X133377070Y-140821881D01*
X133449206Y-140620440D01*
X133467368Y-140711747D01*
X133597553Y-141026041D01*
X133786552Y-141308898D01*
X134027102Y-141549448D01*
X134309959Y-141738447D01*
X134624253Y-141868632D01*
X134957905Y-141935000D01*
X135298095Y-141935000D01*
X135631747Y-141868632D01*
X135946041Y-141738447D01*
X136228898Y-141549448D01*
X136469448Y-141308898D01*
X136652000Y-141035690D01*
X136834552Y-141308898D01*
X137075102Y-141549448D01*
X137357959Y-141738447D01*
X137672253Y-141868632D01*
X138005905Y-141935000D01*
X138346095Y-141935000D01*
X138679747Y-141868632D01*
X138994041Y-141738447D01*
X139276898Y-141549448D01*
X139441346Y-141385000D01*
X139958654Y-141385000D01*
X140047000Y-141473346D01*
X140047001Y-142552482D01*
X140017536Y-142561420D01*
X139856495Y-142647499D01*
X139715341Y-142763341D01*
X139599499Y-142904495D01*
X139513420Y-143065536D01*
X139460413Y-143240276D01*
X139442515Y-143422000D01*
X139442515Y-145122000D01*
X139460413Y-145303724D01*
X139513420Y-145478464D01*
X139599499Y-145639505D01*
X139715341Y-145780659D01*
X139856495Y-145896501D01*
X140017536Y-145982580D01*
X140192276Y-146035587D01*
X140374000Y-146053485D01*
X142074000Y-146053485D01*
X142255724Y-146035587D01*
X142430464Y-145982580D01*
X142591505Y-145896501D01*
X142732659Y-145780659D01*
X142848501Y-145639505D01*
X142934580Y-145478464D01*
X142987587Y-145303724D01*
X143005485Y-145122000D01*
X143005485Y-143422000D01*
X142987587Y-143240276D01*
X142934580Y-143065536D01*
X142848501Y-142904495D01*
X142732659Y-142763341D01*
X142591505Y-142647499D01*
X142430464Y-142561420D01*
X142401000Y-142552482D01*
X142401000Y-141859000D01*
X150865000Y-141859000D01*
X150865000Y-142759000D01*
X150919271Y-143056023D01*
X151030446Y-143336751D01*
X151194252Y-143590396D01*
X151404394Y-143807210D01*
X151652796Y-143978862D01*
X151929913Y-144098755D01*
X152035260Y-144123036D01*
X152273000Y-144002378D01*
X152273000Y-141859000D01*
X152527000Y-141859000D01*
X152527000Y-144002378D01*
X152764740Y-144123036D01*
X152870087Y-144098755D01*
X153147204Y-143978862D01*
X153395606Y-143807210D01*
X153605748Y-143590396D01*
X153769554Y-143336751D01*
X153880729Y-143056023D01*
X153935000Y-142759000D01*
X153935000Y-141859000D01*
X152527000Y-141859000D01*
X152273000Y-141859000D01*
X150865000Y-141859000D01*
X142401000Y-141859000D01*
X142401000Y-141473346D01*
X142565448Y-141308898D01*
X142754447Y-141026041D01*
X142884632Y-140711747D01*
X142885974Y-140705000D01*
X150865000Y-140705000D01*
X150865000Y-141605000D01*
X152273000Y-141605000D01*
X152273000Y-139461622D01*
X152527000Y-139461622D01*
X152527000Y-141605000D01*
X153935000Y-141605000D01*
X153935000Y-140742245D01*
X155653000Y-140742245D01*
X155653000Y-142721754D01*
X155679435Y-142990154D01*
X155783905Y-143334545D01*
X155953555Y-143651937D01*
X156181865Y-143930135D01*
X156460062Y-144158445D01*
X156777454Y-144328095D01*
X157121845Y-144432565D01*
X157480000Y-144467840D01*
X157838154Y-144432565D01*
X158182545Y-144328095D01*
X158499937Y-144158445D01*
X158778135Y-143930135D01*
X159006445Y-143651938D01*
X159176095Y-143334546D01*
X159280565Y-142990155D01*
X159307000Y-142721755D01*
X159307000Y-140742245D01*
X159280565Y-140473845D01*
X159176095Y-140129454D01*
X159070554Y-139932000D01*
X160728515Y-139932000D01*
X160728515Y-143532000D01*
X160746413Y-143713724D01*
X160799420Y-143888464D01*
X160885499Y-144049505D01*
X161001341Y-144190659D01*
X161142495Y-144306501D01*
X161303536Y-144392580D01*
X161478276Y-144445587D01*
X161660000Y-144463485D01*
X163460000Y-144463485D01*
X163641724Y-144445587D01*
X163816464Y-144392580D01*
X163977505Y-144306501D01*
X164118659Y-144190659D01*
X164234501Y-144049505D01*
X164320580Y-143888464D01*
X164373587Y-143713724D01*
X164391485Y-143532000D01*
X164391485Y-142499112D01*
X169177000Y-142499112D01*
X169177000Y-142996888D01*
X169274111Y-143485099D01*
X169464602Y-143944983D01*
X169741151Y-144358869D01*
X170093131Y-144710849D01*
X170507017Y-144987398D01*
X170966901Y-145177889D01*
X171455112Y-145275000D01*
X171952888Y-145275000D01*
X172441099Y-145177889D01*
X172900983Y-144987398D01*
X173314869Y-144710849D01*
X173666849Y-144358869D01*
X173943398Y-143944983D01*
X174133889Y-143485099D01*
X174231000Y-142996888D01*
X174231000Y-142499112D01*
X174133889Y-142010901D01*
X173943398Y-141551017D01*
X173666849Y-141137131D01*
X173314869Y-140785151D01*
X172900983Y-140508602D01*
X172441099Y-140318111D01*
X171952888Y-140221000D01*
X171455112Y-140221000D01*
X170966901Y-140318111D01*
X170507017Y-140508602D01*
X170093131Y-140785151D01*
X169741151Y-141137131D01*
X169464602Y-141551017D01*
X169274111Y-142010901D01*
X169177000Y-142499112D01*
X164391485Y-142499112D01*
X164391485Y-139932000D01*
X164373587Y-139750276D01*
X164320580Y-139575536D01*
X164234501Y-139414495D01*
X164118659Y-139273341D01*
X163977505Y-139157499D01*
X163816464Y-139071420D01*
X163641724Y-139018413D01*
X163460000Y-139000515D01*
X161660000Y-139000515D01*
X161478276Y-139018413D01*
X161303536Y-139071420D01*
X161142495Y-139157499D01*
X161001341Y-139273341D01*
X160885499Y-139414495D01*
X160799420Y-139575536D01*
X160746413Y-139750276D01*
X160728515Y-139932000D01*
X159070554Y-139932000D01*
X159006445Y-139812062D01*
X158778135Y-139533865D01*
X158499938Y-139305555D01*
X158182546Y-139135905D01*
X157838155Y-139031435D01*
X157480000Y-138996160D01*
X157121846Y-139031435D01*
X156777455Y-139135905D01*
X156460063Y-139305555D01*
X156181866Y-139533865D01*
X155953556Y-139812062D01*
X155783906Y-140129454D01*
X155679436Y-140473845D01*
X155653000Y-140742245D01*
X153935000Y-140742245D01*
X153935000Y-140705000D01*
X153880729Y-140407977D01*
X153769554Y-140127249D01*
X153605748Y-139873604D01*
X153395606Y-139656790D01*
X153147204Y-139485138D01*
X152870087Y-139365245D01*
X152764740Y-139340964D01*
X152527000Y-139461622D01*
X152273000Y-139461622D01*
X152035260Y-139340964D01*
X151929913Y-139365245D01*
X151652796Y-139485138D01*
X151404394Y-139656790D01*
X151194252Y-139873604D01*
X151030446Y-140127249D01*
X150919271Y-140407977D01*
X150865000Y-140705000D01*
X142885974Y-140705000D01*
X142951000Y-140378095D01*
X142951000Y-140037905D01*
X142884632Y-139704253D01*
X142754447Y-139389959D01*
X142565448Y-139107102D01*
X142324898Y-138866552D01*
X142042041Y-138677553D01*
X141727747Y-138547368D01*
X141394095Y-138481000D01*
X141053905Y-138481000D01*
X140720253Y-138547368D01*
X140405959Y-138677553D01*
X140123102Y-138866552D01*
X139958654Y-139031000D01*
X139441346Y-139031000D01*
X139276898Y-138866552D01*
X138994041Y-138677553D01*
X138679747Y-138547368D01*
X138346095Y-138481000D01*
X138005905Y-138481000D01*
X137672253Y-138547368D01*
X137357959Y-138677553D01*
X137075102Y-138866552D01*
X136834552Y-139107102D01*
X136652000Y-139380310D01*
X136469448Y-139107102D01*
X136305000Y-138942654D01*
X136305000Y-133153812D01*
X136310694Y-133096000D01*
X136287969Y-132865268D01*
X136273852Y-132818731D01*
X136220667Y-132643403D01*
X136111374Y-132438930D01*
X135964291Y-132259709D01*
X135919382Y-132222853D01*
X135442754Y-131746225D01*
X135631747Y-131708632D01*
X135946041Y-131578447D01*
X136228898Y-131389448D01*
X136469448Y-131148898D01*
X136652000Y-130875690D01*
X136834552Y-131148898D01*
X137007321Y-131321667D01*
X137016031Y-131410102D01*
X137083333Y-131631967D01*
X137157092Y-131769959D01*
X137190952Y-131833306D01*
X137192627Y-131836440D01*
X137339710Y-132015661D01*
X137384618Y-132052516D01*
X138437489Y-133105388D01*
X138474340Y-133150292D01*
X138519243Y-133187143D01*
X138519245Y-133187145D01*
X138589826Y-133245069D01*
X138653561Y-133297375D01*
X138858034Y-133406668D01*
X139062187Y-133468597D01*
X139079899Y-133473970D01*
X139310631Y-133496695D01*
X139368443Y-133491001D01*
X152699557Y-133491001D01*
X152757369Y-133496695D01*
X152815181Y-133491001D01*
X152988101Y-133473970D01*
X153209966Y-133406668D01*
X153414439Y-133297375D01*
X153593660Y-133150292D01*
X153630518Y-133105380D01*
X153667381Y-133068517D01*
X153712291Y-133031661D01*
X153859374Y-132852440D01*
X153968667Y-132647967D01*
X154035969Y-132426102D01*
X154044679Y-132337667D01*
X154217448Y-132164898D01*
X154406447Y-131882041D01*
X154536632Y-131567747D01*
X154603000Y-131234095D01*
X154603000Y-130893905D01*
X154536632Y-130560253D01*
X154406447Y-130245959D01*
X154217448Y-129963102D01*
X153976898Y-129722552D01*
X153694041Y-129533553D01*
X153379747Y-129403368D01*
X153046095Y-129337000D01*
X152705905Y-129337000D01*
X152372253Y-129403368D01*
X152180761Y-129482687D01*
X152032464Y-129403420D01*
X151857724Y-129350413D01*
X151676000Y-129332515D01*
X150076000Y-129332515D01*
X149894276Y-129350413D01*
X149719536Y-129403420D01*
X149558495Y-129489499D01*
X149417341Y-129605341D01*
X149301499Y-129746495D01*
X149215420Y-129907536D01*
X149162413Y-130082276D01*
X149144515Y-130264000D01*
X149144515Y-131137001D01*
X142008842Y-131137001D01*
X142037097Y-131040702D01*
X141224000Y-130227605D01*
X140410903Y-131040702D01*
X140439158Y-131137001D01*
X139798160Y-131137001D01*
X139634651Y-130973492D01*
X139706447Y-130866041D01*
X139836632Y-130551747D01*
X139852186Y-130473554D01*
X139920397Y-130664292D01*
X139987329Y-130789514D01*
X140231298Y-130861097D01*
X141044395Y-130048000D01*
X141403605Y-130048000D01*
X142216702Y-130861097D01*
X142460671Y-130789514D01*
X142581571Y-130534004D01*
X142650300Y-130259816D01*
X142664217Y-129977488D01*
X142622787Y-129697870D01*
X142527603Y-129431708D01*
X142460671Y-129306486D01*
X142216702Y-129234903D01*
X141403605Y-130048000D01*
X141044395Y-130048000D01*
X140231298Y-129234903D01*
X139987329Y-129306486D01*
X139866429Y-129561996D01*
X139851783Y-129620423D01*
X139836632Y-129544253D01*
X139706447Y-129229959D01*
X139517448Y-128947102D01*
X139276898Y-128706552D01*
X139244643Y-128685000D01*
X140773799Y-128685000D01*
X140607708Y-128744397D01*
X140482486Y-128811329D01*
X140410903Y-129055298D01*
X141224000Y-129868395D01*
X142037097Y-129055298D01*
X141965514Y-128811329D01*
X141710004Y-128690429D01*
X141688346Y-128685000D01*
X155546248Y-128685000D01*
X155521553Y-128721959D01*
X155391368Y-129036253D01*
X155325000Y-129369905D01*
X155325000Y-129710095D01*
X155391368Y-130043747D01*
X155521553Y-130358041D01*
X155710552Y-130640898D01*
X155951102Y-130881448D01*
X156233959Y-131070447D01*
X156548253Y-131200632D01*
X156881905Y-131267000D01*
X157114472Y-131267000D01*
X159114065Y-133266594D01*
X159064413Y-133430276D01*
X159046515Y-133612000D01*
X159046515Y-135412000D01*
X159064413Y-135593724D01*
X159117420Y-135768464D01*
X159203499Y-135929505D01*
X159319341Y-136070659D01*
X159460495Y-136186501D01*
X159621536Y-136272580D01*
X159796276Y-136325587D01*
X159978000Y-136343485D01*
X161078000Y-136343485D01*
X161259724Y-136325587D01*
X161434464Y-136272580D01*
X161595505Y-136186501D01*
X161736659Y-136070659D01*
X161852501Y-135929505D01*
X161867349Y-135901727D01*
X161939886Y-135990114D01*
X162122713Y-136140156D01*
X162331298Y-136251647D01*
X162557626Y-136320303D01*
X162793000Y-136343485D01*
X163343000Y-136343485D01*
X163578374Y-136320303D01*
X163622415Y-136306943D01*
X165774853Y-138459382D01*
X165811709Y-138504291D01*
X165990930Y-138651374D01*
X166195403Y-138760667D01*
X166226573Y-138770122D01*
X166234413Y-138849724D01*
X166287420Y-139024464D01*
X166373499Y-139185505D01*
X166489341Y-139326659D01*
X166630495Y-139442501D01*
X166791536Y-139528580D01*
X166966276Y-139581587D01*
X167148000Y-139599485D01*
X169148000Y-139599485D01*
X169329724Y-139581587D01*
X169504464Y-139528580D01*
X169665505Y-139442501D01*
X169806659Y-139326659D01*
X169922501Y-139185505D01*
X169926000Y-139178959D01*
X169929499Y-139185505D01*
X170045341Y-139326659D01*
X170186495Y-139442501D01*
X170347536Y-139528580D01*
X170522276Y-139581587D01*
X170704000Y-139599485D01*
X172704000Y-139599485D01*
X172885724Y-139581587D01*
X173060464Y-139528580D01*
X173221505Y-139442501D01*
X173362659Y-139326659D01*
X173478501Y-139185505D01*
X173564580Y-139024464D01*
X173617587Y-138849724D01*
X173635485Y-138668000D01*
X173635485Y-136668000D01*
X173617587Y-136486276D01*
X173564580Y-136311536D01*
X173478501Y-136150495D01*
X173362659Y-136009341D01*
X173221505Y-135893499D01*
X173060464Y-135807420D01*
X172885724Y-135754413D01*
X172704000Y-135736515D01*
X171437044Y-135736515D01*
X169325000Y-133624472D01*
X169325000Y-129039137D01*
X169376391Y-129004799D01*
X169644799Y-128736391D01*
X169855685Y-128420777D01*
X170000947Y-128070085D01*
X170075000Y-127697793D01*
X170075000Y-127635002D01*
X170232684Y-127635002D01*
X170113871Y-127888435D01*
X170218644Y-128191344D01*
X170380499Y-128467992D01*
X170593215Y-128707748D01*
X170848618Y-128901399D01*
X171136893Y-129041502D01*
X171323566Y-129098124D01*
X171577000Y-128978777D01*
X171577000Y-127635000D01*
X171831000Y-127635000D01*
X171831000Y-128978777D01*
X172084434Y-129098124D01*
X172271107Y-129041502D01*
X172559382Y-128901399D01*
X172814785Y-128707748D01*
X173027501Y-128467992D01*
X173189356Y-128191344D01*
X173294129Y-127888435D01*
X173175315Y-127635000D01*
X171831000Y-127635000D01*
X171577000Y-127635000D01*
X171557000Y-127635000D01*
X171557000Y-127381000D01*
X171577000Y-127381000D01*
X171577000Y-126037223D01*
X171831000Y-126037223D01*
X171831000Y-127381000D01*
X173175315Y-127381000D01*
X173294129Y-127127565D01*
X173189356Y-126824656D01*
X173027501Y-126548008D01*
X172814785Y-126308252D01*
X172559382Y-126114601D01*
X172271107Y-125974498D01*
X172084434Y-125917876D01*
X171831000Y-126037223D01*
X171577000Y-126037223D01*
X171377333Y-125943196D01*
X171987382Y-125333147D01*
X172032291Y-125296291D01*
X172179374Y-125117070D01*
X172288667Y-124912597D01*
X172355969Y-124690732D01*
X172373000Y-124517812D01*
X172378694Y-124460000D01*
X172373000Y-124402188D01*
X172373000Y-119156558D01*
X172454155Y-119148565D01*
X172798546Y-119044095D01*
X173115938Y-118874445D01*
X173394135Y-118646135D01*
X173622445Y-118367938D01*
X173792095Y-118050546D01*
X173896565Y-117706155D01*
X173931840Y-117348000D01*
X173896565Y-116989845D01*
X173792095Y-116645454D01*
X173622445Y-116328062D01*
X173394135Y-116049865D01*
X173115938Y-115821555D01*
X172798546Y-115651905D01*
X172454155Y-115547435D01*
X172185755Y-115521000D01*
X170206245Y-115521000D01*
X169937845Y-115547435D01*
X169593454Y-115651905D01*
X169276062Y-115821555D01*
X168997865Y-116049865D01*
X168769555Y-116328062D01*
X168599905Y-116645454D01*
X168495435Y-116989845D01*
X168460160Y-117348000D01*
X168495435Y-117706155D01*
X168599905Y-118050546D01*
X168769555Y-118367938D01*
X168997865Y-118646135D01*
X169276062Y-118874445D01*
X169593454Y-119044095D01*
X169937845Y-119148565D01*
X170019000Y-119156558D01*
X170019001Y-123972470D01*
X168398414Y-125593058D01*
X168337793Y-125581000D01*
X167958207Y-125581000D01*
X167585915Y-125655053D01*
X167235223Y-125800315D01*
X166919609Y-126011201D01*
X166785000Y-126145810D01*
X166785000Y-125467621D01*
X166836156Y-125405287D01*
X166947647Y-125196702D01*
X167016303Y-124970374D01*
X167039485Y-124735000D01*
X167039485Y-124327765D01*
X167151000Y-124216250D01*
X167151000Y-123317000D01*
X167405000Y-123317000D01*
X167405000Y-124216250D01*
X167563750Y-124375000D01*
X168178000Y-124378072D01*
X168302482Y-124365812D01*
X168422180Y-124329502D01*
X168532494Y-124270537D01*
X168629185Y-124191185D01*
X168708537Y-124094494D01*
X168767502Y-123984180D01*
X168803812Y-123864482D01*
X168816072Y-123740000D01*
X168813000Y-123475750D01*
X168654250Y-123317000D01*
X167405000Y-123317000D01*
X167151000Y-123317000D01*
X167131000Y-123317000D01*
X167131000Y-123063000D01*
X167151000Y-123063000D01*
X167151000Y-122163750D01*
X167405000Y-122163750D01*
X167405000Y-123063000D01*
X168654250Y-123063000D01*
X168813000Y-122904250D01*
X168816072Y-122640000D01*
X168803812Y-122515518D01*
X168767502Y-122395820D01*
X168708537Y-122285506D01*
X168629185Y-122188815D01*
X168532494Y-122109463D01*
X168422180Y-122050498D01*
X168302482Y-122014188D01*
X168178000Y-122001928D01*
X167563750Y-122005000D01*
X167405000Y-122163750D01*
X167151000Y-122163750D01*
X167039485Y-122052235D01*
X167039485Y-121370000D01*
X167021587Y-121188276D01*
X166968580Y-121013536D01*
X166882501Y-120852495D01*
X166766659Y-120711341D01*
X166625505Y-120595499D01*
X166464464Y-120509420D01*
X166289724Y-120456413D01*
X166108000Y-120438515D01*
X164308000Y-120438515D01*
X164126276Y-120456413D01*
X163951536Y-120509420D01*
X163872302Y-120551772D01*
X159174191Y-115853663D01*
X159190256Y-115800702D01*
X160166903Y-115800702D01*
X160238486Y-116044671D01*
X160493996Y-116165571D01*
X160768184Y-116234300D01*
X161050512Y-116248217D01*
X161330130Y-116206787D01*
X161596292Y-116111603D01*
X161721514Y-116044671D01*
X161793097Y-115800702D01*
X160980000Y-114987605D01*
X160166903Y-115800702D01*
X159190256Y-115800702D01*
X159193587Y-115789724D01*
X159211485Y-115608000D01*
X159211485Y-114878512D01*
X159539783Y-114878512D01*
X159581213Y-115158130D01*
X159676397Y-115424292D01*
X159743329Y-115549514D01*
X159987298Y-115621097D01*
X160800395Y-114808000D01*
X161159605Y-114808000D01*
X161972702Y-115621097D01*
X162216671Y-115549514D01*
X162337571Y-115294004D01*
X162406300Y-115019816D01*
X162420217Y-114737488D01*
X162378787Y-114457870D01*
X162283603Y-114191708D01*
X162216671Y-114066486D01*
X161972702Y-113994903D01*
X161159605Y-114808000D01*
X160800395Y-114808000D01*
X159987298Y-113994903D01*
X159743329Y-114066486D01*
X159622429Y-114321996D01*
X159553700Y-114596184D01*
X159539783Y-114878512D01*
X159211485Y-114878512D01*
X159211485Y-114008000D01*
X159193587Y-113826276D01*
X159190257Y-113815298D01*
X160166903Y-113815298D01*
X160980000Y-114628395D01*
X161793097Y-113815298D01*
X161721514Y-113571329D01*
X161466004Y-113450429D01*
X161191816Y-113381700D01*
X160909488Y-113367783D01*
X160629870Y-113409213D01*
X160363708Y-113504397D01*
X160238486Y-113571329D01*
X160166903Y-113815298D01*
X159190257Y-113815298D01*
X159140580Y-113651536D01*
X159054501Y-113490495D01*
X158938659Y-113349341D01*
X158797505Y-113233499D01*
X158636464Y-113147420D01*
X158461724Y-113094413D01*
X158280000Y-113076515D01*
X156680000Y-113076515D01*
X156498276Y-113094413D01*
X156323536Y-113147420D01*
X156162495Y-113233499D01*
X156021341Y-113349341D01*
X155905499Y-113490495D01*
X155819420Y-113651536D01*
X155766413Y-113826276D01*
X155748515Y-114008000D01*
X155748515Y-115608000D01*
X155766413Y-115789724D01*
X155785809Y-115853663D01*
X155468472Y-116171000D01*
X154173346Y-116171000D01*
X154008898Y-116006552D01*
X153726041Y-115817553D01*
X153411747Y-115687368D01*
X153078095Y-115621000D01*
X152737905Y-115621000D01*
X152404253Y-115687368D01*
X152089959Y-115817553D01*
X151807102Y-116006552D01*
X151642654Y-116171000D01*
X149331530Y-116171000D01*
X146501232Y-113340702D01*
X152094903Y-113340702D01*
X152166486Y-113584671D01*
X152421996Y-113705571D01*
X152696184Y-113774300D01*
X152978512Y-113788217D01*
X153258130Y-113746787D01*
X153524292Y-113651603D01*
X153649514Y-113584671D01*
X153721097Y-113340702D01*
X152908000Y-112527605D01*
X152094903Y-113340702D01*
X146501232Y-113340702D01*
X145579041Y-112418512D01*
X151467783Y-112418512D01*
X151509213Y-112698130D01*
X151604397Y-112964292D01*
X151671329Y-113089514D01*
X151915298Y-113161097D01*
X152728395Y-112348000D01*
X153087605Y-112348000D01*
X153900702Y-113161097D01*
X154144671Y-113089514D01*
X154265571Y-112834004D01*
X154334300Y-112559816D01*
X154348217Y-112277488D01*
X154306787Y-111997870D01*
X154211603Y-111731708D01*
X154144671Y-111606486D01*
X153900702Y-111534903D01*
X153087605Y-112348000D01*
X152728395Y-112348000D01*
X151915298Y-111534903D01*
X151671329Y-111606486D01*
X151550429Y-111861996D01*
X151481700Y-112136184D01*
X151467783Y-112418512D01*
X145579041Y-112418512D01*
X144515827Y-111355298D01*
X152094903Y-111355298D01*
X152908000Y-112168395D01*
X153721097Y-111355298D01*
X153649514Y-111111329D01*
X153394004Y-110990429D01*
X153119816Y-110921700D01*
X152837488Y-110907783D01*
X152557870Y-110949213D01*
X152291708Y-111044397D01*
X152166486Y-111111329D01*
X152094903Y-111355298D01*
X144515827Y-111355298D01*
X142393000Y-109232472D01*
X142393000Y-109054830D01*
X142328554Y-108730837D01*
X142202138Y-108425643D01*
X142018611Y-108150975D01*
X141785025Y-107917389D01*
X141510357Y-107733862D01*
X141205163Y-107607446D01*
X140881170Y-107543000D01*
X140550830Y-107543000D01*
X140226837Y-107607446D01*
X139921643Y-107733862D01*
X139646975Y-107917389D01*
X139413389Y-108150975D01*
X139229862Y-108425643D01*
X139213667Y-108464742D01*
X139132993Y-108442612D01*
X138355605Y-109220000D01*
X139132993Y-109997388D01*
X139213667Y-109975258D01*
X139229862Y-110014357D01*
X139413389Y-110289025D01*
X139646975Y-110522611D01*
X139921643Y-110706138D01*
X140226837Y-110832554D01*
X140550830Y-110897000D01*
X140728472Y-110897000D01*
X147970858Y-118139388D01*
X148007709Y-118184291D01*
X148052612Y-118221142D01*
X148052614Y-118221144D01*
X148165149Y-118313499D01*
X148186930Y-118331374D01*
X148391403Y-118440667D01*
X148551438Y-118489213D01*
X148613268Y-118507969D01*
X148844000Y-118530694D01*
X148901812Y-118525000D01*
X151642654Y-118525000D01*
X151807102Y-118689448D01*
X152089959Y-118878447D01*
X152404253Y-119008632D01*
X152737905Y-119075000D01*
X153078095Y-119075000D01*
X153411747Y-119008632D01*
X153726041Y-118878447D01*
X154008898Y-118689448D01*
X154173346Y-118525000D01*
X155898188Y-118525000D01*
X155956000Y-118530694D01*
X156013812Y-118525000D01*
X156186732Y-118507969D01*
X156408597Y-118440667D01*
X156613070Y-118331374D01*
X156792291Y-118184291D01*
X156829151Y-118139377D01*
X157480000Y-117488528D01*
X162702858Y-122711388D01*
X162739709Y-122756291D01*
X162784612Y-122793142D01*
X162784614Y-122793144D01*
X162904717Y-122891710D01*
X162918930Y-122903374D01*
X163123403Y-123012667D01*
X163315474Y-123070931D01*
X163345268Y-123079969D01*
X163576000Y-123102694D01*
X163624141Y-123097953D01*
X163649341Y-123128659D01*
X163790495Y-123244501D01*
X163818273Y-123259349D01*
X163729886Y-123331886D01*
X163579844Y-123514713D01*
X163468353Y-123723298D01*
X163399697Y-123949626D01*
X163376515Y-124185000D01*
X163376515Y-124735000D01*
X163399697Y-124970374D01*
X163468353Y-125196702D01*
X163579844Y-125405287D01*
X163729886Y-125588114D01*
X163912713Y-125738156D01*
X164121298Y-125849647D01*
X164347626Y-125918303D01*
X164431000Y-125926515D01*
X164431001Y-131084470D01*
X162885361Y-132630111D01*
X162824250Y-132569000D01*
X161925000Y-132569000D01*
X161925000Y-132589000D01*
X161671000Y-132589000D01*
X161671000Y-132569000D01*
X161651000Y-132569000D01*
X161651000Y-132315000D01*
X161671000Y-132315000D01*
X161671000Y-132295000D01*
X161925000Y-132295000D01*
X161925000Y-132315000D01*
X162824250Y-132315000D01*
X162983000Y-132156250D01*
X162986072Y-131542000D01*
X162973812Y-131417518D01*
X162937502Y-131297820D01*
X162878537Y-131187506D01*
X162799185Y-131090815D01*
X162702494Y-131011463D01*
X162592180Y-130952498D01*
X162472482Y-130916188D01*
X162466869Y-130915635D01*
X162668292Y-130843603D01*
X162793514Y-130776671D01*
X162865097Y-130532702D01*
X162052000Y-129719605D01*
X161238903Y-130532702D01*
X161310486Y-130776671D01*
X161565996Y-130897571D01*
X161670998Y-130923891D01*
X161670998Y-131065748D01*
X161512250Y-130907000D01*
X161248000Y-130903928D01*
X161123518Y-130916188D01*
X161003820Y-130952498D01*
X160893506Y-131011463D01*
X160796815Y-131090815D01*
X160717463Y-131187506D01*
X160658498Y-131297820D01*
X160622188Y-131417518D01*
X160619665Y-131443136D01*
X158787041Y-129610512D01*
X160611783Y-129610512D01*
X160653213Y-129890130D01*
X160748397Y-130156292D01*
X160815329Y-130281514D01*
X161059298Y-130353097D01*
X161872395Y-129540000D01*
X162231605Y-129540000D01*
X163044702Y-130353097D01*
X163288671Y-130281514D01*
X163409571Y-130026004D01*
X163478300Y-129751816D01*
X163492217Y-129469488D01*
X163450787Y-129189870D01*
X163355603Y-128923708D01*
X163288671Y-128798486D01*
X163044702Y-128726903D01*
X162231605Y-129540000D01*
X161872395Y-129540000D01*
X161059298Y-128726903D01*
X160815329Y-128798486D01*
X160694429Y-129053996D01*
X160625700Y-129328184D01*
X160611783Y-129610512D01*
X158787041Y-129610512D01*
X158779000Y-129602472D01*
X158779000Y-129369905D01*
X158712632Y-129036253D01*
X158582447Y-128721959D01*
X158465743Y-128547298D01*
X161238903Y-128547298D01*
X162052000Y-129360395D01*
X162865097Y-128547298D01*
X162793514Y-128303329D01*
X162538004Y-128182429D01*
X162263816Y-128113700D01*
X161981488Y-128099783D01*
X161701870Y-128141213D01*
X161435708Y-128236397D01*
X161310486Y-128303329D01*
X161238903Y-128547298D01*
X158465743Y-128547298D01*
X158393448Y-128439102D01*
X158229000Y-128274654D01*
X158229000Y-127565811D01*
X158234694Y-127508000D01*
X158229000Y-127450188D01*
X158229000Y-125175485D01*
X158280000Y-125175485D01*
X158461724Y-125157587D01*
X158636464Y-125104580D01*
X158797505Y-125018501D01*
X158938659Y-124902659D01*
X159054501Y-124761505D01*
X159140580Y-124600464D01*
X159190256Y-124436702D01*
X160166903Y-124436702D01*
X160238486Y-124680671D01*
X160493996Y-124801571D01*
X160768184Y-124870300D01*
X161050512Y-124884217D01*
X161330130Y-124842787D01*
X161596292Y-124747603D01*
X161721514Y-124680671D01*
X161793097Y-124436702D01*
X160980000Y-123623605D01*
X160166903Y-124436702D01*
X159190256Y-124436702D01*
X159193587Y-124425724D01*
X159211485Y-124244000D01*
X159211485Y-123514512D01*
X159539783Y-123514512D01*
X159581213Y-123794130D01*
X159676397Y-124060292D01*
X159743329Y-124185514D01*
X159987298Y-124257097D01*
X160800395Y-123444000D01*
X161159605Y-123444000D01*
X161972702Y-124257097D01*
X162216671Y-124185514D01*
X162337571Y-123930004D01*
X162406300Y-123655816D01*
X162420217Y-123373488D01*
X162378787Y-123093870D01*
X162283603Y-122827708D01*
X162216671Y-122702486D01*
X161972702Y-122630903D01*
X161159605Y-123444000D01*
X160800395Y-123444000D01*
X159987298Y-122630903D01*
X159743329Y-122702486D01*
X159622429Y-122957996D01*
X159553700Y-123232184D01*
X159539783Y-123514512D01*
X159211485Y-123514512D01*
X159211485Y-122644000D01*
X159193587Y-122462276D01*
X159190257Y-122451298D01*
X160166903Y-122451298D01*
X160980000Y-123264395D01*
X161793097Y-122451298D01*
X161721514Y-122207329D01*
X161466004Y-122086429D01*
X161191816Y-122017700D01*
X160909488Y-122003783D01*
X160629870Y-122045213D01*
X160363708Y-122140397D01*
X160238486Y-122207329D01*
X160166903Y-122451298D01*
X159190257Y-122451298D01*
X159140580Y-122287536D01*
X159054501Y-122126495D01*
X158938659Y-121985341D01*
X158797505Y-121869499D01*
X158636464Y-121783420D01*
X158461724Y-121730413D01*
X158280000Y-121712515D01*
X156680000Y-121712515D01*
X156498276Y-121730413D01*
X156323536Y-121783420D01*
X156162495Y-121869499D01*
X156021341Y-121985341D01*
X155905499Y-122126495D01*
X155819420Y-122287536D01*
X155766413Y-122462276D01*
X155748515Y-122644000D01*
X155748515Y-124244000D01*
X155766413Y-124425724D01*
X155819420Y-124600464D01*
X155875001Y-124704447D01*
X155875000Y-126331000D01*
X137725801Y-126331000D01*
X137667999Y-126325307D01*
X137610197Y-126331000D01*
X137610188Y-126331000D01*
X137437268Y-126348031D01*
X137215403Y-126415333D01*
X137010930Y-126524626D01*
X136831709Y-126671709D01*
X136794856Y-126716615D01*
X135190472Y-128321000D01*
X134957905Y-128321000D01*
X134624253Y-128387368D01*
X134309959Y-128517553D01*
X134027102Y-128706552D01*
X133786552Y-128947102D01*
X133604000Y-129220310D01*
X133421448Y-128947102D01*
X133180898Y-128706552D01*
X132898041Y-128517553D01*
X132583747Y-128387368D01*
X132250095Y-128321000D01*
X132017529Y-128321000D01*
X130717000Y-127020472D01*
X130717000Y-124289905D01*
X134925000Y-124289905D01*
X134925000Y-124630095D01*
X134991368Y-124963747D01*
X135121553Y-125278041D01*
X135310552Y-125560898D01*
X135551102Y-125801448D01*
X135833959Y-125990447D01*
X136148253Y-126120632D01*
X136481905Y-126187000D01*
X136822095Y-126187000D01*
X137155747Y-126120632D01*
X137470041Y-125990447D01*
X137752898Y-125801448D01*
X137917346Y-125637000D01*
X149802188Y-125637000D01*
X149860000Y-125642694D01*
X149917812Y-125637000D01*
X150090732Y-125619969D01*
X150312597Y-125552667D01*
X150517070Y-125443374D01*
X150696291Y-125296291D01*
X150733151Y-125251377D01*
X150809043Y-125175485D01*
X151676000Y-125175485D01*
X151857724Y-125157587D01*
X152032464Y-125104580D01*
X152180761Y-125025313D01*
X152372253Y-125104632D01*
X152705905Y-125171000D01*
X153046095Y-125171000D01*
X153379747Y-125104632D01*
X153694041Y-124974447D01*
X153976898Y-124785448D01*
X154217448Y-124544898D01*
X154406447Y-124262041D01*
X154536632Y-123947747D01*
X154603000Y-123614095D01*
X154603000Y-123273905D01*
X154536632Y-122940253D01*
X154406447Y-122625959D01*
X154217448Y-122343102D01*
X153976898Y-122102552D01*
X153694041Y-121913553D01*
X153379747Y-121783368D01*
X153046095Y-121717000D01*
X152705905Y-121717000D01*
X152372253Y-121783368D01*
X152180761Y-121862687D01*
X152032464Y-121783420D01*
X151857724Y-121730413D01*
X151676000Y-121712515D01*
X150076000Y-121712515D01*
X149894276Y-121730413D01*
X149719536Y-121783420D01*
X149558495Y-121869499D01*
X149417341Y-121985341D01*
X149301499Y-122126495D01*
X149215420Y-122287536D01*
X149162413Y-122462276D01*
X149144515Y-122644000D01*
X149144515Y-123283000D01*
X137917346Y-123283000D01*
X137752898Y-123118552D01*
X137470041Y-122929553D01*
X137155747Y-122799368D01*
X136822095Y-122733000D01*
X136481905Y-122733000D01*
X136148253Y-122799368D01*
X135833959Y-122929553D01*
X135551102Y-123118552D01*
X135310552Y-123359102D01*
X135121553Y-123641959D01*
X134991368Y-123956253D01*
X134925000Y-124289905D01*
X130717000Y-124289905D01*
X130717000Y-123693346D01*
X130881448Y-123528898D01*
X130995583Y-123358083D01*
X131116586Y-123491519D01*
X131342580Y-123659037D01*
X131596913Y-123779246D01*
X131730961Y-123819904D01*
X131953000Y-123697915D01*
X131953000Y-122555000D01*
X132207000Y-122555000D01*
X132207000Y-123697915D01*
X132429039Y-123819904D01*
X132563087Y-123779246D01*
X132817420Y-123659037D01*
X133043414Y-123491519D01*
X133232385Y-123283131D01*
X133377070Y-123041881D01*
X133471909Y-122777040D01*
X133350624Y-122555000D01*
X132207000Y-122555000D01*
X131953000Y-122555000D01*
X131933000Y-122555000D01*
X131933000Y-122301000D01*
X131953000Y-122301000D01*
X131953000Y-121158085D01*
X132207000Y-121158085D01*
X132207000Y-122301000D01*
X133350624Y-122301000D01*
X133471909Y-122078960D01*
X133377070Y-121814119D01*
X133232385Y-121572869D01*
X133043414Y-121364481D01*
X132817420Y-121196963D01*
X132563087Y-121076754D01*
X132429039Y-121036096D01*
X132207000Y-121158085D01*
X131953000Y-121158085D01*
X131730961Y-121036096D01*
X131596913Y-121076754D01*
X131342580Y-121196963D01*
X131116586Y-121364481D01*
X130995583Y-121497917D01*
X130881448Y-121327102D01*
X130717000Y-121162654D01*
X130717000Y-117835528D01*
X132017529Y-116535000D01*
X132142472Y-116535000D01*
X136286858Y-120679388D01*
X136323709Y-120724291D01*
X136368612Y-120761142D01*
X136368614Y-120761144D01*
X136449266Y-120827333D01*
X136502930Y-120871374D01*
X136707403Y-120980667D01*
X136890128Y-121036096D01*
X136929268Y-121047969D01*
X137160000Y-121070694D01*
X137217812Y-121065000D01*
X140082397Y-121065000D01*
X140157499Y-121205505D01*
X140273341Y-121346659D01*
X140414495Y-121462501D01*
X140575536Y-121548580D01*
X140750276Y-121601587D01*
X140932000Y-121619485D01*
X142532000Y-121619485D01*
X142713724Y-121601587D01*
X142888464Y-121548580D01*
X143049505Y-121462501D01*
X143190659Y-121346659D01*
X143306501Y-121205505D01*
X143392580Y-121044464D01*
X143442256Y-120880702D01*
X144418903Y-120880702D01*
X144490486Y-121124671D01*
X144745996Y-121245571D01*
X145020184Y-121314300D01*
X145302512Y-121328217D01*
X145582130Y-121286787D01*
X145848292Y-121191603D01*
X145973514Y-121124671D01*
X146045097Y-120880702D01*
X145232000Y-120067605D01*
X144418903Y-120880702D01*
X143442256Y-120880702D01*
X143445587Y-120869724D01*
X143463485Y-120688000D01*
X143463485Y-119958512D01*
X143791783Y-119958512D01*
X143833213Y-120238130D01*
X143928397Y-120504292D01*
X143995329Y-120629514D01*
X144239298Y-120701097D01*
X145052395Y-119888000D01*
X145411605Y-119888000D01*
X146224702Y-120701097D01*
X146468671Y-120629514D01*
X146589571Y-120374004D01*
X146658300Y-120099816D01*
X146672217Y-119817488D01*
X146630787Y-119537870D01*
X146535603Y-119271708D01*
X146468671Y-119146486D01*
X146224702Y-119074903D01*
X145411605Y-119888000D01*
X145052395Y-119888000D01*
X144239298Y-119074903D01*
X143995329Y-119146486D01*
X143874429Y-119401996D01*
X143805700Y-119676184D01*
X143791783Y-119958512D01*
X143463485Y-119958512D01*
X143463485Y-119088000D01*
X143445587Y-118906276D01*
X143442257Y-118895298D01*
X144418903Y-118895298D01*
X145232000Y-119708395D01*
X146045097Y-118895298D01*
X145973514Y-118651329D01*
X145718004Y-118530429D01*
X145443816Y-118461700D01*
X145161488Y-118447783D01*
X144881870Y-118489213D01*
X144615708Y-118584397D01*
X144490486Y-118651329D01*
X144418903Y-118895298D01*
X143442257Y-118895298D01*
X143392580Y-118731536D01*
X143306501Y-118570495D01*
X143190659Y-118429341D01*
X143049505Y-118313499D01*
X142888464Y-118227420D01*
X142713724Y-118174413D01*
X142532000Y-118156515D01*
X140932000Y-118156515D01*
X140750276Y-118174413D01*
X140575536Y-118227420D01*
X140414495Y-118313499D01*
X140273341Y-118429341D01*
X140157499Y-118570495D01*
X140082397Y-118711000D01*
X137647530Y-118711000D01*
X133807000Y-114870472D01*
X133807000Y-114637905D01*
X133740632Y-114304253D01*
X133610447Y-113989959D01*
X133421448Y-113707102D01*
X133180898Y-113466552D01*
X133148643Y-113445000D01*
X134132471Y-113445000D01*
X134925000Y-114237530D01*
X134925000Y-114470095D01*
X134991368Y-114803747D01*
X135121553Y-115118041D01*
X135310552Y-115400898D01*
X135551102Y-115641448D01*
X135833959Y-115830447D01*
X136148253Y-115960632D01*
X136481905Y-116027000D01*
X136822095Y-116027000D01*
X137155747Y-115960632D01*
X137470041Y-115830447D01*
X137752898Y-115641448D01*
X137993448Y-115400898D01*
X138182447Y-115118041D01*
X138312632Y-114803747D01*
X138379000Y-114470095D01*
X138379000Y-114129905D01*
X138312632Y-113796253D01*
X138182447Y-113481959D01*
X137993448Y-113199102D01*
X137752898Y-112958552D01*
X137470041Y-112769553D01*
X137155747Y-112639368D01*
X136822095Y-112573000D01*
X136589530Y-112573000D01*
X135493150Y-111476622D01*
X135456291Y-111431709D01*
X135277070Y-111284626D01*
X135072597Y-111175333D01*
X134850732Y-111108031D01*
X134677812Y-111091000D01*
X134620000Y-111085306D01*
X134562188Y-111091000D01*
X129597812Y-111091000D01*
X129540000Y-111085306D01*
X129482188Y-111091000D01*
X122057811Y-111091000D01*
X121999999Y-111085306D01*
X121769268Y-111108031D01*
X121547403Y-111175333D01*
X121342930Y-111284626D01*
X121163709Y-111431709D01*
X121126853Y-111476618D01*
X117918472Y-114685000D01*
X117685905Y-114685000D01*
X117352253Y-114751368D01*
X117037959Y-114881553D01*
X116755102Y-115070552D01*
X116590654Y-115235000D01*
X115752297Y-115235000D01*
X115830447Y-115118041D01*
X115960632Y-114803747D01*
X116027000Y-114470095D01*
X116027000Y-114129905D01*
X115960632Y-113796253D01*
X115830447Y-113481959D01*
X115641448Y-113199102D01*
X115400898Y-112958552D01*
X115118041Y-112769553D01*
X114803747Y-112639368D01*
X114470095Y-112573000D01*
X114129905Y-112573000D01*
X113796253Y-112639368D01*
X113481959Y-112769553D01*
X113199102Y-112958552D01*
X113034654Y-113123000D01*
X109228931Y-113123000D01*
X109196530Y-113090599D01*
X108941516Y-112920204D01*
X108658160Y-112802834D01*
X108357351Y-112743000D01*
X108311529Y-112743000D01*
X107221000Y-111652472D01*
X107221000Y-111606649D01*
X107161166Y-111305840D01*
X107043796Y-111022484D01*
X106873401Y-110767470D01*
X106798029Y-110692098D01*
X107093127Y-110397000D01*
X116661364Y-110397000D01*
X116786975Y-110522611D01*
X117061643Y-110706138D01*
X117366837Y-110832554D01*
X117690830Y-110897000D01*
X118021170Y-110897000D01*
X118345163Y-110832554D01*
X118650357Y-110706138D01*
X118925025Y-110522611D01*
X119126000Y-110321636D01*
X119326975Y-110522611D01*
X119601643Y-110706138D01*
X119906837Y-110832554D01*
X120230830Y-110897000D01*
X120561170Y-110897000D01*
X120885163Y-110832554D01*
X121190357Y-110706138D01*
X121465025Y-110522611D01*
X121666000Y-110321636D01*
X121866975Y-110522611D01*
X122141643Y-110706138D01*
X122446837Y-110832554D01*
X122770830Y-110897000D01*
X123101170Y-110897000D01*
X123425163Y-110832554D01*
X123730357Y-110706138D01*
X124005025Y-110522611D01*
X124206000Y-110321636D01*
X124406975Y-110522611D01*
X124681643Y-110706138D01*
X124986837Y-110832554D01*
X125310830Y-110897000D01*
X125641170Y-110897000D01*
X125965163Y-110832554D01*
X126270357Y-110706138D01*
X126545025Y-110522611D01*
X126746000Y-110321636D01*
X126946975Y-110522611D01*
X127221643Y-110706138D01*
X127526837Y-110832554D01*
X127850830Y-110897000D01*
X128181170Y-110897000D01*
X128505163Y-110832554D01*
X128810357Y-110706138D01*
X129085025Y-110522611D01*
X129286000Y-110321636D01*
X129486975Y-110522611D01*
X129761643Y-110706138D01*
X130066837Y-110832554D01*
X130390830Y-110897000D01*
X130721170Y-110897000D01*
X131045163Y-110832554D01*
X131350357Y-110706138D01*
X131625025Y-110522611D01*
X131858611Y-110289025D01*
X131933468Y-110176993D01*
X132318612Y-110176993D01*
X132384137Y-110415860D01*
X132631116Y-110531760D01*
X132895960Y-110597250D01*
X133168492Y-110609812D01*
X133438238Y-110568965D01*
X133694832Y-110476277D01*
X133807863Y-110415860D01*
X133873388Y-110176993D01*
X133096000Y-109399605D01*
X132318612Y-110176993D01*
X131933468Y-110176993D01*
X132042138Y-110014357D01*
X132058333Y-109975258D01*
X132139007Y-109997388D01*
X132916395Y-109220000D01*
X133275605Y-109220000D01*
X134052993Y-109997388D01*
X134133667Y-109975258D01*
X134149862Y-110014357D01*
X134333389Y-110289025D01*
X134566975Y-110522611D01*
X134841643Y-110706138D01*
X135146837Y-110832554D01*
X135470830Y-110897000D01*
X135801170Y-110897000D01*
X136125163Y-110832554D01*
X136430357Y-110706138D01*
X136705025Y-110522611D01*
X136938611Y-110289025D01*
X137013468Y-110176993D01*
X137398612Y-110176993D01*
X137464137Y-110415860D01*
X137711116Y-110531760D01*
X137975960Y-110597250D01*
X138248492Y-110609812D01*
X138518238Y-110568965D01*
X138774832Y-110476277D01*
X138887863Y-110415860D01*
X138953388Y-110176993D01*
X138176000Y-109399605D01*
X137398612Y-110176993D01*
X137013468Y-110176993D01*
X137122138Y-110014357D01*
X137138333Y-109975258D01*
X137219007Y-109997388D01*
X137996395Y-109220000D01*
X137219007Y-108442612D01*
X137138333Y-108464742D01*
X137122138Y-108425643D01*
X137013469Y-108263007D01*
X137398612Y-108263007D01*
X138176000Y-109040395D01*
X138953388Y-108263007D01*
X138887863Y-108024140D01*
X138640884Y-107908240D01*
X138376040Y-107842750D01*
X138103508Y-107830188D01*
X137833762Y-107871035D01*
X137577168Y-107963723D01*
X137464137Y-108024140D01*
X137398612Y-108263007D01*
X137013469Y-108263007D01*
X136938611Y-108150975D01*
X136705025Y-107917389D01*
X136430357Y-107733862D01*
X136125163Y-107607446D01*
X135801170Y-107543000D01*
X135470830Y-107543000D01*
X135146837Y-107607446D01*
X134841643Y-107733862D01*
X134566975Y-107917389D01*
X134333389Y-108150975D01*
X134149862Y-108425643D01*
X134133667Y-108464742D01*
X134052993Y-108442612D01*
X133275605Y-109220000D01*
X132916395Y-109220000D01*
X132902253Y-109205858D01*
X133081858Y-109026253D01*
X133096000Y-109040395D01*
X133873388Y-108263007D01*
X133807863Y-108024140D01*
X133560884Y-107908240D01*
X133296040Y-107842750D01*
X133098867Y-107833662D01*
X133203529Y-107729000D01*
X133249351Y-107729000D01*
X133550160Y-107669166D01*
X133833516Y-107551796D01*
X134088530Y-107381401D01*
X134305401Y-107164530D01*
X134475796Y-106909516D01*
X134521402Y-106799413D01*
X147460192Y-106799413D01*
X147555956Y-107063814D01*
X147845571Y-107204704D01*
X148157108Y-107286384D01*
X148478595Y-107305718D01*
X148797675Y-107261961D01*
X149102088Y-107156795D01*
X149276044Y-107063814D01*
X149371808Y-106799413D01*
X148416000Y-105843605D01*
X147460192Y-106799413D01*
X134521402Y-106799413D01*
X134593166Y-106626160D01*
X134653000Y-106325351D01*
X134653000Y-106018649D01*
X134593166Y-105717840D01*
X134475796Y-105434484D01*
X134305401Y-105179470D01*
X134088530Y-104962599D01*
X133858653Y-104809000D01*
X137037000Y-104809000D01*
X137037000Y-104818095D01*
X137103368Y-105151747D01*
X137233553Y-105466041D01*
X137422552Y-105748898D01*
X137663102Y-105989448D01*
X137945959Y-106178447D01*
X138260253Y-106308632D01*
X138593905Y-106375000D01*
X138934095Y-106375000D01*
X139267747Y-106308632D01*
X139582041Y-106178447D01*
X139864898Y-105989448D01*
X140105448Y-105748898D01*
X140177742Y-105640702D01*
X142950903Y-105640702D01*
X143022486Y-105884671D01*
X143277996Y-106005571D01*
X143552184Y-106074300D01*
X143834512Y-106088217D01*
X144114130Y-106046787D01*
X144380292Y-105951603D01*
X144505514Y-105884671D01*
X144551895Y-105726595D01*
X146774282Y-105726595D01*
X146818039Y-106045675D01*
X146923205Y-106350088D01*
X147016186Y-106524044D01*
X147280587Y-106619808D01*
X148236395Y-105664000D01*
X148595605Y-105664000D01*
X149551413Y-106619808D01*
X149815814Y-106524044D01*
X149956704Y-106234429D01*
X150038384Y-105922892D01*
X150057718Y-105601405D01*
X150013961Y-105282325D01*
X149908795Y-104977912D01*
X149815814Y-104803956D01*
X149551413Y-104708192D01*
X148595605Y-105664000D01*
X148236395Y-105664000D01*
X147280587Y-104708192D01*
X147016186Y-104803956D01*
X146875296Y-105093571D01*
X146793616Y-105405108D01*
X146774282Y-105726595D01*
X144551895Y-105726595D01*
X144577097Y-105640702D01*
X143764000Y-104827605D01*
X142950903Y-105640702D01*
X140177742Y-105640702D01*
X140294447Y-105466041D01*
X140424632Y-105151747D01*
X140491000Y-104818095D01*
X140491000Y-104718512D01*
X142323783Y-104718512D01*
X142365213Y-104998130D01*
X142460397Y-105264292D01*
X142527329Y-105389514D01*
X142771298Y-105461097D01*
X143584395Y-104648000D01*
X143943605Y-104648000D01*
X144756702Y-105461097D01*
X145000671Y-105389514D01*
X145121571Y-105134004D01*
X145190300Y-104859816D01*
X145204217Y-104577488D01*
X145196972Y-104528587D01*
X147460192Y-104528587D01*
X148416000Y-105484395D01*
X149236395Y-104664000D01*
X151484515Y-104664000D01*
X151484515Y-106664000D01*
X151502413Y-106845724D01*
X151555420Y-107020464D01*
X151641499Y-107181505D01*
X151757341Y-107322659D01*
X151898495Y-107438501D01*
X152059536Y-107524580D01*
X152234276Y-107577587D01*
X152416000Y-107595485D01*
X154416000Y-107595485D01*
X154597724Y-107577587D01*
X154772464Y-107524580D01*
X154933505Y-107438501D01*
X155074659Y-107322659D01*
X155190501Y-107181505D01*
X155276580Y-107020464D01*
X155329587Y-106845724D01*
X155330052Y-106841000D01*
X158568863Y-106841000D01*
X158603201Y-106892391D01*
X158871609Y-107160799D01*
X159187223Y-107371685D01*
X159537915Y-107516947D01*
X159910207Y-107591000D01*
X160289793Y-107591000D01*
X160350414Y-107578942D01*
X165830854Y-113059383D01*
X165867709Y-113104291D01*
X166046930Y-113251374D01*
X166251403Y-113360667D01*
X166473268Y-113427969D01*
X166646188Y-113445000D01*
X166646197Y-113445000D01*
X166703999Y-113450693D01*
X166761801Y-113445000D01*
X168511315Y-113445000D01*
X168535420Y-113524464D01*
X168621499Y-113685505D01*
X168737341Y-113826659D01*
X168878495Y-113942501D01*
X169039536Y-114028580D01*
X169214276Y-114081587D01*
X169396000Y-114099485D01*
X172996000Y-114099485D01*
X173177724Y-114081587D01*
X173352464Y-114028580D01*
X173513505Y-113942501D01*
X173654659Y-113826659D01*
X173770501Y-113685505D01*
X173856580Y-113524464D01*
X173909587Y-113349724D01*
X173927485Y-113168000D01*
X173927485Y-111368000D01*
X173909587Y-111186276D01*
X173856580Y-111011536D01*
X173770501Y-110850495D01*
X173654659Y-110709341D01*
X173513505Y-110593499D01*
X173352464Y-110507420D01*
X173177724Y-110454413D01*
X172996000Y-110436515D01*
X169396000Y-110436515D01*
X169214276Y-110454413D01*
X169039536Y-110507420D01*
X168878495Y-110593499D01*
X168737341Y-110709341D01*
X168621499Y-110850495D01*
X168535420Y-111011536D01*
X168511315Y-111091000D01*
X167191529Y-111091000D01*
X162014942Y-105914414D01*
X162027000Y-105853793D01*
X162027000Y-105474207D01*
X161952947Y-105101915D01*
X161807685Y-104751223D01*
X161749405Y-104664000D01*
X163168515Y-104664000D01*
X163168515Y-106664000D01*
X163186413Y-106845724D01*
X163239420Y-107020464D01*
X163325499Y-107181505D01*
X163441341Y-107322659D01*
X163582495Y-107438501D01*
X163743536Y-107524580D01*
X163918276Y-107577587D01*
X164100000Y-107595485D01*
X166100000Y-107595485D01*
X166281724Y-107577587D01*
X166456464Y-107524580D01*
X166617505Y-107438501D01*
X166758659Y-107322659D01*
X166874501Y-107181505D01*
X166960580Y-107020464D01*
X167013587Y-106845724D01*
X167031485Y-106664000D01*
X167031485Y-104664000D01*
X167013587Y-104482276D01*
X166988360Y-104399112D01*
X169177000Y-104399112D01*
X169177000Y-104896888D01*
X169274111Y-105385099D01*
X169464602Y-105844983D01*
X169741151Y-106258869D01*
X170093131Y-106610849D01*
X170507017Y-106887398D01*
X170966901Y-107077889D01*
X171455112Y-107175000D01*
X171952888Y-107175000D01*
X172441099Y-107077889D01*
X172900983Y-106887398D01*
X173314869Y-106610849D01*
X173666849Y-106258869D01*
X173943398Y-105844983D01*
X174133889Y-105385099D01*
X174231000Y-104896888D01*
X174231000Y-104399112D01*
X174133889Y-103910901D01*
X173943398Y-103451017D01*
X173666849Y-103037131D01*
X173314869Y-102685151D01*
X172900983Y-102408602D01*
X172441099Y-102218111D01*
X171952888Y-102121000D01*
X171455112Y-102121000D01*
X170966901Y-102218111D01*
X170507017Y-102408602D01*
X170093131Y-102685151D01*
X169741151Y-103037131D01*
X169464602Y-103451017D01*
X169274111Y-103910901D01*
X169177000Y-104399112D01*
X166988360Y-104399112D01*
X166960580Y-104307536D01*
X166874501Y-104146495D01*
X166758659Y-104005341D01*
X166617505Y-103889499D01*
X166456464Y-103803420D01*
X166281724Y-103750413D01*
X166100000Y-103732515D01*
X164100000Y-103732515D01*
X163918276Y-103750413D01*
X163743536Y-103803420D01*
X163582495Y-103889499D01*
X163441341Y-104005341D01*
X163325499Y-104146495D01*
X163239420Y-104307536D01*
X163186413Y-104482276D01*
X163168515Y-104664000D01*
X161749405Y-104664000D01*
X161596799Y-104435609D01*
X161328391Y-104167201D01*
X161012777Y-103956315D01*
X160662085Y-103811053D01*
X160289793Y-103737000D01*
X159910207Y-103737000D01*
X159537915Y-103811053D01*
X159187223Y-103956315D01*
X158871609Y-104167201D01*
X158603201Y-104435609D01*
X158568863Y-104487000D01*
X155330052Y-104487000D01*
X155329587Y-104482276D01*
X155276580Y-104307536D01*
X155190501Y-104146495D01*
X155074659Y-104005341D01*
X154933505Y-103889499D01*
X154772464Y-103803420D01*
X154597724Y-103750413D01*
X154416000Y-103732515D01*
X152416000Y-103732515D01*
X152234276Y-103750413D01*
X152059536Y-103803420D01*
X151898495Y-103889499D01*
X151757341Y-104005341D01*
X151641499Y-104146495D01*
X151555420Y-104307536D01*
X151502413Y-104482276D01*
X151484515Y-104664000D01*
X149236395Y-104664000D01*
X149371808Y-104528587D01*
X149276044Y-104264186D01*
X148986429Y-104123296D01*
X148674892Y-104041616D01*
X148353405Y-104022282D01*
X148034325Y-104066039D01*
X147729912Y-104171205D01*
X147555956Y-104264186D01*
X147460192Y-104528587D01*
X145196972Y-104528587D01*
X145162787Y-104297870D01*
X145067603Y-104031708D01*
X145000671Y-103906486D01*
X144756702Y-103834903D01*
X143943605Y-104648000D01*
X143584395Y-104648000D01*
X142771298Y-103834903D01*
X142527329Y-103906486D01*
X142406429Y-104161996D01*
X142337700Y-104436184D01*
X142323783Y-104718512D01*
X140491000Y-104718512D01*
X140491000Y-104477905D01*
X140424632Y-104144253D01*
X140294447Y-103829959D01*
X140177743Y-103655298D01*
X142950903Y-103655298D01*
X143764000Y-104468395D01*
X144577097Y-103655298D01*
X144505514Y-103411329D01*
X144250004Y-103290429D01*
X143975816Y-103221700D01*
X143693488Y-103207783D01*
X143413870Y-103249213D01*
X143147708Y-103344397D01*
X143022486Y-103411329D01*
X142950903Y-103655298D01*
X140177743Y-103655298D01*
X140105448Y-103547102D01*
X139864898Y-103306552D01*
X139582041Y-103117553D01*
X139267747Y-102987368D01*
X138934095Y-102921000D01*
X138701528Y-102921000D01*
X138621151Y-102840623D01*
X138584291Y-102795709D01*
X138405070Y-102648626D01*
X138200597Y-102539333D01*
X137978732Y-102472031D01*
X137805812Y-102455000D01*
X137748000Y-102449306D01*
X137690188Y-102455000D01*
X133858653Y-102455000D01*
X134088530Y-102301401D01*
X134305401Y-102084530D01*
X134475796Y-101829516D01*
X134593166Y-101546160D01*
X134653000Y-101245351D01*
X134653000Y-100938649D01*
X134593166Y-100637840D01*
X134565066Y-100570000D01*
X176290000Y-100570000D01*
X176290001Y-105106768D01*
X176290000Y-105106778D01*
X176290001Y-142698777D01*
X176290000Y-146826000D01*
X100570000Y-146826000D01*
X100570000Y-142499112D01*
X102121000Y-142499112D01*
X102121000Y-142996888D01*
X102218111Y-143485099D01*
X102408602Y-143944983D01*
X102685151Y-144358869D01*
X103037131Y-144710849D01*
X103451017Y-144987398D01*
X103910901Y-145177889D01*
X104399112Y-145275000D01*
X104896888Y-145275000D01*
X105385099Y-145177889D01*
X105844983Y-144987398D01*
X106258869Y-144710849D01*
X106610849Y-144358869D01*
X106887398Y-143944983D01*
X107077889Y-143485099D01*
X107175000Y-142996888D01*
X107175000Y-142499112D01*
X107077889Y-142010901D01*
X106887398Y-141551017D01*
X106610849Y-141137131D01*
X106258869Y-140785151D01*
X105844983Y-140508602D01*
X105385099Y-140318111D01*
X104896888Y-140221000D01*
X104399112Y-140221000D01*
X103910901Y-140318111D01*
X103451017Y-140508602D01*
X103037131Y-140785151D01*
X102685151Y-141137131D01*
X102408602Y-141551017D01*
X102218111Y-142010901D01*
X102121000Y-142499112D01*
X100570000Y-142499112D01*
X100570000Y-104399112D01*
X102121000Y-104399112D01*
X102121000Y-104896888D01*
X102218111Y-105385099D01*
X102408602Y-105844983D01*
X102685151Y-106258869D01*
X103037131Y-106610849D01*
X103451017Y-106887398D01*
X103910901Y-107077889D01*
X104399112Y-107175000D01*
X104896888Y-107175000D01*
X105385099Y-107077889D01*
X105844983Y-106887398D01*
X106258869Y-106610849D01*
X106610849Y-106258869D01*
X106887398Y-105844983D01*
X107077889Y-105385099D01*
X107175000Y-104896888D01*
X107175000Y-104399112D01*
X107077889Y-103910901D01*
X106887398Y-103451017D01*
X106610849Y-103037131D01*
X106258869Y-102685151D01*
X105844983Y-102408602D01*
X105385099Y-102218111D01*
X104896888Y-102121000D01*
X104399112Y-102121000D01*
X103910901Y-102218111D01*
X103451017Y-102408602D01*
X103037131Y-102685151D01*
X102685151Y-103037131D01*
X102408602Y-103451017D01*
X102218111Y-103910901D01*
X102121000Y-104399112D01*
X100570000Y-104399112D01*
X100570000Y-100570000D01*
X119253471Y-100570000D01*
X116902472Y-102921000D01*
G37*
X116902472Y-102921000D02*
X116669905Y-102921000D01*
X116336253Y-102987368D01*
X116021959Y-103117553D01*
X115739102Y-103306552D01*
X115498552Y-103547102D01*
X115309553Y-103829959D01*
X115179368Y-104144253D01*
X115113000Y-104477905D01*
X115113000Y-104818095D01*
X115179368Y-105151747D01*
X115309553Y-105466041D01*
X115498552Y-105748898D01*
X115739102Y-105989448D01*
X116021959Y-106178447D01*
X116336253Y-106308632D01*
X116669905Y-106375000D01*
X117010095Y-106375000D01*
X117343747Y-106308632D01*
X117658041Y-106178447D01*
X117940898Y-105989448D01*
X118181448Y-105748898D01*
X118370447Y-105466041D01*
X118500632Y-105151747D01*
X118567000Y-104818095D01*
X118567000Y-104585528D01*
X120883529Y-102269000D01*
X129793347Y-102269000D01*
X129563470Y-102422599D01*
X129346599Y-102639470D01*
X129176204Y-102894484D01*
X129058834Y-103177840D01*
X128999000Y-103478649D01*
X128999000Y-103785351D01*
X129058834Y-104086160D01*
X129176204Y-104369516D01*
X129346599Y-104624530D01*
X129563470Y-104841401D01*
X129818484Y-105011796D01*
X130101840Y-105129166D01*
X130402649Y-105189000D01*
X130709351Y-105189000D01*
X131010160Y-105129166D01*
X131293516Y-105011796D01*
X131548530Y-104841401D01*
X131580931Y-104809000D01*
X132333347Y-104809000D01*
X132103470Y-104962599D01*
X131886599Y-105179470D01*
X131716204Y-105434484D01*
X131598834Y-105717840D01*
X131539000Y-106018649D01*
X131539000Y-106064471D01*
X129945955Y-107657517D01*
X129761643Y-107733862D01*
X129486975Y-107917389D01*
X129286000Y-108118364D01*
X129193000Y-108025364D01*
X129193000Y-105721812D01*
X129198694Y-105664000D01*
X129175969Y-105433268D01*
X129137080Y-105305069D01*
X129108667Y-105211403D01*
X128999374Y-105006930D01*
X128852291Y-104827709D01*
X128807382Y-104790853D01*
X128727000Y-104710471D01*
X128727000Y-104477905D01*
X128660632Y-104144253D01*
X128530447Y-103829959D01*
X128341448Y-103547102D01*
X128100898Y-103306552D01*
X127818041Y-103117553D01*
X127503747Y-102987368D01*
X127170095Y-102921000D01*
X126829905Y-102921000D01*
X126496253Y-102987368D01*
X126181959Y-103117553D01*
X125899102Y-103306552D01*
X125658552Y-103547102D01*
X125469553Y-103829959D01*
X125339368Y-104144253D01*
X125273000Y-104477905D01*
X125273000Y-104818095D01*
X125339368Y-105151747D01*
X125469553Y-105466041D01*
X125658552Y-105748898D01*
X125899102Y-105989448D01*
X126181959Y-106178447D01*
X126496253Y-106308632D01*
X126829905Y-106375000D01*
X126839001Y-106375000D01*
X126839000Y-108025364D01*
X126746000Y-108118364D01*
X126545025Y-107917389D01*
X126270357Y-107733862D01*
X125965163Y-107607446D01*
X125641170Y-107543000D01*
X125310830Y-107543000D01*
X124986837Y-107607446D01*
X124681643Y-107733862D01*
X124406975Y-107917389D01*
X124206000Y-108118364D01*
X124005025Y-107917389D01*
X123730357Y-107733862D01*
X123425163Y-107607446D01*
X123101170Y-107543000D01*
X122770830Y-107543000D01*
X122446837Y-107607446D01*
X122141643Y-107733862D01*
X121866975Y-107917389D01*
X121666000Y-108118364D01*
X121465025Y-107917389D01*
X121190357Y-107733862D01*
X120885163Y-107607446D01*
X120561170Y-107543000D01*
X120383529Y-107543000D01*
X120069149Y-107228621D01*
X120032290Y-107183708D01*
X119853069Y-107036625D01*
X119648596Y-106927332D01*
X119426731Y-106860030D01*
X119253811Y-106842999D01*
X119195999Y-106837305D01*
X119138187Y-106842999D01*
X106873437Y-106842999D01*
X106815635Y-106837306D01*
X106757833Y-106842999D01*
X106757824Y-106842999D01*
X106584904Y-106860030D01*
X106363039Y-106927332D01*
X106158566Y-107036625D01*
X105979345Y-107183708D01*
X105942489Y-107228617D01*
X101632608Y-111538499D01*
X101587700Y-111575354D01*
X101550847Y-111620260D01*
X101440616Y-111754576D01*
X101331324Y-111959048D01*
X101264021Y-112180914D01*
X101241296Y-112411645D01*
X101246991Y-112469467D01*
X101246990Y-131830178D01*
X101241296Y-131887990D01*
X101254751Y-132024597D01*
X101264021Y-132118721D01*
X101331323Y-132340586D01*
X101440616Y-132545059D01*
X101587699Y-132724281D01*
X101632613Y-132761141D01*
X102921000Y-134049529D01*
X102921000Y-134282095D01*
X102987368Y-134615747D01*
X103117553Y-134930041D01*
X103306552Y-135212898D01*
X103547102Y-135453448D01*
X103829959Y-135642447D01*
X104144253Y-135772632D01*
X104477905Y-135839000D01*
X104818095Y-135839000D01*
X105151747Y-135772632D01*
X105466041Y-135642447D01*
X105748898Y-135453448D01*
X105989448Y-135212898D01*
X106172000Y-134939690D01*
X106354552Y-135212898D01*
X106595102Y-135453448D01*
X106877959Y-135642447D01*
X107192253Y-135772632D01*
X107525905Y-135839000D01*
X107866095Y-135839000D01*
X108199747Y-135772632D01*
X108514041Y-135642447D01*
X108796898Y-135453448D01*
X109037448Y-135212898D01*
X109226447Y-134930041D01*
X109356632Y-134615747D01*
X109423000Y-134282095D01*
X109423000Y-133941905D01*
X109356632Y-133608253D01*
X109226447Y-133293959D01*
X109037448Y-133011102D01*
X108796898Y-132770552D01*
X108514041Y-132581553D01*
X108199747Y-132451368D01*
X107866095Y-132385000D01*
X107525905Y-132385000D01*
X107192253Y-132451368D01*
X106877959Y-132581553D01*
X106595102Y-132770552D01*
X106354552Y-133011102D01*
X106172000Y-133284310D01*
X105989448Y-133011102D01*
X105748898Y-132770552D01*
X105466041Y-132581553D01*
X105151747Y-132451368D01*
X104818095Y-132385000D01*
X104585529Y-132385000D01*
X103600990Y-131400462D01*
X103600990Y-125329455D01*
X103829959Y-125482447D01*
X104144253Y-125612632D01*
X104477905Y-125679000D01*
X104818095Y-125679000D01*
X105151747Y-125612632D01*
X105466041Y-125482447D01*
X105748898Y-125293448D01*
X105989448Y-125052898D01*
X106172000Y-124779690D01*
X106354552Y-125052898D01*
X106595102Y-125293448D01*
X106877959Y-125482447D01*
X107192253Y-125612632D01*
X107525905Y-125679000D01*
X107866095Y-125679000D01*
X108199747Y-125612632D01*
X108514041Y-125482447D01*
X108796898Y-125293448D01*
X109037448Y-125052898D01*
X109226447Y-124770041D01*
X109356632Y-124455747D01*
X109423000Y-124122095D01*
X109423000Y-123781905D01*
X109356632Y-123448253D01*
X109226447Y-123133959D01*
X109037448Y-122851102D01*
X108796898Y-122610552D01*
X108514041Y-122421553D01*
X108199747Y-122291368D01*
X107866095Y-122225000D01*
X107525905Y-122225000D01*
X107192253Y-122291368D01*
X106877959Y-122421553D01*
X106595102Y-122610552D01*
X106354552Y-122851102D01*
X106172000Y-123124310D01*
X105989448Y-122851102D01*
X105748898Y-122610552D01*
X105466041Y-122421553D01*
X105151747Y-122291368D01*
X104818095Y-122225000D01*
X104585528Y-122225000D01*
X104301000Y-121940472D01*
X104301000Y-117602653D01*
X104454599Y-117832530D01*
X104671470Y-118049401D01*
X104926484Y-118219796D01*
X105209840Y-118337166D01*
X105510649Y-118397000D01*
X105817351Y-118397000D01*
X106118160Y-118337166D01*
X106401516Y-118219796D01*
X106656530Y-118049401D01*
X106688931Y-118017000D01*
X110583001Y-118017000D01*
X110583000Y-125926188D01*
X110577306Y-125984000D01*
X110583000Y-126041811D01*
X110600031Y-126214731D01*
X110667333Y-126436596D01*
X110776626Y-126641069D01*
X110923709Y-126820291D01*
X110968623Y-126857151D01*
X114097000Y-129985529D01*
X114097000Y-130218095D01*
X114163368Y-130551747D01*
X114293553Y-130866041D01*
X114482552Y-131148898D01*
X114723102Y-131389448D01*
X115005959Y-131578447D01*
X115320253Y-131708632D01*
X115653905Y-131775000D01*
X115994095Y-131775000D01*
X116327747Y-131708632D01*
X116642041Y-131578447D01*
X116924898Y-131389448D01*
X117165448Y-131148898D01*
X117348000Y-130875690D01*
X117530552Y-131148898D01*
X117771102Y-131389448D01*
X118053959Y-131578447D01*
X118368253Y-131708632D01*
X118701905Y-131775000D01*
X118945002Y-131775000D01*
X118945001Y-138470470D01*
X118934471Y-138481000D01*
X118701905Y-138481000D01*
X118368253Y-138547368D01*
X118053959Y-138677553D01*
X117771102Y-138866552D01*
X117606654Y-139031000D01*
X117089346Y-139031000D01*
X116924898Y-138866552D01*
X116642041Y-138677553D01*
X116327747Y-138547368D01*
X115994095Y-138481000D01*
X115653905Y-138481000D01*
X115320253Y-138547368D01*
X115005959Y-138677553D01*
X114723102Y-138866552D01*
X114482552Y-139107102D01*
X114293553Y-139389959D01*
X114163368Y-139704253D01*
X114097000Y-140037905D01*
X114097000Y-140378095D01*
X114163368Y-140711747D01*
X114293553Y-141026041D01*
X114482552Y-141308898D01*
X114723102Y-141549448D01*
X115005959Y-141738447D01*
X115320253Y-141868632D01*
X115653905Y-141935000D01*
X115994095Y-141935000D01*
X116327747Y-141868632D01*
X116642041Y-141738447D01*
X116924898Y-141549448D01*
X117089346Y-141385000D01*
X117606654Y-141385000D01*
X117771102Y-141549448D01*
X118053959Y-141738447D01*
X118368253Y-141868632D01*
X118701905Y-141935000D01*
X119042095Y-141935000D01*
X119375747Y-141868632D01*
X119690041Y-141738447D01*
X119972898Y-141549448D01*
X120213448Y-141308898D01*
X120396000Y-141035690D01*
X120578552Y-141308898D01*
X120743000Y-141473346D01*
X120743001Y-142552482D01*
X120713536Y-142561420D01*
X120552495Y-142647499D01*
X120411341Y-142763341D01*
X120295499Y-142904495D01*
X120209420Y-143065536D01*
X120156413Y-143240276D01*
X120138515Y-143422000D01*
X120138515Y-145122000D01*
X120156413Y-145303724D01*
X120209420Y-145478464D01*
X120295499Y-145639505D01*
X120411341Y-145780659D01*
X120552495Y-145896501D01*
X120713536Y-145982580D01*
X120888276Y-146035587D01*
X121070000Y-146053485D01*
X122770000Y-146053485D01*
X122951724Y-146035587D01*
X123126464Y-145982580D01*
X123287505Y-145896501D01*
X123428659Y-145780659D01*
X123544501Y-145639505D01*
X123630580Y-145478464D01*
X123683587Y-145303724D01*
X123701485Y-145122000D01*
X123701485Y-143422000D01*
X123683587Y-143240276D01*
X123630580Y-143065536D01*
X123544501Y-142904495D01*
X123428659Y-142763341D01*
X123287505Y-142647499D01*
X123126464Y-142561420D01*
X123097000Y-142552482D01*
X123097000Y-141473346D01*
X123261448Y-141308898D01*
X123450447Y-141026041D01*
X123580632Y-140711747D01*
X123647000Y-140378095D01*
X123647000Y-140145529D01*
X124669360Y-139123169D01*
X124972253Y-139248632D01*
X125305905Y-139315000D01*
X125646095Y-139315000D01*
X125979747Y-139248632D01*
X126294041Y-139118447D01*
X126576898Y-138929448D01*
X126817448Y-138688898D01*
X127006447Y-138406041D01*
X127136632Y-138091747D01*
X127203000Y-137758095D01*
X127203000Y-137417905D01*
X127136632Y-137084253D01*
X127006447Y-136769959D01*
X126817448Y-136487102D01*
X126576898Y-136246552D01*
X126294041Y-136057553D01*
X125979747Y-135927368D01*
X125646095Y-135861000D01*
X125305905Y-135861000D01*
X124972253Y-135927368D01*
X124657959Y-136057553D01*
X124375102Y-136246552D01*
X124143267Y-136478387D01*
X124087403Y-136495333D01*
X123897951Y-136596597D01*
X123882930Y-136604626D01*
X123785450Y-136684626D01*
X123703709Y-136751709D01*
X123666858Y-136796612D01*
X121982471Y-138481000D01*
X121749905Y-138481000D01*
X121416253Y-138547368D01*
X121299001Y-138595935D01*
X121299001Y-132417905D01*
X123749000Y-132417905D01*
X123749000Y-132758095D01*
X123815368Y-133091747D01*
X123945553Y-133406041D01*
X124134552Y-133688898D01*
X124375102Y-133929448D01*
X124657959Y-134118447D01*
X124972253Y-134248632D01*
X125305905Y-134315000D01*
X125538472Y-134315000D01*
X127855001Y-136631530D01*
X127855000Y-138942654D01*
X127690552Y-139107102D01*
X127501553Y-139389959D01*
X127371368Y-139704253D01*
X127305000Y-140037905D01*
X127305000Y-140378095D01*
X127371368Y-140711747D01*
X127501553Y-141026041D01*
X127690552Y-141308898D01*
X127931102Y-141549448D01*
X128213959Y-141738447D01*
X128528253Y-141868632D01*
X128861905Y-141935000D01*
X129202095Y-141935000D01*
X129535747Y-141868632D01*
X129850041Y-141738447D01*
X130132898Y-141549448D01*
X130373448Y-141308898D01*
X130562447Y-141026041D01*
X130692632Y-140711747D01*
X130710794Y-140620440D01*
X130782930Y-140821881D01*
X130927615Y-141063131D01*
X131116586Y-141271519D01*
X131342580Y-141439037D01*
X131596913Y-141559246D01*
X131730961Y-141599904D01*
X131953000Y-141477915D01*
X131953000Y-140335000D01*
X131933000Y-140335000D01*
X131933000Y-140081000D01*
X131953000Y-140081000D01*
X131953000Y-138938085D01*
X131730961Y-138816096D01*
X131596913Y-138856754D01*
X131342580Y-138976963D01*
X131116586Y-139144481D01*
X130927615Y-139352869D01*
X130782930Y-139594119D01*
X130710794Y-139795560D01*
X130692632Y-139704253D01*
X130562447Y-139389959D01*
X130373448Y-139107102D01*
X130209000Y-138942654D01*
X130209000Y-136201801D01*
X130214693Y-136143999D01*
X130209000Y-136086197D01*
X130209000Y-136086188D01*
X130191969Y-135913268D01*
X130124667Y-135691403D01*
X130015374Y-135486930D01*
X129868291Y-135307709D01*
X129823382Y-135270853D01*
X127203000Y-132650472D01*
X127203000Y-132417905D01*
X127136632Y-132084253D01*
X127006447Y-131769959D01*
X126817448Y-131487102D01*
X126576898Y-131246552D01*
X126294041Y-131057553D01*
X125979747Y-130927368D01*
X125646095Y-130861000D01*
X125305905Y-130861000D01*
X124972253Y-130927368D01*
X124657959Y-131057553D01*
X124375102Y-131246552D01*
X124134552Y-131487102D01*
X123945553Y-131769959D01*
X123815368Y-132084253D01*
X123749000Y-132417905D01*
X121299001Y-132417905D01*
X121299001Y-131334063D01*
X121436913Y-131399246D01*
X121570961Y-131439904D01*
X121793000Y-131317915D01*
X121793000Y-130175000D01*
X122047000Y-130175000D01*
X122047000Y-131317915D01*
X122269039Y-131439904D01*
X122403087Y-131399246D01*
X122657420Y-131279037D01*
X122883414Y-131111519D01*
X123072385Y-130903131D01*
X123217070Y-130661881D01*
X123311909Y-130397040D01*
X123190624Y-130175000D01*
X122047000Y-130175000D01*
X121793000Y-130175000D01*
X121773000Y-130175000D01*
X121773000Y-129921000D01*
X121793000Y-129921000D01*
X121793000Y-128778085D01*
X122047000Y-128778085D01*
X122047000Y-129921000D01*
X123190624Y-129921000D01*
X123311909Y-129698960D01*
X123217070Y-129434119D01*
X123072385Y-129192869D01*
X122883414Y-128984481D01*
X122657420Y-128816963D01*
X122403087Y-128696754D01*
X122269039Y-128656096D01*
X122047000Y-128778085D01*
X121793000Y-128778085D01*
X121570961Y-128656096D01*
X121436913Y-128696754D01*
X121299001Y-128761937D01*
X121299001Y-128553527D01*
X125251384Y-124601145D01*
X125296291Y-124564291D01*
X125443374Y-124385070D01*
X125552667Y-124180597D01*
X125576943Y-124100568D01*
X125616464Y-124088580D01*
X125777505Y-124002501D01*
X125918659Y-123886659D01*
X125973858Y-123819399D01*
X126181959Y-123958447D01*
X126496253Y-124088632D01*
X126829905Y-124155000D01*
X127170095Y-124155000D01*
X127503747Y-124088632D01*
X127818041Y-123958447D01*
X128100898Y-123769448D01*
X128270000Y-123600346D01*
X128363000Y-123693346D01*
X128363001Y-127450178D01*
X128357306Y-127508000D01*
X128380031Y-127738731D01*
X128447334Y-127960597D01*
X128556626Y-128165069D01*
X128584105Y-128198552D01*
X128703710Y-128344291D01*
X128711729Y-128350872D01*
X128528253Y-128387368D01*
X128213959Y-128517553D01*
X127931102Y-128706552D01*
X127690552Y-128947102D01*
X127501553Y-129229959D01*
X127371368Y-129544253D01*
X127305000Y-129877905D01*
X127305000Y-130218095D01*
X127371368Y-130551747D01*
X127501553Y-130866041D01*
X127690552Y-131148898D01*
X127931102Y-131389448D01*
X128213959Y-131578447D01*
X128528253Y-131708632D01*
X128861905Y-131775000D01*
X129202095Y-131775000D01*
X129535747Y-131708632D01*
X129850041Y-131578447D01*
X130132898Y-131389448D01*
X130373448Y-131148898D01*
X130556000Y-130875690D01*
X130738552Y-131148898D01*
X130979102Y-131389448D01*
X131261959Y-131578447D01*
X131576253Y-131708632D01*
X131909905Y-131775000D01*
X132142472Y-131775000D01*
X133951001Y-133583530D01*
X133951000Y-138942654D01*
X133786552Y-139107102D01*
X133597553Y-139389959D01*
X133467368Y-139704253D01*
X133449206Y-139795560D01*
X133377070Y-139594119D01*
X133232385Y-139352869D01*
X133043414Y-139144481D01*
X132817420Y-138976963D01*
X132563087Y-138856754D01*
X132429039Y-138816096D01*
X132207000Y-138938085D01*
X132207000Y-140081000D01*
X132227000Y-140081000D01*
X132227000Y-140335000D01*
X132207000Y-140335000D01*
X132207000Y-141477915D01*
X132429039Y-141599904D01*
X132563087Y-141559246D01*
X132817420Y-141439037D01*
X133043414Y-141271519D01*
X133232385Y-141063131D01*
X133377070Y-140821881D01*
X133449206Y-140620440D01*
X133467368Y-140711747D01*
X133597553Y-141026041D01*
X133786552Y-141308898D01*
X134027102Y-141549448D01*
X134309959Y-141738447D01*
X134624253Y-141868632D01*
X134957905Y-141935000D01*
X135298095Y-141935000D01*
X135631747Y-141868632D01*
X135946041Y-141738447D01*
X136228898Y-141549448D01*
X136469448Y-141308898D01*
X136652000Y-141035690D01*
X136834552Y-141308898D01*
X137075102Y-141549448D01*
X137357959Y-141738447D01*
X137672253Y-141868632D01*
X138005905Y-141935000D01*
X138346095Y-141935000D01*
X138679747Y-141868632D01*
X138994041Y-141738447D01*
X139276898Y-141549448D01*
X139441346Y-141385000D01*
X139958654Y-141385000D01*
X140047000Y-141473346D01*
X140047001Y-142552482D01*
X140017536Y-142561420D01*
X139856495Y-142647499D01*
X139715341Y-142763341D01*
X139599499Y-142904495D01*
X139513420Y-143065536D01*
X139460413Y-143240276D01*
X139442515Y-143422000D01*
X139442515Y-145122000D01*
X139460413Y-145303724D01*
X139513420Y-145478464D01*
X139599499Y-145639505D01*
X139715341Y-145780659D01*
X139856495Y-145896501D01*
X140017536Y-145982580D01*
X140192276Y-146035587D01*
X140374000Y-146053485D01*
X142074000Y-146053485D01*
X142255724Y-146035587D01*
X142430464Y-145982580D01*
X142591505Y-145896501D01*
X142732659Y-145780659D01*
X142848501Y-145639505D01*
X142934580Y-145478464D01*
X142987587Y-145303724D01*
X143005485Y-145122000D01*
X143005485Y-143422000D01*
X142987587Y-143240276D01*
X142934580Y-143065536D01*
X142848501Y-142904495D01*
X142732659Y-142763341D01*
X142591505Y-142647499D01*
X142430464Y-142561420D01*
X142401000Y-142552482D01*
X142401000Y-141859000D01*
X150865000Y-141859000D01*
X150865000Y-142759000D01*
X150919271Y-143056023D01*
X151030446Y-143336751D01*
X151194252Y-143590396D01*
X151404394Y-143807210D01*
X151652796Y-143978862D01*
X151929913Y-144098755D01*
X152035260Y-144123036D01*
X152273000Y-144002378D01*
X152273000Y-141859000D01*
X152527000Y-141859000D01*
X152527000Y-144002378D01*
X152764740Y-144123036D01*
X152870087Y-144098755D01*
X153147204Y-143978862D01*
X153395606Y-143807210D01*
X153605748Y-143590396D01*
X153769554Y-143336751D01*
X153880729Y-143056023D01*
X153935000Y-142759000D01*
X153935000Y-141859000D01*
X152527000Y-141859000D01*
X152273000Y-141859000D01*
X150865000Y-141859000D01*
X142401000Y-141859000D01*
X142401000Y-141473346D01*
X142565448Y-141308898D01*
X142754447Y-141026041D01*
X142884632Y-140711747D01*
X142885974Y-140705000D01*
X150865000Y-140705000D01*
X150865000Y-141605000D01*
X152273000Y-141605000D01*
X152273000Y-139461622D01*
X152527000Y-139461622D01*
X152527000Y-141605000D01*
X153935000Y-141605000D01*
X153935000Y-140742245D01*
X155653000Y-140742245D01*
X155653000Y-142721754D01*
X155679435Y-142990154D01*
X155783905Y-143334545D01*
X155953555Y-143651937D01*
X156181865Y-143930135D01*
X156460062Y-144158445D01*
X156777454Y-144328095D01*
X157121845Y-144432565D01*
X157480000Y-144467840D01*
X157838154Y-144432565D01*
X158182545Y-144328095D01*
X158499937Y-144158445D01*
X158778135Y-143930135D01*
X159006445Y-143651938D01*
X159176095Y-143334546D01*
X159280565Y-142990155D01*
X159307000Y-142721755D01*
X159307000Y-140742245D01*
X159280565Y-140473845D01*
X159176095Y-140129454D01*
X159070554Y-139932000D01*
X160728515Y-139932000D01*
X160728515Y-143532000D01*
X160746413Y-143713724D01*
X160799420Y-143888464D01*
X160885499Y-144049505D01*
X161001341Y-144190659D01*
X161142495Y-144306501D01*
X161303536Y-144392580D01*
X161478276Y-144445587D01*
X161660000Y-144463485D01*
X163460000Y-144463485D01*
X163641724Y-144445587D01*
X163816464Y-144392580D01*
X163977505Y-144306501D01*
X164118659Y-144190659D01*
X164234501Y-144049505D01*
X164320580Y-143888464D01*
X164373587Y-143713724D01*
X164391485Y-143532000D01*
X164391485Y-142499112D01*
X169177000Y-142499112D01*
X169177000Y-142996888D01*
X169274111Y-143485099D01*
X169464602Y-143944983D01*
X169741151Y-144358869D01*
X170093131Y-144710849D01*
X170507017Y-144987398D01*
X170966901Y-145177889D01*
X171455112Y-145275000D01*
X171952888Y-145275000D01*
X172441099Y-145177889D01*
X172900983Y-144987398D01*
X173314869Y-144710849D01*
X173666849Y-144358869D01*
X173943398Y-143944983D01*
X174133889Y-143485099D01*
X174231000Y-142996888D01*
X174231000Y-142499112D01*
X174133889Y-142010901D01*
X173943398Y-141551017D01*
X173666849Y-141137131D01*
X173314869Y-140785151D01*
X172900983Y-140508602D01*
X172441099Y-140318111D01*
X171952888Y-140221000D01*
X171455112Y-140221000D01*
X170966901Y-140318111D01*
X170507017Y-140508602D01*
X170093131Y-140785151D01*
X169741151Y-141137131D01*
X169464602Y-141551017D01*
X169274111Y-142010901D01*
X169177000Y-142499112D01*
X164391485Y-142499112D01*
X164391485Y-139932000D01*
X164373587Y-139750276D01*
X164320580Y-139575536D01*
X164234501Y-139414495D01*
X164118659Y-139273341D01*
X163977505Y-139157499D01*
X163816464Y-139071420D01*
X163641724Y-139018413D01*
X163460000Y-139000515D01*
X161660000Y-139000515D01*
X161478276Y-139018413D01*
X161303536Y-139071420D01*
X161142495Y-139157499D01*
X161001341Y-139273341D01*
X160885499Y-139414495D01*
X160799420Y-139575536D01*
X160746413Y-139750276D01*
X160728515Y-139932000D01*
X159070554Y-139932000D01*
X159006445Y-139812062D01*
X158778135Y-139533865D01*
X158499938Y-139305555D01*
X158182546Y-139135905D01*
X157838155Y-139031435D01*
X157480000Y-138996160D01*
X157121846Y-139031435D01*
X156777455Y-139135905D01*
X156460063Y-139305555D01*
X156181866Y-139533865D01*
X155953556Y-139812062D01*
X155783906Y-140129454D01*
X155679436Y-140473845D01*
X155653000Y-140742245D01*
X153935000Y-140742245D01*
X153935000Y-140705000D01*
X153880729Y-140407977D01*
X153769554Y-140127249D01*
X153605748Y-139873604D01*
X153395606Y-139656790D01*
X153147204Y-139485138D01*
X152870087Y-139365245D01*
X152764740Y-139340964D01*
X152527000Y-139461622D01*
X152273000Y-139461622D01*
X152035260Y-139340964D01*
X151929913Y-139365245D01*
X151652796Y-139485138D01*
X151404394Y-139656790D01*
X151194252Y-139873604D01*
X151030446Y-140127249D01*
X150919271Y-140407977D01*
X150865000Y-140705000D01*
X142885974Y-140705000D01*
X142951000Y-140378095D01*
X142951000Y-140037905D01*
X142884632Y-139704253D01*
X142754447Y-139389959D01*
X142565448Y-139107102D01*
X142324898Y-138866552D01*
X142042041Y-138677553D01*
X141727747Y-138547368D01*
X141394095Y-138481000D01*
X141053905Y-138481000D01*
X140720253Y-138547368D01*
X140405959Y-138677553D01*
X140123102Y-138866552D01*
X139958654Y-139031000D01*
X139441346Y-139031000D01*
X139276898Y-138866552D01*
X138994041Y-138677553D01*
X138679747Y-138547368D01*
X138346095Y-138481000D01*
X138005905Y-138481000D01*
X137672253Y-138547368D01*
X137357959Y-138677553D01*
X137075102Y-138866552D01*
X136834552Y-139107102D01*
X136652000Y-139380310D01*
X136469448Y-139107102D01*
X136305000Y-138942654D01*
X136305000Y-133153812D01*
X136310694Y-133096000D01*
X136287969Y-132865268D01*
X136273852Y-132818731D01*
X136220667Y-132643403D01*
X136111374Y-132438930D01*
X135964291Y-132259709D01*
X135919382Y-132222853D01*
X135442754Y-131746225D01*
X135631747Y-131708632D01*
X135946041Y-131578447D01*
X136228898Y-131389448D01*
X136469448Y-131148898D01*
X136652000Y-130875690D01*
X136834552Y-131148898D01*
X137007321Y-131321667D01*
X137016031Y-131410102D01*
X137083333Y-131631967D01*
X137157092Y-131769959D01*
X137190952Y-131833306D01*
X137192627Y-131836440D01*
X137339710Y-132015661D01*
X137384618Y-132052516D01*
X138437489Y-133105388D01*
X138474340Y-133150292D01*
X138519243Y-133187143D01*
X138519245Y-133187145D01*
X138589826Y-133245069D01*
X138653561Y-133297375D01*
X138858034Y-133406668D01*
X139062187Y-133468597D01*
X139079899Y-133473970D01*
X139310631Y-133496695D01*
X139368443Y-133491001D01*
X152699557Y-133491001D01*
X152757369Y-133496695D01*
X152815181Y-133491001D01*
X152988101Y-133473970D01*
X153209966Y-133406668D01*
X153414439Y-133297375D01*
X153593660Y-133150292D01*
X153630518Y-133105380D01*
X153667381Y-133068517D01*
X153712291Y-133031661D01*
X153859374Y-132852440D01*
X153968667Y-132647967D01*
X154035969Y-132426102D01*
X154044679Y-132337667D01*
X154217448Y-132164898D01*
X154406447Y-131882041D01*
X154536632Y-131567747D01*
X154603000Y-131234095D01*
X154603000Y-130893905D01*
X154536632Y-130560253D01*
X154406447Y-130245959D01*
X154217448Y-129963102D01*
X153976898Y-129722552D01*
X153694041Y-129533553D01*
X153379747Y-129403368D01*
X153046095Y-129337000D01*
X152705905Y-129337000D01*
X152372253Y-129403368D01*
X152180761Y-129482687D01*
X152032464Y-129403420D01*
X151857724Y-129350413D01*
X151676000Y-129332515D01*
X150076000Y-129332515D01*
X149894276Y-129350413D01*
X149719536Y-129403420D01*
X149558495Y-129489499D01*
X149417341Y-129605341D01*
X149301499Y-129746495D01*
X149215420Y-129907536D01*
X149162413Y-130082276D01*
X149144515Y-130264000D01*
X149144515Y-131137001D01*
X142008842Y-131137001D01*
X142037097Y-131040702D01*
X141224000Y-130227605D01*
X140410903Y-131040702D01*
X140439158Y-131137001D01*
X139798160Y-131137001D01*
X139634651Y-130973492D01*
X139706447Y-130866041D01*
X139836632Y-130551747D01*
X139852186Y-130473554D01*
X139920397Y-130664292D01*
X139987329Y-130789514D01*
X140231298Y-130861097D01*
X141044395Y-130048000D01*
X141403605Y-130048000D01*
X142216702Y-130861097D01*
X142460671Y-130789514D01*
X142581571Y-130534004D01*
X142650300Y-130259816D01*
X142664217Y-129977488D01*
X142622787Y-129697870D01*
X142527603Y-129431708D01*
X142460671Y-129306486D01*
X142216702Y-129234903D01*
X141403605Y-130048000D01*
X141044395Y-130048000D01*
X140231298Y-129234903D01*
X139987329Y-129306486D01*
X139866429Y-129561996D01*
X139851783Y-129620423D01*
X139836632Y-129544253D01*
X139706447Y-129229959D01*
X139517448Y-128947102D01*
X139276898Y-128706552D01*
X139244643Y-128685000D01*
X140773799Y-128685000D01*
X140607708Y-128744397D01*
X140482486Y-128811329D01*
X140410903Y-129055298D01*
X141224000Y-129868395D01*
X142037097Y-129055298D01*
X141965514Y-128811329D01*
X141710004Y-128690429D01*
X141688346Y-128685000D01*
X155546248Y-128685000D01*
X155521553Y-128721959D01*
X155391368Y-129036253D01*
X155325000Y-129369905D01*
X155325000Y-129710095D01*
X155391368Y-130043747D01*
X155521553Y-130358041D01*
X155710552Y-130640898D01*
X155951102Y-130881448D01*
X156233959Y-131070447D01*
X156548253Y-131200632D01*
X156881905Y-131267000D01*
X157114472Y-131267000D01*
X159114065Y-133266594D01*
X159064413Y-133430276D01*
X159046515Y-133612000D01*
X159046515Y-135412000D01*
X159064413Y-135593724D01*
X159117420Y-135768464D01*
X159203499Y-135929505D01*
X159319341Y-136070659D01*
X159460495Y-136186501D01*
X159621536Y-136272580D01*
X159796276Y-136325587D01*
X159978000Y-136343485D01*
X161078000Y-136343485D01*
X161259724Y-136325587D01*
X161434464Y-136272580D01*
X161595505Y-136186501D01*
X161736659Y-136070659D01*
X161852501Y-135929505D01*
X161867349Y-135901727D01*
X161939886Y-135990114D01*
X162122713Y-136140156D01*
X162331298Y-136251647D01*
X162557626Y-136320303D01*
X162793000Y-136343485D01*
X163343000Y-136343485D01*
X163578374Y-136320303D01*
X163622415Y-136306943D01*
X165774853Y-138459382D01*
X165811709Y-138504291D01*
X165990930Y-138651374D01*
X166195403Y-138760667D01*
X166226573Y-138770122D01*
X166234413Y-138849724D01*
X166287420Y-139024464D01*
X166373499Y-139185505D01*
X166489341Y-139326659D01*
X166630495Y-139442501D01*
X166791536Y-139528580D01*
X166966276Y-139581587D01*
X167148000Y-139599485D01*
X169148000Y-139599485D01*
X169329724Y-139581587D01*
X169504464Y-139528580D01*
X169665505Y-139442501D01*
X169806659Y-139326659D01*
X169922501Y-139185505D01*
X169926000Y-139178959D01*
X169929499Y-139185505D01*
X170045341Y-139326659D01*
X170186495Y-139442501D01*
X170347536Y-139528580D01*
X170522276Y-139581587D01*
X170704000Y-139599485D01*
X172704000Y-139599485D01*
X172885724Y-139581587D01*
X173060464Y-139528580D01*
X173221505Y-139442501D01*
X173362659Y-139326659D01*
X173478501Y-139185505D01*
X173564580Y-139024464D01*
X173617587Y-138849724D01*
X173635485Y-138668000D01*
X173635485Y-136668000D01*
X173617587Y-136486276D01*
X173564580Y-136311536D01*
X173478501Y-136150495D01*
X173362659Y-136009341D01*
X173221505Y-135893499D01*
X173060464Y-135807420D01*
X172885724Y-135754413D01*
X172704000Y-135736515D01*
X171437044Y-135736515D01*
X169325000Y-133624472D01*
X169325000Y-129039137D01*
X169376391Y-129004799D01*
X169644799Y-128736391D01*
X169855685Y-128420777D01*
X170000947Y-128070085D01*
X170075000Y-127697793D01*
X170075000Y-127635002D01*
X170232684Y-127635002D01*
X170113871Y-127888435D01*
X170218644Y-128191344D01*
X170380499Y-128467992D01*
X170593215Y-128707748D01*
X170848618Y-128901399D01*
X171136893Y-129041502D01*
X171323566Y-129098124D01*
X171577000Y-128978777D01*
X171577000Y-127635000D01*
X171831000Y-127635000D01*
X171831000Y-128978777D01*
X172084434Y-129098124D01*
X172271107Y-129041502D01*
X172559382Y-128901399D01*
X172814785Y-128707748D01*
X173027501Y-128467992D01*
X173189356Y-128191344D01*
X173294129Y-127888435D01*
X173175315Y-127635000D01*
X171831000Y-127635000D01*
X171577000Y-127635000D01*
X171557000Y-127635000D01*
X171557000Y-127381000D01*
X171577000Y-127381000D01*
X171577000Y-126037223D01*
X171831000Y-126037223D01*
X171831000Y-127381000D01*
X173175315Y-127381000D01*
X173294129Y-127127565D01*
X173189356Y-126824656D01*
X173027501Y-126548008D01*
X172814785Y-126308252D01*
X172559382Y-126114601D01*
X172271107Y-125974498D01*
X172084434Y-125917876D01*
X171831000Y-126037223D01*
X171577000Y-126037223D01*
X171377333Y-125943196D01*
X171987382Y-125333147D01*
X172032291Y-125296291D01*
X172179374Y-125117070D01*
X172288667Y-124912597D01*
X172355969Y-124690732D01*
X172373000Y-124517812D01*
X172378694Y-124460000D01*
X172373000Y-124402188D01*
X172373000Y-119156558D01*
X172454155Y-119148565D01*
X172798546Y-119044095D01*
X173115938Y-118874445D01*
X173394135Y-118646135D01*
X173622445Y-118367938D01*
X173792095Y-118050546D01*
X173896565Y-117706155D01*
X173931840Y-117348000D01*
X173896565Y-116989845D01*
X173792095Y-116645454D01*
X173622445Y-116328062D01*
X173394135Y-116049865D01*
X173115938Y-115821555D01*
X172798546Y-115651905D01*
X172454155Y-115547435D01*
X172185755Y-115521000D01*
X170206245Y-115521000D01*
X169937845Y-115547435D01*
X169593454Y-115651905D01*
X169276062Y-115821555D01*
X168997865Y-116049865D01*
X168769555Y-116328062D01*
X168599905Y-116645454D01*
X168495435Y-116989845D01*
X168460160Y-117348000D01*
X168495435Y-117706155D01*
X168599905Y-118050546D01*
X168769555Y-118367938D01*
X168997865Y-118646135D01*
X169276062Y-118874445D01*
X169593454Y-119044095D01*
X169937845Y-119148565D01*
X170019000Y-119156558D01*
X170019001Y-123972470D01*
X168398414Y-125593058D01*
X168337793Y-125581000D01*
X167958207Y-125581000D01*
X167585915Y-125655053D01*
X167235223Y-125800315D01*
X166919609Y-126011201D01*
X166785000Y-126145810D01*
X166785000Y-125467621D01*
X166836156Y-125405287D01*
X166947647Y-125196702D01*
X167016303Y-124970374D01*
X167039485Y-124735000D01*
X167039485Y-124327765D01*
X167151000Y-124216250D01*
X167151000Y-123317000D01*
X167405000Y-123317000D01*
X167405000Y-124216250D01*
X167563750Y-124375000D01*
X168178000Y-124378072D01*
X168302482Y-124365812D01*
X168422180Y-124329502D01*
X168532494Y-124270537D01*
X168629185Y-124191185D01*
X168708537Y-124094494D01*
X168767502Y-123984180D01*
X168803812Y-123864482D01*
X168816072Y-123740000D01*
X168813000Y-123475750D01*
X168654250Y-123317000D01*
X167405000Y-123317000D01*
X167151000Y-123317000D01*
X167131000Y-123317000D01*
X167131000Y-123063000D01*
X167151000Y-123063000D01*
X167151000Y-122163750D01*
X167405000Y-122163750D01*
X167405000Y-123063000D01*
X168654250Y-123063000D01*
X168813000Y-122904250D01*
X168816072Y-122640000D01*
X168803812Y-122515518D01*
X168767502Y-122395820D01*
X168708537Y-122285506D01*
X168629185Y-122188815D01*
X168532494Y-122109463D01*
X168422180Y-122050498D01*
X168302482Y-122014188D01*
X168178000Y-122001928D01*
X167563750Y-122005000D01*
X167405000Y-122163750D01*
X167151000Y-122163750D01*
X167039485Y-122052235D01*
X167039485Y-121370000D01*
X167021587Y-121188276D01*
X166968580Y-121013536D01*
X166882501Y-120852495D01*
X166766659Y-120711341D01*
X166625505Y-120595499D01*
X166464464Y-120509420D01*
X166289724Y-120456413D01*
X166108000Y-120438515D01*
X164308000Y-120438515D01*
X164126276Y-120456413D01*
X163951536Y-120509420D01*
X163872302Y-120551772D01*
X159174191Y-115853663D01*
X159190256Y-115800702D01*
X160166903Y-115800702D01*
X160238486Y-116044671D01*
X160493996Y-116165571D01*
X160768184Y-116234300D01*
X161050512Y-116248217D01*
X161330130Y-116206787D01*
X161596292Y-116111603D01*
X161721514Y-116044671D01*
X161793097Y-115800702D01*
X160980000Y-114987605D01*
X160166903Y-115800702D01*
X159190256Y-115800702D01*
X159193587Y-115789724D01*
X159211485Y-115608000D01*
X159211485Y-114878512D01*
X159539783Y-114878512D01*
X159581213Y-115158130D01*
X159676397Y-115424292D01*
X159743329Y-115549514D01*
X159987298Y-115621097D01*
X160800395Y-114808000D01*
X161159605Y-114808000D01*
X161972702Y-115621097D01*
X162216671Y-115549514D01*
X162337571Y-115294004D01*
X162406300Y-115019816D01*
X162420217Y-114737488D01*
X162378787Y-114457870D01*
X162283603Y-114191708D01*
X162216671Y-114066486D01*
X161972702Y-113994903D01*
X161159605Y-114808000D01*
X160800395Y-114808000D01*
X159987298Y-113994903D01*
X159743329Y-114066486D01*
X159622429Y-114321996D01*
X159553700Y-114596184D01*
X159539783Y-114878512D01*
X159211485Y-114878512D01*
X159211485Y-114008000D01*
X159193587Y-113826276D01*
X159190257Y-113815298D01*
X160166903Y-113815298D01*
X160980000Y-114628395D01*
X161793097Y-113815298D01*
X161721514Y-113571329D01*
X161466004Y-113450429D01*
X161191816Y-113381700D01*
X160909488Y-113367783D01*
X160629870Y-113409213D01*
X160363708Y-113504397D01*
X160238486Y-113571329D01*
X160166903Y-113815298D01*
X159190257Y-113815298D01*
X159140580Y-113651536D01*
X159054501Y-113490495D01*
X158938659Y-113349341D01*
X158797505Y-113233499D01*
X158636464Y-113147420D01*
X158461724Y-113094413D01*
X158280000Y-113076515D01*
X156680000Y-113076515D01*
X156498276Y-113094413D01*
X156323536Y-113147420D01*
X156162495Y-113233499D01*
X156021341Y-113349341D01*
X155905499Y-113490495D01*
X155819420Y-113651536D01*
X155766413Y-113826276D01*
X155748515Y-114008000D01*
X155748515Y-115608000D01*
X155766413Y-115789724D01*
X155785809Y-115853663D01*
X155468472Y-116171000D01*
X154173346Y-116171000D01*
X154008898Y-116006552D01*
X153726041Y-115817553D01*
X153411747Y-115687368D01*
X153078095Y-115621000D01*
X152737905Y-115621000D01*
X152404253Y-115687368D01*
X152089959Y-115817553D01*
X151807102Y-116006552D01*
X151642654Y-116171000D01*
X149331530Y-116171000D01*
X146501232Y-113340702D01*
X152094903Y-113340702D01*
X152166486Y-113584671D01*
X152421996Y-113705571D01*
X152696184Y-113774300D01*
X152978512Y-113788217D01*
X153258130Y-113746787D01*
X153524292Y-113651603D01*
X153649514Y-113584671D01*
X153721097Y-113340702D01*
X152908000Y-112527605D01*
X152094903Y-113340702D01*
X146501232Y-113340702D01*
X145579041Y-112418512D01*
X151467783Y-112418512D01*
X151509213Y-112698130D01*
X151604397Y-112964292D01*
X151671329Y-113089514D01*
X151915298Y-113161097D01*
X152728395Y-112348000D01*
X153087605Y-112348000D01*
X153900702Y-113161097D01*
X154144671Y-113089514D01*
X154265571Y-112834004D01*
X154334300Y-112559816D01*
X154348217Y-112277488D01*
X154306787Y-111997870D01*
X154211603Y-111731708D01*
X154144671Y-111606486D01*
X153900702Y-111534903D01*
X153087605Y-112348000D01*
X152728395Y-112348000D01*
X151915298Y-111534903D01*
X151671329Y-111606486D01*
X151550429Y-111861996D01*
X151481700Y-112136184D01*
X151467783Y-112418512D01*
X145579041Y-112418512D01*
X144515827Y-111355298D01*
X152094903Y-111355298D01*
X152908000Y-112168395D01*
X153721097Y-111355298D01*
X153649514Y-111111329D01*
X153394004Y-110990429D01*
X153119816Y-110921700D01*
X152837488Y-110907783D01*
X152557870Y-110949213D01*
X152291708Y-111044397D01*
X152166486Y-111111329D01*
X152094903Y-111355298D01*
X144515827Y-111355298D01*
X142393000Y-109232472D01*
X142393000Y-109054830D01*
X142328554Y-108730837D01*
X142202138Y-108425643D01*
X142018611Y-108150975D01*
X141785025Y-107917389D01*
X141510357Y-107733862D01*
X141205163Y-107607446D01*
X140881170Y-107543000D01*
X140550830Y-107543000D01*
X140226837Y-107607446D01*
X139921643Y-107733862D01*
X139646975Y-107917389D01*
X139413389Y-108150975D01*
X139229862Y-108425643D01*
X139213667Y-108464742D01*
X139132993Y-108442612D01*
X138355605Y-109220000D01*
X139132993Y-109997388D01*
X139213667Y-109975258D01*
X139229862Y-110014357D01*
X139413389Y-110289025D01*
X139646975Y-110522611D01*
X139921643Y-110706138D01*
X140226837Y-110832554D01*
X140550830Y-110897000D01*
X140728472Y-110897000D01*
X147970858Y-118139388D01*
X148007709Y-118184291D01*
X148052612Y-118221142D01*
X148052614Y-118221144D01*
X148165149Y-118313499D01*
X148186930Y-118331374D01*
X148391403Y-118440667D01*
X148551438Y-118489213D01*
X148613268Y-118507969D01*
X148844000Y-118530694D01*
X148901812Y-118525000D01*
X151642654Y-118525000D01*
X151807102Y-118689448D01*
X152089959Y-118878447D01*
X152404253Y-119008632D01*
X152737905Y-119075000D01*
X153078095Y-119075000D01*
X153411747Y-119008632D01*
X153726041Y-118878447D01*
X154008898Y-118689448D01*
X154173346Y-118525000D01*
X155898188Y-118525000D01*
X155956000Y-118530694D01*
X156013812Y-118525000D01*
X156186732Y-118507969D01*
X156408597Y-118440667D01*
X156613070Y-118331374D01*
X156792291Y-118184291D01*
X156829151Y-118139377D01*
X157480000Y-117488528D01*
X162702858Y-122711388D01*
X162739709Y-122756291D01*
X162784612Y-122793142D01*
X162784614Y-122793144D01*
X162904717Y-122891710D01*
X162918930Y-122903374D01*
X163123403Y-123012667D01*
X163315474Y-123070931D01*
X163345268Y-123079969D01*
X163576000Y-123102694D01*
X163624141Y-123097953D01*
X163649341Y-123128659D01*
X163790495Y-123244501D01*
X163818273Y-123259349D01*
X163729886Y-123331886D01*
X163579844Y-123514713D01*
X163468353Y-123723298D01*
X163399697Y-123949626D01*
X163376515Y-124185000D01*
X163376515Y-124735000D01*
X163399697Y-124970374D01*
X163468353Y-125196702D01*
X163579844Y-125405287D01*
X163729886Y-125588114D01*
X163912713Y-125738156D01*
X164121298Y-125849647D01*
X164347626Y-125918303D01*
X164431000Y-125926515D01*
X164431001Y-131084470D01*
X162885361Y-132630111D01*
X162824250Y-132569000D01*
X161925000Y-132569000D01*
X161925000Y-132589000D01*
X161671000Y-132589000D01*
X161671000Y-132569000D01*
X161651000Y-132569000D01*
X161651000Y-132315000D01*
X161671000Y-132315000D01*
X161671000Y-132295000D01*
X161925000Y-132295000D01*
X161925000Y-132315000D01*
X162824250Y-132315000D01*
X162983000Y-132156250D01*
X162986072Y-131542000D01*
X162973812Y-131417518D01*
X162937502Y-131297820D01*
X162878537Y-131187506D01*
X162799185Y-131090815D01*
X162702494Y-131011463D01*
X162592180Y-130952498D01*
X162472482Y-130916188D01*
X162466869Y-130915635D01*
X162668292Y-130843603D01*
X162793514Y-130776671D01*
X162865097Y-130532702D01*
X162052000Y-129719605D01*
X161238903Y-130532702D01*
X161310486Y-130776671D01*
X161565996Y-130897571D01*
X161670998Y-130923891D01*
X161670998Y-131065748D01*
X161512250Y-130907000D01*
X161248000Y-130903928D01*
X161123518Y-130916188D01*
X161003820Y-130952498D01*
X160893506Y-131011463D01*
X160796815Y-131090815D01*
X160717463Y-131187506D01*
X160658498Y-131297820D01*
X160622188Y-131417518D01*
X160619665Y-131443136D01*
X158787041Y-129610512D01*
X160611783Y-129610512D01*
X160653213Y-129890130D01*
X160748397Y-130156292D01*
X160815329Y-130281514D01*
X161059298Y-130353097D01*
X161872395Y-129540000D01*
X162231605Y-129540000D01*
X163044702Y-130353097D01*
X163288671Y-130281514D01*
X163409571Y-130026004D01*
X163478300Y-129751816D01*
X163492217Y-129469488D01*
X163450787Y-129189870D01*
X163355603Y-128923708D01*
X163288671Y-128798486D01*
X163044702Y-128726903D01*
X162231605Y-129540000D01*
X161872395Y-129540000D01*
X161059298Y-128726903D01*
X160815329Y-128798486D01*
X160694429Y-129053996D01*
X160625700Y-129328184D01*
X160611783Y-129610512D01*
X158787041Y-129610512D01*
X158779000Y-129602472D01*
X158779000Y-129369905D01*
X158712632Y-129036253D01*
X158582447Y-128721959D01*
X158465743Y-128547298D01*
X161238903Y-128547298D01*
X162052000Y-129360395D01*
X162865097Y-128547298D01*
X162793514Y-128303329D01*
X162538004Y-128182429D01*
X162263816Y-128113700D01*
X161981488Y-128099783D01*
X161701870Y-128141213D01*
X161435708Y-128236397D01*
X161310486Y-128303329D01*
X161238903Y-128547298D01*
X158465743Y-128547298D01*
X158393448Y-128439102D01*
X158229000Y-128274654D01*
X158229000Y-127565811D01*
X158234694Y-127508000D01*
X158229000Y-127450188D01*
X158229000Y-125175485D01*
X158280000Y-125175485D01*
X158461724Y-125157587D01*
X158636464Y-125104580D01*
X158797505Y-125018501D01*
X158938659Y-124902659D01*
X159054501Y-124761505D01*
X159140580Y-124600464D01*
X159190256Y-124436702D01*
X160166903Y-124436702D01*
X160238486Y-124680671D01*
X160493996Y-124801571D01*
X160768184Y-124870300D01*
X161050512Y-124884217D01*
X161330130Y-124842787D01*
X161596292Y-124747603D01*
X161721514Y-124680671D01*
X161793097Y-124436702D01*
X160980000Y-123623605D01*
X160166903Y-124436702D01*
X159190256Y-124436702D01*
X159193587Y-124425724D01*
X159211485Y-124244000D01*
X159211485Y-123514512D01*
X159539783Y-123514512D01*
X159581213Y-123794130D01*
X159676397Y-124060292D01*
X159743329Y-124185514D01*
X159987298Y-124257097D01*
X160800395Y-123444000D01*
X161159605Y-123444000D01*
X161972702Y-124257097D01*
X162216671Y-124185514D01*
X162337571Y-123930004D01*
X162406300Y-123655816D01*
X162420217Y-123373488D01*
X162378787Y-123093870D01*
X162283603Y-122827708D01*
X162216671Y-122702486D01*
X161972702Y-122630903D01*
X161159605Y-123444000D01*
X160800395Y-123444000D01*
X159987298Y-122630903D01*
X159743329Y-122702486D01*
X159622429Y-122957996D01*
X159553700Y-123232184D01*
X159539783Y-123514512D01*
X159211485Y-123514512D01*
X159211485Y-122644000D01*
X159193587Y-122462276D01*
X159190257Y-122451298D01*
X160166903Y-122451298D01*
X160980000Y-123264395D01*
X161793097Y-122451298D01*
X161721514Y-122207329D01*
X161466004Y-122086429D01*
X161191816Y-122017700D01*
X160909488Y-122003783D01*
X160629870Y-122045213D01*
X160363708Y-122140397D01*
X160238486Y-122207329D01*
X160166903Y-122451298D01*
X159190257Y-122451298D01*
X159140580Y-122287536D01*
X159054501Y-122126495D01*
X158938659Y-121985341D01*
X158797505Y-121869499D01*
X158636464Y-121783420D01*
X158461724Y-121730413D01*
X158280000Y-121712515D01*
X156680000Y-121712515D01*
X156498276Y-121730413D01*
X156323536Y-121783420D01*
X156162495Y-121869499D01*
X156021341Y-121985341D01*
X155905499Y-122126495D01*
X155819420Y-122287536D01*
X155766413Y-122462276D01*
X155748515Y-122644000D01*
X155748515Y-124244000D01*
X155766413Y-124425724D01*
X155819420Y-124600464D01*
X155875001Y-124704447D01*
X155875000Y-126331000D01*
X137725801Y-126331000D01*
X137667999Y-126325307D01*
X137610197Y-126331000D01*
X137610188Y-126331000D01*
X137437268Y-126348031D01*
X137215403Y-126415333D01*
X137010930Y-126524626D01*
X136831709Y-126671709D01*
X136794856Y-126716615D01*
X135190472Y-128321000D01*
X134957905Y-128321000D01*
X134624253Y-128387368D01*
X134309959Y-128517553D01*
X134027102Y-128706552D01*
X133786552Y-128947102D01*
X133604000Y-129220310D01*
X133421448Y-128947102D01*
X133180898Y-128706552D01*
X132898041Y-128517553D01*
X132583747Y-128387368D01*
X132250095Y-128321000D01*
X132017529Y-128321000D01*
X130717000Y-127020472D01*
X130717000Y-124289905D01*
X134925000Y-124289905D01*
X134925000Y-124630095D01*
X134991368Y-124963747D01*
X135121553Y-125278041D01*
X135310552Y-125560898D01*
X135551102Y-125801448D01*
X135833959Y-125990447D01*
X136148253Y-126120632D01*
X136481905Y-126187000D01*
X136822095Y-126187000D01*
X137155747Y-126120632D01*
X137470041Y-125990447D01*
X137752898Y-125801448D01*
X137917346Y-125637000D01*
X149802188Y-125637000D01*
X149860000Y-125642694D01*
X149917812Y-125637000D01*
X150090732Y-125619969D01*
X150312597Y-125552667D01*
X150517070Y-125443374D01*
X150696291Y-125296291D01*
X150733151Y-125251377D01*
X150809043Y-125175485D01*
X151676000Y-125175485D01*
X151857724Y-125157587D01*
X152032464Y-125104580D01*
X152180761Y-125025313D01*
X152372253Y-125104632D01*
X152705905Y-125171000D01*
X153046095Y-125171000D01*
X153379747Y-125104632D01*
X153694041Y-124974447D01*
X153976898Y-124785448D01*
X154217448Y-124544898D01*
X154406447Y-124262041D01*
X154536632Y-123947747D01*
X154603000Y-123614095D01*
X154603000Y-123273905D01*
X154536632Y-122940253D01*
X154406447Y-122625959D01*
X154217448Y-122343102D01*
X153976898Y-122102552D01*
X153694041Y-121913553D01*
X153379747Y-121783368D01*
X153046095Y-121717000D01*
X152705905Y-121717000D01*
X152372253Y-121783368D01*
X152180761Y-121862687D01*
X152032464Y-121783420D01*
X151857724Y-121730413D01*
X151676000Y-121712515D01*
X150076000Y-121712515D01*
X149894276Y-121730413D01*
X149719536Y-121783420D01*
X149558495Y-121869499D01*
X149417341Y-121985341D01*
X149301499Y-122126495D01*
X149215420Y-122287536D01*
X149162413Y-122462276D01*
X149144515Y-122644000D01*
X149144515Y-123283000D01*
X137917346Y-123283000D01*
X137752898Y-123118552D01*
X137470041Y-122929553D01*
X137155747Y-122799368D01*
X136822095Y-122733000D01*
X136481905Y-122733000D01*
X136148253Y-122799368D01*
X135833959Y-122929553D01*
X135551102Y-123118552D01*
X135310552Y-123359102D01*
X135121553Y-123641959D01*
X134991368Y-123956253D01*
X134925000Y-124289905D01*
X130717000Y-124289905D01*
X130717000Y-123693346D01*
X130881448Y-123528898D01*
X130995583Y-123358083D01*
X131116586Y-123491519D01*
X131342580Y-123659037D01*
X131596913Y-123779246D01*
X131730961Y-123819904D01*
X131953000Y-123697915D01*
X131953000Y-122555000D01*
X132207000Y-122555000D01*
X132207000Y-123697915D01*
X132429039Y-123819904D01*
X132563087Y-123779246D01*
X132817420Y-123659037D01*
X133043414Y-123491519D01*
X133232385Y-123283131D01*
X133377070Y-123041881D01*
X133471909Y-122777040D01*
X133350624Y-122555000D01*
X132207000Y-122555000D01*
X131953000Y-122555000D01*
X131933000Y-122555000D01*
X131933000Y-122301000D01*
X131953000Y-122301000D01*
X131953000Y-121158085D01*
X132207000Y-121158085D01*
X132207000Y-122301000D01*
X133350624Y-122301000D01*
X133471909Y-122078960D01*
X133377070Y-121814119D01*
X133232385Y-121572869D01*
X133043414Y-121364481D01*
X132817420Y-121196963D01*
X132563087Y-121076754D01*
X132429039Y-121036096D01*
X132207000Y-121158085D01*
X131953000Y-121158085D01*
X131730961Y-121036096D01*
X131596913Y-121076754D01*
X131342580Y-121196963D01*
X131116586Y-121364481D01*
X130995583Y-121497917D01*
X130881448Y-121327102D01*
X130717000Y-121162654D01*
X130717000Y-117835528D01*
X132017529Y-116535000D01*
X132142472Y-116535000D01*
X136286858Y-120679388D01*
X136323709Y-120724291D01*
X136368612Y-120761142D01*
X136368614Y-120761144D01*
X136449266Y-120827333D01*
X136502930Y-120871374D01*
X136707403Y-120980667D01*
X136890128Y-121036096D01*
X136929268Y-121047969D01*
X137160000Y-121070694D01*
X137217812Y-121065000D01*
X140082397Y-121065000D01*
X140157499Y-121205505D01*
X140273341Y-121346659D01*
X140414495Y-121462501D01*
X140575536Y-121548580D01*
X140750276Y-121601587D01*
X140932000Y-121619485D01*
X142532000Y-121619485D01*
X142713724Y-121601587D01*
X142888464Y-121548580D01*
X143049505Y-121462501D01*
X143190659Y-121346659D01*
X143306501Y-121205505D01*
X143392580Y-121044464D01*
X143442256Y-120880702D01*
X144418903Y-120880702D01*
X144490486Y-121124671D01*
X144745996Y-121245571D01*
X145020184Y-121314300D01*
X145302512Y-121328217D01*
X145582130Y-121286787D01*
X145848292Y-121191603D01*
X145973514Y-121124671D01*
X146045097Y-120880702D01*
X145232000Y-120067605D01*
X144418903Y-120880702D01*
X143442256Y-120880702D01*
X143445587Y-120869724D01*
X143463485Y-120688000D01*
X143463485Y-119958512D01*
X143791783Y-119958512D01*
X143833213Y-120238130D01*
X143928397Y-120504292D01*
X143995329Y-120629514D01*
X144239298Y-120701097D01*
X145052395Y-119888000D01*
X145411605Y-119888000D01*
X146224702Y-120701097D01*
X146468671Y-120629514D01*
X146589571Y-120374004D01*
X146658300Y-120099816D01*
X146672217Y-119817488D01*
X146630787Y-119537870D01*
X146535603Y-119271708D01*
X146468671Y-119146486D01*
X146224702Y-119074903D01*
X145411605Y-119888000D01*
X145052395Y-119888000D01*
X144239298Y-119074903D01*
X143995329Y-119146486D01*
X143874429Y-119401996D01*
X143805700Y-119676184D01*
X143791783Y-119958512D01*
X143463485Y-119958512D01*
X143463485Y-119088000D01*
X143445587Y-118906276D01*
X143442257Y-118895298D01*
X144418903Y-118895298D01*
X145232000Y-119708395D01*
X146045097Y-118895298D01*
X145973514Y-118651329D01*
X145718004Y-118530429D01*
X145443816Y-118461700D01*
X145161488Y-118447783D01*
X144881870Y-118489213D01*
X144615708Y-118584397D01*
X144490486Y-118651329D01*
X144418903Y-118895298D01*
X143442257Y-118895298D01*
X143392580Y-118731536D01*
X143306501Y-118570495D01*
X143190659Y-118429341D01*
X143049505Y-118313499D01*
X142888464Y-118227420D01*
X142713724Y-118174413D01*
X142532000Y-118156515D01*
X140932000Y-118156515D01*
X140750276Y-118174413D01*
X140575536Y-118227420D01*
X140414495Y-118313499D01*
X140273341Y-118429341D01*
X140157499Y-118570495D01*
X140082397Y-118711000D01*
X137647530Y-118711000D01*
X133807000Y-114870472D01*
X133807000Y-114637905D01*
X133740632Y-114304253D01*
X133610447Y-113989959D01*
X133421448Y-113707102D01*
X133180898Y-113466552D01*
X133148643Y-113445000D01*
X134132471Y-113445000D01*
X134925000Y-114237530D01*
X134925000Y-114470095D01*
X134991368Y-114803747D01*
X135121553Y-115118041D01*
X135310552Y-115400898D01*
X135551102Y-115641448D01*
X135833959Y-115830447D01*
X136148253Y-115960632D01*
X136481905Y-116027000D01*
X136822095Y-116027000D01*
X137155747Y-115960632D01*
X137470041Y-115830447D01*
X137752898Y-115641448D01*
X137993448Y-115400898D01*
X138182447Y-115118041D01*
X138312632Y-114803747D01*
X138379000Y-114470095D01*
X138379000Y-114129905D01*
X138312632Y-113796253D01*
X138182447Y-113481959D01*
X137993448Y-113199102D01*
X137752898Y-112958552D01*
X137470041Y-112769553D01*
X137155747Y-112639368D01*
X136822095Y-112573000D01*
X136589530Y-112573000D01*
X135493150Y-111476622D01*
X135456291Y-111431709D01*
X135277070Y-111284626D01*
X135072597Y-111175333D01*
X134850732Y-111108031D01*
X134677812Y-111091000D01*
X134620000Y-111085306D01*
X134562188Y-111091000D01*
X129597812Y-111091000D01*
X129540000Y-111085306D01*
X129482188Y-111091000D01*
X122057811Y-111091000D01*
X121999999Y-111085306D01*
X121769268Y-111108031D01*
X121547403Y-111175333D01*
X121342930Y-111284626D01*
X121163709Y-111431709D01*
X121126853Y-111476618D01*
X117918472Y-114685000D01*
X117685905Y-114685000D01*
X117352253Y-114751368D01*
X117037959Y-114881553D01*
X116755102Y-115070552D01*
X116590654Y-115235000D01*
X115752297Y-115235000D01*
X115830447Y-115118041D01*
X115960632Y-114803747D01*
X116027000Y-114470095D01*
X116027000Y-114129905D01*
X115960632Y-113796253D01*
X115830447Y-113481959D01*
X115641448Y-113199102D01*
X115400898Y-112958552D01*
X115118041Y-112769553D01*
X114803747Y-112639368D01*
X114470095Y-112573000D01*
X114129905Y-112573000D01*
X113796253Y-112639368D01*
X113481959Y-112769553D01*
X113199102Y-112958552D01*
X113034654Y-113123000D01*
X109228931Y-113123000D01*
X109196530Y-113090599D01*
X108941516Y-112920204D01*
X108658160Y-112802834D01*
X108357351Y-112743000D01*
X108311529Y-112743000D01*
X107221000Y-111652472D01*
X107221000Y-111606649D01*
X107161166Y-111305840D01*
X107043796Y-111022484D01*
X106873401Y-110767470D01*
X106798029Y-110692098D01*
X107093127Y-110397000D01*
X116661364Y-110397000D01*
X116786975Y-110522611D01*
X117061643Y-110706138D01*
X117366837Y-110832554D01*
X117690830Y-110897000D01*
X118021170Y-110897000D01*
X118345163Y-110832554D01*
X118650357Y-110706138D01*
X118925025Y-110522611D01*
X119126000Y-110321636D01*
X119326975Y-110522611D01*
X119601643Y-110706138D01*
X119906837Y-110832554D01*
X120230830Y-110897000D01*
X120561170Y-110897000D01*
X120885163Y-110832554D01*
X121190357Y-110706138D01*
X121465025Y-110522611D01*
X121666000Y-110321636D01*
X121866975Y-110522611D01*
X122141643Y-110706138D01*
X122446837Y-110832554D01*
X122770830Y-110897000D01*
X123101170Y-110897000D01*
X123425163Y-110832554D01*
X123730357Y-110706138D01*
X124005025Y-110522611D01*
X124206000Y-110321636D01*
X124406975Y-110522611D01*
X124681643Y-110706138D01*
X124986837Y-110832554D01*
X125310830Y-110897000D01*
X125641170Y-110897000D01*
X125965163Y-110832554D01*
X126270357Y-110706138D01*
X126545025Y-110522611D01*
X126746000Y-110321636D01*
X126946975Y-110522611D01*
X127221643Y-110706138D01*
X127526837Y-110832554D01*
X127850830Y-110897000D01*
X128181170Y-110897000D01*
X128505163Y-110832554D01*
X128810357Y-110706138D01*
X129085025Y-110522611D01*
X129286000Y-110321636D01*
X129486975Y-110522611D01*
X129761643Y-110706138D01*
X130066837Y-110832554D01*
X130390830Y-110897000D01*
X130721170Y-110897000D01*
X131045163Y-110832554D01*
X131350357Y-110706138D01*
X131625025Y-110522611D01*
X131858611Y-110289025D01*
X131933468Y-110176993D01*
X132318612Y-110176993D01*
X132384137Y-110415860D01*
X132631116Y-110531760D01*
X132895960Y-110597250D01*
X133168492Y-110609812D01*
X133438238Y-110568965D01*
X133694832Y-110476277D01*
X133807863Y-110415860D01*
X133873388Y-110176993D01*
X133096000Y-109399605D01*
X132318612Y-110176993D01*
X131933468Y-110176993D01*
X132042138Y-110014357D01*
X132058333Y-109975258D01*
X132139007Y-109997388D01*
X132916395Y-109220000D01*
X133275605Y-109220000D01*
X134052993Y-109997388D01*
X134133667Y-109975258D01*
X134149862Y-110014357D01*
X134333389Y-110289025D01*
X134566975Y-110522611D01*
X134841643Y-110706138D01*
X135146837Y-110832554D01*
X135470830Y-110897000D01*
X135801170Y-110897000D01*
X136125163Y-110832554D01*
X136430357Y-110706138D01*
X136705025Y-110522611D01*
X136938611Y-110289025D01*
X137013468Y-110176993D01*
X137398612Y-110176993D01*
X137464137Y-110415860D01*
X137711116Y-110531760D01*
X137975960Y-110597250D01*
X138248492Y-110609812D01*
X138518238Y-110568965D01*
X138774832Y-110476277D01*
X138887863Y-110415860D01*
X138953388Y-110176993D01*
X138176000Y-109399605D01*
X137398612Y-110176993D01*
X137013468Y-110176993D01*
X137122138Y-110014357D01*
X137138333Y-109975258D01*
X137219007Y-109997388D01*
X137996395Y-109220000D01*
X137219007Y-108442612D01*
X137138333Y-108464742D01*
X137122138Y-108425643D01*
X137013469Y-108263007D01*
X137398612Y-108263007D01*
X138176000Y-109040395D01*
X138953388Y-108263007D01*
X138887863Y-108024140D01*
X138640884Y-107908240D01*
X138376040Y-107842750D01*
X138103508Y-107830188D01*
X137833762Y-107871035D01*
X137577168Y-107963723D01*
X137464137Y-108024140D01*
X137398612Y-108263007D01*
X137013469Y-108263007D01*
X136938611Y-108150975D01*
X136705025Y-107917389D01*
X136430357Y-107733862D01*
X136125163Y-107607446D01*
X135801170Y-107543000D01*
X135470830Y-107543000D01*
X135146837Y-107607446D01*
X134841643Y-107733862D01*
X134566975Y-107917389D01*
X134333389Y-108150975D01*
X134149862Y-108425643D01*
X134133667Y-108464742D01*
X134052993Y-108442612D01*
X133275605Y-109220000D01*
X132916395Y-109220000D01*
X132902253Y-109205858D01*
X133081858Y-109026253D01*
X133096000Y-109040395D01*
X133873388Y-108263007D01*
X133807863Y-108024140D01*
X133560884Y-107908240D01*
X133296040Y-107842750D01*
X133098867Y-107833662D01*
X133203529Y-107729000D01*
X133249351Y-107729000D01*
X133550160Y-107669166D01*
X133833516Y-107551796D01*
X134088530Y-107381401D01*
X134305401Y-107164530D01*
X134475796Y-106909516D01*
X134521402Y-106799413D01*
X147460192Y-106799413D01*
X147555956Y-107063814D01*
X147845571Y-107204704D01*
X148157108Y-107286384D01*
X148478595Y-107305718D01*
X148797675Y-107261961D01*
X149102088Y-107156795D01*
X149276044Y-107063814D01*
X149371808Y-106799413D01*
X148416000Y-105843605D01*
X147460192Y-106799413D01*
X134521402Y-106799413D01*
X134593166Y-106626160D01*
X134653000Y-106325351D01*
X134653000Y-106018649D01*
X134593166Y-105717840D01*
X134475796Y-105434484D01*
X134305401Y-105179470D01*
X134088530Y-104962599D01*
X133858653Y-104809000D01*
X137037000Y-104809000D01*
X137037000Y-104818095D01*
X137103368Y-105151747D01*
X137233553Y-105466041D01*
X137422552Y-105748898D01*
X137663102Y-105989448D01*
X137945959Y-106178447D01*
X138260253Y-106308632D01*
X138593905Y-106375000D01*
X138934095Y-106375000D01*
X139267747Y-106308632D01*
X139582041Y-106178447D01*
X139864898Y-105989448D01*
X140105448Y-105748898D01*
X140177742Y-105640702D01*
X142950903Y-105640702D01*
X143022486Y-105884671D01*
X143277996Y-106005571D01*
X143552184Y-106074300D01*
X143834512Y-106088217D01*
X144114130Y-106046787D01*
X144380292Y-105951603D01*
X144505514Y-105884671D01*
X144551895Y-105726595D01*
X146774282Y-105726595D01*
X146818039Y-106045675D01*
X146923205Y-106350088D01*
X147016186Y-106524044D01*
X147280587Y-106619808D01*
X148236395Y-105664000D01*
X148595605Y-105664000D01*
X149551413Y-106619808D01*
X149815814Y-106524044D01*
X149956704Y-106234429D01*
X150038384Y-105922892D01*
X150057718Y-105601405D01*
X150013961Y-105282325D01*
X149908795Y-104977912D01*
X149815814Y-104803956D01*
X149551413Y-104708192D01*
X148595605Y-105664000D01*
X148236395Y-105664000D01*
X147280587Y-104708192D01*
X147016186Y-104803956D01*
X146875296Y-105093571D01*
X146793616Y-105405108D01*
X146774282Y-105726595D01*
X144551895Y-105726595D01*
X144577097Y-105640702D01*
X143764000Y-104827605D01*
X142950903Y-105640702D01*
X140177742Y-105640702D01*
X140294447Y-105466041D01*
X140424632Y-105151747D01*
X140491000Y-104818095D01*
X140491000Y-104718512D01*
X142323783Y-104718512D01*
X142365213Y-104998130D01*
X142460397Y-105264292D01*
X142527329Y-105389514D01*
X142771298Y-105461097D01*
X143584395Y-104648000D01*
X143943605Y-104648000D01*
X144756702Y-105461097D01*
X145000671Y-105389514D01*
X145121571Y-105134004D01*
X145190300Y-104859816D01*
X145204217Y-104577488D01*
X145196972Y-104528587D01*
X147460192Y-104528587D01*
X148416000Y-105484395D01*
X149236395Y-104664000D01*
X151484515Y-104664000D01*
X151484515Y-106664000D01*
X151502413Y-106845724D01*
X151555420Y-107020464D01*
X151641499Y-107181505D01*
X151757341Y-107322659D01*
X151898495Y-107438501D01*
X152059536Y-107524580D01*
X152234276Y-107577587D01*
X152416000Y-107595485D01*
X154416000Y-107595485D01*
X154597724Y-107577587D01*
X154772464Y-107524580D01*
X154933505Y-107438501D01*
X155074659Y-107322659D01*
X155190501Y-107181505D01*
X155276580Y-107020464D01*
X155329587Y-106845724D01*
X155330052Y-106841000D01*
X158568863Y-106841000D01*
X158603201Y-106892391D01*
X158871609Y-107160799D01*
X159187223Y-107371685D01*
X159537915Y-107516947D01*
X159910207Y-107591000D01*
X160289793Y-107591000D01*
X160350414Y-107578942D01*
X165830854Y-113059383D01*
X165867709Y-113104291D01*
X166046930Y-113251374D01*
X166251403Y-113360667D01*
X166473268Y-113427969D01*
X166646188Y-113445000D01*
X166646197Y-113445000D01*
X166703999Y-113450693D01*
X166761801Y-113445000D01*
X168511315Y-113445000D01*
X168535420Y-113524464D01*
X168621499Y-113685505D01*
X168737341Y-113826659D01*
X168878495Y-113942501D01*
X169039536Y-114028580D01*
X169214276Y-114081587D01*
X169396000Y-114099485D01*
X172996000Y-114099485D01*
X173177724Y-114081587D01*
X173352464Y-114028580D01*
X173513505Y-113942501D01*
X173654659Y-113826659D01*
X173770501Y-113685505D01*
X173856580Y-113524464D01*
X173909587Y-113349724D01*
X173927485Y-113168000D01*
X173927485Y-111368000D01*
X173909587Y-111186276D01*
X173856580Y-111011536D01*
X173770501Y-110850495D01*
X173654659Y-110709341D01*
X173513505Y-110593499D01*
X173352464Y-110507420D01*
X173177724Y-110454413D01*
X172996000Y-110436515D01*
X169396000Y-110436515D01*
X169214276Y-110454413D01*
X169039536Y-110507420D01*
X168878495Y-110593499D01*
X168737341Y-110709341D01*
X168621499Y-110850495D01*
X168535420Y-111011536D01*
X168511315Y-111091000D01*
X167191529Y-111091000D01*
X162014942Y-105914414D01*
X162027000Y-105853793D01*
X162027000Y-105474207D01*
X161952947Y-105101915D01*
X161807685Y-104751223D01*
X161749405Y-104664000D01*
X163168515Y-104664000D01*
X163168515Y-106664000D01*
X163186413Y-106845724D01*
X163239420Y-107020464D01*
X163325499Y-107181505D01*
X163441341Y-107322659D01*
X163582495Y-107438501D01*
X163743536Y-107524580D01*
X163918276Y-107577587D01*
X164100000Y-107595485D01*
X166100000Y-107595485D01*
X166281724Y-107577587D01*
X166456464Y-107524580D01*
X166617505Y-107438501D01*
X166758659Y-107322659D01*
X166874501Y-107181505D01*
X166960580Y-107020464D01*
X167013587Y-106845724D01*
X167031485Y-106664000D01*
X167031485Y-104664000D01*
X167013587Y-104482276D01*
X166988360Y-104399112D01*
X169177000Y-104399112D01*
X169177000Y-104896888D01*
X169274111Y-105385099D01*
X169464602Y-105844983D01*
X169741151Y-106258869D01*
X170093131Y-106610849D01*
X170507017Y-106887398D01*
X170966901Y-107077889D01*
X171455112Y-107175000D01*
X171952888Y-107175000D01*
X172441099Y-107077889D01*
X172900983Y-106887398D01*
X173314869Y-106610849D01*
X173666849Y-106258869D01*
X173943398Y-105844983D01*
X174133889Y-105385099D01*
X174231000Y-104896888D01*
X174231000Y-104399112D01*
X174133889Y-103910901D01*
X173943398Y-103451017D01*
X173666849Y-103037131D01*
X173314869Y-102685151D01*
X172900983Y-102408602D01*
X172441099Y-102218111D01*
X171952888Y-102121000D01*
X171455112Y-102121000D01*
X170966901Y-102218111D01*
X170507017Y-102408602D01*
X170093131Y-102685151D01*
X169741151Y-103037131D01*
X169464602Y-103451017D01*
X169274111Y-103910901D01*
X169177000Y-104399112D01*
X166988360Y-104399112D01*
X166960580Y-104307536D01*
X166874501Y-104146495D01*
X166758659Y-104005341D01*
X166617505Y-103889499D01*
X166456464Y-103803420D01*
X166281724Y-103750413D01*
X166100000Y-103732515D01*
X164100000Y-103732515D01*
X163918276Y-103750413D01*
X163743536Y-103803420D01*
X163582495Y-103889499D01*
X163441341Y-104005341D01*
X163325499Y-104146495D01*
X163239420Y-104307536D01*
X163186413Y-104482276D01*
X163168515Y-104664000D01*
X161749405Y-104664000D01*
X161596799Y-104435609D01*
X161328391Y-104167201D01*
X161012777Y-103956315D01*
X160662085Y-103811053D01*
X160289793Y-103737000D01*
X159910207Y-103737000D01*
X159537915Y-103811053D01*
X159187223Y-103956315D01*
X158871609Y-104167201D01*
X158603201Y-104435609D01*
X158568863Y-104487000D01*
X155330052Y-104487000D01*
X155329587Y-104482276D01*
X155276580Y-104307536D01*
X155190501Y-104146495D01*
X155074659Y-104005341D01*
X154933505Y-103889499D01*
X154772464Y-103803420D01*
X154597724Y-103750413D01*
X154416000Y-103732515D01*
X152416000Y-103732515D01*
X152234276Y-103750413D01*
X152059536Y-103803420D01*
X151898495Y-103889499D01*
X151757341Y-104005341D01*
X151641499Y-104146495D01*
X151555420Y-104307536D01*
X151502413Y-104482276D01*
X151484515Y-104664000D01*
X149236395Y-104664000D01*
X149371808Y-104528587D01*
X149276044Y-104264186D01*
X148986429Y-104123296D01*
X148674892Y-104041616D01*
X148353405Y-104022282D01*
X148034325Y-104066039D01*
X147729912Y-104171205D01*
X147555956Y-104264186D01*
X147460192Y-104528587D01*
X145196972Y-104528587D01*
X145162787Y-104297870D01*
X145067603Y-104031708D01*
X145000671Y-103906486D01*
X144756702Y-103834903D01*
X143943605Y-104648000D01*
X143584395Y-104648000D01*
X142771298Y-103834903D01*
X142527329Y-103906486D01*
X142406429Y-104161996D01*
X142337700Y-104436184D01*
X142323783Y-104718512D01*
X140491000Y-104718512D01*
X140491000Y-104477905D01*
X140424632Y-104144253D01*
X140294447Y-103829959D01*
X140177743Y-103655298D01*
X142950903Y-103655298D01*
X143764000Y-104468395D01*
X144577097Y-103655298D01*
X144505514Y-103411329D01*
X144250004Y-103290429D01*
X143975816Y-103221700D01*
X143693488Y-103207783D01*
X143413870Y-103249213D01*
X143147708Y-103344397D01*
X143022486Y-103411329D01*
X142950903Y-103655298D01*
X140177743Y-103655298D01*
X140105448Y-103547102D01*
X139864898Y-103306552D01*
X139582041Y-103117553D01*
X139267747Y-102987368D01*
X138934095Y-102921000D01*
X138701528Y-102921000D01*
X138621151Y-102840623D01*
X138584291Y-102795709D01*
X138405070Y-102648626D01*
X138200597Y-102539333D01*
X137978732Y-102472031D01*
X137805812Y-102455000D01*
X137748000Y-102449306D01*
X137690188Y-102455000D01*
X133858653Y-102455000D01*
X134088530Y-102301401D01*
X134305401Y-102084530D01*
X134475796Y-101829516D01*
X134593166Y-101546160D01*
X134653000Y-101245351D01*
X134653000Y-100938649D01*
X134593166Y-100637840D01*
X134565066Y-100570000D01*
X176290000Y-100570000D01*
X176290001Y-105106768D01*
X176290000Y-105106778D01*
X176290001Y-142698777D01*
X176290000Y-146826000D01*
X100570000Y-146826000D01*
X100570000Y-142499112D01*
X102121000Y-142499112D01*
X102121000Y-142996888D01*
X102218111Y-143485099D01*
X102408602Y-143944983D01*
X102685151Y-144358869D01*
X103037131Y-144710849D01*
X103451017Y-144987398D01*
X103910901Y-145177889D01*
X104399112Y-145275000D01*
X104896888Y-145275000D01*
X105385099Y-145177889D01*
X105844983Y-144987398D01*
X106258869Y-144710849D01*
X106610849Y-144358869D01*
X106887398Y-143944983D01*
X107077889Y-143485099D01*
X107175000Y-142996888D01*
X107175000Y-142499112D01*
X107077889Y-142010901D01*
X106887398Y-141551017D01*
X106610849Y-141137131D01*
X106258869Y-140785151D01*
X105844983Y-140508602D01*
X105385099Y-140318111D01*
X104896888Y-140221000D01*
X104399112Y-140221000D01*
X103910901Y-140318111D01*
X103451017Y-140508602D01*
X103037131Y-140785151D01*
X102685151Y-141137131D01*
X102408602Y-141551017D01*
X102218111Y-142010901D01*
X102121000Y-142499112D01*
X100570000Y-142499112D01*
X100570000Y-104399112D01*
X102121000Y-104399112D01*
X102121000Y-104896888D01*
X102218111Y-105385099D01*
X102408602Y-105844983D01*
X102685151Y-106258869D01*
X103037131Y-106610849D01*
X103451017Y-106887398D01*
X103910901Y-107077889D01*
X104399112Y-107175000D01*
X104896888Y-107175000D01*
X105385099Y-107077889D01*
X105844983Y-106887398D01*
X106258869Y-106610849D01*
X106610849Y-106258869D01*
X106887398Y-105844983D01*
X107077889Y-105385099D01*
X107175000Y-104896888D01*
X107175000Y-104399112D01*
X107077889Y-103910901D01*
X106887398Y-103451017D01*
X106610849Y-103037131D01*
X106258869Y-102685151D01*
X105844983Y-102408602D01*
X105385099Y-102218111D01*
X104896888Y-102121000D01*
X104399112Y-102121000D01*
X103910901Y-102218111D01*
X103451017Y-102408602D01*
X103037131Y-102685151D01*
X102685151Y-103037131D01*
X102408602Y-103451017D01*
X102218111Y-103910901D01*
X102121000Y-104399112D01*
X100570000Y-104399112D01*
X100570000Y-100570000D01*
X119253471Y-100570000D01*
X116902472Y-102921000D01*
M02*
