M48
; DRILL file {KiCad (5.1.5-0-10_14)} date Sunday, 13 September 2020 at 21:22:49
; FORMAT={-:-/ absolute / metric / decimal}
; #@! TF.CreationDate,2020-09-13T21:22:49+01:00
; #@! TF.GenerationSoftware,Kicad,Pcbnew,(5.1.5-0-10_14)
FMAT,2
METRIC
T1C0.800
T2C1.000
T3C1.001
T4C1.200
T5C3.200
%
G90
G05
T1
X187.5Y-108.5
X202.5Y-108.5
X175.0Y-99.5
X175.0Y-127.0
X187.5Y-101.5
X202.5Y-101.5
X187.5Y-115.5
X202.5Y-115.5
T2
X183.5Y-99.5
X183.5Y-107.0
T3
X208.5Y-121.0
X182.5Y-111.5
X182.5Y-121.66
X192.0Y-121.0
X202.16Y-121.0
T4
X207.5Y-108.5
X207.5Y-113.58
X166.5Y-110.92
X166.5Y-116.0
X182.84Y-126.5
X187.92Y-126.5
X193.0Y-126.5
X199.34Y-126.5
X204.42Y-126.5
X209.5Y-126.5
T5
X164.0Y-101.0
X209.0Y-101.0
T0
M30
