%TF.GenerationSoftware,KiCad,Pcbnew,(5.1.5-0-10_14)*%
%TF.CreationDate,2020-09-13T21:22:45+01:00*%
%TF.ProjectId,BoneRayPCB,426f6e65-5261-4795-9043-422e6b696361,rev?*%
%TF.SameCoordinates,Original*%
%TF.FileFunction,Copper,L2,Bot*%
%TF.FilePolarity,Positive*%
%FSLAX46Y46*%
G04 Gerber Fmt 4.6, Leading zero omitted, Abs format (unit mm)*
G04 Created by KiCad (PCBNEW (5.1.5-0-10_14)) date 2020-09-13 21:22:45*
%MOMM*%
%LPD*%
G04 APERTURE LIST*
%ADD10C,1.998980*%
%ADD11R,3.600000X1.800000*%
%ADD12O,3.600000X1.800000*%
%ADD13R,1.800000X3.600000*%
%ADD14O,1.800000X3.600000*%
%ADD15C,2.499360*%
%ADD16C,2.000000*%
%ADD17C,1.600000*%
%ADD18O,1.600000X1.600000*%
%ADD19C,1.000000*%
%ADD20C,0.400000*%
G04 APERTURE END LIST*
D10*
X182500000Y-111500000D03*
X182500000Y-121660000D03*
D11*
X166500000Y-116000000D03*
D12*
X166500000Y-110920000D03*
D11*
X207500000Y-108500000D03*
D12*
X207500000Y-113580000D03*
D10*
X192000000Y-121000000D03*
X202160000Y-121000000D03*
D13*
X193000000Y-126500000D03*
D14*
X187920000Y-126500000D03*
X182840000Y-126500000D03*
D13*
X209500000Y-126500000D03*
D14*
X204420000Y-126500000D03*
X199340000Y-126500000D03*
D15*
X208500000Y-121000000D03*
D16*
X183500000Y-99500000D03*
X183500000Y-107000000D03*
D17*
X175000000Y-99500000D03*
D18*
X175000000Y-127000000D03*
D17*
X187500000Y-108500000D03*
D18*
X202500000Y-108500000D03*
D17*
X187500000Y-101500000D03*
D18*
X202500000Y-101500000D03*
D17*
X187500000Y-115500000D03*
D18*
X202500000Y-115500000D03*
D19*
X175000000Y-99500000D02*
X183500000Y-99500000D01*
X182500000Y-111500000D02*
X182500000Y-111000000D01*
X182500000Y-111000000D02*
X175000000Y-103500000D01*
X175000000Y-103500000D02*
X175000000Y-99500000D01*
X193000000Y-126500000D02*
X193000000Y-122000000D01*
X193000000Y-122000000D02*
X192000000Y-121000000D01*
X182840000Y-126500000D02*
X182840000Y-122000000D01*
X182840000Y-122000000D02*
X182500000Y-121660000D01*
X182500000Y-121660000D02*
X182500000Y-116500000D01*
X187500000Y-111500000D02*
X187500000Y-108500000D01*
X182500000Y-116500000D02*
X187500000Y-111500000D01*
X202500000Y-108500000D02*
X194500000Y-108500000D01*
X194500000Y-108500000D02*
X187500000Y-101500000D01*
X202160000Y-121000000D02*
X208500000Y-121000000D01*
X187920000Y-126500000D02*
X187920000Y-115920000D01*
X187920000Y-115920000D02*
X187500000Y-115500000D01*
X187500000Y-115500000D02*
X196500000Y-115500000D01*
X206420000Y-112500000D02*
X207500000Y-113580000D01*
X199500000Y-112500000D02*
X206420000Y-112500000D01*
X196500000Y-115500000D02*
X199500000Y-112500000D01*
X187420000Y-115580000D02*
X187500000Y-115500000D01*
X199340000Y-126500000D02*
X199340000Y-118660000D01*
X199340000Y-118660000D02*
X202500000Y-115500000D01*
X175000000Y-127000000D02*
X175000000Y-116500000D01*
X169420000Y-110920000D02*
X166500000Y-110920000D01*
X175000000Y-116500000D02*
X169420000Y-110920000D01*
D20*
G36*
X173852567Y-98101849D02*
G01*
X173601849Y-98352567D01*
X173404861Y-98647380D01*
X173269173Y-98974959D01*
X173200000Y-99322716D01*
X173200000Y-99677284D01*
X173269173Y-100025041D01*
X173404861Y-100352620D01*
X173500001Y-100495007D01*
X173500000Y-103426319D01*
X173492743Y-103500000D01*
X173500000Y-103573679D01*
X173521705Y-103794050D01*
X173607476Y-104076801D01*
X173746762Y-104337386D01*
X173934208Y-104565792D01*
X173991450Y-104612769D01*
X180530579Y-111151899D01*
X180500510Y-111303067D01*
X180500510Y-111696933D01*
X180577349Y-112083230D01*
X180728075Y-112447114D01*
X180946894Y-112774601D01*
X181225399Y-113053106D01*
X181552886Y-113271925D01*
X181916770Y-113422651D01*
X182303067Y-113499490D01*
X182696933Y-113499490D01*
X183083230Y-113422651D01*
X183447114Y-113271925D01*
X183774601Y-113053106D01*
X184053106Y-112774601D01*
X184271925Y-112447114D01*
X184422651Y-112083230D01*
X184499490Y-111696933D01*
X184499490Y-111303067D01*
X184422651Y-110916770D01*
X184271925Y-110552886D01*
X184053106Y-110225399D01*
X183774601Y-109946894D01*
X183447114Y-109728075D01*
X183280297Y-109658977D01*
X180424337Y-106803017D01*
X181500000Y-106803017D01*
X181500000Y-107196983D01*
X181576859Y-107583378D01*
X181727623Y-107947355D01*
X181946499Y-108274926D01*
X182225074Y-108553501D01*
X182552645Y-108772377D01*
X182916622Y-108923141D01*
X183303017Y-109000000D01*
X183696983Y-109000000D01*
X184083378Y-108923141D01*
X184447355Y-108772377D01*
X184774926Y-108553501D01*
X185053501Y-108274926D01*
X185272377Y-107947355D01*
X185423141Y-107583378D01*
X185500000Y-107196983D01*
X185500000Y-106803017D01*
X185423141Y-106416622D01*
X185272377Y-106052645D01*
X185053501Y-105725074D01*
X184774926Y-105446499D01*
X184447355Y-105227623D01*
X184083378Y-105076859D01*
X183696983Y-105000000D01*
X183303017Y-105000000D01*
X182916622Y-105076859D01*
X182552645Y-105227623D01*
X182225074Y-105446499D01*
X181946499Y-105725074D01*
X181727623Y-106052645D01*
X181576859Y-106416622D01*
X181500000Y-106803017D01*
X180424337Y-106803017D01*
X176500000Y-102878681D01*
X176500000Y-101000000D01*
X182171573Y-101000000D01*
X182225074Y-101053501D01*
X182552645Y-101272377D01*
X182916622Y-101423141D01*
X183303017Y-101500000D01*
X183696983Y-101500000D01*
X184083378Y-101423141D01*
X184325825Y-101322716D01*
X185700000Y-101322716D01*
X185700000Y-101677284D01*
X185769173Y-102025041D01*
X185904861Y-102352620D01*
X186101849Y-102647433D01*
X186352567Y-102898151D01*
X186647380Y-103095139D01*
X186974959Y-103230827D01*
X187142917Y-103264236D01*
X193387235Y-109508555D01*
X193434208Y-109565792D01*
X193662613Y-109753238D01*
X193923198Y-109892524D01*
X194060613Y-109934208D01*
X194205948Y-109978295D01*
X194500000Y-110007257D01*
X194573680Y-110000000D01*
X201504995Y-110000000D01*
X201647380Y-110095139D01*
X201974959Y-110230827D01*
X202322716Y-110300000D01*
X202677284Y-110300000D01*
X203025041Y-110230827D01*
X203352620Y-110095139D01*
X203647433Y-109898151D01*
X203898151Y-109647433D01*
X204063480Y-109400000D01*
X204494194Y-109400000D01*
X204517363Y-109635241D01*
X204585981Y-109861442D01*
X204697409Y-110069910D01*
X204847366Y-110252634D01*
X205030090Y-110402591D01*
X205238558Y-110514019D01*
X205464759Y-110582637D01*
X205700000Y-110605806D01*
X206900000Y-110600000D01*
X207200000Y-110300000D01*
X207200000Y-108800000D01*
X207800000Y-108800000D01*
X207800000Y-110300000D01*
X208100000Y-110600000D01*
X209300000Y-110605806D01*
X209535241Y-110582637D01*
X209761442Y-110514019D01*
X209969910Y-110402591D01*
X210152634Y-110252634D01*
X210302591Y-110069910D01*
X210414019Y-109861442D01*
X210482637Y-109635241D01*
X210505806Y-109400000D01*
X210500000Y-109100000D01*
X210200000Y-108800000D01*
X207800000Y-108800000D01*
X207200000Y-108800000D01*
X204800000Y-108800000D01*
X204500000Y-109100000D01*
X204494194Y-109400000D01*
X204063480Y-109400000D01*
X204095139Y-109352620D01*
X204230827Y-109025041D01*
X204300000Y-108677284D01*
X204300000Y-108322716D01*
X204230827Y-107974959D01*
X204095139Y-107647380D01*
X204063481Y-107600000D01*
X204494194Y-107600000D01*
X204500000Y-107900000D01*
X204800000Y-108200000D01*
X207200000Y-108200000D01*
X207200000Y-106700000D01*
X207800000Y-106700000D01*
X207800000Y-108200000D01*
X210200000Y-108200000D01*
X210500000Y-107900000D01*
X210505806Y-107600000D01*
X210482637Y-107364759D01*
X210414019Y-107138558D01*
X210302591Y-106930090D01*
X210152634Y-106747366D01*
X209969910Y-106597409D01*
X209761442Y-106485981D01*
X209535241Y-106417363D01*
X209300000Y-106394194D01*
X208100000Y-106400000D01*
X207800000Y-106700000D01*
X207200000Y-106700000D01*
X206900000Y-106400000D01*
X205700000Y-106394194D01*
X205464759Y-106417363D01*
X205238558Y-106485981D01*
X205030090Y-106597409D01*
X204847366Y-106747366D01*
X204697409Y-106930090D01*
X204585981Y-107138558D01*
X204517363Y-107364759D01*
X204494194Y-107600000D01*
X204063481Y-107600000D01*
X203898151Y-107352567D01*
X203647433Y-107101849D01*
X203352620Y-106904861D01*
X203025041Y-106769173D01*
X202677284Y-106700000D01*
X202322716Y-106700000D01*
X201974959Y-106769173D01*
X201647380Y-106904861D01*
X201504995Y-107000000D01*
X195121320Y-107000000D01*
X189444036Y-101322716D01*
X200700000Y-101322716D01*
X200700000Y-101677284D01*
X200769173Y-102025041D01*
X200904861Y-102352620D01*
X201101849Y-102647433D01*
X201352567Y-102898151D01*
X201647380Y-103095139D01*
X201974959Y-103230827D01*
X202322716Y-103300000D01*
X202677284Y-103300000D01*
X203025041Y-103230827D01*
X203352620Y-103095139D01*
X203647433Y-102898151D01*
X203898151Y-102647433D01*
X204095139Y-102352620D01*
X204230827Y-102025041D01*
X204300000Y-101677284D01*
X204300000Y-101322716D01*
X204230827Y-100974959D01*
X204135129Y-100743922D01*
X206400000Y-100743922D01*
X206400000Y-101256078D01*
X206499917Y-101758392D01*
X206695910Y-102231562D01*
X206980448Y-102657403D01*
X207342597Y-103019552D01*
X207768438Y-103304090D01*
X208241608Y-103500083D01*
X208743922Y-103600000D01*
X209256078Y-103600000D01*
X209758392Y-103500083D01*
X210231562Y-103304090D01*
X210657403Y-103019552D01*
X211019552Y-102657403D01*
X211304090Y-102231562D01*
X211500083Y-101758392D01*
X211600000Y-101256078D01*
X211600000Y-100743922D01*
X211500083Y-100241608D01*
X211304090Y-99768438D01*
X211019552Y-99342597D01*
X210657403Y-98980448D01*
X210231562Y-98695910D01*
X209758392Y-98499917D01*
X209256078Y-98400000D01*
X208743922Y-98400000D01*
X208241608Y-98499917D01*
X207768438Y-98695910D01*
X207342597Y-98980448D01*
X206980448Y-99342597D01*
X206695910Y-99768438D01*
X206499917Y-100241608D01*
X206400000Y-100743922D01*
X204135129Y-100743922D01*
X204095139Y-100647380D01*
X203898151Y-100352567D01*
X203647433Y-100101849D01*
X203352620Y-99904861D01*
X203025041Y-99769173D01*
X202677284Y-99700000D01*
X202322716Y-99700000D01*
X201974959Y-99769173D01*
X201647380Y-99904861D01*
X201352567Y-100101849D01*
X201101849Y-100352567D01*
X200904861Y-100647380D01*
X200769173Y-100974959D01*
X200700000Y-101322716D01*
X189444036Y-101322716D01*
X189264236Y-101142917D01*
X189230827Y-100974959D01*
X189095139Y-100647380D01*
X188898151Y-100352567D01*
X188647433Y-100101849D01*
X188352620Y-99904861D01*
X188025041Y-99769173D01*
X187677284Y-99700000D01*
X187322716Y-99700000D01*
X186974959Y-99769173D01*
X186647380Y-99904861D01*
X186352567Y-100101849D01*
X186101849Y-100352567D01*
X185904861Y-100647380D01*
X185769173Y-100974959D01*
X185700000Y-101322716D01*
X184325825Y-101322716D01*
X184447355Y-101272377D01*
X184774926Y-101053501D01*
X185053501Y-100774926D01*
X185272377Y-100447355D01*
X185423141Y-100083378D01*
X185500000Y-99696983D01*
X185500000Y-99303017D01*
X185423141Y-98916622D01*
X185272377Y-98552645D01*
X185053501Y-98225074D01*
X184903427Y-98075000D01*
X211925000Y-98075000D01*
X211925001Y-130925000D01*
X161075000Y-130925000D01*
X161075000Y-116900000D01*
X163494194Y-116900000D01*
X163517363Y-117135241D01*
X163585981Y-117361442D01*
X163697409Y-117569910D01*
X163847366Y-117752634D01*
X164030090Y-117902591D01*
X164238558Y-118014019D01*
X164464759Y-118082637D01*
X164700000Y-118105806D01*
X165900000Y-118100000D01*
X166200000Y-117800000D01*
X166200000Y-116300000D01*
X166800000Y-116300000D01*
X166800000Y-117800000D01*
X167100000Y-118100000D01*
X168300000Y-118105806D01*
X168535241Y-118082637D01*
X168761442Y-118014019D01*
X168969910Y-117902591D01*
X169152634Y-117752634D01*
X169302591Y-117569910D01*
X169414019Y-117361442D01*
X169482637Y-117135241D01*
X169505806Y-116900000D01*
X169500000Y-116600000D01*
X169200000Y-116300000D01*
X166800000Y-116300000D01*
X166200000Y-116300000D01*
X163800000Y-116300000D01*
X163500000Y-116600000D01*
X163494194Y-116900000D01*
X161075000Y-116900000D01*
X161075000Y-115100000D01*
X163494194Y-115100000D01*
X163500000Y-115400000D01*
X163800000Y-115700000D01*
X166200000Y-115700000D01*
X166200000Y-114200000D01*
X166800000Y-114200000D01*
X166800000Y-115700000D01*
X169200000Y-115700000D01*
X169500000Y-115400000D01*
X169505806Y-115100000D01*
X169482637Y-114864759D01*
X169414019Y-114638558D01*
X169302591Y-114430090D01*
X169152634Y-114247366D01*
X168969910Y-114097409D01*
X168761442Y-113985981D01*
X168535241Y-113917363D01*
X168300000Y-113894194D01*
X167100000Y-113900000D01*
X166800000Y-114200000D01*
X166200000Y-114200000D01*
X165900000Y-113900000D01*
X164700000Y-113894194D01*
X164464759Y-113917363D01*
X164238558Y-113985981D01*
X164030090Y-114097409D01*
X163847366Y-114247366D01*
X163697409Y-114430090D01*
X163585981Y-114638558D01*
X163517363Y-114864759D01*
X163494194Y-115100000D01*
X161075000Y-115100000D01*
X161075000Y-110920000D01*
X163690807Y-110920000D01*
X163727492Y-111292465D01*
X163836136Y-111650617D01*
X164012564Y-111980691D01*
X164249997Y-112270003D01*
X164539309Y-112507436D01*
X164869383Y-112683864D01*
X165227535Y-112792508D01*
X165506663Y-112820000D01*
X167493337Y-112820000D01*
X167772465Y-112792508D01*
X168130617Y-112683864D01*
X168460691Y-112507436D01*
X168567232Y-112420000D01*
X168798681Y-112420000D01*
X173500001Y-117121322D01*
X173500000Y-126004994D01*
X173404861Y-126147380D01*
X173269173Y-126474959D01*
X173200000Y-126822716D01*
X173200000Y-127177284D01*
X173269173Y-127525041D01*
X173404861Y-127852620D01*
X173601849Y-128147433D01*
X173852567Y-128398151D01*
X174147380Y-128595139D01*
X174474959Y-128730827D01*
X174822716Y-128800000D01*
X175177284Y-128800000D01*
X175525041Y-128730827D01*
X175852620Y-128595139D01*
X176147433Y-128398151D01*
X176398151Y-128147433D01*
X176595139Y-127852620D01*
X176730827Y-127525041D01*
X176800000Y-127177284D01*
X176800000Y-126822716D01*
X176730827Y-126474959D01*
X176595139Y-126147380D01*
X176500000Y-126004995D01*
X176500000Y-121463067D01*
X180500510Y-121463067D01*
X180500510Y-121856933D01*
X180577349Y-122243230D01*
X180728075Y-122607114D01*
X180946894Y-122934601D01*
X181225399Y-123213106D01*
X181340001Y-123289680D01*
X181340000Y-124432769D01*
X181252565Y-124539309D01*
X181076137Y-124869383D01*
X180967493Y-125227535D01*
X180940000Y-125506663D01*
X180940000Y-127493336D01*
X180967492Y-127772464D01*
X181076136Y-128130616D01*
X181252564Y-128460691D01*
X181489997Y-128750003D01*
X181779309Y-128987436D01*
X182109383Y-129163864D01*
X182467535Y-129272508D01*
X182840000Y-129309193D01*
X183212464Y-129272508D01*
X183570616Y-129163864D01*
X183900691Y-128987436D01*
X184190003Y-128750003D01*
X184427436Y-128460691D01*
X184603864Y-128130617D01*
X184712508Y-127772465D01*
X184740000Y-127493337D01*
X184740000Y-125506663D01*
X184712508Y-125227535D01*
X184603864Y-124869383D01*
X184427436Y-124539309D01*
X184340000Y-124432768D01*
X184340000Y-122442767D01*
X184422651Y-122243230D01*
X184499490Y-121856933D01*
X184499490Y-121463067D01*
X184422651Y-121076770D01*
X184271925Y-120712886D01*
X184053106Y-120385399D01*
X184000000Y-120332293D01*
X184000000Y-117121319D01*
X185700000Y-115421319D01*
X185700000Y-115677284D01*
X185769173Y-116025041D01*
X185904861Y-116352620D01*
X186101849Y-116647433D01*
X186352567Y-116898151D01*
X186420001Y-116943209D01*
X186420000Y-124432769D01*
X186332565Y-124539309D01*
X186156137Y-124869383D01*
X186047493Y-125227535D01*
X186020000Y-125506663D01*
X186020000Y-127493336D01*
X186047492Y-127772464D01*
X186156136Y-128130616D01*
X186332564Y-128460691D01*
X186569997Y-128750003D01*
X186859309Y-128987436D01*
X187189383Y-129163864D01*
X187547535Y-129272508D01*
X187920000Y-129309193D01*
X188292464Y-129272508D01*
X188650616Y-129163864D01*
X188980691Y-128987436D01*
X189270003Y-128750003D01*
X189507436Y-128460691D01*
X189683864Y-128130617D01*
X189792508Y-127772465D01*
X189820000Y-127493337D01*
X189820000Y-125506663D01*
X189792508Y-125227535D01*
X189683864Y-124869383D01*
X189507436Y-124539309D01*
X189420000Y-124432768D01*
X189420000Y-120803067D01*
X190000510Y-120803067D01*
X190000510Y-121196933D01*
X190077349Y-121583230D01*
X190228075Y-121947114D01*
X190446894Y-122274601D01*
X190725399Y-122553106D01*
X191052886Y-122771925D01*
X191416770Y-122922651D01*
X191500001Y-122939207D01*
X191500001Y-123898764D01*
X191389472Y-123989472D01*
X191264508Y-124141742D01*
X191171651Y-124315465D01*
X191114470Y-124503966D01*
X191095162Y-124700000D01*
X191095162Y-128300000D01*
X191114470Y-128496034D01*
X191171651Y-128684535D01*
X191264508Y-128858258D01*
X191389472Y-129010528D01*
X191541742Y-129135492D01*
X191715465Y-129228349D01*
X191903966Y-129285530D01*
X192100000Y-129304838D01*
X193900000Y-129304838D01*
X194096034Y-129285530D01*
X194284535Y-129228349D01*
X194458258Y-129135492D01*
X194610528Y-129010528D01*
X194735492Y-128858258D01*
X194828349Y-128684535D01*
X194885530Y-128496034D01*
X194904838Y-128300000D01*
X194904838Y-124700000D01*
X194885530Y-124503966D01*
X194828349Y-124315465D01*
X194735492Y-124141742D01*
X194610528Y-123989472D01*
X194500000Y-123898765D01*
X194500000Y-122073680D01*
X194507257Y-122000000D01*
X194478295Y-121705949D01*
X194392524Y-121423197D01*
X194253238Y-121162613D01*
X194188064Y-121083198D01*
X194065792Y-120934208D01*
X194008555Y-120887235D01*
X193999490Y-120878170D01*
X193999490Y-120803067D01*
X193922651Y-120416770D01*
X193771925Y-120052886D01*
X193553106Y-119725399D01*
X193274601Y-119446894D01*
X192947114Y-119228075D01*
X192583230Y-119077349D01*
X192196933Y-119000510D01*
X191803067Y-119000510D01*
X191416770Y-119077349D01*
X191052886Y-119228075D01*
X190725399Y-119446894D01*
X190446894Y-119725399D01*
X190228075Y-120052886D01*
X190077349Y-120416770D01*
X190000510Y-120803067D01*
X189420000Y-120803067D01*
X189420000Y-117000000D01*
X196426320Y-117000000D01*
X196500000Y-117007257D01*
X196573680Y-117000000D01*
X196794051Y-116978295D01*
X197076802Y-116892524D01*
X197337387Y-116753238D01*
X197565792Y-116565792D01*
X197612769Y-116508550D01*
X200121321Y-114000000D01*
X201504995Y-114000000D01*
X201352567Y-114101849D01*
X201101849Y-114352567D01*
X200904861Y-114647380D01*
X200769173Y-114974959D01*
X200735764Y-115142916D01*
X198331445Y-117547236D01*
X198274209Y-117594208D01*
X198086763Y-117822613D01*
X197984454Y-118014019D01*
X197947477Y-118083198D01*
X197861705Y-118365949D01*
X197832743Y-118660000D01*
X197840001Y-118733690D01*
X197840000Y-124432769D01*
X197752565Y-124539309D01*
X197576137Y-124869383D01*
X197467493Y-125227535D01*
X197440000Y-125506663D01*
X197440000Y-127493336D01*
X197467492Y-127772464D01*
X197576136Y-128130616D01*
X197752564Y-128460691D01*
X197989997Y-128750003D01*
X198279309Y-128987436D01*
X198609383Y-129163864D01*
X198967535Y-129272508D01*
X199340000Y-129309193D01*
X199712464Y-129272508D01*
X200070616Y-129163864D01*
X200400691Y-128987436D01*
X200690003Y-128750003D01*
X200927436Y-128460691D01*
X201103864Y-128130617D01*
X201212508Y-127772465D01*
X201240000Y-127493337D01*
X201240000Y-125506663D01*
X202520000Y-125506663D01*
X202520000Y-127493336D01*
X202547492Y-127772464D01*
X202656136Y-128130616D01*
X202832564Y-128460691D01*
X203069997Y-128750003D01*
X203359309Y-128987436D01*
X203689383Y-129163864D01*
X204047535Y-129272508D01*
X204420000Y-129309193D01*
X204792464Y-129272508D01*
X205150616Y-129163864D01*
X205480691Y-128987436D01*
X205770003Y-128750003D01*
X206007436Y-128460691D01*
X206183864Y-128130617D01*
X206292508Y-127772465D01*
X206320000Y-127493337D01*
X206320000Y-125506663D01*
X206292508Y-125227535D01*
X206183864Y-124869383D01*
X206093328Y-124700000D01*
X207595162Y-124700000D01*
X207595162Y-128300000D01*
X207614470Y-128496034D01*
X207671651Y-128684535D01*
X207764508Y-128858258D01*
X207889472Y-129010528D01*
X208041742Y-129135492D01*
X208215465Y-129228349D01*
X208403966Y-129285530D01*
X208600000Y-129304838D01*
X210400000Y-129304838D01*
X210596034Y-129285530D01*
X210784535Y-129228349D01*
X210958258Y-129135492D01*
X211110528Y-129010528D01*
X211235492Y-128858258D01*
X211328349Y-128684535D01*
X211385530Y-128496034D01*
X211404838Y-128300000D01*
X211404838Y-124700000D01*
X211385530Y-124503966D01*
X211328349Y-124315465D01*
X211235492Y-124141742D01*
X211110528Y-123989472D01*
X210958258Y-123864508D01*
X210784535Y-123771651D01*
X210596034Y-123714470D01*
X210400000Y-123695162D01*
X208600000Y-123695162D01*
X208403966Y-123714470D01*
X208215465Y-123771651D01*
X208041742Y-123864508D01*
X207889472Y-123989472D01*
X207764508Y-124141742D01*
X207671651Y-124315465D01*
X207614470Y-124503966D01*
X207595162Y-124700000D01*
X206093328Y-124700000D01*
X206007436Y-124539309D01*
X205770003Y-124249997D01*
X205480691Y-124012564D01*
X205150617Y-123836136D01*
X204792465Y-123727492D01*
X204420000Y-123690807D01*
X204047536Y-123727492D01*
X203689384Y-123836136D01*
X203359310Y-124012564D01*
X203069998Y-124249997D01*
X202832565Y-124539309D01*
X202656137Y-124869383D01*
X202547493Y-125227535D01*
X202520000Y-125506663D01*
X201240000Y-125506663D01*
X201212508Y-125227535D01*
X201103864Y-124869383D01*
X200927436Y-124539309D01*
X200840000Y-124432768D01*
X200840000Y-122507707D01*
X200885399Y-122553106D01*
X201212886Y-122771925D01*
X201576770Y-122922651D01*
X201963067Y-122999490D01*
X202356933Y-122999490D01*
X202743230Y-122922651D01*
X203107114Y-122771925D01*
X203434601Y-122553106D01*
X203487707Y-122500000D01*
X206818473Y-122500000D01*
X207065913Y-122747440D01*
X207434377Y-122993640D01*
X207843793Y-123163226D01*
X208278426Y-123249680D01*
X208721574Y-123249680D01*
X209156207Y-123163226D01*
X209565623Y-122993640D01*
X209934087Y-122747440D01*
X210247440Y-122434087D01*
X210493640Y-122065623D01*
X210663226Y-121656207D01*
X210749680Y-121221574D01*
X210749680Y-120778426D01*
X210663226Y-120343793D01*
X210493640Y-119934377D01*
X210247440Y-119565913D01*
X209934087Y-119252560D01*
X209565623Y-119006360D01*
X209156207Y-118836774D01*
X208721574Y-118750320D01*
X208278426Y-118750320D01*
X207843793Y-118836774D01*
X207434377Y-119006360D01*
X207065913Y-119252560D01*
X206818473Y-119500000D01*
X203487707Y-119500000D01*
X203434601Y-119446894D01*
X203107114Y-119228075D01*
X202743230Y-119077349D01*
X202356933Y-119000510D01*
X201963067Y-119000510D01*
X201576770Y-119077349D01*
X201212886Y-119228075D01*
X200885399Y-119446894D01*
X200840000Y-119492293D01*
X200840000Y-119281319D01*
X202857084Y-117264236D01*
X203025041Y-117230827D01*
X203352620Y-117095139D01*
X203647433Y-116898151D01*
X203898151Y-116647433D01*
X204095139Y-116352620D01*
X204230827Y-116025041D01*
X204300000Y-115677284D01*
X204300000Y-115322716D01*
X204230827Y-114974959D01*
X204095139Y-114647380D01*
X203898151Y-114352567D01*
X203647433Y-114101849D01*
X203495005Y-114000000D01*
X204741912Y-114000000D01*
X204836136Y-114310617D01*
X205012564Y-114640691D01*
X205249997Y-114930003D01*
X205539309Y-115167436D01*
X205869383Y-115343864D01*
X206227535Y-115452508D01*
X206506663Y-115480000D01*
X208493337Y-115480000D01*
X208772465Y-115452508D01*
X209130617Y-115343864D01*
X209460691Y-115167436D01*
X209750003Y-114930003D01*
X209987436Y-114640691D01*
X210163864Y-114310617D01*
X210272508Y-113952465D01*
X210309193Y-113580000D01*
X210272508Y-113207535D01*
X210163864Y-112849383D01*
X209987436Y-112519309D01*
X209750003Y-112229997D01*
X209460691Y-111992564D01*
X209130617Y-111816136D01*
X208772465Y-111707492D01*
X208493337Y-111680000D01*
X207721319Y-111680000D01*
X207532768Y-111491449D01*
X207485792Y-111434208D01*
X207257387Y-111246762D01*
X206996802Y-111107476D01*
X206714051Y-111021705D01*
X206493680Y-111000000D01*
X206420000Y-110992743D01*
X206346320Y-111000000D01*
X199573680Y-111000000D01*
X199500000Y-110992743D01*
X199426320Y-111000000D01*
X199205949Y-111021705D01*
X198923198Y-111107476D01*
X198662613Y-111246762D01*
X198434208Y-111434208D01*
X198387240Y-111491439D01*
X195878681Y-114000000D01*
X188495005Y-114000000D01*
X188352620Y-113904861D01*
X188025041Y-113769173D01*
X187677284Y-113700000D01*
X187421320Y-113700000D01*
X188508557Y-112612763D01*
X188565792Y-112565792D01*
X188753238Y-112337387D01*
X188892524Y-112076802D01*
X188978295Y-111794051D01*
X189000000Y-111573680D01*
X189000000Y-111573679D01*
X189007257Y-111500000D01*
X189000000Y-111426320D01*
X189000000Y-109495005D01*
X189095139Y-109352620D01*
X189230827Y-109025041D01*
X189300000Y-108677284D01*
X189300000Y-108322716D01*
X189230827Y-107974959D01*
X189095139Y-107647380D01*
X188898151Y-107352567D01*
X188647433Y-107101849D01*
X188352620Y-106904861D01*
X188025041Y-106769173D01*
X187677284Y-106700000D01*
X187322716Y-106700000D01*
X186974959Y-106769173D01*
X186647380Y-106904861D01*
X186352567Y-107101849D01*
X186101849Y-107352567D01*
X185904861Y-107647380D01*
X185769173Y-107974959D01*
X185700000Y-108322716D01*
X185700000Y-108677284D01*
X185769173Y-109025041D01*
X185904861Y-109352620D01*
X186000001Y-109495006D01*
X186000000Y-110878680D01*
X181491445Y-115387236D01*
X181434209Y-115434208D01*
X181246763Y-115662613D01*
X181176508Y-115794051D01*
X181107477Y-115923198D01*
X181021705Y-116205949D01*
X180992743Y-116500000D01*
X181000001Y-116573690D01*
X181000000Y-120332293D01*
X180946894Y-120385399D01*
X180728075Y-120712886D01*
X180577349Y-121076770D01*
X180500510Y-121463067D01*
X176500000Y-121463067D01*
X176500000Y-116573680D01*
X176507257Y-116500000D01*
X176478295Y-116205949D01*
X176392524Y-115923198D01*
X176253238Y-115662613D01*
X176065792Y-115434208D01*
X176008561Y-115387240D01*
X170532769Y-109911450D01*
X170485792Y-109854208D01*
X170257387Y-109666762D01*
X169996802Y-109527476D01*
X169714051Y-109441705D01*
X169493680Y-109420000D01*
X169420000Y-109412743D01*
X169346320Y-109420000D01*
X168567232Y-109420000D01*
X168460691Y-109332564D01*
X168130617Y-109156136D01*
X167772465Y-109047492D01*
X167493337Y-109020000D01*
X165506663Y-109020000D01*
X165227535Y-109047492D01*
X164869383Y-109156136D01*
X164539309Y-109332564D01*
X164249997Y-109569997D01*
X164012564Y-109859309D01*
X163836136Y-110189383D01*
X163727492Y-110547535D01*
X163690807Y-110920000D01*
X161075000Y-110920000D01*
X161075000Y-100743922D01*
X161400000Y-100743922D01*
X161400000Y-101256078D01*
X161499917Y-101758392D01*
X161695910Y-102231562D01*
X161980448Y-102657403D01*
X162342597Y-103019552D01*
X162768438Y-103304090D01*
X163241608Y-103500083D01*
X163743922Y-103600000D01*
X164256078Y-103600000D01*
X164758392Y-103500083D01*
X165231562Y-103304090D01*
X165657403Y-103019552D01*
X166019552Y-102657403D01*
X166304090Y-102231562D01*
X166500083Y-101758392D01*
X166600000Y-101256078D01*
X166600000Y-100743922D01*
X166500083Y-100241608D01*
X166304090Y-99768438D01*
X166019552Y-99342597D01*
X165657403Y-98980448D01*
X165231562Y-98695910D01*
X164758392Y-98499917D01*
X164256078Y-98400000D01*
X163743922Y-98400000D01*
X163241608Y-98499917D01*
X162768438Y-98695910D01*
X162342597Y-98980448D01*
X161980448Y-99342597D01*
X161695910Y-99768438D01*
X161499917Y-100241608D01*
X161400000Y-100743922D01*
X161075000Y-100743922D01*
X161075000Y-98075000D01*
X173892749Y-98075000D01*
X173852567Y-98101849D01*
G37*
X173852567Y-98101849D02*
X173601849Y-98352567D01*
X173404861Y-98647380D01*
X173269173Y-98974959D01*
X173200000Y-99322716D01*
X173200000Y-99677284D01*
X173269173Y-100025041D01*
X173404861Y-100352620D01*
X173500001Y-100495007D01*
X173500000Y-103426319D01*
X173492743Y-103500000D01*
X173500000Y-103573679D01*
X173521705Y-103794050D01*
X173607476Y-104076801D01*
X173746762Y-104337386D01*
X173934208Y-104565792D01*
X173991450Y-104612769D01*
X180530579Y-111151899D01*
X180500510Y-111303067D01*
X180500510Y-111696933D01*
X180577349Y-112083230D01*
X180728075Y-112447114D01*
X180946894Y-112774601D01*
X181225399Y-113053106D01*
X181552886Y-113271925D01*
X181916770Y-113422651D01*
X182303067Y-113499490D01*
X182696933Y-113499490D01*
X183083230Y-113422651D01*
X183447114Y-113271925D01*
X183774601Y-113053106D01*
X184053106Y-112774601D01*
X184271925Y-112447114D01*
X184422651Y-112083230D01*
X184499490Y-111696933D01*
X184499490Y-111303067D01*
X184422651Y-110916770D01*
X184271925Y-110552886D01*
X184053106Y-110225399D01*
X183774601Y-109946894D01*
X183447114Y-109728075D01*
X183280297Y-109658977D01*
X180424337Y-106803017D01*
X181500000Y-106803017D01*
X181500000Y-107196983D01*
X181576859Y-107583378D01*
X181727623Y-107947355D01*
X181946499Y-108274926D01*
X182225074Y-108553501D01*
X182552645Y-108772377D01*
X182916622Y-108923141D01*
X183303017Y-109000000D01*
X183696983Y-109000000D01*
X184083378Y-108923141D01*
X184447355Y-108772377D01*
X184774926Y-108553501D01*
X185053501Y-108274926D01*
X185272377Y-107947355D01*
X185423141Y-107583378D01*
X185500000Y-107196983D01*
X185500000Y-106803017D01*
X185423141Y-106416622D01*
X185272377Y-106052645D01*
X185053501Y-105725074D01*
X184774926Y-105446499D01*
X184447355Y-105227623D01*
X184083378Y-105076859D01*
X183696983Y-105000000D01*
X183303017Y-105000000D01*
X182916622Y-105076859D01*
X182552645Y-105227623D01*
X182225074Y-105446499D01*
X181946499Y-105725074D01*
X181727623Y-106052645D01*
X181576859Y-106416622D01*
X181500000Y-106803017D01*
X180424337Y-106803017D01*
X176500000Y-102878681D01*
X176500000Y-101000000D01*
X182171573Y-101000000D01*
X182225074Y-101053501D01*
X182552645Y-101272377D01*
X182916622Y-101423141D01*
X183303017Y-101500000D01*
X183696983Y-101500000D01*
X184083378Y-101423141D01*
X184325825Y-101322716D01*
X185700000Y-101322716D01*
X185700000Y-101677284D01*
X185769173Y-102025041D01*
X185904861Y-102352620D01*
X186101849Y-102647433D01*
X186352567Y-102898151D01*
X186647380Y-103095139D01*
X186974959Y-103230827D01*
X187142917Y-103264236D01*
X193387235Y-109508555D01*
X193434208Y-109565792D01*
X193662613Y-109753238D01*
X193923198Y-109892524D01*
X194060613Y-109934208D01*
X194205948Y-109978295D01*
X194500000Y-110007257D01*
X194573680Y-110000000D01*
X201504995Y-110000000D01*
X201647380Y-110095139D01*
X201974959Y-110230827D01*
X202322716Y-110300000D01*
X202677284Y-110300000D01*
X203025041Y-110230827D01*
X203352620Y-110095139D01*
X203647433Y-109898151D01*
X203898151Y-109647433D01*
X204063480Y-109400000D01*
X204494194Y-109400000D01*
X204517363Y-109635241D01*
X204585981Y-109861442D01*
X204697409Y-110069910D01*
X204847366Y-110252634D01*
X205030090Y-110402591D01*
X205238558Y-110514019D01*
X205464759Y-110582637D01*
X205700000Y-110605806D01*
X206900000Y-110600000D01*
X207200000Y-110300000D01*
X207200000Y-108800000D01*
X207800000Y-108800000D01*
X207800000Y-110300000D01*
X208100000Y-110600000D01*
X209300000Y-110605806D01*
X209535241Y-110582637D01*
X209761442Y-110514019D01*
X209969910Y-110402591D01*
X210152634Y-110252634D01*
X210302591Y-110069910D01*
X210414019Y-109861442D01*
X210482637Y-109635241D01*
X210505806Y-109400000D01*
X210500000Y-109100000D01*
X210200000Y-108800000D01*
X207800000Y-108800000D01*
X207200000Y-108800000D01*
X204800000Y-108800000D01*
X204500000Y-109100000D01*
X204494194Y-109400000D01*
X204063480Y-109400000D01*
X204095139Y-109352620D01*
X204230827Y-109025041D01*
X204300000Y-108677284D01*
X204300000Y-108322716D01*
X204230827Y-107974959D01*
X204095139Y-107647380D01*
X204063481Y-107600000D01*
X204494194Y-107600000D01*
X204500000Y-107900000D01*
X204800000Y-108200000D01*
X207200000Y-108200000D01*
X207200000Y-106700000D01*
X207800000Y-106700000D01*
X207800000Y-108200000D01*
X210200000Y-108200000D01*
X210500000Y-107900000D01*
X210505806Y-107600000D01*
X210482637Y-107364759D01*
X210414019Y-107138558D01*
X210302591Y-106930090D01*
X210152634Y-106747366D01*
X209969910Y-106597409D01*
X209761442Y-106485981D01*
X209535241Y-106417363D01*
X209300000Y-106394194D01*
X208100000Y-106400000D01*
X207800000Y-106700000D01*
X207200000Y-106700000D01*
X206900000Y-106400000D01*
X205700000Y-106394194D01*
X205464759Y-106417363D01*
X205238558Y-106485981D01*
X205030090Y-106597409D01*
X204847366Y-106747366D01*
X204697409Y-106930090D01*
X204585981Y-107138558D01*
X204517363Y-107364759D01*
X204494194Y-107600000D01*
X204063481Y-107600000D01*
X203898151Y-107352567D01*
X203647433Y-107101849D01*
X203352620Y-106904861D01*
X203025041Y-106769173D01*
X202677284Y-106700000D01*
X202322716Y-106700000D01*
X201974959Y-106769173D01*
X201647380Y-106904861D01*
X201504995Y-107000000D01*
X195121320Y-107000000D01*
X189444036Y-101322716D01*
X200700000Y-101322716D01*
X200700000Y-101677284D01*
X200769173Y-102025041D01*
X200904861Y-102352620D01*
X201101849Y-102647433D01*
X201352567Y-102898151D01*
X201647380Y-103095139D01*
X201974959Y-103230827D01*
X202322716Y-103300000D01*
X202677284Y-103300000D01*
X203025041Y-103230827D01*
X203352620Y-103095139D01*
X203647433Y-102898151D01*
X203898151Y-102647433D01*
X204095139Y-102352620D01*
X204230827Y-102025041D01*
X204300000Y-101677284D01*
X204300000Y-101322716D01*
X204230827Y-100974959D01*
X204135129Y-100743922D01*
X206400000Y-100743922D01*
X206400000Y-101256078D01*
X206499917Y-101758392D01*
X206695910Y-102231562D01*
X206980448Y-102657403D01*
X207342597Y-103019552D01*
X207768438Y-103304090D01*
X208241608Y-103500083D01*
X208743922Y-103600000D01*
X209256078Y-103600000D01*
X209758392Y-103500083D01*
X210231562Y-103304090D01*
X210657403Y-103019552D01*
X211019552Y-102657403D01*
X211304090Y-102231562D01*
X211500083Y-101758392D01*
X211600000Y-101256078D01*
X211600000Y-100743922D01*
X211500083Y-100241608D01*
X211304090Y-99768438D01*
X211019552Y-99342597D01*
X210657403Y-98980448D01*
X210231562Y-98695910D01*
X209758392Y-98499917D01*
X209256078Y-98400000D01*
X208743922Y-98400000D01*
X208241608Y-98499917D01*
X207768438Y-98695910D01*
X207342597Y-98980448D01*
X206980448Y-99342597D01*
X206695910Y-99768438D01*
X206499917Y-100241608D01*
X206400000Y-100743922D01*
X204135129Y-100743922D01*
X204095139Y-100647380D01*
X203898151Y-100352567D01*
X203647433Y-100101849D01*
X203352620Y-99904861D01*
X203025041Y-99769173D01*
X202677284Y-99700000D01*
X202322716Y-99700000D01*
X201974959Y-99769173D01*
X201647380Y-99904861D01*
X201352567Y-100101849D01*
X201101849Y-100352567D01*
X200904861Y-100647380D01*
X200769173Y-100974959D01*
X200700000Y-101322716D01*
X189444036Y-101322716D01*
X189264236Y-101142917D01*
X189230827Y-100974959D01*
X189095139Y-100647380D01*
X188898151Y-100352567D01*
X188647433Y-100101849D01*
X188352620Y-99904861D01*
X188025041Y-99769173D01*
X187677284Y-99700000D01*
X187322716Y-99700000D01*
X186974959Y-99769173D01*
X186647380Y-99904861D01*
X186352567Y-100101849D01*
X186101849Y-100352567D01*
X185904861Y-100647380D01*
X185769173Y-100974959D01*
X185700000Y-101322716D01*
X184325825Y-101322716D01*
X184447355Y-101272377D01*
X184774926Y-101053501D01*
X185053501Y-100774926D01*
X185272377Y-100447355D01*
X185423141Y-100083378D01*
X185500000Y-99696983D01*
X185500000Y-99303017D01*
X185423141Y-98916622D01*
X185272377Y-98552645D01*
X185053501Y-98225074D01*
X184903427Y-98075000D01*
X211925000Y-98075000D01*
X211925001Y-130925000D01*
X161075000Y-130925000D01*
X161075000Y-116900000D01*
X163494194Y-116900000D01*
X163517363Y-117135241D01*
X163585981Y-117361442D01*
X163697409Y-117569910D01*
X163847366Y-117752634D01*
X164030090Y-117902591D01*
X164238558Y-118014019D01*
X164464759Y-118082637D01*
X164700000Y-118105806D01*
X165900000Y-118100000D01*
X166200000Y-117800000D01*
X166200000Y-116300000D01*
X166800000Y-116300000D01*
X166800000Y-117800000D01*
X167100000Y-118100000D01*
X168300000Y-118105806D01*
X168535241Y-118082637D01*
X168761442Y-118014019D01*
X168969910Y-117902591D01*
X169152634Y-117752634D01*
X169302591Y-117569910D01*
X169414019Y-117361442D01*
X169482637Y-117135241D01*
X169505806Y-116900000D01*
X169500000Y-116600000D01*
X169200000Y-116300000D01*
X166800000Y-116300000D01*
X166200000Y-116300000D01*
X163800000Y-116300000D01*
X163500000Y-116600000D01*
X163494194Y-116900000D01*
X161075000Y-116900000D01*
X161075000Y-115100000D01*
X163494194Y-115100000D01*
X163500000Y-115400000D01*
X163800000Y-115700000D01*
X166200000Y-115700000D01*
X166200000Y-114200000D01*
X166800000Y-114200000D01*
X166800000Y-115700000D01*
X169200000Y-115700000D01*
X169500000Y-115400000D01*
X169505806Y-115100000D01*
X169482637Y-114864759D01*
X169414019Y-114638558D01*
X169302591Y-114430090D01*
X169152634Y-114247366D01*
X168969910Y-114097409D01*
X168761442Y-113985981D01*
X168535241Y-113917363D01*
X168300000Y-113894194D01*
X167100000Y-113900000D01*
X166800000Y-114200000D01*
X166200000Y-114200000D01*
X165900000Y-113900000D01*
X164700000Y-113894194D01*
X164464759Y-113917363D01*
X164238558Y-113985981D01*
X164030090Y-114097409D01*
X163847366Y-114247366D01*
X163697409Y-114430090D01*
X163585981Y-114638558D01*
X163517363Y-114864759D01*
X163494194Y-115100000D01*
X161075000Y-115100000D01*
X161075000Y-110920000D01*
X163690807Y-110920000D01*
X163727492Y-111292465D01*
X163836136Y-111650617D01*
X164012564Y-111980691D01*
X164249997Y-112270003D01*
X164539309Y-112507436D01*
X164869383Y-112683864D01*
X165227535Y-112792508D01*
X165506663Y-112820000D01*
X167493337Y-112820000D01*
X167772465Y-112792508D01*
X168130617Y-112683864D01*
X168460691Y-112507436D01*
X168567232Y-112420000D01*
X168798681Y-112420000D01*
X173500001Y-117121322D01*
X173500000Y-126004994D01*
X173404861Y-126147380D01*
X173269173Y-126474959D01*
X173200000Y-126822716D01*
X173200000Y-127177284D01*
X173269173Y-127525041D01*
X173404861Y-127852620D01*
X173601849Y-128147433D01*
X173852567Y-128398151D01*
X174147380Y-128595139D01*
X174474959Y-128730827D01*
X174822716Y-128800000D01*
X175177284Y-128800000D01*
X175525041Y-128730827D01*
X175852620Y-128595139D01*
X176147433Y-128398151D01*
X176398151Y-128147433D01*
X176595139Y-127852620D01*
X176730827Y-127525041D01*
X176800000Y-127177284D01*
X176800000Y-126822716D01*
X176730827Y-126474959D01*
X176595139Y-126147380D01*
X176500000Y-126004995D01*
X176500000Y-121463067D01*
X180500510Y-121463067D01*
X180500510Y-121856933D01*
X180577349Y-122243230D01*
X180728075Y-122607114D01*
X180946894Y-122934601D01*
X181225399Y-123213106D01*
X181340001Y-123289680D01*
X181340000Y-124432769D01*
X181252565Y-124539309D01*
X181076137Y-124869383D01*
X180967493Y-125227535D01*
X180940000Y-125506663D01*
X180940000Y-127493336D01*
X180967492Y-127772464D01*
X181076136Y-128130616D01*
X181252564Y-128460691D01*
X181489997Y-128750003D01*
X181779309Y-128987436D01*
X182109383Y-129163864D01*
X182467535Y-129272508D01*
X182840000Y-129309193D01*
X183212464Y-129272508D01*
X183570616Y-129163864D01*
X183900691Y-128987436D01*
X184190003Y-128750003D01*
X184427436Y-128460691D01*
X184603864Y-128130617D01*
X184712508Y-127772465D01*
X184740000Y-127493337D01*
X184740000Y-125506663D01*
X184712508Y-125227535D01*
X184603864Y-124869383D01*
X184427436Y-124539309D01*
X184340000Y-124432768D01*
X184340000Y-122442767D01*
X184422651Y-122243230D01*
X184499490Y-121856933D01*
X184499490Y-121463067D01*
X184422651Y-121076770D01*
X184271925Y-120712886D01*
X184053106Y-120385399D01*
X184000000Y-120332293D01*
X184000000Y-117121319D01*
X185700000Y-115421319D01*
X185700000Y-115677284D01*
X185769173Y-116025041D01*
X185904861Y-116352620D01*
X186101849Y-116647433D01*
X186352567Y-116898151D01*
X186420001Y-116943209D01*
X186420000Y-124432769D01*
X186332565Y-124539309D01*
X186156137Y-124869383D01*
X186047493Y-125227535D01*
X186020000Y-125506663D01*
X186020000Y-127493336D01*
X186047492Y-127772464D01*
X186156136Y-128130616D01*
X186332564Y-128460691D01*
X186569997Y-128750003D01*
X186859309Y-128987436D01*
X187189383Y-129163864D01*
X187547535Y-129272508D01*
X187920000Y-129309193D01*
X188292464Y-129272508D01*
X188650616Y-129163864D01*
X188980691Y-128987436D01*
X189270003Y-128750003D01*
X189507436Y-128460691D01*
X189683864Y-128130617D01*
X189792508Y-127772465D01*
X189820000Y-127493337D01*
X189820000Y-125506663D01*
X189792508Y-125227535D01*
X189683864Y-124869383D01*
X189507436Y-124539309D01*
X189420000Y-124432768D01*
X189420000Y-120803067D01*
X190000510Y-120803067D01*
X190000510Y-121196933D01*
X190077349Y-121583230D01*
X190228075Y-121947114D01*
X190446894Y-122274601D01*
X190725399Y-122553106D01*
X191052886Y-122771925D01*
X191416770Y-122922651D01*
X191500001Y-122939207D01*
X191500001Y-123898764D01*
X191389472Y-123989472D01*
X191264508Y-124141742D01*
X191171651Y-124315465D01*
X191114470Y-124503966D01*
X191095162Y-124700000D01*
X191095162Y-128300000D01*
X191114470Y-128496034D01*
X191171651Y-128684535D01*
X191264508Y-128858258D01*
X191389472Y-129010528D01*
X191541742Y-129135492D01*
X191715465Y-129228349D01*
X191903966Y-129285530D01*
X192100000Y-129304838D01*
X193900000Y-129304838D01*
X194096034Y-129285530D01*
X194284535Y-129228349D01*
X194458258Y-129135492D01*
X194610528Y-129010528D01*
X194735492Y-128858258D01*
X194828349Y-128684535D01*
X194885530Y-128496034D01*
X194904838Y-128300000D01*
X194904838Y-124700000D01*
X194885530Y-124503966D01*
X194828349Y-124315465D01*
X194735492Y-124141742D01*
X194610528Y-123989472D01*
X194500000Y-123898765D01*
X194500000Y-122073680D01*
X194507257Y-122000000D01*
X194478295Y-121705949D01*
X194392524Y-121423197D01*
X194253238Y-121162613D01*
X194188064Y-121083198D01*
X194065792Y-120934208D01*
X194008555Y-120887235D01*
X193999490Y-120878170D01*
X193999490Y-120803067D01*
X193922651Y-120416770D01*
X193771925Y-120052886D01*
X193553106Y-119725399D01*
X193274601Y-119446894D01*
X192947114Y-119228075D01*
X192583230Y-119077349D01*
X192196933Y-119000510D01*
X191803067Y-119000510D01*
X191416770Y-119077349D01*
X191052886Y-119228075D01*
X190725399Y-119446894D01*
X190446894Y-119725399D01*
X190228075Y-120052886D01*
X190077349Y-120416770D01*
X190000510Y-120803067D01*
X189420000Y-120803067D01*
X189420000Y-117000000D01*
X196426320Y-117000000D01*
X196500000Y-117007257D01*
X196573680Y-117000000D01*
X196794051Y-116978295D01*
X197076802Y-116892524D01*
X197337387Y-116753238D01*
X197565792Y-116565792D01*
X197612769Y-116508550D01*
X200121321Y-114000000D01*
X201504995Y-114000000D01*
X201352567Y-114101849D01*
X201101849Y-114352567D01*
X200904861Y-114647380D01*
X200769173Y-114974959D01*
X200735764Y-115142916D01*
X198331445Y-117547236D01*
X198274209Y-117594208D01*
X198086763Y-117822613D01*
X197984454Y-118014019D01*
X197947477Y-118083198D01*
X197861705Y-118365949D01*
X197832743Y-118660000D01*
X197840001Y-118733690D01*
X197840000Y-124432769D01*
X197752565Y-124539309D01*
X197576137Y-124869383D01*
X197467493Y-125227535D01*
X197440000Y-125506663D01*
X197440000Y-127493336D01*
X197467492Y-127772464D01*
X197576136Y-128130616D01*
X197752564Y-128460691D01*
X197989997Y-128750003D01*
X198279309Y-128987436D01*
X198609383Y-129163864D01*
X198967535Y-129272508D01*
X199340000Y-129309193D01*
X199712464Y-129272508D01*
X200070616Y-129163864D01*
X200400691Y-128987436D01*
X200690003Y-128750003D01*
X200927436Y-128460691D01*
X201103864Y-128130617D01*
X201212508Y-127772465D01*
X201240000Y-127493337D01*
X201240000Y-125506663D01*
X202520000Y-125506663D01*
X202520000Y-127493336D01*
X202547492Y-127772464D01*
X202656136Y-128130616D01*
X202832564Y-128460691D01*
X203069997Y-128750003D01*
X203359309Y-128987436D01*
X203689383Y-129163864D01*
X204047535Y-129272508D01*
X204420000Y-129309193D01*
X204792464Y-129272508D01*
X205150616Y-129163864D01*
X205480691Y-128987436D01*
X205770003Y-128750003D01*
X206007436Y-128460691D01*
X206183864Y-128130617D01*
X206292508Y-127772465D01*
X206320000Y-127493337D01*
X206320000Y-125506663D01*
X206292508Y-125227535D01*
X206183864Y-124869383D01*
X206093328Y-124700000D01*
X207595162Y-124700000D01*
X207595162Y-128300000D01*
X207614470Y-128496034D01*
X207671651Y-128684535D01*
X207764508Y-128858258D01*
X207889472Y-129010528D01*
X208041742Y-129135492D01*
X208215465Y-129228349D01*
X208403966Y-129285530D01*
X208600000Y-129304838D01*
X210400000Y-129304838D01*
X210596034Y-129285530D01*
X210784535Y-129228349D01*
X210958258Y-129135492D01*
X211110528Y-129010528D01*
X211235492Y-128858258D01*
X211328349Y-128684535D01*
X211385530Y-128496034D01*
X211404838Y-128300000D01*
X211404838Y-124700000D01*
X211385530Y-124503966D01*
X211328349Y-124315465D01*
X211235492Y-124141742D01*
X211110528Y-123989472D01*
X210958258Y-123864508D01*
X210784535Y-123771651D01*
X210596034Y-123714470D01*
X210400000Y-123695162D01*
X208600000Y-123695162D01*
X208403966Y-123714470D01*
X208215465Y-123771651D01*
X208041742Y-123864508D01*
X207889472Y-123989472D01*
X207764508Y-124141742D01*
X207671651Y-124315465D01*
X207614470Y-124503966D01*
X207595162Y-124700000D01*
X206093328Y-124700000D01*
X206007436Y-124539309D01*
X205770003Y-124249997D01*
X205480691Y-124012564D01*
X205150617Y-123836136D01*
X204792465Y-123727492D01*
X204420000Y-123690807D01*
X204047536Y-123727492D01*
X203689384Y-123836136D01*
X203359310Y-124012564D01*
X203069998Y-124249997D01*
X202832565Y-124539309D01*
X202656137Y-124869383D01*
X202547493Y-125227535D01*
X202520000Y-125506663D01*
X201240000Y-125506663D01*
X201212508Y-125227535D01*
X201103864Y-124869383D01*
X200927436Y-124539309D01*
X200840000Y-124432768D01*
X200840000Y-122507707D01*
X200885399Y-122553106D01*
X201212886Y-122771925D01*
X201576770Y-122922651D01*
X201963067Y-122999490D01*
X202356933Y-122999490D01*
X202743230Y-122922651D01*
X203107114Y-122771925D01*
X203434601Y-122553106D01*
X203487707Y-122500000D01*
X206818473Y-122500000D01*
X207065913Y-122747440D01*
X207434377Y-122993640D01*
X207843793Y-123163226D01*
X208278426Y-123249680D01*
X208721574Y-123249680D01*
X209156207Y-123163226D01*
X209565623Y-122993640D01*
X209934087Y-122747440D01*
X210247440Y-122434087D01*
X210493640Y-122065623D01*
X210663226Y-121656207D01*
X210749680Y-121221574D01*
X210749680Y-120778426D01*
X210663226Y-120343793D01*
X210493640Y-119934377D01*
X210247440Y-119565913D01*
X209934087Y-119252560D01*
X209565623Y-119006360D01*
X209156207Y-118836774D01*
X208721574Y-118750320D01*
X208278426Y-118750320D01*
X207843793Y-118836774D01*
X207434377Y-119006360D01*
X207065913Y-119252560D01*
X206818473Y-119500000D01*
X203487707Y-119500000D01*
X203434601Y-119446894D01*
X203107114Y-119228075D01*
X202743230Y-119077349D01*
X202356933Y-119000510D01*
X201963067Y-119000510D01*
X201576770Y-119077349D01*
X201212886Y-119228075D01*
X200885399Y-119446894D01*
X200840000Y-119492293D01*
X200840000Y-119281319D01*
X202857084Y-117264236D01*
X203025041Y-117230827D01*
X203352620Y-117095139D01*
X203647433Y-116898151D01*
X203898151Y-116647433D01*
X204095139Y-116352620D01*
X204230827Y-116025041D01*
X204300000Y-115677284D01*
X204300000Y-115322716D01*
X204230827Y-114974959D01*
X204095139Y-114647380D01*
X203898151Y-114352567D01*
X203647433Y-114101849D01*
X203495005Y-114000000D01*
X204741912Y-114000000D01*
X204836136Y-114310617D01*
X205012564Y-114640691D01*
X205249997Y-114930003D01*
X205539309Y-115167436D01*
X205869383Y-115343864D01*
X206227535Y-115452508D01*
X206506663Y-115480000D01*
X208493337Y-115480000D01*
X208772465Y-115452508D01*
X209130617Y-115343864D01*
X209460691Y-115167436D01*
X209750003Y-114930003D01*
X209987436Y-114640691D01*
X210163864Y-114310617D01*
X210272508Y-113952465D01*
X210309193Y-113580000D01*
X210272508Y-113207535D01*
X210163864Y-112849383D01*
X209987436Y-112519309D01*
X209750003Y-112229997D01*
X209460691Y-111992564D01*
X209130617Y-111816136D01*
X208772465Y-111707492D01*
X208493337Y-111680000D01*
X207721319Y-111680000D01*
X207532768Y-111491449D01*
X207485792Y-111434208D01*
X207257387Y-111246762D01*
X206996802Y-111107476D01*
X206714051Y-111021705D01*
X206493680Y-111000000D01*
X206420000Y-110992743D01*
X206346320Y-111000000D01*
X199573680Y-111000000D01*
X199500000Y-110992743D01*
X199426320Y-111000000D01*
X199205949Y-111021705D01*
X198923198Y-111107476D01*
X198662613Y-111246762D01*
X198434208Y-111434208D01*
X198387240Y-111491439D01*
X195878681Y-114000000D01*
X188495005Y-114000000D01*
X188352620Y-113904861D01*
X188025041Y-113769173D01*
X187677284Y-113700000D01*
X187421320Y-113700000D01*
X188508557Y-112612763D01*
X188565792Y-112565792D01*
X188753238Y-112337387D01*
X188892524Y-112076802D01*
X188978295Y-111794051D01*
X189000000Y-111573680D01*
X189000000Y-111573679D01*
X189007257Y-111500000D01*
X189000000Y-111426320D01*
X189000000Y-109495005D01*
X189095139Y-109352620D01*
X189230827Y-109025041D01*
X189300000Y-108677284D01*
X189300000Y-108322716D01*
X189230827Y-107974959D01*
X189095139Y-107647380D01*
X188898151Y-107352567D01*
X188647433Y-107101849D01*
X188352620Y-106904861D01*
X188025041Y-106769173D01*
X187677284Y-106700000D01*
X187322716Y-106700000D01*
X186974959Y-106769173D01*
X186647380Y-106904861D01*
X186352567Y-107101849D01*
X186101849Y-107352567D01*
X185904861Y-107647380D01*
X185769173Y-107974959D01*
X185700000Y-108322716D01*
X185700000Y-108677284D01*
X185769173Y-109025041D01*
X185904861Y-109352620D01*
X186000001Y-109495006D01*
X186000000Y-110878680D01*
X181491445Y-115387236D01*
X181434209Y-115434208D01*
X181246763Y-115662613D01*
X181176508Y-115794051D01*
X181107477Y-115923198D01*
X181021705Y-116205949D01*
X180992743Y-116500000D01*
X181000001Y-116573690D01*
X181000000Y-120332293D01*
X180946894Y-120385399D01*
X180728075Y-120712886D01*
X180577349Y-121076770D01*
X180500510Y-121463067D01*
X176500000Y-121463067D01*
X176500000Y-116573680D01*
X176507257Y-116500000D01*
X176478295Y-116205949D01*
X176392524Y-115923198D01*
X176253238Y-115662613D01*
X176065792Y-115434208D01*
X176008561Y-115387240D01*
X170532769Y-109911450D01*
X170485792Y-109854208D01*
X170257387Y-109666762D01*
X169996802Y-109527476D01*
X169714051Y-109441705D01*
X169493680Y-109420000D01*
X169420000Y-109412743D01*
X169346320Y-109420000D01*
X168567232Y-109420000D01*
X168460691Y-109332564D01*
X168130617Y-109156136D01*
X167772465Y-109047492D01*
X167493337Y-109020000D01*
X165506663Y-109020000D01*
X165227535Y-109047492D01*
X164869383Y-109156136D01*
X164539309Y-109332564D01*
X164249997Y-109569997D01*
X164012564Y-109859309D01*
X163836136Y-110189383D01*
X163727492Y-110547535D01*
X163690807Y-110920000D01*
X161075000Y-110920000D01*
X161075000Y-100743922D01*
X161400000Y-100743922D01*
X161400000Y-101256078D01*
X161499917Y-101758392D01*
X161695910Y-102231562D01*
X161980448Y-102657403D01*
X162342597Y-103019552D01*
X162768438Y-103304090D01*
X163241608Y-103500083D01*
X163743922Y-103600000D01*
X164256078Y-103600000D01*
X164758392Y-103500083D01*
X165231562Y-103304090D01*
X165657403Y-103019552D01*
X166019552Y-102657403D01*
X166304090Y-102231562D01*
X166500083Y-101758392D01*
X166600000Y-101256078D01*
X166600000Y-100743922D01*
X166500083Y-100241608D01*
X166304090Y-99768438D01*
X166019552Y-99342597D01*
X165657403Y-98980448D01*
X165231562Y-98695910D01*
X164758392Y-98499917D01*
X164256078Y-98400000D01*
X163743922Y-98400000D01*
X163241608Y-98499917D01*
X162768438Y-98695910D01*
X162342597Y-98980448D01*
X161980448Y-99342597D01*
X161695910Y-99768438D01*
X161499917Y-100241608D01*
X161400000Y-100743922D01*
X161075000Y-100743922D01*
X161075000Y-98075000D01*
X173892749Y-98075000D01*
X173852567Y-98101849D01*
M02*
