%TF.GenerationSoftware,KiCad,Pcbnew,(5.1.5-0-10_14)*%
%TF.CreationDate,2020-09-13T21:17:04+01:00*%
%TF.ProjectId,PhasePCB,50686173-6550-4434-922e-6b696361645f,rev?*%
%TF.SameCoordinates,Original*%
%TF.FileFunction,Copper,L2,Bot*%
%TF.FilePolarity,Positive*%
%FSLAX46Y46*%
G04 Gerber Fmt 4.6, Leading zero omitted, Abs format (unit mm)*
G04 Created by KiCad (PCBNEW (5.1.5-0-10_14)) date 2020-09-13 21:17:04*
%MOMM*%
%LPD*%
G04 APERTURE LIST*
%ADD10C,0.150000*%
%ADD11C,1.600000*%
%ADD12O,1.600000X1.600000*%
%ADD13R,2.400000X2.400000*%
%ADD14C,2.400000*%
%ADD15C,6.400000*%
%ADD16C,2.800000*%
%ADD17R,3.600000X1.800000*%
%ADD18O,3.600000X1.800000*%
%ADD19R,1.800000X3.600000*%
%ADD20O,1.800000X3.600000*%
%ADD21C,3.000000*%
%ADD22O,2.400000X2.400000*%
%ADD23R,2.000000X2.000000*%
%ADD24C,2.000000*%
%ADD25C,2.500000*%
%ADD26C,1.000000*%
%ADD27C,2.000000*%
%ADD28C,0.800000*%
G04 APERTURE END LIST*
D10*
X232500000Y-57500000D02*
X172500000Y-57500000D01*
X232500000Y-152500000D02*
X232500000Y-57500000D01*
X172500000Y-152500000D02*
X232500000Y-152500000D01*
X172500000Y-57500000D02*
X172500000Y-152500000D01*
D11*
X200500000Y-85500000D03*
D12*
X200500000Y-65500000D03*
D13*
X182500000Y-80500000D03*
D14*
X182500000Y-88000000D03*
D11*
X189500000Y-137500000D03*
D12*
X189500000Y-117500000D03*
D11*
X215500000Y-137500000D03*
D12*
X215500000Y-117500000D03*
D15*
X227500000Y-62500000D03*
D11*
X208000000Y-127000000D03*
D12*
X208000000Y-137160000D03*
D11*
X197000000Y-137000000D03*
D12*
X197000000Y-126840000D03*
D16*
X178500000Y-115000000D03*
X179500000Y-96000000D03*
X178500000Y-138000000D03*
D17*
X226500000Y-103500000D03*
D18*
X226500000Y-108580000D03*
D17*
X178500000Y-129000000D03*
D18*
X178500000Y-123920000D03*
D17*
X178500000Y-108500000D03*
D18*
X178500000Y-103420000D03*
D19*
X187000000Y-63500000D03*
D20*
X192080000Y-63500000D03*
D17*
X226500000Y-87500000D03*
D18*
X226500000Y-92580000D03*
D17*
X226500000Y-72000000D03*
D18*
X226500000Y-77080000D03*
D11*
X208500000Y-88500000D03*
D12*
X198340000Y-88500000D03*
D11*
X217000000Y-111500000D03*
D12*
X217000000Y-101340000D03*
D11*
X208000000Y-91500000D03*
D12*
X218160000Y-91500000D03*
D11*
X210500000Y-80500000D03*
D12*
X210500000Y-70340000D03*
D11*
X218500000Y-87500000D03*
D12*
X218500000Y-60000000D03*
D21*
X208989435Y-113931484D03*
X202500041Y-116040367D03*
X196010602Y-113931820D03*
X192000019Y-108411708D03*
X191999956Y-101588329D03*
X196010688Y-96068136D03*
X202499959Y-93959633D03*
X208989398Y-96068180D03*
X212999981Y-101588292D03*
D14*
X194500000Y-77000000D03*
D22*
X194500000Y-92240000D03*
D14*
X202500000Y-120000000D03*
D22*
X202500000Y-135240000D03*
D14*
X221000000Y-97000000D03*
D22*
X221000000Y-112240000D03*
D14*
X194500000Y-72000000D03*
D22*
X179260000Y-72000000D03*
D23*
X210500000Y-63500000D03*
D24*
X205500000Y-63500000D03*
X187000000Y-112000000D03*
X187000000Y-102000000D03*
D19*
X220500000Y-146500000D03*
D20*
X215420000Y-146500000D03*
X210340000Y-146500000D03*
X205260000Y-146500000D03*
X200180000Y-146500000D03*
X195100000Y-146500000D03*
X190020000Y-146500000D03*
X184940000Y-146500000D03*
D23*
X228000000Y-136000000D03*
D24*
X223000000Y-136000000D03*
D25*
X228000000Y-128000000D03*
D11*
X228000000Y-124500000D03*
D12*
X228000000Y-114340000D03*
D11*
X224000000Y-127500000D03*
D12*
X224000000Y-117340000D03*
D26*
X223000000Y-136000000D02*
X223000000Y-144000000D01*
X223000000Y-144000000D02*
X220500000Y-146500000D01*
X224000000Y-127500000D02*
X224000000Y-135000000D01*
X224000000Y-135000000D02*
X223000000Y-136000000D01*
X200180000Y-146500000D02*
X200180000Y-150500000D01*
X200000000Y-150320000D02*
X200000000Y-150500000D01*
X200180000Y-150500000D02*
X200000000Y-150320000D01*
X184940000Y-146500000D02*
X184940000Y-148440000D01*
X216500000Y-150500000D02*
X220500000Y-146500000D01*
X200000000Y-150500000D02*
X216500000Y-150500000D01*
X187000000Y-150500000D02*
X200000000Y-150500000D01*
X184940000Y-148440000D02*
X187000000Y-150500000D01*
X182500000Y-88000000D02*
X182500000Y-144060000D01*
X182500000Y-144060000D02*
X184940000Y-146500000D01*
X182500000Y-88000000D02*
X197840000Y-88000000D01*
X197840000Y-88000000D02*
X198340000Y-88500000D01*
X221000000Y-97000000D02*
X226500000Y-97000000D01*
X230000000Y-112340000D02*
X228000000Y-114340000D01*
X230000000Y-100500000D02*
X230000000Y-112340000D01*
X226500000Y-97000000D02*
X230000000Y-100500000D01*
X194500000Y-77000000D02*
X186000000Y-77000000D01*
X186000000Y-77000000D02*
X182500000Y-80500000D01*
X182500000Y-80500000D02*
X182500000Y-75240000D01*
X182500000Y-75240000D02*
X179260000Y-72000000D01*
D27*
X187000000Y-63500000D02*
X187000000Y-64260000D01*
X187000000Y-64260000D02*
X179260000Y-72000000D01*
D26*
X187000000Y-112000000D02*
X187000000Y-120000000D01*
X208989435Y-120510565D02*
X208989435Y-113931484D01*
X206500000Y-123000000D02*
X208989435Y-120510565D01*
X190000000Y-123000000D02*
X206500000Y-123000000D01*
X187000000Y-120000000D02*
X190000000Y-123000000D01*
D27*
X215500000Y-117500000D02*
X215740000Y-117500000D01*
D26*
X215740000Y-117500000D02*
X221000000Y-112240000D01*
X215500000Y-117500000D02*
X212557951Y-117500000D01*
X212557951Y-117500000D02*
X208989435Y-113931484D01*
D27*
X192000019Y-108411708D02*
X192000019Y-101588392D01*
X192000019Y-101588392D02*
X191999956Y-101588329D01*
D26*
X215420000Y-146500000D02*
X215420000Y-137580000D01*
D27*
X215420000Y-137580000D02*
X215500000Y-137500000D01*
D26*
X189500000Y-137500000D02*
X189500000Y-145980000D01*
X189500000Y-145980000D02*
X190020000Y-146500000D01*
X189500000Y-117500000D02*
X189500000Y-110000000D01*
X187000000Y-107500000D02*
X187000000Y-102000000D01*
X189500000Y-110000000D02*
X187000000Y-107500000D01*
X194500000Y-92240000D02*
X194500000Y-94557448D01*
X194500000Y-94557448D02*
X196010688Y-96068136D01*
X195500000Y-95557448D02*
X196010688Y-96068136D01*
X218500000Y-87500000D02*
X226500000Y-87500000D01*
X208000000Y-91500000D02*
X204959592Y-91500000D01*
X204959592Y-91500000D02*
X202499959Y-93959633D01*
X202499959Y-93959633D02*
X202499959Y-87499959D01*
X202499959Y-87499959D02*
X200500000Y-85500000D01*
D27*
X202499959Y-93959633D02*
X203040367Y-93959633D01*
D26*
X205500000Y-63500000D02*
X205500000Y-85500000D01*
X205500000Y-85500000D02*
X208500000Y-88500000D01*
X205500000Y-63500000D02*
X202500000Y-63500000D01*
X202500000Y-63500000D02*
X200500000Y-65500000D01*
X218500000Y-60000000D02*
X209000000Y-60000000D01*
X209000000Y-60000000D02*
X205500000Y-63500000D01*
X210500000Y-70340000D02*
X210500000Y-63500000D01*
X205260000Y-146500000D02*
X205260000Y-139900000D01*
X205260000Y-139900000D02*
X208000000Y-137160000D01*
X208000000Y-137160000D02*
X204420000Y-137160000D01*
X204420000Y-137160000D02*
X202500000Y-135240000D01*
X196010602Y-113931820D02*
X196010602Y-112489398D01*
X196010602Y-112489398D02*
X199000000Y-109500000D01*
X206557578Y-98500000D02*
X208989398Y-96068180D01*
X201000000Y-98500000D02*
X206557578Y-98500000D01*
X199000000Y-100500000D02*
X201000000Y-98500000D01*
X199000000Y-109500000D02*
X199000000Y-100500000D01*
X217000000Y-111500000D02*
X217000000Y-107500000D01*
X218160000Y-98660000D02*
X218160000Y-91500000D01*
X220000000Y-100500000D02*
X218160000Y-98660000D01*
X220000000Y-104500000D02*
X220000000Y-100500000D01*
X217000000Y-107500000D02*
X220000000Y-104500000D01*
X197000000Y-126840000D02*
X207840000Y-126840000D01*
D27*
X207840000Y-126840000D02*
X208000000Y-127000000D01*
X202500000Y-120000000D02*
X202500000Y-116040408D01*
X202500000Y-116040408D02*
X202500041Y-116040367D01*
D26*
X210500000Y-80500000D02*
X214000000Y-80500000D01*
X222500000Y-72000000D02*
X226500000Y-72000000D01*
X214000000Y-80500000D02*
X222500000Y-72000000D01*
D27*
X192080000Y-63500000D02*
X192080000Y-69580000D01*
X192080000Y-69580000D02*
X194500000Y-72000000D01*
D26*
X228000000Y-136000000D02*
X228000000Y-128000000D01*
X224000000Y-117340000D02*
X224000000Y-120500000D01*
X224000000Y-120500000D02*
X228000000Y-124500000D01*
X228000000Y-124500000D02*
X228000000Y-128000000D01*
D28*
G36*
X207792103Y-58792103D02*
G01*
X207738872Y-58856965D01*
X205295837Y-61300000D01*
X205283319Y-61300000D01*
X204858284Y-61384545D01*
X204457909Y-61550385D01*
X204097582Y-61791148D01*
X204088730Y-61800000D01*
X202583499Y-61800000D01*
X202499999Y-61791776D01*
X202416499Y-61800000D01*
X202416490Y-61800000D01*
X202166742Y-61824598D01*
X201846291Y-61921806D01*
X201708817Y-61995287D01*
X201550960Y-62079663D01*
X201356968Y-62238869D01*
X201356965Y-62238872D01*
X201292103Y-62292103D01*
X201238872Y-62356965D01*
X200044393Y-63551444D01*
X199916622Y-63576859D01*
X199552645Y-63727623D01*
X199225074Y-63946499D01*
X198946499Y-64225074D01*
X198727623Y-64552645D01*
X198576859Y-64916622D01*
X198500000Y-65303017D01*
X198500000Y-65696983D01*
X198576859Y-66083378D01*
X198727623Y-66447355D01*
X198946499Y-66774926D01*
X199225074Y-67053501D01*
X199552645Y-67272377D01*
X199916622Y-67423141D01*
X200303017Y-67500000D01*
X200696983Y-67500000D01*
X201083378Y-67423141D01*
X201447355Y-67272377D01*
X201774926Y-67053501D01*
X202053501Y-66774926D01*
X202272377Y-66447355D01*
X202423141Y-66083378D01*
X202448556Y-65955607D01*
X203204163Y-65200000D01*
X203800000Y-65200000D01*
X203800001Y-85416490D01*
X203791776Y-85500000D01*
X203824599Y-85833258D01*
X203921807Y-86153709D01*
X204079663Y-86449039D01*
X204238868Y-86643031D01*
X204238877Y-86643040D01*
X204292104Y-86707897D01*
X204356961Y-86761124D01*
X206551444Y-88955607D01*
X206576859Y-89083378D01*
X206727623Y-89447355D01*
X206946499Y-89774926D01*
X206960659Y-89789086D01*
X206944325Y-89800000D01*
X205043091Y-89800000D01*
X204959591Y-89791776D01*
X204876091Y-89800000D01*
X204876082Y-89800000D01*
X204626334Y-89824598D01*
X204305883Y-89921806D01*
X204199959Y-89978423D01*
X204199959Y-87583458D01*
X204208183Y-87499958D01*
X204199959Y-87416458D01*
X204199959Y-87416449D01*
X204175361Y-87166701D01*
X204078153Y-86846250D01*
X204004202Y-86707897D01*
X203920296Y-86550919D01*
X203761090Y-86356927D01*
X203761087Y-86356924D01*
X203707856Y-86292062D01*
X203642994Y-86238831D01*
X202448556Y-85044393D01*
X202423141Y-84916622D01*
X202272377Y-84552645D01*
X202053501Y-84225074D01*
X201774926Y-83946499D01*
X201447355Y-83727623D01*
X201083378Y-83576859D01*
X200696983Y-83500000D01*
X200303017Y-83500000D01*
X199916622Y-83576859D01*
X199552645Y-83727623D01*
X199225074Y-83946499D01*
X198946499Y-84225074D01*
X198727623Y-84552645D01*
X198576859Y-84916622D01*
X198500000Y-85303017D01*
X198500000Y-85696983D01*
X198576859Y-86083378D01*
X198727623Y-86447355D01*
X198797413Y-86551803D01*
X198701059Y-86532637D01*
X198493709Y-86421806D01*
X198173258Y-86324598D01*
X197923510Y-86300000D01*
X197923500Y-86300000D01*
X197840000Y-86291776D01*
X197756500Y-86300000D01*
X184194113Y-86300000D01*
X184029911Y-86135798D01*
X183636826Y-85873147D01*
X183200054Y-85692230D01*
X182736379Y-85600000D01*
X182263621Y-85600000D01*
X181799946Y-85692230D01*
X181363174Y-85873147D01*
X180970089Y-86135798D01*
X180635798Y-86470089D01*
X180373147Y-86863174D01*
X180192230Y-87299946D01*
X180100000Y-87763621D01*
X180100000Y-88236379D01*
X180192230Y-88700054D01*
X180373147Y-89136826D01*
X180635798Y-89529911D01*
X180800000Y-89694113D01*
X180800000Y-93741639D01*
X180731562Y-93695910D01*
X180258392Y-93499917D01*
X179756078Y-93400000D01*
X179243922Y-93400000D01*
X178741608Y-93499917D01*
X178268438Y-93695910D01*
X177842597Y-93980448D01*
X177480448Y-94342597D01*
X177195910Y-94768438D01*
X176999917Y-95241608D01*
X176900000Y-95743922D01*
X176900000Y-96256078D01*
X176999917Y-96758392D01*
X177195910Y-97231562D01*
X177480448Y-97657403D01*
X177842597Y-98019552D01*
X178268438Y-98304090D01*
X178741608Y-98500083D01*
X179243922Y-98600000D01*
X179756078Y-98600000D01*
X180258392Y-98500083D01*
X180731562Y-98304090D01*
X180800000Y-98258361D01*
X180800000Y-101852299D01*
X180572343Y-101665465D01*
X180207524Y-101470465D01*
X179811672Y-101350385D01*
X179503167Y-101320000D01*
X177496833Y-101320000D01*
X177188328Y-101350385D01*
X176792476Y-101470465D01*
X176427657Y-101665465D01*
X176107891Y-101927891D01*
X175845465Y-102247657D01*
X175650465Y-102612476D01*
X175530385Y-103008328D01*
X175489839Y-103420000D01*
X175530385Y-103831672D01*
X175650465Y-104227524D01*
X175845465Y-104592343D01*
X176107891Y-104912109D01*
X176427657Y-105174535D01*
X176792476Y-105369535D01*
X177188328Y-105489615D01*
X177496833Y-105520000D01*
X179503167Y-105520000D01*
X179811672Y-105489615D01*
X180207524Y-105369535D01*
X180572343Y-105174535D01*
X180800000Y-104987701D01*
X180800000Y-106506591D01*
X180761442Y-106485981D01*
X180535241Y-106417363D01*
X180300000Y-106394194D01*
X176700000Y-106394194D01*
X176464759Y-106417363D01*
X176238558Y-106485981D01*
X176030090Y-106597409D01*
X175847366Y-106747366D01*
X175697409Y-106930090D01*
X175585981Y-107138558D01*
X175517363Y-107364759D01*
X175494194Y-107600000D01*
X175494194Y-109400000D01*
X175517363Y-109635241D01*
X175585981Y-109861442D01*
X175697409Y-110069910D01*
X175847366Y-110252634D01*
X176030090Y-110402591D01*
X176238558Y-110514019D01*
X176464759Y-110582637D01*
X176700000Y-110605806D01*
X180300000Y-110605806D01*
X180535241Y-110582637D01*
X180761442Y-110514019D01*
X180800000Y-110493409D01*
X180800000Y-113762318D01*
X180519552Y-113342597D01*
X180157403Y-112980448D01*
X179731562Y-112695910D01*
X179258392Y-112499917D01*
X178756078Y-112400000D01*
X178243922Y-112400000D01*
X177741608Y-112499917D01*
X177268438Y-112695910D01*
X176842597Y-112980448D01*
X176480448Y-113342597D01*
X176195910Y-113768438D01*
X175999917Y-114241608D01*
X175900000Y-114743922D01*
X175900000Y-115256078D01*
X175999917Y-115758392D01*
X176195910Y-116231562D01*
X176480448Y-116657403D01*
X176842597Y-117019552D01*
X177268438Y-117304090D01*
X177741608Y-117500083D01*
X178243922Y-117600000D01*
X178756078Y-117600000D01*
X179258392Y-117500083D01*
X179731562Y-117304090D01*
X180157403Y-117019552D01*
X180519552Y-116657403D01*
X180800001Y-116237682D01*
X180800001Y-122352299D01*
X180572343Y-122165465D01*
X180207524Y-121970465D01*
X179811672Y-121850385D01*
X179503167Y-121820000D01*
X177496833Y-121820000D01*
X177188328Y-121850385D01*
X176792476Y-121970465D01*
X176427657Y-122165465D01*
X176107891Y-122427891D01*
X175845465Y-122747657D01*
X175650465Y-123112476D01*
X175530385Y-123508328D01*
X175489839Y-123920000D01*
X175530385Y-124331672D01*
X175650465Y-124727524D01*
X175845465Y-125092343D01*
X176107891Y-125412109D01*
X176427657Y-125674535D01*
X176792476Y-125869535D01*
X177188328Y-125989615D01*
X177496833Y-126020000D01*
X179503167Y-126020000D01*
X179811672Y-125989615D01*
X180207524Y-125869535D01*
X180572343Y-125674535D01*
X180800001Y-125487701D01*
X180800001Y-127006591D01*
X180761442Y-126985981D01*
X180535241Y-126917363D01*
X180300000Y-126894194D01*
X176700000Y-126894194D01*
X176464759Y-126917363D01*
X176238558Y-126985981D01*
X176030090Y-127097409D01*
X175847366Y-127247366D01*
X175697409Y-127430090D01*
X175585981Y-127638558D01*
X175517363Y-127864759D01*
X175494194Y-128100000D01*
X175494194Y-129900000D01*
X175517363Y-130135241D01*
X175585981Y-130361442D01*
X175697409Y-130569910D01*
X175847366Y-130752634D01*
X176030090Y-130902591D01*
X176238558Y-131014019D01*
X176464759Y-131082637D01*
X176700000Y-131105806D01*
X180300000Y-131105806D01*
X180535241Y-131082637D01*
X180761442Y-131014019D01*
X180800001Y-130993409D01*
X180800001Y-136421888D01*
X180311267Y-136330155D01*
X178641421Y-138000000D01*
X180311267Y-139669845D01*
X180800001Y-139578112D01*
X180800001Y-143976490D01*
X180791776Y-144060000D01*
X180824599Y-144393258D01*
X180921807Y-144713709D01*
X181079663Y-145009039D01*
X181238868Y-145203031D01*
X181238877Y-145203040D01*
X181292104Y-145267897D01*
X181356961Y-145321124D01*
X182840000Y-146804163D01*
X182840000Y-147503166D01*
X182870385Y-147811671D01*
X182990465Y-148207523D01*
X183185465Y-148572343D01*
X183252904Y-148654518D01*
X183264599Y-148773258D01*
X183361807Y-149093709D01*
X183519663Y-149389039D01*
X183678868Y-149583031D01*
X183678877Y-149583040D01*
X183732104Y-149647897D01*
X183796961Y-149701124D01*
X185320837Y-151225000D01*
X173775000Y-151225000D01*
X173775000Y-147224224D01*
X174700000Y-147224224D01*
X174700000Y-147775776D01*
X174807602Y-148316730D01*
X175018672Y-148826297D01*
X175325098Y-149284896D01*
X175715104Y-149674902D01*
X176173703Y-149981328D01*
X176683270Y-150192398D01*
X177224224Y-150300000D01*
X177775776Y-150300000D01*
X178316730Y-150192398D01*
X178826297Y-149981328D01*
X179284896Y-149674902D01*
X179674902Y-149284896D01*
X179981328Y-148826297D01*
X180192398Y-148316730D01*
X180300000Y-147775776D01*
X180300000Y-147224224D01*
X180192398Y-146683270D01*
X179981328Y-146173703D01*
X179674902Y-145715104D01*
X179284896Y-145325098D01*
X178826297Y-145018672D01*
X178316730Y-144807602D01*
X177775776Y-144700000D01*
X177224224Y-144700000D01*
X176683270Y-144807602D01*
X176173703Y-145018672D01*
X175715104Y-145325098D01*
X175325098Y-145715104D01*
X175018672Y-146173703D01*
X174807602Y-146683270D01*
X174700000Y-147224224D01*
X173775000Y-147224224D01*
X173775000Y-139811267D01*
X176830155Y-139811267D01*
X176928185Y-140333549D01*
X177413640Y-140595356D01*
X177940843Y-140757425D01*
X178489533Y-140813528D01*
X179038627Y-140761509D01*
X179567021Y-140603366D01*
X180054410Y-140345177D01*
X180071815Y-140333549D01*
X180169845Y-139811267D01*
X178500000Y-138141421D01*
X176830155Y-139811267D01*
X173775000Y-139811267D01*
X173775000Y-137989533D01*
X175686472Y-137989533D01*
X175738491Y-138538627D01*
X175896634Y-139067021D01*
X176154823Y-139554410D01*
X176166451Y-139571815D01*
X176688733Y-139669845D01*
X178358579Y-138000000D01*
X176688733Y-136330155D01*
X176166451Y-136428185D01*
X175904644Y-136913640D01*
X175742575Y-137440843D01*
X175686472Y-137989533D01*
X173775000Y-137989533D01*
X173775000Y-136188733D01*
X176830155Y-136188733D01*
X178500000Y-137858579D01*
X180169845Y-136188733D01*
X180071815Y-135666451D01*
X179586360Y-135404644D01*
X179059157Y-135242575D01*
X178510467Y-135186472D01*
X177961373Y-135238491D01*
X177432979Y-135396634D01*
X176945590Y-135654823D01*
X176928185Y-135666451D01*
X176830155Y-136188733D01*
X173775000Y-136188733D01*
X173775000Y-71763621D01*
X176860000Y-71763621D01*
X176860000Y-72236379D01*
X176952230Y-72700054D01*
X177133147Y-73136826D01*
X177395798Y-73529911D01*
X177730089Y-73864202D01*
X178123174Y-74126853D01*
X178559946Y-74307770D01*
X179023621Y-74400000D01*
X179255837Y-74400000D01*
X180800001Y-75944164D01*
X180800000Y-78206590D01*
X180630090Y-78297409D01*
X180447366Y-78447366D01*
X180297409Y-78630090D01*
X180185981Y-78838558D01*
X180117363Y-79064759D01*
X180094194Y-79300000D01*
X180094194Y-81700000D01*
X180117363Y-81935241D01*
X180185981Y-82161442D01*
X180297409Y-82369910D01*
X180447366Y-82552634D01*
X180630090Y-82702591D01*
X180838558Y-82814019D01*
X181064759Y-82882637D01*
X181300000Y-82905806D01*
X183700000Y-82905806D01*
X183935241Y-82882637D01*
X184161442Y-82814019D01*
X184369910Y-82702591D01*
X184552634Y-82552634D01*
X184702591Y-82369910D01*
X184814019Y-82161442D01*
X184882637Y-81935241D01*
X184905806Y-81700000D01*
X184905806Y-80498357D01*
X186704163Y-78700000D01*
X192805887Y-78700000D01*
X192970089Y-78864202D01*
X193363174Y-79126853D01*
X193799946Y-79307770D01*
X194263621Y-79400000D01*
X194736379Y-79400000D01*
X195200054Y-79307770D01*
X195636826Y-79126853D01*
X196029911Y-78864202D01*
X196364202Y-78529911D01*
X196626853Y-78136826D01*
X196807770Y-77700054D01*
X196900000Y-77236379D01*
X196900000Y-76763621D01*
X196807770Y-76299946D01*
X196626853Y-75863174D01*
X196364202Y-75470089D01*
X196029911Y-75135798D01*
X195636826Y-74873147D01*
X195200054Y-74692230D01*
X194736379Y-74600000D01*
X194263621Y-74600000D01*
X193799946Y-74692230D01*
X193363174Y-74873147D01*
X192970089Y-75135798D01*
X192805887Y-75300000D01*
X186083491Y-75300000D01*
X185999999Y-75291777D01*
X185916507Y-75300000D01*
X185916490Y-75300000D01*
X185666742Y-75324598D01*
X185346291Y-75421806D01*
X185050961Y-75579663D01*
X185050959Y-75579664D01*
X185050960Y-75579664D01*
X184856968Y-75738869D01*
X184856965Y-75738872D01*
X184792103Y-75792103D01*
X184738872Y-75856965D01*
X184200000Y-76395837D01*
X184200000Y-75323500D01*
X184208224Y-75240000D01*
X184200000Y-75156500D01*
X184200000Y-75156490D01*
X184175402Y-74906742D01*
X184078194Y-74586291D01*
X184004713Y-74448817D01*
X183920337Y-74290960D01*
X183761132Y-74096969D01*
X183761128Y-74096965D01*
X183707897Y-74032103D01*
X183643035Y-73978872D01*
X182017716Y-72353553D01*
X184791269Y-69580000D01*
X189869357Y-69580000D01*
X189911834Y-70011275D01*
X190037631Y-70425976D01*
X190241917Y-70808168D01*
X190394187Y-70993708D01*
X190516840Y-71143161D01*
X190600784Y-71212052D01*
X192265377Y-72876646D01*
X192373147Y-73136826D01*
X192635798Y-73529911D01*
X192970089Y-73864202D01*
X193363174Y-74126853D01*
X193799946Y-74307770D01*
X194263621Y-74400000D01*
X194736379Y-74400000D01*
X195200054Y-74307770D01*
X195636826Y-74126853D01*
X196029911Y-73864202D01*
X196364202Y-73529911D01*
X196626853Y-73136826D01*
X196807770Y-72700054D01*
X196900000Y-72236379D01*
X196900000Y-71763621D01*
X196807770Y-71299946D01*
X196626853Y-70863174D01*
X196364202Y-70470089D01*
X196029911Y-70135798D01*
X195636826Y-69873147D01*
X195376646Y-69765377D01*
X194280000Y-68668731D01*
X194280000Y-63391930D01*
X194248167Y-63068725D01*
X194180000Y-62844008D01*
X194180000Y-62496833D01*
X194149615Y-62188328D01*
X194029535Y-61792476D01*
X193834535Y-61427657D01*
X193572109Y-61107891D01*
X193252343Y-60845465D01*
X192887523Y-60650465D01*
X192491671Y-60530385D01*
X192080000Y-60489839D01*
X191668328Y-60530385D01*
X191272476Y-60650465D01*
X190907657Y-60845465D01*
X190587891Y-61107891D01*
X190325465Y-61427657D01*
X190130465Y-61792477D01*
X190010385Y-62188329D01*
X189980000Y-62496834D01*
X189980000Y-62844009D01*
X189911833Y-63068726D01*
X189880000Y-63391931D01*
X189880001Y-69471930D01*
X189869357Y-69580000D01*
X184791269Y-69580000D01*
X187865463Y-66505806D01*
X187900000Y-66505806D01*
X188135241Y-66482637D01*
X188361442Y-66414019D01*
X188569910Y-66302591D01*
X188752634Y-66152634D01*
X188902591Y-65969910D01*
X189014019Y-65761442D01*
X189082637Y-65535241D01*
X189105806Y-65300000D01*
X189105806Y-64896851D01*
X189146976Y-64761132D01*
X189168167Y-64691274D01*
X189200000Y-64368069D01*
X189200000Y-64368060D01*
X189210643Y-64260000D01*
X189200000Y-64151940D01*
X189200000Y-63391930D01*
X189168167Y-63068725D01*
X189105806Y-62863148D01*
X189105806Y-61700000D01*
X189082637Y-61464759D01*
X189014019Y-61238558D01*
X188902591Y-61030090D01*
X188752634Y-60847366D01*
X188569910Y-60697409D01*
X188361442Y-60585981D01*
X188135241Y-60517363D01*
X187900000Y-60494194D01*
X186100000Y-60494194D01*
X185864759Y-60517363D01*
X185638558Y-60585981D01*
X185430090Y-60697409D01*
X185247366Y-60847366D01*
X185097409Y-61030090D01*
X184985981Y-61238558D01*
X184917363Y-61464759D01*
X184894194Y-61700000D01*
X184894194Y-62863149D01*
X184831833Y-63068726D01*
X184804720Y-63344011D01*
X178383356Y-69765376D01*
X178123174Y-69873147D01*
X177730089Y-70135798D01*
X177395798Y-70470089D01*
X177133147Y-70863174D01*
X176952230Y-71299946D01*
X176860000Y-71763621D01*
X173775000Y-71763621D01*
X173775000Y-62224224D01*
X174700000Y-62224224D01*
X174700000Y-62775776D01*
X174807602Y-63316730D01*
X175018672Y-63826297D01*
X175325098Y-64284896D01*
X175715104Y-64674902D01*
X176173703Y-64981328D01*
X176683270Y-65192398D01*
X177224224Y-65300000D01*
X177775776Y-65300000D01*
X178316730Y-65192398D01*
X178826297Y-64981328D01*
X179284896Y-64674902D01*
X179674902Y-64284896D01*
X179981328Y-63826297D01*
X180192398Y-63316730D01*
X180300000Y-62775776D01*
X180300000Y-62224224D01*
X180192398Y-61683270D01*
X179981328Y-61173703D01*
X179674902Y-60715104D01*
X179284896Y-60325098D01*
X178826297Y-60018672D01*
X178316730Y-59807602D01*
X177775776Y-59700000D01*
X177224224Y-59700000D01*
X176683270Y-59807602D01*
X176173703Y-60018672D01*
X175715104Y-60325098D01*
X175325098Y-60715104D01*
X175018672Y-61173703D01*
X174807602Y-61683270D01*
X174700000Y-62224224D01*
X173775000Y-62224224D01*
X173775000Y-58775000D01*
X207812943Y-58775000D01*
X207792103Y-58792103D01*
G37*
X207792103Y-58792103D02*
X207738872Y-58856965D01*
X205295837Y-61300000D01*
X205283319Y-61300000D01*
X204858284Y-61384545D01*
X204457909Y-61550385D01*
X204097582Y-61791148D01*
X204088730Y-61800000D01*
X202583499Y-61800000D01*
X202499999Y-61791776D01*
X202416499Y-61800000D01*
X202416490Y-61800000D01*
X202166742Y-61824598D01*
X201846291Y-61921806D01*
X201708817Y-61995287D01*
X201550960Y-62079663D01*
X201356968Y-62238869D01*
X201356965Y-62238872D01*
X201292103Y-62292103D01*
X201238872Y-62356965D01*
X200044393Y-63551444D01*
X199916622Y-63576859D01*
X199552645Y-63727623D01*
X199225074Y-63946499D01*
X198946499Y-64225074D01*
X198727623Y-64552645D01*
X198576859Y-64916622D01*
X198500000Y-65303017D01*
X198500000Y-65696983D01*
X198576859Y-66083378D01*
X198727623Y-66447355D01*
X198946499Y-66774926D01*
X199225074Y-67053501D01*
X199552645Y-67272377D01*
X199916622Y-67423141D01*
X200303017Y-67500000D01*
X200696983Y-67500000D01*
X201083378Y-67423141D01*
X201447355Y-67272377D01*
X201774926Y-67053501D01*
X202053501Y-66774926D01*
X202272377Y-66447355D01*
X202423141Y-66083378D01*
X202448556Y-65955607D01*
X203204163Y-65200000D01*
X203800000Y-65200000D01*
X203800001Y-85416490D01*
X203791776Y-85500000D01*
X203824599Y-85833258D01*
X203921807Y-86153709D01*
X204079663Y-86449039D01*
X204238868Y-86643031D01*
X204238877Y-86643040D01*
X204292104Y-86707897D01*
X204356961Y-86761124D01*
X206551444Y-88955607D01*
X206576859Y-89083378D01*
X206727623Y-89447355D01*
X206946499Y-89774926D01*
X206960659Y-89789086D01*
X206944325Y-89800000D01*
X205043091Y-89800000D01*
X204959591Y-89791776D01*
X204876091Y-89800000D01*
X204876082Y-89800000D01*
X204626334Y-89824598D01*
X204305883Y-89921806D01*
X204199959Y-89978423D01*
X204199959Y-87583458D01*
X204208183Y-87499958D01*
X204199959Y-87416458D01*
X204199959Y-87416449D01*
X204175361Y-87166701D01*
X204078153Y-86846250D01*
X204004202Y-86707897D01*
X203920296Y-86550919D01*
X203761090Y-86356927D01*
X203761087Y-86356924D01*
X203707856Y-86292062D01*
X203642994Y-86238831D01*
X202448556Y-85044393D01*
X202423141Y-84916622D01*
X202272377Y-84552645D01*
X202053501Y-84225074D01*
X201774926Y-83946499D01*
X201447355Y-83727623D01*
X201083378Y-83576859D01*
X200696983Y-83500000D01*
X200303017Y-83500000D01*
X199916622Y-83576859D01*
X199552645Y-83727623D01*
X199225074Y-83946499D01*
X198946499Y-84225074D01*
X198727623Y-84552645D01*
X198576859Y-84916622D01*
X198500000Y-85303017D01*
X198500000Y-85696983D01*
X198576859Y-86083378D01*
X198727623Y-86447355D01*
X198797413Y-86551803D01*
X198701059Y-86532637D01*
X198493709Y-86421806D01*
X198173258Y-86324598D01*
X197923510Y-86300000D01*
X197923500Y-86300000D01*
X197840000Y-86291776D01*
X197756500Y-86300000D01*
X184194113Y-86300000D01*
X184029911Y-86135798D01*
X183636826Y-85873147D01*
X183200054Y-85692230D01*
X182736379Y-85600000D01*
X182263621Y-85600000D01*
X181799946Y-85692230D01*
X181363174Y-85873147D01*
X180970089Y-86135798D01*
X180635798Y-86470089D01*
X180373147Y-86863174D01*
X180192230Y-87299946D01*
X180100000Y-87763621D01*
X180100000Y-88236379D01*
X180192230Y-88700054D01*
X180373147Y-89136826D01*
X180635798Y-89529911D01*
X180800000Y-89694113D01*
X180800000Y-93741639D01*
X180731562Y-93695910D01*
X180258392Y-93499917D01*
X179756078Y-93400000D01*
X179243922Y-93400000D01*
X178741608Y-93499917D01*
X178268438Y-93695910D01*
X177842597Y-93980448D01*
X177480448Y-94342597D01*
X177195910Y-94768438D01*
X176999917Y-95241608D01*
X176900000Y-95743922D01*
X176900000Y-96256078D01*
X176999917Y-96758392D01*
X177195910Y-97231562D01*
X177480448Y-97657403D01*
X177842597Y-98019552D01*
X178268438Y-98304090D01*
X178741608Y-98500083D01*
X179243922Y-98600000D01*
X179756078Y-98600000D01*
X180258392Y-98500083D01*
X180731562Y-98304090D01*
X180800000Y-98258361D01*
X180800000Y-101852299D01*
X180572343Y-101665465D01*
X180207524Y-101470465D01*
X179811672Y-101350385D01*
X179503167Y-101320000D01*
X177496833Y-101320000D01*
X177188328Y-101350385D01*
X176792476Y-101470465D01*
X176427657Y-101665465D01*
X176107891Y-101927891D01*
X175845465Y-102247657D01*
X175650465Y-102612476D01*
X175530385Y-103008328D01*
X175489839Y-103420000D01*
X175530385Y-103831672D01*
X175650465Y-104227524D01*
X175845465Y-104592343D01*
X176107891Y-104912109D01*
X176427657Y-105174535D01*
X176792476Y-105369535D01*
X177188328Y-105489615D01*
X177496833Y-105520000D01*
X179503167Y-105520000D01*
X179811672Y-105489615D01*
X180207524Y-105369535D01*
X180572343Y-105174535D01*
X180800000Y-104987701D01*
X180800000Y-106506591D01*
X180761442Y-106485981D01*
X180535241Y-106417363D01*
X180300000Y-106394194D01*
X176700000Y-106394194D01*
X176464759Y-106417363D01*
X176238558Y-106485981D01*
X176030090Y-106597409D01*
X175847366Y-106747366D01*
X175697409Y-106930090D01*
X175585981Y-107138558D01*
X175517363Y-107364759D01*
X175494194Y-107600000D01*
X175494194Y-109400000D01*
X175517363Y-109635241D01*
X175585981Y-109861442D01*
X175697409Y-110069910D01*
X175847366Y-110252634D01*
X176030090Y-110402591D01*
X176238558Y-110514019D01*
X176464759Y-110582637D01*
X176700000Y-110605806D01*
X180300000Y-110605806D01*
X180535241Y-110582637D01*
X180761442Y-110514019D01*
X180800000Y-110493409D01*
X180800000Y-113762318D01*
X180519552Y-113342597D01*
X180157403Y-112980448D01*
X179731562Y-112695910D01*
X179258392Y-112499917D01*
X178756078Y-112400000D01*
X178243922Y-112400000D01*
X177741608Y-112499917D01*
X177268438Y-112695910D01*
X176842597Y-112980448D01*
X176480448Y-113342597D01*
X176195910Y-113768438D01*
X175999917Y-114241608D01*
X175900000Y-114743922D01*
X175900000Y-115256078D01*
X175999917Y-115758392D01*
X176195910Y-116231562D01*
X176480448Y-116657403D01*
X176842597Y-117019552D01*
X177268438Y-117304090D01*
X177741608Y-117500083D01*
X178243922Y-117600000D01*
X178756078Y-117600000D01*
X179258392Y-117500083D01*
X179731562Y-117304090D01*
X180157403Y-117019552D01*
X180519552Y-116657403D01*
X180800001Y-116237682D01*
X180800001Y-122352299D01*
X180572343Y-122165465D01*
X180207524Y-121970465D01*
X179811672Y-121850385D01*
X179503167Y-121820000D01*
X177496833Y-121820000D01*
X177188328Y-121850385D01*
X176792476Y-121970465D01*
X176427657Y-122165465D01*
X176107891Y-122427891D01*
X175845465Y-122747657D01*
X175650465Y-123112476D01*
X175530385Y-123508328D01*
X175489839Y-123920000D01*
X175530385Y-124331672D01*
X175650465Y-124727524D01*
X175845465Y-125092343D01*
X176107891Y-125412109D01*
X176427657Y-125674535D01*
X176792476Y-125869535D01*
X177188328Y-125989615D01*
X177496833Y-126020000D01*
X179503167Y-126020000D01*
X179811672Y-125989615D01*
X180207524Y-125869535D01*
X180572343Y-125674535D01*
X180800001Y-125487701D01*
X180800001Y-127006591D01*
X180761442Y-126985981D01*
X180535241Y-126917363D01*
X180300000Y-126894194D01*
X176700000Y-126894194D01*
X176464759Y-126917363D01*
X176238558Y-126985981D01*
X176030090Y-127097409D01*
X175847366Y-127247366D01*
X175697409Y-127430090D01*
X175585981Y-127638558D01*
X175517363Y-127864759D01*
X175494194Y-128100000D01*
X175494194Y-129900000D01*
X175517363Y-130135241D01*
X175585981Y-130361442D01*
X175697409Y-130569910D01*
X175847366Y-130752634D01*
X176030090Y-130902591D01*
X176238558Y-131014019D01*
X176464759Y-131082637D01*
X176700000Y-131105806D01*
X180300000Y-131105806D01*
X180535241Y-131082637D01*
X180761442Y-131014019D01*
X180800001Y-130993409D01*
X180800001Y-136421888D01*
X180311267Y-136330155D01*
X178641421Y-138000000D01*
X180311267Y-139669845D01*
X180800001Y-139578112D01*
X180800001Y-143976490D01*
X180791776Y-144060000D01*
X180824599Y-144393258D01*
X180921807Y-144713709D01*
X181079663Y-145009039D01*
X181238868Y-145203031D01*
X181238877Y-145203040D01*
X181292104Y-145267897D01*
X181356961Y-145321124D01*
X182840000Y-146804163D01*
X182840000Y-147503166D01*
X182870385Y-147811671D01*
X182990465Y-148207523D01*
X183185465Y-148572343D01*
X183252904Y-148654518D01*
X183264599Y-148773258D01*
X183361807Y-149093709D01*
X183519663Y-149389039D01*
X183678868Y-149583031D01*
X183678877Y-149583040D01*
X183732104Y-149647897D01*
X183796961Y-149701124D01*
X185320837Y-151225000D01*
X173775000Y-151225000D01*
X173775000Y-147224224D01*
X174700000Y-147224224D01*
X174700000Y-147775776D01*
X174807602Y-148316730D01*
X175018672Y-148826297D01*
X175325098Y-149284896D01*
X175715104Y-149674902D01*
X176173703Y-149981328D01*
X176683270Y-150192398D01*
X177224224Y-150300000D01*
X177775776Y-150300000D01*
X178316730Y-150192398D01*
X178826297Y-149981328D01*
X179284896Y-149674902D01*
X179674902Y-149284896D01*
X179981328Y-148826297D01*
X180192398Y-148316730D01*
X180300000Y-147775776D01*
X180300000Y-147224224D01*
X180192398Y-146683270D01*
X179981328Y-146173703D01*
X179674902Y-145715104D01*
X179284896Y-145325098D01*
X178826297Y-145018672D01*
X178316730Y-144807602D01*
X177775776Y-144700000D01*
X177224224Y-144700000D01*
X176683270Y-144807602D01*
X176173703Y-145018672D01*
X175715104Y-145325098D01*
X175325098Y-145715104D01*
X175018672Y-146173703D01*
X174807602Y-146683270D01*
X174700000Y-147224224D01*
X173775000Y-147224224D01*
X173775000Y-139811267D01*
X176830155Y-139811267D01*
X176928185Y-140333549D01*
X177413640Y-140595356D01*
X177940843Y-140757425D01*
X178489533Y-140813528D01*
X179038627Y-140761509D01*
X179567021Y-140603366D01*
X180054410Y-140345177D01*
X180071815Y-140333549D01*
X180169845Y-139811267D01*
X178500000Y-138141421D01*
X176830155Y-139811267D01*
X173775000Y-139811267D01*
X173775000Y-137989533D01*
X175686472Y-137989533D01*
X175738491Y-138538627D01*
X175896634Y-139067021D01*
X176154823Y-139554410D01*
X176166451Y-139571815D01*
X176688733Y-139669845D01*
X178358579Y-138000000D01*
X176688733Y-136330155D01*
X176166451Y-136428185D01*
X175904644Y-136913640D01*
X175742575Y-137440843D01*
X175686472Y-137989533D01*
X173775000Y-137989533D01*
X173775000Y-136188733D01*
X176830155Y-136188733D01*
X178500000Y-137858579D01*
X180169845Y-136188733D01*
X180071815Y-135666451D01*
X179586360Y-135404644D01*
X179059157Y-135242575D01*
X178510467Y-135186472D01*
X177961373Y-135238491D01*
X177432979Y-135396634D01*
X176945590Y-135654823D01*
X176928185Y-135666451D01*
X176830155Y-136188733D01*
X173775000Y-136188733D01*
X173775000Y-71763621D01*
X176860000Y-71763621D01*
X176860000Y-72236379D01*
X176952230Y-72700054D01*
X177133147Y-73136826D01*
X177395798Y-73529911D01*
X177730089Y-73864202D01*
X178123174Y-74126853D01*
X178559946Y-74307770D01*
X179023621Y-74400000D01*
X179255837Y-74400000D01*
X180800001Y-75944164D01*
X180800000Y-78206590D01*
X180630090Y-78297409D01*
X180447366Y-78447366D01*
X180297409Y-78630090D01*
X180185981Y-78838558D01*
X180117363Y-79064759D01*
X180094194Y-79300000D01*
X180094194Y-81700000D01*
X180117363Y-81935241D01*
X180185981Y-82161442D01*
X180297409Y-82369910D01*
X180447366Y-82552634D01*
X180630090Y-82702591D01*
X180838558Y-82814019D01*
X181064759Y-82882637D01*
X181300000Y-82905806D01*
X183700000Y-82905806D01*
X183935241Y-82882637D01*
X184161442Y-82814019D01*
X184369910Y-82702591D01*
X184552634Y-82552634D01*
X184702591Y-82369910D01*
X184814019Y-82161442D01*
X184882637Y-81935241D01*
X184905806Y-81700000D01*
X184905806Y-80498357D01*
X186704163Y-78700000D01*
X192805887Y-78700000D01*
X192970089Y-78864202D01*
X193363174Y-79126853D01*
X193799946Y-79307770D01*
X194263621Y-79400000D01*
X194736379Y-79400000D01*
X195200054Y-79307770D01*
X195636826Y-79126853D01*
X196029911Y-78864202D01*
X196364202Y-78529911D01*
X196626853Y-78136826D01*
X196807770Y-77700054D01*
X196900000Y-77236379D01*
X196900000Y-76763621D01*
X196807770Y-76299946D01*
X196626853Y-75863174D01*
X196364202Y-75470089D01*
X196029911Y-75135798D01*
X195636826Y-74873147D01*
X195200054Y-74692230D01*
X194736379Y-74600000D01*
X194263621Y-74600000D01*
X193799946Y-74692230D01*
X193363174Y-74873147D01*
X192970089Y-75135798D01*
X192805887Y-75300000D01*
X186083491Y-75300000D01*
X185999999Y-75291777D01*
X185916507Y-75300000D01*
X185916490Y-75300000D01*
X185666742Y-75324598D01*
X185346291Y-75421806D01*
X185050961Y-75579663D01*
X185050959Y-75579664D01*
X185050960Y-75579664D01*
X184856968Y-75738869D01*
X184856965Y-75738872D01*
X184792103Y-75792103D01*
X184738872Y-75856965D01*
X184200000Y-76395837D01*
X184200000Y-75323500D01*
X184208224Y-75240000D01*
X184200000Y-75156500D01*
X184200000Y-75156490D01*
X184175402Y-74906742D01*
X184078194Y-74586291D01*
X184004713Y-74448817D01*
X183920337Y-74290960D01*
X183761132Y-74096969D01*
X183761128Y-74096965D01*
X183707897Y-74032103D01*
X183643035Y-73978872D01*
X182017716Y-72353553D01*
X184791269Y-69580000D01*
X189869357Y-69580000D01*
X189911834Y-70011275D01*
X190037631Y-70425976D01*
X190241917Y-70808168D01*
X190394187Y-70993708D01*
X190516840Y-71143161D01*
X190600784Y-71212052D01*
X192265377Y-72876646D01*
X192373147Y-73136826D01*
X192635798Y-73529911D01*
X192970089Y-73864202D01*
X193363174Y-74126853D01*
X193799946Y-74307770D01*
X194263621Y-74400000D01*
X194736379Y-74400000D01*
X195200054Y-74307770D01*
X195636826Y-74126853D01*
X196029911Y-73864202D01*
X196364202Y-73529911D01*
X196626853Y-73136826D01*
X196807770Y-72700054D01*
X196900000Y-72236379D01*
X196900000Y-71763621D01*
X196807770Y-71299946D01*
X196626853Y-70863174D01*
X196364202Y-70470089D01*
X196029911Y-70135798D01*
X195636826Y-69873147D01*
X195376646Y-69765377D01*
X194280000Y-68668731D01*
X194280000Y-63391930D01*
X194248167Y-63068725D01*
X194180000Y-62844008D01*
X194180000Y-62496833D01*
X194149615Y-62188328D01*
X194029535Y-61792476D01*
X193834535Y-61427657D01*
X193572109Y-61107891D01*
X193252343Y-60845465D01*
X192887523Y-60650465D01*
X192491671Y-60530385D01*
X192080000Y-60489839D01*
X191668328Y-60530385D01*
X191272476Y-60650465D01*
X190907657Y-60845465D01*
X190587891Y-61107891D01*
X190325465Y-61427657D01*
X190130465Y-61792477D01*
X190010385Y-62188329D01*
X189980000Y-62496834D01*
X189980000Y-62844009D01*
X189911833Y-63068726D01*
X189880000Y-63391931D01*
X189880001Y-69471930D01*
X189869357Y-69580000D01*
X184791269Y-69580000D01*
X187865463Y-66505806D01*
X187900000Y-66505806D01*
X188135241Y-66482637D01*
X188361442Y-66414019D01*
X188569910Y-66302591D01*
X188752634Y-66152634D01*
X188902591Y-65969910D01*
X189014019Y-65761442D01*
X189082637Y-65535241D01*
X189105806Y-65300000D01*
X189105806Y-64896851D01*
X189146976Y-64761132D01*
X189168167Y-64691274D01*
X189200000Y-64368069D01*
X189200000Y-64368060D01*
X189210643Y-64260000D01*
X189200000Y-64151940D01*
X189200000Y-63391930D01*
X189168167Y-63068725D01*
X189105806Y-62863148D01*
X189105806Y-61700000D01*
X189082637Y-61464759D01*
X189014019Y-61238558D01*
X188902591Y-61030090D01*
X188752634Y-60847366D01*
X188569910Y-60697409D01*
X188361442Y-60585981D01*
X188135241Y-60517363D01*
X187900000Y-60494194D01*
X186100000Y-60494194D01*
X185864759Y-60517363D01*
X185638558Y-60585981D01*
X185430090Y-60697409D01*
X185247366Y-60847366D01*
X185097409Y-61030090D01*
X184985981Y-61238558D01*
X184917363Y-61464759D01*
X184894194Y-61700000D01*
X184894194Y-62863149D01*
X184831833Y-63068726D01*
X184804720Y-63344011D01*
X178383356Y-69765376D01*
X178123174Y-69873147D01*
X177730089Y-70135798D01*
X177395798Y-70470089D01*
X177133147Y-70863174D01*
X176952230Y-71299946D01*
X176860000Y-71763621D01*
X173775000Y-71763621D01*
X173775000Y-62224224D01*
X174700000Y-62224224D01*
X174700000Y-62775776D01*
X174807602Y-63316730D01*
X175018672Y-63826297D01*
X175325098Y-64284896D01*
X175715104Y-64674902D01*
X176173703Y-64981328D01*
X176683270Y-65192398D01*
X177224224Y-65300000D01*
X177775776Y-65300000D01*
X178316730Y-65192398D01*
X178826297Y-64981328D01*
X179284896Y-64674902D01*
X179674902Y-64284896D01*
X179981328Y-63826297D01*
X180192398Y-63316730D01*
X180300000Y-62775776D01*
X180300000Y-62224224D01*
X180192398Y-61683270D01*
X179981328Y-61173703D01*
X179674902Y-60715104D01*
X179284896Y-60325098D01*
X178826297Y-60018672D01*
X178316730Y-59807602D01*
X177775776Y-59700000D01*
X177224224Y-59700000D01*
X176683270Y-59807602D01*
X176173703Y-60018672D01*
X175715104Y-60325098D01*
X175325098Y-60715104D01*
X175018672Y-61173703D01*
X174807602Y-61683270D01*
X174700000Y-62224224D01*
X173775000Y-62224224D01*
X173775000Y-58775000D01*
X207812943Y-58775000D01*
X207792103Y-58792103D01*
G36*
X224550597Y-59409175D02*
G01*
X227500000Y-62358579D01*
X230449403Y-59409175D01*
X230167531Y-58775000D01*
X231225001Y-58775000D01*
X231225001Y-59832469D01*
X230590825Y-59550597D01*
X227641421Y-62500000D01*
X230590825Y-65449403D01*
X231225001Y-65167531D01*
X231225001Y-99312944D01*
X231207897Y-99292103D01*
X231143036Y-99238873D01*
X227761128Y-95856965D01*
X227707897Y-95792103D01*
X227643035Y-95738872D01*
X227643031Y-95738868D01*
X227449039Y-95579663D01*
X227153709Y-95421806D01*
X226833258Y-95324598D01*
X226583510Y-95300000D01*
X226583500Y-95300000D01*
X226500000Y-95291776D01*
X226416500Y-95300000D01*
X222694113Y-95300000D01*
X222529911Y-95135798D01*
X222136826Y-94873147D01*
X221700054Y-94692230D01*
X221236379Y-94600000D01*
X220763621Y-94600000D01*
X220299946Y-94692230D01*
X219863174Y-94873147D01*
X219860000Y-94875268D01*
X219860000Y-93038228D01*
X223346108Y-93038228D01*
X223436808Y-93367784D01*
X223632062Y-93774665D01*
X223902943Y-94135635D01*
X224239041Y-94436823D01*
X224627440Y-94666655D01*
X225053214Y-94816297D01*
X225500000Y-94880000D01*
X226400000Y-94880000D01*
X226400000Y-92680000D01*
X226600000Y-92680000D01*
X226600000Y-94880000D01*
X227500000Y-94880000D01*
X227946786Y-94816297D01*
X228372560Y-94666655D01*
X228760959Y-94436823D01*
X229097057Y-94135635D01*
X229367938Y-93774665D01*
X229563192Y-93367784D01*
X229653892Y-93038228D01*
X229347434Y-92680000D01*
X226600000Y-92680000D01*
X226400000Y-92680000D01*
X223652566Y-92680000D01*
X223346108Y-93038228D01*
X219860000Y-93038228D01*
X219860000Y-92555675D01*
X219932377Y-92447355D01*
X220067237Y-92121772D01*
X223346108Y-92121772D01*
X223652566Y-92480000D01*
X226400000Y-92480000D01*
X226400000Y-90280000D01*
X226600000Y-90280000D01*
X226600000Y-92480000D01*
X229347434Y-92480000D01*
X229653892Y-92121772D01*
X229563192Y-91792216D01*
X229367938Y-91385335D01*
X229097057Y-91024365D01*
X228760959Y-90723177D01*
X228372560Y-90493345D01*
X227946786Y-90343703D01*
X227500000Y-90280000D01*
X226600000Y-90280000D01*
X226400000Y-90280000D01*
X225500000Y-90280000D01*
X225053214Y-90343703D01*
X224627440Y-90493345D01*
X224239041Y-90723177D01*
X223902943Y-91024365D01*
X223632062Y-91385335D01*
X223436808Y-91792216D01*
X223346108Y-92121772D01*
X220067237Y-92121772D01*
X220083141Y-92083378D01*
X220160000Y-91696983D01*
X220160000Y-91303017D01*
X220083141Y-90916622D01*
X219932377Y-90552645D01*
X219713501Y-90225074D01*
X219434926Y-89946499D01*
X219107355Y-89727623D01*
X218743378Y-89576859D01*
X218356983Y-89500000D01*
X218696983Y-89500000D01*
X219083378Y-89423141D01*
X219447355Y-89272377D01*
X219555675Y-89200000D01*
X223804171Y-89200000D01*
X223847366Y-89252634D01*
X224030090Y-89402591D01*
X224238558Y-89514019D01*
X224464759Y-89582637D01*
X224700000Y-89605806D01*
X228300000Y-89605806D01*
X228535241Y-89582637D01*
X228761442Y-89514019D01*
X228969910Y-89402591D01*
X229152634Y-89252634D01*
X229302591Y-89069910D01*
X229414019Y-88861442D01*
X229482637Y-88635241D01*
X229505806Y-88400000D01*
X229505806Y-86600000D01*
X229482637Y-86364759D01*
X229414019Y-86138558D01*
X229302591Y-85930090D01*
X229152634Y-85747366D01*
X228969910Y-85597409D01*
X228761442Y-85485981D01*
X228535241Y-85417363D01*
X228300000Y-85394194D01*
X224700000Y-85394194D01*
X224464759Y-85417363D01*
X224238558Y-85485981D01*
X224030090Y-85597409D01*
X223847366Y-85747366D01*
X223804171Y-85800000D01*
X219555675Y-85800000D01*
X219447355Y-85727623D01*
X219083378Y-85576859D01*
X218696983Y-85500000D01*
X218303017Y-85500000D01*
X217916622Y-85576859D01*
X217552645Y-85727623D01*
X217225074Y-85946499D01*
X216946499Y-86225074D01*
X216727623Y-86552645D01*
X216576859Y-86916622D01*
X216500000Y-87303017D01*
X216500000Y-87696983D01*
X216576859Y-88083378D01*
X216727623Y-88447355D01*
X216946499Y-88774926D01*
X217225074Y-89053501D01*
X217552645Y-89272377D01*
X217916622Y-89423141D01*
X218303017Y-89500000D01*
X217963017Y-89500000D01*
X217576622Y-89576859D01*
X217212645Y-89727623D01*
X216885074Y-89946499D01*
X216606499Y-90225074D01*
X216387623Y-90552645D01*
X216236859Y-90916622D01*
X216160000Y-91303017D01*
X216160000Y-91696983D01*
X216236859Y-92083378D01*
X216387623Y-92447355D01*
X216460001Y-92555676D01*
X216460000Y-98576500D01*
X216451776Y-98660000D01*
X216460000Y-98743500D01*
X216460000Y-98743509D01*
X216484598Y-98993257D01*
X216581806Y-99313708D01*
X216615768Y-99377246D01*
X216416622Y-99416859D01*
X216052645Y-99567623D01*
X215725074Y-99786499D01*
X215446499Y-100065074D01*
X215337980Y-100227483D01*
X215097208Y-99867142D01*
X214721131Y-99491065D01*
X214278911Y-99195583D01*
X213787542Y-98992052D01*
X213265908Y-98888292D01*
X212734054Y-98888292D01*
X212212420Y-98992052D01*
X211721051Y-99195583D01*
X211278831Y-99491065D01*
X210902754Y-99867142D01*
X210607272Y-100309362D01*
X210403741Y-100800731D01*
X210299981Y-101322365D01*
X210299981Y-101854219D01*
X210403741Y-102375853D01*
X210607272Y-102867222D01*
X210902754Y-103309442D01*
X211278831Y-103685519D01*
X211721051Y-103981001D01*
X212212420Y-104184532D01*
X212734054Y-104288292D01*
X213265908Y-104288292D01*
X213787542Y-104184532D01*
X214278911Y-103981001D01*
X214721131Y-103685519D01*
X215097208Y-103309442D01*
X215392690Y-102867222D01*
X215482346Y-102650773D01*
X215725074Y-102893501D01*
X216052645Y-103112377D01*
X216416622Y-103263141D01*
X216803017Y-103340000D01*
X217196983Y-103340000D01*
X217583378Y-103263141D01*
X217947355Y-103112377D01*
X218274926Y-102893501D01*
X218300000Y-102868427D01*
X218300000Y-103795837D01*
X215856961Y-106238876D01*
X215792104Y-106292103D01*
X215738877Y-106356960D01*
X215738868Y-106356969D01*
X215579663Y-106550961D01*
X215421807Y-106846291D01*
X215324599Y-107166742D01*
X215291776Y-107500000D01*
X215300001Y-107583509D01*
X215300000Y-110444325D01*
X215227623Y-110552645D01*
X215076859Y-110916622D01*
X215000000Y-111303017D01*
X215000000Y-111696983D01*
X215076859Y-112083378D01*
X215227623Y-112447355D01*
X215446499Y-112774926D01*
X215725074Y-113053501D01*
X216052645Y-113272377D01*
X216416622Y-113423141D01*
X216803017Y-113500000D01*
X217196983Y-113500000D01*
X217370315Y-113465522D01*
X215535837Y-115300000D01*
X215391930Y-115300000D01*
X215068725Y-115331833D01*
X214654023Y-115457631D01*
X214271832Y-115661917D01*
X214103578Y-115800000D01*
X213262114Y-115800000D01*
X211684473Y-114222359D01*
X211689435Y-114197411D01*
X211689435Y-113665557D01*
X211585675Y-113143923D01*
X211382144Y-112652554D01*
X211086662Y-112210334D01*
X210710585Y-111834257D01*
X210268365Y-111538775D01*
X209776996Y-111335244D01*
X209255362Y-111231484D01*
X208723508Y-111231484D01*
X208201874Y-111335244D01*
X207710505Y-111538775D01*
X207268285Y-111834257D01*
X206892208Y-112210334D01*
X206596726Y-112652554D01*
X206393195Y-113143923D01*
X206289435Y-113665557D01*
X206289435Y-114197411D01*
X206393195Y-114719045D01*
X206596726Y-115210414D01*
X206892208Y-115652634D01*
X207268285Y-116028711D01*
X207289436Y-116042843D01*
X207289435Y-119806402D01*
X205795837Y-121300000D01*
X204517824Y-121300000D01*
X204626853Y-121136826D01*
X204807770Y-120700054D01*
X204900000Y-120236379D01*
X204900000Y-119763621D01*
X204807770Y-119299946D01*
X204700000Y-119039766D01*
X204700000Y-117607768D01*
X204892750Y-117319297D01*
X205096281Y-116827928D01*
X205200041Y-116306294D01*
X205200041Y-115774440D01*
X205096281Y-115252806D01*
X204892750Y-114761437D01*
X204597268Y-114319217D01*
X204221191Y-113943140D01*
X203778971Y-113647658D01*
X203287602Y-113444127D01*
X202765968Y-113340367D01*
X202234114Y-113340367D01*
X201712480Y-113444127D01*
X201221111Y-113647658D01*
X200778891Y-113943140D01*
X200402814Y-114319217D01*
X200107332Y-114761437D01*
X199903801Y-115252806D01*
X199800041Y-115774440D01*
X199800041Y-116306294D01*
X199903801Y-116827928D01*
X200107332Y-117319297D01*
X200300001Y-117607646D01*
X200300000Y-119039766D01*
X200192230Y-119299946D01*
X200100000Y-119763621D01*
X200100000Y-120236379D01*
X200192230Y-120700054D01*
X200373147Y-121136826D01*
X200482176Y-121300000D01*
X190704163Y-121300000D01*
X188764147Y-119359984D01*
X188916622Y-119423141D01*
X189303017Y-119500000D01*
X189696983Y-119500000D01*
X190083378Y-119423141D01*
X190447355Y-119272377D01*
X190774926Y-119053501D01*
X191053501Y-118774926D01*
X191272377Y-118447355D01*
X191423141Y-118083378D01*
X191500000Y-117696983D01*
X191500000Y-117303017D01*
X191423141Y-116916622D01*
X191272377Y-116552645D01*
X191200000Y-116444325D01*
X191200000Y-111002788D01*
X191212458Y-111007948D01*
X191734092Y-111111708D01*
X192265946Y-111111708D01*
X192787580Y-111007948D01*
X193278949Y-110804417D01*
X193721169Y-110508935D01*
X194097246Y-110132858D01*
X194392728Y-109690638D01*
X194596259Y-109199269D01*
X194700019Y-108677635D01*
X194700019Y-108145781D01*
X194596259Y-107624147D01*
X194392728Y-107132778D01*
X194200019Y-106844369D01*
X194200019Y-103155574D01*
X194392665Y-102867259D01*
X194596196Y-102375890D01*
X194699956Y-101854256D01*
X194699956Y-101322402D01*
X194596196Y-100800768D01*
X194392665Y-100309399D01*
X194097183Y-99867179D01*
X193721106Y-99491102D01*
X193278886Y-99195620D01*
X192787517Y-98992089D01*
X192265883Y-98888329D01*
X191734029Y-98888329D01*
X191212395Y-98992089D01*
X190721026Y-99195620D01*
X190278806Y-99491102D01*
X189902729Y-99867179D01*
X189607247Y-100309399D01*
X189403716Y-100800768D01*
X189299956Y-101322402D01*
X189299956Y-101854256D01*
X189403716Y-102375890D01*
X189607247Y-102867259D01*
X189800020Y-103155764D01*
X189800019Y-106844368D01*
X189607310Y-107132778D01*
X189440253Y-107536090D01*
X188700000Y-106795837D01*
X188700000Y-103411270D01*
X188708852Y-103402418D01*
X188949615Y-103042091D01*
X189115455Y-102641716D01*
X189200000Y-102216681D01*
X189200000Y-101783319D01*
X189115455Y-101358284D01*
X188949615Y-100957909D01*
X188708852Y-100597582D01*
X188402418Y-100291148D01*
X188042091Y-100050385D01*
X187641716Y-99884545D01*
X187216681Y-99800000D01*
X186783319Y-99800000D01*
X186358284Y-99884545D01*
X185957909Y-100050385D01*
X185597582Y-100291148D01*
X185291148Y-100597582D01*
X185050385Y-100957909D01*
X184884545Y-101358284D01*
X184800000Y-101783319D01*
X184800000Y-102216681D01*
X184884545Y-102641716D01*
X185050385Y-103042091D01*
X185291148Y-103402418D01*
X185300001Y-103411271D01*
X185300000Y-107416500D01*
X185291776Y-107500000D01*
X185300000Y-107583500D01*
X185300000Y-107583509D01*
X185324598Y-107833257D01*
X185421806Y-108153708D01*
X185495287Y-108291182D01*
X185579663Y-108449039D01*
X185738868Y-108643031D01*
X185738873Y-108643036D01*
X185792103Y-108707897D01*
X185856965Y-108761128D01*
X186895837Y-109800000D01*
X186783319Y-109800000D01*
X186358284Y-109884545D01*
X185957909Y-110050385D01*
X185597582Y-110291148D01*
X185291148Y-110597582D01*
X185050385Y-110957909D01*
X184884545Y-111358284D01*
X184800000Y-111783319D01*
X184800000Y-112216681D01*
X184884545Y-112641716D01*
X185050385Y-113042091D01*
X185291148Y-113402418D01*
X185300000Y-113411270D01*
X185300001Y-119916490D01*
X185291776Y-120000000D01*
X185324599Y-120333258D01*
X185421807Y-120653709D01*
X185579663Y-120949039D01*
X185738868Y-121143031D01*
X185738877Y-121143040D01*
X185792104Y-121207897D01*
X185856961Y-121261124D01*
X188738872Y-124143035D01*
X188792103Y-124207897D01*
X188856965Y-124261128D01*
X188856969Y-124261132D01*
X189046273Y-124416490D01*
X189050961Y-124420337D01*
X189346291Y-124578194D01*
X189666742Y-124675402D01*
X189916490Y-124700000D01*
X189916498Y-124700000D01*
X190000000Y-124708224D01*
X190083502Y-124700000D01*
X206416500Y-124700000D01*
X206500000Y-124708224D01*
X206583500Y-124700000D01*
X206583510Y-124700000D01*
X206833258Y-124675402D01*
X207153709Y-124578194D01*
X207449039Y-124420337D01*
X207453727Y-124416490D01*
X207643031Y-124261132D01*
X207643035Y-124261128D01*
X207707897Y-124207897D01*
X207761128Y-124143035D01*
X210132471Y-121771692D01*
X210197332Y-121718462D01*
X210250563Y-121653600D01*
X210250567Y-121653596D01*
X210409772Y-121459604D01*
X210567628Y-121164275D01*
X210567629Y-121164274D01*
X210664837Y-120843823D01*
X210689435Y-120594075D01*
X210689435Y-120594067D01*
X210697659Y-120510565D01*
X210689435Y-120427063D01*
X210689435Y-118035647D01*
X211296823Y-118643035D01*
X211350054Y-118707897D01*
X211414916Y-118761128D01*
X211414920Y-118761132D01*
X211539259Y-118863174D01*
X211608912Y-118920337D01*
X211904242Y-119078194D01*
X212224693Y-119175402D01*
X212474441Y-119200000D01*
X212474449Y-119200000D01*
X212557951Y-119208224D01*
X212641453Y-119200000D01*
X214103578Y-119200000D01*
X214271832Y-119338083D01*
X214654023Y-119542369D01*
X215068725Y-119668167D01*
X215391930Y-119700000D01*
X215848070Y-119700000D01*
X216171275Y-119668167D01*
X216585977Y-119542369D01*
X216968168Y-119338083D01*
X217303161Y-119063161D01*
X217578083Y-118728168D01*
X217782369Y-118345977D01*
X217908167Y-117931275D01*
X217929502Y-117714661D01*
X221004163Y-114640000D01*
X221236379Y-114640000D01*
X221700054Y-114547770D01*
X222136826Y-114366853D01*
X222529911Y-114104202D01*
X222864202Y-113769911D01*
X223126853Y-113376826D01*
X223307770Y-112940054D01*
X223400000Y-112476379D01*
X223400000Y-112003621D01*
X223307770Y-111539946D01*
X223126853Y-111103174D01*
X222864202Y-110710089D01*
X222529911Y-110375798D01*
X222136826Y-110113147D01*
X221700054Y-109932230D01*
X221236379Y-109840000D01*
X220763621Y-109840000D01*
X220299946Y-109932230D01*
X219863174Y-110113147D01*
X219470089Y-110375798D01*
X219135798Y-110710089D01*
X218940267Y-111002721D01*
X218923141Y-110916622D01*
X218772377Y-110552645D01*
X218700000Y-110444325D01*
X218700000Y-108204163D01*
X221143036Y-105761127D01*
X221207897Y-105707897D01*
X221261128Y-105643035D01*
X221261132Y-105643031D01*
X221420337Y-105449039D01*
X221462833Y-105369535D01*
X221578194Y-105153709D01*
X221675402Y-104833258D01*
X221700000Y-104583510D01*
X221700000Y-104583502D01*
X221708224Y-104500000D01*
X221700000Y-104416498D01*
X221700000Y-100583500D01*
X221708224Y-100500000D01*
X221700000Y-100416500D01*
X221700000Y-100416490D01*
X221675402Y-100166742D01*
X221578194Y-99846291D01*
X221469550Y-99643032D01*
X221420337Y-99550960D01*
X221288018Y-99389728D01*
X221700054Y-99307770D01*
X222136826Y-99126853D01*
X222529911Y-98864202D01*
X222694113Y-98700000D01*
X225795837Y-98700000D01*
X228300000Y-101204163D01*
X228300000Y-101394194D01*
X224700000Y-101394194D01*
X224464759Y-101417363D01*
X224238558Y-101485981D01*
X224030090Y-101597409D01*
X223847366Y-101747366D01*
X223697409Y-101930090D01*
X223585981Y-102138558D01*
X223517363Y-102364759D01*
X223494194Y-102600000D01*
X223494194Y-104400000D01*
X223517363Y-104635241D01*
X223585981Y-104861442D01*
X223697409Y-105069910D01*
X223847366Y-105252634D01*
X224030090Y-105402591D01*
X224238558Y-105514019D01*
X224464759Y-105582637D01*
X224700000Y-105605806D01*
X228300000Y-105605806D01*
X228300001Y-106679895D01*
X228207524Y-106630465D01*
X227811672Y-106510385D01*
X227503167Y-106480000D01*
X225496833Y-106480000D01*
X225188328Y-106510385D01*
X224792476Y-106630465D01*
X224427657Y-106825465D01*
X224107891Y-107087891D01*
X223845465Y-107407657D01*
X223650465Y-107772476D01*
X223530385Y-108168328D01*
X223489839Y-108580000D01*
X223530385Y-108991672D01*
X223650465Y-109387524D01*
X223845465Y-109752343D01*
X224107891Y-110072109D01*
X224427657Y-110334535D01*
X224792476Y-110529535D01*
X225188328Y-110649615D01*
X225496833Y-110680000D01*
X227503167Y-110680000D01*
X227811672Y-110649615D01*
X228207524Y-110529535D01*
X228300001Y-110480105D01*
X228300001Y-111635836D01*
X227544393Y-112391444D01*
X227416622Y-112416859D01*
X227052645Y-112567623D01*
X226725074Y-112786499D01*
X226446499Y-113065074D01*
X226227623Y-113392645D01*
X226076859Y-113756622D01*
X226000000Y-114143017D01*
X226000000Y-114536983D01*
X226076859Y-114923378D01*
X226227623Y-115287355D01*
X226446499Y-115614926D01*
X226725074Y-115893501D01*
X227052645Y-116112377D01*
X227416622Y-116263141D01*
X227803017Y-116340000D01*
X228196983Y-116340000D01*
X228583378Y-116263141D01*
X228947355Y-116112377D01*
X229274926Y-115893501D01*
X229553501Y-115614926D01*
X229772377Y-115287355D01*
X229923141Y-114923378D01*
X229948556Y-114795607D01*
X231143035Y-113601128D01*
X231207897Y-113547897D01*
X231225000Y-113527057D01*
X231225000Y-151225000D01*
X218179163Y-151225000D01*
X219898357Y-149505806D01*
X221400000Y-149505806D01*
X221635241Y-149482637D01*
X221861442Y-149414019D01*
X222069910Y-149302591D01*
X222252634Y-149152634D01*
X222402591Y-148969910D01*
X222514019Y-148761442D01*
X222582637Y-148535241D01*
X222605806Y-148300000D01*
X222605806Y-147224224D01*
X224700000Y-147224224D01*
X224700000Y-147775776D01*
X224807602Y-148316730D01*
X225018672Y-148826297D01*
X225325098Y-149284896D01*
X225715104Y-149674902D01*
X226173703Y-149981328D01*
X226683270Y-150192398D01*
X227224224Y-150300000D01*
X227775776Y-150300000D01*
X228316730Y-150192398D01*
X228826297Y-149981328D01*
X229284896Y-149674902D01*
X229674902Y-149284896D01*
X229981328Y-148826297D01*
X230192398Y-148316730D01*
X230300000Y-147775776D01*
X230300000Y-147224224D01*
X230192398Y-146683270D01*
X229981328Y-146173703D01*
X229674902Y-145715104D01*
X229284896Y-145325098D01*
X228826297Y-145018672D01*
X228316730Y-144807602D01*
X227775776Y-144700000D01*
X227224224Y-144700000D01*
X226683270Y-144807602D01*
X226173703Y-145018672D01*
X225715104Y-145325098D01*
X225325098Y-145715104D01*
X225018672Y-146173703D01*
X224807602Y-146683270D01*
X224700000Y-147224224D01*
X222605806Y-147224224D01*
X222605806Y-146798357D01*
X224143035Y-145261128D01*
X224207897Y-145207897D01*
X224261128Y-145143035D01*
X224261132Y-145143031D01*
X224420337Y-144949040D01*
X224578193Y-144653710D01*
X224578194Y-144653709D01*
X224675402Y-144333258D01*
X224700000Y-144083510D01*
X224700000Y-144083500D01*
X224708224Y-144000000D01*
X224700000Y-143916500D01*
X224700000Y-137411270D01*
X224708852Y-137402418D01*
X224949615Y-137042091D01*
X225115455Y-136641716D01*
X225200000Y-136216681D01*
X225200000Y-136214378D01*
X225207897Y-136207897D01*
X225420337Y-135949039D01*
X225447153Y-135898869D01*
X225578194Y-135653710D01*
X225675402Y-135333258D01*
X225684587Y-135240000D01*
X225700000Y-135083510D01*
X225700000Y-135083502D01*
X225708224Y-135000000D01*
X225700000Y-134916498D01*
X225700000Y-128849468D01*
X225828838Y-129160510D01*
X226096960Y-129561784D01*
X226300001Y-129764825D01*
X226300000Y-134022103D01*
X226147366Y-134147366D01*
X225997409Y-134330090D01*
X225885981Y-134538558D01*
X225817363Y-134764759D01*
X225794194Y-135000000D01*
X225794194Y-137000000D01*
X225817363Y-137235241D01*
X225885981Y-137461442D01*
X225997409Y-137669910D01*
X226147366Y-137852634D01*
X226330090Y-138002591D01*
X226538558Y-138114019D01*
X226764759Y-138182637D01*
X227000000Y-138205806D01*
X229000000Y-138205806D01*
X229235241Y-138182637D01*
X229461442Y-138114019D01*
X229669910Y-138002591D01*
X229852634Y-137852634D01*
X230002591Y-137669910D01*
X230114019Y-137461442D01*
X230182637Y-137235241D01*
X230205806Y-137000000D01*
X230205806Y-135000000D01*
X230182637Y-134764759D01*
X230114019Y-134538558D01*
X230002591Y-134330090D01*
X229852634Y-134147366D01*
X229700000Y-134022103D01*
X229700000Y-129764824D01*
X229903040Y-129561784D01*
X230171162Y-129160510D01*
X230355848Y-128714639D01*
X230450000Y-128241304D01*
X230450000Y-127758696D01*
X230355848Y-127285361D01*
X230171162Y-126839490D01*
X229903040Y-126438216D01*
X229700000Y-126235176D01*
X229700000Y-125555675D01*
X229772377Y-125447355D01*
X229923141Y-125083378D01*
X230000000Y-124696983D01*
X230000000Y-124303017D01*
X229923141Y-123916622D01*
X229772377Y-123552645D01*
X229553501Y-123225074D01*
X229274926Y-122946499D01*
X228947355Y-122727623D01*
X228583378Y-122576859D01*
X228455607Y-122551444D01*
X225700000Y-119795837D01*
X225700000Y-118395675D01*
X225772377Y-118287355D01*
X225923141Y-117923378D01*
X226000000Y-117536983D01*
X226000000Y-117143017D01*
X225923141Y-116756622D01*
X225772377Y-116392645D01*
X225553501Y-116065074D01*
X225274926Y-115786499D01*
X224947355Y-115567623D01*
X224583378Y-115416859D01*
X224196983Y-115340000D01*
X223803017Y-115340000D01*
X223416622Y-115416859D01*
X223052645Y-115567623D01*
X222725074Y-115786499D01*
X222446499Y-116065074D01*
X222227623Y-116392645D01*
X222076859Y-116756622D01*
X222000000Y-117143017D01*
X222000000Y-117536983D01*
X222076859Y-117923378D01*
X222227623Y-118287355D01*
X222300000Y-118395675D01*
X222300001Y-120416491D01*
X222291776Y-120500000D01*
X222324599Y-120833258D01*
X222421807Y-121153709D01*
X222579663Y-121449039D01*
X222738868Y-121643031D01*
X222738877Y-121643040D01*
X222792104Y-121707897D01*
X222856961Y-121761124D01*
X226051444Y-124955607D01*
X226076859Y-125083378D01*
X226227623Y-125447355D01*
X226300000Y-125555675D01*
X226300000Y-126235176D01*
X226096960Y-126438216D01*
X225867330Y-126781882D01*
X225772377Y-126552645D01*
X225553501Y-126225074D01*
X225274926Y-125946499D01*
X224947355Y-125727623D01*
X224583378Y-125576859D01*
X224196983Y-125500000D01*
X223803017Y-125500000D01*
X223416622Y-125576859D01*
X223052645Y-125727623D01*
X222725074Y-125946499D01*
X222446499Y-126225074D01*
X222227623Y-126552645D01*
X222076859Y-126916622D01*
X222000000Y-127303017D01*
X222000000Y-127696983D01*
X222076859Y-128083378D01*
X222227623Y-128447355D01*
X222300000Y-128555675D01*
X222300001Y-133908687D01*
X221957909Y-134050385D01*
X221597582Y-134291148D01*
X221291148Y-134597582D01*
X221050385Y-134957909D01*
X220884545Y-135358284D01*
X220800000Y-135783319D01*
X220800000Y-136216681D01*
X220884545Y-136641716D01*
X221050385Y-137042091D01*
X221291148Y-137402418D01*
X221300000Y-137411270D01*
X221300001Y-143295836D01*
X221101643Y-143494194D01*
X219600000Y-143494194D01*
X219364759Y-143517363D01*
X219138558Y-143585981D01*
X218930090Y-143697409D01*
X218747366Y-143847366D01*
X218597409Y-144030090D01*
X218485981Y-144238558D01*
X218417363Y-144464759D01*
X218394194Y-144700000D01*
X218394194Y-146201643D01*
X217520000Y-147075837D01*
X217520000Y-145496834D01*
X217489615Y-145188328D01*
X217369535Y-144792476D01*
X217174535Y-144427657D01*
X217120000Y-144361206D01*
X217120000Y-138991268D01*
X217132051Y-138979217D01*
X217338083Y-138728168D01*
X217542368Y-138345976D01*
X217668166Y-137931275D01*
X217710643Y-137500001D01*
X217668166Y-137068726D01*
X217542368Y-136654024D01*
X217338083Y-136271832D01*
X217063161Y-135936839D01*
X216728168Y-135661917D01*
X216345976Y-135457632D01*
X215931274Y-135331834D01*
X215499999Y-135289357D01*
X215068725Y-135331834D01*
X214654024Y-135457632D01*
X214271832Y-135661917D01*
X214020783Y-135867949D01*
X213787949Y-136100783D01*
X213581917Y-136351832D01*
X213377631Y-136734024D01*
X213251834Y-137148725D01*
X213209357Y-137580000D01*
X213251834Y-138011275D01*
X213377631Y-138425976D01*
X213581917Y-138808168D01*
X213720001Y-138976423D01*
X213720000Y-144361207D01*
X213665466Y-144427657D01*
X213470466Y-144792476D01*
X213350386Y-145188328D01*
X213320000Y-145496833D01*
X213320000Y-147503166D01*
X213350385Y-147811671D01*
X213470465Y-148207523D01*
X213665465Y-148572343D01*
X213852299Y-148800000D01*
X212161837Y-148800000D01*
X212196823Y-148760959D01*
X212426655Y-148372560D01*
X212576297Y-147946786D01*
X212640000Y-147500000D01*
X212640000Y-146600000D01*
X210440000Y-146600000D01*
X210440000Y-146620000D01*
X210240000Y-146620000D01*
X210240000Y-146600000D01*
X208040000Y-146600000D01*
X208040000Y-147500000D01*
X208103703Y-147946786D01*
X208253345Y-148372560D01*
X208483177Y-148760959D01*
X208518163Y-148800000D01*
X206827701Y-148800000D01*
X207014535Y-148572343D01*
X207209535Y-148207524D01*
X207329615Y-147811672D01*
X207360000Y-147503167D01*
X207360000Y-145500000D01*
X208040000Y-145500000D01*
X208040000Y-146400000D01*
X210240000Y-146400000D01*
X210240000Y-143652566D01*
X210440000Y-143652566D01*
X210440000Y-146400000D01*
X212640000Y-146400000D01*
X212640000Y-145500000D01*
X212576297Y-145053214D01*
X212426655Y-144627440D01*
X212196823Y-144239041D01*
X211895635Y-143902943D01*
X211534665Y-143632062D01*
X211127784Y-143436808D01*
X210798228Y-143346108D01*
X210440000Y-143652566D01*
X210240000Y-143652566D01*
X209881772Y-143346108D01*
X209552216Y-143436808D01*
X209145335Y-143632062D01*
X208784365Y-143902943D01*
X208483177Y-144239041D01*
X208253345Y-144627440D01*
X208103703Y-145053214D01*
X208040000Y-145500000D01*
X207360000Y-145500000D01*
X207360000Y-145496834D01*
X207329615Y-145188328D01*
X207209535Y-144792476D01*
X207014535Y-144427657D01*
X206960000Y-144361206D01*
X206960000Y-140604163D01*
X208455607Y-139108556D01*
X208583378Y-139083141D01*
X208947355Y-138932377D01*
X209274926Y-138713501D01*
X209553501Y-138434926D01*
X209772377Y-138107355D01*
X209923141Y-137743378D01*
X210000000Y-137356983D01*
X210000000Y-136963017D01*
X209923141Y-136576622D01*
X209772377Y-136212645D01*
X209553501Y-135885074D01*
X209274926Y-135606499D01*
X208947355Y-135387623D01*
X208583378Y-135236859D01*
X208196983Y-135160000D01*
X207803017Y-135160000D01*
X207416622Y-135236859D01*
X207052645Y-135387623D01*
X206944325Y-135460000D01*
X205124163Y-135460000D01*
X204900000Y-135235837D01*
X204900000Y-135003621D01*
X204807770Y-134539946D01*
X204626853Y-134103174D01*
X204364202Y-133710089D01*
X204029911Y-133375798D01*
X203636826Y-133113147D01*
X203200054Y-132932230D01*
X202736379Y-132840000D01*
X202263621Y-132840000D01*
X201799946Y-132932230D01*
X201363174Y-133113147D01*
X200970089Y-133375798D01*
X200635798Y-133710089D01*
X200373147Y-134103174D01*
X200192230Y-134539946D01*
X200100000Y-135003621D01*
X200100000Y-135476379D01*
X200192230Y-135940054D01*
X200373147Y-136376826D01*
X200635798Y-136769911D01*
X200970089Y-137104202D01*
X201363174Y-137366853D01*
X201799946Y-137547770D01*
X202263621Y-137640000D01*
X202495837Y-137640000D01*
X203158869Y-138303032D01*
X203212103Y-138367897D01*
X203276965Y-138421128D01*
X203276968Y-138421131D01*
X203470960Y-138580337D01*
X203628817Y-138664713D01*
X203766291Y-138738194D01*
X203964846Y-138798425D01*
X203839663Y-138950961D01*
X203681807Y-139246291D01*
X203584599Y-139566742D01*
X203551776Y-139900000D01*
X203560001Y-139983510D01*
X203560000Y-144361207D01*
X203505466Y-144427657D01*
X203310466Y-144792476D01*
X203190386Y-145188328D01*
X203160000Y-145496833D01*
X203160000Y-147503166D01*
X203190385Y-147811671D01*
X203310465Y-148207523D01*
X203505465Y-148572343D01*
X203692299Y-148800000D01*
X201880000Y-148800000D01*
X201880000Y-148638794D01*
X201934535Y-148572343D01*
X202129535Y-148207524D01*
X202249615Y-147811672D01*
X202280000Y-147503167D01*
X202280000Y-145496834D01*
X202249615Y-145188328D01*
X202129535Y-144792476D01*
X201934535Y-144427657D01*
X201672109Y-144107891D01*
X201352343Y-143845465D01*
X200987524Y-143650465D01*
X200591672Y-143530385D01*
X200180000Y-143489839D01*
X199768329Y-143530385D01*
X199372477Y-143650465D01*
X199007658Y-143845465D01*
X198687892Y-144107891D01*
X198425466Y-144427657D01*
X198230466Y-144792476D01*
X198110386Y-145188328D01*
X198080000Y-145496833D01*
X198080000Y-147503166D01*
X198110385Y-147811671D01*
X198230465Y-148207523D01*
X198425465Y-148572343D01*
X198480001Y-148638795D01*
X198480001Y-148800000D01*
X196921837Y-148800000D01*
X196956823Y-148760959D01*
X197186655Y-148372560D01*
X197336297Y-147946786D01*
X197400000Y-147500000D01*
X197400000Y-146600000D01*
X195200000Y-146600000D01*
X195200000Y-146620000D01*
X195000000Y-146620000D01*
X195000000Y-146600000D01*
X192800000Y-146600000D01*
X192800000Y-147500000D01*
X192863703Y-147946786D01*
X193013345Y-148372560D01*
X193243177Y-148760959D01*
X193278163Y-148800000D01*
X191587701Y-148800000D01*
X191774535Y-148572343D01*
X191969535Y-148207524D01*
X192089615Y-147811672D01*
X192120000Y-147503167D01*
X192120000Y-145500000D01*
X192800000Y-145500000D01*
X192800000Y-146400000D01*
X195000000Y-146400000D01*
X195000000Y-143652566D01*
X195200000Y-143652566D01*
X195200000Y-146400000D01*
X197400000Y-146400000D01*
X197400000Y-145500000D01*
X197336297Y-145053214D01*
X197186655Y-144627440D01*
X196956823Y-144239041D01*
X196655635Y-143902943D01*
X196294665Y-143632062D01*
X195887784Y-143436808D01*
X195558228Y-143346108D01*
X195200000Y-143652566D01*
X195000000Y-143652566D01*
X194641772Y-143346108D01*
X194312216Y-143436808D01*
X193905335Y-143632062D01*
X193544365Y-143902943D01*
X193243177Y-144239041D01*
X193013345Y-144627440D01*
X192863703Y-145053214D01*
X192800000Y-145500000D01*
X192120000Y-145500000D01*
X192120000Y-145496834D01*
X192089615Y-145188328D01*
X191969535Y-144792476D01*
X191774535Y-144427657D01*
X191512109Y-144107891D01*
X191200000Y-143851749D01*
X191200000Y-138555675D01*
X191272377Y-138447355D01*
X191423141Y-138083378D01*
X191500000Y-137696983D01*
X191500000Y-137303017D01*
X191423141Y-136916622D01*
X191376085Y-136803017D01*
X195000000Y-136803017D01*
X195000000Y-137196983D01*
X195076859Y-137583378D01*
X195227623Y-137947355D01*
X195446499Y-138274926D01*
X195725074Y-138553501D01*
X196052645Y-138772377D01*
X196416622Y-138923141D01*
X196803017Y-139000000D01*
X197196983Y-139000000D01*
X197583378Y-138923141D01*
X197947355Y-138772377D01*
X198274926Y-138553501D01*
X198553501Y-138274926D01*
X198772377Y-137947355D01*
X198923141Y-137583378D01*
X199000000Y-137196983D01*
X199000000Y-136803017D01*
X198923141Y-136416622D01*
X198772377Y-136052645D01*
X198553501Y-135725074D01*
X198274926Y-135446499D01*
X197947355Y-135227623D01*
X197583378Y-135076859D01*
X197196983Y-135000000D01*
X196803017Y-135000000D01*
X196416622Y-135076859D01*
X196052645Y-135227623D01*
X195725074Y-135446499D01*
X195446499Y-135725074D01*
X195227623Y-136052645D01*
X195076859Y-136416622D01*
X195000000Y-136803017D01*
X191376085Y-136803017D01*
X191272377Y-136552645D01*
X191053501Y-136225074D01*
X190774926Y-135946499D01*
X190447355Y-135727623D01*
X190083378Y-135576859D01*
X189696983Y-135500000D01*
X189303017Y-135500000D01*
X188916622Y-135576859D01*
X188552645Y-135727623D01*
X188225074Y-135946499D01*
X187946499Y-136225074D01*
X187727623Y-136552645D01*
X187576859Y-136916622D01*
X187500000Y-137303017D01*
X187500000Y-137696983D01*
X187576859Y-138083378D01*
X187727623Y-138447355D01*
X187800000Y-138555675D01*
X187800001Y-145896490D01*
X187791776Y-145980000D01*
X187824599Y-146313258D01*
X187920000Y-146627752D01*
X187920000Y-147503166D01*
X187950385Y-147811671D01*
X188070465Y-148207523D01*
X188265465Y-148572343D01*
X188452299Y-148800000D01*
X187704163Y-148800000D01*
X186941240Y-148037077D01*
X187009615Y-147811672D01*
X187040000Y-147503167D01*
X187040000Y-145496834D01*
X187009615Y-145188328D01*
X186889535Y-144792476D01*
X186694535Y-144427657D01*
X186432109Y-144107891D01*
X186112343Y-143845465D01*
X185747524Y-143650465D01*
X185351672Y-143530385D01*
X184940000Y-143489839D01*
X184528329Y-143530385D01*
X184410340Y-143566177D01*
X184200000Y-143355837D01*
X184200000Y-126643017D01*
X195000000Y-126643017D01*
X195000000Y-127036983D01*
X195076859Y-127423378D01*
X195227623Y-127787355D01*
X195446499Y-128114926D01*
X195725074Y-128393501D01*
X196052645Y-128612377D01*
X196416622Y-128763141D01*
X196803017Y-128840000D01*
X197196983Y-128840000D01*
X197583378Y-128763141D01*
X197947355Y-128612377D01*
X198055675Y-128540000D01*
X206428731Y-128540000D01*
X206520782Y-128632051D01*
X206771832Y-128838082D01*
X207154023Y-129042368D01*
X207568725Y-129168166D01*
X207999999Y-129210643D01*
X208431274Y-129168166D01*
X208845976Y-129042368D01*
X209228167Y-128838082D01*
X209563161Y-128563161D01*
X209838082Y-128228167D01*
X210042368Y-127845976D01*
X210168166Y-127431274D01*
X210210643Y-126999999D01*
X210168166Y-126568725D01*
X210042368Y-126154023D01*
X209838082Y-125771832D01*
X209632051Y-125520782D01*
X209319217Y-125207949D01*
X209068168Y-125001917D01*
X208685976Y-124797631D01*
X208271275Y-124671834D01*
X207840000Y-124629357D01*
X207408725Y-124671834D01*
X206994024Y-124797631D01*
X206611832Y-125001917D01*
X206443578Y-125140000D01*
X198055675Y-125140000D01*
X197947355Y-125067623D01*
X197583378Y-124916859D01*
X197196983Y-124840000D01*
X196803017Y-124840000D01*
X196416622Y-124916859D01*
X196052645Y-125067623D01*
X195725074Y-125286499D01*
X195446499Y-125565074D01*
X195227623Y-125892645D01*
X195076859Y-126256622D01*
X195000000Y-126643017D01*
X184200000Y-126643017D01*
X184200000Y-92003621D01*
X192100000Y-92003621D01*
X192100000Y-92476379D01*
X192192230Y-92940054D01*
X192373147Y-93376826D01*
X192635798Y-93769911D01*
X192800001Y-93934114D01*
X192800001Y-94473939D01*
X192791776Y-94557448D01*
X192824599Y-94890706D01*
X192921807Y-95211157D01*
X193079663Y-95506487D01*
X193238868Y-95700479D01*
X193238877Y-95700488D01*
X193292104Y-95765345D01*
X193314384Y-95783630D01*
X193310688Y-95802209D01*
X193310688Y-96334063D01*
X193414448Y-96855697D01*
X193617979Y-97347066D01*
X193913461Y-97789286D01*
X194289538Y-98165363D01*
X194731758Y-98460845D01*
X195223127Y-98664376D01*
X195744761Y-98768136D01*
X196276615Y-98768136D01*
X196798249Y-98664376D01*
X197289618Y-98460845D01*
X197731838Y-98165363D01*
X198107915Y-97789286D01*
X198403397Y-97347066D01*
X198606928Y-96855697D01*
X198710688Y-96334063D01*
X198710688Y-95802209D01*
X198606928Y-95280575D01*
X198403397Y-94789206D01*
X198107915Y-94346986D01*
X197731838Y-93970909D01*
X197289618Y-93675427D01*
X196798249Y-93471896D01*
X196590889Y-93430649D01*
X196626853Y-93376826D01*
X196807770Y-92940054D01*
X196900000Y-92476379D01*
X196900000Y-92003621D01*
X196807770Y-91539946D01*
X196626853Y-91103174D01*
X196364202Y-90710089D01*
X196029911Y-90375798D01*
X195636826Y-90113147D01*
X195200054Y-89932230D01*
X194736379Y-89840000D01*
X194263621Y-89840000D01*
X193799946Y-89932230D01*
X193363174Y-90113147D01*
X192970089Y-90375798D01*
X192635798Y-90710089D01*
X192373147Y-91103174D01*
X192192230Y-91539946D01*
X192100000Y-92003621D01*
X184200000Y-92003621D01*
X184200000Y-89700000D01*
X196736435Y-89700000D01*
X196786499Y-89774926D01*
X197065074Y-90053501D01*
X197392645Y-90272377D01*
X197756622Y-90423141D01*
X198143017Y-90500000D01*
X198536983Y-90500000D01*
X198923378Y-90423141D01*
X199287355Y-90272377D01*
X199614926Y-90053501D01*
X199893501Y-89774926D01*
X200112377Y-89447355D01*
X200263141Y-89083378D01*
X200340000Y-88696983D01*
X200340000Y-88303017D01*
X200263141Y-87916622D01*
X200112377Y-87552645D01*
X200042587Y-87448197D01*
X200044393Y-87448556D01*
X200799960Y-88204123D01*
X200799959Y-91848274D01*
X200778809Y-91862406D01*
X200402732Y-92238483D01*
X200107250Y-92680703D01*
X199903719Y-93172072D01*
X199799959Y-93693706D01*
X199799959Y-94225560D01*
X199903719Y-94747194D01*
X200107250Y-95238563D01*
X200402732Y-95680783D01*
X200778809Y-96056860D01*
X201221029Y-96352342D01*
X201712398Y-96555873D01*
X202234032Y-96659633D01*
X202765886Y-96659633D01*
X203287520Y-96555873D01*
X203778889Y-96352342D01*
X204221109Y-96056860D01*
X204597186Y-95680783D01*
X204892668Y-95238563D01*
X205035045Y-94894833D01*
X205082736Y-94805610D01*
X205208534Y-94390908D01*
X205251011Y-93959633D01*
X205219909Y-93643846D01*
X205663755Y-93200000D01*
X206944325Y-93200000D01*
X207052645Y-93272377D01*
X207416622Y-93423141D01*
X207803017Y-93500000D01*
X208134094Y-93500000D01*
X207710468Y-93675471D01*
X207268248Y-93970953D01*
X206892171Y-94347030D01*
X206596689Y-94789250D01*
X206393158Y-95280619D01*
X206289398Y-95802253D01*
X206289398Y-96334107D01*
X206294360Y-96359055D01*
X205853415Y-96800000D01*
X201083499Y-96800000D01*
X200999999Y-96791776D01*
X200916499Y-96800000D01*
X200916490Y-96800000D01*
X200666742Y-96824598D01*
X200346291Y-96921806D01*
X200208817Y-96995287D01*
X200050960Y-97079663D01*
X199856968Y-97238869D01*
X199856965Y-97238872D01*
X199792103Y-97292103D01*
X199738872Y-97356965D01*
X197856961Y-99238876D01*
X197792104Y-99292103D01*
X197738877Y-99356960D01*
X197738868Y-99356969D01*
X197579663Y-99550961D01*
X197421807Y-99846291D01*
X197324599Y-100166742D01*
X197291776Y-100500000D01*
X197300001Y-100583510D01*
X197300000Y-108795837D01*
X194867563Y-111228274D01*
X194802706Y-111281501D01*
X194749479Y-111346358D01*
X194749470Y-111346367D01*
X194590265Y-111540359D01*
X194512742Y-111685395D01*
X194289452Y-111834593D01*
X193913375Y-112210670D01*
X193617893Y-112652890D01*
X193414362Y-113144259D01*
X193310602Y-113665893D01*
X193310602Y-114197747D01*
X193414362Y-114719381D01*
X193617893Y-115210750D01*
X193913375Y-115652970D01*
X194289452Y-116029047D01*
X194731672Y-116324529D01*
X195223041Y-116528060D01*
X195744675Y-116631820D01*
X196276529Y-116631820D01*
X196798163Y-116528060D01*
X197289532Y-116324529D01*
X197731752Y-116029047D01*
X198107829Y-115652970D01*
X198403311Y-115210750D01*
X198606842Y-114719381D01*
X198710602Y-114197747D01*
X198710602Y-113665893D01*
X198606842Y-113144259D01*
X198403311Y-112652890D01*
X198342413Y-112561750D01*
X200143036Y-110761127D01*
X200207897Y-110707897D01*
X200270369Y-110631776D01*
X200420336Y-110449040D01*
X200420337Y-110449039D01*
X200578194Y-110153709D01*
X200675402Y-109833258D01*
X200700000Y-109583510D01*
X200700000Y-109583501D01*
X200708224Y-109500001D01*
X200700000Y-109416501D01*
X200700000Y-106664824D01*
X200938216Y-106903040D01*
X201339490Y-107171162D01*
X201785361Y-107355848D01*
X202258696Y-107450000D01*
X202741304Y-107450000D01*
X203214639Y-107355848D01*
X203660510Y-107171162D01*
X204061784Y-106903040D01*
X204403040Y-106561784D01*
X204671162Y-106160510D01*
X204855848Y-105714639D01*
X204950000Y-105241304D01*
X204950000Y-104758696D01*
X204855848Y-104285361D01*
X204671162Y-103839490D01*
X204403040Y-103438216D01*
X204061784Y-103096960D01*
X203660510Y-102828838D01*
X203214639Y-102644152D01*
X202741304Y-102550000D01*
X202258696Y-102550000D01*
X201785361Y-102644152D01*
X201339490Y-102828838D01*
X200938216Y-103096960D01*
X200700000Y-103335176D01*
X200700000Y-101204163D01*
X201704163Y-100200000D01*
X206474078Y-100200000D01*
X206557578Y-100208224D01*
X206641078Y-100200000D01*
X206641088Y-100200000D01*
X206890836Y-100175402D01*
X207211287Y-100078194D01*
X207506617Y-99920337D01*
X207596842Y-99846291D01*
X207700609Y-99761132D01*
X207700613Y-99761128D01*
X207765475Y-99707897D01*
X207818709Y-99643032D01*
X208698523Y-98763218D01*
X208723471Y-98768180D01*
X209255325Y-98768180D01*
X209776959Y-98664420D01*
X210268328Y-98460889D01*
X210710548Y-98165407D01*
X211086625Y-97789330D01*
X211382107Y-97347110D01*
X211585638Y-96855741D01*
X211689398Y-96334107D01*
X211689398Y-95802253D01*
X211585638Y-95280619D01*
X211382107Y-94789250D01*
X211086625Y-94347030D01*
X210710548Y-93970953D01*
X210268328Y-93675471D01*
X209776959Y-93471940D01*
X209255325Y-93368180D01*
X208723471Y-93368180D01*
X208709224Y-93371014D01*
X208947355Y-93272377D01*
X209274926Y-93053501D01*
X209553501Y-92774926D01*
X209772377Y-92447355D01*
X209923141Y-92083378D01*
X210000000Y-91696983D01*
X210000000Y-91303017D01*
X209923141Y-90916622D01*
X209772377Y-90552645D01*
X209553501Y-90225074D01*
X209539341Y-90210914D01*
X209774926Y-90053501D01*
X210053501Y-89774926D01*
X210272377Y-89447355D01*
X210423141Y-89083378D01*
X210500000Y-88696983D01*
X210500000Y-88303017D01*
X210423141Y-87916622D01*
X210272377Y-87552645D01*
X210053501Y-87225074D01*
X209774926Y-86946499D01*
X209447355Y-86727623D01*
X209083378Y-86576859D01*
X208955607Y-86551444D01*
X207200000Y-84795837D01*
X207200000Y-80303017D01*
X208500000Y-80303017D01*
X208500000Y-80696983D01*
X208576859Y-81083378D01*
X208727623Y-81447355D01*
X208946499Y-81774926D01*
X209225074Y-82053501D01*
X209552645Y-82272377D01*
X209916622Y-82423141D01*
X210303017Y-82500000D01*
X210696983Y-82500000D01*
X211083378Y-82423141D01*
X211447355Y-82272377D01*
X211555675Y-82200000D01*
X213916500Y-82200000D01*
X214000000Y-82208224D01*
X214083500Y-82200000D01*
X214083510Y-82200000D01*
X214333258Y-82175402D01*
X214653709Y-82078194D01*
X214949039Y-81920337D01*
X215143031Y-81761132D01*
X215143035Y-81761128D01*
X215207897Y-81707897D01*
X215261128Y-81643035D01*
X219365935Y-77538228D01*
X223346108Y-77538228D01*
X223436808Y-77867784D01*
X223632062Y-78274665D01*
X223902943Y-78635635D01*
X224239041Y-78936823D01*
X224627440Y-79166655D01*
X225053214Y-79316297D01*
X225500000Y-79380000D01*
X226400000Y-79380000D01*
X226400000Y-77180000D01*
X226600000Y-77180000D01*
X226600000Y-79380000D01*
X227500000Y-79380000D01*
X227946786Y-79316297D01*
X228372560Y-79166655D01*
X228760959Y-78936823D01*
X229097057Y-78635635D01*
X229367938Y-78274665D01*
X229563192Y-77867784D01*
X229653892Y-77538228D01*
X229347434Y-77180000D01*
X226600000Y-77180000D01*
X226400000Y-77180000D01*
X223652566Y-77180000D01*
X223346108Y-77538228D01*
X219365935Y-77538228D01*
X220282391Y-76621772D01*
X223346108Y-76621772D01*
X223652566Y-76980000D01*
X226400000Y-76980000D01*
X226400000Y-74780000D01*
X226600000Y-74780000D01*
X226600000Y-76980000D01*
X229347434Y-76980000D01*
X229653892Y-76621772D01*
X229563192Y-76292216D01*
X229367938Y-75885335D01*
X229097057Y-75524365D01*
X228760959Y-75223177D01*
X228372560Y-74993345D01*
X227946786Y-74843703D01*
X227500000Y-74780000D01*
X226600000Y-74780000D01*
X226400000Y-74780000D01*
X225500000Y-74780000D01*
X225053214Y-74843703D01*
X224627440Y-74993345D01*
X224239041Y-75223177D01*
X223902943Y-75524365D01*
X223632062Y-75885335D01*
X223436808Y-76292216D01*
X223346108Y-76621772D01*
X220282391Y-76621772D01*
X223204163Y-73700000D01*
X223804171Y-73700000D01*
X223847366Y-73752634D01*
X224030090Y-73902591D01*
X224238558Y-74014019D01*
X224464759Y-74082637D01*
X224700000Y-74105806D01*
X228300000Y-74105806D01*
X228535241Y-74082637D01*
X228761442Y-74014019D01*
X228969910Y-73902591D01*
X229152634Y-73752634D01*
X229302591Y-73569910D01*
X229414019Y-73361442D01*
X229482637Y-73135241D01*
X229505806Y-72900000D01*
X229505806Y-71100000D01*
X229482637Y-70864759D01*
X229414019Y-70638558D01*
X229302591Y-70430090D01*
X229152634Y-70247366D01*
X228969910Y-70097409D01*
X228761442Y-69985981D01*
X228535241Y-69917363D01*
X228300000Y-69894194D01*
X224700000Y-69894194D01*
X224464759Y-69917363D01*
X224238558Y-69985981D01*
X224030090Y-70097409D01*
X223847366Y-70247366D01*
X223804171Y-70300000D01*
X222583499Y-70300000D01*
X222499999Y-70291776D01*
X222416499Y-70300000D01*
X222416490Y-70300000D01*
X222166742Y-70324598D01*
X221846291Y-70421806D01*
X221550961Y-70579663D01*
X221550959Y-70579664D01*
X221550960Y-70579664D01*
X221356968Y-70738869D01*
X221356965Y-70738872D01*
X221292103Y-70792103D01*
X221238872Y-70856965D01*
X213295837Y-78800000D01*
X211555675Y-78800000D01*
X211447355Y-78727623D01*
X211083378Y-78576859D01*
X210696983Y-78500000D01*
X210303017Y-78500000D01*
X209916622Y-78576859D01*
X209552645Y-78727623D01*
X209225074Y-78946499D01*
X208946499Y-79225074D01*
X208727623Y-79552645D01*
X208576859Y-79916622D01*
X208500000Y-80303017D01*
X207200000Y-80303017D01*
X207200000Y-64911270D01*
X207208852Y-64902418D01*
X207449615Y-64542091D01*
X207615455Y-64141716D01*
X207700000Y-63716681D01*
X207700000Y-63704163D01*
X208294194Y-63109969D01*
X208294194Y-64500000D01*
X208317363Y-64735241D01*
X208385981Y-64961442D01*
X208497409Y-65169910D01*
X208647366Y-65352634D01*
X208800001Y-65477897D01*
X208800000Y-69284325D01*
X208727623Y-69392645D01*
X208576859Y-69756622D01*
X208500000Y-70143017D01*
X208500000Y-70536983D01*
X208576859Y-70923378D01*
X208727623Y-71287355D01*
X208946499Y-71614926D01*
X209225074Y-71893501D01*
X209552645Y-72112377D01*
X209916622Y-72263141D01*
X210303017Y-72340000D01*
X210696983Y-72340000D01*
X211083378Y-72263141D01*
X211447355Y-72112377D01*
X211774926Y-71893501D01*
X212053501Y-71614926D01*
X212272377Y-71287355D01*
X212423141Y-70923378D01*
X212500000Y-70536983D01*
X212500000Y-70143017D01*
X212423141Y-69756622D01*
X212272377Y-69392645D01*
X212200000Y-69284325D01*
X212200000Y-65590825D01*
X224550597Y-65590825D01*
X224864643Y-66297388D01*
X225656115Y-66738554D01*
X226518446Y-67016836D01*
X227418497Y-67121538D01*
X228321681Y-67048637D01*
X229193287Y-66800935D01*
X229999822Y-66387949D01*
X230135357Y-66297388D01*
X230449403Y-65590825D01*
X227500000Y-62641421D01*
X224550597Y-65590825D01*
X212200000Y-65590825D01*
X212200000Y-65477897D01*
X212352634Y-65352634D01*
X212502591Y-65169910D01*
X212614019Y-64961442D01*
X212682637Y-64735241D01*
X212705806Y-64500000D01*
X212705806Y-62500000D01*
X212697779Y-62418497D01*
X222878462Y-62418497D01*
X222951363Y-63321681D01*
X223199065Y-64193287D01*
X223612051Y-64999822D01*
X223702612Y-65135357D01*
X224409175Y-65449403D01*
X227358579Y-62500000D01*
X224409175Y-59550597D01*
X223702612Y-59864643D01*
X223261446Y-60656115D01*
X222983164Y-61518446D01*
X222878462Y-62418497D01*
X212697779Y-62418497D01*
X212682637Y-62264759D01*
X212614019Y-62038558D01*
X212502591Y-61830090D01*
X212395829Y-61700000D01*
X217444325Y-61700000D01*
X217552645Y-61772377D01*
X217916622Y-61923141D01*
X218303017Y-62000000D01*
X218696983Y-62000000D01*
X219083378Y-61923141D01*
X219447355Y-61772377D01*
X219774926Y-61553501D01*
X220053501Y-61274926D01*
X220272377Y-60947355D01*
X220423141Y-60583378D01*
X220500000Y-60196983D01*
X220500000Y-59803017D01*
X220423141Y-59416622D01*
X220272377Y-59052645D01*
X220086860Y-58775000D01*
X224832469Y-58775000D01*
X224550597Y-59409175D01*
G37*
X224550597Y-59409175D02*
X227500000Y-62358579D01*
X230449403Y-59409175D01*
X230167531Y-58775000D01*
X231225001Y-58775000D01*
X231225001Y-59832469D01*
X230590825Y-59550597D01*
X227641421Y-62500000D01*
X230590825Y-65449403D01*
X231225001Y-65167531D01*
X231225001Y-99312944D01*
X231207897Y-99292103D01*
X231143036Y-99238873D01*
X227761128Y-95856965D01*
X227707897Y-95792103D01*
X227643035Y-95738872D01*
X227643031Y-95738868D01*
X227449039Y-95579663D01*
X227153709Y-95421806D01*
X226833258Y-95324598D01*
X226583510Y-95300000D01*
X226583500Y-95300000D01*
X226500000Y-95291776D01*
X226416500Y-95300000D01*
X222694113Y-95300000D01*
X222529911Y-95135798D01*
X222136826Y-94873147D01*
X221700054Y-94692230D01*
X221236379Y-94600000D01*
X220763621Y-94600000D01*
X220299946Y-94692230D01*
X219863174Y-94873147D01*
X219860000Y-94875268D01*
X219860000Y-93038228D01*
X223346108Y-93038228D01*
X223436808Y-93367784D01*
X223632062Y-93774665D01*
X223902943Y-94135635D01*
X224239041Y-94436823D01*
X224627440Y-94666655D01*
X225053214Y-94816297D01*
X225500000Y-94880000D01*
X226400000Y-94880000D01*
X226400000Y-92680000D01*
X226600000Y-92680000D01*
X226600000Y-94880000D01*
X227500000Y-94880000D01*
X227946786Y-94816297D01*
X228372560Y-94666655D01*
X228760959Y-94436823D01*
X229097057Y-94135635D01*
X229367938Y-93774665D01*
X229563192Y-93367784D01*
X229653892Y-93038228D01*
X229347434Y-92680000D01*
X226600000Y-92680000D01*
X226400000Y-92680000D01*
X223652566Y-92680000D01*
X223346108Y-93038228D01*
X219860000Y-93038228D01*
X219860000Y-92555675D01*
X219932377Y-92447355D01*
X220067237Y-92121772D01*
X223346108Y-92121772D01*
X223652566Y-92480000D01*
X226400000Y-92480000D01*
X226400000Y-90280000D01*
X226600000Y-90280000D01*
X226600000Y-92480000D01*
X229347434Y-92480000D01*
X229653892Y-92121772D01*
X229563192Y-91792216D01*
X229367938Y-91385335D01*
X229097057Y-91024365D01*
X228760959Y-90723177D01*
X228372560Y-90493345D01*
X227946786Y-90343703D01*
X227500000Y-90280000D01*
X226600000Y-90280000D01*
X226400000Y-90280000D01*
X225500000Y-90280000D01*
X225053214Y-90343703D01*
X224627440Y-90493345D01*
X224239041Y-90723177D01*
X223902943Y-91024365D01*
X223632062Y-91385335D01*
X223436808Y-91792216D01*
X223346108Y-92121772D01*
X220067237Y-92121772D01*
X220083141Y-92083378D01*
X220160000Y-91696983D01*
X220160000Y-91303017D01*
X220083141Y-90916622D01*
X219932377Y-90552645D01*
X219713501Y-90225074D01*
X219434926Y-89946499D01*
X219107355Y-89727623D01*
X218743378Y-89576859D01*
X218356983Y-89500000D01*
X218696983Y-89500000D01*
X219083378Y-89423141D01*
X219447355Y-89272377D01*
X219555675Y-89200000D01*
X223804171Y-89200000D01*
X223847366Y-89252634D01*
X224030090Y-89402591D01*
X224238558Y-89514019D01*
X224464759Y-89582637D01*
X224700000Y-89605806D01*
X228300000Y-89605806D01*
X228535241Y-89582637D01*
X228761442Y-89514019D01*
X228969910Y-89402591D01*
X229152634Y-89252634D01*
X229302591Y-89069910D01*
X229414019Y-88861442D01*
X229482637Y-88635241D01*
X229505806Y-88400000D01*
X229505806Y-86600000D01*
X229482637Y-86364759D01*
X229414019Y-86138558D01*
X229302591Y-85930090D01*
X229152634Y-85747366D01*
X228969910Y-85597409D01*
X228761442Y-85485981D01*
X228535241Y-85417363D01*
X228300000Y-85394194D01*
X224700000Y-85394194D01*
X224464759Y-85417363D01*
X224238558Y-85485981D01*
X224030090Y-85597409D01*
X223847366Y-85747366D01*
X223804171Y-85800000D01*
X219555675Y-85800000D01*
X219447355Y-85727623D01*
X219083378Y-85576859D01*
X218696983Y-85500000D01*
X218303017Y-85500000D01*
X217916622Y-85576859D01*
X217552645Y-85727623D01*
X217225074Y-85946499D01*
X216946499Y-86225074D01*
X216727623Y-86552645D01*
X216576859Y-86916622D01*
X216500000Y-87303017D01*
X216500000Y-87696983D01*
X216576859Y-88083378D01*
X216727623Y-88447355D01*
X216946499Y-88774926D01*
X217225074Y-89053501D01*
X217552645Y-89272377D01*
X217916622Y-89423141D01*
X218303017Y-89500000D01*
X217963017Y-89500000D01*
X217576622Y-89576859D01*
X217212645Y-89727623D01*
X216885074Y-89946499D01*
X216606499Y-90225074D01*
X216387623Y-90552645D01*
X216236859Y-90916622D01*
X216160000Y-91303017D01*
X216160000Y-91696983D01*
X216236859Y-92083378D01*
X216387623Y-92447355D01*
X216460001Y-92555676D01*
X216460000Y-98576500D01*
X216451776Y-98660000D01*
X216460000Y-98743500D01*
X216460000Y-98743509D01*
X216484598Y-98993257D01*
X216581806Y-99313708D01*
X216615768Y-99377246D01*
X216416622Y-99416859D01*
X216052645Y-99567623D01*
X215725074Y-99786499D01*
X215446499Y-100065074D01*
X215337980Y-100227483D01*
X215097208Y-99867142D01*
X214721131Y-99491065D01*
X214278911Y-99195583D01*
X213787542Y-98992052D01*
X213265908Y-98888292D01*
X212734054Y-98888292D01*
X212212420Y-98992052D01*
X211721051Y-99195583D01*
X211278831Y-99491065D01*
X210902754Y-99867142D01*
X210607272Y-100309362D01*
X210403741Y-100800731D01*
X210299981Y-101322365D01*
X210299981Y-101854219D01*
X210403741Y-102375853D01*
X210607272Y-102867222D01*
X210902754Y-103309442D01*
X211278831Y-103685519D01*
X211721051Y-103981001D01*
X212212420Y-104184532D01*
X212734054Y-104288292D01*
X213265908Y-104288292D01*
X213787542Y-104184532D01*
X214278911Y-103981001D01*
X214721131Y-103685519D01*
X215097208Y-103309442D01*
X215392690Y-102867222D01*
X215482346Y-102650773D01*
X215725074Y-102893501D01*
X216052645Y-103112377D01*
X216416622Y-103263141D01*
X216803017Y-103340000D01*
X217196983Y-103340000D01*
X217583378Y-103263141D01*
X217947355Y-103112377D01*
X218274926Y-102893501D01*
X218300000Y-102868427D01*
X218300000Y-103795837D01*
X215856961Y-106238876D01*
X215792104Y-106292103D01*
X215738877Y-106356960D01*
X215738868Y-106356969D01*
X215579663Y-106550961D01*
X215421807Y-106846291D01*
X215324599Y-107166742D01*
X215291776Y-107500000D01*
X215300001Y-107583509D01*
X215300000Y-110444325D01*
X215227623Y-110552645D01*
X215076859Y-110916622D01*
X215000000Y-111303017D01*
X215000000Y-111696983D01*
X215076859Y-112083378D01*
X215227623Y-112447355D01*
X215446499Y-112774926D01*
X215725074Y-113053501D01*
X216052645Y-113272377D01*
X216416622Y-113423141D01*
X216803017Y-113500000D01*
X217196983Y-113500000D01*
X217370315Y-113465522D01*
X215535837Y-115300000D01*
X215391930Y-115300000D01*
X215068725Y-115331833D01*
X214654023Y-115457631D01*
X214271832Y-115661917D01*
X214103578Y-115800000D01*
X213262114Y-115800000D01*
X211684473Y-114222359D01*
X211689435Y-114197411D01*
X211689435Y-113665557D01*
X211585675Y-113143923D01*
X211382144Y-112652554D01*
X211086662Y-112210334D01*
X210710585Y-111834257D01*
X210268365Y-111538775D01*
X209776996Y-111335244D01*
X209255362Y-111231484D01*
X208723508Y-111231484D01*
X208201874Y-111335244D01*
X207710505Y-111538775D01*
X207268285Y-111834257D01*
X206892208Y-112210334D01*
X206596726Y-112652554D01*
X206393195Y-113143923D01*
X206289435Y-113665557D01*
X206289435Y-114197411D01*
X206393195Y-114719045D01*
X206596726Y-115210414D01*
X206892208Y-115652634D01*
X207268285Y-116028711D01*
X207289436Y-116042843D01*
X207289435Y-119806402D01*
X205795837Y-121300000D01*
X204517824Y-121300000D01*
X204626853Y-121136826D01*
X204807770Y-120700054D01*
X204900000Y-120236379D01*
X204900000Y-119763621D01*
X204807770Y-119299946D01*
X204700000Y-119039766D01*
X204700000Y-117607768D01*
X204892750Y-117319297D01*
X205096281Y-116827928D01*
X205200041Y-116306294D01*
X205200041Y-115774440D01*
X205096281Y-115252806D01*
X204892750Y-114761437D01*
X204597268Y-114319217D01*
X204221191Y-113943140D01*
X203778971Y-113647658D01*
X203287602Y-113444127D01*
X202765968Y-113340367D01*
X202234114Y-113340367D01*
X201712480Y-113444127D01*
X201221111Y-113647658D01*
X200778891Y-113943140D01*
X200402814Y-114319217D01*
X200107332Y-114761437D01*
X199903801Y-115252806D01*
X199800041Y-115774440D01*
X199800041Y-116306294D01*
X199903801Y-116827928D01*
X200107332Y-117319297D01*
X200300001Y-117607646D01*
X200300000Y-119039766D01*
X200192230Y-119299946D01*
X200100000Y-119763621D01*
X200100000Y-120236379D01*
X200192230Y-120700054D01*
X200373147Y-121136826D01*
X200482176Y-121300000D01*
X190704163Y-121300000D01*
X188764147Y-119359984D01*
X188916622Y-119423141D01*
X189303017Y-119500000D01*
X189696983Y-119500000D01*
X190083378Y-119423141D01*
X190447355Y-119272377D01*
X190774926Y-119053501D01*
X191053501Y-118774926D01*
X191272377Y-118447355D01*
X191423141Y-118083378D01*
X191500000Y-117696983D01*
X191500000Y-117303017D01*
X191423141Y-116916622D01*
X191272377Y-116552645D01*
X191200000Y-116444325D01*
X191200000Y-111002788D01*
X191212458Y-111007948D01*
X191734092Y-111111708D01*
X192265946Y-111111708D01*
X192787580Y-111007948D01*
X193278949Y-110804417D01*
X193721169Y-110508935D01*
X194097246Y-110132858D01*
X194392728Y-109690638D01*
X194596259Y-109199269D01*
X194700019Y-108677635D01*
X194700019Y-108145781D01*
X194596259Y-107624147D01*
X194392728Y-107132778D01*
X194200019Y-106844369D01*
X194200019Y-103155574D01*
X194392665Y-102867259D01*
X194596196Y-102375890D01*
X194699956Y-101854256D01*
X194699956Y-101322402D01*
X194596196Y-100800768D01*
X194392665Y-100309399D01*
X194097183Y-99867179D01*
X193721106Y-99491102D01*
X193278886Y-99195620D01*
X192787517Y-98992089D01*
X192265883Y-98888329D01*
X191734029Y-98888329D01*
X191212395Y-98992089D01*
X190721026Y-99195620D01*
X190278806Y-99491102D01*
X189902729Y-99867179D01*
X189607247Y-100309399D01*
X189403716Y-100800768D01*
X189299956Y-101322402D01*
X189299956Y-101854256D01*
X189403716Y-102375890D01*
X189607247Y-102867259D01*
X189800020Y-103155764D01*
X189800019Y-106844368D01*
X189607310Y-107132778D01*
X189440253Y-107536090D01*
X188700000Y-106795837D01*
X188700000Y-103411270D01*
X188708852Y-103402418D01*
X188949615Y-103042091D01*
X189115455Y-102641716D01*
X189200000Y-102216681D01*
X189200000Y-101783319D01*
X189115455Y-101358284D01*
X188949615Y-100957909D01*
X188708852Y-100597582D01*
X188402418Y-100291148D01*
X188042091Y-100050385D01*
X187641716Y-99884545D01*
X187216681Y-99800000D01*
X186783319Y-99800000D01*
X186358284Y-99884545D01*
X185957909Y-100050385D01*
X185597582Y-100291148D01*
X185291148Y-100597582D01*
X185050385Y-100957909D01*
X184884545Y-101358284D01*
X184800000Y-101783319D01*
X184800000Y-102216681D01*
X184884545Y-102641716D01*
X185050385Y-103042091D01*
X185291148Y-103402418D01*
X185300001Y-103411271D01*
X185300000Y-107416500D01*
X185291776Y-107500000D01*
X185300000Y-107583500D01*
X185300000Y-107583509D01*
X185324598Y-107833257D01*
X185421806Y-108153708D01*
X185495287Y-108291182D01*
X185579663Y-108449039D01*
X185738868Y-108643031D01*
X185738873Y-108643036D01*
X185792103Y-108707897D01*
X185856965Y-108761128D01*
X186895837Y-109800000D01*
X186783319Y-109800000D01*
X186358284Y-109884545D01*
X185957909Y-110050385D01*
X185597582Y-110291148D01*
X185291148Y-110597582D01*
X185050385Y-110957909D01*
X184884545Y-111358284D01*
X184800000Y-111783319D01*
X184800000Y-112216681D01*
X184884545Y-112641716D01*
X185050385Y-113042091D01*
X185291148Y-113402418D01*
X185300000Y-113411270D01*
X185300001Y-119916490D01*
X185291776Y-120000000D01*
X185324599Y-120333258D01*
X185421807Y-120653709D01*
X185579663Y-120949039D01*
X185738868Y-121143031D01*
X185738877Y-121143040D01*
X185792104Y-121207897D01*
X185856961Y-121261124D01*
X188738872Y-124143035D01*
X188792103Y-124207897D01*
X188856965Y-124261128D01*
X188856969Y-124261132D01*
X189046273Y-124416490D01*
X189050961Y-124420337D01*
X189346291Y-124578194D01*
X189666742Y-124675402D01*
X189916490Y-124700000D01*
X189916498Y-124700000D01*
X190000000Y-124708224D01*
X190083502Y-124700000D01*
X206416500Y-124700000D01*
X206500000Y-124708224D01*
X206583500Y-124700000D01*
X206583510Y-124700000D01*
X206833258Y-124675402D01*
X207153709Y-124578194D01*
X207449039Y-124420337D01*
X207453727Y-124416490D01*
X207643031Y-124261132D01*
X207643035Y-124261128D01*
X207707897Y-124207897D01*
X207761128Y-124143035D01*
X210132471Y-121771692D01*
X210197332Y-121718462D01*
X210250563Y-121653600D01*
X210250567Y-121653596D01*
X210409772Y-121459604D01*
X210567628Y-121164275D01*
X210567629Y-121164274D01*
X210664837Y-120843823D01*
X210689435Y-120594075D01*
X210689435Y-120594067D01*
X210697659Y-120510565D01*
X210689435Y-120427063D01*
X210689435Y-118035647D01*
X211296823Y-118643035D01*
X211350054Y-118707897D01*
X211414916Y-118761128D01*
X211414920Y-118761132D01*
X211539259Y-118863174D01*
X211608912Y-118920337D01*
X211904242Y-119078194D01*
X212224693Y-119175402D01*
X212474441Y-119200000D01*
X212474449Y-119200000D01*
X212557951Y-119208224D01*
X212641453Y-119200000D01*
X214103578Y-119200000D01*
X214271832Y-119338083D01*
X214654023Y-119542369D01*
X215068725Y-119668167D01*
X215391930Y-119700000D01*
X215848070Y-119700000D01*
X216171275Y-119668167D01*
X216585977Y-119542369D01*
X216968168Y-119338083D01*
X217303161Y-119063161D01*
X217578083Y-118728168D01*
X217782369Y-118345977D01*
X217908167Y-117931275D01*
X217929502Y-117714661D01*
X221004163Y-114640000D01*
X221236379Y-114640000D01*
X221700054Y-114547770D01*
X222136826Y-114366853D01*
X222529911Y-114104202D01*
X222864202Y-113769911D01*
X223126853Y-113376826D01*
X223307770Y-112940054D01*
X223400000Y-112476379D01*
X223400000Y-112003621D01*
X223307770Y-111539946D01*
X223126853Y-111103174D01*
X222864202Y-110710089D01*
X222529911Y-110375798D01*
X222136826Y-110113147D01*
X221700054Y-109932230D01*
X221236379Y-109840000D01*
X220763621Y-109840000D01*
X220299946Y-109932230D01*
X219863174Y-110113147D01*
X219470089Y-110375798D01*
X219135798Y-110710089D01*
X218940267Y-111002721D01*
X218923141Y-110916622D01*
X218772377Y-110552645D01*
X218700000Y-110444325D01*
X218700000Y-108204163D01*
X221143036Y-105761127D01*
X221207897Y-105707897D01*
X221261128Y-105643035D01*
X221261132Y-105643031D01*
X221420337Y-105449039D01*
X221462833Y-105369535D01*
X221578194Y-105153709D01*
X221675402Y-104833258D01*
X221700000Y-104583510D01*
X221700000Y-104583502D01*
X221708224Y-104500000D01*
X221700000Y-104416498D01*
X221700000Y-100583500D01*
X221708224Y-100500000D01*
X221700000Y-100416500D01*
X221700000Y-100416490D01*
X221675402Y-100166742D01*
X221578194Y-99846291D01*
X221469550Y-99643032D01*
X221420337Y-99550960D01*
X221288018Y-99389728D01*
X221700054Y-99307770D01*
X222136826Y-99126853D01*
X222529911Y-98864202D01*
X222694113Y-98700000D01*
X225795837Y-98700000D01*
X228300000Y-101204163D01*
X228300000Y-101394194D01*
X224700000Y-101394194D01*
X224464759Y-101417363D01*
X224238558Y-101485981D01*
X224030090Y-101597409D01*
X223847366Y-101747366D01*
X223697409Y-101930090D01*
X223585981Y-102138558D01*
X223517363Y-102364759D01*
X223494194Y-102600000D01*
X223494194Y-104400000D01*
X223517363Y-104635241D01*
X223585981Y-104861442D01*
X223697409Y-105069910D01*
X223847366Y-105252634D01*
X224030090Y-105402591D01*
X224238558Y-105514019D01*
X224464759Y-105582637D01*
X224700000Y-105605806D01*
X228300000Y-105605806D01*
X228300001Y-106679895D01*
X228207524Y-106630465D01*
X227811672Y-106510385D01*
X227503167Y-106480000D01*
X225496833Y-106480000D01*
X225188328Y-106510385D01*
X224792476Y-106630465D01*
X224427657Y-106825465D01*
X224107891Y-107087891D01*
X223845465Y-107407657D01*
X223650465Y-107772476D01*
X223530385Y-108168328D01*
X223489839Y-108580000D01*
X223530385Y-108991672D01*
X223650465Y-109387524D01*
X223845465Y-109752343D01*
X224107891Y-110072109D01*
X224427657Y-110334535D01*
X224792476Y-110529535D01*
X225188328Y-110649615D01*
X225496833Y-110680000D01*
X227503167Y-110680000D01*
X227811672Y-110649615D01*
X228207524Y-110529535D01*
X228300001Y-110480105D01*
X228300001Y-111635836D01*
X227544393Y-112391444D01*
X227416622Y-112416859D01*
X227052645Y-112567623D01*
X226725074Y-112786499D01*
X226446499Y-113065074D01*
X226227623Y-113392645D01*
X226076859Y-113756622D01*
X226000000Y-114143017D01*
X226000000Y-114536983D01*
X226076859Y-114923378D01*
X226227623Y-115287355D01*
X226446499Y-115614926D01*
X226725074Y-115893501D01*
X227052645Y-116112377D01*
X227416622Y-116263141D01*
X227803017Y-116340000D01*
X228196983Y-116340000D01*
X228583378Y-116263141D01*
X228947355Y-116112377D01*
X229274926Y-115893501D01*
X229553501Y-115614926D01*
X229772377Y-115287355D01*
X229923141Y-114923378D01*
X229948556Y-114795607D01*
X231143035Y-113601128D01*
X231207897Y-113547897D01*
X231225000Y-113527057D01*
X231225000Y-151225000D01*
X218179163Y-151225000D01*
X219898357Y-149505806D01*
X221400000Y-149505806D01*
X221635241Y-149482637D01*
X221861442Y-149414019D01*
X222069910Y-149302591D01*
X222252634Y-149152634D01*
X222402591Y-148969910D01*
X222514019Y-148761442D01*
X222582637Y-148535241D01*
X222605806Y-148300000D01*
X222605806Y-147224224D01*
X224700000Y-147224224D01*
X224700000Y-147775776D01*
X224807602Y-148316730D01*
X225018672Y-148826297D01*
X225325098Y-149284896D01*
X225715104Y-149674902D01*
X226173703Y-149981328D01*
X226683270Y-150192398D01*
X227224224Y-150300000D01*
X227775776Y-150300000D01*
X228316730Y-150192398D01*
X228826297Y-149981328D01*
X229284896Y-149674902D01*
X229674902Y-149284896D01*
X229981328Y-148826297D01*
X230192398Y-148316730D01*
X230300000Y-147775776D01*
X230300000Y-147224224D01*
X230192398Y-146683270D01*
X229981328Y-146173703D01*
X229674902Y-145715104D01*
X229284896Y-145325098D01*
X228826297Y-145018672D01*
X228316730Y-144807602D01*
X227775776Y-144700000D01*
X227224224Y-144700000D01*
X226683270Y-144807602D01*
X226173703Y-145018672D01*
X225715104Y-145325098D01*
X225325098Y-145715104D01*
X225018672Y-146173703D01*
X224807602Y-146683270D01*
X224700000Y-147224224D01*
X222605806Y-147224224D01*
X222605806Y-146798357D01*
X224143035Y-145261128D01*
X224207897Y-145207897D01*
X224261128Y-145143035D01*
X224261132Y-145143031D01*
X224420337Y-144949040D01*
X224578193Y-144653710D01*
X224578194Y-144653709D01*
X224675402Y-144333258D01*
X224700000Y-144083510D01*
X224700000Y-144083500D01*
X224708224Y-144000000D01*
X224700000Y-143916500D01*
X224700000Y-137411270D01*
X224708852Y-137402418D01*
X224949615Y-137042091D01*
X225115455Y-136641716D01*
X225200000Y-136216681D01*
X225200000Y-136214378D01*
X225207897Y-136207897D01*
X225420337Y-135949039D01*
X225447153Y-135898869D01*
X225578194Y-135653710D01*
X225675402Y-135333258D01*
X225684587Y-135240000D01*
X225700000Y-135083510D01*
X225700000Y-135083502D01*
X225708224Y-135000000D01*
X225700000Y-134916498D01*
X225700000Y-128849468D01*
X225828838Y-129160510D01*
X226096960Y-129561784D01*
X226300001Y-129764825D01*
X226300000Y-134022103D01*
X226147366Y-134147366D01*
X225997409Y-134330090D01*
X225885981Y-134538558D01*
X225817363Y-134764759D01*
X225794194Y-135000000D01*
X225794194Y-137000000D01*
X225817363Y-137235241D01*
X225885981Y-137461442D01*
X225997409Y-137669910D01*
X226147366Y-137852634D01*
X226330090Y-138002591D01*
X226538558Y-138114019D01*
X226764759Y-138182637D01*
X227000000Y-138205806D01*
X229000000Y-138205806D01*
X229235241Y-138182637D01*
X229461442Y-138114019D01*
X229669910Y-138002591D01*
X229852634Y-137852634D01*
X230002591Y-137669910D01*
X230114019Y-137461442D01*
X230182637Y-137235241D01*
X230205806Y-137000000D01*
X230205806Y-135000000D01*
X230182637Y-134764759D01*
X230114019Y-134538558D01*
X230002591Y-134330090D01*
X229852634Y-134147366D01*
X229700000Y-134022103D01*
X229700000Y-129764824D01*
X229903040Y-129561784D01*
X230171162Y-129160510D01*
X230355848Y-128714639D01*
X230450000Y-128241304D01*
X230450000Y-127758696D01*
X230355848Y-127285361D01*
X230171162Y-126839490D01*
X229903040Y-126438216D01*
X229700000Y-126235176D01*
X229700000Y-125555675D01*
X229772377Y-125447355D01*
X229923141Y-125083378D01*
X230000000Y-124696983D01*
X230000000Y-124303017D01*
X229923141Y-123916622D01*
X229772377Y-123552645D01*
X229553501Y-123225074D01*
X229274926Y-122946499D01*
X228947355Y-122727623D01*
X228583378Y-122576859D01*
X228455607Y-122551444D01*
X225700000Y-119795837D01*
X225700000Y-118395675D01*
X225772377Y-118287355D01*
X225923141Y-117923378D01*
X226000000Y-117536983D01*
X226000000Y-117143017D01*
X225923141Y-116756622D01*
X225772377Y-116392645D01*
X225553501Y-116065074D01*
X225274926Y-115786499D01*
X224947355Y-115567623D01*
X224583378Y-115416859D01*
X224196983Y-115340000D01*
X223803017Y-115340000D01*
X223416622Y-115416859D01*
X223052645Y-115567623D01*
X222725074Y-115786499D01*
X222446499Y-116065074D01*
X222227623Y-116392645D01*
X222076859Y-116756622D01*
X222000000Y-117143017D01*
X222000000Y-117536983D01*
X222076859Y-117923378D01*
X222227623Y-118287355D01*
X222300000Y-118395675D01*
X222300001Y-120416491D01*
X222291776Y-120500000D01*
X222324599Y-120833258D01*
X222421807Y-121153709D01*
X222579663Y-121449039D01*
X222738868Y-121643031D01*
X222738877Y-121643040D01*
X222792104Y-121707897D01*
X222856961Y-121761124D01*
X226051444Y-124955607D01*
X226076859Y-125083378D01*
X226227623Y-125447355D01*
X226300000Y-125555675D01*
X226300000Y-126235176D01*
X226096960Y-126438216D01*
X225867330Y-126781882D01*
X225772377Y-126552645D01*
X225553501Y-126225074D01*
X225274926Y-125946499D01*
X224947355Y-125727623D01*
X224583378Y-125576859D01*
X224196983Y-125500000D01*
X223803017Y-125500000D01*
X223416622Y-125576859D01*
X223052645Y-125727623D01*
X222725074Y-125946499D01*
X222446499Y-126225074D01*
X222227623Y-126552645D01*
X222076859Y-126916622D01*
X222000000Y-127303017D01*
X222000000Y-127696983D01*
X222076859Y-128083378D01*
X222227623Y-128447355D01*
X222300000Y-128555675D01*
X222300001Y-133908687D01*
X221957909Y-134050385D01*
X221597582Y-134291148D01*
X221291148Y-134597582D01*
X221050385Y-134957909D01*
X220884545Y-135358284D01*
X220800000Y-135783319D01*
X220800000Y-136216681D01*
X220884545Y-136641716D01*
X221050385Y-137042091D01*
X221291148Y-137402418D01*
X221300000Y-137411270D01*
X221300001Y-143295836D01*
X221101643Y-143494194D01*
X219600000Y-143494194D01*
X219364759Y-143517363D01*
X219138558Y-143585981D01*
X218930090Y-143697409D01*
X218747366Y-143847366D01*
X218597409Y-144030090D01*
X218485981Y-144238558D01*
X218417363Y-144464759D01*
X218394194Y-144700000D01*
X218394194Y-146201643D01*
X217520000Y-147075837D01*
X217520000Y-145496834D01*
X217489615Y-145188328D01*
X217369535Y-144792476D01*
X217174535Y-144427657D01*
X217120000Y-144361206D01*
X217120000Y-138991268D01*
X217132051Y-138979217D01*
X217338083Y-138728168D01*
X217542368Y-138345976D01*
X217668166Y-137931275D01*
X217710643Y-137500001D01*
X217668166Y-137068726D01*
X217542368Y-136654024D01*
X217338083Y-136271832D01*
X217063161Y-135936839D01*
X216728168Y-135661917D01*
X216345976Y-135457632D01*
X215931274Y-135331834D01*
X215499999Y-135289357D01*
X215068725Y-135331834D01*
X214654024Y-135457632D01*
X214271832Y-135661917D01*
X214020783Y-135867949D01*
X213787949Y-136100783D01*
X213581917Y-136351832D01*
X213377631Y-136734024D01*
X213251834Y-137148725D01*
X213209357Y-137580000D01*
X213251834Y-138011275D01*
X213377631Y-138425976D01*
X213581917Y-138808168D01*
X213720001Y-138976423D01*
X213720000Y-144361207D01*
X213665466Y-144427657D01*
X213470466Y-144792476D01*
X213350386Y-145188328D01*
X213320000Y-145496833D01*
X213320000Y-147503166D01*
X213350385Y-147811671D01*
X213470465Y-148207523D01*
X213665465Y-148572343D01*
X213852299Y-148800000D01*
X212161837Y-148800000D01*
X212196823Y-148760959D01*
X212426655Y-148372560D01*
X212576297Y-147946786D01*
X212640000Y-147500000D01*
X212640000Y-146600000D01*
X210440000Y-146600000D01*
X210440000Y-146620000D01*
X210240000Y-146620000D01*
X210240000Y-146600000D01*
X208040000Y-146600000D01*
X208040000Y-147500000D01*
X208103703Y-147946786D01*
X208253345Y-148372560D01*
X208483177Y-148760959D01*
X208518163Y-148800000D01*
X206827701Y-148800000D01*
X207014535Y-148572343D01*
X207209535Y-148207524D01*
X207329615Y-147811672D01*
X207360000Y-147503167D01*
X207360000Y-145500000D01*
X208040000Y-145500000D01*
X208040000Y-146400000D01*
X210240000Y-146400000D01*
X210240000Y-143652566D01*
X210440000Y-143652566D01*
X210440000Y-146400000D01*
X212640000Y-146400000D01*
X212640000Y-145500000D01*
X212576297Y-145053214D01*
X212426655Y-144627440D01*
X212196823Y-144239041D01*
X211895635Y-143902943D01*
X211534665Y-143632062D01*
X211127784Y-143436808D01*
X210798228Y-143346108D01*
X210440000Y-143652566D01*
X210240000Y-143652566D01*
X209881772Y-143346108D01*
X209552216Y-143436808D01*
X209145335Y-143632062D01*
X208784365Y-143902943D01*
X208483177Y-144239041D01*
X208253345Y-144627440D01*
X208103703Y-145053214D01*
X208040000Y-145500000D01*
X207360000Y-145500000D01*
X207360000Y-145496834D01*
X207329615Y-145188328D01*
X207209535Y-144792476D01*
X207014535Y-144427657D01*
X206960000Y-144361206D01*
X206960000Y-140604163D01*
X208455607Y-139108556D01*
X208583378Y-139083141D01*
X208947355Y-138932377D01*
X209274926Y-138713501D01*
X209553501Y-138434926D01*
X209772377Y-138107355D01*
X209923141Y-137743378D01*
X210000000Y-137356983D01*
X210000000Y-136963017D01*
X209923141Y-136576622D01*
X209772377Y-136212645D01*
X209553501Y-135885074D01*
X209274926Y-135606499D01*
X208947355Y-135387623D01*
X208583378Y-135236859D01*
X208196983Y-135160000D01*
X207803017Y-135160000D01*
X207416622Y-135236859D01*
X207052645Y-135387623D01*
X206944325Y-135460000D01*
X205124163Y-135460000D01*
X204900000Y-135235837D01*
X204900000Y-135003621D01*
X204807770Y-134539946D01*
X204626853Y-134103174D01*
X204364202Y-133710089D01*
X204029911Y-133375798D01*
X203636826Y-133113147D01*
X203200054Y-132932230D01*
X202736379Y-132840000D01*
X202263621Y-132840000D01*
X201799946Y-132932230D01*
X201363174Y-133113147D01*
X200970089Y-133375798D01*
X200635798Y-133710089D01*
X200373147Y-134103174D01*
X200192230Y-134539946D01*
X200100000Y-135003621D01*
X200100000Y-135476379D01*
X200192230Y-135940054D01*
X200373147Y-136376826D01*
X200635798Y-136769911D01*
X200970089Y-137104202D01*
X201363174Y-137366853D01*
X201799946Y-137547770D01*
X202263621Y-137640000D01*
X202495837Y-137640000D01*
X203158869Y-138303032D01*
X203212103Y-138367897D01*
X203276965Y-138421128D01*
X203276968Y-138421131D01*
X203470960Y-138580337D01*
X203628817Y-138664713D01*
X203766291Y-138738194D01*
X203964846Y-138798425D01*
X203839663Y-138950961D01*
X203681807Y-139246291D01*
X203584599Y-139566742D01*
X203551776Y-139900000D01*
X203560001Y-139983510D01*
X203560000Y-144361207D01*
X203505466Y-144427657D01*
X203310466Y-144792476D01*
X203190386Y-145188328D01*
X203160000Y-145496833D01*
X203160000Y-147503166D01*
X203190385Y-147811671D01*
X203310465Y-148207523D01*
X203505465Y-148572343D01*
X203692299Y-148800000D01*
X201880000Y-148800000D01*
X201880000Y-148638794D01*
X201934535Y-148572343D01*
X202129535Y-148207524D01*
X202249615Y-147811672D01*
X202280000Y-147503167D01*
X202280000Y-145496834D01*
X202249615Y-145188328D01*
X202129535Y-144792476D01*
X201934535Y-144427657D01*
X201672109Y-144107891D01*
X201352343Y-143845465D01*
X200987524Y-143650465D01*
X200591672Y-143530385D01*
X200180000Y-143489839D01*
X199768329Y-143530385D01*
X199372477Y-143650465D01*
X199007658Y-143845465D01*
X198687892Y-144107891D01*
X198425466Y-144427657D01*
X198230466Y-144792476D01*
X198110386Y-145188328D01*
X198080000Y-145496833D01*
X198080000Y-147503166D01*
X198110385Y-147811671D01*
X198230465Y-148207523D01*
X198425465Y-148572343D01*
X198480001Y-148638795D01*
X198480001Y-148800000D01*
X196921837Y-148800000D01*
X196956823Y-148760959D01*
X197186655Y-148372560D01*
X197336297Y-147946786D01*
X197400000Y-147500000D01*
X197400000Y-146600000D01*
X195200000Y-146600000D01*
X195200000Y-146620000D01*
X195000000Y-146620000D01*
X195000000Y-146600000D01*
X192800000Y-146600000D01*
X192800000Y-147500000D01*
X192863703Y-147946786D01*
X193013345Y-148372560D01*
X193243177Y-148760959D01*
X193278163Y-148800000D01*
X191587701Y-148800000D01*
X191774535Y-148572343D01*
X191969535Y-148207524D01*
X192089615Y-147811672D01*
X192120000Y-147503167D01*
X192120000Y-145500000D01*
X192800000Y-145500000D01*
X192800000Y-146400000D01*
X195000000Y-146400000D01*
X195000000Y-143652566D01*
X195200000Y-143652566D01*
X195200000Y-146400000D01*
X197400000Y-146400000D01*
X197400000Y-145500000D01*
X197336297Y-145053214D01*
X197186655Y-144627440D01*
X196956823Y-144239041D01*
X196655635Y-143902943D01*
X196294665Y-143632062D01*
X195887784Y-143436808D01*
X195558228Y-143346108D01*
X195200000Y-143652566D01*
X195000000Y-143652566D01*
X194641772Y-143346108D01*
X194312216Y-143436808D01*
X193905335Y-143632062D01*
X193544365Y-143902943D01*
X193243177Y-144239041D01*
X193013345Y-144627440D01*
X192863703Y-145053214D01*
X192800000Y-145500000D01*
X192120000Y-145500000D01*
X192120000Y-145496834D01*
X192089615Y-145188328D01*
X191969535Y-144792476D01*
X191774535Y-144427657D01*
X191512109Y-144107891D01*
X191200000Y-143851749D01*
X191200000Y-138555675D01*
X191272377Y-138447355D01*
X191423141Y-138083378D01*
X191500000Y-137696983D01*
X191500000Y-137303017D01*
X191423141Y-136916622D01*
X191376085Y-136803017D01*
X195000000Y-136803017D01*
X195000000Y-137196983D01*
X195076859Y-137583378D01*
X195227623Y-137947355D01*
X195446499Y-138274926D01*
X195725074Y-138553501D01*
X196052645Y-138772377D01*
X196416622Y-138923141D01*
X196803017Y-139000000D01*
X197196983Y-139000000D01*
X197583378Y-138923141D01*
X197947355Y-138772377D01*
X198274926Y-138553501D01*
X198553501Y-138274926D01*
X198772377Y-137947355D01*
X198923141Y-137583378D01*
X199000000Y-137196983D01*
X199000000Y-136803017D01*
X198923141Y-136416622D01*
X198772377Y-136052645D01*
X198553501Y-135725074D01*
X198274926Y-135446499D01*
X197947355Y-135227623D01*
X197583378Y-135076859D01*
X197196983Y-135000000D01*
X196803017Y-135000000D01*
X196416622Y-135076859D01*
X196052645Y-135227623D01*
X195725074Y-135446499D01*
X195446499Y-135725074D01*
X195227623Y-136052645D01*
X195076859Y-136416622D01*
X195000000Y-136803017D01*
X191376085Y-136803017D01*
X191272377Y-136552645D01*
X191053501Y-136225074D01*
X190774926Y-135946499D01*
X190447355Y-135727623D01*
X190083378Y-135576859D01*
X189696983Y-135500000D01*
X189303017Y-135500000D01*
X188916622Y-135576859D01*
X188552645Y-135727623D01*
X188225074Y-135946499D01*
X187946499Y-136225074D01*
X187727623Y-136552645D01*
X187576859Y-136916622D01*
X187500000Y-137303017D01*
X187500000Y-137696983D01*
X187576859Y-138083378D01*
X187727623Y-138447355D01*
X187800000Y-138555675D01*
X187800001Y-145896490D01*
X187791776Y-145980000D01*
X187824599Y-146313258D01*
X187920000Y-146627752D01*
X187920000Y-147503166D01*
X187950385Y-147811671D01*
X188070465Y-148207523D01*
X188265465Y-148572343D01*
X188452299Y-148800000D01*
X187704163Y-148800000D01*
X186941240Y-148037077D01*
X187009615Y-147811672D01*
X187040000Y-147503167D01*
X187040000Y-145496834D01*
X187009615Y-145188328D01*
X186889535Y-144792476D01*
X186694535Y-144427657D01*
X186432109Y-144107891D01*
X186112343Y-143845465D01*
X185747524Y-143650465D01*
X185351672Y-143530385D01*
X184940000Y-143489839D01*
X184528329Y-143530385D01*
X184410340Y-143566177D01*
X184200000Y-143355837D01*
X184200000Y-126643017D01*
X195000000Y-126643017D01*
X195000000Y-127036983D01*
X195076859Y-127423378D01*
X195227623Y-127787355D01*
X195446499Y-128114926D01*
X195725074Y-128393501D01*
X196052645Y-128612377D01*
X196416622Y-128763141D01*
X196803017Y-128840000D01*
X197196983Y-128840000D01*
X197583378Y-128763141D01*
X197947355Y-128612377D01*
X198055675Y-128540000D01*
X206428731Y-128540000D01*
X206520782Y-128632051D01*
X206771832Y-128838082D01*
X207154023Y-129042368D01*
X207568725Y-129168166D01*
X207999999Y-129210643D01*
X208431274Y-129168166D01*
X208845976Y-129042368D01*
X209228167Y-128838082D01*
X209563161Y-128563161D01*
X209838082Y-128228167D01*
X210042368Y-127845976D01*
X210168166Y-127431274D01*
X210210643Y-126999999D01*
X210168166Y-126568725D01*
X210042368Y-126154023D01*
X209838082Y-125771832D01*
X209632051Y-125520782D01*
X209319217Y-125207949D01*
X209068168Y-125001917D01*
X208685976Y-124797631D01*
X208271275Y-124671834D01*
X207840000Y-124629357D01*
X207408725Y-124671834D01*
X206994024Y-124797631D01*
X206611832Y-125001917D01*
X206443578Y-125140000D01*
X198055675Y-125140000D01*
X197947355Y-125067623D01*
X197583378Y-124916859D01*
X197196983Y-124840000D01*
X196803017Y-124840000D01*
X196416622Y-124916859D01*
X196052645Y-125067623D01*
X195725074Y-125286499D01*
X195446499Y-125565074D01*
X195227623Y-125892645D01*
X195076859Y-126256622D01*
X195000000Y-126643017D01*
X184200000Y-126643017D01*
X184200000Y-92003621D01*
X192100000Y-92003621D01*
X192100000Y-92476379D01*
X192192230Y-92940054D01*
X192373147Y-93376826D01*
X192635798Y-93769911D01*
X192800001Y-93934114D01*
X192800001Y-94473939D01*
X192791776Y-94557448D01*
X192824599Y-94890706D01*
X192921807Y-95211157D01*
X193079663Y-95506487D01*
X193238868Y-95700479D01*
X193238877Y-95700488D01*
X193292104Y-95765345D01*
X193314384Y-95783630D01*
X193310688Y-95802209D01*
X193310688Y-96334063D01*
X193414448Y-96855697D01*
X193617979Y-97347066D01*
X193913461Y-97789286D01*
X194289538Y-98165363D01*
X194731758Y-98460845D01*
X195223127Y-98664376D01*
X195744761Y-98768136D01*
X196276615Y-98768136D01*
X196798249Y-98664376D01*
X197289618Y-98460845D01*
X197731838Y-98165363D01*
X198107915Y-97789286D01*
X198403397Y-97347066D01*
X198606928Y-96855697D01*
X198710688Y-96334063D01*
X198710688Y-95802209D01*
X198606928Y-95280575D01*
X198403397Y-94789206D01*
X198107915Y-94346986D01*
X197731838Y-93970909D01*
X197289618Y-93675427D01*
X196798249Y-93471896D01*
X196590889Y-93430649D01*
X196626853Y-93376826D01*
X196807770Y-92940054D01*
X196900000Y-92476379D01*
X196900000Y-92003621D01*
X196807770Y-91539946D01*
X196626853Y-91103174D01*
X196364202Y-90710089D01*
X196029911Y-90375798D01*
X195636826Y-90113147D01*
X195200054Y-89932230D01*
X194736379Y-89840000D01*
X194263621Y-89840000D01*
X193799946Y-89932230D01*
X193363174Y-90113147D01*
X192970089Y-90375798D01*
X192635798Y-90710089D01*
X192373147Y-91103174D01*
X192192230Y-91539946D01*
X192100000Y-92003621D01*
X184200000Y-92003621D01*
X184200000Y-89700000D01*
X196736435Y-89700000D01*
X196786499Y-89774926D01*
X197065074Y-90053501D01*
X197392645Y-90272377D01*
X197756622Y-90423141D01*
X198143017Y-90500000D01*
X198536983Y-90500000D01*
X198923378Y-90423141D01*
X199287355Y-90272377D01*
X199614926Y-90053501D01*
X199893501Y-89774926D01*
X200112377Y-89447355D01*
X200263141Y-89083378D01*
X200340000Y-88696983D01*
X200340000Y-88303017D01*
X200263141Y-87916622D01*
X200112377Y-87552645D01*
X200042587Y-87448197D01*
X200044393Y-87448556D01*
X200799960Y-88204123D01*
X200799959Y-91848274D01*
X200778809Y-91862406D01*
X200402732Y-92238483D01*
X200107250Y-92680703D01*
X199903719Y-93172072D01*
X199799959Y-93693706D01*
X199799959Y-94225560D01*
X199903719Y-94747194D01*
X200107250Y-95238563D01*
X200402732Y-95680783D01*
X200778809Y-96056860D01*
X201221029Y-96352342D01*
X201712398Y-96555873D01*
X202234032Y-96659633D01*
X202765886Y-96659633D01*
X203287520Y-96555873D01*
X203778889Y-96352342D01*
X204221109Y-96056860D01*
X204597186Y-95680783D01*
X204892668Y-95238563D01*
X205035045Y-94894833D01*
X205082736Y-94805610D01*
X205208534Y-94390908D01*
X205251011Y-93959633D01*
X205219909Y-93643846D01*
X205663755Y-93200000D01*
X206944325Y-93200000D01*
X207052645Y-93272377D01*
X207416622Y-93423141D01*
X207803017Y-93500000D01*
X208134094Y-93500000D01*
X207710468Y-93675471D01*
X207268248Y-93970953D01*
X206892171Y-94347030D01*
X206596689Y-94789250D01*
X206393158Y-95280619D01*
X206289398Y-95802253D01*
X206289398Y-96334107D01*
X206294360Y-96359055D01*
X205853415Y-96800000D01*
X201083499Y-96800000D01*
X200999999Y-96791776D01*
X200916499Y-96800000D01*
X200916490Y-96800000D01*
X200666742Y-96824598D01*
X200346291Y-96921806D01*
X200208817Y-96995287D01*
X200050960Y-97079663D01*
X199856968Y-97238869D01*
X199856965Y-97238872D01*
X199792103Y-97292103D01*
X199738872Y-97356965D01*
X197856961Y-99238876D01*
X197792104Y-99292103D01*
X197738877Y-99356960D01*
X197738868Y-99356969D01*
X197579663Y-99550961D01*
X197421807Y-99846291D01*
X197324599Y-100166742D01*
X197291776Y-100500000D01*
X197300001Y-100583510D01*
X197300000Y-108795837D01*
X194867563Y-111228274D01*
X194802706Y-111281501D01*
X194749479Y-111346358D01*
X194749470Y-111346367D01*
X194590265Y-111540359D01*
X194512742Y-111685395D01*
X194289452Y-111834593D01*
X193913375Y-112210670D01*
X193617893Y-112652890D01*
X193414362Y-113144259D01*
X193310602Y-113665893D01*
X193310602Y-114197747D01*
X193414362Y-114719381D01*
X193617893Y-115210750D01*
X193913375Y-115652970D01*
X194289452Y-116029047D01*
X194731672Y-116324529D01*
X195223041Y-116528060D01*
X195744675Y-116631820D01*
X196276529Y-116631820D01*
X196798163Y-116528060D01*
X197289532Y-116324529D01*
X197731752Y-116029047D01*
X198107829Y-115652970D01*
X198403311Y-115210750D01*
X198606842Y-114719381D01*
X198710602Y-114197747D01*
X198710602Y-113665893D01*
X198606842Y-113144259D01*
X198403311Y-112652890D01*
X198342413Y-112561750D01*
X200143036Y-110761127D01*
X200207897Y-110707897D01*
X200270369Y-110631776D01*
X200420336Y-110449040D01*
X200420337Y-110449039D01*
X200578194Y-110153709D01*
X200675402Y-109833258D01*
X200700000Y-109583510D01*
X200700000Y-109583501D01*
X200708224Y-109500001D01*
X200700000Y-109416501D01*
X200700000Y-106664824D01*
X200938216Y-106903040D01*
X201339490Y-107171162D01*
X201785361Y-107355848D01*
X202258696Y-107450000D01*
X202741304Y-107450000D01*
X203214639Y-107355848D01*
X203660510Y-107171162D01*
X204061784Y-106903040D01*
X204403040Y-106561784D01*
X204671162Y-106160510D01*
X204855848Y-105714639D01*
X204950000Y-105241304D01*
X204950000Y-104758696D01*
X204855848Y-104285361D01*
X204671162Y-103839490D01*
X204403040Y-103438216D01*
X204061784Y-103096960D01*
X203660510Y-102828838D01*
X203214639Y-102644152D01*
X202741304Y-102550000D01*
X202258696Y-102550000D01*
X201785361Y-102644152D01*
X201339490Y-102828838D01*
X200938216Y-103096960D01*
X200700000Y-103335176D01*
X200700000Y-101204163D01*
X201704163Y-100200000D01*
X206474078Y-100200000D01*
X206557578Y-100208224D01*
X206641078Y-100200000D01*
X206641088Y-100200000D01*
X206890836Y-100175402D01*
X207211287Y-100078194D01*
X207506617Y-99920337D01*
X207596842Y-99846291D01*
X207700609Y-99761132D01*
X207700613Y-99761128D01*
X207765475Y-99707897D01*
X207818709Y-99643032D01*
X208698523Y-98763218D01*
X208723471Y-98768180D01*
X209255325Y-98768180D01*
X209776959Y-98664420D01*
X210268328Y-98460889D01*
X210710548Y-98165407D01*
X211086625Y-97789330D01*
X211382107Y-97347110D01*
X211585638Y-96855741D01*
X211689398Y-96334107D01*
X211689398Y-95802253D01*
X211585638Y-95280619D01*
X211382107Y-94789250D01*
X211086625Y-94347030D01*
X210710548Y-93970953D01*
X210268328Y-93675471D01*
X209776959Y-93471940D01*
X209255325Y-93368180D01*
X208723471Y-93368180D01*
X208709224Y-93371014D01*
X208947355Y-93272377D01*
X209274926Y-93053501D01*
X209553501Y-92774926D01*
X209772377Y-92447355D01*
X209923141Y-92083378D01*
X210000000Y-91696983D01*
X210000000Y-91303017D01*
X209923141Y-90916622D01*
X209772377Y-90552645D01*
X209553501Y-90225074D01*
X209539341Y-90210914D01*
X209774926Y-90053501D01*
X210053501Y-89774926D01*
X210272377Y-89447355D01*
X210423141Y-89083378D01*
X210500000Y-88696983D01*
X210500000Y-88303017D01*
X210423141Y-87916622D01*
X210272377Y-87552645D01*
X210053501Y-87225074D01*
X209774926Y-86946499D01*
X209447355Y-86727623D01*
X209083378Y-86576859D01*
X208955607Y-86551444D01*
X207200000Y-84795837D01*
X207200000Y-80303017D01*
X208500000Y-80303017D01*
X208500000Y-80696983D01*
X208576859Y-81083378D01*
X208727623Y-81447355D01*
X208946499Y-81774926D01*
X209225074Y-82053501D01*
X209552645Y-82272377D01*
X209916622Y-82423141D01*
X210303017Y-82500000D01*
X210696983Y-82500000D01*
X211083378Y-82423141D01*
X211447355Y-82272377D01*
X211555675Y-82200000D01*
X213916500Y-82200000D01*
X214000000Y-82208224D01*
X214083500Y-82200000D01*
X214083510Y-82200000D01*
X214333258Y-82175402D01*
X214653709Y-82078194D01*
X214949039Y-81920337D01*
X215143031Y-81761132D01*
X215143035Y-81761128D01*
X215207897Y-81707897D01*
X215261128Y-81643035D01*
X219365935Y-77538228D01*
X223346108Y-77538228D01*
X223436808Y-77867784D01*
X223632062Y-78274665D01*
X223902943Y-78635635D01*
X224239041Y-78936823D01*
X224627440Y-79166655D01*
X225053214Y-79316297D01*
X225500000Y-79380000D01*
X226400000Y-79380000D01*
X226400000Y-77180000D01*
X226600000Y-77180000D01*
X226600000Y-79380000D01*
X227500000Y-79380000D01*
X227946786Y-79316297D01*
X228372560Y-79166655D01*
X228760959Y-78936823D01*
X229097057Y-78635635D01*
X229367938Y-78274665D01*
X229563192Y-77867784D01*
X229653892Y-77538228D01*
X229347434Y-77180000D01*
X226600000Y-77180000D01*
X226400000Y-77180000D01*
X223652566Y-77180000D01*
X223346108Y-77538228D01*
X219365935Y-77538228D01*
X220282391Y-76621772D01*
X223346108Y-76621772D01*
X223652566Y-76980000D01*
X226400000Y-76980000D01*
X226400000Y-74780000D01*
X226600000Y-74780000D01*
X226600000Y-76980000D01*
X229347434Y-76980000D01*
X229653892Y-76621772D01*
X229563192Y-76292216D01*
X229367938Y-75885335D01*
X229097057Y-75524365D01*
X228760959Y-75223177D01*
X228372560Y-74993345D01*
X227946786Y-74843703D01*
X227500000Y-74780000D01*
X226600000Y-74780000D01*
X226400000Y-74780000D01*
X225500000Y-74780000D01*
X225053214Y-74843703D01*
X224627440Y-74993345D01*
X224239041Y-75223177D01*
X223902943Y-75524365D01*
X223632062Y-75885335D01*
X223436808Y-76292216D01*
X223346108Y-76621772D01*
X220282391Y-76621772D01*
X223204163Y-73700000D01*
X223804171Y-73700000D01*
X223847366Y-73752634D01*
X224030090Y-73902591D01*
X224238558Y-74014019D01*
X224464759Y-74082637D01*
X224700000Y-74105806D01*
X228300000Y-74105806D01*
X228535241Y-74082637D01*
X228761442Y-74014019D01*
X228969910Y-73902591D01*
X229152634Y-73752634D01*
X229302591Y-73569910D01*
X229414019Y-73361442D01*
X229482637Y-73135241D01*
X229505806Y-72900000D01*
X229505806Y-71100000D01*
X229482637Y-70864759D01*
X229414019Y-70638558D01*
X229302591Y-70430090D01*
X229152634Y-70247366D01*
X228969910Y-70097409D01*
X228761442Y-69985981D01*
X228535241Y-69917363D01*
X228300000Y-69894194D01*
X224700000Y-69894194D01*
X224464759Y-69917363D01*
X224238558Y-69985981D01*
X224030090Y-70097409D01*
X223847366Y-70247366D01*
X223804171Y-70300000D01*
X222583499Y-70300000D01*
X222499999Y-70291776D01*
X222416499Y-70300000D01*
X222416490Y-70300000D01*
X222166742Y-70324598D01*
X221846291Y-70421806D01*
X221550961Y-70579663D01*
X221550959Y-70579664D01*
X221550960Y-70579664D01*
X221356968Y-70738869D01*
X221356965Y-70738872D01*
X221292103Y-70792103D01*
X221238872Y-70856965D01*
X213295837Y-78800000D01*
X211555675Y-78800000D01*
X211447355Y-78727623D01*
X211083378Y-78576859D01*
X210696983Y-78500000D01*
X210303017Y-78500000D01*
X209916622Y-78576859D01*
X209552645Y-78727623D01*
X209225074Y-78946499D01*
X208946499Y-79225074D01*
X208727623Y-79552645D01*
X208576859Y-79916622D01*
X208500000Y-80303017D01*
X207200000Y-80303017D01*
X207200000Y-64911270D01*
X207208852Y-64902418D01*
X207449615Y-64542091D01*
X207615455Y-64141716D01*
X207700000Y-63716681D01*
X207700000Y-63704163D01*
X208294194Y-63109969D01*
X208294194Y-64500000D01*
X208317363Y-64735241D01*
X208385981Y-64961442D01*
X208497409Y-65169910D01*
X208647366Y-65352634D01*
X208800001Y-65477897D01*
X208800000Y-69284325D01*
X208727623Y-69392645D01*
X208576859Y-69756622D01*
X208500000Y-70143017D01*
X208500000Y-70536983D01*
X208576859Y-70923378D01*
X208727623Y-71287355D01*
X208946499Y-71614926D01*
X209225074Y-71893501D01*
X209552645Y-72112377D01*
X209916622Y-72263141D01*
X210303017Y-72340000D01*
X210696983Y-72340000D01*
X211083378Y-72263141D01*
X211447355Y-72112377D01*
X211774926Y-71893501D01*
X212053501Y-71614926D01*
X212272377Y-71287355D01*
X212423141Y-70923378D01*
X212500000Y-70536983D01*
X212500000Y-70143017D01*
X212423141Y-69756622D01*
X212272377Y-69392645D01*
X212200000Y-69284325D01*
X212200000Y-65590825D01*
X224550597Y-65590825D01*
X224864643Y-66297388D01*
X225656115Y-66738554D01*
X226518446Y-67016836D01*
X227418497Y-67121538D01*
X228321681Y-67048637D01*
X229193287Y-66800935D01*
X229999822Y-66387949D01*
X230135357Y-66297388D01*
X230449403Y-65590825D01*
X227500000Y-62641421D01*
X224550597Y-65590825D01*
X212200000Y-65590825D01*
X212200000Y-65477897D01*
X212352634Y-65352634D01*
X212502591Y-65169910D01*
X212614019Y-64961442D01*
X212682637Y-64735241D01*
X212705806Y-64500000D01*
X212705806Y-62500000D01*
X212697779Y-62418497D01*
X222878462Y-62418497D01*
X222951363Y-63321681D01*
X223199065Y-64193287D01*
X223612051Y-64999822D01*
X223702612Y-65135357D01*
X224409175Y-65449403D01*
X227358579Y-62500000D01*
X224409175Y-59550597D01*
X223702612Y-59864643D01*
X223261446Y-60656115D01*
X222983164Y-61518446D01*
X222878462Y-62418497D01*
X212697779Y-62418497D01*
X212682637Y-62264759D01*
X212614019Y-62038558D01*
X212502591Y-61830090D01*
X212395829Y-61700000D01*
X217444325Y-61700000D01*
X217552645Y-61772377D01*
X217916622Y-61923141D01*
X218303017Y-62000000D01*
X218696983Y-62000000D01*
X219083378Y-61923141D01*
X219447355Y-61772377D01*
X219774926Y-61553501D01*
X220053501Y-61274926D01*
X220272377Y-60947355D01*
X220423141Y-60583378D01*
X220500000Y-60196983D01*
X220500000Y-59803017D01*
X220423141Y-59416622D01*
X220272377Y-59052645D01*
X220086860Y-58775000D01*
X224832469Y-58775000D01*
X224550597Y-59409175D01*
M02*
