%TF.GenerationSoftware,KiCad,Pcbnew,(5.1.5-0-10_14)*%
%TF.CreationDate,2020-09-13T21:17:04+01:00*%
%TF.ProjectId,PhasePCB,50686173-6550-4434-922e-6b696361645f,rev?*%
%TF.SameCoordinates,Original*%
%TF.FileFunction,Legend,Bot*%
%TF.FilePolarity,Positive*%
%FSLAX46Y46*%
G04 Gerber Fmt 4.6, Leading zero omitted, Abs format (unit mm)*
G04 Created by KiCad (PCBNEW (5.1.5-0-10_14)) date 2020-09-13 21:17:04*
%MOMM*%
%LPD*%
G04 APERTURE LIST*
%ADD10C,0.150000*%
%ADD11C,0.200000*%
G04 APERTURE END LIST*
D10*
X232500000Y-57500000D02*
X172500000Y-57500000D01*
X232500000Y-152500000D02*
X232500000Y-57500000D01*
X172500000Y-152500000D02*
X232500000Y-152500000D01*
X172500000Y-57500000D02*
X172500000Y-152500000D01*
D11*
X197102380Y-100357142D02*
X198102380Y-100690476D01*
X197102380Y-101023809D01*
X198102380Y-101785714D02*
X197578571Y-101785714D01*
X197483333Y-101738095D01*
X197435714Y-101642857D01*
X197435714Y-101452380D01*
X197483333Y-101357142D01*
X198054761Y-101785714D02*
X198102380Y-101690476D01*
X198102380Y-101452380D01*
X198054761Y-101357142D01*
X197959523Y-101309523D01*
X197864285Y-101309523D01*
X197769047Y-101357142D01*
X197721428Y-101452380D01*
X197721428Y-101690476D01*
X197673809Y-101785714D01*
X198102380Y-102404761D02*
X198054761Y-102309523D01*
X197959523Y-102261904D01*
X197102380Y-102261904D01*
X197435714Y-102690476D02*
X198102380Y-102928571D01*
X197435714Y-103166666D01*
X198054761Y-103928571D02*
X198102380Y-103833333D01*
X198102380Y-103642857D01*
X198054761Y-103547619D01*
X197959523Y-103500000D01*
X197578571Y-103500000D01*
X197483333Y-103547619D01*
X197435714Y-103642857D01*
X197435714Y-103833333D01*
X197483333Y-103928571D01*
X197578571Y-103976190D01*
X197673809Y-103976190D01*
X197769047Y-103500000D01*
X198054761Y-105119047D02*
X198102380Y-105214285D01*
X198102380Y-105404761D01*
X198054761Y-105500000D01*
X197959523Y-105547619D01*
X197911904Y-105547619D01*
X197816666Y-105500000D01*
X197769047Y-105404761D01*
X197769047Y-105261904D01*
X197721428Y-105166666D01*
X197626190Y-105119047D01*
X197578571Y-105119047D01*
X197483333Y-105166666D01*
X197435714Y-105261904D01*
X197435714Y-105404761D01*
X197483333Y-105500000D01*
X198102380Y-106119047D02*
X198054761Y-106023809D01*
X198007142Y-105976190D01*
X197911904Y-105928571D01*
X197626190Y-105928571D01*
X197530952Y-105976190D01*
X197483333Y-106023809D01*
X197435714Y-106119047D01*
X197435714Y-106261904D01*
X197483333Y-106357142D01*
X197530952Y-106404761D01*
X197626190Y-106452380D01*
X197911904Y-106452380D01*
X198007142Y-106404761D01*
X198054761Y-106357142D01*
X198102380Y-106261904D01*
X198102380Y-106119047D01*
X198054761Y-107309523D02*
X198102380Y-107214285D01*
X198102380Y-107023809D01*
X198054761Y-106928571D01*
X198007142Y-106880952D01*
X197911904Y-106833333D01*
X197626190Y-106833333D01*
X197530952Y-106880952D01*
X197483333Y-106928571D01*
X197435714Y-107023809D01*
X197435714Y-107214285D01*
X197483333Y-107309523D01*
X198102380Y-107738095D02*
X197102380Y-107738095D01*
X197721428Y-107833333D02*
X198102380Y-108119047D01*
X197435714Y-108119047D02*
X197816666Y-107738095D01*
X198054761Y-108928571D02*
X198102380Y-108833333D01*
X198102380Y-108642857D01*
X198054761Y-108547619D01*
X197959523Y-108500000D01*
X197578571Y-108500000D01*
X197483333Y-108547619D01*
X197435714Y-108642857D01*
X197435714Y-108833333D01*
X197483333Y-108928571D01*
X197578571Y-108976190D01*
X197673809Y-108976190D01*
X197769047Y-108500000D01*
X197435714Y-109261904D02*
X197435714Y-109642857D01*
X197102380Y-109404761D02*
X197959523Y-109404761D01*
X198054761Y-109452380D01*
X198102380Y-109547619D01*
X198102380Y-109642857D01*
X199135714Y-101809523D02*
X199135714Y-102190476D01*
X198802380Y-101952380D02*
X199659523Y-101952380D01*
X199754761Y-102000000D01*
X199802380Y-102095238D01*
X199802380Y-102190476D01*
X199802380Y-102523809D02*
X198802380Y-102523809D01*
X199802380Y-102952380D02*
X199278571Y-102952380D01*
X199183333Y-102904761D01*
X199135714Y-102809523D01*
X199135714Y-102666666D01*
X199183333Y-102571428D01*
X199230952Y-102523809D01*
X199802380Y-103428571D02*
X199135714Y-103428571D01*
X198802380Y-103428571D02*
X198850000Y-103380952D01*
X198897619Y-103428571D01*
X198850000Y-103476190D01*
X198802380Y-103428571D01*
X198897619Y-103428571D01*
X199754761Y-103857142D02*
X199802380Y-103952380D01*
X199802380Y-104142857D01*
X199754761Y-104238095D01*
X199659523Y-104285714D01*
X199611904Y-104285714D01*
X199516666Y-104238095D01*
X199469047Y-104142857D01*
X199469047Y-104000000D01*
X199421428Y-103904761D01*
X199326190Y-103857142D01*
X199278571Y-103857142D01*
X199183333Y-103904761D01*
X199135714Y-104000000D01*
X199135714Y-104142857D01*
X199183333Y-104238095D01*
X199754761Y-105428571D02*
X199802380Y-105523809D01*
X199802380Y-105714285D01*
X199754761Y-105809523D01*
X199659523Y-105857142D01*
X199611904Y-105857142D01*
X199516666Y-105809523D01*
X199469047Y-105714285D01*
X199469047Y-105571428D01*
X199421428Y-105476190D01*
X199326190Y-105428571D01*
X199278571Y-105428571D01*
X199183333Y-105476190D01*
X199135714Y-105571428D01*
X199135714Y-105714285D01*
X199183333Y-105809523D01*
X199802380Y-106285714D02*
X199135714Y-106285714D01*
X198802380Y-106285714D02*
X198850000Y-106238095D01*
X198897619Y-106285714D01*
X198850000Y-106333333D01*
X198802380Y-106285714D01*
X198897619Y-106285714D01*
X199802380Y-107190476D02*
X198802380Y-107190476D01*
X199754761Y-107190476D02*
X199802380Y-107095238D01*
X199802380Y-106904761D01*
X199754761Y-106809523D01*
X199707142Y-106761904D01*
X199611904Y-106714285D01*
X199326190Y-106714285D01*
X199230952Y-106761904D01*
X199183333Y-106809523D01*
X199135714Y-106904761D01*
X199135714Y-107095238D01*
X199183333Y-107190476D01*
X199754761Y-108047619D02*
X199802380Y-107952380D01*
X199802380Y-107761904D01*
X199754761Y-107666666D01*
X199659523Y-107619047D01*
X199278571Y-107619047D01*
X199183333Y-107666666D01*
X199135714Y-107761904D01*
X199135714Y-107952380D01*
X199183333Y-108047619D01*
X199278571Y-108095238D01*
X199373809Y-108095238D01*
X199469047Y-107619047D01*
M02*
