M48
; DRILL file {KiCad (5.1.5-0-10_14)} date Sunday, 13 September 2020 at 21:17:21
; FORMAT={-:-/ absolute / metric / decimal}
; #@! TF.CreationDate,2020-09-13T21:17:21+01:00
; #@! TF.GenerationSoftware,Kicad,Pcbnew,(5.1.5-0-10_14)
FMAT,2
METRIC
T1C0.800
T2C1.000
T3C1.200
T4C1.500
T5C1.600
T6C2.000
T7C3.200
T8C2.500
T9C3.200
%
G90
G05
T1
X217.0Y-101.34
X217.0Y-111.5
X208.0Y-91.5
X218.16Y-91.5
X215.5Y-117.5
X215.5Y-137.5
X189.5Y-117.5
X189.5Y-137.5
X210.5Y-70.34
X210.5Y-80.5
X228.0Y-114.34
X228.0Y-124.5
X224.0Y-117.34
X224.0Y-127.5
X218.5Y-60.0
X218.5Y-87.5
X200.5Y-65.5
X200.5Y-85.5
X198.34Y-88.5
X208.5Y-88.5
X208.0Y-127.0
X208.0Y-137.16
X197.0Y-126.84
X197.0Y-137.0
T2
X187.0Y-102.0
X187.0Y-112.0
X223.0Y-136.0
X228.0Y-136.0
X205.5Y-63.5
X210.5Y-63.5
T3
X226.5Y-72.0
X226.5Y-77.08
X226.5Y-103.5
X226.5Y-108.58
X221.0Y-97.0
X221.0Y-112.24
X178.5Y-123.92
X178.5Y-129.0
X187.0Y-63.5
X192.08Y-63.5
X184.94Y-146.5
X190.02Y-146.5
X195.1Y-146.5
X200.18Y-146.5
X205.26Y-146.5
X210.34Y-146.5
X215.42Y-146.5
X220.5Y-146.5
X226.5Y-87.5
X226.5Y-92.58
X179.26Y-72.0
X194.5Y-72.0
X194.5Y-77.0
X194.5Y-92.24
X178.5Y-103.42
X178.5Y-108.5
X182.5Y-80.5
X182.5Y-88.0
X202.5Y-120.0
X202.5Y-135.24
T4
X228.0Y-128.0
T5
X178.5Y-138.0
X178.5Y-115.0
X179.5Y-96.0
T6
X192.0Y-101.588
X192.0Y-108.412
X196.011Y-113.932
X196.011Y-96.068
X202.5Y-93.96
X202.5Y-116.04
X208.989Y-96.068
X208.989Y-113.931
X213.0Y-101.588
T7
X227.5Y-62.5
T8
X202.5Y-105.0
T9
X177.5Y-147.5
X227.5Y-147.5
X177.5Y-62.5
T0
M30
