%TF.GenerationSoftware,KiCad,Pcbnew,(5.1.5-0-10_14)*%
%TF.CreationDate,2020-09-13T21:17:04+01:00*%
%TF.ProjectId,PhasePCB,50686173-6550-4434-922e-6b696361645f,rev?*%
%TF.SameCoordinates,Original*%
%TF.FileFunction,Copper,L1,Top*%
%TF.FilePolarity,Positive*%
%FSLAX46Y46*%
G04 Gerber Fmt 4.6, Leading zero omitted, Abs format (unit mm)*
G04 Created by KiCad (PCBNEW (5.1.5-0-10_14)) date 2020-09-13 21:17:04*
%MOMM*%
%LPD*%
G04 APERTURE LIST*
%ADD10C,0.150000*%
%ADD11C,1.600000*%
%ADD12O,1.600000X1.600000*%
%ADD13R,2.400000X2.400000*%
%ADD14C,2.400000*%
%ADD15C,6.400000*%
%ADD16C,2.800000*%
%ADD17R,3.600000X1.800000*%
%ADD18O,3.600000X1.800000*%
%ADD19R,1.800000X3.600000*%
%ADD20O,1.800000X3.600000*%
%ADD21C,3.000000*%
%ADD22O,2.400000X2.400000*%
%ADD23R,2.000000X2.000000*%
%ADD24C,2.000000*%
%ADD25C,2.500000*%
%ADD26C,1.000000*%
%ADD27C,2.000000*%
%ADD28C,0.800000*%
G04 APERTURE END LIST*
D10*
X232500000Y-57500000D02*
X172500000Y-57500000D01*
X232500000Y-152500000D02*
X232500000Y-57500000D01*
X172500000Y-152500000D02*
X232500000Y-152500000D01*
X172500000Y-57500000D02*
X172500000Y-152500000D01*
D11*
X200500000Y-85500000D03*
D12*
X200500000Y-65500000D03*
D13*
X182500000Y-80500000D03*
D14*
X182500000Y-88000000D03*
D11*
X189500000Y-137500000D03*
D12*
X189500000Y-117500000D03*
D11*
X215500000Y-137500000D03*
D12*
X215500000Y-117500000D03*
D15*
X227500000Y-62500000D03*
D11*
X208000000Y-127000000D03*
D12*
X208000000Y-137160000D03*
D11*
X197000000Y-137000000D03*
D12*
X197000000Y-126840000D03*
D16*
X178500000Y-115000000D03*
X179500000Y-96000000D03*
X178500000Y-138000000D03*
D17*
X226500000Y-103500000D03*
D18*
X226500000Y-108580000D03*
D17*
X178500000Y-129000000D03*
D18*
X178500000Y-123920000D03*
D17*
X178500000Y-108500000D03*
D18*
X178500000Y-103420000D03*
D19*
X187000000Y-63500000D03*
D20*
X192080000Y-63500000D03*
D17*
X226500000Y-87500000D03*
D18*
X226500000Y-92580000D03*
D17*
X226500000Y-72000000D03*
D18*
X226500000Y-77080000D03*
D11*
X208500000Y-88500000D03*
D12*
X198340000Y-88500000D03*
D11*
X217000000Y-111500000D03*
D12*
X217000000Y-101340000D03*
D11*
X208000000Y-91500000D03*
D12*
X218160000Y-91500000D03*
D11*
X210500000Y-80500000D03*
D12*
X210500000Y-70340000D03*
D11*
X218500000Y-87500000D03*
D12*
X218500000Y-60000000D03*
D21*
X208989435Y-113931484D03*
X202500041Y-116040367D03*
X196010602Y-113931820D03*
X192000019Y-108411708D03*
X191999956Y-101588329D03*
X196010688Y-96068136D03*
X202499959Y-93959633D03*
X208989398Y-96068180D03*
X212999981Y-101588292D03*
D14*
X194500000Y-77000000D03*
D22*
X194500000Y-92240000D03*
D14*
X202500000Y-120000000D03*
D22*
X202500000Y-135240000D03*
D14*
X221000000Y-97000000D03*
D22*
X221000000Y-112240000D03*
D14*
X194500000Y-72000000D03*
D22*
X179260000Y-72000000D03*
D23*
X210500000Y-63500000D03*
D24*
X205500000Y-63500000D03*
X187000000Y-112000000D03*
X187000000Y-102000000D03*
D19*
X220500000Y-146500000D03*
D20*
X215420000Y-146500000D03*
X210340000Y-146500000D03*
X205260000Y-146500000D03*
X200180000Y-146500000D03*
X195100000Y-146500000D03*
X190020000Y-146500000D03*
X184940000Y-146500000D03*
D23*
X228000000Y-136000000D03*
D24*
X223000000Y-136000000D03*
D25*
X228000000Y-128000000D03*
D11*
X228000000Y-124500000D03*
D12*
X228000000Y-114340000D03*
D11*
X224000000Y-127500000D03*
D12*
X224000000Y-117340000D03*
D26*
X221000000Y-97000000D02*
X219000000Y-97000000D01*
X202000000Y-77000000D02*
X194500000Y-77000000D01*
X215500000Y-90500000D02*
X202000000Y-77000000D01*
X215500000Y-93500000D02*
X215500000Y-90500000D01*
X219000000Y-97000000D02*
X215500000Y-93500000D01*
D27*
X208989435Y-113931484D02*
X208989435Y-113989435D01*
X178500000Y-103500000D02*
X180000000Y-105000000D01*
X200911708Y-101588292D02*
X212999981Y-101588292D01*
X197500000Y-105000000D02*
X200911708Y-101588292D01*
X180000000Y-105000000D02*
X197500000Y-105000000D01*
X212999981Y-101588292D02*
X212999981Y-102999981D01*
X212999981Y-102999981D02*
X214500000Y-104500000D01*
X225500000Y-104500000D02*
X226500000Y-103500000D01*
X214500000Y-104500000D02*
X225500000Y-104500000D01*
X178500000Y-103420000D02*
X178500000Y-103500000D01*
X212999981Y-101588292D02*
X212999981Y-101611687D01*
X192000019Y-108411708D02*
X226331708Y-108411708D01*
X226331708Y-108411708D02*
X226500000Y-108580000D01*
X178500000Y-108500000D02*
X191911727Y-108500000D01*
X191911727Y-108500000D02*
X192000019Y-108411708D01*
X191911727Y-108500000D02*
X192000019Y-108411708D01*
D26*
X187000000Y-102000000D02*
X187000000Y-96000000D01*
X179500000Y-96000000D02*
X187000000Y-96000000D01*
X187000000Y-96000000D02*
X195942552Y-96000000D01*
D27*
X195942552Y-96000000D02*
X196010688Y-96068136D01*
D26*
X217000000Y-101340000D02*
X217000000Y-100000000D01*
X217000000Y-100000000D02*
X212500000Y-95500000D01*
X212500000Y-95500000D02*
X212500000Y-92500000D01*
X212500000Y-92500000D02*
X208500000Y-88500000D01*
X178500000Y-129000000D02*
X189000000Y-129000000D01*
X189000000Y-129000000D02*
X197000000Y-137000000D01*
X178500000Y-123920000D02*
X178500000Y-115000000D01*
X178500000Y-115000000D02*
X194942422Y-115000000D01*
D27*
X194942422Y-115000000D02*
X196010602Y-113931820D01*
X208000000Y-127000000D02*
X208000000Y-126500000D01*
D26*
X208000000Y-126500000D02*
X212500000Y-122000000D01*
X212500000Y-122000000D02*
X212500000Y-116000000D01*
X212500000Y-116000000D02*
X217000000Y-111500000D01*
D28*
G36*
X216727623Y-59052645D02*
G01*
X216576859Y-59416622D01*
X216500000Y-59803017D01*
X216500000Y-60196983D01*
X216576859Y-60583378D01*
X216727623Y-60947355D01*
X216946499Y-61274926D01*
X217225074Y-61553501D01*
X217552645Y-61772377D01*
X217916622Y-61923141D01*
X218303017Y-62000000D01*
X218696983Y-62000000D01*
X219083378Y-61923141D01*
X219447355Y-61772377D01*
X219774926Y-61553501D01*
X220053501Y-61274926D01*
X220272377Y-60947355D01*
X220423141Y-60583378D01*
X220500000Y-60196983D01*
X220500000Y-59803017D01*
X220423141Y-59416622D01*
X220272377Y-59052645D01*
X220086860Y-58775000D01*
X224832469Y-58775000D01*
X224550597Y-59409175D01*
X227500000Y-62358579D01*
X230449403Y-59409175D01*
X230167531Y-58775000D01*
X231225001Y-58775000D01*
X231225001Y-59832469D01*
X230590825Y-59550597D01*
X227641421Y-62500000D01*
X230590825Y-65449403D01*
X231225001Y-65167531D01*
X231225000Y-151225000D01*
X173775000Y-151225000D01*
X173775000Y-147224224D01*
X174700000Y-147224224D01*
X174700000Y-147775776D01*
X174807602Y-148316730D01*
X175018672Y-148826297D01*
X175325098Y-149284896D01*
X175715104Y-149674902D01*
X176173703Y-149981328D01*
X176683270Y-150192398D01*
X177224224Y-150300000D01*
X177775776Y-150300000D01*
X178316730Y-150192398D01*
X178826297Y-149981328D01*
X179284896Y-149674902D01*
X179674902Y-149284896D01*
X179981328Y-148826297D01*
X180192398Y-148316730D01*
X180300000Y-147775776D01*
X180300000Y-147224224D01*
X180192398Y-146683270D01*
X179981328Y-146173703D01*
X179674902Y-145715104D01*
X179456631Y-145496833D01*
X182840000Y-145496833D01*
X182840000Y-147503166D01*
X182870385Y-147811671D01*
X182990465Y-148207523D01*
X183185465Y-148572343D01*
X183447891Y-148892109D01*
X183767657Y-149154535D01*
X184132476Y-149349535D01*
X184528328Y-149469615D01*
X184940000Y-149510161D01*
X185351671Y-149469615D01*
X185747523Y-149349535D01*
X186112343Y-149154535D01*
X186432109Y-148892109D01*
X186694535Y-148572343D01*
X186889535Y-148207524D01*
X187009615Y-147811672D01*
X187040000Y-147503167D01*
X187040000Y-145496834D01*
X187040000Y-145496833D01*
X187920000Y-145496833D01*
X187920000Y-147503166D01*
X187950385Y-147811671D01*
X188070465Y-148207523D01*
X188265465Y-148572343D01*
X188527891Y-148892109D01*
X188847657Y-149154535D01*
X189212476Y-149349535D01*
X189608328Y-149469615D01*
X190020000Y-149510161D01*
X190431671Y-149469615D01*
X190827523Y-149349535D01*
X191192343Y-149154535D01*
X191512109Y-148892109D01*
X191774535Y-148572343D01*
X191969535Y-148207524D01*
X192089615Y-147811672D01*
X192120000Y-147503167D01*
X192120000Y-146600000D01*
X192800000Y-146600000D01*
X192800000Y-147500000D01*
X192863703Y-147946786D01*
X193013345Y-148372560D01*
X193243177Y-148760959D01*
X193544365Y-149097057D01*
X193905335Y-149367938D01*
X194312216Y-149563192D01*
X194641772Y-149653892D01*
X195000000Y-149347434D01*
X195000000Y-146600000D01*
X195200000Y-146600000D01*
X195200000Y-149347434D01*
X195558228Y-149653892D01*
X195887784Y-149563192D01*
X196294665Y-149367938D01*
X196655635Y-149097057D01*
X196956823Y-148760959D01*
X197186655Y-148372560D01*
X197336297Y-147946786D01*
X197400000Y-147500000D01*
X197400000Y-146600000D01*
X195200000Y-146600000D01*
X195000000Y-146600000D01*
X192800000Y-146600000D01*
X192120000Y-146600000D01*
X192120000Y-145500000D01*
X192800000Y-145500000D01*
X192800000Y-146400000D01*
X195000000Y-146400000D01*
X195000000Y-143652566D01*
X195200000Y-143652566D01*
X195200000Y-146400000D01*
X197400000Y-146400000D01*
X197400000Y-145500000D01*
X197399549Y-145496833D01*
X198080000Y-145496833D01*
X198080000Y-147503166D01*
X198110385Y-147811671D01*
X198230465Y-148207523D01*
X198425465Y-148572343D01*
X198687891Y-148892109D01*
X199007657Y-149154535D01*
X199372476Y-149349535D01*
X199768328Y-149469615D01*
X200180000Y-149510161D01*
X200591671Y-149469615D01*
X200987523Y-149349535D01*
X201352343Y-149154535D01*
X201672109Y-148892109D01*
X201934535Y-148572343D01*
X202129535Y-148207524D01*
X202249615Y-147811672D01*
X202280000Y-147503167D01*
X202280000Y-145496834D01*
X202280000Y-145496833D01*
X203160000Y-145496833D01*
X203160000Y-147503166D01*
X203190385Y-147811671D01*
X203310465Y-148207523D01*
X203505465Y-148572343D01*
X203767891Y-148892109D01*
X204087657Y-149154535D01*
X204452476Y-149349535D01*
X204848328Y-149469615D01*
X205260000Y-149510161D01*
X205671671Y-149469615D01*
X206067523Y-149349535D01*
X206432343Y-149154535D01*
X206752109Y-148892109D01*
X207014535Y-148572343D01*
X207209535Y-148207524D01*
X207329615Y-147811672D01*
X207360000Y-147503167D01*
X207360000Y-146600000D01*
X208040000Y-146600000D01*
X208040000Y-147500000D01*
X208103703Y-147946786D01*
X208253345Y-148372560D01*
X208483177Y-148760959D01*
X208784365Y-149097057D01*
X209145335Y-149367938D01*
X209552216Y-149563192D01*
X209881772Y-149653892D01*
X210240000Y-149347434D01*
X210240000Y-146600000D01*
X210440000Y-146600000D01*
X210440000Y-149347434D01*
X210798228Y-149653892D01*
X211127784Y-149563192D01*
X211534665Y-149367938D01*
X211895635Y-149097057D01*
X212196823Y-148760959D01*
X212426655Y-148372560D01*
X212576297Y-147946786D01*
X212640000Y-147500000D01*
X212640000Y-146600000D01*
X210440000Y-146600000D01*
X210240000Y-146600000D01*
X208040000Y-146600000D01*
X207360000Y-146600000D01*
X207360000Y-145500000D01*
X208040000Y-145500000D01*
X208040000Y-146400000D01*
X210240000Y-146400000D01*
X210240000Y-143652566D01*
X210440000Y-143652566D01*
X210440000Y-146400000D01*
X212640000Y-146400000D01*
X212640000Y-145500000D01*
X212639549Y-145496833D01*
X213320000Y-145496833D01*
X213320000Y-147503166D01*
X213350385Y-147811671D01*
X213470465Y-148207523D01*
X213665465Y-148572343D01*
X213927891Y-148892109D01*
X214247657Y-149154535D01*
X214612476Y-149349535D01*
X215008328Y-149469615D01*
X215420000Y-149510161D01*
X215831671Y-149469615D01*
X216227523Y-149349535D01*
X216592343Y-149154535D01*
X216912109Y-148892109D01*
X217174535Y-148572343D01*
X217369535Y-148207524D01*
X217489615Y-147811672D01*
X217520000Y-147503167D01*
X217520000Y-145496834D01*
X217489615Y-145188328D01*
X217369535Y-144792476D01*
X217320106Y-144700000D01*
X218394194Y-144700000D01*
X218394194Y-148300000D01*
X218417363Y-148535241D01*
X218485981Y-148761442D01*
X218597409Y-148969910D01*
X218747366Y-149152634D01*
X218930090Y-149302591D01*
X219138558Y-149414019D01*
X219364759Y-149482637D01*
X219600000Y-149505806D01*
X221400000Y-149505806D01*
X221635241Y-149482637D01*
X221861442Y-149414019D01*
X222069910Y-149302591D01*
X222252634Y-149152634D01*
X222402591Y-148969910D01*
X222514019Y-148761442D01*
X222582637Y-148535241D01*
X222605806Y-148300000D01*
X222605806Y-147224224D01*
X224700000Y-147224224D01*
X224700000Y-147775776D01*
X224807602Y-148316730D01*
X225018672Y-148826297D01*
X225325098Y-149284896D01*
X225715104Y-149674902D01*
X226173703Y-149981328D01*
X226683270Y-150192398D01*
X227224224Y-150300000D01*
X227775776Y-150300000D01*
X228316730Y-150192398D01*
X228826297Y-149981328D01*
X229284896Y-149674902D01*
X229674902Y-149284896D01*
X229981328Y-148826297D01*
X230192398Y-148316730D01*
X230300000Y-147775776D01*
X230300000Y-147224224D01*
X230192398Y-146683270D01*
X229981328Y-146173703D01*
X229674902Y-145715104D01*
X229284896Y-145325098D01*
X228826297Y-145018672D01*
X228316730Y-144807602D01*
X227775776Y-144700000D01*
X227224224Y-144700000D01*
X226683270Y-144807602D01*
X226173703Y-145018672D01*
X225715104Y-145325098D01*
X225325098Y-145715104D01*
X225018672Y-146173703D01*
X224807602Y-146683270D01*
X224700000Y-147224224D01*
X222605806Y-147224224D01*
X222605806Y-144700000D01*
X222582637Y-144464759D01*
X222514019Y-144238558D01*
X222402591Y-144030090D01*
X222252634Y-143847366D01*
X222069910Y-143697409D01*
X221861442Y-143585981D01*
X221635241Y-143517363D01*
X221400000Y-143494194D01*
X219600000Y-143494194D01*
X219364759Y-143517363D01*
X219138558Y-143585981D01*
X218930090Y-143697409D01*
X218747366Y-143847366D01*
X218597409Y-144030090D01*
X218485981Y-144238558D01*
X218417363Y-144464759D01*
X218394194Y-144700000D01*
X217320106Y-144700000D01*
X217174535Y-144427657D01*
X216912109Y-144107891D01*
X216592343Y-143845465D01*
X216227524Y-143650465D01*
X215831672Y-143530385D01*
X215420000Y-143489839D01*
X215008329Y-143530385D01*
X214612477Y-143650465D01*
X214247658Y-143845465D01*
X213927892Y-144107891D01*
X213665466Y-144427657D01*
X213470466Y-144792476D01*
X213350386Y-145188328D01*
X213320000Y-145496833D01*
X212639549Y-145496833D01*
X212576297Y-145053214D01*
X212426655Y-144627440D01*
X212196823Y-144239041D01*
X211895635Y-143902943D01*
X211534665Y-143632062D01*
X211127784Y-143436808D01*
X210798228Y-143346108D01*
X210440000Y-143652566D01*
X210240000Y-143652566D01*
X209881772Y-143346108D01*
X209552216Y-143436808D01*
X209145335Y-143632062D01*
X208784365Y-143902943D01*
X208483177Y-144239041D01*
X208253345Y-144627440D01*
X208103703Y-145053214D01*
X208040000Y-145500000D01*
X207360000Y-145500000D01*
X207360000Y-145496834D01*
X207329615Y-145188328D01*
X207209535Y-144792476D01*
X207014535Y-144427657D01*
X206752109Y-144107891D01*
X206432343Y-143845465D01*
X206067524Y-143650465D01*
X205671672Y-143530385D01*
X205260000Y-143489839D01*
X204848329Y-143530385D01*
X204452477Y-143650465D01*
X204087658Y-143845465D01*
X203767892Y-144107891D01*
X203505466Y-144427657D01*
X203310466Y-144792476D01*
X203190386Y-145188328D01*
X203160000Y-145496833D01*
X202280000Y-145496833D01*
X202249615Y-145188328D01*
X202129535Y-144792476D01*
X201934535Y-144427657D01*
X201672109Y-144107891D01*
X201352343Y-143845465D01*
X200987524Y-143650465D01*
X200591672Y-143530385D01*
X200180000Y-143489839D01*
X199768329Y-143530385D01*
X199372477Y-143650465D01*
X199007658Y-143845465D01*
X198687892Y-144107891D01*
X198425466Y-144427657D01*
X198230466Y-144792476D01*
X198110386Y-145188328D01*
X198080000Y-145496833D01*
X197399549Y-145496833D01*
X197336297Y-145053214D01*
X197186655Y-144627440D01*
X196956823Y-144239041D01*
X196655635Y-143902943D01*
X196294665Y-143632062D01*
X195887784Y-143436808D01*
X195558228Y-143346108D01*
X195200000Y-143652566D01*
X195000000Y-143652566D01*
X194641772Y-143346108D01*
X194312216Y-143436808D01*
X193905335Y-143632062D01*
X193544365Y-143902943D01*
X193243177Y-144239041D01*
X193013345Y-144627440D01*
X192863703Y-145053214D01*
X192800000Y-145500000D01*
X192120000Y-145500000D01*
X192120000Y-145496834D01*
X192089615Y-145188328D01*
X191969535Y-144792476D01*
X191774535Y-144427657D01*
X191512109Y-144107891D01*
X191192343Y-143845465D01*
X190827524Y-143650465D01*
X190431672Y-143530385D01*
X190020000Y-143489839D01*
X189608329Y-143530385D01*
X189212477Y-143650465D01*
X188847658Y-143845465D01*
X188527892Y-144107891D01*
X188265466Y-144427657D01*
X188070466Y-144792476D01*
X187950386Y-145188328D01*
X187920000Y-145496833D01*
X187040000Y-145496833D01*
X187009615Y-145188328D01*
X186889535Y-144792476D01*
X186694535Y-144427657D01*
X186432109Y-144107891D01*
X186112343Y-143845465D01*
X185747524Y-143650465D01*
X185351672Y-143530385D01*
X184940000Y-143489839D01*
X184528329Y-143530385D01*
X184132477Y-143650465D01*
X183767658Y-143845465D01*
X183447892Y-144107891D01*
X183185466Y-144427657D01*
X182990466Y-144792476D01*
X182870386Y-145188328D01*
X182840000Y-145496833D01*
X179456631Y-145496833D01*
X179284896Y-145325098D01*
X178826297Y-145018672D01*
X178316730Y-144807602D01*
X177775776Y-144700000D01*
X177224224Y-144700000D01*
X176683270Y-144807602D01*
X176173703Y-145018672D01*
X175715104Y-145325098D01*
X175325098Y-145715104D01*
X175018672Y-146173703D01*
X174807602Y-146683270D01*
X174700000Y-147224224D01*
X173775000Y-147224224D01*
X173775000Y-139811267D01*
X176830155Y-139811267D01*
X176928185Y-140333549D01*
X177413640Y-140595356D01*
X177940843Y-140757425D01*
X178489533Y-140813528D01*
X179038627Y-140761509D01*
X179567021Y-140603366D01*
X180054410Y-140345177D01*
X180071815Y-140333549D01*
X180169845Y-139811267D01*
X178500000Y-138141421D01*
X176830155Y-139811267D01*
X173775000Y-139811267D01*
X173775000Y-137989533D01*
X175686472Y-137989533D01*
X175738491Y-138538627D01*
X175896634Y-139067021D01*
X176154823Y-139554410D01*
X176166451Y-139571815D01*
X176688733Y-139669845D01*
X178358579Y-138000000D01*
X178641421Y-138000000D01*
X180311267Y-139669845D01*
X180833549Y-139571815D01*
X181095356Y-139086360D01*
X181257425Y-138559157D01*
X181313528Y-138010467D01*
X181261509Y-137461373D01*
X181214115Y-137303017D01*
X187500000Y-137303017D01*
X187500000Y-137696983D01*
X187576859Y-138083378D01*
X187727623Y-138447355D01*
X187946499Y-138774926D01*
X188225074Y-139053501D01*
X188552645Y-139272377D01*
X188916622Y-139423141D01*
X189303017Y-139500000D01*
X189696983Y-139500000D01*
X190083378Y-139423141D01*
X190447355Y-139272377D01*
X190774926Y-139053501D01*
X191053501Y-138774926D01*
X191272377Y-138447355D01*
X191423141Y-138083378D01*
X191500000Y-137696983D01*
X191500000Y-137303017D01*
X191423141Y-136916622D01*
X191272377Y-136552645D01*
X191053501Y-136225074D01*
X190774926Y-135946499D01*
X190447355Y-135727623D01*
X190083378Y-135576859D01*
X189696983Y-135500000D01*
X189303017Y-135500000D01*
X188916622Y-135576859D01*
X188552645Y-135727623D01*
X188225074Y-135946499D01*
X187946499Y-136225074D01*
X187727623Y-136552645D01*
X187576859Y-136916622D01*
X187500000Y-137303017D01*
X181214115Y-137303017D01*
X181103366Y-136932979D01*
X180845177Y-136445590D01*
X180833549Y-136428185D01*
X180311267Y-136330155D01*
X178641421Y-138000000D01*
X178358579Y-138000000D01*
X176688733Y-136330155D01*
X176166451Y-136428185D01*
X175904644Y-136913640D01*
X175742575Y-137440843D01*
X175686472Y-137989533D01*
X173775000Y-137989533D01*
X173775000Y-136188733D01*
X176830155Y-136188733D01*
X178500000Y-137858579D01*
X180169845Y-136188733D01*
X180071815Y-135666451D01*
X179586360Y-135404644D01*
X179059157Y-135242575D01*
X178510467Y-135186472D01*
X177961373Y-135238491D01*
X177432979Y-135396634D01*
X176945590Y-135654823D01*
X176928185Y-135666451D01*
X176830155Y-136188733D01*
X173775000Y-136188733D01*
X173775000Y-128100000D01*
X175494194Y-128100000D01*
X175494194Y-129900000D01*
X175517363Y-130135241D01*
X175585981Y-130361442D01*
X175697409Y-130569910D01*
X175847366Y-130752634D01*
X176030090Y-130902591D01*
X176238558Y-131014019D01*
X176464759Y-131082637D01*
X176700000Y-131105806D01*
X180300000Y-131105806D01*
X180535241Y-131082637D01*
X180761442Y-131014019D01*
X180969910Y-130902591D01*
X181152634Y-130752634D01*
X181195829Y-130700000D01*
X188295837Y-130700000D01*
X195051444Y-137455607D01*
X195076859Y-137583378D01*
X195227623Y-137947355D01*
X195446499Y-138274926D01*
X195725074Y-138553501D01*
X196052645Y-138772377D01*
X196416622Y-138923141D01*
X196803017Y-139000000D01*
X197196983Y-139000000D01*
X197583378Y-138923141D01*
X197947355Y-138772377D01*
X198274926Y-138553501D01*
X198553501Y-138274926D01*
X198772377Y-137947355D01*
X198923141Y-137583378D01*
X199000000Y-137196983D01*
X199000000Y-136803017D01*
X198923141Y-136416622D01*
X198772377Y-136052645D01*
X198553501Y-135725074D01*
X198274926Y-135446499D01*
X197947355Y-135227623D01*
X197583378Y-135076859D01*
X197455607Y-135051444D01*
X197407784Y-135003621D01*
X200100000Y-135003621D01*
X200100000Y-135476379D01*
X200192230Y-135940054D01*
X200373147Y-136376826D01*
X200635798Y-136769911D01*
X200970089Y-137104202D01*
X201363174Y-137366853D01*
X201799946Y-137547770D01*
X202263621Y-137640000D01*
X202736379Y-137640000D01*
X203200054Y-137547770D01*
X203636826Y-137366853D01*
X204029911Y-137104202D01*
X204171096Y-136963017D01*
X206000000Y-136963017D01*
X206000000Y-137356983D01*
X206076859Y-137743378D01*
X206227623Y-138107355D01*
X206446499Y-138434926D01*
X206725074Y-138713501D01*
X207052645Y-138932377D01*
X207416622Y-139083141D01*
X207803017Y-139160000D01*
X208196983Y-139160000D01*
X208583378Y-139083141D01*
X208947355Y-138932377D01*
X209274926Y-138713501D01*
X209553501Y-138434926D01*
X209772377Y-138107355D01*
X209923141Y-137743378D01*
X210000000Y-137356983D01*
X210000000Y-137303017D01*
X213500000Y-137303017D01*
X213500000Y-137696983D01*
X213576859Y-138083378D01*
X213727623Y-138447355D01*
X213946499Y-138774926D01*
X214225074Y-139053501D01*
X214552645Y-139272377D01*
X214916622Y-139423141D01*
X215303017Y-139500000D01*
X215696983Y-139500000D01*
X216083378Y-139423141D01*
X216447355Y-139272377D01*
X216774926Y-139053501D01*
X217053501Y-138774926D01*
X217272377Y-138447355D01*
X217423141Y-138083378D01*
X217500000Y-137696983D01*
X217500000Y-137303017D01*
X217423141Y-136916622D01*
X217272377Y-136552645D01*
X217053501Y-136225074D01*
X216774926Y-135946499D01*
X216530710Y-135783319D01*
X220800000Y-135783319D01*
X220800000Y-136216681D01*
X220884545Y-136641716D01*
X221050385Y-137042091D01*
X221291148Y-137402418D01*
X221597582Y-137708852D01*
X221957909Y-137949615D01*
X222358284Y-138115455D01*
X222783319Y-138200000D01*
X223216681Y-138200000D01*
X223641716Y-138115455D01*
X224042091Y-137949615D01*
X224402418Y-137708852D01*
X224708852Y-137402418D01*
X224949615Y-137042091D01*
X225115455Y-136641716D01*
X225200000Y-136216681D01*
X225200000Y-135783319D01*
X225115455Y-135358284D01*
X224967050Y-135000000D01*
X225794194Y-135000000D01*
X225794194Y-137000000D01*
X225817363Y-137235241D01*
X225885981Y-137461442D01*
X225997409Y-137669910D01*
X226147366Y-137852634D01*
X226330090Y-138002591D01*
X226538558Y-138114019D01*
X226764759Y-138182637D01*
X227000000Y-138205806D01*
X229000000Y-138205806D01*
X229235241Y-138182637D01*
X229461442Y-138114019D01*
X229669910Y-138002591D01*
X229852634Y-137852634D01*
X230002591Y-137669910D01*
X230114019Y-137461442D01*
X230182637Y-137235241D01*
X230205806Y-137000000D01*
X230205806Y-135000000D01*
X230182637Y-134764759D01*
X230114019Y-134538558D01*
X230002591Y-134330090D01*
X229852634Y-134147366D01*
X229669910Y-133997409D01*
X229461442Y-133885981D01*
X229235241Y-133817363D01*
X229000000Y-133794194D01*
X227000000Y-133794194D01*
X226764759Y-133817363D01*
X226538558Y-133885981D01*
X226330090Y-133997409D01*
X226147366Y-134147366D01*
X225997409Y-134330090D01*
X225885981Y-134538558D01*
X225817363Y-134764759D01*
X225794194Y-135000000D01*
X224967050Y-135000000D01*
X224949615Y-134957909D01*
X224708852Y-134597582D01*
X224402418Y-134291148D01*
X224042091Y-134050385D01*
X223641716Y-133884545D01*
X223216681Y-133800000D01*
X222783319Y-133800000D01*
X222358284Y-133884545D01*
X221957909Y-134050385D01*
X221597582Y-134291148D01*
X221291148Y-134597582D01*
X221050385Y-134957909D01*
X220884545Y-135358284D01*
X220800000Y-135783319D01*
X216530710Y-135783319D01*
X216447355Y-135727623D01*
X216083378Y-135576859D01*
X215696983Y-135500000D01*
X215303017Y-135500000D01*
X214916622Y-135576859D01*
X214552645Y-135727623D01*
X214225074Y-135946499D01*
X213946499Y-136225074D01*
X213727623Y-136552645D01*
X213576859Y-136916622D01*
X213500000Y-137303017D01*
X210000000Y-137303017D01*
X210000000Y-136963017D01*
X209923141Y-136576622D01*
X209772377Y-136212645D01*
X209553501Y-135885074D01*
X209274926Y-135606499D01*
X208947355Y-135387623D01*
X208583378Y-135236859D01*
X208196983Y-135160000D01*
X207803017Y-135160000D01*
X207416622Y-135236859D01*
X207052645Y-135387623D01*
X206725074Y-135606499D01*
X206446499Y-135885074D01*
X206227623Y-136212645D01*
X206076859Y-136576622D01*
X206000000Y-136963017D01*
X204171096Y-136963017D01*
X204364202Y-136769911D01*
X204626853Y-136376826D01*
X204807770Y-135940054D01*
X204900000Y-135476379D01*
X204900000Y-135003621D01*
X204807770Y-134539946D01*
X204626853Y-134103174D01*
X204364202Y-133710089D01*
X204029911Y-133375798D01*
X203636826Y-133113147D01*
X203200054Y-132932230D01*
X202736379Y-132840000D01*
X202263621Y-132840000D01*
X201799946Y-132932230D01*
X201363174Y-133113147D01*
X200970089Y-133375798D01*
X200635798Y-133710089D01*
X200373147Y-134103174D01*
X200192230Y-134539946D01*
X200100000Y-135003621D01*
X197407784Y-135003621D01*
X190261128Y-127856965D01*
X190207897Y-127792103D01*
X190143035Y-127738872D01*
X190143031Y-127738868D01*
X189949039Y-127579663D01*
X189653709Y-127421806D01*
X189333258Y-127324598D01*
X189083510Y-127300000D01*
X189083500Y-127300000D01*
X189000000Y-127291776D01*
X188916500Y-127300000D01*
X181195829Y-127300000D01*
X181152634Y-127247366D01*
X180969910Y-127097409D01*
X180761442Y-126985981D01*
X180535241Y-126917363D01*
X180300000Y-126894194D01*
X176700000Y-126894194D01*
X176464759Y-126917363D01*
X176238558Y-126985981D01*
X176030090Y-127097409D01*
X175847366Y-127247366D01*
X175697409Y-127430090D01*
X175585981Y-127638558D01*
X175517363Y-127864759D01*
X175494194Y-128100000D01*
X173775000Y-128100000D01*
X173775000Y-126643017D01*
X195000000Y-126643017D01*
X195000000Y-127036983D01*
X195076859Y-127423378D01*
X195227623Y-127787355D01*
X195446499Y-128114926D01*
X195725074Y-128393501D01*
X196052645Y-128612377D01*
X196416622Y-128763141D01*
X196803017Y-128840000D01*
X197196983Y-128840000D01*
X197583378Y-128763141D01*
X197947355Y-128612377D01*
X198274926Y-128393501D01*
X198553501Y-128114926D01*
X198772377Y-127787355D01*
X198923141Y-127423378D01*
X199000000Y-127036983D01*
X199000000Y-126643017D01*
X198923141Y-126256622D01*
X198772377Y-125892645D01*
X198553501Y-125565074D01*
X198274926Y-125286499D01*
X197947355Y-125067623D01*
X197583378Y-124916859D01*
X197196983Y-124840000D01*
X196803017Y-124840000D01*
X196416622Y-124916859D01*
X196052645Y-125067623D01*
X195725074Y-125286499D01*
X195446499Y-125565074D01*
X195227623Y-125892645D01*
X195076859Y-126256622D01*
X195000000Y-126643017D01*
X173775000Y-126643017D01*
X173775000Y-103420000D01*
X175489839Y-103420000D01*
X175530385Y-103831672D01*
X175650465Y-104227524D01*
X175845465Y-104592343D01*
X176107891Y-104912109D01*
X176427657Y-105174535D01*
X176792476Y-105369535D01*
X177188328Y-105489615D01*
X177399106Y-105510375D01*
X178206949Y-106318219D01*
X178068725Y-106331833D01*
X177863148Y-106394194D01*
X176700000Y-106394194D01*
X176464759Y-106417363D01*
X176238558Y-106485981D01*
X176030090Y-106597409D01*
X175847366Y-106747366D01*
X175697409Y-106930090D01*
X175585981Y-107138558D01*
X175517363Y-107364759D01*
X175494194Y-107600000D01*
X175494194Y-109400000D01*
X175517363Y-109635241D01*
X175585981Y-109861442D01*
X175697409Y-110069910D01*
X175847366Y-110252634D01*
X176030090Y-110402591D01*
X176238558Y-110514019D01*
X176464759Y-110582637D01*
X176700000Y-110605806D01*
X177863148Y-110605806D01*
X178068725Y-110668167D01*
X178391930Y-110700000D01*
X185222714Y-110700000D01*
X185050385Y-110957909D01*
X184884545Y-111358284D01*
X184800000Y-111783319D01*
X184800000Y-112216681D01*
X184884545Y-112641716D01*
X185050385Y-113042091D01*
X185222714Y-113300000D01*
X180476955Y-113300000D01*
X180157403Y-112980448D01*
X179731562Y-112695910D01*
X179258392Y-112499917D01*
X178756078Y-112400000D01*
X178243922Y-112400000D01*
X177741608Y-112499917D01*
X177268438Y-112695910D01*
X176842597Y-112980448D01*
X176480448Y-113342597D01*
X176195910Y-113768438D01*
X175999917Y-114241608D01*
X175900000Y-114743922D01*
X175900000Y-115256078D01*
X175999917Y-115758392D01*
X176195910Y-116231562D01*
X176480448Y-116657403D01*
X176800001Y-116976956D01*
X176800000Y-121968183D01*
X176792476Y-121970465D01*
X176427657Y-122165465D01*
X176107891Y-122427891D01*
X175845465Y-122747657D01*
X175650465Y-123112476D01*
X175530385Y-123508328D01*
X175489839Y-123920000D01*
X175530385Y-124331672D01*
X175650465Y-124727524D01*
X175845465Y-125092343D01*
X176107891Y-125412109D01*
X176427657Y-125674535D01*
X176792476Y-125869535D01*
X177188328Y-125989615D01*
X177496833Y-126020000D01*
X179503167Y-126020000D01*
X179811672Y-125989615D01*
X180207524Y-125869535D01*
X180572343Y-125674535D01*
X180892109Y-125412109D01*
X181154535Y-125092343D01*
X181349535Y-124727524D01*
X181469615Y-124331672D01*
X181510161Y-123920000D01*
X181469615Y-123508328D01*
X181349535Y-123112476D01*
X181154535Y-122747657D01*
X180892109Y-122427891D01*
X180572343Y-122165465D01*
X180207524Y-121970465D01*
X180200000Y-121968183D01*
X180200000Y-116976955D01*
X180476955Y-116700000D01*
X187666587Y-116700000D01*
X187576859Y-116916622D01*
X187500000Y-117303017D01*
X187500000Y-117696983D01*
X187576859Y-118083378D01*
X187727623Y-118447355D01*
X187946499Y-118774926D01*
X188225074Y-119053501D01*
X188552645Y-119272377D01*
X188916622Y-119423141D01*
X189303017Y-119500000D01*
X189696983Y-119500000D01*
X190083378Y-119423141D01*
X190447355Y-119272377D01*
X190774926Y-119053501D01*
X191053501Y-118774926D01*
X191272377Y-118447355D01*
X191423141Y-118083378D01*
X191500000Y-117696983D01*
X191500000Y-117303017D01*
X191423141Y-116916622D01*
X191333413Y-116700000D01*
X193546000Y-116700000D01*
X193714254Y-116838083D01*
X194096446Y-117042369D01*
X194511147Y-117168166D01*
X194942422Y-117210643D01*
X195373697Y-117168166D01*
X195788398Y-117042369D01*
X196170590Y-116838083D01*
X196421639Y-116632051D01*
X196457959Y-116595731D01*
X196798163Y-116528060D01*
X197289532Y-116324529D01*
X197731752Y-116029047D01*
X197986359Y-115774440D01*
X199800041Y-115774440D01*
X199800041Y-116306294D01*
X199903801Y-116827928D01*
X200107332Y-117319297D01*
X200402814Y-117761517D01*
X200778891Y-118137594D01*
X200892429Y-118213458D01*
X200635798Y-118470089D01*
X200373147Y-118863174D01*
X200192230Y-119299946D01*
X200100000Y-119763621D01*
X200100000Y-120236379D01*
X200192230Y-120700054D01*
X200373147Y-121136826D01*
X200635798Y-121529911D01*
X200970089Y-121864202D01*
X201363174Y-122126853D01*
X201799946Y-122307770D01*
X202263621Y-122400000D01*
X202736379Y-122400000D01*
X203200054Y-122307770D01*
X203636826Y-122126853D01*
X204029911Y-121864202D01*
X204364202Y-121529911D01*
X204626853Y-121136826D01*
X204807770Y-120700054D01*
X204900000Y-120236379D01*
X204900000Y-119763621D01*
X204807770Y-119299946D01*
X204626853Y-118863174D01*
X204364202Y-118470089D01*
X204107604Y-118213491D01*
X204221191Y-118137594D01*
X204597268Y-117761517D01*
X204892750Y-117319297D01*
X205096281Y-116827928D01*
X205200041Y-116306294D01*
X205200041Y-115774440D01*
X205096281Y-115252806D01*
X204892750Y-114761437D01*
X204597268Y-114319217D01*
X204221191Y-113943140D01*
X203778971Y-113647658D01*
X203287602Y-113444127D01*
X202765968Y-113340367D01*
X202234114Y-113340367D01*
X201712480Y-113444127D01*
X201221111Y-113647658D01*
X200778891Y-113943140D01*
X200402814Y-114319217D01*
X200107332Y-114761437D01*
X199903801Y-115252806D01*
X199800041Y-115774440D01*
X197986359Y-115774440D01*
X198107829Y-115652970D01*
X198403311Y-115210750D01*
X198606842Y-114719381D01*
X198710602Y-114197747D01*
X198710602Y-113665893D01*
X198606842Y-113144259D01*
X198403311Y-112652890D01*
X198107829Y-112210670D01*
X197731752Y-111834593D01*
X197289532Y-111539111D01*
X196798163Y-111335580D01*
X196276529Y-111231820D01*
X195744675Y-111231820D01*
X195223041Y-111335580D01*
X194731672Y-111539111D01*
X194289452Y-111834593D01*
X193913375Y-112210670D01*
X193617893Y-112652890D01*
X193414362Y-113144259D01*
X193383383Y-113300000D01*
X188777286Y-113300000D01*
X188949615Y-113042091D01*
X189115455Y-112641716D01*
X189200000Y-112216681D01*
X189200000Y-111783319D01*
X189115455Y-111358284D01*
X188949615Y-110957909D01*
X188777286Y-110700000D01*
X190564818Y-110700000D01*
X190721089Y-110804417D01*
X191212458Y-111007948D01*
X191734092Y-111111708D01*
X192265946Y-111111708D01*
X192787580Y-111007948D01*
X193278949Y-110804417D01*
X193567358Y-110611708D01*
X215203158Y-110611708D01*
X215076859Y-110916622D01*
X215051444Y-111044393D01*
X211637542Y-114458295D01*
X211689435Y-114197411D01*
X211689435Y-113665557D01*
X211585675Y-113143923D01*
X211382144Y-112652554D01*
X211086662Y-112210334D01*
X210710585Y-111834257D01*
X210268365Y-111538775D01*
X209776996Y-111335244D01*
X209255362Y-111231484D01*
X208723508Y-111231484D01*
X208201874Y-111335244D01*
X207710505Y-111538775D01*
X207268285Y-111834257D01*
X206892208Y-112210334D01*
X206596726Y-112652554D01*
X206393195Y-113143923D01*
X206289435Y-113665557D01*
X206289435Y-114197411D01*
X206393195Y-114719045D01*
X206596726Y-115210414D01*
X206892208Y-115652634D01*
X207268285Y-116028711D01*
X207710505Y-116324193D01*
X208201874Y-116527724D01*
X208723508Y-116631484D01*
X209255362Y-116631484D01*
X209776996Y-116527724D01*
X210268365Y-116324193D01*
X210710585Y-116028711D01*
X210797510Y-115941786D01*
X210791776Y-116000000D01*
X210800001Y-116083510D01*
X210800000Y-121295837D01*
X207785339Y-124310498D01*
X207568726Y-124331833D01*
X207154024Y-124457631D01*
X206771833Y-124661917D01*
X206436840Y-124936839D01*
X206161917Y-125271832D01*
X205957631Y-125654023D01*
X205831833Y-126068725D01*
X205800000Y-126391930D01*
X205800000Y-127108069D01*
X205831833Y-127431274D01*
X205957631Y-127845976D01*
X206161917Y-128228168D01*
X206436839Y-128563161D01*
X206771832Y-128838083D01*
X207154023Y-129042369D01*
X207568725Y-129168167D01*
X208000000Y-129210644D01*
X208431274Y-129168167D01*
X208845976Y-129042369D01*
X209228168Y-128838083D01*
X209563161Y-128563161D01*
X209838083Y-128228168D01*
X210042369Y-127845977D01*
X210168167Y-127431275D01*
X210180799Y-127303017D01*
X222000000Y-127303017D01*
X222000000Y-127696983D01*
X222076859Y-128083378D01*
X222227623Y-128447355D01*
X222446499Y-128774926D01*
X222725074Y-129053501D01*
X223052645Y-129272377D01*
X223416622Y-129423141D01*
X223803017Y-129500000D01*
X224196983Y-129500000D01*
X224583378Y-129423141D01*
X224947355Y-129272377D01*
X225274926Y-129053501D01*
X225553501Y-128774926D01*
X225632597Y-128656550D01*
X225644152Y-128714639D01*
X225828838Y-129160510D01*
X226096960Y-129561784D01*
X226438216Y-129903040D01*
X226839490Y-130171162D01*
X227285361Y-130355848D01*
X227758696Y-130450000D01*
X228241304Y-130450000D01*
X228714639Y-130355848D01*
X229160510Y-130171162D01*
X229561784Y-129903040D01*
X229903040Y-129561784D01*
X230171162Y-129160510D01*
X230355848Y-128714639D01*
X230450000Y-128241304D01*
X230450000Y-127758696D01*
X230355848Y-127285361D01*
X230171162Y-126839490D01*
X229903040Y-126438216D01*
X229561784Y-126096960D01*
X229363773Y-125964654D01*
X229553501Y-125774926D01*
X229772377Y-125447355D01*
X229923141Y-125083378D01*
X230000000Y-124696983D01*
X230000000Y-124303017D01*
X229923141Y-123916622D01*
X229772377Y-123552645D01*
X229553501Y-123225074D01*
X229274926Y-122946499D01*
X228947355Y-122727623D01*
X228583378Y-122576859D01*
X228196983Y-122500000D01*
X227803017Y-122500000D01*
X227416622Y-122576859D01*
X227052645Y-122727623D01*
X226725074Y-122946499D01*
X226446499Y-123225074D01*
X226227623Y-123552645D01*
X226076859Y-123916622D01*
X226000000Y-124303017D01*
X226000000Y-124696983D01*
X226076859Y-125083378D01*
X226227623Y-125447355D01*
X226446499Y-125774926D01*
X226636227Y-125964654D01*
X226438216Y-126096960D01*
X226096960Y-126438216D01*
X225867330Y-126781882D01*
X225772377Y-126552645D01*
X225553501Y-126225074D01*
X225274926Y-125946499D01*
X224947355Y-125727623D01*
X224583378Y-125576859D01*
X224196983Y-125500000D01*
X223803017Y-125500000D01*
X223416622Y-125576859D01*
X223052645Y-125727623D01*
X222725074Y-125946499D01*
X222446499Y-126225074D01*
X222227623Y-126552645D01*
X222076859Y-126916622D01*
X222000000Y-127303017D01*
X210180799Y-127303017D01*
X210200000Y-127108070D01*
X210200000Y-126704163D01*
X213643036Y-123261127D01*
X213707897Y-123207897D01*
X213761131Y-123143032D01*
X213920337Y-122949040D01*
X214078193Y-122653710D01*
X214078194Y-122653709D01*
X214175402Y-122333258D01*
X214200000Y-122083510D01*
X214200000Y-122083501D01*
X214208224Y-122000001D01*
X214200000Y-121916501D01*
X214200000Y-119028427D01*
X214225074Y-119053501D01*
X214552645Y-119272377D01*
X214916622Y-119423141D01*
X215303017Y-119500000D01*
X215696983Y-119500000D01*
X216083378Y-119423141D01*
X216447355Y-119272377D01*
X216774926Y-119053501D01*
X217053501Y-118774926D01*
X217272377Y-118447355D01*
X217423141Y-118083378D01*
X217500000Y-117696983D01*
X217500000Y-117303017D01*
X217468174Y-117143017D01*
X222000000Y-117143017D01*
X222000000Y-117536983D01*
X222076859Y-117923378D01*
X222227623Y-118287355D01*
X222446499Y-118614926D01*
X222725074Y-118893501D01*
X223052645Y-119112377D01*
X223416622Y-119263141D01*
X223803017Y-119340000D01*
X224196983Y-119340000D01*
X224583378Y-119263141D01*
X224947355Y-119112377D01*
X225274926Y-118893501D01*
X225553501Y-118614926D01*
X225772377Y-118287355D01*
X225923141Y-117923378D01*
X226000000Y-117536983D01*
X226000000Y-117143017D01*
X225923141Y-116756622D01*
X225772377Y-116392645D01*
X225553501Y-116065074D01*
X225274926Y-115786499D01*
X224947355Y-115567623D01*
X224583378Y-115416859D01*
X224196983Y-115340000D01*
X223803017Y-115340000D01*
X223416622Y-115416859D01*
X223052645Y-115567623D01*
X222725074Y-115786499D01*
X222446499Y-116065074D01*
X222227623Y-116392645D01*
X222076859Y-116756622D01*
X222000000Y-117143017D01*
X217468174Y-117143017D01*
X217423141Y-116916622D01*
X217272377Y-116552645D01*
X217053501Y-116225074D01*
X216774926Y-115946499D01*
X216447355Y-115727623D01*
X216083378Y-115576859D01*
X215696983Y-115500000D01*
X215404163Y-115500000D01*
X217455607Y-113448556D01*
X217583378Y-113423141D01*
X217947355Y-113272377D01*
X218274926Y-113053501D01*
X218553501Y-112774926D01*
X218635095Y-112652813D01*
X218692230Y-112940054D01*
X218873147Y-113376826D01*
X219135798Y-113769911D01*
X219470089Y-114104202D01*
X219863174Y-114366853D01*
X220299946Y-114547770D01*
X220763621Y-114640000D01*
X221236379Y-114640000D01*
X221700054Y-114547770D01*
X222136826Y-114366853D01*
X222471820Y-114143017D01*
X226000000Y-114143017D01*
X226000000Y-114536983D01*
X226076859Y-114923378D01*
X226227623Y-115287355D01*
X226446499Y-115614926D01*
X226725074Y-115893501D01*
X227052645Y-116112377D01*
X227416622Y-116263141D01*
X227803017Y-116340000D01*
X228196983Y-116340000D01*
X228583378Y-116263141D01*
X228947355Y-116112377D01*
X229274926Y-115893501D01*
X229553501Y-115614926D01*
X229772377Y-115287355D01*
X229923141Y-114923378D01*
X230000000Y-114536983D01*
X230000000Y-114143017D01*
X229923141Y-113756622D01*
X229772377Y-113392645D01*
X229553501Y-113065074D01*
X229274926Y-112786499D01*
X228947355Y-112567623D01*
X228583378Y-112416859D01*
X228196983Y-112340000D01*
X227803017Y-112340000D01*
X227416622Y-112416859D01*
X227052645Y-112567623D01*
X226725074Y-112786499D01*
X226446499Y-113065074D01*
X226227623Y-113392645D01*
X226076859Y-113756622D01*
X226000000Y-114143017D01*
X222471820Y-114143017D01*
X222529911Y-114104202D01*
X222864202Y-113769911D01*
X223126853Y-113376826D01*
X223307770Y-112940054D01*
X223400000Y-112476379D01*
X223400000Y-112003621D01*
X223307770Y-111539946D01*
X223126853Y-111103174D01*
X222864202Y-110710089D01*
X222765821Y-110611708D01*
X225063365Y-110611708D01*
X225188328Y-110649615D01*
X225496833Y-110680000D01*
X225844010Y-110680000D01*
X226068726Y-110748166D01*
X226500000Y-110790643D01*
X226931275Y-110748166D01*
X227155991Y-110680000D01*
X227503167Y-110680000D01*
X227811672Y-110649615D01*
X228207524Y-110529535D01*
X228572343Y-110334535D01*
X228892109Y-110072109D01*
X229154535Y-109752343D01*
X229349535Y-109387524D01*
X229469615Y-108991672D01*
X229510161Y-108580000D01*
X229469615Y-108168328D01*
X229349535Y-107772476D01*
X229154535Y-107407657D01*
X228892109Y-107087891D01*
X228572343Y-106825465D01*
X228207524Y-106630465D01*
X227811672Y-106510385D01*
X227503167Y-106480000D01*
X227384717Y-106480000D01*
X227177685Y-106369339D01*
X226821674Y-106261345D01*
X227063161Y-106063161D01*
X227132057Y-105979211D01*
X227505462Y-105605806D01*
X228300000Y-105605806D01*
X228535241Y-105582637D01*
X228761442Y-105514019D01*
X228969910Y-105402591D01*
X229152634Y-105252634D01*
X229302591Y-105069910D01*
X229414019Y-104861442D01*
X229482637Y-104635241D01*
X229505806Y-104400000D01*
X229505806Y-102600000D01*
X229482637Y-102364759D01*
X229414019Y-102138558D01*
X229302591Y-101930090D01*
X229152634Y-101747366D01*
X228969910Y-101597409D01*
X228761442Y-101485981D01*
X228535241Y-101417363D01*
X228300000Y-101394194D01*
X227136852Y-101394194D01*
X226931275Y-101331833D01*
X226500000Y-101289357D01*
X226068725Y-101331833D01*
X225863148Y-101394194D01*
X224700000Y-101394194D01*
X224464759Y-101417363D01*
X224238558Y-101485981D01*
X224030090Y-101597409D01*
X223847366Y-101747366D01*
X223697409Y-101930090D01*
X223585981Y-102138558D01*
X223537008Y-102300000D01*
X218763928Y-102300000D01*
X218772377Y-102287355D01*
X218923141Y-101923378D01*
X219000000Y-101536983D01*
X219000000Y-101143017D01*
X218923141Y-100756622D01*
X218772377Y-100392645D01*
X218700000Y-100284325D01*
X218700000Y-100083499D01*
X218708224Y-99999999D01*
X218700000Y-99916499D01*
X218700000Y-99916490D01*
X218675402Y-99666742D01*
X218578194Y-99346291D01*
X218460902Y-99126853D01*
X218420337Y-99050960D01*
X218261131Y-98856968D01*
X218261128Y-98856965D01*
X218207897Y-98792103D01*
X218143035Y-98738872D01*
X214200000Y-94795837D01*
X214200000Y-94595670D01*
X214238868Y-94643031D01*
X214238873Y-94643036D01*
X214292103Y-94707897D01*
X214356965Y-94761128D01*
X217738872Y-98143035D01*
X217792103Y-98207897D01*
X217856965Y-98261128D01*
X217856968Y-98261131D01*
X217894308Y-98291775D01*
X218050961Y-98420337D01*
X218346291Y-98578194D01*
X218666742Y-98675402D01*
X218916490Y-98700000D01*
X218916507Y-98700000D01*
X218999999Y-98708223D01*
X219083491Y-98700000D01*
X219305887Y-98700000D01*
X219470089Y-98864202D01*
X219863174Y-99126853D01*
X220299946Y-99307770D01*
X220763621Y-99400000D01*
X221236379Y-99400000D01*
X221700054Y-99307770D01*
X222136826Y-99126853D01*
X222529911Y-98864202D01*
X222864202Y-98529911D01*
X223126853Y-98136826D01*
X223307770Y-97700054D01*
X223400000Y-97236379D01*
X223400000Y-96763621D01*
X223307770Y-96299946D01*
X223126853Y-95863174D01*
X222864202Y-95470089D01*
X222529911Y-95135798D01*
X222136826Y-94873147D01*
X221700054Y-94692230D01*
X221236379Y-94600000D01*
X220763621Y-94600000D01*
X220299946Y-94692230D01*
X219863174Y-94873147D01*
X219511974Y-95107811D01*
X217889549Y-93485386D01*
X217963017Y-93500000D01*
X218356983Y-93500000D01*
X218743378Y-93423141D01*
X219107355Y-93272377D01*
X219434926Y-93053501D01*
X219450199Y-93038228D01*
X223346108Y-93038228D01*
X223436808Y-93367784D01*
X223632062Y-93774665D01*
X223902943Y-94135635D01*
X224239041Y-94436823D01*
X224627440Y-94666655D01*
X225053214Y-94816297D01*
X225500000Y-94880000D01*
X226400000Y-94880000D01*
X226400000Y-92680000D01*
X226600000Y-92680000D01*
X226600000Y-94880000D01*
X227500000Y-94880000D01*
X227946786Y-94816297D01*
X228372560Y-94666655D01*
X228760959Y-94436823D01*
X229097057Y-94135635D01*
X229367938Y-93774665D01*
X229563192Y-93367784D01*
X229653892Y-93038228D01*
X229347434Y-92680000D01*
X226600000Y-92680000D01*
X226400000Y-92680000D01*
X223652566Y-92680000D01*
X223346108Y-93038228D01*
X219450199Y-93038228D01*
X219713501Y-92774926D01*
X219932377Y-92447355D01*
X220067237Y-92121772D01*
X223346108Y-92121772D01*
X223652566Y-92480000D01*
X226400000Y-92480000D01*
X226400000Y-90280000D01*
X226600000Y-90280000D01*
X226600000Y-92480000D01*
X229347434Y-92480000D01*
X229653892Y-92121772D01*
X229563192Y-91792216D01*
X229367938Y-91385335D01*
X229097057Y-91024365D01*
X228760959Y-90723177D01*
X228372560Y-90493345D01*
X227946786Y-90343703D01*
X227500000Y-90280000D01*
X226600000Y-90280000D01*
X226400000Y-90280000D01*
X225500000Y-90280000D01*
X225053214Y-90343703D01*
X224627440Y-90493345D01*
X224239041Y-90723177D01*
X223902943Y-91024365D01*
X223632062Y-91385335D01*
X223436808Y-91792216D01*
X223346108Y-92121772D01*
X220067237Y-92121772D01*
X220083141Y-92083378D01*
X220160000Y-91696983D01*
X220160000Y-91303017D01*
X220083141Y-90916622D01*
X219932377Y-90552645D01*
X219713501Y-90225074D01*
X219434926Y-89946499D01*
X219107355Y-89727623D01*
X218743378Y-89576859D01*
X218356983Y-89500000D01*
X218696983Y-89500000D01*
X219083378Y-89423141D01*
X219447355Y-89272377D01*
X219774926Y-89053501D01*
X220053501Y-88774926D01*
X220272377Y-88447355D01*
X220423141Y-88083378D01*
X220500000Y-87696983D01*
X220500000Y-87303017D01*
X220423141Y-86916622D01*
X220291993Y-86600000D01*
X223494194Y-86600000D01*
X223494194Y-88400000D01*
X223517363Y-88635241D01*
X223585981Y-88861442D01*
X223697409Y-89069910D01*
X223847366Y-89252634D01*
X224030090Y-89402591D01*
X224238558Y-89514019D01*
X224464759Y-89582637D01*
X224700000Y-89605806D01*
X228300000Y-89605806D01*
X228535241Y-89582637D01*
X228761442Y-89514019D01*
X228969910Y-89402591D01*
X229152634Y-89252634D01*
X229302591Y-89069910D01*
X229414019Y-88861442D01*
X229482637Y-88635241D01*
X229505806Y-88400000D01*
X229505806Y-86600000D01*
X229482637Y-86364759D01*
X229414019Y-86138558D01*
X229302591Y-85930090D01*
X229152634Y-85747366D01*
X228969910Y-85597409D01*
X228761442Y-85485981D01*
X228535241Y-85417363D01*
X228300000Y-85394194D01*
X224700000Y-85394194D01*
X224464759Y-85417363D01*
X224238558Y-85485981D01*
X224030090Y-85597409D01*
X223847366Y-85747366D01*
X223697409Y-85930090D01*
X223585981Y-86138558D01*
X223517363Y-86364759D01*
X223494194Y-86600000D01*
X220291993Y-86600000D01*
X220272377Y-86552645D01*
X220053501Y-86225074D01*
X219774926Y-85946499D01*
X219447355Y-85727623D01*
X219083378Y-85576859D01*
X218696983Y-85500000D01*
X218303017Y-85500000D01*
X217916622Y-85576859D01*
X217552645Y-85727623D01*
X217225074Y-85946499D01*
X216946499Y-86225074D01*
X216727623Y-86552645D01*
X216576859Y-86916622D01*
X216500000Y-87303017D01*
X216500000Y-87696983D01*
X216576859Y-88083378D01*
X216727623Y-88447355D01*
X216946499Y-88774926D01*
X217225074Y-89053501D01*
X217552645Y-89272377D01*
X217916622Y-89423141D01*
X218303017Y-89500000D01*
X217963017Y-89500000D01*
X217576622Y-89576859D01*
X217212645Y-89727623D01*
X217066839Y-89825047D01*
X217004713Y-89708817D01*
X216920337Y-89550960D01*
X216761131Y-89356968D01*
X216761128Y-89356965D01*
X216707897Y-89292103D01*
X216643035Y-89238872D01*
X209764147Y-82359984D01*
X209916622Y-82423141D01*
X210303017Y-82500000D01*
X210696983Y-82500000D01*
X211083378Y-82423141D01*
X211447355Y-82272377D01*
X211774926Y-82053501D01*
X212053501Y-81774926D01*
X212272377Y-81447355D01*
X212423141Y-81083378D01*
X212500000Y-80696983D01*
X212500000Y-80303017D01*
X212423141Y-79916622D01*
X212272377Y-79552645D01*
X212053501Y-79225074D01*
X211774926Y-78946499D01*
X211447355Y-78727623D01*
X211083378Y-78576859D01*
X210696983Y-78500000D01*
X210303017Y-78500000D01*
X209916622Y-78576859D01*
X209552645Y-78727623D01*
X209225074Y-78946499D01*
X208946499Y-79225074D01*
X208727623Y-79552645D01*
X208576859Y-79916622D01*
X208500000Y-80303017D01*
X208500000Y-80696983D01*
X208576859Y-81083378D01*
X208640016Y-81235853D01*
X204942391Y-77538228D01*
X223346108Y-77538228D01*
X223436808Y-77867784D01*
X223632062Y-78274665D01*
X223902943Y-78635635D01*
X224239041Y-78936823D01*
X224627440Y-79166655D01*
X225053214Y-79316297D01*
X225500000Y-79380000D01*
X226400000Y-79380000D01*
X226400000Y-77180000D01*
X226600000Y-77180000D01*
X226600000Y-79380000D01*
X227500000Y-79380000D01*
X227946786Y-79316297D01*
X228372560Y-79166655D01*
X228760959Y-78936823D01*
X229097057Y-78635635D01*
X229367938Y-78274665D01*
X229563192Y-77867784D01*
X229653892Y-77538228D01*
X229347434Y-77180000D01*
X226600000Y-77180000D01*
X226400000Y-77180000D01*
X223652566Y-77180000D01*
X223346108Y-77538228D01*
X204942391Y-77538228D01*
X204025935Y-76621772D01*
X223346108Y-76621772D01*
X223652566Y-76980000D01*
X226400000Y-76980000D01*
X226400000Y-74780000D01*
X226600000Y-74780000D01*
X226600000Y-76980000D01*
X229347434Y-76980000D01*
X229653892Y-76621772D01*
X229563192Y-76292216D01*
X229367938Y-75885335D01*
X229097057Y-75524365D01*
X228760959Y-75223177D01*
X228372560Y-74993345D01*
X227946786Y-74843703D01*
X227500000Y-74780000D01*
X226600000Y-74780000D01*
X226400000Y-74780000D01*
X225500000Y-74780000D01*
X225053214Y-74843703D01*
X224627440Y-74993345D01*
X224239041Y-75223177D01*
X223902943Y-75524365D01*
X223632062Y-75885335D01*
X223436808Y-76292216D01*
X223346108Y-76621772D01*
X204025935Y-76621772D01*
X203261128Y-75856965D01*
X203207897Y-75792103D01*
X203143035Y-75738872D01*
X203143031Y-75738868D01*
X202949039Y-75579663D01*
X202653709Y-75421806D01*
X202333258Y-75324598D01*
X202083510Y-75300000D01*
X202083500Y-75300000D01*
X202000000Y-75291776D01*
X201916500Y-75300000D01*
X196194113Y-75300000D01*
X196029911Y-75135798D01*
X195636826Y-74873147D01*
X195200054Y-74692230D01*
X194736379Y-74600000D01*
X194263621Y-74600000D01*
X193799946Y-74692230D01*
X193363174Y-74873147D01*
X192970089Y-75135798D01*
X192635798Y-75470089D01*
X192373147Y-75863174D01*
X192192230Y-76299946D01*
X192100000Y-76763621D01*
X192100000Y-77236379D01*
X192192230Y-77700054D01*
X192373147Y-78136826D01*
X192635798Y-78529911D01*
X192970089Y-78864202D01*
X193363174Y-79126853D01*
X193799946Y-79307770D01*
X194263621Y-79400000D01*
X194736379Y-79400000D01*
X195200054Y-79307770D01*
X195636826Y-79126853D01*
X196029911Y-78864202D01*
X196194113Y-78700000D01*
X201295837Y-78700000D01*
X209235853Y-86640016D01*
X209083378Y-86576859D01*
X208696983Y-86500000D01*
X208303017Y-86500000D01*
X207916622Y-86576859D01*
X207552645Y-86727623D01*
X207225074Y-86946499D01*
X206946499Y-87225074D01*
X206727623Y-87552645D01*
X206576859Y-87916622D01*
X206500000Y-88303017D01*
X206500000Y-88696983D01*
X206576859Y-89083378D01*
X206727623Y-89447355D01*
X206946499Y-89774926D01*
X206960659Y-89789086D01*
X206725074Y-89946499D01*
X206446499Y-90225074D01*
X206227623Y-90552645D01*
X206076859Y-90916622D01*
X206000000Y-91303017D01*
X206000000Y-91696983D01*
X206076859Y-92083378D01*
X206227623Y-92447355D01*
X206446499Y-92774926D01*
X206725074Y-93053501D01*
X207052645Y-93272377D01*
X207416622Y-93423141D01*
X207803017Y-93500000D01*
X208134094Y-93500000D01*
X207710468Y-93675471D01*
X207268248Y-93970953D01*
X206892171Y-94347030D01*
X206596689Y-94789250D01*
X206393158Y-95280619D01*
X206289398Y-95802253D01*
X206289398Y-96334107D01*
X206393158Y-96855741D01*
X206596689Y-97347110D01*
X206892171Y-97789330D01*
X207268248Y-98165407D01*
X207710468Y-98460889D01*
X208201837Y-98664420D01*
X208723471Y-98768180D01*
X209255325Y-98768180D01*
X209776959Y-98664420D01*
X210268328Y-98460889D01*
X210710548Y-98165407D01*
X211086625Y-97789330D01*
X211382107Y-97347110D01*
X211546373Y-96950536D01*
X213538314Y-98942477D01*
X213265908Y-98888292D01*
X212734054Y-98888292D01*
X212212420Y-98992052D01*
X211721051Y-99195583D01*
X211432642Y-99388292D01*
X201019770Y-99388292D01*
X200911708Y-99377649D01*
X200803646Y-99388292D01*
X200803638Y-99388292D01*
X200480433Y-99420125D01*
X200065731Y-99545923D01*
X199683540Y-99750209D01*
X199432490Y-99956240D01*
X199432486Y-99956244D01*
X199348547Y-100025131D01*
X199279659Y-100109071D01*
X196588732Y-102800000D01*
X194420524Y-102800000D01*
X194596196Y-102375890D01*
X194699956Y-101854256D01*
X194699956Y-101322402D01*
X194596196Y-100800768D01*
X194392665Y-100309399D01*
X194097183Y-99867179D01*
X193721106Y-99491102D01*
X193278886Y-99195620D01*
X192787517Y-98992089D01*
X192265883Y-98888329D01*
X191734029Y-98888329D01*
X191212395Y-98992089D01*
X190721026Y-99195620D01*
X190278806Y-99491102D01*
X189902729Y-99867179D01*
X189607247Y-100309399D01*
X189403716Y-100800768D01*
X189299956Y-101322402D01*
X189299956Y-101854256D01*
X189403716Y-102375890D01*
X189579388Y-102800000D01*
X189049892Y-102800000D01*
X189115455Y-102641716D01*
X189200000Y-102216681D01*
X189200000Y-101783319D01*
X189115455Y-101358284D01*
X188949615Y-100957909D01*
X188708852Y-100597582D01*
X188700000Y-100588730D01*
X188700000Y-97700000D01*
X193853802Y-97700000D01*
X193913461Y-97789286D01*
X194289538Y-98165363D01*
X194731758Y-98460845D01*
X195223127Y-98664376D01*
X195744761Y-98768136D01*
X196276615Y-98768136D01*
X196798249Y-98664376D01*
X197289618Y-98460845D01*
X197731838Y-98165363D01*
X198107915Y-97789286D01*
X198403397Y-97347066D01*
X198606928Y-96855697D01*
X198710688Y-96334063D01*
X198710688Y-95802209D01*
X198606928Y-95280575D01*
X198403397Y-94789206D01*
X198107915Y-94346986D01*
X197731838Y-93970909D01*
X197316975Y-93693706D01*
X199799959Y-93693706D01*
X199799959Y-94225560D01*
X199903719Y-94747194D01*
X200107250Y-95238563D01*
X200402732Y-95680783D01*
X200778809Y-96056860D01*
X201221029Y-96352342D01*
X201712398Y-96555873D01*
X202234032Y-96659633D01*
X202765886Y-96659633D01*
X203287520Y-96555873D01*
X203778889Y-96352342D01*
X204221109Y-96056860D01*
X204597186Y-95680783D01*
X204892668Y-95238563D01*
X205096199Y-94747194D01*
X205199959Y-94225560D01*
X205199959Y-93693706D01*
X205096199Y-93172072D01*
X204892668Y-92680703D01*
X204597186Y-92238483D01*
X204221109Y-91862406D01*
X203778889Y-91566924D01*
X203287520Y-91363393D01*
X202765886Y-91259633D01*
X202234032Y-91259633D01*
X201712398Y-91363393D01*
X201221029Y-91566924D01*
X200778809Y-91862406D01*
X200402732Y-92238483D01*
X200107250Y-92680703D01*
X199903719Y-93172072D01*
X199799959Y-93693706D01*
X197316975Y-93693706D01*
X197289618Y-93675427D01*
X196798249Y-93471896D01*
X196590889Y-93430649D01*
X196626853Y-93376826D01*
X196807770Y-92940054D01*
X196900000Y-92476379D01*
X196900000Y-92003621D01*
X196807770Y-91539946D01*
X196626853Y-91103174D01*
X196364202Y-90710089D01*
X196029911Y-90375798D01*
X195636826Y-90113147D01*
X195200054Y-89932230D01*
X194736379Y-89840000D01*
X194263621Y-89840000D01*
X193799946Y-89932230D01*
X193363174Y-90113147D01*
X192970089Y-90375798D01*
X192635798Y-90710089D01*
X192373147Y-91103174D01*
X192192230Y-91539946D01*
X192100000Y-92003621D01*
X192100000Y-92476379D01*
X192192230Y-92940054D01*
X192373147Y-93376826D01*
X192635798Y-93769911D01*
X192970089Y-94104202D01*
X193263121Y-94300000D01*
X187083510Y-94300000D01*
X187000000Y-94291775D01*
X186916490Y-94300000D01*
X181476955Y-94300000D01*
X181157403Y-93980448D01*
X180731562Y-93695910D01*
X180258392Y-93499917D01*
X179756078Y-93400000D01*
X179243922Y-93400000D01*
X178741608Y-93499917D01*
X178268438Y-93695910D01*
X177842597Y-93980448D01*
X177480448Y-94342597D01*
X177195910Y-94768438D01*
X176999917Y-95241608D01*
X176900000Y-95743922D01*
X176900000Y-96256078D01*
X176999917Y-96758392D01*
X177195910Y-97231562D01*
X177480448Y-97657403D01*
X177842597Y-98019552D01*
X178268438Y-98304090D01*
X178741608Y-98500083D01*
X179243922Y-98600000D01*
X179756078Y-98600000D01*
X180258392Y-98500083D01*
X180731562Y-98304090D01*
X181157403Y-98019552D01*
X181476955Y-97700000D01*
X185300001Y-97700000D01*
X185300000Y-100588730D01*
X185291148Y-100597582D01*
X185050385Y-100957909D01*
X184884545Y-101358284D01*
X184800000Y-101783319D01*
X184800000Y-102216681D01*
X184884545Y-102641716D01*
X184950108Y-102800000D01*
X181406420Y-102800000D01*
X181349535Y-102612476D01*
X181154535Y-102247657D01*
X180892109Y-101927891D01*
X180572343Y-101665465D01*
X180207524Y-101470465D01*
X179811672Y-101350385D01*
X179503167Y-101320000D01*
X179155991Y-101320000D01*
X178931274Y-101251833D01*
X178500000Y-101209356D01*
X178068725Y-101251833D01*
X177844008Y-101320000D01*
X177496833Y-101320000D01*
X177188328Y-101350385D01*
X176792476Y-101470465D01*
X176427657Y-101665465D01*
X176107891Y-101927891D01*
X175845465Y-102247657D01*
X175650465Y-102612476D01*
X175530385Y-103008328D01*
X175489839Y-103420000D01*
X173775000Y-103420000D01*
X173775000Y-87763621D01*
X180100000Y-87763621D01*
X180100000Y-88236379D01*
X180192230Y-88700054D01*
X180373147Y-89136826D01*
X180635798Y-89529911D01*
X180970089Y-89864202D01*
X181363174Y-90126853D01*
X181799946Y-90307770D01*
X182263621Y-90400000D01*
X182736379Y-90400000D01*
X183200054Y-90307770D01*
X183636826Y-90126853D01*
X184029911Y-89864202D01*
X184364202Y-89529911D01*
X184626853Y-89136826D01*
X184807770Y-88700054D01*
X184886744Y-88303017D01*
X196340000Y-88303017D01*
X196340000Y-88696983D01*
X196416859Y-89083378D01*
X196567623Y-89447355D01*
X196786499Y-89774926D01*
X197065074Y-90053501D01*
X197392645Y-90272377D01*
X197756622Y-90423141D01*
X198143017Y-90500000D01*
X198536983Y-90500000D01*
X198923378Y-90423141D01*
X199287355Y-90272377D01*
X199614926Y-90053501D01*
X199893501Y-89774926D01*
X200112377Y-89447355D01*
X200263141Y-89083378D01*
X200340000Y-88696983D01*
X200340000Y-88303017D01*
X200263141Y-87916622D01*
X200112377Y-87552645D01*
X200042587Y-87448197D01*
X200303017Y-87500000D01*
X200696983Y-87500000D01*
X201083378Y-87423141D01*
X201447355Y-87272377D01*
X201774926Y-87053501D01*
X202053501Y-86774926D01*
X202272377Y-86447355D01*
X202423141Y-86083378D01*
X202500000Y-85696983D01*
X202500000Y-85303017D01*
X202423141Y-84916622D01*
X202272377Y-84552645D01*
X202053501Y-84225074D01*
X201774926Y-83946499D01*
X201447355Y-83727623D01*
X201083378Y-83576859D01*
X200696983Y-83500000D01*
X200303017Y-83500000D01*
X199916622Y-83576859D01*
X199552645Y-83727623D01*
X199225074Y-83946499D01*
X198946499Y-84225074D01*
X198727623Y-84552645D01*
X198576859Y-84916622D01*
X198500000Y-85303017D01*
X198500000Y-85696983D01*
X198576859Y-86083378D01*
X198727623Y-86447355D01*
X198797413Y-86551803D01*
X198536983Y-86500000D01*
X198143017Y-86500000D01*
X197756622Y-86576859D01*
X197392645Y-86727623D01*
X197065074Y-86946499D01*
X196786499Y-87225074D01*
X196567623Y-87552645D01*
X196416859Y-87916622D01*
X196340000Y-88303017D01*
X184886744Y-88303017D01*
X184900000Y-88236379D01*
X184900000Y-87763621D01*
X184807770Y-87299946D01*
X184626853Y-86863174D01*
X184364202Y-86470089D01*
X184029911Y-86135798D01*
X183636826Y-85873147D01*
X183200054Y-85692230D01*
X182736379Y-85600000D01*
X182263621Y-85600000D01*
X181799946Y-85692230D01*
X181363174Y-85873147D01*
X180970089Y-86135798D01*
X180635798Y-86470089D01*
X180373147Y-86863174D01*
X180192230Y-87299946D01*
X180100000Y-87763621D01*
X173775000Y-87763621D01*
X173775000Y-79300000D01*
X180094194Y-79300000D01*
X180094194Y-81700000D01*
X180117363Y-81935241D01*
X180185981Y-82161442D01*
X180297409Y-82369910D01*
X180447366Y-82552634D01*
X180630090Y-82702591D01*
X180838558Y-82814019D01*
X181064759Y-82882637D01*
X181300000Y-82905806D01*
X183700000Y-82905806D01*
X183935241Y-82882637D01*
X184161442Y-82814019D01*
X184369910Y-82702591D01*
X184552634Y-82552634D01*
X184702591Y-82369910D01*
X184814019Y-82161442D01*
X184882637Y-81935241D01*
X184905806Y-81700000D01*
X184905806Y-79300000D01*
X184882637Y-79064759D01*
X184814019Y-78838558D01*
X184702591Y-78630090D01*
X184552634Y-78447366D01*
X184369910Y-78297409D01*
X184161442Y-78185981D01*
X183935241Y-78117363D01*
X183700000Y-78094194D01*
X181300000Y-78094194D01*
X181064759Y-78117363D01*
X180838558Y-78185981D01*
X180630090Y-78297409D01*
X180447366Y-78447366D01*
X180297409Y-78630090D01*
X180185981Y-78838558D01*
X180117363Y-79064759D01*
X180094194Y-79300000D01*
X173775000Y-79300000D01*
X173775000Y-71763621D01*
X176860000Y-71763621D01*
X176860000Y-72236379D01*
X176952230Y-72700054D01*
X177133147Y-73136826D01*
X177395798Y-73529911D01*
X177730089Y-73864202D01*
X178123174Y-74126853D01*
X178559946Y-74307770D01*
X179023621Y-74400000D01*
X179496379Y-74400000D01*
X179960054Y-74307770D01*
X180396826Y-74126853D01*
X180789911Y-73864202D01*
X181124202Y-73529911D01*
X181386853Y-73136826D01*
X181567770Y-72700054D01*
X181660000Y-72236379D01*
X181660000Y-71763621D01*
X192100000Y-71763621D01*
X192100000Y-72236379D01*
X192192230Y-72700054D01*
X192373147Y-73136826D01*
X192635798Y-73529911D01*
X192970089Y-73864202D01*
X193363174Y-74126853D01*
X193799946Y-74307770D01*
X194263621Y-74400000D01*
X194736379Y-74400000D01*
X195200054Y-74307770D01*
X195636826Y-74126853D01*
X196029911Y-73864202D01*
X196364202Y-73529911D01*
X196626853Y-73136826D01*
X196807770Y-72700054D01*
X196900000Y-72236379D01*
X196900000Y-71763621D01*
X196807770Y-71299946D01*
X196626853Y-70863174D01*
X196364202Y-70470089D01*
X196037130Y-70143017D01*
X208500000Y-70143017D01*
X208500000Y-70536983D01*
X208576859Y-70923378D01*
X208727623Y-71287355D01*
X208946499Y-71614926D01*
X209225074Y-71893501D01*
X209552645Y-72112377D01*
X209916622Y-72263141D01*
X210303017Y-72340000D01*
X210696983Y-72340000D01*
X211083378Y-72263141D01*
X211447355Y-72112377D01*
X211774926Y-71893501D01*
X212053501Y-71614926D01*
X212272377Y-71287355D01*
X212349981Y-71100000D01*
X223494194Y-71100000D01*
X223494194Y-72900000D01*
X223517363Y-73135241D01*
X223585981Y-73361442D01*
X223697409Y-73569910D01*
X223847366Y-73752634D01*
X224030090Y-73902591D01*
X224238558Y-74014019D01*
X224464759Y-74082637D01*
X224700000Y-74105806D01*
X228300000Y-74105806D01*
X228535241Y-74082637D01*
X228761442Y-74014019D01*
X228969910Y-73902591D01*
X229152634Y-73752634D01*
X229302591Y-73569910D01*
X229414019Y-73361442D01*
X229482637Y-73135241D01*
X229505806Y-72900000D01*
X229505806Y-71100000D01*
X229482637Y-70864759D01*
X229414019Y-70638558D01*
X229302591Y-70430090D01*
X229152634Y-70247366D01*
X228969910Y-70097409D01*
X228761442Y-69985981D01*
X228535241Y-69917363D01*
X228300000Y-69894194D01*
X224700000Y-69894194D01*
X224464759Y-69917363D01*
X224238558Y-69985981D01*
X224030090Y-70097409D01*
X223847366Y-70247366D01*
X223697409Y-70430090D01*
X223585981Y-70638558D01*
X223517363Y-70864759D01*
X223494194Y-71100000D01*
X212349981Y-71100000D01*
X212423141Y-70923378D01*
X212500000Y-70536983D01*
X212500000Y-70143017D01*
X212423141Y-69756622D01*
X212272377Y-69392645D01*
X212053501Y-69065074D01*
X211774926Y-68786499D01*
X211447355Y-68567623D01*
X211083378Y-68416859D01*
X210696983Y-68340000D01*
X210303017Y-68340000D01*
X209916622Y-68416859D01*
X209552645Y-68567623D01*
X209225074Y-68786499D01*
X208946499Y-69065074D01*
X208727623Y-69392645D01*
X208576859Y-69756622D01*
X208500000Y-70143017D01*
X196037130Y-70143017D01*
X196029911Y-70135798D01*
X195636826Y-69873147D01*
X195200054Y-69692230D01*
X194736379Y-69600000D01*
X194263621Y-69600000D01*
X193799946Y-69692230D01*
X193363174Y-69873147D01*
X192970089Y-70135798D01*
X192635798Y-70470089D01*
X192373147Y-70863174D01*
X192192230Y-71299946D01*
X192100000Y-71763621D01*
X181660000Y-71763621D01*
X181567770Y-71299946D01*
X181386853Y-70863174D01*
X181124202Y-70470089D01*
X180789911Y-70135798D01*
X180396826Y-69873147D01*
X179960054Y-69692230D01*
X179496379Y-69600000D01*
X179023621Y-69600000D01*
X178559946Y-69692230D01*
X178123174Y-69873147D01*
X177730089Y-70135798D01*
X177395798Y-70470089D01*
X177133147Y-70863174D01*
X176952230Y-71299946D01*
X176860000Y-71763621D01*
X173775000Y-71763621D01*
X173775000Y-62224224D01*
X174700000Y-62224224D01*
X174700000Y-62775776D01*
X174807602Y-63316730D01*
X175018672Y-63826297D01*
X175325098Y-64284896D01*
X175715104Y-64674902D01*
X176173703Y-64981328D01*
X176683270Y-65192398D01*
X177224224Y-65300000D01*
X177775776Y-65300000D01*
X178316730Y-65192398D01*
X178826297Y-64981328D01*
X179284896Y-64674902D01*
X179674902Y-64284896D01*
X179981328Y-63826297D01*
X180192398Y-63316730D01*
X180300000Y-62775776D01*
X180300000Y-62224224D01*
X180195726Y-61700000D01*
X184894194Y-61700000D01*
X184894194Y-65300000D01*
X184917363Y-65535241D01*
X184985981Y-65761442D01*
X185097409Y-65969910D01*
X185247366Y-66152634D01*
X185430090Y-66302591D01*
X185638558Y-66414019D01*
X185864759Y-66482637D01*
X186100000Y-66505806D01*
X187900000Y-66505806D01*
X188135241Y-66482637D01*
X188361442Y-66414019D01*
X188569910Y-66302591D01*
X188752634Y-66152634D01*
X188902591Y-65969910D01*
X189014019Y-65761442D01*
X189082637Y-65535241D01*
X189105806Y-65300000D01*
X189105806Y-62496834D01*
X189980000Y-62496834D01*
X189980000Y-64503167D01*
X190010386Y-64811672D01*
X190130466Y-65207524D01*
X190325466Y-65572343D01*
X190587892Y-65892109D01*
X190907658Y-66154535D01*
X191272477Y-66349535D01*
X191668329Y-66469615D01*
X192080000Y-66510161D01*
X192491672Y-66469615D01*
X192887524Y-66349535D01*
X193252343Y-66154535D01*
X193572109Y-65892109D01*
X193834535Y-65572343D01*
X193978492Y-65303017D01*
X198500000Y-65303017D01*
X198500000Y-65696983D01*
X198576859Y-66083378D01*
X198727623Y-66447355D01*
X198946499Y-66774926D01*
X199225074Y-67053501D01*
X199552645Y-67272377D01*
X199916622Y-67423141D01*
X200303017Y-67500000D01*
X200696983Y-67500000D01*
X201083378Y-67423141D01*
X201447355Y-67272377D01*
X201774926Y-67053501D01*
X202053501Y-66774926D01*
X202272377Y-66447355D01*
X202423141Y-66083378D01*
X202500000Y-65696983D01*
X202500000Y-65303017D01*
X202423141Y-64916622D01*
X202272377Y-64552645D01*
X202053501Y-64225074D01*
X201774926Y-63946499D01*
X201447355Y-63727623D01*
X201083378Y-63576859D01*
X200696983Y-63500000D01*
X200303017Y-63500000D01*
X199916622Y-63576859D01*
X199552645Y-63727623D01*
X199225074Y-63946499D01*
X198946499Y-64225074D01*
X198727623Y-64552645D01*
X198576859Y-64916622D01*
X198500000Y-65303017D01*
X193978492Y-65303017D01*
X194029535Y-65207524D01*
X194149615Y-64811672D01*
X194180000Y-64503166D01*
X194180000Y-63283319D01*
X203300000Y-63283319D01*
X203300000Y-63716681D01*
X203384545Y-64141716D01*
X203550385Y-64542091D01*
X203791148Y-64902418D01*
X204097582Y-65208852D01*
X204457909Y-65449615D01*
X204858284Y-65615455D01*
X205283319Y-65700000D01*
X205716681Y-65700000D01*
X206141716Y-65615455D01*
X206542091Y-65449615D01*
X206902418Y-65208852D01*
X207208852Y-64902418D01*
X207449615Y-64542091D01*
X207615455Y-64141716D01*
X207700000Y-63716681D01*
X207700000Y-63283319D01*
X207615455Y-62858284D01*
X207467050Y-62500000D01*
X208294194Y-62500000D01*
X208294194Y-64500000D01*
X208317363Y-64735241D01*
X208385981Y-64961442D01*
X208497409Y-65169910D01*
X208647366Y-65352634D01*
X208830090Y-65502591D01*
X209038558Y-65614019D01*
X209264759Y-65682637D01*
X209500000Y-65705806D01*
X211500000Y-65705806D01*
X211735241Y-65682637D01*
X211961442Y-65614019D01*
X212004835Y-65590825D01*
X224550597Y-65590825D01*
X224864643Y-66297388D01*
X225656115Y-66738554D01*
X226518446Y-67016836D01*
X227418497Y-67121538D01*
X228321681Y-67048637D01*
X229193287Y-66800935D01*
X229999822Y-66387949D01*
X230135357Y-66297388D01*
X230449403Y-65590825D01*
X227500000Y-62641421D01*
X224550597Y-65590825D01*
X212004835Y-65590825D01*
X212169910Y-65502591D01*
X212352634Y-65352634D01*
X212502591Y-65169910D01*
X212614019Y-64961442D01*
X212682637Y-64735241D01*
X212705806Y-64500000D01*
X212705806Y-62500000D01*
X212697779Y-62418497D01*
X222878462Y-62418497D01*
X222951363Y-63321681D01*
X223199065Y-64193287D01*
X223612051Y-64999822D01*
X223702612Y-65135357D01*
X224409175Y-65449403D01*
X227358579Y-62500000D01*
X224409175Y-59550597D01*
X223702612Y-59864643D01*
X223261446Y-60656115D01*
X222983164Y-61518446D01*
X222878462Y-62418497D01*
X212697779Y-62418497D01*
X212682637Y-62264759D01*
X212614019Y-62038558D01*
X212502591Y-61830090D01*
X212352634Y-61647366D01*
X212169910Y-61497409D01*
X211961442Y-61385981D01*
X211735241Y-61317363D01*
X211500000Y-61294194D01*
X209500000Y-61294194D01*
X209264759Y-61317363D01*
X209038558Y-61385981D01*
X208830090Y-61497409D01*
X208647366Y-61647366D01*
X208497409Y-61830090D01*
X208385981Y-62038558D01*
X208317363Y-62264759D01*
X208294194Y-62500000D01*
X207467050Y-62500000D01*
X207449615Y-62457909D01*
X207208852Y-62097582D01*
X206902418Y-61791148D01*
X206542091Y-61550385D01*
X206141716Y-61384545D01*
X205716681Y-61300000D01*
X205283319Y-61300000D01*
X204858284Y-61384545D01*
X204457909Y-61550385D01*
X204097582Y-61791148D01*
X203791148Y-62097582D01*
X203550385Y-62457909D01*
X203384545Y-62858284D01*
X203300000Y-63283319D01*
X194180000Y-63283319D01*
X194180000Y-62496833D01*
X194149615Y-62188328D01*
X194029535Y-61792476D01*
X193834535Y-61427657D01*
X193572109Y-61107891D01*
X193252343Y-60845465D01*
X192887523Y-60650465D01*
X192491671Y-60530385D01*
X192080000Y-60489839D01*
X191668328Y-60530385D01*
X191272476Y-60650465D01*
X190907657Y-60845465D01*
X190587891Y-61107891D01*
X190325465Y-61427657D01*
X190130465Y-61792477D01*
X190010385Y-62188329D01*
X189980000Y-62496834D01*
X189105806Y-62496834D01*
X189105806Y-61700000D01*
X189082637Y-61464759D01*
X189014019Y-61238558D01*
X188902591Y-61030090D01*
X188752634Y-60847366D01*
X188569910Y-60697409D01*
X188361442Y-60585981D01*
X188135241Y-60517363D01*
X187900000Y-60494194D01*
X186100000Y-60494194D01*
X185864759Y-60517363D01*
X185638558Y-60585981D01*
X185430090Y-60697409D01*
X185247366Y-60847366D01*
X185097409Y-61030090D01*
X184985981Y-61238558D01*
X184917363Y-61464759D01*
X184894194Y-61700000D01*
X180195726Y-61700000D01*
X180192398Y-61683270D01*
X179981328Y-61173703D01*
X179674902Y-60715104D01*
X179284896Y-60325098D01*
X178826297Y-60018672D01*
X178316730Y-59807602D01*
X177775776Y-59700000D01*
X177224224Y-59700000D01*
X176683270Y-59807602D01*
X176173703Y-60018672D01*
X175715104Y-60325098D01*
X175325098Y-60715104D01*
X175018672Y-61173703D01*
X174807602Y-61683270D01*
X174700000Y-62224224D01*
X173775000Y-62224224D01*
X173775000Y-58775000D01*
X216913140Y-58775000D01*
X216727623Y-59052645D01*
G37*
X216727623Y-59052645D02*
X216576859Y-59416622D01*
X216500000Y-59803017D01*
X216500000Y-60196983D01*
X216576859Y-60583378D01*
X216727623Y-60947355D01*
X216946499Y-61274926D01*
X217225074Y-61553501D01*
X217552645Y-61772377D01*
X217916622Y-61923141D01*
X218303017Y-62000000D01*
X218696983Y-62000000D01*
X219083378Y-61923141D01*
X219447355Y-61772377D01*
X219774926Y-61553501D01*
X220053501Y-61274926D01*
X220272377Y-60947355D01*
X220423141Y-60583378D01*
X220500000Y-60196983D01*
X220500000Y-59803017D01*
X220423141Y-59416622D01*
X220272377Y-59052645D01*
X220086860Y-58775000D01*
X224832469Y-58775000D01*
X224550597Y-59409175D01*
X227500000Y-62358579D01*
X230449403Y-59409175D01*
X230167531Y-58775000D01*
X231225001Y-58775000D01*
X231225001Y-59832469D01*
X230590825Y-59550597D01*
X227641421Y-62500000D01*
X230590825Y-65449403D01*
X231225001Y-65167531D01*
X231225000Y-151225000D01*
X173775000Y-151225000D01*
X173775000Y-147224224D01*
X174700000Y-147224224D01*
X174700000Y-147775776D01*
X174807602Y-148316730D01*
X175018672Y-148826297D01*
X175325098Y-149284896D01*
X175715104Y-149674902D01*
X176173703Y-149981328D01*
X176683270Y-150192398D01*
X177224224Y-150300000D01*
X177775776Y-150300000D01*
X178316730Y-150192398D01*
X178826297Y-149981328D01*
X179284896Y-149674902D01*
X179674902Y-149284896D01*
X179981328Y-148826297D01*
X180192398Y-148316730D01*
X180300000Y-147775776D01*
X180300000Y-147224224D01*
X180192398Y-146683270D01*
X179981328Y-146173703D01*
X179674902Y-145715104D01*
X179456631Y-145496833D01*
X182840000Y-145496833D01*
X182840000Y-147503166D01*
X182870385Y-147811671D01*
X182990465Y-148207523D01*
X183185465Y-148572343D01*
X183447891Y-148892109D01*
X183767657Y-149154535D01*
X184132476Y-149349535D01*
X184528328Y-149469615D01*
X184940000Y-149510161D01*
X185351671Y-149469615D01*
X185747523Y-149349535D01*
X186112343Y-149154535D01*
X186432109Y-148892109D01*
X186694535Y-148572343D01*
X186889535Y-148207524D01*
X187009615Y-147811672D01*
X187040000Y-147503167D01*
X187040000Y-145496834D01*
X187040000Y-145496833D01*
X187920000Y-145496833D01*
X187920000Y-147503166D01*
X187950385Y-147811671D01*
X188070465Y-148207523D01*
X188265465Y-148572343D01*
X188527891Y-148892109D01*
X188847657Y-149154535D01*
X189212476Y-149349535D01*
X189608328Y-149469615D01*
X190020000Y-149510161D01*
X190431671Y-149469615D01*
X190827523Y-149349535D01*
X191192343Y-149154535D01*
X191512109Y-148892109D01*
X191774535Y-148572343D01*
X191969535Y-148207524D01*
X192089615Y-147811672D01*
X192120000Y-147503167D01*
X192120000Y-146600000D01*
X192800000Y-146600000D01*
X192800000Y-147500000D01*
X192863703Y-147946786D01*
X193013345Y-148372560D01*
X193243177Y-148760959D01*
X193544365Y-149097057D01*
X193905335Y-149367938D01*
X194312216Y-149563192D01*
X194641772Y-149653892D01*
X195000000Y-149347434D01*
X195000000Y-146600000D01*
X195200000Y-146600000D01*
X195200000Y-149347434D01*
X195558228Y-149653892D01*
X195887784Y-149563192D01*
X196294665Y-149367938D01*
X196655635Y-149097057D01*
X196956823Y-148760959D01*
X197186655Y-148372560D01*
X197336297Y-147946786D01*
X197400000Y-147500000D01*
X197400000Y-146600000D01*
X195200000Y-146600000D01*
X195000000Y-146600000D01*
X192800000Y-146600000D01*
X192120000Y-146600000D01*
X192120000Y-145500000D01*
X192800000Y-145500000D01*
X192800000Y-146400000D01*
X195000000Y-146400000D01*
X195000000Y-143652566D01*
X195200000Y-143652566D01*
X195200000Y-146400000D01*
X197400000Y-146400000D01*
X197400000Y-145500000D01*
X197399549Y-145496833D01*
X198080000Y-145496833D01*
X198080000Y-147503166D01*
X198110385Y-147811671D01*
X198230465Y-148207523D01*
X198425465Y-148572343D01*
X198687891Y-148892109D01*
X199007657Y-149154535D01*
X199372476Y-149349535D01*
X199768328Y-149469615D01*
X200180000Y-149510161D01*
X200591671Y-149469615D01*
X200987523Y-149349535D01*
X201352343Y-149154535D01*
X201672109Y-148892109D01*
X201934535Y-148572343D01*
X202129535Y-148207524D01*
X202249615Y-147811672D01*
X202280000Y-147503167D01*
X202280000Y-145496834D01*
X202280000Y-145496833D01*
X203160000Y-145496833D01*
X203160000Y-147503166D01*
X203190385Y-147811671D01*
X203310465Y-148207523D01*
X203505465Y-148572343D01*
X203767891Y-148892109D01*
X204087657Y-149154535D01*
X204452476Y-149349535D01*
X204848328Y-149469615D01*
X205260000Y-149510161D01*
X205671671Y-149469615D01*
X206067523Y-149349535D01*
X206432343Y-149154535D01*
X206752109Y-148892109D01*
X207014535Y-148572343D01*
X207209535Y-148207524D01*
X207329615Y-147811672D01*
X207360000Y-147503167D01*
X207360000Y-146600000D01*
X208040000Y-146600000D01*
X208040000Y-147500000D01*
X208103703Y-147946786D01*
X208253345Y-148372560D01*
X208483177Y-148760959D01*
X208784365Y-149097057D01*
X209145335Y-149367938D01*
X209552216Y-149563192D01*
X209881772Y-149653892D01*
X210240000Y-149347434D01*
X210240000Y-146600000D01*
X210440000Y-146600000D01*
X210440000Y-149347434D01*
X210798228Y-149653892D01*
X211127784Y-149563192D01*
X211534665Y-149367938D01*
X211895635Y-149097057D01*
X212196823Y-148760959D01*
X212426655Y-148372560D01*
X212576297Y-147946786D01*
X212640000Y-147500000D01*
X212640000Y-146600000D01*
X210440000Y-146600000D01*
X210240000Y-146600000D01*
X208040000Y-146600000D01*
X207360000Y-146600000D01*
X207360000Y-145500000D01*
X208040000Y-145500000D01*
X208040000Y-146400000D01*
X210240000Y-146400000D01*
X210240000Y-143652566D01*
X210440000Y-143652566D01*
X210440000Y-146400000D01*
X212640000Y-146400000D01*
X212640000Y-145500000D01*
X212639549Y-145496833D01*
X213320000Y-145496833D01*
X213320000Y-147503166D01*
X213350385Y-147811671D01*
X213470465Y-148207523D01*
X213665465Y-148572343D01*
X213927891Y-148892109D01*
X214247657Y-149154535D01*
X214612476Y-149349535D01*
X215008328Y-149469615D01*
X215420000Y-149510161D01*
X215831671Y-149469615D01*
X216227523Y-149349535D01*
X216592343Y-149154535D01*
X216912109Y-148892109D01*
X217174535Y-148572343D01*
X217369535Y-148207524D01*
X217489615Y-147811672D01*
X217520000Y-147503167D01*
X217520000Y-145496834D01*
X217489615Y-145188328D01*
X217369535Y-144792476D01*
X217320106Y-144700000D01*
X218394194Y-144700000D01*
X218394194Y-148300000D01*
X218417363Y-148535241D01*
X218485981Y-148761442D01*
X218597409Y-148969910D01*
X218747366Y-149152634D01*
X218930090Y-149302591D01*
X219138558Y-149414019D01*
X219364759Y-149482637D01*
X219600000Y-149505806D01*
X221400000Y-149505806D01*
X221635241Y-149482637D01*
X221861442Y-149414019D01*
X222069910Y-149302591D01*
X222252634Y-149152634D01*
X222402591Y-148969910D01*
X222514019Y-148761442D01*
X222582637Y-148535241D01*
X222605806Y-148300000D01*
X222605806Y-147224224D01*
X224700000Y-147224224D01*
X224700000Y-147775776D01*
X224807602Y-148316730D01*
X225018672Y-148826297D01*
X225325098Y-149284896D01*
X225715104Y-149674902D01*
X226173703Y-149981328D01*
X226683270Y-150192398D01*
X227224224Y-150300000D01*
X227775776Y-150300000D01*
X228316730Y-150192398D01*
X228826297Y-149981328D01*
X229284896Y-149674902D01*
X229674902Y-149284896D01*
X229981328Y-148826297D01*
X230192398Y-148316730D01*
X230300000Y-147775776D01*
X230300000Y-147224224D01*
X230192398Y-146683270D01*
X229981328Y-146173703D01*
X229674902Y-145715104D01*
X229284896Y-145325098D01*
X228826297Y-145018672D01*
X228316730Y-144807602D01*
X227775776Y-144700000D01*
X227224224Y-144700000D01*
X226683270Y-144807602D01*
X226173703Y-145018672D01*
X225715104Y-145325098D01*
X225325098Y-145715104D01*
X225018672Y-146173703D01*
X224807602Y-146683270D01*
X224700000Y-147224224D01*
X222605806Y-147224224D01*
X222605806Y-144700000D01*
X222582637Y-144464759D01*
X222514019Y-144238558D01*
X222402591Y-144030090D01*
X222252634Y-143847366D01*
X222069910Y-143697409D01*
X221861442Y-143585981D01*
X221635241Y-143517363D01*
X221400000Y-143494194D01*
X219600000Y-143494194D01*
X219364759Y-143517363D01*
X219138558Y-143585981D01*
X218930090Y-143697409D01*
X218747366Y-143847366D01*
X218597409Y-144030090D01*
X218485981Y-144238558D01*
X218417363Y-144464759D01*
X218394194Y-144700000D01*
X217320106Y-144700000D01*
X217174535Y-144427657D01*
X216912109Y-144107891D01*
X216592343Y-143845465D01*
X216227524Y-143650465D01*
X215831672Y-143530385D01*
X215420000Y-143489839D01*
X215008329Y-143530385D01*
X214612477Y-143650465D01*
X214247658Y-143845465D01*
X213927892Y-144107891D01*
X213665466Y-144427657D01*
X213470466Y-144792476D01*
X213350386Y-145188328D01*
X213320000Y-145496833D01*
X212639549Y-145496833D01*
X212576297Y-145053214D01*
X212426655Y-144627440D01*
X212196823Y-144239041D01*
X211895635Y-143902943D01*
X211534665Y-143632062D01*
X211127784Y-143436808D01*
X210798228Y-143346108D01*
X210440000Y-143652566D01*
X210240000Y-143652566D01*
X209881772Y-143346108D01*
X209552216Y-143436808D01*
X209145335Y-143632062D01*
X208784365Y-143902943D01*
X208483177Y-144239041D01*
X208253345Y-144627440D01*
X208103703Y-145053214D01*
X208040000Y-145500000D01*
X207360000Y-145500000D01*
X207360000Y-145496834D01*
X207329615Y-145188328D01*
X207209535Y-144792476D01*
X207014535Y-144427657D01*
X206752109Y-144107891D01*
X206432343Y-143845465D01*
X206067524Y-143650465D01*
X205671672Y-143530385D01*
X205260000Y-143489839D01*
X204848329Y-143530385D01*
X204452477Y-143650465D01*
X204087658Y-143845465D01*
X203767892Y-144107891D01*
X203505466Y-144427657D01*
X203310466Y-144792476D01*
X203190386Y-145188328D01*
X203160000Y-145496833D01*
X202280000Y-145496833D01*
X202249615Y-145188328D01*
X202129535Y-144792476D01*
X201934535Y-144427657D01*
X201672109Y-144107891D01*
X201352343Y-143845465D01*
X200987524Y-143650465D01*
X200591672Y-143530385D01*
X200180000Y-143489839D01*
X199768329Y-143530385D01*
X199372477Y-143650465D01*
X199007658Y-143845465D01*
X198687892Y-144107891D01*
X198425466Y-144427657D01*
X198230466Y-144792476D01*
X198110386Y-145188328D01*
X198080000Y-145496833D01*
X197399549Y-145496833D01*
X197336297Y-145053214D01*
X197186655Y-144627440D01*
X196956823Y-144239041D01*
X196655635Y-143902943D01*
X196294665Y-143632062D01*
X195887784Y-143436808D01*
X195558228Y-143346108D01*
X195200000Y-143652566D01*
X195000000Y-143652566D01*
X194641772Y-143346108D01*
X194312216Y-143436808D01*
X193905335Y-143632062D01*
X193544365Y-143902943D01*
X193243177Y-144239041D01*
X193013345Y-144627440D01*
X192863703Y-145053214D01*
X192800000Y-145500000D01*
X192120000Y-145500000D01*
X192120000Y-145496834D01*
X192089615Y-145188328D01*
X191969535Y-144792476D01*
X191774535Y-144427657D01*
X191512109Y-144107891D01*
X191192343Y-143845465D01*
X190827524Y-143650465D01*
X190431672Y-143530385D01*
X190020000Y-143489839D01*
X189608329Y-143530385D01*
X189212477Y-143650465D01*
X188847658Y-143845465D01*
X188527892Y-144107891D01*
X188265466Y-144427657D01*
X188070466Y-144792476D01*
X187950386Y-145188328D01*
X187920000Y-145496833D01*
X187040000Y-145496833D01*
X187009615Y-145188328D01*
X186889535Y-144792476D01*
X186694535Y-144427657D01*
X186432109Y-144107891D01*
X186112343Y-143845465D01*
X185747524Y-143650465D01*
X185351672Y-143530385D01*
X184940000Y-143489839D01*
X184528329Y-143530385D01*
X184132477Y-143650465D01*
X183767658Y-143845465D01*
X183447892Y-144107891D01*
X183185466Y-144427657D01*
X182990466Y-144792476D01*
X182870386Y-145188328D01*
X182840000Y-145496833D01*
X179456631Y-145496833D01*
X179284896Y-145325098D01*
X178826297Y-145018672D01*
X178316730Y-144807602D01*
X177775776Y-144700000D01*
X177224224Y-144700000D01*
X176683270Y-144807602D01*
X176173703Y-145018672D01*
X175715104Y-145325098D01*
X175325098Y-145715104D01*
X175018672Y-146173703D01*
X174807602Y-146683270D01*
X174700000Y-147224224D01*
X173775000Y-147224224D01*
X173775000Y-139811267D01*
X176830155Y-139811267D01*
X176928185Y-140333549D01*
X177413640Y-140595356D01*
X177940843Y-140757425D01*
X178489533Y-140813528D01*
X179038627Y-140761509D01*
X179567021Y-140603366D01*
X180054410Y-140345177D01*
X180071815Y-140333549D01*
X180169845Y-139811267D01*
X178500000Y-138141421D01*
X176830155Y-139811267D01*
X173775000Y-139811267D01*
X173775000Y-137989533D01*
X175686472Y-137989533D01*
X175738491Y-138538627D01*
X175896634Y-139067021D01*
X176154823Y-139554410D01*
X176166451Y-139571815D01*
X176688733Y-139669845D01*
X178358579Y-138000000D01*
X178641421Y-138000000D01*
X180311267Y-139669845D01*
X180833549Y-139571815D01*
X181095356Y-139086360D01*
X181257425Y-138559157D01*
X181313528Y-138010467D01*
X181261509Y-137461373D01*
X181214115Y-137303017D01*
X187500000Y-137303017D01*
X187500000Y-137696983D01*
X187576859Y-138083378D01*
X187727623Y-138447355D01*
X187946499Y-138774926D01*
X188225074Y-139053501D01*
X188552645Y-139272377D01*
X188916622Y-139423141D01*
X189303017Y-139500000D01*
X189696983Y-139500000D01*
X190083378Y-139423141D01*
X190447355Y-139272377D01*
X190774926Y-139053501D01*
X191053501Y-138774926D01*
X191272377Y-138447355D01*
X191423141Y-138083378D01*
X191500000Y-137696983D01*
X191500000Y-137303017D01*
X191423141Y-136916622D01*
X191272377Y-136552645D01*
X191053501Y-136225074D01*
X190774926Y-135946499D01*
X190447355Y-135727623D01*
X190083378Y-135576859D01*
X189696983Y-135500000D01*
X189303017Y-135500000D01*
X188916622Y-135576859D01*
X188552645Y-135727623D01*
X188225074Y-135946499D01*
X187946499Y-136225074D01*
X187727623Y-136552645D01*
X187576859Y-136916622D01*
X187500000Y-137303017D01*
X181214115Y-137303017D01*
X181103366Y-136932979D01*
X180845177Y-136445590D01*
X180833549Y-136428185D01*
X180311267Y-136330155D01*
X178641421Y-138000000D01*
X178358579Y-138000000D01*
X176688733Y-136330155D01*
X176166451Y-136428185D01*
X175904644Y-136913640D01*
X175742575Y-137440843D01*
X175686472Y-137989533D01*
X173775000Y-137989533D01*
X173775000Y-136188733D01*
X176830155Y-136188733D01*
X178500000Y-137858579D01*
X180169845Y-136188733D01*
X180071815Y-135666451D01*
X179586360Y-135404644D01*
X179059157Y-135242575D01*
X178510467Y-135186472D01*
X177961373Y-135238491D01*
X177432979Y-135396634D01*
X176945590Y-135654823D01*
X176928185Y-135666451D01*
X176830155Y-136188733D01*
X173775000Y-136188733D01*
X173775000Y-128100000D01*
X175494194Y-128100000D01*
X175494194Y-129900000D01*
X175517363Y-130135241D01*
X175585981Y-130361442D01*
X175697409Y-130569910D01*
X175847366Y-130752634D01*
X176030090Y-130902591D01*
X176238558Y-131014019D01*
X176464759Y-131082637D01*
X176700000Y-131105806D01*
X180300000Y-131105806D01*
X180535241Y-131082637D01*
X180761442Y-131014019D01*
X180969910Y-130902591D01*
X181152634Y-130752634D01*
X181195829Y-130700000D01*
X188295837Y-130700000D01*
X195051444Y-137455607D01*
X195076859Y-137583378D01*
X195227623Y-137947355D01*
X195446499Y-138274926D01*
X195725074Y-138553501D01*
X196052645Y-138772377D01*
X196416622Y-138923141D01*
X196803017Y-139000000D01*
X197196983Y-139000000D01*
X197583378Y-138923141D01*
X197947355Y-138772377D01*
X198274926Y-138553501D01*
X198553501Y-138274926D01*
X198772377Y-137947355D01*
X198923141Y-137583378D01*
X199000000Y-137196983D01*
X199000000Y-136803017D01*
X198923141Y-136416622D01*
X198772377Y-136052645D01*
X198553501Y-135725074D01*
X198274926Y-135446499D01*
X197947355Y-135227623D01*
X197583378Y-135076859D01*
X197455607Y-135051444D01*
X197407784Y-135003621D01*
X200100000Y-135003621D01*
X200100000Y-135476379D01*
X200192230Y-135940054D01*
X200373147Y-136376826D01*
X200635798Y-136769911D01*
X200970089Y-137104202D01*
X201363174Y-137366853D01*
X201799946Y-137547770D01*
X202263621Y-137640000D01*
X202736379Y-137640000D01*
X203200054Y-137547770D01*
X203636826Y-137366853D01*
X204029911Y-137104202D01*
X204171096Y-136963017D01*
X206000000Y-136963017D01*
X206000000Y-137356983D01*
X206076859Y-137743378D01*
X206227623Y-138107355D01*
X206446499Y-138434926D01*
X206725074Y-138713501D01*
X207052645Y-138932377D01*
X207416622Y-139083141D01*
X207803017Y-139160000D01*
X208196983Y-139160000D01*
X208583378Y-139083141D01*
X208947355Y-138932377D01*
X209274926Y-138713501D01*
X209553501Y-138434926D01*
X209772377Y-138107355D01*
X209923141Y-137743378D01*
X210000000Y-137356983D01*
X210000000Y-137303017D01*
X213500000Y-137303017D01*
X213500000Y-137696983D01*
X213576859Y-138083378D01*
X213727623Y-138447355D01*
X213946499Y-138774926D01*
X214225074Y-139053501D01*
X214552645Y-139272377D01*
X214916622Y-139423141D01*
X215303017Y-139500000D01*
X215696983Y-139500000D01*
X216083378Y-139423141D01*
X216447355Y-139272377D01*
X216774926Y-139053501D01*
X217053501Y-138774926D01*
X217272377Y-138447355D01*
X217423141Y-138083378D01*
X217500000Y-137696983D01*
X217500000Y-137303017D01*
X217423141Y-136916622D01*
X217272377Y-136552645D01*
X217053501Y-136225074D01*
X216774926Y-135946499D01*
X216530710Y-135783319D01*
X220800000Y-135783319D01*
X220800000Y-136216681D01*
X220884545Y-136641716D01*
X221050385Y-137042091D01*
X221291148Y-137402418D01*
X221597582Y-137708852D01*
X221957909Y-137949615D01*
X222358284Y-138115455D01*
X222783319Y-138200000D01*
X223216681Y-138200000D01*
X223641716Y-138115455D01*
X224042091Y-137949615D01*
X224402418Y-137708852D01*
X224708852Y-137402418D01*
X224949615Y-137042091D01*
X225115455Y-136641716D01*
X225200000Y-136216681D01*
X225200000Y-135783319D01*
X225115455Y-135358284D01*
X224967050Y-135000000D01*
X225794194Y-135000000D01*
X225794194Y-137000000D01*
X225817363Y-137235241D01*
X225885981Y-137461442D01*
X225997409Y-137669910D01*
X226147366Y-137852634D01*
X226330090Y-138002591D01*
X226538558Y-138114019D01*
X226764759Y-138182637D01*
X227000000Y-138205806D01*
X229000000Y-138205806D01*
X229235241Y-138182637D01*
X229461442Y-138114019D01*
X229669910Y-138002591D01*
X229852634Y-137852634D01*
X230002591Y-137669910D01*
X230114019Y-137461442D01*
X230182637Y-137235241D01*
X230205806Y-137000000D01*
X230205806Y-135000000D01*
X230182637Y-134764759D01*
X230114019Y-134538558D01*
X230002591Y-134330090D01*
X229852634Y-134147366D01*
X229669910Y-133997409D01*
X229461442Y-133885981D01*
X229235241Y-133817363D01*
X229000000Y-133794194D01*
X227000000Y-133794194D01*
X226764759Y-133817363D01*
X226538558Y-133885981D01*
X226330090Y-133997409D01*
X226147366Y-134147366D01*
X225997409Y-134330090D01*
X225885981Y-134538558D01*
X225817363Y-134764759D01*
X225794194Y-135000000D01*
X224967050Y-135000000D01*
X224949615Y-134957909D01*
X224708852Y-134597582D01*
X224402418Y-134291148D01*
X224042091Y-134050385D01*
X223641716Y-133884545D01*
X223216681Y-133800000D01*
X222783319Y-133800000D01*
X222358284Y-133884545D01*
X221957909Y-134050385D01*
X221597582Y-134291148D01*
X221291148Y-134597582D01*
X221050385Y-134957909D01*
X220884545Y-135358284D01*
X220800000Y-135783319D01*
X216530710Y-135783319D01*
X216447355Y-135727623D01*
X216083378Y-135576859D01*
X215696983Y-135500000D01*
X215303017Y-135500000D01*
X214916622Y-135576859D01*
X214552645Y-135727623D01*
X214225074Y-135946499D01*
X213946499Y-136225074D01*
X213727623Y-136552645D01*
X213576859Y-136916622D01*
X213500000Y-137303017D01*
X210000000Y-137303017D01*
X210000000Y-136963017D01*
X209923141Y-136576622D01*
X209772377Y-136212645D01*
X209553501Y-135885074D01*
X209274926Y-135606499D01*
X208947355Y-135387623D01*
X208583378Y-135236859D01*
X208196983Y-135160000D01*
X207803017Y-135160000D01*
X207416622Y-135236859D01*
X207052645Y-135387623D01*
X206725074Y-135606499D01*
X206446499Y-135885074D01*
X206227623Y-136212645D01*
X206076859Y-136576622D01*
X206000000Y-136963017D01*
X204171096Y-136963017D01*
X204364202Y-136769911D01*
X204626853Y-136376826D01*
X204807770Y-135940054D01*
X204900000Y-135476379D01*
X204900000Y-135003621D01*
X204807770Y-134539946D01*
X204626853Y-134103174D01*
X204364202Y-133710089D01*
X204029911Y-133375798D01*
X203636826Y-133113147D01*
X203200054Y-132932230D01*
X202736379Y-132840000D01*
X202263621Y-132840000D01*
X201799946Y-132932230D01*
X201363174Y-133113147D01*
X200970089Y-133375798D01*
X200635798Y-133710089D01*
X200373147Y-134103174D01*
X200192230Y-134539946D01*
X200100000Y-135003621D01*
X197407784Y-135003621D01*
X190261128Y-127856965D01*
X190207897Y-127792103D01*
X190143035Y-127738872D01*
X190143031Y-127738868D01*
X189949039Y-127579663D01*
X189653709Y-127421806D01*
X189333258Y-127324598D01*
X189083510Y-127300000D01*
X189083500Y-127300000D01*
X189000000Y-127291776D01*
X188916500Y-127300000D01*
X181195829Y-127300000D01*
X181152634Y-127247366D01*
X180969910Y-127097409D01*
X180761442Y-126985981D01*
X180535241Y-126917363D01*
X180300000Y-126894194D01*
X176700000Y-126894194D01*
X176464759Y-126917363D01*
X176238558Y-126985981D01*
X176030090Y-127097409D01*
X175847366Y-127247366D01*
X175697409Y-127430090D01*
X175585981Y-127638558D01*
X175517363Y-127864759D01*
X175494194Y-128100000D01*
X173775000Y-128100000D01*
X173775000Y-126643017D01*
X195000000Y-126643017D01*
X195000000Y-127036983D01*
X195076859Y-127423378D01*
X195227623Y-127787355D01*
X195446499Y-128114926D01*
X195725074Y-128393501D01*
X196052645Y-128612377D01*
X196416622Y-128763141D01*
X196803017Y-128840000D01*
X197196983Y-128840000D01*
X197583378Y-128763141D01*
X197947355Y-128612377D01*
X198274926Y-128393501D01*
X198553501Y-128114926D01*
X198772377Y-127787355D01*
X198923141Y-127423378D01*
X199000000Y-127036983D01*
X199000000Y-126643017D01*
X198923141Y-126256622D01*
X198772377Y-125892645D01*
X198553501Y-125565074D01*
X198274926Y-125286499D01*
X197947355Y-125067623D01*
X197583378Y-124916859D01*
X197196983Y-124840000D01*
X196803017Y-124840000D01*
X196416622Y-124916859D01*
X196052645Y-125067623D01*
X195725074Y-125286499D01*
X195446499Y-125565074D01*
X195227623Y-125892645D01*
X195076859Y-126256622D01*
X195000000Y-126643017D01*
X173775000Y-126643017D01*
X173775000Y-103420000D01*
X175489839Y-103420000D01*
X175530385Y-103831672D01*
X175650465Y-104227524D01*
X175845465Y-104592343D01*
X176107891Y-104912109D01*
X176427657Y-105174535D01*
X176792476Y-105369535D01*
X177188328Y-105489615D01*
X177399106Y-105510375D01*
X178206949Y-106318219D01*
X178068725Y-106331833D01*
X177863148Y-106394194D01*
X176700000Y-106394194D01*
X176464759Y-106417363D01*
X176238558Y-106485981D01*
X176030090Y-106597409D01*
X175847366Y-106747366D01*
X175697409Y-106930090D01*
X175585981Y-107138558D01*
X175517363Y-107364759D01*
X175494194Y-107600000D01*
X175494194Y-109400000D01*
X175517363Y-109635241D01*
X175585981Y-109861442D01*
X175697409Y-110069910D01*
X175847366Y-110252634D01*
X176030090Y-110402591D01*
X176238558Y-110514019D01*
X176464759Y-110582637D01*
X176700000Y-110605806D01*
X177863148Y-110605806D01*
X178068725Y-110668167D01*
X178391930Y-110700000D01*
X185222714Y-110700000D01*
X185050385Y-110957909D01*
X184884545Y-111358284D01*
X184800000Y-111783319D01*
X184800000Y-112216681D01*
X184884545Y-112641716D01*
X185050385Y-113042091D01*
X185222714Y-113300000D01*
X180476955Y-113300000D01*
X180157403Y-112980448D01*
X179731562Y-112695910D01*
X179258392Y-112499917D01*
X178756078Y-112400000D01*
X178243922Y-112400000D01*
X177741608Y-112499917D01*
X177268438Y-112695910D01*
X176842597Y-112980448D01*
X176480448Y-113342597D01*
X176195910Y-113768438D01*
X175999917Y-114241608D01*
X175900000Y-114743922D01*
X175900000Y-115256078D01*
X175999917Y-115758392D01*
X176195910Y-116231562D01*
X176480448Y-116657403D01*
X176800001Y-116976956D01*
X176800000Y-121968183D01*
X176792476Y-121970465D01*
X176427657Y-122165465D01*
X176107891Y-122427891D01*
X175845465Y-122747657D01*
X175650465Y-123112476D01*
X175530385Y-123508328D01*
X175489839Y-123920000D01*
X175530385Y-124331672D01*
X175650465Y-124727524D01*
X175845465Y-125092343D01*
X176107891Y-125412109D01*
X176427657Y-125674535D01*
X176792476Y-125869535D01*
X177188328Y-125989615D01*
X177496833Y-126020000D01*
X179503167Y-126020000D01*
X179811672Y-125989615D01*
X180207524Y-125869535D01*
X180572343Y-125674535D01*
X180892109Y-125412109D01*
X181154535Y-125092343D01*
X181349535Y-124727524D01*
X181469615Y-124331672D01*
X181510161Y-123920000D01*
X181469615Y-123508328D01*
X181349535Y-123112476D01*
X181154535Y-122747657D01*
X180892109Y-122427891D01*
X180572343Y-122165465D01*
X180207524Y-121970465D01*
X180200000Y-121968183D01*
X180200000Y-116976955D01*
X180476955Y-116700000D01*
X187666587Y-116700000D01*
X187576859Y-116916622D01*
X187500000Y-117303017D01*
X187500000Y-117696983D01*
X187576859Y-118083378D01*
X187727623Y-118447355D01*
X187946499Y-118774926D01*
X188225074Y-119053501D01*
X188552645Y-119272377D01*
X188916622Y-119423141D01*
X189303017Y-119500000D01*
X189696983Y-119500000D01*
X190083378Y-119423141D01*
X190447355Y-119272377D01*
X190774926Y-119053501D01*
X191053501Y-118774926D01*
X191272377Y-118447355D01*
X191423141Y-118083378D01*
X191500000Y-117696983D01*
X191500000Y-117303017D01*
X191423141Y-116916622D01*
X191333413Y-116700000D01*
X193546000Y-116700000D01*
X193714254Y-116838083D01*
X194096446Y-117042369D01*
X194511147Y-117168166D01*
X194942422Y-117210643D01*
X195373697Y-117168166D01*
X195788398Y-117042369D01*
X196170590Y-116838083D01*
X196421639Y-116632051D01*
X196457959Y-116595731D01*
X196798163Y-116528060D01*
X197289532Y-116324529D01*
X197731752Y-116029047D01*
X197986359Y-115774440D01*
X199800041Y-115774440D01*
X199800041Y-116306294D01*
X199903801Y-116827928D01*
X200107332Y-117319297D01*
X200402814Y-117761517D01*
X200778891Y-118137594D01*
X200892429Y-118213458D01*
X200635798Y-118470089D01*
X200373147Y-118863174D01*
X200192230Y-119299946D01*
X200100000Y-119763621D01*
X200100000Y-120236379D01*
X200192230Y-120700054D01*
X200373147Y-121136826D01*
X200635798Y-121529911D01*
X200970089Y-121864202D01*
X201363174Y-122126853D01*
X201799946Y-122307770D01*
X202263621Y-122400000D01*
X202736379Y-122400000D01*
X203200054Y-122307770D01*
X203636826Y-122126853D01*
X204029911Y-121864202D01*
X204364202Y-121529911D01*
X204626853Y-121136826D01*
X204807770Y-120700054D01*
X204900000Y-120236379D01*
X204900000Y-119763621D01*
X204807770Y-119299946D01*
X204626853Y-118863174D01*
X204364202Y-118470089D01*
X204107604Y-118213491D01*
X204221191Y-118137594D01*
X204597268Y-117761517D01*
X204892750Y-117319297D01*
X205096281Y-116827928D01*
X205200041Y-116306294D01*
X205200041Y-115774440D01*
X205096281Y-115252806D01*
X204892750Y-114761437D01*
X204597268Y-114319217D01*
X204221191Y-113943140D01*
X203778971Y-113647658D01*
X203287602Y-113444127D01*
X202765968Y-113340367D01*
X202234114Y-113340367D01*
X201712480Y-113444127D01*
X201221111Y-113647658D01*
X200778891Y-113943140D01*
X200402814Y-114319217D01*
X200107332Y-114761437D01*
X199903801Y-115252806D01*
X199800041Y-115774440D01*
X197986359Y-115774440D01*
X198107829Y-115652970D01*
X198403311Y-115210750D01*
X198606842Y-114719381D01*
X198710602Y-114197747D01*
X198710602Y-113665893D01*
X198606842Y-113144259D01*
X198403311Y-112652890D01*
X198107829Y-112210670D01*
X197731752Y-111834593D01*
X197289532Y-111539111D01*
X196798163Y-111335580D01*
X196276529Y-111231820D01*
X195744675Y-111231820D01*
X195223041Y-111335580D01*
X194731672Y-111539111D01*
X194289452Y-111834593D01*
X193913375Y-112210670D01*
X193617893Y-112652890D01*
X193414362Y-113144259D01*
X193383383Y-113300000D01*
X188777286Y-113300000D01*
X188949615Y-113042091D01*
X189115455Y-112641716D01*
X189200000Y-112216681D01*
X189200000Y-111783319D01*
X189115455Y-111358284D01*
X188949615Y-110957909D01*
X188777286Y-110700000D01*
X190564818Y-110700000D01*
X190721089Y-110804417D01*
X191212458Y-111007948D01*
X191734092Y-111111708D01*
X192265946Y-111111708D01*
X192787580Y-111007948D01*
X193278949Y-110804417D01*
X193567358Y-110611708D01*
X215203158Y-110611708D01*
X215076859Y-110916622D01*
X215051444Y-111044393D01*
X211637542Y-114458295D01*
X211689435Y-114197411D01*
X211689435Y-113665557D01*
X211585675Y-113143923D01*
X211382144Y-112652554D01*
X211086662Y-112210334D01*
X210710585Y-111834257D01*
X210268365Y-111538775D01*
X209776996Y-111335244D01*
X209255362Y-111231484D01*
X208723508Y-111231484D01*
X208201874Y-111335244D01*
X207710505Y-111538775D01*
X207268285Y-111834257D01*
X206892208Y-112210334D01*
X206596726Y-112652554D01*
X206393195Y-113143923D01*
X206289435Y-113665557D01*
X206289435Y-114197411D01*
X206393195Y-114719045D01*
X206596726Y-115210414D01*
X206892208Y-115652634D01*
X207268285Y-116028711D01*
X207710505Y-116324193D01*
X208201874Y-116527724D01*
X208723508Y-116631484D01*
X209255362Y-116631484D01*
X209776996Y-116527724D01*
X210268365Y-116324193D01*
X210710585Y-116028711D01*
X210797510Y-115941786D01*
X210791776Y-116000000D01*
X210800001Y-116083510D01*
X210800000Y-121295837D01*
X207785339Y-124310498D01*
X207568726Y-124331833D01*
X207154024Y-124457631D01*
X206771833Y-124661917D01*
X206436840Y-124936839D01*
X206161917Y-125271832D01*
X205957631Y-125654023D01*
X205831833Y-126068725D01*
X205800000Y-126391930D01*
X205800000Y-127108069D01*
X205831833Y-127431274D01*
X205957631Y-127845976D01*
X206161917Y-128228168D01*
X206436839Y-128563161D01*
X206771832Y-128838083D01*
X207154023Y-129042369D01*
X207568725Y-129168167D01*
X208000000Y-129210644D01*
X208431274Y-129168167D01*
X208845976Y-129042369D01*
X209228168Y-128838083D01*
X209563161Y-128563161D01*
X209838083Y-128228168D01*
X210042369Y-127845977D01*
X210168167Y-127431275D01*
X210180799Y-127303017D01*
X222000000Y-127303017D01*
X222000000Y-127696983D01*
X222076859Y-128083378D01*
X222227623Y-128447355D01*
X222446499Y-128774926D01*
X222725074Y-129053501D01*
X223052645Y-129272377D01*
X223416622Y-129423141D01*
X223803017Y-129500000D01*
X224196983Y-129500000D01*
X224583378Y-129423141D01*
X224947355Y-129272377D01*
X225274926Y-129053501D01*
X225553501Y-128774926D01*
X225632597Y-128656550D01*
X225644152Y-128714639D01*
X225828838Y-129160510D01*
X226096960Y-129561784D01*
X226438216Y-129903040D01*
X226839490Y-130171162D01*
X227285361Y-130355848D01*
X227758696Y-130450000D01*
X228241304Y-130450000D01*
X228714639Y-130355848D01*
X229160510Y-130171162D01*
X229561784Y-129903040D01*
X229903040Y-129561784D01*
X230171162Y-129160510D01*
X230355848Y-128714639D01*
X230450000Y-128241304D01*
X230450000Y-127758696D01*
X230355848Y-127285361D01*
X230171162Y-126839490D01*
X229903040Y-126438216D01*
X229561784Y-126096960D01*
X229363773Y-125964654D01*
X229553501Y-125774926D01*
X229772377Y-125447355D01*
X229923141Y-125083378D01*
X230000000Y-124696983D01*
X230000000Y-124303017D01*
X229923141Y-123916622D01*
X229772377Y-123552645D01*
X229553501Y-123225074D01*
X229274926Y-122946499D01*
X228947355Y-122727623D01*
X228583378Y-122576859D01*
X228196983Y-122500000D01*
X227803017Y-122500000D01*
X227416622Y-122576859D01*
X227052645Y-122727623D01*
X226725074Y-122946499D01*
X226446499Y-123225074D01*
X226227623Y-123552645D01*
X226076859Y-123916622D01*
X226000000Y-124303017D01*
X226000000Y-124696983D01*
X226076859Y-125083378D01*
X226227623Y-125447355D01*
X226446499Y-125774926D01*
X226636227Y-125964654D01*
X226438216Y-126096960D01*
X226096960Y-126438216D01*
X225867330Y-126781882D01*
X225772377Y-126552645D01*
X225553501Y-126225074D01*
X225274926Y-125946499D01*
X224947355Y-125727623D01*
X224583378Y-125576859D01*
X224196983Y-125500000D01*
X223803017Y-125500000D01*
X223416622Y-125576859D01*
X223052645Y-125727623D01*
X222725074Y-125946499D01*
X222446499Y-126225074D01*
X222227623Y-126552645D01*
X222076859Y-126916622D01*
X222000000Y-127303017D01*
X210180799Y-127303017D01*
X210200000Y-127108070D01*
X210200000Y-126704163D01*
X213643036Y-123261127D01*
X213707897Y-123207897D01*
X213761131Y-123143032D01*
X213920337Y-122949040D01*
X214078193Y-122653710D01*
X214078194Y-122653709D01*
X214175402Y-122333258D01*
X214200000Y-122083510D01*
X214200000Y-122083501D01*
X214208224Y-122000001D01*
X214200000Y-121916501D01*
X214200000Y-119028427D01*
X214225074Y-119053501D01*
X214552645Y-119272377D01*
X214916622Y-119423141D01*
X215303017Y-119500000D01*
X215696983Y-119500000D01*
X216083378Y-119423141D01*
X216447355Y-119272377D01*
X216774926Y-119053501D01*
X217053501Y-118774926D01*
X217272377Y-118447355D01*
X217423141Y-118083378D01*
X217500000Y-117696983D01*
X217500000Y-117303017D01*
X217468174Y-117143017D01*
X222000000Y-117143017D01*
X222000000Y-117536983D01*
X222076859Y-117923378D01*
X222227623Y-118287355D01*
X222446499Y-118614926D01*
X222725074Y-118893501D01*
X223052645Y-119112377D01*
X223416622Y-119263141D01*
X223803017Y-119340000D01*
X224196983Y-119340000D01*
X224583378Y-119263141D01*
X224947355Y-119112377D01*
X225274926Y-118893501D01*
X225553501Y-118614926D01*
X225772377Y-118287355D01*
X225923141Y-117923378D01*
X226000000Y-117536983D01*
X226000000Y-117143017D01*
X225923141Y-116756622D01*
X225772377Y-116392645D01*
X225553501Y-116065074D01*
X225274926Y-115786499D01*
X224947355Y-115567623D01*
X224583378Y-115416859D01*
X224196983Y-115340000D01*
X223803017Y-115340000D01*
X223416622Y-115416859D01*
X223052645Y-115567623D01*
X222725074Y-115786499D01*
X222446499Y-116065074D01*
X222227623Y-116392645D01*
X222076859Y-116756622D01*
X222000000Y-117143017D01*
X217468174Y-117143017D01*
X217423141Y-116916622D01*
X217272377Y-116552645D01*
X217053501Y-116225074D01*
X216774926Y-115946499D01*
X216447355Y-115727623D01*
X216083378Y-115576859D01*
X215696983Y-115500000D01*
X215404163Y-115500000D01*
X217455607Y-113448556D01*
X217583378Y-113423141D01*
X217947355Y-113272377D01*
X218274926Y-113053501D01*
X218553501Y-112774926D01*
X218635095Y-112652813D01*
X218692230Y-112940054D01*
X218873147Y-113376826D01*
X219135798Y-113769911D01*
X219470089Y-114104202D01*
X219863174Y-114366853D01*
X220299946Y-114547770D01*
X220763621Y-114640000D01*
X221236379Y-114640000D01*
X221700054Y-114547770D01*
X222136826Y-114366853D01*
X222471820Y-114143017D01*
X226000000Y-114143017D01*
X226000000Y-114536983D01*
X226076859Y-114923378D01*
X226227623Y-115287355D01*
X226446499Y-115614926D01*
X226725074Y-115893501D01*
X227052645Y-116112377D01*
X227416622Y-116263141D01*
X227803017Y-116340000D01*
X228196983Y-116340000D01*
X228583378Y-116263141D01*
X228947355Y-116112377D01*
X229274926Y-115893501D01*
X229553501Y-115614926D01*
X229772377Y-115287355D01*
X229923141Y-114923378D01*
X230000000Y-114536983D01*
X230000000Y-114143017D01*
X229923141Y-113756622D01*
X229772377Y-113392645D01*
X229553501Y-113065074D01*
X229274926Y-112786499D01*
X228947355Y-112567623D01*
X228583378Y-112416859D01*
X228196983Y-112340000D01*
X227803017Y-112340000D01*
X227416622Y-112416859D01*
X227052645Y-112567623D01*
X226725074Y-112786499D01*
X226446499Y-113065074D01*
X226227623Y-113392645D01*
X226076859Y-113756622D01*
X226000000Y-114143017D01*
X222471820Y-114143017D01*
X222529911Y-114104202D01*
X222864202Y-113769911D01*
X223126853Y-113376826D01*
X223307770Y-112940054D01*
X223400000Y-112476379D01*
X223400000Y-112003621D01*
X223307770Y-111539946D01*
X223126853Y-111103174D01*
X222864202Y-110710089D01*
X222765821Y-110611708D01*
X225063365Y-110611708D01*
X225188328Y-110649615D01*
X225496833Y-110680000D01*
X225844010Y-110680000D01*
X226068726Y-110748166D01*
X226500000Y-110790643D01*
X226931275Y-110748166D01*
X227155991Y-110680000D01*
X227503167Y-110680000D01*
X227811672Y-110649615D01*
X228207524Y-110529535D01*
X228572343Y-110334535D01*
X228892109Y-110072109D01*
X229154535Y-109752343D01*
X229349535Y-109387524D01*
X229469615Y-108991672D01*
X229510161Y-108580000D01*
X229469615Y-108168328D01*
X229349535Y-107772476D01*
X229154535Y-107407657D01*
X228892109Y-107087891D01*
X228572343Y-106825465D01*
X228207524Y-106630465D01*
X227811672Y-106510385D01*
X227503167Y-106480000D01*
X227384717Y-106480000D01*
X227177685Y-106369339D01*
X226821674Y-106261345D01*
X227063161Y-106063161D01*
X227132057Y-105979211D01*
X227505462Y-105605806D01*
X228300000Y-105605806D01*
X228535241Y-105582637D01*
X228761442Y-105514019D01*
X228969910Y-105402591D01*
X229152634Y-105252634D01*
X229302591Y-105069910D01*
X229414019Y-104861442D01*
X229482637Y-104635241D01*
X229505806Y-104400000D01*
X229505806Y-102600000D01*
X229482637Y-102364759D01*
X229414019Y-102138558D01*
X229302591Y-101930090D01*
X229152634Y-101747366D01*
X228969910Y-101597409D01*
X228761442Y-101485981D01*
X228535241Y-101417363D01*
X228300000Y-101394194D01*
X227136852Y-101394194D01*
X226931275Y-101331833D01*
X226500000Y-101289357D01*
X226068725Y-101331833D01*
X225863148Y-101394194D01*
X224700000Y-101394194D01*
X224464759Y-101417363D01*
X224238558Y-101485981D01*
X224030090Y-101597409D01*
X223847366Y-101747366D01*
X223697409Y-101930090D01*
X223585981Y-102138558D01*
X223537008Y-102300000D01*
X218763928Y-102300000D01*
X218772377Y-102287355D01*
X218923141Y-101923378D01*
X219000000Y-101536983D01*
X219000000Y-101143017D01*
X218923141Y-100756622D01*
X218772377Y-100392645D01*
X218700000Y-100284325D01*
X218700000Y-100083499D01*
X218708224Y-99999999D01*
X218700000Y-99916499D01*
X218700000Y-99916490D01*
X218675402Y-99666742D01*
X218578194Y-99346291D01*
X218460902Y-99126853D01*
X218420337Y-99050960D01*
X218261131Y-98856968D01*
X218261128Y-98856965D01*
X218207897Y-98792103D01*
X218143035Y-98738872D01*
X214200000Y-94795837D01*
X214200000Y-94595670D01*
X214238868Y-94643031D01*
X214238873Y-94643036D01*
X214292103Y-94707897D01*
X214356965Y-94761128D01*
X217738872Y-98143035D01*
X217792103Y-98207897D01*
X217856965Y-98261128D01*
X217856968Y-98261131D01*
X217894308Y-98291775D01*
X218050961Y-98420337D01*
X218346291Y-98578194D01*
X218666742Y-98675402D01*
X218916490Y-98700000D01*
X218916507Y-98700000D01*
X218999999Y-98708223D01*
X219083491Y-98700000D01*
X219305887Y-98700000D01*
X219470089Y-98864202D01*
X219863174Y-99126853D01*
X220299946Y-99307770D01*
X220763621Y-99400000D01*
X221236379Y-99400000D01*
X221700054Y-99307770D01*
X222136826Y-99126853D01*
X222529911Y-98864202D01*
X222864202Y-98529911D01*
X223126853Y-98136826D01*
X223307770Y-97700054D01*
X223400000Y-97236379D01*
X223400000Y-96763621D01*
X223307770Y-96299946D01*
X223126853Y-95863174D01*
X222864202Y-95470089D01*
X222529911Y-95135798D01*
X222136826Y-94873147D01*
X221700054Y-94692230D01*
X221236379Y-94600000D01*
X220763621Y-94600000D01*
X220299946Y-94692230D01*
X219863174Y-94873147D01*
X219511974Y-95107811D01*
X217889549Y-93485386D01*
X217963017Y-93500000D01*
X218356983Y-93500000D01*
X218743378Y-93423141D01*
X219107355Y-93272377D01*
X219434926Y-93053501D01*
X219450199Y-93038228D01*
X223346108Y-93038228D01*
X223436808Y-93367784D01*
X223632062Y-93774665D01*
X223902943Y-94135635D01*
X224239041Y-94436823D01*
X224627440Y-94666655D01*
X225053214Y-94816297D01*
X225500000Y-94880000D01*
X226400000Y-94880000D01*
X226400000Y-92680000D01*
X226600000Y-92680000D01*
X226600000Y-94880000D01*
X227500000Y-94880000D01*
X227946786Y-94816297D01*
X228372560Y-94666655D01*
X228760959Y-94436823D01*
X229097057Y-94135635D01*
X229367938Y-93774665D01*
X229563192Y-93367784D01*
X229653892Y-93038228D01*
X229347434Y-92680000D01*
X226600000Y-92680000D01*
X226400000Y-92680000D01*
X223652566Y-92680000D01*
X223346108Y-93038228D01*
X219450199Y-93038228D01*
X219713501Y-92774926D01*
X219932377Y-92447355D01*
X220067237Y-92121772D01*
X223346108Y-92121772D01*
X223652566Y-92480000D01*
X226400000Y-92480000D01*
X226400000Y-90280000D01*
X226600000Y-90280000D01*
X226600000Y-92480000D01*
X229347434Y-92480000D01*
X229653892Y-92121772D01*
X229563192Y-91792216D01*
X229367938Y-91385335D01*
X229097057Y-91024365D01*
X228760959Y-90723177D01*
X228372560Y-90493345D01*
X227946786Y-90343703D01*
X227500000Y-90280000D01*
X226600000Y-90280000D01*
X226400000Y-90280000D01*
X225500000Y-90280000D01*
X225053214Y-90343703D01*
X224627440Y-90493345D01*
X224239041Y-90723177D01*
X223902943Y-91024365D01*
X223632062Y-91385335D01*
X223436808Y-91792216D01*
X223346108Y-92121772D01*
X220067237Y-92121772D01*
X220083141Y-92083378D01*
X220160000Y-91696983D01*
X220160000Y-91303017D01*
X220083141Y-90916622D01*
X219932377Y-90552645D01*
X219713501Y-90225074D01*
X219434926Y-89946499D01*
X219107355Y-89727623D01*
X218743378Y-89576859D01*
X218356983Y-89500000D01*
X218696983Y-89500000D01*
X219083378Y-89423141D01*
X219447355Y-89272377D01*
X219774926Y-89053501D01*
X220053501Y-88774926D01*
X220272377Y-88447355D01*
X220423141Y-88083378D01*
X220500000Y-87696983D01*
X220500000Y-87303017D01*
X220423141Y-86916622D01*
X220291993Y-86600000D01*
X223494194Y-86600000D01*
X223494194Y-88400000D01*
X223517363Y-88635241D01*
X223585981Y-88861442D01*
X223697409Y-89069910D01*
X223847366Y-89252634D01*
X224030090Y-89402591D01*
X224238558Y-89514019D01*
X224464759Y-89582637D01*
X224700000Y-89605806D01*
X228300000Y-89605806D01*
X228535241Y-89582637D01*
X228761442Y-89514019D01*
X228969910Y-89402591D01*
X229152634Y-89252634D01*
X229302591Y-89069910D01*
X229414019Y-88861442D01*
X229482637Y-88635241D01*
X229505806Y-88400000D01*
X229505806Y-86600000D01*
X229482637Y-86364759D01*
X229414019Y-86138558D01*
X229302591Y-85930090D01*
X229152634Y-85747366D01*
X228969910Y-85597409D01*
X228761442Y-85485981D01*
X228535241Y-85417363D01*
X228300000Y-85394194D01*
X224700000Y-85394194D01*
X224464759Y-85417363D01*
X224238558Y-85485981D01*
X224030090Y-85597409D01*
X223847366Y-85747366D01*
X223697409Y-85930090D01*
X223585981Y-86138558D01*
X223517363Y-86364759D01*
X223494194Y-86600000D01*
X220291993Y-86600000D01*
X220272377Y-86552645D01*
X220053501Y-86225074D01*
X219774926Y-85946499D01*
X219447355Y-85727623D01*
X219083378Y-85576859D01*
X218696983Y-85500000D01*
X218303017Y-85500000D01*
X217916622Y-85576859D01*
X217552645Y-85727623D01*
X217225074Y-85946499D01*
X216946499Y-86225074D01*
X216727623Y-86552645D01*
X216576859Y-86916622D01*
X216500000Y-87303017D01*
X216500000Y-87696983D01*
X216576859Y-88083378D01*
X216727623Y-88447355D01*
X216946499Y-88774926D01*
X217225074Y-89053501D01*
X217552645Y-89272377D01*
X217916622Y-89423141D01*
X218303017Y-89500000D01*
X217963017Y-89500000D01*
X217576622Y-89576859D01*
X217212645Y-89727623D01*
X217066839Y-89825047D01*
X217004713Y-89708817D01*
X216920337Y-89550960D01*
X216761131Y-89356968D01*
X216761128Y-89356965D01*
X216707897Y-89292103D01*
X216643035Y-89238872D01*
X209764147Y-82359984D01*
X209916622Y-82423141D01*
X210303017Y-82500000D01*
X210696983Y-82500000D01*
X211083378Y-82423141D01*
X211447355Y-82272377D01*
X211774926Y-82053501D01*
X212053501Y-81774926D01*
X212272377Y-81447355D01*
X212423141Y-81083378D01*
X212500000Y-80696983D01*
X212500000Y-80303017D01*
X212423141Y-79916622D01*
X212272377Y-79552645D01*
X212053501Y-79225074D01*
X211774926Y-78946499D01*
X211447355Y-78727623D01*
X211083378Y-78576859D01*
X210696983Y-78500000D01*
X210303017Y-78500000D01*
X209916622Y-78576859D01*
X209552645Y-78727623D01*
X209225074Y-78946499D01*
X208946499Y-79225074D01*
X208727623Y-79552645D01*
X208576859Y-79916622D01*
X208500000Y-80303017D01*
X208500000Y-80696983D01*
X208576859Y-81083378D01*
X208640016Y-81235853D01*
X204942391Y-77538228D01*
X223346108Y-77538228D01*
X223436808Y-77867784D01*
X223632062Y-78274665D01*
X223902943Y-78635635D01*
X224239041Y-78936823D01*
X224627440Y-79166655D01*
X225053214Y-79316297D01*
X225500000Y-79380000D01*
X226400000Y-79380000D01*
X226400000Y-77180000D01*
X226600000Y-77180000D01*
X226600000Y-79380000D01*
X227500000Y-79380000D01*
X227946786Y-79316297D01*
X228372560Y-79166655D01*
X228760959Y-78936823D01*
X229097057Y-78635635D01*
X229367938Y-78274665D01*
X229563192Y-77867784D01*
X229653892Y-77538228D01*
X229347434Y-77180000D01*
X226600000Y-77180000D01*
X226400000Y-77180000D01*
X223652566Y-77180000D01*
X223346108Y-77538228D01*
X204942391Y-77538228D01*
X204025935Y-76621772D01*
X223346108Y-76621772D01*
X223652566Y-76980000D01*
X226400000Y-76980000D01*
X226400000Y-74780000D01*
X226600000Y-74780000D01*
X226600000Y-76980000D01*
X229347434Y-76980000D01*
X229653892Y-76621772D01*
X229563192Y-76292216D01*
X229367938Y-75885335D01*
X229097057Y-75524365D01*
X228760959Y-75223177D01*
X228372560Y-74993345D01*
X227946786Y-74843703D01*
X227500000Y-74780000D01*
X226600000Y-74780000D01*
X226400000Y-74780000D01*
X225500000Y-74780000D01*
X225053214Y-74843703D01*
X224627440Y-74993345D01*
X224239041Y-75223177D01*
X223902943Y-75524365D01*
X223632062Y-75885335D01*
X223436808Y-76292216D01*
X223346108Y-76621772D01*
X204025935Y-76621772D01*
X203261128Y-75856965D01*
X203207897Y-75792103D01*
X203143035Y-75738872D01*
X203143031Y-75738868D01*
X202949039Y-75579663D01*
X202653709Y-75421806D01*
X202333258Y-75324598D01*
X202083510Y-75300000D01*
X202083500Y-75300000D01*
X202000000Y-75291776D01*
X201916500Y-75300000D01*
X196194113Y-75300000D01*
X196029911Y-75135798D01*
X195636826Y-74873147D01*
X195200054Y-74692230D01*
X194736379Y-74600000D01*
X194263621Y-74600000D01*
X193799946Y-74692230D01*
X193363174Y-74873147D01*
X192970089Y-75135798D01*
X192635798Y-75470089D01*
X192373147Y-75863174D01*
X192192230Y-76299946D01*
X192100000Y-76763621D01*
X192100000Y-77236379D01*
X192192230Y-77700054D01*
X192373147Y-78136826D01*
X192635798Y-78529911D01*
X192970089Y-78864202D01*
X193363174Y-79126853D01*
X193799946Y-79307770D01*
X194263621Y-79400000D01*
X194736379Y-79400000D01*
X195200054Y-79307770D01*
X195636826Y-79126853D01*
X196029911Y-78864202D01*
X196194113Y-78700000D01*
X201295837Y-78700000D01*
X209235853Y-86640016D01*
X209083378Y-86576859D01*
X208696983Y-86500000D01*
X208303017Y-86500000D01*
X207916622Y-86576859D01*
X207552645Y-86727623D01*
X207225074Y-86946499D01*
X206946499Y-87225074D01*
X206727623Y-87552645D01*
X206576859Y-87916622D01*
X206500000Y-88303017D01*
X206500000Y-88696983D01*
X206576859Y-89083378D01*
X206727623Y-89447355D01*
X206946499Y-89774926D01*
X206960659Y-89789086D01*
X206725074Y-89946499D01*
X206446499Y-90225074D01*
X206227623Y-90552645D01*
X206076859Y-90916622D01*
X206000000Y-91303017D01*
X206000000Y-91696983D01*
X206076859Y-92083378D01*
X206227623Y-92447355D01*
X206446499Y-92774926D01*
X206725074Y-93053501D01*
X207052645Y-93272377D01*
X207416622Y-93423141D01*
X207803017Y-93500000D01*
X208134094Y-93500000D01*
X207710468Y-93675471D01*
X207268248Y-93970953D01*
X206892171Y-94347030D01*
X206596689Y-94789250D01*
X206393158Y-95280619D01*
X206289398Y-95802253D01*
X206289398Y-96334107D01*
X206393158Y-96855741D01*
X206596689Y-97347110D01*
X206892171Y-97789330D01*
X207268248Y-98165407D01*
X207710468Y-98460889D01*
X208201837Y-98664420D01*
X208723471Y-98768180D01*
X209255325Y-98768180D01*
X209776959Y-98664420D01*
X210268328Y-98460889D01*
X210710548Y-98165407D01*
X211086625Y-97789330D01*
X211382107Y-97347110D01*
X211546373Y-96950536D01*
X213538314Y-98942477D01*
X213265908Y-98888292D01*
X212734054Y-98888292D01*
X212212420Y-98992052D01*
X211721051Y-99195583D01*
X211432642Y-99388292D01*
X201019770Y-99388292D01*
X200911708Y-99377649D01*
X200803646Y-99388292D01*
X200803638Y-99388292D01*
X200480433Y-99420125D01*
X200065731Y-99545923D01*
X199683540Y-99750209D01*
X199432490Y-99956240D01*
X199432486Y-99956244D01*
X199348547Y-100025131D01*
X199279659Y-100109071D01*
X196588732Y-102800000D01*
X194420524Y-102800000D01*
X194596196Y-102375890D01*
X194699956Y-101854256D01*
X194699956Y-101322402D01*
X194596196Y-100800768D01*
X194392665Y-100309399D01*
X194097183Y-99867179D01*
X193721106Y-99491102D01*
X193278886Y-99195620D01*
X192787517Y-98992089D01*
X192265883Y-98888329D01*
X191734029Y-98888329D01*
X191212395Y-98992089D01*
X190721026Y-99195620D01*
X190278806Y-99491102D01*
X189902729Y-99867179D01*
X189607247Y-100309399D01*
X189403716Y-100800768D01*
X189299956Y-101322402D01*
X189299956Y-101854256D01*
X189403716Y-102375890D01*
X189579388Y-102800000D01*
X189049892Y-102800000D01*
X189115455Y-102641716D01*
X189200000Y-102216681D01*
X189200000Y-101783319D01*
X189115455Y-101358284D01*
X188949615Y-100957909D01*
X188708852Y-100597582D01*
X188700000Y-100588730D01*
X188700000Y-97700000D01*
X193853802Y-97700000D01*
X193913461Y-97789286D01*
X194289538Y-98165363D01*
X194731758Y-98460845D01*
X195223127Y-98664376D01*
X195744761Y-98768136D01*
X196276615Y-98768136D01*
X196798249Y-98664376D01*
X197289618Y-98460845D01*
X197731838Y-98165363D01*
X198107915Y-97789286D01*
X198403397Y-97347066D01*
X198606928Y-96855697D01*
X198710688Y-96334063D01*
X198710688Y-95802209D01*
X198606928Y-95280575D01*
X198403397Y-94789206D01*
X198107915Y-94346986D01*
X197731838Y-93970909D01*
X197316975Y-93693706D01*
X199799959Y-93693706D01*
X199799959Y-94225560D01*
X199903719Y-94747194D01*
X200107250Y-95238563D01*
X200402732Y-95680783D01*
X200778809Y-96056860D01*
X201221029Y-96352342D01*
X201712398Y-96555873D01*
X202234032Y-96659633D01*
X202765886Y-96659633D01*
X203287520Y-96555873D01*
X203778889Y-96352342D01*
X204221109Y-96056860D01*
X204597186Y-95680783D01*
X204892668Y-95238563D01*
X205096199Y-94747194D01*
X205199959Y-94225560D01*
X205199959Y-93693706D01*
X205096199Y-93172072D01*
X204892668Y-92680703D01*
X204597186Y-92238483D01*
X204221109Y-91862406D01*
X203778889Y-91566924D01*
X203287520Y-91363393D01*
X202765886Y-91259633D01*
X202234032Y-91259633D01*
X201712398Y-91363393D01*
X201221029Y-91566924D01*
X200778809Y-91862406D01*
X200402732Y-92238483D01*
X200107250Y-92680703D01*
X199903719Y-93172072D01*
X199799959Y-93693706D01*
X197316975Y-93693706D01*
X197289618Y-93675427D01*
X196798249Y-93471896D01*
X196590889Y-93430649D01*
X196626853Y-93376826D01*
X196807770Y-92940054D01*
X196900000Y-92476379D01*
X196900000Y-92003621D01*
X196807770Y-91539946D01*
X196626853Y-91103174D01*
X196364202Y-90710089D01*
X196029911Y-90375798D01*
X195636826Y-90113147D01*
X195200054Y-89932230D01*
X194736379Y-89840000D01*
X194263621Y-89840000D01*
X193799946Y-89932230D01*
X193363174Y-90113147D01*
X192970089Y-90375798D01*
X192635798Y-90710089D01*
X192373147Y-91103174D01*
X192192230Y-91539946D01*
X192100000Y-92003621D01*
X192100000Y-92476379D01*
X192192230Y-92940054D01*
X192373147Y-93376826D01*
X192635798Y-93769911D01*
X192970089Y-94104202D01*
X193263121Y-94300000D01*
X187083510Y-94300000D01*
X187000000Y-94291775D01*
X186916490Y-94300000D01*
X181476955Y-94300000D01*
X181157403Y-93980448D01*
X180731562Y-93695910D01*
X180258392Y-93499917D01*
X179756078Y-93400000D01*
X179243922Y-93400000D01*
X178741608Y-93499917D01*
X178268438Y-93695910D01*
X177842597Y-93980448D01*
X177480448Y-94342597D01*
X177195910Y-94768438D01*
X176999917Y-95241608D01*
X176900000Y-95743922D01*
X176900000Y-96256078D01*
X176999917Y-96758392D01*
X177195910Y-97231562D01*
X177480448Y-97657403D01*
X177842597Y-98019552D01*
X178268438Y-98304090D01*
X178741608Y-98500083D01*
X179243922Y-98600000D01*
X179756078Y-98600000D01*
X180258392Y-98500083D01*
X180731562Y-98304090D01*
X181157403Y-98019552D01*
X181476955Y-97700000D01*
X185300001Y-97700000D01*
X185300000Y-100588730D01*
X185291148Y-100597582D01*
X185050385Y-100957909D01*
X184884545Y-101358284D01*
X184800000Y-101783319D01*
X184800000Y-102216681D01*
X184884545Y-102641716D01*
X184950108Y-102800000D01*
X181406420Y-102800000D01*
X181349535Y-102612476D01*
X181154535Y-102247657D01*
X180892109Y-101927891D01*
X180572343Y-101665465D01*
X180207524Y-101470465D01*
X179811672Y-101350385D01*
X179503167Y-101320000D01*
X179155991Y-101320000D01*
X178931274Y-101251833D01*
X178500000Y-101209356D01*
X178068725Y-101251833D01*
X177844008Y-101320000D01*
X177496833Y-101320000D01*
X177188328Y-101350385D01*
X176792476Y-101470465D01*
X176427657Y-101665465D01*
X176107891Y-101927891D01*
X175845465Y-102247657D01*
X175650465Y-102612476D01*
X175530385Y-103008328D01*
X175489839Y-103420000D01*
X173775000Y-103420000D01*
X173775000Y-87763621D01*
X180100000Y-87763621D01*
X180100000Y-88236379D01*
X180192230Y-88700054D01*
X180373147Y-89136826D01*
X180635798Y-89529911D01*
X180970089Y-89864202D01*
X181363174Y-90126853D01*
X181799946Y-90307770D01*
X182263621Y-90400000D01*
X182736379Y-90400000D01*
X183200054Y-90307770D01*
X183636826Y-90126853D01*
X184029911Y-89864202D01*
X184364202Y-89529911D01*
X184626853Y-89136826D01*
X184807770Y-88700054D01*
X184886744Y-88303017D01*
X196340000Y-88303017D01*
X196340000Y-88696983D01*
X196416859Y-89083378D01*
X196567623Y-89447355D01*
X196786499Y-89774926D01*
X197065074Y-90053501D01*
X197392645Y-90272377D01*
X197756622Y-90423141D01*
X198143017Y-90500000D01*
X198536983Y-90500000D01*
X198923378Y-90423141D01*
X199287355Y-90272377D01*
X199614926Y-90053501D01*
X199893501Y-89774926D01*
X200112377Y-89447355D01*
X200263141Y-89083378D01*
X200340000Y-88696983D01*
X200340000Y-88303017D01*
X200263141Y-87916622D01*
X200112377Y-87552645D01*
X200042587Y-87448197D01*
X200303017Y-87500000D01*
X200696983Y-87500000D01*
X201083378Y-87423141D01*
X201447355Y-87272377D01*
X201774926Y-87053501D01*
X202053501Y-86774926D01*
X202272377Y-86447355D01*
X202423141Y-86083378D01*
X202500000Y-85696983D01*
X202500000Y-85303017D01*
X202423141Y-84916622D01*
X202272377Y-84552645D01*
X202053501Y-84225074D01*
X201774926Y-83946499D01*
X201447355Y-83727623D01*
X201083378Y-83576859D01*
X200696983Y-83500000D01*
X200303017Y-83500000D01*
X199916622Y-83576859D01*
X199552645Y-83727623D01*
X199225074Y-83946499D01*
X198946499Y-84225074D01*
X198727623Y-84552645D01*
X198576859Y-84916622D01*
X198500000Y-85303017D01*
X198500000Y-85696983D01*
X198576859Y-86083378D01*
X198727623Y-86447355D01*
X198797413Y-86551803D01*
X198536983Y-86500000D01*
X198143017Y-86500000D01*
X197756622Y-86576859D01*
X197392645Y-86727623D01*
X197065074Y-86946499D01*
X196786499Y-87225074D01*
X196567623Y-87552645D01*
X196416859Y-87916622D01*
X196340000Y-88303017D01*
X184886744Y-88303017D01*
X184900000Y-88236379D01*
X184900000Y-87763621D01*
X184807770Y-87299946D01*
X184626853Y-86863174D01*
X184364202Y-86470089D01*
X184029911Y-86135798D01*
X183636826Y-85873147D01*
X183200054Y-85692230D01*
X182736379Y-85600000D01*
X182263621Y-85600000D01*
X181799946Y-85692230D01*
X181363174Y-85873147D01*
X180970089Y-86135798D01*
X180635798Y-86470089D01*
X180373147Y-86863174D01*
X180192230Y-87299946D01*
X180100000Y-87763621D01*
X173775000Y-87763621D01*
X173775000Y-79300000D01*
X180094194Y-79300000D01*
X180094194Y-81700000D01*
X180117363Y-81935241D01*
X180185981Y-82161442D01*
X180297409Y-82369910D01*
X180447366Y-82552634D01*
X180630090Y-82702591D01*
X180838558Y-82814019D01*
X181064759Y-82882637D01*
X181300000Y-82905806D01*
X183700000Y-82905806D01*
X183935241Y-82882637D01*
X184161442Y-82814019D01*
X184369910Y-82702591D01*
X184552634Y-82552634D01*
X184702591Y-82369910D01*
X184814019Y-82161442D01*
X184882637Y-81935241D01*
X184905806Y-81700000D01*
X184905806Y-79300000D01*
X184882637Y-79064759D01*
X184814019Y-78838558D01*
X184702591Y-78630090D01*
X184552634Y-78447366D01*
X184369910Y-78297409D01*
X184161442Y-78185981D01*
X183935241Y-78117363D01*
X183700000Y-78094194D01*
X181300000Y-78094194D01*
X181064759Y-78117363D01*
X180838558Y-78185981D01*
X180630090Y-78297409D01*
X180447366Y-78447366D01*
X180297409Y-78630090D01*
X180185981Y-78838558D01*
X180117363Y-79064759D01*
X180094194Y-79300000D01*
X173775000Y-79300000D01*
X173775000Y-71763621D01*
X176860000Y-71763621D01*
X176860000Y-72236379D01*
X176952230Y-72700054D01*
X177133147Y-73136826D01*
X177395798Y-73529911D01*
X177730089Y-73864202D01*
X178123174Y-74126853D01*
X178559946Y-74307770D01*
X179023621Y-74400000D01*
X179496379Y-74400000D01*
X179960054Y-74307770D01*
X180396826Y-74126853D01*
X180789911Y-73864202D01*
X181124202Y-73529911D01*
X181386853Y-73136826D01*
X181567770Y-72700054D01*
X181660000Y-72236379D01*
X181660000Y-71763621D01*
X192100000Y-71763621D01*
X192100000Y-72236379D01*
X192192230Y-72700054D01*
X192373147Y-73136826D01*
X192635798Y-73529911D01*
X192970089Y-73864202D01*
X193363174Y-74126853D01*
X193799946Y-74307770D01*
X194263621Y-74400000D01*
X194736379Y-74400000D01*
X195200054Y-74307770D01*
X195636826Y-74126853D01*
X196029911Y-73864202D01*
X196364202Y-73529911D01*
X196626853Y-73136826D01*
X196807770Y-72700054D01*
X196900000Y-72236379D01*
X196900000Y-71763621D01*
X196807770Y-71299946D01*
X196626853Y-70863174D01*
X196364202Y-70470089D01*
X196037130Y-70143017D01*
X208500000Y-70143017D01*
X208500000Y-70536983D01*
X208576859Y-70923378D01*
X208727623Y-71287355D01*
X208946499Y-71614926D01*
X209225074Y-71893501D01*
X209552645Y-72112377D01*
X209916622Y-72263141D01*
X210303017Y-72340000D01*
X210696983Y-72340000D01*
X211083378Y-72263141D01*
X211447355Y-72112377D01*
X211774926Y-71893501D01*
X212053501Y-71614926D01*
X212272377Y-71287355D01*
X212349981Y-71100000D01*
X223494194Y-71100000D01*
X223494194Y-72900000D01*
X223517363Y-73135241D01*
X223585981Y-73361442D01*
X223697409Y-73569910D01*
X223847366Y-73752634D01*
X224030090Y-73902591D01*
X224238558Y-74014019D01*
X224464759Y-74082637D01*
X224700000Y-74105806D01*
X228300000Y-74105806D01*
X228535241Y-74082637D01*
X228761442Y-74014019D01*
X228969910Y-73902591D01*
X229152634Y-73752634D01*
X229302591Y-73569910D01*
X229414019Y-73361442D01*
X229482637Y-73135241D01*
X229505806Y-72900000D01*
X229505806Y-71100000D01*
X229482637Y-70864759D01*
X229414019Y-70638558D01*
X229302591Y-70430090D01*
X229152634Y-70247366D01*
X228969910Y-70097409D01*
X228761442Y-69985981D01*
X228535241Y-69917363D01*
X228300000Y-69894194D01*
X224700000Y-69894194D01*
X224464759Y-69917363D01*
X224238558Y-69985981D01*
X224030090Y-70097409D01*
X223847366Y-70247366D01*
X223697409Y-70430090D01*
X223585981Y-70638558D01*
X223517363Y-70864759D01*
X223494194Y-71100000D01*
X212349981Y-71100000D01*
X212423141Y-70923378D01*
X212500000Y-70536983D01*
X212500000Y-70143017D01*
X212423141Y-69756622D01*
X212272377Y-69392645D01*
X212053501Y-69065074D01*
X211774926Y-68786499D01*
X211447355Y-68567623D01*
X211083378Y-68416859D01*
X210696983Y-68340000D01*
X210303017Y-68340000D01*
X209916622Y-68416859D01*
X209552645Y-68567623D01*
X209225074Y-68786499D01*
X208946499Y-69065074D01*
X208727623Y-69392645D01*
X208576859Y-69756622D01*
X208500000Y-70143017D01*
X196037130Y-70143017D01*
X196029911Y-70135798D01*
X195636826Y-69873147D01*
X195200054Y-69692230D01*
X194736379Y-69600000D01*
X194263621Y-69600000D01*
X193799946Y-69692230D01*
X193363174Y-69873147D01*
X192970089Y-70135798D01*
X192635798Y-70470089D01*
X192373147Y-70863174D01*
X192192230Y-71299946D01*
X192100000Y-71763621D01*
X181660000Y-71763621D01*
X181567770Y-71299946D01*
X181386853Y-70863174D01*
X181124202Y-70470089D01*
X180789911Y-70135798D01*
X180396826Y-69873147D01*
X179960054Y-69692230D01*
X179496379Y-69600000D01*
X179023621Y-69600000D01*
X178559946Y-69692230D01*
X178123174Y-69873147D01*
X177730089Y-70135798D01*
X177395798Y-70470089D01*
X177133147Y-70863174D01*
X176952230Y-71299946D01*
X176860000Y-71763621D01*
X173775000Y-71763621D01*
X173775000Y-62224224D01*
X174700000Y-62224224D01*
X174700000Y-62775776D01*
X174807602Y-63316730D01*
X175018672Y-63826297D01*
X175325098Y-64284896D01*
X175715104Y-64674902D01*
X176173703Y-64981328D01*
X176683270Y-65192398D01*
X177224224Y-65300000D01*
X177775776Y-65300000D01*
X178316730Y-65192398D01*
X178826297Y-64981328D01*
X179284896Y-64674902D01*
X179674902Y-64284896D01*
X179981328Y-63826297D01*
X180192398Y-63316730D01*
X180300000Y-62775776D01*
X180300000Y-62224224D01*
X180195726Y-61700000D01*
X184894194Y-61700000D01*
X184894194Y-65300000D01*
X184917363Y-65535241D01*
X184985981Y-65761442D01*
X185097409Y-65969910D01*
X185247366Y-66152634D01*
X185430090Y-66302591D01*
X185638558Y-66414019D01*
X185864759Y-66482637D01*
X186100000Y-66505806D01*
X187900000Y-66505806D01*
X188135241Y-66482637D01*
X188361442Y-66414019D01*
X188569910Y-66302591D01*
X188752634Y-66152634D01*
X188902591Y-65969910D01*
X189014019Y-65761442D01*
X189082637Y-65535241D01*
X189105806Y-65300000D01*
X189105806Y-62496834D01*
X189980000Y-62496834D01*
X189980000Y-64503167D01*
X190010386Y-64811672D01*
X190130466Y-65207524D01*
X190325466Y-65572343D01*
X190587892Y-65892109D01*
X190907658Y-66154535D01*
X191272477Y-66349535D01*
X191668329Y-66469615D01*
X192080000Y-66510161D01*
X192491672Y-66469615D01*
X192887524Y-66349535D01*
X193252343Y-66154535D01*
X193572109Y-65892109D01*
X193834535Y-65572343D01*
X193978492Y-65303017D01*
X198500000Y-65303017D01*
X198500000Y-65696983D01*
X198576859Y-66083378D01*
X198727623Y-66447355D01*
X198946499Y-66774926D01*
X199225074Y-67053501D01*
X199552645Y-67272377D01*
X199916622Y-67423141D01*
X200303017Y-67500000D01*
X200696983Y-67500000D01*
X201083378Y-67423141D01*
X201447355Y-67272377D01*
X201774926Y-67053501D01*
X202053501Y-66774926D01*
X202272377Y-66447355D01*
X202423141Y-66083378D01*
X202500000Y-65696983D01*
X202500000Y-65303017D01*
X202423141Y-64916622D01*
X202272377Y-64552645D01*
X202053501Y-64225074D01*
X201774926Y-63946499D01*
X201447355Y-63727623D01*
X201083378Y-63576859D01*
X200696983Y-63500000D01*
X200303017Y-63500000D01*
X199916622Y-63576859D01*
X199552645Y-63727623D01*
X199225074Y-63946499D01*
X198946499Y-64225074D01*
X198727623Y-64552645D01*
X198576859Y-64916622D01*
X198500000Y-65303017D01*
X193978492Y-65303017D01*
X194029535Y-65207524D01*
X194149615Y-64811672D01*
X194180000Y-64503166D01*
X194180000Y-63283319D01*
X203300000Y-63283319D01*
X203300000Y-63716681D01*
X203384545Y-64141716D01*
X203550385Y-64542091D01*
X203791148Y-64902418D01*
X204097582Y-65208852D01*
X204457909Y-65449615D01*
X204858284Y-65615455D01*
X205283319Y-65700000D01*
X205716681Y-65700000D01*
X206141716Y-65615455D01*
X206542091Y-65449615D01*
X206902418Y-65208852D01*
X207208852Y-64902418D01*
X207449615Y-64542091D01*
X207615455Y-64141716D01*
X207700000Y-63716681D01*
X207700000Y-63283319D01*
X207615455Y-62858284D01*
X207467050Y-62500000D01*
X208294194Y-62500000D01*
X208294194Y-64500000D01*
X208317363Y-64735241D01*
X208385981Y-64961442D01*
X208497409Y-65169910D01*
X208647366Y-65352634D01*
X208830090Y-65502591D01*
X209038558Y-65614019D01*
X209264759Y-65682637D01*
X209500000Y-65705806D01*
X211500000Y-65705806D01*
X211735241Y-65682637D01*
X211961442Y-65614019D01*
X212004835Y-65590825D01*
X224550597Y-65590825D01*
X224864643Y-66297388D01*
X225656115Y-66738554D01*
X226518446Y-67016836D01*
X227418497Y-67121538D01*
X228321681Y-67048637D01*
X229193287Y-66800935D01*
X229999822Y-66387949D01*
X230135357Y-66297388D01*
X230449403Y-65590825D01*
X227500000Y-62641421D01*
X224550597Y-65590825D01*
X212004835Y-65590825D01*
X212169910Y-65502591D01*
X212352634Y-65352634D01*
X212502591Y-65169910D01*
X212614019Y-64961442D01*
X212682637Y-64735241D01*
X212705806Y-64500000D01*
X212705806Y-62500000D01*
X212697779Y-62418497D01*
X222878462Y-62418497D01*
X222951363Y-63321681D01*
X223199065Y-64193287D01*
X223612051Y-64999822D01*
X223702612Y-65135357D01*
X224409175Y-65449403D01*
X227358579Y-62500000D01*
X224409175Y-59550597D01*
X223702612Y-59864643D01*
X223261446Y-60656115D01*
X222983164Y-61518446D01*
X222878462Y-62418497D01*
X212697779Y-62418497D01*
X212682637Y-62264759D01*
X212614019Y-62038558D01*
X212502591Y-61830090D01*
X212352634Y-61647366D01*
X212169910Y-61497409D01*
X211961442Y-61385981D01*
X211735241Y-61317363D01*
X211500000Y-61294194D01*
X209500000Y-61294194D01*
X209264759Y-61317363D01*
X209038558Y-61385981D01*
X208830090Y-61497409D01*
X208647366Y-61647366D01*
X208497409Y-61830090D01*
X208385981Y-62038558D01*
X208317363Y-62264759D01*
X208294194Y-62500000D01*
X207467050Y-62500000D01*
X207449615Y-62457909D01*
X207208852Y-62097582D01*
X206902418Y-61791148D01*
X206542091Y-61550385D01*
X206141716Y-61384545D01*
X205716681Y-61300000D01*
X205283319Y-61300000D01*
X204858284Y-61384545D01*
X204457909Y-61550385D01*
X204097582Y-61791148D01*
X203791148Y-62097582D01*
X203550385Y-62457909D01*
X203384545Y-62858284D01*
X203300000Y-63283319D01*
X194180000Y-63283319D01*
X194180000Y-62496833D01*
X194149615Y-62188328D01*
X194029535Y-61792476D01*
X193834535Y-61427657D01*
X193572109Y-61107891D01*
X193252343Y-60845465D01*
X192887523Y-60650465D01*
X192491671Y-60530385D01*
X192080000Y-60489839D01*
X191668328Y-60530385D01*
X191272476Y-60650465D01*
X190907657Y-60845465D01*
X190587891Y-61107891D01*
X190325465Y-61427657D01*
X190130465Y-61792477D01*
X190010385Y-62188329D01*
X189980000Y-62496834D01*
X189105806Y-62496834D01*
X189105806Y-61700000D01*
X189082637Y-61464759D01*
X189014019Y-61238558D01*
X188902591Y-61030090D01*
X188752634Y-60847366D01*
X188569910Y-60697409D01*
X188361442Y-60585981D01*
X188135241Y-60517363D01*
X187900000Y-60494194D01*
X186100000Y-60494194D01*
X185864759Y-60517363D01*
X185638558Y-60585981D01*
X185430090Y-60697409D01*
X185247366Y-60847366D01*
X185097409Y-61030090D01*
X184985981Y-61238558D01*
X184917363Y-61464759D01*
X184894194Y-61700000D01*
X180195726Y-61700000D01*
X180192398Y-61683270D01*
X179981328Y-61173703D01*
X179674902Y-60715104D01*
X179284896Y-60325098D01*
X178826297Y-60018672D01*
X178316730Y-59807602D01*
X177775776Y-59700000D01*
X177224224Y-59700000D01*
X176683270Y-59807602D01*
X176173703Y-60018672D01*
X175715104Y-60325098D01*
X175325098Y-60715104D01*
X175018672Y-61173703D01*
X174807602Y-61683270D01*
X174700000Y-62224224D01*
X173775000Y-62224224D01*
X173775000Y-58775000D01*
X216913140Y-58775000D01*
X216727623Y-59052645D01*
M02*
