G04 #@! TF.GenerationSoftware,KiCad,Pcbnew,(5.1.5-0-10_14)*
G04 #@! TF.CreationDate,2020-04-26T21:15:48+01:00*
G04 #@! TF.ProjectId,SSFXPCB,53534658-5043-4422-9e6b-696361645f70,rev?*
G04 #@! TF.SameCoordinates,Original*
G04 #@! TF.FileFunction,Legend,Top*
G04 #@! TF.FilePolarity,Positive*
%FSLAX46Y46*%
G04 Gerber Fmt 4.6, Leading zero omitted, Abs format (unit mm)*
G04 Created by KiCad (PCBNEW (5.1.5-0-10_14)) date 2020-04-26 21:15:48*
%MOMM*%
%LPD*%
G04 APERTURE LIST*
%ADD10C,0.300000*%
%ADD11C,0.250000*%
%ADD12C,0.150000*%
%ADD13C,0.120000*%
G04 APERTURE END LIST*
D10*
X190901285Y-49694714D02*
X190484619Y-49694714D01*
X190484619Y-50349476D02*
X190484619Y-49099476D01*
X191079857Y-49099476D01*
X191556047Y-50349476D02*
X191556047Y-49516142D01*
X191556047Y-49754238D02*
X191615571Y-49635190D01*
X191675095Y-49575666D01*
X191794142Y-49516142D01*
X191913190Y-49516142D01*
X192508428Y-50349476D02*
X192389380Y-50289952D01*
X192329857Y-50230428D01*
X192270333Y-50111380D01*
X192270333Y-49754238D01*
X192329857Y-49635190D01*
X192389380Y-49575666D01*
X192508428Y-49516142D01*
X192687000Y-49516142D01*
X192806047Y-49575666D01*
X192865571Y-49635190D01*
X192925095Y-49754238D01*
X192925095Y-50111380D01*
X192865571Y-50230428D01*
X192806047Y-50289952D01*
X192687000Y-50349476D01*
X192508428Y-50349476D01*
X193460809Y-50349476D02*
X193460809Y-49516142D01*
X193460809Y-49635190D02*
X193520333Y-49575666D01*
X193639380Y-49516142D01*
X193817952Y-49516142D01*
X193937000Y-49575666D01*
X193996523Y-49694714D01*
X193996523Y-50349476D01*
X193996523Y-49694714D02*
X194056047Y-49575666D01*
X194175095Y-49516142D01*
X194353666Y-49516142D01*
X194472714Y-49575666D01*
X194532238Y-49694714D01*
X194532238Y-50349476D01*
X196794142Y-50349476D02*
X196377476Y-49754238D01*
X196079857Y-50349476D02*
X196079857Y-49099476D01*
X196556047Y-49099476D01*
X196675095Y-49159000D01*
X196734619Y-49218523D01*
X196794142Y-49337571D01*
X196794142Y-49516142D01*
X196734619Y-49635190D01*
X196675095Y-49694714D01*
X196556047Y-49754238D01*
X196079857Y-49754238D01*
X197210809Y-49516142D02*
X197508428Y-50349476D01*
X197806047Y-49516142D01*
X198282238Y-50349476D02*
X198282238Y-49099476D01*
X198282238Y-49575666D02*
X198401285Y-49516142D01*
X198639380Y-49516142D01*
X198758428Y-49575666D01*
X198817952Y-49635190D01*
X198877476Y-49754238D01*
X198877476Y-50111380D01*
X198817952Y-50230428D01*
X198758428Y-50289952D01*
X198639380Y-50349476D01*
X198401285Y-50349476D01*
X198282238Y-50289952D01*
D11*
X179228952Y-74620380D02*
X178895619Y-74144190D01*
X178657523Y-74620380D02*
X178657523Y-73620380D01*
X179038476Y-73620380D01*
X179133714Y-73668000D01*
X179181333Y-73715619D01*
X179228952Y-73810857D01*
X179228952Y-73953714D01*
X179181333Y-74048952D01*
X179133714Y-74096571D01*
X179038476Y-74144190D01*
X178657523Y-74144190D01*
X180038476Y-74572761D02*
X179943238Y-74620380D01*
X179752761Y-74620380D01*
X179657523Y-74572761D01*
X179609904Y-74477523D01*
X179609904Y-74096571D01*
X179657523Y-74001333D01*
X179752761Y-73953714D01*
X179943238Y-73953714D01*
X180038476Y-74001333D01*
X180086095Y-74096571D01*
X180086095Y-74191809D01*
X179609904Y-74287047D01*
X180371809Y-73953714D02*
X180752761Y-73953714D01*
X180514666Y-73620380D02*
X180514666Y-74477523D01*
X180562285Y-74572761D01*
X180657523Y-74620380D01*
X180752761Y-74620380D01*
X181514666Y-73953714D02*
X181514666Y-74620380D01*
X181086095Y-73953714D02*
X181086095Y-74477523D01*
X181133714Y-74572761D01*
X181228952Y-74620380D01*
X181371809Y-74620380D01*
X181467047Y-74572761D01*
X181514666Y-74525142D01*
X181990857Y-74620380D02*
X181990857Y-73953714D01*
X181990857Y-74144190D02*
X182038476Y-74048952D01*
X182086095Y-74001333D01*
X182181333Y-73953714D01*
X182276571Y-73953714D01*
X182609904Y-73953714D02*
X182609904Y-74620380D01*
X182609904Y-74048952D02*
X182657523Y-74001333D01*
X182752761Y-73953714D01*
X182895619Y-73953714D01*
X182990857Y-74001333D01*
X183038476Y-74096571D01*
X183038476Y-74620380D01*
X141636952Y-74572761D02*
X141779809Y-74620380D01*
X142017904Y-74620380D01*
X142113142Y-74572761D01*
X142160761Y-74525142D01*
X142208380Y-74429904D01*
X142208380Y-74334666D01*
X142160761Y-74239428D01*
X142113142Y-74191809D01*
X142017904Y-74144190D01*
X141827428Y-74096571D01*
X141732190Y-74048952D01*
X141684571Y-74001333D01*
X141636952Y-73906095D01*
X141636952Y-73810857D01*
X141684571Y-73715619D01*
X141732190Y-73668000D01*
X141827428Y-73620380D01*
X142065523Y-73620380D01*
X142208380Y-73668000D01*
X143017904Y-74572761D02*
X142922666Y-74620380D01*
X142732190Y-74620380D01*
X142636952Y-74572761D01*
X142589333Y-74477523D01*
X142589333Y-74096571D01*
X142636952Y-74001333D01*
X142732190Y-73953714D01*
X142922666Y-73953714D01*
X143017904Y-74001333D01*
X143065523Y-74096571D01*
X143065523Y-74191809D01*
X142589333Y-74287047D01*
X143494095Y-73953714D02*
X143494095Y-74620380D01*
X143494095Y-74048952D02*
X143541714Y-74001333D01*
X143636952Y-73953714D01*
X143779809Y-73953714D01*
X143875047Y-74001333D01*
X143922666Y-74096571D01*
X143922666Y-74620380D01*
X144827428Y-74620380D02*
X144827428Y-73620380D01*
X144827428Y-74572761D02*
X144732190Y-74620380D01*
X144541714Y-74620380D01*
X144446476Y-74572761D01*
X144398857Y-74525142D01*
X144351238Y-74429904D01*
X144351238Y-74144190D01*
X144398857Y-74048952D01*
X144446476Y-74001333D01*
X144541714Y-73953714D01*
X144732190Y-73953714D01*
X144827428Y-74001333D01*
X114649333Y-87828380D02*
X114649333Y-86828380D01*
X114649333Y-87304571D02*
X115220761Y-87304571D01*
X115220761Y-87828380D02*
X115220761Y-86828380D01*
X115554095Y-86828380D02*
X116125523Y-86828380D01*
X115839809Y-87828380D02*
X115839809Y-86828380D01*
X148661714Y-79097142D02*
X148614095Y-79144761D01*
X148471238Y-79192380D01*
X148376000Y-79192380D01*
X148233142Y-79144761D01*
X148137904Y-79049523D01*
X148090285Y-78954285D01*
X148042666Y-78763809D01*
X148042666Y-78620952D01*
X148090285Y-78430476D01*
X148137904Y-78335238D01*
X148233142Y-78240000D01*
X148376000Y-78192380D01*
X148471238Y-78192380D01*
X148614095Y-78240000D01*
X148661714Y-78287619D01*
X149518857Y-79192380D02*
X149518857Y-78668571D01*
X149471238Y-78573333D01*
X149376000Y-78525714D01*
X149185523Y-78525714D01*
X149090285Y-78573333D01*
X149518857Y-79144761D02*
X149423619Y-79192380D01*
X149185523Y-79192380D01*
X149090285Y-79144761D01*
X149042666Y-79049523D01*
X149042666Y-78954285D01*
X149090285Y-78859047D01*
X149185523Y-78811428D01*
X149423619Y-78811428D01*
X149518857Y-78763809D01*
X149852190Y-78525714D02*
X150233142Y-78525714D01*
X149995047Y-78192380D02*
X149995047Y-79049523D01*
X150042666Y-79144761D01*
X150137904Y-79192380D01*
X150233142Y-79192380D01*
X150566476Y-79192380D02*
X150566476Y-78192380D01*
X150995047Y-79192380D02*
X150995047Y-78668571D01*
X150947428Y-78573333D01*
X150852190Y-78525714D01*
X150709333Y-78525714D01*
X150614095Y-78573333D01*
X150566476Y-78620952D01*
X151614095Y-79192380D02*
X151518857Y-79144761D01*
X151471238Y-79097142D01*
X151423619Y-79001904D01*
X151423619Y-78716190D01*
X151471238Y-78620952D01*
X151518857Y-78573333D01*
X151614095Y-78525714D01*
X151756952Y-78525714D01*
X151852190Y-78573333D01*
X151899809Y-78620952D01*
X151947428Y-78716190D01*
X151947428Y-79001904D01*
X151899809Y-79097142D01*
X151852190Y-79144761D01*
X151756952Y-79192380D01*
X151614095Y-79192380D01*
X152804571Y-79192380D02*
X152804571Y-78192380D01*
X152804571Y-79144761D02*
X152709333Y-79192380D01*
X152518857Y-79192380D01*
X152423619Y-79144761D01*
X152376000Y-79097142D01*
X152328380Y-79001904D01*
X152328380Y-78716190D01*
X152376000Y-78620952D01*
X152423619Y-78573333D01*
X152518857Y-78525714D01*
X152709333Y-78525714D01*
X152804571Y-78573333D01*
X153661714Y-79144761D02*
X153566476Y-79192380D01*
X153376000Y-79192380D01*
X153280761Y-79144761D01*
X153233142Y-79049523D01*
X153233142Y-78668571D01*
X153280761Y-78573333D01*
X153376000Y-78525714D01*
X153566476Y-78525714D01*
X153661714Y-78573333D01*
X153709333Y-78668571D01*
X153709333Y-78763809D01*
X153233142Y-78859047D01*
X181125904Y-89924000D02*
X181030666Y-89876380D01*
X180887809Y-89876380D01*
X180744952Y-89924000D01*
X180649714Y-90019238D01*
X180602095Y-90114476D01*
X180554476Y-90304952D01*
X180554476Y-90447809D01*
X180602095Y-90638285D01*
X180649714Y-90733523D01*
X180744952Y-90828761D01*
X180887809Y-90876380D01*
X180983047Y-90876380D01*
X181125904Y-90828761D01*
X181173523Y-90781142D01*
X181173523Y-90447809D01*
X180983047Y-90447809D01*
X181602095Y-90876380D02*
X181602095Y-90209714D01*
X181602095Y-90400190D02*
X181649714Y-90304952D01*
X181697333Y-90257333D01*
X181792571Y-90209714D01*
X181887809Y-90209714D01*
X182221142Y-90876380D02*
X182221142Y-90209714D01*
X182221142Y-89876380D02*
X182173523Y-89924000D01*
X182221142Y-89971619D01*
X182268761Y-89924000D01*
X182221142Y-89876380D01*
X182221142Y-89971619D01*
X183125904Y-90876380D02*
X183125904Y-89876380D01*
X183125904Y-90828761D02*
X183030666Y-90876380D01*
X182840190Y-90876380D01*
X182744952Y-90828761D01*
X182697333Y-90781142D01*
X182649714Y-90685904D01*
X182649714Y-90400190D01*
X182697333Y-90304952D01*
X182744952Y-90257333D01*
X182840190Y-90209714D01*
X183030666Y-90209714D01*
X183125904Y-90257333D01*
X128341714Y-70969142D02*
X128294095Y-71016761D01*
X128151238Y-71064380D01*
X128056000Y-71064380D01*
X127913142Y-71016761D01*
X127817904Y-70921523D01*
X127770285Y-70826285D01*
X127722666Y-70635809D01*
X127722666Y-70492952D01*
X127770285Y-70302476D01*
X127817904Y-70207238D01*
X127913142Y-70112000D01*
X128056000Y-70064380D01*
X128151238Y-70064380D01*
X128294095Y-70112000D01*
X128341714Y-70159619D01*
X129198857Y-71064380D02*
X129198857Y-70540571D01*
X129151238Y-70445333D01*
X129056000Y-70397714D01*
X128865523Y-70397714D01*
X128770285Y-70445333D01*
X129198857Y-71016761D02*
X129103619Y-71064380D01*
X128865523Y-71064380D01*
X128770285Y-71016761D01*
X128722666Y-70921523D01*
X128722666Y-70826285D01*
X128770285Y-70731047D01*
X128865523Y-70683428D01*
X129103619Y-70683428D01*
X129198857Y-70635809D01*
X129532190Y-70397714D02*
X129913142Y-70397714D01*
X129675047Y-70064380D02*
X129675047Y-70921523D01*
X129722666Y-71016761D01*
X129817904Y-71064380D01*
X129913142Y-71064380D01*
X130246476Y-71064380D02*
X130246476Y-70064380D01*
X130675047Y-71064380D02*
X130675047Y-70540571D01*
X130627428Y-70445333D01*
X130532190Y-70397714D01*
X130389333Y-70397714D01*
X130294095Y-70445333D01*
X130246476Y-70492952D01*
X131294095Y-71064380D02*
X131198857Y-71016761D01*
X131151238Y-70969142D01*
X131103619Y-70873904D01*
X131103619Y-70588190D01*
X131151238Y-70492952D01*
X131198857Y-70445333D01*
X131294095Y-70397714D01*
X131436952Y-70397714D01*
X131532190Y-70445333D01*
X131579809Y-70492952D01*
X131627428Y-70588190D01*
X131627428Y-70873904D01*
X131579809Y-70969142D01*
X131532190Y-71016761D01*
X131436952Y-71064380D01*
X131294095Y-71064380D01*
X132484571Y-71064380D02*
X132484571Y-70064380D01*
X132484571Y-71016761D02*
X132389333Y-71064380D01*
X132198857Y-71064380D01*
X132103619Y-71016761D01*
X132056000Y-70969142D01*
X132008380Y-70873904D01*
X132008380Y-70588190D01*
X132056000Y-70492952D01*
X132103619Y-70445333D01*
X132198857Y-70397714D01*
X132389333Y-70397714D01*
X132484571Y-70445333D01*
X133341714Y-71016761D02*
X133246476Y-71064380D01*
X133056000Y-71064380D01*
X132960761Y-71016761D01*
X132913142Y-70921523D01*
X132913142Y-70540571D01*
X132960761Y-70445333D01*
X133056000Y-70397714D01*
X133246476Y-70397714D01*
X133341714Y-70445333D01*
X133389333Y-70540571D01*
X133389333Y-70635809D01*
X132913142Y-70731047D01*
X116101904Y-58428000D02*
X116006666Y-58380380D01*
X115863809Y-58380380D01*
X115720952Y-58428000D01*
X115625714Y-58523238D01*
X115578095Y-58618476D01*
X115530476Y-58808952D01*
X115530476Y-58951809D01*
X115578095Y-59142285D01*
X115625714Y-59237523D01*
X115720952Y-59332761D01*
X115863809Y-59380380D01*
X115959047Y-59380380D01*
X116101904Y-59332761D01*
X116149523Y-59285142D01*
X116149523Y-58951809D01*
X115959047Y-58951809D01*
X116578095Y-59380380D02*
X116578095Y-58713714D01*
X116578095Y-58904190D02*
X116625714Y-58808952D01*
X116673333Y-58761333D01*
X116768571Y-58713714D01*
X116863809Y-58713714D01*
X117197142Y-59380380D02*
X117197142Y-58713714D01*
X117197142Y-58380380D02*
X117149523Y-58428000D01*
X117197142Y-58475619D01*
X117244761Y-58428000D01*
X117197142Y-58380380D01*
X117197142Y-58475619D01*
X118101904Y-59380380D02*
X118101904Y-58380380D01*
X118101904Y-59332761D02*
X118006666Y-59380380D01*
X117816190Y-59380380D01*
X117720952Y-59332761D01*
X117673333Y-59285142D01*
X117625714Y-59189904D01*
X117625714Y-58904190D01*
X117673333Y-58808952D01*
X117720952Y-58761333D01*
X117816190Y-58713714D01*
X118006666Y-58713714D01*
X118101904Y-58761333D01*
D10*
X191830047Y-62815476D02*
X192544333Y-62815476D01*
X192187190Y-64065476D02*
X192187190Y-62815476D01*
X193139571Y-64065476D02*
X193020523Y-64005952D01*
X192961000Y-63946428D01*
X192901476Y-63827380D01*
X192901476Y-63470238D01*
X192961000Y-63351190D01*
X193020523Y-63291666D01*
X193139571Y-63232142D01*
X193318142Y-63232142D01*
X193437190Y-63291666D01*
X193496714Y-63351190D01*
X193556238Y-63470238D01*
X193556238Y-63827380D01*
X193496714Y-63946428D01*
X193437190Y-64005952D01*
X193318142Y-64065476D01*
X193139571Y-64065476D01*
X195758619Y-64065476D02*
X195341952Y-63470238D01*
X195044333Y-64065476D02*
X195044333Y-62815476D01*
X195520523Y-62815476D01*
X195639571Y-62875000D01*
X195699095Y-62934523D01*
X195758619Y-63053571D01*
X195758619Y-63232142D01*
X195699095Y-63351190D01*
X195639571Y-63410714D01*
X195520523Y-63470238D01*
X195044333Y-63470238D01*
X196175285Y-63232142D02*
X196472904Y-64065476D01*
X196770523Y-63232142D01*
X197246714Y-64065476D02*
X197246714Y-62815476D01*
X197246714Y-63291666D02*
X197365761Y-63232142D01*
X197603857Y-63232142D01*
X197722904Y-63291666D01*
X197782428Y-63351190D01*
X197841952Y-63470238D01*
X197841952Y-63827380D01*
X197782428Y-63946428D01*
X197722904Y-64005952D01*
X197603857Y-64065476D01*
X197365761Y-64065476D01*
X197246714Y-64005952D01*
X102747380Y-86243000D02*
X102628333Y-86183476D01*
X102449761Y-86183476D01*
X102271190Y-86243000D01*
X102152142Y-86362047D01*
X102092619Y-86481095D01*
X102033095Y-86719190D01*
X102033095Y-86897761D01*
X102092619Y-87135857D01*
X102152142Y-87254904D01*
X102271190Y-87373952D01*
X102449761Y-87433476D01*
X102568809Y-87433476D01*
X102747380Y-87373952D01*
X102806904Y-87314428D01*
X102806904Y-86897761D01*
X102568809Y-86897761D01*
X103342619Y-87433476D02*
X103342619Y-86183476D01*
X104056904Y-87433476D01*
X104056904Y-86183476D01*
X104652142Y-87433476D02*
X104652142Y-86183476D01*
X104949761Y-86183476D01*
X105128333Y-86243000D01*
X105247380Y-86362047D01*
X105306904Y-86481095D01*
X105366428Y-86719190D01*
X105366428Y-86897761D01*
X105306904Y-87135857D01*
X105247380Y-87254904D01*
X105128333Y-87373952D01*
X104949761Y-87433476D01*
X104652142Y-87433476D01*
X105842619Y-87076333D02*
X106437857Y-87076333D01*
X105723571Y-87433476D02*
X106140238Y-86183476D01*
X106556904Y-87433476D01*
X145927380Y-86243000D02*
X145808333Y-86183476D01*
X145629761Y-86183476D01*
X145451190Y-86243000D01*
X145332142Y-86362047D01*
X145272619Y-86481095D01*
X145213095Y-86719190D01*
X145213095Y-86897761D01*
X145272619Y-87135857D01*
X145332142Y-87254904D01*
X145451190Y-87373952D01*
X145629761Y-87433476D01*
X145748809Y-87433476D01*
X145927380Y-87373952D01*
X145986904Y-87314428D01*
X145986904Y-86897761D01*
X145748809Y-86897761D01*
X146522619Y-87433476D02*
X146522619Y-86183476D01*
X147236904Y-87433476D01*
X147236904Y-86183476D01*
X147832142Y-87433476D02*
X147832142Y-86183476D01*
X148129761Y-86183476D01*
X148308333Y-86243000D01*
X148427380Y-86362047D01*
X148486904Y-86481095D01*
X148546428Y-86719190D01*
X148546428Y-86897761D01*
X148486904Y-87135857D01*
X148427380Y-87254904D01*
X148308333Y-87373952D01*
X148129761Y-87433476D01*
X147832142Y-87433476D01*
X149022619Y-87076333D02*
X149617857Y-87076333D01*
X148903571Y-87433476D02*
X149320238Y-86183476D01*
X149736904Y-87433476D01*
X107680619Y-87433476D02*
X107680619Y-86183476D01*
X107680619Y-86778714D02*
X108394904Y-86778714D01*
X108394904Y-87433476D02*
X108394904Y-86183476D01*
X108811571Y-86183476D02*
X109525857Y-86183476D01*
X109168714Y-87433476D02*
X109168714Y-86183476D01*
X110121095Y-87433476D02*
X110002047Y-87373952D01*
X109942523Y-87314428D01*
X109883000Y-87195380D01*
X109883000Y-86838238D01*
X109942523Y-86719190D01*
X110002047Y-86659666D01*
X110121095Y-86600142D01*
X110299666Y-86600142D01*
X110418714Y-86659666D01*
X110478238Y-86719190D01*
X110537761Y-86838238D01*
X110537761Y-87195380D01*
X110478238Y-87314428D01*
X110418714Y-87373952D01*
X110299666Y-87433476D01*
X110121095Y-87433476D01*
X111609190Y-86600142D02*
X111609190Y-87433476D01*
X111073476Y-86600142D02*
X111073476Y-87254904D01*
X111133000Y-87373952D01*
X111252047Y-87433476D01*
X111430619Y-87433476D01*
X111549666Y-87373952D01*
X111609190Y-87314428D01*
X112025857Y-86600142D02*
X112502047Y-86600142D01*
X112204428Y-86183476D02*
X112204428Y-87254904D01*
X112263952Y-87373952D01*
X112383000Y-87433476D01*
X112502047Y-87433476D01*
X139684619Y-87433476D02*
X139684619Y-86183476D01*
X139684619Y-86778714D02*
X140398904Y-86778714D01*
X140398904Y-87433476D02*
X140398904Y-86183476D01*
X140815571Y-86183476D02*
X141529857Y-86183476D01*
X141172714Y-87433476D02*
X141172714Y-86183476D01*
X141946523Y-87433476D02*
X141946523Y-86600142D01*
X141946523Y-86183476D02*
X141887000Y-86243000D01*
X141946523Y-86302523D01*
X142006047Y-86243000D01*
X141946523Y-86183476D01*
X141946523Y-86302523D01*
X142541761Y-86600142D02*
X142541761Y-87433476D01*
X142541761Y-86719190D02*
X142601285Y-86659666D01*
X142720333Y-86600142D01*
X142898904Y-86600142D01*
X143017952Y-86659666D01*
X143077476Y-86778714D01*
X143077476Y-87433476D01*
X194786714Y-79579476D02*
X195024809Y-79579476D01*
X195143857Y-79639000D01*
X195262904Y-79758047D01*
X195322428Y-79996142D01*
X195322428Y-80412809D01*
X195262904Y-80650904D01*
X195143857Y-80769952D01*
X195024809Y-80829476D01*
X194786714Y-80829476D01*
X194667666Y-80769952D01*
X194548619Y-80650904D01*
X194489095Y-80412809D01*
X194489095Y-79996142D01*
X194548619Y-79758047D01*
X194667666Y-79639000D01*
X194786714Y-79579476D01*
X195858142Y-79579476D02*
X195858142Y-80591380D01*
X195917666Y-80710428D01*
X195977190Y-80769952D01*
X196096238Y-80829476D01*
X196334333Y-80829476D01*
X196453380Y-80769952D01*
X196512904Y-80710428D01*
X196572428Y-80591380D01*
X196572428Y-79579476D01*
X196989095Y-79579476D02*
X197703380Y-79579476D01*
X197346238Y-80829476D02*
X197346238Y-79579476D01*
X102092619Y-70161476D02*
X102092619Y-68911476D01*
X102687857Y-70161476D02*
X102687857Y-68911476D01*
X103402142Y-70161476D01*
X103402142Y-68911476D01*
X102541095Y-54353952D02*
X102719666Y-54413476D01*
X103017285Y-54413476D01*
X103136333Y-54353952D01*
X103195857Y-54294428D01*
X103255380Y-54175380D01*
X103255380Y-54056333D01*
X103195857Y-53937285D01*
X103136333Y-53877761D01*
X103017285Y-53818238D01*
X102779190Y-53758714D01*
X102660142Y-53699190D01*
X102600619Y-53639666D01*
X102541095Y-53520619D01*
X102541095Y-53401571D01*
X102600619Y-53282523D01*
X102660142Y-53223000D01*
X102779190Y-53163476D01*
X103076809Y-53163476D01*
X103255380Y-53223000D01*
X104267285Y-54353952D02*
X104148238Y-54413476D01*
X103910142Y-54413476D01*
X103791095Y-54353952D01*
X103731571Y-54234904D01*
X103731571Y-53758714D01*
X103791095Y-53639666D01*
X103910142Y-53580142D01*
X104148238Y-53580142D01*
X104267285Y-53639666D01*
X104326809Y-53758714D01*
X104326809Y-53877761D01*
X103731571Y-53996809D01*
X104862523Y-53580142D02*
X104862523Y-54413476D01*
X104862523Y-53699190D02*
X104922047Y-53639666D01*
X105041095Y-53580142D01*
X105219666Y-53580142D01*
X105338714Y-53639666D01*
X105398238Y-53758714D01*
X105398238Y-54413476D01*
X106529190Y-54413476D02*
X106529190Y-53163476D01*
X106529190Y-54353952D02*
X106410142Y-54413476D01*
X106172047Y-54413476D01*
X106053000Y-54353952D01*
X105993476Y-54294428D01*
X105933952Y-54175380D01*
X105933952Y-53818238D01*
X105993476Y-53699190D01*
X106053000Y-53639666D01*
X106172047Y-53580142D01*
X106410142Y-53580142D01*
X106529190Y-53639666D01*
X108672047Y-54413476D02*
X108076809Y-54413476D01*
X108076809Y-53163476D01*
X109564904Y-54353952D02*
X109445857Y-54413476D01*
X109207761Y-54413476D01*
X109088714Y-54353952D01*
X109029190Y-54234904D01*
X109029190Y-53758714D01*
X109088714Y-53639666D01*
X109207761Y-53580142D01*
X109445857Y-53580142D01*
X109564904Y-53639666D01*
X109624428Y-53758714D01*
X109624428Y-53877761D01*
X109029190Y-53996809D01*
X110041095Y-53580142D02*
X110338714Y-54413476D01*
X110636333Y-53580142D01*
X111588714Y-54353952D02*
X111469666Y-54413476D01*
X111231571Y-54413476D01*
X111112523Y-54353952D01*
X111053000Y-54234904D01*
X111053000Y-53758714D01*
X111112523Y-53639666D01*
X111231571Y-53580142D01*
X111469666Y-53580142D01*
X111588714Y-53639666D01*
X111648238Y-53758714D01*
X111648238Y-53877761D01*
X111053000Y-53996809D01*
X112362523Y-54413476D02*
X112243476Y-54353952D01*
X112183952Y-54234904D01*
X112183952Y-53163476D01*
X109145095Y-85044333D02*
X109740333Y-85044333D01*
X109026047Y-85401476D02*
X109442714Y-84151476D01*
X109859380Y-85401476D01*
X110097476Y-84568142D02*
X110573666Y-84568142D01*
X110276047Y-84151476D02*
X110276047Y-85222904D01*
X110335571Y-85341952D01*
X110454619Y-85401476D01*
X110573666Y-85401476D01*
X110811761Y-84568142D02*
X111287952Y-84568142D01*
X110990333Y-84151476D02*
X110990333Y-85222904D01*
X111049857Y-85341952D01*
X111168904Y-85401476D01*
X111287952Y-85401476D01*
X112180809Y-85341952D02*
X112061761Y-85401476D01*
X111823666Y-85401476D01*
X111704619Y-85341952D01*
X111645095Y-85222904D01*
X111645095Y-84746714D01*
X111704619Y-84627666D01*
X111823666Y-84568142D01*
X112061761Y-84568142D01*
X112180809Y-84627666D01*
X112240333Y-84746714D01*
X112240333Y-84865761D01*
X111645095Y-84984809D01*
X112776047Y-84568142D02*
X112776047Y-85401476D01*
X112776047Y-84687190D02*
X112835571Y-84627666D01*
X112954619Y-84568142D01*
X113133190Y-84568142D01*
X113252238Y-84627666D01*
X113311761Y-84746714D01*
X113311761Y-85401476D01*
X114442714Y-84568142D02*
X114442714Y-85401476D01*
X113907000Y-84568142D02*
X113907000Y-85222904D01*
X113966523Y-85341952D01*
X114085571Y-85401476D01*
X114264142Y-85401476D01*
X114383190Y-85341952D01*
X114442714Y-85282428D01*
X115573666Y-85401476D02*
X115573666Y-84746714D01*
X115514142Y-84627666D01*
X115395095Y-84568142D01*
X115157000Y-84568142D01*
X115037952Y-84627666D01*
X115573666Y-85341952D02*
X115454619Y-85401476D01*
X115157000Y-85401476D01*
X115037952Y-85341952D01*
X114978428Y-85222904D01*
X114978428Y-85103857D01*
X115037952Y-84984809D01*
X115157000Y-84925285D01*
X115454619Y-84925285D01*
X115573666Y-84865761D01*
X115990333Y-84568142D02*
X116466523Y-84568142D01*
X116168904Y-84151476D02*
X116168904Y-85222904D01*
X116228428Y-85341952D01*
X116347476Y-85401476D01*
X116466523Y-85401476D01*
X116883190Y-85401476D02*
X116883190Y-84568142D01*
X116883190Y-84151476D02*
X116823666Y-84211000D01*
X116883190Y-84270523D01*
X116942714Y-84211000D01*
X116883190Y-84151476D01*
X116883190Y-84270523D01*
X117657000Y-85401476D02*
X117537952Y-85341952D01*
X117478428Y-85282428D01*
X117418904Y-85163380D01*
X117418904Y-84806238D01*
X117478428Y-84687190D01*
X117537952Y-84627666D01*
X117657000Y-84568142D01*
X117835571Y-84568142D01*
X117954619Y-84627666D01*
X118014142Y-84687190D01*
X118073666Y-84806238D01*
X118073666Y-85163380D01*
X118014142Y-85282428D01*
X117954619Y-85341952D01*
X117835571Y-85401476D01*
X117657000Y-85401476D01*
X118609380Y-84568142D02*
X118609380Y-85401476D01*
X118609380Y-84687190D02*
X118668904Y-84627666D01*
X118787952Y-84568142D01*
X118966523Y-84568142D01*
X119085571Y-84627666D01*
X119145095Y-84746714D01*
X119145095Y-85401476D01*
X159702904Y-96069476D02*
X159286238Y-95474238D01*
X158988619Y-96069476D02*
X158988619Y-94819476D01*
X159464809Y-94819476D01*
X159583857Y-94879000D01*
X159643380Y-94938523D01*
X159702904Y-95057571D01*
X159702904Y-95236142D01*
X159643380Y-95355190D01*
X159583857Y-95414714D01*
X159464809Y-95474238D01*
X158988619Y-95474238D01*
X160714809Y-96009952D02*
X160595761Y-96069476D01*
X160357666Y-96069476D01*
X160238619Y-96009952D01*
X160179095Y-95890904D01*
X160179095Y-95414714D01*
X160238619Y-95295666D01*
X160357666Y-95236142D01*
X160595761Y-95236142D01*
X160714809Y-95295666D01*
X160774333Y-95414714D01*
X160774333Y-95533761D01*
X160179095Y-95652809D01*
X161845761Y-96009952D02*
X161726714Y-96069476D01*
X161488619Y-96069476D01*
X161369571Y-96009952D01*
X161310047Y-95950428D01*
X161250523Y-95831380D01*
X161250523Y-95474238D01*
X161310047Y-95355190D01*
X161369571Y-95295666D01*
X161488619Y-95236142D01*
X161726714Y-95236142D01*
X161845761Y-95295666D01*
X162560047Y-96069476D02*
X162441000Y-96009952D01*
X162381476Y-95950428D01*
X162321952Y-95831380D01*
X162321952Y-95474238D01*
X162381476Y-95355190D01*
X162441000Y-95295666D01*
X162560047Y-95236142D01*
X162738619Y-95236142D01*
X162857666Y-95295666D01*
X162917190Y-95355190D01*
X162976714Y-95474238D01*
X162976714Y-95831380D01*
X162917190Y-95950428D01*
X162857666Y-96009952D01*
X162738619Y-96069476D01*
X162560047Y-96069476D01*
X163393380Y-95236142D02*
X163691000Y-96069476D01*
X163988619Y-95236142D01*
X164941000Y-96009952D02*
X164821952Y-96069476D01*
X164583857Y-96069476D01*
X164464809Y-96009952D01*
X164405285Y-95890904D01*
X164405285Y-95414714D01*
X164464809Y-95295666D01*
X164583857Y-95236142D01*
X164821952Y-95236142D01*
X164941000Y-95295666D01*
X165000523Y-95414714D01*
X165000523Y-95533761D01*
X164405285Y-95652809D01*
X165536238Y-96069476D02*
X165536238Y-95236142D01*
X165536238Y-95474238D02*
X165595761Y-95355190D01*
X165655285Y-95295666D01*
X165774333Y-95236142D01*
X165893380Y-95236142D01*
X166191000Y-95236142D02*
X166488619Y-96069476D01*
X166786238Y-95236142D02*
X166488619Y-96069476D01*
X166369571Y-96367095D01*
X166310047Y-96426619D01*
X166191000Y-96486142D01*
D11*
X106501238Y-67809523D02*
X106453619Y-67952380D01*
X106453619Y-68190476D01*
X106501238Y-68285714D01*
X106548857Y-68333333D01*
X106644095Y-68380952D01*
X106739333Y-68380952D01*
X106834571Y-68333333D01*
X106882190Y-68285714D01*
X106929809Y-68190476D01*
X106977428Y-68000000D01*
X107025047Y-67904761D01*
X107072666Y-67857142D01*
X107167904Y-67809523D01*
X107263142Y-67809523D01*
X107358380Y-67857142D01*
X107406000Y-67904761D01*
X107453619Y-68000000D01*
X107453619Y-68238095D01*
X107406000Y-68380952D01*
X106453619Y-68952380D02*
X106501238Y-68857142D01*
X106548857Y-68809523D01*
X106644095Y-68761904D01*
X106929809Y-68761904D01*
X107025047Y-68809523D01*
X107072666Y-68857142D01*
X107120285Y-68952380D01*
X107120285Y-69095238D01*
X107072666Y-69190476D01*
X107025047Y-69238095D01*
X106929809Y-69285714D01*
X106644095Y-69285714D01*
X106548857Y-69238095D01*
X106501238Y-69190476D01*
X106453619Y-69095238D01*
X106453619Y-68952380D01*
X106453619Y-69857142D02*
X106501238Y-69761904D01*
X106596476Y-69714285D01*
X107453619Y-69714285D01*
X106453619Y-70238095D02*
X107120285Y-70238095D01*
X107453619Y-70238095D02*
X107406000Y-70190476D01*
X107358380Y-70238095D01*
X107406000Y-70285714D01*
X107453619Y-70238095D01*
X107358380Y-70238095D01*
X106453619Y-71142857D02*
X107453619Y-71142857D01*
X106501238Y-71142857D02*
X106453619Y-71047619D01*
X106453619Y-70857142D01*
X106501238Y-70761904D01*
X106548857Y-70714285D01*
X106644095Y-70666666D01*
X106929809Y-70666666D01*
X107025047Y-70714285D01*
X107072666Y-70761904D01*
X107120285Y-70857142D01*
X107120285Y-71047619D01*
X107072666Y-71142857D01*
X106834571Y-71619047D02*
X106834571Y-72380952D01*
X106501238Y-72809523D02*
X106453619Y-72904761D01*
X106453619Y-73095238D01*
X106501238Y-73190476D01*
X106596476Y-73238095D01*
X106644095Y-73238095D01*
X106739333Y-73190476D01*
X106786952Y-73095238D01*
X106786952Y-72952380D01*
X106834571Y-72857142D01*
X106929809Y-72809523D01*
X106977428Y-72809523D01*
X107072666Y-72857142D01*
X107120285Y-72952380D01*
X107120285Y-73095238D01*
X107072666Y-73190476D01*
X107120285Y-73523809D02*
X107120285Y-73904761D01*
X107453619Y-73666666D02*
X106596476Y-73666666D01*
X106501238Y-73714285D01*
X106453619Y-73809523D01*
X106453619Y-73904761D01*
X106453619Y-74666666D02*
X106977428Y-74666666D01*
X107072666Y-74619047D01*
X107120285Y-74523809D01*
X107120285Y-74333333D01*
X107072666Y-74238095D01*
X106501238Y-74666666D02*
X106453619Y-74571428D01*
X106453619Y-74333333D01*
X106501238Y-74238095D01*
X106596476Y-74190476D01*
X106691714Y-74190476D01*
X106786952Y-74238095D01*
X106834571Y-74333333D01*
X106834571Y-74571428D01*
X106882190Y-74666666D01*
X107120285Y-75000000D02*
X107120285Y-75380952D01*
X107453619Y-75142857D02*
X106596476Y-75142857D01*
X106501238Y-75190476D01*
X106453619Y-75285714D01*
X106453619Y-75380952D01*
X106501238Y-76095238D02*
X106453619Y-75999999D01*
X106453619Y-75809523D01*
X106501238Y-75714285D01*
X106596476Y-75666666D01*
X106977428Y-75666666D01*
X107072666Y-75714285D01*
X107120285Y-75809523D01*
X107120285Y-75999999D01*
X107072666Y-76095238D01*
X106977428Y-76142857D01*
X106882190Y-76142857D01*
X106786952Y-75666666D01*
X106977428Y-77666666D02*
X106977428Y-77333333D01*
X106453619Y-77333333D02*
X107453619Y-77333333D01*
X107453619Y-77809523D01*
X107453619Y-78095238D02*
X106453619Y-78761904D01*
X107453619Y-78761904D02*
X106453619Y-78095238D01*
X106453619Y-80047619D02*
X106501238Y-79952380D01*
X106596476Y-79904761D01*
X107453619Y-79904761D01*
X106453619Y-80571428D02*
X106501238Y-80476190D01*
X106548857Y-80428571D01*
X106644095Y-80380952D01*
X106929809Y-80380952D01*
X107025047Y-80428571D01*
X107072666Y-80476190D01*
X107120285Y-80571428D01*
X107120285Y-80714285D01*
X107072666Y-80809523D01*
X107025047Y-80857142D01*
X106929809Y-80904761D01*
X106644095Y-80904761D01*
X106548857Y-80857142D01*
X106501238Y-80809523D01*
X106453619Y-80714285D01*
X106453619Y-80571428D01*
X106453619Y-81476190D02*
X106501238Y-81380952D01*
X106548857Y-81333333D01*
X106644095Y-81285714D01*
X106929809Y-81285714D01*
X107025047Y-81333333D01*
X107072666Y-81380952D01*
X107120285Y-81476190D01*
X107120285Y-81619047D01*
X107072666Y-81714285D01*
X107025047Y-81761904D01*
X106929809Y-81809523D01*
X106644095Y-81809523D01*
X106548857Y-81761904D01*
X106501238Y-81714285D01*
X106453619Y-81619047D01*
X106453619Y-81476190D01*
X107120285Y-82238095D02*
X106120285Y-82238095D01*
X107072666Y-82238095D02*
X107120285Y-82333333D01*
X107120285Y-82523809D01*
X107072666Y-82619047D01*
X107025047Y-82666666D01*
X106929809Y-82714285D01*
X106644095Y-82714285D01*
X106548857Y-82666666D01*
X106501238Y-82619047D01*
X106453619Y-82523809D01*
X106453619Y-82333333D01*
X106501238Y-82238095D01*
X107120285Y-83809523D02*
X106453619Y-84047619D01*
X107120285Y-84285714D01*
X107358380Y-84619047D02*
X107406000Y-84666666D01*
X107453619Y-84761904D01*
X107453619Y-84999999D01*
X107406000Y-85095238D01*
X107358380Y-85142857D01*
X107263142Y-85190476D01*
X107167904Y-85190476D01*
X107025047Y-85142857D01*
X106453619Y-84571428D01*
X106453619Y-85190476D01*
X105703619Y-71119047D02*
X105703619Y-71690476D01*
X104703619Y-71404761D02*
X105703619Y-71404761D01*
X104703619Y-72023809D02*
X105370285Y-72023809D01*
X105179809Y-72023809D02*
X105275047Y-72071428D01*
X105322666Y-72119047D01*
X105370285Y-72214285D01*
X105370285Y-72309523D01*
X104703619Y-72642857D02*
X105370285Y-72642857D01*
X105703619Y-72642857D02*
X105656000Y-72595238D01*
X105608380Y-72642857D01*
X105656000Y-72690476D01*
X105703619Y-72642857D01*
X105608380Y-72642857D01*
X104751238Y-73071428D02*
X104703619Y-73166666D01*
X104703619Y-73357142D01*
X104751238Y-73452380D01*
X104846476Y-73500000D01*
X104894095Y-73500000D01*
X104989333Y-73452380D01*
X105036952Y-73357142D01*
X105036952Y-73214285D01*
X105084571Y-73119047D01*
X105179809Y-73071428D01*
X105227428Y-73071428D01*
X105322666Y-73119047D01*
X105370285Y-73214285D01*
X105370285Y-73357142D01*
X105322666Y-73452380D01*
X105370285Y-73785714D02*
X105370285Y-74166666D01*
X105703619Y-73928571D02*
X104846476Y-73928571D01*
X104751238Y-73976190D01*
X104703619Y-74071428D01*
X104703619Y-74166666D01*
X104703619Y-74928571D02*
X105227428Y-74928571D01*
X105322666Y-74880952D01*
X105370285Y-74785714D01*
X105370285Y-74595238D01*
X105322666Y-74500000D01*
X104751238Y-74928571D02*
X104703619Y-74833333D01*
X104703619Y-74595238D01*
X104751238Y-74500000D01*
X104846476Y-74452380D01*
X104941714Y-74452380D01*
X105036952Y-74500000D01*
X105084571Y-74595238D01*
X105084571Y-74833333D01*
X105132190Y-74928571D01*
X105370285Y-75404761D02*
X104703619Y-75404761D01*
X105275047Y-75404761D02*
X105322666Y-75452380D01*
X105370285Y-75547619D01*
X105370285Y-75690476D01*
X105322666Y-75785714D01*
X105227428Y-75833333D01*
X104703619Y-75833333D01*
X104798857Y-77642857D02*
X104751238Y-77595238D01*
X104703619Y-77452380D01*
X104703619Y-77357142D01*
X104751238Y-77214285D01*
X104846476Y-77119047D01*
X104941714Y-77071428D01*
X105132190Y-77023809D01*
X105275047Y-77023809D01*
X105465523Y-77071428D01*
X105560761Y-77119047D01*
X105656000Y-77214285D01*
X105703619Y-77357142D01*
X105703619Y-77452380D01*
X105656000Y-77595238D01*
X105608380Y-77642857D01*
X104703619Y-78214285D02*
X104751238Y-78119047D01*
X104798857Y-78071428D01*
X104894095Y-78023809D01*
X105179809Y-78023809D01*
X105275047Y-78071428D01*
X105322666Y-78119047D01*
X105370285Y-78214285D01*
X105370285Y-78357142D01*
X105322666Y-78452380D01*
X105275047Y-78500000D01*
X105179809Y-78547619D01*
X104894095Y-78547619D01*
X104798857Y-78500000D01*
X104751238Y-78452380D01*
X104703619Y-78357142D01*
X104703619Y-78214285D01*
X104703619Y-79119047D02*
X104751238Y-79023809D01*
X104846476Y-78976190D01*
X105703619Y-78976190D01*
X104703619Y-79642857D02*
X104751238Y-79547619D01*
X104846476Y-79500000D01*
X105703619Y-79500000D01*
X104703619Y-80023809D02*
X105370285Y-80023809D01*
X105703619Y-80023809D02*
X105656000Y-79976190D01*
X105608380Y-80023809D01*
X105656000Y-80071428D01*
X105703619Y-80023809D01*
X105608380Y-80023809D01*
X105370285Y-80500000D02*
X104703619Y-80500000D01*
X105275047Y-80500000D02*
X105322666Y-80547619D01*
X105370285Y-80642857D01*
X105370285Y-80785714D01*
X105322666Y-80880952D01*
X105227428Y-80928571D01*
X104703619Y-80928571D01*
X104751238Y-81357142D02*
X104703619Y-81452380D01*
X104703619Y-81642857D01*
X104751238Y-81738095D01*
X104846476Y-81785714D01*
X104894095Y-81785714D01*
X104989333Y-81738095D01*
X105036952Y-81642857D01*
X105036952Y-81500000D01*
X105084571Y-81404761D01*
X105179809Y-81357142D01*
X105227428Y-81357142D01*
X105322666Y-81404761D01*
X105370285Y-81500000D01*
X105370285Y-81642857D01*
X105322666Y-81738095D01*
X103953619Y-71857142D02*
X103239333Y-71857142D01*
X103096476Y-71809523D01*
X103001238Y-71714285D01*
X102953619Y-71571428D01*
X102953619Y-71476190D01*
X102953619Y-72761904D02*
X103477428Y-72761904D01*
X103572666Y-72714285D01*
X103620285Y-72619047D01*
X103620285Y-72428571D01*
X103572666Y-72333333D01*
X103001238Y-72761904D02*
X102953619Y-72666666D01*
X102953619Y-72428571D01*
X103001238Y-72333333D01*
X103096476Y-72285714D01*
X103191714Y-72285714D01*
X103286952Y-72333333D01*
X103334571Y-72428571D01*
X103334571Y-72666666D01*
X103382190Y-72761904D01*
X103620285Y-73238095D02*
X102953619Y-73238095D01*
X103525047Y-73238095D02*
X103572666Y-73285714D01*
X103620285Y-73380952D01*
X103620285Y-73523809D01*
X103572666Y-73619047D01*
X103477428Y-73666666D01*
X102953619Y-73666666D01*
X103620285Y-74571428D02*
X102953619Y-74571428D01*
X103620285Y-74142857D02*
X103096476Y-74142857D01*
X103001238Y-74190476D01*
X102953619Y-74285714D01*
X102953619Y-74428571D01*
X103001238Y-74523809D01*
X103048857Y-74571428D01*
X102953619Y-75476190D02*
X103477428Y-75476190D01*
X103572666Y-75428571D01*
X103620285Y-75333333D01*
X103620285Y-75142857D01*
X103572666Y-75047619D01*
X103001238Y-75476190D02*
X102953619Y-75380952D01*
X102953619Y-75142857D01*
X103001238Y-75047619D01*
X103096476Y-75000000D01*
X103191714Y-75000000D01*
X103286952Y-75047619D01*
X103334571Y-75142857D01*
X103334571Y-75380952D01*
X103382190Y-75476190D01*
X102953619Y-75952380D02*
X103620285Y-75952380D01*
X103429809Y-75952380D02*
X103525047Y-76000000D01*
X103572666Y-76047619D01*
X103620285Y-76142857D01*
X103620285Y-76238095D01*
X103620285Y-76476190D02*
X102953619Y-76714285D01*
X103620285Y-76952380D02*
X102953619Y-76714285D01*
X102715523Y-76619047D01*
X102667904Y-76571428D01*
X102620285Y-76476190D01*
X103858380Y-78047619D02*
X103906000Y-78095238D01*
X103953619Y-78190476D01*
X103953619Y-78428571D01*
X103906000Y-78523809D01*
X103858380Y-78571428D01*
X103763142Y-78619047D01*
X103667904Y-78619047D01*
X103525047Y-78571428D01*
X102953619Y-78000000D01*
X102953619Y-78619047D01*
X103953619Y-79238095D02*
X103953619Y-79333333D01*
X103906000Y-79428571D01*
X103858380Y-79476190D01*
X103763142Y-79523809D01*
X103572666Y-79571428D01*
X103334571Y-79571428D01*
X103144095Y-79523809D01*
X103048857Y-79476190D01*
X103001238Y-79428571D01*
X102953619Y-79333333D01*
X102953619Y-79238095D01*
X103001238Y-79142857D01*
X103048857Y-79095238D01*
X103144095Y-79047619D01*
X103334571Y-79000000D01*
X103572666Y-79000000D01*
X103763142Y-79047619D01*
X103858380Y-79095238D01*
X103906000Y-79142857D01*
X103953619Y-79238095D01*
X103858380Y-79952380D02*
X103906000Y-80000000D01*
X103953619Y-80095238D01*
X103953619Y-80333333D01*
X103906000Y-80428571D01*
X103858380Y-80476190D01*
X103763142Y-80523809D01*
X103667904Y-80523809D01*
X103525047Y-80476190D01*
X102953619Y-79904761D01*
X102953619Y-80523809D01*
X103953619Y-81142857D02*
X103953619Y-81238095D01*
X103906000Y-81333333D01*
X103858380Y-81380952D01*
X103763142Y-81428571D01*
X103572666Y-81476190D01*
X103334571Y-81476190D01*
X103144095Y-81428571D01*
X103048857Y-81380952D01*
X103001238Y-81333333D01*
X102953619Y-81238095D01*
X102953619Y-81142857D01*
X103001238Y-81047619D01*
X103048857Y-81000000D01*
X103144095Y-80952380D01*
X103334571Y-80904761D01*
X103572666Y-80904761D01*
X103763142Y-80952380D01*
X103858380Y-81000000D01*
X103906000Y-81047619D01*
X103953619Y-81142857D01*
D12*
X169177000Y-72910700D02*
X169177000Y-47726600D01*
X169177000Y-72910700D02*
X189497000Y-72915780D01*
X189497000Y-47726600D02*
X169177000Y-47726600D01*
X189497000Y-72910700D02*
X189497000Y-47726600D01*
X133096000Y-72910700D02*
X133096000Y-47726600D01*
X133096000Y-72910700D02*
X153416000Y-72915780D01*
X153416000Y-47726600D02*
X133096000Y-47726600D01*
X153416000Y-72910700D02*
X153416000Y-47726600D01*
D13*
X107688000Y-33164000D02*
X111928000Y-33164000D01*
X107688000Y-43164000D02*
X111928000Y-43164000D01*
X111928000Y-43164000D02*
X111928000Y-33164000D01*
X107688000Y-43164000D02*
X107688000Y-33164000D01*
X106188000Y-43164000D02*
X113428000Y-43164000D01*
X106188000Y-48164000D02*
X113428000Y-48164000D01*
X113428000Y-48164000D02*
X113428000Y-43164000D01*
X106188000Y-48164000D02*
X106188000Y-43164000D01*
X101688000Y-48164000D02*
X117928000Y-48164000D01*
X101688000Y-55904000D02*
X117928000Y-55904000D01*
X117928000Y-55904000D02*
X117928000Y-48164000D01*
X101688000Y-55904000D02*
X101688000Y-48164000D01*
X166490000Y-90932000D02*
G75*
G03X166490000Y-90932000I-3930000J0D01*
G01*
X177412000Y-76747000D02*
X177412000Y-77062000D01*
X177412000Y-74322000D02*
X177412000Y-74637000D01*
X172172000Y-76747000D02*
X172172000Y-77062000D01*
X172172000Y-74322000D02*
X172172000Y-74637000D01*
X172172000Y-77062000D02*
X177412000Y-77062000D01*
X172172000Y-74322000D02*
X177412000Y-74322000D01*
X170492000Y-77580000D02*
X170492000Y-80420000D01*
X170492000Y-80420000D02*
X173932000Y-80420000D01*
X173932000Y-80420000D02*
X173932000Y-77580000D01*
X173932000Y-77580000D02*
X170492000Y-77580000D01*
X168372000Y-79000000D02*
X170492000Y-79000000D01*
X176052000Y-79000000D02*
X173932000Y-79000000D01*
X171092000Y-77580000D02*
X171092000Y-80420000D01*
X171212000Y-77580000D02*
X171212000Y-80420000D01*
X170972000Y-77580000D02*
X170972000Y-80420000D01*
X195048000Y-87376000D02*
X194278000Y-87376000D01*
X186968000Y-87376000D02*
X187738000Y-87376000D01*
X194278000Y-86006000D02*
X187738000Y-86006000D01*
X194278000Y-88746000D02*
X194278000Y-86006000D01*
X187738000Y-88746000D02*
X194278000Y-88746000D01*
X187738000Y-86006000D02*
X187738000Y-88746000D01*
X128870000Y-60620000D02*
X118630000Y-60620000D01*
X128870000Y-57380000D02*
X118630000Y-57380000D01*
X128870000Y-60620000D02*
X128870000Y-57380000D01*
X118630000Y-60620000D02*
X118630000Y-57380000D01*
X138346000Y-81788000D02*
G75*
G03X138346000Y-81788000I-9120000J0D01*
G01*
X129226000Y-72707000D02*
X129226000Y-90869000D01*
X129266000Y-72708000D02*
X129266000Y-90868000D01*
X129306000Y-72708000D02*
X129306000Y-90868000D01*
X129346000Y-72708000D02*
X129346000Y-90868000D01*
X129386000Y-72709000D02*
X129386000Y-90867000D01*
X129426000Y-72710000D02*
X129426000Y-90866000D01*
X129466000Y-72711000D02*
X129466000Y-90865000D01*
X129506000Y-72712000D02*
X129506000Y-90864000D01*
X129546000Y-72713000D02*
X129546000Y-90863000D01*
X129586000Y-72715000D02*
X129586000Y-90861000D01*
X129626000Y-72716000D02*
X129626000Y-90860000D01*
X129666000Y-72718000D02*
X129666000Y-90858000D01*
X129706000Y-72720000D02*
X129706000Y-90856000D01*
X129746000Y-72722000D02*
X129746000Y-90854000D01*
X129786000Y-72725000D02*
X129786000Y-90851000D01*
X129826000Y-72727000D02*
X129826000Y-90849000D01*
X129866000Y-72730000D02*
X129866000Y-90846000D01*
X129906000Y-72733000D02*
X129906000Y-90843000D01*
X129947000Y-72736000D02*
X129947000Y-90840000D01*
X129987000Y-72739000D02*
X129987000Y-90837000D01*
X130027000Y-72743000D02*
X130027000Y-90833000D01*
X130067000Y-72746000D02*
X130067000Y-90830000D01*
X130107000Y-72750000D02*
X130107000Y-90826000D01*
X130147000Y-72754000D02*
X130147000Y-90822000D01*
X130187000Y-72758000D02*
X130187000Y-90818000D01*
X130227000Y-72762000D02*
X130227000Y-90814000D01*
X130267000Y-72767000D02*
X130267000Y-90809000D01*
X130307000Y-72772000D02*
X130307000Y-90804000D01*
X130347000Y-72777000D02*
X130347000Y-90799000D01*
X130387000Y-72782000D02*
X130387000Y-90794000D01*
X130427000Y-72787000D02*
X130427000Y-90789000D01*
X130467000Y-72792000D02*
X130467000Y-90784000D01*
X130507000Y-72798000D02*
X130507000Y-90778000D01*
X130547000Y-72804000D02*
X130547000Y-90772000D01*
X130587000Y-72809000D02*
X130587000Y-90767000D01*
X130627000Y-72816000D02*
X130627000Y-90760000D01*
X130667000Y-72822000D02*
X130667000Y-90754000D01*
X130707000Y-72828000D02*
X130707000Y-90748000D01*
X130747000Y-72835000D02*
X130747000Y-90741000D01*
X130787000Y-72842000D02*
X130787000Y-90734000D01*
X130827000Y-72849000D02*
X130827000Y-90727000D01*
X130867000Y-72856000D02*
X130867000Y-90720000D01*
X130907000Y-72864000D02*
X130907000Y-90712000D01*
X130947000Y-72871000D02*
X130947000Y-90705000D01*
X130987000Y-72879000D02*
X130987000Y-90697000D01*
X131027000Y-72887000D02*
X131027000Y-90689000D01*
X131067000Y-72895000D02*
X131067000Y-90681000D01*
X131107000Y-72903000D02*
X131107000Y-90673000D01*
X131147000Y-72912000D02*
X131147000Y-90664000D01*
X131187000Y-72921000D02*
X131187000Y-90655000D01*
X131227000Y-72930000D02*
X131227000Y-90646000D01*
X131267000Y-72939000D02*
X131267000Y-90637000D01*
X131307000Y-72948000D02*
X131307000Y-90628000D01*
X131347000Y-72957000D02*
X131347000Y-90619000D01*
X131387000Y-72967000D02*
X131387000Y-90609000D01*
X131427000Y-72977000D02*
X131427000Y-90599000D01*
X131467000Y-72987000D02*
X131467000Y-90589000D01*
X131507000Y-72997000D02*
X131507000Y-90579000D01*
X131547000Y-73008000D02*
X131547000Y-80348000D01*
X131547000Y-83228000D02*
X131547000Y-90568000D01*
X131587000Y-73018000D02*
X131587000Y-80348000D01*
X131587000Y-83228000D02*
X131587000Y-90558000D01*
X131627000Y-73029000D02*
X131627000Y-80348000D01*
X131627000Y-83228000D02*
X131627000Y-90547000D01*
X131667000Y-73040000D02*
X131667000Y-80348000D01*
X131667000Y-83228000D02*
X131667000Y-90536000D01*
X131707000Y-73051000D02*
X131707000Y-80348000D01*
X131707000Y-83228000D02*
X131707000Y-90525000D01*
X131747000Y-73063000D02*
X131747000Y-80348000D01*
X131747000Y-83228000D02*
X131747000Y-90513000D01*
X131787000Y-73074000D02*
X131787000Y-80348000D01*
X131787000Y-83228000D02*
X131787000Y-90502000D01*
X131827000Y-73086000D02*
X131827000Y-80348000D01*
X131827000Y-83228000D02*
X131827000Y-90490000D01*
X131867000Y-73098000D02*
X131867000Y-80348000D01*
X131867000Y-83228000D02*
X131867000Y-90478000D01*
X131907000Y-73110000D02*
X131907000Y-80348000D01*
X131907000Y-83228000D02*
X131907000Y-90466000D01*
X131947000Y-73123000D02*
X131947000Y-80348000D01*
X131947000Y-83228000D02*
X131947000Y-90453000D01*
X131987000Y-73135000D02*
X131987000Y-80348000D01*
X131987000Y-83228000D02*
X131987000Y-90441000D01*
X132027000Y-73148000D02*
X132027000Y-80348000D01*
X132027000Y-83228000D02*
X132027000Y-90428000D01*
X132067000Y-73161000D02*
X132067000Y-80348000D01*
X132067000Y-83228000D02*
X132067000Y-90415000D01*
X132107000Y-73174000D02*
X132107000Y-80348000D01*
X132107000Y-83228000D02*
X132107000Y-90402000D01*
X132147000Y-73188000D02*
X132147000Y-80348000D01*
X132147000Y-83228000D02*
X132147000Y-90388000D01*
X132187000Y-73201000D02*
X132187000Y-80348000D01*
X132187000Y-83228000D02*
X132187000Y-90375000D01*
X132227000Y-73215000D02*
X132227000Y-80348000D01*
X132227000Y-83228000D02*
X132227000Y-90361000D01*
X132267000Y-73229000D02*
X132267000Y-80348000D01*
X132267000Y-83228000D02*
X132267000Y-90347000D01*
X132307000Y-73243000D02*
X132307000Y-80348000D01*
X132307000Y-83228000D02*
X132307000Y-90333000D01*
X132347000Y-73258000D02*
X132347000Y-80348000D01*
X132347000Y-83228000D02*
X132347000Y-90318000D01*
X132387000Y-73272000D02*
X132387000Y-80348000D01*
X132387000Y-83228000D02*
X132387000Y-90304000D01*
X132427000Y-73287000D02*
X132427000Y-80348000D01*
X132427000Y-83228000D02*
X132427000Y-90289000D01*
X132467000Y-73302000D02*
X132467000Y-80348000D01*
X132467000Y-83228000D02*
X132467000Y-90274000D01*
X132507000Y-73318000D02*
X132507000Y-80348000D01*
X132507000Y-83228000D02*
X132507000Y-90258000D01*
X132547000Y-73333000D02*
X132547000Y-80348000D01*
X132547000Y-83228000D02*
X132547000Y-90243000D01*
X132587000Y-73349000D02*
X132587000Y-80348000D01*
X132587000Y-83228000D02*
X132587000Y-90227000D01*
X132627000Y-73365000D02*
X132627000Y-80348000D01*
X132627000Y-83228000D02*
X132627000Y-90211000D01*
X132667000Y-73381000D02*
X132667000Y-80348000D01*
X132667000Y-83228000D02*
X132667000Y-90195000D01*
X132707000Y-73398000D02*
X132707000Y-80348000D01*
X132707000Y-83228000D02*
X132707000Y-90178000D01*
X132747000Y-73414000D02*
X132747000Y-80348000D01*
X132747000Y-83228000D02*
X132747000Y-90162000D01*
X132787000Y-73431000D02*
X132787000Y-80348000D01*
X132787000Y-83228000D02*
X132787000Y-90145000D01*
X132827000Y-73448000D02*
X132827000Y-80348000D01*
X132827000Y-83228000D02*
X132827000Y-90128000D01*
X132867000Y-73465000D02*
X132867000Y-80348000D01*
X132867000Y-83228000D02*
X132867000Y-90111000D01*
X132907000Y-73483000D02*
X132907000Y-80348000D01*
X132907000Y-83228000D02*
X132907000Y-90093000D01*
X132947000Y-73501000D02*
X132947000Y-80348000D01*
X132947000Y-83228000D02*
X132947000Y-90075000D01*
X132987000Y-73519000D02*
X132987000Y-80348000D01*
X132987000Y-83228000D02*
X132987000Y-90057000D01*
X133027000Y-73537000D02*
X133027000Y-80348000D01*
X133027000Y-83228000D02*
X133027000Y-90039000D01*
X133067000Y-73555000D02*
X133067000Y-80348000D01*
X133067000Y-83228000D02*
X133067000Y-90021000D01*
X133107000Y-73574000D02*
X133107000Y-80348000D01*
X133107000Y-83228000D02*
X133107000Y-90002000D01*
X133147000Y-73593000D02*
X133147000Y-80348000D01*
X133147000Y-83228000D02*
X133147000Y-89983000D01*
X133187000Y-73612000D02*
X133187000Y-80348000D01*
X133187000Y-83228000D02*
X133187000Y-89964000D01*
X133227000Y-73632000D02*
X133227000Y-80348000D01*
X133227000Y-83228000D02*
X133227000Y-89944000D01*
X133267000Y-73651000D02*
X133267000Y-80348000D01*
X133267000Y-83228000D02*
X133267000Y-89925000D01*
X133307000Y-73671000D02*
X133307000Y-80348000D01*
X133307000Y-83228000D02*
X133307000Y-89905000D01*
X133347000Y-73691000D02*
X133347000Y-80348000D01*
X133347000Y-83228000D02*
X133347000Y-89885000D01*
X133387000Y-73712000D02*
X133387000Y-80348000D01*
X133387000Y-83228000D02*
X133387000Y-89864000D01*
X133427000Y-73732000D02*
X133427000Y-80348000D01*
X133427000Y-83228000D02*
X133427000Y-89844000D01*
X133467000Y-73753000D02*
X133467000Y-80348000D01*
X133467000Y-83228000D02*
X133467000Y-89823000D01*
X133507000Y-73774000D02*
X133507000Y-80348000D01*
X133507000Y-83228000D02*
X133507000Y-89802000D01*
X133547000Y-73796000D02*
X133547000Y-80348000D01*
X133547000Y-83228000D02*
X133547000Y-89780000D01*
X133587000Y-73817000D02*
X133587000Y-80348000D01*
X133587000Y-83228000D02*
X133587000Y-89759000D01*
X133627000Y-73839000D02*
X133627000Y-80348000D01*
X133627000Y-83228000D02*
X133627000Y-89737000D01*
X133667000Y-73861000D02*
X133667000Y-80348000D01*
X133667000Y-83228000D02*
X133667000Y-89715000D01*
X133707000Y-73884000D02*
X133707000Y-80348000D01*
X133707000Y-83228000D02*
X133707000Y-89692000D01*
X133747000Y-73906000D02*
X133747000Y-80348000D01*
X133747000Y-83228000D02*
X133747000Y-89670000D01*
X133787000Y-73929000D02*
X133787000Y-80348000D01*
X133787000Y-83228000D02*
X133787000Y-89647000D01*
X133827000Y-73953000D02*
X133827000Y-80348000D01*
X133827000Y-83228000D02*
X133827000Y-89623000D01*
X133867000Y-73976000D02*
X133867000Y-80348000D01*
X133867000Y-83228000D02*
X133867000Y-89600000D01*
X133907000Y-74000000D02*
X133907000Y-80348000D01*
X133907000Y-83228000D02*
X133907000Y-89576000D01*
X133947000Y-74024000D02*
X133947000Y-80348000D01*
X133947000Y-83228000D02*
X133947000Y-89552000D01*
X133987000Y-74048000D02*
X133987000Y-80348000D01*
X133987000Y-83228000D02*
X133987000Y-89528000D01*
X134027000Y-74073000D02*
X134027000Y-80348000D01*
X134027000Y-83228000D02*
X134027000Y-89503000D01*
X134067000Y-74098000D02*
X134067000Y-80348000D01*
X134067000Y-83228000D02*
X134067000Y-89478000D01*
X134107000Y-74123000D02*
X134107000Y-80348000D01*
X134107000Y-83228000D02*
X134107000Y-89453000D01*
X134147000Y-74148000D02*
X134147000Y-80348000D01*
X134147000Y-83228000D02*
X134147000Y-89428000D01*
X134187000Y-74174000D02*
X134187000Y-80348000D01*
X134187000Y-83228000D02*
X134187000Y-89402000D01*
X134227000Y-74200000D02*
X134227000Y-80348000D01*
X134227000Y-83228000D02*
X134227000Y-89376000D01*
X134267000Y-74227000D02*
X134267000Y-80348000D01*
X134267000Y-83228000D02*
X134267000Y-89349000D01*
X134307000Y-74253000D02*
X134307000Y-80348000D01*
X134307000Y-83228000D02*
X134307000Y-89323000D01*
X134347000Y-74280000D02*
X134347000Y-80348000D01*
X134347000Y-83228000D02*
X134347000Y-89296000D01*
X134387000Y-74308000D02*
X134387000Y-80348000D01*
X134387000Y-83228000D02*
X134387000Y-89268000D01*
X134427000Y-74335000D02*
X134427000Y-89241000D01*
X134467000Y-74363000D02*
X134467000Y-89213000D01*
X134507000Y-74391000D02*
X134507000Y-89185000D01*
X134547000Y-74420000D02*
X134547000Y-89156000D01*
X134587000Y-74449000D02*
X134587000Y-89127000D01*
X134627000Y-74478000D02*
X134627000Y-89098000D01*
X134667000Y-74508000D02*
X134667000Y-89068000D01*
X134707000Y-74538000D02*
X134707000Y-89038000D01*
X134747000Y-74568000D02*
X134747000Y-89008000D01*
X134787000Y-74598000D02*
X134787000Y-88978000D01*
X134827000Y-74629000D02*
X134827000Y-88947000D01*
X134867000Y-74661000D02*
X134867000Y-88915000D01*
X134907000Y-74692000D02*
X134907000Y-88884000D01*
X134947000Y-74724000D02*
X134947000Y-88852000D01*
X134987000Y-74757000D02*
X134987000Y-88819000D01*
X135027000Y-74789000D02*
X135027000Y-88787000D01*
X135067000Y-74823000D02*
X135067000Y-88753000D01*
X135107000Y-74856000D02*
X135107000Y-88720000D01*
X135147000Y-74890000D02*
X135147000Y-88686000D01*
X135187000Y-74924000D02*
X135187000Y-88652000D01*
X135227000Y-74959000D02*
X135227000Y-88617000D01*
X135267000Y-74994000D02*
X135267000Y-88582000D01*
X135307000Y-75030000D02*
X135307000Y-88546000D01*
X135347000Y-75066000D02*
X135347000Y-88510000D01*
X135387000Y-75102000D02*
X135387000Y-88474000D01*
X135427000Y-75139000D02*
X135427000Y-88437000D01*
X135467000Y-75176000D02*
X135467000Y-88400000D01*
X135507000Y-75214000D02*
X135507000Y-88362000D01*
X135547000Y-75252000D02*
X135547000Y-88324000D01*
X135587000Y-75291000D02*
X135587000Y-88285000D01*
X135627000Y-75330000D02*
X135627000Y-88246000D01*
X135667000Y-75370000D02*
X135667000Y-88206000D01*
X135707000Y-75410000D02*
X135707000Y-88166000D01*
X135747000Y-75451000D02*
X135747000Y-88125000D01*
X135787000Y-75492000D02*
X135787000Y-88084000D01*
X135827000Y-75534000D02*
X135827000Y-88042000D01*
X135867000Y-75576000D02*
X135867000Y-88000000D01*
X135907000Y-75618000D02*
X135907000Y-87958000D01*
X135947000Y-75662000D02*
X135947000Y-87914000D01*
X135987000Y-75706000D02*
X135987000Y-87870000D01*
X136027000Y-75750000D02*
X136027000Y-87826000D01*
X136067000Y-75795000D02*
X136067000Y-87781000D01*
X136107000Y-75841000D02*
X136107000Y-87735000D01*
X136147000Y-75887000D02*
X136147000Y-87689000D01*
X136187000Y-75934000D02*
X136187000Y-87642000D01*
X136227000Y-75982000D02*
X136227000Y-87594000D01*
X136267000Y-76030000D02*
X136267000Y-87546000D01*
X136307000Y-76079000D02*
X136307000Y-87497000D01*
X136347000Y-76128000D02*
X136347000Y-87448000D01*
X136387000Y-76179000D02*
X136387000Y-87397000D01*
X136427000Y-76230000D02*
X136427000Y-87346000D01*
X136467000Y-76282000D02*
X136467000Y-87294000D01*
X136507000Y-76334000D02*
X136507000Y-87242000D01*
X136547000Y-76388000D02*
X136547000Y-87188000D01*
X136587000Y-76442000D02*
X136587000Y-87134000D01*
X136627000Y-76497000D02*
X136627000Y-87079000D01*
X136667000Y-76553000D02*
X136667000Y-87023000D01*
X136707000Y-76610000D02*
X136707000Y-86966000D01*
X136747000Y-76668000D02*
X136747000Y-86908000D01*
X136787000Y-76726000D02*
X136787000Y-86850000D01*
X136827000Y-76786000D02*
X136827000Y-86790000D01*
X136867000Y-76847000D02*
X136867000Y-86729000D01*
X136907000Y-76909000D02*
X136907000Y-86667000D01*
X136947000Y-76972000D02*
X136947000Y-86604000D01*
X136987000Y-77036000D02*
X136987000Y-86540000D01*
X137027000Y-77102000D02*
X137027000Y-86474000D01*
X137067000Y-77168000D02*
X137067000Y-86408000D01*
X137107000Y-77236000D02*
X137107000Y-86340000D01*
X137147000Y-77306000D02*
X137147000Y-86270000D01*
X137187000Y-77376000D02*
X137187000Y-86200000D01*
X137227000Y-77449000D02*
X137227000Y-86127000D01*
X137267000Y-77523000D02*
X137267000Y-86053000D01*
X137307000Y-77598000D02*
X137307000Y-85978000D01*
X137347000Y-77675000D02*
X137347000Y-85901000D01*
X137387000Y-77755000D02*
X137387000Y-85821000D01*
X137426000Y-77836000D02*
X137426000Y-85740000D01*
X137466000Y-77919000D02*
X137466000Y-85657000D01*
X137506000Y-78004000D02*
X137506000Y-85572000D01*
X137546000Y-78092000D02*
X137546000Y-85484000D01*
X137586000Y-78183000D02*
X137586000Y-85393000D01*
X137626000Y-78276000D02*
X137626000Y-85300000D01*
X137666000Y-78372000D02*
X137666000Y-85204000D01*
X137706000Y-78471000D02*
X137706000Y-85105000D01*
X137746000Y-78574000D02*
X137746000Y-85002000D01*
X137786000Y-78681000D02*
X137786000Y-84895000D01*
X137826000Y-78792000D02*
X137826000Y-84784000D01*
X137866000Y-78908000D02*
X137866000Y-84668000D01*
X137906000Y-79029000D02*
X137906000Y-84547000D01*
X137946000Y-79156000D02*
X137946000Y-84420000D01*
X137986000Y-79290000D02*
X137986000Y-84286000D01*
X138026000Y-79433000D02*
X138026000Y-84143000D01*
X138066000Y-79585000D02*
X138066000Y-83991000D01*
X138106000Y-79749000D02*
X138106000Y-83827000D01*
X138146000Y-79928000D02*
X138146000Y-83648000D01*
X138186000Y-80127000D02*
X138186000Y-83449000D01*
X138226000Y-80353000D02*
X138226000Y-83223000D01*
X138266000Y-80622000D02*
X138266000Y-82954000D01*
X138306000Y-80974000D02*
X138306000Y-82602000D01*
X138346000Y-81748000D02*
X138346000Y-81828000D01*
X119466560Y-76673000D02*
X121266560Y-76673000D01*
X120366560Y-75773000D02*
X120366560Y-77573000D01*
X108978353Y-89290155D02*
G75*
G03X110478000Y-89290000I749647J1700155D01*
G01*
X103898353Y-89290155D02*
G75*
G03X105398000Y-89290000I749647J1700155D01*
G01*
X112348000Y-95870000D02*
X112348000Y-88460000D01*
X112348000Y-88460000D02*
X102028000Y-88460000D01*
X102028000Y-88460000D02*
X102028000Y-95870000D01*
X102028000Y-95870000D02*
X112348000Y-95870000D01*
X110478000Y-89290000D02*
X111228000Y-89290000D01*
X111228000Y-89290000D02*
X111228000Y-93590000D01*
X111228000Y-93590000D02*
X110478000Y-93590000D01*
X110478000Y-93590000D02*
X110478000Y-93940000D01*
X110478000Y-93940000D02*
X110978000Y-93940000D01*
X110978000Y-93940000D02*
X111228000Y-94940000D01*
X111228000Y-94940000D02*
X108228000Y-94940000D01*
X108228000Y-94940000D02*
X108478000Y-93940000D01*
X108478000Y-93940000D02*
X108978000Y-93940000D01*
X108978000Y-93940000D02*
X108978000Y-93590000D01*
X108978000Y-93590000D02*
X108228000Y-93590000D01*
X108228000Y-93590000D02*
X108228000Y-89290000D01*
X108228000Y-89290000D02*
X108978000Y-89290000D01*
X105398000Y-89290000D02*
X106148000Y-89290000D01*
X106148000Y-89290000D02*
X106148000Y-93590000D01*
X106148000Y-93590000D02*
X105398000Y-93590000D01*
X105398000Y-93590000D02*
X105398000Y-93940000D01*
X105398000Y-93940000D02*
X105898000Y-93940000D01*
X105898000Y-93940000D02*
X106148000Y-94940000D01*
X106148000Y-94940000D02*
X103148000Y-94940000D01*
X103148000Y-94940000D02*
X103398000Y-93940000D01*
X103398000Y-93940000D02*
X103898000Y-93940000D01*
X103898000Y-93940000D02*
X103898000Y-93590000D01*
X103898000Y-93590000D02*
X103148000Y-93590000D01*
X103148000Y-93590000D02*
X103148000Y-89290000D01*
X103148000Y-89290000D02*
X103898000Y-89290000D01*
X112768000Y-95040000D02*
X112768000Y-96290000D01*
X112768000Y-96290000D02*
X110768000Y-96290000D01*
X149852000Y-96290000D02*
X147852000Y-96290000D01*
X149852000Y-95040000D02*
X149852000Y-96290000D01*
X140232000Y-89290000D02*
X140982000Y-89290000D01*
X140232000Y-93590000D02*
X140232000Y-89290000D01*
X140982000Y-93590000D02*
X140232000Y-93590000D01*
X140982000Y-93940000D02*
X140982000Y-93590000D01*
X140482000Y-93940000D02*
X140982000Y-93940000D01*
X140232000Y-94940000D02*
X140482000Y-93940000D01*
X143232000Y-94940000D02*
X140232000Y-94940000D01*
X142982000Y-93940000D02*
X143232000Y-94940000D01*
X142482000Y-93940000D02*
X142982000Y-93940000D01*
X142482000Y-93590000D02*
X142482000Y-93940000D01*
X143232000Y-93590000D02*
X142482000Y-93590000D01*
X143232000Y-89290000D02*
X143232000Y-93590000D01*
X142482000Y-89290000D02*
X143232000Y-89290000D01*
X145312000Y-89290000D02*
X146062000Y-89290000D01*
X145312000Y-93590000D02*
X145312000Y-89290000D01*
X146062000Y-93590000D02*
X145312000Y-93590000D01*
X146062000Y-93940000D02*
X146062000Y-93590000D01*
X145562000Y-93940000D02*
X146062000Y-93940000D01*
X145312000Y-94940000D02*
X145562000Y-93940000D01*
X148312000Y-94940000D02*
X145312000Y-94940000D01*
X148062000Y-93940000D02*
X148312000Y-94940000D01*
X147562000Y-93940000D02*
X148062000Y-93940000D01*
X147562000Y-93590000D02*
X147562000Y-93940000D01*
X148312000Y-93590000D02*
X147562000Y-93590000D01*
X148312000Y-89290000D02*
X148312000Y-93590000D01*
X147562000Y-89290000D02*
X148312000Y-89290000D01*
X139112000Y-95870000D02*
X149432000Y-95870000D01*
X139112000Y-88460000D02*
X139112000Y-95870000D01*
X149432000Y-88460000D02*
X139112000Y-88460000D01*
X149432000Y-95870000D02*
X149432000Y-88460000D01*
X140982353Y-89290155D02*
G75*
G03X142482000Y-89290000I749647J1700155D01*
G01*
X146062353Y-89290155D02*
G75*
G03X147562000Y-89290000I749647J1700155D01*
G01*
X117722000Y-79756000D02*
G75*
G03X117722000Y-79756000I-3930000J0D01*
G01*
X128072000Y-52750000D02*
G75*
G03X128072000Y-52750000I-4120000J0D01*
G01*
X119872000Y-52750000D02*
X128032000Y-52750000D01*
X119872000Y-52710000D02*
X128032000Y-52710000D01*
X119872000Y-52670000D02*
X128032000Y-52670000D01*
X119873000Y-52630000D02*
X128031000Y-52630000D01*
X119875000Y-52590000D02*
X128029000Y-52590000D01*
X119876000Y-52550000D02*
X128028000Y-52550000D01*
X119878000Y-52510000D02*
X128026000Y-52510000D01*
X119881000Y-52470000D02*
X128023000Y-52470000D01*
X119884000Y-52430000D02*
X128020000Y-52430000D01*
X119887000Y-52390000D02*
X128017000Y-52390000D01*
X119891000Y-52350000D02*
X128013000Y-52350000D01*
X119895000Y-52310000D02*
X128009000Y-52310000D01*
X119900000Y-52270000D02*
X128004000Y-52270000D01*
X119904000Y-52230000D02*
X128000000Y-52230000D01*
X119910000Y-52190000D02*
X127994000Y-52190000D01*
X119915000Y-52150000D02*
X127989000Y-52150000D01*
X119922000Y-52110000D02*
X127982000Y-52110000D01*
X119928000Y-52070000D02*
X127976000Y-52070000D01*
X119935000Y-52029000D02*
X122912000Y-52029000D01*
X124992000Y-52029000D02*
X127969000Y-52029000D01*
X119942000Y-51989000D02*
X122912000Y-51989000D01*
X124992000Y-51989000D02*
X127962000Y-51989000D01*
X119950000Y-51949000D02*
X122912000Y-51949000D01*
X124992000Y-51949000D02*
X127954000Y-51949000D01*
X119958000Y-51909000D02*
X122912000Y-51909000D01*
X124992000Y-51909000D02*
X127946000Y-51909000D01*
X119967000Y-51869000D02*
X122912000Y-51869000D01*
X124992000Y-51869000D02*
X127937000Y-51869000D01*
X119976000Y-51829000D02*
X122912000Y-51829000D01*
X124992000Y-51829000D02*
X127928000Y-51829000D01*
X119985000Y-51789000D02*
X122912000Y-51789000D01*
X124992000Y-51789000D02*
X127919000Y-51789000D01*
X119995000Y-51749000D02*
X122912000Y-51749000D01*
X124992000Y-51749000D02*
X127909000Y-51749000D01*
X120005000Y-51709000D02*
X122912000Y-51709000D01*
X124992000Y-51709000D02*
X127899000Y-51709000D01*
X120016000Y-51669000D02*
X122912000Y-51669000D01*
X124992000Y-51669000D02*
X127888000Y-51669000D01*
X120027000Y-51629000D02*
X122912000Y-51629000D01*
X124992000Y-51629000D02*
X127877000Y-51629000D01*
X120038000Y-51589000D02*
X122912000Y-51589000D01*
X124992000Y-51589000D02*
X127866000Y-51589000D01*
X120050000Y-51549000D02*
X122912000Y-51549000D01*
X124992000Y-51549000D02*
X127854000Y-51549000D01*
X120063000Y-51509000D02*
X122912000Y-51509000D01*
X124992000Y-51509000D02*
X127841000Y-51509000D01*
X120075000Y-51469000D02*
X122912000Y-51469000D01*
X124992000Y-51469000D02*
X127829000Y-51469000D01*
X120089000Y-51429000D02*
X122912000Y-51429000D01*
X124992000Y-51429000D02*
X127815000Y-51429000D01*
X120102000Y-51389000D02*
X122912000Y-51389000D01*
X124992000Y-51389000D02*
X127802000Y-51389000D01*
X120117000Y-51349000D02*
X122912000Y-51349000D01*
X124992000Y-51349000D02*
X127787000Y-51349000D01*
X120131000Y-51309000D02*
X122912000Y-51309000D01*
X124992000Y-51309000D02*
X127773000Y-51309000D01*
X120147000Y-51269000D02*
X122912000Y-51269000D01*
X124992000Y-51269000D02*
X127757000Y-51269000D01*
X120162000Y-51229000D02*
X122912000Y-51229000D01*
X124992000Y-51229000D02*
X127742000Y-51229000D01*
X120178000Y-51189000D02*
X122912000Y-51189000D01*
X124992000Y-51189000D02*
X127726000Y-51189000D01*
X120195000Y-51149000D02*
X122912000Y-51149000D01*
X124992000Y-51149000D02*
X127709000Y-51149000D01*
X120212000Y-51109000D02*
X122912000Y-51109000D01*
X124992000Y-51109000D02*
X127692000Y-51109000D01*
X120230000Y-51069000D02*
X122912000Y-51069000D01*
X124992000Y-51069000D02*
X127674000Y-51069000D01*
X120248000Y-51029000D02*
X122912000Y-51029000D01*
X124992000Y-51029000D02*
X127656000Y-51029000D01*
X120266000Y-50989000D02*
X122912000Y-50989000D01*
X124992000Y-50989000D02*
X127638000Y-50989000D01*
X120286000Y-50949000D02*
X122912000Y-50949000D01*
X124992000Y-50949000D02*
X127618000Y-50949000D01*
X120305000Y-50909000D02*
X122912000Y-50909000D01*
X124992000Y-50909000D02*
X127599000Y-50909000D01*
X120325000Y-50869000D02*
X122912000Y-50869000D01*
X124992000Y-50869000D02*
X127579000Y-50869000D01*
X120346000Y-50829000D02*
X122912000Y-50829000D01*
X124992000Y-50829000D02*
X127558000Y-50829000D01*
X120368000Y-50789000D02*
X122912000Y-50789000D01*
X124992000Y-50789000D02*
X127536000Y-50789000D01*
X120390000Y-50749000D02*
X122912000Y-50749000D01*
X124992000Y-50749000D02*
X127514000Y-50749000D01*
X120412000Y-50709000D02*
X122912000Y-50709000D01*
X124992000Y-50709000D02*
X127492000Y-50709000D01*
X120435000Y-50669000D02*
X122912000Y-50669000D01*
X124992000Y-50669000D02*
X127469000Y-50669000D01*
X120459000Y-50629000D02*
X122912000Y-50629000D01*
X124992000Y-50629000D02*
X127445000Y-50629000D01*
X120483000Y-50589000D02*
X122912000Y-50589000D01*
X124992000Y-50589000D02*
X127421000Y-50589000D01*
X120508000Y-50549000D02*
X122912000Y-50549000D01*
X124992000Y-50549000D02*
X127396000Y-50549000D01*
X120534000Y-50509000D02*
X122912000Y-50509000D01*
X124992000Y-50509000D02*
X127370000Y-50509000D01*
X120560000Y-50469000D02*
X122912000Y-50469000D01*
X124992000Y-50469000D02*
X127344000Y-50469000D01*
X120587000Y-50429000D02*
X122912000Y-50429000D01*
X124992000Y-50429000D02*
X127317000Y-50429000D01*
X120614000Y-50389000D02*
X122912000Y-50389000D01*
X124992000Y-50389000D02*
X127290000Y-50389000D01*
X120643000Y-50349000D02*
X122912000Y-50349000D01*
X124992000Y-50349000D02*
X127261000Y-50349000D01*
X120672000Y-50309000D02*
X122912000Y-50309000D01*
X124992000Y-50309000D02*
X127232000Y-50309000D01*
X120702000Y-50269000D02*
X122912000Y-50269000D01*
X124992000Y-50269000D02*
X127202000Y-50269000D01*
X120732000Y-50229000D02*
X122912000Y-50229000D01*
X124992000Y-50229000D02*
X127172000Y-50229000D01*
X120763000Y-50189000D02*
X122912000Y-50189000D01*
X124992000Y-50189000D02*
X127141000Y-50189000D01*
X120796000Y-50149000D02*
X122912000Y-50149000D01*
X124992000Y-50149000D02*
X127108000Y-50149000D01*
X120828000Y-50109000D02*
X122912000Y-50109000D01*
X124992000Y-50109000D02*
X127076000Y-50109000D01*
X120862000Y-50069000D02*
X122912000Y-50069000D01*
X124992000Y-50069000D02*
X127042000Y-50069000D01*
X120897000Y-50029000D02*
X122912000Y-50029000D01*
X124992000Y-50029000D02*
X127007000Y-50029000D01*
X120933000Y-49989000D02*
X122912000Y-49989000D01*
X124992000Y-49989000D02*
X126971000Y-49989000D01*
X120969000Y-49949000D02*
X126935000Y-49949000D01*
X121007000Y-49909000D02*
X126897000Y-49909000D01*
X121045000Y-49869000D02*
X126859000Y-49869000D01*
X121085000Y-49829000D02*
X126819000Y-49829000D01*
X121126000Y-49789000D02*
X126778000Y-49789000D01*
X121168000Y-49749000D02*
X126736000Y-49749000D01*
X121211000Y-49709000D02*
X126693000Y-49709000D01*
X121255000Y-49669000D02*
X126649000Y-49669000D01*
X121301000Y-49629000D02*
X126603000Y-49629000D01*
X121348000Y-49589000D02*
X126556000Y-49589000D01*
X121396000Y-49549000D02*
X126508000Y-49549000D01*
X121447000Y-49509000D02*
X126457000Y-49509000D01*
X121498000Y-49469000D02*
X126406000Y-49469000D01*
X121552000Y-49429000D02*
X126352000Y-49429000D01*
X121607000Y-49389000D02*
X126297000Y-49389000D01*
X121665000Y-49349000D02*
X126239000Y-49349000D01*
X121724000Y-49309000D02*
X126180000Y-49309000D01*
X121786000Y-49269000D02*
X126118000Y-49269000D01*
X121850000Y-49229000D02*
X126054000Y-49229000D01*
X121918000Y-49189000D02*
X125986000Y-49189000D01*
X121988000Y-49149000D02*
X125916000Y-49149000D01*
X122062000Y-49109000D02*
X125842000Y-49109000D01*
X122139000Y-49069000D02*
X125765000Y-49069000D01*
X122221000Y-49029000D02*
X125683000Y-49029000D01*
X122307000Y-48989000D02*
X125597000Y-48989000D01*
X122400000Y-48949000D02*
X125504000Y-48949000D01*
X122499000Y-48909000D02*
X125405000Y-48909000D01*
X122606000Y-48869000D02*
X125298000Y-48869000D01*
X122723000Y-48829000D02*
X125181000Y-48829000D01*
X122854000Y-48789000D02*
X125050000Y-48789000D01*
X123004000Y-48749000D02*
X124900000Y-48749000D01*
X123184000Y-48709000D02*
X124720000Y-48709000D01*
X123419000Y-48669000D02*
X124485000Y-48669000D01*
X121637000Y-57159698D02*
X121637000Y-56359698D01*
X121237000Y-56759698D02*
X122037000Y-56759698D01*
X154384000Y-77820000D02*
X154384000Y-59580000D01*
X163624000Y-77820000D02*
X163624000Y-59580000D01*
X154384000Y-77820000D02*
X163624000Y-77820000D01*
X154384000Y-59580000D02*
X163624000Y-59580000D01*
X165156000Y-82522000D02*
G75*
G03X165156000Y-82522000I-4120000J0D01*
G01*
X165116000Y-82522000D02*
X156956000Y-82522000D01*
X165116000Y-82562000D02*
X156956000Y-82562000D01*
X165116000Y-82602000D02*
X156956000Y-82602000D01*
X165115000Y-82642000D02*
X156957000Y-82642000D01*
X165113000Y-82682000D02*
X156959000Y-82682000D01*
X165112000Y-82722000D02*
X156960000Y-82722000D01*
X165110000Y-82762000D02*
X156962000Y-82762000D01*
X165107000Y-82802000D02*
X156965000Y-82802000D01*
X165104000Y-82842000D02*
X156968000Y-82842000D01*
X165101000Y-82882000D02*
X156971000Y-82882000D01*
X165097000Y-82922000D02*
X156975000Y-82922000D01*
X165093000Y-82962000D02*
X156979000Y-82962000D01*
X165088000Y-83002000D02*
X156984000Y-83002000D01*
X165084000Y-83042000D02*
X156988000Y-83042000D01*
X165078000Y-83082000D02*
X156994000Y-83082000D01*
X165073000Y-83122000D02*
X156999000Y-83122000D01*
X165066000Y-83162000D02*
X157006000Y-83162000D01*
X165060000Y-83202000D02*
X157012000Y-83202000D01*
X165053000Y-83243000D02*
X162076000Y-83243000D01*
X159996000Y-83243000D02*
X157019000Y-83243000D01*
X165046000Y-83283000D02*
X162076000Y-83283000D01*
X159996000Y-83283000D02*
X157026000Y-83283000D01*
X165038000Y-83323000D02*
X162076000Y-83323000D01*
X159996000Y-83323000D02*
X157034000Y-83323000D01*
X165030000Y-83363000D02*
X162076000Y-83363000D01*
X159996000Y-83363000D02*
X157042000Y-83363000D01*
X165021000Y-83403000D02*
X162076000Y-83403000D01*
X159996000Y-83403000D02*
X157051000Y-83403000D01*
X165012000Y-83443000D02*
X162076000Y-83443000D01*
X159996000Y-83443000D02*
X157060000Y-83443000D01*
X165003000Y-83483000D02*
X162076000Y-83483000D01*
X159996000Y-83483000D02*
X157069000Y-83483000D01*
X164993000Y-83523000D02*
X162076000Y-83523000D01*
X159996000Y-83523000D02*
X157079000Y-83523000D01*
X164983000Y-83563000D02*
X162076000Y-83563000D01*
X159996000Y-83563000D02*
X157089000Y-83563000D01*
X164972000Y-83603000D02*
X162076000Y-83603000D01*
X159996000Y-83603000D02*
X157100000Y-83603000D01*
X164961000Y-83643000D02*
X162076000Y-83643000D01*
X159996000Y-83643000D02*
X157111000Y-83643000D01*
X164950000Y-83683000D02*
X162076000Y-83683000D01*
X159996000Y-83683000D02*
X157122000Y-83683000D01*
X164938000Y-83723000D02*
X162076000Y-83723000D01*
X159996000Y-83723000D02*
X157134000Y-83723000D01*
X164925000Y-83763000D02*
X162076000Y-83763000D01*
X159996000Y-83763000D02*
X157147000Y-83763000D01*
X164913000Y-83803000D02*
X162076000Y-83803000D01*
X159996000Y-83803000D02*
X157159000Y-83803000D01*
X164899000Y-83843000D02*
X162076000Y-83843000D01*
X159996000Y-83843000D02*
X157173000Y-83843000D01*
X164886000Y-83883000D02*
X162076000Y-83883000D01*
X159996000Y-83883000D02*
X157186000Y-83883000D01*
X164871000Y-83923000D02*
X162076000Y-83923000D01*
X159996000Y-83923000D02*
X157201000Y-83923000D01*
X164857000Y-83963000D02*
X162076000Y-83963000D01*
X159996000Y-83963000D02*
X157215000Y-83963000D01*
X164841000Y-84003000D02*
X162076000Y-84003000D01*
X159996000Y-84003000D02*
X157231000Y-84003000D01*
X164826000Y-84043000D02*
X162076000Y-84043000D01*
X159996000Y-84043000D02*
X157246000Y-84043000D01*
X164810000Y-84083000D02*
X162076000Y-84083000D01*
X159996000Y-84083000D02*
X157262000Y-84083000D01*
X164793000Y-84123000D02*
X162076000Y-84123000D01*
X159996000Y-84123000D02*
X157279000Y-84123000D01*
X164776000Y-84163000D02*
X162076000Y-84163000D01*
X159996000Y-84163000D02*
X157296000Y-84163000D01*
X164758000Y-84203000D02*
X162076000Y-84203000D01*
X159996000Y-84203000D02*
X157314000Y-84203000D01*
X164740000Y-84243000D02*
X162076000Y-84243000D01*
X159996000Y-84243000D02*
X157332000Y-84243000D01*
X164722000Y-84283000D02*
X162076000Y-84283000D01*
X159996000Y-84283000D02*
X157350000Y-84283000D01*
X164702000Y-84323000D02*
X162076000Y-84323000D01*
X159996000Y-84323000D02*
X157370000Y-84323000D01*
X164683000Y-84363000D02*
X162076000Y-84363000D01*
X159996000Y-84363000D02*
X157389000Y-84363000D01*
X164663000Y-84403000D02*
X162076000Y-84403000D01*
X159996000Y-84403000D02*
X157409000Y-84403000D01*
X164642000Y-84443000D02*
X162076000Y-84443000D01*
X159996000Y-84443000D02*
X157430000Y-84443000D01*
X164620000Y-84483000D02*
X162076000Y-84483000D01*
X159996000Y-84483000D02*
X157452000Y-84483000D01*
X164598000Y-84523000D02*
X162076000Y-84523000D01*
X159996000Y-84523000D02*
X157474000Y-84523000D01*
X164576000Y-84563000D02*
X162076000Y-84563000D01*
X159996000Y-84563000D02*
X157496000Y-84563000D01*
X164553000Y-84603000D02*
X162076000Y-84603000D01*
X159996000Y-84603000D02*
X157519000Y-84603000D01*
X164529000Y-84643000D02*
X162076000Y-84643000D01*
X159996000Y-84643000D02*
X157543000Y-84643000D01*
X164505000Y-84683000D02*
X162076000Y-84683000D01*
X159996000Y-84683000D02*
X157567000Y-84683000D01*
X164480000Y-84723000D02*
X162076000Y-84723000D01*
X159996000Y-84723000D02*
X157592000Y-84723000D01*
X164454000Y-84763000D02*
X162076000Y-84763000D01*
X159996000Y-84763000D02*
X157618000Y-84763000D01*
X164428000Y-84803000D02*
X162076000Y-84803000D01*
X159996000Y-84803000D02*
X157644000Y-84803000D01*
X164401000Y-84843000D02*
X162076000Y-84843000D01*
X159996000Y-84843000D02*
X157671000Y-84843000D01*
X164374000Y-84883000D02*
X162076000Y-84883000D01*
X159996000Y-84883000D02*
X157698000Y-84883000D01*
X164345000Y-84923000D02*
X162076000Y-84923000D01*
X159996000Y-84923000D02*
X157727000Y-84923000D01*
X164316000Y-84963000D02*
X162076000Y-84963000D01*
X159996000Y-84963000D02*
X157756000Y-84963000D01*
X164286000Y-85003000D02*
X162076000Y-85003000D01*
X159996000Y-85003000D02*
X157786000Y-85003000D01*
X164256000Y-85043000D02*
X162076000Y-85043000D01*
X159996000Y-85043000D02*
X157816000Y-85043000D01*
X164225000Y-85083000D02*
X162076000Y-85083000D01*
X159996000Y-85083000D02*
X157847000Y-85083000D01*
X164192000Y-85123000D02*
X162076000Y-85123000D01*
X159996000Y-85123000D02*
X157880000Y-85123000D01*
X164160000Y-85163000D02*
X162076000Y-85163000D01*
X159996000Y-85163000D02*
X157912000Y-85163000D01*
X164126000Y-85203000D02*
X162076000Y-85203000D01*
X159996000Y-85203000D02*
X157946000Y-85203000D01*
X164091000Y-85243000D02*
X162076000Y-85243000D01*
X159996000Y-85243000D02*
X157981000Y-85243000D01*
X164055000Y-85283000D02*
X162076000Y-85283000D01*
X159996000Y-85283000D02*
X158017000Y-85283000D01*
X164019000Y-85323000D02*
X158053000Y-85323000D01*
X163981000Y-85363000D02*
X158091000Y-85363000D01*
X163943000Y-85403000D02*
X158129000Y-85403000D01*
X163903000Y-85443000D02*
X158169000Y-85443000D01*
X163862000Y-85483000D02*
X158210000Y-85483000D01*
X163820000Y-85523000D02*
X158252000Y-85523000D01*
X163777000Y-85563000D02*
X158295000Y-85563000D01*
X163733000Y-85603000D02*
X158339000Y-85603000D01*
X163687000Y-85643000D02*
X158385000Y-85643000D01*
X163640000Y-85683000D02*
X158432000Y-85683000D01*
X163592000Y-85723000D02*
X158480000Y-85723000D01*
X163541000Y-85763000D02*
X158531000Y-85763000D01*
X163490000Y-85803000D02*
X158582000Y-85803000D01*
X163436000Y-85843000D02*
X158636000Y-85843000D01*
X163381000Y-85883000D02*
X158691000Y-85883000D01*
X163323000Y-85923000D02*
X158749000Y-85923000D01*
X163264000Y-85963000D02*
X158808000Y-85963000D01*
X163202000Y-86003000D02*
X158870000Y-86003000D01*
X163138000Y-86043000D02*
X158934000Y-86043000D01*
X163070000Y-86083000D02*
X159002000Y-86083000D01*
X163000000Y-86123000D02*
X159072000Y-86123000D01*
X162926000Y-86163000D02*
X159146000Y-86163000D01*
X162849000Y-86203000D02*
X159223000Y-86203000D01*
X162767000Y-86243000D02*
X159305000Y-86243000D01*
X162681000Y-86283000D02*
X159391000Y-86283000D01*
X162588000Y-86323000D02*
X159484000Y-86323000D01*
X162489000Y-86363000D02*
X159583000Y-86363000D01*
X162382000Y-86403000D02*
X159690000Y-86403000D01*
X162265000Y-86443000D02*
X159807000Y-86443000D01*
X162134000Y-86483000D02*
X159938000Y-86483000D01*
X161984000Y-86523000D02*
X160088000Y-86523000D01*
X161804000Y-86563000D02*
X160268000Y-86563000D01*
X161569000Y-86603000D02*
X160503000Y-86603000D01*
X163351000Y-78112302D02*
X163351000Y-78912302D01*
X163751000Y-78512302D02*
X162951000Y-78512302D01*
X184308000Y-73572000D02*
X197548000Y-73572000D01*
X184308000Y-77812000D02*
X197548000Y-77812000D01*
X184308000Y-73572000D02*
X184308000Y-77812000D01*
X197548000Y-73572000D02*
X197548000Y-77812000D01*
X115092000Y-65128000D02*
X115092000Y-67968000D01*
X115332000Y-65128000D02*
X115332000Y-67968000D01*
X115212000Y-65128000D02*
X115212000Y-67968000D01*
X120172000Y-66548000D02*
X118052000Y-66548000D01*
X112492000Y-66548000D02*
X114612000Y-66548000D01*
X118052000Y-65128000D02*
X114612000Y-65128000D01*
X118052000Y-67968000D02*
X118052000Y-65128000D01*
X114612000Y-67968000D02*
X118052000Y-67968000D01*
X114612000Y-65128000D02*
X114612000Y-67968000D01*
X114612000Y-68684000D02*
X114612000Y-71524000D01*
X114612000Y-71524000D02*
X118052000Y-71524000D01*
X118052000Y-71524000D02*
X118052000Y-68684000D01*
X118052000Y-68684000D02*
X114612000Y-68684000D01*
X112492000Y-70104000D02*
X114612000Y-70104000D01*
X120172000Y-70104000D02*
X118052000Y-70104000D01*
X115212000Y-68684000D02*
X115212000Y-71524000D01*
X115332000Y-68684000D02*
X115332000Y-71524000D01*
X115092000Y-68684000D02*
X115092000Y-71524000D01*
X170972000Y-80876000D02*
X170972000Y-83716000D01*
X171212000Y-80876000D02*
X171212000Y-83716000D01*
X171092000Y-80876000D02*
X171092000Y-83716000D01*
X176052000Y-82296000D02*
X173932000Y-82296000D01*
X168372000Y-82296000D02*
X170492000Y-82296000D01*
X173932000Y-80876000D02*
X170492000Y-80876000D01*
X173932000Y-83716000D02*
X173932000Y-80876000D01*
X170492000Y-83716000D02*
X173932000Y-83716000D01*
X170492000Y-80876000D02*
X170492000Y-83716000D01*
X129186000Y-58134000D02*
X131926000Y-58134000D01*
X131926000Y-58134000D02*
X131926000Y-51594000D01*
X131926000Y-51594000D02*
X129186000Y-51594000D01*
X129186000Y-51594000D02*
X129186000Y-58134000D01*
X130556000Y-58904000D02*
X130556000Y-58134000D01*
X130556000Y-50824000D02*
X130556000Y-51594000D01*
X111220000Y-59790000D02*
X111220000Y-57050000D01*
X111220000Y-57050000D02*
X104680000Y-57050000D01*
X104680000Y-57050000D02*
X104680000Y-59790000D01*
X104680000Y-59790000D02*
X111220000Y-59790000D01*
X111990000Y-58420000D02*
X111220000Y-58420000D01*
X103910000Y-58420000D02*
X104680000Y-58420000D01*
X104680000Y-60606000D02*
X104680000Y-63346000D01*
X104680000Y-63346000D02*
X111220000Y-63346000D01*
X111220000Y-63346000D02*
X111220000Y-60606000D01*
X111220000Y-60606000D02*
X104680000Y-60606000D01*
X103910000Y-61976000D02*
X104680000Y-61976000D01*
X111990000Y-61976000D02*
X111220000Y-61976000D01*
X112292000Y-73660000D02*
X113062000Y-73660000D01*
X120372000Y-73660000D02*
X119602000Y-73660000D01*
X113062000Y-75030000D02*
X119602000Y-75030000D01*
X113062000Y-72290000D02*
X113062000Y-75030000D01*
X119602000Y-72290000D02*
X113062000Y-72290000D01*
X119602000Y-75030000D02*
X119602000Y-72290000D01*
X170180000Y-94464000D02*
X170180000Y-93694000D01*
X170180000Y-86384000D02*
X170180000Y-87154000D01*
X171550000Y-93694000D02*
X171550000Y-87154000D01*
X168810000Y-93694000D02*
X171550000Y-93694000D01*
X168810000Y-87154000D02*
X168810000Y-93694000D01*
X171550000Y-87154000D02*
X168810000Y-87154000D01*
X187738000Y-89054000D02*
X187738000Y-91794000D01*
X187738000Y-91794000D02*
X194278000Y-91794000D01*
X194278000Y-91794000D02*
X194278000Y-89054000D01*
X194278000Y-89054000D02*
X187738000Y-89054000D01*
X186968000Y-90424000D02*
X187738000Y-90424000D01*
X195048000Y-90424000D02*
X194278000Y-90424000D01*
X195048000Y-93472000D02*
X194278000Y-93472000D01*
X186968000Y-93472000D02*
X187738000Y-93472000D01*
X194278000Y-92102000D02*
X187738000Y-92102000D01*
X194278000Y-94842000D02*
X194278000Y-92102000D01*
X187738000Y-94842000D02*
X194278000Y-94842000D01*
X187738000Y-92102000D02*
X187738000Y-94842000D01*
X177292000Y-86384000D02*
X177292000Y-87154000D01*
X177292000Y-94464000D02*
X177292000Y-93694000D01*
X175922000Y-87154000D02*
X175922000Y-93694000D01*
X178662000Y-87154000D02*
X175922000Y-87154000D01*
X178662000Y-93694000D02*
X178662000Y-87154000D01*
X175922000Y-93694000D02*
X178662000Y-93694000D01*
X154940000Y-94464000D02*
X154940000Y-93694000D01*
X154940000Y-86384000D02*
X154940000Y-87154000D01*
X156310000Y-93694000D02*
X156310000Y-87154000D01*
X153570000Y-93694000D02*
X156310000Y-93694000D01*
X153570000Y-87154000D02*
X153570000Y-93694000D01*
X156310000Y-87154000D02*
X153570000Y-87154000D01*
X175106000Y-87154000D02*
X172366000Y-87154000D01*
X172366000Y-87154000D02*
X172366000Y-93694000D01*
X172366000Y-93694000D02*
X175106000Y-93694000D01*
X175106000Y-93694000D02*
X175106000Y-87154000D01*
X173736000Y-86384000D02*
X173736000Y-87154000D01*
X173736000Y-94464000D02*
X173736000Y-93694000D01*
X131094445Y-68883684D02*
G75*
G03X130066000Y-64606000I-1808445J1827684D01*
G01*
X127474547Y-68898156D02*
G75*
G02X128466000Y-64606000I1811453J1842156D01*
G01*
X127486000Y-68906000D02*
X131086000Y-68906000D01*
X184934000Y-78922000D02*
X181334000Y-78922000D01*
X184945453Y-78929844D02*
G75*
G02X183954000Y-83222000I-1811453J-1842156D01*
G01*
X181325555Y-78944316D02*
G75*
G03X182354000Y-83222000I1808445J-1827684D01*
G01*
D12*
X118750000Y-62500000D02*
G75*
G03X118750000Y-62500000I-1750000J0D01*
G01*
X127226000Y-71000000D02*
G75*
G03X127226000Y-71000000I-1750000J0D01*
G01*
X183614000Y-93472000D02*
G75*
G03X183614000Y-93472000I-1750000J0D01*
G01*
X120114000Y-88392000D02*
G75*
G03X120114000Y-88392000I-1750000J0D01*
G01*
X156250000Y-81280000D02*
G75*
G03X156250000Y-81280000I-1750000J0D01*
G01*
D13*
X198398000Y-51316000D02*
X198398000Y-53316000D01*
X197148000Y-51316000D02*
X198398000Y-51316000D01*
X191398000Y-60936000D02*
X191398000Y-60186000D01*
X195698000Y-60936000D02*
X191398000Y-60936000D01*
X195698000Y-60186000D02*
X195698000Y-60936000D01*
X196048000Y-60186000D02*
X195698000Y-60186000D01*
X196048000Y-60686000D02*
X196048000Y-60186000D01*
X197048000Y-60936000D02*
X196048000Y-60686000D01*
X197048000Y-57936000D02*
X197048000Y-60936000D01*
X196048000Y-58186000D02*
X197048000Y-57936000D01*
X196048000Y-58686000D02*
X196048000Y-58186000D01*
X195698000Y-58686000D02*
X196048000Y-58686000D01*
X195698000Y-57936000D02*
X195698000Y-58686000D01*
X191398000Y-57936000D02*
X195698000Y-57936000D01*
X191398000Y-58686000D02*
X191398000Y-57936000D01*
X191398000Y-55856000D02*
X191398000Y-55106000D01*
X195698000Y-55856000D02*
X191398000Y-55856000D01*
X195698000Y-55106000D02*
X195698000Y-55856000D01*
X196048000Y-55106000D02*
X195698000Y-55106000D01*
X196048000Y-55606000D02*
X196048000Y-55106000D01*
X197048000Y-55856000D02*
X196048000Y-55606000D01*
X197048000Y-52856000D02*
X197048000Y-55856000D01*
X196048000Y-53106000D02*
X197048000Y-52856000D01*
X196048000Y-53606000D02*
X196048000Y-53106000D01*
X195698000Y-53606000D02*
X196048000Y-53606000D01*
X195698000Y-52856000D02*
X195698000Y-53606000D01*
X191398000Y-52856000D02*
X195698000Y-52856000D01*
X191398000Y-53606000D02*
X191398000Y-52856000D01*
X197978000Y-62056000D02*
X197978000Y-51736000D01*
X190568000Y-62056000D02*
X197978000Y-62056000D01*
X190568000Y-51736000D02*
X190568000Y-62056000D01*
X197978000Y-51736000D02*
X190568000Y-51736000D01*
X191398155Y-60185647D02*
G75*
G03X191398000Y-58686000I-1700155J749647D01*
G01*
X191398155Y-55105647D02*
G75*
G03X191398000Y-53606000I-1700155J749647D01*
G01*
X133854000Y-96600000D02*
X133854000Y-91360000D01*
X133854000Y-91360000D02*
X118114000Y-91360000D01*
X118114000Y-91360000D02*
X118114000Y-96600000D01*
X118114000Y-96600000D02*
X133854000Y-96600000D01*
X134704000Y-93980000D02*
X133854000Y-93980000D01*
X117264000Y-93980000D02*
X118114000Y-93980000D01*
X160334000Y-56194000D02*
X159004000Y-56194000D01*
X160334000Y-54864000D02*
X160334000Y-56194000D01*
X160334000Y-53594000D02*
X157674000Y-53594000D01*
X157674000Y-53594000D02*
X157674000Y-48454000D01*
X160334000Y-53594000D02*
X160334000Y-48454000D01*
X160334000Y-48454000D02*
X157674000Y-48454000D01*
X165414000Y-48454000D02*
X162754000Y-48454000D01*
X165414000Y-53594000D02*
X165414000Y-48454000D01*
X162754000Y-53594000D02*
X162754000Y-48454000D01*
X165414000Y-53594000D02*
X162754000Y-53594000D01*
X165414000Y-54864000D02*
X165414000Y-56194000D01*
X165414000Y-56194000D02*
X164084000Y-56194000D01*
X103946000Y-65218000D02*
X103946000Y-66548000D01*
X102616000Y-65218000D02*
X103946000Y-65218000D01*
X101346000Y-65218000D02*
X101346000Y-67878000D01*
X101346000Y-67878000D02*
X101286000Y-67878000D01*
X101346000Y-65218000D02*
X101286000Y-65218000D01*
X101286000Y-65218000D02*
X101286000Y-67878000D01*
X197418000Y-84134000D02*
X197418000Y-81474000D01*
X197358000Y-84134000D02*
X197418000Y-84134000D01*
X197358000Y-81474000D02*
X197418000Y-81474000D01*
X197358000Y-84134000D02*
X197358000Y-81474000D01*
X196088000Y-84134000D02*
X194758000Y-84134000D01*
X194758000Y-84134000D02*
X194758000Y-82804000D01*
D12*
X179003666Y-70572380D02*
X179003666Y-71286666D01*
X178956047Y-71429523D01*
X178860809Y-71524761D01*
X178717952Y-71572380D01*
X178622714Y-71572380D01*
X179384619Y-70572380D02*
X180003666Y-70572380D01*
X179670333Y-70953333D01*
X179813190Y-70953333D01*
X179908428Y-71000952D01*
X179956047Y-71048571D01*
X180003666Y-71143809D01*
X180003666Y-71381904D01*
X179956047Y-71477142D01*
X179908428Y-71524761D01*
X179813190Y-71572380D01*
X179527476Y-71572380D01*
X179432238Y-71524761D01*
X179384619Y-71477142D01*
X142922666Y-70572380D02*
X142922666Y-71286666D01*
X142875047Y-71429523D01*
X142779809Y-71524761D01*
X142636952Y-71572380D01*
X142541714Y-71572380D01*
X143351238Y-70667619D02*
X143398857Y-70620000D01*
X143494095Y-70572380D01*
X143732190Y-70572380D01*
X143827428Y-70620000D01*
X143875047Y-70667619D01*
X143922666Y-70762857D01*
X143922666Y-70858095D01*
X143875047Y-71000952D01*
X143303619Y-71572380D01*
X143922666Y-71572380D01*
X101010380Y-50379238D02*
X100534190Y-50712571D01*
X101010380Y-50950666D02*
X100010380Y-50950666D01*
X100010380Y-50569714D01*
X100058000Y-50474476D01*
X100105619Y-50426857D01*
X100200857Y-50379238D01*
X100343714Y-50379238D01*
X100438952Y-50426857D01*
X100486571Y-50474476D01*
X100534190Y-50569714D01*
X100534190Y-50950666D01*
X100010380Y-50093523D02*
X101010380Y-49760190D01*
X100010380Y-49426857D01*
X100343714Y-48664952D02*
X101010380Y-48664952D01*
X99962761Y-48903047D02*
X100677047Y-49141142D01*
X100677047Y-48522095D01*
X161964761Y-93416380D02*
X161631428Y-92940190D01*
X161393333Y-93416380D02*
X161393333Y-92416380D01*
X161774285Y-92416380D01*
X161869523Y-92464000D01*
X161917142Y-92511619D01*
X161964761Y-92606857D01*
X161964761Y-92749714D01*
X161917142Y-92844952D01*
X161869523Y-92892571D01*
X161774285Y-92940190D01*
X161393333Y-92940190D01*
X162250476Y-92416380D02*
X162583809Y-93416380D01*
X162917142Y-92416380D01*
X163679047Y-92416380D02*
X163488571Y-92416380D01*
X163393333Y-92464000D01*
X163345714Y-92511619D01*
X163250476Y-92654476D01*
X163202857Y-92844952D01*
X163202857Y-93225904D01*
X163250476Y-93321142D01*
X163298095Y-93368761D01*
X163393333Y-93416380D01*
X163583809Y-93416380D01*
X163679047Y-93368761D01*
X163726666Y-93321142D01*
X163774285Y-93225904D01*
X163774285Y-92987809D01*
X163726666Y-92892571D01*
X163679047Y-92844952D01*
X163583809Y-92797333D01*
X163393333Y-92797333D01*
X163298095Y-92844952D01*
X163250476Y-92892571D01*
X163202857Y-92987809D01*
X174189142Y-76049142D02*
X174141523Y-76096761D01*
X173998666Y-76144380D01*
X173903428Y-76144380D01*
X173760571Y-76096761D01*
X173665333Y-76001523D01*
X173617714Y-75906285D01*
X173570095Y-75715809D01*
X173570095Y-75572952D01*
X173617714Y-75382476D01*
X173665333Y-75287238D01*
X173760571Y-75192000D01*
X173903428Y-75144380D01*
X173998666Y-75144380D01*
X174141523Y-75192000D01*
X174189142Y-75239619D01*
X175141523Y-76144380D02*
X174570095Y-76144380D01*
X174855809Y-76144380D02*
X174855809Y-75144380D01*
X174760571Y-75287238D01*
X174665333Y-75382476D01*
X174570095Y-75430095D01*
X175474857Y-75144380D02*
X176093904Y-75144380D01*
X175760571Y-75525333D01*
X175903428Y-75525333D01*
X175998666Y-75572952D01*
X176046285Y-75620571D01*
X176093904Y-75715809D01*
X176093904Y-75953904D01*
X176046285Y-76049142D01*
X175998666Y-76096761D01*
X175903428Y-76144380D01*
X175617714Y-76144380D01*
X175522476Y-76096761D01*
X175474857Y-76049142D01*
X171854904Y-79325380D02*
X171854904Y-78325380D01*
X172093000Y-78325380D01*
X172235857Y-78373000D01*
X172331095Y-78468238D01*
X172378714Y-78563476D01*
X172426333Y-78753952D01*
X172426333Y-78896809D01*
X172378714Y-79087285D01*
X172331095Y-79182523D01*
X172235857Y-79277761D01*
X172093000Y-79325380D01*
X171854904Y-79325380D01*
X173283476Y-78325380D02*
X173093000Y-78325380D01*
X172997761Y-78373000D01*
X172950142Y-78420619D01*
X172854904Y-78563476D01*
X172807285Y-78753952D01*
X172807285Y-79134904D01*
X172854904Y-79230142D01*
X172902523Y-79277761D01*
X172997761Y-79325380D01*
X173188238Y-79325380D01*
X173283476Y-79277761D01*
X173331095Y-79230142D01*
X173378714Y-79134904D01*
X173378714Y-78896809D01*
X173331095Y-78801571D01*
X173283476Y-78753952D01*
X173188238Y-78706333D01*
X172997761Y-78706333D01*
X172902523Y-78753952D01*
X172854904Y-78801571D01*
X172807285Y-78896809D01*
X168775095Y-78309380D02*
X168775095Y-77309380D01*
X169346523Y-78309380D02*
X168917952Y-77737952D01*
X169346523Y-77309380D02*
X168775095Y-77880809D01*
X190365142Y-87828380D02*
X190031809Y-87352190D01*
X189793714Y-87828380D02*
X189793714Y-86828380D01*
X190174666Y-86828380D01*
X190269904Y-86876000D01*
X190317523Y-86923619D01*
X190365142Y-87018857D01*
X190365142Y-87161714D01*
X190317523Y-87256952D01*
X190269904Y-87304571D01*
X190174666Y-87352190D01*
X189793714Y-87352190D01*
X191317523Y-87828380D02*
X190746095Y-87828380D01*
X191031809Y-87828380D02*
X191031809Y-86828380D01*
X190936571Y-86971238D01*
X190841333Y-87066476D01*
X190746095Y-87114095D01*
X191793714Y-87828380D02*
X191984190Y-87828380D01*
X192079428Y-87780761D01*
X192127047Y-87733142D01*
X192222285Y-87590285D01*
X192269904Y-87399809D01*
X192269904Y-87018857D01*
X192222285Y-86923619D01*
X192174666Y-86876000D01*
X192079428Y-86828380D01*
X191888952Y-86828380D01*
X191793714Y-86876000D01*
X191746095Y-86923619D01*
X191698476Y-87018857D01*
X191698476Y-87256952D01*
X191746095Y-87352190D01*
X191793714Y-87399809D01*
X191888952Y-87447428D01*
X192079428Y-87447428D01*
X192174666Y-87399809D01*
X192222285Y-87352190D01*
X192269904Y-87256952D01*
X123583333Y-59357142D02*
X123535714Y-59404761D01*
X123392857Y-59452380D01*
X123297619Y-59452380D01*
X123154761Y-59404761D01*
X123059523Y-59309523D01*
X123011904Y-59214285D01*
X122964285Y-59023809D01*
X122964285Y-58880952D01*
X123011904Y-58690476D01*
X123059523Y-58595238D01*
X123154761Y-58500000D01*
X123297619Y-58452380D01*
X123392857Y-58452380D01*
X123535714Y-58500000D01*
X123583333Y-58547619D01*
X123964285Y-58547619D02*
X124011904Y-58500000D01*
X124107142Y-58452380D01*
X124345238Y-58452380D01*
X124440476Y-58500000D01*
X124488095Y-58547619D01*
X124535714Y-58642857D01*
X124535714Y-58738095D01*
X124488095Y-58880952D01*
X123916666Y-59452380D01*
X124535714Y-59452380D01*
X125214142Y-75795142D02*
X125166523Y-75842761D01*
X125023666Y-75890380D01*
X124928428Y-75890380D01*
X124785571Y-75842761D01*
X124690333Y-75747523D01*
X124642714Y-75652285D01*
X124595095Y-75461809D01*
X124595095Y-75318952D01*
X124642714Y-75128476D01*
X124690333Y-75033238D01*
X124785571Y-74938000D01*
X124928428Y-74890380D01*
X125023666Y-74890380D01*
X125166523Y-74938000D01*
X125214142Y-74985619D01*
X126166523Y-75890380D02*
X125595095Y-75890380D01*
X125880809Y-75890380D02*
X125880809Y-74890380D01*
X125785571Y-75033238D01*
X125690333Y-75128476D01*
X125595095Y-75176095D01*
X126547476Y-74985619D02*
X126595095Y-74938000D01*
X126690333Y-74890380D01*
X126928428Y-74890380D01*
X127023666Y-74938000D01*
X127071285Y-74985619D01*
X127118904Y-75080857D01*
X127118904Y-75176095D01*
X127071285Y-75318952D01*
X126499857Y-75890380D01*
X127118904Y-75890380D01*
X105854666Y-96242380D02*
X105854666Y-96956666D01*
X105807047Y-97099523D01*
X105711809Y-97194761D01*
X105568952Y-97242380D01*
X105473714Y-97242380D01*
X106807047Y-96242380D02*
X106330857Y-96242380D01*
X106283238Y-96718571D01*
X106330857Y-96670952D01*
X106426095Y-96623333D01*
X106664190Y-96623333D01*
X106759428Y-96670952D01*
X106807047Y-96718571D01*
X106854666Y-96813809D01*
X106854666Y-97051904D01*
X106807047Y-97147142D01*
X106759428Y-97194761D01*
X106664190Y-97242380D01*
X106426095Y-97242380D01*
X106330857Y-97194761D01*
X106283238Y-97147142D01*
X142938666Y-96242380D02*
X142938666Y-96956666D01*
X142891047Y-97099523D01*
X142795809Y-97194761D01*
X142652952Y-97242380D01*
X142557714Y-97242380D01*
X143843428Y-96242380D02*
X143652952Y-96242380D01*
X143557714Y-96290000D01*
X143510095Y-96337619D01*
X143414857Y-96480476D01*
X143367238Y-96670952D01*
X143367238Y-97051904D01*
X143414857Y-97147142D01*
X143462476Y-97194761D01*
X143557714Y-97242380D01*
X143748190Y-97242380D01*
X143843428Y-97194761D01*
X143891047Y-97147142D01*
X143938666Y-97051904D01*
X143938666Y-96813809D01*
X143891047Y-96718571D01*
X143843428Y-96670952D01*
X143748190Y-96623333D01*
X143557714Y-96623333D01*
X143462476Y-96670952D01*
X143414857Y-96718571D01*
X143367238Y-96813809D01*
X114244380Y-82383238D02*
X113768190Y-82716571D01*
X114244380Y-82954666D02*
X113244380Y-82954666D01*
X113244380Y-82573714D01*
X113292000Y-82478476D01*
X113339619Y-82430857D01*
X113434857Y-82383238D01*
X113577714Y-82383238D01*
X113672952Y-82430857D01*
X113720571Y-82478476D01*
X113768190Y-82573714D01*
X113768190Y-82954666D01*
X113244380Y-82097523D02*
X114244380Y-81764190D01*
X113244380Y-81430857D01*
X113339619Y-81145142D02*
X113292000Y-81097523D01*
X113244380Y-81002285D01*
X113244380Y-80764190D01*
X113292000Y-80668952D01*
X113339619Y-80621333D01*
X113434857Y-80573714D01*
X113530095Y-80573714D01*
X113672952Y-80621333D01*
X114244380Y-81192761D01*
X114244380Y-80573714D01*
X122277142Y-54666666D02*
X122324761Y-54714285D01*
X122372380Y-54857142D01*
X122372380Y-54952380D01*
X122324761Y-55095238D01*
X122229523Y-55190476D01*
X122134285Y-55238095D01*
X121943809Y-55285714D01*
X121800952Y-55285714D01*
X121610476Y-55238095D01*
X121515238Y-55190476D01*
X121420000Y-55095238D01*
X121372380Y-54952380D01*
X121372380Y-54857142D01*
X121420000Y-54714285D01*
X121467619Y-54666666D01*
X121372380Y-53761904D02*
X121372380Y-54238095D01*
X121848571Y-54285714D01*
X121800952Y-54238095D01*
X121753333Y-54142857D01*
X121753333Y-53904761D01*
X121800952Y-53809523D01*
X121848571Y-53761904D01*
X121943809Y-53714285D01*
X122181904Y-53714285D01*
X122277142Y-53761904D01*
X122324761Y-53809523D01*
X122372380Y-53904761D01*
X122372380Y-54142857D01*
X122324761Y-54238095D01*
X122277142Y-54285714D01*
X159361142Y-68866666D02*
X159408761Y-68914285D01*
X159456380Y-69057142D01*
X159456380Y-69152380D01*
X159408761Y-69295238D01*
X159313523Y-69390476D01*
X159218285Y-69438095D01*
X159027809Y-69485714D01*
X158884952Y-69485714D01*
X158694476Y-69438095D01*
X158599238Y-69390476D01*
X158504000Y-69295238D01*
X158456380Y-69152380D01*
X158456380Y-69057142D01*
X158504000Y-68914285D01*
X158551619Y-68866666D01*
X159456380Y-68390476D02*
X159456380Y-68200000D01*
X159408761Y-68104761D01*
X159361142Y-68057142D01*
X159218285Y-67961904D01*
X159027809Y-67914285D01*
X158646857Y-67914285D01*
X158551619Y-67961904D01*
X158504000Y-68009523D01*
X158456380Y-68104761D01*
X158456380Y-68295238D01*
X158504000Y-68390476D01*
X158551619Y-68438095D01*
X158646857Y-68485714D01*
X158884952Y-68485714D01*
X158980190Y-68438095D01*
X159027809Y-68390476D01*
X159075428Y-68295238D01*
X159075428Y-68104761D01*
X159027809Y-68009523D01*
X158980190Y-67961904D01*
X158884952Y-67914285D01*
X163425142Y-81414857D02*
X163472761Y-81462476D01*
X163520380Y-81605333D01*
X163520380Y-81700571D01*
X163472761Y-81843428D01*
X163377523Y-81938666D01*
X163282285Y-81986285D01*
X163091809Y-82033904D01*
X162948952Y-82033904D01*
X162758476Y-81986285D01*
X162663238Y-81938666D01*
X162568000Y-81843428D01*
X162520380Y-81700571D01*
X162520380Y-81605333D01*
X162568000Y-81462476D01*
X162615619Y-81414857D01*
X163520380Y-80462476D02*
X163520380Y-81033904D01*
X163520380Y-80748190D02*
X162520380Y-80748190D01*
X162663238Y-80843428D01*
X162758476Y-80938666D01*
X162806095Y-81033904D01*
X162520380Y-79605333D02*
X162520380Y-79795809D01*
X162568000Y-79891047D01*
X162615619Y-79938666D01*
X162758476Y-80033904D01*
X162948952Y-80081523D01*
X163329904Y-80081523D01*
X163425142Y-80033904D01*
X163472761Y-79986285D01*
X163520380Y-79891047D01*
X163520380Y-79700571D01*
X163472761Y-79605333D01*
X163425142Y-79557714D01*
X163329904Y-79510095D01*
X163091809Y-79510095D01*
X162996571Y-79557714D01*
X162948952Y-79605333D01*
X162901333Y-79700571D01*
X162901333Y-79891047D01*
X162948952Y-79986285D01*
X162996571Y-80033904D01*
X163091809Y-80081523D01*
X190285142Y-76049142D02*
X190237523Y-76096761D01*
X190094666Y-76144380D01*
X189999428Y-76144380D01*
X189856571Y-76096761D01*
X189761333Y-76001523D01*
X189713714Y-75906285D01*
X189666095Y-75715809D01*
X189666095Y-75572952D01*
X189713714Y-75382476D01*
X189761333Y-75287238D01*
X189856571Y-75192000D01*
X189999428Y-75144380D01*
X190094666Y-75144380D01*
X190237523Y-75192000D01*
X190285142Y-75239619D01*
X191237523Y-76144380D02*
X190666095Y-76144380D01*
X190951809Y-76144380D02*
X190951809Y-75144380D01*
X190856571Y-75287238D01*
X190761333Y-75382476D01*
X190666095Y-75430095D01*
X191570857Y-75144380D02*
X192237523Y-75144380D01*
X191808952Y-76144380D01*
X116101904Y-67000380D02*
X116101904Y-66000380D01*
X116340000Y-66000380D01*
X116482857Y-66048000D01*
X116578095Y-66143238D01*
X116625714Y-66238476D01*
X116673333Y-66428952D01*
X116673333Y-66571809D01*
X116625714Y-66762285D01*
X116578095Y-66857523D01*
X116482857Y-66952761D01*
X116340000Y-67000380D01*
X116101904Y-67000380D01*
X117625714Y-67000380D02*
X117054285Y-67000380D01*
X117340000Y-67000380D02*
X117340000Y-66000380D01*
X117244761Y-66143238D01*
X117149523Y-66238476D01*
X117054285Y-66286095D01*
X113022095Y-65984380D02*
X113022095Y-64984380D01*
X113593523Y-65984380D02*
X113164952Y-65412952D01*
X113593523Y-64984380D02*
X113022095Y-65555809D01*
X116101904Y-70556380D02*
X116101904Y-69556380D01*
X116340000Y-69556380D01*
X116482857Y-69604000D01*
X116578095Y-69699238D01*
X116625714Y-69794476D01*
X116673333Y-69984952D01*
X116673333Y-70127809D01*
X116625714Y-70318285D01*
X116578095Y-70413523D01*
X116482857Y-70508761D01*
X116340000Y-70556380D01*
X116101904Y-70556380D01*
X117054285Y-69651619D02*
X117101904Y-69604000D01*
X117197142Y-69556380D01*
X117435238Y-69556380D01*
X117530476Y-69604000D01*
X117578095Y-69651619D01*
X117625714Y-69746857D01*
X117625714Y-69842095D01*
X117578095Y-69984952D01*
X117006666Y-70556380D01*
X117625714Y-70556380D01*
X113022095Y-69540380D02*
X113022095Y-68540380D01*
X113593523Y-69540380D02*
X113164952Y-68968952D01*
X113593523Y-68540380D02*
X113022095Y-69111809D01*
X171854904Y-82748380D02*
X171854904Y-81748380D01*
X172093000Y-81748380D01*
X172235857Y-81796000D01*
X172331095Y-81891238D01*
X172378714Y-81986476D01*
X172426333Y-82176952D01*
X172426333Y-82319809D01*
X172378714Y-82510285D01*
X172331095Y-82605523D01*
X172235857Y-82700761D01*
X172093000Y-82748380D01*
X171854904Y-82748380D01*
X173331095Y-81748380D02*
X172854904Y-81748380D01*
X172807285Y-82224571D01*
X172854904Y-82176952D01*
X172950142Y-82129333D01*
X173188238Y-82129333D01*
X173283476Y-82176952D01*
X173331095Y-82224571D01*
X173378714Y-82319809D01*
X173378714Y-82557904D01*
X173331095Y-82653142D01*
X173283476Y-82700761D01*
X173188238Y-82748380D01*
X172950142Y-82748380D01*
X172854904Y-82700761D01*
X172807285Y-82653142D01*
X168775095Y-81732380D02*
X168775095Y-80732380D01*
X169346523Y-81732380D02*
X168917952Y-81160952D01*
X169346523Y-80732380D02*
X168775095Y-81303809D01*
X131008380Y-55030666D02*
X130532190Y-55364000D01*
X131008380Y-55602095D02*
X130008380Y-55602095D01*
X130008380Y-55221142D01*
X130056000Y-55125904D01*
X130103619Y-55078285D01*
X130198857Y-55030666D01*
X130341714Y-55030666D01*
X130436952Y-55078285D01*
X130484571Y-55125904D01*
X130532190Y-55221142D01*
X130532190Y-55602095D01*
X130008380Y-54697333D02*
X130008380Y-54078285D01*
X130389333Y-54411619D01*
X130389333Y-54268761D01*
X130436952Y-54173523D01*
X130484571Y-54125904D01*
X130579809Y-54078285D01*
X130817904Y-54078285D01*
X130913142Y-54125904D01*
X130960761Y-54173523D01*
X131008380Y-54268761D01*
X131008380Y-54554476D01*
X130960761Y-54649714D01*
X130913142Y-54697333D01*
X107783333Y-58872380D02*
X107450000Y-58396190D01*
X107211904Y-58872380D02*
X107211904Y-57872380D01*
X107592857Y-57872380D01*
X107688095Y-57920000D01*
X107735714Y-57967619D01*
X107783333Y-58062857D01*
X107783333Y-58205714D01*
X107735714Y-58300952D01*
X107688095Y-58348571D01*
X107592857Y-58396190D01*
X107211904Y-58396190D01*
X108640476Y-58205714D02*
X108640476Y-58872380D01*
X108402380Y-57824761D02*
X108164285Y-58539047D01*
X108783333Y-58539047D01*
X107783333Y-62428380D02*
X107450000Y-61952190D01*
X107211904Y-62428380D02*
X107211904Y-61428380D01*
X107592857Y-61428380D01*
X107688095Y-61476000D01*
X107735714Y-61523619D01*
X107783333Y-61618857D01*
X107783333Y-61761714D01*
X107735714Y-61856952D01*
X107688095Y-61904571D01*
X107592857Y-61952190D01*
X107211904Y-61952190D01*
X108640476Y-61428380D02*
X108450000Y-61428380D01*
X108354761Y-61476000D01*
X108307142Y-61523619D01*
X108211904Y-61666476D01*
X108164285Y-61856952D01*
X108164285Y-62237904D01*
X108211904Y-62333142D01*
X108259523Y-62380761D01*
X108354761Y-62428380D01*
X108545238Y-62428380D01*
X108640476Y-62380761D01*
X108688095Y-62333142D01*
X108735714Y-62237904D01*
X108735714Y-61999809D01*
X108688095Y-61904571D01*
X108640476Y-61856952D01*
X108545238Y-61809333D01*
X108354761Y-61809333D01*
X108259523Y-61856952D01*
X108211904Y-61904571D01*
X108164285Y-61999809D01*
X116165333Y-74112380D02*
X115832000Y-73636190D01*
X115593904Y-74112380D02*
X115593904Y-73112380D01*
X115974857Y-73112380D01*
X116070095Y-73160000D01*
X116117714Y-73207619D01*
X116165333Y-73302857D01*
X116165333Y-73445714D01*
X116117714Y-73540952D01*
X116070095Y-73588571D01*
X115974857Y-73636190D01*
X115593904Y-73636190D01*
X116736761Y-73540952D02*
X116641523Y-73493333D01*
X116593904Y-73445714D01*
X116546285Y-73350476D01*
X116546285Y-73302857D01*
X116593904Y-73207619D01*
X116641523Y-73160000D01*
X116736761Y-73112380D01*
X116927238Y-73112380D01*
X117022476Y-73160000D01*
X117070095Y-73207619D01*
X117117714Y-73302857D01*
X117117714Y-73350476D01*
X117070095Y-73445714D01*
X117022476Y-73493333D01*
X116927238Y-73540952D01*
X116736761Y-73540952D01*
X116641523Y-73588571D01*
X116593904Y-73636190D01*
X116546285Y-73731428D01*
X116546285Y-73921904D01*
X116593904Y-74017142D01*
X116641523Y-74064761D01*
X116736761Y-74112380D01*
X116927238Y-74112380D01*
X117022476Y-74064761D01*
X117070095Y-74017142D01*
X117117714Y-73921904D01*
X117117714Y-73731428D01*
X117070095Y-73636190D01*
X117022476Y-73588571D01*
X116927238Y-73540952D01*
X170632380Y-91066857D02*
X170156190Y-91400190D01*
X170632380Y-91638285D02*
X169632380Y-91638285D01*
X169632380Y-91257333D01*
X169680000Y-91162095D01*
X169727619Y-91114476D01*
X169822857Y-91066857D01*
X169965714Y-91066857D01*
X170060952Y-91114476D01*
X170108571Y-91162095D01*
X170156190Y-91257333D01*
X170156190Y-91638285D01*
X170632380Y-90114476D02*
X170632380Y-90685904D01*
X170632380Y-90400190D02*
X169632380Y-90400190D01*
X169775238Y-90495428D01*
X169870476Y-90590666D01*
X169918095Y-90685904D01*
X169632380Y-89257333D02*
X169632380Y-89447809D01*
X169680000Y-89543047D01*
X169727619Y-89590666D01*
X169870476Y-89685904D01*
X170060952Y-89733523D01*
X170441904Y-89733523D01*
X170537142Y-89685904D01*
X170584761Y-89638285D01*
X170632380Y-89543047D01*
X170632380Y-89352571D01*
X170584761Y-89257333D01*
X170537142Y-89209714D01*
X170441904Y-89162095D01*
X170203809Y-89162095D01*
X170108571Y-89209714D01*
X170060952Y-89257333D01*
X170013333Y-89352571D01*
X170013333Y-89543047D01*
X170060952Y-89638285D01*
X170108571Y-89685904D01*
X170203809Y-89733523D01*
X190365142Y-90876380D02*
X190031809Y-90400190D01*
X189793714Y-90876380D02*
X189793714Y-89876380D01*
X190174666Y-89876380D01*
X190269904Y-89924000D01*
X190317523Y-89971619D01*
X190365142Y-90066857D01*
X190365142Y-90209714D01*
X190317523Y-90304952D01*
X190269904Y-90352571D01*
X190174666Y-90400190D01*
X189793714Y-90400190D01*
X191317523Y-90876380D02*
X190746095Y-90876380D01*
X191031809Y-90876380D02*
X191031809Y-89876380D01*
X190936571Y-90019238D01*
X190841333Y-90114476D01*
X190746095Y-90162095D01*
X191650857Y-89876380D02*
X192317523Y-89876380D01*
X191888952Y-90876380D01*
X190365142Y-93924380D02*
X190031809Y-93448190D01*
X189793714Y-93924380D02*
X189793714Y-92924380D01*
X190174666Y-92924380D01*
X190269904Y-92972000D01*
X190317523Y-93019619D01*
X190365142Y-93114857D01*
X190365142Y-93257714D01*
X190317523Y-93352952D01*
X190269904Y-93400571D01*
X190174666Y-93448190D01*
X189793714Y-93448190D01*
X191317523Y-93924380D02*
X190746095Y-93924380D01*
X191031809Y-93924380D02*
X191031809Y-92924380D01*
X190936571Y-93067238D01*
X190841333Y-93162476D01*
X190746095Y-93210095D01*
X191888952Y-93352952D02*
X191793714Y-93305333D01*
X191746095Y-93257714D01*
X191698476Y-93162476D01*
X191698476Y-93114857D01*
X191746095Y-93019619D01*
X191793714Y-92972000D01*
X191888952Y-92924380D01*
X192079428Y-92924380D01*
X192174666Y-92972000D01*
X192222285Y-93019619D01*
X192269904Y-93114857D01*
X192269904Y-93162476D01*
X192222285Y-93257714D01*
X192174666Y-93305333D01*
X192079428Y-93352952D01*
X191888952Y-93352952D01*
X191793714Y-93400571D01*
X191746095Y-93448190D01*
X191698476Y-93543428D01*
X191698476Y-93733904D01*
X191746095Y-93829142D01*
X191793714Y-93876761D01*
X191888952Y-93924380D01*
X192079428Y-93924380D01*
X192174666Y-93876761D01*
X192222285Y-93829142D01*
X192269904Y-93733904D01*
X192269904Y-93543428D01*
X192222285Y-93448190D01*
X192174666Y-93400571D01*
X192079428Y-93352952D01*
X177744380Y-91066857D02*
X177268190Y-91400190D01*
X177744380Y-91638285D02*
X176744380Y-91638285D01*
X176744380Y-91257333D01*
X176792000Y-91162095D01*
X176839619Y-91114476D01*
X176934857Y-91066857D01*
X177077714Y-91066857D01*
X177172952Y-91114476D01*
X177220571Y-91162095D01*
X177268190Y-91257333D01*
X177268190Y-91638285D01*
X176839619Y-90685904D02*
X176792000Y-90638285D01*
X176744380Y-90543047D01*
X176744380Y-90304952D01*
X176792000Y-90209714D01*
X176839619Y-90162095D01*
X176934857Y-90114476D01*
X177030095Y-90114476D01*
X177172952Y-90162095D01*
X177744380Y-90733523D01*
X177744380Y-90114476D01*
X177744380Y-89162095D02*
X177744380Y-89733523D01*
X177744380Y-89447809D02*
X176744380Y-89447809D01*
X176887238Y-89543047D01*
X176982476Y-89638285D01*
X177030095Y-89733523D01*
X155392380Y-91066857D02*
X154916190Y-91400190D01*
X155392380Y-91638285D02*
X154392380Y-91638285D01*
X154392380Y-91257333D01*
X154440000Y-91162095D01*
X154487619Y-91114476D01*
X154582857Y-91066857D01*
X154725714Y-91066857D01*
X154820952Y-91114476D01*
X154868571Y-91162095D01*
X154916190Y-91257333D01*
X154916190Y-91638285D01*
X154487619Y-90685904D02*
X154440000Y-90638285D01*
X154392380Y-90543047D01*
X154392380Y-90304952D01*
X154440000Y-90209714D01*
X154487619Y-90162095D01*
X154582857Y-90114476D01*
X154678095Y-90114476D01*
X154820952Y-90162095D01*
X155392380Y-90733523D01*
X155392380Y-90114476D01*
X154487619Y-89733523D02*
X154440000Y-89685904D01*
X154392380Y-89590666D01*
X154392380Y-89352571D01*
X154440000Y-89257333D01*
X154487619Y-89209714D01*
X154582857Y-89162095D01*
X154678095Y-89162095D01*
X154820952Y-89209714D01*
X155392380Y-89781142D01*
X155392380Y-89162095D01*
X174188380Y-91066857D02*
X173712190Y-91400190D01*
X174188380Y-91638285D02*
X173188380Y-91638285D01*
X173188380Y-91257333D01*
X173236000Y-91162095D01*
X173283619Y-91114476D01*
X173378857Y-91066857D01*
X173521714Y-91066857D01*
X173616952Y-91114476D01*
X173664571Y-91162095D01*
X173712190Y-91257333D01*
X173712190Y-91638285D01*
X173283619Y-90685904D02*
X173236000Y-90638285D01*
X173188380Y-90543047D01*
X173188380Y-90304952D01*
X173236000Y-90209714D01*
X173283619Y-90162095D01*
X173378857Y-90114476D01*
X173474095Y-90114476D01*
X173616952Y-90162095D01*
X174188380Y-90733523D01*
X174188380Y-90114476D01*
X173188380Y-89781142D02*
X173188380Y-89162095D01*
X173569333Y-89495428D01*
X173569333Y-89352571D01*
X173616952Y-89257333D01*
X173664571Y-89209714D01*
X173759809Y-89162095D01*
X173997904Y-89162095D01*
X174093142Y-89209714D01*
X174140761Y-89257333D01*
X174188380Y-89352571D01*
X174188380Y-89638285D01*
X174140761Y-89733523D01*
X174093142Y-89781142D01*
X131984761Y-65063619D02*
X131889523Y-65016000D01*
X131794285Y-64920761D01*
X131651428Y-64777904D01*
X131556190Y-64730285D01*
X131460952Y-64730285D01*
X131508571Y-64968380D02*
X131413333Y-64920761D01*
X131318095Y-64825523D01*
X131270476Y-64635047D01*
X131270476Y-64301714D01*
X131318095Y-64111238D01*
X131413333Y-64016000D01*
X131508571Y-63968380D01*
X131699047Y-63968380D01*
X131794285Y-64016000D01*
X131889523Y-64111238D01*
X131937142Y-64301714D01*
X131937142Y-64635047D01*
X131889523Y-64825523D01*
X131794285Y-64920761D01*
X131699047Y-64968380D01*
X131508571Y-64968380D01*
X132889523Y-64968380D02*
X132318095Y-64968380D01*
X132603809Y-64968380D02*
X132603809Y-63968380D01*
X132508571Y-64111238D01*
X132413333Y-64206476D01*
X132318095Y-64254095D01*
X180498761Y-83859619D02*
X180403523Y-83812000D01*
X180308285Y-83716761D01*
X180165428Y-83573904D01*
X180070190Y-83526285D01*
X179974952Y-83526285D01*
X180022571Y-83764380D02*
X179927333Y-83716761D01*
X179832095Y-83621523D01*
X179784476Y-83431047D01*
X179784476Y-83097714D01*
X179832095Y-82907238D01*
X179927333Y-82812000D01*
X180022571Y-82764380D01*
X180213047Y-82764380D01*
X180308285Y-82812000D01*
X180403523Y-82907238D01*
X180451142Y-83097714D01*
X180451142Y-83431047D01*
X180403523Y-83621523D01*
X180308285Y-83716761D01*
X180213047Y-83764380D01*
X180022571Y-83764380D01*
X180832095Y-82859619D02*
X180879714Y-82812000D01*
X180974952Y-82764380D01*
X181213047Y-82764380D01*
X181308285Y-82812000D01*
X181355904Y-82859619D01*
X181403523Y-82954857D01*
X181403523Y-83050095D01*
X181355904Y-83192952D01*
X180784476Y-83764380D01*
X181403523Y-83764380D01*
X198350380Y-58705523D02*
X199064666Y-58705523D01*
X199207523Y-58753142D01*
X199302761Y-58848380D01*
X199350380Y-58991238D01*
X199350380Y-59086476D01*
X199350380Y-57705523D02*
X199350380Y-58276952D01*
X199350380Y-57991238D02*
X198350380Y-57991238D01*
X198493238Y-58086476D01*
X198588476Y-58181714D01*
X198636095Y-58276952D01*
X198350380Y-57086476D02*
X198350380Y-56991238D01*
X198398000Y-56896000D01*
X198445619Y-56848380D01*
X198540857Y-56800761D01*
X198731333Y-56753142D01*
X198969428Y-56753142D01*
X199159904Y-56800761D01*
X199255142Y-56848380D01*
X199302761Y-56896000D01*
X199350380Y-56991238D01*
X199350380Y-57086476D01*
X199302761Y-57181714D01*
X199255142Y-57229333D01*
X199159904Y-57276952D01*
X198969428Y-57324571D01*
X198731333Y-57324571D01*
X198540857Y-57276952D01*
X198445619Y-57229333D01*
X198398000Y-57181714D01*
X198350380Y-57086476D01*
X125341142Y-94432380D02*
X125007809Y-93956190D01*
X124769714Y-94432380D02*
X124769714Y-93432380D01*
X125150666Y-93432380D01*
X125245904Y-93480000D01*
X125293523Y-93527619D01*
X125341142Y-93622857D01*
X125341142Y-93765714D01*
X125293523Y-93860952D01*
X125245904Y-93908571D01*
X125150666Y-93956190D01*
X124769714Y-93956190D01*
X125722095Y-93527619D02*
X125769714Y-93480000D01*
X125864952Y-93432380D01*
X126103047Y-93432380D01*
X126198285Y-93480000D01*
X126245904Y-93527619D01*
X126293523Y-93622857D01*
X126293523Y-93718095D01*
X126245904Y-93860952D01*
X125674476Y-94432380D01*
X126293523Y-94432380D01*
X126912571Y-93432380D02*
X127007809Y-93432380D01*
X127103047Y-93480000D01*
X127150666Y-93527619D01*
X127198285Y-93622857D01*
X127245904Y-93813333D01*
X127245904Y-94051428D01*
X127198285Y-94241904D01*
X127150666Y-94337142D01*
X127103047Y-94384761D01*
X127007809Y-94432380D01*
X126912571Y-94432380D01*
X126817333Y-94384761D01*
X126769714Y-94337142D01*
X126722095Y-94241904D01*
X126674476Y-94051428D01*
X126674476Y-93813333D01*
X126722095Y-93622857D01*
X126769714Y-93527619D01*
X126817333Y-93480000D01*
X126912571Y-93432380D01*
X157670666Y-57598761D02*
X157813523Y-57646380D01*
X158051619Y-57646380D01*
X158146857Y-57598761D01*
X158194476Y-57551142D01*
X158242095Y-57455904D01*
X158242095Y-57360666D01*
X158194476Y-57265428D01*
X158146857Y-57217809D01*
X158051619Y-57170190D01*
X157861142Y-57122571D01*
X157765904Y-57074952D01*
X157718285Y-57027333D01*
X157670666Y-56932095D01*
X157670666Y-56836857D01*
X157718285Y-56741619D01*
X157765904Y-56694000D01*
X157861142Y-56646380D01*
X158099238Y-56646380D01*
X158242095Y-56694000D01*
X158575428Y-56646380D02*
X158813523Y-57646380D01*
X159004000Y-56932095D01*
X159194476Y-57646380D01*
X159432571Y-56646380D01*
X160337333Y-57646380D02*
X159765904Y-57646380D01*
X160051619Y-57646380D02*
X160051619Y-56646380D01*
X159956380Y-56789238D01*
X159861142Y-56884476D01*
X159765904Y-56932095D01*
X162750666Y-57598761D02*
X162893523Y-57646380D01*
X163131619Y-57646380D01*
X163226857Y-57598761D01*
X163274476Y-57551142D01*
X163322095Y-57455904D01*
X163322095Y-57360666D01*
X163274476Y-57265428D01*
X163226857Y-57217809D01*
X163131619Y-57170190D01*
X162941142Y-57122571D01*
X162845904Y-57074952D01*
X162798285Y-57027333D01*
X162750666Y-56932095D01*
X162750666Y-56836857D01*
X162798285Y-56741619D01*
X162845904Y-56694000D01*
X162941142Y-56646380D01*
X163179238Y-56646380D01*
X163322095Y-56694000D01*
X163655428Y-56646380D02*
X163893523Y-57646380D01*
X164084000Y-56932095D01*
X164274476Y-57646380D01*
X164512571Y-56646380D01*
X164845904Y-56741619D02*
X164893523Y-56694000D01*
X164988761Y-56646380D01*
X165226857Y-56646380D01*
X165322095Y-56694000D01*
X165369714Y-56741619D01*
X165417333Y-56836857D01*
X165417333Y-56932095D01*
X165369714Y-57074952D01*
X164798285Y-57646380D01*
X165417333Y-57646380D01*
M02*
