  0
SECTION
  2
HEADER
  9
$ACADVER
  1
AC1009
  9
$INSBASE
 10
0.0
 20
0.0
 30
0.0
  9
$EXTMIN
 10
0.0
 20
0.0
 30
0.0
  9
$EXTMAX
 10
0.0
 20
0.0
 30
0.0
  0
ENDSEC
  0
SECTION
  2
TABLES
  0
TABLE
  2
VPORT
 70
0
  0
ENDTAB
  0
TABLE
  2
LTYPE
 70
1
  0
LTYPE
  2
CONTINUOUS
 70
0
  3
Solid line
 72
65
 73
0
 40
0.0
  0
ENDTAB
  0
TABLE
  2
LAYER
 70
1
  0
LAYER
  2
0
 70
64
 62
7
  6
continuous
  0
ENDTAB
  0
TABLE
  2
STYLE
 70
1
  0
STYLE
  2
STANDARD
 70
0
 40
0
 41
1.0
 50
0.0
 71
0
 42
1
 3
ARIAL.TTF
 4

  0
ENDTAB
  0
TABLE
  2
VIEW
 70
0
  0
ENDTAB
  0
ENDSEC
  0
SECTION
  2
BLOCKS
  0
BLOCK
  8
Board_Geoms
  2
BOARD_OUTLINE
 70
0
 10
0.0
 20
0.0
 30
0.0
  3
BOARD_OUTLINE
  0
LINE
  8
Board_Geoms
 62
0
 10
230.0
 20
-67.5
 30
0.0
 11
175.0
 21
-67.5
 31
0.0
  0
LINE
  8
Board_Geoms
 62
0
 10
230.0
 20
-142.5
 30
0.0
 11
230.0
 21
-67.5
 31
0.0
  0
LINE
  8
Board_Geoms
 62
0
 10
175.0
 20
-67.5
 30
0.0
 11
175.0
 21
-142.5
 31
0.0
  0
LINE
  8
Board_Geoms
 62
0
 10
175.0
 20
-142.5
 30
0.0
 11
230.0
 21
-142.5
 31
0.0
  0
CIRCLE
  8
Board_Geoms
 62
0
 10
192.34
 20
-77.0
 30
0.0
 40
0.4
  0
CIRCLE
  8
Board_Geoms
 62
0
 10
197.0
 20
-81.0
 30
0.0
 40
0.4
  0
CIRCLE
  8
Board_Geoms
 62
0
 10
202.5
 20
-90.5
 30
0.0
 40
0.4
  0
CIRCLE
  8
Board_Geoms
 62
0
 10
202.5
 20
-80.34
 30
0.0
 40
0.4
  0
CIRCLE
  8
Board_Geoms
 62
0
 10
202.5
 20
-105.0
 30
0.0
 40
1.25
  0
CIRCLE
  8
Board_Geoms
 62
0
 10
191.99996
 20
-101.58833
 30
0.0
 40
1.0
  0
CIRCLE
  8
Board_Geoms
 62
0
 10
212.5
 20
-91.0
 30
0.0
 40
0.5
  0
CIRCLE
  8
Board_Geoms
 62
0
 10
207.5
 20
-90.0
 30
0.0
 40
0.4
  0
CIRCLE
  8
Board_Geoms
 62
0
 10
208.9894
 20
-96.06818
 30
0.0
 40
1.0
  0
CIRCLE
  8
Board_Geoms
 62
0
 10
212.99998
 20
-101.58829
 30
0.0
 40
1.0
  0
CIRCLE
  8
Board_Geoms
 62
0
 10
207.5
 20
-79.84
 30
0.0
 40
0.4
  0
CIRCLE
  8
Board_Geoms
 62
0
 10
212.0
 20
-131.5
 30
0.0
 40
0.4
  0
CIRCLE
  8
Board_Geoms
 62
0
 10
200.0
 20
-129.66
 30
0.0
 40
0.4
  0
CIRCLE
  8
Board_Geoms
 62
0
 10
204.0
 20
-129.66
 30
0.0
 40
0.4
  0
CIRCLE
  8
Board_Geoms
 62
0
 10
192.0
 20
-119.5
 30
0.0
 40
0.5
  0
CIRCLE
  8
Board_Geoms
 62
0
 10
200.0
 20
-119.5
 30
0.0
 40
0.4
  0
CIRCLE
  8
Board_Geoms
 62
0
 10
204.0
 20
-119.5
 30
0.0
 40
0.4
  0
CIRCLE
  8
Board_Geoms
 62
0
 10
192.0
 20
-124.5
 30
0.0
 40
0.5
  0
CIRCLE
  8
Board_Geoms
 62
0
 10
192.00002
 20
-108.41171
 30
0.0
 40
1.0
  0
CIRCLE
  8
Board_Geoms
 62
0
 10
196.0106
 20
-113.93182
 30
0.0
 40
1.0
  0
CIRCLE
  8
Board_Geoms
 62
0
 10
202.50004
 20
-116.04037
 30
0.0
 40
1.0
  0
CIRCLE
  8
Board_Geoms
 62
0
 10
208.98943
 20
-113.93148
 30
0.0
 40
1.0
  0
CIRCLE
  8
Board_Geoms
 62
0
 10
212.0
 20
-116.5
 30
0.0
 40
0.4
  0
CIRCLE
  8
Board_Geoms
 62
0
 10
209.5
 20
-73.5
 30
0.0
 40
0.6
  0
CIRCLE
  8
Board_Geoms
 62
0
 10
214.58
 20
-73.5
 30
0.0
 40
0.6
  0
CIRCLE
  8
Board_Geoms
 62
0
 10
180.0
 20
-72.5
 30
0.0
 40
1.6
  0
CIRCLE
  8
Board_Geoms
 62
0
 10
186.5
 20
-85.0
 30
0.0
 40
0.6
  0
CIRCLE
  8
Board_Geoms
 62
0
 10
186.5
 20
-92.5
 30
0.0
 40
0.6
  0
CIRCLE
  8
Board_Geoms
 62
0
 10
187.76
 20
-71.5
 30
0.0
 40
0.6
  0
CIRCLE
  8
Board_Geoms
 62
0
 10
203.0
 20
-71.5
 30
0.0
 40
0.6
  0
CIRCLE
  8
Board_Geoms
 62
0
 10
202.5
 20
-77.0
 30
0.0
 40
0.4
  0
CIRCLE
  8
Board_Geoms
 62
0
 10
202.49996
 20
-93.95963
 30
0.0
 40
1.0
  0
CIRCLE
  8
Board_Geoms
 62
0
 10
197.0
 20
-91.16
 30
0.0
 40
0.4
  0
CIRCLE
  8
Board_Geoms
 62
0
 10
181.0
 20
-103.42
 30
0.0
 40
0.6
  0
CIRCLE
  8
Board_Geoms
 62
0
 10
196.01069
 20
-96.06814
 30
0.0
 40
1.0
  0
CIRCLE
  8
Board_Geoms
 62
0
 10
181.0
 20
-108.5
 30
0.0
 40
0.6
  0
CIRCLE
  8
Board_Geoms
 62
0
 10
180.0
 20
-137.5
 30
0.0
 40
1.6
  0
CIRCLE
  8
Board_Geoms
 62
0
 10
195.18
 20
-136.5
 30
0.0
 40
0.6
  0
CIRCLE
  8
Board_Geoms
 62
0
 10
190.1
 20
-136.5
 30
0.0
 40
0.6
  0
CIRCLE
  8
Board_Geoms
 62
0
 10
210.42
 20
-136.5
 30
0.0
 40
0.6
  0
CIRCLE
  8
Board_Geoms
 62
0
 10
205.34
 20
-136.5
 30
0.0
 40
0.6
  0
CIRCLE
  8
Board_Geoms
 62
0
 10
200.26
 20
-136.5
 30
0.0
 40
0.6
  0
CIRCLE
  8
Board_Geoms
 62
0
 10
215.5
 20
-136.5
 30
0.0
 40
0.6
  0
CIRCLE
  8
Board_Geoms
 62
0
 10
215.0
 20
-84.08
 30
0.0
 40
0.35
  0
CIRCLE
  8
Board_Geoms
 62
0
 10
215.0
 20
-79.0
 30
0.0
 40
0.35
  0
CIRCLE
  8
Board_Geoms
 62
0
 10
224.0
 20
-95.24
 30
0.0
 40
0.6
  0
CIRCLE
  8
Board_Geoms
 62
0
 10
224.0
 20
-103.5
 30
0.0
 40
0.6
  0
CIRCLE
  8
Board_Geoms
 62
0
 10
217.0
 20
-102.0
 30
0.0
 40
0.4
  0
CIRCLE
  8
Board_Geoms
 62
0
 10
217.0
 20
-112.16
 30
0.0
 40
0.4
  0
CIRCLE
  8
Board_Geoms
 62
0
 10
224.0
 20
-108.58
 30
0.0
 40
0.6
  0
CIRCLE
  8
Board_Geoms
 62
0
 10
217.54
 20
-81.54
 30
0.0
 40
0.35
  0
CIRCLE
  8
Board_Geoms
 62
0
 10
217.5
 20
-91.0
 30
0.0
 40
0.5
  0
CIRCLE
  8
Board_Geoms
 62
0
 10
224.0
 20
-90.16
 30
0.0
 40
0.6
  0
CIRCLE
  8
Board_Geoms
 62
0
 10
224.0
 20
-85.08
 30
0.0
 40
0.6
  0
CIRCLE
  8
Board_Geoms
 62
0
 10
225.0
 20
-137.5
 30
0.0
 40
1.6
  0
CIRCLE
  8
Board_Geoms
 62
0
 10
224.0
 20
-80.0
 30
0.0
 40
0.6
  0
CIRCLE
  8
Board_Geoms
 62
0
 10
225.0
 20
-72.5
 30
0.0
 40
1.6
  0
ENDBLK
  0
ENDSEC
  0
SECTION
  2
ENTITIES
  0
INSERT
  2
BOARD_OUTLINE
  8
Board_Geoms
 62
0
 10
0.0
 20
0.0
 30
0.0
  0
ENDSEC
  0
EOF
