M48
;DRILL file {KiCad 4.0.6} date Friday, 28 July 2017 'PMt' 19:56:48
;FORMAT={-:-/ absolute / metric / decimal}
FMAT,2
METRIC,TZ
T1C0.800
T2C1.000
T3C1.001
T4C1.200
T5C3.200
%
G90
G05
M71
T1
X175.Y-99.5
X175.Y-127.
X187.5Y-101.5
X187.5Y-108.5
X187.5Y-115.5
X202.5Y-101.5
X202.5Y-108.5
X202.5Y-115.5
T2
X183.5Y-99.5
X183.5Y-107.
T3
X182.5Y-111.5
X182.5Y-121.66
X192.Y-121.
X202.16Y-121.
X208.5Y-121.
T4
X166.5Y-110.92
X166.5Y-116.
X182.84Y-126.5
X187.92Y-126.5
X193.Y-126.5
X199.34Y-126.5
X204.42Y-126.5
X207.5Y-108.5
X207.5Y-113.58
X209.5Y-126.5
T5
X164.Y-101.
X209.Y-101.
T0
M30
