G04 #@! TF.FileFunction,Legend,Top*
%FSLAX46Y46*%
G04 Gerber Fmt 4.6, Leading zero omitted, Abs format (unit mm)*
G04 Created by KiCad (PCBNEW 4.0.6) date Friday, 28 July 2017 'PMt' 19:56:44*
%MOMM*%
%LPD*%
G01*
G04 APERTURE LIST*
%ADD10C,0.100000*%
%ADD11C,0.250000*%
%ADD12C,0.300000*%
%ADD13C,0.150000*%
%ADD14C,0.120000*%
G04 APERTURE END LIST*
D10*
D11*
X163523810Y-124803571D02*
X163666667Y-124851190D01*
X163714286Y-124898810D01*
X163761905Y-124994048D01*
X163761905Y-125136905D01*
X163714286Y-125232143D01*
X163666667Y-125279762D01*
X163571429Y-125327381D01*
X163190476Y-125327381D01*
X163190476Y-124327381D01*
X163523810Y-124327381D01*
X163619048Y-124375000D01*
X163666667Y-124422619D01*
X163714286Y-124517857D01*
X163714286Y-124613095D01*
X163666667Y-124708333D01*
X163619048Y-124755952D01*
X163523810Y-124803571D01*
X163190476Y-124803571D01*
X164333333Y-125327381D02*
X164238095Y-125279762D01*
X164190476Y-125232143D01*
X164142857Y-125136905D01*
X164142857Y-124851190D01*
X164190476Y-124755952D01*
X164238095Y-124708333D01*
X164333333Y-124660714D01*
X164476191Y-124660714D01*
X164571429Y-124708333D01*
X164619048Y-124755952D01*
X164666667Y-124851190D01*
X164666667Y-125136905D01*
X164619048Y-125232143D01*
X164571429Y-125279762D01*
X164476191Y-125327381D01*
X164333333Y-125327381D01*
X165095238Y-124660714D02*
X165095238Y-125327381D01*
X165095238Y-124755952D02*
X165142857Y-124708333D01*
X165238095Y-124660714D01*
X165380953Y-124660714D01*
X165476191Y-124708333D01*
X165523810Y-124803571D01*
X165523810Y-125327381D01*
X166380953Y-125279762D02*
X166285715Y-125327381D01*
X166095238Y-125327381D01*
X166000000Y-125279762D01*
X165952381Y-125184524D01*
X165952381Y-124803571D01*
X166000000Y-124708333D01*
X166095238Y-124660714D01*
X166285715Y-124660714D01*
X166380953Y-124708333D01*
X166428572Y-124803571D01*
X166428572Y-124898810D01*
X165952381Y-124994048D01*
X168190477Y-125327381D02*
X167857143Y-124851190D01*
X167619048Y-125327381D02*
X167619048Y-124327381D01*
X168000001Y-124327381D01*
X168095239Y-124375000D01*
X168142858Y-124422619D01*
X168190477Y-124517857D01*
X168190477Y-124660714D01*
X168142858Y-124755952D01*
X168095239Y-124803571D01*
X168000001Y-124851190D01*
X167619048Y-124851190D01*
X169047620Y-125327381D02*
X169047620Y-124803571D01*
X169000001Y-124708333D01*
X168904763Y-124660714D01*
X168714286Y-124660714D01*
X168619048Y-124708333D01*
X169047620Y-125279762D02*
X168952382Y-125327381D01*
X168714286Y-125327381D01*
X168619048Y-125279762D01*
X168571429Y-125184524D01*
X168571429Y-125089286D01*
X168619048Y-124994048D01*
X168714286Y-124946429D01*
X168952382Y-124946429D01*
X169047620Y-124898810D01*
X169428572Y-124660714D02*
X169666667Y-125327381D01*
X169904763Y-124660714D02*
X169666667Y-125327381D01*
X169571429Y-125565476D01*
X169523810Y-125613095D01*
X169428572Y-125660714D01*
X163000000Y-126077381D02*
X163571429Y-126077381D01*
X163285714Y-127077381D02*
X163285714Y-126077381D01*
X163857143Y-127029762D02*
X164000000Y-127077381D01*
X164238096Y-127077381D01*
X164333334Y-127029762D01*
X164380953Y-126982143D01*
X164428572Y-126886905D01*
X164428572Y-126791667D01*
X164380953Y-126696429D01*
X164333334Y-126648810D01*
X164238096Y-126601190D01*
X164047619Y-126553571D01*
X163952381Y-126505952D01*
X163904762Y-126458333D01*
X163857143Y-126363095D01*
X163857143Y-126267857D01*
X163904762Y-126172619D01*
X163952381Y-126125000D01*
X164047619Y-126077381D01*
X164285715Y-126077381D01*
X164428572Y-126125000D01*
X165619048Y-127077381D02*
X165619048Y-126077381D01*
X166000001Y-126077381D01*
X166095239Y-126125000D01*
X166142858Y-126172619D01*
X166190477Y-126267857D01*
X166190477Y-126410714D01*
X166142858Y-126505952D01*
X166095239Y-126553571D01*
X166000001Y-126601190D01*
X165619048Y-126601190D01*
X167190477Y-126982143D02*
X167142858Y-127029762D01*
X167000001Y-127077381D01*
X166904763Y-127077381D01*
X166761905Y-127029762D01*
X166666667Y-126934524D01*
X166619048Y-126839286D01*
X166571429Y-126648810D01*
X166571429Y-126505952D01*
X166619048Y-126315476D01*
X166666667Y-126220238D01*
X166761905Y-126125000D01*
X166904763Y-126077381D01*
X167000001Y-126077381D01*
X167142858Y-126125000D01*
X167190477Y-126172619D01*
X167952382Y-126553571D02*
X168095239Y-126601190D01*
X168142858Y-126648810D01*
X168190477Y-126744048D01*
X168190477Y-126886905D01*
X168142858Y-126982143D01*
X168095239Y-127029762D01*
X168000001Y-127077381D01*
X167619048Y-127077381D01*
X167619048Y-126077381D01*
X167952382Y-126077381D01*
X168047620Y-126125000D01*
X168095239Y-126172619D01*
X168142858Y-126267857D01*
X168142858Y-126363095D01*
X168095239Y-126458333D01*
X168047620Y-126505952D01*
X167952382Y-126553571D01*
X167619048Y-126553571D01*
X168523810Y-126410714D02*
X168761905Y-127077381D01*
X169000001Y-126410714D01*
X169904763Y-127077381D02*
X169333334Y-127077381D01*
X169619048Y-127077381D02*
X169619048Y-126077381D01*
X169523810Y-126220238D01*
X169428572Y-126315476D01*
X169333334Y-126363095D01*
X161119047Y-127827381D02*
X161690476Y-127827381D01*
X161404761Y-128827381D02*
X161404761Y-127827381D01*
X162023809Y-128827381D02*
X162023809Y-128160714D01*
X162023809Y-128351190D02*
X162071428Y-128255952D01*
X162119047Y-128208333D01*
X162214285Y-128160714D01*
X162309524Y-128160714D01*
X162642857Y-128827381D02*
X162642857Y-128160714D01*
X162642857Y-127827381D02*
X162595238Y-127875000D01*
X162642857Y-127922619D01*
X162690476Y-127875000D01*
X162642857Y-127827381D01*
X162642857Y-127922619D01*
X163071428Y-128779762D02*
X163166666Y-128827381D01*
X163357142Y-128827381D01*
X163452381Y-128779762D01*
X163500000Y-128684524D01*
X163500000Y-128636905D01*
X163452381Y-128541667D01*
X163357142Y-128494048D01*
X163214285Y-128494048D01*
X163119047Y-128446429D01*
X163071428Y-128351190D01*
X163071428Y-128303571D01*
X163119047Y-128208333D01*
X163214285Y-128160714D01*
X163357142Y-128160714D01*
X163452381Y-128208333D01*
X163785714Y-128160714D02*
X164166666Y-128160714D01*
X163928571Y-127827381D02*
X163928571Y-128684524D01*
X163976190Y-128779762D01*
X164071428Y-128827381D01*
X164166666Y-128827381D01*
X164928572Y-128827381D02*
X164928572Y-128303571D01*
X164880953Y-128208333D01*
X164785715Y-128160714D01*
X164595238Y-128160714D01*
X164500000Y-128208333D01*
X164928572Y-128779762D02*
X164833334Y-128827381D01*
X164595238Y-128827381D01*
X164500000Y-128779762D01*
X164452381Y-128684524D01*
X164452381Y-128589286D01*
X164500000Y-128494048D01*
X164595238Y-128446429D01*
X164833334Y-128446429D01*
X164928572Y-128398810D01*
X165404762Y-128160714D02*
X165404762Y-128827381D01*
X165404762Y-128255952D02*
X165452381Y-128208333D01*
X165547619Y-128160714D01*
X165690477Y-128160714D01*
X165785715Y-128208333D01*
X165833334Y-128303571D01*
X165833334Y-128827381D01*
X167642858Y-128732143D02*
X167595239Y-128779762D01*
X167452382Y-128827381D01*
X167357144Y-128827381D01*
X167214286Y-128779762D01*
X167119048Y-128684524D01*
X167071429Y-128589286D01*
X167023810Y-128398810D01*
X167023810Y-128255952D01*
X167071429Y-128065476D01*
X167119048Y-127970238D01*
X167214286Y-127875000D01*
X167357144Y-127827381D01*
X167452382Y-127827381D01*
X167595239Y-127875000D01*
X167642858Y-127922619D01*
X168214286Y-128827381D02*
X168119048Y-128779762D01*
X168071429Y-128732143D01*
X168023810Y-128636905D01*
X168023810Y-128351190D01*
X168071429Y-128255952D01*
X168119048Y-128208333D01*
X168214286Y-128160714D01*
X168357144Y-128160714D01*
X168452382Y-128208333D01*
X168500001Y-128255952D01*
X168547620Y-128351190D01*
X168547620Y-128636905D01*
X168500001Y-128732143D01*
X168452382Y-128779762D01*
X168357144Y-128827381D01*
X168214286Y-128827381D01*
X169119048Y-128827381D02*
X169023810Y-128779762D01*
X168976191Y-128684524D01*
X168976191Y-127827381D01*
X169642858Y-128827381D02*
X169547620Y-128779762D01*
X169500001Y-128684524D01*
X169500001Y-127827381D01*
X170023811Y-128827381D02*
X170023811Y-128160714D01*
X170023811Y-127827381D02*
X169976192Y-127875000D01*
X170023811Y-127922619D01*
X170071430Y-127875000D01*
X170023811Y-127827381D01*
X170023811Y-127922619D01*
X170500001Y-128160714D02*
X170500001Y-128827381D01*
X170500001Y-128255952D02*
X170547620Y-128208333D01*
X170642858Y-128160714D01*
X170785716Y-128160714D01*
X170880954Y-128208333D01*
X170928573Y-128303571D01*
X170928573Y-128827381D01*
X171357144Y-128779762D02*
X171452382Y-128827381D01*
X171642858Y-128827381D01*
X171738097Y-128779762D01*
X171785716Y-128684524D01*
X171785716Y-128636905D01*
X171738097Y-128541667D01*
X171642858Y-128494048D01*
X171500001Y-128494048D01*
X171404763Y-128446429D01*
X171357144Y-128351190D01*
X171357144Y-128303571D01*
X171404763Y-128208333D01*
X171500001Y-128160714D01*
X171642858Y-128160714D01*
X171738097Y-128208333D01*
X163261905Y-129577381D02*
X163261905Y-130291667D01*
X163214285Y-130434524D01*
X163119047Y-130529762D01*
X162976190Y-130577381D01*
X162880952Y-130577381D01*
X164166667Y-129910714D02*
X164166667Y-130577381D01*
X163738095Y-129910714D02*
X163738095Y-130434524D01*
X163785714Y-130529762D01*
X163880952Y-130577381D01*
X164023810Y-130577381D01*
X164119048Y-130529762D01*
X164166667Y-130482143D01*
X164785714Y-130577381D02*
X164690476Y-130529762D01*
X164642857Y-130434524D01*
X164642857Y-129577381D01*
X165071429Y-129910714D02*
X165309524Y-130577381D01*
X165547620Y-129910714D02*
X165309524Y-130577381D01*
X165214286Y-130815476D01*
X165166667Y-130863095D01*
X165071429Y-130910714D01*
X166642858Y-129672619D02*
X166690477Y-129625000D01*
X166785715Y-129577381D01*
X167023811Y-129577381D01*
X167119049Y-129625000D01*
X167166668Y-129672619D01*
X167214287Y-129767857D01*
X167214287Y-129863095D01*
X167166668Y-130005952D01*
X166595239Y-130577381D01*
X167214287Y-130577381D01*
X167833334Y-129577381D02*
X167928573Y-129577381D01*
X168023811Y-129625000D01*
X168071430Y-129672619D01*
X168119049Y-129767857D01*
X168166668Y-129958333D01*
X168166668Y-130196429D01*
X168119049Y-130386905D01*
X168071430Y-130482143D01*
X168023811Y-130529762D01*
X167928573Y-130577381D01*
X167833334Y-130577381D01*
X167738096Y-130529762D01*
X167690477Y-130482143D01*
X167642858Y-130386905D01*
X167595239Y-130196429D01*
X167595239Y-129958333D01*
X167642858Y-129767857D01*
X167690477Y-129672619D01*
X167738096Y-129625000D01*
X167833334Y-129577381D01*
X169119049Y-130577381D02*
X168547620Y-130577381D01*
X168833334Y-130577381D02*
X168833334Y-129577381D01*
X168738096Y-129720238D01*
X168642858Y-129815476D01*
X168547620Y-129863095D01*
X169452382Y-129577381D02*
X170119049Y-129577381D01*
X169690477Y-130577381D01*
D12*
X209047619Y-104375000D02*
X208928571Y-104315476D01*
X208750000Y-104315476D01*
X208571428Y-104375000D01*
X208452381Y-104494048D01*
X208392857Y-104613095D01*
X208333333Y-104851190D01*
X208333333Y-105029762D01*
X208392857Y-105267857D01*
X208452381Y-105386905D01*
X208571428Y-105505952D01*
X208750000Y-105565476D01*
X208869048Y-105565476D01*
X209047619Y-105505952D01*
X209107143Y-105446429D01*
X209107143Y-105029762D01*
X208869048Y-105029762D01*
X209642857Y-105565476D02*
X209642857Y-104315476D01*
X210357143Y-105565476D01*
X210357143Y-104315476D01*
X210952381Y-105565476D02*
X210952381Y-104315476D01*
X211250000Y-104315476D01*
X211428572Y-104375000D01*
X211547619Y-104494048D01*
X211607143Y-104613095D01*
X211666667Y-104851190D01*
X211666667Y-105029762D01*
X211607143Y-105267857D01*
X211547619Y-105386905D01*
X211428572Y-105505952D01*
X211250000Y-105565476D01*
X210952381Y-105565476D01*
X209458333Y-116815476D02*
X209696429Y-116815476D01*
X209815476Y-116875000D01*
X209934524Y-116994048D01*
X209994048Y-117232143D01*
X209994048Y-117648810D01*
X209934524Y-117886905D01*
X209815476Y-118005952D01*
X209696429Y-118065476D01*
X209458333Y-118065476D01*
X209339286Y-118005952D01*
X209220238Y-117886905D01*
X209160714Y-117648810D01*
X209160714Y-117232143D01*
X209220238Y-116994048D01*
X209339286Y-116875000D01*
X209458333Y-116815476D01*
X211065476Y-117232143D02*
X211065476Y-118065476D01*
X210529762Y-117232143D02*
X210529762Y-117886905D01*
X210589286Y-118005952D01*
X210708333Y-118065476D01*
X210886905Y-118065476D01*
X211005953Y-118005952D01*
X211065476Y-117946429D01*
X211482143Y-117232143D02*
X211958333Y-117232143D01*
X211660714Y-116815476D02*
X211660714Y-117886905D01*
X211720238Y-118005952D01*
X211839285Y-118065476D01*
X211958333Y-118065476D01*
X163952381Y-119375000D02*
X163833333Y-119315476D01*
X163654762Y-119315476D01*
X163476190Y-119375000D01*
X163357143Y-119494048D01*
X163297619Y-119613095D01*
X163238095Y-119851190D01*
X163238095Y-120029762D01*
X163297619Y-120267857D01*
X163357143Y-120386905D01*
X163476190Y-120505952D01*
X163654762Y-120565476D01*
X163773810Y-120565476D01*
X163952381Y-120505952D01*
X164011905Y-120446429D01*
X164011905Y-120029762D01*
X163773810Y-120029762D01*
X164547619Y-120565476D02*
X164547619Y-119315476D01*
X165261905Y-120565476D01*
X165261905Y-119315476D01*
X165857143Y-120565476D02*
X165857143Y-119315476D01*
X166154762Y-119315476D01*
X166333334Y-119375000D01*
X166452381Y-119494048D01*
X166511905Y-119613095D01*
X166571429Y-119851190D01*
X166571429Y-120029762D01*
X166511905Y-120267857D01*
X166452381Y-120386905D01*
X166333334Y-120505952D01*
X166154762Y-120565476D01*
X165857143Y-120565476D01*
X164297619Y-107565476D02*
X164297619Y-106315476D01*
X164892857Y-106732143D02*
X164892857Y-107565476D01*
X164892857Y-106851190D02*
X164952381Y-106791667D01*
X165071428Y-106732143D01*
X165250000Y-106732143D01*
X165369048Y-106791667D01*
X165428571Y-106910714D01*
X165428571Y-107565476D01*
X205011905Y-118375000D02*
X204892857Y-118315476D01*
X204714286Y-118315476D01*
X204535714Y-118375000D01*
X204416667Y-118494048D01*
X204357143Y-118613095D01*
X204297619Y-118851190D01*
X204297619Y-119029762D01*
X204357143Y-119267857D01*
X204416667Y-119386905D01*
X204535714Y-119505952D01*
X204714286Y-119565476D01*
X204833334Y-119565476D01*
X205011905Y-119505952D01*
X205071429Y-119446429D01*
X205071429Y-119029762D01*
X204833334Y-119029762D01*
X205607143Y-119565476D02*
X205607143Y-118315476D01*
X206321429Y-119565476D01*
X206321429Y-118315476D01*
X206916667Y-119565476D02*
X206916667Y-118315476D01*
X207214286Y-118315476D01*
X207392858Y-118375000D01*
X207511905Y-118494048D01*
X207571429Y-118613095D01*
X207630953Y-118851190D01*
X207630953Y-119029762D01*
X207571429Y-119267857D01*
X207511905Y-119386905D01*
X207392858Y-119505952D01*
X207214286Y-119565476D01*
X206916667Y-119565476D01*
X208107143Y-119208333D02*
X208702381Y-119208333D01*
X207988096Y-119565476D02*
X208404762Y-118315476D01*
X208821429Y-119565476D01*
X203297619Y-123065476D02*
X203297619Y-121815476D01*
X203714286Y-122708333D01*
X204130952Y-121815476D01*
X204130952Y-123065476D01*
X204726190Y-123065476D02*
X204726190Y-122232143D01*
X204726190Y-121815476D02*
X204666666Y-121875000D01*
X204726190Y-121934524D01*
X204785714Y-121875000D01*
X204726190Y-121815476D01*
X204726190Y-121934524D01*
X205857142Y-123065476D02*
X205857142Y-121815476D01*
X205857142Y-123005952D02*
X205738095Y-123065476D01*
X205499999Y-123065476D01*
X205380952Y-123005952D01*
X205321428Y-122946429D01*
X205261904Y-122827381D01*
X205261904Y-122470238D01*
X205321428Y-122351190D01*
X205380952Y-122291667D01*
X205499999Y-122232143D01*
X205738095Y-122232143D01*
X205857142Y-122291667D01*
X206988094Y-123065476D02*
X206988094Y-121815476D01*
X206988094Y-123005952D02*
X206869047Y-123065476D01*
X206630951Y-123065476D01*
X206511904Y-123005952D01*
X206452380Y-122946429D01*
X206392856Y-122827381D01*
X206392856Y-122470238D01*
X206452380Y-122351190D01*
X206511904Y-122291667D01*
X206630951Y-122232143D01*
X206869047Y-122232143D01*
X206988094Y-122291667D01*
X207761903Y-123065476D02*
X207642856Y-123005952D01*
X207583332Y-122886905D01*
X207583332Y-121815476D01*
X208714285Y-123005952D02*
X208595237Y-123065476D01*
X208357142Y-123065476D01*
X208238094Y-123005952D01*
X208178570Y-122886905D01*
X208178570Y-122410714D01*
X208238094Y-122291667D01*
X208357142Y-122232143D01*
X208595237Y-122232143D01*
X208714285Y-122291667D01*
X208773808Y-122410714D01*
X208773808Y-122529762D01*
X208178570Y-122648810D01*
X186202381Y-121815476D02*
X186916666Y-121815476D01*
X186559523Y-123065476D02*
X186559523Y-121815476D01*
X187333333Y-123065476D02*
X187333333Y-122232143D01*
X187333333Y-121815476D02*
X187273809Y-121875000D01*
X187333333Y-121934524D01*
X187392857Y-121875000D01*
X187333333Y-121815476D01*
X187333333Y-121934524D01*
X188107142Y-123065476D02*
X187988095Y-123005952D01*
X187928571Y-122886905D01*
X187928571Y-121815476D01*
X188404762Y-122232143D02*
X188880952Y-122232143D01*
X188583333Y-121815476D02*
X188583333Y-122886905D01*
X188642857Y-123005952D01*
X188761904Y-123065476D01*
X188880952Y-123065476D01*
D13*
X183770000Y-114040000D02*
X183770000Y-119120000D01*
X183770000Y-119120000D02*
X181230000Y-119120000D01*
X181230000Y-119120000D02*
X181230000Y-114040000D01*
X181230000Y-114040000D02*
X183770000Y-114040000D01*
X182500000Y-114040000D02*
X182500000Y-112770000D01*
X182500000Y-119120000D02*
X182500000Y-120390000D01*
X168649845Y-115250353D02*
G75*
G03X168650000Y-116750000I1700155J-749647D01*
G01*
X168649845Y-110170353D02*
G75*
G03X168650000Y-111670000I1700155J-749647D01*
G01*
X162070000Y-118620000D02*
X169480000Y-118620000D01*
X169480000Y-118620000D02*
X169480000Y-108300000D01*
X169480000Y-108300000D02*
X162070000Y-108300000D01*
X162070000Y-108300000D02*
X162070000Y-118620000D01*
X168650000Y-116750000D02*
X168650000Y-117500000D01*
X168650000Y-117500000D02*
X164350000Y-117500000D01*
X164350000Y-117500000D02*
X164350000Y-116750000D01*
X164350000Y-116750000D02*
X164000000Y-116750000D01*
X164000000Y-116750000D02*
X164000000Y-117250000D01*
X164000000Y-117250000D02*
X163000000Y-117500000D01*
X163000000Y-117500000D02*
X163000000Y-114500000D01*
X163000000Y-114500000D02*
X164000000Y-114750000D01*
X164000000Y-114750000D02*
X164000000Y-115250000D01*
X164000000Y-115250000D02*
X164350000Y-115250000D01*
X164350000Y-115250000D02*
X164350000Y-115250000D01*
X164350000Y-115250000D02*
X164350000Y-114500000D01*
X164350000Y-114500000D02*
X168650000Y-114500000D01*
X168650000Y-114500000D02*
X168650000Y-115250000D01*
X168650000Y-111670000D02*
X168650000Y-112420000D01*
X168650000Y-112420000D02*
X164350000Y-112420000D01*
X164350000Y-112420000D02*
X164350000Y-111670000D01*
X164350000Y-111670000D02*
X164000000Y-111670000D01*
X164000000Y-111670000D02*
X164000000Y-112170000D01*
X164000000Y-112170000D02*
X163000000Y-112420000D01*
X163000000Y-112420000D02*
X163000000Y-109420000D01*
X163000000Y-109420000D02*
X164000000Y-109670000D01*
X164000000Y-109670000D02*
X164000000Y-110170000D01*
X164000000Y-110170000D02*
X164350000Y-110170000D01*
X164350000Y-110170000D02*
X164350000Y-110170000D01*
X164350000Y-110170000D02*
X164350000Y-109420000D01*
X164350000Y-109420000D02*
X168650000Y-109420000D01*
X168650000Y-109420000D02*
X168650000Y-110170000D01*
X161650000Y-116000000D02*
X161050000Y-115700000D01*
X161050000Y-115700000D02*
X161050000Y-116300000D01*
X161050000Y-116300000D02*
X161650000Y-116000000D01*
X205350155Y-109249647D02*
G75*
G03X205350000Y-107750000I-1700155J749647D01*
G01*
X205350155Y-114329647D02*
G75*
G03X205350000Y-112830000I-1700155J749647D01*
G01*
X211930000Y-105880000D02*
X204520000Y-105880000D01*
X204520000Y-105880000D02*
X204520000Y-116200000D01*
X204520000Y-116200000D02*
X211930000Y-116200000D01*
X211930000Y-116200000D02*
X211930000Y-105880000D01*
X205350000Y-107750000D02*
X205350000Y-107000000D01*
X205350000Y-107000000D02*
X209650000Y-107000000D01*
X209650000Y-107000000D02*
X209650000Y-107750000D01*
X209650000Y-107750000D02*
X210000000Y-107750000D01*
X210000000Y-107750000D02*
X210000000Y-107250000D01*
X210000000Y-107250000D02*
X211000000Y-107000000D01*
X211000000Y-107000000D02*
X211000000Y-110000000D01*
X211000000Y-110000000D02*
X210000000Y-109750000D01*
X210000000Y-109750000D02*
X210000000Y-109250000D01*
X210000000Y-109250000D02*
X209650000Y-109250000D01*
X209650000Y-109250000D02*
X209650000Y-109250000D01*
X209650000Y-109250000D02*
X209650000Y-110000000D01*
X209650000Y-110000000D02*
X205350000Y-110000000D01*
X205350000Y-110000000D02*
X205350000Y-109250000D01*
X205350000Y-112830000D02*
X205350000Y-112080000D01*
X205350000Y-112080000D02*
X209650000Y-112080000D01*
X209650000Y-112080000D02*
X209650000Y-112830000D01*
X209650000Y-112830000D02*
X210000000Y-112830000D01*
X210000000Y-112830000D02*
X210000000Y-112330000D01*
X210000000Y-112330000D02*
X211000000Y-112080000D01*
X211000000Y-112080000D02*
X211000000Y-115080000D01*
X211000000Y-115080000D02*
X210000000Y-114830000D01*
X210000000Y-114830000D02*
X210000000Y-114330000D01*
X210000000Y-114330000D02*
X209650000Y-114330000D01*
X209650000Y-114330000D02*
X209650000Y-114330000D01*
X209650000Y-114330000D02*
X209650000Y-115080000D01*
X209650000Y-115080000D02*
X205350000Y-115080000D01*
X205350000Y-115080000D02*
X205350000Y-114330000D01*
X212350000Y-108500000D02*
X212950000Y-108800000D01*
X212950000Y-108800000D02*
X212950000Y-108200000D01*
X212950000Y-108200000D02*
X212350000Y-108500000D01*
X194540000Y-119730000D02*
X199620000Y-119730000D01*
X199620000Y-119730000D02*
X199620000Y-122270000D01*
X199620000Y-122270000D02*
X194540000Y-122270000D01*
X194540000Y-122270000D02*
X194540000Y-119730000D01*
X194540000Y-121000000D02*
X193270000Y-121000000D01*
X199620000Y-121000000D02*
X200890000Y-121000000D01*
X192250353Y-124350155D02*
G75*
G03X193750000Y-124350000I749647J1700155D01*
G01*
X187170353Y-124350155D02*
G75*
G03X188670000Y-124350000I749647J1700155D01*
G01*
X182090353Y-124350155D02*
G75*
G03X183590000Y-124350000I749647J1700155D01*
G01*
X195620000Y-130930000D02*
X195620000Y-123520000D01*
X195620000Y-123520000D02*
X180220000Y-123520000D01*
X180220000Y-123520000D02*
X180220000Y-130930000D01*
X180220000Y-130930000D02*
X195620000Y-130930000D01*
X193750000Y-124350000D02*
X194500000Y-124350000D01*
X194500000Y-124350000D02*
X194500000Y-128650000D01*
X194500000Y-128650000D02*
X193750000Y-128650000D01*
X193750000Y-128650000D02*
X193750000Y-129000000D01*
X193750000Y-129000000D02*
X194250000Y-129000000D01*
X194250000Y-129000000D02*
X194500000Y-130000000D01*
X194500000Y-130000000D02*
X191500000Y-130000000D01*
X191500000Y-130000000D02*
X191750000Y-129000000D01*
X191750000Y-129000000D02*
X192250000Y-129000000D01*
X192250000Y-129000000D02*
X192250000Y-128650000D01*
X192250000Y-128650000D02*
X192250000Y-128650000D01*
X192250000Y-128650000D02*
X191500000Y-128650000D01*
X191500000Y-128650000D02*
X191500000Y-124350000D01*
X191500000Y-124350000D02*
X192250000Y-124350000D01*
X188670000Y-124350000D02*
X189420000Y-124350000D01*
X189420000Y-124350000D02*
X189420000Y-128650000D01*
X189420000Y-128650000D02*
X188670000Y-128650000D01*
X188670000Y-128650000D02*
X188670000Y-129000000D01*
X188670000Y-129000000D02*
X189170000Y-129000000D01*
X189170000Y-129000000D02*
X189420000Y-130000000D01*
X189420000Y-130000000D02*
X186420000Y-130000000D01*
X186420000Y-130000000D02*
X186670000Y-129000000D01*
X186670000Y-129000000D02*
X187170000Y-129000000D01*
X187170000Y-129000000D02*
X187170000Y-128650000D01*
X187170000Y-128650000D02*
X187170000Y-128650000D01*
X187170000Y-128650000D02*
X186420000Y-128650000D01*
X186420000Y-128650000D02*
X186420000Y-124350000D01*
X186420000Y-124350000D02*
X187170000Y-124350000D01*
X183590000Y-124350000D02*
X184340000Y-124350000D01*
X184340000Y-124350000D02*
X184340000Y-128650000D01*
X184340000Y-128650000D02*
X183590000Y-128650000D01*
X183590000Y-128650000D02*
X183590000Y-129000000D01*
X183590000Y-129000000D02*
X184090000Y-129000000D01*
X184090000Y-129000000D02*
X184340000Y-130000000D01*
X184340000Y-130000000D02*
X181340000Y-130000000D01*
X181340000Y-130000000D02*
X181590000Y-129000000D01*
X181590000Y-129000000D02*
X182090000Y-129000000D01*
X182090000Y-129000000D02*
X182090000Y-128650000D01*
X182090000Y-128650000D02*
X182090000Y-128650000D01*
X182090000Y-128650000D02*
X181340000Y-128650000D01*
X181340000Y-128650000D02*
X181340000Y-124350000D01*
X181340000Y-124350000D02*
X182090000Y-124350000D01*
X193000000Y-131350000D02*
X192700000Y-131950000D01*
X192700000Y-131950000D02*
X193300000Y-131950000D01*
X193300000Y-131950000D02*
X193000000Y-131350000D01*
X208750353Y-124350155D02*
G75*
G03X210250000Y-124350000I749647J1700155D01*
G01*
X203670353Y-124350155D02*
G75*
G03X205170000Y-124350000I749647J1700155D01*
G01*
X198590353Y-124350155D02*
G75*
G03X200090000Y-124350000I749647J1700155D01*
G01*
X212120000Y-130930000D02*
X212120000Y-123520000D01*
X212120000Y-123520000D02*
X196720000Y-123520000D01*
X196720000Y-123520000D02*
X196720000Y-130930000D01*
X196720000Y-130930000D02*
X212120000Y-130930000D01*
X210250000Y-124350000D02*
X211000000Y-124350000D01*
X211000000Y-124350000D02*
X211000000Y-128650000D01*
X211000000Y-128650000D02*
X210250000Y-128650000D01*
X210250000Y-128650000D02*
X210250000Y-129000000D01*
X210250000Y-129000000D02*
X210750000Y-129000000D01*
X210750000Y-129000000D02*
X211000000Y-130000000D01*
X211000000Y-130000000D02*
X208000000Y-130000000D01*
X208000000Y-130000000D02*
X208250000Y-129000000D01*
X208250000Y-129000000D02*
X208750000Y-129000000D01*
X208750000Y-129000000D02*
X208750000Y-128650000D01*
X208750000Y-128650000D02*
X208750000Y-128650000D01*
X208750000Y-128650000D02*
X208000000Y-128650000D01*
X208000000Y-128650000D02*
X208000000Y-124350000D01*
X208000000Y-124350000D02*
X208750000Y-124350000D01*
X205170000Y-124350000D02*
X205920000Y-124350000D01*
X205920000Y-124350000D02*
X205920000Y-128650000D01*
X205920000Y-128650000D02*
X205170000Y-128650000D01*
X205170000Y-128650000D02*
X205170000Y-129000000D01*
X205170000Y-129000000D02*
X205670000Y-129000000D01*
X205670000Y-129000000D02*
X205920000Y-130000000D01*
X205920000Y-130000000D02*
X202920000Y-130000000D01*
X202920000Y-130000000D02*
X203170000Y-129000000D01*
X203170000Y-129000000D02*
X203670000Y-129000000D01*
X203670000Y-129000000D02*
X203670000Y-128650000D01*
X203670000Y-128650000D02*
X203670000Y-128650000D01*
X203670000Y-128650000D02*
X202920000Y-128650000D01*
X202920000Y-128650000D02*
X202920000Y-124350000D01*
X202920000Y-124350000D02*
X203670000Y-124350000D01*
X200090000Y-124350000D02*
X200840000Y-124350000D01*
X200840000Y-124350000D02*
X200840000Y-128650000D01*
X200840000Y-128650000D02*
X200090000Y-128650000D01*
X200090000Y-128650000D02*
X200090000Y-129000000D01*
X200090000Y-129000000D02*
X200590000Y-129000000D01*
X200590000Y-129000000D02*
X200840000Y-130000000D01*
X200840000Y-130000000D02*
X197840000Y-130000000D01*
X197840000Y-130000000D02*
X198090000Y-129000000D01*
X198090000Y-129000000D02*
X198590000Y-129000000D01*
X198590000Y-129000000D02*
X198590000Y-128650000D01*
X198590000Y-128650000D02*
X198590000Y-128650000D01*
X198590000Y-128650000D02*
X197840000Y-128650000D01*
X197840000Y-128650000D02*
X197840000Y-124350000D01*
X197840000Y-124350000D02*
X198590000Y-124350000D01*
X209500000Y-131350000D02*
X209200000Y-131950000D01*
X209200000Y-131950000D02*
X209800000Y-131950000D01*
X209800000Y-131950000D02*
X209500000Y-131350000D01*
D14*
X186060000Y-99440000D02*
X186060000Y-107060000D01*
X180940000Y-99440000D02*
X180940000Y-107060000D01*
X186060000Y-99440000D02*
X184695000Y-99440000D01*
X182305000Y-99440000D02*
X180940000Y-99440000D01*
X186060000Y-107060000D02*
X184695000Y-107060000D01*
X182305000Y-107060000D02*
X180940000Y-107060000D01*
X179810000Y-102190000D02*
X170190000Y-102190000D01*
X170190000Y-102190000D02*
X170190000Y-124310000D01*
X170190000Y-124310000D02*
X179810000Y-124310000D01*
X179810000Y-124310000D02*
X179810000Y-102190000D01*
X175000000Y-100480000D02*
X175000000Y-102190000D01*
X175000000Y-126020000D02*
X175000000Y-124310000D01*
X188940000Y-105190000D02*
X188940000Y-111810000D01*
X188940000Y-111810000D02*
X201060000Y-111810000D01*
X201060000Y-111810000D02*
X201060000Y-105190000D01*
X201060000Y-105190000D02*
X188940000Y-105190000D01*
X188480000Y-108500000D02*
X188940000Y-108500000D01*
X201520000Y-108500000D02*
X201060000Y-108500000D01*
X188940000Y-98190000D02*
X188940000Y-104810000D01*
X188940000Y-104810000D02*
X201060000Y-104810000D01*
X201060000Y-104810000D02*
X201060000Y-98190000D01*
X201060000Y-98190000D02*
X188940000Y-98190000D01*
X188480000Y-101500000D02*
X188940000Y-101500000D01*
X201520000Y-101500000D02*
X201060000Y-101500000D01*
X188940000Y-112190000D02*
X188940000Y-118810000D01*
X188940000Y-118810000D02*
X201060000Y-118810000D01*
X201060000Y-118810000D02*
X201060000Y-112190000D01*
X201060000Y-112190000D02*
X188940000Y-112190000D01*
X188480000Y-115500000D02*
X188940000Y-115500000D01*
X201520000Y-115500000D02*
X201060000Y-115500000D01*
M02*
