G04 #@! TF.FileFunction,Copper,L1,Top,Signal*
%FSLAX46Y46*%
G04 Gerber Fmt 4.6, Leading zero omitted, Abs format (unit mm)*
G04 Created by KiCad (PCBNEW 4.0.6) date Friday, 28 July 2017 'PMt' 19:56:44*
%MOMM*%
%LPD*%
G01*
G04 APERTURE LIST*
%ADD10C,0.100000*%
%ADD11C,1.998980*%
%ADD12R,3.600000X1.800000*%
%ADD13O,3.600000X1.800000*%
%ADD14R,1.800000X3.600000*%
%ADD15O,1.800000X3.600000*%
%ADD16C,2.499360*%
%ADD17C,2.000000*%
%ADD18C,1.600000*%
%ADD19O,1.600000X1.600000*%
%ADD20C,1.000000*%
%ADD21C,0.400000*%
G04 APERTURE END LIST*
D10*
D11*
X182500000Y-111500000D03*
X182500000Y-121660000D03*
D12*
X166500000Y-116000000D03*
D13*
X166500000Y-110920000D03*
D12*
X207500000Y-108500000D03*
D13*
X207500000Y-113580000D03*
D11*
X192000000Y-121000000D03*
X202160000Y-121000000D03*
D14*
X193000000Y-126500000D03*
D15*
X187920000Y-126500000D03*
X182840000Y-126500000D03*
D14*
X209500000Y-126500000D03*
D15*
X204420000Y-126500000D03*
X199340000Y-126500000D03*
D16*
X208500000Y-121000000D03*
D17*
X183500000Y-99500000D03*
X183500000Y-107000000D03*
D18*
X175000000Y-99500000D03*
D19*
X175000000Y-127000000D03*
D18*
X187500000Y-108500000D03*
D19*
X202500000Y-108500000D03*
D18*
X187500000Y-101500000D03*
D19*
X202500000Y-101500000D03*
D18*
X187500000Y-115500000D03*
D19*
X202500000Y-115500000D03*
D20*
X192000000Y-121000000D02*
X192000000Y-116500000D01*
X192000000Y-116500000D02*
X183500000Y-108000000D01*
X183500000Y-108000000D02*
X183500000Y-107000000D01*
X182840000Y-126500000D02*
X182840000Y-126160000D01*
X182840000Y-126160000D02*
X185500000Y-123500000D01*
X201420000Y-123500000D02*
X204420000Y-126500000D01*
X185500000Y-123500000D02*
X201420000Y-123500000D01*
X202500000Y-108500000D02*
X200000000Y-111000000D01*
X206000000Y-123000000D02*
X209500000Y-126500000D01*
X206000000Y-120000000D02*
X206000000Y-123000000D01*
X204000000Y-118000000D02*
X206000000Y-120000000D01*
X201000000Y-118000000D02*
X204000000Y-118000000D01*
X200000000Y-117000000D02*
X201000000Y-118000000D01*
X200000000Y-111000000D02*
X200000000Y-117000000D01*
X202160000Y-121000000D02*
X199000000Y-121000000D01*
X198500000Y-101500000D02*
X202500000Y-101500000D01*
X195500000Y-104500000D02*
X198500000Y-101500000D01*
X195500000Y-117500000D02*
X195500000Y-104500000D01*
X199000000Y-121000000D02*
X195500000Y-117500000D01*
D21*
G36*
X173474924Y-98479051D02*
X173200313Y-99140387D01*
X173199688Y-99856471D01*
X173473145Y-100518286D01*
X173979051Y-101025076D01*
X174640387Y-101299687D01*
X175356471Y-101300312D01*
X176018286Y-101026855D01*
X176525076Y-100520949D01*
X176799687Y-99859613D01*
X176800312Y-99143529D01*
X176526855Y-98481714D01*
X176120850Y-98075000D01*
X182096591Y-98075000D01*
X181805471Y-98365612D01*
X181500348Y-99100430D01*
X181499654Y-99896079D01*
X181803494Y-100631429D01*
X182365612Y-101194529D01*
X183100430Y-101499652D01*
X183896079Y-101500346D01*
X184631429Y-101196506D01*
X185194529Y-100634388D01*
X185499652Y-99899570D01*
X185500346Y-99103921D01*
X185196506Y-98368571D01*
X184903447Y-98075000D01*
X211925000Y-98075000D01*
X211925000Y-130925000D01*
X161075000Y-130925000D01*
X161075000Y-126964736D01*
X173200000Y-126964736D01*
X173200000Y-127035264D01*
X173337017Y-127724094D01*
X173727208Y-128308056D01*
X174311170Y-128698247D01*
X175000000Y-128835264D01*
X175688830Y-128698247D01*
X176272792Y-128308056D01*
X176662983Y-127724094D01*
X176800000Y-127035264D01*
X176800000Y-126964736D01*
X176662983Y-126275906D01*
X176272792Y-125691944D01*
X175688830Y-125301753D01*
X175000000Y-125164736D01*
X174311170Y-125301753D01*
X173727208Y-125691944D01*
X173337017Y-126275906D01*
X173200000Y-126964736D01*
X161075000Y-126964736D01*
X161075000Y-116600000D01*
X163500000Y-116600000D01*
X163500000Y-117138695D01*
X163682689Y-117579746D01*
X164020255Y-117917311D01*
X164461305Y-118100000D01*
X165900000Y-118100000D01*
X166200000Y-117800000D01*
X166200000Y-116300000D01*
X166800000Y-116300000D01*
X166800000Y-117800000D01*
X167100000Y-118100000D01*
X168538695Y-118100000D01*
X168979745Y-117917311D01*
X169317311Y-117579746D01*
X169500000Y-117138695D01*
X169500000Y-116600000D01*
X169200000Y-116300000D01*
X166800000Y-116300000D01*
X166200000Y-116300000D01*
X163800000Y-116300000D01*
X163500000Y-116600000D01*
X161075000Y-116600000D01*
X161075000Y-114861305D01*
X163500000Y-114861305D01*
X163500000Y-115400000D01*
X163800000Y-115700000D01*
X166200000Y-115700000D01*
X166200000Y-114200000D01*
X166800000Y-114200000D01*
X166800000Y-115700000D01*
X169200000Y-115700000D01*
X169500000Y-115400000D01*
X169500000Y-114861305D01*
X169317311Y-114420254D01*
X168979745Y-114082689D01*
X168538695Y-113900000D01*
X167100000Y-113900000D01*
X166800000Y-114200000D01*
X166200000Y-114200000D01*
X165900000Y-113900000D01*
X164461305Y-113900000D01*
X164020255Y-114082689D01*
X163682689Y-114420254D01*
X163500000Y-114861305D01*
X161075000Y-114861305D01*
X161075000Y-110920000D01*
X163645145Y-110920000D01*
X163789774Y-111647099D01*
X164201642Y-112263503D01*
X164818046Y-112675371D01*
X165545145Y-112820000D01*
X167454855Y-112820000D01*
X168181954Y-112675371D01*
X168798358Y-112263503D01*
X169043930Y-111895978D01*
X180500164Y-111895978D01*
X180803927Y-112631140D01*
X181365901Y-113194096D01*
X182100532Y-113499142D01*
X182895978Y-113499836D01*
X183631140Y-113196073D01*
X184194096Y-112634099D01*
X184499142Y-111899468D01*
X184499821Y-111121141D01*
X187097420Y-113718740D01*
X186481714Y-113973145D01*
X185974924Y-114479051D01*
X185700313Y-115140387D01*
X185699688Y-115856471D01*
X185973145Y-116518286D01*
X186479051Y-117025076D01*
X187140387Y-117299687D01*
X187856471Y-117300312D01*
X188518286Y-117026855D01*
X189025076Y-116520949D01*
X189281674Y-115902994D01*
X190500000Y-117121320D01*
X190500000Y-119672144D01*
X190305904Y-119865901D01*
X190000858Y-120600532D01*
X190000164Y-121395978D01*
X190249741Y-122000000D01*
X185500000Y-122000000D01*
X184925975Y-122114181D01*
X184439340Y-122439340D01*
X184271862Y-122606818D01*
X184499142Y-122059468D01*
X184499836Y-121264022D01*
X184196073Y-120528860D01*
X183634099Y-119965904D01*
X182899468Y-119660858D01*
X182104022Y-119660164D01*
X181368860Y-119963927D01*
X180805904Y-120525901D01*
X180500858Y-121260532D01*
X180500164Y-122055978D01*
X180803927Y-122791140D01*
X181365901Y-123354096D01*
X182100532Y-123659142D01*
X182766710Y-123659723D01*
X182112901Y-123789774D01*
X181496497Y-124201642D01*
X181084629Y-124818046D01*
X180940000Y-125545145D01*
X180940000Y-127454855D01*
X181084629Y-128181954D01*
X181496497Y-128798358D01*
X182112901Y-129210226D01*
X182840000Y-129354855D01*
X183567099Y-129210226D01*
X184183503Y-128798358D01*
X184595371Y-128181954D01*
X184740000Y-127454855D01*
X184740000Y-126381320D01*
X186121320Y-125000000D01*
X186128436Y-125000000D01*
X186020000Y-125545145D01*
X186020000Y-127454855D01*
X186164629Y-128181954D01*
X186576497Y-128798358D01*
X187192901Y-129210226D01*
X187920000Y-129354855D01*
X188647099Y-129210226D01*
X189263503Y-128798358D01*
X189675371Y-128181954D01*
X189820000Y-127454855D01*
X189820000Y-125545145D01*
X189711564Y-125000000D01*
X191080409Y-125000000D01*
X191080409Y-128300000D01*
X191150138Y-128670578D01*
X191369149Y-129010931D01*
X191703322Y-129239262D01*
X192100000Y-129319591D01*
X193900000Y-129319591D01*
X194270578Y-129249862D01*
X194610931Y-129030851D01*
X194839262Y-128696678D01*
X194919591Y-128300000D01*
X194919591Y-125000000D01*
X197548436Y-125000000D01*
X197440000Y-125545145D01*
X197440000Y-127454855D01*
X197584629Y-128181954D01*
X197996497Y-128798358D01*
X198612901Y-129210226D01*
X199340000Y-129354855D01*
X200067099Y-129210226D01*
X200683503Y-128798358D01*
X201095371Y-128181954D01*
X201240000Y-127454855D01*
X201240000Y-125545145D01*
X201214220Y-125415540D01*
X202520000Y-126721320D01*
X202520000Y-127454855D01*
X202664629Y-128181954D01*
X203076497Y-128798358D01*
X203692901Y-129210226D01*
X204420000Y-129354855D01*
X205147099Y-129210226D01*
X205763503Y-128798358D01*
X206175371Y-128181954D01*
X206320000Y-127454855D01*
X206320000Y-125545145D01*
X206294220Y-125415540D01*
X207580409Y-126701730D01*
X207580409Y-128300000D01*
X207650138Y-128670578D01*
X207869149Y-129010931D01*
X208203322Y-129239262D01*
X208600000Y-129319591D01*
X210400000Y-129319591D01*
X210770578Y-129249862D01*
X211110931Y-129030851D01*
X211339262Y-128696678D01*
X211419591Y-128300000D01*
X211419591Y-124700000D01*
X211349862Y-124329422D01*
X211130851Y-123989069D01*
X210796678Y-123760738D01*
X210400000Y-123680409D01*
X208801729Y-123680409D01*
X208370889Y-123249569D01*
X208945526Y-123250070D01*
X209772677Y-122908298D01*
X210406074Y-122276005D01*
X210749289Y-121449452D01*
X210750070Y-120554474D01*
X210408298Y-119727323D01*
X209776005Y-119093926D01*
X208949452Y-118750711D01*
X208054474Y-118749930D01*
X207227323Y-119091702D01*
X207188416Y-119130541D01*
X207060660Y-118939340D01*
X205060660Y-116939340D01*
X204574025Y-116614181D01*
X204000000Y-116500000D01*
X203990330Y-116500000D01*
X204198247Y-116188830D01*
X204335264Y-115500000D01*
X204198247Y-114811170D01*
X203808056Y-114227208D01*
X203224094Y-113837017D01*
X202535264Y-113700000D01*
X202464736Y-113700000D01*
X201775906Y-113837017D01*
X201500000Y-114021372D01*
X201500000Y-113580000D01*
X204645145Y-113580000D01*
X204789774Y-114307099D01*
X205201642Y-114923503D01*
X205818046Y-115335371D01*
X206545145Y-115480000D01*
X208454855Y-115480000D01*
X209181954Y-115335371D01*
X209798358Y-114923503D01*
X210210226Y-114307099D01*
X210354855Y-113580000D01*
X210210226Y-112852901D01*
X209798358Y-112236497D01*
X209181954Y-111824629D01*
X208454855Y-111680000D01*
X206545145Y-111680000D01*
X205818046Y-111824629D01*
X205201642Y-112236497D01*
X204789774Y-112852901D01*
X204645145Y-113580000D01*
X201500000Y-113580000D01*
X201500000Y-111621320D01*
X202892349Y-110228971D01*
X203224094Y-110162983D01*
X203808056Y-109772792D01*
X204198247Y-109188830D01*
X204215916Y-109100000D01*
X204500000Y-109100000D01*
X204500000Y-109638695D01*
X204682689Y-110079746D01*
X205020255Y-110417311D01*
X205461305Y-110600000D01*
X206900000Y-110600000D01*
X207200000Y-110300000D01*
X207200000Y-108800000D01*
X207800000Y-108800000D01*
X207800000Y-110300000D01*
X208100000Y-110600000D01*
X209538695Y-110600000D01*
X209979745Y-110417311D01*
X210317311Y-110079746D01*
X210500000Y-109638695D01*
X210500000Y-109100000D01*
X210200000Y-108800000D01*
X207800000Y-108800000D01*
X207200000Y-108800000D01*
X204800000Y-108800000D01*
X204500000Y-109100000D01*
X204215916Y-109100000D01*
X204335264Y-108500000D01*
X204198247Y-107811170D01*
X203897657Y-107361305D01*
X204500000Y-107361305D01*
X204500000Y-107900000D01*
X204800000Y-108200000D01*
X207200000Y-108200000D01*
X207200000Y-106700000D01*
X207800000Y-106700000D01*
X207800000Y-108200000D01*
X210200000Y-108200000D01*
X210500000Y-107900000D01*
X210500000Y-107361305D01*
X210317311Y-106920254D01*
X209979745Y-106582689D01*
X209538695Y-106400000D01*
X208100000Y-106400000D01*
X207800000Y-106700000D01*
X207200000Y-106700000D01*
X206900000Y-106400000D01*
X205461305Y-106400000D01*
X205020255Y-106582689D01*
X204682689Y-106920254D01*
X204500000Y-107361305D01*
X203897657Y-107361305D01*
X203808056Y-107227208D01*
X203224094Y-106837017D01*
X202535264Y-106700000D01*
X202464736Y-106700000D01*
X201775906Y-106837017D01*
X201191944Y-107227208D01*
X200801753Y-107811170D01*
X200735765Y-108142915D01*
X198939340Y-109939340D01*
X198614181Y-110425975D01*
X198500000Y-111000000D01*
X198500000Y-117000000D01*
X198614181Y-117574025D01*
X198939340Y-118060660D01*
X199939340Y-119060660D01*
X200425975Y-119385819D01*
X200860284Y-119472209D01*
X200832444Y-119500000D01*
X199621321Y-119500000D01*
X197000000Y-116878680D01*
X197000000Y-105121320D01*
X199121320Y-103000000D01*
X201531985Y-103000000D01*
X201775906Y-103162983D01*
X202464736Y-103300000D01*
X202535264Y-103300000D01*
X203224094Y-103162983D01*
X203808056Y-102772792D01*
X204198247Y-102188830D01*
X204332299Y-101514903D01*
X206399550Y-101514903D01*
X206794542Y-102470858D01*
X207525295Y-103202887D01*
X208480559Y-103599548D01*
X209514903Y-103600450D01*
X210470858Y-103205458D01*
X211202887Y-102474705D01*
X211599548Y-101519441D01*
X211600450Y-100485097D01*
X211205458Y-99529142D01*
X210474705Y-98797113D01*
X209519441Y-98400452D01*
X208485097Y-98399550D01*
X207529142Y-98794542D01*
X206797113Y-99525295D01*
X206400452Y-100480559D01*
X206399550Y-101514903D01*
X204332299Y-101514903D01*
X204335264Y-101500000D01*
X204198247Y-100811170D01*
X203808056Y-100227208D01*
X203224094Y-99837017D01*
X202535264Y-99700000D01*
X202464736Y-99700000D01*
X201775906Y-99837017D01*
X201531985Y-100000000D01*
X198500000Y-100000000D01*
X197925975Y-100114181D01*
X197439340Y-100439340D01*
X194439340Y-103439340D01*
X194114181Y-103925975D01*
X194000000Y-104500000D01*
X194000000Y-117500000D01*
X194114181Y-118074025D01*
X194439340Y-118560660D01*
X197878679Y-122000000D01*
X193749779Y-122000000D01*
X193999142Y-121399468D01*
X193999836Y-120604022D01*
X193696073Y-119868860D01*
X193500000Y-119672444D01*
X193500000Y-116500000D01*
X193385819Y-115925975D01*
X193060660Y-115439340D01*
X187902580Y-110281260D01*
X188518286Y-110026855D01*
X189025076Y-109520949D01*
X189299687Y-108859613D01*
X189300312Y-108143529D01*
X189026855Y-107481714D01*
X188520949Y-106974924D01*
X187859613Y-106700313D01*
X187143529Y-106699688D01*
X186481714Y-106973145D01*
X185974924Y-107479051D01*
X185718326Y-108097006D01*
X185359181Y-107737861D01*
X185499652Y-107399570D01*
X185500346Y-106603921D01*
X185196506Y-105868571D01*
X184634388Y-105305471D01*
X183899570Y-105000348D01*
X183103921Y-104999654D01*
X182368571Y-105303494D01*
X181805471Y-105865612D01*
X181500348Y-106600430D01*
X181499654Y-107396079D01*
X181803494Y-108131429D01*
X182081548Y-108409969D01*
X182114181Y-108574025D01*
X182439340Y-109060660D01*
X182879521Y-109500841D01*
X182104022Y-109500164D01*
X181368860Y-109803927D01*
X180805904Y-110365901D01*
X180500858Y-111100532D01*
X180500164Y-111895978D01*
X169043930Y-111895978D01*
X169210226Y-111647099D01*
X169354855Y-110920000D01*
X169210226Y-110192901D01*
X168798358Y-109576497D01*
X168181954Y-109164629D01*
X167454855Y-109020000D01*
X165545145Y-109020000D01*
X164818046Y-109164629D01*
X164201642Y-109576497D01*
X163789774Y-110192901D01*
X163645145Y-110920000D01*
X161075000Y-110920000D01*
X161075000Y-101514903D01*
X161399550Y-101514903D01*
X161794542Y-102470858D01*
X162525295Y-103202887D01*
X163480559Y-103599548D01*
X164514903Y-103600450D01*
X165470858Y-103205458D01*
X166202887Y-102474705D01*
X166459600Y-101856471D01*
X185699688Y-101856471D01*
X185973145Y-102518286D01*
X186479051Y-103025076D01*
X187140387Y-103299687D01*
X187856471Y-103300312D01*
X188518286Y-103026855D01*
X189025076Y-102520949D01*
X189299687Y-101859613D01*
X189300312Y-101143529D01*
X189026855Y-100481714D01*
X188520949Y-99974924D01*
X187859613Y-99700313D01*
X187143529Y-99699688D01*
X186481714Y-99973145D01*
X185974924Y-100479051D01*
X185700313Y-101140387D01*
X185699688Y-101856471D01*
X166459600Y-101856471D01*
X166599548Y-101519441D01*
X166600450Y-100485097D01*
X166205458Y-99529142D01*
X165474705Y-98797113D01*
X164519441Y-98400452D01*
X163485097Y-98399550D01*
X162529142Y-98794542D01*
X161797113Y-99525295D01*
X161400452Y-100480559D01*
X161399550Y-101514903D01*
X161075000Y-101514903D01*
X161075000Y-98075000D01*
X173879681Y-98075000D01*
X173474924Y-98479051D01*
X173474924Y-98479051D01*
G37*
X173474924Y-98479051D02*
X173200313Y-99140387D01*
X173199688Y-99856471D01*
X173473145Y-100518286D01*
X173979051Y-101025076D01*
X174640387Y-101299687D01*
X175356471Y-101300312D01*
X176018286Y-101026855D01*
X176525076Y-100520949D01*
X176799687Y-99859613D01*
X176800312Y-99143529D01*
X176526855Y-98481714D01*
X176120850Y-98075000D01*
X182096591Y-98075000D01*
X181805471Y-98365612D01*
X181500348Y-99100430D01*
X181499654Y-99896079D01*
X181803494Y-100631429D01*
X182365612Y-101194529D01*
X183100430Y-101499652D01*
X183896079Y-101500346D01*
X184631429Y-101196506D01*
X185194529Y-100634388D01*
X185499652Y-99899570D01*
X185500346Y-99103921D01*
X185196506Y-98368571D01*
X184903447Y-98075000D01*
X211925000Y-98075000D01*
X211925000Y-130925000D01*
X161075000Y-130925000D01*
X161075000Y-126964736D01*
X173200000Y-126964736D01*
X173200000Y-127035264D01*
X173337017Y-127724094D01*
X173727208Y-128308056D01*
X174311170Y-128698247D01*
X175000000Y-128835264D01*
X175688830Y-128698247D01*
X176272792Y-128308056D01*
X176662983Y-127724094D01*
X176800000Y-127035264D01*
X176800000Y-126964736D01*
X176662983Y-126275906D01*
X176272792Y-125691944D01*
X175688830Y-125301753D01*
X175000000Y-125164736D01*
X174311170Y-125301753D01*
X173727208Y-125691944D01*
X173337017Y-126275906D01*
X173200000Y-126964736D01*
X161075000Y-126964736D01*
X161075000Y-116600000D01*
X163500000Y-116600000D01*
X163500000Y-117138695D01*
X163682689Y-117579746D01*
X164020255Y-117917311D01*
X164461305Y-118100000D01*
X165900000Y-118100000D01*
X166200000Y-117800000D01*
X166200000Y-116300000D01*
X166800000Y-116300000D01*
X166800000Y-117800000D01*
X167100000Y-118100000D01*
X168538695Y-118100000D01*
X168979745Y-117917311D01*
X169317311Y-117579746D01*
X169500000Y-117138695D01*
X169500000Y-116600000D01*
X169200000Y-116300000D01*
X166800000Y-116300000D01*
X166200000Y-116300000D01*
X163800000Y-116300000D01*
X163500000Y-116600000D01*
X161075000Y-116600000D01*
X161075000Y-114861305D01*
X163500000Y-114861305D01*
X163500000Y-115400000D01*
X163800000Y-115700000D01*
X166200000Y-115700000D01*
X166200000Y-114200000D01*
X166800000Y-114200000D01*
X166800000Y-115700000D01*
X169200000Y-115700000D01*
X169500000Y-115400000D01*
X169500000Y-114861305D01*
X169317311Y-114420254D01*
X168979745Y-114082689D01*
X168538695Y-113900000D01*
X167100000Y-113900000D01*
X166800000Y-114200000D01*
X166200000Y-114200000D01*
X165900000Y-113900000D01*
X164461305Y-113900000D01*
X164020255Y-114082689D01*
X163682689Y-114420254D01*
X163500000Y-114861305D01*
X161075000Y-114861305D01*
X161075000Y-110920000D01*
X163645145Y-110920000D01*
X163789774Y-111647099D01*
X164201642Y-112263503D01*
X164818046Y-112675371D01*
X165545145Y-112820000D01*
X167454855Y-112820000D01*
X168181954Y-112675371D01*
X168798358Y-112263503D01*
X169043930Y-111895978D01*
X180500164Y-111895978D01*
X180803927Y-112631140D01*
X181365901Y-113194096D01*
X182100532Y-113499142D01*
X182895978Y-113499836D01*
X183631140Y-113196073D01*
X184194096Y-112634099D01*
X184499142Y-111899468D01*
X184499821Y-111121141D01*
X187097420Y-113718740D01*
X186481714Y-113973145D01*
X185974924Y-114479051D01*
X185700313Y-115140387D01*
X185699688Y-115856471D01*
X185973145Y-116518286D01*
X186479051Y-117025076D01*
X187140387Y-117299687D01*
X187856471Y-117300312D01*
X188518286Y-117026855D01*
X189025076Y-116520949D01*
X189281674Y-115902994D01*
X190500000Y-117121320D01*
X190500000Y-119672144D01*
X190305904Y-119865901D01*
X190000858Y-120600532D01*
X190000164Y-121395978D01*
X190249741Y-122000000D01*
X185500000Y-122000000D01*
X184925975Y-122114181D01*
X184439340Y-122439340D01*
X184271862Y-122606818D01*
X184499142Y-122059468D01*
X184499836Y-121264022D01*
X184196073Y-120528860D01*
X183634099Y-119965904D01*
X182899468Y-119660858D01*
X182104022Y-119660164D01*
X181368860Y-119963927D01*
X180805904Y-120525901D01*
X180500858Y-121260532D01*
X180500164Y-122055978D01*
X180803927Y-122791140D01*
X181365901Y-123354096D01*
X182100532Y-123659142D01*
X182766710Y-123659723D01*
X182112901Y-123789774D01*
X181496497Y-124201642D01*
X181084629Y-124818046D01*
X180940000Y-125545145D01*
X180940000Y-127454855D01*
X181084629Y-128181954D01*
X181496497Y-128798358D01*
X182112901Y-129210226D01*
X182840000Y-129354855D01*
X183567099Y-129210226D01*
X184183503Y-128798358D01*
X184595371Y-128181954D01*
X184740000Y-127454855D01*
X184740000Y-126381320D01*
X186121320Y-125000000D01*
X186128436Y-125000000D01*
X186020000Y-125545145D01*
X186020000Y-127454855D01*
X186164629Y-128181954D01*
X186576497Y-128798358D01*
X187192901Y-129210226D01*
X187920000Y-129354855D01*
X188647099Y-129210226D01*
X189263503Y-128798358D01*
X189675371Y-128181954D01*
X189820000Y-127454855D01*
X189820000Y-125545145D01*
X189711564Y-125000000D01*
X191080409Y-125000000D01*
X191080409Y-128300000D01*
X191150138Y-128670578D01*
X191369149Y-129010931D01*
X191703322Y-129239262D01*
X192100000Y-129319591D01*
X193900000Y-129319591D01*
X194270578Y-129249862D01*
X194610931Y-129030851D01*
X194839262Y-128696678D01*
X194919591Y-128300000D01*
X194919591Y-125000000D01*
X197548436Y-125000000D01*
X197440000Y-125545145D01*
X197440000Y-127454855D01*
X197584629Y-128181954D01*
X197996497Y-128798358D01*
X198612901Y-129210226D01*
X199340000Y-129354855D01*
X200067099Y-129210226D01*
X200683503Y-128798358D01*
X201095371Y-128181954D01*
X201240000Y-127454855D01*
X201240000Y-125545145D01*
X201214220Y-125415540D01*
X202520000Y-126721320D01*
X202520000Y-127454855D01*
X202664629Y-128181954D01*
X203076497Y-128798358D01*
X203692901Y-129210226D01*
X204420000Y-129354855D01*
X205147099Y-129210226D01*
X205763503Y-128798358D01*
X206175371Y-128181954D01*
X206320000Y-127454855D01*
X206320000Y-125545145D01*
X206294220Y-125415540D01*
X207580409Y-126701730D01*
X207580409Y-128300000D01*
X207650138Y-128670578D01*
X207869149Y-129010931D01*
X208203322Y-129239262D01*
X208600000Y-129319591D01*
X210400000Y-129319591D01*
X210770578Y-129249862D01*
X211110931Y-129030851D01*
X211339262Y-128696678D01*
X211419591Y-128300000D01*
X211419591Y-124700000D01*
X211349862Y-124329422D01*
X211130851Y-123989069D01*
X210796678Y-123760738D01*
X210400000Y-123680409D01*
X208801729Y-123680409D01*
X208370889Y-123249569D01*
X208945526Y-123250070D01*
X209772677Y-122908298D01*
X210406074Y-122276005D01*
X210749289Y-121449452D01*
X210750070Y-120554474D01*
X210408298Y-119727323D01*
X209776005Y-119093926D01*
X208949452Y-118750711D01*
X208054474Y-118749930D01*
X207227323Y-119091702D01*
X207188416Y-119130541D01*
X207060660Y-118939340D01*
X205060660Y-116939340D01*
X204574025Y-116614181D01*
X204000000Y-116500000D01*
X203990330Y-116500000D01*
X204198247Y-116188830D01*
X204335264Y-115500000D01*
X204198247Y-114811170D01*
X203808056Y-114227208D01*
X203224094Y-113837017D01*
X202535264Y-113700000D01*
X202464736Y-113700000D01*
X201775906Y-113837017D01*
X201500000Y-114021372D01*
X201500000Y-113580000D01*
X204645145Y-113580000D01*
X204789774Y-114307099D01*
X205201642Y-114923503D01*
X205818046Y-115335371D01*
X206545145Y-115480000D01*
X208454855Y-115480000D01*
X209181954Y-115335371D01*
X209798358Y-114923503D01*
X210210226Y-114307099D01*
X210354855Y-113580000D01*
X210210226Y-112852901D01*
X209798358Y-112236497D01*
X209181954Y-111824629D01*
X208454855Y-111680000D01*
X206545145Y-111680000D01*
X205818046Y-111824629D01*
X205201642Y-112236497D01*
X204789774Y-112852901D01*
X204645145Y-113580000D01*
X201500000Y-113580000D01*
X201500000Y-111621320D01*
X202892349Y-110228971D01*
X203224094Y-110162983D01*
X203808056Y-109772792D01*
X204198247Y-109188830D01*
X204215916Y-109100000D01*
X204500000Y-109100000D01*
X204500000Y-109638695D01*
X204682689Y-110079746D01*
X205020255Y-110417311D01*
X205461305Y-110600000D01*
X206900000Y-110600000D01*
X207200000Y-110300000D01*
X207200000Y-108800000D01*
X207800000Y-108800000D01*
X207800000Y-110300000D01*
X208100000Y-110600000D01*
X209538695Y-110600000D01*
X209979745Y-110417311D01*
X210317311Y-110079746D01*
X210500000Y-109638695D01*
X210500000Y-109100000D01*
X210200000Y-108800000D01*
X207800000Y-108800000D01*
X207200000Y-108800000D01*
X204800000Y-108800000D01*
X204500000Y-109100000D01*
X204215916Y-109100000D01*
X204335264Y-108500000D01*
X204198247Y-107811170D01*
X203897657Y-107361305D01*
X204500000Y-107361305D01*
X204500000Y-107900000D01*
X204800000Y-108200000D01*
X207200000Y-108200000D01*
X207200000Y-106700000D01*
X207800000Y-106700000D01*
X207800000Y-108200000D01*
X210200000Y-108200000D01*
X210500000Y-107900000D01*
X210500000Y-107361305D01*
X210317311Y-106920254D01*
X209979745Y-106582689D01*
X209538695Y-106400000D01*
X208100000Y-106400000D01*
X207800000Y-106700000D01*
X207200000Y-106700000D01*
X206900000Y-106400000D01*
X205461305Y-106400000D01*
X205020255Y-106582689D01*
X204682689Y-106920254D01*
X204500000Y-107361305D01*
X203897657Y-107361305D01*
X203808056Y-107227208D01*
X203224094Y-106837017D01*
X202535264Y-106700000D01*
X202464736Y-106700000D01*
X201775906Y-106837017D01*
X201191944Y-107227208D01*
X200801753Y-107811170D01*
X200735765Y-108142915D01*
X198939340Y-109939340D01*
X198614181Y-110425975D01*
X198500000Y-111000000D01*
X198500000Y-117000000D01*
X198614181Y-117574025D01*
X198939340Y-118060660D01*
X199939340Y-119060660D01*
X200425975Y-119385819D01*
X200860284Y-119472209D01*
X200832444Y-119500000D01*
X199621321Y-119500000D01*
X197000000Y-116878680D01*
X197000000Y-105121320D01*
X199121320Y-103000000D01*
X201531985Y-103000000D01*
X201775906Y-103162983D01*
X202464736Y-103300000D01*
X202535264Y-103300000D01*
X203224094Y-103162983D01*
X203808056Y-102772792D01*
X204198247Y-102188830D01*
X204332299Y-101514903D01*
X206399550Y-101514903D01*
X206794542Y-102470858D01*
X207525295Y-103202887D01*
X208480559Y-103599548D01*
X209514903Y-103600450D01*
X210470858Y-103205458D01*
X211202887Y-102474705D01*
X211599548Y-101519441D01*
X211600450Y-100485097D01*
X211205458Y-99529142D01*
X210474705Y-98797113D01*
X209519441Y-98400452D01*
X208485097Y-98399550D01*
X207529142Y-98794542D01*
X206797113Y-99525295D01*
X206400452Y-100480559D01*
X206399550Y-101514903D01*
X204332299Y-101514903D01*
X204335264Y-101500000D01*
X204198247Y-100811170D01*
X203808056Y-100227208D01*
X203224094Y-99837017D01*
X202535264Y-99700000D01*
X202464736Y-99700000D01*
X201775906Y-99837017D01*
X201531985Y-100000000D01*
X198500000Y-100000000D01*
X197925975Y-100114181D01*
X197439340Y-100439340D01*
X194439340Y-103439340D01*
X194114181Y-103925975D01*
X194000000Y-104500000D01*
X194000000Y-117500000D01*
X194114181Y-118074025D01*
X194439340Y-118560660D01*
X197878679Y-122000000D01*
X193749779Y-122000000D01*
X193999142Y-121399468D01*
X193999836Y-120604022D01*
X193696073Y-119868860D01*
X193500000Y-119672444D01*
X193500000Y-116500000D01*
X193385819Y-115925975D01*
X193060660Y-115439340D01*
X187902580Y-110281260D01*
X188518286Y-110026855D01*
X189025076Y-109520949D01*
X189299687Y-108859613D01*
X189300312Y-108143529D01*
X189026855Y-107481714D01*
X188520949Y-106974924D01*
X187859613Y-106700313D01*
X187143529Y-106699688D01*
X186481714Y-106973145D01*
X185974924Y-107479051D01*
X185718326Y-108097006D01*
X185359181Y-107737861D01*
X185499652Y-107399570D01*
X185500346Y-106603921D01*
X185196506Y-105868571D01*
X184634388Y-105305471D01*
X183899570Y-105000348D01*
X183103921Y-104999654D01*
X182368571Y-105303494D01*
X181805471Y-105865612D01*
X181500348Y-106600430D01*
X181499654Y-107396079D01*
X181803494Y-108131429D01*
X182081548Y-108409969D01*
X182114181Y-108574025D01*
X182439340Y-109060660D01*
X182879521Y-109500841D01*
X182104022Y-109500164D01*
X181368860Y-109803927D01*
X180805904Y-110365901D01*
X180500858Y-111100532D01*
X180500164Y-111895978D01*
X169043930Y-111895978D01*
X169210226Y-111647099D01*
X169354855Y-110920000D01*
X169210226Y-110192901D01*
X168798358Y-109576497D01*
X168181954Y-109164629D01*
X167454855Y-109020000D01*
X165545145Y-109020000D01*
X164818046Y-109164629D01*
X164201642Y-109576497D01*
X163789774Y-110192901D01*
X163645145Y-110920000D01*
X161075000Y-110920000D01*
X161075000Y-101514903D01*
X161399550Y-101514903D01*
X161794542Y-102470858D01*
X162525295Y-103202887D01*
X163480559Y-103599548D01*
X164514903Y-103600450D01*
X165470858Y-103205458D01*
X166202887Y-102474705D01*
X166459600Y-101856471D01*
X185699688Y-101856471D01*
X185973145Y-102518286D01*
X186479051Y-103025076D01*
X187140387Y-103299687D01*
X187856471Y-103300312D01*
X188518286Y-103026855D01*
X189025076Y-102520949D01*
X189299687Y-101859613D01*
X189300312Y-101143529D01*
X189026855Y-100481714D01*
X188520949Y-99974924D01*
X187859613Y-99700313D01*
X187143529Y-99699688D01*
X186481714Y-99973145D01*
X185974924Y-100479051D01*
X185700313Y-101140387D01*
X185699688Y-101856471D01*
X166459600Y-101856471D01*
X166599548Y-101519441D01*
X166600450Y-100485097D01*
X166205458Y-99529142D01*
X165474705Y-98797113D01*
X164519441Y-98400452D01*
X163485097Y-98399550D01*
X162529142Y-98794542D01*
X161797113Y-99525295D01*
X161400452Y-100480559D01*
X161399550Y-101514903D01*
X161075000Y-101514903D01*
X161075000Y-98075000D01*
X173879681Y-98075000D01*
X173474924Y-98479051D01*
M02*
