G04 #@! TF.GenerationSoftware,KiCad,Pcbnew,(5.0.0-3-g5ebb6b6)*
G04 #@! TF.CreationDate,2018-12-23T17:20:18+00:00*
G04 #@! TF.ProjectId,Regulator,526567756C61746F722E6B696361645F,rev?*
G04 #@! TF.SameCoordinates,Original*
G04 #@! TF.FileFunction,Copper,L1,Top,Signal*
G04 #@! TF.FilePolarity,Positive*
%FSLAX46Y46*%
G04 Gerber Fmt 4.6, Leading zero omitted, Abs format (unit mm)*
G04 Created by KiCad (PCBNEW (5.0.0-3-g5ebb6b6)) date Sunday, 23 December 2018 at 17:20:18*
%MOMM*%
%LPD*%
G01*
G04 APERTURE LIST*
G04 #@! TA.AperFunction,ComponentPad*
%ADD10C,2.000000*%
G04 #@! TD*
G04 #@! TA.AperFunction,ComponentPad*
%ADD11R,2.000000X2.000000*%
G04 #@! TD*
G04 #@! TA.AperFunction,ComponentPad*
%ADD12C,1.600000*%
G04 #@! TD*
G04 #@! TA.AperFunction,ComponentPad*
%ADD13C,4.000000*%
G04 #@! TD*
G04 #@! TA.AperFunction,ComponentPad*
%ADD14R,4.000000X4.000000*%
G04 #@! TD*
G04 #@! TA.AperFunction,ComponentPad*
%ADD15R,1.600000X1.600000*%
G04 #@! TD*
G04 #@! TA.AperFunction,ComponentPad*
%ADD16C,2.400000*%
G04 #@! TD*
G04 #@! TA.AperFunction,ComponentPad*
%ADD17R,2.400000X2.400000*%
G04 #@! TD*
G04 #@! TA.AperFunction,ComponentPad*
%ADD18O,2.200000X2.200000*%
G04 #@! TD*
G04 #@! TA.AperFunction,ComponentPad*
%ADD19R,2.200000X2.200000*%
G04 #@! TD*
G04 #@! TA.AperFunction,ComponentPad*
%ADD20R,3.200000X3.200000*%
G04 #@! TD*
G04 #@! TA.AperFunction,ComponentPad*
%ADD21O,3.200000X3.200000*%
G04 #@! TD*
G04 #@! TA.AperFunction,ComponentPad*
%ADD22R,1.800000X1.800000*%
G04 #@! TD*
G04 #@! TA.AperFunction,ComponentPad*
%ADD23C,1.800000*%
G04 #@! TD*
G04 #@! TA.AperFunction,ComponentPad*
%ADD24C,3.000000*%
G04 #@! TD*
G04 #@! TA.AperFunction,ComponentPad*
%ADD25R,3.600000X1.800000*%
G04 #@! TD*
G04 #@! TA.AperFunction,ComponentPad*
%ADD26O,3.600000X1.800000*%
G04 #@! TD*
G04 #@! TA.AperFunction,Conductor*
%ADD27C,0.100000*%
G04 #@! TD*
G04 #@! TA.AperFunction,ComponentPad*
%ADD28C,1.100000*%
G04 #@! TD*
G04 #@! TA.AperFunction,ComponentPad*
%ADD29R,1.800000X1.100000*%
G04 #@! TD*
G04 #@! TA.AperFunction,ComponentPad*
%ADD30R,2.000000X1.905000*%
G04 #@! TD*
G04 #@! TA.AperFunction,ComponentPad*
%ADD31O,2.000000X1.905000*%
G04 #@! TD*
G04 #@! TA.AperFunction,ComponentPad*
%ADD32O,1.600000X1.600000*%
G04 #@! TD*
G04 #@! TA.AperFunction,ComponentPad*
%ADD33C,2.800000*%
G04 #@! TD*
G04 #@! TA.AperFunction,ComponentPad*
%ADD34C,1.260000*%
G04 #@! TD*
G04 #@! TA.AperFunction,ComponentPad*
%ADD35O,2.400000X2.400000*%
G04 #@! TD*
G04 #@! TA.AperFunction,ComponentPad*
%ADD36R,1.998980X1.998980*%
G04 #@! TD*
G04 #@! TA.AperFunction,ComponentPad*
%ADD37C,1.998980*%
G04 #@! TD*
G04 #@! TA.AperFunction,Conductor*
%ADD38C,1.000000*%
G04 #@! TD*
G04 #@! TA.AperFunction,Conductor*
%ADD39C,2.000000*%
G04 #@! TD*
G04 #@! TA.AperFunction,Conductor*
%ADD40C,0.254000*%
G04 #@! TD*
G04 APERTURE END LIST*
D10*
G04 #@! TO.P,D8,3*
G04 #@! TO.N,+VDC*
X64700000Y-126200000D03*
G04 #@! TO.P,D8,4*
G04 #@! TO.N,Net-(D8-Pad4)*
X64700000Y-137000000D03*
D11*
G04 #@! TO.P,D8,1*
G04 #@! TO.N,REG3*
X75500000Y-137000000D03*
D10*
G04 #@! TO.P,D8,2*
G04 #@! TO.N,Net-(C1-Pad2)*
X75400000Y-126200000D03*
G04 #@! TD*
D12*
G04 #@! TO.P,C1,1*
G04 #@! TO.N,Net-(C1-Pad1)*
X74500000Y-142500000D03*
G04 #@! TO.P,C1,2*
G04 #@! TO.N,Net-(C1-Pad2)*
X69500000Y-142500000D03*
G04 #@! TD*
D13*
G04 #@! TO.P,C2,2*
G04 #@! TO.N,+VDC*
X113500000Y-132500000D03*
D14*
G04 #@! TO.P,C2,1*
G04 #@! TO.N,REG3*
X113500000Y-142500000D03*
G04 #@! TD*
G04 #@! TO.P,C3,1*
G04 #@! TO.N,REG3*
X90500000Y-142500000D03*
D13*
G04 #@! TO.P,C3,2*
G04 #@! TO.N,+VDC*
X90500000Y-132500000D03*
G04 #@! TD*
D12*
G04 #@! TO.P,C5,1*
G04 #@! TO.N,REG3*
X135000000Y-131000000D03*
G04 #@! TO.P,C5,2*
G04 #@! TO.N,+VDC*
X135000000Y-136000000D03*
G04 #@! TD*
D15*
G04 #@! TO.P,C6,1*
G04 #@! TO.N,REG1*
X116500000Y-121000000D03*
D12*
G04 #@! TO.P,C6,2*
G04 #@! TO.N,+VDC*
X116500000Y-118500000D03*
G04 #@! TD*
G04 #@! TO.P,C7,2*
G04 #@! TO.N,+VDC*
X112000000Y-112500000D03*
D15*
G04 #@! TO.P,C7,1*
G04 #@! TO.N,Net-(C7-Pad1)*
X112000000Y-115000000D03*
G04 #@! TD*
G04 #@! TO.P,C8,1*
G04 #@! TO.N,REG2*
X110500000Y-108000000D03*
D12*
G04 #@! TO.P,C8,2*
G04 #@! TO.N,+VDC*
X110500000Y-105500000D03*
G04 #@! TD*
G04 #@! TO.P,C9,2*
G04 #@! TO.N,Net-(C9-Pad2)*
X76500000Y-85000000D03*
G04 #@! TO.P,C9,1*
G04 #@! TO.N,Net-(C9-Pad1)*
X76500000Y-90000000D03*
G04 #@! TD*
D16*
G04 #@! TO.P,C10,2*
G04 #@! TO.N,Net-(C10-Pad2)*
X67500000Y-55000000D03*
D17*
G04 #@! TO.P,C10,1*
G04 #@! TO.N,MOS2*
X67500000Y-62500000D03*
G04 #@! TD*
G04 #@! TO.P,C11,1*
G04 #@! TO.N,Net-(C10-Pad2)*
X98500000Y-62500000D03*
D16*
G04 #@! TO.P,C11,2*
G04 #@! TO.N,GNDA*
X98500000Y-55000000D03*
G04 #@! TD*
D12*
G04 #@! TO.P,C12,2*
G04 #@! TO.N,GNDA*
X120500000Y-52500000D03*
G04 #@! TO.P,C12,1*
G04 #@! TO.N,Net-(C12-Pad1)*
X120500000Y-57500000D03*
G04 #@! TD*
D15*
G04 #@! TO.P,C13,1*
G04 #@! TO.N,Net-(C13-Pad1)*
X99500000Y-93500000D03*
D12*
G04 #@! TO.P,C13,2*
G04 #@! TO.N,GNDA*
X99500000Y-88500000D03*
G04 #@! TD*
D18*
G04 #@! TO.P,D1,2*
G04 #@! TO.N,REG2*
X130000000Y-122840000D03*
D19*
G04 #@! TO.P,D1,1*
G04 #@! TO.N,REG3*
X130000000Y-133000000D03*
G04 #@! TD*
G04 #@! TO.P,D2,1*
G04 #@! TO.N,REG2*
X100000000Y-125000000D03*
D18*
G04 #@! TO.P,D2,2*
G04 #@! TO.N,REG1*
X100000000Y-114840000D03*
G04 #@! TD*
D19*
G04 #@! TO.P,D3,1*
G04 #@! TO.N,REG1*
X105000000Y-125000000D03*
D18*
G04 #@! TO.P,D3,2*
G04 #@! TO.N,Net-(C7-Pad1)*
X105000000Y-114840000D03*
G04 #@! TD*
D20*
G04 #@! TO.P,D4,1*
G04 #@! TO.N,Net-(D4-Pad1)*
X125500000Y-103760000D03*
D21*
G04 #@! TO.P,D4,2*
G04 #@! TO.N,REG2*
X125500000Y-119000000D03*
G04 #@! TD*
D22*
G04 #@! TO.P,D5,1*
G04 #@! TO.N,+VDC*
X99500000Y-110500000D03*
D23*
G04 #@! TO.P,D5,2*
G04 #@! TO.N,Net-(D5-Pad2)*
X99500000Y-107960000D03*
G04 #@! TD*
D18*
G04 #@! TO.P,D6,2*
G04 #@! TO.N,Net-(C9-Pad1)*
X73160000Y-92000000D03*
D19*
G04 #@! TO.P,D6,1*
G04 #@! TO.N,MOS2*
X63000000Y-92000000D03*
G04 #@! TD*
G04 #@! TO.P,D7,1*
G04 #@! TO.N,MOS2*
X63000000Y-82500000D03*
D18*
G04 #@! TO.P,D7,2*
G04 #@! TO.N,Net-(D7-Pad2)*
X73160000Y-82500000D03*
G04 #@! TD*
G04 #@! TO.P,D10,2*
G04 #@! TO.N,Net-(D10-Pad2)*
X101160000Y-70500000D03*
D19*
G04 #@! TO.P,D10,1*
G04 #@! TO.N,MOS2*
X91000000Y-70500000D03*
G04 #@! TD*
G04 #@! TO.P,D11,1*
G04 #@! TO.N,Net-(D10-Pad2)*
X127000000Y-66340000D03*
D18*
G04 #@! TO.P,D11,2*
G04 #@! TO.N,Net-(D11-Pad2)*
X127000000Y-76500000D03*
G04 #@! TD*
D19*
G04 #@! TO.P,D12,1*
G04 #@! TO.N,Net-(D10-Pad2)*
X122500000Y-66340000D03*
D18*
G04 #@! TO.P,D12,2*
G04 #@! TO.N,Net-(D12-Pad2)*
X122500000Y-76500000D03*
G04 #@! TD*
G04 #@! TO.P,D13,2*
G04 #@! TO.N,Net-(D12-Pad2)*
X118000000Y-76500000D03*
D19*
G04 #@! TO.P,D13,1*
G04 #@! TO.N,Net-(D13-Pad1)*
X118000000Y-66340000D03*
G04 #@! TD*
D18*
G04 #@! TO.P,D14,2*
G04 #@! TO.N,Net-(C12-Pad1)*
X118340000Y-89500000D03*
D19*
G04 #@! TO.P,D14,1*
G04 #@! TO.N,Net-(D12-Pad2)*
X128500000Y-89500000D03*
G04 #@! TD*
D23*
G04 #@! TO.P,D15,2*
G04 #@! TO.N,Net-(D15-Pad2)*
X85500000Y-91500000D03*
D22*
G04 #@! TO.P,D15,1*
G04 #@! TO.N,GNDA*
X85500000Y-88960000D03*
G04 #@! TD*
D19*
G04 #@! TO.P,D16,1*
G04 #@! TO.N,Net-(D16-Pad1)*
X128500000Y-94500000D03*
D18*
G04 #@! TO.P,D16,2*
G04 #@! TO.N,Net-(D12-Pad2)*
X118340000Y-94500000D03*
G04 #@! TD*
D24*
G04 #@! TO.P,F1,1*
G04 #@! TO.N,Net-(C1-Pad2)*
X75500000Y-114500000D03*
G04 #@! TO.P,F1,2*
G04 #@! TO.N,Net-(F1-Pad2)*
X53000000Y-114500000D03*
G04 #@! TD*
G04 #@! TO.P,F2,2*
G04 #@! TO.N,Net-(F2-Pad2)*
X53000000Y-102500000D03*
G04 #@! TO.P,F2,1*
G04 #@! TO.N,Net-(C9-Pad1)*
X75500000Y-102500000D03*
G04 #@! TD*
G04 #@! TO.P,F3,1*
G04 #@! TO.N,Net-(D7-Pad2)*
X75000000Y-72500000D03*
G04 #@! TO.P,F3,2*
G04 #@! TO.N,Net-(F3-Pad2)*
X52500000Y-72500000D03*
G04 #@! TD*
D25*
G04 #@! TO.P,J1,1*
G04 #@! TO.N,Net-(D8-Pad4)*
X56000000Y-133580000D03*
D26*
G04 #@! TO.P,J1,2*
G04 #@! TO.N,Net-(F1-Pad2)*
X56000000Y-128500000D03*
G04 #@! TD*
D25*
G04 #@! TO.P,J2,1*
G04 #@! TO.N,Net-(F2-Pad2)*
X56000000Y-92580000D03*
D26*
G04 #@! TO.P,J2,2*
G04 #@! TO.N,GNDA*
X56000000Y-87500000D03*
G04 #@! TO.P,J2,3*
G04 #@! TO.N,Net-(F3-Pad2)*
X56000000Y-82420000D03*
G04 #@! TD*
D25*
G04 #@! TO.P,J3,1*
G04 #@! TO.N,Net-(D4-Pad1)*
X144000000Y-104000000D03*
D26*
G04 #@! TO.P,J3,2*
G04 #@! TO.N,+VDC*
X144000000Y-109080000D03*
G04 #@! TD*
G04 #@! TO.P,J4,2*
G04 #@! TO.N,GNDA*
X144000000Y-93080000D03*
D25*
G04 #@! TO.P,J4,1*
G04 #@! TO.N,Net-(D16-Pad1)*
X144000000Y-88000000D03*
G04 #@! TD*
D27*
G04 #@! TO.N,Net-(C7-Pad1)*
G04 #@! TO.C,Q1*
G36*
X81481955Y-110181324D02*
X81508650Y-110185284D01*
X81534828Y-110191841D01*
X81560238Y-110200933D01*
X81584634Y-110212472D01*
X81607782Y-110226346D01*
X81629458Y-110242422D01*
X81649454Y-110260546D01*
X81667578Y-110280542D01*
X81683654Y-110302218D01*
X81697528Y-110325366D01*
X81709067Y-110349762D01*
X81718159Y-110375172D01*
X81724716Y-110401350D01*
X81728676Y-110428045D01*
X81730000Y-110455000D01*
X81730000Y-111005000D01*
X81728676Y-111031955D01*
X81724716Y-111058650D01*
X81718159Y-111084828D01*
X81709067Y-111110238D01*
X81697528Y-111134634D01*
X81683654Y-111157782D01*
X81667578Y-111179458D01*
X81649454Y-111199454D01*
X81629458Y-111217578D01*
X81607782Y-111233654D01*
X81584634Y-111247528D01*
X81560238Y-111259067D01*
X81534828Y-111268159D01*
X81508650Y-111274716D01*
X81481955Y-111278676D01*
X81455000Y-111280000D01*
X80205000Y-111280000D01*
X80178045Y-111278676D01*
X80151350Y-111274716D01*
X80125172Y-111268159D01*
X80099762Y-111259067D01*
X80075366Y-111247528D01*
X80052218Y-111233654D01*
X80030542Y-111217578D01*
X80010546Y-111199454D01*
X79992422Y-111179458D01*
X79976346Y-111157782D01*
X79962472Y-111134634D01*
X79950933Y-111110238D01*
X79941841Y-111084828D01*
X79935284Y-111058650D01*
X79931324Y-111031955D01*
X79930000Y-111005000D01*
X79930000Y-110455000D01*
X79931324Y-110428045D01*
X79935284Y-110401350D01*
X79941841Y-110375172D01*
X79950933Y-110349762D01*
X79962472Y-110325366D01*
X79976346Y-110302218D01*
X79992422Y-110280542D01*
X80010546Y-110260546D01*
X80030542Y-110242422D01*
X80052218Y-110226346D01*
X80075366Y-110212472D01*
X80099762Y-110200933D01*
X80125172Y-110191841D01*
X80151350Y-110185284D01*
X80178045Y-110181324D01*
X80205000Y-110180000D01*
X81455000Y-110180000D01*
X81481955Y-110181324D01*
X81481955Y-110181324D01*
G37*
D28*
G04 #@! TD*
G04 #@! TO.P,Q1,2*
G04 #@! TO.N,Net-(C7-Pad1)*
X80830000Y-110730000D03*
D27*
G04 #@! TO.N,+VDC*
G04 #@! TO.C,Q1*
G36*
X83551955Y-108911324D02*
X83578650Y-108915284D01*
X83604828Y-108921841D01*
X83630238Y-108930933D01*
X83654634Y-108942472D01*
X83677782Y-108956346D01*
X83699458Y-108972422D01*
X83719454Y-108990546D01*
X83737578Y-109010542D01*
X83753654Y-109032218D01*
X83767528Y-109055366D01*
X83779067Y-109079762D01*
X83788159Y-109105172D01*
X83794716Y-109131350D01*
X83798676Y-109158045D01*
X83800000Y-109185000D01*
X83800000Y-109735000D01*
X83798676Y-109761955D01*
X83794716Y-109788650D01*
X83788159Y-109814828D01*
X83779067Y-109840238D01*
X83767528Y-109864634D01*
X83753654Y-109887782D01*
X83737578Y-109909458D01*
X83719454Y-109929454D01*
X83699458Y-109947578D01*
X83677782Y-109963654D01*
X83654634Y-109977528D01*
X83630238Y-109989067D01*
X83604828Y-109998159D01*
X83578650Y-110004716D01*
X83551955Y-110008676D01*
X83525000Y-110010000D01*
X82275000Y-110010000D01*
X82248045Y-110008676D01*
X82221350Y-110004716D01*
X82195172Y-109998159D01*
X82169762Y-109989067D01*
X82145366Y-109977528D01*
X82122218Y-109963654D01*
X82100542Y-109947578D01*
X82080546Y-109929454D01*
X82062422Y-109909458D01*
X82046346Y-109887782D01*
X82032472Y-109864634D01*
X82020933Y-109840238D01*
X82011841Y-109814828D01*
X82005284Y-109788650D01*
X82001324Y-109761955D01*
X82000000Y-109735000D01*
X82000000Y-109185000D01*
X82001324Y-109158045D01*
X82005284Y-109131350D01*
X82011841Y-109105172D01*
X82020933Y-109079762D01*
X82032472Y-109055366D01*
X82046346Y-109032218D01*
X82062422Y-109010542D01*
X82080546Y-108990546D01*
X82100542Y-108972422D01*
X82122218Y-108956346D01*
X82145366Y-108942472D01*
X82169762Y-108930933D01*
X82195172Y-108921841D01*
X82221350Y-108915284D01*
X82248045Y-108911324D01*
X82275000Y-108910000D01*
X83525000Y-108910000D01*
X83551955Y-108911324D01*
X83551955Y-108911324D01*
G37*
D28*
G04 #@! TD*
G04 #@! TO.P,Q1,3*
G04 #@! TO.N,+VDC*
X82900000Y-109460000D03*
D29*
G04 #@! TO.P,Q1,1*
G04 #@! TO.N,REG1*
X82900000Y-112000000D03*
G04 #@! TD*
D30*
G04 #@! TO.P,Q2,1*
G04 #@! TO.N,MOS1*
X135500000Y-70500000D03*
D31*
G04 #@! TO.P,Q2,2*
G04 #@! TO.N,MOS2*
X135500000Y-73040000D03*
G04 #@! TO.P,Q2,3*
G04 #@! TO.N,MOS3*
X135500000Y-75580000D03*
G04 #@! TD*
D32*
G04 #@! TO.P,R1,2*
G04 #@! TO.N,Net-(C1-Pad1)*
X74660000Y-147000000D03*
D12*
G04 #@! TO.P,R1,1*
G04 #@! TO.N,Net-(D8-Pad4)*
X64500000Y-147000000D03*
G04 #@! TD*
G04 #@! TO.P,R2,1*
G04 #@! TO.N,REG2*
X132000000Y-109000000D03*
D32*
G04 #@! TO.P,R2,2*
G04 #@! TO.N,REG1*
X132000000Y-119160000D03*
G04 #@! TD*
G04 #@! TO.P,R3,2*
G04 #@! TO.N,Net-(C7-Pad1)*
X80840000Y-116500000D03*
D12*
G04 #@! TO.P,R3,1*
G04 #@! TO.N,REG2*
X91000000Y-116500000D03*
G04 #@! TD*
G04 #@! TO.P,R4,1*
G04 #@! TO.N,Net-(D4-Pad1)*
X119500000Y-114500000D03*
D32*
G04 #@! TO.P,R4,2*
G04 #@! TO.N,Net-(D5-Pad2)*
X119500000Y-104340000D03*
G04 #@! TD*
G04 #@! TO.P,R5,2*
G04 #@! TO.N,Net-(D7-Pad2)*
X80500000Y-77340000D03*
D12*
G04 #@! TO.P,R5,1*
G04 #@! TO.N,Net-(C9-Pad2)*
X80500000Y-87500000D03*
G04 #@! TD*
D32*
G04 #@! TO.P,R19,2*
G04 #@! TO.N,+VDC*
X91500000Y-100660000D03*
D12*
G04 #@! TO.P,R19,1*
G04 #@! TO.N,Net-(C13-Pad1)*
X91500000Y-90500000D03*
G04 #@! TD*
G04 #@! TO.P,R10,1*
G04 #@! TO.N,Net-(D11-Pad2)*
X132000000Y-76500000D03*
D32*
G04 #@! TO.P,R10,2*
G04 #@! TO.N,MOS3*
X132000000Y-66340000D03*
G04 #@! TD*
G04 #@! TO.P,R11,2*
G04 #@! TO.N,Net-(D13-Pad1)*
X108000000Y-61840000D03*
D12*
G04 #@! TO.P,R11,1*
G04 #@! TO.N,Net-(D10-Pad2)*
X108000000Y-72000000D03*
G04 #@! TD*
D32*
G04 #@! TO.P,R12,2*
G04 #@! TO.N,Net-(D12-Pad2)*
X118340000Y-84500000D03*
D12*
G04 #@! TO.P,R12,1*
G04 #@! TO.N,Net-(C12-Pad1)*
X128500000Y-84500000D03*
G04 #@! TD*
G04 #@! TO.P,R13,1*
G04 #@! TO.N,GNDA*
X127500000Y-52340000D03*
D32*
G04 #@! TO.P,R13,2*
G04 #@! TO.N,Net-(C12-Pad1)*
X127500000Y-62500000D03*
G04 #@! TD*
D12*
G04 #@! TO.P,R15,1*
G04 #@! TO.N,Net-(D15-Pad2)*
X97000000Y-98500000D03*
D32*
G04 #@! TO.P,R15,2*
G04 #@! TO.N,Net-(C13-Pad1)*
X107160000Y-98500000D03*
G04 #@! TD*
D12*
G04 #@! TO.P,R99,1*
G04 #@! TO.N,MOS1*
X136000000Y-66000000D03*
D32*
G04 #@! TO.P,R99,2*
G04 #@! TO.N,Net-(D10-Pad2)*
X136000000Y-55840000D03*
G04 #@! TD*
D33*
G04 #@! TO.P,TP1,1*
G04 #@! TO.N,Net-(D16-Pad1)*
X135500000Y-93500000D03*
G04 #@! TD*
G04 #@! TO.P,TP2,1*
G04 #@! TO.N,GNDA*
X108000000Y-90000000D03*
G04 #@! TD*
G04 #@! TO.P,TP3,1*
G04 #@! TO.N,Net-(D4-Pad1)*
X135500000Y-101000000D03*
G04 #@! TD*
G04 #@! TO.P,TP4,1*
G04 #@! TO.N,+VDC*
X91500000Y-109000000D03*
G04 #@! TD*
D31*
G04 #@! TO.P,U1,3*
G04 #@! TO.N,REG3*
X135500000Y-127080000D03*
G04 #@! TO.P,U1,2*
G04 #@! TO.N,REG2*
X135500000Y-124540000D03*
D30*
G04 #@! TO.P,U1,1*
G04 #@! TO.N,REG1*
X135500000Y-122000000D03*
G04 #@! TD*
D29*
G04 #@! TO.P,U2,1*
G04 #@! TO.N,Net-(C12-Pad1)*
X135900000Y-87000000D03*
D27*
G04 #@! TD*
G04 #@! TO.N,Net-(D11-Pad2)*
G04 #@! TO.C,U2*
G36*
X136551955Y-83911324D02*
X136578650Y-83915284D01*
X136604828Y-83921841D01*
X136630238Y-83930933D01*
X136654634Y-83942472D01*
X136677782Y-83956346D01*
X136699458Y-83972422D01*
X136719454Y-83990546D01*
X136737578Y-84010542D01*
X136753654Y-84032218D01*
X136767528Y-84055366D01*
X136779067Y-84079762D01*
X136788159Y-84105172D01*
X136794716Y-84131350D01*
X136798676Y-84158045D01*
X136800000Y-84185000D01*
X136800000Y-84735000D01*
X136798676Y-84761955D01*
X136794716Y-84788650D01*
X136788159Y-84814828D01*
X136779067Y-84840238D01*
X136767528Y-84864634D01*
X136753654Y-84887782D01*
X136737578Y-84909458D01*
X136719454Y-84929454D01*
X136699458Y-84947578D01*
X136677782Y-84963654D01*
X136654634Y-84977528D01*
X136630238Y-84989067D01*
X136604828Y-84998159D01*
X136578650Y-85004716D01*
X136551955Y-85008676D01*
X136525000Y-85010000D01*
X135275000Y-85010000D01*
X135248045Y-85008676D01*
X135221350Y-85004716D01*
X135195172Y-84998159D01*
X135169762Y-84989067D01*
X135145366Y-84977528D01*
X135122218Y-84963654D01*
X135100542Y-84947578D01*
X135080546Y-84929454D01*
X135062422Y-84909458D01*
X135046346Y-84887782D01*
X135032472Y-84864634D01*
X135020933Y-84840238D01*
X135011841Y-84814828D01*
X135005284Y-84788650D01*
X135001324Y-84761955D01*
X135000000Y-84735000D01*
X135000000Y-84185000D01*
X135001324Y-84158045D01*
X135005284Y-84131350D01*
X135011841Y-84105172D01*
X135020933Y-84079762D01*
X135032472Y-84055366D01*
X135046346Y-84032218D01*
X135062422Y-84010542D01*
X135080546Y-83990546D01*
X135100542Y-83972422D01*
X135122218Y-83956346D01*
X135145366Y-83942472D01*
X135169762Y-83930933D01*
X135195172Y-83921841D01*
X135221350Y-83915284D01*
X135248045Y-83911324D01*
X135275000Y-83910000D01*
X136525000Y-83910000D01*
X136551955Y-83911324D01*
X136551955Y-83911324D01*
G37*
D28*
G04 #@! TO.P,U2,3*
G04 #@! TO.N,Net-(D11-Pad2)*
X135900000Y-84460000D03*
D27*
G04 #@! TD*
G04 #@! TO.N,Net-(D12-Pad2)*
G04 #@! TO.C,U2*
G36*
X134481955Y-85181324D02*
X134508650Y-85185284D01*
X134534828Y-85191841D01*
X134560238Y-85200933D01*
X134584634Y-85212472D01*
X134607782Y-85226346D01*
X134629458Y-85242422D01*
X134649454Y-85260546D01*
X134667578Y-85280542D01*
X134683654Y-85302218D01*
X134697528Y-85325366D01*
X134709067Y-85349762D01*
X134718159Y-85375172D01*
X134724716Y-85401350D01*
X134728676Y-85428045D01*
X134730000Y-85455000D01*
X134730000Y-86005000D01*
X134728676Y-86031955D01*
X134724716Y-86058650D01*
X134718159Y-86084828D01*
X134709067Y-86110238D01*
X134697528Y-86134634D01*
X134683654Y-86157782D01*
X134667578Y-86179458D01*
X134649454Y-86199454D01*
X134629458Y-86217578D01*
X134607782Y-86233654D01*
X134584634Y-86247528D01*
X134560238Y-86259067D01*
X134534828Y-86268159D01*
X134508650Y-86274716D01*
X134481955Y-86278676D01*
X134455000Y-86280000D01*
X133205000Y-86280000D01*
X133178045Y-86278676D01*
X133151350Y-86274716D01*
X133125172Y-86268159D01*
X133099762Y-86259067D01*
X133075366Y-86247528D01*
X133052218Y-86233654D01*
X133030542Y-86217578D01*
X133010546Y-86199454D01*
X132992422Y-86179458D01*
X132976346Y-86157782D01*
X132962472Y-86134634D01*
X132950933Y-86110238D01*
X132941841Y-86084828D01*
X132935284Y-86058650D01*
X132931324Y-86031955D01*
X132930000Y-86005000D01*
X132930000Y-85455000D01*
X132931324Y-85428045D01*
X132935284Y-85401350D01*
X132941841Y-85375172D01*
X132950933Y-85349762D01*
X132962472Y-85325366D01*
X132976346Y-85302218D01*
X132992422Y-85280542D01*
X133010546Y-85260546D01*
X133030542Y-85242422D01*
X133052218Y-85226346D01*
X133075366Y-85212472D01*
X133099762Y-85200933D01*
X133125172Y-85191841D01*
X133151350Y-85185284D01*
X133178045Y-85181324D01*
X133205000Y-85180000D01*
X134455000Y-85180000D01*
X134481955Y-85181324D01*
X134481955Y-85181324D01*
G37*
D28*
G04 #@! TO.P,U2,2*
G04 #@! TO.N,Net-(D12-Pad2)*
X133830000Y-85730000D03*
G04 #@! TD*
D34*
G04 #@! TO.P,RV1,3*
G04 #@! TO.N,REG1*
X128420000Y-145500000D03*
G04 #@! TO.P,RV1,2*
G04 #@! TO.N,+VDC*
X130960000Y-148040000D03*
G04 #@! TO.P,RV1,1*
X133500000Y-145500000D03*
G04 #@! TD*
G04 #@! TO.P,RV2,1*
G04 #@! TO.N,GNDA*
X116000000Y-55000000D03*
G04 #@! TO.P,RV2,2*
X113460000Y-57540000D03*
G04 #@! TO.P,RV2,3*
G04 #@! TO.N,Net-(C12-Pad1)*
X110920000Y-55000000D03*
G04 #@! TD*
D32*
G04 #@! TO.P,R16,2*
G04 #@! TO.N,+VDC*
X137500000Y-139500000D03*
D12*
G04 #@! TO.P,R16,1*
G04 #@! TO.N,REG1*
X127340000Y-139500000D03*
G04 #@! TD*
G04 #@! TO.P,R17,1*
G04 #@! TO.N,GNDA*
X122000000Y-61500000D03*
D32*
G04 #@! TO.P,R17,2*
G04 #@! TO.N,Net-(C12-Pad1)*
X111840000Y-61500000D03*
G04 #@! TD*
D26*
G04 #@! TO.P,J5,3*
G04 #@! TO.N,MOS3*
X144000000Y-79160000D03*
G04 #@! TO.P,J5,2*
G04 #@! TO.N,MOS2*
X144000000Y-74080000D03*
D25*
G04 #@! TO.P,J5,1*
G04 #@! TO.N,MOS1*
X144000000Y-69000000D03*
G04 #@! TD*
G04 #@! TO.P,J6,1*
G04 #@! TO.N,REG1*
X144000000Y-119500000D03*
D26*
G04 #@! TO.P,J6,2*
G04 #@! TO.N,REG2*
X144000000Y-124580000D03*
G04 #@! TO.P,J6,3*
G04 #@! TO.N,REG3*
X144000000Y-129660000D03*
G04 #@! TD*
D16*
G04 #@! TO.P,R6,1*
G04 #@! TO.N,MOS2*
X80000000Y-72500000D03*
D35*
G04 #@! TO.P,R6,2*
G04 #@! TO.N,Net-(C10-Pad2)*
X80000000Y-52180000D03*
G04 #@! TD*
G04 #@! TO.P,R7,2*
G04 #@! TO.N,GNDA*
X86000000Y-72500000D03*
D16*
G04 #@! TO.P,R7,1*
G04 #@! TO.N,Net-(C10-Pad2)*
X86000000Y-52180000D03*
G04 #@! TD*
G04 #@! TO.P,R8,1*
G04 #@! TO.N,MOS2*
X93500000Y-76000000D03*
D35*
G04 #@! TO.P,R8,2*
G04 #@! TO.N,Net-(D10-Pad2)*
X113820000Y-76000000D03*
G04 #@! TD*
G04 #@! TO.P,R14,2*
G04 #@! TO.N,Net-(D12-Pad2)*
X113820000Y-83000000D03*
D16*
G04 #@! TO.P,R14,1*
G04 #@! TO.N,Net-(C13-Pad1)*
X93500000Y-83000000D03*
G04 #@! TD*
D36*
G04 #@! TO.P,JP1,1*
G04 #@! TO.N,+VDC*
X86000000Y-106500000D03*
D37*
G04 #@! TO.P,JP1,2*
G04 #@! TO.N,GNDA*
X86000000Y-102690000D03*
G04 #@! TD*
D38*
G04 #@! TO.N,Net-(C1-Pad1)*
X74660000Y-147000000D02*
X74660000Y-142660000D01*
X74660000Y-142660000D02*
X74500000Y-142500000D01*
D39*
G04 #@! TO.N,Net-(C1-Pad2)*
X75500000Y-126100000D02*
X75400000Y-126200000D01*
X75500000Y-114500000D02*
X75500000Y-126100000D01*
D38*
X69500000Y-132100000D02*
X75400000Y-126200000D01*
X69500000Y-142500000D02*
X69500000Y-132100000D01*
G04 #@! TO.N,Net-(C7-Pad1)*
X80840000Y-111120000D02*
X81230000Y-110730000D01*
X80840000Y-116500000D02*
X80840000Y-111120000D01*
X111840000Y-114840000D02*
X112000000Y-115000000D01*
X105000000Y-114840000D02*
X111840000Y-114840000D01*
G04 #@! TO.N,Net-(C9-Pad2)*
X78000000Y-85000000D02*
X80500000Y-87500000D01*
X76500000Y-85000000D02*
X78000000Y-85000000D01*
G04 #@! TO.N,Net-(C9-Pad1)*
X75160000Y-90000000D02*
X73160000Y-92000000D01*
X76500000Y-90000000D02*
X75160000Y-90000000D01*
G04 #@! TO.N,Net-(C10-Pad2)*
X70320000Y-52180000D02*
X80000000Y-52180000D01*
X67500000Y-55000000D02*
X70320000Y-52180000D01*
X80000000Y-52180000D02*
X86000000Y-52180000D01*
X98500000Y-60300000D02*
X98500000Y-62500000D01*
X90380000Y-52180000D02*
X98500000Y-60300000D01*
X86000000Y-52180000D02*
X90380000Y-52180000D01*
G04 #@! TO.N,Net-(C12-Pad1)*
X123340000Y-84500000D02*
X128500000Y-84500000D01*
X118340000Y-89500000D02*
X123340000Y-84500000D01*
X128500000Y-84500000D02*
X132000000Y-88000000D01*
X134500000Y-88000000D02*
X135500000Y-87000000D01*
X132000000Y-88000000D02*
X134500000Y-88000000D01*
X110920000Y-60580000D02*
X111840000Y-61500000D01*
X110920000Y-55000000D02*
X110920000Y-60580000D01*
X116500000Y-61500000D02*
X120500000Y-57500000D01*
X111840000Y-61500000D02*
X116500000Y-61500000D01*
X122500000Y-57500000D02*
X127500000Y-62500000D01*
X120500000Y-57500000D02*
X122500000Y-57500000D01*
G04 #@! TO.N,Net-(C13-Pad1)*
X99500000Y-95300000D02*
X99500000Y-93500000D01*
X102700000Y-98500000D02*
X99500000Y-95300000D01*
X107160000Y-98500000D02*
X102700000Y-98500000D01*
X94500000Y-93500000D02*
X91500000Y-90500000D01*
X99500000Y-93500000D02*
X94500000Y-93500000D01*
X93500000Y-88500000D02*
X91500000Y-90500000D01*
X93500000Y-83000000D02*
X93500000Y-88500000D01*
G04 #@! TO.N,Net-(D4-Pad1)*
X119500000Y-109760000D02*
X125500000Y-103760000D01*
X119500000Y-114500000D02*
X119500000Y-109760000D01*
X125740000Y-104000000D02*
X125500000Y-103760000D01*
X135500000Y-101000000D02*
X135500000Y-104000000D01*
X135500000Y-104000000D02*
X125740000Y-104000000D01*
X144000000Y-104000000D02*
X135500000Y-104000000D01*
G04 #@! TO.N,Net-(D5-Pad2)*
X119160000Y-104000000D02*
X119500000Y-104340000D01*
X106000000Y-101500000D02*
X116660000Y-101500000D01*
X116660000Y-101500000D02*
X119160000Y-104000000D01*
X99540000Y-107960000D02*
X106000000Y-101500000D01*
G04 #@! TO.N,Net-(D7-Pad2)*
X75340000Y-82500000D02*
X80500000Y-77340000D01*
X73160000Y-82500000D02*
X75340000Y-82500000D01*
X79840000Y-77340000D02*
X75000000Y-72500000D01*
X80500000Y-77340000D02*
X79840000Y-77340000D01*
G04 #@! TO.N,Net-(D10-Pad2)*
X106500000Y-70500000D02*
X108000000Y-72000000D01*
X101160000Y-70500000D02*
X106500000Y-70500000D01*
X110500000Y-72000000D02*
X108000000Y-72000000D01*
X113820000Y-75320000D02*
X110500000Y-72000000D01*
X113820000Y-76000000D02*
X113820000Y-75320000D01*
G04 #@! TO.N,Net-(D11-Pad2)*
X127000000Y-76500000D02*
X132000000Y-76500000D01*
G04 #@! TO.N,Net-(D12-Pad2)*
X118000000Y-76500000D02*
X122500000Y-76500000D01*
X116840000Y-83000000D02*
X118340000Y-84500000D01*
X113820000Y-83000000D02*
X116840000Y-83000000D01*
X116900001Y-82939999D02*
X116840000Y-83000000D01*
X116900001Y-77599999D02*
X116900001Y-82939999D01*
X118000000Y-76500000D02*
X116900001Y-77599999D01*
X117240001Y-93400001D02*
X118340000Y-94500000D01*
X115500000Y-91660000D02*
X117240001Y-93400001D01*
X115500000Y-87340000D02*
X115500000Y-91660000D01*
X118340000Y-84500000D02*
X115500000Y-87340000D01*
G04 #@! TO.N,Net-(D15-Pad2)*
X92500000Y-98500000D02*
X85500000Y-91500000D01*
X97000000Y-98500000D02*
X92500000Y-98500000D01*
G04 #@! TO.N,Net-(D16-Pad1)*
X134500000Y-94500000D02*
X135500000Y-93500000D01*
X128500000Y-94500000D02*
X134500000Y-94500000D01*
D39*
G04 #@! TO.N,Net-(F1-Pad2)*
X56000000Y-117500000D02*
X53000000Y-114500000D01*
X56000000Y-128500000D02*
X56000000Y-117500000D01*
D38*
G04 #@! TO.N,Net-(F2-Pad2)*
X56000000Y-99500000D02*
X53000000Y-102500000D01*
X56000000Y-92580000D02*
X56000000Y-99500000D01*
G04 #@! TO.N,Net-(F3-Pad2)*
X56000000Y-76000000D02*
X52500000Y-72500000D01*
X56000000Y-82420000D02*
X56000000Y-76000000D01*
D39*
G04 #@! TO.N,REG3*
X81000000Y-142500000D02*
X75500000Y-137000000D01*
X90500000Y-142500000D02*
X81000000Y-142500000D01*
X90500000Y-142500000D02*
X113500000Y-142500000D01*
X127000000Y-133000000D02*
X130000000Y-133000000D01*
X117500000Y-142500000D02*
X127000000Y-133000000D01*
X113500000Y-142500000D02*
X117500000Y-142500000D01*
X135500000Y-130600000D02*
X135500000Y-127492510D01*
X133100000Y-133000000D02*
X135500000Y-130600000D01*
X130000000Y-133000000D02*
X133100000Y-133000000D01*
X139260000Y-130600000D02*
X135500000Y-130600000D01*
X140200000Y-129660000D02*
X139260000Y-130600000D01*
X144000000Y-129660000D02*
X140200000Y-129660000D01*
D38*
G04 #@! TO.N,REG1*
X97160000Y-112000000D02*
X100000000Y-114840000D01*
X82500000Y-112000000D02*
X97160000Y-112000000D01*
X105000000Y-119840000D02*
X100000000Y-114840000D01*
X105000000Y-125000000D02*
X105000000Y-119840000D01*
X106900000Y-121000000D02*
X105000000Y-122900000D01*
X105000000Y-122900000D02*
X105000000Y-125000000D01*
X116500000Y-121000000D02*
X106900000Y-121000000D01*
X132660000Y-119160000D02*
X135500000Y-122000000D01*
X132000000Y-119160000D02*
X132660000Y-119160000D01*
X135500000Y-122000000D02*
X138500000Y-122000000D01*
X141000000Y-119500000D02*
X144000000Y-119500000D01*
X138500000Y-122000000D02*
X141000000Y-119500000D01*
X128420000Y-140580000D02*
X127340000Y-139500000D01*
X128420000Y-145500000D02*
X128420000Y-140580000D01*
G04 #@! TO.N,REG2*
X93600000Y-116500000D02*
X91000000Y-116500000D01*
X100000000Y-122900000D02*
X93600000Y-116500000D01*
X100000000Y-125000000D02*
X100000000Y-122900000D01*
X132000000Y-112500000D02*
X125500000Y-119000000D01*
X132000000Y-109000000D02*
X132000000Y-112500000D01*
X126160000Y-119000000D02*
X130000000Y-122840000D01*
X125500000Y-119000000D02*
X126160000Y-119000000D01*
X131700000Y-124540000D02*
X135500000Y-124540000D01*
X130000000Y-122840000D02*
X131700000Y-124540000D01*
X143960000Y-124540000D02*
X144000000Y-124580000D01*
X135500000Y-124540000D02*
X143960000Y-124540000D01*
X128900001Y-123939999D02*
X130000000Y-122840000D01*
X124840000Y-128000000D02*
X128900001Y-123939999D01*
X103000000Y-128000000D02*
X124840000Y-128000000D01*
X100000000Y-125000000D02*
X103000000Y-128000000D01*
G04 #@! TO.N,MOS2*
X63000000Y-92000000D02*
X63000000Y-82500000D01*
X67500000Y-75900000D02*
X67500000Y-62500000D01*
X63000000Y-80400000D02*
X67500000Y-75900000D01*
X63000000Y-82500000D02*
X63000000Y-80400000D01*
X135540000Y-73000000D02*
X135500000Y-73040000D01*
X139500000Y-73000000D02*
X135540000Y-73000000D01*
X140580000Y-74080000D02*
X139500000Y-73000000D01*
X144000000Y-74080000D02*
X140580000Y-74080000D01*
X93500000Y-76000000D02*
X93500000Y-73000000D01*
X93500000Y-73000000D02*
X91000000Y-70500000D01*
X82000000Y-70500000D02*
X80000000Y-72500000D01*
X91000000Y-70500000D02*
X82000000Y-70500000D01*
X70000000Y-62500000D02*
X67500000Y-62500000D01*
X80000000Y-72500000D02*
X70000000Y-62500000D01*
X118040000Y-73040000D02*
X135500000Y-73040000D01*
X96100000Y-67500000D02*
X112500000Y-67500000D01*
X112500000Y-67500000D02*
X118040000Y-73040000D01*
X93100000Y-70500000D02*
X96100000Y-67500000D01*
X91000000Y-70500000D02*
X93100000Y-70500000D01*
G04 #@! TO.N,MOS1*
X137000000Y-69000000D02*
X135500000Y-70500000D01*
X144000000Y-69000000D02*
X137000000Y-69000000D01*
X136000000Y-68000000D02*
X137000000Y-69000000D01*
X136000000Y-66000000D02*
X136000000Y-68000000D01*
G04 #@! TO.N,MOS3*
X135500000Y-77532500D02*
X135500000Y-75580000D01*
X137127500Y-79160000D02*
X135500000Y-77532500D01*
X144000000Y-79160000D02*
X137127500Y-79160000D01*
G04 #@! TO.N,Net-(D8-Pad4)*
X64700000Y-146800000D02*
X64500000Y-147000000D01*
X64700000Y-137000000D02*
X64700000Y-146800000D01*
D39*
X64700000Y-137000000D02*
X59420000Y-137000000D01*
X59420000Y-137000000D02*
X56000000Y-133580000D01*
D38*
G04 #@! TO.N,+VDC*
X91500000Y-100660000D02*
X91500000Y-109000000D01*
G04 #@! TD*
D40*
G04 #@! TO.N,+VDC*
G36*
X148798001Y-139873000D02*
X140000000Y-139873000D01*
X139951399Y-139882667D01*
X139910197Y-139910197D01*
X139882667Y-139951399D01*
X139873000Y-140000000D01*
X139873000Y-148798000D01*
X132578052Y-148798000D01*
X132748319Y-148145386D01*
X132652521Y-147453004D01*
X132571862Y-147258276D01*
X132226741Y-147218736D01*
X131405477Y-148040000D01*
X131460632Y-148095155D01*
X131015155Y-148540632D01*
X130960000Y-148485477D01*
X130904846Y-148540632D01*
X130459369Y-148095155D01*
X130514523Y-148040000D01*
X129693259Y-147218736D01*
X129348138Y-147258276D01*
X129171681Y-147934614D01*
X129267479Y-148626996D01*
X129338311Y-148798000D01*
X75437611Y-148798000D01*
X76049289Y-148389289D01*
X76475194Y-147751878D01*
X76624752Y-147000000D01*
X76475194Y-146248122D01*
X76287000Y-145966470D01*
X76287000Y-143221294D01*
X76427000Y-142883304D01*
X76427000Y-142116696D01*
X76133632Y-141408442D01*
X75591558Y-140866368D01*
X74883304Y-140573000D01*
X74116696Y-140573000D01*
X73408442Y-140866368D01*
X72866368Y-141408442D01*
X72573000Y-142116696D01*
X72573000Y-142883304D01*
X72866368Y-143591558D01*
X73033001Y-143758191D01*
X73033000Y-145966470D01*
X72844806Y-146248122D01*
X72695248Y-147000000D01*
X72844806Y-147751878D01*
X73270711Y-148389289D01*
X73882389Y-148798000D01*
X65194738Y-148798000D01*
X65591558Y-148633632D01*
X66133632Y-148091558D01*
X66427000Y-147383304D01*
X66427000Y-146616696D01*
X66327000Y-146375274D01*
X66327000Y-142116696D01*
X67573000Y-142116696D01*
X67573000Y-142883304D01*
X67866368Y-143591558D01*
X68408442Y-144133632D01*
X69116696Y-144427000D01*
X69883304Y-144427000D01*
X70591558Y-144133632D01*
X71133632Y-143591558D01*
X71427000Y-142883304D01*
X71427000Y-142116696D01*
X71133632Y-141408442D01*
X71127000Y-141401810D01*
X71127000Y-134801971D01*
X88725530Y-134801971D01*
X88940619Y-135280890D01*
X90123520Y-135665957D01*
X91363737Y-135569035D01*
X92059381Y-135280890D01*
X92274470Y-134801971D01*
X111725530Y-134801971D01*
X111940619Y-135280890D01*
X113123520Y-135665957D01*
X114363737Y-135569035D01*
X115059381Y-135280890D01*
X115274470Y-134801971D01*
X113500000Y-133027502D01*
X111725530Y-134801971D01*
X92274470Y-134801971D01*
X90500000Y-133027502D01*
X88725530Y-134801971D01*
X71127000Y-134801971D01*
X71127000Y-132773924D01*
X71777404Y-132123520D01*
X87334043Y-132123520D01*
X87430965Y-133363737D01*
X87719110Y-134059381D01*
X88198029Y-134274470D01*
X89972498Y-132500000D01*
X91027502Y-132500000D01*
X92801971Y-134274470D01*
X93280890Y-134059381D01*
X93665957Y-132876480D01*
X93607114Y-132123520D01*
X110334043Y-132123520D01*
X110430965Y-133363737D01*
X110719110Y-134059381D01*
X111198029Y-134274470D01*
X112972498Y-132500000D01*
X114027502Y-132500000D01*
X115801971Y-134274470D01*
X116280890Y-134059381D01*
X116665957Y-132876480D01*
X116569035Y-131636263D01*
X116280890Y-130940619D01*
X115801971Y-130725530D01*
X114027502Y-132500000D01*
X112972498Y-132500000D01*
X111198029Y-130725530D01*
X110719110Y-130940619D01*
X110334043Y-132123520D01*
X93607114Y-132123520D01*
X93569035Y-131636263D01*
X93280890Y-130940619D01*
X92801971Y-130725530D01*
X91027502Y-132500000D01*
X89972498Y-132500000D01*
X88198029Y-130725530D01*
X87719110Y-130940619D01*
X87334043Y-132123520D01*
X71777404Y-132123520D01*
X73702895Y-130198029D01*
X88725530Y-130198029D01*
X90500000Y-131972498D01*
X92274470Y-130198029D01*
X92059381Y-129719110D01*
X90876480Y-129334043D01*
X89636263Y-129430965D01*
X88940619Y-129719110D01*
X88725530Y-130198029D01*
X73702895Y-130198029D01*
X75565095Y-128335830D01*
X75609484Y-128327000D01*
X75823087Y-128327000D01*
X76020429Y-128245258D01*
X76229914Y-128203589D01*
X76407510Y-128084923D01*
X76604848Y-128003183D01*
X76755882Y-127852149D01*
X76755885Y-127852147D01*
X76855884Y-127752147D01*
X77033481Y-127633481D01*
X77152149Y-127455882D01*
X77203183Y-127404848D01*
X77230802Y-127338169D01*
X77503590Y-126929914D01*
X77627000Y-126309489D01*
X77627000Y-126309485D01*
X77668669Y-126100001D01*
X77627000Y-125890516D01*
X77627000Y-116088139D01*
X77727063Y-115988076D01*
X78127000Y-115022543D01*
X78127000Y-113977457D01*
X77727063Y-113011924D01*
X76988076Y-112272937D01*
X76022543Y-111873000D01*
X74977457Y-111873000D01*
X74011924Y-112272937D01*
X73272937Y-113011924D01*
X72873000Y-113977457D01*
X72873000Y-115022543D01*
X73272937Y-115988076D01*
X73373000Y-116088139D01*
X73373001Y-125487776D01*
X73354742Y-125579571D01*
X73273000Y-125776913D01*
X73273000Y-125990516D01*
X73264170Y-126034905D01*
X68462848Y-130836228D01*
X68327000Y-130926999D01*
X68236230Y-131062846D01*
X67967400Y-131465177D01*
X67841127Y-132100000D01*
X67873001Y-132260243D01*
X67873000Y-141401810D01*
X67866368Y-141408442D01*
X67573000Y-142116696D01*
X66327000Y-142116696D01*
X66327000Y-138393520D01*
X66352149Y-138355882D01*
X66503183Y-138204848D01*
X66584922Y-138007513D01*
X66703590Y-137829914D01*
X66745260Y-137620424D01*
X66827000Y-137423087D01*
X66827000Y-137209489D01*
X66868670Y-137000000D01*
X66827000Y-136790511D01*
X66827000Y-136576913D01*
X66745260Y-136379576D01*
X66703590Y-136170086D01*
X66584922Y-135992487D01*
X66503183Y-135795152D01*
X66352149Y-135644118D01*
X66233481Y-135466519D01*
X66055882Y-135347851D01*
X65904848Y-135196817D01*
X65707513Y-135115078D01*
X65529914Y-134996410D01*
X65320424Y-134954740D01*
X65123087Y-134873000D01*
X60301032Y-134873000D01*
X58949079Y-133521047D01*
X58949079Y-132680000D01*
X58861611Y-132240267D01*
X58612522Y-131867478D01*
X58239733Y-131618389D01*
X57800000Y-131530921D01*
X56601220Y-131530921D01*
X56000000Y-131411331D01*
X55398780Y-131530921D01*
X54200000Y-131530921D01*
X53760267Y-131618389D01*
X53387478Y-131867478D01*
X53138389Y-132240267D01*
X53050921Y-132680000D01*
X53050921Y-134480000D01*
X53138389Y-134919733D01*
X53387478Y-135292522D01*
X53760267Y-135541611D01*
X54200000Y-135629079D01*
X55041047Y-135629079D01*
X57767853Y-138355885D01*
X57886519Y-138533481D01*
X58590086Y-139003590D01*
X59210511Y-139127000D01*
X59210515Y-139127000D01*
X59419999Y-139168669D01*
X59629483Y-139127000D01*
X63073000Y-139127000D01*
X63073001Y-145701809D01*
X62866368Y-145908442D01*
X62573000Y-146616696D01*
X62573000Y-147383304D01*
X62866368Y-148091558D01*
X63408442Y-148633632D01*
X63805262Y-148798000D01*
X60127000Y-148798000D01*
X60127000Y-140000000D01*
X60117333Y-139951399D01*
X60089803Y-139910197D01*
X60048601Y-139882667D01*
X60000000Y-139873000D01*
X51202000Y-139873000D01*
X51202000Y-116417139D01*
X51511924Y-116727063D01*
X52477457Y-117127000D01*
X52618968Y-117127000D01*
X53873001Y-118381033D01*
X53873000Y-126882004D01*
X53638615Y-127038615D01*
X53190608Y-127709104D01*
X53033289Y-128500000D01*
X53190608Y-129290896D01*
X53638615Y-129961385D01*
X54309104Y-130409392D01*
X54900359Y-130527000D01*
X55287776Y-130527000D01*
X56000000Y-130668670D01*
X56712223Y-130527000D01*
X57099641Y-130527000D01*
X57690896Y-130409392D01*
X58361385Y-129961385D01*
X58809392Y-129290896D01*
X58966711Y-128500000D01*
X58821839Y-127771676D01*
X63655825Y-127771676D01*
X63746047Y-128147589D01*
X64563972Y-128364400D01*
X65402607Y-128251700D01*
X65653953Y-128147589D01*
X65744175Y-127771676D01*
X64700000Y-126727502D01*
X63655825Y-127771676D01*
X58821839Y-127771676D01*
X58809392Y-127709104D01*
X58361385Y-127038615D01*
X58127000Y-126882004D01*
X58127000Y-126063972D01*
X62535600Y-126063972D01*
X62648300Y-126902607D01*
X62752411Y-127153953D01*
X63128324Y-127244175D01*
X64172498Y-126200000D01*
X65227502Y-126200000D01*
X66271676Y-127244175D01*
X66647589Y-127153953D01*
X66864400Y-126336028D01*
X66751700Y-125497393D01*
X66647589Y-125246047D01*
X66271676Y-125155825D01*
X65227502Y-126200000D01*
X64172498Y-126200000D01*
X63128324Y-125155825D01*
X62752411Y-125246047D01*
X62535600Y-126063972D01*
X58127000Y-126063972D01*
X58127000Y-124628324D01*
X63655825Y-124628324D01*
X64700000Y-125672498D01*
X65744175Y-124628324D01*
X65653953Y-124252411D01*
X64836028Y-124035600D01*
X63997393Y-124148300D01*
X63746047Y-124252411D01*
X63655825Y-124628324D01*
X58127000Y-124628324D01*
X58127000Y-117709486D01*
X58168669Y-117500000D01*
X58127000Y-117290514D01*
X58127000Y-117290511D01*
X58033925Y-116822592D01*
X58003590Y-116670085D01*
X57652147Y-116144115D01*
X57533481Y-115966519D01*
X57355885Y-115847853D01*
X55627000Y-114118968D01*
X55627000Y-114007294D01*
X61773000Y-114007294D01*
X61773000Y-114992706D01*
X62150101Y-115903108D01*
X62846892Y-116599899D01*
X63757294Y-116977000D01*
X64742706Y-116977000D01*
X65653108Y-116599899D01*
X66349899Y-115903108D01*
X66727000Y-114992706D01*
X66727000Y-114007294D01*
X66349899Y-113096892D01*
X65653108Y-112400101D01*
X64742706Y-112023000D01*
X63757294Y-112023000D01*
X62846892Y-112400101D01*
X62150101Y-113096892D01*
X61773000Y-114007294D01*
X55627000Y-114007294D01*
X55627000Y-113977457D01*
X55227063Y-113011924D01*
X54488076Y-112272937D01*
X53522543Y-111873000D01*
X52477457Y-111873000D01*
X51511924Y-112272937D01*
X51202000Y-112582861D01*
X51202000Y-110471808D01*
X84623600Y-106127000D01*
X85627000Y-106127000D01*
X85627000Y-106107000D01*
X86373000Y-106107000D01*
X86373000Y-106127000D01*
X87844740Y-106127000D01*
X88126490Y-105845250D01*
X88126490Y-105671624D01*
X101231043Y-103968032D01*
X99266076Y-105933000D01*
X99096805Y-105933000D01*
X98351797Y-106241593D01*
X97781593Y-106811797D01*
X97473000Y-107556805D01*
X97473000Y-108363195D01*
X97698524Y-108907657D01*
X97644575Y-108961606D01*
X97473000Y-109375826D01*
X97473000Y-109845250D01*
X97754748Y-110126998D01*
X97473000Y-110126998D01*
X97473000Y-110403385D01*
X97320242Y-110373000D01*
X97320238Y-110373000D01*
X97160000Y-110341127D01*
X96999762Y-110373000D01*
X93400505Y-110373000D01*
X93364813Y-110337308D01*
X93781723Y-110196715D01*
X94066000Y-109232443D01*
X93959627Y-108232783D01*
X93781723Y-107803285D01*
X93364810Y-107662691D01*
X92027502Y-109000000D01*
X92041644Y-109014142D01*
X91514142Y-109541644D01*
X91500000Y-109527502D01*
X91485858Y-109541644D01*
X90958356Y-109014142D01*
X90972498Y-109000000D01*
X89635190Y-107662691D01*
X89218277Y-107803285D01*
X88934000Y-108767557D01*
X89040373Y-109767217D01*
X89218277Y-110196715D01*
X89635187Y-110337308D01*
X89599495Y-110373000D01*
X84869497Y-110373000D01*
X84927000Y-110234174D01*
X84927000Y-110016750D01*
X84645250Y-109735000D01*
X83273000Y-109735000D01*
X83273000Y-109853000D01*
X82732572Y-109853000D01*
X82507000Y-109515407D01*
X82507000Y-109185000D01*
X82527000Y-109185000D01*
X82527000Y-108064750D01*
X83273000Y-108064750D01*
X83273000Y-109185000D01*
X84645250Y-109185000D01*
X84927000Y-108903250D01*
X84927000Y-108685826D01*
X84902422Y-108626490D01*
X85345250Y-108626490D01*
X85627000Y-108344740D01*
X85627000Y-106873000D01*
X86373000Y-106873000D01*
X86373000Y-108344740D01*
X86654750Y-108626490D01*
X87223664Y-108626490D01*
X87637884Y-108454914D01*
X87954915Y-108137884D01*
X88126490Y-107723664D01*
X88126490Y-107154750D01*
X88106930Y-107135190D01*
X90162691Y-107135190D01*
X91500000Y-108472498D01*
X92837309Y-107135190D01*
X92696715Y-106718277D01*
X91732443Y-106434000D01*
X90732783Y-106540373D01*
X90303285Y-106718277D01*
X90162691Y-107135190D01*
X88106930Y-107135190D01*
X87844740Y-106873000D01*
X86373000Y-106873000D01*
X85627000Y-106873000D01*
X84155260Y-106873000D01*
X83873510Y-107154750D01*
X83873510Y-107723664D01*
X83898088Y-107783000D01*
X83554750Y-107783000D01*
X83273000Y-108064750D01*
X82527000Y-108064750D01*
X82245250Y-107783000D01*
X81775826Y-107783000D01*
X81361606Y-107954576D01*
X81044575Y-108271606D01*
X80873000Y-108685826D01*
X80873000Y-108903250D01*
X81000671Y-109030921D01*
X80205000Y-109030921D01*
X79660029Y-109139323D01*
X79198024Y-109448024D01*
X78889323Y-109910029D01*
X78780921Y-110455000D01*
X78780921Y-111005000D01*
X78889323Y-111549971D01*
X79198024Y-112011976D01*
X79213001Y-112021983D01*
X79213000Y-115466470D01*
X79024806Y-115748122D01*
X78875248Y-116500000D01*
X79024806Y-117251878D01*
X79450711Y-117889289D01*
X80088122Y-118315194D01*
X80650208Y-118427000D01*
X81029792Y-118427000D01*
X81591878Y-118315194D01*
X82229289Y-117889289D01*
X82655194Y-117251878D01*
X82804752Y-116500000D01*
X82655194Y-115748122D01*
X82467000Y-115466470D01*
X82467000Y-113699079D01*
X83800000Y-113699079D01*
X84162367Y-113627000D01*
X96486076Y-113627000D01*
X97736894Y-114877819D01*
X97902212Y-115708932D01*
X98394423Y-116445577D01*
X99131068Y-116937788D01*
X99780662Y-117067000D01*
X99926076Y-117067000D01*
X103373001Y-120513927D01*
X103373000Y-122739760D01*
X103341127Y-122900000D01*
X103344287Y-122915884D01*
X103087478Y-123087478D01*
X102838389Y-123460267D01*
X102750921Y-123900000D01*
X102750921Y-125449996D01*
X102249079Y-124948154D01*
X102249079Y-123900000D01*
X102161611Y-123460267D01*
X101912522Y-123087478D01*
X101655714Y-122915885D01*
X101658874Y-122900000D01*
X101532600Y-122265176D01*
X101263771Y-121862845D01*
X101263770Y-121862844D01*
X101173001Y-121726999D01*
X101037156Y-121636230D01*
X94863774Y-115462849D01*
X94773001Y-115326999D01*
X94234824Y-114967400D01*
X93760242Y-114873000D01*
X93760238Y-114873000D01*
X93600000Y-114841127D01*
X93439762Y-114873000D01*
X92098190Y-114873000D01*
X92091558Y-114866368D01*
X91383304Y-114573000D01*
X90616696Y-114573000D01*
X89908442Y-114866368D01*
X89366368Y-115408442D01*
X89073000Y-116116696D01*
X89073000Y-116883304D01*
X89366368Y-117591558D01*
X89908442Y-118133632D01*
X90616696Y-118427000D01*
X91383304Y-118427000D01*
X92091558Y-118133632D01*
X92098190Y-118127000D01*
X92926076Y-118127000D01*
X98006999Y-123207924D01*
X97838389Y-123460267D01*
X97750921Y-123900000D01*
X97750921Y-126100000D01*
X97838389Y-126539733D01*
X98087478Y-126912522D01*
X98460267Y-127161611D01*
X98900000Y-127249079D01*
X99948154Y-127249079D01*
X101736230Y-129037156D01*
X101826999Y-129173001D01*
X101962844Y-129263770D01*
X101962845Y-129263771D01*
X102365176Y-129532600D01*
X103000000Y-129658874D01*
X103160242Y-129627000D01*
X112162992Y-129627000D01*
X111940619Y-129719110D01*
X111725530Y-130198029D01*
X113500000Y-131972498D01*
X115274470Y-130198029D01*
X115059381Y-129719110D01*
X114776425Y-129627000D01*
X124679762Y-129627000D01*
X124840000Y-129658873D01*
X125000238Y-129627000D01*
X125000242Y-129627000D01*
X125474824Y-129532600D01*
X126013001Y-129173001D01*
X126103774Y-129037150D01*
X130000000Y-125140925D01*
X130436228Y-125577153D01*
X130526999Y-125713001D01*
X131065176Y-126072600D01*
X131539758Y-126167000D01*
X131539761Y-126167000D01*
X131699999Y-126198873D01*
X131860237Y-126167000D01*
X133561555Y-126167000D01*
X133493655Y-126268620D01*
X133332261Y-127080000D01*
X133373000Y-127284808D01*
X133373000Y-129718968D01*
X132218968Y-130873000D01*
X131591532Y-130873000D01*
X131539733Y-130838389D01*
X131100000Y-130750921D01*
X128900000Y-130750921D01*
X128460267Y-130838389D01*
X128408468Y-130873000D01*
X127209486Y-130873000D01*
X127000000Y-130831331D01*
X126790514Y-130873000D01*
X126790511Y-130873000D01*
X126322592Y-130966075D01*
X126170085Y-130996410D01*
X125644115Y-131347853D01*
X125466519Y-131466519D01*
X125347853Y-131644115D01*
X116623013Y-140368955D01*
X116561611Y-140060267D01*
X116312522Y-139687478D01*
X115939733Y-139438389D01*
X115500000Y-139350921D01*
X111500000Y-139350921D01*
X111060267Y-139438389D01*
X110687478Y-139687478D01*
X110438389Y-140060267D01*
X110376183Y-140373000D01*
X93623817Y-140373000D01*
X93561611Y-140060267D01*
X93312522Y-139687478D01*
X92939733Y-139438389D01*
X92500000Y-139350921D01*
X88500000Y-139350921D01*
X88060267Y-139438389D01*
X87687478Y-139687478D01*
X87438389Y-140060267D01*
X87376183Y-140373000D01*
X81881032Y-140373000D01*
X77649079Y-136141047D01*
X77649079Y-136000000D01*
X77561611Y-135560267D01*
X77312522Y-135187478D01*
X76939733Y-134938389D01*
X76500000Y-134850921D01*
X75598486Y-134850921D01*
X75500000Y-134831331D01*
X75401514Y-134850921D01*
X74500000Y-134850921D01*
X74060267Y-134938389D01*
X73687478Y-135187478D01*
X73438389Y-135560267D01*
X73350921Y-136000000D01*
X73350921Y-136901514D01*
X73331331Y-137000000D01*
X73350921Y-137098486D01*
X73350921Y-138000000D01*
X73438389Y-138439733D01*
X73687478Y-138812522D01*
X74060267Y-139061611D01*
X74500000Y-139149079D01*
X74641047Y-139149079D01*
X79347853Y-143855885D01*
X79466519Y-144033481D01*
X80170086Y-144503590D01*
X80790511Y-144627000D01*
X80790514Y-144627000D01*
X81000000Y-144668669D01*
X81209486Y-144627000D01*
X87376183Y-144627000D01*
X87438389Y-144939733D01*
X87687478Y-145312522D01*
X88060267Y-145561611D01*
X88500000Y-145649079D01*
X92500000Y-145649079D01*
X92939733Y-145561611D01*
X93312522Y-145312522D01*
X93561611Y-144939733D01*
X93623817Y-144627000D01*
X110376183Y-144627000D01*
X110438389Y-144939733D01*
X110687478Y-145312522D01*
X111060267Y-145561611D01*
X111500000Y-145649079D01*
X115500000Y-145649079D01*
X115939733Y-145561611D01*
X116312522Y-145312522D01*
X116561611Y-144939733D01*
X116623817Y-144627000D01*
X117290516Y-144627000D01*
X117500000Y-144668669D01*
X117709484Y-144627000D01*
X117709489Y-144627000D01*
X118329914Y-144503590D01*
X119033481Y-144033481D01*
X119152147Y-143855885D01*
X123891336Y-139116696D01*
X125413000Y-139116696D01*
X125413000Y-139883304D01*
X125706368Y-140591558D01*
X126248442Y-141133632D01*
X126793001Y-141359195D01*
X126793000Y-144836662D01*
X126663000Y-145150511D01*
X126663000Y-145849489D01*
X126930487Y-146495261D01*
X127424739Y-146989513D01*
X128070511Y-147257000D01*
X128769489Y-147257000D01*
X129415261Y-146989513D01*
X129631515Y-146773259D01*
X130138736Y-146773259D01*
X130960000Y-147594523D01*
X131781264Y-146773259D01*
X131780518Y-146766741D01*
X132678736Y-146766741D01*
X132718276Y-147111862D01*
X133394614Y-147288319D01*
X134086996Y-147192521D01*
X134281724Y-147111862D01*
X134321264Y-146766741D01*
X133500000Y-145945477D01*
X132678736Y-146766741D01*
X131780518Y-146766741D01*
X131741724Y-146428138D01*
X131065386Y-146251681D01*
X130373004Y-146347479D01*
X130178276Y-146428138D01*
X130138736Y-146773259D01*
X129631515Y-146773259D01*
X129909513Y-146495261D01*
X130177000Y-145849489D01*
X130177000Y-145394614D01*
X131711681Y-145394614D01*
X131807479Y-146086996D01*
X131888138Y-146281724D01*
X132233259Y-146321264D01*
X133054523Y-145500000D01*
X133945477Y-145500000D01*
X134766741Y-146321264D01*
X135111862Y-146281724D01*
X135288319Y-145605386D01*
X135192521Y-144913004D01*
X135111862Y-144718276D01*
X134766741Y-144678736D01*
X133945477Y-145500000D01*
X133054523Y-145500000D01*
X132233259Y-144678736D01*
X131888138Y-144718276D01*
X131711681Y-145394614D01*
X130177000Y-145394614D01*
X130177000Y-145150511D01*
X130047000Y-144836663D01*
X130047000Y-144233259D01*
X132678736Y-144233259D01*
X133500000Y-145054523D01*
X134321264Y-144233259D01*
X134281724Y-143888138D01*
X133605386Y-143711681D01*
X132913004Y-143807479D01*
X132718276Y-143888138D01*
X132678736Y-144233259D01*
X130047000Y-144233259D01*
X130047000Y-140740242D01*
X130078874Y-140580000D01*
X129996158Y-140164156D01*
X135691071Y-140164156D01*
X135751246Y-140309491D01*
X136194141Y-140917091D01*
X136835841Y-141308952D01*
X137127000Y-141108828D01*
X137127000Y-139873000D01*
X137873000Y-139873000D01*
X137873000Y-141108828D01*
X138164159Y-141308952D01*
X138805859Y-140917091D01*
X139248754Y-140309491D01*
X139308929Y-140164156D01*
X139102410Y-139873000D01*
X137873000Y-139873000D01*
X137127000Y-139873000D01*
X135897590Y-139873000D01*
X135691071Y-140164156D01*
X129996158Y-140164156D01*
X129952600Y-139945176D01*
X129683771Y-139542845D01*
X129683770Y-139542844D01*
X129593001Y-139406999D01*
X129457155Y-139316230D01*
X129267000Y-139126075D01*
X129267000Y-139116696D01*
X129150668Y-138835844D01*
X135691071Y-138835844D01*
X135897590Y-139127000D01*
X137127000Y-139127000D01*
X137127000Y-137891172D01*
X137873000Y-137891172D01*
X137873000Y-139127000D01*
X139102410Y-139127000D01*
X139308929Y-138835844D01*
X139248754Y-138690509D01*
X138805859Y-138082909D01*
X138164159Y-137691048D01*
X137873000Y-137891172D01*
X137127000Y-137891172D01*
X136835841Y-137691048D01*
X136194141Y-138082909D01*
X135751246Y-138690509D01*
X135691071Y-138835844D01*
X129150668Y-138835844D01*
X128973632Y-138408442D01*
X128431558Y-137866368D01*
X127723304Y-137573000D01*
X126956696Y-137573000D01*
X126248442Y-137866368D01*
X125706368Y-138408442D01*
X125413000Y-139116696D01*
X123891336Y-139116696D01*
X125583814Y-137424218D01*
X134103284Y-137424218D01*
X134167914Y-137779854D01*
X134912373Y-137962796D01*
X135670173Y-137846920D01*
X135832086Y-137779854D01*
X135896716Y-137424218D01*
X135000000Y-136527502D01*
X134103284Y-137424218D01*
X125583814Y-137424218D01*
X127881032Y-135127000D01*
X128408468Y-135127000D01*
X128460267Y-135161611D01*
X128900000Y-135249079D01*
X131100000Y-135249079D01*
X131539733Y-135161611D01*
X131591532Y-135127000D01*
X132890516Y-135127000D01*
X133100000Y-135168669D01*
X133309484Y-135127000D01*
X133309489Y-135127000D01*
X133551381Y-135078885D01*
X133575780Y-135103284D01*
X133220146Y-135167914D01*
X133037204Y-135912373D01*
X133153080Y-136670173D01*
X133220146Y-136832086D01*
X133575782Y-136896716D01*
X134472498Y-136000000D01*
X135527502Y-136000000D01*
X136424218Y-136896716D01*
X136779854Y-136832086D01*
X136962796Y-136087627D01*
X136846920Y-135329827D01*
X136779854Y-135167914D01*
X136424218Y-135103284D01*
X135527502Y-136000000D01*
X134472498Y-136000000D01*
X134458356Y-135985858D01*
X134985858Y-135458356D01*
X135000000Y-135472498D01*
X135896716Y-134575782D01*
X135832086Y-134220146D01*
X135087627Y-134037204D01*
X135067796Y-134040236D01*
X136381032Y-132727000D01*
X139050516Y-132727000D01*
X139260000Y-132768669D01*
X139469484Y-132727000D01*
X139469489Y-132727000D01*
X140089914Y-132603590D01*
X140793481Y-132133481D01*
X140912147Y-131955884D01*
X141081032Y-131787000D01*
X144209489Y-131787000D01*
X144712224Y-131687000D01*
X145099641Y-131687000D01*
X145690896Y-131569392D01*
X146361385Y-131121385D01*
X146809392Y-130450896D01*
X146966711Y-129660000D01*
X146809392Y-128869104D01*
X146361385Y-128198615D01*
X145690896Y-127750608D01*
X145099641Y-127633000D01*
X144712224Y-127633000D01*
X144209489Y-127533000D01*
X140409486Y-127533000D01*
X140200000Y-127491331D01*
X139990514Y-127533000D01*
X139990511Y-127533000D01*
X139522592Y-127626075D01*
X139370085Y-127656410D01*
X139197578Y-127771676D01*
X138666519Y-128126519D01*
X138547851Y-128304117D01*
X138378969Y-128473000D01*
X137627000Y-128473000D01*
X137627000Y-127284808D01*
X137667739Y-127080000D01*
X137506345Y-126268620D01*
X137438445Y-126167000D01*
X141826611Y-126167000D01*
X142309104Y-126489392D01*
X142900359Y-126607000D01*
X145099641Y-126607000D01*
X145690896Y-126489392D01*
X146361385Y-126041385D01*
X146809392Y-125370896D01*
X146966711Y-124580000D01*
X146809392Y-123789104D01*
X146361385Y-123118615D01*
X145690896Y-122670608D01*
X145099641Y-122553000D01*
X142900359Y-122553000D01*
X142309104Y-122670608D01*
X141946339Y-122913000D01*
X139887924Y-122913000D01*
X141507924Y-121293001D01*
X141760267Y-121461611D01*
X142200000Y-121549079D01*
X145800000Y-121549079D01*
X146239733Y-121461611D01*
X146612522Y-121212522D01*
X146861611Y-120839733D01*
X146949079Y-120400000D01*
X146949079Y-118600000D01*
X146861611Y-118160267D01*
X146612522Y-117787478D01*
X146239733Y-117538389D01*
X145800000Y-117450921D01*
X142200000Y-117450921D01*
X141760267Y-117538389D01*
X141387478Y-117787478D01*
X141330334Y-117873000D01*
X141160238Y-117873000D01*
X141000000Y-117841127D01*
X140839762Y-117873000D01*
X140839758Y-117873000D01*
X140388071Y-117962846D01*
X140365176Y-117967400D01*
X139962845Y-118236229D01*
X139962844Y-118236230D01*
X139826999Y-118326999D01*
X139736230Y-118462844D01*
X137826076Y-120373000D01*
X137404745Y-120373000D01*
X137312522Y-120234978D01*
X136939733Y-119985889D01*
X136500000Y-119898421D01*
X135699346Y-119898421D01*
X133923773Y-118122849D01*
X133833001Y-117986999D01*
X133294824Y-117627400D01*
X133123938Y-117593409D01*
X132751878Y-117344806D01*
X132189792Y-117233000D01*
X131810208Y-117233000D01*
X131248122Y-117344806D01*
X130610711Y-117770711D01*
X130184806Y-118408122D01*
X130035248Y-119160000D01*
X130184806Y-119911878D01*
X130610711Y-120549289D01*
X131248122Y-120975194D01*
X131810208Y-121087000D01*
X132189792Y-121087000D01*
X132270101Y-121071026D01*
X133350921Y-122151846D01*
X133350921Y-122913000D01*
X132373925Y-122913000D01*
X132263107Y-122802182D01*
X132097788Y-121971068D01*
X131605577Y-121234423D01*
X130868932Y-120742212D01*
X130219338Y-120613000D01*
X130073925Y-120613000D01*
X128235607Y-118774682D01*
X128200871Y-118600053D01*
X133037153Y-113763772D01*
X133173001Y-113673001D01*
X133532600Y-113134824D01*
X133627000Y-112660242D01*
X133627000Y-112660239D01*
X133658873Y-112500001D01*
X133627000Y-112339763D01*
X133627000Y-110098190D01*
X133633632Y-110091558D01*
X133770932Y-109760086D01*
X141190494Y-109760086D01*
X141402944Y-110249555D01*
X141979694Y-110809963D01*
X142727000Y-111107000D01*
X143627000Y-111107000D01*
X143627000Y-109453000D01*
X144373000Y-109453000D01*
X144373000Y-111107000D01*
X145273000Y-111107000D01*
X146020306Y-110809963D01*
X146597056Y-110249555D01*
X146809506Y-109760086D01*
X146604925Y-109453000D01*
X144373000Y-109453000D01*
X143627000Y-109453000D01*
X141395075Y-109453000D01*
X141190494Y-109760086D01*
X133770932Y-109760086D01*
X133927000Y-109383304D01*
X133927000Y-108616696D01*
X133837207Y-108399914D01*
X141190494Y-108399914D01*
X141395075Y-108707000D01*
X143627000Y-108707000D01*
X143627000Y-107053000D01*
X144373000Y-107053000D01*
X144373000Y-108707000D01*
X146604925Y-108707000D01*
X146809506Y-108399914D01*
X146597056Y-107910445D01*
X146020306Y-107350037D01*
X145273000Y-107053000D01*
X144373000Y-107053000D01*
X143627000Y-107053000D01*
X142727000Y-107053000D01*
X141979694Y-107350037D01*
X141402944Y-107910445D01*
X141190494Y-108399914D01*
X133837207Y-108399914D01*
X133633632Y-107908442D01*
X133091558Y-107366368D01*
X132383304Y-107073000D01*
X131616696Y-107073000D01*
X130908442Y-107366368D01*
X130366368Y-107908442D01*
X130073000Y-108616696D01*
X130073000Y-109383304D01*
X130366368Y-110091558D01*
X130373000Y-110098190D01*
X130373001Y-111826074D01*
X125899947Y-116299129D01*
X125768586Y-116273000D01*
X125231414Y-116273000D01*
X124435977Y-116431222D01*
X123533943Y-117033943D01*
X122931222Y-117935977D01*
X122719575Y-119000000D01*
X122931222Y-120064023D01*
X123533943Y-120966057D01*
X124435977Y-121568778D01*
X125231414Y-121727000D01*
X125768586Y-121727000D01*
X126450446Y-121591370D01*
X127699075Y-122840000D01*
X124166076Y-126373000D01*
X107194776Y-126373000D01*
X107249079Y-126100000D01*
X107249079Y-123900000D01*
X107161611Y-123460267D01*
X106993001Y-123207924D01*
X107573925Y-122627000D01*
X114909146Y-122627000D01*
X115260267Y-122861611D01*
X115700000Y-122949079D01*
X117300000Y-122949079D01*
X117739733Y-122861611D01*
X118112522Y-122612522D01*
X118361611Y-122239733D01*
X118449079Y-121800000D01*
X118449079Y-120200000D01*
X118361611Y-119760267D01*
X118112522Y-119387478D01*
X118083127Y-119367837D01*
X118279854Y-119332086D01*
X118462796Y-118587627D01*
X118346920Y-117829827D01*
X118279854Y-117667914D01*
X117924218Y-117603284D01*
X117027502Y-118500000D01*
X117041644Y-118514142D01*
X116514142Y-119041644D01*
X116500000Y-119027502D01*
X116485858Y-119041644D01*
X115958356Y-118514142D01*
X115972498Y-118500000D01*
X115075782Y-117603284D01*
X114720146Y-117667914D01*
X114537204Y-118412373D01*
X114653080Y-119170173D01*
X114720146Y-119332086D01*
X114916873Y-119367837D01*
X114909146Y-119373000D01*
X107060242Y-119373000D01*
X106900000Y-119341126D01*
X106572596Y-119406251D01*
X106532600Y-119205176D01*
X106263771Y-118802845D01*
X106263770Y-118802844D01*
X106173001Y-118666999D01*
X106037156Y-118576230D01*
X104536708Y-117075782D01*
X115603284Y-117075782D01*
X116500000Y-117972498D01*
X117396716Y-117075782D01*
X117332086Y-116720146D01*
X116587627Y-116537204D01*
X115829827Y-116653080D01*
X115667914Y-116720146D01*
X115603284Y-117075782D01*
X104536708Y-117075782D01*
X104465170Y-117004245D01*
X104780662Y-117067000D01*
X105219338Y-117067000D01*
X105868932Y-116937788D01*
X106573515Y-116467000D01*
X110290244Y-116467000D01*
X110387478Y-116612522D01*
X110760267Y-116861611D01*
X111200000Y-116949079D01*
X112800000Y-116949079D01*
X113239733Y-116861611D01*
X113612522Y-116612522D01*
X113861611Y-116239733D01*
X113949079Y-115800000D01*
X113949079Y-114200000D01*
X113861611Y-113760267D01*
X113612522Y-113387478D01*
X113583127Y-113367837D01*
X113779854Y-113332086D01*
X113962796Y-112587627D01*
X113846920Y-111829827D01*
X113779854Y-111667914D01*
X113424218Y-111603284D01*
X112527502Y-112500000D01*
X112541644Y-112514142D01*
X112014142Y-113041644D01*
X112000000Y-113027502D01*
X111985858Y-113041644D01*
X111458356Y-112514142D01*
X111472498Y-112500000D01*
X110575782Y-111603284D01*
X110220146Y-111667914D01*
X110037204Y-112412373D01*
X110153080Y-113170173D01*
X110170819Y-113213000D01*
X106573515Y-113213000D01*
X105868932Y-112742212D01*
X105219338Y-112613000D01*
X104780662Y-112613000D01*
X104131068Y-112742212D01*
X103394423Y-113234423D01*
X102902212Y-113971068D01*
X102729371Y-114840000D01*
X102835755Y-115374831D01*
X102263107Y-114802182D01*
X102097788Y-113971068D01*
X101605577Y-113234423D01*
X100868932Y-112742212D01*
X100219338Y-112613000D01*
X100073925Y-112613000D01*
X99873002Y-112412077D01*
X99873002Y-112245252D01*
X100154750Y-112527000D01*
X100624174Y-112527000D01*
X101038394Y-112355424D01*
X101355425Y-112038394D01*
X101527000Y-111624174D01*
X101527000Y-111154750D01*
X101448032Y-111075782D01*
X111103284Y-111075782D01*
X112000000Y-111972498D01*
X112896716Y-111075782D01*
X112832086Y-110720146D01*
X112087627Y-110537204D01*
X111329827Y-110653080D01*
X111167914Y-110720146D01*
X111103284Y-111075782D01*
X101448032Y-111075782D01*
X101245250Y-110873000D01*
X99873000Y-110873000D01*
X99873000Y-110893000D01*
X99127000Y-110893000D01*
X99127000Y-110873000D01*
X99107000Y-110873000D01*
X99107000Y-110127000D01*
X99127000Y-110127000D01*
X99127000Y-110107000D01*
X99873000Y-110107000D01*
X99873000Y-110127000D01*
X101245250Y-110127000D01*
X101527000Y-109845250D01*
X101527000Y-109375826D01*
X101355425Y-108961606D01*
X101301476Y-108907657D01*
X101527000Y-108363195D01*
X101527000Y-108273924D01*
X104388552Y-105412373D01*
X108537204Y-105412373D01*
X108653080Y-106170173D01*
X108720146Y-106332086D01*
X108916873Y-106367837D01*
X108887478Y-106387478D01*
X108638389Y-106760267D01*
X108550921Y-107200000D01*
X108550921Y-108800000D01*
X108638389Y-109239733D01*
X108887478Y-109612522D01*
X109260267Y-109861611D01*
X109700000Y-109949079D01*
X111300000Y-109949079D01*
X111739733Y-109861611D01*
X112112522Y-109612522D01*
X112361611Y-109239733D01*
X112449079Y-108800000D01*
X112449079Y-107200000D01*
X112361611Y-106760267D01*
X112112522Y-106387478D01*
X112083127Y-106367837D01*
X112279854Y-106332086D01*
X112462796Y-105587627D01*
X112346920Y-104829827D01*
X112279854Y-104667914D01*
X111924218Y-104603284D01*
X111027502Y-105500000D01*
X111041644Y-105514142D01*
X110514142Y-106041644D01*
X110500000Y-106027502D01*
X110485858Y-106041644D01*
X109958356Y-105514142D01*
X109972498Y-105500000D01*
X109075782Y-104603284D01*
X108720146Y-104667914D01*
X108537204Y-105412373D01*
X104388552Y-105412373D01*
X105725143Y-104075782D01*
X109603284Y-104075782D01*
X110500000Y-104972498D01*
X111396716Y-104075782D01*
X111332086Y-103720146D01*
X110587627Y-103537204D01*
X109829827Y-103653080D01*
X109667914Y-103720146D01*
X109603284Y-104075782D01*
X105725143Y-104075782D01*
X106520526Y-103280400D01*
X107700523Y-103127000D01*
X115986076Y-103127000D01*
X117618721Y-104759647D01*
X117684806Y-105091878D01*
X118110711Y-105729289D01*
X118748122Y-106155194D01*
X119310208Y-106267000D01*
X119689792Y-106267000D01*
X120251878Y-106155194D01*
X120889289Y-105729289D01*
X121315194Y-105091878D01*
X121464752Y-104340000D01*
X121315194Y-103588122D01*
X120889289Y-102950711D01*
X120251878Y-102524806D01*
X119919647Y-102458721D01*
X119105304Y-101644379D01*
X123752753Y-101040210D01*
X123460267Y-101098389D01*
X123087478Y-101347478D01*
X122838389Y-101720267D01*
X122750921Y-102160000D01*
X122750921Y-104208154D01*
X118462848Y-108496228D01*
X118327000Y-108586999D01*
X118236230Y-108722846D01*
X117967400Y-109125177D01*
X117841127Y-109760000D01*
X117873001Y-109920243D01*
X117873000Y-113401810D01*
X117866368Y-113408442D01*
X117573000Y-114116696D01*
X117573000Y-114883304D01*
X117866368Y-115591558D01*
X118408442Y-116133632D01*
X119116696Y-116427000D01*
X119883304Y-116427000D01*
X120591558Y-116133632D01*
X121133632Y-115591558D01*
X121427000Y-114883304D01*
X121427000Y-114116696D01*
X121133632Y-113408442D01*
X121127000Y-113401810D01*
X121127000Y-110433924D01*
X125051846Y-106509079D01*
X127100000Y-106509079D01*
X127539733Y-106421611D01*
X127912522Y-106172522D01*
X128161611Y-105799733D01*
X128195970Y-105627000D01*
X135339758Y-105627000D01*
X135500000Y-105658874D01*
X135660242Y-105627000D01*
X141330334Y-105627000D01*
X141387478Y-105712522D01*
X141760267Y-105961611D01*
X142200000Y-106049079D01*
X145800000Y-106049079D01*
X146239733Y-105961611D01*
X146612522Y-105712522D01*
X146861611Y-105339733D01*
X146949079Y-104900000D01*
X146949079Y-103100000D01*
X146861611Y-102660267D01*
X146612522Y-102287478D01*
X146239733Y-102038389D01*
X145800000Y-101950921D01*
X142200000Y-101950921D01*
X141760267Y-102038389D01*
X141387478Y-102287478D01*
X141330334Y-102373000D01*
X137666490Y-102373000D01*
X138027000Y-101502652D01*
X138027000Y-100497348D01*
X137642287Y-99568569D01*
X137346713Y-99272995D01*
X148798001Y-97784328D01*
X148798001Y-139873000D01*
X148798001Y-139873000D01*
G37*
X148798001Y-139873000D02*
X140000000Y-139873000D01*
X139951399Y-139882667D01*
X139910197Y-139910197D01*
X139882667Y-139951399D01*
X139873000Y-140000000D01*
X139873000Y-148798000D01*
X132578052Y-148798000D01*
X132748319Y-148145386D01*
X132652521Y-147453004D01*
X132571862Y-147258276D01*
X132226741Y-147218736D01*
X131405477Y-148040000D01*
X131460632Y-148095155D01*
X131015155Y-148540632D01*
X130960000Y-148485477D01*
X130904846Y-148540632D01*
X130459369Y-148095155D01*
X130514523Y-148040000D01*
X129693259Y-147218736D01*
X129348138Y-147258276D01*
X129171681Y-147934614D01*
X129267479Y-148626996D01*
X129338311Y-148798000D01*
X75437611Y-148798000D01*
X76049289Y-148389289D01*
X76475194Y-147751878D01*
X76624752Y-147000000D01*
X76475194Y-146248122D01*
X76287000Y-145966470D01*
X76287000Y-143221294D01*
X76427000Y-142883304D01*
X76427000Y-142116696D01*
X76133632Y-141408442D01*
X75591558Y-140866368D01*
X74883304Y-140573000D01*
X74116696Y-140573000D01*
X73408442Y-140866368D01*
X72866368Y-141408442D01*
X72573000Y-142116696D01*
X72573000Y-142883304D01*
X72866368Y-143591558D01*
X73033001Y-143758191D01*
X73033000Y-145966470D01*
X72844806Y-146248122D01*
X72695248Y-147000000D01*
X72844806Y-147751878D01*
X73270711Y-148389289D01*
X73882389Y-148798000D01*
X65194738Y-148798000D01*
X65591558Y-148633632D01*
X66133632Y-148091558D01*
X66427000Y-147383304D01*
X66427000Y-146616696D01*
X66327000Y-146375274D01*
X66327000Y-142116696D01*
X67573000Y-142116696D01*
X67573000Y-142883304D01*
X67866368Y-143591558D01*
X68408442Y-144133632D01*
X69116696Y-144427000D01*
X69883304Y-144427000D01*
X70591558Y-144133632D01*
X71133632Y-143591558D01*
X71427000Y-142883304D01*
X71427000Y-142116696D01*
X71133632Y-141408442D01*
X71127000Y-141401810D01*
X71127000Y-134801971D01*
X88725530Y-134801971D01*
X88940619Y-135280890D01*
X90123520Y-135665957D01*
X91363737Y-135569035D01*
X92059381Y-135280890D01*
X92274470Y-134801971D01*
X111725530Y-134801971D01*
X111940619Y-135280890D01*
X113123520Y-135665957D01*
X114363737Y-135569035D01*
X115059381Y-135280890D01*
X115274470Y-134801971D01*
X113500000Y-133027502D01*
X111725530Y-134801971D01*
X92274470Y-134801971D01*
X90500000Y-133027502D01*
X88725530Y-134801971D01*
X71127000Y-134801971D01*
X71127000Y-132773924D01*
X71777404Y-132123520D01*
X87334043Y-132123520D01*
X87430965Y-133363737D01*
X87719110Y-134059381D01*
X88198029Y-134274470D01*
X89972498Y-132500000D01*
X91027502Y-132500000D01*
X92801971Y-134274470D01*
X93280890Y-134059381D01*
X93665957Y-132876480D01*
X93607114Y-132123520D01*
X110334043Y-132123520D01*
X110430965Y-133363737D01*
X110719110Y-134059381D01*
X111198029Y-134274470D01*
X112972498Y-132500000D01*
X114027502Y-132500000D01*
X115801971Y-134274470D01*
X116280890Y-134059381D01*
X116665957Y-132876480D01*
X116569035Y-131636263D01*
X116280890Y-130940619D01*
X115801971Y-130725530D01*
X114027502Y-132500000D01*
X112972498Y-132500000D01*
X111198029Y-130725530D01*
X110719110Y-130940619D01*
X110334043Y-132123520D01*
X93607114Y-132123520D01*
X93569035Y-131636263D01*
X93280890Y-130940619D01*
X92801971Y-130725530D01*
X91027502Y-132500000D01*
X89972498Y-132500000D01*
X88198029Y-130725530D01*
X87719110Y-130940619D01*
X87334043Y-132123520D01*
X71777404Y-132123520D01*
X73702895Y-130198029D01*
X88725530Y-130198029D01*
X90500000Y-131972498D01*
X92274470Y-130198029D01*
X92059381Y-129719110D01*
X90876480Y-129334043D01*
X89636263Y-129430965D01*
X88940619Y-129719110D01*
X88725530Y-130198029D01*
X73702895Y-130198029D01*
X75565095Y-128335830D01*
X75609484Y-128327000D01*
X75823087Y-128327000D01*
X76020429Y-128245258D01*
X76229914Y-128203589D01*
X76407510Y-128084923D01*
X76604848Y-128003183D01*
X76755882Y-127852149D01*
X76755885Y-127852147D01*
X76855884Y-127752147D01*
X77033481Y-127633481D01*
X77152149Y-127455882D01*
X77203183Y-127404848D01*
X77230802Y-127338169D01*
X77503590Y-126929914D01*
X77627000Y-126309489D01*
X77627000Y-126309485D01*
X77668669Y-126100001D01*
X77627000Y-125890516D01*
X77627000Y-116088139D01*
X77727063Y-115988076D01*
X78127000Y-115022543D01*
X78127000Y-113977457D01*
X77727063Y-113011924D01*
X76988076Y-112272937D01*
X76022543Y-111873000D01*
X74977457Y-111873000D01*
X74011924Y-112272937D01*
X73272937Y-113011924D01*
X72873000Y-113977457D01*
X72873000Y-115022543D01*
X73272937Y-115988076D01*
X73373000Y-116088139D01*
X73373001Y-125487776D01*
X73354742Y-125579571D01*
X73273000Y-125776913D01*
X73273000Y-125990516D01*
X73264170Y-126034905D01*
X68462848Y-130836228D01*
X68327000Y-130926999D01*
X68236230Y-131062846D01*
X67967400Y-131465177D01*
X67841127Y-132100000D01*
X67873001Y-132260243D01*
X67873000Y-141401810D01*
X67866368Y-141408442D01*
X67573000Y-142116696D01*
X66327000Y-142116696D01*
X66327000Y-138393520D01*
X66352149Y-138355882D01*
X66503183Y-138204848D01*
X66584922Y-138007513D01*
X66703590Y-137829914D01*
X66745260Y-137620424D01*
X66827000Y-137423087D01*
X66827000Y-137209489D01*
X66868670Y-137000000D01*
X66827000Y-136790511D01*
X66827000Y-136576913D01*
X66745260Y-136379576D01*
X66703590Y-136170086D01*
X66584922Y-135992487D01*
X66503183Y-135795152D01*
X66352149Y-135644118D01*
X66233481Y-135466519D01*
X66055882Y-135347851D01*
X65904848Y-135196817D01*
X65707513Y-135115078D01*
X65529914Y-134996410D01*
X65320424Y-134954740D01*
X65123087Y-134873000D01*
X60301032Y-134873000D01*
X58949079Y-133521047D01*
X58949079Y-132680000D01*
X58861611Y-132240267D01*
X58612522Y-131867478D01*
X58239733Y-131618389D01*
X57800000Y-131530921D01*
X56601220Y-131530921D01*
X56000000Y-131411331D01*
X55398780Y-131530921D01*
X54200000Y-131530921D01*
X53760267Y-131618389D01*
X53387478Y-131867478D01*
X53138389Y-132240267D01*
X53050921Y-132680000D01*
X53050921Y-134480000D01*
X53138389Y-134919733D01*
X53387478Y-135292522D01*
X53760267Y-135541611D01*
X54200000Y-135629079D01*
X55041047Y-135629079D01*
X57767853Y-138355885D01*
X57886519Y-138533481D01*
X58590086Y-139003590D01*
X59210511Y-139127000D01*
X59210515Y-139127000D01*
X59419999Y-139168669D01*
X59629483Y-139127000D01*
X63073000Y-139127000D01*
X63073001Y-145701809D01*
X62866368Y-145908442D01*
X62573000Y-146616696D01*
X62573000Y-147383304D01*
X62866368Y-148091558D01*
X63408442Y-148633632D01*
X63805262Y-148798000D01*
X60127000Y-148798000D01*
X60127000Y-140000000D01*
X60117333Y-139951399D01*
X60089803Y-139910197D01*
X60048601Y-139882667D01*
X60000000Y-139873000D01*
X51202000Y-139873000D01*
X51202000Y-116417139D01*
X51511924Y-116727063D01*
X52477457Y-117127000D01*
X52618968Y-117127000D01*
X53873001Y-118381033D01*
X53873000Y-126882004D01*
X53638615Y-127038615D01*
X53190608Y-127709104D01*
X53033289Y-128500000D01*
X53190608Y-129290896D01*
X53638615Y-129961385D01*
X54309104Y-130409392D01*
X54900359Y-130527000D01*
X55287776Y-130527000D01*
X56000000Y-130668670D01*
X56712223Y-130527000D01*
X57099641Y-130527000D01*
X57690896Y-130409392D01*
X58361385Y-129961385D01*
X58809392Y-129290896D01*
X58966711Y-128500000D01*
X58821839Y-127771676D01*
X63655825Y-127771676D01*
X63746047Y-128147589D01*
X64563972Y-128364400D01*
X65402607Y-128251700D01*
X65653953Y-128147589D01*
X65744175Y-127771676D01*
X64700000Y-126727502D01*
X63655825Y-127771676D01*
X58821839Y-127771676D01*
X58809392Y-127709104D01*
X58361385Y-127038615D01*
X58127000Y-126882004D01*
X58127000Y-126063972D01*
X62535600Y-126063972D01*
X62648300Y-126902607D01*
X62752411Y-127153953D01*
X63128324Y-127244175D01*
X64172498Y-126200000D01*
X65227502Y-126200000D01*
X66271676Y-127244175D01*
X66647589Y-127153953D01*
X66864400Y-126336028D01*
X66751700Y-125497393D01*
X66647589Y-125246047D01*
X66271676Y-125155825D01*
X65227502Y-126200000D01*
X64172498Y-126200000D01*
X63128324Y-125155825D01*
X62752411Y-125246047D01*
X62535600Y-126063972D01*
X58127000Y-126063972D01*
X58127000Y-124628324D01*
X63655825Y-124628324D01*
X64700000Y-125672498D01*
X65744175Y-124628324D01*
X65653953Y-124252411D01*
X64836028Y-124035600D01*
X63997393Y-124148300D01*
X63746047Y-124252411D01*
X63655825Y-124628324D01*
X58127000Y-124628324D01*
X58127000Y-117709486D01*
X58168669Y-117500000D01*
X58127000Y-117290514D01*
X58127000Y-117290511D01*
X58033925Y-116822592D01*
X58003590Y-116670085D01*
X57652147Y-116144115D01*
X57533481Y-115966519D01*
X57355885Y-115847853D01*
X55627000Y-114118968D01*
X55627000Y-114007294D01*
X61773000Y-114007294D01*
X61773000Y-114992706D01*
X62150101Y-115903108D01*
X62846892Y-116599899D01*
X63757294Y-116977000D01*
X64742706Y-116977000D01*
X65653108Y-116599899D01*
X66349899Y-115903108D01*
X66727000Y-114992706D01*
X66727000Y-114007294D01*
X66349899Y-113096892D01*
X65653108Y-112400101D01*
X64742706Y-112023000D01*
X63757294Y-112023000D01*
X62846892Y-112400101D01*
X62150101Y-113096892D01*
X61773000Y-114007294D01*
X55627000Y-114007294D01*
X55627000Y-113977457D01*
X55227063Y-113011924D01*
X54488076Y-112272937D01*
X53522543Y-111873000D01*
X52477457Y-111873000D01*
X51511924Y-112272937D01*
X51202000Y-112582861D01*
X51202000Y-110471808D01*
X84623600Y-106127000D01*
X85627000Y-106127000D01*
X85627000Y-106107000D01*
X86373000Y-106107000D01*
X86373000Y-106127000D01*
X87844740Y-106127000D01*
X88126490Y-105845250D01*
X88126490Y-105671624D01*
X101231043Y-103968032D01*
X99266076Y-105933000D01*
X99096805Y-105933000D01*
X98351797Y-106241593D01*
X97781593Y-106811797D01*
X97473000Y-107556805D01*
X97473000Y-108363195D01*
X97698524Y-108907657D01*
X97644575Y-108961606D01*
X97473000Y-109375826D01*
X97473000Y-109845250D01*
X97754748Y-110126998D01*
X97473000Y-110126998D01*
X97473000Y-110403385D01*
X97320242Y-110373000D01*
X97320238Y-110373000D01*
X97160000Y-110341127D01*
X96999762Y-110373000D01*
X93400505Y-110373000D01*
X93364813Y-110337308D01*
X93781723Y-110196715D01*
X94066000Y-109232443D01*
X93959627Y-108232783D01*
X93781723Y-107803285D01*
X93364810Y-107662691D01*
X92027502Y-109000000D01*
X92041644Y-109014142D01*
X91514142Y-109541644D01*
X91500000Y-109527502D01*
X91485858Y-109541644D01*
X90958356Y-109014142D01*
X90972498Y-109000000D01*
X89635190Y-107662691D01*
X89218277Y-107803285D01*
X88934000Y-108767557D01*
X89040373Y-109767217D01*
X89218277Y-110196715D01*
X89635187Y-110337308D01*
X89599495Y-110373000D01*
X84869497Y-110373000D01*
X84927000Y-110234174D01*
X84927000Y-110016750D01*
X84645250Y-109735000D01*
X83273000Y-109735000D01*
X83273000Y-109853000D01*
X82732572Y-109853000D01*
X82507000Y-109515407D01*
X82507000Y-109185000D01*
X82527000Y-109185000D01*
X82527000Y-108064750D01*
X83273000Y-108064750D01*
X83273000Y-109185000D01*
X84645250Y-109185000D01*
X84927000Y-108903250D01*
X84927000Y-108685826D01*
X84902422Y-108626490D01*
X85345250Y-108626490D01*
X85627000Y-108344740D01*
X85627000Y-106873000D01*
X86373000Y-106873000D01*
X86373000Y-108344740D01*
X86654750Y-108626490D01*
X87223664Y-108626490D01*
X87637884Y-108454914D01*
X87954915Y-108137884D01*
X88126490Y-107723664D01*
X88126490Y-107154750D01*
X88106930Y-107135190D01*
X90162691Y-107135190D01*
X91500000Y-108472498D01*
X92837309Y-107135190D01*
X92696715Y-106718277D01*
X91732443Y-106434000D01*
X90732783Y-106540373D01*
X90303285Y-106718277D01*
X90162691Y-107135190D01*
X88106930Y-107135190D01*
X87844740Y-106873000D01*
X86373000Y-106873000D01*
X85627000Y-106873000D01*
X84155260Y-106873000D01*
X83873510Y-107154750D01*
X83873510Y-107723664D01*
X83898088Y-107783000D01*
X83554750Y-107783000D01*
X83273000Y-108064750D01*
X82527000Y-108064750D01*
X82245250Y-107783000D01*
X81775826Y-107783000D01*
X81361606Y-107954576D01*
X81044575Y-108271606D01*
X80873000Y-108685826D01*
X80873000Y-108903250D01*
X81000671Y-109030921D01*
X80205000Y-109030921D01*
X79660029Y-109139323D01*
X79198024Y-109448024D01*
X78889323Y-109910029D01*
X78780921Y-110455000D01*
X78780921Y-111005000D01*
X78889323Y-111549971D01*
X79198024Y-112011976D01*
X79213001Y-112021983D01*
X79213000Y-115466470D01*
X79024806Y-115748122D01*
X78875248Y-116500000D01*
X79024806Y-117251878D01*
X79450711Y-117889289D01*
X80088122Y-118315194D01*
X80650208Y-118427000D01*
X81029792Y-118427000D01*
X81591878Y-118315194D01*
X82229289Y-117889289D01*
X82655194Y-117251878D01*
X82804752Y-116500000D01*
X82655194Y-115748122D01*
X82467000Y-115466470D01*
X82467000Y-113699079D01*
X83800000Y-113699079D01*
X84162367Y-113627000D01*
X96486076Y-113627000D01*
X97736894Y-114877819D01*
X97902212Y-115708932D01*
X98394423Y-116445577D01*
X99131068Y-116937788D01*
X99780662Y-117067000D01*
X99926076Y-117067000D01*
X103373001Y-120513927D01*
X103373000Y-122739760D01*
X103341127Y-122900000D01*
X103344287Y-122915884D01*
X103087478Y-123087478D01*
X102838389Y-123460267D01*
X102750921Y-123900000D01*
X102750921Y-125449996D01*
X102249079Y-124948154D01*
X102249079Y-123900000D01*
X102161611Y-123460267D01*
X101912522Y-123087478D01*
X101655714Y-122915885D01*
X101658874Y-122900000D01*
X101532600Y-122265176D01*
X101263771Y-121862845D01*
X101263770Y-121862844D01*
X101173001Y-121726999D01*
X101037156Y-121636230D01*
X94863774Y-115462849D01*
X94773001Y-115326999D01*
X94234824Y-114967400D01*
X93760242Y-114873000D01*
X93760238Y-114873000D01*
X93600000Y-114841127D01*
X93439762Y-114873000D01*
X92098190Y-114873000D01*
X92091558Y-114866368D01*
X91383304Y-114573000D01*
X90616696Y-114573000D01*
X89908442Y-114866368D01*
X89366368Y-115408442D01*
X89073000Y-116116696D01*
X89073000Y-116883304D01*
X89366368Y-117591558D01*
X89908442Y-118133632D01*
X90616696Y-118427000D01*
X91383304Y-118427000D01*
X92091558Y-118133632D01*
X92098190Y-118127000D01*
X92926076Y-118127000D01*
X98006999Y-123207924D01*
X97838389Y-123460267D01*
X97750921Y-123900000D01*
X97750921Y-126100000D01*
X97838389Y-126539733D01*
X98087478Y-126912522D01*
X98460267Y-127161611D01*
X98900000Y-127249079D01*
X99948154Y-127249079D01*
X101736230Y-129037156D01*
X101826999Y-129173001D01*
X101962844Y-129263770D01*
X101962845Y-129263771D01*
X102365176Y-129532600D01*
X103000000Y-129658874D01*
X103160242Y-129627000D01*
X112162992Y-129627000D01*
X111940619Y-129719110D01*
X111725530Y-130198029D01*
X113500000Y-131972498D01*
X115274470Y-130198029D01*
X115059381Y-129719110D01*
X114776425Y-129627000D01*
X124679762Y-129627000D01*
X124840000Y-129658873D01*
X125000238Y-129627000D01*
X125000242Y-129627000D01*
X125474824Y-129532600D01*
X126013001Y-129173001D01*
X126103774Y-129037150D01*
X130000000Y-125140925D01*
X130436228Y-125577153D01*
X130526999Y-125713001D01*
X131065176Y-126072600D01*
X131539758Y-126167000D01*
X131539761Y-126167000D01*
X131699999Y-126198873D01*
X131860237Y-126167000D01*
X133561555Y-126167000D01*
X133493655Y-126268620D01*
X133332261Y-127080000D01*
X133373000Y-127284808D01*
X133373000Y-129718968D01*
X132218968Y-130873000D01*
X131591532Y-130873000D01*
X131539733Y-130838389D01*
X131100000Y-130750921D01*
X128900000Y-130750921D01*
X128460267Y-130838389D01*
X128408468Y-130873000D01*
X127209486Y-130873000D01*
X127000000Y-130831331D01*
X126790514Y-130873000D01*
X126790511Y-130873000D01*
X126322592Y-130966075D01*
X126170085Y-130996410D01*
X125644115Y-131347853D01*
X125466519Y-131466519D01*
X125347853Y-131644115D01*
X116623013Y-140368955D01*
X116561611Y-140060267D01*
X116312522Y-139687478D01*
X115939733Y-139438389D01*
X115500000Y-139350921D01*
X111500000Y-139350921D01*
X111060267Y-139438389D01*
X110687478Y-139687478D01*
X110438389Y-140060267D01*
X110376183Y-140373000D01*
X93623817Y-140373000D01*
X93561611Y-140060267D01*
X93312522Y-139687478D01*
X92939733Y-139438389D01*
X92500000Y-139350921D01*
X88500000Y-139350921D01*
X88060267Y-139438389D01*
X87687478Y-139687478D01*
X87438389Y-140060267D01*
X87376183Y-140373000D01*
X81881032Y-140373000D01*
X77649079Y-136141047D01*
X77649079Y-136000000D01*
X77561611Y-135560267D01*
X77312522Y-135187478D01*
X76939733Y-134938389D01*
X76500000Y-134850921D01*
X75598486Y-134850921D01*
X75500000Y-134831331D01*
X75401514Y-134850921D01*
X74500000Y-134850921D01*
X74060267Y-134938389D01*
X73687478Y-135187478D01*
X73438389Y-135560267D01*
X73350921Y-136000000D01*
X73350921Y-136901514D01*
X73331331Y-137000000D01*
X73350921Y-137098486D01*
X73350921Y-138000000D01*
X73438389Y-138439733D01*
X73687478Y-138812522D01*
X74060267Y-139061611D01*
X74500000Y-139149079D01*
X74641047Y-139149079D01*
X79347853Y-143855885D01*
X79466519Y-144033481D01*
X80170086Y-144503590D01*
X80790511Y-144627000D01*
X80790514Y-144627000D01*
X81000000Y-144668669D01*
X81209486Y-144627000D01*
X87376183Y-144627000D01*
X87438389Y-144939733D01*
X87687478Y-145312522D01*
X88060267Y-145561611D01*
X88500000Y-145649079D01*
X92500000Y-145649079D01*
X92939733Y-145561611D01*
X93312522Y-145312522D01*
X93561611Y-144939733D01*
X93623817Y-144627000D01*
X110376183Y-144627000D01*
X110438389Y-144939733D01*
X110687478Y-145312522D01*
X111060267Y-145561611D01*
X111500000Y-145649079D01*
X115500000Y-145649079D01*
X115939733Y-145561611D01*
X116312522Y-145312522D01*
X116561611Y-144939733D01*
X116623817Y-144627000D01*
X117290516Y-144627000D01*
X117500000Y-144668669D01*
X117709484Y-144627000D01*
X117709489Y-144627000D01*
X118329914Y-144503590D01*
X119033481Y-144033481D01*
X119152147Y-143855885D01*
X123891336Y-139116696D01*
X125413000Y-139116696D01*
X125413000Y-139883304D01*
X125706368Y-140591558D01*
X126248442Y-141133632D01*
X126793001Y-141359195D01*
X126793000Y-144836662D01*
X126663000Y-145150511D01*
X126663000Y-145849489D01*
X126930487Y-146495261D01*
X127424739Y-146989513D01*
X128070511Y-147257000D01*
X128769489Y-147257000D01*
X129415261Y-146989513D01*
X129631515Y-146773259D01*
X130138736Y-146773259D01*
X130960000Y-147594523D01*
X131781264Y-146773259D01*
X131780518Y-146766741D01*
X132678736Y-146766741D01*
X132718276Y-147111862D01*
X133394614Y-147288319D01*
X134086996Y-147192521D01*
X134281724Y-147111862D01*
X134321264Y-146766741D01*
X133500000Y-145945477D01*
X132678736Y-146766741D01*
X131780518Y-146766741D01*
X131741724Y-146428138D01*
X131065386Y-146251681D01*
X130373004Y-146347479D01*
X130178276Y-146428138D01*
X130138736Y-146773259D01*
X129631515Y-146773259D01*
X129909513Y-146495261D01*
X130177000Y-145849489D01*
X130177000Y-145394614D01*
X131711681Y-145394614D01*
X131807479Y-146086996D01*
X131888138Y-146281724D01*
X132233259Y-146321264D01*
X133054523Y-145500000D01*
X133945477Y-145500000D01*
X134766741Y-146321264D01*
X135111862Y-146281724D01*
X135288319Y-145605386D01*
X135192521Y-144913004D01*
X135111862Y-144718276D01*
X134766741Y-144678736D01*
X133945477Y-145500000D01*
X133054523Y-145500000D01*
X132233259Y-144678736D01*
X131888138Y-144718276D01*
X131711681Y-145394614D01*
X130177000Y-145394614D01*
X130177000Y-145150511D01*
X130047000Y-144836663D01*
X130047000Y-144233259D01*
X132678736Y-144233259D01*
X133500000Y-145054523D01*
X134321264Y-144233259D01*
X134281724Y-143888138D01*
X133605386Y-143711681D01*
X132913004Y-143807479D01*
X132718276Y-143888138D01*
X132678736Y-144233259D01*
X130047000Y-144233259D01*
X130047000Y-140740242D01*
X130078874Y-140580000D01*
X129996158Y-140164156D01*
X135691071Y-140164156D01*
X135751246Y-140309491D01*
X136194141Y-140917091D01*
X136835841Y-141308952D01*
X137127000Y-141108828D01*
X137127000Y-139873000D01*
X137873000Y-139873000D01*
X137873000Y-141108828D01*
X138164159Y-141308952D01*
X138805859Y-140917091D01*
X139248754Y-140309491D01*
X139308929Y-140164156D01*
X139102410Y-139873000D01*
X137873000Y-139873000D01*
X137127000Y-139873000D01*
X135897590Y-139873000D01*
X135691071Y-140164156D01*
X129996158Y-140164156D01*
X129952600Y-139945176D01*
X129683771Y-139542845D01*
X129683770Y-139542844D01*
X129593001Y-139406999D01*
X129457155Y-139316230D01*
X129267000Y-139126075D01*
X129267000Y-139116696D01*
X129150668Y-138835844D01*
X135691071Y-138835844D01*
X135897590Y-139127000D01*
X137127000Y-139127000D01*
X137127000Y-137891172D01*
X137873000Y-137891172D01*
X137873000Y-139127000D01*
X139102410Y-139127000D01*
X139308929Y-138835844D01*
X139248754Y-138690509D01*
X138805859Y-138082909D01*
X138164159Y-137691048D01*
X137873000Y-137891172D01*
X137127000Y-137891172D01*
X136835841Y-137691048D01*
X136194141Y-138082909D01*
X135751246Y-138690509D01*
X135691071Y-138835844D01*
X129150668Y-138835844D01*
X128973632Y-138408442D01*
X128431558Y-137866368D01*
X127723304Y-137573000D01*
X126956696Y-137573000D01*
X126248442Y-137866368D01*
X125706368Y-138408442D01*
X125413000Y-139116696D01*
X123891336Y-139116696D01*
X125583814Y-137424218D01*
X134103284Y-137424218D01*
X134167914Y-137779854D01*
X134912373Y-137962796D01*
X135670173Y-137846920D01*
X135832086Y-137779854D01*
X135896716Y-137424218D01*
X135000000Y-136527502D01*
X134103284Y-137424218D01*
X125583814Y-137424218D01*
X127881032Y-135127000D01*
X128408468Y-135127000D01*
X128460267Y-135161611D01*
X128900000Y-135249079D01*
X131100000Y-135249079D01*
X131539733Y-135161611D01*
X131591532Y-135127000D01*
X132890516Y-135127000D01*
X133100000Y-135168669D01*
X133309484Y-135127000D01*
X133309489Y-135127000D01*
X133551381Y-135078885D01*
X133575780Y-135103284D01*
X133220146Y-135167914D01*
X133037204Y-135912373D01*
X133153080Y-136670173D01*
X133220146Y-136832086D01*
X133575782Y-136896716D01*
X134472498Y-136000000D01*
X135527502Y-136000000D01*
X136424218Y-136896716D01*
X136779854Y-136832086D01*
X136962796Y-136087627D01*
X136846920Y-135329827D01*
X136779854Y-135167914D01*
X136424218Y-135103284D01*
X135527502Y-136000000D01*
X134472498Y-136000000D01*
X134458356Y-135985858D01*
X134985858Y-135458356D01*
X135000000Y-135472498D01*
X135896716Y-134575782D01*
X135832086Y-134220146D01*
X135087627Y-134037204D01*
X135067796Y-134040236D01*
X136381032Y-132727000D01*
X139050516Y-132727000D01*
X139260000Y-132768669D01*
X139469484Y-132727000D01*
X139469489Y-132727000D01*
X140089914Y-132603590D01*
X140793481Y-132133481D01*
X140912147Y-131955884D01*
X141081032Y-131787000D01*
X144209489Y-131787000D01*
X144712224Y-131687000D01*
X145099641Y-131687000D01*
X145690896Y-131569392D01*
X146361385Y-131121385D01*
X146809392Y-130450896D01*
X146966711Y-129660000D01*
X146809392Y-128869104D01*
X146361385Y-128198615D01*
X145690896Y-127750608D01*
X145099641Y-127633000D01*
X144712224Y-127633000D01*
X144209489Y-127533000D01*
X140409486Y-127533000D01*
X140200000Y-127491331D01*
X139990514Y-127533000D01*
X139990511Y-127533000D01*
X139522592Y-127626075D01*
X139370085Y-127656410D01*
X139197578Y-127771676D01*
X138666519Y-128126519D01*
X138547851Y-128304117D01*
X138378969Y-128473000D01*
X137627000Y-128473000D01*
X137627000Y-127284808D01*
X137667739Y-127080000D01*
X137506345Y-126268620D01*
X137438445Y-126167000D01*
X141826611Y-126167000D01*
X142309104Y-126489392D01*
X142900359Y-126607000D01*
X145099641Y-126607000D01*
X145690896Y-126489392D01*
X146361385Y-126041385D01*
X146809392Y-125370896D01*
X146966711Y-124580000D01*
X146809392Y-123789104D01*
X146361385Y-123118615D01*
X145690896Y-122670608D01*
X145099641Y-122553000D01*
X142900359Y-122553000D01*
X142309104Y-122670608D01*
X141946339Y-122913000D01*
X139887924Y-122913000D01*
X141507924Y-121293001D01*
X141760267Y-121461611D01*
X142200000Y-121549079D01*
X145800000Y-121549079D01*
X146239733Y-121461611D01*
X146612522Y-121212522D01*
X146861611Y-120839733D01*
X146949079Y-120400000D01*
X146949079Y-118600000D01*
X146861611Y-118160267D01*
X146612522Y-117787478D01*
X146239733Y-117538389D01*
X145800000Y-117450921D01*
X142200000Y-117450921D01*
X141760267Y-117538389D01*
X141387478Y-117787478D01*
X141330334Y-117873000D01*
X141160238Y-117873000D01*
X141000000Y-117841127D01*
X140839762Y-117873000D01*
X140839758Y-117873000D01*
X140388071Y-117962846D01*
X140365176Y-117967400D01*
X139962845Y-118236229D01*
X139962844Y-118236230D01*
X139826999Y-118326999D01*
X139736230Y-118462844D01*
X137826076Y-120373000D01*
X137404745Y-120373000D01*
X137312522Y-120234978D01*
X136939733Y-119985889D01*
X136500000Y-119898421D01*
X135699346Y-119898421D01*
X133923773Y-118122849D01*
X133833001Y-117986999D01*
X133294824Y-117627400D01*
X133123938Y-117593409D01*
X132751878Y-117344806D01*
X132189792Y-117233000D01*
X131810208Y-117233000D01*
X131248122Y-117344806D01*
X130610711Y-117770711D01*
X130184806Y-118408122D01*
X130035248Y-119160000D01*
X130184806Y-119911878D01*
X130610711Y-120549289D01*
X131248122Y-120975194D01*
X131810208Y-121087000D01*
X132189792Y-121087000D01*
X132270101Y-121071026D01*
X133350921Y-122151846D01*
X133350921Y-122913000D01*
X132373925Y-122913000D01*
X132263107Y-122802182D01*
X132097788Y-121971068D01*
X131605577Y-121234423D01*
X130868932Y-120742212D01*
X130219338Y-120613000D01*
X130073925Y-120613000D01*
X128235607Y-118774682D01*
X128200871Y-118600053D01*
X133037153Y-113763772D01*
X133173001Y-113673001D01*
X133532600Y-113134824D01*
X133627000Y-112660242D01*
X133627000Y-112660239D01*
X133658873Y-112500001D01*
X133627000Y-112339763D01*
X133627000Y-110098190D01*
X133633632Y-110091558D01*
X133770932Y-109760086D01*
X141190494Y-109760086D01*
X141402944Y-110249555D01*
X141979694Y-110809963D01*
X142727000Y-111107000D01*
X143627000Y-111107000D01*
X143627000Y-109453000D01*
X144373000Y-109453000D01*
X144373000Y-111107000D01*
X145273000Y-111107000D01*
X146020306Y-110809963D01*
X146597056Y-110249555D01*
X146809506Y-109760086D01*
X146604925Y-109453000D01*
X144373000Y-109453000D01*
X143627000Y-109453000D01*
X141395075Y-109453000D01*
X141190494Y-109760086D01*
X133770932Y-109760086D01*
X133927000Y-109383304D01*
X133927000Y-108616696D01*
X133837207Y-108399914D01*
X141190494Y-108399914D01*
X141395075Y-108707000D01*
X143627000Y-108707000D01*
X143627000Y-107053000D01*
X144373000Y-107053000D01*
X144373000Y-108707000D01*
X146604925Y-108707000D01*
X146809506Y-108399914D01*
X146597056Y-107910445D01*
X146020306Y-107350037D01*
X145273000Y-107053000D01*
X144373000Y-107053000D01*
X143627000Y-107053000D01*
X142727000Y-107053000D01*
X141979694Y-107350037D01*
X141402944Y-107910445D01*
X141190494Y-108399914D01*
X133837207Y-108399914D01*
X133633632Y-107908442D01*
X133091558Y-107366368D01*
X132383304Y-107073000D01*
X131616696Y-107073000D01*
X130908442Y-107366368D01*
X130366368Y-107908442D01*
X130073000Y-108616696D01*
X130073000Y-109383304D01*
X130366368Y-110091558D01*
X130373000Y-110098190D01*
X130373001Y-111826074D01*
X125899947Y-116299129D01*
X125768586Y-116273000D01*
X125231414Y-116273000D01*
X124435977Y-116431222D01*
X123533943Y-117033943D01*
X122931222Y-117935977D01*
X122719575Y-119000000D01*
X122931222Y-120064023D01*
X123533943Y-120966057D01*
X124435977Y-121568778D01*
X125231414Y-121727000D01*
X125768586Y-121727000D01*
X126450446Y-121591370D01*
X127699075Y-122840000D01*
X124166076Y-126373000D01*
X107194776Y-126373000D01*
X107249079Y-126100000D01*
X107249079Y-123900000D01*
X107161611Y-123460267D01*
X106993001Y-123207924D01*
X107573925Y-122627000D01*
X114909146Y-122627000D01*
X115260267Y-122861611D01*
X115700000Y-122949079D01*
X117300000Y-122949079D01*
X117739733Y-122861611D01*
X118112522Y-122612522D01*
X118361611Y-122239733D01*
X118449079Y-121800000D01*
X118449079Y-120200000D01*
X118361611Y-119760267D01*
X118112522Y-119387478D01*
X118083127Y-119367837D01*
X118279854Y-119332086D01*
X118462796Y-118587627D01*
X118346920Y-117829827D01*
X118279854Y-117667914D01*
X117924218Y-117603284D01*
X117027502Y-118500000D01*
X117041644Y-118514142D01*
X116514142Y-119041644D01*
X116500000Y-119027502D01*
X116485858Y-119041644D01*
X115958356Y-118514142D01*
X115972498Y-118500000D01*
X115075782Y-117603284D01*
X114720146Y-117667914D01*
X114537204Y-118412373D01*
X114653080Y-119170173D01*
X114720146Y-119332086D01*
X114916873Y-119367837D01*
X114909146Y-119373000D01*
X107060242Y-119373000D01*
X106900000Y-119341126D01*
X106572596Y-119406251D01*
X106532600Y-119205176D01*
X106263771Y-118802845D01*
X106263770Y-118802844D01*
X106173001Y-118666999D01*
X106037156Y-118576230D01*
X104536708Y-117075782D01*
X115603284Y-117075782D01*
X116500000Y-117972498D01*
X117396716Y-117075782D01*
X117332086Y-116720146D01*
X116587627Y-116537204D01*
X115829827Y-116653080D01*
X115667914Y-116720146D01*
X115603284Y-117075782D01*
X104536708Y-117075782D01*
X104465170Y-117004245D01*
X104780662Y-117067000D01*
X105219338Y-117067000D01*
X105868932Y-116937788D01*
X106573515Y-116467000D01*
X110290244Y-116467000D01*
X110387478Y-116612522D01*
X110760267Y-116861611D01*
X111200000Y-116949079D01*
X112800000Y-116949079D01*
X113239733Y-116861611D01*
X113612522Y-116612522D01*
X113861611Y-116239733D01*
X113949079Y-115800000D01*
X113949079Y-114200000D01*
X113861611Y-113760267D01*
X113612522Y-113387478D01*
X113583127Y-113367837D01*
X113779854Y-113332086D01*
X113962796Y-112587627D01*
X113846920Y-111829827D01*
X113779854Y-111667914D01*
X113424218Y-111603284D01*
X112527502Y-112500000D01*
X112541644Y-112514142D01*
X112014142Y-113041644D01*
X112000000Y-113027502D01*
X111985858Y-113041644D01*
X111458356Y-112514142D01*
X111472498Y-112500000D01*
X110575782Y-111603284D01*
X110220146Y-111667914D01*
X110037204Y-112412373D01*
X110153080Y-113170173D01*
X110170819Y-113213000D01*
X106573515Y-113213000D01*
X105868932Y-112742212D01*
X105219338Y-112613000D01*
X104780662Y-112613000D01*
X104131068Y-112742212D01*
X103394423Y-113234423D01*
X102902212Y-113971068D01*
X102729371Y-114840000D01*
X102835755Y-115374831D01*
X102263107Y-114802182D01*
X102097788Y-113971068D01*
X101605577Y-113234423D01*
X100868932Y-112742212D01*
X100219338Y-112613000D01*
X100073925Y-112613000D01*
X99873002Y-112412077D01*
X99873002Y-112245252D01*
X100154750Y-112527000D01*
X100624174Y-112527000D01*
X101038394Y-112355424D01*
X101355425Y-112038394D01*
X101527000Y-111624174D01*
X101527000Y-111154750D01*
X101448032Y-111075782D01*
X111103284Y-111075782D01*
X112000000Y-111972498D01*
X112896716Y-111075782D01*
X112832086Y-110720146D01*
X112087627Y-110537204D01*
X111329827Y-110653080D01*
X111167914Y-110720146D01*
X111103284Y-111075782D01*
X101448032Y-111075782D01*
X101245250Y-110873000D01*
X99873000Y-110873000D01*
X99873000Y-110893000D01*
X99127000Y-110893000D01*
X99127000Y-110873000D01*
X99107000Y-110873000D01*
X99107000Y-110127000D01*
X99127000Y-110127000D01*
X99127000Y-110107000D01*
X99873000Y-110107000D01*
X99873000Y-110127000D01*
X101245250Y-110127000D01*
X101527000Y-109845250D01*
X101527000Y-109375826D01*
X101355425Y-108961606D01*
X101301476Y-108907657D01*
X101527000Y-108363195D01*
X101527000Y-108273924D01*
X104388552Y-105412373D01*
X108537204Y-105412373D01*
X108653080Y-106170173D01*
X108720146Y-106332086D01*
X108916873Y-106367837D01*
X108887478Y-106387478D01*
X108638389Y-106760267D01*
X108550921Y-107200000D01*
X108550921Y-108800000D01*
X108638389Y-109239733D01*
X108887478Y-109612522D01*
X109260267Y-109861611D01*
X109700000Y-109949079D01*
X111300000Y-109949079D01*
X111739733Y-109861611D01*
X112112522Y-109612522D01*
X112361611Y-109239733D01*
X112449079Y-108800000D01*
X112449079Y-107200000D01*
X112361611Y-106760267D01*
X112112522Y-106387478D01*
X112083127Y-106367837D01*
X112279854Y-106332086D01*
X112462796Y-105587627D01*
X112346920Y-104829827D01*
X112279854Y-104667914D01*
X111924218Y-104603284D01*
X111027502Y-105500000D01*
X111041644Y-105514142D01*
X110514142Y-106041644D01*
X110500000Y-106027502D01*
X110485858Y-106041644D01*
X109958356Y-105514142D01*
X109972498Y-105500000D01*
X109075782Y-104603284D01*
X108720146Y-104667914D01*
X108537204Y-105412373D01*
X104388552Y-105412373D01*
X105725143Y-104075782D01*
X109603284Y-104075782D01*
X110500000Y-104972498D01*
X111396716Y-104075782D01*
X111332086Y-103720146D01*
X110587627Y-103537204D01*
X109829827Y-103653080D01*
X109667914Y-103720146D01*
X109603284Y-104075782D01*
X105725143Y-104075782D01*
X106520526Y-103280400D01*
X107700523Y-103127000D01*
X115986076Y-103127000D01*
X117618721Y-104759647D01*
X117684806Y-105091878D01*
X118110711Y-105729289D01*
X118748122Y-106155194D01*
X119310208Y-106267000D01*
X119689792Y-106267000D01*
X120251878Y-106155194D01*
X120889289Y-105729289D01*
X121315194Y-105091878D01*
X121464752Y-104340000D01*
X121315194Y-103588122D01*
X120889289Y-102950711D01*
X120251878Y-102524806D01*
X119919647Y-102458721D01*
X119105304Y-101644379D01*
X123752753Y-101040210D01*
X123460267Y-101098389D01*
X123087478Y-101347478D01*
X122838389Y-101720267D01*
X122750921Y-102160000D01*
X122750921Y-104208154D01*
X118462848Y-108496228D01*
X118327000Y-108586999D01*
X118236230Y-108722846D01*
X117967400Y-109125177D01*
X117841127Y-109760000D01*
X117873001Y-109920243D01*
X117873000Y-113401810D01*
X117866368Y-113408442D01*
X117573000Y-114116696D01*
X117573000Y-114883304D01*
X117866368Y-115591558D01*
X118408442Y-116133632D01*
X119116696Y-116427000D01*
X119883304Y-116427000D01*
X120591558Y-116133632D01*
X121133632Y-115591558D01*
X121427000Y-114883304D01*
X121427000Y-114116696D01*
X121133632Y-113408442D01*
X121127000Y-113401810D01*
X121127000Y-110433924D01*
X125051846Y-106509079D01*
X127100000Y-106509079D01*
X127539733Y-106421611D01*
X127912522Y-106172522D01*
X128161611Y-105799733D01*
X128195970Y-105627000D01*
X135339758Y-105627000D01*
X135500000Y-105658874D01*
X135660242Y-105627000D01*
X141330334Y-105627000D01*
X141387478Y-105712522D01*
X141760267Y-105961611D01*
X142200000Y-106049079D01*
X145800000Y-106049079D01*
X146239733Y-105961611D01*
X146612522Y-105712522D01*
X146861611Y-105339733D01*
X146949079Y-104900000D01*
X146949079Y-103100000D01*
X146861611Y-102660267D01*
X146612522Y-102287478D01*
X146239733Y-102038389D01*
X145800000Y-101950921D01*
X142200000Y-101950921D01*
X141760267Y-102038389D01*
X141387478Y-102287478D01*
X141330334Y-102373000D01*
X137666490Y-102373000D01*
X138027000Y-101502652D01*
X138027000Y-100497348D01*
X137642287Y-99568569D01*
X137346713Y-99272995D01*
X148798001Y-97784328D01*
X148798001Y-139873000D01*
G04 #@! TO.N,GNDA*
G36*
X67318968Y-52173000D02*
X66937675Y-52173000D01*
X65898633Y-52603385D01*
X65103385Y-53398633D01*
X64673000Y-54437675D01*
X64673000Y-55562325D01*
X65103385Y-56601367D01*
X65898633Y-57396615D01*
X66937675Y-57827000D01*
X68062325Y-57827000D01*
X69101367Y-57396615D01*
X69896615Y-56601367D01*
X70327000Y-55562325D01*
X70327000Y-55181032D01*
X71201033Y-54307000D01*
X78094816Y-54307000D01*
X78896959Y-54842976D01*
X79721565Y-55007000D01*
X80278435Y-55007000D01*
X81103041Y-54842976D01*
X81905184Y-54307000D01*
X84129018Y-54307000D01*
X84398633Y-54576615D01*
X85437675Y-55007000D01*
X86562325Y-55007000D01*
X87601367Y-54576615D01*
X87870982Y-54307000D01*
X89498968Y-54307000D01*
X95803346Y-60611379D01*
X95767400Y-60665176D01*
X95641126Y-61300000D01*
X95641126Y-63700000D01*
X95767400Y-64334824D01*
X96126999Y-64873001D01*
X96665176Y-65232600D01*
X97300000Y-65358874D01*
X99700000Y-65358874D01*
X100334824Y-65232600D01*
X100873001Y-64873001D01*
X101232600Y-64334824D01*
X101358874Y-63700000D01*
X101358874Y-61300000D01*
X101232600Y-60665176D01*
X100873001Y-60126999D01*
X100597663Y-59943024D01*
X100503590Y-59470086D01*
X100332356Y-59213817D01*
X100152147Y-58944114D01*
X100152145Y-58944112D01*
X100033481Y-58766519D01*
X99855888Y-58647855D01*
X97969643Y-56761610D01*
X98187734Y-56844707D01*
X98917443Y-56823786D01*
X99494435Y-56584788D01*
X99617570Y-56297175D01*
X98500000Y-55179605D01*
X98485858Y-55193748D01*
X98306253Y-55014143D01*
X98320395Y-55000000D01*
X98679605Y-55000000D01*
X99797175Y-56117570D01*
X100084788Y-55994435D01*
X100344707Y-55312266D01*
X100323786Y-54582557D01*
X100084788Y-54005565D01*
X99797175Y-53882430D01*
X98679605Y-55000000D01*
X98320395Y-55000000D01*
X97202825Y-53882430D01*
X96915212Y-54005565D01*
X96655293Y-54687734D01*
X96676214Y-55417443D01*
X96712091Y-55504059D01*
X94910857Y-53702825D01*
X97382430Y-53702825D01*
X98500000Y-54820395D01*
X99617570Y-53702825D01*
X99494435Y-53415212D01*
X98812266Y-53155293D01*
X98082557Y-53176214D01*
X97505565Y-53415212D01*
X97382430Y-53702825D01*
X94910857Y-53702825D01*
X92910032Y-51702000D01*
X119392196Y-51702000D01*
X119246136Y-51745995D01*
X119053035Y-52283223D01*
X119080222Y-52853454D01*
X119246136Y-53254005D01*
X119492255Y-53328139D01*
X120320395Y-52500000D01*
X120306252Y-52485858D01*
X120485858Y-52306252D01*
X120500000Y-52320395D01*
X120514142Y-52306252D01*
X120693748Y-52485858D01*
X120679605Y-52500000D01*
X121507745Y-53328139D01*
X121753864Y-53254005D01*
X121946965Y-52716777D01*
X121919778Y-52146546D01*
X121753864Y-51745995D01*
X121607804Y-51702000D01*
X126204439Y-51702000D01*
X126053035Y-52123223D01*
X126080222Y-52693454D01*
X126246136Y-53094005D01*
X126492255Y-53168139D01*
X127320395Y-52340000D01*
X127306252Y-52325858D01*
X127485858Y-52146252D01*
X127500000Y-52160395D01*
X127514142Y-52146252D01*
X127693748Y-52325858D01*
X127679605Y-52340000D01*
X128507745Y-53168139D01*
X128753864Y-53094005D01*
X128946965Y-52556777D01*
X128919778Y-51986546D01*
X128801915Y-51702000D01*
X139873000Y-51702000D01*
X139873000Y-60000000D01*
X139882667Y-60048601D01*
X139910197Y-60089803D01*
X139951399Y-60117333D01*
X140000000Y-60127000D01*
X148298000Y-60127000D01*
X148298000Y-95093192D01*
X115376400Y-99373000D01*
X109460896Y-99373000D01*
X109634547Y-98500000D01*
X109446183Y-97553032D01*
X108909769Y-96750231D01*
X108106968Y-96213817D01*
X107399034Y-96073000D01*
X106920966Y-96073000D01*
X106213032Y-96213817D01*
X105974798Y-96373000D01*
X103581032Y-96373000D01*
X101884075Y-94676043D01*
X101958874Y-94300000D01*
X101958874Y-92700000D01*
X101832600Y-92065176D01*
X101473001Y-91526999D01*
X101345379Y-91441724D01*
X106737882Y-91441724D01*
X106885455Y-91750106D01*
X107640031Y-92043405D01*
X108449409Y-92025614D01*
X109114545Y-91750106D01*
X109262118Y-91441724D01*
X108000000Y-90179605D01*
X106737882Y-91441724D01*
X101345379Y-91441724D01*
X100934824Y-91167400D01*
X100300000Y-91041126D01*
X98700000Y-91041126D01*
X98065176Y-91167400D01*
X97757474Y-91373000D01*
X95381032Y-91373000D01*
X94508032Y-90500000D01*
X94855888Y-90152145D01*
X95033481Y-90033481D01*
X95152145Y-89855888D01*
X95152147Y-89855886D01*
X95384767Y-89507745D01*
X98671861Y-89507745D01*
X98745995Y-89753864D01*
X99283223Y-89946965D01*
X99853454Y-89919778D01*
X100254005Y-89753864D01*
X100288292Y-89640031D01*
X105956595Y-89640031D01*
X105974386Y-90449409D01*
X106249894Y-91114545D01*
X106558276Y-91262118D01*
X107820395Y-90000000D01*
X108179605Y-90000000D01*
X109441724Y-91262118D01*
X109750106Y-91114545D01*
X110043405Y-90359969D01*
X110025614Y-89550591D01*
X109750106Y-88885455D01*
X109441724Y-88737882D01*
X108179605Y-90000000D01*
X107820395Y-90000000D01*
X106558276Y-88737882D01*
X106249894Y-88885455D01*
X105956595Y-89640031D01*
X100288292Y-89640031D01*
X100328139Y-89507745D01*
X99500000Y-88679605D01*
X98671861Y-89507745D01*
X95384767Y-89507745D01*
X95435898Y-89431222D01*
X95503590Y-89329914D01*
X95627000Y-88709489D01*
X95627000Y-88709485D01*
X95668669Y-88500001D01*
X95627000Y-88290516D01*
X95627000Y-88283223D01*
X98053035Y-88283223D01*
X98080222Y-88853454D01*
X98246136Y-89254005D01*
X98492255Y-89328139D01*
X99320395Y-88500000D01*
X99679605Y-88500000D01*
X100507745Y-89328139D01*
X100753864Y-89254005D01*
X100946965Y-88716777D01*
X100939409Y-88558276D01*
X106737882Y-88558276D01*
X108000000Y-89820395D01*
X109262118Y-88558276D01*
X109114545Y-88249894D01*
X108359969Y-87956595D01*
X107550591Y-87974386D01*
X106885455Y-88249894D01*
X106737882Y-88558276D01*
X100939409Y-88558276D01*
X100919778Y-88146546D01*
X100753864Y-87745995D01*
X100507745Y-87671861D01*
X99679605Y-88500000D01*
X99320395Y-88500000D01*
X98492255Y-87671861D01*
X98246136Y-87745995D01*
X98053035Y-88283223D01*
X95627000Y-88283223D01*
X95627000Y-87492255D01*
X98671861Y-87492255D01*
X99500000Y-88320395D01*
X100328139Y-87492255D01*
X100254005Y-87246136D01*
X99716777Y-87053035D01*
X99146546Y-87080222D01*
X98745995Y-87246136D01*
X98671861Y-87492255D01*
X95627000Y-87492255D01*
X95627000Y-84870982D01*
X95896615Y-84601367D01*
X96327000Y-83562325D01*
X96327000Y-82437675D01*
X95896615Y-81398633D01*
X95101367Y-80603385D01*
X94062325Y-80173000D01*
X92937675Y-80173000D01*
X91898633Y-80603385D01*
X91103385Y-81398633D01*
X90673000Y-82437675D01*
X90673000Y-83562325D01*
X91103385Y-84601367D01*
X91373000Y-84870982D01*
X91373001Y-87618967D01*
X90849478Y-88142489D01*
X90125215Y-88442489D01*
X89442489Y-89125215D01*
X89073000Y-90017240D01*
X89073000Y-90982760D01*
X89442489Y-91874785D01*
X90125215Y-92557511D01*
X90849479Y-92857511D01*
X92847852Y-94855884D01*
X92966519Y-95033481D01*
X93144115Y-95152147D01*
X93670085Y-95503590D01*
X93699742Y-95509489D01*
X94290511Y-95627000D01*
X94290514Y-95627000D01*
X94500000Y-95668669D01*
X94709486Y-95627000D01*
X97396375Y-95627000D01*
X97485298Y-96074051D01*
X97482760Y-96073000D01*
X96517240Y-96073000D01*
X95792976Y-96373000D01*
X93381032Y-96373000D01*
X88027000Y-91018968D01*
X88027000Y-90997348D01*
X87642287Y-90068569D01*
X87035000Y-89461282D01*
X87035000Y-89245750D01*
X86876250Y-89087000D01*
X86277872Y-89087000D01*
X86002652Y-88973000D01*
X84997348Y-88973000D01*
X84722128Y-89087000D01*
X84123750Y-89087000D01*
X83965000Y-89245750D01*
X83965000Y-89461282D01*
X83357713Y-90068569D01*
X82973000Y-90997348D01*
X82973000Y-92002652D01*
X83357713Y-92931431D01*
X84068569Y-93642287D01*
X84997348Y-94027000D01*
X85018968Y-94027000D01*
X89841329Y-98849361D01*
X89750231Y-98910231D01*
X89213817Y-99713032D01*
X89025453Y-100660000D01*
X89213817Y-101606968D01*
X89373000Y-101845203D01*
X89373000Y-102753442D01*
X87636184Y-102979228D01*
X87645401Y-102954418D01*
X87621341Y-102304623D01*
X87418965Y-101816042D01*
X87152163Y-101717443D01*
X86179605Y-102690000D01*
X86193748Y-102704143D01*
X86014143Y-102883748D01*
X86000000Y-102869605D01*
X85985858Y-102883748D01*
X85806252Y-102704142D01*
X85820395Y-102690000D01*
X84847837Y-101717443D01*
X84581035Y-101816042D01*
X84354599Y-102425582D01*
X84378659Y-103075377D01*
X84507315Y-103385981D01*
X78176770Y-104208952D01*
X78627000Y-103121999D01*
X78627000Y-101878001D01*
X78486100Y-101537837D01*
X85027443Y-101537837D01*
X86000000Y-102510395D01*
X86972557Y-101537837D01*
X86873958Y-101271035D01*
X86264418Y-101044599D01*
X85614623Y-101068659D01*
X85126042Y-101271035D01*
X85027443Y-101537837D01*
X78486100Y-101537837D01*
X78150943Y-100728697D01*
X77271303Y-99849057D01*
X76121999Y-99373000D01*
X74878001Y-99373000D01*
X73728697Y-99849057D01*
X72849057Y-100728697D01*
X72373000Y-101878001D01*
X72373000Y-103121999D01*
X72849057Y-104271303D01*
X73406802Y-104829048D01*
X51702000Y-107650672D01*
X51702000Y-105346991D01*
X52378001Y-105627000D01*
X53621999Y-105627000D01*
X54771303Y-105150943D01*
X55650943Y-104271303D01*
X56127000Y-103121999D01*
X56127000Y-102381032D01*
X56600194Y-101907838D01*
X61273000Y-101907838D01*
X61273000Y-103092162D01*
X61726221Y-104186335D01*
X62563665Y-105023779D01*
X63657838Y-105477000D01*
X64842162Y-105477000D01*
X65936335Y-105023779D01*
X66773779Y-104186335D01*
X67227000Y-103092162D01*
X67227000Y-101907838D01*
X66773779Y-100813665D01*
X65936335Y-99976221D01*
X64842162Y-99523000D01*
X63657838Y-99523000D01*
X62563665Y-99976221D01*
X61726221Y-100813665D01*
X61273000Y-101907838D01*
X56600194Y-101907838D01*
X57355885Y-101152147D01*
X57533481Y-101033481D01*
X57695829Y-100790511D01*
X58003590Y-100329915D01*
X58073944Y-99976221D01*
X58127000Y-99709489D01*
X58127000Y-99709486D01*
X58168669Y-99500000D01*
X58127000Y-99290514D01*
X58127000Y-95073830D01*
X58434824Y-95012600D01*
X58973001Y-94653001D01*
X59332600Y-94114824D01*
X59458874Y-93480000D01*
X59458874Y-91680000D01*
X59332600Y-91045176D01*
X58973001Y-90506999D01*
X58434824Y-90147400D01*
X57800000Y-90021126D01*
X54200000Y-90021126D01*
X53565176Y-90147400D01*
X53026999Y-90506999D01*
X52667400Y-91045176D01*
X52541126Y-91680000D01*
X52541126Y-93480000D01*
X52667400Y-94114824D01*
X53026999Y-94653001D01*
X53565176Y-95012600D01*
X53873000Y-95073830D01*
X53873001Y-98618967D01*
X53118968Y-99373000D01*
X52378001Y-99373000D01*
X51702000Y-99653009D01*
X51702000Y-87864740D01*
X53608964Y-87864740D01*
X53633244Y-87970086D01*
X53924788Y-88495606D01*
X54395248Y-88869554D01*
X54973000Y-89035000D01*
X55873000Y-89035000D01*
X55873000Y-87627000D01*
X56127000Y-87627000D01*
X56127000Y-89035000D01*
X57027000Y-89035000D01*
X57604752Y-88869554D01*
X58075212Y-88495606D01*
X58366756Y-87970086D01*
X58391036Y-87864740D01*
X58270378Y-87627000D01*
X56127000Y-87627000D01*
X55873000Y-87627000D01*
X53729622Y-87627000D01*
X53608964Y-87864740D01*
X51702000Y-87864740D01*
X51702000Y-87135260D01*
X53608964Y-87135260D01*
X53729622Y-87373000D01*
X55873000Y-87373000D01*
X55873000Y-85965000D01*
X56127000Y-85965000D01*
X56127000Y-87373000D01*
X58270378Y-87373000D01*
X58391036Y-87135260D01*
X58366756Y-87029914D01*
X58075212Y-86504394D01*
X57604752Y-86130446D01*
X57027000Y-85965000D01*
X56127000Y-85965000D01*
X55873000Y-85965000D01*
X54973000Y-85965000D01*
X54395248Y-86130446D01*
X53924788Y-86504394D01*
X53633244Y-87029914D01*
X53608964Y-87135260D01*
X51702000Y-87135260D01*
X51702000Y-75554098D01*
X51878001Y-75627000D01*
X52618968Y-75627000D01*
X53873001Y-76881033D01*
X53873000Y-80200659D01*
X53278135Y-80598135D01*
X52719619Y-81434014D01*
X52523494Y-82420000D01*
X52719619Y-83405986D01*
X53278135Y-84241865D01*
X54114014Y-84800381D01*
X54851117Y-84947000D01*
X57148883Y-84947000D01*
X57885986Y-84800381D01*
X58721865Y-84241865D01*
X59280381Y-83405986D01*
X59476506Y-82420000D01*
X59280381Y-81434014D01*
X59257654Y-81400000D01*
X60241126Y-81400000D01*
X60241126Y-83600000D01*
X60367400Y-84234824D01*
X60726999Y-84773001D01*
X60873001Y-84870556D01*
X60873000Y-89629444D01*
X60726999Y-89726999D01*
X60367400Y-90265176D01*
X60241126Y-90900000D01*
X60241126Y-93100000D01*
X60367400Y-93734824D01*
X60726999Y-94273001D01*
X61265176Y-94632600D01*
X61900000Y-94758874D01*
X64100000Y-94758874D01*
X64734824Y-94632600D01*
X65273001Y-94273001D01*
X65632600Y-93734824D01*
X65758874Y-93100000D01*
X65758874Y-90900000D01*
X65632600Y-90265176D01*
X65273001Y-89726999D01*
X65127000Y-89629444D01*
X65127000Y-84870556D01*
X65273001Y-84773001D01*
X65632600Y-84234824D01*
X65758874Y-83600000D01*
X65758874Y-81400000D01*
X65634302Y-80773731D01*
X68855888Y-77552145D01*
X69033481Y-77433481D01*
X69152145Y-77255888D01*
X69152147Y-77255886D01*
X69476748Y-76770086D01*
X69503590Y-76729914D01*
X69627000Y-76109489D01*
X69627000Y-76109485D01*
X69668669Y-75900001D01*
X69627000Y-75690516D01*
X69627000Y-65135032D01*
X74015232Y-69523264D01*
X73228697Y-69849057D01*
X72349057Y-70728697D01*
X71873000Y-71878001D01*
X71873000Y-73121999D01*
X72349057Y-74271303D01*
X73228697Y-75150943D01*
X74378001Y-75627000D01*
X75118968Y-75627000D01*
X77161968Y-77670000D01*
X74629688Y-80202279D01*
X74224023Y-79931222D01*
X73428586Y-79773000D01*
X72891414Y-79773000D01*
X72095977Y-79931222D01*
X71193943Y-80533943D01*
X70591222Y-81435977D01*
X70379575Y-82500000D01*
X70591222Y-83564023D01*
X71193943Y-84466057D01*
X72095977Y-85068778D01*
X72891414Y-85227000D01*
X73428586Y-85227000D01*
X74073000Y-85098818D01*
X74073000Y-85482760D01*
X74442489Y-86374785D01*
X75125215Y-87057511D01*
X76017240Y-87427000D01*
X76982760Y-87427000D01*
X77291206Y-87299238D01*
X78142489Y-88150521D01*
X78184683Y-88252387D01*
X77874785Y-87942489D01*
X76982760Y-87573000D01*
X76017240Y-87573000D01*
X75317797Y-87862719D01*
X75159999Y-87831331D01*
X74950515Y-87873000D01*
X74950511Y-87873000D01*
X74330086Y-87996410D01*
X74215461Y-88073000D01*
X73804114Y-88347853D01*
X73804112Y-88347855D01*
X73626519Y-88466519D01*
X73507855Y-88644112D01*
X72875877Y-89276091D01*
X72095977Y-89431222D01*
X71193943Y-90033943D01*
X70591222Y-90935977D01*
X70379575Y-92000000D01*
X70591222Y-93064023D01*
X71193943Y-93966057D01*
X72095977Y-94568778D01*
X72891414Y-94727000D01*
X73428586Y-94727000D01*
X74224023Y-94568778D01*
X75126057Y-93966057D01*
X75728778Y-93064023D01*
X75867802Y-92365101D01*
X76017240Y-92427000D01*
X76982760Y-92427000D01*
X77874785Y-92057511D01*
X78557511Y-91374785D01*
X78927000Y-90482760D01*
X78927000Y-89517240D01*
X78815317Y-89247613D01*
X79125215Y-89557511D01*
X80017240Y-89927000D01*
X80982760Y-89927000D01*
X81874785Y-89557511D01*
X82557511Y-88874785D01*
X82927000Y-87982760D01*
X82927000Y-87933691D01*
X83965000Y-87933691D01*
X83965000Y-88674250D01*
X84123750Y-88833000D01*
X85373000Y-88833000D01*
X85373000Y-87583750D01*
X85627000Y-87583750D01*
X85627000Y-88833000D01*
X86876250Y-88833000D01*
X87035000Y-88674250D01*
X87035000Y-87933691D01*
X86938327Y-87700302D01*
X86759699Y-87521673D01*
X86526310Y-87425000D01*
X85785750Y-87425000D01*
X85627000Y-87583750D01*
X85373000Y-87583750D01*
X85214250Y-87425000D01*
X84473690Y-87425000D01*
X84240301Y-87521673D01*
X84061673Y-87700302D01*
X83965000Y-87933691D01*
X82927000Y-87933691D01*
X82927000Y-87017240D01*
X82557511Y-86125215D01*
X81874785Y-85442489D01*
X81150521Y-85142489D01*
X79652147Y-83644115D01*
X79533481Y-83466519D01*
X78829914Y-82996410D01*
X78209489Y-82873000D01*
X78209484Y-82873000D01*
X78013930Y-82834102D01*
X81165952Y-79682081D01*
X81446968Y-79626183D01*
X82249769Y-79089769D01*
X82786183Y-78286968D01*
X82974547Y-77340000D01*
X82786183Y-76393032D01*
X82249769Y-75590231D01*
X81446968Y-75053817D01*
X81294882Y-75023565D01*
X81601367Y-74896615D01*
X82396615Y-74101367D01*
X82827000Y-73062325D01*
X82827000Y-72681033D01*
X82881033Y-72627000D01*
X84165000Y-72627000D01*
X84165000Y-72627002D01*
X84328141Y-72627002D01*
X84211797Y-72911807D01*
X84505508Y-73564776D01*
X85026742Y-74055642D01*
X85588195Y-74288195D01*
X85873000Y-74171432D01*
X85873000Y-72627000D01*
X86127000Y-72627000D01*
X86127000Y-74171432D01*
X86411805Y-74288195D01*
X86973258Y-74055642D01*
X87494492Y-73564776D01*
X87788203Y-72911807D01*
X87671859Y-72627002D01*
X87835000Y-72627002D01*
X87835000Y-72627000D01*
X88629444Y-72627000D01*
X88726999Y-72773001D01*
X89265176Y-73132600D01*
X89900000Y-73258874D01*
X90750842Y-73258874D01*
X91373000Y-73881032D01*
X91373000Y-74129018D01*
X91103385Y-74398633D01*
X90673000Y-75437675D01*
X90673000Y-76562325D01*
X91103385Y-77601367D01*
X91898633Y-78396615D01*
X92937675Y-78827000D01*
X94062325Y-78827000D01*
X95101367Y-78396615D01*
X95896615Y-77601367D01*
X96327000Y-76562325D01*
X96327000Y-75437675D01*
X95896615Y-74398633D01*
X95627000Y-74129018D01*
X95627000Y-73209484D01*
X95668669Y-73000000D01*
X95627000Y-72790515D01*
X95627000Y-72790511D01*
X95503590Y-72170086D01*
X95076753Y-71531279D01*
X96981032Y-69627000D01*
X98553225Y-69627000D01*
X98379575Y-70500000D01*
X98591222Y-71564023D01*
X99193943Y-72466057D01*
X100095977Y-73068778D01*
X100891414Y-73227000D01*
X101428586Y-73227000D01*
X102224023Y-73068778D01*
X102885189Y-72627000D01*
X105618968Y-72627000D01*
X105642489Y-72650521D01*
X105942489Y-73374785D01*
X106625215Y-74057511D01*
X107517240Y-74427000D01*
X108482760Y-74427000D01*
X109207024Y-74127000D01*
X109618968Y-74127000D01*
X111029589Y-75537621D01*
X110937616Y-76000000D01*
X111157024Y-77103041D01*
X111781847Y-78038153D01*
X112716959Y-78662976D01*
X113541565Y-78827000D01*
X114098435Y-78827000D01*
X114773001Y-78692821D01*
X114773002Y-80307179D01*
X114098435Y-80173000D01*
X113541565Y-80173000D01*
X112716959Y-80337024D01*
X111781847Y-80961847D01*
X111157024Y-81896959D01*
X110937616Y-83000000D01*
X111157024Y-84103041D01*
X111781847Y-85038153D01*
X112716959Y-85662976D01*
X113541565Y-85827000D01*
X113952834Y-85827000D01*
X113496410Y-86510087D01*
X113373000Y-87130512D01*
X113373000Y-87130516D01*
X113331331Y-87340000D01*
X113373000Y-87549485D01*
X113373001Y-91450511D01*
X113331331Y-91660000D01*
X113496411Y-92489914D01*
X113847853Y-93015885D01*
X113847856Y-93015888D01*
X113966520Y-93193481D01*
X114144113Y-93312145D01*
X115616091Y-94784123D01*
X115771222Y-95564023D01*
X116373943Y-96466057D01*
X117275977Y-97068778D01*
X118071414Y-97227000D01*
X118608586Y-97227000D01*
X119404023Y-97068778D01*
X120306057Y-96466057D01*
X120908778Y-95564023D01*
X121120425Y-94500000D01*
X120908778Y-93435977D01*
X120306057Y-92533943D01*
X119506956Y-92000000D01*
X120306057Y-91466057D01*
X120908778Y-90564023D01*
X121063910Y-89784122D01*
X124221032Y-86627000D01*
X127292976Y-86627000D01*
X127568501Y-86741126D01*
X127400000Y-86741126D01*
X126765176Y-86867400D01*
X126226999Y-87226999D01*
X125867400Y-87765176D01*
X125741126Y-88400000D01*
X125741126Y-90600000D01*
X125867400Y-91234824D01*
X126226999Y-91773001D01*
X126566726Y-92000000D01*
X126226999Y-92226999D01*
X125867400Y-92765176D01*
X125741126Y-93400000D01*
X125741126Y-95600000D01*
X125867400Y-96234824D01*
X126226999Y-96773001D01*
X126765176Y-97132600D01*
X127400000Y-97258874D01*
X129600000Y-97258874D01*
X130234824Y-97132600D01*
X130773001Y-96773001D01*
X130870556Y-96627000D01*
X134290516Y-96627000D01*
X134500000Y-96668669D01*
X134709484Y-96627000D01*
X134709489Y-96627000D01*
X135212224Y-96527000D01*
X136102108Y-96527000D01*
X137214658Y-96066166D01*
X138066166Y-95214658D01*
X138527000Y-94102108D01*
X138527000Y-93444740D01*
X141608964Y-93444740D01*
X141633244Y-93550086D01*
X141924788Y-94075606D01*
X142395248Y-94449554D01*
X142973000Y-94615000D01*
X143873000Y-94615000D01*
X143873000Y-93207000D01*
X144127000Y-93207000D01*
X144127000Y-94615000D01*
X145027000Y-94615000D01*
X145604752Y-94449554D01*
X146075212Y-94075606D01*
X146366756Y-93550086D01*
X146391036Y-93444740D01*
X146270378Y-93207000D01*
X144127000Y-93207000D01*
X143873000Y-93207000D01*
X141729622Y-93207000D01*
X141608964Y-93444740D01*
X138527000Y-93444740D01*
X138527000Y-92897892D01*
X138451352Y-92715260D01*
X141608964Y-92715260D01*
X141729622Y-92953000D01*
X143873000Y-92953000D01*
X143873000Y-91545000D01*
X144127000Y-91545000D01*
X144127000Y-92953000D01*
X146270378Y-92953000D01*
X146391036Y-92715260D01*
X146366756Y-92609914D01*
X146075212Y-92084394D01*
X145604752Y-91710446D01*
X145027000Y-91545000D01*
X144127000Y-91545000D01*
X143873000Y-91545000D01*
X142973000Y-91545000D01*
X142395248Y-91710446D01*
X141924788Y-92084394D01*
X141633244Y-92609914D01*
X141608964Y-92715260D01*
X138451352Y-92715260D01*
X138066166Y-91785342D01*
X137214658Y-90933834D01*
X136102108Y-90473000D01*
X134897892Y-90473000D01*
X133785342Y-90933834D01*
X132933834Y-91785342D01*
X132690418Y-92373000D01*
X130870556Y-92373000D01*
X130773001Y-92226999D01*
X130433274Y-92000000D01*
X130773001Y-91773001D01*
X131132600Y-91234824D01*
X131258874Y-90600000D01*
X131258874Y-90021251D01*
X131790511Y-90127000D01*
X131790515Y-90127000D01*
X131999999Y-90168669D01*
X132209483Y-90127000D01*
X134290516Y-90127000D01*
X134500000Y-90168669D01*
X134709484Y-90127000D01*
X134709489Y-90127000D01*
X135329914Y-90003590D01*
X136033481Y-89533481D01*
X136152147Y-89355884D01*
X136299158Y-89208874D01*
X136800000Y-89208874D01*
X137434824Y-89082600D01*
X137973001Y-88723001D01*
X138332600Y-88184824D01*
X138458874Y-87550000D01*
X138458874Y-87100000D01*
X140541126Y-87100000D01*
X140541126Y-88900000D01*
X140667400Y-89534824D01*
X141026999Y-90073001D01*
X141565176Y-90432600D01*
X142200000Y-90558874D01*
X145800000Y-90558874D01*
X146434824Y-90432600D01*
X146973001Y-90073001D01*
X147332600Y-89534824D01*
X147458874Y-88900000D01*
X147458874Y-87100000D01*
X147332600Y-86465176D01*
X146973001Y-85926999D01*
X146434824Y-85567400D01*
X145800000Y-85441126D01*
X142200000Y-85441126D01*
X141565176Y-85567400D01*
X141026999Y-85926999D01*
X140667400Y-86465176D01*
X140541126Y-87100000D01*
X138458874Y-87100000D01*
X138458874Y-86450000D01*
X138332600Y-85815176D01*
X138208505Y-85629455D01*
X138311667Y-85475062D01*
X138458874Y-84735000D01*
X138458874Y-84185000D01*
X138311667Y-83444938D01*
X137892455Y-82817545D01*
X137265062Y-82398333D01*
X136525000Y-82251126D01*
X135275000Y-82251126D01*
X134534938Y-82398333D01*
X133907545Y-82817545D01*
X133488333Y-83444938D01*
X133473178Y-83521126D01*
X133205000Y-83521126D01*
X132464938Y-83668333D01*
X131837545Y-84087545D01*
X131540354Y-84532322D01*
X130857511Y-83849479D01*
X130557511Y-83125215D01*
X129874785Y-82442489D01*
X128982760Y-82073000D01*
X128017240Y-82073000D01*
X127292976Y-82373000D01*
X123549486Y-82373000D01*
X123340000Y-82331331D01*
X123130514Y-82373000D01*
X123130511Y-82373000D01*
X122781166Y-82442489D01*
X122510085Y-82496410D01*
X122191191Y-82709489D01*
X121806519Y-82966519D01*
X121687854Y-83144114D01*
X120734482Y-84097486D01*
X120626183Y-83553032D01*
X120089769Y-82750231D01*
X119286968Y-82213817D01*
X119027001Y-82162106D01*
X119027001Y-79076142D01*
X119064023Y-79068778D01*
X119725189Y-78627000D01*
X120774811Y-78627000D01*
X121435977Y-79068778D01*
X122231414Y-79227000D01*
X122768586Y-79227000D01*
X123564023Y-79068778D01*
X124466057Y-78466057D01*
X124750000Y-78041107D01*
X125033943Y-78466057D01*
X125935977Y-79068778D01*
X126731414Y-79227000D01*
X127268586Y-79227000D01*
X128064023Y-79068778D01*
X128725189Y-78627000D01*
X130792976Y-78627000D01*
X131517240Y-78927000D01*
X132482760Y-78927000D01*
X133374785Y-78557511D01*
X133525839Y-78406457D01*
X133626770Y-78557511D01*
X133837895Y-78873481D01*
X133966519Y-79065981D01*
X134144115Y-79184647D01*
X135475353Y-80515885D01*
X135594019Y-80693481D01*
X136297586Y-81163590D01*
X136918011Y-81287000D01*
X136918014Y-81287000D01*
X137127500Y-81328669D01*
X137336986Y-81287000D01*
X141734802Y-81287000D01*
X142114014Y-81540381D01*
X142851117Y-81687000D01*
X145148883Y-81687000D01*
X145885986Y-81540381D01*
X146721865Y-80981865D01*
X147280381Y-80145986D01*
X147476506Y-79160000D01*
X147280381Y-78174014D01*
X146721865Y-77338135D01*
X145885986Y-76779619D01*
X145148883Y-76633000D01*
X142851117Y-76633000D01*
X142114014Y-76779619D01*
X141734802Y-77033000D01*
X138008532Y-77033000D01*
X137810977Y-76835445D01*
X137977336Y-76586471D01*
X138177535Y-75580000D01*
X138087428Y-75127000D01*
X138618969Y-75127000D01*
X138927851Y-75435883D01*
X139046519Y-75613481D01*
X139445921Y-75880353D01*
X139750085Y-76083590D01*
X139880284Y-76109488D01*
X140370511Y-76207000D01*
X140370514Y-76207000D01*
X140580000Y-76248669D01*
X140789486Y-76207000D01*
X141734802Y-76207000D01*
X142114014Y-76460381D01*
X142851117Y-76607000D01*
X145148883Y-76607000D01*
X145885986Y-76460381D01*
X146721865Y-75901865D01*
X147280381Y-75065986D01*
X147476506Y-74080000D01*
X147280381Y-73094014D01*
X146721865Y-72258135D01*
X145885986Y-71699619D01*
X145178414Y-71558874D01*
X145800000Y-71558874D01*
X146434824Y-71432600D01*
X146973001Y-71073001D01*
X147332600Y-70534824D01*
X147458874Y-69900000D01*
X147458874Y-68100000D01*
X147332600Y-67465176D01*
X146973001Y-66926999D01*
X146434824Y-66567400D01*
X145800000Y-66441126D01*
X142200000Y-66441126D01*
X141565176Y-66567400D01*
X141107814Y-66873000D01*
X138265357Y-66873000D01*
X138427000Y-66482760D01*
X138427000Y-65517240D01*
X138057511Y-64625215D01*
X137374785Y-63942489D01*
X136482760Y-63573000D01*
X135517240Y-63573000D01*
X134625215Y-63942489D01*
X133942489Y-64625215D01*
X133877684Y-64781669D01*
X133749769Y-64590231D01*
X132946968Y-64053817D01*
X132239034Y-63913000D01*
X131760966Y-63913000D01*
X131053032Y-64053817D01*
X130250231Y-64590231D01*
X129758874Y-65325599D01*
X129758874Y-65240000D01*
X129632600Y-64605176D01*
X129322447Y-64140999D01*
X129786183Y-63446968D01*
X129974547Y-62500000D01*
X129786183Y-61553032D01*
X129249769Y-60750231D01*
X128446968Y-60213817D01*
X128165951Y-60157919D01*
X124152147Y-56144115D01*
X124033481Y-55966519D01*
X123844133Y-55840000D01*
X133525453Y-55840000D01*
X133713817Y-56786968D01*
X134250231Y-57589769D01*
X135053032Y-58126183D01*
X135760966Y-58267000D01*
X136239034Y-58267000D01*
X136946968Y-58126183D01*
X137749769Y-57589769D01*
X138286183Y-56786968D01*
X138474547Y-55840000D01*
X138286183Y-54893032D01*
X137749769Y-54090231D01*
X136946968Y-53553817D01*
X136239034Y-53413000D01*
X135760966Y-53413000D01*
X135053032Y-53553817D01*
X134250231Y-54090231D01*
X133713817Y-54893032D01*
X133525453Y-55840000D01*
X123844133Y-55840000D01*
X123329914Y-55496410D01*
X122709489Y-55373000D01*
X122709484Y-55373000D01*
X122500000Y-55331331D01*
X122290516Y-55373000D01*
X121707024Y-55373000D01*
X120982760Y-55073000D01*
X120017240Y-55073000D01*
X119125215Y-55442489D01*
X118442489Y-56125215D01*
X118142489Y-56849478D01*
X115618968Y-59373000D01*
X113047000Y-59373000D01*
X113047000Y-58735683D01*
X113283860Y-58817700D01*
X113786222Y-58787846D01*
X114111687Y-58653034D01*
X114164901Y-58424506D01*
X113460000Y-57719605D01*
X113445858Y-57733748D01*
X113266253Y-57554143D01*
X113280395Y-57540000D01*
X113639605Y-57540000D01*
X114344506Y-58244901D01*
X114573034Y-58191687D01*
X114737700Y-57716140D01*
X114707846Y-57213778D01*
X114573034Y-56888313D01*
X114344506Y-56835099D01*
X113639605Y-57540000D01*
X113280395Y-57540000D01*
X113266253Y-57525858D01*
X113445858Y-57346253D01*
X113460000Y-57360395D01*
X114164901Y-56655494D01*
X114111687Y-56426966D01*
X113636140Y-56262300D01*
X113133778Y-56292154D01*
X113047000Y-56328099D01*
X113047000Y-55884506D01*
X115295099Y-55884506D01*
X115348313Y-56113034D01*
X115823860Y-56277700D01*
X116326222Y-56247846D01*
X116651687Y-56113034D01*
X116704901Y-55884506D01*
X116000000Y-55179605D01*
X115295099Y-55884506D01*
X113047000Y-55884506D01*
X113047000Y-55762793D01*
X113177000Y-55448945D01*
X113177000Y-54823860D01*
X114722300Y-54823860D01*
X114752154Y-55326222D01*
X114886966Y-55651687D01*
X115115494Y-55704901D01*
X115820395Y-55000000D01*
X116179605Y-55000000D01*
X116884506Y-55704901D01*
X117113034Y-55651687D01*
X117277700Y-55176140D01*
X117247846Y-54673778D01*
X117113034Y-54348313D01*
X116884506Y-54295099D01*
X116179605Y-55000000D01*
X115820395Y-55000000D01*
X115115494Y-54295099D01*
X114886966Y-54348313D01*
X114722300Y-54823860D01*
X113177000Y-54823860D01*
X113177000Y-54551055D01*
X112996585Y-54115494D01*
X115295099Y-54115494D01*
X116000000Y-54820395D01*
X116704901Y-54115494D01*
X116651687Y-53886966D01*
X116176140Y-53722300D01*
X115673778Y-53752154D01*
X115348313Y-53886966D01*
X115295099Y-54115494D01*
X112996585Y-54115494D01*
X112833392Y-53721512D01*
X112619625Y-53507745D01*
X119671861Y-53507745D01*
X119745995Y-53753864D01*
X120283223Y-53946965D01*
X120853454Y-53919778D01*
X121254005Y-53753864D01*
X121328139Y-53507745D01*
X121168140Y-53347745D01*
X126671861Y-53347745D01*
X126745995Y-53593864D01*
X127283223Y-53786965D01*
X127853454Y-53759778D01*
X128254005Y-53593864D01*
X128328139Y-53347745D01*
X127500000Y-52519605D01*
X126671861Y-53347745D01*
X121168140Y-53347745D01*
X120500000Y-52679605D01*
X119671861Y-53507745D01*
X112619625Y-53507745D01*
X112198488Y-53086608D01*
X111368945Y-52743000D01*
X110471055Y-52743000D01*
X109641512Y-53086608D01*
X109006608Y-53721512D01*
X108663000Y-54551055D01*
X108663000Y-55448945D01*
X108793000Y-55762793D01*
X108793001Y-59523191D01*
X108239034Y-59413000D01*
X107760966Y-59413000D01*
X107053032Y-59553817D01*
X106250231Y-60090231D01*
X105713817Y-60893032D01*
X105525453Y-61840000D01*
X105713817Y-62786968D01*
X106250231Y-63589769D01*
X107053032Y-64126183D01*
X107760966Y-64267000D01*
X108239034Y-64267000D01*
X108946968Y-64126183D01*
X109749769Y-63589769D01*
X110033590Y-63165000D01*
X110090231Y-63249769D01*
X110893032Y-63786183D01*
X111600966Y-63927000D01*
X112079034Y-63927000D01*
X112786968Y-63786183D01*
X113025202Y-63627000D01*
X116290516Y-63627000D01*
X116479945Y-63664680D01*
X116265176Y-63707400D01*
X115726999Y-64066999D01*
X115367400Y-64605176D01*
X115241126Y-65240000D01*
X115241126Y-67233094D01*
X114152147Y-66144115D01*
X114033481Y-65966519D01*
X113329914Y-65496410D01*
X112709489Y-65373000D01*
X112709484Y-65373000D01*
X112500000Y-65331331D01*
X112290516Y-65373000D01*
X96309486Y-65373000D01*
X96100000Y-65331331D01*
X95890514Y-65373000D01*
X95890511Y-65373000D01*
X95422592Y-65466075D01*
X95270085Y-65496410D01*
X94829933Y-65790511D01*
X94566519Y-65966519D01*
X94447853Y-66144115D01*
X92726270Y-67865698D01*
X92100000Y-67741126D01*
X89900000Y-67741126D01*
X89265176Y-67867400D01*
X88726999Y-68226999D01*
X88629444Y-68373000D01*
X82209484Y-68373000D01*
X81999999Y-68331331D01*
X81790515Y-68373000D01*
X81790511Y-68373000D01*
X81170086Y-68496410D01*
X81170084Y-68496411D01*
X81170085Y-68496411D01*
X80644114Y-68847853D01*
X80644112Y-68847855D01*
X80466519Y-68966519D01*
X80347855Y-69144112D01*
X80000000Y-69491968D01*
X71652147Y-61144115D01*
X71533481Y-60966519D01*
X70829914Y-60496410D01*
X70209489Y-60373000D01*
X70209484Y-60373000D01*
X70010993Y-60333518D01*
X69873001Y-60126999D01*
X69334824Y-59767400D01*
X68700000Y-59641126D01*
X66300000Y-59641126D01*
X65665176Y-59767400D01*
X65126999Y-60126999D01*
X64767400Y-60665176D01*
X64641126Y-61300000D01*
X64641126Y-63700000D01*
X64767400Y-64334824D01*
X65126999Y-64873001D01*
X65373001Y-65037374D01*
X65373000Y-69949987D01*
X64342162Y-69523000D01*
X63157838Y-69523000D01*
X62063665Y-69976221D01*
X61226221Y-70813665D01*
X60773000Y-71907838D01*
X60773000Y-73092162D01*
X61226221Y-74186335D01*
X62063665Y-75023779D01*
X63157838Y-75477000D01*
X64342162Y-75477000D01*
X65320001Y-75071966D01*
X61644113Y-78747855D01*
X61466520Y-78866519D01*
X61347856Y-79044112D01*
X61347853Y-79044115D01*
X61019126Y-79536090D01*
X60996411Y-79570086D01*
X60887009Y-80120084D01*
X60726999Y-80226999D01*
X60367400Y-80765176D01*
X60241126Y-81400000D01*
X59257654Y-81400000D01*
X58721865Y-80598135D01*
X58127000Y-80200659D01*
X58127000Y-76209483D01*
X58168669Y-75999999D01*
X58127000Y-75790515D01*
X58127000Y-75790511D01*
X58003590Y-75170086D01*
X57533481Y-74466519D01*
X57355885Y-74347853D01*
X55627000Y-72618968D01*
X55627000Y-71878001D01*
X55150943Y-70728697D01*
X54271303Y-69849057D01*
X53121999Y-69373000D01*
X51878001Y-69373000D01*
X51702000Y-69445902D01*
X51702000Y-60127000D01*
X60000000Y-60127000D01*
X60048601Y-60117333D01*
X60089803Y-60089803D01*
X60117333Y-60048601D01*
X60127000Y-60000000D01*
X60127000Y-51702000D01*
X67789967Y-51702000D01*
X67318968Y-52173000D01*
X67318968Y-52173000D01*
G37*
X67318968Y-52173000D02*
X66937675Y-52173000D01*
X65898633Y-52603385D01*
X65103385Y-53398633D01*
X64673000Y-54437675D01*
X64673000Y-55562325D01*
X65103385Y-56601367D01*
X65898633Y-57396615D01*
X66937675Y-57827000D01*
X68062325Y-57827000D01*
X69101367Y-57396615D01*
X69896615Y-56601367D01*
X70327000Y-55562325D01*
X70327000Y-55181032D01*
X71201033Y-54307000D01*
X78094816Y-54307000D01*
X78896959Y-54842976D01*
X79721565Y-55007000D01*
X80278435Y-55007000D01*
X81103041Y-54842976D01*
X81905184Y-54307000D01*
X84129018Y-54307000D01*
X84398633Y-54576615D01*
X85437675Y-55007000D01*
X86562325Y-55007000D01*
X87601367Y-54576615D01*
X87870982Y-54307000D01*
X89498968Y-54307000D01*
X95803346Y-60611379D01*
X95767400Y-60665176D01*
X95641126Y-61300000D01*
X95641126Y-63700000D01*
X95767400Y-64334824D01*
X96126999Y-64873001D01*
X96665176Y-65232600D01*
X97300000Y-65358874D01*
X99700000Y-65358874D01*
X100334824Y-65232600D01*
X100873001Y-64873001D01*
X101232600Y-64334824D01*
X101358874Y-63700000D01*
X101358874Y-61300000D01*
X101232600Y-60665176D01*
X100873001Y-60126999D01*
X100597663Y-59943024D01*
X100503590Y-59470086D01*
X100332356Y-59213817D01*
X100152147Y-58944114D01*
X100152145Y-58944112D01*
X100033481Y-58766519D01*
X99855888Y-58647855D01*
X97969643Y-56761610D01*
X98187734Y-56844707D01*
X98917443Y-56823786D01*
X99494435Y-56584788D01*
X99617570Y-56297175D01*
X98500000Y-55179605D01*
X98485858Y-55193748D01*
X98306253Y-55014143D01*
X98320395Y-55000000D01*
X98679605Y-55000000D01*
X99797175Y-56117570D01*
X100084788Y-55994435D01*
X100344707Y-55312266D01*
X100323786Y-54582557D01*
X100084788Y-54005565D01*
X99797175Y-53882430D01*
X98679605Y-55000000D01*
X98320395Y-55000000D01*
X97202825Y-53882430D01*
X96915212Y-54005565D01*
X96655293Y-54687734D01*
X96676214Y-55417443D01*
X96712091Y-55504059D01*
X94910857Y-53702825D01*
X97382430Y-53702825D01*
X98500000Y-54820395D01*
X99617570Y-53702825D01*
X99494435Y-53415212D01*
X98812266Y-53155293D01*
X98082557Y-53176214D01*
X97505565Y-53415212D01*
X97382430Y-53702825D01*
X94910857Y-53702825D01*
X92910032Y-51702000D01*
X119392196Y-51702000D01*
X119246136Y-51745995D01*
X119053035Y-52283223D01*
X119080222Y-52853454D01*
X119246136Y-53254005D01*
X119492255Y-53328139D01*
X120320395Y-52500000D01*
X120306252Y-52485858D01*
X120485858Y-52306252D01*
X120500000Y-52320395D01*
X120514142Y-52306252D01*
X120693748Y-52485858D01*
X120679605Y-52500000D01*
X121507745Y-53328139D01*
X121753864Y-53254005D01*
X121946965Y-52716777D01*
X121919778Y-52146546D01*
X121753864Y-51745995D01*
X121607804Y-51702000D01*
X126204439Y-51702000D01*
X126053035Y-52123223D01*
X126080222Y-52693454D01*
X126246136Y-53094005D01*
X126492255Y-53168139D01*
X127320395Y-52340000D01*
X127306252Y-52325858D01*
X127485858Y-52146252D01*
X127500000Y-52160395D01*
X127514142Y-52146252D01*
X127693748Y-52325858D01*
X127679605Y-52340000D01*
X128507745Y-53168139D01*
X128753864Y-53094005D01*
X128946965Y-52556777D01*
X128919778Y-51986546D01*
X128801915Y-51702000D01*
X139873000Y-51702000D01*
X139873000Y-60000000D01*
X139882667Y-60048601D01*
X139910197Y-60089803D01*
X139951399Y-60117333D01*
X140000000Y-60127000D01*
X148298000Y-60127000D01*
X148298000Y-95093192D01*
X115376400Y-99373000D01*
X109460896Y-99373000D01*
X109634547Y-98500000D01*
X109446183Y-97553032D01*
X108909769Y-96750231D01*
X108106968Y-96213817D01*
X107399034Y-96073000D01*
X106920966Y-96073000D01*
X106213032Y-96213817D01*
X105974798Y-96373000D01*
X103581032Y-96373000D01*
X101884075Y-94676043D01*
X101958874Y-94300000D01*
X101958874Y-92700000D01*
X101832600Y-92065176D01*
X101473001Y-91526999D01*
X101345379Y-91441724D01*
X106737882Y-91441724D01*
X106885455Y-91750106D01*
X107640031Y-92043405D01*
X108449409Y-92025614D01*
X109114545Y-91750106D01*
X109262118Y-91441724D01*
X108000000Y-90179605D01*
X106737882Y-91441724D01*
X101345379Y-91441724D01*
X100934824Y-91167400D01*
X100300000Y-91041126D01*
X98700000Y-91041126D01*
X98065176Y-91167400D01*
X97757474Y-91373000D01*
X95381032Y-91373000D01*
X94508032Y-90500000D01*
X94855888Y-90152145D01*
X95033481Y-90033481D01*
X95152145Y-89855888D01*
X95152147Y-89855886D01*
X95384767Y-89507745D01*
X98671861Y-89507745D01*
X98745995Y-89753864D01*
X99283223Y-89946965D01*
X99853454Y-89919778D01*
X100254005Y-89753864D01*
X100288292Y-89640031D01*
X105956595Y-89640031D01*
X105974386Y-90449409D01*
X106249894Y-91114545D01*
X106558276Y-91262118D01*
X107820395Y-90000000D01*
X108179605Y-90000000D01*
X109441724Y-91262118D01*
X109750106Y-91114545D01*
X110043405Y-90359969D01*
X110025614Y-89550591D01*
X109750106Y-88885455D01*
X109441724Y-88737882D01*
X108179605Y-90000000D01*
X107820395Y-90000000D01*
X106558276Y-88737882D01*
X106249894Y-88885455D01*
X105956595Y-89640031D01*
X100288292Y-89640031D01*
X100328139Y-89507745D01*
X99500000Y-88679605D01*
X98671861Y-89507745D01*
X95384767Y-89507745D01*
X95435898Y-89431222D01*
X95503590Y-89329914D01*
X95627000Y-88709489D01*
X95627000Y-88709485D01*
X95668669Y-88500001D01*
X95627000Y-88290516D01*
X95627000Y-88283223D01*
X98053035Y-88283223D01*
X98080222Y-88853454D01*
X98246136Y-89254005D01*
X98492255Y-89328139D01*
X99320395Y-88500000D01*
X99679605Y-88500000D01*
X100507745Y-89328139D01*
X100753864Y-89254005D01*
X100946965Y-88716777D01*
X100939409Y-88558276D01*
X106737882Y-88558276D01*
X108000000Y-89820395D01*
X109262118Y-88558276D01*
X109114545Y-88249894D01*
X108359969Y-87956595D01*
X107550591Y-87974386D01*
X106885455Y-88249894D01*
X106737882Y-88558276D01*
X100939409Y-88558276D01*
X100919778Y-88146546D01*
X100753864Y-87745995D01*
X100507745Y-87671861D01*
X99679605Y-88500000D01*
X99320395Y-88500000D01*
X98492255Y-87671861D01*
X98246136Y-87745995D01*
X98053035Y-88283223D01*
X95627000Y-88283223D01*
X95627000Y-87492255D01*
X98671861Y-87492255D01*
X99500000Y-88320395D01*
X100328139Y-87492255D01*
X100254005Y-87246136D01*
X99716777Y-87053035D01*
X99146546Y-87080222D01*
X98745995Y-87246136D01*
X98671861Y-87492255D01*
X95627000Y-87492255D01*
X95627000Y-84870982D01*
X95896615Y-84601367D01*
X96327000Y-83562325D01*
X96327000Y-82437675D01*
X95896615Y-81398633D01*
X95101367Y-80603385D01*
X94062325Y-80173000D01*
X92937675Y-80173000D01*
X91898633Y-80603385D01*
X91103385Y-81398633D01*
X90673000Y-82437675D01*
X90673000Y-83562325D01*
X91103385Y-84601367D01*
X91373000Y-84870982D01*
X91373001Y-87618967D01*
X90849478Y-88142489D01*
X90125215Y-88442489D01*
X89442489Y-89125215D01*
X89073000Y-90017240D01*
X89073000Y-90982760D01*
X89442489Y-91874785D01*
X90125215Y-92557511D01*
X90849479Y-92857511D01*
X92847852Y-94855884D01*
X92966519Y-95033481D01*
X93144115Y-95152147D01*
X93670085Y-95503590D01*
X93699742Y-95509489D01*
X94290511Y-95627000D01*
X94290514Y-95627000D01*
X94500000Y-95668669D01*
X94709486Y-95627000D01*
X97396375Y-95627000D01*
X97485298Y-96074051D01*
X97482760Y-96073000D01*
X96517240Y-96073000D01*
X95792976Y-96373000D01*
X93381032Y-96373000D01*
X88027000Y-91018968D01*
X88027000Y-90997348D01*
X87642287Y-90068569D01*
X87035000Y-89461282D01*
X87035000Y-89245750D01*
X86876250Y-89087000D01*
X86277872Y-89087000D01*
X86002652Y-88973000D01*
X84997348Y-88973000D01*
X84722128Y-89087000D01*
X84123750Y-89087000D01*
X83965000Y-89245750D01*
X83965000Y-89461282D01*
X83357713Y-90068569D01*
X82973000Y-90997348D01*
X82973000Y-92002652D01*
X83357713Y-92931431D01*
X84068569Y-93642287D01*
X84997348Y-94027000D01*
X85018968Y-94027000D01*
X89841329Y-98849361D01*
X89750231Y-98910231D01*
X89213817Y-99713032D01*
X89025453Y-100660000D01*
X89213817Y-101606968D01*
X89373000Y-101845203D01*
X89373000Y-102753442D01*
X87636184Y-102979228D01*
X87645401Y-102954418D01*
X87621341Y-102304623D01*
X87418965Y-101816042D01*
X87152163Y-101717443D01*
X86179605Y-102690000D01*
X86193748Y-102704143D01*
X86014143Y-102883748D01*
X86000000Y-102869605D01*
X85985858Y-102883748D01*
X85806252Y-102704142D01*
X85820395Y-102690000D01*
X84847837Y-101717443D01*
X84581035Y-101816042D01*
X84354599Y-102425582D01*
X84378659Y-103075377D01*
X84507315Y-103385981D01*
X78176770Y-104208952D01*
X78627000Y-103121999D01*
X78627000Y-101878001D01*
X78486100Y-101537837D01*
X85027443Y-101537837D01*
X86000000Y-102510395D01*
X86972557Y-101537837D01*
X86873958Y-101271035D01*
X86264418Y-101044599D01*
X85614623Y-101068659D01*
X85126042Y-101271035D01*
X85027443Y-101537837D01*
X78486100Y-101537837D01*
X78150943Y-100728697D01*
X77271303Y-99849057D01*
X76121999Y-99373000D01*
X74878001Y-99373000D01*
X73728697Y-99849057D01*
X72849057Y-100728697D01*
X72373000Y-101878001D01*
X72373000Y-103121999D01*
X72849057Y-104271303D01*
X73406802Y-104829048D01*
X51702000Y-107650672D01*
X51702000Y-105346991D01*
X52378001Y-105627000D01*
X53621999Y-105627000D01*
X54771303Y-105150943D01*
X55650943Y-104271303D01*
X56127000Y-103121999D01*
X56127000Y-102381032D01*
X56600194Y-101907838D01*
X61273000Y-101907838D01*
X61273000Y-103092162D01*
X61726221Y-104186335D01*
X62563665Y-105023779D01*
X63657838Y-105477000D01*
X64842162Y-105477000D01*
X65936335Y-105023779D01*
X66773779Y-104186335D01*
X67227000Y-103092162D01*
X67227000Y-101907838D01*
X66773779Y-100813665D01*
X65936335Y-99976221D01*
X64842162Y-99523000D01*
X63657838Y-99523000D01*
X62563665Y-99976221D01*
X61726221Y-100813665D01*
X61273000Y-101907838D01*
X56600194Y-101907838D01*
X57355885Y-101152147D01*
X57533481Y-101033481D01*
X57695829Y-100790511D01*
X58003590Y-100329915D01*
X58073944Y-99976221D01*
X58127000Y-99709489D01*
X58127000Y-99709486D01*
X58168669Y-99500000D01*
X58127000Y-99290514D01*
X58127000Y-95073830D01*
X58434824Y-95012600D01*
X58973001Y-94653001D01*
X59332600Y-94114824D01*
X59458874Y-93480000D01*
X59458874Y-91680000D01*
X59332600Y-91045176D01*
X58973001Y-90506999D01*
X58434824Y-90147400D01*
X57800000Y-90021126D01*
X54200000Y-90021126D01*
X53565176Y-90147400D01*
X53026999Y-90506999D01*
X52667400Y-91045176D01*
X52541126Y-91680000D01*
X52541126Y-93480000D01*
X52667400Y-94114824D01*
X53026999Y-94653001D01*
X53565176Y-95012600D01*
X53873000Y-95073830D01*
X53873001Y-98618967D01*
X53118968Y-99373000D01*
X52378001Y-99373000D01*
X51702000Y-99653009D01*
X51702000Y-87864740D01*
X53608964Y-87864740D01*
X53633244Y-87970086D01*
X53924788Y-88495606D01*
X54395248Y-88869554D01*
X54973000Y-89035000D01*
X55873000Y-89035000D01*
X55873000Y-87627000D01*
X56127000Y-87627000D01*
X56127000Y-89035000D01*
X57027000Y-89035000D01*
X57604752Y-88869554D01*
X58075212Y-88495606D01*
X58366756Y-87970086D01*
X58391036Y-87864740D01*
X58270378Y-87627000D01*
X56127000Y-87627000D01*
X55873000Y-87627000D01*
X53729622Y-87627000D01*
X53608964Y-87864740D01*
X51702000Y-87864740D01*
X51702000Y-87135260D01*
X53608964Y-87135260D01*
X53729622Y-87373000D01*
X55873000Y-87373000D01*
X55873000Y-85965000D01*
X56127000Y-85965000D01*
X56127000Y-87373000D01*
X58270378Y-87373000D01*
X58391036Y-87135260D01*
X58366756Y-87029914D01*
X58075212Y-86504394D01*
X57604752Y-86130446D01*
X57027000Y-85965000D01*
X56127000Y-85965000D01*
X55873000Y-85965000D01*
X54973000Y-85965000D01*
X54395248Y-86130446D01*
X53924788Y-86504394D01*
X53633244Y-87029914D01*
X53608964Y-87135260D01*
X51702000Y-87135260D01*
X51702000Y-75554098D01*
X51878001Y-75627000D01*
X52618968Y-75627000D01*
X53873001Y-76881033D01*
X53873000Y-80200659D01*
X53278135Y-80598135D01*
X52719619Y-81434014D01*
X52523494Y-82420000D01*
X52719619Y-83405986D01*
X53278135Y-84241865D01*
X54114014Y-84800381D01*
X54851117Y-84947000D01*
X57148883Y-84947000D01*
X57885986Y-84800381D01*
X58721865Y-84241865D01*
X59280381Y-83405986D01*
X59476506Y-82420000D01*
X59280381Y-81434014D01*
X59257654Y-81400000D01*
X60241126Y-81400000D01*
X60241126Y-83600000D01*
X60367400Y-84234824D01*
X60726999Y-84773001D01*
X60873001Y-84870556D01*
X60873000Y-89629444D01*
X60726999Y-89726999D01*
X60367400Y-90265176D01*
X60241126Y-90900000D01*
X60241126Y-93100000D01*
X60367400Y-93734824D01*
X60726999Y-94273001D01*
X61265176Y-94632600D01*
X61900000Y-94758874D01*
X64100000Y-94758874D01*
X64734824Y-94632600D01*
X65273001Y-94273001D01*
X65632600Y-93734824D01*
X65758874Y-93100000D01*
X65758874Y-90900000D01*
X65632600Y-90265176D01*
X65273001Y-89726999D01*
X65127000Y-89629444D01*
X65127000Y-84870556D01*
X65273001Y-84773001D01*
X65632600Y-84234824D01*
X65758874Y-83600000D01*
X65758874Y-81400000D01*
X65634302Y-80773731D01*
X68855888Y-77552145D01*
X69033481Y-77433481D01*
X69152145Y-77255888D01*
X69152147Y-77255886D01*
X69476748Y-76770086D01*
X69503590Y-76729914D01*
X69627000Y-76109489D01*
X69627000Y-76109485D01*
X69668669Y-75900001D01*
X69627000Y-75690516D01*
X69627000Y-65135032D01*
X74015232Y-69523264D01*
X73228697Y-69849057D01*
X72349057Y-70728697D01*
X71873000Y-71878001D01*
X71873000Y-73121999D01*
X72349057Y-74271303D01*
X73228697Y-75150943D01*
X74378001Y-75627000D01*
X75118968Y-75627000D01*
X77161968Y-77670000D01*
X74629688Y-80202279D01*
X74224023Y-79931222D01*
X73428586Y-79773000D01*
X72891414Y-79773000D01*
X72095977Y-79931222D01*
X71193943Y-80533943D01*
X70591222Y-81435977D01*
X70379575Y-82500000D01*
X70591222Y-83564023D01*
X71193943Y-84466057D01*
X72095977Y-85068778D01*
X72891414Y-85227000D01*
X73428586Y-85227000D01*
X74073000Y-85098818D01*
X74073000Y-85482760D01*
X74442489Y-86374785D01*
X75125215Y-87057511D01*
X76017240Y-87427000D01*
X76982760Y-87427000D01*
X77291206Y-87299238D01*
X78142489Y-88150521D01*
X78184683Y-88252387D01*
X77874785Y-87942489D01*
X76982760Y-87573000D01*
X76017240Y-87573000D01*
X75317797Y-87862719D01*
X75159999Y-87831331D01*
X74950515Y-87873000D01*
X74950511Y-87873000D01*
X74330086Y-87996410D01*
X74215461Y-88073000D01*
X73804114Y-88347853D01*
X73804112Y-88347855D01*
X73626519Y-88466519D01*
X73507855Y-88644112D01*
X72875877Y-89276091D01*
X72095977Y-89431222D01*
X71193943Y-90033943D01*
X70591222Y-90935977D01*
X70379575Y-92000000D01*
X70591222Y-93064023D01*
X71193943Y-93966057D01*
X72095977Y-94568778D01*
X72891414Y-94727000D01*
X73428586Y-94727000D01*
X74224023Y-94568778D01*
X75126057Y-93966057D01*
X75728778Y-93064023D01*
X75867802Y-92365101D01*
X76017240Y-92427000D01*
X76982760Y-92427000D01*
X77874785Y-92057511D01*
X78557511Y-91374785D01*
X78927000Y-90482760D01*
X78927000Y-89517240D01*
X78815317Y-89247613D01*
X79125215Y-89557511D01*
X80017240Y-89927000D01*
X80982760Y-89927000D01*
X81874785Y-89557511D01*
X82557511Y-88874785D01*
X82927000Y-87982760D01*
X82927000Y-87933691D01*
X83965000Y-87933691D01*
X83965000Y-88674250D01*
X84123750Y-88833000D01*
X85373000Y-88833000D01*
X85373000Y-87583750D01*
X85627000Y-87583750D01*
X85627000Y-88833000D01*
X86876250Y-88833000D01*
X87035000Y-88674250D01*
X87035000Y-87933691D01*
X86938327Y-87700302D01*
X86759699Y-87521673D01*
X86526310Y-87425000D01*
X85785750Y-87425000D01*
X85627000Y-87583750D01*
X85373000Y-87583750D01*
X85214250Y-87425000D01*
X84473690Y-87425000D01*
X84240301Y-87521673D01*
X84061673Y-87700302D01*
X83965000Y-87933691D01*
X82927000Y-87933691D01*
X82927000Y-87017240D01*
X82557511Y-86125215D01*
X81874785Y-85442489D01*
X81150521Y-85142489D01*
X79652147Y-83644115D01*
X79533481Y-83466519D01*
X78829914Y-82996410D01*
X78209489Y-82873000D01*
X78209484Y-82873000D01*
X78013930Y-82834102D01*
X81165952Y-79682081D01*
X81446968Y-79626183D01*
X82249769Y-79089769D01*
X82786183Y-78286968D01*
X82974547Y-77340000D01*
X82786183Y-76393032D01*
X82249769Y-75590231D01*
X81446968Y-75053817D01*
X81294882Y-75023565D01*
X81601367Y-74896615D01*
X82396615Y-74101367D01*
X82827000Y-73062325D01*
X82827000Y-72681033D01*
X82881033Y-72627000D01*
X84165000Y-72627000D01*
X84165000Y-72627002D01*
X84328141Y-72627002D01*
X84211797Y-72911807D01*
X84505508Y-73564776D01*
X85026742Y-74055642D01*
X85588195Y-74288195D01*
X85873000Y-74171432D01*
X85873000Y-72627000D01*
X86127000Y-72627000D01*
X86127000Y-74171432D01*
X86411805Y-74288195D01*
X86973258Y-74055642D01*
X87494492Y-73564776D01*
X87788203Y-72911807D01*
X87671859Y-72627002D01*
X87835000Y-72627002D01*
X87835000Y-72627000D01*
X88629444Y-72627000D01*
X88726999Y-72773001D01*
X89265176Y-73132600D01*
X89900000Y-73258874D01*
X90750842Y-73258874D01*
X91373000Y-73881032D01*
X91373000Y-74129018D01*
X91103385Y-74398633D01*
X90673000Y-75437675D01*
X90673000Y-76562325D01*
X91103385Y-77601367D01*
X91898633Y-78396615D01*
X92937675Y-78827000D01*
X94062325Y-78827000D01*
X95101367Y-78396615D01*
X95896615Y-77601367D01*
X96327000Y-76562325D01*
X96327000Y-75437675D01*
X95896615Y-74398633D01*
X95627000Y-74129018D01*
X95627000Y-73209484D01*
X95668669Y-73000000D01*
X95627000Y-72790515D01*
X95627000Y-72790511D01*
X95503590Y-72170086D01*
X95076753Y-71531279D01*
X96981032Y-69627000D01*
X98553225Y-69627000D01*
X98379575Y-70500000D01*
X98591222Y-71564023D01*
X99193943Y-72466057D01*
X100095977Y-73068778D01*
X100891414Y-73227000D01*
X101428586Y-73227000D01*
X102224023Y-73068778D01*
X102885189Y-72627000D01*
X105618968Y-72627000D01*
X105642489Y-72650521D01*
X105942489Y-73374785D01*
X106625215Y-74057511D01*
X107517240Y-74427000D01*
X108482760Y-74427000D01*
X109207024Y-74127000D01*
X109618968Y-74127000D01*
X111029589Y-75537621D01*
X110937616Y-76000000D01*
X111157024Y-77103041D01*
X111781847Y-78038153D01*
X112716959Y-78662976D01*
X113541565Y-78827000D01*
X114098435Y-78827000D01*
X114773001Y-78692821D01*
X114773002Y-80307179D01*
X114098435Y-80173000D01*
X113541565Y-80173000D01*
X112716959Y-80337024D01*
X111781847Y-80961847D01*
X111157024Y-81896959D01*
X110937616Y-83000000D01*
X111157024Y-84103041D01*
X111781847Y-85038153D01*
X112716959Y-85662976D01*
X113541565Y-85827000D01*
X113952834Y-85827000D01*
X113496410Y-86510087D01*
X113373000Y-87130512D01*
X113373000Y-87130516D01*
X113331331Y-87340000D01*
X113373000Y-87549485D01*
X113373001Y-91450511D01*
X113331331Y-91660000D01*
X113496411Y-92489914D01*
X113847853Y-93015885D01*
X113847856Y-93015888D01*
X113966520Y-93193481D01*
X114144113Y-93312145D01*
X115616091Y-94784123D01*
X115771222Y-95564023D01*
X116373943Y-96466057D01*
X117275977Y-97068778D01*
X118071414Y-97227000D01*
X118608586Y-97227000D01*
X119404023Y-97068778D01*
X120306057Y-96466057D01*
X120908778Y-95564023D01*
X121120425Y-94500000D01*
X120908778Y-93435977D01*
X120306057Y-92533943D01*
X119506956Y-92000000D01*
X120306057Y-91466057D01*
X120908778Y-90564023D01*
X121063910Y-89784122D01*
X124221032Y-86627000D01*
X127292976Y-86627000D01*
X127568501Y-86741126D01*
X127400000Y-86741126D01*
X126765176Y-86867400D01*
X126226999Y-87226999D01*
X125867400Y-87765176D01*
X125741126Y-88400000D01*
X125741126Y-90600000D01*
X125867400Y-91234824D01*
X126226999Y-91773001D01*
X126566726Y-92000000D01*
X126226999Y-92226999D01*
X125867400Y-92765176D01*
X125741126Y-93400000D01*
X125741126Y-95600000D01*
X125867400Y-96234824D01*
X126226999Y-96773001D01*
X126765176Y-97132600D01*
X127400000Y-97258874D01*
X129600000Y-97258874D01*
X130234824Y-97132600D01*
X130773001Y-96773001D01*
X130870556Y-96627000D01*
X134290516Y-96627000D01*
X134500000Y-96668669D01*
X134709484Y-96627000D01*
X134709489Y-96627000D01*
X135212224Y-96527000D01*
X136102108Y-96527000D01*
X137214658Y-96066166D01*
X138066166Y-95214658D01*
X138527000Y-94102108D01*
X138527000Y-93444740D01*
X141608964Y-93444740D01*
X141633244Y-93550086D01*
X141924788Y-94075606D01*
X142395248Y-94449554D01*
X142973000Y-94615000D01*
X143873000Y-94615000D01*
X143873000Y-93207000D01*
X144127000Y-93207000D01*
X144127000Y-94615000D01*
X145027000Y-94615000D01*
X145604752Y-94449554D01*
X146075212Y-94075606D01*
X146366756Y-93550086D01*
X146391036Y-93444740D01*
X146270378Y-93207000D01*
X144127000Y-93207000D01*
X143873000Y-93207000D01*
X141729622Y-93207000D01*
X141608964Y-93444740D01*
X138527000Y-93444740D01*
X138527000Y-92897892D01*
X138451352Y-92715260D01*
X141608964Y-92715260D01*
X141729622Y-92953000D01*
X143873000Y-92953000D01*
X143873000Y-91545000D01*
X144127000Y-91545000D01*
X144127000Y-92953000D01*
X146270378Y-92953000D01*
X146391036Y-92715260D01*
X146366756Y-92609914D01*
X146075212Y-92084394D01*
X145604752Y-91710446D01*
X145027000Y-91545000D01*
X144127000Y-91545000D01*
X143873000Y-91545000D01*
X142973000Y-91545000D01*
X142395248Y-91710446D01*
X141924788Y-92084394D01*
X141633244Y-92609914D01*
X141608964Y-92715260D01*
X138451352Y-92715260D01*
X138066166Y-91785342D01*
X137214658Y-90933834D01*
X136102108Y-90473000D01*
X134897892Y-90473000D01*
X133785342Y-90933834D01*
X132933834Y-91785342D01*
X132690418Y-92373000D01*
X130870556Y-92373000D01*
X130773001Y-92226999D01*
X130433274Y-92000000D01*
X130773001Y-91773001D01*
X131132600Y-91234824D01*
X131258874Y-90600000D01*
X131258874Y-90021251D01*
X131790511Y-90127000D01*
X131790515Y-90127000D01*
X131999999Y-90168669D01*
X132209483Y-90127000D01*
X134290516Y-90127000D01*
X134500000Y-90168669D01*
X134709484Y-90127000D01*
X134709489Y-90127000D01*
X135329914Y-90003590D01*
X136033481Y-89533481D01*
X136152147Y-89355884D01*
X136299158Y-89208874D01*
X136800000Y-89208874D01*
X137434824Y-89082600D01*
X137973001Y-88723001D01*
X138332600Y-88184824D01*
X138458874Y-87550000D01*
X138458874Y-87100000D01*
X140541126Y-87100000D01*
X140541126Y-88900000D01*
X140667400Y-89534824D01*
X141026999Y-90073001D01*
X141565176Y-90432600D01*
X142200000Y-90558874D01*
X145800000Y-90558874D01*
X146434824Y-90432600D01*
X146973001Y-90073001D01*
X147332600Y-89534824D01*
X147458874Y-88900000D01*
X147458874Y-87100000D01*
X147332600Y-86465176D01*
X146973001Y-85926999D01*
X146434824Y-85567400D01*
X145800000Y-85441126D01*
X142200000Y-85441126D01*
X141565176Y-85567400D01*
X141026999Y-85926999D01*
X140667400Y-86465176D01*
X140541126Y-87100000D01*
X138458874Y-87100000D01*
X138458874Y-86450000D01*
X138332600Y-85815176D01*
X138208505Y-85629455D01*
X138311667Y-85475062D01*
X138458874Y-84735000D01*
X138458874Y-84185000D01*
X138311667Y-83444938D01*
X137892455Y-82817545D01*
X137265062Y-82398333D01*
X136525000Y-82251126D01*
X135275000Y-82251126D01*
X134534938Y-82398333D01*
X133907545Y-82817545D01*
X133488333Y-83444938D01*
X133473178Y-83521126D01*
X133205000Y-83521126D01*
X132464938Y-83668333D01*
X131837545Y-84087545D01*
X131540354Y-84532322D01*
X130857511Y-83849479D01*
X130557511Y-83125215D01*
X129874785Y-82442489D01*
X128982760Y-82073000D01*
X128017240Y-82073000D01*
X127292976Y-82373000D01*
X123549486Y-82373000D01*
X123340000Y-82331331D01*
X123130514Y-82373000D01*
X123130511Y-82373000D01*
X122781166Y-82442489D01*
X122510085Y-82496410D01*
X122191191Y-82709489D01*
X121806519Y-82966519D01*
X121687854Y-83144114D01*
X120734482Y-84097486D01*
X120626183Y-83553032D01*
X120089769Y-82750231D01*
X119286968Y-82213817D01*
X119027001Y-82162106D01*
X119027001Y-79076142D01*
X119064023Y-79068778D01*
X119725189Y-78627000D01*
X120774811Y-78627000D01*
X121435977Y-79068778D01*
X122231414Y-79227000D01*
X122768586Y-79227000D01*
X123564023Y-79068778D01*
X124466057Y-78466057D01*
X124750000Y-78041107D01*
X125033943Y-78466057D01*
X125935977Y-79068778D01*
X126731414Y-79227000D01*
X127268586Y-79227000D01*
X128064023Y-79068778D01*
X128725189Y-78627000D01*
X130792976Y-78627000D01*
X131517240Y-78927000D01*
X132482760Y-78927000D01*
X133374785Y-78557511D01*
X133525839Y-78406457D01*
X133626770Y-78557511D01*
X133837895Y-78873481D01*
X133966519Y-79065981D01*
X134144115Y-79184647D01*
X135475353Y-80515885D01*
X135594019Y-80693481D01*
X136297586Y-81163590D01*
X136918011Y-81287000D01*
X136918014Y-81287000D01*
X137127500Y-81328669D01*
X137336986Y-81287000D01*
X141734802Y-81287000D01*
X142114014Y-81540381D01*
X142851117Y-81687000D01*
X145148883Y-81687000D01*
X145885986Y-81540381D01*
X146721865Y-80981865D01*
X147280381Y-80145986D01*
X147476506Y-79160000D01*
X147280381Y-78174014D01*
X146721865Y-77338135D01*
X145885986Y-76779619D01*
X145148883Y-76633000D01*
X142851117Y-76633000D01*
X142114014Y-76779619D01*
X141734802Y-77033000D01*
X138008532Y-77033000D01*
X137810977Y-76835445D01*
X137977336Y-76586471D01*
X138177535Y-75580000D01*
X138087428Y-75127000D01*
X138618969Y-75127000D01*
X138927851Y-75435883D01*
X139046519Y-75613481D01*
X139445921Y-75880353D01*
X139750085Y-76083590D01*
X139880284Y-76109488D01*
X140370511Y-76207000D01*
X140370514Y-76207000D01*
X140580000Y-76248669D01*
X140789486Y-76207000D01*
X141734802Y-76207000D01*
X142114014Y-76460381D01*
X142851117Y-76607000D01*
X145148883Y-76607000D01*
X145885986Y-76460381D01*
X146721865Y-75901865D01*
X147280381Y-75065986D01*
X147476506Y-74080000D01*
X147280381Y-73094014D01*
X146721865Y-72258135D01*
X145885986Y-71699619D01*
X145178414Y-71558874D01*
X145800000Y-71558874D01*
X146434824Y-71432600D01*
X146973001Y-71073001D01*
X147332600Y-70534824D01*
X147458874Y-69900000D01*
X147458874Y-68100000D01*
X147332600Y-67465176D01*
X146973001Y-66926999D01*
X146434824Y-66567400D01*
X145800000Y-66441126D01*
X142200000Y-66441126D01*
X141565176Y-66567400D01*
X141107814Y-66873000D01*
X138265357Y-66873000D01*
X138427000Y-66482760D01*
X138427000Y-65517240D01*
X138057511Y-64625215D01*
X137374785Y-63942489D01*
X136482760Y-63573000D01*
X135517240Y-63573000D01*
X134625215Y-63942489D01*
X133942489Y-64625215D01*
X133877684Y-64781669D01*
X133749769Y-64590231D01*
X132946968Y-64053817D01*
X132239034Y-63913000D01*
X131760966Y-63913000D01*
X131053032Y-64053817D01*
X130250231Y-64590231D01*
X129758874Y-65325599D01*
X129758874Y-65240000D01*
X129632600Y-64605176D01*
X129322447Y-64140999D01*
X129786183Y-63446968D01*
X129974547Y-62500000D01*
X129786183Y-61553032D01*
X129249769Y-60750231D01*
X128446968Y-60213817D01*
X128165951Y-60157919D01*
X124152147Y-56144115D01*
X124033481Y-55966519D01*
X123844133Y-55840000D01*
X133525453Y-55840000D01*
X133713817Y-56786968D01*
X134250231Y-57589769D01*
X135053032Y-58126183D01*
X135760966Y-58267000D01*
X136239034Y-58267000D01*
X136946968Y-58126183D01*
X137749769Y-57589769D01*
X138286183Y-56786968D01*
X138474547Y-55840000D01*
X138286183Y-54893032D01*
X137749769Y-54090231D01*
X136946968Y-53553817D01*
X136239034Y-53413000D01*
X135760966Y-53413000D01*
X135053032Y-53553817D01*
X134250231Y-54090231D01*
X133713817Y-54893032D01*
X133525453Y-55840000D01*
X123844133Y-55840000D01*
X123329914Y-55496410D01*
X122709489Y-55373000D01*
X122709484Y-55373000D01*
X122500000Y-55331331D01*
X122290516Y-55373000D01*
X121707024Y-55373000D01*
X120982760Y-55073000D01*
X120017240Y-55073000D01*
X119125215Y-55442489D01*
X118442489Y-56125215D01*
X118142489Y-56849478D01*
X115618968Y-59373000D01*
X113047000Y-59373000D01*
X113047000Y-58735683D01*
X113283860Y-58817700D01*
X113786222Y-58787846D01*
X114111687Y-58653034D01*
X114164901Y-58424506D01*
X113460000Y-57719605D01*
X113445858Y-57733748D01*
X113266253Y-57554143D01*
X113280395Y-57540000D01*
X113639605Y-57540000D01*
X114344506Y-58244901D01*
X114573034Y-58191687D01*
X114737700Y-57716140D01*
X114707846Y-57213778D01*
X114573034Y-56888313D01*
X114344506Y-56835099D01*
X113639605Y-57540000D01*
X113280395Y-57540000D01*
X113266253Y-57525858D01*
X113445858Y-57346253D01*
X113460000Y-57360395D01*
X114164901Y-56655494D01*
X114111687Y-56426966D01*
X113636140Y-56262300D01*
X113133778Y-56292154D01*
X113047000Y-56328099D01*
X113047000Y-55884506D01*
X115295099Y-55884506D01*
X115348313Y-56113034D01*
X115823860Y-56277700D01*
X116326222Y-56247846D01*
X116651687Y-56113034D01*
X116704901Y-55884506D01*
X116000000Y-55179605D01*
X115295099Y-55884506D01*
X113047000Y-55884506D01*
X113047000Y-55762793D01*
X113177000Y-55448945D01*
X113177000Y-54823860D01*
X114722300Y-54823860D01*
X114752154Y-55326222D01*
X114886966Y-55651687D01*
X115115494Y-55704901D01*
X115820395Y-55000000D01*
X116179605Y-55000000D01*
X116884506Y-55704901D01*
X117113034Y-55651687D01*
X117277700Y-55176140D01*
X117247846Y-54673778D01*
X117113034Y-54348313D01*
X116884506Y-54295099D01*
X116179605Y-55000000D01*
X115820395Y-55000000D01*
X115115494Y-54295099D01*
X114886966Y-54348313D01*
X114722300Y-54823860D01*
X113177000Y-54823860D01*
X113177000Y-54551055D01*
X112996585Y-54115494D01*
X115295099Y-54115494D01*
X116000000Y-54820395D01*
X116704901Y-54115494D01*
X116651687Y-53886966D01*
X116176140Y-53722300D01*
X115673778Y-53752154D01*
X115348313Y-53886966D01*
X115295099Y-54115494D01*
X112996585Y-54115494D01*
X112833392Y-53721512D01*
X112619625Y-53507745D01*
X119671861Y-53507745D01*
X119745995Y-53753864D01*
X120283223Y-53946965D01*
X120853454Y-53919778D01*
X121254005Y-53753864D01*
X121328139Y-53507745D01*
X121168140Y-53347745D01*
X126671861Y-53347745D01*
X126745995Y-53593864D01*
X127283223Y-53786965D01*
X127853454Y-53759778D01*
X128254005Y-53593864D01*
X128328139Y-53347745D01*
X127500000Y-52519605D01*
X126671861Y-53347745D01*
X121168140Y-53347745D01*
X120500000Y-52679605D01*
X119671861Y-53507745D01*
X112619625Y-53507745D01*
X112198488Y-53086608D01*
X111368945Y-52743000D01*
X110471055Y-52743000D01*
X109641512Y-53086608D01*
X109006608Y-53721512D01*
X108663000Y-54551055D01*
X108663000Y-55448945D01*
X108793000Y-55762793D01*
X108793001Y-59523191D01*
X108239034Y-59413000D01*
X107760966Y-59413000D01*
X107053032Y-59553817D01*
X106250231Y-60090231D01*
X105713817Y-60893032D01*
X105525453Y-61840000D01*
X105713817Y-62786968D01*
X106250231Y-63589769D01*
X107053032Y-64126183D01*
X107760966Y-64267000D01*
X108239034Y-64267000D01*
X108946968Y-64126183D01*
X109749769Y-63589769D01*
X110033590Y-63165000D01*
X110090231Y-63249769D01*
X110893032Y-63786183D01*
X111600966Y-63927000D01*
X112079034Y-63927000D01*
X112786968Y-63786183D01*
X113025202Y-63627000D01*
X116290516Y-63627000D01*
X116479945Y-63664680D01*
X116265176Y-63707400D01*
X115726999Y-64066999D01*
X115367400Y-64605176D01*
X115241126Y-65240000D01*
X115241126Y-67233094D01*
X114152147Y-66144115D01*
X114033481Y-65966519D01*
X113329914Y-65496410D01*
X112709489Y-65373000D01*
X112709484Y-65373000D01*
X112500000Y-65331331D01*
X112290516Y-65373000D01*
X96309486Y-65373000D01*
X96100000Y-65331331D01*
X95890514Y-65373000D01*
X95890511Y-65373000D01*
X95422592Y-65466075D01*
X95270085Y-65496410D01*
X94829933Y-65790511D01*
X94566519Y-65966519D01*
X94447853Y-66144115D01*
X92726270Y-67865698D01*
X92100000Y-67741126D01*
X89900000Y-67741126D01*
X89265176Y-67867400D01*
X88726999Y-68226999D01*
X88629444Y-68373000D01*
X82209484Y-68373000D01*
X81999999Y-68331331D01*
X81790515Y-68373000D01*
X81790511Y-68373000D01*
X81170086Y-68496410D01*
X81170084Y-68496411D01*
X81170085Y-68496411D01*
X80644114Y-68847853D01*
X80644112Y-68847855D01*
X80466519Y-68966519D01*
X80347855Y-69144112D01*
X80000000Y-69491968D01*
X71652147Y-61144115D01*
X71533481Y-60966519D01*
X70829914Y-60496410D01*
X70209489Y-60373000D01*
X70209484Y-60373000D01*
X70010993Y-60333518D01*
X69873001Y-60126999D01*
X69334824Y-59767400D01*
X68700000Y-59641126D01*
X66300000Y-59641126D01*
X65665176Y-59767400D01*
X65126999Y-60126999D01*
X64767400Y-60665176D01*
X64641126Y-61300000D01*
X64641126Y-63700000D01*
X64767400Y-64334824D01*
X65126999Y-64873001D01*
X65373001Y-65037374D01*
X65373000Y-69949987D01*
X64342162Y-69523000D01*
X63157838Y-69523000D01*
X62063665Y-69976221D01*
X61226221Y-70813665D01*
X60773000Y-71907838D01*
X60773000Y-73092162D01*
X61226221Y-74186335D01*
X62063665Y-75023779D01*
X63157838Y-75477000D01*
X64342162Y-75477000D01*
X65320001Y-75071966D01*
X61644113Y-78747855D01*
X61466520Y-78866519D01*
X61347856Y-79044112D01*
X61347853Y-79044115D01*
X61019126Y-79536090D01*
X60996411Y-79570086D01*
X60887009Y-80120084D01*
X60726999Y-80226999D01*
X60367400Y-80765176D01*
X60241126Y-81400000D01*
X59257654Y-81400000D01*
X58721865Y-80598135D01*
X58127000Y-80200659D01*
X58127000Y-76209483D01*
X58168669Y-75999999D01*
X58127000Y-75790515D01*
X58127000Y-75790511D01*
X58003590Y-75170086D01*
X57533481Y-74466519D01*
X57355885Y-74347853D01*
X55627000Y-72618968D01*
X55627000Y-71878001D01*
X55150943Y-70728697D01*
X54271303Y-69849057D01*
X53121999Y-69373000D01*
X51878001Y-69373000D01*
X51702000Y-69445902D01*
X51702000Y-60127000D01*
X60000000Y-60127000D01*
X60048601Y-60117333D01*
X60089803Y-60089803D01*
X60117333Y-60048601D01*
X60127000Y-60000000D01*
X60127000Y-51702000D01*
X67789967Y-51702000D01*
X67318968Y-52173000D01*
G36*
X122052820Y-60060852D02*
X121646546Y-60080222D01*
X121245995Y-60246136D01*
X121171861Y-60492255D01*
X122000000Y-61320395D01*
X122014142Y-61306252D01*
X122193748Y-61485858D01*
X122179605Y-61500000D01*
X123007745Y-62328139D01*
X123253864Y-62254005D01*
X123446965Y-61716777D01*
X123433859Y-61441891D01*
X125157919Y-63165951D01*
X125213817Y-63446968D01*
X125373442Y-63685865D01*
X125265176Y-63707400D01*
X124750000Y-64051630D01*
X124234824Y-63707400D01*
X123600000Y-63581126D01*
X121400000Y-63581126D01*
X120765176Y-63707400D01*
X120250000Y-64051630D01*
X119734824Y-63707400D01*
X119100000Y-63581126D01*
X116940114Y-63581126D01*
X117329914Y-63503590D01*
X118033481Y-63033481D01*
X118152147Y-62855885D01*
X118500287Y-62507745D01*
X121171861Y-62507745D01*
X121245995Y-62753864D01*
X121783223Y-62946965D01*
X122353454Y-62919778D01*
X122754005Y-62753864D01*
X122828139Y-62507745D01*
X122000000Y-61679605D01*
X121171861Y-62507745D01*
X118500287Y-62507745D01*
X119724809Y-61283223D01*
X120553035Y-61283223D01*
X120580222Y-61853454D01*
X120746136Y-62254005D01*
X120992255Y-62328139D01*
X121820395Y-61500000D01*
X120992255Y-60671861D01*
X120746136Y-60745995D01*
X120553035Y-61283223D01*
X119724809Y-61283223D01*
X121150522Y-59857511D01*
X121644759Y-59652791D01*
X122052820Y-60060852D01*
X122052820Y-60060852D01*
G37*
X122052820Y-60060852D02*
X121646546Y-60080222D01*
X121245995Y-60246136D01*
X121171861Y-60492255D01*
X122000000Y-61320395D01*
X122014142Y-61306252D01*
X122193748Y-61485858D01*
X122179605Y-61500000D01*
X123007745Y-62328139D01*
X123253864Y-62254005D01*
X123446965Y-61716777D01*
X123433859Y-61441891D01*
X125157919Y-63165951D01*
X125213817Y-63446968D01*
X125373442Y-63685865D01*
X125265176Y-63707400D01*
X124750000Y-64051630D01*
X124234824Y-63707400D01*
X123600000Y-63581126D01*
X121400000Y-63581126D01*
X120765176Y-63707400D01*
X120250000Y-64051630D01*
X119734824Y-63707400D01*
X119100000Y-63581126D01*
X116940114Y-63581126D01*
X117329914Y-63503590D01*
X118033481Y-63033481D01*
X118152147Y-62855885D01*
X118500287Y-62507745D01*
X121171861Y-62507745D01*
X121245995Y-62753864D01*
X121783223Y-62946965D01*
X122353454Y-62919778D01*
X122754005Y-62753864D01*
X122828139Y-62507745D01*
X122000000Y-61679605D01*
X121171861Y-62507745D01*
X118500287Y-62507745D01*
X119724809Y-61283223D01*
X120553035Y-61283223D01*
X120580222Y-61853454D01*
X120746136Y-62254005D01*
X120992255Y-62328139D01*
X121820395Y-61500000D01*
X120992255Y-60671861D01*
X120746136Y-60745995D01*
X120553035Y-61283223D01*
X119724809Y-61283223D01*
X121150522Y-59857511D01*
X121644759Y-59652791D01*
X122052820Y-60060852D01*
G04 #@! TD*
M02*
