G04 #@! TF.GenerationSoftware,KiCad,Pcbnew,(5.0.0-3-g5ebb6b6)*
G04 #@! TF.CreationDate,2018-12-23T17:20:18+00:00*
G04 #@! TF.ProjectId,Regulator,526567756C61746F722E6B696361645F,rev?*
G04 #@! TF.SameCoordinates,Original*
G04 #@! TF.FileFunction,Legend,Top*
G04 #@! TF.FilePolarity,Positive*
%FSLAX46Y46*%
G04 Gerber Fmt 4.6, Leading zero omitted, Abs format (unit mm)*
G04 Created by KiCad (PCBNEW (5.0.0-3-g5ebb6b6)) date Sunday, 23 December 2018 at 17:20:18*
%MOMM*%
%LPD*%
G01*
G04 APERTURE LIST*
%ADD10C,0.250000*%
%ADD11C,0.300000*%
%ADD12C,0.120000*%
%ADD13C,0.150000*%
G04 APERTURE END LIST*
D10*
X79678571Y-104452380D02*
X79678571Y-104119047D01*
X80202380Y-103976190D02*
X80202380Y-104452380D01*
X79202380Y-104452380D01*
X79202380Y-103976190D01*
X80202380Y-103404761D02*
X80154761Y-103500000D01*
X80059523Y-103547619D01*
X79202380Y-103547619D01*
X80154761Y-102642857D02*
X80202380Y-102738095D01*
X80202380Y-102928571D01*
X80154761Y-103023809D01*
X80059523Y-103071428D01*
X79678571Y-103071428D01*
X79583333Y-103023809D01*
X79535714Y-102928571D01*
X79535714Y-102738095D01*
X79583333Y-102642857D01*
X79678571Y-102595238D01*
X79773809Y-102595238D01*
X79869047Y-103071428D01*
X79535714Y-102261904D02*
X80202380Y-102023809D01*
X79535714Y-101785714D01*
X80202380Y-100976190D02*
X79678571Y-100976190D01*
X79583333Y-101023809D01*
X79535714Y-101119047D01*
X79535714Y-101309523D01*
X79583333Y-101404761D01*
X80154761Y-100976190D02*
X80202380Y-101071428D01*
X80202380Y-101309523D01*
X80154761Y-101404761D01*
X80059523Y-101452380D01*
X79964285Y-101452380D01*
X79869047Y-101404761D01*
X79821428Y-101309523D01*
X79821428Y-101071428D01*
X79773809Y-100976190D01*
X79535714Y-100642857D02*
X79535714Y-100261904D01*
X79202380Y-100500000D02*
X80059523Y-100500000D01*
X80154761Y-100452380D01*
X80202380Y-100357142D01*
X80202380Y-100261904D01*
X80154761Y-99547619D02*
X80202380Y-99642857D01*
X80202380Y-99833333D01*
X80154761Y-99928571D01*
X80059523Y-99976190D01*
X79678571Y-99976190D01*
X79583333Y-99928571D01*
X79535714Y-99833333D01*
X79535714Y-99642857D01*
X79583333Y-99547619D01*
X79678571Y-99500000D01*
X79773809Y-99500000D01*
X79869047Y-99976190D01*
X81952380Y-105666666D02*
X80952380Y-105666666D01*
X81952380Y-105238095D02*
X81428571Y-105238095D01*
X81333333Y-105285714D01*
X81285714Y-105380952D01*
X81285714Y-105523809D01*
X81333333Y-105619047D01*
X81380952Y-105666666D01*
X81904761Y-104380952D02*
X81952380Y-104476190D01*
X81952380Y-104666666D01*
X81904761Y-104761904D01*
X81809523Y-104809523D01*
X81428571Y-104809523D01*
X81333333Y-104761904D01*
X81285714Y-104666666D01*
X81285714Y-104476190D01*
X81333333Y-104380952D01*
X81428571Y-104333333D01*
X81523809Y-104333333D01*
X81619047Y-104809523D01*
X81952380Y-103476190D02*
X81428571Y-103476190D01*
X81333333Y-103523809D01*
X81285714Y-103619047D01*
X81285714Y-103809523D01*
X81333333Y-103904761D01*
X81904761Y-103476190D02*
X81952380Y-103571428D01*
X81952380Y-103809523D01*
X81904761Y-103904761D01*
X81809523Y-103952380D01*
X81714285Y-103952380D01*
X81619047Y-103904761D01*
X81571428Y-103809523D01*
X81571428Y-103571428D01*
X81523809Y-103476190D01*
X81285714Y-103142857D02*
X81285714Y-102761904D01*
X80952380Y-103000000D02*
X81809523Y-103000000D01*
X81904761Y-102952380D01*
X81952380Y-102857142D01*
X81952380Y-102761904D01*
X81904761Y-102047619D02*
X81952380Y-102142857D01*
X81952380Y-102333333D01*
X81904761Y-102428571D01*
X81809523Y-102476190D01*
X81428571Y-102476190D01*
X81333333Y-102428571D01*
X81285714Y-102333333D01*
X81285714Y-102142857D01*
X81333333Y-102047619D01*
X81428571Y-102000000D01*
X81523809Y-102000000D01*
X81619047Y-102476190D01*
X81952380Y-101571428D02*
X81285714Y-101571428D01*
X81476190Y-101571428D02*
X81380952Y-101523809D01*
X81333333Y-101476190D01*
X81285714Y-101380952D01*
X81285714Y-101285714D01*
X81904761Y-101000000D02*
X81952380Y-100904761D01*
X81952380Y-100714285D01*
X81904761Y-100619047D01*
X81809523Y-100571428D01*
X81761904Y-100571428D01*
X81666666Y-100619047D01*
X81619047Y-100714285D01*
X81619047Y-100857142D01*
X81571428Y-100952380D01*
X81476190Y-101000000D01*
X81428571Y-101000000D01*
X81333333Y-100952380D01*
X81285714Y-100857142D01*
X81285714Y-100714285D01*
X81333333Y-100619047D01*
X81952380Y-99238095D02*
X81904761Y-99333333D01*
X81857142Y-99380952D01*
X81761904Y-99428571D01*
X81476190Y-99428571D01*
X81380952Y-99380952D01*
X81333333Y-99333333D01*
X81285714Y-99238095D01*
X81285714Y-99095238D01*
X81333333Y-99000000D01*
X81380952Y-98952380D01*
X81476190Y-98904761D01*
X81761904Y-98904761D01*
X81857142Y-98952380D01*
X81904761Y-99000000D01*
X81952380Y-99095238D01*
X81952380Y-99238095D01*
X81952380Y-98476190D02*
X81285714Y-98476190D01*
X81476190Y-98476190D02*
X81380952Y-98428571D01*
X81333333Y-98380952D01*
X81285714Y-98285714D01*
X81285714Y-98190476D01*
X83702380Y-107047619D02*
X83654761Y-107142857D01*
X83559523Y-107190476D01*
X82702380Y-107190476D01*
X83702380Y-106666666D02*
X83035714Y-106666666D01*
X82702380Y-106666666D02*
X82750000Y-106714285D01*
X82797619Y-106666666D01*
X82750000Y-106619047D01*
X82702380Y-106666666D01*
X82797619Y-106666666D01*
X83035714Y-106190476D02*
X83702380Y-106190476D01*
X83130952Y-106190476D02*
X83083333Y-106142857D01*
X83035714Y-106047619D01*
X83035714Y-105904761D01*
X83083333Y-105809523D01*
X83178571Y-105761904D01*
X83702380Y-105761904D01*
X83702380Y-105285714D02*
X82702380Y-105285714D01*
X83321428Y-105190476D02*
X83702380Y-104904761D01*
X83035714Y-104904761D02*
X83416666Y-105285714D01*
X83035714Y-103857142D02*
X83035714Y-103476190D01*
X82702380Y-103714285D02*
X83559523Y-103714285D01*
X83654761Y-103666666D01*
X83702380Y-103571428D01*
X83702380Y-103476190D01*
X83702380Y-103000000D02*
X83654761Y-103095238D01*
X83607142Y-103142857D01*
X83511904Y-103190476D01*
X83226190Y-103190476D01*
X83130952Y-103142857D01*
X83083333Y-103095238D01*
X83035714Y-103000000D01*
X83035714Y-102857142D01*
X83083333Y-102761904D01*
X83130952Y-102714285D01*
X83226190Y-102666666D01*
X83511904Y-102666666D01*
X83607142Y-102714285D01*
X83654761Y-102761904D01*
X83702380Y-102857142D01*
X83702380Y-103000000D01*
X83035714Y-101047619D02*
X83845238Y-101047619D01*
X83940476Y-101095238D01*
X83988095Y-101142857D01*
X84035714Y-101238095D01*
X84035714Y-101380952D01*
X83988095Y-101476190D01*
X83654761Y-101047619D02*
X83702380Y-101142857D01*
X83702380Y-101333333D01*
X83654761Y-101428571D01*
X83607142Y-101476190D01*
X83511904Y-101523809D01*
X83226190Y-101523809D01*
X83130952Y-101476190D01*
X83083333Y-101428571D01*
X83035714Y-101333333D01*
X83035714Y-101142857D01*
X83083333Y-101047619D01*
X83702380Y-100571428D02*
X83035714Y-100571428D01*
X83226190Y-100571428D02*
X83130952Y-100523809D01*
X83083333Y-100476190D01*
X83035714Y-100380952D01*
X83035714Y-100285714D01*
X83702380Y-99809523D02*
X83654761Y-99904761D01*
X83607142Y-99952380D01*
X83511904Y-100000000D01*
X83226190Y-100000000D01*
X83130952Y-99952380D01*
X83083333Y-99904761D01*
X83035714Y-99809523D01*
X83035714Y-99666666D01*
X83083333Y-99571428D01*
X83130952Y-99523809D01*
X83226190Y-99476190D01*
X83511904Y-99476190D01*
X83607142Y-99523809D01*
X83654761Y-99571428D01*
X83702380Y-99666666D01*
X83702380Y-99809523D01*
X83035714Y-98619047D02*
X83702380Y-98619047D01*
X83035714Y-99047619D02*
X83559523Y-99047619D01*
X83654761Y-99000000D01*
X83702380Y-98904761D01*
X83702380Y-98761904D01*
X83654761Y-98666666D01*
X83607142Y-98619047D01*
X83035714Y-98142857D02*
X83702380Y-98142857D01*
X83130952Y-98142857D02*
X83083333Y-98095238D01*
X83035714Y-98000000D01*
X83035714Y-97857142D01*
X83083333Y-97761904D01*
X83178571Y-97714285D01*
X83702380Y-97714285D01*
X83702380Y-96809523D02*
X82702380Y-96809523D01*
X83654761Y-96809523D02*
X83702380Y-96904761D01*
X83702380Y-97095238D01*
X83654761Y-97190476D01*
X83607142Y-97238095D01*
X83511904Y-97285714D01*
X83226190Y-97285714D01*
X83130952Y-97238095D01*
X83083333Y-97190476D01*
X83035714Y-97095238D01*
X83035714Y-96904761D01*
X83083333Y-96809523D01*
D11*
X51750000Y-123678571D02*
X51035714Y-123678571D01*
X51035714Y-122178571D01*
X52035714Y-122178571D02*
X52535714Y-123678571D01*
X53035714Y-122178571D01*
X54607142Y-123250000D02*
X55321428Y-123250000D01*
X54464285Y-123678571D02*
X54964285Y-122178571D01*
X55464285Y-123678571D01*
X56821428Y-123535714D02*
X56750000Y-123607142D01*
X56535714Y-123678571D01*
X56392857Y-123678571D01*
X56178571Y-123607142D01*
X56035714Y-123464285D01*
X55964285Y-123321428D01*
X55892857Y-123035714D01*
X55892857Y-122821428D01*
X55964285Y-122535714D01*
X56035714Y-122392857D01*
X56178571Y-122250000D01*
X56392857Y-122178571D01*
X56535714Y-122178571D01*
X56750000Y-122250000D01*
X56821428Y-122321428D01*
X58607142Y-123678571D02*
X58607142Y-122678571D01*
X58607142Y-122178571D02*
X58535714Y-122250000D01*
X58607142Y-122321428D01*
X58678571Y-122250000D01*
X58607142Y-122178571D01*
X58607142Y-122321428D01*
X59321428Y-122678571D02*
X59321428Y-123678571D01*
X59321428Y-122821428D02*
X59392857Y-122750000D01*
X59535714Y-122678571D01*
X59750000Y-122678571D01*
X59892857Y-122750000D01*
X59964285Y-122892857D01*
X59964285Y-123678571D01*
X59821428Y-82857142D02*
X61321428Y-82857142D01*
X60607142Y-82857142D02*
X60607142Y-83714285D01*
X59821428Y-83714285D02*
X61321428Y-83714285D01*
X61321428Y-84214285D02*
X59821428Y-84714285D01*
X61321428Y-85214285D01*
X60250000Y-86785714D02*
X60250000Y-87500000D01*
X59821428Y-86642857D02*
X61321428Y-87142857D01*
X59821428Y-87642857D01*
X59964285Y-89000000D02*
X59892857Y-88928571D01*
X59821428Y-88714285D01*
X59821428Y-88571428D01*
X59892857Y-88357142D01*
X60035714Y-88214285D01*
X60178571Y-88142857D01*
X60464285Y-88071428D01*
X60678571Y-88071428D01*
X60964285Y-88142857D01*
X61107142Y-88214285D01*
X61250000Y-88357142D01*
X61321428Y-88571428D01*
X61321428Y-88714285D01*
X61250000Y-88928571D01*
X61178571Y-89000000D01*
X59821428Y-90785714D02*
X60821428Y-90785714D01*
X61321428Y-90785714D02*
X61250000Y-90714285D01*
X61178571Y-90785714D01*
X61250000Y-90857142D01*
X61321428Y-90785714D01*
X61178571Y-90785714D01*
X60821428Y-91500000D02*
X59821428Y-91500000D01*
X60678571Y-91500000D02*
X60750000Y-91571428D01*
X60821428Y-91714285D01*
X60821428Y-91928571D01*
X60750000Y-92071428D01*
X60607142Y-92142857D01*
X59821428Y-92142857D01*
X145607142Y-114071428D02*
X145607142Y-112928571D01*
X145607142Y-100071428D02*
X145607142Y-98928571D01*
X146178571Y-99500000D02*
X145035714Y-99500000D01*
X85357142Y-111678571D02*
X85857142Y-113178571D01*
X86357142Y-111678571D01*
X86500000Y-113321428D02*
X87642857Y-113321428D01*
X88571428Y-113107142D02*
X88428571Y-113178571D01*
X88142857Y-113178571D01*
X88000000Y-113107142D01*
X87928571Y-112964285D01*
X87928571Y-112392857D01*
X88000000Y-112250000D01*
X88142857Y-112178571D01*
X88428571Y-112178571D01*
X88571428Y-112250000D01*
X88642857Y-112392857D01*
X88642857Y-112535714D01*
X87928571Y-112678571D01*
X89500000Y-113178571D02*
X89357142Y-113107142D01*
X89285714Y-112964285D01*
X89285714Y-111678571D01*
X90642857Y-113107142D02*
X90500000Y-113178571D01*
X90214285Y-113178571D01*
X90071428Y-113107142D01*
X90000000Y-112964285D01*
X90000000Y-112392857D01*
X90071428Y-112250000D01*
X90214285Y-112178571D01*
X90500000Y-112178571D01*
X90642857Y-112250000D01*
X90714285Y-112392857D01*
X90714285Y-112535714D01*
X90000000Y-112678571D01*
X91214285Y-112178571D02*
X91571428Y-113178571D01*
X91928571Y-112178571D01*
X93142857Y-113178571D02*
X93142857Y-112392857D01*
X93071428Y-112250000D01*
X92928571Y-112178571D01*
X92642857Y-112178571D01*
X92500000Y-112250000D01*
X93142857Y-113107142D02*
X93000000Y-113178571D01*
X92642857Y-113178571D01*
X92500000Y-113107142D01*
X92428571Y-112964285D01*
X92428571Y-112821428D01*
X92500000Y-112678571D01*
X92642857Y-112607142D01*
X93000000Y-112607142D01*
X93142857Y-112535714D01*
X93642857Y-112178571D02*
X94214285Y-112178571D01*
X93857142Y-111678571D02*
X93857142Y-112964285D01*
X93928571Y-113107142D01*
X94071428Y-113178571D01*
X94214285Y-113178571D01*
X94714285Y-113178571D02*
X94714285Y-112178571D01*
X94714285Y-111678571D02*
X94642857Y-111750000D01*
X94714285Y-111821428D01*
X94785714Y-111750000D01*
X94714285Y-111678571D01*
X94714285Y-111821428D01*
X95642857Y-113178571D02*
X95500000Y-113107142D01*
X95428571Y-113035714D01*
X95357142Y-112892857D01*
X95357142Y-112464285D01*
X95428571Y-112321428D01*
X95500000Y-112250000D01*
X95642857Y-112178571D01*
X95857142Y-112178571D01*
X96000000Y-112250000D01*
X96071428Y-112321428D01*
X96142857Y-112464285D01*
X96142857Y-112892857D01*
X96071428Y-113035714D01*
X96000000Y-113107142D01*
X95857142Y-113178571D01*
X95642857Y-113178571D01*
X96785714Y-112178571D02*
X96785714Y-113178571D01*
X96785714Y-112321428D02*
X96857142Y-112250000D01*
X97000000Y-112178571D01*
X97214285Y-112178571D01*
X97357142Y-112250000D01*
X97428571Y-112392857D01*
X97428571Y-113178571D01*
X106214285Y-92750000D02*
X106071428Y-92678571D01*
X105857142Y-92678571D01*
X105642857Y-92750000D01*
X105500000Y-92892857D01*
X105428571Y-93035714D01*
X105357142Y-93321428D01*
X105357142Y-93535714D01*
X105428571Y-93821428D01*
X105500000Y-93964285D01*
X105642857Y-94107142D01*
X105857142Y-94178571D01*
X106000000Y-94178571D01*
X106214285Y-94107142D01*
X106285714Y-94035714D01*
X106285714Y-93535714D01*
X106000000Y-93535714D01*
X106928571Y-94178571D02*
X106928571Y-92678571D01*
X107785714Y-94178571D01*
X107785714Y-92678571D01*
X108500000Y-94178571D02*
X108500000Y-92678571D01*
X108857142Y-92678571D01*
X109071428Y-92750000D01*
X109214285Y-92892857D01*
X109285714Y-93035714D01*
X109357142Y-93321428D01*
X109357142Y-93535714D01*
X109285714Y-93821428D01*
X109214285Y-93964285D01*
X109071428Y-94107142D01*
X108857142Y-94178571D01*
X108500000Y-94178571D01*
X109928571Y-93750000D02*
X110642857Y-93750000D01*
X109785714Y-94178571D02*
X110285714Y-92678571D01*
X110785714Y-94178571D01*
X139678571Y-110392857D02*
X138178571Y-110392857D01*
X138892857Y-110392857D02*
X138892857Y-109535714D01*
X139678571Y-109535714D02*
X138178571Y-109535714D01*
X139607142Y-108250000D02*
X139678571Y-108392857D01*
X139678571Y-108678571D01*
X139607142Y-108821428D01*
X139464285Y-108892857D01*
X138892857Y-108892857D01*
X138750000Y-108821428D01*
X138678571Y-108678571D01*
X138678571Y-108392857D01*
X138750000Y-108250000D01*
X138892857Y-108178571D01*
X139035714Y-108178571D01*
X139178571Y-108892857D01*
X139678571Y-106892857D02*
X138892857Y-106892857D01*
X138750000Y-106964285D01*
X138678571Y-107107142D01*
X138678571Y-107392857D01*
X138750000Y-107535714D01*
X139607142Y-106892857D02*
X139678571Y-107035714D01*
X139678571Y-107392857D01*
X139607142Y-107535714D01*
X139464285Y-107607142D01*
X139321428Y-107607142D01*
X139178571Y-107535714D01*
X139107142Y-107392857D01*
X139107142Y-107035714D01*
X139035714Y-106892857D01*
X138678571Y-106392857D02*
X138678571Y-105821428D01*
X138178571Y-106178571D02*
X139464285Y-106178571D01*
X139607142Y-106107142D01*
X139678571Y-105964285D01*
X139678571Y-105821428D01*
X139607142Y-104750000D02*
X139678571Y-104892857D01*
X139678571Y-105178571D01*
X139607142Y-105321428D01*
X139464285Y-105392857D01*
X138892857Y-105392857D01*
X138750000Y-105321428D01*
X138678571Y-105178571D01*
X138678571Y-104892857D01*
X138750000Y-104750000D01*
X138892857Y-104678571D01*
X139035714Y-104678571D01*
X139178571Y-105392857D01*
X139678571Y-104035714D02*
X138678571Y-104035714D01*
X138964285Y-104035714D02*
X138821428Y-103964285D01*
X138750000Y-103892857D01*
X138678571Y-103750000D01*
X138678571Y-103607142D01*
X139607142Y-103178571D02*
X139678571Y-103035714D01*
X139678571Y-102750000D01*
X139607142Y-102607142D01*
X139464285Y-102535714D01*
X139392857Y-102535714D01*
X139250000Y-102607142D01*
X139178571Y-102750000D01*
X139178571Y-102964285D01*
X139107142Y-103107142D01*
X138964285Y-103178571D01*
X138892857Y-103178571D01*
X138750000Y-103107142D01*
X138678571Y-102964285D01*
X138678571Y-102750000D01*
X138750000Y-102607142D01*
X138250000Y-95285714D02*
X138178571Y-95428571D01*
X138178571Y-95642857D01*
X138250000Y-95857142D01*
X138392857Y-96000000D01*
X138535714Y-96071428D01*
X138821428Y-96142857D01*
X139035714Y-96142857D01*
X139321428Y-96071428D01*
X139464285Y-96000000D01*
X139607142Y-95857142D01*
X139678571Y-95642857D01*
X139678571Y-95500000D01*
X139607142Y-95285714D01*
X139535714Y-95214285D01*
X139035714Y-95214285D01*
X139035714Y-95500000D01*
X139678571Y-94571428D02*
X138178571Y-94571428D01*
X139678571Y-93714285D01*
X138178571Y-93714285D01*
X139678571Y-93000000D02*
X138178571Y-93000000D01*
X138178571Y-92642857D01*
X138250000Y-92428571D01*
X138392857Y-92285714D01*
X138535714Y-92214285D01*
X138821428Y-92142857D01*
X139035714Y-92142857D01*
X139321428Y-92214285D01*
X139464285Y-92285714D01*
X139607142Y-92428571D01*
X139678571Y-92642857D01*
X139678571Y-93000000D01*
X139250000Y-91571428D02*
X139250000Y-90857142D01*
X139678571Y-91714285D02*
X138178571Y-91214285D01*
X139678571Y-90714285D01*
X138892857Y-88321428D02*
X138964285Y-88107142D01*
X139035714Y-88035714D01*
X139178571Y-87964285D01*
X139392857Y-87964285D01*
X139535714Y-88035714D01*
X139607142Y-88107142D01*
X139678571Y-88250000D01*
X139678571Y-88821428D01*
X138178571Y-88821428D01*
X138178571Y-88321428D01*
X138250000Y-88178571D01*
X138321428Y-88107142D01*
X138464285Y-88035714D01*
X138607142Y-88035714D01*
X138750000Y-88107142D01*
X138821428Y-88178571D01*
X138892857Y-88321428D01*
X138892857Y-88821428D01*
X139107142Y-87321428D02*
X139107142Y-86178571D01*
X139678571Y-86750000D02*
X138535714Y-86750000D01*
X80500000Y-93403571D02*
X80500000Y-91903571D01*
X80500000Y-92617857D02*
X81357142Y-92617857D01*
X81357142Y-93403571D02*
X81357142Y-91903571D01*
X81857142Y-91903571D02*
X82714285Y-91903571D01*
X82285714Y-93403571D02*
X82285714Y-91903571D01*
X76892857Y-95953571D02*
X76892857Y-94453571D01*
X77607142Y-94953571D02*
X77607142Y-95953571D01*
X77607142Y-95096428D02*
X77678571Y-95025000D01*
X77821428Y-94953571D01*
X78035714Y-94953571D01*
X78178571Y-95025000D01*
X78250000Y-95167857D01*
X78250000Y-95953571D01*
X79607142Y-95953571D02*
X79607142Y-94453571D01*
X79607142Y-95882142D02*
X79464285Y-95953571D01*
X79178571Y-95953571D01*
X79035714Y-95882142D01*
X78964285Y-95810714D01*
X78892857Y-95667857D01*
X78892857Y-95239285D01*
X78964285Y-95096428D01*
X79035714Y-95025000D01*
X79178571Y-94953571D01*
X79464285Y-94953571D01*
X79607142Y-95025000D01*
X80321428Y-95953571D02*
X80321428Y-94953571D01*
X80321428Y-94453571D02*
X80250000Y-94525000D01*
X80321428Y-94596428D01*
X80392857Y-94525000D01*
X80321428Y-94453571D01*
X80321428Y-94596428D01*
X81678571Y-95882142D02*
X81535714Y-95953571D01*
X81250000Y-95953571D01*
X81107142Y-95882142D01*
X81035714Y-95810714D01*
X80964285Y-95667857D01*
X80964285Y-95239285D01*
X81035714Y-95096428D01*
X81107142Y-95025000D01*
X81250000Y-94953571D01*
X81535714Y-94953571D01*
X81678571Y-95025000D01*
X82964285Y-95953571D02*
X82964285Y-95167857D01*
X82892857Y-95025000D01*
X82750000Y-94953571D01*
X82464285Y-94953571D01*
X82321428Y-95025000D01*
X82964285Y-95882142D02*
X82821428Y-95953571D01*
X82464285Y-95953571D01*
X82321428Y-95882142D01*
X82250000Y-95739285D01*
X82250000Y-95596428D01*
X82321428Y-95453571D01*
X82464285Y-95382142D01*
X82821428Y-95382142D01*
X82964285Y-95310714D01*
X83464285Y-94953571D02*
X84035714Y-94953571D01*
X83678571Y-94453571D02*
X83678571Y-95739285D01*
X83750000Y-95882142D01*
X83892857Y-95953571D01*
X84035714Y-95953571D01*
X84750000Y-95953571D02*
X84607142Y-95882142D01*
X84535714Y-95810714D01*
X84464285Y-95667857D01*
X84464285Y-95239285D01*
X84535714Y-95096428D01*
X84607142Y-95025000D01*
X84750000Y-94953571D01*
X84964285Y-94953571D01*
X85107142Y-95025000D01*
X85178571Y-95096428D01*
X85250000Y-95239285D01*
X85250000Y-95667857D01*
X85178571Y-95810714D01*
X85107142Y-95882142D01*
X84964285Y-95953571D01*
X84750000Y-95953571D01*
X85892857Y-95953571D02*
X85892857Y-94953571D01*
X85892857Y-95239285D02*
X85964285Y-95096428D01*
X86035714Y-95025000D01*
X86178571Y-94953571D01*
X86321428Y-94953571D01*
X96107142Y-103403571D02*
X96107142Y-101903571D01*
X96107142Y-102617857D02*
X96964285Y-102617857D01*
X96964285Y-103403571D02*
X96964285Y-101903571D01*
X98250000Y-103332142D02*
X98107142Y-103403571D01*
X97821428Y-103403571D01*
X97678571Y-103332142D01*
X97607142Y-103189285D01*
X97607142Y-102617857D01*
X97678571Y-102475000D01*
X97821428Y-102403571D01*
X98107142Y-102403571D01*
X98250000Y-102475000D01*
X98321428Y-102617857D01*
X98321428Y-102760714D01*
X97607142Y-102903571D01*
X99607142Y-103403571D02*
X99607142Y-102617857D01*
X99535714Y-102475000D01*
X99392857Y-102403571D01*
X99107142Y-102403571D01*
X98964285Y-102475000D01*
X99607142Y-103332142D02*
X99464285Y-103403571D01*
X99107142Y-103403571D01*
X98964285Y-103332142D01*
X98892857Y-103189285D01*
X98892857Y-103046428D01*
X98964285Y-102903571D01*
X99107142Y-102832142D01*
X99464285Y-102832142D01*
X99607142Y-102760714D01*
X100107142Y-102403571D02*
X100678571Y-102403571D01*
X100321428Y-101903571D02*
X100321428Y-103189285D01*
X100392857Y-103332142D01*
X100535714Y-103403571D01*
X100678571Y-103403571D01*
X101750000Y-103332142D02*
X101607142Y-103403571D01*
X101321428Y-103403571D01*
X101178571Y-103332142D01*
X101107142Y-103189285D01*
X101107142Y-102617857D01*
X101178571Y-102475000D01*
X101321428Y-102403571D01*
X101607142Y-102403571D01*
X101750000Y-102475000D01*
X101821428Y-102617857D01*
X101821428Y-102760714D01*
X101107142Y-102903571D01*
X102464285Y-103403571D02*
X102464285Y-102403571D01*
X102464285Y-102689285D02*
X102535714Y-102546428D01*
X102607142Y-102475000D01*
X102750000Y-102403571D01*
X102892857Y-102403571D01*
X103321428Y-103332142D02*
X103464285Y-103403571D01*
X103750000Y-103403571D01*
X103892857Y-103332142D01*
X103964285Y-103189285D01*
X103964285Y-103117857D01*
X103892857Y-102975000D01*
X103750000Y-102903571D01*
X103535714Y-102903571D01*
X103392857Y-102832142D01*
X103321428Y-102689285D01*
X103321428Y-102617857D01*
X103392857Y-102475000D01*
X103535714Y-102403571D01*
X103750000Y-102403571D01*
X103892857Y-102475000D01*
X95392857Y-105953571D02*
X95392857Y-104453571D01*
X96107142Y-104953571D02*
X96107142Y-105953571D01*
X96107142Y-105096428D02*
X96178571Y-105025000D01*
X96321428Y-104953571D01*
X96535714Y-104953571D01*
X96678571Y-105025000D01*
X96750000Y-105167857D01*
X96750000Y-105953571D01*
X98107142Y-105953571D02*
X98107142Y-104453571D01*
X98107142Y-105882142D02*
X97964285Y-105953571D01*
X97678571Y-105953571D01*
X97535714Y-105882142D01*
X97464285Y-105810714D01*
X97392857Y-105667857D01*
X97392857Y-105239285D01*
X97464285Y-105096428D01*
X97535714Y-105025000D01*
X97678571Y-104953571D01*
X97964285Y-104953571D01*
X98107142Y-105025000D01*
X98821428Y-105953571D02*
X98821428Y-104953571D01*
X98821428Y-104453571D02*
X98750000Y-104525000D01*
X98821428Y-104596428D01*
X98892857Y-104525000D01*
X98821428Y-104453571D01*
X98821428Y-104596428D01*
X100178571Y-105882142D02*
X100035714Y-105953571D01*
X99750000Y-105953571D01*
X99607142Y-105882142D01*
X99535714Y-105810714D01*
X99464285Y-105667857D01*
X99464285Y-105239285D01*
X99535714Y-105096428D01*
X99607142Y-105025000D01*
X99750000Y-104953571D01*
X100035714Y-104953571D01*
X100178571Y-105025000D01*
X101464285Y-105953571D02*
X101464285Y-105167857D01*
X101392857Y-105025000D01*
X101250000Y-104953571D01*
X100964285Y-104953571D01*
X100821428Y-105025000D01*
X101464285Y-105882142D02*
X101321428Y-105953571D01*
X100964285Y-105953571D01*
X100821428Y-105882142D01*
X100750000Y-105739285D01*
X100750000Y-105596428D01*
X100821428Y-105453571D01*
X100964285Y-105382142D01*
X101321428Y-105382142D01*
X101464285Y-105310714D01*
X101964285Y-104953571D02*
X102535714Y-104953571D01*
X102178571Y-104453571D02*
X102178571Y-105739285D01*
X102250000Y-105882142D01*
X102392857Y-105953571D01*
X102535714Y-105953571D01*
X103250000Y-105953571D02*
X103107142Y-105882142D01*
X103035714Y-105810714D01*
X102964285Y-105667857D01*
X102964285Y-105239285D01*
X103035714Y-105096428D01*
X103107142Y-105025000D01*
X103250000Y-104953571D01*
X103464285Y-104953571D01*
X103607142Y-105025000D01*
X103678571Y-105096428D01*
X103750000Y-105239285D01*
X103750000Y-105667857D01*
X103678571Y-105810714D01*
X103607142Y-105882142D01*
X103464285Y-105953571D01*
X103250000Y-105953571D01*
X104392857Y-105953571D02*
X104392857Y-104953571D01*
X104392857Y-105239285D02*
X104464285Y-105096428D01*
X104535714Y-105025000D01*
X104678571Y-104953571D01*
X104821428Y-104953571D01*
D12*
G04 #@! TO.C,D8*
X61700000Y-123200000D02*
X61700000Y-140000000D01*
X78600000Y-123200000D02*
X61700000Y-123200000D01*
X78500000Y-138000000D02*
X78600000Y-123200000D01*
X76500000Y-140000000D02*
X78500000Y-138000000D01*
X61700000Y-140000000D02*
X76500000Y-140000000D01*
G04 #@! TO.C,C1*
X74270000Y-143570000D02*
X69730000Y-143570000D01*
X74270000Y-141430000D02*
X69730000Y-141430000D01*
X74270000Y-143570000D02*
X74270000Y-143555000D01*
X74270000Y-141445000D02*
X74270000Y-141430000D01*
X69730000Y-143570000D02*
X69730000Y-143555000D01*
X69730000Y-141445000D02*
X69730000Y-141430000D01*
G04 #@! TO.C,C2*
X106165000Y-148299337D02*
X108365000Y-148299337D01*
X107265000Y-149399337D02*
X107265000Y-147199337D01*
X113460000Y-126380000D02*
X113540000Y-126380000D01*
X112597000Y-126420000D02*
X114403000Y-126420000D01*
X112208000Y-126460000D02*
X114792000Y-126460000D01*
X111910000Y-126500000D02*
X115090000Y-126500000D01*
X111660000Y-126540000D02*
X115340000Y-126540000D01*
X111440000Y-126580000D02*
X115560000Y-126580000D01*
X111242000Y-126620000D02*
X115758000Y-126620000D01*
X111060000Y-126660000D02*
X115940000Y-126660000D01*
X110891000Y-126700000D02*
X116109000Y-126700000D01*
X110733000Y-126740000D02*
X116267000Y-126740000D01*
X110584000Y-126780000D02*
X116416000Y-126780000D01*
X110442000Y-126820000D02*
X116558000Y-126820000D01*
X110308000Y-126860000D02*
X116692000Y-126860000D01*
X110179000Y-126900000D02*
X116821000Y-126900000D01*
X110055000Y-126940000D02*
X116945000Y-126940000D01*
X109936000Y-126980000D02*
X117064000Y-126980000D01*
X109821000Y-127020000D02*
X117179000Y-127020000D01*
X109711000Y-127060000D02*
X117289000Y-127060000D01*
X109603000Y-127100000D02*
X117397000Y-127100000D01*
X109499000Y-127140000D02*
X117501000Y-127140000D01*
X109398000Y-127180000D02*
X117602000Y-127180000D01*
X109300000Y-127220000D02*
X117700000Y-127220000D01*
X109204000Y-127260000D02*
X117796000Y-127260000D01*
X109111000Y-127300000D02*
X117889000Y-127300000D01*
X109020000Y-127340000D02*
X117980000Y-127340000D01*
X108931000Y-127380000D02*
X118069000Y-127380000D01*
X108844000Y-127420000D02*
X118156000Y-127420000D01*
X108759000Y-127460000D02*
X118241000Y-127460000D01*
X108676000Y-127500000D02*
X118324000Y-127500000D01*
X108595000Y-127540000D02*
X118405000Y-127540000D01*
X108515000Y-127580000D02*
X118485000Y-127580000D01*
X108437000Y-127620000D02*
X118563000Y-127620000D01*
X108360000Y-127660000D02*
X118640000Y-127660000D01*
X108285000Y-127700000D02*
X118715000Y-127700000D01*
X108211000Y-127740000D02*
X118789000Y-127740000D01*
X108138000Y-127780000D02*
X118862000Y-127780000D01*
X108067000Y-127820000D02*
X118933000Y-127820000D01*
X107997000Y-127860000D02*
X119003000Y-127860000D01*
X107928000Y-127900000D02*
X119072000Y-127900000D01*
X107860000Y-127940000D02*
X119140000Y-127940000D01*
X107793000Y-127980000D02*
X119207000Y-127980000D01*
X107727000Y-128020000D02*
X119273000Y-128020000D01*
X107662000Y-128060000D02*
X119338000Y-128060000D01*
X107599000Y-128100000D02*
X119401000Y-128100000D01*
X107536000Y-128140000D02*
X119464000Y-128140000D01*
X107474000Y-128180000D02*
X119526000Y-128180000D01*
X107413000Y-128220000D02*
X119587000Y-128220000D01*
X107353000Y-128260000D02*
X119647000Y-128260000D01*
X107293000Y-128300000D02*
X119707000Y-128300000D01*
X107235000Y-128340000D02*
X119765000Y-128340000D01*
X107177000Y-128380000D02*
X119823000Y-128380000D01*
X107120000Y-128420000D02*
X119880000Y-128420000D01*
X107064000Y-128460000D02*
X119936000Y-128460000D01*
X107008000Y-128500000D02*
X119992000Y-128500000D01*
X106954000Y-128540000D02*
X120046000Y-128540000D01*
X106900000Y-128580000D02*
X120100000Y-128580000D01*
X106846000Y-128620000D02*
X120154000Y-128620000D01*
X106793000Y-128660000D02*
X120207000Y-128660000D01*
X106741000Y-128700000D02*
X120259000Y-128700000D01*
X106690000Y-128740000D02*
X120310000Y-128740000D01*
X106639000Y-128780000D02*
X120361000Y-128780000D01*
X106589000Y-128820000D02*
X120411000Y-128820000D01*
X106539000Y-128860000D02*
X120461000Y-128860000D01*
X106490000Y-128900000D02*
X120510000Y-128900000D01*
X106442000Y-128940000D02*
X120558000Y-128940000D01*
X106394000Y-128980000D02*
X120606000Y-128980000D01*
X106346000Y-129020000D02*
X120654000Y-129020000D01*
X106299000Y-129060000D02*
X120701000Y-129060000D01*
X106253000Y-129100000D02*
X120747000Y-129100000D01*
X106207000Y-129140000D02*
X120793000Y-129140000D01*
X106162000Y-129180000D02*
X120838000Y-129180000D01*
X106117000Y-129220000D02*
X120883000Y-129220000D01*
X106072000Y-129260000D02*
X120928000Y-129260000D01*
X106029000Y-129300000D02*
X120971000Y-129300000D01*
X105985000Y-129339000D02*
X121015000Y-129339000D01*
X105942000Y-129379000D02*
X121058000Y-129379000D01*
X105900000Y-129419000D02*
X121100000Y-129419000D01*
X105858000Y-129459000D02*
X121142000Y-129459000D01*
X105816000Y-129499000D02*
X121184000Y-129499000D01*
X105775000Y-129539000D02*
X121225000Y-129539000D01*
X105734000Y-129579000D02*
X121266000Y-129579000D01*
X105693000Y-129619000D02*
X121307000Y-129619000D01*
X105654000Y-129659000D02*
X121346000Y-129659000D01*
X105614000Y-129699000D02*
X121386000Y-129699000D01*
X105575000Y-129739000D02*
X121425000Y-129739000D01*
X105536000Y-129779000D02*
X121464000Y-129779000D01*
X105498000Y-129819000D02*
X121502000Y-129819000D01*
X105460000Y-129859000D02*
X121540000Y-129859000D01*
X105422000Y-129899000D02*
X121578000Y-129899000D01*
X105385000Y-129939000D02*
X121615000Y-129939000D01*
X105348000Y-129979000D02*
X121652000Y-129979000D01*
X105311000Y-130019000D02*
X121689000Y-130019000D01*
X105275000Y-130059000D02*
X121725000Y-130059000D01*
X105239000Y-130099000D02*
X121761000Y-130099000D01*
X105204000Y-130139000D02*
X121796000Y-130139000D01*
X105169000Y-130179000D02*
X121831000Y-130179000D01*
X105134000Y-130219000D02*
X121866000Y-130219000D01*
X105099000Y-130259000D02*
X121901000Y-130259000D01*
X115740000Y-130299000D02*
X121935000Y-130299000D01*
X105065000Y-130299000D02*
X111260000Y-130299000D01*
X115740000Y-130339000D02*
X121969000Y-130339000D01*
X105031000Y-130339000D02*
X111260000Y-130339000D01*
X115740000Y-130379000D02*
X122002000Y-130379000D01*
X104998000Y-130379000D02*
X111260000Y-130379000D01*
X115740000Y-130419000D02*
X122035000Y-130419000D01*
X104965000Y-130419000D02*
X111260000Y-130419000D01*
X115740000Y-130459000D02*
X122068000Y-130459000D01*
X104932000Y-130459000D02*
X111260000Y-130459000D01*
X115740000Y-130499000D02*
X122101000Y-130499000D01*
X104899000Y-130499000D02*
X111260000Y-130499000D01*
X115740000Y-130539000D02*
X122133000Y-130539000D01*
X104867000Y-130539000D02*
X111260000Y-130539000D01*
X115740000Y-130579000D02*
X122165000Y-130579000D01*
X104835000Y-130579000D02*
X111260000Y-130579000D01*
X115740000Y-130619000D02*
X122197000Y-130619000D01*
X104803000Y-130619000D02*
X111260000Y-130619000D01*
X115740000Y-130659000D02*
X122228000Y-130659000D01*
X104772000Y-130659000D02*
X111260000Y-130659000D01*
X115740000Y-130699000D02*
X122259000Y-130699000D01*
X104741000Y-130699000D02*
X111260000Y-130699000D01*
X115740000Y-130739000D02*
X122290000Y-130739000D01*
X104710000Y-130739000D02*
X111260000Y-130739000D01*
X115740000Y-130779000D02*
X122320000Y-130779000D01*
X104680000Y-130779000D02*
X111260000Y-130779000D01*
X115740000Y-130819000D02*
X122350000Y-130819000D01*
X104650000Y-130819000D02*
X111260000Y-130819000D01*
X115740000Y-130859000D02*
X122380000Y-130859000D01*
X104620000Y-130859000D02*
X111260000Y-130859000D01*
X115740000Y-130899000D02*
X122410000Y-130899000D01*
X104590000Y-130899000D02*
X111260000Y-130899000D01*
X115740000Y-130939000D02*
X122439000Y-130939000D01*
X104561000Y-130939000D02*
X111260000Y-130939000D01*
X115740000Y-130979000D02*
X122468000Y-130979000D01*
X104532000Y-130979000D02*
X111260000Y-130979000D01*
X115740000Y-131019000D02*
X122497000Y-131019000D01*
X104503000Y-131019000D02*
X111260000Y-131019000D01*
X115740000Y-131059000D02*
X122526000Y-131059000D01*
X104474000Y-131059000D02*
X111260000Y-131059000D01*
X115740000Y-131099000D02*
X122554000Y-131099000D01*
X104446000Y-131099000D02*
X111260000Y-131099000D01*
X115740000Y-131139000D02*
X122582000Y-131139000D01*
X104418000Y-131139000D02*
X111260000Y-131139000D01*
X115740000Y-131179000D02*
X122610000Y-131179000D01*
X104390000Y-131179000D02*
X111260000Y-131179000D01*
X115740000Y-131219000D02*
X122637000Y-131219000D01*
X104363000Y-131219000D02*
X111260000Y-131219000D01*
X115740000Y-131259000D02*
X122665000Y-131259000D01*
X104335000Y-131259000D02*
X111260000Y-131259000D01*
X115740000Y-131299000D02*
X122692000Y-131299000D01*
X104308000Y-131299000D02*
X111260000Y-131299000D01*
X115740000Y-131339000D02*
X122718000Y-131339000D01*
X104282000Y-131339000D02*
X111260000Y-131339000D01*
X115740000Y-131379000D02*
X122745000Y-131379000D01*
X104255000Y-131379000D02*
X111260000Y-131379000D01*
X115740000Y-131419000D02*
X122771000Y-131419000D01*
X104229000Y-131419000D02*
X111260000Y-131419000D01*
X115740000Y-131459000D02*
X122797000Y-131459000D01*
X104203000Y-131459000D02*
X111260000Y-131459000D01*
X115740000Y-131499000D02*
X122823000Y-131499000D01*
X104177000Y-131499000D02*
X111260000Y-131499000D01*
X115740000Y-131539000D02*
X122848000Y-131539000D01*
X104152000Y-131539000D02*
X111260000Y-131539000D01*
X115740000Y-131579000D02*
X122874000Y-131579000D01*
X104126000Y-131579000D02*
X111260000Y-131579000D01*
X115740000Y-131619000D02*
X122899000Y-131619000D01*
X104101000Y-131619000D02*
X111260000Y-131619000D01*
X115740000Y-131659000D02*
X122924000Y-131659000D01*
X104076000Y-131659000D02*
X111260000Y-131659000D01*
X115740000Y-131699000D02*
X122948000Y-131699000D01*
X104052000Y-131699000D02*
X111260000Y-131699000D01*
X115740000Y-131739000D02*
X122972000Y-131739000D01*
X104028000Y-131739000D02*
X111260000Y-131739000D01*
X115740000Y-131779000D02*
X122997000Y-131779000D01*
X104003000Y-131779000D02*
X111260000Y-131779000D01*
X115740000Y-131819000D02*
X123020000Y-131819000D01*
X103980000Y-131819000D02*
X111260000Y-131819000D01*
X115740000Y-131859000D02*
X123044000Y-131859000D01*
X103956000Y-131859000D02*
X111260000Y-131859000D01*
X115740000Y-131899000D02*
X123067000Y-131899000D01*
X103933000Y-131899000D02*
X111260000Y-131899000D01*
X115740000Y-131939000D02*
X123091000Y-131939000D01*
X103909000Y-131939000D02*
X111260000Y-131939000D01*
X115740000Y-131979000D02*
X123114000Y-131979000D01*
X103886000Y-131979000D02*
X111260000Y-131979000D01*
X115740000Y-132019000D02*
X123136000Y-132019000D01*
X103864000Y-132019000D02*
X111260000Y-132019000D01*
X115740000Y-132059000D02*
X123159000Y-132059000D01*
X103841000Y-132059000D02*
X111260000Y-132059000D01*
X115740000Y-132099000D02*
X123181000Y-132099000D01*
X103819000Y-132099000D02*
X111260000Y-132099000D01*
X115740000Y-132139000D02*
X123203000Y-132139000D01*
X103797000Y-132139000D02*
X111260000Y-132139000D01*
X115740000Y-132179000D02*
X123225000Y-132179000D01*
X103775000Y-132179000D02*
X111260000Y-132179000D01*
X115740000Y-132219000D02*
X123247000Y-132219000D01*
X103753000Y-132219000D02*
X111260000Y-132219000D01*
X115740000Y-132259000D02*
X123268000Y-132259000D01*
X103732000Y-132259000D02*
X111260000Y-132259000D01*
X115740000Y-132299000D02*
X123290000Y-132299000D01*
X103710000Y-132299000D02*
X111260000Y-132299000D01*
X115740000Y-132339000D02*
X123311000Y-132339000D01*
X103689000Y-132339000D02*
X111260000Y-132339000D01*
X115740000Y-132379000D02*
X123332000Y-132379000D01*
X103668000Y-132379000D02*
X111260000Y-132379000D01*
X115740000Y-132419000D02*
X123352000Y-132419000D01*
X103648000Y-132419000D02*
X111260000Y-132419000D01*
X115740000Y-132459000D02*
X123373000Y-132459000D01*
X103627000Y-132459000D02*
X111260000Y-132459000D01*
X115740000Y-132499000D02*
X123393000Y-132499000D01*
X103607000Y-132499000D02*
X111260000Y-132499000D01*
X115740000Y-132539000D02*
X123413000Y-132539000D01*
X103587000Y-132539000D02*
X111260000Y-132539000D01*
X115740000Y-132579000D02*
X123433000Y-132579000D01*
X103567000Y-132579000D02*
X111260000Y-132579000D01*
X115740000Y-132619000D02*
X123452000Y-132619000D01*
X103548000Y-132619000D02*
X111260000Y-132619000D01*
X115740000Y-132659000D02*
X123472000Y-132659000D01*
X103528000Y-132659000D02*
X111260000Y-132659000D01*
X115740000Y-132699000D02*
X123491000Y-132699000D01*
X103509000Y-132699000D02*
X111260000Y-132699000D01*
X115740000Y-132739000D02*
X123510000Y-132739000D01*
X103490000Y-132739000D02*
X111260000Y-132739000D01*
X115740000Y-132779000D02*
X123529000Y-132779000D01*
X103471000Y-132779000D02*
X111260000Y-132779000D01*
X115740000Y-132819000D02*
X123548000Y-132819000D01*
X103452000Y-132819000D02*
X111260000Y-132819000D01*
X115740000Y-132859000D02*
X123566000Y-132859000D01*
X103434000Y-132859000D02*
X111260000Y-132859000D01*
X115740000Y-132899000D02*
X123584000Y-132899000D01*
X103416000Y-132899000D02*
X111260000Y-132899000D01*
X115740000Y-132939000D02*
X123603000Y-132939000D01*
X103397000Y-132939000D02*
X111260000Y-132939000D01*
X115740000Y-132979000D02*
X123620000Y-132979000D01*
X103380000Y-132979000D02*
X111260000Y-132979000D01*
X115740000Y-133019000D02*
X123638000Y-133019000D01*
X103362000Y-133019000D02*
X111260000Y-133019000D01*
X115740000Y-133059000D02*
X123656000Y-133059000D01*
X103344000Y-133059000D02*
X111260000Y-133059000D01*
X115740000Y-133099000D02*
X123673000Y-133099000D01*
X103327000Y-133099000D02*
X111260000Y-133099000D01*
X115740000Y-133139000D02*
X123690000Y-133139000D01*
X103310000Y-133139000D02*
X111260000Y-133139000D01*
X115740000Y-133179000D02*
X123707000Y-133179000D01*
X103293000Y-133179000D02*
X111260000Y-133179000D01*
X115740000Y-133219000D02*
X123724000Y-133219000D01*
X103276000Y-133219000D02*
X111260000Y-133219000D01*
X115740000Y-133259000D02*
X123740000Y-133259000D01*
X103260000Y-133259000D02*
X111260000Y-133259000D01*
X115740000Y-133299000D02*
X123757000Y-133299000D01*
X103243000Y-133299000D02*
X111260000Y-133299000D01*
X115740000Y-133339000D02*
X123773000Y-133339000D01*
X103227000Y-133339000D02*
X111260000Y-133339000D01*
X115740000Y-133379000D02*
X123789000Y-133379000D01*
X103211000Y-133379000D02*
X111260000Y-133379000D01*
X115740000Y-133419000D02*
X123805000Y-133419000D01*
X103195000Y-133419000D02*
X111260000Y-133419000D01*
X115740000Y-133459000D02*
X123821000Y-133459000D01*
X103179000Y-133459000D02*
X111260000Y-133459000D01*
X115740000Y-133499000D02*
X123836000Y-133499000D01*
X103164000Y-133499000D02*
X111260000Y-133499000D01*
X115740000Y-133539000D02*
X123851000Y-133539000D01*
X103149000Y-133539000D02*
X111260000Y-133539000D01*
X115740000Y-133579000D02*
X123867000Y-133579000D01*
X103133000Y-133579000D02*
X111260000Y-133579000D01*
X115740000Y-133619000D02*
X123882000Y-133619000D01*
X103118000Y-133619000D02*
X111260000Y-133619000D01*
X115740000Y-133659000D02*
X123896000Y-133659000D01*
X103104000Y-133659000D02*
X111260000Y-133659000D01*
X115740000Y-133699000D02*
X123911000Y-133699000D01*
X103089000Y-133699000D02*
X111260000Y-133699000D01*
X115740000Y-133739000D02*
X123926000Y-133739000D01*
X103074000Y-133739000D02*
X111260000Y-133739000D01*
X115740000Y-133779000D02*
X123940000Y-133779000D01*
X103060000Y-133779000D02*
X111260000Y-133779000D01*
X115740000Y-133819000D02*
X123954000Y-133819000D01*
X103046000Y-133819000D02*
X111260000Y-133819000D01*
X115740000Y-133859000D02*
X123968000Y-133859000D01*
X103032000Y-133859000D02*
X111260000Y-133859000D01*
X115740000Y-133899000D02*
X123982000Y-133899000D01*
X103018000Y-133899000D02*
X111260000Y-133899000D01*
X115740000Y-133939000D02*
X123995000Y-133939000D01*
X103005000Y-133939000D02*
X111260000Y-133939000D01*
X115740000Y-133979000D02*
X124009000Y-133979000D01*
X102991000Y-133979000D02*
X111260000Y-133979000D01*
X115740000Y-134019000D02*
X124022000Y-134019000D01*
X102978000Y-134019000D02*
X111260000Y-134019000D01*
X115740000Y-134059000D02*
X124035000Y-134059000D01*
X102965000Y-134059000D02*
X111260000Y-134059000D01*
X115740000Y-134099000D02*
X124048000Y-134099000D01*
X102952000Y-134099000D02*
X111260000Y-134099000D01*
X115740000Y-134139000D02*
X124061000Y-134139000D01*
X102939000Y-134139000D02*
X111260000Y-134139000D01*
X115740000Y-134179000D02*
X124073000Y-134179000D01*
X102927000Y-134179000D02*
X111260000Y-134179000D01*
X115740000Y-134219000D02*
X124086000Y-134219000D01*
X102914000Y-134219000D02*
X111260000Y-134219000D01*
X115740000Y-134259000D02*
X124098000Y-134259000D01*
X102902000Y-134259000D02*
X111260000Y-134259000D01*
X115740000Y-134299000D02*
X124110000Y-134299000D01*
X102890000Y-134299000D02*
X111260000Y-134299000D01*
X115740000Y-134339000D02*
X124122000Y-134339000D01*
X102878000Y-134339000D02*
X111260000Y-134339000D01*
X115740000Y-134379000D02*
X124134000Y-134379000D01*
X102866000Y-134379000D02*
X111260000Y-134379000D01*
X115740000Y-134419000D02*
X124145000Y-134419000D01*
X102855000Y-134419000D02*
X111260000Y-134419000D01*
X115740000Y-134459000D02*
X124157000Y-134459000D01*
X102843000Y-134459000D02*
X111260000Y-134459000D01*
X115740000Y-134499000D02*
X124168000Y-134499000D01*
X102832000Y-134499000D02*
X111260000Y-134499000D01*
X115740000Y-134539000D02*
X124179000Y-134539000D01*
X102821000Y-134539000D02*
X111260000Y-134539000D01*
X115740000Y-134579000D02*
X124190000Y-134579000D01*
X102810000Y-134579000D02*
X111260000Y-134579000D01*
X115740000Y-134619000D02*
X124201000Y-134619000D01*
X102799000Y-134619000D02*
X111260000Y-134619000D01*
X115740000Y-134659000D02*
X124212000Y-134659000D01*
X102788000Y-134659000D02*
X111260000Y-134659000D01*
X115740000Y-134699000D02*
X124222000Y-134699000D01*
X102778000Y-134699000D02*
X111260000Y-134699000D01*
X115740000Y-134739000D02*
X124233000Y-134739000D01*
X102767000Y-134739000D02*
X111260000Y-134739000D01*
X102757000Y-134779000D02*
X124243000Y-134779000D01*
X102747000Y-134819000D02*
X124253000Y-134819000D01*
X102737000Y-134859000D02*
X124263000Y-134859000D01*
X102728000Y-134899000D02*
X124272000Y-134899000D01*
X102718000Y-134939000D02*
X124282000Y-134939000D01*
X102709000Y-134979000D02*
X124291000Y-134979000D01*
X102700000Y-135019000D02*
X124300000Y-135019000D01*
X102691000Y-135059000D02*
X124309000Y-135059000D01*
X102682000Y-135099000D02*
X124318000Y-135099000D01*
X102673000Y-135139000D02*
X124327000Y-135139000D01*
X102664000Y-135179000D02*
X124336000Y-135179000D01*
X102656000Y-135219000D02*
X124344000Y-135219000D01*
X102647000Y-135259000D02*
X124353000Y-135259000D01*
X102639000Y-135299000D02*
X124361000Y-135299000D01*
X102631000Y-135339000D02*
X124369000Y-135339000D01*
X102623000Y-135379000D02*
X124377000Y-135379000D01*
X102616000Y-135419000D02*
X124384000Y-135419000D01*
X102608000Y-135459000D02*
X124392000Y-135459000D01*
X102601000Y-135499000D02*
X124399000Y-135499000D01*
X102594000Y-135539000D02*
X124406000Y-135539000D01*
X102587000Y-135579000D02*
X124413000Y-135579000D01*
X102580000Y-135619000D02*
X124420000Y-135619000D01*
X102573000Y-135659000D02*
X124427000Y-135659000D01*
X102566000Y-135699000D02*
X124434000Y-135699000D01*
X102560000Y-135739000D02*
X124440000Y-135739000D01*
X102553000Y-135779000D02*
X124447000Y-135779000D01*
X102547000Y-135819000D02*
X124453000Y-135819000D01*
X102541000Y-135859000D02*
X124459000Y-135859000D01*
X102535000Y-135899000D02*
X124465000Y-135899000D01*
X102529000Y-135939000D02*
X124471000Y-135939000D01*
X102524000Y-135979000D02*
X124476000Y-135979000D01*
X102518000Y-136019000D02*
X124482000Y-136019000D01*
X102513000Y-136059000D02*
X124487000Y-136059000D01*
X102508000Y-136099000D02*
X124492000Y-136099000D01*
X102503000Y-136139000D02*
X124497000Y-136139000D01*
X102498000Y-136179000D02*
X124502000Y-136179000D01*
X102493000Y-136219000D02*
X124507000Y-136219000D01*
X102489000Y-136259000D02*
X124511000Y-136259000D01*
X102484000Y-136299000D02*
X124516000Y-136299000D01*
X102480000Y-136339000D02*
X124520000Y-136339000D01*
X102476000Y-136379000D02*
X124524000Y-136379000D01*
X102472000Y-136419000D02*
X124528000Y-136419000D01*
X102468000Y-136459000D02*
X124532000Y-136459000D01*
X102465000Y-136499000D02*
X124535000Y-136499000D01*
X102461000Y-136539000D02*
X124539000Y-136539000D01*
X102458000Y-136579000D02*
X124542000Y-136579000D01*
X102454000Y-136619000D02*
X124546000Y-136619000D01*
X102451000Y-136659000D02*
X124549000Y-136659000D01*
X102448000Y-136699000D02*
X124552000Y-136699000D01*
X102446000Y-136739000D02*
X124554000Y-136739000D01*
X102443000Y-136779000D02*
X124557000Y-136779000D01*
X102440000Y-136820000D02*
X124560000Y-136820000D01*
X102438000Y-136860000D02*
X124562000Y-136860000D01*
X102436000Y-136900000D02*
X124564000Y-136900000D01*
X102434000Y-136940000D02*
X124566000Y-136940000D01*
X102432000Y-136980000D02*
X124568000Y-136980000D01*
X102430000Y-137020000D02*
X124570000Y-137020000D01*
X102428000Y-137060000D02*
X124572000Y-137060000D01*
X102427000Y-137100000D02*
X124573000Y-137100000D01*
X102425000Y-137140000D02*
X124575000Y-137140000D01*
X102424000Y-137180000D02*
X124576000Y-137180000D01*
X102423000Y-137220000D02*
X124577000Y-137220000D01*
X102422000Y-137260000D02*
X124578000Y-137260000D01*
X102421000Y-137300000D02*
X124579000Y-137300000D01*
X102421000Y-137340000D02*
X124579000Y-137340000D01*
X102420000Y-137380000D02*
X124580000Y-137380000D01*
X102420000Y-137420000D02*
X124580000Y-137420000D01*
X102420000Y-137460000D02*
X124580000Y-137460000D01*
X102419000Y-137500000D02*
X124581000Y-137500000D01*
X124620000Y-137500000D02*
G75*
G03X124620000Y-137500000I-11120000J0D01*
G01*
G04 #@! TO.C,C3*
X101620000Y-137500000D02*
G75*
G03X101620000Y-137500000I-11120000J0D01*
G01*
X79419000Y-137500000D02*
X101581000Y-137500000D01*
X79420000Y-137460000D02*
X101580000Y-137460000D01*
X79420000Y-137420000D02*
X101580000Y-137420000D01*
X79420000Y-137380000D02*
X101580000Y-137380000D01*
X79421000Y-137340000D02*
X101579000Y-137340000D01*
X79421000Y-137300000D02*
X101579000Y-137300000D01*
X79422000Y-137260000D02*
X101578000Y-137260000D01*
X79423000Y-137220000D02*
X101577000Y-137220000D01*
X79424000Y-137180000D02*
X101576000Y-137180000D01*
X79425000Y-137140000D02*
X101575000Y-137140000D01*
X79427000Y-137100000D02*
X101573000Y-137100000D01*
X79428000Y-137060000D02*
X101572000Y-137060000D01*
X79430000Y-137020000D02*
X101570000Y-137020000D01*
X79432000Y-136980000D02*
X101568000Y-136980000D01*
X79434000Y-136940000D02*
X101566000Y-136940000D01*
X79436000Y-136900000D02*
X101564000Y-136900000D01*
X79438000Y-136860000D02*
X101562000Y-136860000D01*
X79440000Y-136820000D02*
X101560000Y-136820000D01*
X79443000Y-136779000D02*
X101557000Y-136779000D01*
X79446000Y-136739000D02*
X101554000Y-136739000D01*
X79448000Y-136699000D02*
X101552000Y-136699000D01*
X79451000Y-136659000D02*
X101549000Y-136659000D01*
X79454000Y-136619000D02*
X101546000Y-136619000D01*
X79458000Y-136579000D02*
X101542000Y-136579000D01*
X79461000Y-136539000D02*
X101539000Y-136539000D01*
X79465000Y-136499000D02*
X101535000Y-136499000D01*
X79468000Y-136459000D02*
X101532000Y-136459000D01*
X79472000Y-136419000D02*
X101528000Y-136419000D01*
X79476000Y-136379000D02*
X101524000Y-136379000D01*
X79480000Y-136339000D02*
X101520000Y-136339000D01*
X79484000Y-136299000D02*
X101516000Y-136299000D01*
X79489000Y-136259000D02*
X101511000Y-136259000D01*
X79493000Y-136219000D02*
X101507000Y-136219000D01*
X79498000Y-136179000D02*
X101502000Y-136179000D01*
X79503000Y-136139000D02*
X101497000Y-136139000D01*
X79508000Y-136099000D02*
X101492000Y-136099000D01*
X79513000Y-136059000D02*
X101487000Y-136059000D01*
X79518000Y-136019000D02*
X101482000Y-136019000D01*
X79524000Y-135979000D02*
X101476000Y-135979000D01*
X79529000Y-135939000D02*
X101471000Y-135939000D01*
X79535000Y-135899000D02*
X101465000Y-135899000D01*
X79541000Y-135859000D02*
X101459000Y-135859000D01*
X79547000Y-135819000D02*
X101453000Y-135819000D01*
X79553000Y-135779000D02*
X101447000Y-135779000D01*
X79560000Y-135739000D02*
X101440000Y-135739000D01*
X79566000Y-135699000D02*
X101434000Y-135699000D01*
X79573000Y-135659000D02*
X101427000Y-135659000D01*
X79580000Y-135619000D02*
X101420000Y-135619000D01*
X79587000Y-135579000D02*
X101413000Y-135579000D01*
X79594000Y-135539000D02*
X101406000Y-135539000D01*
X79601000Y-135499000D02*
X101399000Y-135499000D01*
X79608000Y-135459000D02*
X101392000Y-135459000D01*
X79616000Y-135419000D02*
X101384000Y-135419000D01*
X79623000Y-135379000D02*
X101377000Y-135379000D01*
X79631000Y-135339000D02*
X101369000Y-135339000D01*
X79639000Y-135299000D02*
X101361000Y-135299000D01*
X79647000Y-135259000D02*
X101353000Y-135259000D01*
X79656000Y-135219000D02*
X101344000Y-135219000D01*
X79664000Y-135179000D02*
X101336000Y-135179000D01*
X79673000Y-135139000D02*
X101327000Y-135139000D01*
X79682000Y-135099000D02*
X101318000Y-135099000D01*
X79691000Y-135059000D02*
X101309000Y-135059000D01*
X79700000Y-135019000D02*
X101300000Y-135019000D01*
X79709000Y-134979000D02*
X101291000Y-134979000D01*
X79718000Y-134939000D02*
X101282000Y-134939000D01*
X79728000Y-134899000D02*
X101272000Y-134899000D01*
X79737000Y-134859000D02*
X101263000Y-134859000D01*
X79747000Y-134819000D02*
X101253000Y-134819000D01*
X79757000Y-134779000D02*
X101243000Y-134779000D01*
X79767000Y-134739000D02*
X88260000Y-134739000D01*
X92740000Y-134739000D02*
X101233000Y-134739000D01*
X79778000Y-134699000D02*
X88260000Y-134699000D01*
X92740000Y-134699000D02*
X101222000Y-134699000D01*
X79788000Y-134659000D02*
X88260000Y-134659000D01*
X92740000Y-134659000D02*
X101212000Y-134659000D01*
X79799000Y-134619000D02*
X88260000Y-134619000D01*
X92740000Y-134619000D02*
X101201000Y-134619000D01*
X79810000Y-134579000D02*
X88260000Y-134579000D01*
X92740000Y-134579000D02*
X101190000Y-134579000D01*
X79821000Y-134539000D02*
X88260000Y-134539000D01*
X92740000Y-134539000D02*
X101179000Y-134539000D01*
X79832000Y-134499000D02*
X88260000Y-134499000D01*
X92740000Y-134499000D02*
X101168000Y-134499000D01*
X79843000Y-134459000D02*
X88260000Y-134459000D01*
X92740000Y-134459000D02*
X101157000Y-134459000D01*
X79855000Y-134419000D02*
X88260000Y-134419000D01*
X92740000Y-134419000D02*
X101145000Y-134419000D01*
X79866000Y-134379000D02*
X88260000Y-134379000D01*
X92740000Y-134379000D02*
X101134000Y-134379000D01*
X79878000Y-134339000D02*
X88260000Y-134339000D01*
X92740000Y-134339000D02*
X101122000Y-134339000D01*
X79890000Y-134299000D02*
X88260000Y-134299000D01*
X92740000Y-134299000D02*
X101110000Y-134299000D01*
X79902000Y-134259000D02*
X88260000Y-134259000D01*
X92740000Y-134259000D02*
X101098000Y-134259000D01*
X79914000Y-134219000D02*
X88260000Y-134219000D01*
X92740000Y-134219000D02*
X101086000Y-134219000D01*
X79927000Y-134179000D02*
X88260000Y-134179000D01*
X92740000Y-134179000D02*
X101073000Y-134179000D01*
X79939000Y-134139000D02*
X88260000Y-134139000D01*
X92740000Y-134139000D02*
X101061000Y-134139000D01*
X79952000Y-134099000D02*
X88260000Y-134099000D01*
X92740000Y-134099000D02*
X101048000Y-134099000D01*
X79965000Y-134059000D02*
X88260000Y-134059000D01*
X92740000Y-134059000D02*
X101035000Y-134059000D01*
X79978000Y-134019000D02*
X88260000Y-134019000D01*
X92740000Y-134019000D02*
X101022000Y-134019000D01*
X79991000Y-133979000D02*
X88260000Y-133979000D01*
X92740000Y-133979000D02*
X101009000Y-133979000D01*
X80005000Y-133939000D02*
X88260000Y-133939000D01*
X92740000Y-133939000D02*
X100995000Y-133939000D01*
X80018000Y-133899000D02*
X88260000Y-133899000D01*
X92740000Y-133899000D02*
X100982000Y-133899000D01*
X80032000Y-133859000D02*
X88260000Y-133859000D01*
X92740000Y-133859000D02*
X100968000Y-133859000D01*
X80046000Y-133819000D02*
X88260000Y-133819000D01*
X92740000Y-133819000D02*
X100954000Y-133819000D01*
X80060000Y-133779000D02*
X88260000Y-133779000D01*
X92740000Y-133779000D02*
X100940000Y-133779000D01*
X80074000Y-133739000D02*
X88260000Y-133739000D01*
X92740000Y-133739000D02*
X100926000Y-133739000D01*
X80089000Y-133699000D02*
X88260000Y-133699000D01*
X92740000Y-133699000D02*
X100911000Y-133699000D01*
X80104000Y-133659000D02*
X88260000Y-133659000D01*
X92740000Y-133659000D02*
X100896000Y-133659000D01*
X80118000Y-133619000D02*
X88260000Y-133619000D01*
X92740000Y-133619000D02*
X100882000Y-133619000D01*
X80133000Y-133579000D02*
X88260000Y-133579000D01*
X92740000Y-133579000D02*
X100867000Y-133579000D01*
X80149000Y-133539000D02*
X88260000Y-133539000D01*
X92740000Y-133539000D02*
X100851000Y-133539000D01*
X80164000Y-133499000D02*
X88260000Y-133499000D01*
X92740000Y-133499000D02*
X100836000Y-133499000D01*
X80179000Y-133459000D02*
X88260000Y-133459000D01*
X92740000Y-133459000D02*
X100821000Y-133459000D01*
X80195000Y-133419000D02*
X88260000Y-133419000D01*
X92740000Y-133419000D02*
X100805000Y-133419000D01*
X80211000Y-133379000D02*
X88260000Y-133379000D01*
X92740000Y-133379000D02*
X100789000Y-133379000D01*
X80227000Y-133339000D02*
X88260000Y-133339000D01*
X92740000Y-133339000D02*
X100773000Y-133339000D01*
X80243000Y-133299000D02*
X88260000Y-133299000D01*
X92740000Y-133299000D02*
X100757000Y-133299000D01*
X80260000Y-133259000D02*
X88260000Y-133259000D01*
X92740000Y-133259000D02*
X100740000Y-133259000D01*
X80276000Y-133219000D02*
X88260000Y-133219000D01*
X92740000Y-133219000D02*
X100724000Y-133219000D01*
X80293000Y-133179000D02*
X88260000Y-133179000D01*
X92740000Y-133179000D02*
X100707000Y-133179000D01*
X80310000Y-133139000D02*
X88260000Y-133139000D01*
X92740000Y-133139000D02*
X100690000Y-133139000D01*
X80327000Y-133099000D02*
X88260000Y-133099000D01*
X92740000Y-133099000D02*
X100673000Y-133099000D01*
X80344000Y-133059000D02*
X88260000Y-133059000D01*
X92740000Y-133059000D02*
X100656000Y-133059000D01*
X80362000Y-133019000D02*
X88260000Y-133019000D01*
X92740000Y-133019000D02*
X100638000Y-133019000D01*
X80380000Y-132979000D02*
X88260000Y-132979000D01*
X92740000Y-132979000D02*
X100620000Y-132979000D01*
X80397000Y-132939000D02*
X88260000Y-132939000D01*
X92740000Y-132939000D02*
X100603000Y-132939000D01*
X80416000Y-132899000D02*
X88260000Y-132899000D01*
X92740000Y-132899000D02*
X100584000Y-132899000D01*
X80434000Y-132859000D02*
X88260000Y-132859000D01*
X92740000Y-132859000D02*
X100566000Y-132859000D01*
X80452000Y-132819000D02*
X88260000Y-132819000D01*
X92740000Y-132819000D02*
X100548000Y-132819000D01*
X80471000Y-132779000D02*
X88260000Y-132779000D01*
X92740000Y-132779000D02*
X100529000Y-132779000D01*
X80490000Y-132739000D02*
X88260000Y-132739000D01*
X92740000Y-132739000D02*
X100510000Y-132739000D01*
X80509000Y-132699000D02*
X88260000Y-132699000D01*
X92740000Y-132699000D02*
X100491000Y-132699000D01*
X80528000Y-132659000D02*
X88260000Y-132659000D01*
X92740000Y-132659000D02*
X100472000Y-132659000D01*
X80548000Y-132619000D02*
X88260000Y-132619000D01*
X92740000Y-132619000D02*
X100452000Y-132619000D01*
X80567000Y-132579000D02*
X88260000Y-132579000D01*
X92740000Y-132579000D02*
X100433000Y-132579000D01*
X80587000Y-132539000D02*
X88260000Y-132539000D01*
X92740000Y-132539000D02*
X100413000Y-132539000D01*
X80607000Y-132499000D02*
X88260000Y-132499000D01*
X92740000Y-132499000D02*
X100393000Y-132499000D01*
X80627000Y-132459000D02*
X88260000Y-132459000D01*
X92740000Y-132459000D02*
X100373000Y-132459000D01*
X80648000Y-132419000D02*
X88260000Y-132419000D01*
X92740000Y-132419000D02*
X100352000Y-132419000D01*
X80668000Y-132379000D02*
X88260000Y-132379000D01*
X92740000Y-132379000D02*
X100332000Y-132379000D01*
X80689000Y-132339000D02*
X88260000Y-132339000D01*
X92740000Y-132339000D02*
X100311000Y-132339000D01*
X80710000Y-132299000D02*
X88260000Y-132299000D01*
X92740000Y-132299000D02*
X100290000Y-132299000D01*
X80732000Y-132259000D02*
X88260000Y-132259000D01*
X92740000Y-132259000D02*
X100268000Y-132259000D01*
X80753000Y-132219000D02*
X88260000Y-132219000D01*
X92740000Y-132219000D02*
X100247000Y-132219000D01*
X80775000Y-132179000D02*
X88260000Y-132179000D01*
X92740000Y-132179000D02*
X100225000Y-132179000D01*
X80797000Y-132139000D02*
X88260000Y-132139000D01*
X92740000Y-132139000D02*
X100203000Y-132139000D01*
X80819000Y-132099000D02*
X88260000Y-132099000D01*
X92740000Y-132099000D02*
X100181000Y-132099000D01*
X80841000Y-132059000D02*
X88260000Y-132059000D01*
X92740000Y-132059000D02*
X100159000Y-132059000D01*
X80864000Y-132019000D02*
X88260000Y-132019000D01*
X92740000Y-132019000D02*
X100136000Y-132019000D01*
X80886000Y-131979000D02*
X88260000Y-131979000D01*
X92740000Y-131979000D02*
X100114000Y-131979000D01*
X80909000Y-131939000D02*
X88260000Y-131939000D01*
X92740000Y-131939000D02*
X100091000Y-131939000D01*
X80933000Y-131899000D02*
X88260000Y-131899000D01*
X92740000Y-131899000D02*
X100067000Y-131899000D01*
X80956000Y-131859000D02*
X88260000Y-131859000D01*
X92740000Y-131859000D02*
X100044000Y-131859000D01*
X80980000Y-131819000D02*
X88260000Y-131819000D01*
X92740000Y-131819000D02*
X100020000Y-131819000D01*
X81003000Y-131779000D02*
X88260000Y-131779000D01*
X92740000Y-131779000D02*
X99997000Y-131779000D01*
X81028000Y-131739000D02*
X88260000Y-131739000D01*
X92740000Y-131739000D02*
X99972000Y-131739000D01*
X81052000Y-131699000D02*
X88260000Y-131699000D01*
X92740000Y-131699000D02*
X99948000Y-131699000D01*
X81076000Y-131659000D02*
X88260000Y-131659000D01*
X92740000Y-131659000D02*
X99924000Y-131659000D01*
X81101000Y-131619000D02*
X88260000Y-131619000D01*
X92740000Y-131619000D02*
X99899000Y-131619000D01*
X81126000Y-131579000D02*
X88260000Y-131579000D01*
X92740000Y-131579000D02*
X99874000Y-131579000D01*
X81152000Y-131539000D02*
X88260000Y-131539000D01*
X92740000Y-131539000D02*
X99848000Y-131539000D01*
X81177000Y-131499000D02*
X88260000Y-131499000D01*
X92740000Y-131499000D02*
X99823000Y-131499000D01*
X81203000Y-131459000D02*
X88260000Y-131459000D01*
X92740000Y-131459000D02*
X99797000Y-131459000D01*
X81229000Y-131419000D02*
X88260000Y-131419000D01*
X92740000Y-131419000D02*
X99771000Y-131419000D01*
X81255000Y-131379000D02*
X88260000Y-131379000D01*
X92740000Y-131379000D02*
X99745000Y-131379000D01*
X81282000Y-131339000D02*
X88260000Y-131339000D01*
X92740000Y-131339000D02*
X99718000Y-131339000D01*
X81308000Y-131299000D02*
X88260000Y-131299000D01*
X92740000Y-131299000D02*
X99692000Y-131299000D01*
X81335000Y-131259000D02*
X88260000Y-131259000D01*
X92740000Y-131259000D02*
X99665000Y-131259000D01*
X81363000Y-131219000D02*
X88260000Y-131219000D01*
X92740000Y-131219000D02*
X99637000Y-131219000D01*
X81390000Y-131179000D02*
X88260000Y-131179000D01*
X92740000Y-131179000D02*
X99610000Y-131179000D01*
X81418000Y-131139000D02*
X88260000Y-131139000D01*
X92740000Y-131139000D02*
X99582000Y-131139000D01*
X81446000Y-131099000D02*
X88260000Y-131099000D01*
X92740000Y-131099000D02*
X99554000Y-131099000D01*
X81474000Y-131059000D02*
X88260000Y-131059000D01*
X92740000Y-131059000D02*
X99526000Y-131059000D01*
X81503000Y-131019000D02*
X88260000Y-131019000D01*
X92740000Y-131019000D02*
X99497000Y-131019000D01*
X81532000Y-130979000D02*
X88260000Y-130979000D01*
X92740000Y-130979000D02*
X99468000Y-130979000D01*
X81561000Y-130939000D02*
X88260000Y-130939000D01*
X92740000Y-130939000D02*
X99439000Y-130939000D01*
X81590000Y-130899000D02*
X88260000Y-130899000D01*
X92740000Y-130899000D02*
X99410000Y-130899000D01*
X81620000Y-130859000D02*
X88260000Y-130859000D01*
X92740000Y-130859000D02*
X99380000Y-130859000D01*
X81650000Y-130819000D02*
X88260000Y-130819000D01*
X92740000Y-130819000D02*
X99350000Y-130819000D01*
X81680000Y-130779000D02*
X88260000Y-130779000D01*
X92740000Y-130779000D02*
X99320000Y-130779000D01*
X81710000Y-130739000D02*
X88260000Y-130739000D01*
X92740000Y-130739000D02*
X99290000Y-130739000D01*
X81741000Y-130699000D02*
X88260000Y-130699000D01*
X92740000Y-130699000D02*
X99259000Y-130699000D01*
X81772000Y-130659000D02*
X88260000Y-130659000D01*
X92740000Y-130659000D02*
X99228000Y-130659000D01*
X81803000Y-130619000D02*
X88260000Y-130619000D01*
X92740000Y-130619000D02*
X99197000Y-130619000D01*
X81835000Y-130579000D02*
X88260000Y-130579000D01*
X92740000Y-130579000D02*
X99165000Y-130579000D01*
X81867000Y-130539000D02*
X88260000Y-130539000D01*
X92740000Y-130539000D02*
X99133000Y-130539000D01*
X81899000Y-130499000D02*
X88260000Y-130499000D01*
X92740000Y-130499000D02*
X99101000Y-130499000D01*
X81932000Y-130459000D02*
X88260000Y-130459000D01*
X92740000Y-130459000D02*
X99068000Y-130459000D01*
X81965000Y-130419000D02*
X88260000Y-130419000D01*
X92740000Y-130419000D02*
X99035000Y-130419000D01*
X81998000Y-130379000D02*
X88260000Y-130379000D01*
X92740000Y-130379000D02*
X99002000Y-130379000D01*
X82031000Y-130339000D02*
X88260000Y-130339000D01*
X92740000Y-130339000D02*
X98969000Y-130339000D01*
X82065000Y-130299000D02*
X88260000Y-130299000D01*
X92740000Y-130299000D02*
X98935000Y-130299000D01*
X82099000Y-130259000D02*
X98901000Y-130259000D01*
X82134000Y-130219000D02*
X98866000Y-130219000D01*
X82169000Y-130179000D02*
X98831000Y-130179000D01*
X82204000Y-130139000D02*
X98796000Y-130139000D01*
X82239000Y-130099000D02*
X98761000Y-130099000D01*
X82275000Y-130059000D02*
X98725000Y-130059000D01*
X82311000Y-130019000D02*
X98689000Y-130019000D01*
X82348000Y-129979000D02*
X98652000Y-129979000D01*
X82385000Y-129939000D02*
X98615000Y-129939000D01*
X82422000Y-129899000D02*
X98578000Y-129899000D01*
X82460000Y-129859000D02*
X98540000Y-129859000D01*
X82498000Y-129819000D02*
X98502000Y-129819000D01*
X82536000Y-129779000D02*
X98464000Y-129779000D01*
X82575000Y-129739000D02*
X98425000Y-129739000D01*
X82614000Y-129699000D02*
X98386000Y-129699000D01*
X82654000Y-129659000D02*
X98346000Y-129659000D01*
X82693000Y-129619000D02*
X98307000Y-129619000D01*
X82734000Y-129579000D02*
X98266000Y-129579000D01*
X82775000Y-129539000D02*
X98225000Y-129539000D01*
X82816000Y-129499000D02*
X98184000Y-129499000D01*
X82858000Y-129459000D02*
X98142000Y-129459000D01*
X82900000Y-129419000D02*
X98100000Y-129419000D01*
X82942000Y-129379000D02*
X98058000Y-129379000D01*
X82985000Y-129339000D02*
X98015000Y-129339000D01*
X83029000Y-129300000D02*
X97971000Y-129300000D01*
X83072000Y-129260000D02*
X97928000Y-129260000D01*
X83117000Y-129220000D02*
X97883000Y-129220000D01*
X83162000Y-129180000D02*
X97838000Y-129180000D01*
X83207000Y-129140000D02*
X97793000Y-129140000D01*
X83253000Y-129100000D02*
X97747000Y-129100000D01*
X83299000Y-129060000D02*
X97701000Y-129060000D01*
X83346000Y-129020000D02*
X97654000Y-129020000D01*
X83394000Y-128980000D02*
X97606000Y-128980000D01*
X83442000Y-128940000D02*
X97558000Y-128940000D01*
X83490000Y-128900000D02*
X97510000Y-128900000D01*
X83539000Y-128860000D02*
X97461000Y-128860000D01*
X83589000Y-128820000D02*
X97411000Y-128820000D01*
X83639000Y-128780000D02*
X97361000Y-128780000D01*
X83690000Y-128740000D02*
X97310000Y-128740000D01*
X83741000Y-128700000D02*
X97259000Y-128700000D01*
X83793000Y-128660000D02*
X97207000Y-128660000D01*
X83846000Y-128620000D02*
X97154000Y-128620000D01*
X83900000Y-128580000D02*
X97100000Y-128580000D01*
X83954000Y-128540000D02*
X97046000Y-128540000D01*
X84008000Y-128500000D02*
X96992000Y-128500000D01*
X84064000Y-128460000D02*
X96936000Y-128460000D01*
X84120000Y-128420000D02*
X96880000Y-128420000D01*
X84177000Y-128380000D02*
X96823000Y-128380000D01*
X84235000Y-128340000D02*
X96765000Y-128340000D01*
X84293000Y-128300000D02*
X96707000Y-128300000D01*
X84353000Y-128260000D02*
X96647000Y-128260000D01*
X84413000Y-128220000D02*
X96587000Y-128220000D01*
X84474000Y-128180000D02*
X96526000Y-128180000D01*
X84536000Y-128140000D02*
X96464000Y-128140000D01*
X84599000Y-128100000D02*
X96401000Y-128100000D01*
X84662000Y-128060000D02*
X96338000Y-128060000D01*
X84727000Y-128020000D02*
X96273000Y-128020000D01*
X84793000Y-127980000D02*
X96207000Y-127980000D01*
X84860000Y-127940000D02*
X96140000Y-127940000D01*
X84928000Y-127900000D02*
X96072000Y-127900000D01*
X84997000Y-127860000D02*
X96003000Y-127860000D01*
X85067000Y-127820000D02*
X95933000Y-127820000D01*
X85138000Y-127780000D02*
X95862000Y-127780000D01*
X85211000Y-127740000D02*
X95789000Y-127740000D01*
X85285000Y-127700000D02*
X95715000Y-127700000D01*
X85360000Y-127660000D02*
X95640000Y-127660000D01*
X85437000Y-127620000D02*
X95563000Y-127620000D01*
X85515000Y-127580000D02*
X95485000Y-127580000D01*
X85595000Y-127540000D02*
X95405000Y-127540000D01*
X85676000Y-127500000D02*
X95324000Y-127500000D01*
X85759000Y-127460000D02*
X95241000Y-127460000D01*
X85844000Y-127420000D02*
X95156000Y-127420000D01*
X85931000Y-127380000D02*
X95069000Y-127380000D01*
X86020000Y-127340000D02*
X94980000Y-127340000D01*
X86111000Y-127300000D02*
X94889000Y-127300000D01*
X86204000Y-127260000D02*
X94796000Y-127260000D01*
X86300000Y-127220000D02*
X94700000Y-127220000D01*
X86398000Y-127180000D02*
X94602000Y-127180000D01*
X86499000Y-127140000D02*
X94501000Y-127140000D01*
X86603000Y-127100000D02*
X94397000Y-127100000D01*
X86711000Y-127060000D02*
X94289000Y-127060000D01*
X86821000Y-127020000D02*
X94179000Y-127020000D01*
X86936000Y-126980000D02*
X94064000Y-126980000D01*
X87055000Y-126940000D02*
X93945000Y-126940000D01*
X87179000Y-126900000D02*
X93821000Y-126900000D01*
X87308000Y-126860000D02*
X93692000Y-126860000D01*
X87442000Y-126820000D02*
X93558000Y-126820000D01*
X87584000Y-126780000D02*
X93416000Y-126780000D01*
X87733000Y-126740000D02*
X93267000Y-126740000D01*
X87891000Y-126700000D02*
X93109000Y-126700000D01*
X88060000Y-126660000D02*
X92940000Y-126660000D01*
X88242000Y-126620000D02*
X92758000Y-126620000D01*
X88440000Y-126580000D02*
X92560000Y-126580000D01*
X88660000Y-126540000D02*
X92340000Y-126540000D01*
X88910000Y-126500000D02*
X92090000Y-126500000D01*
X89208000Y-126460000D02*
X91792000Y-126460000D01*
X89597000Y-126420000D02*
X91403000Y-126420000D01*
X90460000Y-126380000D02*
X90540000Y-126380000D01*
X84265000Y-149399337D02*
X84265000Y-147199337D01*
X83165000Y-148299337D02*
X85365000Y-148299337D01*
G04 #@! TO.C,C5*
X136070000Y-131230000D02*
X136070000Y-135770000D01*
X133930000Y-131230000D02*
X133930000Y-135770000D01*
X136070000Y-131230000D02*
X136055000Y-131230000D01*
X133945000Y-131230000D02*
X133930000Y-131230000D01*
X136070000Y-135770000D02*
X136055000Y-135770000D01*
X133945000Y-135770000D02*
X133930000Y-135770000D01*
G04 #@! TO.C,C6*
X119770000Y-119750000D02*
G75*
G03X119770000Y-119750000I-3270000J0D01*
G01*
X113270000Y-119750000D02*
X119730000Y-119750000D01*
X113270000Y-119710000D02*
X119730000Y-119710000D01*
X113270000Y-119670000D02*
X119730000Y-119670000D01*
X113272000Y-119630000D02*
X119728000Y-119630000D01*
X113273000Y-119590000D02*
X119727000Y-119590000D01*
X113276000Y-119550000D02*
X119724000Y-119550000D01*
X113278000Y-119510000D02*
X115460000Y-119510000D01*
X117540000Y-119510000D02*
X119722000Y-119510000D01*
X113282000Y-119470000D02*
X115460000Y-119470000D01*
X117540000Y-119470000D02*
X119718000Y-119470000D01*
X113285000Y-119430000D02*
X115460000Y-119430000D01*
X117540000Y-119430000D02*
X119715000Y-119430000D01*
X113289000Y-119390000D02*
X115460000Y-119390000D01*
X117540000Y-119390000D02*
X119711000Y-119390000D01*
X113294000Y-119350000D02*
X115460000Y-119350000D01*
X117540000Y-119350000D02*
X119706000Y-119350000D01*
X113299000Y-119310000D02*
X115460000Y-119310000D01*
X117540000Y-119310000D02*
X119701000Y-119310000D01*
X113305000Y-119270000D02*
X115460000Y-119270000D01*
X117540000Y-119270000D02*
X119695000Y-119270000D01*
X113311000Y-119230000D02*
X115460000Y-119230000D01*
X117540000Y-119230000D02*
X119689000Y-119230000D01*
X113318000Y-119190000D02*
X115460000Y-119190000D01*
X117540000Y-119190000D02*
X119682000Y-119190000D01*
X113325000Y-119150000D02*
X115460000Y-119150000D01*
X117540000Y-119150000D02*
X119675000Y-119150000D01*
X113333000Y-119110000D02*
X115460000Y-119110000D01*
X117540000Y-119110000D02*
X119667000Y-119110000D01*
X113341000Y-119070000D02*
X115460000Y-119070000D01*
X117540000Y-119070000D02*
X119659000Y-119070000D01*
X113350000Y-119029000D02*
X115460000Y-119029000D01*
X117540000Y-119029000D02*
X119650000Y-119029000D01*
X113359000Y-118989000D02*
X115460000Y-118989000D01*
X117540000Y-118989000D02*
X119641000Y-118989000D01*
X113369000Y-118949000D02*
X115460000Y-118949000D01*
X117540000Y-118949000D02*
X119631000Y-118949000D01*
X113379000Y-118909000D02*
X115460000Y-118909000D01*
X117540000Y-118909000D02*
X119621000Y-118909000D01*
X113390000Y-118869000D02*
X115460000Y-118869000D01*
X117540000Y-118869000D02*
X119610000Y-118869000D01*
X113402000Y-118829000D02*
X115460000Y-118829000D01*
X117540000Y-118829000D02*
X119598000Y-118829000D01*
X113414000Y-118789000D02*
X115460000Y-118789000D01*
X117540000Y-118789000D02*
X119586000Y-118789000D01*
X113426000Y-118749000D02*
X115460000Y-118749000D01*
X117540000Y-118749000D02*
X119574000Y-118749000D01*
X113439000Y-118709000D02*
X115460000Y-118709000D01*
X117540000Y-118709000D02*
X119561000Y-118709000D01*
X113453000Y-118669000D02*
X115460000Y-118669000D01*
X117540000Y-118669000D02*
X119547000Y-118669000D01*
X113467000Y-118629000D02*
X115460000Y-118629000D01*
X117540000Y-118629000D02*
X119533000Y-118629000D01*
X113482000Y-118589000D02*
X115460000Y-118589000D01*
X117540000Y-118589000D02*
X119518000Y-118589000D01*
X113498000Y-118549000D02*
X115460000Y-118549000D01*
X117540000Y-118549000D02*
X119502000Y-118549000D01*
X113514000Y-118509000D02*
X115460000Y-118509000D01*
X117540000Y-118509000D02*
X119486000Y-118509000D01*
X113530000Y-118469000D02*
X115460000Y-118469000D01*
X117540000Y-118469000D02*
X119470000Y-118469000D01*
X113548000Y-118429000D02*
X115460000Y-118429000D01*
X117540000Y-118429000D02*
X119452000Y-118429000D01*
X113566000Y-118389000D02*
X115460000Y-118389000D01*
X117540000Y-118389000D02*
X119434000Y-118389000D01*
X113584000Y-118349000D02*
X115460000Y-118349000D01*
X117540000Y-118349000D02*
X119416000Y-118349000D01*
X113604000Y-118309000D02*
X115460000Y-118309000D01*
X117540000Y-118309000D02*
X119396000Y-118309000D01*
X113624000Y-118269000D02*
X115460000Y-118269000D01*
X117540000Y-118269000D02*
X119376000Y-118269000D01*
X113644000Y-118229000D02*
X115460000Y-118229000D01*
X117540000Y-118229000D02*
X119356000Y-118229000D01*
X113666000Y-118189000D02*
X115460000Y-118189000D01*
X117540000Y-118189000D02*
X119334000Y-118189000D01*
X113688000Y-118149000D02*
X115460000Y-118149000D01*
X117540000Y-118149000D02*
X119312000Y-118149000D01*
X113710000Y-118109000D02*
X115460000Y-118109000D01*
X117540000Y-118109000D02*
X119290000Y-118109000D01*
X113734000Y-118069000D02*
X115460000Y-118069000D01*
X117540000Y-118069000D02*
X119266000Y-118069000D01*
X113758000Y-118029000D02*
X115460000Y-118029000D01*
X117540000Y-118029000D02*
X119242000Y-118029000D01*
X113784000Y-117989000D02*
X115460000Y-117989000D01*
X117540000Y-117989000D02*
X119216000Y-117989000D01*
X113810000Y-117949000D02*
X115460000Y-117949000D01*
X117540000Y-117949000D02*
X119190000Y-117949000D01*
X113836000Y-117909000D02*
X115460000Y-117909000D01*
X117540000Y-117909000D02*
X119164000Y-117909000D01*
X113864000Y-117869000D02*
X115460000Y-117869000D01*
X117540000Y-117869000D02*
X119136000Y-117869000D01*
X113893000Y-117829000D02*
X115460000Y-117829000D01*
X117540000Y-117829000D02*
X119107000Y-117829000D01*
X113922000Y-117789000D02*
X115460000Y-117789000D01*
X117540000Y-117789000D02*
X119078000Y-117789000D01*
X113952000Y-117749000D02*
X115460000Y-117749000D01*
X117540000Y-117749000D02*
X119048000Y-117749000D01*
X113984000Y-117709000D02*
X115460000Y-117709000D01*
X117540000Y-117709000D02*
X119016000Y-117709000D01*
X114016000Y-117669000D02*
X115460000Y-117669000D01*
X117540000Y-117669000D02*
X118984000Y-117669000D01*
X114050000Y-117629000D02*
X115460000Y-117629000D01*
X117540000Y-117629000D02*
X118950000Y-117629000D01*
X114084000Y-117589000D02*
X115460000Y-117589000D01*
X117540000Y-117589000D02*
X118916000Y-117589000D01*
X114120000Y-117549000D02*
X115460000Y-117549000D01*
X117540000Y-117549000D02*
X118880000Y-117549000D01*
X114157000Y-117509000D02*
X115460000Y-117509000D01*
X117540000Y-117509000D02*
X118843000Y-117509000D01*
X114195000Y-117469000D02*
X115460000Y-117469000D01*
X117540000Y-117469000D02*
X118805000Y-117469000D01*
X114235000Y-117429000D02*
X118765000Y-117429000D01*
X114276000Y-117389000D02*
X118724000Y-117389000D01*
X114318000Y-117349000D02*
X118682000Y-117349000D01*
X114363000Y-117309000D02*
X118637000Y-117309000D01*
X114408000Y-117269000D02*
X118592000Y-117269000D01*
X114456000Y-117229000D02*
X118544000Y-117229000D01*
X114505000Y-117189000D02*
X118495000Y-117189000D01*
X114556000Y-117149000D02*
X118444000Y-117149000D01*
X114610000Y-117109000D02*
X118390000Y-117109000D01*
X114666000Y-117069000D02*
X118334000Y-117069000D01*
X114724000Y-117029000D02*
X118276000Y-117029000D01*
X114786000Y-116989000D02*
X118214000Y-116989000D01*
X114850000Y-116949000D02*
X118150000Y-116949000D01*
X114919000Y-116909000D02*
X118081000Y-116909000D01*
X114991000Y-116869000D02*
X118009000Y-116869000D01*
X115068000Y-116829000D02*
X117932000Y-116829000D01*
X115150000Y-116789000D02*
X117850000Y-116789000D01*
X115238000Y-116749000D02*
X117762000Y-116749000D01*
X115335000Y-116709000D02*
X117665000Y-116709000D01*
X115441000Y-116669000D02*
X117559000Y-116669000D01*
X115560000Y-116629000D02*
X117440000Y-116629000D01*
X115698000Y-116589000D02*
X117302000Y-116589000D01*
X115867000Y-116549000D02*
X117133000Y-116549000D01*
X116098000Y-116509000D02*
X116902000Y-116509000D01*
X114661000Y-123250241D02*
X114661000Y-122620241D01*
X114346000Y-122935241D02*
X114976000Y-122935241D01*
G04 #@! TO.C,C7*
X109846000Y-116935241D02*
X110476000Y-116935241D01*
X110161000Y-117250241D02*
X110161000Y-116620241D01*
X111598000Y-110509000D02*
X112402000Y-110509000D01*
X111367000Y-110549000D02*
X112633000Y-110549000D01*
X111198000Y-110589000D02*
X112802000Y-110589000D01*
X111060000Y-110629000D02*
X112940000Y-110629000D01*
X110941000Y-110669000D02*
X113059000Y-110669000D01*
X110835000Y-110709000D02*
X113165000Y-110709000D01*
X110738000Y-110749000D02*
X113262000Y-110749000D01*
X110650000Y-110789000D02*
X113350000Y-110789000D01*
X110568000Y-110829000D02*
X113432000Y-110829000D01*
X110491000Y-110869000D02*
X113509000Y-110869000D01*
X110419000Y-110909000D02*
X113581000Y-110909000D01*
X110350000Y-110949000D02*
X113650000Y-110949000D01*
X110286000Y-110989000D02*
X113714000Y-110989000D01*
X110224000Y-111029000D02*
X113776000Y-111029000D01*
X110166000Y-111069000D02*
X113834000Y-111069000D01*
X110110000Y-111109000D02*
X113890000Y-111109000D01*
X110056000Y-111149000D02*
X113944000Y-111149000D01*
X110005000Y-111189000D02*
X113995000Y-111189000D01*
X109956000Y-111229000D02*
X114044000Y-111229000D01*
X109908000Y-111269000D02*
X114092000Y-111269000D01*
X109863000Y-111309000D02*
X114137000Y-111309000D01*
X109818000Y-111349000D02*
X114182000Y-111349000D01*
X109776000Y-111389000D02*
X114224000Y-111389000D01*
X109735000Y-111429000D02*
X114265000Y-111429000D01*
X113040000Y-111469000D02*
X114305000Y-111469000D01*
X109695000Y-111469000D02*
X110960000Y-111469000D01*
X113040000Y-111509000D02*
X114343000Y-111509000D01*
X109657000Y-111509000D02*
X110960000Y-111509000D01*
X113040000Y-111549000D02*
X114380000Y-111549000D01*
X109620000Y-111549000D02*
X110960000Y-111549000D01*
X113040000Y-111589000D02*
X114416000Y-111589000D01*
X109584000Y-111589000D02*
X110960000Y-111589000D01*
X113040000Y-111629000D02*
X114450000Y-111629000D01*
X109550000Y-111629000D02*
X110960000Y-111629000D01*
X113040000Y-111669000D02*
X114484000Y-111669000D01*
X109516000Y-111669000D02*
X110960000Y-111669000D01*
X113040000Y-111709000D02*
X114516000Y-111709000D01*
X109484000Y-111709000D02*
X110960000Y-111709000D01*
X113040000Y-111749000D02*
X114548000Y-111749000D01*
X109452000Y-111749000D02*
X110960000Y-111749000D01*
X113040000Y-111789000D02*
X114578000Y-111789000D01*
X109422000Y-111789000D02*
X110960000Y-111789000D01*
X113040000Y-111829000D02*
X114607000Y-111829000D01*
X109393000Y-111829000D02*
X110960000Y-111829000D01*
X113040000Y-111869000D02*
X114636000Y-111869000D01*
X109364000Y-111869000D02*
X110960000Y-111869000D01*
X113040000Y-111909000D02*
X114664000Y-111909000D01*
X109336000Y-111909000D02*
X110960000Y-111909000D01*
X113040000Y-111949000D02*
X114690000Y-111949000D01*
X109310000Y-111949000D02*
X110960000Y-111949000D01*
X113040000Y-111989000D02*
X114716000Y-111989000D01*
X109284000Y-111989000D02*
X110960000Y-111989000D01*
X113040000Y-112029000D02*
X114742000Y-112029000D01*
X109258000Y-112029000D02*
X110960000Y-112029000D01*
X113040000Y-112069000D02*
X114766000Y-112069000D01*
X109234000Y-112069000D02*
X110960000Y-112069000D01*
X113040000Y-112109000D02*
X114790000Y-112109000D01*
X109210000Y-112109000D02*
X110960000Y-112109000D01*
X113040000Y-112149000D02*
X114812000Y-112149000D01*
X109188000Y-112149000D02*
X110960000Y-112149000D01*
X113040000Y-112189000D02*
X114834000Y-112189000D01*
X109166000Y-112189000D02*
X110960000Y-112189000D01*
X113040000Y-112229000D02*
X114856000Y-112229000D01*
X109144000Y-112229000D02*
X110960000Y-112229000D01*
X113040000Y-112269000D02*
X114876000Y-112269000D01*
X109124000Y-112269000D02*
X110960000Y-112269000D01*
X113040000Y-112309000D02*
X114896000Y-112309000D01*
X109104000Y-112309000D02*
X110960000Y-112309000D01*
X113040000Y-112349000D02*
X114916000Y-112349000D01*
X109084000Y-112349000D02*
X110960000Y-112349000D01*
X113040000Y-112389000D02*
X114934000Y-112389000D01*
X109066000Y-112389000D02*
X110960000Y-112389000D01*
X113040000Y-112429000D02*
X114952000Y-112429000D01*
X109048000Y-112429000D02*
X110960000Y-112429000D01*
X113040000Y-112469000D02*
X114970000Y-112469000D01*
X109030000Y-112469000D02*
X110960000Y-112469000D01*
X113040000Y-112509000D02*
X114986000Y-112509000D01*
X109014000Y-112509000D02*
X110960000Y-112509000D01*
X113040000Y-112549000D02*
X115002000Y-112549000D01*
X108998000Y-112549000D02*
X110960000Y-112549000D01*
X113040000Y-112589000D02*
X115018000Y-112589000D01*
X108982000Y-112589000D02*
X110960000Y-112589000D01*
X113040000Y-112629000D02*
X115033000Y-112629000D01*
X108967000Y-112629000D02*
X110960000Y-112629000D01*
X113040000Y-112669000D02*
X115047000Y-112669000D01*
X108953000Y-112669000D02*
X110960000Y-112669000D01*
X113040000Y-112709000D02*
X115061000Y-112709000D01*
X108939000Y-112709000D02*
X110960000Y-112709000D01*
X113040000Y-112749000D02*
X115074000Y-112749000D01*
X108926000Y-112749000D02*
X110960000Y-112749000D01*
X113040000Y-112789000D02*
X115086000Y-112789000D01*
X108914000Y-112789000D02*
X110960000Y-112789000D01*
X113040000Y-112829000D02*
X115098000Y-112829000D01*
X108902000Y-112829000D02*
X110960000Y-112829000D01*
X113040000Y-112869000D02*
X115110000Y-112869000D01*
X108890000Y-112869000D02*
X110960000Y-112869000D01*
X113040000Y-112909000D02*
X115121000Y-112909000D01*
X108879000Y-112909000D02*
X110960000Y-112909000D01*
X113040000Y-112949000D02*
X115131000Y-112949000D01*
X108869000Y-112949000D02*
X110960000Y-112949000D01*
X113040000Y-112989000D02*
X115141000Y-112989000D01*
X108859000Y-112989000D02*
X110960000Y-112989000D01*
X113040000Y-113029000D02*
X115150000Y-113029000D01*
X108850000Y-113029000D02*
X110960000Y-113029000D01*
X113040000Y-113070000D02*
X115159000Y-113070000D01*
X108841000Y-113070000D02*
X110960000Y-113070000D01*
X113040000Y-113110000D02*
X115167000Y-113110000D01*
X108833000Y-113110000D02*
X110960000Y-113110000D01*
X113040000Y-113150000D02*
X115175000Y-113150000D01*
X108825000Y-113150000D02*
X110960000Y-113150000D01*
X113040000Y-113190000D02*
X115182000Y-113190000D01*
X108818000Y-113190000D02*
X110960000Y-113190000D01*
X113040000Y-113230000D02*
X115189000Y-113230000D01*
X108811000Y-113230000D02*
X110960000Y-113230000D01*
X113040000Y-113270000D02*
X115195000Y-113270000D01*
X108805000Y-113270000D02*
X110960000Y-113270000D01*
X113040000Y-113310000D02*
X115201000Y-113310000D01*
X108799000Y-113310000D02*
X110960000Y-113310000D01*
X113040000Y-113350000D02*
X115206000Y-113350000D01*
X108794000Y-113350000D02*
X110960000Y-113350000D01*
X113040000Y-113390000D02*
X115211000Y-113390000D01*
X108789000Y-113390000D02*
X110960000Y-113390000D01*
X113040000Y-113430000D02*
X115215000Y-113430000D01*
X108785000Y-113430000D02*
X110960000Y-113430000D01*
X113040000Y-113470000D02*
X115218000Y-113470000D01*
X108782000Y-113470000D02*
X110960000Y-113470000D01*
X113040000Y-113510000D02*
X115222000Y-113510000D01*
X108778000Y-113510000D02*
X110960000Y-113510000D01*
X108776000Y-113550000D02*
X115224000Y-113550000D01*
X108773000Y-113590000D02*
X115227000Y-113590000D01*
X108772000Y-113630000D02*
X115228000Y-113630000D01*
X108770000Y-113670000D02*
X115230000Y-113670000D01*
X108770000Y-113710000D02*
X115230000Y-113710000D01*
X108770000Y-113750000D02*
X115230000Y-113750000D01*
X115270000Y-113750000D02*
G75*
G03X115270000Y-113750000I-3270000J0D01*
G01*
G04 #@! TO.C,C8*
X113770000Y-106750000D02*
G75*
G03X113770000Y-106750000I-3270000J0D01*
G01*
X107270000Y-106750000D02*
X113730000Y-106750000D01*
X107270000Y-106710000D02*
X113730000Y-106710000D01*
X107270000Y-106670000D02*
X113730000Y-106670000D01*
X107272000Y-106630000D02*
X113728000Y-106630000D01*
X107273000Y-106590000D02*
X113727000Y-106590000D01*
X107276000Y-106550000D02*
X113724000Y-106550000D01*
X107278000Y-106510000D02*
X109460000Y-106510000D01*
X111540000Y-106510000D02*
X113722000Y-106510000D01*
X107282000Y-106470000D02*
X109460000Y-106470000D01*
X111540000Y-106470000D02*
X113718000Y-106470000D01*
X107285000Y-106430000D02*
X109460000Y-106430000D01*
X111540000Y-106430000D02*
X113715000Y-106430000D01*
X107289000Y-106390000D02*
X109460000Y-106390000D01*
X111540000Y-106390000D02*
X113711000Y-106390000D01*
X107294000Y-106350000D02*
X109460000Y-106350000D01*
X111540000Y-106350000D02*
X113706000Y-106350000D01*
X107299000Y-106310000D02*
X109460000Y-106310000D01*
X111540000Y-106310000D02*
X113701000Y-106310000D01*
X107305000Y-106270000D02*
X109460000Y-106270000D01*
X111540000Y-106270000D02*
X113695000Y-106270000D01*
X107311000Y-106230000D02*
X109460000Y-106230000D01*
X111540000Y-106230000D02*
X113689000Y-106230000D01*
X107318000Y-106190000D02*
X109460000Y-106190000D01*
X111540000Y-106190000D02*
X113682000Y-106190000D01*
X107325000Y-106150000D02*
X109460000Y-106150000D01*
X111540000Y-106150000D02*
X113675000Y-106150000D01*
X107333000Y-106110000D02*
X109460000Y-106110000D01*
X111540000Y-106110000D02*
X113667000Y-106110000D01*
X107341000Y-106070000D02*
X109460000Y-106070000D01*
X111540000Y-106070000D02*
X113659000Y-106070000D01*
X107350000Y-106029000D02*
X109460000Y-106029000D01*
X111540000Y-106029000D02*
X113650000Y-106029000D01*
X107359000Y-105989000D02*
X109460000Y-105989000D01*
X111540000Y-105989000D02*
X113641000Y-105989000D01*
X107369000Y-105949000D02*
X109460000Y-105949000D01*
X111540000Y-105949000D02*
X113631000Y-105949000D01*
X107379000Y-105909000D02*
X109460000Y-105909000D01*
X111540000Y-105909000D02*
X113621000Y-105909000D01*
X107390000Y-105869000D02*
X109460000Y-105869000D01*
X111540000Y-105869000D02*
X113610000Y-105869000D01*
X107402000Y-105829000D02*
X109460000Y-105829000D01*
X111540000Y-105829000D02*
X113598000Y-105829000D01*
X107414000Y-105789000D02*
X109460000Y-105789000D01*
X111540000Y-105789000D02*
X113586000Y-105789000D01*
X107426000Y-105749000D02*
X109460000Y-105749000D01*
X111540000Y-105749000D02*
X113574000Y-105749000D01*
X107439000Y-105709000D02*
X109460000Y-105709000D01*
X111540000Y-105709000D02*
X113561000Y-105709000D01*
X107453000Y-105669000D02*
X109460000Y-105669000D01*
X111540000Y-105669000D02*
X113547000Y-105669000D01*
X107467000Y-105629000D02*
X109460000Y-105629000D01*
X111540000Y-105629000D02*
X113533000Y-105629000D01*
X107482000Y-105589000D02*
X109460000Y-105589000D01*
X111540000Y-105589000D02*
X113518000Y-105589000D01*
X107498000Y-105549000D02*
X109460000Y-105549000D01*
X111540000Y-105549000D02*
X113502000Y-105549000D01*
X107514000Y-105509000D02*
X109460000Y-105509000D01*
X111540000Y-105509000D02*
X113486000Y-105509000D01*
X107530000Y-105469000D02*
X109460000Y-105469000D01*
X111540000Y-105469000D02*
X113470000Y-105469000D01*
X107548000Y-105429000D02*
X109460000Y-105429000D01*
X111540000Y-105429000D02*
X113452000Y-105429000D01*
X107566000Y-105389000D02*
X109460000Y-105389000D01*
X111540000Y-105389000D02*
X113434000Y-105389000D01*
X107584000Y-105349000D02*
X109460000Y-105349000D01*
X111540000Y-105349000D02*
X113416000Y-105349000D01*
X107604000Y-105309000D02*
X109460000Y-105309000D01*
X111540000Y-105309000D02*
X113396000Y-105309000D01*
X107624000Y-105269000D02*
X109460000Y-105269000D01*
X111540000Y-105269000D02*
X113376000Y-105269000D01*
X107644000Y-105229000D02*
X109460000Y-105229000D01*
X111540000Y-105229000D02*
X113356000Y-105229000D01*
X107666000Y-105189000D02*
X109460000Y-105189000D01*
X111540000Y-105189000D02*
X113334000Y-105189000D01*
X107688000Y-105149000D02*
X109460000Y-105149000D01*
X111540000Y-105149000D02*
X113312000Y-105149000D01*
X107710000Y-105109000D02*
X109460000Y-105109000D01*
X111540000Y-105109000D02*
X113290000Y-105109000D01*
X107734000Y-105069000D02*
X109460000Y-105069000D01*
X111540000Y-105069000D02*
X113266000Y-105069000D01*
X107758000Y-105029000D02*
X109460000Y-105029000D01*
X111540000Y-105029000D02*
X113242000Y-105029000D01*
X107784000Y-104989000D02*
X109460000Y-104989000D01*
X111540000Y-104989000D02*
X113216000Y-104989000D01*
X107810000Y-104949000D02*
X109460000Y-104949000D01*
X111540000Y-104949000D02*
X113190000Y-104949000D01*
X107836000Y-104909000D02*
X109460000Y-104909000D01*
X111540000Y-104909000D02*
X113164000Y-104909000D01*
X107864000Y-104869000D02*
X109460000Y-104869000D01*
X111540000Y-104869000D02*
X113136000Y-104869000D01*
X107893000Y-104829000D02*
X109460000Y-104829000D01*
X111540000Y-104829000D02*
X113107000Y-104829000D01*
X107922000Y-104789000D02*
X109460000Y-104789000D01*
X111540000Y-104789000D02*
X113078000Y-104789000D01*
X107952000Y-104749000D02*
X109460000Y-104749000D01*
X111540000Y-104749000D02*
X113048000Y-104749000D01*
X107984000Y-104709000D02*
X109460000Y-104709000D01*
X111540000Y-104709000D02*
X113016000Y-104709000D01*
X108016000Y-104669000D02*
X109460000Y-104669000D01*
X111540000Y-104669000D02*
X112984000Y-104669000D01*
X108050000Y-104629000D02*
X109460000Y-104629000D01*
X111540000Y-104629000D02*
X112950000Y-104629000D01*
X108084000Y-104589000D02*
X109460000Y-104589000D01*
X111540000Y-104589000D02*
X112916000Y-104589000D01*
X108120000Y-104549000D02*
X109460000Y-104549000D01*
X111540000Y-104549000D02*
X112880000Y-104549000D01*
X108157000Y-104509000D02*
X109460000Y-104509000D01*
X111540000Y-104509000D02*
X112843000Y-104509000D01*
X108195000Y-104469000D02*
X109460000Y-104469000D01*
X111540000Y-104469000D02*
X112805000Y-104469000D01*
X108235000Y-104429000D02*
X112765000Y-104429000D01*
X108276000Y-104389000D02*
X112724000Y-104389000D01*
X108318000Y-104349000D02*
X112682000Y-104349000D01*
X108363000Y-104309000D02*
X112637000Y-104309000D01*
X108408000Y-104269000D02*
X112592000Y-104269000D01*
X108456000Y-104229000D02*
X112544000Y-104229000D01*
X108505000Y-104189000D02*
X112495000Y-104189000D01*
X108556000Y-104149000D02*
X112444000Y-104149000D01*
X108610000Y-104109000D02*
X112390000Y-104109000D01*
X108666000Y-104069000D02*
X112334000Y-104069000D01*
X108724000Y-104029000D02*
X112276000Y-104029000D01*
X108786000Y-103989000D02*
X112214000Y-103989000D01*
X108850000Y-103949000D02*
X112150000Y-103949000D01*
X108919000Y-103909000D02*
X112081000Y-103909000D01*
X108991000Y-103869000D02*
X112009000Y-103869000D01*
X109068000Y-103829000D02*
X111932000Y-103829000D01*
X109150000Y-103789000D02*
X111850000Y-103789000D01*
X109238000Y-103749000D02*
X111762000Y-103749000D01*
X109335000Y-103709000D02*
X111665000Y-103709000D01*
X109441000Y-103669000D02*
X111559000Y-103669000D01*
X109560000Y-103629000D02*
X111440000Y-103629000D01*
X109698000Y-103589000D02*
X111302000Y-103589000D01*
X109867000Y-103549000D02*
X111133000Y-103549000D01*
X110098000Y-103509000D02*
X110902000Y-103509000D01*
X108661000Y-110250241D02*
X108661000Y-109620241D01*
X108346000Y-109935241D02*
X108976000Y-109935241D01*
G04 #@! TO.C,C9*
X77555000Y-85230000D02*
X77570000Y-85230000D01*
X75430000Y-85230000D02*
X75445000Y-85230000D01*
X77555000Y-89770000D02*
X77570000Y-89770000D01*
X75430000Y-89770000D02*
X75445000Y-89770000D01*
X77570000Y-89770000D02*
X77570000Y-85230000D01*
X75430000Y-89770000D02*
X75430000Y-85230000D01*
G04 #@! TO.C,C10*
X62145000Y-66639491D02*
X63745000Y-66639491D01*
X62945000Y-67439491D02*
X62945000Y-65839491D01*
X66735000Y-50669000D02*
X68265000Y-50669000D01*
X66402000Y-50709000D02*
X68598000Y-50709000D01*
X66149000Y-50749000D02*
X68851000Y-50749000D01*
X65936000Y-50789000D02*
X69064000Y-50789000D01*
X65748000Y-50829000D02*
X69252000Y-50829000D01*
X65580000Y-50869000D02*
X69420000Y-50869000D01*
X65426000Y-50909000D02*
X69574000Y-50909000D01*
X65282000Y-50949000D02*
X69718000Y-50949000D01*
X65149000Y-50989000D02*
X69851000Y-50989000D01*
X65022000Y-51029000D02*
X69978000Y-51029000D01*
X64903000Y-51069000D02*
X70097000Y-51069000D01*
X64789000Y-51109000D02*
X70211000Y-51109000D01*
X64680000Y-51149000D02*
X70320000Y-51149000D01*
X64576000Y-51189000D02*
X70424000Y-51189000D01*
X64476000Y-51229000D02*
X70524000Y-51229000D01*
X64380000Y-51269000D02*
X70620000Y-51269000D01*
X64287000Y-51309000D02*
X70713000Y-51309000D01*
X64197000Y-51349000D02*
X70803000Y-51349000D01*
X64110000Y-51389000D02*
X70890000Y-51389000D01*
X64025000Y-51429000D02*
X70975000Y-51429000D01*
X63943000Y-51469000D02*
X71057000Y-51469000D01*
X63863000Y-51509000D02*
X71137000Y-51509000D01*
X63785000Y-51549000D02*
X71215000Y-51549000D01*
X63710000Y-51589000D02*
X71290000Y-51589000D01*
X63636000Y-51629000D02*
X71364000Y-51629000D01*
X63564000Y-51669000D02*
X71436000Y-51669000D01*
X63493000Y-51709000D02*
X71507000Y-51709000D01*
X63424000Y-51749000D02*
X71576000Y-51749000D01*
X63357000Y-51789000D02*
X71643000Y-51789000D01*
X63291000Y-51829000D02*
X71709000Y-51829000D01*
X63227000Y-51869000D02*
X71773000Y-51869000D01*
X63164000Y-51909000D02*
X71836000Y-51909000D01*
X63102000Y-51949000D02*
X71898000Y-51949000D01*
X63041000Y-51989000D02*
X71959000Y-51989000D01*
X62981000Y-52029000D02*
X72019000Y-52029000D01*
X62923000Y-52069000D02*
X72077000Y-52069000D01*
X62866000Y-52109000D02*
X72134000Y-52109000D01*
X62809000Y-52149000D02*
X72191000Y-52149000D01*
X62754000Y-52189000D02*
X72246000Y-52189000D01*
X62700000Y-52229000D02*
X72300000Y-52229000D01*
X62646000Y-52269000D02*
X72354000Y-52269000D01*
X62594000Y-52309000D02*
X72406000Y-52309000D01*
X62542000Y-52349000D02*
X72458000Y-52349000D01*
X62491000Y-52389000D02*
X72509000Y-52389000D01*
X62441000Y-52429000D02*
X72559000Y-52429000D01*
X62392000Y-52469000D02*
X72608000Y-52469000D01*
X62344000Y-52509000D02*
X72656000Y-52509000D01*
X62296000Y-52549000D02*
X72704000Y-52549000D01*
X62249000Y-52589000D02*
X72751000Y-52589000D01*
X62203000Y-52629000D02*
X72797000Y-52629000D01*
X62157000Y-52669000D02*
X72843000Y-52669000D01*
X62112000Y-52709000D02*
X72888000Y-52709000D01*
X62068000Y-52749000D02*
X72932000Y-52749000D01*
X62025000Y-52789000D02*
X72975000Y-52789000D01*
X61982000Y-52829000D02*
X73018000Y-52829000D01*
X61940000Y-52869000D02*
X73060000Y-52869000D01*
X61898000Y-52909000D02*
X73102000Y-52909000D01*
X61857000Y-52949000D02*
X73143000Y-52949000D01*
X61816000Y-52989000D02*
X73184000Y-52989000D01*
X61776000Y-53029000D02*
X73224000Y-53029000D01*
X61737000Y-53069000D02*
X73263000Y-53069000D01*
X61698000Y-53109000D02*
X73302000Y-53109000D01*
X61660000Y-53149000D02*
X73340000Y-53149000D01*
X61622000Y-53189000D02*
X73378000Y-53189000D01*
X61584000Y-53229000D02*
X73416000Y-53229000D01*
X61548000Y-53269000D02*
X73452000Y-53269000D01*
X61511000Y-53309000D02*
X73489000Y-53309000D01*
X61475000Y-53349000D02*
X73525000Y-53349000D01*
X61440000Y-53389000D02*
X73560000Y-53389000D01*
X61405000Y-53429000D02*
X73595000Y-53429000D01*
X61371000Y-53469000D02*
X73629000Y-53469000D01*
X61337000Y-53509000D02*
X73663000Y-53509000D01*
X61303000Y-53549000D02*
X73697000Y-53549000D01*
X68940000Y-53589000D02*
X73730000Y-53589000D01*
X61270000Y-53589000D02*
X66060000Y-53589000D01*
X68940000Y-53629000D02*
X73763000Y-53629000D01*
X61237000Y-53629000D02*
X66060000Y-53629000D01*
X68940000Y-53669000D02*
X73795000Y-53669000D01*
X61205000Y-53669000D02*
X66060000Y-53669000D01*
X68940000Y-53709000D02*
X73827000Y-53709000D01*
X61173000Y-53709000D02*
X66060000Y-53709000D01*
X68940000Y-53749000D02*
X73858000Y-53749000D01*
X61142000Y-53749000D02*
X66060000Y-53749000D01*
X68940000Y-53789000D02*
X73890000Y-53789000D01*
X61110000Y-53789000D02*
X66060000Y-53789000D01*
X68940000Y-53829000D02*
X73920000Y-53829000D01*
X61080000Y-53829000D02*
X66060000Y-53829000D01*
X68940000Y-53869000D02*
X73950000Y-53869000D01*
X61050000Y-53869000D02*
X66060000Y-53869000D01*
X68940000Y-53909000D02*
X73980000Y-53909000D01*
X61020000Y-53909000D02*
X66060000Y-53909000D01*
X68940000Y-53949000D02*
X74010000Y-53949000D01*
X60990000Y-53949000D02*
X66060000Y-53949000D01*
X68940000Y-53989000D02*
X74039000Y-53989000D01*
X60961000Y-53989000D02*
X66060000Y-53989000D01*
X68940000Y-54029000D02*
X74068000Y-54029000D01*
X60932000Y-54029000D02*
X66060000Y-54029000D01*
X68940000Y-54069000D02*
X74096000Y-54069000D01*
X60904000Y-54069000D02*
X66060000Y-54069000D01*
X68940000Y-54109000D02*
X74124000Y-54109000D01*
X60876000Y-54109000D02*
X66060000Y-54109000D01*
X68940000Y-54149000D02*
X74152000Y-54149000D01*
X60848000Y-54149000D02*
X66060000Y-54149000D01*
X68940000Y-54189000D02*
X74179000Y-54189000D01*
X60821000Y-54189000D02*
X66060000Y-54189000D01*
X68940000Y-54229000D02*
X74206000Y-54229000D01*
X60794000Y-54229000D02*
X66060000Y-54229000D01*
X68940000Y-54269000D02*
X74233000Y-54269000D01*
X60767000Y-54269000D02*
X66060000Y-54269000D01*
X68940000Y-54309000D02*
X74259000Y-54309000D01*
X60741000Y-54309000D02*
X66060000Y-54309000D01*
X68940000Y-54349000D02*
X74285000Y-54349000D01*
X60715000Y-54349000D02*
X66060000Y-54349000D01*
X68940000Y-54389000D02*
X74311000Y-54389000D01*
X60689000Y-54389000D02*
X66060000Y-54389000D01*
X68940000Y-54429000D02*
X74336000Y-54429000D01*
X60664000Y-54429000D02*
X66060000Y-54429000D01*
X68940000Y-54469000D02*
X74361000Y-54469000D01*
X60639000Y-54469000D02*
X66060000Y-54469000D01*
X68940000Y-54509000D02*
X74386000Y-54509000D01*
X60614000Y-54509000D02*
X66060000Y-54509000D01*
X68940000Y-54549000D02*
X74410000Y-54549000D01*
X60590000Y-54549000D02*
X66060000Y-54549000D01*
X68940000Y-54589000D02*
X74434000Y-54589000D01*
X60566000Y-54589000D02*
X66060000Y-54589000D01*
X68940000Y-54629000D02*
X74458000Y-54629000D01*
X60542000Y-54629000D02*
X66060000Y-54629000D01*
X68940000Y-54669000D02*
X74481000Y-54669000D01*
X60519000Y-54669000D02*
X66060000Y-54669000D01*
X68940000Y-54709000D02*
X74504000Y-54709000D01*
X60496000Y-54709000D02*
X66060000Y-54709000D01*
X68940000Y-54749000D02*
X74527000Y-54749000D01*
X60473000Y-54749000D02*
X66060000Y-54749000D01*
X68940000Y-54789000D02*
X74549000Y-54789000D01*
X60451000Y-54789000D02*
X66060000Y-54789000D01*
X68940000Y-54829000D02*
X74572000Y-54829000D01*
X60428000Y-54829000D02*
X66060000Y-54829000D01*
X68940000Y-54869000D02*
X74594000Y-54869000D01*
X60406000Y-54869000D02*
X66060000Y-54869000D01*
X68940000Y-54909000D02*
X74615000Y-54909000D01*
X60385000Y-54909000D02*
X66060000Y-54909000D01*
X68940000Y-54949000D02*
X74636000Y-54949000D01*
X60364000Y-54949000D02*
X66060000Y-54949000D01*
X68940000Y-54989000D02*
X74657000Y-54989000D01*
X60343000Y-54989000D02*
X66060000Y-54989000D01*
X68940000Y-55029000D02*
X74678000Y-55029000D01*
X60322000Y-55029000D02*
X66060000Y-55029000D01*
X68940000Y-55069000D02*
X74699000Y-55069000D01*
X60301000Y-55069000D02*
X66060000Y-55069000D01*
X68940000Y-55109000D02*
X74719000Y-55109000D01*
X60281000Y-55109000D02*
X66060000Y-55109000D01*
X68940000Y-55149000D02*
X74739000Y-55149000D01*
X60261000Y-55149000D02*
X66060000Y-55149000D01*
X68940000Y-55189000D02*
X74758000Y-55189000D01*
X60242000Y-55189000D02*
X66060000Y-55189000D01*
X68940000Y-55229000D02*
X74778000Y-55229000D01*
X60222000Y-55229000D02*
X66060000Y-55229000D01*
X68940000Y-55269000D02*
X74797000Y-55269000D01*
X60203000Y-55269000D02*
X66060000Y-55269000D01*
X68940000Y-55309000D02*
X74816000Y-55309000D01*
X60184000Y-55309000D02*
X66060000Y-55309000D01*
X68940000Y-55349000D02*
X74834000Y-55349000D01*
X60166000Y-55349000D02*
X66060000Y-55349000D01*
X68940000Y-55389000D02*
X74853000Y-55389000D01*
X60147000Y-55389000D02*
X66060000Y-55389000D01*
X68940000Y-55429000D02*
X74871000Y-55429000D01*
X60129000Y-55429000D02*
X66060000Y-55429000D01*
X68940000Y-55469000D02*
X74889000Y-55469000D01*
X60111000Y-55469000D02*
X66060000Y-55469000D01*
X68940000Y-55509000D02*
X74906000Y-55509000D01*
X60094000Y-55509000D02*
X66060000Y-55509000D01*
X68940000Y-55549000D02*
X74923000Y-55549000D01*
X60077000Y-55549000D02*
X66060000Y-55549000D01*
X68940000Y-55589000D02*
X74940000Y-55589000D01*
X60060000Y-55589000D02*
X66060000Y-55589000D01*
X68940000Y-55629000D02*
X74957000Y-55629000D01*
X60043000Y-55629000D02*
X66060000Y-55629000D01*
X68940000Y-55669000D02*
X74974000Y-55669000D01*
X60026000Y-55669000D02*
X66060000Y-55669000D01*
X68940000Y-55709000D02*
X74990000Y-55709000D01*
X60010000Y-55709000D02*
X66060000Y-55709000D01*
X68940000Y-55749000D02*
X75006000Y-55749000D01*
X59994000Y-55749000D02*
X66060000Y-55749000D01*
X68940000Y-55789000D02*
X75022000Y-55789000D01*
X59978000Y-55789000D02*
X66060000Y-55789000D01*
X68940000Y-55829000D02*
X75037000Y-55829000D01*
X59963000Y-55829000D02*
X66060000Y-55829000D01*
X68940000Y-55869000D02*
X75053000Y-55869000D01*
X59947000Y-55869000D02*
X66060000Y-55869000D01*
X68940000Y-55909000D02*
X75068000Y-55909000D01*
X59932000Y-55909000D02*
X66060000Y-55909000D01*
X68940000Y-55949000D02*
X75082000Y-55949000D01*
X59918000Y-55949000D02*
X66060000Y-55949000D01*
X68940000Y-55989000D02*
X75097000Y-55989000D01*
X59903000Y-55989000D02*
X66060000Y-55989000D01*
X68940000Y-56029000D02*
X75111000Y-56029000D01*
X59889000Y-56029000D02*
X66060000Y-56029000D01*
X68940000Y-56069000D02*
X75125000Y-56069000D01*
X59875000Y-56069000D02*
X66060000Y-56069000D01*
X68940000Y-56109000D02*
X75139000Y-56109000D01*
X59861000Y-56109000D02*
X66060000Y-56109000D01*
X68940000Y-56149000D02*
X75153000Y-56149000D01*
X59847000Y-56149000D02*
X66060000Y-56149000D01*
X68940000Y-56189000D02*
X75166000Y-56189000D01*
X59834000Y-56189000D02*
X66060000Y-56189000D01*
X68940000Y-56229000D02*
X75180000Y-56229000D01*
X59820000Y-56229000D02*
X66060000Y-56229000D01*
X68940000Y-56269000D02*
X75193000Y-56269000D01*
X59807000Y-56269000D02*
X66060000Y-56269000D01*
X68940000Y-56309000D02*
X75205000Y-56309000D01*
X59795000Y-56309000D02*
X66060000Y-56309000D01*
X68940000Y-56349000D02*
X75218000Y-56349000D01*
X59782000Y-56349000D02*
X66060000Y-56349000D01*
X68940000Y-56389000D02*
X75230000Y-56389000D01*
X59770000Y-56389000D02*
X66060000Y-56389000D01*
X68940000Y-56429000D02*
X75242000Y-56429000D01*
X59758000Y-56429000D02*
X66060000Y-56429000D01*
X59746000Y-56469000D02*
X75254000Y-56469000D01*
X59735000Y-56509000D02*
X75265000Y-56509000D01*
X59723000Y-56549000D02*
X75277000Y-56549000D01*
X59712000Y-56589000D02*
X75288000Y-56589000D01*
X59701000Y-56629000D02*
X75299000Y-56629000D01*
X59690000Y-56669000D02*
X75310000Y-56669000D01*
X59680000Y-56709000D02*
X75320000Y-56709000D01*
X59670000Y-56749000D02*
X75330000Y-56749000D01*
X59660000Y-56789000D02*
X75340000Y-56789000D01*
X59650000Y-56829000D02*
X75350000Y-56829000D01*
X59640000Y-56869000D02*
X75360000Y-56869000D01*
X59631000Y-56909000D02*
X75369000Y-56909000D01*
X59622000Y-56949000D02*
X75378000Y-56949000D01*
X59613000Y-56989000D02*
X75387000Y-56989000D01*
X59604000Y-57029000D02*
X75396000Y-57029000D01*
X59595000Y-57069000D02*
X75405000Y-57069000D01*
X59587000Y-57109000D02*
X75413000Y-57109000D01*
X59579000Y-57149000D02*
X75421000Y-57149000D01*
X59571000Y-57189000D02*
X75429000Y-57189000D01*
X59563000Y-57229000D02*
X75437000Y-57229000D01*
X59556000Y-57269000D02*
X75444000Y-57269000D01*
X59548000Y-57309000D02*
X75452000Y-57309000D01*
X59541000Y-57349000D02*
X75459000Y-57349000D01*
X59534000Y-57389000D02*
X75466000Y-57389000D01*
X59528000Y-57429000D02*
X75472000Y-57429000D01*
X59521000Y-57469000D02*
X75479000Y-57469000D01*
X59515000Y-57509000D02*
X75485000Y-57509000D01*
X59509000Y-57549000D02*
X75491000Y-57549000D01*
X59503000Y-57589000D02*
X75497000Y-57589000D01*
X59497000Y-57629000D02*
X75503000Y-57629000D01*
X59492000Y-57669000D02*
X75508000Y-57669000D01*
X59486000Y-57709000D02*
X75514000Y-57709000D01*
X59481000Y-57749000D02*
X75519000Y-57749000D01*
X59476000Y-57789000D02*
X75524000Y-57789000D01*
X59472000Y-57829000D02*
X75528000Y-57829000D01*
X59467000Y-57869000D02*
X75533000Y-57869000D01*
X59463000Y-57909000D02*
X75537000Y-57909000D01*
X59459000Y-57949000D02*
X75541000Y-57949000D01*
X59455000Y-57989000D02*
X75545000Y-57989000D01*
X59451000Y-58029000D02*
X75549000Y-58029000D01*
X59448000Y-58070000D02*
X75552000Y-58070000D01*
X59445000Y-58110000D02*
X75555000Y-58110000D01*
X59442000Y-58150000D02*
X75558000Y-58150000D01*
X59439000Y-58190000D02*
X75561000Y-58190000D01*
X59436000Y-58230000D02*
X75564000Y-58230000D01*
X59434000Y-58270000D02*
X75566000Y-58270000D01*
X59431000Y-58310000D02*
X75569000Y-58310000D01*
X59429000Y-58350000D02*
X75571000Y-58350000D01*
X59427000Y-58390000D02*
X75573000Y-58390000D01*
X59426000Y-58430000D02*
X75574000Y-58430000D01*
X59424000Y-58470000D02*
X75576000Y-58470000D01*
X59423000Y-58510000D02*
X75577000Y-58510000D01*
X59422000Y-58550000D02*
X75578000Y-58550000D01*
X59421000Y-58590000D02*
X75579000Y-58590000D01*
X59420000Y-58630000D02*
X75580000Y-58630000D01*
X59420000Y-58670000D02*
X75580000Y-58670000D01*
X59420000Y-58710000D02*
X75580000Y-58710000D01*
X59419000Y-58750000D02*
X75581000Y-58750000D01*
X75620000Y-58750000D02*
G75*
G03X75620000Y-58750000I-8120000J0D01*
G01*
G04 #@! TO.C,C11*
X106620000Y-58750000D02*
G75*
G03X106620000Y-58750000I-8120000J0D01*
G01*
X90419000Y-58750000D02*
X106581000Y-58750000D01*
X90420000Y-58710000D02*
X106580000Y-58710000D01*
X90420000Y-58670000D02*
X106580000Y-58670000D01*
X90420000Y-58630000D02*
X106580000Y-58630000D01*
X90421000Y-58590000D02*
X106579000Y-58590000D01*
X90422000Y-58550000D02*
X106578000Y-58550000D01*
X90423000Y-58510000D02*
X106577000Y-58510000D01*
X90424000Y-58470000D02*
X106576000Y-58470000D01*
X90426000Y-58430000D02*
X106574000Y-58430000D01*
X90427000Y-58390000D02*
X106573000Y-58390000D01*
X90429000Y-58350000D02*
X106571000Y-58350000D01*
X90431000Y-58310000D02*
X106569000Y-58310000D01*
X90434000Y-58270000D02*
X106566000Y-58270000D01*
X90436000Y-58230000D02*
X106564000Y-58230000D01*
X90439000Y-58190000D02*
X106561000Y-58190000D01*
X90442000Y-58150000D02*
X106558000Y-58150000D01*
X90445000Y-58110000D02*
X106555000Y-58110000D01*
X90448000Y-58070000D02*
X106552000Y-58070000D01*
X90451000Y-58029000D02*
X106549000Y-58029000D01*
X90455000Y-57989000D02*
X106545000Y-57989000D01*
X90459000Y-57949000D02*
X106541000Y-57949000D01*
X90463000Y-57909000D02*
X106537000Y-57909000D01*
X90467000Y-57869000D02*
X106533000Y-57869000D01*
X90472000Y-57829000D02*
X106528000Y-57829000D01*
X90476000Y-57789000D02*
X106524000Y-57789000D01*
X90481000Y-57749000D02*
X106519000Y-57749000D01*
X90486000Y-57709000D02*
X106514000Y-57709000D01*
X90492000Y-57669000D02*
X106508000Y-57669000D01*
X90497000Y-57629000D02*
X106503000Y-57629000D01*
X90503000Y-57589000D02*
X106497000Y-57589000D01*
X90509000Y-57549000D02*
X106491000Y-57549000D01*
X90515000Y-57509000D02*
X106485000Y-57509000D01*
X90521000Y-57469000D02*
X106479000Y-57469000D01*
X90528000Y-57429000D02*
X106472000Y-57429000D01*
X90534000Y-57389000D02*
X106466000Y-57389000D01*
X90541000Y-57349000D02*
X106459000Y-57349000D01*
X90548000Y-57309000D02*
X106452000Y-57309000D01*
X90556000Y-57269000D02*
X106444000Y-57269000D01*
X90563000Y-57229000D02*
X106437000Y-57229000D01*
X90571000Y-57189000D02*
X106429000Y-57189000D01*
X90579000Y-57149000D02*
X106421000Y-57149000D01*
X90587000Y-57109000D02*
X106413000Y-57109000D01*
X90595000Y-57069000D02*
X106405000Y-57069000D01*
X90604000Y-57029000D02*
X106396000Y-57029000D01*
X90613000Y-56989000D02*
X106387000Y-56989000D01*
X90622000Y-56949000D02*
X106378000Y-56949000D01*
X90631000Y-56909000D02*
X106369000Y-56909000D01*
X90640000Y-56869000D02*
X106360000Y-56869000D01*
X90650000Y-56829000D02*
X106350000Y-56829000D01*
X90660000Y-56789000D02*
X106340000Y-56789000D01*
X90670000Y-56749000D02*
X106330000Y-56749000D01*
X90680000Y-56709000D02*
X106320000Y-56709000D01*
X90690000Y-56669000D02*
X106310000Y-56669000D01*
X90701000Y-56629000D02*
X106299000Y-56629000D01*
X90712000Y-56589000D02*
X106288000Y-56589000D01*
X90723000Y-56549000D02*
X106277000Y-56549000D01*
X90735000Y-56509000D02*
X106265000Y-56509000D01*
X90746000Y-56469000D02*
X106254000Y-56469000D01*
X90758000Y-56429000D02*
X97060000Y-56429000D01*
X99940000Y-56429000D02*
X106242000Y-56429000D01*
X90770000Y-56389000D02*
X97060000Y-56389000D01*
X99940000Y-56389000D02*
X106230000Y-56389000D01*
X90782000Y-56349000D02*
X97060000Y-56349000D01*
X99940000Y-56349000D02*
X106218000Y-56349000D01*
X90795000Y-56309000D02*
X97060000Y-56309000D01*
X99940000Y-56309000D02*
X106205000Y-56309000D01*
X90807000Y-56269000D02*
X97060000Y-56269000D01*
X99940000Y-56269000D02*
X106193000Y-56269000D01*
X90820000Y-56229000D02*
X97060000Y-56229000D01*
X99940000Y-56229000D02*
X106180000Y-56229000D01*
X90834000Y-56189000D02*
X97060000Y-56189000D01*
X99940000Y-56189000D02*
X106166000Y-56189000D01*
X90847000Y-56149000D02*
X97060000Y-56149000D01*
X99940000Y-56149000D02*
X106153000Y-56149000D01*
X90861000Y-56109000D02*
X97060000Y-56109000D01*
X99940000Y-56109000D02*
X106139000Y-56109000D01*
X90875000Y-56069000D02*
X97060000Y-56069000D01*
X99940000Y-56069000D02*
X106125000Y-56069000D01*
X90889000Y-56029000D02*
X97060000Y-56029000D01*
X99940000Y-56029000D02*
X106111000Y-56029000D01*
X90903000Y-55989000D02*
X97060000Y-55989000D01*
X99940000Y-55989000D02*
X106097000Y-55989000D01*
X90918000Y-55949000D02*
X97060000Y-55949000D01*
X99940000Y-55949000D02*
X106082000Y-55949000D01*
X90932000Y-55909000D02*
X97060000Y-55909000D01*
X99940000Y-55909000D02*
X106068000Y-55909000D01*
X90947000Y-55869000D02*
X97060000Y-55869000D01*
X99940000Y-55869000D02*
X106053000Y-55869000D01*
X90963000Y-55829000D02*
X97060000Y-55829000D01*
X99940000Y-55829000D02*
X106037000Y-55829000D01*
X90978000Y-55789000D02*
X97060000Y-55789000D01*
X99940000Y-55789000D02*
X106022000Y-55789000D01*
X90994000Y-55749000D02*
X97060000Y-55749000D01*
X99940000Y-55749000D02*
X106006000Y-55749000D01*
X91010000Y-55709000D02*
X97060000Y-55709000D01*
X99940000Y-55709000D02*
X105990000Y-55709000D01*
X91026000Y-55669000D02*
X97060000Y-55669000D01*
X99940000Y-55669000D02*
X105974000Y-55669000D01*
X91043000Y-55629000D02*
X97060000Y-55629000D01*
X99940000Y-55629000D02*
X105957000Y-55629000D01*
X91060000Y-55589000D02*
X97060000Y-55589000D01*
X99940000Y-55589000D02*
X105940000Y-55589000D01*
X91077000Y-55549000D02*
X97060000Y-55549000D01*
X99940000Y-55549000D02*
X105923000Y-55549000D01*
X91094000Y-55509000D02*
X97060000Y-55509000D01*
X99940000Y-55509000D02*
X105906000Y-55509000D01*
X91111000Y-55469000D02*
X97060000Y-55469000D01*
X99940000Y-55469000D02*
X105889000Y-55469000D01*
X91129000Y-55429000D02*
X97060000Y-55429000D01*
X99940000Y-55429000D02*
X105871000Y-55429000D01*
X91147000Y-55389000D02*
X97060000Y-55389000D01*
X99940000Y-55389000D02*
X105853000Y-55389000D01*
X91166000Y-55349000D02*
X97060000Y-55349000D01*
X99940000Y-55349000D02*
X105834000Y-55349000D01*
X91184000Y-55309000D02*
X97060000Y-55309000D01*
X99940000Y-55309000D02*
X105816000Y-55309000D01*
X91203000Y-55269000D02*
X97060000Y-55269000D01*
X99940000Y-55269000D02*
X105797000Y-55269000D01*
X91222000Y-55229000D02*
X97060000Y-55229000D01*
X99940000Y-55229000D02*
X105778000Y-55229000D01*
X91242000Y-55189000D02*
X97060000Y-55189000D01*
X99940000Y-55189000D02*
X105758000Y-55189000D01*
X91261000Y-55149000D02*
X97060000Y-55149000D01*
X99940000Y-55149000D02*
X105739000Y-55149000D01*
X91281000Y-55109000D02*
X97060000Y-55109000D01*
X99940000Y-55109000D02*
X105719000Y-55109000D01*
X91301000Y-55069000D02*
X97060000Y-55069000D01*
X99940000Y-55069000D02*
X105699000Y-55069000D01*
X91322000Y-55029000D02*
X97060000Y-55029000D01*
X99940000Y-55029000D02*
X105678000Y-55029000D01*
X91343000Y-54989000D02*
X97060000Y-54989000D01*
X99940000Y-54989000D02*
X105657000Y-54989000D01*
X91364000Y-54949000D02*
X97060000Y-54949000D01*
X99940000Y-54949000D02*
X105636000Y-54949000D01*
X91385000Y-54909000D02*
X97060000Y-54909000D01*
X99940000Y-54909000D02*
X105615000Y-54909000D01*
X91406000Y-54869000D02*
X97060000Y-54869000D01*
X99940000Y-54869000D02*
X105594000Y-54869000D01*
X91428000Y-54829000D02*
X97060000Y-54829000D01*
X99940000Y-54829000D02*
X105572000Y-54829000D01*
X91451000Y-54789000D02*
X97060000Y-54789000D01*
X99940000Y-54789000D02*
X105549000Y-54789000D01*
X91473000Y-54749000D02*
X97060000Y-54749000D01*
X99940000Y-54749000D02*
X105527000Y-54749000D01*
X91496000Y-54709000D02*
X97060000Y-54709000D01*
X99940000Y-54709000D02*
X105504000Y-54709000D01*
X91519000Y-54669000D02*
X97060000Y-54669000D01*
X99940000Y-54669000D02*
X105481000Y-54669000D01*
X91542000Y-54629000D02*
X97060000Y-54629000D01*
X99940000Y-54629000D02*
X105458000Y-54629000D01*
X91566000Y-54589000D02*
X97060000Y-54589000D01*
X99940000Y-54589000D02*
X105434000Y-54589000D01*
X91590000Y-54549000D02*
X97060000Y-54549000D01*
X99940000Y-54549000D02*
X105410000Y-54549000D01*
X91614000Y-54509000D02*
X97060000Y-54509000D01*
X99940000Y-54509000D02*
X105386000Y-54509000D01*
X91639000Y-54469000D02*
X97060000Y-54469000D01*
X99940000Y-54469000D02*
X105361000Y-54469000D01*
X91664000Y-54429000D02*
X97060000Y-54429000D01*
X99940000Y-54429000D02*
X105336000Y-54429000D01*
X91689000Y-54389000D02*
X97060000Y-54389000D01*
X99940000Y-54389000D02*
X105311000Y-54389000D01*
X91715000Y-54349000D02*
X97060000Y-54349000D01*
X99940000Y-54349000D02*
X105285000Y-54349000D01*
X91741000Y-54309000D02*
X97060000Y-54309000D01*
X99940000Y-54309000D02*
X105259000Y-54309000D01*
X91767000Y-54269000D02*
X97060000Y-54269000D01*
X99940000Y-54269000D02*
X105233000Y-54269000D01*
X91794000Y-54229000D02*
X97060000Y-54229000D01*
X99940000Y-54229000D02*
X105206000Y-54229000D01*
X91821000Y-54189000D02*
X97060000Y-54189000D01*
X99940000Y-54189000D02*
X105179000Y-54189000D01*
X91848000Y-54149000D02*
X97060000Y-54149000D01*
X99940000Y-54149000D02*
X105152000Y-54149000D01*
X91876000Y-54109000D02*
X97060000Y-54109000D01*
X99940000Y-54109000D02*
X105124000Y-54109000D01*
X91904000Y-54069000D02*
X97060000Y-54069000D01*
X99940000Y-54069000D02*
X105096000Y-54069000D01*
X91932000Y-54029000D02*
X97060000Y-54029000D01*
X99940000Y-54029000D02*
X105068000Y-54029000D01*
X91961000Y-53989000D02*
X97060000Y-53989000D01*
X99940000Y-53989000D02*
X105039000Y-53989000D01*
X91990000Y-53949000D02*
X97060000Y-53949000D01*
X99940000Y-53949000D02*
X105010000Y-53949000D01*
X92020000Y-53909000D02*
X97060000Y-53909000D01*
X99940000Y-53909000D02*
X104980000Y-53909000D01*
X92050000Y-53869000D02*
X97060000Y-53869000D01*
X99940000Y-53869000D02*
X104950000Y-53869000D01*
X92080000Y-53829000D02*
X97060000Y-53829000D01*
X99940000Y-53829000D02*
X104920000Y-53829000D01*
X92110000Y-53789000D02*
X97060000Y-53789000D01*
X99940000Y-53789000D02*
X104890000Y-53789000D01*
X92142000Y-53749000D02*
X97060000Y-53749000D01*
X99940000Y-53749000D02*
X104858000Y-53749000D01*
X92173000Y-53709000D02*
X97060000Y-53709000D01*
X99940000Y-53709000D02*
X104827000Y-53709000D01*
X92205000Y-53669000D02*
X97060000Y-53669000D01*
X99940000Y-53669000D02*
X104795000Y-53669000D01*
X92237000Y-53629000D02*
X97060000Y-53629000D01*
X99940000Y-53629000D02*
X104763000Y-53629000D01*
X92270000Y-53589000D02*
X97060000Y-53589000D01*
X99940000Y-53589000D02*
X104730000Y-53589000D01*
X92303000Y-53549000D02*
X104697000Y-53549000D01*
X92337000Y-53509000D02*
X104663000Y-53509000D01*
X92371000Y-53469000D02*
X104629000Y-53469000D01*
X92405000Y-53429000D02*
X104595000Y-53429000D01*
X92440000Y-53389000D02*
X104560000Y-53389000D01*
X92475000Y-53349000D02*
X104525000Y-53349000D01*
X92511000Y-53309000D02*
X104489000Y-53309000D01*
X92548000Y-53269000D02*
X104452000Y-53269000D01*
X92584000Y-53229000D02*
X104416000Y-53229000D01*
X92622000Y-53189000D02*
X104378000Y-53189000D01*
X92660000Y-53149000D02*
X104340000Y-53149000D01*
X92698000Y-53109000D02*
X104302000Y-53109000D01*
X92737000Y-53069000D02*
X104263000Y-53069000D01*
X92776000Y-53029000D02*
X104224000Y-53029000D01*
X92816000Y-52989000D02*
X104184000Y-52989000D01*
X92857000Y-52949000D02*
X104143000Y-52949000D01*
X92898000Y-52909000D02*
X104102000Y-52909000D01*
X92940000Y-52869000D02*
X104060000Y-52869000D01*
X92982000Y-52829000D02*
X104018000Y-52829000D01*
X93025000Y-52789000D02*
X103975000Y-52789000D01*
X93068000Y-52749000D02*
X103932000Y-52749000D01*
X93112000Y-52709000D02*
X103888000Y-52709000D01*
X93157000Y-52669000D02*
X103843000Y-52669000D01*
X93203000Y-52629000D02*
X103797000Y-52629000D01*
X93249000Y-52589000D02*
X103751000Y-52589000D01*
X93296000Y-52549000D02*
X103704000Y-52549000D01*
X93344000Y-52509000D02*
X103656000Y-52509000D01*
X93392000Y-52469000D02*
X103608000Y-52469000D01*
X93441000Y-52429000D02*
X103559000Y-52429000D01*
X93491000Y-52389000D02*
X103509000Y-52389000D01*
X93542000Y-52349000D02*
X103458000Y-52349000D01*
X93594000Y-52309000D02*
X103406000Y-52309000D01*
X93646000Y-52269000D02*
X103354000Y-52269000D01*
X93700000Y-52229000D02*
X103300000Y-52229000D01*
X93754000Y-52189000D02*
X103246000Y-52189000D01*
X93809000Y-52149000D02*
X103191000Y-52149000D01*
X93866000Y-52109000D02*
X103134000Y-52109000D01*
X93923000Y-52069000D02*
X103077000Y-52069000D01*
X93981000Y-52029000D02*
X103019000Y-52029000D01*
X94041000Y-51989000D02*
X102959000Y-51989000D01*
X94102000Y-51949000D02*
X102898000Y-51949000D01*
X94164000Y-51909000D02*
X102836000Y-51909000D01*
X94227000Y-51869000D02*
X102773000Y-51869000D01*
X94291000Y-51829000D02*
X102709000Y-51829000D01*
X94357000Y-51789000D02*
X102643000Y-51789000D01*
X94424000Y-51749000D02*
X102576000Y-51749000D01*
X94493000Y-51709000D02*
X102507000Y-51709000D01*
X94564000Y-51669000D02*
X102436000Y-51669000D01*
X94636000Y-51629000D02*
X102364000Y-51629000D01*
X94710000Y-51589000D02*
X102290000Y-51589000D01*
X94785000Y-51549000D02*
X102215000Y-51549000D01*
X94863000Y-51509000D02*
X102137000Y-51509000D01*
X94943000Y-51469000D02*
X102057000Y-51469000D01*
X95025000Y-51429000D02*
X101975000Y-51429000D01*
X95110000Y-51389000D02*
X101890000Y-51389000D01*
X95197000Y-51349000D02*
X101803000Y-51349000D01*
X95287000Y-51309000D02*
X101713000Y-51309000D01*
X95380000Y-51269000D02*
X101620000Y-51269000D01*
X95476000Y-51229000D02*
X101524000Y-51229000D01*
X95576000Y-51189000D02*
X101424000Y-51189000D01*
X95680000Y-51149000D02*
X101320000Y-51149000D01*
X95789000Y-51109000D02*
X101211000Y-51109000D01*
X95903000Y-51069000D02*
X101097000Y-51069000D01*
X96022000Y-51029000D02*
X100978000Y-51029000D01*
X96149000Y-50989000D02*
X100851000Y-50989000D01*
X96282000Y-50949000D02*
X100718000Y-50949000D01*
X96426000Y-50909000D02*
X100574000Y-50909000D01*
X96580000Y-50869000D02*
X100420000Y-50869000D01*
X96748000Y-50829000D02*
X100252000Y-50829000D01*
X96936000Y-50789000D02*
X100064000Y-50789000D01*
X97149000Y-50749000D02*
X99851000Y-50749000D01*
X97402000Y-50709000D02*
X99598000Y-50709000D01*
X97735000Y-50669000D02*
X99265000Y-50669000D01*
X93945000Y-67439491D02*
X93945000Y-65839491D01*
X93145000Y-66639491D02*
X94745000Y-66639491D01*
G04 #@! TO.C,C12*
X121555000Y-52730000D02*
X121570000Y-52730000D01*
X119430000Y-52730000D02*
X119445000Y-52730000D01*
X121555000Y-57270000D02*
X121570000Y-57270000D01*
X119430000Y-57270000D02*
X119445000Y-57270000D01*
X121570000Y-57270000D02*
X121570000Y-52730000D01*
X119430000Y-57270000D02*
X119430000Y-52730000D01*
G04 #@! TO.C,C13*
X103620000Y-91000000D02*
G75*
G03X103620000Y-91000000I-4120000J0D01*
G01*
X95420000Y-91000000D02*
X103580000Y-91000000D01*
X95420000Y-90960000D02*
X103580000Y-90960000D01*
X95420000Y-90920000D02*
X103580000Y-90920000D01*
X95421000Y-90880000D02*
X103579000Y-90880000D01*
X95423000Y-90840000D02*
X103577000Y-90840000D01*
X95424000Y-90800000D02*
X103576000Y-90800000D01*
X95426000Y-90760000D02*
X103574000Y-90760000D01*
X95429000Y-90720000D02*
X103571000Y-90720000D01*
X95432000Y-90680000D02*
X103568000Y-90680000D01*
X95435000Y-90640000D02*
X103565000Y-90640000D01*
X95439000Y-90600000D02*
X103561000Y-90600000D01*
X95443000Y-90560000D02*
X103557000Y-90560000D01*
X95448000Y-90520000D02*
X103552000Y-90520000D01*
X95452000Y-90480000D02*
X103548000Y-90480000D01*
X95458000Y-90440000D02*
X103542000Y-90440000D01*
X95463000Y-90400000D02*
X103537000Y-90400000D01*
X95470000Y-90360000D02*
X103530000Y-90360000D01*
X95476000Y-90320000D02*
X103524000Y-90320000D01*
X95483000Y-90279000D02*
X103517000Y-90279000D01*
X95490000Y-90239000D02*
X103510000Y-90239000D01*
X95498000Y-90199000D02*
X103502000Y-90199000D01*
X95506000Y-90159000D02*
X103494000Y-90159000D01*
X95515000Y-90119000D02*
X103485000Y-90119000D01*
X95524000Y-90079000D02*
X103476000Y-90079000D01*
X95533000Y-90039000D02*
X103467000Y-90039000D01*
X95543000Y-89999000D02*
X103457000Y-89999000D01*
X95553000Y-89959000D02*
X103447000Y-89959000D01*
X95564000Y-89919000D02*
X103436000Y-89919000D01*
X95575000Y-89879000D02*
X103425000Y-89879000D01*
X95586000Y-89839000D02*
X103414000Y-89839000D01*
X95598000Y-89799000D02*
X103402000Y-89799000D01*
X95611000Y-89759000D02*
X103389000Y-89759000D01*
X95623000Y-89719000D02*
X103377000Y-89719000D01*
X95637000Y-89679000D02*
X103363000Y-89679000D01*
X95650000Y-89639000D02*
X103350000Y-89639000D01*
X95665000Y-89599000D02*
X103335000Y-89599000D01*
X95679000Y-89559000D02*
X103321000Y-89559000D01*
X95695000Y-89519000D02*
X98460000Y-89519000D01*
X100540000Y-89519000D02*
X103305000Y-89519000D01*
X95710000Y-89479000D02*
X98460000Y-89479000D01*
X100540000Y-89479000D02*
X103290000Y-89479000D01*
X95726000Y-89439000D02*
X98460000Y-89439000D01*
X100540000Y-89439000D02*
X103274000Y-89439000D01*
X95743000Y-89399000D02*
X98460000Y-89399000D01*
X100540000Y-89399000D02*
X103257000Y-89399000D01*
X95760000Y-89359000D02*
X98460000Y-89359000D01*
X100540000Y-89359000D02*
X103240000Y-89359000D01*
X95778000Y-89319000D02*
X98460000Y-89319000D01*
X100540000Y-89319000D02*
X103222000Y-89319000D01*
X95796000Y-89279000D02*
X98460000Y-89279000D01*
X100540000Y-89279000D02*
X103204000Y-89279000D01*
X95814000Y-89239000D02*
X98460000Y-89239000D01*
X100540000Y-89239000D02*
X103186000Y-89239000D01*
X95834000Y-89199000D02*
X98460000Y-89199000D01*
X100540000Y-89199000D02*
X103166000Y-89199000D01*
X95853000Y-89159000D02*
X98460000Y-89159000D01*
X100540000Y-89159000D02*
X103147000Y-89159000D01*
X95873000Y-89119000D02*
X98460000Y-89119000D01*
X100540000Y-89119000D02*
X103127000Y-89119000D01*
X95894000Y-89079000D02*
X98460000Y-89079000D01*
X100540000Y-89079000D02*
X103106000Y-89079000D01*
X95916000Y-89039000D02*
X98460000Y-89039000D01*
X100540000Y-89039000D02*
X103084000Y-89039000D01*
X95938000Y-88999000D02*
X98460000Y-88999000D01*
X100540000Y-88999000D02*
X103062000Y-88999000D01*
X95960000Y-88959000D02*
X98460000Y-88959000D01*
X100540000Y-88959000D02*
X103040000Y-88959000D01*
X95983000Y-88919000D02*
X98460000Y-88919000D01*
X100540000Y-88919000D02*
X103017000Y-88919000D01*
X96007000Y-88879000D02*
X98460000Y-88879000D01*
X100540000Y-88879000D02*
X102993000Y-88879000D01*
X96031000Y-88839000D02*
X98460000Y-88839000D01*
X100540000Y-88839000D02*
X102969000Y-88839000D01*
X96056000Y-88799000D02*
X98460000Y-88799000D01*
X100540000Y-88799000D02*
X102944000Y-88799000D01*
X96082000Y-88759000D02*
X98460000Y-88759000D01*
X100540000Y-88759000D02*
X102918000Y-88759000D01*
X96108000Y-88719000D02*
X98460000Y-88719000D01*
X100540000Y-88719000D02*
X102892000Y-88719000D01*
X96135000Y-88679000D02*
X98460000Y-88679000D01*
X100540000Y-88679000D02*
X102865000Y-88679000D01*
X96162000Y-88639000D02*
X98460000Y-88639000D01*
X100540000Y-88639000D02*
X102838000Y-88639000D01*
X96191000Y-88599000D02*
X98460000Y-88599000D01*
X100540000Y-88599000D02*
X102809000Y-88599000D01*
X96220000Y-88559000D02*
X98460000Y-88559000D01*
X100540000Y-88559000D02*
X102780000Y-88559000D01*
X96250000Y-88519000D02*
X98460000Y-88519000D01*
X100540000Y-88519000D02*
X102750000Y-88519000D01*
X96280000Y-88479000D02*
X98460000Y-88479000D01*
X100540000Y-88479000D02*
X102720000Y-88479000D01*
X96311000Y-88439000D02*
X98460000Y-88439000D01*
X100540000Y-88439000D02*
X102689000Y-88439000D01*
X96344000Y-88399000D02*
X98460000Y-88399000D01*
X100540000Y-88399000D02*
X102656000Y-88399000D01*
X96376000Y-88359000D02*
X98460000Y-88359000D01*
X100540000Y-88359000D02*
X102624000Y-88359000D01*
X96410000Y-88319000D02*
X98460000Y-88319000D01*
X100540000Y-88319000D02*
X102590000Y-88319000D01*
X96445000Y-88279000D02*
X98460000Y-88279000D01*
X100540000Y-88279000D02*
X102555000Y-88279000D01*
X96481000Y-88239000D02*
X98460000Y-88239000D01*
X100540000Y-88239000D02*
X102519000Y-88239000D01*
X96517000Y-88199000D02*
X98460000Y-88199000D01*
X100540000Y-88199000D02*
X102483000Y-88199000D01*
X96555000Y-88159000D02*
X98460000Y-88159000D01*
X100540000Y-88159000D02*
X102445000Y-88159000D01*
X96593000Y-88119000D02*
X98460000Y-88119000D01*
X100540000Y-88119000D02*
X102407000Y-88119000D01*
X96633000Y-88079000D02*
X98460000Y-88079000D01*
X100540000Y-88079000D02*
X102367000Y-88079000D01*
X96674000Y-88039000D02*
X98460000Y-88039000D01*
X100540000Y-88039000D02*
X102326000Y-88039000D01*
X96716000Y-87999000D02*
X98460000Y-87999000D01*
X100540000Y-87999000D02*
X102284000Y-87999000D01*
X96759000Y-87959000D02*
X98460000Y-87959000D01*
X100540000Y-87959000D02*
X102241000Y-87959000D01*
X96803000Y-87919000D02*
X98460000Y-87919000D01*
X100540000Y-87919000D02*
X102197000Y-87919000D01*
X96849000Y-87879000D02*
X98460000Y-87879000D01*
X100540000Y-87879000D02*
X102151000Y-87879000D01*
X96896000Y-87839000D02*
X98460000Y-87839000D01*
X100540000Y-87839000D02*
X102104000Y-87839000D01*
X96944000Y-87799000D02*
X98460000Y-87799000D01*
X100540000Y-87799000D02*
X102056000Y-87799000D01*
X96995000Y-87759000D02*
X98460000Y-87759000D01*
X100540000Y-87759000D02*
X102005000Y-87759000D01*
X97046000Y-87719000D02*
X98460000Y-87719000D01*
X100540000Y-87719000D02*
X101954000Y-87719000D01*
X97100000Y-87679000D02*
X98460000Y-87679000D01*
X100540000Y-87679000D02*
X101900000Y-87679000D01*
X97155000Y-87639000D02*
X98460000Y-87639000D01*
X100540000Y-87639000D02*
X101845000Y-87639000D01*
X97213000Y-87599000D02*
X98460000Y-87599000D01*
X100540000Y-87599000D02*
X101787000Y-87599000D01*
X97272000Y-87559000D02*
X98460000Y-87559000D01*
X100540000Y-87559000D02*
X101728000Y-87559000D01*
X97334000Y-87519000D02*
X98460000Y-87519000D01*
X100540000Y-87519000D02*
X101666000Y-87519000D01*
X97398000Y-87479000D02*
X98460000Y-87479000D01*
X100540000Y-87479000D02*
X101602000Y-87479000D01*
X97466000Y-87439000D02*
X101534000Y-87439000D01*
X97536000Y-87399000D02*
X101464000Y-87399000D01*
X97610000Y-87359000D02*
X101390000Y-87359000D01*
X97687000Y-87319000D02*
X101313000Y-87319000D01*
X97769000Y-87279000D02*
X101231000Y-87279000D01*
X97855000Y-87239000D02*
X101145000Y-87239000D01*
X97948000Y-87199000D02*
X101052000Y-87199000D01*
X98047000Y-87159000D02*
X100953000Y-87159000D01*
X98154000Y-87119000D02*
X100846000Y-87119000D01*
X98271000Y-87079000D02*
X100729000Y-87079000D01*
X98402000Y-87039000D02*
X100598000Y-87039000D01*
X98552000Y-86999000D02*
X100448000Y-86999000D01*
X98732000Y-86959000D02*
X100268000Y-86959000D01*
X98967000Y-86919000D02*
X100033000Y-86919000D01*
X97185000Y-95409698D02*
X97185000Y-94609698D01*
X96785000Y-95009698D02*
X97585000Y-95009698D01*
G04 #@! TO.C,D1*
X128530000Y-129860000D02*
X131470000Y-129860000D01*
X128530000Y-129620000D02*
X131470000Y-129620000D01*
X128530000Y-129740000D02*
X131470000Y-129740000D01*
X130000000Y-124180000D02*
X130000000Y-125200000D01*
X130000000Y-131660000D02*
X130000000Y-130640000D01*
X128530000Y-125200000D02*
X128530000Y-130640000D01*
X131470000Y-125200000D02*
X128530000Y-125200000D01*
X131470000Y-130640000D02*
X131470000Y-125200000D01*
X128530000Y-130640000D02*
X131470000Y-130640000D01*
G04 #@! TO.C,D2*
X98530000Y-122640000D02*
X101470000Y-122640000D01*
X101470000Y-122640000D02*
X101470000Y-117200000D01*
X101470000Y-117200000D02*
X98530000Y-117200000D01*
X98530000Y-117200000D02*
X98530000Y-122640000D01*
X100000000Y-123660000D02*
X100000000Y-122640000D01*
X100000000Y-116180000D02*
X100000000Y-117200000D01*
X98530000Y-121740000D02*
X101470000Y-121740000D01*
X98530000Y-121620000D02*
X101470000Y-121620000D01*
X98530000Y-121860000D02*
X101470000Y-121860000D01*
G04 #@! TO.C,D3*
X103530000Y-122640000D02*
X106470000Y-122640000D01*
X106470000Y-122640000D02*
X106470000Y-117200000D01*
X106470000Y-117200000D02*
X103530000Y-117200000D01*
X103530000Y-117200000D02*
X103530000Y-122640000D01*
X105000000Y-123660000D02*
X105000000Y-122640000D01*
X105000000Y-116180000D02*
X105000000Y-117200000D01*
X103530000Y-121740000D02*
X106470000Y-121740000D01*
X103530000Y-121620000D02*
X106470000Y-121620000D01*
X103530000Y-121860000D02*
X106470000Y-121860000D01*
G04 #@! TO.C,D4*
X128220000Y-106510000D02*
X122780000Y-106510000D01*
X122780000Y-106510000D02*
X122780000Y-116250000D01*
X122780000Y-116250000D02*
X128220000Y-116250000D01*
X128220000Y-116250000D02*
X128220000Y-106510000D01*
X125500000Y-105600000D02*
X125500000Y-106510000D01*
X125500000Y-117160000D02*
X125500000Y-116250000D01*
X128220000Y-108055000D02*
X122780000Y-108055000D01*
X128220000Y-108175000D02*
X122780000Y-108175000D01*
X128220000Y-107935000D02*
X122780000Y-107935000D01*
G04 #@! TO.C,D5*
X98421392Y-107557665D02*
G75*
G03X98264484Y-110790000I1078608J-1672335D01*
G01*
X100578608Y-107557665D02*
G75*
G02X100735516Y-110790000I-1078608J-1672335D01*
G01*
X98420163Y-108188870D02*
G75*
G03X98420000Y-110270961I1079837J-1041130D01*
G01*
X100579837Y-108188870D02*
G75*
G02X100580000Y-110270961I-1079837J-1041130D01*
G01*
X98264000Y-110790000D02*
X98420000Y-110790000D01*
X100580000Y-110790000D02*
X100736000Y-110790000D01*
G04 #@! TO.C,D6*
X66140000Y-90530000D02*
X66140000Y-93470000D01*
X66380000Y-90530000D02*
X66380000Y-93470000D01*
X66260000Y-90530000D02*
X66260000Y-93470000D01*
X71820000Y-92000000D02*
X70800000Y-92000000D01*
X64340000Y-92000000D02*
X65360000Y-92000000D01*
X70800000Y-90530000D02*
X65360000Y-90530000D01*
X70800000Y-93470000D02*
X70800000Y-90530000D01*
X65360000Y-93470000D02*
X70800000Y-93470000D01*
X65360000Y-90530000D02*
X65360000Y-93470000D01*
G04 #@! TO.C,D7*
X65360000Y-81030000D02*
X65360000Y-83970000D01*
X65360000Y-83970000D02*
X70800000Y-83970000D01*
X70800000Y-83970000D02*
X70800000Y-81030000D01*
X70800000Y-81030000D02*
X65360000Y-81030000D01*
X64340000Y-82500000D02*
X65360000Y-82500000D01*
X71820000Y-82500000D02*
X70800000Y-82500000D01*
X66260000Y-81030000D02*
X66260000Y-83970000D01*
X66380000Y-81030000D02*
X66380000Y-83970000D01*
X66140000Y-81030000D02*
X66140000Y-83970000D01*
G04 #@! TO.C,D10*
X94140000Y-69030000D02*
X94140000Y-71970000D01*
X94380000Y-69030000D02*
X94380000Y-71970000D01*
X94260000Y-69030000D02*
X94260000Y-71970000D01*
X99820000Y-70500000D02*
X98800000Y-70500000D01*
X92340000Y-70500000D02*
X93360000Y-70500000D01*
X98800000Y-69030000D02*
X93360000Y-69030000D01*
X98800000Y-71970000D02*
X98800000Y-69030000D01*
X93360000Y-71970000D02*
X98800000Y-71970000D01*
X93360000Y-69030000D02*
X93360000Y-71970000D01*
G04 #@! TO.C,D11*
X128470000Y-68700000D02*
X125530000Y-68700000D01*
X125530000Y-68700000D02*
X125530000Y-74140000D01*
X125530000Y-74140000D02*
X128470000Y-74140000D01*
X128470000Y-74140000D02*
X128470000Y-68700000D01*
X127000000Y-67680000D02*
X127000000Y-68700000D01*
X127000000Y-75160000D02*
X127000000Y-74140000D01*
X128470000Y-69600000D02*
X125530000Y-69600000D01*
X128470000Y-69720000D02*
X125530000Y-69720000D01*
X128470000Y-69480000D02*
X125530000Y-69480000D01*
G04 #@! TO.C,D12*
X123970000Y-68700000D02*
X121030000Y-68700000D01*
X121030000Y-68700000D02*
X121030000Y-74140000D01*
X121030000Y-74140000D02*
X123970000Y-74140000D01*
X123970000Y-74140000D02*
X123970000Y-68700000D01*
X122500000Y-67680000D02*
X122500000Y-68700000D01*
X122500000Y-75160000D02*
X122500000Y-74140000D01*
X123970000Y-69600000D02*
X121030000Y-69600000D01*
X123970000Y-69720000D02*
X121030000Y-69720000D01*
X123970000Y-69480000D02*
X121030000Y-69480000D01*
G04 #@! TO.C,D13*
X119470000Y-69480000D02*
X116530000Y-69480000D01*
X119470000Y-69720000D02*
X116530000Y-69720000D01*
X119470000Y-69600000D02*
X116530000Y-69600000D01*
X118000000Y-75160000D02*
X118000000Y-74140000D01*
X118000000Y-67680000D02*
X118000000Y-68700000D01*
X119470000Y-74140000D02*
X119470000Y-68700000D01*
X116530000Y-74140000D02*
X119470000Y-74140000D01*
X116530000Y-68700000D02*
X116530000Y-74140000D01*
X119470000Y-68700000D02*
X116530000Y-68700000D01*
G04 #@! TO.C,D14*
X125360000Y-90970000D02*
X125360000Y-88030000D01*
X125120000Y-90970000D02*
X125120000Y-88030000D01*
X125240000Y-90970000D02*
X125240000Y-88030000D01*
X119680000Y-89500000D02*
X120700000Y-89500000D01*
X127160000Y-89500000D02*
X126140000Y-89500000D01*
X120700000Y-90970000D02*
X126140000Y-90970000D01*
X120700000Y-88030000D02*
X120700000Y-90970000D01*
X126140000Y-88030000D02*
X120700000Y-88030000D01*
X126140000Y-90970000D02*
X126140000Y-88030000D01*
G04 #@! TO.C,D15*
X84420000Y-88670000D02*
X84264000Y-88670000D01*
X86736000Y-88670000D02*
X86580000Y-88670000D01*
X84420163Y-91271130D02*
G75*
G02X84420000Y-89189039I1079837J1041130D01*
G01*
X86579837Y-91271130D02*
G75*
G03X86580000Y-89189039I-1079837J1041130D01*
G01*
X84421392Y-91902335D02*
G75*
G02X84264484Y-88670000I1078608J1672335D01*
G01*
X86578608Y-91902335D02*
G75*
G03X86735516Y-88670000I-1078608J1672335D01*
G01*
G04 #@! TO.C,D16*
X126140000Y-95970000D02*
X126140000Y-93030000D01*
X126140000Y-93030000D02*
X120700000Y-93030000D01*
X120700000Y-93030000D02*
X120700000Y-95970000D01*
X120700000Y-95970000D02*
X126140000Y-95970000D01*
X127160000Y-94500000D02*
X126140000Y-94500000D01*
X119680000Y-94500000D02*
X120700000Y-94500000D01*
X125240000Y-95970000D02*
X125240000Y-93030000D01*
X125120000Y-95970000D02*
X125120000Y-93030000D01*
X125360000Y-95970000D02*
X125360000Y-93030000D01*
G04 #@! TO.C,F1*
X53000000Y-109700000D02*
X53000000Y-112500000D01*
X53000000Y-116500000D02*
X53000000Y-119300000D01*
X75500000Y-116500000D02*
X75500000Y-119300000D01*
X75500000Y-119300000D02*
X53000000Y-119300000D01*
X75500000Y-109700000D02*
X53000000Y-109700000D01*
X75500000Y-109700000D02*
X75500000Y-112500000D01*
G04 #@! TO.C,F2*
X75500000Y-97700000D02*
X75500000Y-100500000D01*
X75500000Y-97700000D02*
X53000000Y-97700000D01*
X75500000Y-107300000D02*
X53000000Y-107300000D01*
X75500000Y-104500000D02*
X75500000Y-107300000D01*
X53000000Y-104500000D02*
X53000000Y-107300000D01*
X53000000Y-97700000D02*
X53000000Y-100500000D01*
G04 #@! TO.C,F3*
X52500000Y-67700000D02*
X52500000Y-70500000D01*
X52500000Y-74500000D02*
X52500000Y-77300000D01*
X75000000Y-74500000D02*
X75000000Y-77300000D01*
X75000000Y-77300000D02*
X52500000Y-77300000D01*
X75000000Y-67700000D02*
X52500000Y-67700000D01*
X75000000Y-67700000D02*
X75000000Y-70500000D01*
G04 #@! TO.C,J1*
X58149845Y-132830353D02*
G75*
G03X58150000Y-134330000I1700155J-749647D01*
G01*
X58149845Y-127750353D02*
G75*
G03X58150000Y-129250000I1700155J-749647D01*
G01*
X51570000Y-136200000D02*
X58980000Y-136200000D01*
X58980000Y-136200000D02*
X58980000Y-125880000D01*
X58980000Y-125880000D02*
X51570000Y-125880000D01*
X51570000Y-125880000D02*
X51570000Y-136200000D01*
X58150000Y-134330000D02*
X58150000Y-135080000D01*
X58150000Y-135080000D02*
X53850000Y-135080000D01*
X53850000Y-135080000D02*
X53850000Y-134330000D01*
X53850000Y-134330000D02*
X53500000Y-134330000D01*
X53500000Y-134330000D02*
X53500000Y-134830000D01*
X53500000Y-134830000D02*
X52500000Y-135080000D01*
X52500000Y-135080000D02*
X52500000Y-132080000D01*
X52500000Y-132080000D02*
X53500000Y-132330000D01*
X53500000Y-132330000D02*
X53500000Y-132830000D01*
X53500000Y-132830000D02*
X53850000Y-132830000D01*
X53850000Y-132830000D02*
X53850000Y-132080000D01*
X53850000Y-132080000D02*
X58150000Y-132080000D01*
X58150000Y-132080000D02*
X58150000Y-132830000D01*
X58150000Y-129250000D02*
X58150000Y-130000000D01*
X58150000Y-130000000D02*
X53850000Y-130000000D01*
X53850000Y-130000000D02*
X53850000Y-129250000D01*
X53850000Y-129250000D02*
X53500000Y-129250000D01*
X53500000Y-129250000D02*
X53500000Y-129750000D01*
X53500000Y-129750000D02*
X52500000Y-130000000D01*
X52500000Y-130000000D02*
X52500000Y-127000000D01*
X52500000Y-127000000D02*
X53500000Y-127250000D01*
X53500000Y-127250000D02*
X53500000Y-127750000D01*
X53500000Y-127750000D02*
X53850000Y-127750000D01*
X53850000Y-127750000D02*
X53850000Y-127000000D01*
X53850000Y-127000000D02*
X58150000Y-127000000D01*
X58150000Y-127000000D02*
X58150000Y-127750000D01*
X52400000Y-136620000D02*
X51150000Y-136620000D01*
X51150000Y-136620000D02*
X51150000Y-134620000D01*
G04 #@! TO.C,J2*
X58149845Y-91830353D02*
G75*
G03X58150000Y-93330000I1700155J-749647D01*
G01*
X58149845Y-86750353D02*
G75*
G03X58150000Y-88250000I1700155J-749647D01*
G01*
X58149845Y-81670353D02*
G75*
G03X58150000Y-83170000I1700155J-749647D01*
G01*
X51570000Y-95200000D02*
X58980000Y-95200000D01*
X58980000Y-95200000D02*
X58980000Y-79800000D01*
X58980000Y-79800000D02*
X51570000Y-79800000D01*
X51570000Y-79800000D02*
X51570000Y-95200000D01*
X58150000Y-93330000D02*
X58150000Y-94080000D01*
X58150000Y-94080000D02*
X53850000Y-94080000D01*
X53850000Y-94080000D02*
X53850000Y-93330000D01*
X53850000Y-93330000D02*
X53500000Y-93330000D01*
X53500000Y-93330000D02*
X53500000Y-93830000D01*
X53500000Y-93830000D02*
X52500000Y-94080000D01*
X52500000Y-94080000D02*
X52500000Y-91080000D01*
X52500000Y-91080000D02*
X53500000Y-91330000D01*
X53500000Y-91330000D02*
X53500000Y-91830000D01*
X53500000Y-91830000D02*
X53850000Y-91830000D01*
X53850000Y-91830000D02*
X53850000Y-91080000D01*
X53850000Y-91080000D02*
X58150000Y-91080000D01*
X58150000Y-91080000D02*
X58150000Y-91830000D01*
X58150000Y-88250000D02*
X58150000Y-89000000D01*
X58150000Y-89000000D02*
X53850000Y-89000000D01*
X53850000Y-89000000D02*
X53850000Y-88250000D01*
X53850000Y-88250000D02*
X53500000Y-88250000D01*
X53500000Y-88250000D02*
X53500000Y-88750000D01*
X53500000Y-88750000D02*
X52500000Y-89000000D01*
X52500000Y-89000000D02*
X52500000Y-86000000D01*
X52500000Y-86000000D02*
X53500000Y-86250000D01*
X53500000Y-86250000D02*
X53500000Y-86750000D01*
X53500000Y-86750000D02*
X53850000Y-86750000D01*
X53850000Y-86750000D02*
X53850000Y-86000000D01*
X53850000Y-86000000D02*
X58150000Y-86000000D01*
X58150000Y-86000000D02*
X58150000Y-86750000D01*
X58150000Y-83170000D02*
X58150000Y-83920000D01*
X58150000Y-83920000D02*
X53850000Y-83920000D01*
X53850000Y-83920000D02*
X53850000Y-83170000D01*
X53850000Y-83170000D02*
X53500000Y-83170000D01*
X53500000Y-83170000D02*
X53500000Y-83670000D01*
X53500000Y-83670000D02*
X52500000Y-83920000D01*
X52500000Y-83920000D02*
X52500000Y-80920000D01*
X52500000Y-80920000D02*
X53500000Y-81170000D01*
X53500000Y-81170000D02*
X53500000Y-81670000D01*
X53500000Y-81670000D02*
X53850000Y-81670000D01*
X53850000Y-81670000D02*
X53850000Y-80920000D01*
X53850000Y-80920000D02*
X58150000Y-80920000D01*
X58150000Y-80920000D02*
X58150000Y-81670000D01*
X52400000Y-95620000D02*
X51150000Y-95620000D01*
X51150000Y-95620000D02*
X51150000Y-93620000D01*
G04 #@! TO.C,J3*
X141850155Y-104749647D02*
G75*
G03X141850000Y-103250000I-1700155J749647D01*
G01*
X141850155Y-109829647D02*
G75*
G03X141850000Y-108330000I-1700155J749647D01*
G01*
X148430000Y-101380000D02*
X141020000Y-101380000D01*
X141020000Y-101380000D02*
X141020000Y-111700000D01*
X141020000Y-111700000D02*
X148430000Y-111700000D01*
X148430000Y-111700000D02*
X148430000Y-101380000D01*
X141850000Y-103250000D02*
X141850000Y-102500000D01*
X141850000Y-102500000D02*
X146150000Y-102500000D01*
X146150000Y-102500000D02*
X146150000Y-103250000D01*
X146150000Y-103250000D02*
X146500000Y-103250000D01*
X146500000Y-103250000D02*
X146500000Y-102750000D01*
X146500000Y-102750000D02*
X147500000Y-102500000D01*
X147500000Y-102500000D02*
X147500000Y-105500000D01*
X147500000Y-105500000D02*
X146500000Y-105250000D01*
X146500000Y-105250000D02*
X146500000Y-104750000D01*
X146500000Y-104750000D02*
X146150000Y-104750000D01*
X146150000Y-104750000D02*
X146150000Y-105500000D01*
X146150000Y-105500000D02*
X141850000Y-105500000D01*
X141850000Y-105500000D02*
X141850000Y-104750000D01*
X141850000Y-108330000D02*
X141850000Y-107580000D01*
X141850000Y-107580000D02*
X146150000Y-107580000D01*
X146150000Y-107580000D02*
X146150000Y-108330000D01*
X146150000Y-108330000D02*
X146500000Y-108330000D01*
X146500000Y-108330000D02*
X146500000Y-107830000D01*
X146500000Y-107830000D02*
X147500000Y-107580000D01*
X147500000Y-107580000D02*
X147500000Y-110580000D01*
X147500000Y-110580000D02*
X146500000Y-110330000D01*
X146500000Y-110330000D02*
X146500000Y-109830000D01*
X146500000Y-109830000D02*
X146150000Y-109830000D01*
X146150000Y-109830000D02*
X146150000Y-110580000D01*
X146150000Y-110580000D02*
X141850000Y-110580000D01*
X141850000Y-110580000D02*
X141850000Y-109830000D01*
X147600000Y-100960000D02*
X148850000Y-100960000D01*
X148850000Y-100960000D02*
X148850000Y-102960000D01*
G04 #@! TO.C,J4*
X148850000Y-84960000D02*
X148850000Y-86960000D01*
X147600000Y-84960000D02*
X148850000Y-84960000D01*
X141850000Y-94580000D02*
X141850000Y-93830000D01*
X146150000Y-94580000D02*
X141850000Y-94580000D01*
X146150000Y-93830000D02*
X146150000Y-94580000D01*
X146500000Y-93830000D02*
X146150000Y-93830000D01*
X146500000Y-94330000D02*
X146500000Y-93830000D01*
X147500000Y-94580000D02*
X146500000Y-94330000D01*
X147500000Y-91580000D02*
X147500000Y-94580000D01*
X146500000Y-91830000D02*
X147500000Y-91580000D01*
X146500000Y-92330000D02*
X146500000Y-91830000D01*
X146150000Y-92330000D02*
X146500000Y-92330000D01*
X146150000Y-91580000D02*
X146150000Y-92330000D01*
X141850000Y-91580000D02*
X146150000Y-91580000D01*
X141850000Y-92330000D02*
X141850000Y-91580000D01*
X141850000Y-89500000D02*
X141850000Y-88750000D01*
X146150000Y-89500000D02*
X141850000Y-89500000D01*
X146150000Y-88750000D02*
X146150000Y-89500000D01*
X146500000Y-88750000D02*
X146150000Y-88750000D01*
X146500000Y-89250000D02*
X146500000Y-88750000D01*
X147500000Y-89500000D02*
X146500000Y-89250000D01*
X147500000Y-86500000D02*
X147500000Y-89500000D01*
X146500000Y-86750000D02*
X147500000Y-86500000D01*
X146500000Y-87250000D02*
X146500000Y-86750000D01*
X146150000Y-87250000D02*
X146500000Y-87250000D01*
X146150000Y-86500000D02*
X146150000Y-87250000D01*
X141850000Y-86500000D02*
X146150000Y-86500000D01*
X141850000Y-87250000D02*
X141850000Y-86500000D01*
X148430000Y-95700000D02*
X148430000Y-85380000D01*
X141020000Y-95700000D02*
X148430000Y-95700000D01*
X141020000Y-85380000D02*
X141020000Y-95700000D01*
X148430000Y-85380000D02*
X141020000Y-85380000D01*
X141850155Y-93829647D02*
G75*
G03X141850000Y-92330000I-1700155J749647D01*
G01*
X141850155Y-88749647D02*
G75*
G03X141850000Y-87250000I-1700155J749647D01*
G01*
G04 #@! TO.C,Q1*
X84350000Y-112530000D02*
X84350000Y-108930000D01*
X84341741Y-112541875D02*
G75*
G02X80050000Y-111550000I-1841741J1811875D01*
G01*
X84327684Y-108921555D02*
G75*
G03X80050000Y-109950000I-1827684J-1808445D01*
G01*
G04 #@! TO.C,Q2*
X138770000Y-67920000D02*
X138770000Y-78160000D01*
X134129000Y-67920000D02*
X134129000Y-78160000D01*
X138770000Y-67920000D02*
X134129000Y-67920000D01*
X138770000Y-78160000D02*
X134129000Y-78160000D01*
X137260000Y-67920000D02*
X137260000Y-78160000D01*
X138770000Y-71190000D02*
X137260000Y-71190000D01*
X138770000Y-74891000D02*
X137260000Y-74891000D01*
G04 #@! TO.C,R1*
X73620000Y-147000000D02*
X72850000Y-147000000D01*
X65540000Y-147000000D02*
X66310000Y-147000000D01*
X72850000Y-145630000D02*
X66310000Y-145630000D01*
X72850000Y-148370000D02*
X72850000Y-145630000D01*
X66310000Y-148370000D02*
X72850000Y-148370000D01*
X66310000Y-145630000D02*
X66310000Y-148370000D01*
G04 #@! TO.C,R2*
X133370000Y-110810000D02*
X130630000Y-110810000D01*
X130630000Y-110810000D02*
X130630000Y-117350000D01*
X130630000Y-117350000D02*
X133370000Y-117350000D01*
X133370000Y-117350000D02*
X133370000Y-110810000D01*
X132000000Y-110040000D02*
X132000000Y-110810000D01*
X132000000Y-118120000D02*
X132000000Y-117350000D01*
G04 #@! TO.C,R3*
X81880000Y-116500000D02*
X82650000Y-116500000D01*
X89960000Y-116500000D02*
X89190000Y-116500000D01*
X82650000Y-117870000D02*
X89190000Y-117870000D01*
X82650000Y-115130000D02*
X82650000Y-117870000D01*
X89190000Y-115130000D02*
X82650000Y-115130000D01*
X89190000Y-117870000D02*
X89190000Y-115130000D01*
G04 #@! TO.C,R4*
X118130000Y-112690000D02*
X120870000Y-112690000D01*
X120870000Y-112690000D02*
X120870000Y-106150000D01*
X120870000Y-106150000D02*
X118130000Y-106150000D01*
X118130000Y-106150000D02*
X118130000Y-112690000D01*
X119500000Y-113460000D02*
X119500000Y-112690000D01*
X119500000Y-105380000D02*
X119500000Y-106150000D01*
G04 #@! TO.C,R5*
X80500000Y-78380000D02*
X80500000Y-79150000D01*
X80500000Y-86460000D02*
X80500000Y-85690000D01*
X79130000Y-79150000D02*
X79130000Y-85690000D01*
X81870000Y-79150000D02*
X79130000Y-79150000D01*
X81870000Y-85690000D02*
X81870000Y-79150000D01*
X79130000Y-85690000D02*
X81870000Y-85690000D01*
G04 #@! TO.C,R19*
X91500000Y-99620000D02*
X91500000Y-98850000D01*
X91500000Y-91540000D02*
X91500000Y-92310000D01*
X92870000Y-98850000D02*
X92870000Y-92310000D01*
X90130000Y-98850000D02*
X92870000Y-98850000D01*
X90130000Y-92310000D02*
X90130000Y-98850000D01*
X92870000Y-92310000D02*
X90130000Y-92310000D01*
G04 #@! TO.C,R10*
X130630000Y-74690000D02*
X133370000Y-74690000D01*
X133370000Y-74690000D02*
X133370000Y-68150000D01*
X133370000Y-68150000D02*
X130630000Y-68150000D01*
X130630000Y-68150000D02*
X130630000Y-74690000D01*
X132000000Y-75460000D02*
X132000000Y-74690000D01*
X132000000Y-67380000D02*
X132000000Y-68150000D01*
G04 #@! TO.C,R11*
X108000000Y-62880000D02*
X108000000Y-63650000D01*
X108000000Y-70960000D02*
X108000000Y-70190000D01*
X106630000Y-63650000D02*
X106630000Y-70190000D01*
X109370000Y-63650000D02*
X106630000Y-63650000D01*
X109370000Y-70190000D02*
X109370000Y-63650000D01*
X106630000Y-70190000D02*
X109370000Y-70190000D01*
G04 #@! TO.C,R12*
X119380000Y-84500000D02*
X120150000Y-84500000D01*
X127460000Y-84500000D02*
X126690000Y-84500000D01*
X120150000Y-85870000D02*
X126690000Y-85870000D01*
X120150000Y-83130000D02*
X120150000Y-85870000D01*
X126690000Y-83130000D02*
X120150000Y-83130000D01*
X126690000Y-85870000D02*
X126690000Y-83130000D01*
G04 #@! TO.C,R13*
X128870000Y-54150000D02*
X126130000Y-54150000D01*
X126130000Y-54150000D02*
X126130000Y-60690000D01*
X126130000Y-60690000D02*
X128870000Y-60690000D01*
X128870000Y-60690000D02*
X128870000Y-54150000D01*
X127500000Y-53380000D02*
X127500000Y-54150000D01*
X127500000Y-61460000D02*
X127500000Y-60690000D01*
G04 #@! TO.C,R15*
X98810000Y-97130000D02*
X98810000Y-99870000D01*
X98810000Y-99870000D02*
X105350000Y-99870000D01*
X105350000Y-99870000D02*
X105350000Y-97130000D01*
X105350000Y-97130000D02*
X98810000Y-97130000D01*
X98040000Y-98500000D02*
X98810000Y-98500000D01*
X106120000Y-98500000D02*
X105350000Y-98500000D01*
G04 #@! TO.C,R99*
X134630000Y-64190000D02*
X137370000Y-64190000D01*
X137370000Y-64190000D02*
X137370000Y-57650000D01*
X137370000Y-57650000D02*
X134630000Y-57650000D01*
X134630000Y-57650000D02*
X134630000Y-64190000D01*
X136000000Y-64960000D02*
X136000000Y-64190000D01*
X136000000Y-56880000D02*
X136000000Y-57650000D01*
D13*
G04 #@! TO.C,TP1*
X137250000Y-93500000D02*
G75*
G03X137250000Y-93500000I-1750000J0D01*
G01*
G04 #@! TO.C,TP2*
X109750000Y-90000000D02*
G75*
G03X109750000Y-90000000I-1750000J0D01*
G01*
G04 #@! TO.C,TP3*
X137250000Y-101000000D02*
G75*
G03X137250000Y-101000000I-1750000J0D01*
G01*
G04 #@! TO.C,TP4*
X93250000Y-109000000D02*
G75*
G03X93250000Y-109000000I-1750000J0D01*
G01*
D12*
G04 #@! TO.C,U1*
X138770000Y-126391000D02*
X137260000Y-126391000D01*
X138770000Y-122690000D02*
X137260000Y-122690000D01*
X137260000Y-119420000D02*
X137260000Y-129660000D01*
X138770000Y-129660000D02*
X134129000Y-129660000D01*
X138770000Y-119420000D02*
X134129000Y-119420000D01*
X134129000Y-119420000D02*
X134129000Y-129660000D01*
X138770000Y-119420000D02*
X138770000Y-129660000D01*
G04 #@! TO.C,U2*
X137327684Y-83921555D02*
G75*
G03X133050000Y-84950000I-1827684J-1808445D01*
G01*
X137341741Y-87541875D02*
G75*
G02X133050000Y-86550000I-1841741J1811875D01*
G01*
X137350000Y-87530000D02*
X137350000Y-83930000D01*
G04 #@! TO.C,RV1*
X134890000Y-145500000D02*
G75*
G03X134890000Y-145500000I-3930000J0D01*
G01*
G04 #@! TO.C,RV2*
X117390000Y-55000000D02*
G75*
G03X117390000Y-55000000I-3930000J0D01*
G01*
G04 #@! TO.C,R16*
X136460000Y-139500000D02*
X135690000Y-139500000D01*
X128380000Y-139500000D02*
X129150000Y-139500000D01*
X135690000Y-138130000D02*
X129150000Y-138130000D01*
X135690000Y-140870000D02*
X135690000Y-138130000D01*
X129150000Y-140870000D02*
X135690000Y-140870000D01*
X129150000Y-138130000D02*
X129150000Y-140870000D01*
G04 #@! TO.C,R17*
X120190000Y-62870000D02*
X120190000Y-60130000D01*
X120190000Y-60130000D02*
X113650000Y-60130000D01*
X113650000Y-60130000D02*
X113650000Y-62870000D01*
X113650000Y-62870000D02*
X120190000Y-62870000D01*
X120960000Y-61500000D02*
X120190000Y-61500000D01*
X112880000Y-61500000D02*
X113650000Y-61500000D01*
G04 #@! TO.C,J5*
X148850000Y-65960000D02*
X148850000Y-67960000D01*
X147600000Y-65960000D02*
X148850000Y-65960000D01*
X141850000Y-80660000D02*
X141850000Y-79910000D01*
X146150000Y-80660000D02*
X141850000Y-80660000D01*
X146150000Y-79910000D02*
X146150000Y-80660000D01*
X146500000Y-79910000D02*
X146150000Y-79910000D01*
X146500000Y-80410000D02*
X146500000Y-79910000D01*
X147500000Y-80660000D02*
X146500000Y-80410000D01*
X147500000Y-77660000D02*
X147500000Y-80660000D01*
X146500000Y-77910000D02*
X147500000Y-77660000D01*
X146500000Y-78410000D02*
X146500000Y-77910000D01*
X146150000Y-78410000D02*
X146500000Y-78410000D01*
X146150000Y-77660000D02*
X146150000Y-78410000D01*
X141850000Y-77660000D02*
X146150000Y-77660000D01*
X141850000Y-78410000D02*
X141850000Y-77660000D01*
X141850000Y-75580000D02*
X141850000Y-74830000D01*
X146150000Y-75580000D02*
X141850000Y-75580000D01*
X146150000Y-74830000D02*
X146150000Y-75580000D01*
X146500000Y-74830000D02*
X146150000Y-74830000D01*
X146500000Y-75330000D02*
X146500000Y-74830000D01*
X147500000Y-75580000D02*
X146500000Y-75330000D01*
X147500000Y-72580000D02*
X147500000Y-75580000D01*
X146500000Y-72830000D02*
X147500000Y-72580000D01*
X146500000Y-73330000D02*
X146500000Y-72830000D01*
X146150000Y-73330000D02*
X146500000Y-73330000D01*
X146150000Y-72580000D02*
X146150000Y-73330000D01*
X141850000Y-72580000D02*
X146150000Y-72580000D01*
X141850000Y-73330000D02*
X141850000Y-72580000D01*
X141850000Y-70500000D02*
X141850000Y-69750000D01*
X146150000Y-70500000D02*
X141850000Y-70500000D01*
X146150000Y-69750000D02*
X146150000Y-70500000D01*
X146500000Y-69750000D02*
X146150000Y-69750000D01*
X146500000Y-70250000D02*
X146500000Y-69750000D01*
X147500000Y-70500000D02*
X146500000Y-70250000D01*
X147500000Y-67500000D02*
X147500000Y-70500000D01*
X146500000Y-67750000D02*
X147500000Y-67500000D01*
X146500000Y-68250000D02*
X146500000Y-67750000D01*
X146150000Y-68250000D02*
X146500000Y-68250000D01*
X146150000Y-67500000D02*
X146150000Y-68250000D01*
X141850000Y-67500000D02*
X146150000Y-67500000D01*
X141850000Y-68250000D02*
X141850000Y-67500000D01*
X148430000Y-81780000D02*
X148430000Y-66380000D01*
X141020000Y-81780000D02*
X148430000Y-81780000D01*
X141020000Y-66380000D02*
X141020000Y-81780000D01*
X148430000Y-66380000D02*
X141020000Y-66380000D01*
X141850155Y-79909647D02*
G75*
G03X141850000Y-78410000I-1700155J749647D01*
G01*
X141850155Y-74829647D02*
G75*
G03X141850000Y-73330000I-1700155J749647D01*
G01*
X141850155Y-69749647D02*
G75*
G03X141850000Y-68250000I-1700155J749647D01*
G01*
G04 #@! TO.C,J6*
X141850155Y-120249647D02*
G75*
G03X141850000Y-118750000I-1700155J749647D01*
G01*
X141850155Y-125329647D02*
G75*
G03X141850000Y-123830000I-1700155J749647D01*
G01*
X141850155Y-130409647D02*
G75*
G03X141850000Y-128910000I-1700155J749647D01*
G01*
X148430000Y-116880000D02*
X141020000Y-116880000D01*
X141020000Y-116880000D02*
X141020000Y-132280000D01*
X141020000Y-132280000D02*
X148430000Y-132280000D01*
X148430000Y-132280000D02*
X148430000Y-116880000D01*
X141850000Y-118750000D02*
X141850000Y-118000000D01*
X141850000Y-118000000D02*
X146150000Y-118000000D01*
X146150000Y-118000000D02*
X146150000Y-118750000D01*
X146150000Y-118750000D02*
X146500000Y-118750000D01*
X146500000Y-118750000D02*
X146500000Y-118250000D01*
X146500000Y-118250000D02*
X147500000Y-118000000D01*
X147500000Y-118000000D02*
X147500000Y-121000000D01*
X147500000Y-121000000D02*
X146500000Y-120750000D01*
X146500000Y-120750000D02*
X146500000Y-120250000D01*
X146500000Y-120250000D02*
X146150000Y-120250000D01*
X146150000Y-120250000D02*
X146150000Y-121000000D01*
X146150000Y-121000000D02*
X141850000Y-121000000D01*
X141850000Y-121000000D02*
X141850000Y-120250000D01*
X141850000Y-123830000D02*
X141850000Y-123080000D01*
X141850000Y-123080000D02*
X146150000Y-123080000D01*
X146150000Y-123080000D02*
X146150000Y-123830000D01*
X146150000Y-123830000D02*
X146500000Y-123830000D01*
X146500000Y-123830000D02*
X146500000Y-123330000D01*
X146500000Y-123330000D02*
X147500000Y-123080000D01*
X147500000Y-123080000D02*
X147500000Y-126080000D01*
X147500000Y-126080000D02*
X146500000Y-125830000D01*
X146500000Y-125830000D02*
X146500000Y-125330000D01*
X146500000Y-125330000D02*
X146150000Y-125330000D01*
X146150000Y-125330000D02*
X146150000Y-126080000D01*
X146150000Y-126080000D02*
X141850000Y-126080000D01*
X141850000Y-126080000D02*
X141850000Y-125330000D01*
X141850000Y-128910000D02*
X141850000Y-128160000D01*
X141850000Y-128160000D02*
X146150000Y-128160000D01*
X146150000Y-128160000D02*
X146150000Y-128910000D01*
X146150000Y-128910000D02*
X146500000Y-128910000D01*
X146500000Y-128910000D02*
X146500000Y-128410000D01*
X146500000Y-128410000D02*
X147500000Y-128160000D01*
X147500000Y-128160000D02*
X147500000Y-131160000D01*
X147500000Y-131160000D02*
X146500000Y-130910000D01*
X146500000Y-130910000D02*
X146500000Y-130410000D01*
X146500000Y-130410000D02*
X146150000Y-130410000D01*
X146150000Y-130410000D02*
X146150000Y-131160000D01*
X146150000Y-131160000D02*
X141850000Y-131160000D01*
X141850000Y-131160000D02*
X141850000Y-130410000D01*
X147600000Y-116460000D02*
X148850000Y-116460000D01*
X148850000Y-116460000D02*
X148850000Y-118460000D01*
G04 #@! TO.C,R6*
X77630000Y-68410000D02*
X82370000Y-68410000D01*
X82370000Y-68410000D02*
X82370000Y-56270000D01*
X82370000Y-56270000D02*
X77630000Y-56270000D01*
X77630000Y-56270000D02*
X77630000Y-68410000D01*
X80000000Y-71060000D02*
X80000000Y-68410000D01*
X80000000Y-53620000D02*
X80000000Y-56270000D01*
G04 #@! TO.C,R7*
X86000000Y-71060000D02*
X86000000Y-68410000D01*
X86000000Y-53620000D02*
X86000000Y-56270000D01*
X88370000Y-68410000D02*
X88370000Y-56270000D01*
X83630000Y-68410000D02*
X88370000Y-68410000D01*
X83630000Y-56270000D02*
X83630000Y-68410000D01*
X88370000Y-56270000D02*
X83630000Y-56270000D01*
G04 #@! TO.C,R8*
X97590000Y-73630000D02*
X97590000Y-78370000D01*
X97590000Y-78370000D02*
X109730000Y-78370000D01*
X109730000Y-78370000D02*
X109730000Y-73630000D01*
X109730000Y-73630000D02*
X97590000Y-73630000D01*
X94940000Y-76000000D02*
X97590000Y-76000000D01*
X112380000Y-76000000D02*
X109730000Y-76000000D01*
G04 #@! TO.C,R14*
X112380000Y-83000000D02*
X109730000Y-83000000D01*
X94940000Y-83000000D02*
X97590000Y-83000000D01*
X109730000Y-80630000D02*
X97590000Y-80630000D01*
X109730000Y-85370000D02*
X109730000Y-80630000D01*
X97590000Y-85370000D02*
X109730000Y-85370000D01*
X97590000Y-80630000D02*
X97590000Y-85370000D01*
G04 #@! TO.C,D8*
D13*
X62711904Y-122602380D02*
X62711904Y-121602380D01*
X62950000Y-121602380D01*
X63092857Y-121650000D01*
X63188095Y-121745238D01*
X63235714Y-121840476D01*
X63283333Y-122030952D01*
X63283333Y-122173809D01*
X63235714Y-122364285D01*
X63188095Y-122459523D01*
X63092857Y-122554761D01*
X62950000Y-122602380D01*
X62711904Y-122602380D01*
X63854761Y-122030952D02*
X63759523Y-121983333D01*
X63711904Y-121935714D01*
X63664285Y-121840476D01*
X63664285Y-121792857D01*
X63711904Y-121697619D01*
X63759523Y-121650000D01*
X63854761Y-121602380D01*
X64045238Y-121602380D01*
X64140476Y-121650000D01*
X64188095Y-121697619D01*
X64235714Y-121792857D01*
X64235714Y-121840476D01*
X64188095Y-121935714D01*
X64140476Y-121983333D01*
X64045238Y-122030952D01*
X63854761Y-122030952D01*
X63759523Y-122078571D01*
X63711904Y-122126190D01*
X63664285Y-122221428D01*
X63664285Y-122411904D01*
X63711904Y-122507142D01*
X63759523Y-122554761D01*
X63854761Y-122602380D01*
X64045238Y-122602380D01*
X64140476Y-122554761D01*
X64188095Y-122507142D01*
X64235714Y-122411904D01*
X64235714Y-122221428D01*
X64188095Y-122126190D01*
X64140476Y-122078571D01*
X64045238Y-122030952D01*
G04 #@! TO.C,C1*
X66833333Y-141857142D02*
X66785714Y-141904761D01*
X66642857Y-141952380D01*
X66547619Y-141952380D01*
X66404761Y-141904761D01*
X66309523Y-141809523D01*
X66261904Y-141714285D01*
X66214285Y-141523809D01*
X66214285Y-141380952D01*
X66261904Y-141190476D01*
X66309523Y-141095238D01*
X66404761Y-141000000D01*
X66547619Y-140952380D01*
X66642857Y-140952380D01*
X66785714Y-141000000D01*
X66833333Y-141047619D01*
X67785714Y-141952380D02*
X67214285Y-141952380D01*
X67500000Y-141952380D02*
X67500000Y-140952380D01*
X67404761Y-141095238D01*
X67309523Y-141190476D01*
X67214285Y-141238095D01*
G04 #@! TO.C,C2*
X103857142Y-129666666D02*
X103904761Y-129714285D01*
X103952380Y-129857142D01*
X103952380Y-129952380D01*
X103904761Y-130095238D01*
X103809523Y-130190476D01*
X103714285Y-130238095D01*
X103523809Y-130285714D01*
X103380952Y-130285714D01*
X103190476Y-130238095D01*
X103095238Y-130190476D01*
X103000000Y-130095238D01*
X102952380Y-129952380D01*
X102952380Y-129857142D01*
X103000000Y-129714285D01*
X103047619Y-129666666D01*
X103047619Y-129285714D02*
X103000000Y-129238095D01*
X102952380Y-129142857D01*
X102952380Y-128904761D01*
X103000000Y-128809523D01*
X103047619Y-128761904D01*
X103142857Y-128714285D01*
X103238095Y-128714285D01*
X103380952Y-128761904D01*
X103952380Y-129333333D01*
X103952380Y-128714285D01*
G04 #@! TO.C,C3*
X80857142Y-129666666D02*
X80904761Y-129714285D01*
X80952380Y-129857142D01*
X80952380Y-129952380D01*
X80904761Y-130095238D01*
X80809523Y-130190476D01*
X80714285Y-130238095D01*
X80523809Y-130285714D01*
X80380952Y-130285714D01*
X80190476Y-130238095D01*
X80095238Y-130190476D01*
X80000000Y-130095238D01*
X79952380Y-129952380D01*
X79952380Y-129857142D01*
X80000000Y-129714285D01*
X80047619Y-129666666D01*
X79952380Y-129333333D02*
X79952380Y-128714285D01*
X80333333Y-129047619D01*
X80333333Y-128904761D01*
X80380952Y-128809523D01*
X80428571Y-128761904D01*
X80523809Y-128714285D01*
X80761904Y-128714285D01*
X80857142Y-128761904D01*
X80904761Y-128809523D01*
X80952380Y-128904761D01*
X80952380Y-129190476D01*
X80904761Y-129285714D01*
X80857142Y-129333333D01*
G04 #@! TO.C,C5*
X137557142Y-133666666D02*
X137604761Y-133714285D01*
X137652380Y-133857142D01*
X137652380Y-133952380D01*
X137604761Y-134095238D01*
X137509523Y-134190476D01*
X137414285Y-134238095D01*
X137223809Y-134285714D01*
X137080952Y-134285714D01*
X136890476Y-134238095D01*
X136795238Y-134190476D01*
X136700000Y-134095238D01*
X136652380Y-133952380D01*
X136652380Y-133857142D01*
X136700000Y-133714285D01*
X136747619Y-133666666D01*
X136652380Y-132761904D02*
X136652380Y-133238095D01*
X137128571Y-133285714D01*
X137080952Y-133238095D01*
X137033333Y-133142857D01*
X137033333Y-132904761D01*
X137080952Y-132809523D01*
X137128571Y-132761904D01*
X137223809Y-132714285D01*
X137461904Y-132714285D01*
X137557142Y-132761904D01*
X137604761Y-132809523D01*
X137652380Y-132904761D01*
X137652380Y-133142857D01*
X137604761Y-133238095D01*
X137557142Y-133285714D01*
G04 #@! TO.C,C6*
X112457142Y-119916666D02*
X112504761Y-119964285D01*
X112552380Y-120107142D01*
X112552380Y-120202380D01*
X112504761Y-120345238D01*
X112409523Y-120440476D01*
X112314285Y-120488095D01*
X112123809Y-120535714D01*
X111980952Y-120535714D01*
X111790476Y-120488095D01*
X111695238Y-120440476D01*
X111600000Y-120345238D01*
X111552380Y-120202380D01*
X111552380Y-120107142D01*
X111600000Y-119964285D01*
X111647619Y-119916666D01*
X111552380Y-119059523D02*
X111552380Y-119250000D01*
X111600000Y-119345238D01*
X111647619Y-119392857D01*
X111790476Y-119488095D01*
X111980952Y-119535714D01*
X112361904Y-119535714D01*
X112457142Y-119488095D01*
X112504761Y-119440476D01*
X112552380Y-119345238D01*
X112552380Y-119154761D01*
X112504761Y-119059523D01*
X112457142Y-119011904D01*
X112361904Y-118964285D01*
X112123809Y-118964285D01*
X112028571Y-119011904D01*
X111980952Y-119059523D01*
X111933333Y-119154761D01*
X111933333Y-119345238D01*
X111980952Y-119440476D01*
X112028571Y-119488095D01*
X112123809Y-119535714D01*
G04 #@! TO.C,C7*
X107957142Y-113916666D02*
X108004761Y-113964285D01*
X108052380Y-114107142D01*
X108052380Y-114202380D01*
X108004761Y-114345238D01*
X107909523Y-114440476D01*
X107814285Y-114488095D01*
X107623809Y-114535714D01*
X107480952Y-114535714D01*
X107290476Y-114488095D01*
X107195238Y-114440476D01*
X107100000Y-114345238D01*
X107052380Y-114202380D01*
X107052380Y-114107142D01*
X107100000Y-113964285D01*
X107147619Y-113916666D01*
X107052380Y-113583333D02*
X107052380Y-112916666D01*
X108052380Y-113345238D01*
G04 #@! TO.C,C8*
X106457142Y-106916666D02*
X106504761Y-106964285D01*
X106552380Y-107107142D01*
X106552380Y-107202380D01*
X106504761Y-107345238D01*
X106409523Y-107440476D01*
X106314285Y-107488095D01*
X106123809Y-107535714D01*
X105980952Y-107535714D01*
X105790476Y-107488095D01*
X105695238Y-107440476D01*
X105600000Y-107345238D01*
X105552380Y-107202380D01*
X105552380Y-107107142D01*
X105600000Y-106964285D01*
X105647619Y-106916666D01*
X105980952Y-106345238D02*
X105933333Y-106440476D01*
X105885714Y-106488095D01*
X105790476Y-106535714D01*
X105742857Y-106535714D01*
X105647619Y-106488095D01*
X105600000Y-106440476D01*
X105552380Y-106345238D01*
X105552380Y-106154761D01*
X105600000Y-106059523D01*
X105647619Y-106011904D01*
X105742857Y-105964285D01*
X105790476Y-105964285D01*
X105885714Y-106011904D01*
X105933333Y-106059523D01*
X105980952Y-106154761D01*
X105980952Y-106345238D01*
X106028571Y-106440476D01*
X106076190Y-106488095D01*
X106171428Y-106535714D01*
X106361904Y-106535714D01*
X106457142Y-106488095D01*
X106504761Y-106440476D01*
X106552380Y-106345238D01*
X106552380Y-106154761D01*
X106504761Y-106059523D01*
X106457142Y-106011904D01*
X106361904Y-105964285D01*
X106171428Y-105964285D01*
X106076190Y-106011904D01*
X106028571Y-106059523D01*
X105980952Y-106154761D01*
G04 #@! TO.C,C9*
X74657142Y-87666666D02*
X74704761Y-87714285D01*
X74752380Y-87857142D01*
X74752380Y-87952380D01*
X74704761Y-88095238D01*
X74609523Y-88190476D01*
X74514285Y-88238095D01*
X74323809Y-88285714D01*
X74180952Y-88285714D01*
X73990476Y-88238095D01*
X73895238Y-88190476D01*
X73800000Y-88095238D01*
X73752380Y-87952380D01*
X73752380Y-87857142D01*
X73800000Y-87714285D01*
X73847619Y-87666666D01*
X74752380Y-87190476D02*
X74752380Y-87000000D01*
X74704761Y-86904761D01*
X74657142Y-86857142D01*
X74514285Y-86761904D01*
X74323809Y-86714285D01*
X73942857Y-86714285D01*
X73847619Y-86761904D01*
X73800000Y-86809523D01*
X73752380Y-86904761D01*
X73752380Y-87095238D01*
X73800000Y-87190476D01*
X73847619Y-87238095D01*
X73942857Y-87285714D01*
X74180952Y-87285714D01*
X74276190Y-87238095D01*
X74323809Y-87190476D01*
X74371428Y-87095238D01*
X74371428Y-86904761D01*
X74323809Y-86809523D01*
X74276190Y-86761904D01*
X74180952Y-86714285D01*
G04 #@! TO.C,C10*
X58607142Y-59392857D02*
X58654761Y-59440476D01*
X58702380Y-59583333D01*
X58702380Y-59678571D01*
X58654761Y-59821428D01*
X58559523Y-59916666D01*
X58464285Y-59964285D01*
X58273809Y-60011904D01*
X58130952Y-60011904D01*
X57940476Y-59964285D01*
X57845238Y-59916666D01*
X57750000Y-59821428D01*
X57702380Y-59678571D01*
X57702380Y-59583333D01*
X57750000Y-59440476D01*
X57797619Y-59392857D01*
X58702380Y-58440476D02*
X58702380Y-59011904D01*
X58702380Y-58726190D02*
X57702380Y-58726190D01*
X57845238Y-58821428D01*
X57940476Y-58916666D01*
X57988095Y-59011904D01*
X57702380Y-57821428D02*
X57702380Y-57726190D01*
X57750000Y-57630952D01*
X57797619Y-57583333D01*
X57892857Y-57535714D01*
X58083333Y-57488095D01*
X58321428Y-57488095D01*
X58511904Y-57535714D01*
X58607142Y-57583333D01*
X58654761Y-57630952D01*
X58702380Y-57726190D01*
X58702380Y-57821428D01*
X58654761Y-57916666D01*
X58607142Y-57964285D01*
X58511904Y-58011904D01*
X58321428Y-58059523D01*
X58083333Y-58059523D01*
X57892857Y-58011904D01*
X57797619Y-57964285D01*
X57750000Y-57916666D01*
X57702380Y-57821428D01*
G04 #@! TO.C,C11*
X89607142Y-59392857D02*
X89654761Y-59440476D01*
X89702380Y-59583333D01*
X89702380Y-59678571D01*
X89654761Y-59821428D01*
X89559523Y-59916666D01*
X89464285Y-59964285D01*
X89273809Y-60011904D01*
X89130952Y-60011904D01*
X88940476Y-59964285D01*
X88845238Y-59916666D01*
X88750000Y-59821428D01*
X88702380Y-59678571D01*
X88702380Y-59583333D01*
X88750000Y-59440476D01*
X88797619Y-59392857D01*
X89702380Y-58440476D02*
X89702380Y-59011904D01*
X89702380Y-58726190D02*
X88702380Y-58726190D01*
X88845238Y-58821428D01*
X88940476Y-58916666D01*
X88988095Y-59011904D01*
X89702380Y-57488095D02*
X89702380Y-58059523D01*
X89702380Y-57773809D02*
X88702380Y-57773809D01*
X88845238Y-57869047D01*
X88940476Y-57964285D01*
X88988095Y-58059523D01*
G04 #@! TO.C,C12*
X118657142Y-55642857D02*
X118704761Y-55690476D01*
X118752380Y-55833333D01*
X118752380Y-55928571D01*
X118704761Y-56071428D01*
X118609523Y-56166666D01*
X118514285Y-56214285D01*
X118323809Y-56261904D01*
X118180952Y-56261904D01*
X117990476Y-56214285D01*
X117895238Y-56166666D01*
X117800000Y-56071428D01*
X117752380Y-55928571D01*
X117752380Y-55833333D01*
X117800000Y-55690476D01*
X117847619Y-55642857D01*
X118752380Y-54690476D02*
X118752380Y-55261904D01*
X118752380Y-54976190D02*
X117752380Y-54976190D01*
X117895238Y-55071428D01*
X117990476Y-55166666D01*
X118038095Y-55261904D01*
X117847619Y-54309523D02*
X117800000Y-54261904D01*
X117752380Y-54166666D01*
X117752380Y-53928571D01*
X117800000Y-53833333D01*
X117847619Y-53785714D01*
X117942857Y-53738095D01*
X118038095Y-53738095D01*
X118180952Y-53785714D01*
X118752380Y-54357142D01*
X118752380Y-53738095D01*
G04 #@! TO.C,C13*
X94607142Y-91642857D02*
X94654761Y-91690476D01*
X94702380Y-91833333D01*
X94702380Y-91928571D01*
X94654761Y-92071428D01*
X94559523Y-92166666D01*
X94464285Y-92214285D01*
X94273809Y-92261904D01*
X94130952Y-92261904D01*
X93940476Y-92214285D01*
X93845238Y-92166666D01*
X93750000Y-92071428D01*
X93702380Y-91928571D01*
X93702380Y-91833333D01*
X93750000Y-91690476D01*
X93797619Y-91642857D01*
X94702380Y-90690476D02*
X94702380Y-91261904D01*
X94702380Y-90976190D02*
X93702380Y-90976190D01*
X93845238Y-91071428D01*
X93940476Y-91166666D01*
X93988095Y-91261904D01*
X93702380Y-90357142D02*
X93702380Y-89738095D01*
X94083333Y-90071428D01*
X94083333Y-89928571D01*
X94130952Y-89833333D01*
X94178571Y-89785714D01*
X94273809Y-89738095D01*
X94511904Y-89738095D01*
X94607142Y-89785714D01*
X94654761Y-89833333D01*
X94702380Y-89928571D01*
X94702380Y-90214285D01*
X94654761Y-90309523D01*
X94607142Y-90357142D01*
G04 #@! TO.C,D1*
X127982380Y-128658095D02*
X126982380Y-128658095D01*
X126982380Y-128420000D01*
X127030000Y-128277142D01*
X127125238Y-128181904D01*
X127220476Y-128134285D01*
X127410952Y-128086666D01*
X127553809Y-128086666D01*
X127744285Y-128134285D01*
X127839523Y-128181904D01*
X127934761Y-128277142D01*
X127982380Y-128420000D01*
X127982380Y-128658095D01*
X127982380Y-127134285D02*
X127982380Y-127705714D01*
X127982380Y-127420000D02*
X126982380Y-127420000D01*
X127125238Y-127515238D01*
X127220476Y-127610476D01*
X127268095Y-127705714D01*
X128352380Y-133261904D02*
X127352380Y-133261904D01*
X128352380Y-132690476D02*
X127780952Y-133119047D01*
X127352380Y-132690476D02*
X127923809Y-133261904D01*
G04 #@! TO.C,D2*
X97982380Y-120658095D02*
X96982380Y-120658095D01*
X96982380Y-120420000D01*
X97030000Y-120277142D01*
X97125238Y-120181904D01*
X97220476Y-120134285D01*
X97410952Y-120086666D01*
X97553809Y-120086666D01*
X97744285Y-120134285D01*
X97839523Y-120181904D01*
X97934761Y-120277142D01*
X97982380Y-120420000D01*
X97982380Y-120658095D01*
X97077619Y-119705714D02*
X97030000Y-119658095D01*
X96982380Y-119562857D01*
X96982380Y-119324761D01*
X97030000Y-119229523D01*
X97077619Y-119181904D01*
X97172857Y-119134285D01*
X97268095Y-119134285D01*
X97410952Y-119181904D01*
X97982380Y-119753333D01*
X97982380Y-119134285D01*
X98352380Y-125261904D02*
X97352380Y-125261904D01*
X98352380Y-124690476D02*
X97780952Y-125119047D01*
X97352380Y-124690476D02*
X97923809Y-125261904D01*
G04 #@! TO.C,D3*
X102982380Y-120658095D02*
X101982380Y-120658095D01*
X101982380Y-120420000D01*
X102030000Y-120277142D01*
X102125238Y-120181904D01*
X102220476Y-120134285D01*
X102410952Y-120086666D01*
X102553809Y-120086666D01*
X102744285Y-120134285D01*
X102839523Y-120181904D01*
X102934761Y-120277142D01*
X102982380Y-120420000D01*
X102982380Y-120658095D01*
X101982380Y-119753333D02*
X101982380Y-119134285D01*
X102363333Y-119467619D01*
X102363333Y-119324761D01*
X102410952Y-119229523D01*
X102458571Y-119181904D01*
X102553809Y-119134285D01*
X102791904Y-119134285D01*
X102887142Y-119181904D01*
X102934761Y-119229523D01*
X102982380Y-119324761D01*
X102982380Y-119610476D01*
X102934761Y-119705714D01*
X102887142Y-119753333D01*
X103352380Y-125261904D02*
X102352380Y-125261904D01*
X103352380Y-124690476D02*
X102780952Y-125119047D01*
X102352380Y-124690476D02*
X102923809Y-125261904D01*
G04 #@! TO.C,D4*
X129672380Y-112118095D02*
X128672380Y-112118095D01*
X128672380Y-111880000D01*
X128720000Y-111737142D01*
X128815238Y-111641904D01*
X128910476Y-111594285D01*
X129100952Y-111546666D01*
X129243809Y-111546666D01*
X129434285Y-111594285D01*
X129529523Y-111641904D01*
X129624761Y-111737142D01*
X129672380Y-111880000D01*
X129672380Y-112118095D01*
X129005714Y-110689523D02*
X129672380Y-110689523D01*
X128624761Y-110927619D02*
X129339047Y-111165714D01*
X129339047Y-110546666D01*
X128552380Y-104021904D02*
X127552380Y-104021904D01*
X128552380Y-103450476D02*
X127980952Y-103879047D01*
X127552380Y-103450476D02*
X128123809Y-104021904D01*
G04 #@! TO.C,D5*
X96992380Y-109968095D02*
X95992380Y-109968095D01*
X95992380Y-109730000D01*
X96040000Y-109587142D01*
X96135238Y-109491904D01*
X96230476Y-109444285D01*
X96420952Y-109396666D01*
X96563809Y-109396666D01*
X96754285Y-109444285D01*
X96849523Y-109491904D01*
X96944761Y-109587142D01*
X96992380Y-109730000D01*
X96992380Y-109968095D01*
X95992380Y-108491904D02*
X95992380Y-108968095D01*
X96468571Y-109015714D01*
X96420952Y-108968095D01*
X96373333Y-108872857D01*
X96373333Y-108634761D01*
X96420952Y-108539523D01*
X96468571Y-108491904D01*
X96563809Y-108444285D01*
X96801904Y-108444285D01*
X96897142Y-108491904D01*
X96944761Y-108539523D01*
X96992380Y-108634761D01*
X96992380Y-108872857D01*
X96944761Y-108968095D01*
X96897142Y-109015714D01*
G04 #@! TO.C,D6*
X67341904Y-89982380D02*
X67341904Y-88982380D01*
X67580000Y-88982380D01*
X67722857Y-89030000D01*
X67818095Y-89125238D01*
X67865714Y-89220476D01*
X67913333Y-89410952D01*
X67913333Y-89553809D01*
X67865714Y-89744285D01*
X67818095Y-89839523D01*
X67722857Y-89934761D01*
X67580000Y-89982380D01*
X67341904Y-89982380D01*
X68770476Y-88982380D02*
X68580000Y-88982380D01*
X68484761Y-89030000D01*
X68437142Y-89077619D01*
X68341904Y-89220476D01*
X68294285Y-89410952D01*
X68294285Y-89791904D01*
X68341904Y-89887142D01*
X68389523Y-89934761D01*
X68484761Y-89982380D01*
X68675238Y-89982380D01*
X68770476Y-89934761D01*
X68818095Y-89887142D01*
X68865714Y-89791904D01*
X68865714Y-89553809D01*
X68818095Y-89458571D01*
X68770476Y-89410952D01*
X68675238Y-89363333D01*
X68484761Y-89363333D01*
X68389523Y-89410952D01*
X68341904Y-89458571D01*
X68294285Y-89553809D01*
X62738095Y-90352380D02*
X62738095Y-89352380D01*
X63309523Y-90352380D02*
X62880952Y-89780952D01*
X63309523Y-89352380D02*
X62738095Y-89923809D01*
G04 #@! TO.C,D7*
X67341904Y-80482380D02*
X67341904Y-79482380D01*
X67580000Y-79482380D01*
X67722857Y-79530000D01*
X67818095Y-79625238D01*
X67865714Y-79720476D01*
X67913333Y-79910952D01*
X67913333Y-80053809D01*
X67865714Y-80244285D01*
X67818095Y-80339523D01*
X67722857Y-80434761D01*
X67580000Y-80482380D01*
X67341904Y-80482380D01*
X68246666Y-79482380D02*
X68913333Y-79482380D01*
X68484761Y-80482380D01*
X62738095Y-80852380D02*
X62738095Y-79852380D01*
X63309523Y-80852380D02*
X62880952Y-80280952D01*
X63309523Y-79852380D02*
X62738095Y-80423809D01*
G04 #@! TO.C,D10*
X94865714Y-68482380D02*
X94865714Y-67482380D01*
X95103809Y-67482380D01*
X95246666Y-67530000D01*
X95341904Y-67625238D01*
X95389523Y-67720476D01*
X95437142Y-67910952D01*
X95437142Y-68053809D01*
X95389523Y-68244285D01*
X95341904Y-68339523D01*
X95246666Y-68434761D01*
X95103809Y-68482380D01*
X94865714Y-68482380D01*
X96389523Y-68482380D02*
X95818095Y-68482380D01*
X96103809Y-68482380D02*
X96103809Y-67482380D01*
X96008571Y-67625238D01*
X95913333Y-67720476D01*
X95818095Y-67768095D01*
X97008571Y-67482380D02*
X97103809Y-67482380D01*
X97199047Y-67530000D01*
X97246666Y-67577619D01*
X97294285Y-67672857D01*
X97341904Y-67863333D01*
X97341904Y-68101428D01*
X97294285Y-68291904D01*
X97246666Y-68387142D01*
X97199047Y-68434761D01*
X97103809Y-68482380D01*
X97008571Y-68482380D01*
X96913333Y-68434761D01*
X96865714Y-68387142D01*
X96818095Y-68291904D01*
X96770476Y-68101428D01*
X96770476Y-67863333D01*
X96818095Y-67672857D01*
X96865714Y-67577619D01*
X96913333Y-67530000D01*
X97008571Y-67482380D01*
X90738095Y-68852380D02*
X90738095Y-67852380D01*
X91309523Y-68852380D02*
X90880952Y-68280952D01*
X91309523Y-67852380D02*
X90738095Y-68423809D01*
G04 #@! TO.C,D11*
X127452380Y-72634285D02*
X126452380Y-72634285D01*
X126452380Y-72396190D01*
X126500000Y-72253333D01*
X126595238Y-72158095D01*
X126690476Y-72110476D01*
X126880952Y-72062857D01*
X127023809Y-72062857D01*
X127214285Y-72110476D01*
X127309523Y-72158095D01*
X127404761Y-72253333D01*
X127452380Y-72396190D01*
X127452380Y-72634285D01*
X127452380Y-71110476D02*
X127452380Y-71681904D01*
X127452380Y-71396190D02*
X126452380Y-71396190D01*
X126595238Y-71491428D01*
X126690476Y-71586666D01*
X126738095Y-71681904D01*
X127452380Y-70158095D02*
X127452380Y-70729523D01*
X127452380Y-70443809D02*
X126452380Y-70443809D01*
X126595238Y-70539047D01*
X126690476Y-70634285D01*
X126738095Y-70729523D01*
X129552380Y-66601904D02*
X128552380Y-66601904D01*
X129552380Y-66030476D02*
X128980952Y-66459047D01*
X128552380Y-66030476D02*
X129123809Y-66601904D01*
G04 #@! TO.C,D12*
X122952380Y-72714285D02*
X121952380Y-72714285D01*
X121952380Y-72476190D01*
X122000000Y-72333333D01*
X122095238Y-72238095D01*
X122190476Y-72190476D01*
X122380952Y-72142857D01*
X122523809Y-72142857D01*
X122714285Y-72190476D01*
X122809523Y-72238095D01*
X122904761Y-72333333D01*
X122952380Y-72476190D01*
X122952380Y-72714285D01*
X122952380Y-71190476D02*
X122952380Y-71761904D01*
X122952380Y-71476190D02*
X121952380Y-71476190D01*
X122095238Y-71571428D01*
X122190476Y-71666666D01*
X122238095Y-71761904D01*
X122047619Y-70809523D02*
X122000000Y-70761904D01*
X121952380Y-70666666D01*
X121952380Y-70428571D01*
X122000000Y-70333333D01*
X122047619Y-70285714D01*
X122142857Y-70238095D01*
X122238095Y-70238095D01*
X122380952Y-70285714D01*
X122952380Y-70857142D01*
X122952380Y-70238095D01*
X125052380Y-66601904D02*
X124052380Y-66601904D01*
X125052380Y-66030476D02*
X124480952Y-66459047D01*
X124052380Y-66030476D02*
X124623809Y-66601904D01*
G04 #@! TO.C,D13*
X118452380Y-72714285D02*
X117452380Y-72714285D01*
X117452380Y-72476190D01*
X117500000Y-72333333D01*
X117595238Y-72238095D01*
X117690476Y-72190476D01*
X117880952Y-72142857D01*
X118023809Y-72142857D01*
X118214285Y-72190476D01*
X118309523Y-72238095D01*
X118404761Y-72333333D01*
X118452380Y-72476190D01*
X118452380Y-72714285D01*
X118452380Y-71190476D02*
X118452380Y-71761904D01*
X118452380Y-71476190D02*
X117452380Y-71476190D01*
X117595238Y-71571428D01*
X117690476Y-71666666D01*
X117738095Y-71761904D01*
X117452380Y-70857142D02*
X117452380Y-70238095D01*
X117833333Y-70571428D01*
X117833333Y-70428571D01*
X117880952Y-70333333D01*
X117928571Y-70285714D01*
X118023809Y-70238095D01*
X118261904Y-70238095D01*
X118357142Y-70285714D01*
X118404761Y-70333333D01*
X118452380Y-70428571D01*
X118452380Y-70714285D01*
X118404761Y-70809523D01*
X118357142Y-70857142D01*
X120552380Y-66601904D02*
X119552380Y-66601904D01*
X120552380Y-66030476D02*
X119980952Y-66459047D01*
X119552380Y-66030476D02*
X120123809Y-66601904D01*
G04 #@! TO.C,D14*
X122205714Y-92422380D02*
X122205714Y-91422380D01*
X122443809Y-91422380D01*
X122586666Y-91470000D01*
X122681904Y-91565238D01*
X122729523Y-91660476D01*
X122777142Y-91850952D01*
X122777142Y-91993809D01*
X122729523Y-92184285D01*
X122681904Y-92279523D01*
X122586666Y-92374761D01*
X122443809Y-92422380D01*
X122205714Y-92422380D01*
X123729523Y-92422380D02*
X123158095Y-92422380D01*
X123443809Y-92422380D02*
X123443809Y-91422380D01*
X123348571Y-91565238D01*
X123253333Y-91660476D01*
X123158095Y-91708095D01*
X124586666Y-91755714D02*
X124586666Y-92422380D01*
X124348571Y-91374761D02*
X124110476Y-92089047D01*
X124729523Y-92089047D01*
X128238095Y-92052380D02*
X128238095Y-91052380D01*
X128809523Y-92052380D02*
X128380952Y-91480952D01*
X128809523Y-91052380D02*
X128238095Y-91623809D01*
G04 #@! TO.C,D15*
X88912380Y-91444285D02*
X87912380Y-91444285D01*
X87912380Y-91206190D01*
X87960000Y-91063333D01*
X88055238Y-90968095D01*
X88150476Y-90920476D01*
X88340952Y-90872857D01*
X88483809Y-90872857D01*
X88674285Y-90920476D01*
X88769523Y-90968095D01*
X88864761Y-91063333D01*
X88912380Y-91206190D01*
X88912380Y-91444285D01*
X88912380Y-89920476D02*
X88912380Y-90491904D01*
X88912380Y-90206190D02*
X87912380Y-90206190D01*
X88055238Y-90301428D01*
X88150476Y-90396666D01*
X88198095Y-90491904D01*
X87912380Y-89015714D02*
X87912380Y-89491904D01*
X88388571Y-89539523D01*
X88340952Y-89491904D01*
X88293333Y-89396666D01*
X88293333Y-89158571D01*
X88340952Y-89063333D01*
X88388571Y-89015714D01*
X88483809Y-88968095D01*
X88721904Y-88968095D01*
X88817142Y-89015714D01*
X88864761Y-89063333D01*
X88912380Y-89158571D01*
X88912380Y-89396666D01*
X88864761Y-89491904D01*
X88817142Y-89539523D01*
G04 #@! TO.C,D16*
X122205714Y-97422380D02*
X122205714Y-96422380D01*
X122443809Y-96422380D01*
X122586666Y-96470000D01*
X122681904Y-96565238D01*
X122729523Y-96660476D01*
X122777142Y-96850952D01*
X122777142Y-96993809D01*
X122729523Y-97184285D01*
X122681904Y-97279523D01*
X122586666Y-97374761D01*
X122443809Y-97422380D01*
X122205714Y-97422380D01*
X123729523Y-97422380D02*
X123158095Y-97422380D01*
X123443809Y-97422380D02*
X123443809Y-96422380D01*
X123348571Y-96565238D01*
X123253333Y-96660476D01*
X123158095Y-96708095D01*
X124586666Y-96422380D02*
X124396190Y-96422380D01*
X124300952Y-96470000D01*
X124253333Y-96517619D01*
X124158095Y-96660476D01*
X124110476Y-96850952D01*
X124110476Y-97231904D01*
X124158095Y-97327142D01*
X124205714Y-97374761D01*
X124300952Y-97422380D01*
X124491428Y-97422380D01*
X124586666Y-97374761D01*
X124634285Y-97327142D01*
X124681904Y-97231904D01*
X124681904Y-96993809D01*
X124634285Y-96898571D01*
X124586666Y-96850952D01*
X124491428Y-96803333D01*
X124300952Y-96803333D01*
X124205714Y-96850952D01*
X124158095Y-96898571D01*
X124110476Y-96993809D01*
X128238095Y-97052380D02*
X128238095Y-96052380D01*
X128809523Y-97052380D02*
X128380952Y-96480952D01*
X128809523Y-96052380D02*
X128238095Y-96623809D01*
G04 #@! TO.C,F1*
X63916666Y-120428571D02*
X63583333Y-120428571D01*
X63583333Y-120952380D02*
X63583333Y-119952380D01*
X64059523Y-119952380D01*
X64964285Y-120952380D02*
X64392857Y-120952380D01*
X64678571Y-120952380D02*
X64678571Y-119952380D01*
X64583333Y-120095238D01*
X64488095Y-120190476D01*
X64392857Y-120238095D01*
G04 #@! TO.C,F2*
X63916666Y-108428571D02*
X63583333Y-108428571D01*
X63583333Y-108952380D02*
X63583333Y-107952380D01*
X64059523Y-107952380D01*
X64392857Y-108047619D02*
X64440476Y-108000000D01*
X64535714Y-107952380D01*
X64773809Y-107952380D01*
X64869047Y-108000000D01*
X64916666Y-108047619D01*
X64964285Y-108142857D01*
X64964285Y-108238095D01*
X64916666Y-108380952D01*
X64345238Y-108952380D01*
X64964285Y-108952380D01*
G04 #@! TO.C,F3*
X63416666Y-78428571D02*
X63083333Y-78428571D01*
X63083333Y-78952380D02*
X63083333Y-77952380D01*
X63559523Y-77952380D01*
X63845238Y-77952380D02*
X64464285Y-77952380D01*
X64130952Y-78333333D01*
X64273809Y-78333333D01*
X64369047Y-78380952D01*
X64416666Y-78428571D01*
X64464285Y-78523809D01*
X64464285Y-78761904D01*
X64416666Y-78857142D01*
X64369047Y-78904761D01*
X64273809Y-78952380D01*
X63988095Y-78952380D01*
X63892857Y-78904761D01*
X63845238Y-78857142D01*
G04 #@! TO.C,J1*
X50102380Y-130373333D02*
X50816666Y-130373333D01*
X50959523Y-130420952D01*
X51054761Y-130516190D01*
X51102380Y-130659047D01*
X51102380Y-130754285D01*
X51102380Y-129373333D02*
X51102380Y-129944761D01*
X51102380Y-129659047D02*
X50102380Y-129659047D01*
X50245238Y-129754285D01*
X50340476Y-129849523D01*
X50388095Y-129944761D01*
G04 #@! TO.C,J2*
X50102380Y-87833333D02*
X50816666Y-87833333D01*
X50959523Y-87880952D01*
X51054761Y-87976190D01*
X51102380Y-88119047D01*
X51102380Y-88214285D01*
X50197619Y-87404761D02*
X50150000Y-87357142D01*
X50102380Y-87261904D01*
X50102380Y-87023809D01*
X50150000Y-86928571D01*
X50197619Y-86880952D01*
X50292857Y-86833333D01*
X50388095Y-86833333D01*
X50530952Y-86880952D01*
X51102380Y-87452380D01*
X51102380Y-86833333D01*
G04 #@! TO.C,J3*
X148802380Y-107873333D02*
X149516666Y-107873333D01*
X149659523Y-107920952D01*
X149754761Y-108016190D01*
X149802380Y-108159047D01*
X149802380Y-108254285D01*
X148802380Y-107492380D02*
X148802380Y-106873333D01*
X149183333Y-107206666D01*
X149183333Y-107063809D01*
X149230952Y-106968571D01*
X149278571Y-106920952D01*
X149373809Y-106873333D01*
X149611904Y-106873333D01*
X149707142Y-106920952D01*
X149754761Y-106968571D01*
X149802380Y-107063809D01*
X149802380Y-107349523D01*
X149754761Y-107444761D01*
X149707142Y-107492380D01*
G04 #@! TO.C,J4*
X148802380Y-91873333D02*
X149516666Y-91873333D01*
X149659523Y-91920952D01*
X149754761Y-92016190D01*
X149802380Y-92159047D01*
X149802380Y-92254285D01*
X149135714Y-90968571D02*
X149802380Y-90968571D01*
X148754761Y-91206666D02*
X149469047Y-91444761D01*
X149469047Y-90825714D01*
G04 #@! TO.C,Q1*
X78647619Y-110825238D02*
X78600000Y-110920476D01*
X78504761Y-111015714D01*
X78361904Y-111158571D01*
X78314285Y-111253809D01*
X78314285Y-111349047D01*
X78552380Y-111301428D02*
X78504761Y-111396666D01*
X78409523Y-111491904D01*
X78219047Y-111539523D01*
X77885714Y-111539523D01*
X77695238Y-111491904D01*
X77600000Y-111396666D01*
X77552380Y-111301428D01*
X77552380Y-111110952D01*
X77600000Y-111015714D01*
X77695238Y-110920476D01*
X77885714Y-110872857D01*
X78219047Y-110872857D01*
X78409523Y-110920476D01*
X78504761Y-111015714D01*
X78552380Y-111110952D01*
X78552380Y-111301428D01*
X78552380Y-109920476D02*
X78552380Y-110491904D01*
X78552380Y-110206190D02*
X77552380Y-110206190D01*
X77695238Y-110301428D01*
X77790476Y-110396666D01*
X77838095Y-110491904D01*
G04 #@! TO.C,Q2*
X140317619Y-73135238D02*
X140270000Y-73230476D01*
X140174761Y-73325714D01*
X140031904Y-73468571D01*
X139984285Y-73563809D01*
X139984285Y-73659047D01*
X140222380Y-73611428D02*
X140174761Y-73706666D01*
X140079523Y-73801904D01*
X139889047Y-73849523D01*
X139555714Y-73849523D01*
X139365238Y-73801904D01*
X139270000Y-73706666D01*
X139222380Y-73611428D01*
X139222380Y-73420952D01*
X139270000Y-73325714D01*
X139365238Y-73230476D01*
X139555714Y-73182857D01*
X139889047Y-73182857D01*
X140079523Y-73230476D01*
X140174761Y-73325714D01*
X140222380Y-73420952D01*
X140222380Y-73611428D01*
X139317619Y-72801904D02*
X139270000Y-72754285D01*
X139222380Y-72659047D01*
X139222380Y-72420952D01*
X139270000Y-72325714D01*
X139317619Y-72278095D01*
X139412857Y-72230476D01*
X139508095Y-72230476D01*
X139650952Y-72278095D01*
X140222380Y-72849523D01*
X140222380Y-72230476D01*
G04 #@! TO.C,R1*
X66333333Y-145082380D02*
X66000000Y-144606190D01*
X65761904Y-145082380D02*
X65761904Y-144082380D01*
X66142857Y-144082380D01*
X66238095Y-144130000D01*
X66285714Y-144177619D01*
X66333333Y-144272857D01*
X66333333Y-144415714D01*
X66285714Y-144510952D01*
X66238095Y-144558571D01*
X66142857Y-144606190D01*
X65761904Y-144606190D01*
X67285714Y-145082380D02*
X66714285Y-145082380D01*
X67000000Y-145082380D02*
X67000000Y-144082380D01*
X66904761Y-144225238D01*
X66809523Y-144320476D01*
X66714285Y-144368095D01*
G04 #@! TO.C,R2*
X134822380Y-114246666D02*
X134346190Y-114580000D01*
X134822380Y-114818095D02*
X133822380Y-114818095D01*
X133822380Y-114437142D01*
X133870000Y-114341904D01*
X133917619Y-114294285D01*
X134012857Y-114246666D01*
X134155714Y-114246666D01*
X134250952Y-114294285D01*
X134298571Y-114341904D01*
X134346190Y-114437142D01*
X134346190Y-114818095D01*
X133917619Y-113865714D02*
X133870000Y-113818095D01*
X133822380Y-113722857D01*
X133822380Y-113484761D01*
X133870000Y-113389523D01*
X133917619Y-113341904D01*
X134012857Y-113294285D01*
X134108095Y-113294285D01*
X134250952Y-113341904D01*
X134822380Y-113913333D01*
X134822380Y-113294285D01*
G04 #@! TO.C,R3*
X85753333Y-119322380D02*
X85420000Y-118846190D01*
X85181904Y-119322380D02*
X85181904Y-118322380D01*
X85562857Y-118322380D01*
X85658095Y-118370000D01*
X85705714Y-118417619D01*
X85753333Y-118512857D01*
X85753333Y-118655714D01*
X85705714Y-118750952D01*
X85658095Y-118798571D01*
X85562857Y-118846190D01*
X85181904Y-118846190D01*
X86086666Y-118322380D02*
X86705714Y-118322380D01*
X86372380Y-118703333D01*
X86515238Y-118703333D01*
X86610476Y-118750952D01*
X86658095Y-118798571D01*
X86705714Y-118893809D01*
X86705714Y-119131904D01*
X86658095Y-119227142D01*
X86610476Y-119274761D01*
X86515238Y-119322380D01*
X86229523Y-119322380D01*
X86134285Y-119274761D01*
X86086666Y-119227142D01*
G04 #@! TO.C,R4*
X117582380Y-109586666D02*
X117106190Y-109920000D01*
X117582380Y-110158095D02*
X116582380Y-110158095D01*
X116582380Y-109777142D01*
X116630000Y-109681904D01*
X116677619Y-109634285D01*
X116772857Y-109586666D01*
X116915714Y-109586666D01*
X117010952Y-109634285D01*
X117058571Y-109681904D01*
X117106190Y-109777142D01*
X117106190Y-110158095D01*
X116915714Y-108729523D02*
X117582380Y-108729523D01*
X116534761Y-108967619D02*
X117249047Y-109205714D01*
X117249047Y-108586666D01*
G04 #@! TO.C,R5*
X78582380Y-82586666D02*
X78106190Y-82920000D01*
X78582380Y-83158095D02*
X77582380Y-83158095D01*
X77582380Y-82777142D01*
X77630000Y-82681904D01*
X77677619Y-82634285D01*
X77772857Y-82586666D01*
X77915714Y-82586666D01*
X78010952Y-82634285D01*
X78058571Y-82681904D01*
X78106190Y-82777142D01*
X78106190Y-83158095D01*
X77582380Y-81681904D02*
X77582380Y-82158095D01*
X78058571Y-82205714D01*
X78010952Y-82158095D01*
X77963333Y-82062857D01*
X77963333Y-81824761D01*
X78010952Y-81729523D01*
X78058571Y-81681904D01*
X78153809Y-81634285D01*
X78391904Y-81634285D01*
X78487142Y-81681904D01*
X78534761Y-81729523D01*
X78582380Y-81824761D01*
X78582380Y-82062857D01*
X78534761Y-82158095D01*
X78487142Y-82205714D01*
G04 #@! TO.C,R19*
X94322380Y-96222857D02*
X93846190Y-96556190D01*
X94322380Y-96794285D02*
X93322380Y-96794285D01*
X93322380Y-96413333D01*
X93370000Y-96318095D01*
X93417619Y-96270476D01*
X93512857Y-96222857D01*
X93655714Y-96222857D01*
X93750952Y-96270476D01*
X93798571Y-96318095D01*
X93846190Y-96413333D01*
X93846190Y-96794285D01*
X94322380Y-95270476D02*
X94322380Y-95841904D01*
X94322380Y-95556190D02*
X93322380Y-95556190D01*
X93465238Y-95651428D01*
X93560476Y-95746666D01*
X93608095Y-95841904D01*
X94322380Y-94794285D02*
X94322380Y-94603809D01*
X94274761Y-94508571D01*
X94227142Y-94460952D01*
X94084285Y-94365714D01*
X93893809Y-94318095D01*
X93512857Y-94318095D01*
X93417619Y-94365714D01*
X93370000Y-94413333D01*
X93322380Y-94508571D01*
X93322380Y-94699047D01*
X93370000Y-94794285D01*
X93417619Y-94841904D01*
X93512857Y-94889523D01*
X93750952Y-94889523D01*
X93846190Y-94841904D01*
X93893809Y-94794285D01*
X93941428Y-94699047D01*
X93941428Y-94508571D01*
X93893809Y-94413333D01*
X93846190Y-94365714D01*
X93750952Y-94318095D01*
G04 #@! TO.C,R10*
X132452380Y-72062857D02*
X131976190Y-72396190D01*
X132452380Y-72634285D02*
X131452380Y-72634285D01*
X131452380Y-72253333D01*
X131500000Y-72158095D01*
X131547619Y-72110476D01*
X131642857Y-72062857D01*
X131785714Y-72062857D01*
X131880952Y-72110476D01*
X131928571Y-72158095D01*
X131976190Y-72253333D01*
X131976190Y-72634285D01*
X132452380Y-71110476D02*
X132452380Y-71681904D01*
X132452380Y-71396190D02*
X131452380Y-71396190D01*
X131595238Y-71491428D01*
X131690476Y-71586666D01*
X131738095Y-71681904D01*
X131452380Y-70491428D02*
X131452380Y-70396190D01*
X131500000Y-70300952D01*
X131547619Y-70253333D01*
X131642857Y-70205714D01*
X131833333Y-70158095D01*
X132071428Y-70158095D01*
X132261904Y-70205714D01*
X132357142Y-70253333D01*
X132404761Y-70300952D01*
X132452380Y-70396190D01*
X132452380Y-70491428D01*
X132404761Y-70586666D01*
X132357142Y-70634285D01*
X132261904Y-70681904D01*
X132071428Y-70729523D01*
X131833333Y-70729523D01*
X131642857Y-70681904D01*
X131547619Y-70634285D01*
X131500000Y-70586666D01*
X131452380Y-70491428D01*
G04 #@! TO.C,R11*
X106082380Y-67562857D02*
X105606190Y-67896190D01*
X106082380Y-68134285D02*
X105082380Y-68134285D01*
X105082380Y-67753333D01*
X105130000Y-67658095D01*
X105177619Y-67610476D01*
X105272857Y-67562857D01*
X105415714Y-67562857D01*
X105510952Y-67610476D01*
X105558571Y-67658095D01*
X105606190Y-67753333D01*
X105606190Y-68134285D01*
X106082380Y-66610476D02*
X106082380Y-67181904D01*
X106082380Y-66896190D02*
X105082380Y-66896190D01*
X105225238Y-66991428D01*
X105320476Y-67086666D01*
X105368095Y-67181904D01*
X106082380Y-65658095D02*
X106082380Y-66229523D01*
X106082380Y-65943809D02*
X105082380Y-65943809D01*
X105225238Y-66039047D01*
X105320476Y-66134285D01*
X105368095Y-66229523D01*
G04 #@! TO.C,R12*
X122777142Y-87322380D02*
X122443809Y-86846190D01*
X122205714Y-87322380D02*
X122205714Y-86322380D01*
X122586666Y-86322380D01*
X122681904Y-86370000D01*
X122729523Y-86417619D01*
X122777142Y-86512857D01*
X122777142Y-86655714D01*
X122729523Y-86750952D01*
X122681904Y-86798571D01*
X122586666Y-86846190D01*
X122205714Y-86846190D01*
X123729523Y-87322380D02*
X123158095Y-87322380D01*
X123443809Y-87322380D02*
X123443809Y-86322380D01*
X123348571Y-86465238D01*
X123253333Y-86560476D01*
X123158095Y-86608095D01*
X124110476Y-86417619D02*
X124158095Y-86370000D01*
X124253333Y-86322380D01*
X124491428Y-86322380D01*
X124586666Y-86370000D01*
X124634285Y-86417619D01*
X124681904Y-86512857D01*
X124681904Y-86608095D01*
X124634285Y-86750952D01*
X124062857Y-87322380D01*
X124681904Y-87322380D01*
G04 #@! TO.C,R13*
X130322380Y-58062857D02*
X129846190Y-58396190D01*
X130322380Y-58634285D02*
X129322380Y-58634285D01*
X129322380Y-58253333D01*
X129370000Y-58158095D01*
X129417619Y-58110476D01*
X129512857Y-58062857D01*
X129655714Y-58062857D01*
X129750952Y-58110476D01*
X129798571Y-58158095D01*
X129846190Y-58253333D01*
X129846190Y-58634285D01*
X130322380Y-57110476D02*
X130322380Y-57681904D01*
X130322380Y-57396190D02*
X129322380Y-57396190D01*
X129465238Y-57491428D01*
X129560476Y-57586666D01*
X129608095Y-57681904D01*
X129322380Y-56777142D02*
X129322380Y-56158095D01*
X129703333Y-56491428D01*
X129703333Y-56348571D01*
X129750952Y-56253333D01*
X129798571Y-56205714D01*
X129893809Y-56158095D01*
X130131904Y-56158095D01*
X130227142Y-56205714D01*
X130274761Y-56253333D01*
X130322380Y-56348571D01*
X130322380Y-56634285D01*
X130274761Y-56729523D01*
X130227142Y-56777142D01*
G04 #@! TO.C,R15*
X101437142Y-96582380D02*
X101103809Y-96106190D01*
X100865714Y-96582380D02*
X100865714Y-95582380D01*
X101246666Y-95582380D01*
X101341904Y-95630000D01*
X101389523Y-95677619D01*
X101437142Y-95772857D01*
X101437142Y-95915714D01*
X101389523Y-96010952D01*
X101341904Y-96058571D01*
X101246666Y-96106190D01*
X100865714Y-96106190D01*
X102389523Y-96582380D02*
X101818095Y-96582380D01*
X102103809Y-96582380D02*
X102103809Y-95582380D01*
X102008571Y-95725238D01*
X101913333Y-95820476D01*
X101818095Y-95868095D01*
X103294285Y-95582380D02*
X102818095Y-95582380D01*
X102770476Y-96058571D01*
X102818095Y-96010952D01*
X102913333Y-95963333D01*
X103151428Y-95963333D01*
X103246666Y-96010952D01*
X103294285Y-96058571D01*
X103341904Y-96153809D01*
X103341904Y-96391904D01*
X103294285Y-96487142D01*
X103246666Y-96534761D01*
X103151428Y-96582380D01*
X102913333Y-96582380D01*
X102818095Y-96534761D01*
X102770476Y-96487142D01*
G04 #@! TO.C,R99*
X134082380Y-61562857D02*
X133606190Y-61896190D01*
X134082380Y-62134285D02*
X133082380Y-62134285D01*
X133082380Y-61753333D01*
X133130000Y-61658095D01*
X133177619Y-61610476D01*
X133272857Y-61562857D01*
X133415714Y-61562857D01*
X133510952Y-61610476D01*
X133558571Y-61658095D01*
X133606190Y-61753333D01*
X133606190Y-62134285D01*
X134082380Y-61086666D02*
X134082380Y-60896190D01*
X134034761Y-60800952D01*
X133987142Y-60753333D01*
X133844285Y-60658095D01*
X133653809Y-60610476D01*
X133272857Y-60610476D01*
X133177619Y-60658095D01*
X133130000Y-60705714D01*
X133082380Y-60800952D01*
X133082380Y-60991428D01*
X133130000Y-61086666D01*
X133177619Y-61134285D01*
X133272857Y-61181904D01*
X133510952Y-61181904D01*
X133606190Y-61134285D01*
X133653809Y-61086666D01*
X133701428Y-60991428D01*
X133701428Y-60800952D01*
X133653809Y-60705714D01*
X133606190Y-60658095D01*
X133510952Y-60610476D01*
X134082380Y-60134285D02*
X134082380Y-59943809D01*
X134034761Y-59848571D01*
X133987142Y-59800952D01*
X133844285Y-59705714D01*
X133653809Y-59658095D01*
X133272857Y-59658095D01*
X133177619Y-59705714D01*
X133130000Y-59753333D01*
X133082380Y-59848571D01*
X133082380Y-60039047D01*
X133130000Y-60134285D01*
X133177619Y-60181904D01*
X133272857Y-60229523D01*
X133510952Y-60229523D01*
X133606190Y-60181904D01*
X133653809Y-60134285D01*
X133701428Y-60039047D01*
X133701428Y-59848571D01*
X133653809Y-59753333D01*
X133606190Y-59705714D01*
X133510952Y-59658095D01*
G04 #@! TO.C,TP1*
X134238095Y-90202380D02*
X134809523Y-90202380D01*
X134523809Y-91202380D02*
X134523809Y-90202380D01*
X135142857Y-91202380D02*
X135142857Y-90202380D01*
X135523809Y-90202380D01*
X135619047Y-90250000D01*
X135666666Y-90297619D01*
X135714285Y-90392857D01*
X135714285Y-90535714D01*
X135666666Y-90630952D01*
X135619047Y-90678571D01*
X135523809Y-90726190D01*
X135142857Y-90726190D01*
X136666666Y-91202380D02*
X136095238Y-91202380D01*
X136380952Y-91202380D02*
X136380952Y-90202380D01*
X136285714Y-90345238D01*
X136190476Y-90440476D01*
X136095238Y-90488095D01*
G04 #@! TO.C,TP2*
X106738095Y-86702380D02*
X107309523Y-86702380D01*
X107023809Y-87702380D02*
X107023809Y-86702380D01*
X107642857Y-87702380D02*
X107642857Y-86702380D01*
X108023809Y-86702380D01*
X108119047Y-86750000D01*
X108166666Y-86797619D01*
X108214285Y-86892857D01*
X108214285Y-87035714D01*
X108166666Y-87130952D01*
X108119047Y-87178571D01*
X108023809Y-87226190D01*
X107642857Y-87226190D01*
X108595238Y-86797619D02*
X108642857Y-86750000D01*
X108738095Y-86702380D01*
X108976190Y-86702380D01*
X109071428Y-86750000D01*
X109119047Y-86797619D01*
X109166666Y-86892857D01*
X109166666Y-86988095D01*
X109119047Y-87130952D01*
X108547619Y-87702380D01*
X109166666Y-87702380D01*
G04 #@! TO.C,TP3*
X134238095Y-97702380D02*
X134809523Y-97702380D01*
X134523809Y-98702380D02*
X134523809Y-97702380D01*
X135142857Y-98702380D02*
X135142857Y-97702380D01*
X135523809Y-97702380D01*
X135619047Y-97750000D01*
X135666666Y-97797619D01*
X135714285Y-97892857D01*
X135714285Y-98035714D01*
X135666666Y-98130952D01*
X135619047Y-98178571D01*
X135523809Y-98226190D01*
X135142857Y-98226190D01*
X136047619Y-97702380D02*
X136666666Y-97702380D01*
X136333333Y-98083333D01*
X136476190Y-98083333D01*
X136571428Y-98130952D01*
X136619047Y-98178571D01*
X136666666Y-98273809D01*
X136666666Y-98511904D01*
X136619047Y-98607142D01*
X136571428Y-98654761D01*
X136476190Y-98702380D01*
X136190476Y-98702380D01*
X136095238Y-98654761D01*
X136047619Y-98607142D01*
G04 #@! TO.C,TP4*
X90238095Y-105702380D02*
X90809523Y-105702380D01*
X90523809Y-106702380D02*
X90523809Y-105702380D01*
X91142857Y-106702380D02*
X91142857Y-105702380D01*
X91523809Y-105702380D01*
X91619047Y-105750000D01*
X91666666Y-105797619D01*
X91714285Y-105892857D01*
X91714285Y-106035714D01*
X91666666Y-106130952D01*
X91619047Y-106178571D01*
X91523809Y-106226190D01*
X91142857Y-106226190D01*
X92571428Y-106035714D02*
X92571428Y-106702380D01*
X92333333Y-105654761D02*
X92095238Y-106369047D01*
X92714285Y-106369047D01*
G04 #@! TO.C,U1*
X139222380Y-125301904D02*
X140031904Y-125301904D01*
X140127142Y-125254285D01*
X140174761Y-125206666D01*
X140222380Y-125111428D01*
X140222380Y-124920952D01*
X140174761Y-124825714D01*
X140127142Y-124778095D01*
X140031904Y-124730476D01*
X139222380Y-124730476D01*
X140222380Y-123730476D02*
X140222380Y-124301904D01*
X140222380Y-124016190D02*
X139222380Y-124016190D01*
X139365238Y-124111428D01*
X139460476Y-124206666D01*
X139508095Y-124301904D01*
G04 #@! TO.C,U2*
X130552380Y-86491904D02*
X131361904Y-86491904D01*
X131457142Y-86444285D01*
X131504761Y-86396666D01*
X131552380Y-86301428D01*
X131552380Y-86110952D01*
X131504761Y-86015714D01*
X131457142Y-85968095D01*
X131361904Y-85920476D01*
X130552380Y-85920476D01*
X130647619Y-85491904D02*
X130600000Y-85444285D01*
X130552380Y-85349047D01*
X130552380Y-85110952D01*
X130600000Y-85015714D01*
X130647619Y-84968095D01*
X130742857Y-84920476D01*
X130838095Y-84920476D01*
X130980952Y-84968095D01*
X131552380Y-85539523D01*
X131552380Y-84920476D01*
G04 #@! TO.C,RV1*
X126352380Y-146095238D02*
X125876190Y-146428571D01*
X126352380Y-146666666D02*
X125352380Y-146666666D01*
X125352380Y-146285714D01*
X125400000Y-146190476D01*
X125447619Y-146142857D01*
X125542857Y-146095238D01*
X125685714Y-146095238D01*
X125780952Y-146142857D01*
X125828571Y-146190476D01*
X125876190Y-146285714D01*
X125876190Y-146666666D01*
X125352380Y-145809523D02*
X126352380Y-145476190D01*
X125352380Y-145142857D01*
X126352380Y-144285714D02*
X126352380Y-144857142D01*
X126352380Y-144571428D02*
X125352380Y-144571428D01*
X125495238Y-144666666D01*
X125590476Y-144761904D01*
X125638095Y-144857142D01*
G04 #@! TO.C,RV2*
X108852380Y-55595238D02*
X108376190Y-55928571D01*
X108852380Y-56166666D02*
X107852380Y-56166666D01*
X107852380Y-55785714D01*
X107900000Y-55690476D01*
X107947619Y-55642857D01*
X108042857Y-55595238D01*
X108185714Y-55595238D01*
X108280952Y-55642857D01*
X108328571Y-55690476D01*
X108376190Y-55785714D01*
X108376190Y-56166666D01*
X107852380Y-55309523D02*
X108852380Y-54976190D01*
X107852380Y-54642857D01*
X107947619Y-54357142D02*
X107900000Y-54309523D01*
X107852380Y-54214285D01*
X107852380Y-53976190D01*
X107900000Y-53880952D01*
X107947619Y-53833333D01*
X108042857Y-53785714D01*
X108138095Y-53785714D01*
X108280952Y-53833333D01*
X108852380Y-54404761D01*
X108852380Y-53785714D01*
G04 #@! TO.C,R16*
X130357142Y-137452380D02*
X130023809Y-136976190D01*
X129785714Y-137452380D02*
X129785714Y-136452380D01*
X130166666Y-136452380D01*
X130261904Y-136500000D01*
X130309523Y-136547619D01*
X130357142Y-136642857D01*
X130357142Y-136785714D01*
X130309523Y-136880952D01*
X130261904Y-136928571D01*
X130166666Y-136976190D01*
X129785714Y-136976190D01*
X131309523Y-137452380D02*
X130738095Y-137452380D01*
X131023809Y-137452380D02*
X131023809Y-136452380D01*
X130928571Y-136595238D01*
X130833333Y-136690476D01*
X130738095Y-136738095D01*
X132166666Y-136452380D02*
X131976190Y-136452380D01*
X131880952Y-136500000D01*
X131833333Y-136547619D01*
X131738095Y-136690476D01*
X131690476Y-136880952D01*
X131690476Y-137261904D01*
X131738095Y-137357142D01*
X131785714Y-137404761D01*
X131880952Y-137452380D01*
X132071428Y-137452380D01*
X132166666Y-137404761D01*
X132214285Y-137357142D01*
X132261904Y-137261904D01*
X132261904Y-137023809D01*
X132214285Y-136928571D01*
X132166666Y-136880952D01*
X132071428Y-136833333D01*
X131880952Y-136833333D01*
X131785714Y-136880952D01*
X131738095Y-136928571D01*
X131690476Y-137023809D01*
G04 #@! TO.C,R17*
X116277142Y-64322380D02*
X115943809Y-63846190D01*
X115705714Y-64322380D02*
X115705714Y-63322380D01*
X116086666Y-63322380D01*
X116181904Y-63370000D01*
X116229523Y-63417619D01*
X116277142Y-63512857D01*
X116277142Y-63655714D01*
X116229523Y-63750952D01*
X116181904Y-63798571D01*
X116086666Y-63846190D01*
X115705714Y-63846190D01*
X117229523Y-64322380D02*
X116658095Y-64322380D01*
X116943809Y-64322380D02*
X116943809Y-63322380D01*
X116848571Y-63465238D01*
X116753333Y-63560476D01*
X116658095Y-63608095D01*
X117562857Y-63322380D02*
X118229523Y-63322380D01*
X117800952Y-64322380D01*
G04 #@! TO.C,J5*
X148802380Y-74413333D02*
X149516666Y-74413333D01*
X149659523Y-74460952D01*
X149754761Y-74556190D01*
X149802380Y-74699047D01*
X149802380Y-74794285D01*
X148802380Y-73460952D02*
X148802380Y-73937142D01*
X149278571Y-73984761D01*
X149230952Y-73937142D01*
X149183333Y-73841904D01*
X149183333Y-73603809D01*
X149230952Y-73508571D01*
X149278571Y-73460952D01*
X149373809Y-73413333D01*
X149611904Y-73413333D01*
X149707142Y-73460952D01*
X149754761Y-73508571D01*
X149802380Y-73603809D01*
X149802380Y-73841904D01*
X149754761Y-73937142D01*
X149707142Y-73984761D01*
G04 #@! TO.C,J6*
X148802380Y-124913333D02*
X149516666Y-124913333D01*
X149659523Y-124960952D01*
X149754761Y-125056190D01*
X149802380Y-125199047D01*
X149802380Y-125294285D01*
X148802380Y-124008571D02*
X148802380Y-124199047D01*
X148850000Y-124294285D01*
X148897619Y-124341904D01*
X149040476Y-124437142D01*
X149230952Y-124484761D01*
X149611904Y-124484761D01*
X149707142Y-124437142D01*
X149754761Y-124389523D01*
X149802380Y-124294285D01*
X149802380Y-124103809D01*
X149754761Y-124008571D01*
X149707142Y-123960952D01*
X149611904Y-123913333D01*
X149373809Y-123913333D01*
X149278571Y-123960952D01*
X149230952Y-124008571D01*
X149183333Y-124103809D01*
X149183333Y-124294285D01*
X149230952Y-124389523D01*
X149278571Y-124437142D01*
X149373809Y-124484761D01*
G04 #@! TO.C,R6*
X77082380Y-62506666D02*
X76606190Y-62840000D01*
X77082380Y-63078095D02*
X76082380Y-63078095D01*
X76082380Y-62697142D01*
X76130000Y-62601904D01*
X76177619Y-62554285D01*
X76272857Y-62506666D01*
X76415714Y-62506666D01*
X76510952Y-62554285D01*
X76558571Y-62601904D01*
X76606190Y-62697142D01*
X76606190Y-63078095D01*
X76082380Y-61649523D02*
X76082380Y-61840000D01*
X76130000Y-61935238D01*
X76177619Y-61982857D01*
X76320476Y-62078095D01*
X76510952Y-62125714D01*
X76891904Y-62125714D01*
X76987142Y-62078095D01*
X77034761Y-62030476D01*
X77082380Y-61935238D01*
X77082380Y-61744761D01*
X77034761Y-61649523D01*
X76987142Y-61601904D01*
X76891904Y-61554285D01*
X76653809Y-61554285D01*
X76558571Y-61601904D01*
X76510952Y-61649523D01*
X76463333Y-61744761D01*
X76463333Y-61935238D01*
X76510952Y-62030476D01*
X76558571Y-62078095D01*
X76653809Y-62125714D01*
G04 #@! TO.C,R7*
X89822380Y-62506666D02*
X89346190Y-62840000D01*
X89822380Y-63078095D02*
X88822380Y-63078095D01*
X88822380Y-62697142D01*
X88870000Y-62601904D01*
X88917619Y-62554285D01*
X89012857Y-62506666D01*
X89155714Y-62506666D01*
X89250952Y-62554285D01*
X89298571Y-62601904D01*
X89346190Y-62697142D01*
X89346190Y-63078095D01*
X88822380Y-62173333D02*
X88822380Y-61506666D01*
X89822380Y-61935238D01*
G04 #@! TO.C,R8*
X103493333Y-73082380D02*
X103160000Y-72606190D01*
X102921904Y-73082380D02*
X102921904Y-72082380D01*
X103302857Y-72082380D01*
X103398095Y-72130000D01*
X103445714Y-72177619D01*
X103493333Y-72272857D01*
X103493333Y-72415714D01*
X103445714Y-72510952D01*
X103398095Y-72558571D01*
X103302857Y-72606190D01*
X102921904Y-72606190D01*
X104064761Y-72510952D02*
X103969523Y-72463333D01*
X103921904Y-72415714D01*
X103874285Y-72320476D01*
X103874285Y-72272857D01*
X103921904Y-72177619D01*
X103969523Y-72130000D01*
X104064761Y-72082380D01*
X104255238Y-72082380D01*
X104350476Y-72130000D01*
X104398095Y-72177619D01*
X104445714Y-72272857D01*
X104445714Y-72320476D01*
X104398095Y-72415714D01*
X104350476Y-72463333D01*
X104255238Y-72510952D01*
X104064761Y-72510952D01*
X103969523Y-72558571D01*
X103921904Y-72606190D01*
X103874285Y-72701428D01*
X103874285Y-72891904D01*
X103921904Y-72987142D01*
X103969523Y-73034761D01*
X104064761Y-73082380D01*
X104255238Y-73082380D01*
X104350476Y-73034761D01*
X104398095Y-72987142D01*
X104445714Y-72891904D01*
X104445714Y-72701428D01*
X104398095Y-72606190D01*
X104350476Y-72558571D01*
X104255238Y-72510952D01*
G04 #@! TO.C,R14*
X103017142Y-80082380D02*
X102683809Y-79606190D01*
X102445714Y-80082380D02*
X102445714Y-79082380D01*
X102826666Y-79082380D01*
X102921904Y-79130000D01*
X102969523Y-79177619D01*
X103017142Y-79272857D01*
X103017142Y-79415714D01*
X102969523Y-79510952D01*
X102921904Y-79558571D01*
X102826666Y-79606190D01*
X102445714Y-79606190D01*
X103969523Y-80082380D02*
X103398095Y-80082380D01*
X103683809Y-80082380D02*
X103683809Y-79082380D01*
X103588571Y-79225238D01*
X103493333Y-79320476D01*
X103398095Y-79368095D01*
X104826666Y-79415714D02*
X104826666Y-80082380D01*
X104588571Y-79034761D02*
X104350476Y-79749047D01*
X104969523Y-79749047D01*
G04 #@! TO.C,JP1*
X85452380Y-100333333D02*
X86166666Y-100333333D01*
X86309523Y-100380952D01*
X86404761Y-100476190D01*
X86452380Y-100619047D01*
X86452380Y-100714285D01*
X86452380Y-99857142D02*
X85452380Y-99857142D01*
X85452380Y-99476190D01*
X85500000Y-99380952D01*
X85547619Y-99333333D01*
X85642857Y-99285714D01*
X85785714Y-99285714D01*
X85880952Y-99333333D01*
X85928571Y-99380952D01*
X85976190Y-99476190D01*
X85976190Y-99857142D01*
X86452380Y-98333333D02*
X86452380Y-98904761D01*
X86452380Y-98619047D02*
X85452380Y-98619047D01*
X85595238Y-98714285D01*
X85690476Y-98809523D01*
X85738095Y-98904761D01*
G04 #@! TD*
M02*
