G04 #@! TF.GenerationSoftware,KiCad,Pcbnew,(5.0.0-3-g5ebb6b6)*
G04 #@! TF.CreationDate,2018-12-23T17:20:18+00:00*
G04 #@! TF.ProjectId,Regulator,526567756C61746F722E6B696361645F,rev?*
G04 #@! TF.SameCoordinates,Original*
G04 #@! TF.FileFunction,Copper,L2,Bot,Signal*
G04 #@! TF.FilePolarity,Positive*
%FSLAX46Y46*%
G04 Gerber Fmt 4.6, Leading zero omitted, Abs format (unit mm)*
G04 Created by KiCad (PCBNEW (5.0.0-3-g5ebb6b6)) date Sunday, 23 December 2018 at 17:20:18*
%MOMM*%
%LPD*%
G01*
G04 APERTURE LIST*
G04 #@! TA.AperFunction,ComponentPad*
%ADD10C,2.000000*%
G04 #@! TD*
G04 #@! TA.AperFunction,ComponentPad*
%ADD11R,2.000000X2.000000*%
G04 #@! TD*
G04 #@! TA.AperFunction,ComponentPad*
%ADD12C,1.600000*%
G04 #@! TD*
G04 #@! TA.AperFunction,ComponentPad*
%ADD13C,4.000000*%
G04 #@! TD*
G04 #@! TA.AperFunction,ComponentPad*
%ADD14R,4.000000X4.000000*%
G04 #@! TD*
G04 #@! TA.AperFunction,ComponentPad*
%ADD15R,1.600000X1.600000*%
G04 #@! TD*
G04 #@! TA.AperFunction,ComponentPad*
%ADD16C,2.400000*%
G04 #@! TD*
G04 #@! TA.AperFunction,ComponentPad*
%ADD17R,2.400000X2.400000*%
G04 #@! TD*
G04 #@! TA.AperFunction,ComponentPad*
%ADD18O,2.200000X2.200000*%
G04 #@! TD*
G04 #@! TA.AperFunction,ComponentPad*
%ADD19R,2.200000X2.200000*%
G04 #@! TD*
G04 #@! TA.AperFunction,ComponentPad*
%ADD20R,3.200000X3.200000*%
G04 #@! TD*
G04 #@! TA.AperFunction,ComponentPad*
%ADD21O,3.200000X3.200000*%
G04 #@! TD*
G04 #@! TA.AperFunction,ComponentPad*
%ADD22R,1.800000X1.800000*%
G04 #@! TD*
G04 #@! TA.AperFunction,ComponentPad*
%ADD23C,1.800000*%
G04 #@! TD*
G04 #@! TA.AperFunction,ComponentPad*
%ADD24C,3.000000*%
G04 #@! TD*
G04 #@! TA.AperFunction,ComponentPad*
%ADD25R,3.600000X1.800000*%
G04 #@! TD*
G04 #@! TA.AperFunction,ComponentPad*
%ADD26O,3.600000X1.800000*%
G04 #@! TD*
G04 #@! TA.AperFunction,Conductor*
%ADD27C,0.100000*%
G04 #@! TD*
G04 #@! TA.AperFunction,ComponentPad*
%ADD28C,1.100000*%
G04 #@! TD*
G04 #@! TA.AperFunction,ComponentPad*
%ADD29R,1.800000X1.100000*%
G04 #@! TD*
G04 #@! TA.AperFunction,ComponentPad*
%ADD30R,2.000000X1.905000*%
G04 #@! TD*
G04 #@! TA.AperFunction,ComponentPad*
%ADD31O,2.000000X1.905000*%
G04 #@! TD*
G04 #@! TA.AperFunction,ComponentPad*
%ADD32O,1.600000X1.600000*%
G04 #@! TD*
G04 #@! TA.AperFunction,ComponentPad*
%ADD33C,2.800000*%
G04 #@! TD*
G04 #@! TA.AperFunction,ComponentPad*
%ADD34C,1.260000*%
G04 #@! TD*
G04 #@! TA.AperFunction,ComponentPad*
%ADD35O,2.400000X2.400000*%
G04 #@! TD*
G04 #@! TA.AperFunction,ComponentPad*
%ADD36R,1.998980X1.998980*%
G04 #@! TD*
G04 #@! TA.AperFunction,ComponentPad*
%ADD37C,1.998980*%
G04 #@! TD*
G04 #@! TA.AperFunction,Conductor*
%ADD38C,2.000000*%
G04 #@! TD*
G04 #@! TA.AperFunction,Conductor*
%ADD39C,1.000000*%
G04 #@! TD*
G04 APERTURE END LIST*
D10*
G04 #@! TO.P,D8,3*
G04 #@! TO.N,+VDC*
X64700000Y-126200000D03*
G04 #@! TO.P,D8,4*
G04 #@! TO.N,Net-(D8-Pad4)*
X64700000Y-137000000D03*
D11*
G04 #@! TO.P,D8,1*
G04 #@! TO.N,REG3*
X75500000Y-137000000D03*
D10*
G04 #@! TO.P,D8,2*
G04 #@! TO.N,Net-(C1-Pad2)*
X75400000Y-126200000D03*
G04 #@! TD*
D12*
G04 #@! TO.P,C1,1*
G04 #@! TO.N,Net-(C1-Pad1)*
X74500000Y-142500000D03*
G04 #@! TO.P,C1,2*
G04 #@! TO.N,Net-(C1-Pad2)*
X69500000Y-142500000D03*
G04 #@! TD*
D13*
G04 #@! TO.P,C2,2*
G04 #@! TO.N,+VDC*
X113500000Y-132500000D03*
D14*
G04 #@! TO.P,C2,1*
G04 #@! TO.N,REG3*
X113500000Y-142500000D03*
G04 #@! TD*
G04 #@! TO.P,C3,1*
G04 #@! TO.N,REG3*
X90500000Y-142500000D03*
D13*
G04 #@! TO.P,C3,2*
G04 #@! TO.N,+VDC*
X90500000Y-132500000D03*
G04 #@! TD*
D12*
G04 #@! TO.P,C5,1*
G04 #@! TO.N,REG3*
X135000000Y-131000000D03*
G04 #@! TO.P,C5,2*
G04 #@! TO.N,+VDC*
X135000000Y-136000000D03*
G04 #@! TD*
D15*
G04 #@! TO.P,C6,1*
G04 #@! TO.N,REG1*
X116500000Y-121000000D03*
D12*
G04 #@! TO.P,C6,2*
G04 #@! TO.N,+VDC*
X116500000Y-118500000D03*
G04 #@! TD*
G04 #@! TO.P,C7,2*
G04 #@! TO.N,+VDC*
X112000000Y-112500000D03*
D15*
G04 #@! TO.P,C7,1*
G04 #@! TO.N,Net-(C7-Pad1)*
X112000000Y-115000000D03*
G04 #@! TD*
G04 #@! TO.P,C8,1*
G04 #@! TO.N,REG2*
X110500000Y-108000000D03*
D12*
G04 #@! TO.P,C8,2*
G04 #@! TO.N,+VDC*
X110500000Y-105500000D03*
G04 #@! TD*
G04 #@! TO.P,C9,2*
G04 #@! TO.N,Net-(C9-Pad2)*
X76500000Y-85000000D03*
G04 #@! TO.P,C9,1*
G04 #@! TO.N,Net-(C9-Pad1)*
X76500000Y-90000000D03*
G04 #@! TD*
D16*
G04 #@! TO.P,C10,2*
G04 #@! TO.N,Net-(C10-Pad2)*
X67500000Y-55000000D03*
D17*
G04 #@! TO.P,C10,1*
G04 #@! TO.N,MOS2*
X67500000Y-62500000D03*
G04 #@! TD*
G04 #@! TO.P,C11,1*
G04 #@! TO.N,Net-(C10-Pad2)*
X98500000Y-62500000D03*
D16*
G04 #@! TO.P,C11,2*
G04 #@! TO.N,GNDA*
X98500000Y-55000000D03*
G04 #@! TD*
D12*
G04 #@! TO.P,C12,2*
G04 #@! TO.N,GNDA*
X120500000Y-52500000D03*
G04 #@! TO.P,C12,1*
G04 #@! TO.N,Net-(C12-Pad1)*
X120500000Y-57500000D03*
G04 #@! TD*
D15*
G04 #@! TO.P,C13,1*
G04 #@! TO.N,Net-(C13-Pad1)*
X99500000Y-93500000D03*
D12*
G04 #@! TO.P,C13,2*
G04 #@! TO.N,GNDA*
X99500000Y-88500000D03*
G04 #@! TD*
D18*
G04 #@! TO.P,D1,2*
G04 #@! TO.N,REG2*
X130000000Y-122840000D03*
D19*
G04 #@! TO.P,D1,1*
G04 #@! TO.N,REG3*
X130000000Y-133000000D03*
G04 #@! TD*
G04 #@! TO.P,D2,1*
G04 #@! TO.N,REG2*
X100000000Y-125000000D03*
D18*
G04 #@! TO.P,D2,2*
G04 #@! TO.N,REG1*
X100000000Y-114840000D03*
G04 #@! TD*
D19*
G04 #@! TO.P,D3,1*
G04 #@! TO.N,REG1*
X105000000Y-125000000D03*
D18*
G04 #@! TO.P,D3,2*
G04 #@! TO.N,Net-(C7-Pad1)*
X105000000Y-114840000D03*
G04 #@! TD*
D20*
G04 #@! TO.P,D4,1*
G04 #@! TO.N,Net-(D4-Pad1)*
X125500000Y-103760000D03*
D21*
G04 #@! TO.P,D4,2*
G04 #@! TO.N,REG2*
X125500000Y-119000000D03*
G04 #@! TD*
D22*
G04 #@! TO.P,D5,1*
G04 #@! TO.N,+VDC*
X99500000Y-110500000D03*
D23*
G04 #@! TO.P,D5,2*
G04 #@! TO.N,Net-(D5-Pad2)*
X99500000Y-107960000D03*
G04 #@! TD*
D18*
G04 #@! TO.P,D6,2*
G04 #@! TO.N,Net-(C9-Pad1)*
X73160000Y-92000000D03*
D19*
G04 #@! TO.P,D6,1*
G04 #@! TO.N,MOS2*
X63000000Y-92000000D03*
G04 #@! TD*
G04 #@! TO.P,D7,1*
G04 #@! TO.N,MOS2*
X63000000Y-82500000D03*
D18*
G04 #@! TO.P,D7,2*
G04 #@! TO.N,Net-(D7-Pad2)*
X73160000Y-82500000D03*
G04 #@! TD*
G04 #@! TO.P,D10,2*
G04 #@! TO.N,Net-(D10-Pad2)*
X101160000Y-70500000D03*
D19*
G04 #@! TO.P,D10,1*
G04 #@! TO.N,MOS2*
X91000000Y-70500000D03*
G04 #@! TD*
G04 #@! TO.P,D11,1*
G04 #@! TO.N,Net-(D10-Pad2)*
X127000000Y-66340000D03*
D18*
G04 #@! TO.P,D11,2*
G04 #@! TO.N,Net-(D11-Pad2)*
X127000000Y-76500000D03*
G04 #@! TD*
D19*
G04 #@! TO.P,D12,1*
G04 #@! TO.N,Net-(D10-Pad2)*
X122500000Y-66340000D03*
D18*
G04 #@! TO.P,D12,2*
G04 #@! TO.N,Net-(D12-Pad2)*
X122500000Y-76500000D03*
G04 #@! TD*
G04 #@! TO.P,D13,2*
G04 #@! TO.N,Net-(D12-Pad2)*
X118000000Y-76500000D03*
D19*
G04 #@! TO.P,D13,1*
G04 #@! TO.N,Net-(D13-Pad1)*
X118000000Y-66340000D03*
G04 #@! TD*
D18*
G04 #@! TO.P,D14,2*
G04 #@! TO.N,Net-(C12-Pad1)*
X118340000Y-89500000D03*
D19*
G04 #@! TO.P,D14,1*
G04 #@! TO.N,Net-(D12-Pad2)*
X128500000Y-89500000D03*
G04 #@! TD*
D23*
G04 #@! TO.P,D15,2*
G04 #@! TO.N,Net-(D15-Pad2)*
X85500000Y-91500000D03*
D22*
G04 #@! TO.P,D15,1*
G04 #@! TO.N,GNDA*
X85500000Y-88960000D03*
G04 #@! TD*
D19*
G04 #@! TO.P,D16,1*
G04 #@! TO.N,Net-(D16-Pad1)*
X128500000Y-94500000D03*
D18*
G04 #@! TO.P,D16,2*
G04 #@! TO.N,Net-(D12-Pad2)*
X118340000Y-94500000D03*
G04 #@! TD*
D24*
G04 #@! TO.P,F1,1*
G04 #@! TO.N,Net-(C1-Pad2)*
X75500000Y-114500000D03*
G04 #@! TO.P,F1,2*
G04 #@! TO.N,Net-(F1-Pad2)*
X53000000Y-114500000D03*
G04 #@! TD*
G04 #@! TO.P,F2,2*
G04 #@! TO.N,Net-(F2-Pad2)*
X53000000Y-102500000D03*
G04 #@! TO.P,F2,1*
G04 #@! TO.N,Net-(C9-Pad1)*
X75500000Y-102500000D03*
G04 #@! TD*
G04 #@! TO.P,F3,1*
G04 #@! TO.N,Net-(D7-Pad2)*
X75000000Y-72500000D03*
G04 #@! TO.P,F3,2*
G04 #@! TO.N,Net-(F3-Pad2)*
X52500000Y-72500000D03*
G04 #@! TD*
D25*
G04 #@! TO.P,J1,1*
G04 #@! TO.N,Net-(D8-Pad4)*
X56000000Y-133580000D03*
D26*
G04 #@! TO.P,J1,2*
G04 #@! TO.N,Net-(F1-Pad2)*
X56000000Y-128500000D03*
G04 #@! TD*
D25*
G04 #@! TO.P,J2,1*
G04 #@! TO.N,Net-(F2-Pad2)*
X56000000Y-92580000D03*
D26*
G04 #@! TO.P,J2,2*
G04 #@! TO.N,GNDA*
X56000000Y-87500000D03*
G04 #@! TO.P,J2,3*
G04 #@! TO.N,Net-(F3-Pad2)*
X56000000Y-82420000D03*
G04 #@! TD*
D25*
G04 #@! TO.P,J3,1*
G04 #@! TO.N,Net-(D4-Pad1)*
X144000000Y-104000000D03*
D26*
G04 #@! TO.P,J3,2*
G04 #@! TO.N,+VDC*
X144000000Y-109080000D03*
G04 #@! TD*
G04 #@! TO.P,J4,2*
G04 #@! TO.N,GNDA*
X144000000Y-93080000D03*
D25*
G04 #@! TO.P,J4,1*
G04 #@! TO.N,Net-(D16-Pad1)*
X144000000Y-88000000D03*
G04 #@! TD*
D27*
G04 #@! TO.N,Net-(C7-Pad1)*
G04 #@! TO.C,Q1*
G36*
X81481955Y-110181324D02*
X81508650Y-110185284D01*
X81534828Y-110191841D01*
X81560238Y-110200933D01*
X81584634Y-110212472D01*
X81607782Y-110226346D01*
X81629458Y-110242422D01*
X81649454Y-110260546D01*
X81667578Y-110280542D01*
X81683654Y-110302218D01*
X81697528Y-110325366D01*
X81709067Y-110349762D01*
X81718159Y-110375172D01*
X81724716Y-110401350D01*
X81728676Y-110428045D01*
X81730000Y-110455000D01*
X81730000Y-111005000D01*
X81728676Y-111031955D01*
X81724716Y-111058650D01*
X81718159Y-111084828D01*
X81709067Y-111110238D01*
X81697528Y-111134634D01*
X81683654Y-111157782D01*
X81667578Y-111179458D01*
X81649454Y-111199454D01*
X81629458Y-111217578D01*
X81607782Y-111233654D01*
X81584634Y-111247528D01*
X81560238Y-111259067D01*
X81534828Y-111268159D01*
X81508650Y-111274716D01*
X81481955Y-111278676D01*
X81455000Y-111280000D01*
X80205000Y-111280000D01*
X80178045Y-111278676D01*
X80151350Y-111274716D01*
X80125172Y-111268159D01*
X80099762Y-111259067D01*
X80075366Y-111247528D01*
X80052218Y-111233654D01*
X80030542Y-111217578D01*
X80010546Y-111199454D01*
X79992422Y-111179458D01*
X79976346Y-111157782D01*
X79962472Y-111134634D01*
X79950933Y-111110238D01*
X79941841Y-111084828D01*
X79935284Y-111058650D01*
X79931324Y-111031955D01*
X79930000Y-111005000D01*
X79930000Y-110455000D01*
X79931324Y-110428045D01*
X79935284Y-110401350D01*
X79941841Y-110375172D01*
X79950933Y-110349762D01*
X79962472Y-110325366D01*
X79976346Y-110302218D01*
X79992422Y-110280542D01*
X80010546Y-110260546D01*
X80030542Y-110242422D01*
X80052218Y-110226346D01*
X80075366Y-110212472D01*
X80099762Y-110200933D01*
X80125172Y-110191841D01*
X80151350Y-110185284D01*
X80178045Y-110181324D01*
X80205000Y-110180000D01*
X81455000Y-110180000D01*
X81481955Y-110181324D01*
X81481955Y-110181324D01*
G37*
D28*
G04 #@! TD*
G04 #@! TO.P,Q1,2*
G04 #@! TO.N,Net-(C7-Pad1)*
X80830000Y-110730000D03*
D27*
G04 #@! TO.N,+VDC*
G04 #@! TO.C,Q1*
G36*
X83551955Y-108911324D02*
X83578650Y-108915284D01*
X83604828Y-108921841D01*
X83630238Y-108930933D01*
X83654634Y-108942472D01*
X83677782Y-108956346D01*
X83699458Y-108972422D01*
X83719454Y-108990546D01*
X83737578Y-109010542D01*
X83753654Y-109032218D01*
X83767528Y-109055366D01*
X83779067Y-109079762D01*
X83788159Y-109105172D01*
X83794716Y-109131350D01*
X83798676Y-109158045D01*
X83800000Y-109185000D01*
X83800000Y-109735000D01*
X83798676Y-109761955D01*
X83794716Y-109788650D01*
X83788159Y-109814828D01*
X83779067Y-109840238D01*
X83767528Y-109864634D01*
X83753654Y-109887782D01*
X83737578Y-109909458D01*
X83719454Y-109929454D01*
X83699458Y-109947578D01*
X83677782Y-109963654D01*
X83654634Y-109977528D01*
X83630238Y-109989067D01*
X83604828Y-109998159D01*
X83578650Y-110004716D01*
X83551955Y-110008676D01*
X83525000Y-110010000D01*
X82275000Y-110010000D01*
X82248045Y-110008676D01*
X82221350Y-110004716D01*
X82195172Y-109998159D01*
X82169762Y-109989067D01*
X82145366Y-109977528D01*
X82122218Y-109963654D01*
X82100542Y-109947578D01*
X82080546Y-109929454D01*
X82062422Y-109909458D01*
X82046346Y-109887782D01*
X82032472Y-109864634D01*
X82020933Y-109840238D01*
X82011841Y-109814828D01*
X82005284Y-109788650D01*
X82001324Y-109761955D01*
X82000000Y-109735000D01*
X82000000Y-109185000D01*
X82001324Y-109158045D01*
X82005284Y-109131350D01*
X82011841Y-109105172D01*
X82020933Y-109079762D01*
X82032472Y-109055366D01*
X82046346Y-109032218D01*
X82062422Y-109010542D01*
X82080546Y-108990546D01*
X82100542Y-108972422D01*
X82122218Y-108956346D01*
X82145366Y-108942472D01*
X82169762Y-108930933D01*
X82195172Y-108921841D01*
X82221350Y-108915284D01*
X82248045Y-108911324D01*
X82275000Y-108910000D01*
X83525000Y-108910000D01*
X83551955Y-108911324D01*
X83551955Y-108911324D01*
G37*
D28*
G04 #@! TD*
G04 #@! TO.P,Q1,3*
G04 #@! TO.N,+VDC*
X82900000Y-109460000D03*
D29*
G04 #@! TO.P,Q1,1*
G04 #@! TO.N,REG1*
X82900000Y-112000000D03*
G04 #@! TD*
D30*
G04 #@! TO.P,Q2,1*
G04 #@! TO.N,MOS1*
X135500000Y-70500000D03*
D31*
G04 #@! TO.P,Q2,2*
G04 #@! TO.N,MOS2*
X135500000Y-73040000D03*
G04 #@! TO.P,Q2,3*
G04 #@! TO.N,MOS3*
X135500000Y-75580000D03*
G04 #@! TD*
D32*
G04 #@! TO.P,R1,2*
G04 #@! TO.N,Net-(C1-Pad1)*
X74660000Y-147000000D03*
D12*
G04 #@! TO.P,R1,1*
G04 #@! TO.N,Net-(D8-Pad4)*
X64500000Y-147000000D03*
G04 #@! TD*
G04 #@! TO.P,R2,1*
G04 #@! TO.N,REG2*
X132000000Y-109000000D03*
D32*
G04 #@! TO.P,R2,2*
G04 #@! TO.N,REG1*
X132000000Y-119160000D03*
G04 #@! TD*
G04 #@! TO.P,R3,2*
G04 #@! TO.N,Net-(C7-Pad1)*
X80840000Y-116500000D03*
D12*
G04 #@! TO.P,R3,1*
G04 #@! TO.N,REG2*
X91000000Y-116500000D03*
G04 #@! TD*
G04 #@! TO.P,R4,1*
G04 #@! TO.N,Net-(D4-Pad1)*
X119500000Y-114500000D03*
D32*
G04 #@! TO.P,R4,2*
G04 #@! TO.N,Net-(D5-Pad2)*
X119500000Y-104340000D03*
G04 #@! TD*
G04 #@! TO.P,R5,2*
G04 #@! TO.N,Net-(D7-Pad2)*
X80500000Y-77340000D03*
D12*
G04 #@! TO.P,R5,1*
G04 #@! TO.N,Net-(C9-Pad2)*
X80500000Y-87500000D03*
G04 #@! TD*
D32*
G04 #@! TO.P,R19,2*
G04 #@! TO.N,+VDC*
X91500000Y-100660000D03*
D12*
G04 #@! TO.P,R19,1*
G04 #@! TO.N,Net-(C13-Pad1)*
X91500000Y-90500000D03*
G04 #@! TD*
G04 #@! TO.P,R10,1*
G04 #@! TO.N,Net-(D11-Pad2)*
X132000000Y-76500000D03*
D32*
G04 #@! TO.P,R10,2*
G04 #@! TO.N,MOS3*
X132000000Y-66340000D03*
G04 #@! TD*
G04 #@! TO.P,R11,2*
G04 #@! TO.N,Net-(D13-Pad1)*
X108000000Y-61840000D03*
D12*
G04 #@! TO.P,R11,1*
G04 #@! TO.N,Net-(D10-Pad2)*
X108000000Y-72000000D03*
G04 #@! TD*
D32*
G04 #@! TO.P,R12,2*
G04 #@! TO.N,Net-(D12-Pad2)*
X118340000Y-84500000D03*
D12*
G04 #@! TO.P,R12,1*
G04 #@! TO.N,Net-(C12-Pad1)*
X128500000Y-84500000D03*
G04 #@! TD*
G04 #@! TO.P,R13,1*
G04 #@! TO.N,GNDA*
X127500000Y-52340000D03*
D32*
G04 #@! TO.P,R13,2*
G04 #@! TO.N,Net-(C12-Pad1)*
X127500000Y-62500000D03*
G04 #@! TD*
D12*
G04 #@! TO.P,R15,1*
G04 #@! TO.N,Net-(D15-Pad2)*
X97000000Y-98500000D03*
D32*
G04 #@! TO.P,R15,2*
G04 #@! TO.N,Net-(C13-Pad1)*
X107160000Y-98500000D03*
G04 #@! TD*
D12*
G04 #@! TO.P,R99,1*
G04 #@! TO.N,MOS1*
X136000000Y-66000000D03*
D32*
G04 #@! TO.P,R99,2*
G04 #@! TO.N,Net-(D10-Pad2)*
X136000000Y-55840000D03*
G04 #@! TD*
D33*
G04 #@! TO.P,TP1,1*
G04 #@! TO.N,Net-(D16-Pad1)*
X135500000Y-93500000D03*
G04 #@! TD*
G04 #@! TO.P,TP2,1*
G04 #@! TO.N,GNDA*
X108000000Y-90000000D03*
G04 #@! TD*
G04 #@! TO.P,TP3,1*
G04 #@! TO.N,Net-(D4-Pad1)*
X135500000Y-101000000D03*
G04 #@! TD*
G04 #@! TO.P,TP4,1*
G04 #@! TO.N,+VDC*
X91500000Y-109000000D03*
G04 #@! TD*
D31*
G04 #@! TO.P,U1,3*
G04 #@! TO.N,REG3*
X135500000Y-127080000D03*
G04 #@! TO.P,U1,2*
G04 #@! TO.N,REG2*
X135500000Y-124540000D03*
D30*
G04 #@! TO.P,U1,1*
G04 #@! TO.N,REG1*
X135500000Y-122000000D03*
G04 #@! TD*
D29*
G04 #@! TO.P,U2,1*
G04 #@! TO.N,Net-(C12-Pad1)*
X135900000Y-87000000D03*
D27*
G04 #@! TD*
G04 #@! TO.N,Net-(D11-Pad2)*
G04 #@! TO.C,U2*
G36*
X136551955Y-83911324D02*
X136578650Y-83915284D01*
X136604828Y-83921841D01*
X136630238Y-83930933D01*
X136654634Y-83942472D01*
X136677782Y-83956346D01*
X136699458Y-83972422D01*
X136719454Y-83990546D01*
X136737578Y-84010542D01*
X136753654Y-84032218D01*
X136767528Y-84055366D01*
X136779067Y-84079762D01*
X136788159Y-84105172D01*
X136794716Y-84131350D01*
X136798676Y-84158045D01*
X136800000Y-84185000D01*
X136800000Y-84735000D01*
X136798676Y-84761955D01*
X136794716Y-84788650D01*
X136788159Y-84814828D01*
X136779067Y-84840238D01*
X136767528Y-84864634D01*
X136753654Y-84887782D01*
X136737578Y-84909458D01*
X136719454Y-84929454D01*
X136699458Y-84947578D01*
X136677782Y-84963654D01*
X136654634Y-84977528D01*
X136630238Y-84989067D01*
X136604828Y-84998159D01*
X136578650Y-85004716D01*
X136551955Y-85008676D01*
X136525000Y-85010000D01*
X135275000Y-85010000D01*
X135248045Y-85008676D01*
X135221350Y-85004716D01*
X135195172Y-84998159D01*
X135169762Y-84989067D01*
X135145366Y-84977528D01*
X135122218Y-84963654D01*
X135100542Y-84947578D01*
X135080546Y-84929454D01*
X135062422Y-84909458D01*
X135046346Y-84887782D01*
X135032472Y-84864634D01*
X135020933Y-84840238D01*
X135011841Y-84814828D01*
X135005284Y-84788650D01*
X135001324Y-84761955D01*
X135000000Y-84735000D01*
X135000000Y-84185000D01*
X135001324Y-84158045D01*
X135005284Y-84131350D01*
X135011841Y-84105172D01*
X135020933Y-84079762D01*
X135032472Y-84055366D01*
X135046346Y-84032218D01*
X135062422Y-84010542D01*
X135080546Y-83990546D01*
X135100542Y-83972422D01*
X135122218Y-83956346D01*
X135145366Y-83942472D01*
X135169762Y-83930933D01*
X135195172Y-83921841D01*
X135221350Y-83915284D01*
X135248045Y-83911324D01*
X135275000Y-83910000D01*
X136525000Y-83910000D01*
X136551955Y-83911324D01*
X136551955Y-83911324D01*
G37*
D28*
G04 #@! TO.P,U2,3*
G04 #@! TO.N,Net-(D11-Pad2)*
X135900000Y-84460000D03*
D27*
G04 #@! TD*
G04 #@! TO.N,Net-(D12-Pad2)*
G04 #@! TO.C,U2*
G36*
X134481955Y-85181324D02*
X134508650Y-85185284D01*
X134534828Y-85191841D01*
X134560238Y-85200933D01*
X134584634Y-85212472D01*
X134607782Y-85226346D01*
X134629458Y-85242422D01*
X134649454Y-85260546D01*
X134667578Y-85280542D01*
X134683654Y-85302218D01*
X134697528Y-85325366D01*
X134709067Y-85349762D01*
X134718159Y-85375172D01*
X134724716Y-85401350D01*
X134728676Y-85428045D01*
X134730000Y-85455000D01*
X134730000Y-86005000D01*
X134728676Y-86031955D01*
X134724716Y-86058650D01*
X134718159Y-86084828D01*
X134709067Y-86110238D01*
X134697528Y-86134634D01*
X134683654Y-86157782D01*
X134667578Y-86179458D01*
X134649454Y-86199454D01*
X134629458Y-86217578D01*
X134607782Y-86233654D01*
X134584634Y-86247528D01*
X134560238Y-86259067D01*
X134534828Y-86268159D01*
X134508650Y-86274716D01*
X134481955Y-86278676D01*
X134455000Y-86280000D01*
X133205000Y-86280000D01*
X133178045Y-86278676D01*
X133151350Y-86274716D01*
X133125172Y-86268159D01*
X133099762Y-86259067D01*
X133075366Y-86247528D01*
X133052218Y-86233654D01*
X133030542Y-86217578D01*
X133010546Y-86199454D01*
X132992422Y-86179458D01*
X132976346Y-86157782D01*
X132962472Y-86134634D01*
X132950933Y-86110238D01*
X132941841Y-86084828D01*
X132935284Y-86058650D01*
X132931324Y-86031955D01*
X132930000Y-86005000D01*
X132930000Y-85455000D01*
X132931324Y-85428045D01*
X132935284Y-85401350D01*
X132941841Y-85375172D01*
X132950933Y-85349762D01*
X132962472Y-85325366D01*
X132976346Y-85302218D01*
X132992422Y-85280542D01*
X133010546Y-85260546D01*
X133030542Y-85242422D01*
X133052218Y-85226346D01*
X133075366Y-85212472D01*
X133099762Y-85200933D01*
X133125172Y-85191841D01*
X133151350Y-85185284D01*
X133178045Y-85181324D01*
X133205000Y-85180000D01*
X134455000Y-85180000D01*
X134481955Y-85181324D01*
X134481955Y-85181324D01*
G37*
D28*
G04 #@! TO.P,U2,2*
G04 #@! TO.N,Net-(D12-Pad2)*
X133830000Y-85730000D03*
G04 #@! TD*
D34*
G04 #@! TO.P,RV1,3*
G04 #@! TO.N,REG1*
X128420000Y-145500000D03*
G04 #@! TO.P,RV1,2*
G04 #@! TO.N,+VDC*
X130960000Y-148040000D03*
G04 #@! TO.P,RV1,1*
X133500000Y-145500000D03*
G04 #@! TD*
G04 #@! TO.P,RV2,1*
G04 #@! TO.N,GNDA*
X116000000Y-55000000D03*
G04 #@! TO.P,RV2,2*
X113460000Y-57540000D03*
G04 #@! TO.P,RV2,3*
G04 #@! TO.N,Net-(C12-Pad1)*
X110920000Y-55000000D03*
G04 #@! TD*
D32*
G04 #@! TO.P,R16,2*
G04 #@! TO.N,+VDC*
X137500000Y-139500000D03*
D12*
G04 #@! TO.P,R16,1*
G04 #@! TO.N,REG1*
X127340000Y-139500000D03*
G04 #@! TD*
G04 #@! TO.P,R17,1*
G04 #@! TO.N,GNDA*
X122000000Y-61500000D03*
D32*
G04 #@! TO.P,R17,2*
G04 #@! TO.N,Net-(C12-Pad1)*
X111840000Y-61500000D03*
G04 #@! TD*
D26*
G04 #@! TO.P,J5,3*
G04 #@! TO.N,MOS3*
X144000000Y-79160000D03*
G04 #@! TO.P,J5,2*
G04 #@! TO.N,MOS2*
X144000000Y-74080000D03*
D25*
G04 #@! TO.P,J5,1*
G04 #@! TO.N,MOS1*
X144000000Y-69000000D03*
G04 #@! TD*
G04 #@! TO.P,J6,1*
G04 #@! TO.N,REG1*
X144000000Y-119500000D03*
D26*
G04 #@! TO.P,J6,2*
G04 #@! TO.N,REG2*
X144000000Y-124580000D03*
G04 #@! TO.P,J6,3*
G04 #@! TO.N,REG3*
X144000000Y-129660000D03*
G04 #@! TD*
D16*
G04 #@! TO.P,R6,1*
G04 #@! TO.N,MOS2*
X80000000Y-72500000D03*
D35*
G04 #@! TO.P,R6,2*
G04 #@! TO.N,Net-(C10-Pad2)*
X80000000Y-52180000D03*
G04 #@! TD*
G04 #@! TO.P,R7,2*
G04 #@! TO.N,GNDA*
X86000000Y-72500000D03*
D16*
G04 #@! TO.P,R7,1*
G04 #@! TO.N,Net-(C10-Pad2)*
X86000000Y-52180000D03*
G04 #@! TD*
G04 #@! TO.P,R8,1*
G04 #@! TO.N,MOS2*
X93500000Y-76000000D03*
D35*
G04 #@! TO.P,R8,2*
G04 #@! TO.N,Net-(D10-Pad2)*
X113820000Y-76000000D03*
G04 #@! TD*
G04 #@! TO.P,R14,2*
G04 #@! TO.N,Net-(D12-Pad2)*
X113820000Y-83000000D03*
D16*
G04 #@! TO.P,R14,1*
G04 #@! TO.N,Net-(C13-Pad1)*
X93500000Y-83000000D03*
G04 #@! TD*
D36*
G04 #@! TO.P,JP1,1*
G04 #@! TO.N,+VDC*
X86000000Y-106500000D03*
D37*
G04 #@! TO.P,JP1,2*
G04 #@! TO.N,GNDA*
X86000000Y-102690000D03*
G04 #@! TD*
D38*
G04 #@! TO.N,Net-(C1-Pad2)*
X75500000Y-126100000D02*
X75400000Y-126200000D01*
X75500000Y-114500000D02*
X75500000Y-126100000D01*
D39*
G04 #@! TO.N,Net-(C7-Pad1)*
X105000000Y-114840000D02*
X100840000Y-119000000D01*
X83340000Y-119000000D02*
X80840000Y-116500000D01*
X100840000Y-119000000D02*
X83340000Y-119000000D01*
G04 #@! TO.N,Net-(C9-Pad1)*
X75500000Y-94340000D02*
X73160000Y-92000000D01*
X75500000Y-102500000D02*
X75500000Y-94340000D01*
G04 #@! TO.N,GNDA*
X121000000Y-61500000D02*
X122000000Y-61500000D01*
X116000000Y-56500000D02*
X121000000Y-61500000D01*
X116000000Y-55000000D02*
X116000000Y-56500000D01*
X113460000Y-57540000D02*
X116000000Y-55000000D01*
G04 #@! TO.N,Net-(C12-Pad1)*
X128299999Y-63299999D02*
X127500000Y-62500000D01*
X129500000Y-64500000D02*
X128299999Y-63299999D01*
X129500000Y-83500000D02*
X129500000Y-64500000D01*
X128500000Y-84500000D02*
X129500000Y-83500000D01*
G04 #@! TO.N,Net-(D10-Pad2)*
X122500000Y-67320000D02*
X122500000Y-66340000D01*
X113820000Y-76000000D02*
X122500000Y-67320000D01*
X130900000Y-55840000D02*
X136000000Y-55840000D01*
X122500000Y-64240000D02*
X130900000Y-55840000D01*
X122500000Y-66340000D02*
X122500000Y-64240000D01*
X122500000Y-66340000D02*
X127000000Y-66340000D01*
G04 #@! TO.N,Net-(D11-Pad2)*
X132000000Y-77500000D02*
X132000000Y-76500000D01*
X135500000Y-81000000D02*
X132000000Y-77500000D01*
X135500000Y-84460000D02*
X135500000Y-81000000D01*
G04 #@! TO.N,Net-(D12-Pad2)*
X123340000Y-89500000D02*
X128500000Y-89500000D01*
X118340000Y-84500000D02*
X123340000Y-89500000D01*
X130460000Y-89500000D02*
X134230000Y-85730000D01*
X128500000Y-89500000D02*
X130460000Y-89500000D01*
G04 #@! TO.N,Net-(D16-Pad1)*
X141000000Y-88000000D02*
X135500000Y-93500000D01*
X144000000Y-88000000D02*
X141000000Y-88000000D01*
D38*
G04 #@! TO.N,Net-(F1-Pad2)*
X56000000Y-117500000D02*
X53000000Y-114500000D01*
X56000000Y-128500000D02*
X56000000Y-117500000D01*
G04 #@! TO.N,REG3*
X81000000Y-142500000D02*
X75500000Y-137000000D01*
X90500000Y-142500000D02*
X81000000Y-142500000D01*
X113500000Y-142500000D02*
X90500000Y-142500000D01*
D39*
G04 #@! TO.N,REG1*
X129840000Y-119160000D02*
X132000000Y-119160000D01*
X118300000Y-121000000D02*
X119800000Y-122500000D01*
X126500000Y-122500000D02*
X129840000Y-119160000D01*
X119800000Y-122500000D02*
X126500000Y-122500000D01*
X116500000Y-121000000D02*
X118300000Y-121000000D01*
X127340000Y-123340000D02*
X126500000Y-122500000D01*
X127340000Y-139500000D02*
X127340000Y-123340000D01*
G04 #@! TO.N,REG2*
X125500000Y-116737259D02*
X125500000Y-119000000D01*
X116762741Y-108000000D02*
X125500000Y-116737259D01*
X110500000Y-108000000D02*
X116762741Y-108000000D01*
G04 #@! TO.N,MOS3*
X134080000Y-75580000D02*
X135500000Y-75580000D01*
X132000000Y-73500000D02*
X134080000Y-75580000D01*
X132000000Y-66500000D02*
X132000000Y-73500000D01*
D38*
G04 #@! TO.N,Net-(D8-Pad4)*
X59420000Y-137000000D02*
X56000000Y-133580000D01*
X64700000Y-137000000D02*
X59420000Y-137000000D01*
D39*
G04 #@! TO.N,Net-(D13-Pad1)*
X112500000Y-66340000D02*
X108000000Y-61840000D01*
X118000000Y-66340000D02*
X112500000Y-66340000D01*
G04 #@! TD*
M02*
