M48
;DRILL file {KiCad (5.0.0-3-g5ebb6b6)} date Sunday, 23 December 2018 at 17:20:22
;FORMAT={-:-/ absolute / metric / decimal}
FMAT,2
METRIC,TZ
T1C0.700
T2C0.750
T3C0.800
T4C0.800
T5C0.900
T6C1.100
T7C1.200
T8C1.300
T9C1.600
T10C2.000
T11C2.700
T12C3.200
%
G90
G05
M71
T1
X110.92Y-55.
X113.46Y-57.54
X116.Y-55.
X128.42Y-145.5
X130.96Y-148.04
X133.5Y-145.5
T2
X134.23Y-85.73
X135.5Y-84.46
X135.5Y-87.
X81.23Y-110.73
X82.5Y-109.46
X82.5Y-112.
T3
X76.5Y-85.
X76.5Y-90.
X132.Y-109.
X132.Y-119.16
X119.5Y-104.34
X119.5Y-114.5
X112.Y-112.5
X112.Y-115.
X91.5Y-90.5
X91.5Y-100.66
X69.5Y-142.5
X74.5Y-142.5
X135.Y-131.
X135.Y-136.
X127.34Y-139.5
X137.5Y-139.5
X108.Y-61.84
X108.Y-72.
X127.5Y-52.34
X127.5Y-62.5
X136.Y-55.84
X136.Y-66.
X64.5Y-147.
X74.66Y-147.
X99.5Y-88.5
X99.5Y-93.5
X110.5Y-105.5
X110.5Y-108.
X80.84Y-116.5
X91.Y-116.5
X80.5Y-77.34
X80.5Y-87.5
X132.Y-66.34
X132.Y-76.5
X111.84Y-61.5
X122.Y-61.5
X116.5Y-118.5
X116.5Y-121.
X118.34Y-84.5
X128.5Y-84.5
X97.Y-98.5
X107.16Y-98.5
X120.5Y-52.5
X120.5Y-57.5
T4
X86.Y-102.69
X86.Y-106.5
T5
X99.5Y-107.96
X99.5Y-110.5
X85.5Y-88.96
X85.5Y-91.5
T6
X118.34Y-89.5
X128.5Y-89.5
X118.34Y-94.5
X128.5Y-94.5
X105.Y-114.84
X105.Y-125.
X127.Y-66.34
X127.Y-76.5
X135.5Y-122.
X135.5Y-124.54
X135.5Y-127.08
X63.Y-82.5
X73.16Y-82.5
X135.5Y-70.5
X135.5Y-73.04
X135.5Y-75.58
X64.7Y-126.2
X64.7Y-137.
X75.4Y-126.2
X75.5Y-137.
X122.5Y-66.34
X122.5Y-76.5
X118.Y-66.34
X118.Y-76.5
X100.Y-114.84
X100.Y-125.
X91.Y-70.5
X101.16Y-70.5
X63.Y-92.
X73.16Y-92.
X130.Y-122.84
X130.Y-133.
T7
X98.5Y-55.
X98.5Y-62.5
X67.5Y-55.
X67.5Y-62.5
X80.Y-52.18
X80.Y-72.5
X93.5Y-76.
X113.82Y-76.
X144.Y-104.
X144.Y-109.08
X144.Y-88.
X144.Y-93.08
X56.Y-128.5
X56.Y-133.58
X56.Y-82.42
X56.Y-87.5
X56.Y-92.58
X144.Y-119.5
X144.Y-124.58
X144.Y-129.66
X86.Y-52.18
X86.Y-72.5
X144.Y-69.
X144.Y-74.08
X144.Y-79.16
X93.5Y-83.
X113.82Y-83.
T8
X53.Y-114.5
X75.5Y-114.5
X52.5Y-72.5
X75.Y-72.5
X53.Y-102.5
X75.5Y-102.5
T9
X135.5Y-93.5
X91.5Y-109.
X125.5Y-103.76
X125.5Y-119.
X135.5Y-101.
X108.Y-90.
T10
X90.5Y-132.5
X90.5Y-142.5
X113.5Y-132.5
X113.5Y-142.5
T11
X64.25Y-114.5
X63.75Y-72.5
X64.25Y-102.5
T12
X55.Y-145.
X145.Y-55.
X55.Y-55.
X145.Y-145.
T0
M30
