G04 #@! TF.GenerationSoftware,KiCad,Pcbnew,(5.0.0-3-g5ebb6b6)*
G04 #@! TF.CreationDate,2018-08-12T20:31:25+01:00*
G04 #@! TF.ProjectId,SSFXPCB,535346585043422E6B696361645F7063,rev?*
G04 #@! TF.SameCoordinates,Original*
G04 #@! TF.FileFunction,Legend,Top*
G04 #@! TF.FilePolarity,Positive*
%FSLAX46Y46*%
G04 Gerber Fmt 4.6, Leading zero omitted, Abs format (unit mm)*
G04 Created by KiCad (PCBNEW (5.0.0-3-g5ebb6b6)) date Sunday, 12 August 2018 at 20:31:25*
%MOMM*%
%LPD*%
G01*
G04 APERTURE LIST*
%ADD10C,0.300000*%
%ADD11C,0.250000*%
%ADD12C,0.120000*%
%ADD13C,0.150000*%
G04 APERTURE END LIST*
D10*
X171527476Y-124955666D02*
X171527476Y-125193761D01*
X171587000Y-125312809D01*
X171646523Y-125372333D01*
X171825095Y-125491380D01*
X172063190Y-125550904D01*
X172539380Y-125550904D01*
X172658428Y-125491380D01*
X172717952Y-125431857D01*
X172777476Y-125312809D01*
X172777476Y-125074714D01*
X172717952Y-124955666D01*
X172658428Y-124896142D01*
X172539380Y-124836619D01*
X172241761Y-124836619D01*
X172122714Y-124896142D01*
X172063190Y-124955666D01*
X172003666Y-125074714D01*
X172003666Y-125312809D01*
X172063190Y-125431857D01*
X172122714Y-125491380D01*
X172241761Y-125550904D01*
X172658428Y-124300904D02*
X172717952Y-124241380D01*
X172777476Y-124300904D01*
X172717952Y-124360428D01*
X172658428Y-124300904D01*
X172777476Y-124300904D01*
X171527476Y-123824714D02*
X171527476Y-123050904D01*
X172003666Y-123467571D01*
X172003666Y-123289000D01*
X172063190Y-123169952D01*
X172122714Y-123110428D01*
X172241761Y-123050904D01*
X172539380Y-123050904D01*
X172658428Y-123110428D01*
X172717952Y-123169952D01*
X172777476Y-123289000D01*
X172777476Y-123646142D01*
X172717952Y-123765190D01*
X172658428Y-123824714D01*
X171527476Y-122693761D02*
X172777476Y-122277095D01*
X171527476Y-121860428D01*
X172777476Y-121443761D02*
X171944142Y-121443761D01*
X171527476Y-121443761D02*
X171587000Y-121503285D01*
X171646523Y-121443761D01*
X171587000Y-121384238D01*
X171527476Y-121443761D01*
X171646523Y-121443761D01*
X171944142Y-120848523D02*
X172777476Y-120848523D01*
X172063190Y-120848523D02*
X172003666Y-120789000D01*
X171944142Y-120669952D01*
X171944142Y-120491380D01*
X172003666Y-120372333D01*
X172122714Y-120312809D01*
X172777476Y-120312809D01*
X103255380Y-108595000D02*
X103136333Y-108535476D01*
X102957761Y-108535476D01*
X102779190Y-108595000D01*
X102660142Y-108714047D01*
X102600619Y-108833095D01*
X102541095Y-109071190D01*
X102541095Y-109249761D01*
X102600619Y-109487857D01*
X102660142Y-109606904D01*
X102779190Y-109725952D01*
X102957761Y-109785476D01*
X103076809Y-109785476D01*
X103255380Y-109725952D01*
X103314904Y-109666428D01*
X103314904Y-109249761D01*
X103076809Y-109249761D01*
X104386333Y-109785476D02*
X104386333Y-109130714D01*
X104326809Y-109011666D01*
X104207761Y-108952142D01*
X103969666Y-108952142D01*
X103850619Y-109011666D01*
X104386333Y-109725952D02*
X104267285Y-109785476D01*
X103969666Y-109785476D01*
X103850619Y-109725952D01*
X103791095Y-109606904D01*
X103791095Y-109487857D01*
X103850619Y-109368809D01*
X103969666Y-109309285D01*
X104267285Y-109309285D01*
X104386333Y-109249761D01*
X104981571Y-109785476D02*
X104981571Y-108952142D01*
X104981571Y-108535476D02*
X104922047Y-108595000D01*
X104981571Y-108654523D01*
X105041095Y-108595000D01*
X104981571Y-108535476D01*
X104981571Y-108654523D01*
X105576809Y-108952142D02*
X105576809Y-109785476D01*
X105576809Y-109071190D02*
X105636333Y-109011666D01*
X105755380Y-108952142D01*
X105933952Y-108952142D01*
X106053000Y-109011666D01*
X106112523Y-109130714D01*
X106112523Y-109785476D01*
X137982047Y-100407476D02*
X138696333Y-100407476D01*
X138339190Y-101657476D02*
X138339190Y-100407476D01*
X139291571Y-101657476D02*
X139172523Y-101597952D01*
X139113000Y-101538428D01*
X139053476Y-101419380D01*
X139053476Y-101062238D01*
X139113000Y-100943190D01*
X139172523Y-100883666D01*
X139291571Y-100824142D01*
X139470142Y-100824142D01*
X139589190Y-100883666D01*
X139648714Y-100943190D01*
X139708238Y-101062238D01*
X139708238Y-101419380D01*
X139648714Y-101538428D01*
X139589190Y-101597952D01*
X139470142Y-101657476D01*
X139291571Y-101657476D01*
X140243952Y-100824142D02*
X140243952Y-101657476D01*
X140243952Y-100943190D02*
X140303476Y-100883666D01*
X140422523Y-100824142D01*
X140601095Y-100824142D01*
X140720142Y-100883666D01*
X140779666Y-101002714D01*
X140779666Y-101657476D01*
X141851095Y-101597952D02*
X141732047Y-101657476D01*
X141493952Y-101657476D01*
X141374904Y-101597952D01*
X141315380Y-101478904D01*
X141315380Y-101002714D01*
X141374904Y-100883666D01*
X141493952Y-100824142D01*
X141732047Y-100824142D01*
X141851095Y-100883666D01*
X141910619Y-101002714D01*
X141910619Y-101121761D01*
X141315380Y-101240809D01*
X151066904Y-137725476D02*
X150650238Y-137130238D01*
X150352619Y-137725476D02*
X150352619Y-136475476D01*
X150828809Y-136475476D01*
X150947857Y-136535000D01*
X151007380Y-136594523D01*
X151066904Y-136713571D01*
X151066904Y-136892142D01*
X151007380Y-137011190D01*
X150947857Y-137070714D01*
X150828809Y-137130238D01*
X150352619Y-137130238D01*
X152078809Y-137665952D02*
X151959761Y-137725476D01*
X151721666Y-137725476D01*
X151602619Y-137665952D01*
X151543095Y-137546904D01*
X151543095Y-137070714D01*
X151602619Y-136951666D01*
X151721666Y-136892142D01*
X151959761Y-136892142D01*
X152078809Y-136951666D01*
X152138333Y-137070714D01*
X152138333Y-137189761D01*
X151543095Y-137308809D01*
X152555000Y-136892142D02*
X152852619Y-137725476D01*
X153150238Y-136892142D01*
X154102619Y-137665952D02*
X153983571Y-137725476D01*
X153745476Y-137725476D01*
X153626428Y-137665952D01*
X153566904Y-137546904D01*
X153566904Y-137070714D01*
X153626428Y-136951666D01*
X153745476Y-136892142D01*
X153983571Y-136892142D01*
X154102619Y-136951666D01*
X154162142Y-137070714D01*
X154162142Y-137189761D01*
X153566904Y-137308809D01*
X154697857Y-137725476D02*
X154697857Y-136892142D01*
X154697857Y-137130238D02*
X154757380Y-137011190D01*
X154816904Y-136951666D01*
X154935952Y-136892142D01*
X155055000Y-136892142D01*
X155471666Y-137725476D02*
X155471666Y-136475476D01*
X155471666Y-136951666D02*
X155590714Y-136892142D01*
X155828809Y-136892142D01*
X155947857Y-136951666D01*
X156007380Y-137011190D01*
X156066904Y-137130238D01*
X156066904Y-137487380D01*
X156007380Y-137606428D01*
X155947857Y-137665952D01*
X155828809Y-137725476D01*
X155590714Y-137725476D01*
X155471666Y-137665952D01*
X157555000Y-137725476D02*
X157555000Y-136475476D01*
X157971666Y-137368333D01*
X158388333Y-136475476D01*
X158388333Y-137725476D01*
X158983571Y-137725476D02*
X158983571Y-136892142D01*
X158983571Y-136475476D02*
X158924047Y-136535000D01*
X158983571Y-136594523D01*
X159043095Y-136535000D01*
X158983571Y-136475476D01*
X158983571Y-136594523D01*
X159459761Y-137725476D02*
X160114523Y-136892142D01*
X159459761Y-136892142D02*
X160114523Y-137725476D01*
X143738333Y-144603476D02*
X143976428Y-144603476D01*
X144095476Y-144663000D01*
X144214523Y-144782047D01*
X144274047Y-145020142D01*
X144274047Y-145436809D01*
X144214523Y-145674904D01*
X144095476Y-145793952D01*
X143976428Y-145853476D01*
X143738333Y-145853476D01*
X143619285Y-145793952D01*
X143500238Y-145674904D01*
X143440714Y-145436809D01*
X143440714Y-145020142D01*
X143500238Y-144782047D01*
X143619285Y-144663000D01*
X143738333Y-144603476D01*
X145345476Y-145020142D02*
X145345476Y-145853476D01*
X144809761Y-145020142D02*
X144809761Y-145674904D01*
X144869285Y-145793952D01*
X144988333Y-145853476D01*
X145166904Y-145853476D01*
X145285952Y-145793952D01*
X145345476Y-145734428D01*
X145762142Y-145020142D02*
X146238333Y-145020142D01*
X145940714Y-144603476D02*
X145940714Y-145674904D01*
X146000238Y-145793952D01*
X146119285Y-145853476D01*
X146238333Y-145853476D01*
X124952619Y-145853476D02*
X124952619Y-144603476D01*
X125547857Y-145020142D02*
X125547857Y-145853476D01*
X125547857Y-145139190D02*
X125607380Y-145079666D01*
X125726428Y-145020142D01*
X125905000Y-145020142D01*
X126024047Y-145079666D01*
X126083571Y-145198714D01*
X126083571Y-145853476D01*
D11*
X130897523Y-143482380D02*
X130564190Y-143006190D01*
X130326095Y-143482380D02*
X130326095Y-142482380D01*
X130707047Y-142482380D01*
X130802285Y-142530000D01*
X130849904Y-142577619D01*
X130897523Y-142672857D01*
X130897523Y-142815714D01*
X130849904Y-142910952D01*
X130802285Y-142958571D01*
X130707047Y-143006190D01*
X130326095Y-143006190D01*
X131707047Y-143434761D02*
X131611809Y-143482380D01*
X131421333Y-143482380D01*
X131326095Y-143434761D01*
X131278476Y-143339523D01*
X131278476Y-142958571D01*
X131326095Y-142863333D01*
X131421333Y-142815714D01*
X131611809Y-142815714D01*
X131707047Y-142863333D01*
X131754666Y-142958571D01*
X131754666Y-143053809D01*
X131278476Y-143149047D01*
X132088000Y-142815714D02*
X132326095Y-143482380D01*
X132564190Y-142815714D01*
X133326095Y-143434761D02*
X133230857Y-143482380D01*
X133040380Y-143482380D01*
X132945142Y-143434761D01*
X132897523Y-143339523D01*
X132897523Y-142958571D01*
X132945142Y-142863333D01*
X133040380Y-142815714D01*
X133230857Y-142815714D01*
X133326095Y-142863333D01*
X133373714Y-142958571D01*
X133373714Y-143053809D01*
X132897523Y-143149047D01*
X133802285Y-143482380D02*
X133802285Y-142815714D01*
X133802285Y-143006190D02*
X133849904Y-142910952D01*
X133897523Y-142863333D01*
X133992761Y-142815714D01*
X134088000Y-142815714D01*
X134421333Y-143482380D02*
X134421333Y-142482380D01*
X134421333Y-142863333D02*
X134516571Y-142815714D01*
X134707047Y-142815714D01*
X134802285Y-142863333D01*
X134849904Y-142910952D01*
X134897523Y-143006190D01*
X134897523Y-143291904D01*
X134849904Y-143387142D01*
X134802285Y-143434761D01*
X134707047Y-143482380D01*
X134516571Y-143482380D01*
X134421333Y-143434761D01*
X127207047Y-144232380D02*
X127778476Y-144232380D01*
X127492761Y-145232380D02*
X127492761Y-144232380D01*
X128111809Y-145232380D02*
X128111809Y-144565714D01*
X128111809Y-144756190D02*
X128159428Y-144660952D01*
X128207047Y-144613333D01*
X128302285Y-144565714D01*
X128397523Y-144565714D01*
X128730857Y-145232380D02*
X128730857Y-144565714D01*
X128730857Y-144232380D02*
X128683238Y-144280000D01*
X128730857Y-144327619D01*
X128778476Y-144280000D01*
X128730857Y-144232380D01*
X128730857Y-144327619D01*
X129159428Y-145184761D02*
X129254666Y-145232380D01*
X129445142Y-145232380D01*
X129540380Y-145184761D01*
X129588000Y-145089523D01*
X129588000Y-145041904D01*
X129540380Y-144946666D01*
X129445142Y-144899047D01*
X129302285Y-144899047D01*
X129207047Y-144851428D01*
X129159428Y-144756190D01*
X129159428Y-144708571D01*
X129207047Y-144613333D01*
X129302285Y-144565714D01*
X129445142Y-144565714D01*
X129540380Y-144613333D01*
X129873714Y-144565714D02*
X130254666Y-144565714D01*
X130016571Y-144232380D02*
X130016571Y-145089523D01*
X130064190Y-145184761D01*
X130159428Y-145232380D01*
X130254666Y-145232380D01*
X131016571Y-145232380D02*
X131016571Y-144708571D01*
X130968952Y-144613333D01*
X130873714Y-144565714D01*
X130683238Y-144565714D01*
X130588000Y-144613333D01*
X131016571Y-145184761D02*
X130921333Y-145232380D01*
X130683238Y-145232380D01*
X130588000Y-145184761D01*
X130540380Y-145089523D01*
X130540380Y-144994285D01*
X130588000Y-144899047D01*
X130683238Y-144851428D01*
X130921333Y-144851428D01*
X131016571Y-144803809D01*
X131492761Y-144565714D02*
X131492761Y-145232380D01*
X131492761Y-144660952D02*
X131540380Y-144613333D01*
X131635619Y-144565714D01*
X131778476Y-144565714D01*
X131873714Y-144613333D01*
X131921333Y-144708571D01*
X131921333Y-145232380D01*
X133730857Y-145137142D02*
X133683238Y-145184761D01*
X133540380Y-145232380D01*
X133445142Y-145232380D01*
X133302285Y-145184761D01*
X133207047Y-145089523D01*
X133159428Y-144994285D01*
X133111809Y-144803809D01*
X133111809Y-144660952D01*
X133159428Y-144470476D01*
X133207047Y-144375238D01*
X133302285Y-144280000D01*
X133445142Y-144232380D01*
X133540380Y-144232380D01*
X133683238Y-144280000D01*
X133730857Y-144327619D01*
X134302285Y-145232380D02*
X134207047Y-145184761D01*
X134159428Y-145137142D01*
X134111809Y-145041904D01*
X134111809Y-144756190D01*
X134159428Y-144660952D01*
X134207047Y-144613333D01*
X134302285Y-144565714D01*
X134445142Y-144565714D01*
X134540380Y-144613333D01*
X134588000Y-144660952D01*
X134635619Y-144756190D01*
X134635619Y-145041904D01*
X134588000Y-145137142D01*
X134540380Y-145184761D01*
X134445142Y-145232380D01*
X134302285Y-145232380D01*
X135207047Y-145232380D02*
X135111809Y-145184761D01*
X135064190Y-145089523D01*
X135064190Y-144232380D01*
X135730857Y-145232380D02*
X135635619Y-145184761D01*
X135588000Y-145089523D01*
X135588000Y-144232380D01*
X136111809Y-145232380D02*
X136111809Y-144565714D01*
X136111809Y-144232380D02*
X136064190Y-144280000D01*
X136111809Y-144327619D01*
X136159428Y-144280000D01*
X136111809Y-144232380D01*
X136111809Y-144327619D01*
X136588000Y-144565714D02*
X136588000Y-145232380D01*
X136588000Y-144660952D02*
X136635619Y-144613333D01*
X136730857Y-144565714D01*
X136873714Y-144565714D01*
X136968952Y-144613333D01*
X137016571Y-144708571D01*
X137016571Y-145232380D01*
X137445142Y-145184761D02*
X137540380Y-145232380D01*
X137730857Y-145232380D01*
X137826095Y-145184761D01*
X137873714Y-145089523D01*
X137873714Y-145041904D01*
X137826095Y-144946666D01*
X137730857Y-144899047D01*
X137588000Y-144899047D01*
X137492761Y-144851428D01*
X137445142Y-144756190D01*
X137445142Y-144708571D01*
X137492761Y-144613333D01*
X137588000Y-144565714D01*
X137730857Y-144565714D01*
X137826095Y-144613333D01*
X128016571Y-146696666D02*
X128492761Y-146696666D01*
X127921333Y-146982380D02*
X128254666Y-145982380D01*
X128588000Y-146982380D01*
X129349904Y-146315714D02*
X129349904Y-146982380D01*
X128921333Y-146315714D02*
X128921333Y-146839523D01*
X128968952Y-146934761D01*
X129064190Y-146982380D01*
X129207047Y-146982380D01*
X129302285Y-146934761D01*
X129349904Y-146887142D01*
X130254666Y-146315714D02*
X130254666Y-147125238D01*
X130207047Y-147220476D01*
X130159428Y-147268095D01*
X130064190Y-147315714D01*
X129921333Y-147315714D01*
X129826095Y-147268095D01*
X130254666Y-146934761D02*
X130159428Y-146982380D01*
X129968952Y-146982380D01*
X129873714Y-146934761D01*
X129826095Y-146887142D01*
X129778476Y-146791904D01*
X129778476Y-146506190D01*
X129826095Y-146410952D01*
X129873714Y-146363333D01*
X129968952Y-146315714D01*
X130159428Y-146315714D01*
X130254666Y-146363333D01*
X131159428Y-146315714D02*
X131159428Y-146982380D01*
X130730857Y-146315714D02*
X130730857Y-146839523D01*
X130778476Y-146934761D01*
X130873714Y-146982380D01*
X131016571Y-146982380D01*
X131111809Y-146934761D01*
X131159428Y-146887142D01*
X131588000Y-146934761D02*
X131683238Y-146982380D01*
X131873714Y-146982380D01*
X131968952Y-146934761D01*
X132016571Y-146839523D01*
X132016571Y-146791904D01*
X131968952Y-146696666D01*
X131873714Y-146649047D01*
X131730857Y-146649047D01*
X131635619Y-146601428D01*
X131588000Y-146506190D01*
X131588000Y-146458571D01*
X131635619Y-146363333D01*
X131730857Y-146315714D01*
X131873714Y-146315714D01*
X131968952Y-146363333D01*
X132302285Y-146315714D02*
X132683238Y-146315714D01*
X132445142Y-145982380D02*
X132445142Y-146839523D01*
X132492761Y-146934761D01*
X132588000Y-146982380D01*
X132683238Y-146982380D01*
X133730857Y-146077619D02*
X133778476Y-146030000D01*
X133873714Y-145982380D01*
X134111809Y-145982380D01*
X134207047Y-146030000D01*
X134254666Y-146077619D01*
X134302285Y-146172857D01*
X134302285Y-146268095D01*
X134254666Y-146410952D01*
X133683238Y-146982380D01*
X134302285Y-146982380D01*
X134921333Y-145982380D02*
X135016571Y-145982380D01*
X135111809Y-146030000D01*
X135159428Y-146077619D01*
X135207047Y-146172857D01*
X135254666Y-146363333D01*
X135254666Y-146601428D01*
X135207047Y-146791904D01*
X135159428Y-146887142D01*
X135111809Y-146934761D01*
X135016571Y-146982380D01*
X134921333Y-146982380D01*
X134826095Y-146934761D01*
X134778476Y-146887142D01*
X134730857Y-146791904D01*
X134683238Y-146601428D01*
X134683238Y-146363333D01*
X134730857Y-146172857D01*
X134778476Y-146077619D01*
X134826095Y-146030000D01*
X134921333Y-145982380D01*
X136207047Y-146982380D02*
X135635619Y-146982380D01*
X135921333Y-146982380D02*
X135921333Y-145982380D01*
X135826095Y-146125238D01*
X135730857Y-146220476D01*
X135635619Y-146268095D01*
X136778476Y-146410952D02*
X136683238Y-146363333D01*
X136635619Y-146315714D01*
X136588000Y-146220476D01*
X136588000Y-146172857D01*
X136635619Y-146077619D01*
X136683238Y-146030000D01*
X136778476Y-145982380D01*
X136968952Y-145982380D01*
X137064190Y-146030000D01*
X137111809Y-146077619D01*
X137159428Y-146172857D01*
X137159428Y-146220476D01*
X137111809Y-146315714D01*
X137064190Y-146363333D01*
X136968952Y-146410952D01*
X136778476Y-146410952D01*
X136683238Y-146458571D01*
X136635619Y-146506190D01*
X136588000Y-146601428D01*
X136588000Y-146791904D01*
X136635619Y-146887142D01*
X136683238Y-146934761D01*
X136778476Y-146982380D01*
X136968952Y-146982380D01*
X137064190Y-146934761D01*
X137111809Y-146887142D01*
X137159428Y-146791904D01*
X137159428Y-146601428D01*
X137111809Y-146506190D01*
X137064190Y-146458571D01*
X136968952Y-146410952D01*
D12*
G04 #@! TO.C,RV5*
X161810353Y-139582155D02*
G75*
G03X163310000Y-139582000I749647J1700155D01*
G01*
X156730353Y-139582155D02*
G75*
G03X158230000Y-139582000I749647J1700155D01*
G01*
X151650353Y-139582155D02*
G75*
G03X153150000Y-139582000I749647J1700155D01*
G01*
X165180000Y-146162000D02*
X165180000Y-138752000D01*
X165180000Y-138752000D02*
X149780000Y-138752000D01*
X149780000Y-138752000D02*
X149780000Y-146162000D01*
X149780000Y-146162000D02*
X165180000Y-146162000D01*
X163310000Y-139582000D02*
X164060000Y-139582000D01*
X164060000Y-139582000D02*
X164060000Y-143882000D01*
X164060000Y-143882000D02*
X163310000Y-143882000D01*
X163310000Y-143882000D02*
X163310000Y-144232000D01*
X163310000Y-144232000D02*
X163810000Y-144232000D01*
X163810000Y-144232000D02*
X164060000Y-145232000D01*
X164060000Y-145232000D02*
X161060000Y-145232000D01*
X161060000Y-145232000D02*
X161310000Y-144232000D01*
X161310000Y-144232000D02*
X161810000Y-144232000D01*
X161810000Y-144232000D02*
X161810000Y-143882000D01*
X161810000Y-143882000D02*
X161060000Y-143882000D01*
X161060000Y-143882000D02*
X161060000Y-139582000D01*
X161060000Y-139582000D02*
X161810000Y-139582000D01*
X158230000Y-139582000D02*
X158980000Y-139582000D01*
X158980000Y-139582000D02*
X158980000Y-143882000D01*
X158980000Y-143882000D02*
X158230000Y-143882000D01*
X158230000Y-143882000D02*
X158230000Y-144232000D01*
X158230000Y-144232000D02*
X158730000Y-144232000D01*
X158730000Y-144232000D02*
X158980000Y-145232000D01*
X158980000Y-145232000D02*
X155980000Y-145232000D01*
X155980000Y-145232000D02*
X156230000Y-144232000D01*
X156230000Y-144232000D02*
X156730000Y-144232000D01*
X156730000Y-144232000D02*
X156730000Y-143882000D01*
X156730000Y-143882000D02*
X155980000Y-143882000D01*
X155980000Y-143882000D02*
X155980000Y-139582000D01*
X155980000Y-139582000D02*
X156730000Y-139582000D01*
X153150000Y-139582000D02*
X153900000Y-139582000D01*
X153900000Y-139582000D02*
X153900000Y-143882000D01*
X153900000Y-143882000D02*
X153150000Y-143882000D01*
X153150000Y-143882000D02*
X153150000Y-144232000D01*
X153150000Y-144232000D02*
X153650000Y-144232000D01*
X153650000Y-144232000D02*
X153900000Y-145232000D01*
X153900000Y-145232000D02*
X150900000Y-145232000D01*
X150900000Y-145232000D02*
X151150000Y-144232000D01*
X151150000Y-144232000D02*
X151650000Y-144232000D01*
X151650000Y-144232000D02*
X151650000Y-143882000D01*
X151650000Y-143882000D02*
X150900000Y-143882000D01*
X150900000Y-143882000D02*
X150900000Y-139582000D01*
X150900000Y-139582000D02*
X151650000Y-139582000D01*
X165600000Y-145332000D02*
X165600000Y-146582000D01*
X165600000Y-146582000D02*
X163600000Y-146582000D01*
G04 #@! TO.C,C15*
X154278000Y-111128000D02*
X154278000Y-118568000D01*
X151538000Y-111128000D02*
X151538000Y-118568000D01*
X154278000Y-111128000D02*
X151538000Y-111128000D01*
X154278000Y-118568000D02*
X151538000Y-118568000D01*
G04 #@! TO.C,RV3*
X109594000Y-114300000D02*
G75*
G03X109594000Y-114300000I-3930000J0D01*
G01*
G04 #@! TO.C,R24*
X135128000Y-139168000D02*
X135128000Y-138398000D01*
X135128000Y-131088000D02*
X135128000Y-131858000D01*
X136498000Y-138398000D02*
X136498000Y-131858000D01*
X133758000Y-138398000D02*
X136498000Y-138398000D01*
X133758000Y-131858000D02*
X133758000Y-138398000D01*
X136498000Y-131858000D02*
X133758000Y-131858000D01*
G04 #@! TO.C,C18*
X155220302Y-120729000D02*
X155220302Y-121529000D01*
X154820302Y-121129000D02*
X155620302Y-121129000D01*
X163311000Y-122911000D02*
X163311000Y-123977000D01*
X163271000Y-122676000D02*
X163271000Y-124212000D01*
X163231000Y-122496000D02*
X163231000Y-124392000D01*
X163191000Y-122346000D02*
X163191000Y-124542000D01*
X163151000Y-122215000D02*
X163151000Y-124673000D01*
X163111000Y-122098000D02*
X163111000Y-124790000D01*
X163071000Y-121991000D02*
X163071000Y-124897000D01*
X163031000Y-121892000D02*
X163031000Y-124996000D01*
X162991000Y-121799000D02*
X162991000Y-125089000D01*
X162951000Y-121713000D02*
X162951000Y-125175000D01*
X162911000Y-121631000D02*
X162911000Y-125257000D01*
X162871000Y-121554000D02*
X162871000Y-125334000D01*
X162831000Y-121480000D02*
X162831000Y-125408000D01*
X162791000Y-121410000D02*
X162791000Y-125478000D01*
X162751000Y-121342000D02*
X162751000Y-125546000D01*
X162711000Y-121278000D02*
X162711000Y-125610000D01*
X162671000Y-121216000D02*
X162671000Y-125672000D01*
X162631000Y-121157000D02*
X162631000Y-125731000D01*
X162591000Y-121099000D02*
X162591000Y-125789000D01*
X162551000Y-121044000D02*
X162551000Y-125844000D01*
X162511000Y-120990000D02*
X162511000Y-125898000D01*
X162471000Y-120939000D02*
X162471000Y-125949000D01*
X162431000Y-120888000D02*
X162431000Y-126000000D01*
X162391000Y-120840000D02*
X162391000Y-126048000D01*
X162351000Y-120793000D02*
X162351000Y-126095000D01*
X162311000Y-120747000D02*
X162311000Y-126141000D01*
X162271000Y-120703000D02*
X162271000Y-126185000D01*
X162231000Y-120660000D02*
X162231000Y-126228000D01*
X162191000Y-120618000D02*
X162191000Y-126270000D01*
X162151000Y-120577000D02*
X162151000Y-126311000D01*
X162111000Y-120537000D02*
X162111000Y-126351000D01*
X162071000Y-120499000D02*
X162071000Y-126389000D01*
X162031000Y-120461000D02*
X162031000Y-126427000D01*
X161991000Y-124484000D02*
X161991000Y-126463000D01*
X161991000Y-120425000D02*
X161991000Y-122404000D01*
X161951000Y-124484000D02*
X161951000Y-126499000D01*
X161951000Y-120389000D02*
X161951000Y-122404000D01*
X161911000Y-124484000D02*
X161911000Y-126534000D01*
X161911000Y-120354000D02*
X161911000Y-122404000D01*
X161871000Y-124484000D02*
X161871000Y-126568000D01*
X161871000Y-120320000D02*
X161871000Y-122404000D01*
X161831000Y-124484000D02*
X161831000Y-126600000D01*
X161831000Y-120288000D02*
X161831000Y-122404000D01*
X161791000Y-124484000D02*
X161791000Y-126633000D01*
X161791000Y-120255000D02*
X161791000Y-122404000D01*
X161751000Y-124484000D02*
X161751000Y-126664000D01*
X161751000Y-120224000D02*
X161751000Y-122404000D01*
X161711000Y-124484000D02*
X161711000Y-126694000D01*
X161711000Y-120194000D02*
X161711000Y-122404000D01*
X161671000Y-124484000D02*
X161671000Y-126724000D01*
X161671000Y-120164000D02*
X161671000Y-122404000D01*
X161631000Y-124484000D02*
X161631000Y-126753000D01*
X161631000Y-120135000D02*
X161631000Y-122404000D01*
X161591000Y-124484000D02*
X161591000Y-126782000D01*
X161591000Y-120106000D02*
X161591000Y-122404000D01*
X161551000Y-124484000D02*
X161551000Y-126809000D01*
X161551000Y-120079000D02*
X161551000Y-122404000D01*
X161511000Y-124484000D02*
X161511000Y-126836000D01*
X161511000Y-120052000D02*
X161511000Y-122404000D01*
X161471000Y-124484000D02*
X161471000Y-126862000D01*
X161471000Y-120026000D02*
X161471000Y-122404000D01*
X161431000Y-124484000D02*
X161431000Y-126888000D01*
X161431000Y-120000000D02*
X161431000Y-122404000D01*
X161391000Y-124484000D02*
X161391000Y-126913000D01*
X161391000Y-119975000D02*
X161391000Y-122404000D01*
X161351000Y-124484000D02*
X161351000Y-126937000D01*
X161351000Y-119951000D02*
X161351000Y-122404000D01*
X161311000Y-124484000D02*
X161311000Y-126961000D01*
X161311000Y-119927000D02*
X161311000Y-122404000D01*
X161271000Y-124484000D02*
X161271000Y-126984000D01*
X161271000Y-119904000D02*
X161271000Y-122404000D01*
X161231000Y-124484000D02*
X161231000Y-127006000D01*
X161231000Y-119882000D02*
X161231000Y-122404000D01*
X161191000Y-124484000D02*
X161191000Y-127028000D01*
X161191000Y-119860000D02*
X161191000Y-122404000D01*
X161151000Y-124484000D02*
X161151000Y-127050000D01*
X161151000Y-119838000D02*
X161151000Y-122404000D01*
X161111000Y-124484000D02*
X161111000Y-127071000D01*
X161111000Y-119817000D02*
X161111000Y-122404000D01*
X161071000Y-124484000D02*
X161071000Y-127091000D01*
X161071000Y-119797000D02*
X161071000Y-122404000D01*
X161031000Y-124484000D02*
X161031000Y-127110000D01*
X161031000Y-119778000D02*
X161031000Y-122404000D01*
X160991000Y-124484000D02*
X160991000Y-127130000D01*
X160991000Y-119758000D02*
X160991000Y-122404000D01*
X160951000Y-124484000D02*
X160951000Y-127148000D01*
X160951000Y-119740000D02*
X160951000Y-122404000D01*
X160911000Y-124484000D02*
X160911000Y-127166000D01*
X160911000Y-119722000D02*
X160911000Y-122404000D01*
X160871000Y-124484000D02*
X160871000Y-127184000D01*
X160871000Y-119704000D02*
X160871000Y-122404000D01*
X160831000Y-124484000D02*
X160831000Y-127201000D01*
X160831000Y-119687000D02*
X160831000Y-122404000D01*
X160791000Y-124484000D02*
X160791000Y-127218000D01*
X160791000Y-119670000D02*
X160791000Y-122404000D01*
X160751000Y-124484000D02*
X160751000Y-127234000D01*
X160751000Y-119654000D02*
X160751000Y-122404000D01*
X160711000Y-124484000D02*
X160711000Y-127249000D01*
X160711000Y-119639000D02*
X160711000Y-122404000D01*
X160671000Y-124484000D02*
X160671000Y-127265000D01*
X160671000Y-119623000D02*
X160671000Y-122404000D01*
X160631000Y-124484000D02*
X160631000Y-127279000D01*
X160631000Y-119609000D02*
X160631000Y-122404000D01*
X160591000Y-124484000D02*
X160591000Y-127294000D01*
X160591000Y-119594000D02*
X160591000Y-122404000D01*
X160551000Y-124484000D02*
X160551000Y-127307000D01*
X160551000Y-119581000D02*
X160551000Y-122404000D01*
X160511000Y-124484000D02*
X160511000Y-127321000D01*
X160511000Y-119567000D02*
X160511000Y-122404000D01*
X160471000Y-124484000D02*
X160471000Y-127333000D01*
X160471000Y-119555000D02*
X160471000Y-122404000D01*
X160431000Y-124484000D02*
X160431000Y-127346000D01*
X160431000Y-119542000D02*
X160431000Y-122404000D01*
X160391000Y-124484000D02*
X160391000Y-127358000D01*
X160391000Y-119530000D02*
X160391000Y-122404000D01*
X160351000Y-124484000D02*
X160351000Y-127369000D01*
X160351000Y-119519000D02*
X160351000Y-122404000D01*
X160311000Y-124484000D02*
X160311000Y-127380000D01*
X160311000Y-119508000D02*
X160311000Y-122404000D01*
X160271000Y-124484000D02*
X160271000Y-127391000D01*
X160271000Y-119497000D02*
X160271000Y-122404000D01*
X160231000Y-124484000D02*
X160231000Y-127401000D01*
X160231000Y-119487000D02*
X160231000Y-122404000D01*
X160191000Y-124484000D02*
X160191000Y-127411000D01*
X160191000Y-119477000D02*
X160191000Y-122404000D01*
X160151000Y-124484000D02*
X160151000Y-127420000D01*
X160151000Y-119468000D02*
X160151000Y-122404000D01*
X160111000Y-124484000D02*
X160111000Y-127429000D01*
X160111000Y-119459000D02*
X160111000Y-122404000D01*
X160071000Y-124484000D02*
X160071000Y-127438000D01*
X160071000Y-119450000D02*
X160071000Y-122404000D01*
X160031000Y-124484000D02*
X160031000Y-127446000D01*
X160031000Y-119442000D02*
X160031000Y-122404000D01*
X159991000Y-124484000D02*
X159991000Y-127454000D01*
X159991000Y-119434000D02*
X159991000Y-122404000D01*
X159951000Y-124484000D02*
X159951000Y-127461000D01*
X159951000Y-119427000D02*
X159951000Y-122404000D01*
X159910000Y-119420000D02*
X159910000Y-127468000D01*
X159870000Y-119414000D02*
X159870000Y-127474000D01*
X159830000Y-119407000D02*
X159830000Y-127481000D01*
X159790000Y-119402000D02*
X159790000Y-127486000D01*
X159750000Y-119396000D02*
X159750000Y-127492000D01*
X159710000Y-119392000D02*
X159710000Y-127496000D01*
X159670000Y-119387000D02*
X159670000Y-127501000D01*
X159630000Y-119383000D02*
X159630000Y-127505000D01*
X159590000Y-119379000D02*
X159590000Y-127509000D01*
X159550000Y-119376000D02*
X159550000Y-127512000D01*
X159510000Y-119373000D02*
X159510000Y-127515000D01*
X159470000Y-119370000D02*
X159470000Y-127518000D01*
X159430000Y-119368000D02*
X159430000Y-127520000D01*
X159390000Y-119367000D02*
X159390000Y-127521000D01*
X159350000Y-119365000D02*
X159350000Y-127523000D01*
X159310000Y-119364000D02*
X159310000Y-127524000D01*
X159270000Y-119364000D02*
X159270000Y-127524000D01*
X159230000Y-119364000D02*
X159230000Y-127524000D01*
X163350000Y-123444000D02*
G75*
G03X163350000Y-123444000I-4120000J0D01*
G01*
G04 #@! TO.C,C14*
X155220302Y-112093000D02*
X155220302Y-112893000D01*
X154820302Y-112493000D02*
X155620302Y-112493000D01*
X163311000Y-114275000D02*
X163311000Y-115341000D01*
X163271000Y-114040000D02*
X163271000Y-115576000D01*
X163231000Y-113860000D02*
X163231000Y-115756000D01*
X163191000Y-113710000D02*
X163191000Y-115906000D01*
X163151000Y-113579000D02*
X163151000Y-116037000D01*
X163111000Y-113462000D02*
X163111000Y-116154000D01*
X163071000Y-113355000D02*
X163071000Y-116261000D01*
X163031000Y-113256000D02*
X163031000Y-116360000D01*
X162991000Y-113163000D02*
X162991000Y-116453000D01*
X162951000Y-113077000D02*
X162951000Y-116539000D01*
X162911000Y-112995000D02*
X162911000Y-116621000D01*
X162871000Y-112918000D02*
X162871000Y-116698000D01*
X162831000Y-112844000D02*
X162831000Y-116772000D01*
X162791000Y-112774000D02*
X162791000Y-116842000D01*
X162751000Y-112706000D02*
X162751000Y-116910000D01*
X162711000Y-112642000D02*
X162711000Y-116974000D01*
X162671000Y-112580000D02*
X162671000Y-117036000D01*
X162631000Y-112521000D02*
X162631000Y-117095000D01*
X162591000Y-112463000D02*
X162591000Y-117153000D01*
X162551000Y-112408000D02*
X162551000Y-117208000D01*
X162511000Y-112354000D02*
X162511000Y-117262000D01*
X162471000Y-112303000D02*
X162471000Y-117313000D01*
X162431000Y-112252000D02*
X162431000Y-117364000D01*
X162391000Y-112204000D02*
X162391000Y-117412000D01*
X162351000Y-112157000D02*
X162351000Y-117459000D01*
X162311000Y-112111000D02*
X162311000Y-117505000D01*
X162271000Y-112067000D02*
X162271000Y-117549000D01*
X162231000Y-112024000D02*
X162231000Y-117592000D01*
X162191000Y-111982000D02*
X162191000Y-117634000D01*
X162151000Y-111941000D02*
X162151000Y-117675000D01*
X162111000Y-111901000D02*
X162111000Y-117715000D01*
X162071000Y-111863000D02*
X162071000Y-117753000D01*
X162031000Y-111825000D02*
X162031000Y-117791000D01*
X161991000Y-115848000D02*
X161991000Y-117827000D01*
X161991000Y-111789000D02*
X161991000Y-113768000D01*
X161951000Y-115848000D02*
X161951000Y-117863000D01*
X161951000Y-111753000D02*
X161951000Y-113768000D01*
X161911000Y-115848000D02*
X161911000Y-117898000D01*
X161911000Y-111718000D02*
X161911000Y-113768000D01*
X161871000Y-115848000D02*
X161871000Y-117932000D01*
X161871000Y-111684000D02*
X161871000Y-113768000D01*
X161831000Y-115848000D02*
X161831000Y-117964000D01*
X161831000Y-111652000D02*
X161831000Y-113768000D01*
X161791000Y-115848000D02*
X161791000Y-117997000D01*
X161791000Y-111619000D02*
X161791000Y-113768000D01*
X161751000Y-115848000D02*
X161751000Y-118028000D01*
X161751000Y-111588000D02*
X161751000Y-113768000D01*
X161711000Y-115848000D02*
X161711000Y-118058000D01*
X161711000Y-111558000D02*
X161711000Y-113768000D01*
X161671000Y-115848000D02*
X161671000Y-118088000D01*
X161671000Y-111528000D02*
X161671000Y-113768000D01*
X161631000Y-115848000D02*
X161631000Y-118117000D01*
X161631000Y-111499000D02*
X161631000Y-113768000D01*
X161591000Y-115848000D02*
X161591000Y-118146000D01*
X161591000Y-111470000D02*
X161591000Y-113768000D01*
X161551000Y-115848000D02*
X161551000Y-118173000D01*
X161551000Y-111443000D02*
X161551000Y-113768000D01*
X161511000Y-115848000D02*
X161511000Y-118200000D01*
X161511000Y-111416000D02*
X161511000Y-113768000D01*
X161471000Y-115848000D02*
X161471000Y-118226000D01*
X161471000Y-111390000D02*
X161471000Y-113768000D01*
X161431000Y-115848000D02*
X161431000Y-118252000D01*
X161431000Y-111364000D02*
X161431000Y-113768000D01*
X161391000Y-115848000D02*
X161391000Y-118277000D01*
X161391000Y-111339000D02*
X161391000Y-113768000D01*
X161351000Y-115848000D02*
X161351000Y-118301000D01*
X161351000Y-111315000D02*
X161351000Y-113768000D01*
X161311000Y-115848000D02*
X161311000Y-118325000D01*
X161311000Y-111291000D02*
X161311000Y-113768000D01*
X161271000Y-115848000D02*
X161271000Y-118348000D01*
X161271000Y-111268000D02*
X161271000Y-113768000D01*
X161231000Y-115848000D02*
X161231000Y-118370000D01*
X161231000Y-111246000D02*
X161231000Y-113768000D01*
X161191000Y-115848000D02*
X161191000Y-118392000D01*
X161191000Y-111224000D02*
X161191000Y-113768000D01*
X161151000Y-115848000D02*
X161151000Y-118414000D01*
X161151000Y-111202000D02*
X161151000Y-113768000D01*
X161111000Y-115848000D02*
X161111000Y-118435000D01*
X161111000Y-111181000D02*
X161111000Y-113768000D01*
X161071000Y-115848000D02*
X161071000Y-118455000D01*
X161071000Y-111161000D02*
X161071000Y-113768000D01*
X161031000Y-115848000D02*
X161031000Y-118474000D01*
X161031000Y-111142000D02*
X161031000Y-113768000D01*
X160991000Y-115848000D02*
X160991000Y-118494000D01*
X160991000Y-111122000D02*
X160991000Y-113768000D01*
X160951000Y-115848000D02*
X160951000Y-118512000D01*
X160951000Y-111104000D02*
X160951000Y-113768000D01*
X160911000Y-115848000D02*
X160911000Y-118530000D01*
X160911000Y-111086000D02*
X160911000Y-113768000D01*
X160871000Y-115848000D02*
X160871000Y-118548000D01*
X160871000Y-111068000D02*
X160871000Y-113768000D01*
X160831000Y-115848000D02*
X160831000Y-118565000D01*
X160831000Y-111051000D02*
X160831000Y-113768000D01*
X160791000Y-115848000D02*
X160791000Y-118582000D01*
X160791000Y-111034000D02*
X160791000Y-113768000D01*
X160751000Y-115848000D02*
X160751000Y-118598000D01*
X160751000Y-111018000D02*
X160751000Y-113768000D01*
X160711000Y-115848000D02*
X160711000Y-118613000D01*
X160711000Y-111003000D02*
X160711000Y-113768000D01*
X160671000Y-115848000D02*
X160671000Y-118629000D01*
X160671000Y-110987000D02*
X160671000Y-113768000D01*
X160631000Y-115848000D02*
X160631000Y-118643000D01*
X160631000Y-110973000D02*
X160631000Y-113768000D01*
X160591000Y-115848000D02*
X160591000Y-118658000D01*
X160591000Y-110958000D02*
X160591000Y-113768000D01*
X160551000Y-115848000D02*
X160551000Y-118671000D01*
X160551000Y-110945000D02*
X160551000Y-113768000D01*
X160511000Y-115848000D02*
X160511000Y-118685000D01*
X160511000Y-110931000D02*
X160511000Y-113768000D01*
X160471000Y-115848000D02*
X160471000Y-118697000D01*
X160471000Y-110919000D02*
X160471000Y-113768000D01*
X160431000Y-115848000D02*
X160431000Y-118710000D01*
X160431000Y-110906000D02*
X160431000Y-113768000D01*
X160391000Y-115848000D02*
X160391000Y-118722000D01*
X160391000Y-110894000D02*
X160391000Y-113768000D01*
X160351000Y-115848000D02*
X160351000Y-118733000D01*
X160351000Y-110883000D02*
X160351000Y-113768000D01*
X160311000Y-115848000D02*
X160311000Y-118744000D01*
X160311000Y-110872000D02*
X160311000Y-113768000D01*
X160271000Y-115848000D02*
X160271000Y-118755000D01*
X160271000Y-110861000D02*
X160271000Y-113768000D01*
X160231000Y-115848000D02*
X160231000Y-118765000D01*
X160231000Y-110851000D02*
X160231000Y-113768000D01*
X160191000Y-115848000D02*
X160191000Y-118775000D01*
X160191000Y-110841000D02*
X160191000Y-113768000D01*
X160151000Y-115848000D02*
X160151000Y-118784000D01*
X160151000Y-110832000D02*
X160151000Y-113768000D01*
X160111000Y-115848000D02*
X160111000Y-118793000D01*
X160111000Y-110823000D02*
X160111000Y-113768000D01*
X160071000Y-115848000D02*
X160071000Y-118802000D01*
X160071000Y-110814000D02*
X160071000Y-113768000D01*
X160031000Y-115848000D02*
X160031000Y-118810000D01*
X160031000Y-110806000D02*
X160031000Y-113768000D01*
X159991000Y-115848000D02*
X159991000Y-118818000D01*
X159991000Y-110798000D02*
X159991000Y-113768000D01*
X159951000Y-115848000D02*
X159951000Y-118825000D01*
X159951000Y-110791000D02*
X159951000Y-113768000D01*
X159910000Y-110784000D02*
X159910000Y-118832000D01*
X159870000Y-110778000D02*
X159870000Y-118838000D01*
X159830000Y-110771000D02*
X159830000Y-118845000D01*
X159790000Y-110766000D02*
X159790000Y-118850000D01*
X159750000Y-110760000D02*
X159750000Y-118856000D01*
X159710000Y-110756000D02*
X159710000Y-118860000D01*
X159670000Y-110751000D02*
X159670000Y-118865000D01*
X159630000Y-110747000D02*
X159630000Y-118869000D01*
X159590000Y-110743000D02*
X159590000Y-118873000D01*
X159550000Y-110740000D02*
X159550000Y-118876000D01*
X159510000Y-110737000D02*
X159510000Y-118879000D01*
X159470000Y-110734000D02*
X159470000Y-118882000D01*
X159430000Y-110732000D02*
X159430000Y-118884000D01*
X159390000Y-110731000D02*
X159390000Y-118885000D01*
X159350000Y-110729000D02*
X159350000Y-118887000D01*
X159310000Y-110728000D02*
X159310000Y-118888000D01*
X159270000Y-110728000D02*
X159270000Y-118888000D01*
X159230000Y-110728000D02*
X159230000Y-118888000D01*
X163350000Y-114808000D02*
G75*
G03X163350000Y-114808000I-4120000J0D01*
G01*
G04 #@! TO.C,C20*
X147602000Y-119888000D02*
G75*
G03X147602000Y-119888000I-4120000J0D01*
G01*
X143482000Y-115808000D02*
X143482000Y-123968000D01*
X143522000Y-115808000D02*
X143522000Y-123968000D01*
X143562000Y-115808000D02*
X143562000Y-123968000D01*
X143602000Y-115809000D02*
X143602000Y-123967000D01*
X143642000Y-115811000D02*
X143642000Y-123965000D01*
X143682000Y-115812000D02*
X143682000Y-123964000D01*
X143722000Y-115814000D02*
X143722000Y-123962000D01*
X143762000Y-115817000D02*
X143762000Y-123959000D01*
X143802000Y-115820000D02*
X143802000Y-123956000D01*
X143842000Y-115823000D02*
X143842000Y-123953000D01*
X143882000Y-115827000D02*
X143882000Y-123949000D01*
X143922000Y-115831000D02*
X143922000Y-123945000D01*
X143962000Y-115836000D02*
X143962000Y-123940000D01*
X144002000Y-115840000D02*
X144002000Y-123936000D01*
X144042000Y-115846000D02*
X144042000Y-123930000D01*
X144082000Y-115851000D02*
X144082000Y-123925000D01*
X144122000Y-115858000D02*
X144122000Y-123918000D01*
X144162000Y-115864000D02*
X144162000Y-123912000D01*
X144203000Y-115871000D02*
X144203000Y-118848000D01*
X144203000Y-120928000D02*
X144203000Y-123905000D01*
X144243000Y-115878000D02*
X144243000Y-118848000D01*
X144243000Y-120928000D02*
X144243000Y-123898000D01*
X144283000Y-115886000D02*
X144283000Y-118848000D01*
X144283000Y-120928000D02*
X144283000Y-123890000D01*
X144323000Y-115894000D02*
X144323000Y-118848000D01*
X144323000Y-120928000D02*
X144323000Y-123882000D01*
X144363000Y-115903000D02*
X144363000Y-118848000D01*
X144363000Y-120928000D02*
X144363000Y-123873000D01*
X144403000Y-115912000D02*
X144403000Y-118848000D01*
X144403000Y-120928000D02*
X144403000Y-123864000D01*
X144443000Y-115921000D02*
X144443000Y-118848000D01*
X144443000Y-120928000D02*
X144443000Y-123855000D01*
X144483000Y-115931000D02*
X144483000Y-118848000D01*
X144483000Y-120928000D02*
X144483000Y-123845000D01*
X144523000Y-115941000D02*
X144523000Y-118848000D01*
X144523000Y-120928000D02*
X144523000Y-123835000D01*
X144563000Y-115952000D02*
X144563000Y-118848000D01*
X144563000Y-120928000D02*
X144563000Y-123824000D01*
X144603000Y-115963000D02*
X144603000Y-118848000D01*
X144603000Y-120928000D02*
X144603000Y-123813000D01*
X144643000Y-115974000D02*
X144643000Y-118848000D01*
X144643000Y-120928000D02*
X144643000Y-123802000D01*
X144683000Y-115986000D02*
X144683000Y-118848000D01*
X144683000Y-120928000D02*
X144683000Y-123790000D01*
X144723000Y-115999000D02*
X144723000Y-118848000D01*
X144723000Y-120928000D02*
X144723000Y-123777000D01*
X144763000Y-116011000D02*
X144763000Y-118848000D01*
X144763000Y-120928000D02*
X144763000Y-123765000D01*
X144803000Y-116025000D02*
X144803000Y-118848000D01*
X144803000Y-120928000D02*
X144803000Y-123751000D01*
X144843000Y-116038000D02*
X144843000Y-118848000D01*
X144843000Y-120928000D02*
X144843000Y-123738000D01*
X144883000Y-116053000D02*
X144883000Y-118848000D01*
X144883000Y-120928000D02*
X144883000Y-123723000D01*
X144923000Y-116067000D02*
X144923000Y-118848000D01*
X144923000Y-120928000D02*
X144923000Y-123709000D01*
X144963000Y-116083000D02*
X144963000Y-118848000D01*
X144963000Y-120928000D02*
X144963000Y-123693000D01*
X145003000Y-116098000D02*
X145003000Y-118848000D01*
X145003000Y-120928000D02*
X145003000Y-123678000D01*
X145043000Y-116114000D02*
X145043000Y-118848000D01*
X145043000Y-120928000D02*
X145043000Y-123662000D01*
X145083000Y-116131000D02*
X145083000Y-118848000D01*
X145083000Y-120928000D02*
X145083000Y-123645000D01*
X145123000Y-116148000D02*
X145123000Y-118848000D01*
X145123000Y-120928000D02*
X145123000Y-123628000D01*
X145163000Y-116166000D02*
X145163000Y-118848000D01*
X145163000Y-120928000D02*
X145163000Y-123610000D01*
X145203000Y-116184000D02*
X145203000Y-118848000D01*
X145203000Y-120928000D02*
X145203000Y-123592000D01*
X145243000Y-116202000D02*
X145243000Y-118848000D01*
X145243000Y-120928000D02*
X145243000Y-123574000D01*
X145283000Y-116222000D02*
X145283000Y-118848000D01*
X145283000Y-120928000D02*
X145283000Y-123554000D01*
X145323000Y-116241000D02*
X145323000Y-118848000D01*
X145323000Y-120928000D02*
X145323000Y-123535000D01*
X145363000Y-116261000D02*
X145363000Y-118848000D01*
X145363000Y-120928000D02*
X145363000Y-123515000D01*
X145403000Y-116282000D02*
X145403000Y-118848000D01*
X145403000Y-120928000D02*
X145403000Y-123494000D01*
X145443000Y-116304000D02*
X145443000Y-118848000D01*
X145443000Y-120928000D02*
X145443000Y-123472000D01*
X145483000Y-116326000D02*
X145483000Y-118848000D01*
X145483000Y-120928000D02*
X145483000Y-123450000D01*
X145523000Y-116348000D02*
X145523000Y-118848000D01*
X145523000Y-120928000D02*
X145523000Y-123428000D01*
X145563000Y-116371000D02*
X145563000Y-118848000D01*
X145563000Y-120928000D02*
X145563000Y-123405000D01*
X145603000Y-116395000D02*
X145603000Y-118848000D01*
X145603000Y-120928000D02*
X145603000Y-123381000D01*
X145643000Y-116419000D02*
X145643000Y-118848000D01*
X145643000Y-120928000D02*
X145643000Y-123357000D01*
X145683000Y-116444000D02*
X145683000Y-118848000D01*
X145683000Y-120928000D02*
X145683000Y-123332000D01*
X145723000Y-116470000D02*
X145723000Y-118848000D01*
X145723000Y-120928000D02*
X145723000Y-123306000D01*
X145763000Y-116496000D02*
X145763000Y-118848000D01*
X145763000Y-120928000D02*
X145763000Y-123280000D01*
X145803000Y-116523000D02*
X145803000Y-118848000D01*
X145803000Y-120928000D02*
X145803000Y-123253000D01*
X145843000Y-116550000D02*
X145843000Y-118848000D01*
X145843000Y-120928000D02*
X145843000Y-123226000D01*
X145883000Y-116579000D02*
X145883000Y-118848000D01*
X145883000Y-120928000D02*
X145883000Y-123197000D01*
X145923000Y-116608000D02*
X145923000Y-118848000D01*
X145923000Y-120928000D02*
X145923000Y-123168000D01*
X145963000Y-116638000D02*
X145963000Y-118848000D01*
X145963000Y-120928000D02*
X145963000Y-123138000D01*
X146003000Y-116668000D02*
X146003000Y-118848000D01*
X146003000Y-120928000D02*
X146003000Y-123108000D01*
X146043000Y-116699000D02*
X146043000Y-118848000D01*
X146043000Y-120928000D02*
X146043000Y-123077000D01*
X146083000Y-116732000D02*
X146083000Y-118848000D01*
X146083000Y-120928000D02*
X146083000Y-123044000D01*
X146123000Y-116764000D02*
X146123000Y-118848000D01*
X146123000Y-120928000D02*
X146123000Y-123012000D01*
X146163000Y-116798000D02*
X146163000Y-118848000D01*
X146163000Y-120928000D02*
X146163000Y-122978000D01*
X146203000Y-116833000D02*
X146203000Y-118848000D01*
X146203000Y-120928000D02*
X146203000Y-122943000D01*
X146243000Y-116869000D02*
X146243000Y-118848000D01*
X146243000Y-120928000D02*
X146243000Y-122907000D01*
X146283000Y-116905000D02*
X146283000Y-122871000D01*
X146323000Y-116943000D02*
X146323000Y-122833000D01*
X146363000Y-116981000D02*
X146363000Y-122795000D01*
X146403000Y-117021000D02*
X146403000Y-122755000D01*
X146443000Y-117062000D02*
X146443000Y-122714000D01*
X146483000Y-117104000D02*
X146483000Y-122672000D01*
X146523000Y-117147000D02*
X146523000Y-122629000D01*
X146563000Y-117191000D02*
X146563000Y-122585000D01*
X146603000Y-117237000D02*
X146603000Y-122539000D01*
X146643000Y-117284000D02*
X146643000Y-122492000D01*
X146683000Y-117332000D02*
X146683000Y-122444000D01*
X146723000Y-117383000D02*
X146723000Y-122393000D01*
X146763000Y-117434000D02*
X146763000Y-122342000D01*
X146803000Y-117488000D02*
X146803000Y-122288000D01*
X146843000Y-117543000D02*
X146843000Y-122233000D01*
X146883000Y-117601000D02*
X146883000Y-122175000D01*
X146923000Y-117660000D02*
X146923000Y-122116000D01*
X146963000Y-117722000D02*
X146963000Y-122054000D01*
X147003000Y-117786000D02*
X147003000Y-121990000D01*
X147043000Y-117854000D02*
X147043000Y-121922000D01*
X147083000Y-117924000D02*
X147083000Y-121852000D01*
X147123000Y-117998000D02*
X147123000Y-121778000D01*
X147163000Y-118075000D02*
X147163000Y-121701000D01*
X147203000Y-118157000D02*
X147203000Y-121619000D01*
X147243000Y-118243000D02*
X147243000Y-121533000D01*
X147283000Y-118336000D02*
X147283000Y-121440000D01*
X147323000Y-118435000D02*
X147323000Y-121341000D01*
X147363000Y-118542000D02*
X147363000Y-121234000D01*
X147403000Y-118659000D02*
X147403000Y-121117000D01*
X147443000Y-118790000D02*
X147443000Y-120986000D01*
X147483000Y-118940000D02*
X147483000Y-120836000D01*
X147523000Y-119120000D02*
X147523000Y-120656000D01*
X147563000Y-119355000D02*
X147563000Y-120421000D01*
X139072302Y-117573000D02*
X139872302Y-117573000D01*
X139472302Y-117173000D02*
X139472302Y-117973000D01*
G04 #@! TO.C,D3*
X166728000Y-134308000D02*
X169568000Y-134308000D01*
X169568000Y-134308000D02*
X169568000Y-130868000D01*
X169568000Y-130868000D02*
X166728000Y-130868000D01*
X166728000Y-130868000D02*
X166728000Y-134308000D01*
X168148000Y-136428000D02*
X168148000Y-134308000D01*
X168148000Y-128748000D02*
X168148000Y-130868000D01*
X166728000Y-133708000D02*
X169568000Y-133708000D01*
X166728000Y-133588000D02*
X169568000Y-133588000D01*
X166728000Y-133828000D02*
X169568000Y-133828000D01*
G04 #@! TO.C,D4*
X170284000Y-133828000D02*
X173124000Y-133828000D01*
X170284000Y-133588000D02*
X173124000Y-133588000D01*
X170284000Y-133708000D02*
X173124000Y-133708000D01*
X171704000Y-128748000D02*
X171704000Y-130868000D01*
X171704000Y-136428000D02*
X171704000Y-134308000D01*
X170284000Y-130868000D02*
X170284000Y-134308000D01*
X173124000Y-130868000D02*
X170284000Y-130868000D01*
X173124000Y-134308000D02*
X173124000Y-130868000D01*
X170284000Y-134308000D02*
X173124000Y-134308000D01*
G04 #@! TO.C,R14*
X138176000Y-131088000D02*
X138176000Y-131858000D01*
X138176000Y-139168000D02*
X138176000Y-138398000D01*
X136806000Y-131858000D02*
X136806000Y-138398000D01*
X139546000Y-131858000D02*
X136806000Y-131858000D01*
X139546000Y-138398000D02*
X139546000Y-131858000D01*
X136806000Y-138398000D02*
X139546000Y-138398000D01*
G04 #@! TO.C,R12*
X104648000Y-124992000D02*
X104648000Y-125762000D01*
X104648000Y-133072000D02*
X104648000Y-132302000D01*
X103278000Y-125762000D02*
X103278000Y-132302000D01*
X106018000Y-125762000D02*
X103278000Y-125762000D01*
X106018000Y-132302000D02*
X106018000Y-125762000D01*
X103278000Y-132302000D02*
X106018000Y-132302000D01*
G04 #@! TO.C,J4*
X169046155Y-113017647D02*
G75*
G03X169046000Y-111518000I-1700155J749647D01*
G01*
X169046155Y-118097647D02*
G75*
G03X169046000Y-116598000I-1700155J749647D01*
G01*
X175626000Y-109648000D02*
X168216000Y-109648000D01*
X168216000Y-109648000D02*
X168216000Y-119968000D01*
X168216000Y-119968000D02*
X175626000Y-119968000D01*
X175626000Y-119968000D02*
X175626000Y-109648000D01*
X169046000Y-111518000D02*
X169046000Y-110768000D01*
X169046000Y-110768000D02*
X173346000Y-110768000D01*
X173346000Y-110768000D02*
X173346000Y-111518000D01*
X173346000Y-111518000D02*
X173696000Y-111518000D01*
X173696000Y-111518000D02*
X173696000Y-111018000D01*
X173696000Y-111018000D02*
X174696000Y-110768000D01*
X174696000Y-110768000D02*
X174696000Y-113768000D01*
X174696000Y-113768000D02*
X173696000Y-113518000D01*
X173696000Y-113518000D02*
X173696000Y-113018000D01*
X173696000Y-113018000D02*
X173346000Y-113018000D01*
X173346000Y-113018000D02*
X173346000Y-113768000D01*
X173346000Y-113768000D02*
X169046000Y-113768000D01*
X169046000Y-113768000D02*
X169046000Y-113018000D01*
X169046000Y-116598000D02*
X169046000Y-115848000D01*
X169046000Y-115848000D02*
X173346000Y-115848000D01*
X173346000Y-115848000D02*
X173346000Y-116598000D01*
X173346000Y-116598000D02*
X173696000Y-116598000D01*
X173696000Y-116598000D02*
X173696000Y-116098000D01*
X173696000Y-116098000D02*
X174696000Y-115848000D01*
X174696000Y-115848000D02*
X174696000Y-118848000D01*
X174696000Y-118848000D02*
X173696000Y-118598000D01*
X173696000Y-118598000D02*
X173696000Y-118098000D01*
X173696000Y-118098000D02*
X173346000Y-118098000D01*
X173346000Y-118098000D02*
X173346000Y-118848000D01*
X173346000Y-118848000D02*
X169046000Y-118848000D01*
X169046000Y-118848000D02*
X169046000Y-118098000D01*
X174796000Y-109228000D02*
X176046000Y-109228000D01*
X176046000Y-109228000D02*
X176046000Y-111228000D01*
G04 #@! TO.C,U1*
X123130000Y-117618000D02*
G75*
G02X123130000Y-119618000I0J-1000000D01*
G01*
X123130000Y-119618000D02*
X123130000Y-121268000D01*
X123130000Y-121268000D02*
X133410000Y-121268000D01*
X133410000Y-121268000D02*
X133410000Y-115968000D01*
X133410000Y-115968000D02*
X123130000Y-115968000D01*
X123130000Y-115968000D02*
X123130000Y-117618000D01*
X123070000Y-123758000D02*
X133470000Y-123758000D01*
X133470000Y-123758000D02*
X133470000Y-113478000D01*
X133470000Y-113478000D02*
X123070000Y-113478000D01*
X123070000Y-113478000D02*
X123070000Y-123758000D01*
G04 #@! TO.C,RV1*
X137026000Y-103632000D02*
G75*
G03X137026000Y-103632000I-3930000J0D01*
G01*
G04 #@! TO.C,C1*
X127096000Y-131368000D02*
X127096000Y-138808000D01*
X123856000Y-131368000D02*
X123856000Y-138808000D01*
X127096000Y-131368000D02*
X123856000Y-131368000D01*
X127096000Y-138808000D02*
X123856000Y-138808000D01*
G04 #@! TO.C,C4*
X137544000Y-106268000D02*
X137544000Y-103028000D01*
X144984000Y-106268000D02*
X144984000Y-103028000D01*
X144984000Y-103028000D02*
X137544000Y-103028000D01*
X144984000Y-106268000D02*
X137544000Y-106268000D01*
G04 #@! TO.C,C6*
X116486000Y-121532000D02*
X116486000Y-116292000D01*
X119226000Y-121532000D02*
X119226000Y-116292000D01*
X116486000Y-121532000D02*
X116801000Y-121532000D01*
X118911000Y-121532000D02*
X119226000Y-121532000D01*
X116486000Y-116292000D02*
X116801000Y-116292000D01*
X118911000Y-116292000D02*
X119226000Y-116292000D01*
G04 #@! TO.C,C7*
X154496000Y-131064000D02*
G75*
G03X154496000Y-131064000I-2620000J0D01*
G01*
X151876000Y-132104000D02*
X151876000Y-133644000D01*
X151876000Y-128484000D02*
X151876000Y-130024000D01*
X151916000Y-132104000D02*
X151916000Y-133644000D01*
X151916000Y-128484000D02*
X151916000Y-130024000D01*
X151956000Y-128485000D02*
X151956000Y-130024000D01*
X151956000Y-132104000D02*
X151956000Y-133643000D01*
X151996000Y-128486000D02*
X151996000Y-130024000D01*
X151996000Y-132104000D02*
X151996000Y-133642000D01*
X152036000Y-128488000D02*
X152036000Y-130024000D01*
X152036000Y-132104000D02*
X152036000Y-133640000D01*
X152076000Y-128491000D02*
X152076000Y-130024000D01*
X152076000Y-132104000D02*
X152076000Y-133637000D01*
X152116000Y-128495000D02*
X152116000Y-130024000D01*
X152116000Y-132104000D02*
X152116000Y-133633000D01*
X152156000Y-128499000D02*
X152156000Y-130024000D01*
X152156000Y-132104000D02*
X152156000Y-133629000D01*
X152196000Y-128503000D02*
X152196000Y-130024000D01*
X152196000Y-132104000D02*
X152196000Y-133625000D01*
X152236000Y-128508000D02*
X152236000Y-130024000D01*
X152236000Y-132104000D02*
X152236000Y-133620000D01*
X152276000Y-128514000D02*
X152276000Y-130024000D01*
X152276000Y-132104000D02*
X152276000Y-133614000D01*
X152316000Y-128521000D02*
X152316000Y-130024000D01*
X152316000Y-132104000D02*
X152316000Y-133607000D01*
X152356000Y-128528000D02*
X152356000Y-130024000D01*
X152356000Y-132104000D02*
X152356000Y-133600000D01*
X152396000Y-128536000D02*
X152396000Y-130024000D01*
X152396000Y-132104000D02*
X152396000Y-133592000D01*
X152436000Y-128544000D02*
X152436000Y-130024000D01*
X152436000Y-132104000D02*
X152436000Y-133584000D01*
X152476000Y-128553000D02*
X152476000Y-130024000D01*
X152476000Y-132104000D02*
X152476000Y-133575000D01*
X152516000Y-128563000D02*
X152516000Y-130024000D01*
X152516000Y-132104000D02*
X152516000Y-133565000D01*
X152556000Y-128573000D02*
X152556000Y-130024000D01*
X152556000Y-132104000D02*
X152556000Y-133555000D01*
X152597000Y-128584000D02*
X152597000Y-130024000D01*
X152597000Y-132104000D02*
X152597000Y-133544000D01*
X152637000Y-128596000D02*
X152637000Y-130024000D01*
X152637000Y-132104000D02*
X152637000Y-133532000D01*
X152677000Y-128609000D02*
X152677000Y-130024000D01*
X152677000Y-132104000D02*
X152677000Y-133519000D01*
X152717000Y-128622000D02*
X152717000Y-130024000D01*
X152717000Y-132104000D02*
X152717000Y-133506000D01*
X152757000Y-128636000D02*
X152757000Y-130024000D01*
X152757000Y-132104000D02*
X152757000Y-133492000D01*
X152797000Y-128650000D02*
X152797000Y-130024000D01*
X152797000Y-132104000D02*
X152797000Y-133478000D01*
X152837000Y-128666000D02*
X152837000Y-130024000D01*
X152837000Y-132104000D02*
X152837000Y-133462000D01*
X152877000Y-128682000D02*
X152877000Y-130024000D01*
X152877000Y-132104000D02*
X152877000Y-133446000D01*
X152917000Y-128699000D02*
X152917000Y-130024000D01*
X152917000Y-132104000D02*
X152917000Y-133429000D01*
X152957000Y-128716000D02*
X152957000Y-130024000D01*
X152957000Y-132104000D02*
X152957000Y-133412000D01*
X152997000Y-128735000D02*
X152997000Y-130024000D01*
X152997000Y-132104000D02*
X152997000Y-133393000D01*
X153037000Y-128754000D02*
X153037000Y-130024000D01*
X153037000Y-132104000D02*
X153037000Y-133374000D01*
X153077000Y-128774000D02*
X153077000Y-130024000D01*
X153077000Y-132104000D02*
X153077000Y-133354000D01*
X153117000Y-128796000D02*
X153117000Y-130024000D01*
X153117000Y-132104000D02*
X153117000Y-133332000D01*
X153157000Y-128817000D02*
X153157000Y-130024000D01*
X153157000Y-132104000D02*
X153157000Y-133311000D01*
X153197000Y-128840000D02*
X153197000Y-130024000D01*
X153197000Y-132104000D02*
X153197000Y-133288000D01*
X153237000Y-128864000D02*
X153237000Y-130024000D01*
X153237000Y-132104000D02*
X153237000Y-133264000D01*
X153277000Y-128889000D02*
X153277000Y-130024000D01*
X153277000Y-132104000D02*
X153277000Y-133239000D01*
X153317000Y-128915000D02*
X153317000Y-130024000D01*
X153317000Y-132104000D02*
X153317000Y-133213000D01*
X153357000Y-128942000D02*
X153357000Y-130024000D01*
X153357000Y-132104000D02*
X153357000Y-133186000D01*
X153397000Y-128969000D02*
X153397000Y-130024000D01*
X153397000Y-132104000D02*
X153397000Y-133159000D01*
X153437000Y-128999000D02*
X153437000Y-130024000D01*
X153437000Y-132104000D02*
X153437000Y-133129000D01*
X153477000Y-129029000D02*
X153477000Y-130024000D01*
X153477000Y-132104000D02*
X153477000Y-133099000D01*
X153517000Y-129060000D02*
X153517000Y-130024000D01*
X153517000Y-132104000D02*
X153517000Y-133068000D01*
X153557000Y-129093000D02*
X153557000Y-130024000D01*
X153557000Y-132104000D02*
X153557000Y-133035000D01*
X153597000Y-129127000D02*
X153597000Y-130024000D01*
X153597000Y-132104000D02*
X153597000Y-133001000D01*
X153637000Y-129163000D02*
X153637000Y-130024000D01*
X153637000Y-132104000D02*
X153637000Y-132965000D01*
X153677000Y-129200000D02*
X153677000Y-130024000D01*
X153677000Y-132104000D02*
X153677000Y-132928000D01*
X153717000Y-129238000D02*
X153717000Y-130024000D01*
X153717000Y-132104000D02*
X153717000Y-132890000D01*
X153757000Y-129279000D02*
X153757000Y-130024000D01*
X153757000Y-132104000D02*
X153757000Y-132849000D01*
X153797000Y-129321000D02*
X153797000Y-130024000D01*
X153797000Y-132104000D02*
X153797000Y-132807000D01*
X153837000Y-129365000D02*
X153837000Y-130024000D01*
X153837000Y-132104000D02*
X153837000Y-132763000D01*
X153877000Y-129411000D02*
X153877000Y-130024000D01*
X153877000Y-132104000D02*
X153877000Y-132717000D01*
X153917000Y-129459000D02*
X153917000Y-132669000D01*
X153957000Y-129510000D02*
X153957000Y-132618000D01*
X153997000Y-129564000D02*
X153997000Y-132564000D01*
X154037000Y-129621000D02*
X154037000Y-132507000D01*
X154077000Y-129681000D02*
X154077000Y-132447000D01*
X154117000Y-129745000D02*
X154117000Y-132383000D01*
X154157000Y-129813000D02*
X154157000Y-132315000D01*
X154197000Y-129886000D02*
X154197000Y-132242000D01*
X154237000Y-129966000D02*
X154237000Y-132162000D01*
X154277000Y-130053000D02*
X154277000Y-132075000D01*
X154317000Y-130149000D02*
X154317000Y-131979000D01*
X154357000Y-130259000D02*
X154357000Y-131869000D01*
X154397000Y-130387000D02*
X154397000Y-131741000D01*
X154437000Y-130546000D02*
X154437000Y-131582000D01*
X154477000Y-130780000D02*
X154477000Y-131348000D01*
X149071225Y-129589000D02*
X149571225Y-129589000D01*
X149321225Y-129339000D02*
X149321225Y-129839000D01*
G04 #@! TO.C,C8*
X149321225Y-121719000D02*
X149321225Y-122219000D01*
X149071225Y-121969000D02*
X149571225Y-121969000D01*
X154477000Y-123160000D02*
X154477000Y-123728000D01*
X154437000Y-122926000D02*
X154437000Y-123962000D01*
X154397000Y-122767000D02*
X154397000Y-124121000D01*
X154357000Y-122639000D02*
X154357000Y-124249000D01*
X154317000Y-122529000D02*
X154317000Y-124359000D01*
X154277000Y-122433000D02*
X154277000Y-124455000D01*
X154237000Y-122346000D02*
X154237000Y-124542000D01*
X154197000Y-122266000D02*
X154197000Y-124622000D01*
X154157000Y-122193000D02*
X154157000Y-124695000D01*
X154117000Y-122125000D02*
X154117000Y-124763000D01*
X154077000Y-122061000D02*
X154077000Y-124827000D01*
X154037000Y-122001000D02*
X154037000Y-124887000D01*
X153997000Y-121944000D02*
X153997000Y-124944000D01*
X153957000Y-121890000D02*
X153957000Y-124998000D01*
X153917000Y-121839000D02*
X153917000Y-125049000D01*
X153877000Y-124484000D02*
X153877000Y-125097000D01*
X153877000Y-121791000D02*
X153877000Y-122404000D01*
X153837000Y-124484000D02*
X153837000Y-125143000D01*
X153837000Y-121745000D02*
X153837000Y-122404000D01*
X153797000Y-124484000D02*
X153797000Y-125187000D01*
X153797000Y-121701000D02*
X153797000Y-122404000D01*
X153757000Y-124484000D02*
X153757000Y-125229000D01*
X153757000Y-121659000D02*
X153757000Y-122404000D01*
X153717000Y-124484000D02*
X153717000Y-125270000D01*
X153717000Y-121618000D02*
X153717000Y-122404000D01*
X153677000Y-124484000D02*
X153677000Y-125308000D01*
X153677000Y-121580000D02*
X153677000Y-122404000D01*
X153637000Y-124484000D02*
X153637000Y-125345000D01*
X153637000Y-121543000D02*
X153637000Y-122404000D01*
X153597000Y-124484000D02*
X153597000Y-125381000D01*
X153597000Y-121507000D02*
X153597000Y-122404000D01*
X153557000Y-124484000D02*
X153557000Y-125415000D01*
X153557000Y-121473000D02*
X153557000Y-122404000D01*
X153517000Y-124484000D02*
X153517000Y-125448000D01*
X153517000Y-121440000D02*
X153517000Y-122404000D01*
X153477000Y-124484000D02*
X153477000Y-125479000D01*
X153477000Y-121409000D02*
X153477000Y-122404000D01*
X153437000Y-124484000D02*
X153437000Y-125509000D01*
X153437000Y-121379000D02*
X153437000Y-122404000D01*
X153397000Y-124484000D02*
X153397000Y-125539000D01*
X153397000Y-121349000D02*
X153397000Y-122404000D01*
X153357000Y-124484000D02*
X153357000Y-125566000D01*
X153357000Y-121322000D02*
X153357000Y-122404000D01*
X153317000Y-124484000D02*
X153317000Y-125593000D01*
X153317000Y-121295000D02*
X153317000Y-122404000D01*
X153277000Y-124484000D02*
X153277000Y-125619000D01*
X153277000Y-121269000D02*
X153277000Y-122404000D01*
X153237000Y-124484000D02*
X153237000Y-125644000D01*
X153237000Y-121244000D02*
X153237000Y-122404000D01*
X153197000Y-124484000D02*
X153197000Y-125668000D01*
X153197000Y-121220000D02*
X153197000Y-122404000D01*
X153157000Y-124484000D02*
X153157000Y-125691000D01*
X153157000Y-121197000D02*
X153157000Y-122404000D01*
X153117000Y-124484000D02*
X153117000Y-125712000D01*
X153117000Y-121176000D02*
X153117000Y-122404000D01*
X153077000Y-124484000D02*
X153077000Y-125734000D01*
X153077000Y-121154000D02*
X153077000Y-122404000D01*
X153037000Y-124484000D02*
X153037000Y-125754000D01*
X153037000Y-121134000D02*
X153037000Y-122404000D01*
X152997000Y-124484000D02*
X152997000Y-125773000D01*
X152997000Y-121115000D02*
X152997000Y-122404000D01*
X152957000Y-124484000D02*
X152957000Y-125792000D01*
X152957000Y-121096000D02*
X152957000Y-122404000D01*
X152917000Y-124484000D02*
X152917000Y-125809000D01*
X152917000Y-121079000D02*
X152917000Y-122404000D01*
X152877000Y-124484000D02*
X152877000Y-125826000D01*
X152877000Y-121062000D02*
X152877000Y-122404000D01*
X152837000Y-124484000D02*
X152837000Y-125842000D01*
X152837000Y-121046000D02*
X152837000Y-122404000D01*
X152797000Y-124484000D02*
X152797000Y-125858000D01*
X152797000Y-121030000D02*
X152797000Y-122404000D01*
X152757000Y-124484000D02*
X152757000Y-125872000D01*
X152757000Y-121016000D02*
X152757000Y-122404000D01*
X152717000Y-124484000D02*
X152717000Y-125886000D01*
X152717000Y-121002000D02*
X152717000Y-122404000D01*
X152677000Y-124484000D02*
X152677000Y-125899000D01*
X152677000Y-120989000D02*
X152677000Y-122404000D01*
X152637000Y-124484000D02*
X152637000Y-125912000D01*
X152637000Y-120976000D02*
X152637000Y-122404000D01*
X152597000Y-124484000D02*
X152597000Y-125924000D01*
X152597000Y-120964000D02*
X152597000Y-122404000D01*
X152556000Y-124484000D02*
X152556000Y-125935000D01*
X152556000Y-120953000D02*
X152556000Y-122404000D01*
X152516000Y-124484000D02*
X152516000Y-125945000D01*
X152516000Y-120943000D02*
X152516000Y-122404000D01*
X152476000Y-124484000D02*
X152476000Y-125955000D01*
X152476000Y-120933000D02*
X152476000Y-122404000D01*
X152436000Y-124484000D02*
X152436000Y-125964000D01*
X152436000Y-120924000D02*
X152436000Y-122404000D01*
X152396000Y-124484000D02*
X152396000Y-125972000D01*
X152396000Y-120916000D02*
X152396000Y-122404000D01*
X152356000Y-124484000D02*
X152356000Y-125980000D01*
X152356000Y-120908000D02*
X152356000Y-122404000D01*
X152316000Y-124484000D02*
X152316000Y-125987000D01*
X152316000Y-120901000D02*
X152316000Y-122404000D01*
X152276000Y-124484000D02*
X152276000Y-125994000D01*
X152276000Y-120894000D02*
X152276000Y-122404000D01*
X152236000Y-124484000D02*
X152236000Y-126000000D01*
X152236000Y-120888000D02*
X152236000Y-122404000D01*
X152196000Y-124484000D02*
X152196000Y-126005000D01*
X152196000Y-120883000D02*
X152196000Y-122404000D01*
X152156000Y-124484000D02*
X152156000Y-126009000D01*
X152156000Y-120879000D02*
X152156000Y-122404000D01*
X152116000Y-124484000D02*
X152116000Y-126013000D01*
X152116000Y-120875000D02*
X152116000Y-122404000D01*
X152076000Y-124484000D02*
X152076000Y-126017000D01*
X152076000Y-120871000D02*
X152076000Y-122404000D01*
X152036000Y-124484000D02*
X152036000Y-126020000D01*
X152036000Y-120868000D02*
X152036000Y-122404000D01*
X151996000Y-124484000D02*
X151996000Y-126022000D01*
X151996000Y-120866000D02*
X151996000Y-122404000D01*
X151956000Y-124484000D02*
X151956000Y-126023000D01*
X151956000Y-120865000D02*
X151956000Y-122404000D01*
X151916000Y-120864000D02*
X151916000Y-122404000D01*
X151916000Y-124484000D02*
X151916000Y-126024000D01*
X151876000Y-120864000D02*
X151876000Y-122404000D01*
X151876000Y-124484000D02*
X151876000Y-126024000D01*
X154496000Y-123444000D02*
G75*
G03X154496000Y-123444000I-2620000J0D01*
G01*
G04 #@! TO.C,C19*
X155832000Y-130910000D02*
X155832000Y-128170000D01*
X163272000Y-130910000D02*
X163272000Y-128170000D01*
X163272000Y-128170000D02*
X155832000Y-128170000D01*
X163272000Y-130910000D02*
X155832000Y-130910000D01*
G04 #@! TO.C,R1*
X120550000Y-138398000D02*
X123290000Y-138398000D01*
X123290000Y-138398000D02*
X123290000Y-131858000D01*
X123290000Y-131858000D02*
X120550000Y-131858000D01*
X120550000Y-131858000D02*
X120550000Y-138398000D01*
X121920000Y-139168000D02*
X121920000Y-138398000D01*
X121920000Y-131088000D02*
X121920000Y-131858000D01*
G04 #@! TO.C,R2*
X130402000Y-131858000D02*
X127662000Y-131858000D01*
X127662000Y-131858000D02*
X127662000Y-138398000D01*
X127662000Y-138398000D02*
X130402000Y-138398000D01*
X130402000Y-138398000D02*
X130402000Y-131858000D01*
X129032000Y-131088000D02*
X129032000Y-131858000D01*
X129032000Y-139168000D02*
X129032000Y-138398000D01*
G04 #@! TO.C,R5*
X117502000Y-138398000D02*
X120242000Y-138398000D01*
X120242000Y-138398000D02*
X120242000Y-131858000D01*
X120242000Y-131858000D02*
X117502000Y-131858000D01*
X117502000Y-131858000D02*
X117502000Y-138398000D01*
X118872000Y-139168000D02*
X118872000Y-138398000D01*
X118872000Y-131088000D02*
X118872000Y-131858000D01*
G04 #@! TO.C,R7*
X117194000Y-131858000D02*
X114454000Y-131858000D01*
X114454000Y-131858000D02*
X114454000Y-138398000D01*
X114454000Y-138398000D02*
X117194000Y-138398000D01*
X117194000Y-138398000D02*
X117194000Y-131858000D01*
X115824000Y-131088000D02*
X115824000Y-131858000D01*
X115824000Y-139168000D02*
X115824000Y-138398000D01*
G04 #@! TO.C,R9*
X112930000Y-122650000D02*
X115670000Y-122650000D01*
X115670000Y-122650000D02*
X115670000Y-116110000D01*
X115670000Y-116110000D02*
X112930000Y-116110000D01*
X112930000Y-116110000D02*
X112930000Y-122650000D01*
X114300000Y-123420000D02*
X114300000Y-122650000D01*
X114300000Y-115340000D02*
X114300000Y-116110000D01*
G04 #@! TO.C,R10*
X136652000Y-115340000D02*
X136652000Y-116110000D01*
X136652000Y-123420000D02*
X136652000Y-122650000D01*
X135282000Y-116110000D02*
X135282000Y-122650000D01*
X138022000Y-116110000D02*
X135282000Y-116110000D01*
X138022000Y-122650000D02*
X138022000Y-116110000D01*
X135282000Y-122650000D02*
X138022000Y-122650000D01*
G04 #@! TO.C,R11*
X106326000Y-132302000D02*
X109066000Y-132302000D01*
X109066000Y-132302000D02*
X109066000Y-125762000D01*
X109066000Y-125762000D02*
X106326000Y-125762000D01*
X106326000Y-125762000D02*
X106326000Y-132302000D01*
X107696000Y-133072000D02*
X107696000Y-132302000D01*
X107696000Y-124992000D02*
X107696000Y-125762000D01*
G04 #@! TO.C,R13*
X125960000Y-104648000D02*
X125190000Y-104648000D01*
X117880000Y-104648000D02*
X118650000Y-104648000D01*
X125190000Y-103278000D02*
X118650000Y-103278000D01*
X125190000Y-106018000D02*
X125190000Y-103278000D01*
X118650000Y-106018000D02*
X125190000Y-106018000D01*
X118650000Y-103278000D02*
X118650000Y-106018000D01*
G04 #@! TO.C,R15*
X142594000Y-131858000D02*
X139854000Y-131858000D01*
X139854000Y-131858000D02*
X139854000Y-138398000D01*
X139854000Y-138398000D02*
X142594000Y-138398000D01*
X142594000Y-138398000D02*
X142594000Y-131858000D01*
X141224000Y-131088000D02*
X141224000Y-131858000D01*
X141224000Y-139168000D02*
X141224000Y-138398000D01*
G04 #@! TO.C,R25*
X133450000Y-131858000D02*
X130710000Y-131858000D01*
X130710000Y-131858000D02*
X130710000Y-138398000D01*
X130710000Y-138398000D02*
X133450000Y-138398000D01*
X133450000Y-138398000D02*
X133450000Y-131858000D01*
X132080000Y-131088000D02*
X132080000Y-131858000D01*
X132080000Y-139168000D02*
X132080000Y-138398000D01*
G04 #@! TO.C,C10*
X167579646Y-109039000D02*
X167579646Y-108039000D01*
X168079646Y-108539000D02*
X167079646Y-108539000D01*
X157519000Y-106263000D02*
X157519000Y-105065000D01*
X157559000Y-106526000D02*
X157559000Y-104802000D01*
X157599000Y-106726000D02*
X157599000Y-104602000D01*
X157639000Y-106894000D02*
X157639000Y-104434000D01*
X157679000Y-107042000D02*
X157679000Y-104286000D01*
X157719000Y-107174000D02*
X157719000Y-104154000D01*
X157759000Y-107294000D02*
X157759000Y-104034000D01*
X157799000Y-107406000D02*
X157799000Y-103922000D01*
X157839000Y-107510000D02*
X157839000Y-103818000D01*
X157879000Y-107608000D02*
X157879000Y-103720000D01*
X157919000Y-107701000D02*
X157919000Y-103627000D01*
X157959000Y-107789000D02*
X157959000Y-103539000D01*
X157999000Y-107873000D02*
X157999000Y-103455000D01*
X158039000Y-107953000D02*
X158039000Y-103375000D01*
X158079000Y-108029000D02*
X158079000Y-103299000D01*
X158119000Y-108103000D02*
X158119000Y-103225000D01*
X158159000Y-108174000D02*
X158159000Y-103154000D01*
X158199000Y-108243000D02*
X158199000Y-103085000D01*
X158239000Y-108309000D02*
X158239000Y-103019000D01*
X158279000Y-108373000D02*
X158279000Y-102955000D01*
X158319000Y-108434000D02*
X158319000Y-102894000D01*
X158359000Y-108494000D02*
X158359000Y-102834000D01*
X158399000Y-108553000D02*
X158399000Y-102775000D01*
X158439000Y-108609000D02*
X158439000Y-102719000D01*
X158479000Y-108664000D02*
X158479000Y-102664000D01*
X158519000Y-108718000D02*
X158519000Y-102610000D01*
X158559000Y-108770000D02*
X158559000Y-102558000D01*
X158599000Y-108820000D02*
X158599000Y-102508000D01*
X158639000Y-108870000D02*
X158639000Y-102458000D01*
X158679000Y-108918000D02*
X158679000Y-102410000D01*
X158719000Y-108965000D02*
X158719000Y-102363000D01*
X158759000Y-109011000D02*
X158759000Y-102317000D01*
X158799000Y-109056000D02*
X158799000Y-102272000D01*
X158839000Y-109100000D02*
X158839000Y-102228000D01*
X158879000Y-104423000D02*
X158879000Y-102186000D01*
X158879000Y-109142000D02*
X158879000Y-106905000D01*
X158919000Y-104423000D02*
X158919000Y-102144000D01*
X158919000Y-109184000D02*
X158919000Y-106905000D01*
X158959000Y-104423000D02*
X158959000Y-102103000D01*
X158959000Y-109225000D02*
X158959000Y-106905000D01*
X158999000Y-104423000D02*
X158999000Y-102063000D01*
X158999000Y-109265000D02*
X158999000Y-106905000D01*
X159039000Y-104423000D02*
X159039000Y-102024000D01*
X159039000Y-109304000D02*
X159039000Y-106905000D01*
X159079000Y-104423000D02*
X159079000Y-101985000D01*
X159079000Y-109343000D02*
X159079000Y-106905000D01*
X159119000Y-104423000D02*
X159119000Y-101948000D01*
X159119000Y-109380000D02*
X159119000Y-106905000D01*
X159159000Y-104423000D02*
X159159000Y-101911000D01*
X159159000Y-109417000D02*
X159159000Y-106905000D01*
X159199000Y-104423000D02*
X159199000Y-101875000D01*
X159199000Y-109453000D02*
X159199000Y-106905000D01*
X159239000Y-104423000D02*
X159239000Y-101840000D01*
X159239000Y-109488000D02*
X159239000Y-106905000D01*
X159279000Y-104423000D02*
X159279000Y-101806000D01*
X159279000Y-109522000D02*
X159279000Y-106905000D01*
X159319000Y-104423000D02*
X159319000Y-101772000D01*
X159319000Y-109556000D02*
X159319000Y-106905000D01*
X159359000Y-104423000D02*
X159359000Y-101739000D01*
X159359000Y-109589000D02*
X159359000Y-106905000D01*
X159399000Y-104423000D02*
X159399000Y-101707000D01*
X159399000Y-109621000D02*
X159399000Y-106905000D01*
X159439000Y-104423000D02*
X159439000Y-101675000D01*
X159439000Y-109653000D02*
X159439000Y-106905000D01*
X159479000Y-104423000D02*
X159479000Y-101644000D01*
X159479000Y-109684000D02*
X159479000Y-106905000D01*
X159519000Y-104423000D02*
X159519000Y-101614000D01*
X159519000Y-109714000D02*
X159519000Y-106905000D01*
X159559000Y-104423000D02*
X159559000Y-101584000D01*
X159559000Y-109744000D02*
X159559000Y-106905000D01*
X159599000Y-104423000D02*
X159599000Y-101554000D01*
X159599000Y-109774000D02*
X159599000Y-106905000D01*
X159639000Y-104423000D02*
X159639000Y-101526000D01*
X159639000Y-109802000D02*
X159639000Y-106905000D01*
X159679000Y-104423000D02*
X159679000Y-101498000D01*
X159679000Y-109830000D02*
X159679000Y-106905000D01*
X159719000Y-104423000D02*
X159719000Y-101470000D01*
X159719000Y-109858000D02*
X159719000Y-106905000D01*
X159759000Y-104423000D02*
X159759000Y-101443000D01*
X159759000Y-109885000D02*
X159759000Y-106905000D01*
X159799000Y-104423000D02*
X159799000Y-101417000D01*
X159799000Y-109911000D02*
X159799000Y-106905000D01*
X159839000Y-104423000D02*
X159839000Y-101391000D01*
X159839000Y-109937000D02*
X159839000Y-106905000D01*
X159879000Y-104423000D02*
X159879000Y-101366000D01*
X159879000Y-109962000D02*
X159879000Y-106905000D01*
X159919000Y-104423000D02*
X159919000Y-101341000D01*
X159919000Y-109987000D02*
X159919000Y-106905000D01*
X159959000Y-104423000D02*
X159959000Y-101317000D01*
X159959000Y-110011000D02*
X159959000Y-106905000D01*
X159999000Y-104423000D02*
X159999000Y-101293000D01*
X159999000Y-110035000D02*
X159999000Y-106905000D01*
X160039000Y-104423000D02*
X160039000Y-101269000D01*
X160039000Y-110059000D02*
X160039000Y-106905000D01*
X160079000Y-104423000D02*
X160079000Y-101247000D01*
X160079000Y-110081000D02*
X160079000Y-106905000D01*
X160119000Y-104423000D02*
X160119000Y-101224000D01*
X160119000Y-110104000D02*
X160119000Y-106905000D01*
X160159000Y-104423000D02*
X160159000Y-101202000D01*
X160159000Y-110126000D02*
X160159000Y-106905000D01*
X160199000Y-104423000D02*
X160199000Y-101181000D01*
X160199000Y-110147000D02*
X160199000Y-106905000D01*
X160239000Y-104423000D02*
X160239000Y-101160000D01*
X160239000Y-110168000D02*
X160239000Y-106905000D01*
X160279000Y-104423000D02*
X160279000Y-101139000D01*
X160279000Y-110189000D02*
X160279000Y-106905000D01*
X160319000Y-104423000D02*
X160319000Y-101119000D01*
X160319000Y-110209000D02*
X160319000Y-106905000D01*
X160359000Y-104423000D02*
X160359000Y-101100000D01*
X160359000Y-110228000D02*
X160359000Y-106905000D01*
X160399000Y-104423000D02*
X160399000Y-101080000D01*
X160399000Y-110248000D02*
X160399000Y-106905000D01*
X160439000Y-104423000D02*
X160439000Y-101061000D01*
X160439000Y-110267000D02*
X160439000Y-106905000D01*
X160479000Y-104423000D02*
X160479000Y-101043000D01*
X160479000Y-110285000D02*
X160479000Y-106905000D01*
X160519000Y-104423000D02*
X160519000Y-101025000D01*
X160519000Y-110303000D02*
X160519000Y-106905000D01*
X160559000Y-104423000D02*
X160559000Y-101007000D01*
X160559000Y-110321000D02*
X160559000Y-106905000D01*
X160599000Y-104423000D02*
X160599000Y-100990000D01*
X160599000Y-110338000D02*
X160599000Y-106905000D01*
X160639000Y-104423000D02*
X160639000Y-100974000D01*
X160639000Y-110354000D02*
X160639000Y-106905000D01*
X160679000Y-104423000D02*
X160679000Y-100957000D01*
X160679000Y-110371000D02*
X160679000Y-106905000D01*
X160719000Y-104423000D02*
X160719000Y-100941000D01*
X160719000Y-110387000D02*
X160719000Y-106905000D01*
X160759000Y-104423000D02*
X160759000Y-100926000D01*
X160759000Y-110402000D02*
X160759000Y-106905000D01*
X160799000Y-104423000D02*
X160799000Y-100910000D01*
X160799000Y-110418000D02*
X160799000Y-106905000D01*
X160839000Y-104423000D02*
X160839000Y-100896000D01*
X160839000Y-110432000D02*
X160839000Y-106905000D01*
X160879000Y-104423000D02*
X160879000Y-100881000D01*
X160879000Y-110447000D02*
X160879000Y-106905000D01*
X160919000Y-104423000D02*
X160919000Y-100867000D01*
X160919000Y-110461000D02*
X160919000Y-106905000D01*
X160959000Y-104423000D02*
X160959000Y-100853000D01*
X160959000Y-110475000D02*
X160959000Y-106905000D01*
X160999000Y-104423000D02*
X160999000Y-100840000D01*
X160999000Y-110488000D02*
X160999000Y-106905000D01*
X161039000Y-104423000D02*
X161039000Y-100827000D01*
X161039000Y-110501000D02*
X161039000Y-106905000D01*
X161079000Y-104423000D02*
X161079000Y-100814000D01*
X161079000Y-110514000D02*
X161079000Y-106905000D01*
X161119000Y-104423000D02*
X161119000Y-100802000D01*
X161119000Y-110526000D02*
X161119000Y-106905000D01*
X161159000Y-104423000D02*
X161159000Y-100790000D01*
X161159000Y-110538000D02*
X161159000Y-106905000D01*
X161199000Y-104423000D02*
X161199000Y-100779000D01*
X161199000Y-110549000D02*
X161199000Y-106905000D01*
X161239000Y-104423000D02*
X161239000Y-100767000D01*
X161239000Y-110561000D02*
X161239000Y-106905000D01*
X161279000Y-104423000D02*
X161279000Y-100757000D01*
X161279000Y-110571000D02*
X161279000Y-106905000D01*
X161319000Y-104423000D02*
X161319000Y-100746000D01*
X161319000Y-110582000D02*
X161319000Y-106905000D01*
X161359000Y-110592000D02*
X161359000Y-100736000D01*
X161399000Y-110602000D02*
X161399000Y-100726000D01*
X161439000Y-110611000D02*
X161439000Y-100717000D01*
X161479000Y-110620000D02*
X161479000Y-100708000D01*
X161519000Y-110629000D02*
X161519000Y-100699000D01*
X161559000Y-110638000D02*
X161559000Y-100690000D01*
X161599000Y-110646000D02*
X161599000Y-100682000D01*
X161639000Y-110654000D02*
X161639000Y-100674000D01*
X161679000Y-110661000D02*
X161679000Y-100667000D01*
X161719000Y-110668000D02*
X161719000Y-100660000D01*
X161759000Y-110675000D02*
X161759000Y-100653000D01*
X161799000Y-110682000D02*
X161799000Y-100646000D01*
X161839000Y-110688000D02*
X161839000Y-100640000D01*
X161879000Y-110694000D02*
X161879000Y-100634000D01*
X161920000Y-110699000D02*
X161920000Y-100629000D01*
X161960000Y-110704000D02*
X161960000Y-100624000D01*
X162000000Y-110709000D02*
X162000000Y-100619000D01*
X162040000Y-110714000D02*
X162040000Y-100614000D01*
X162080000Y-110718000D02*
X162080000Y-100610000D01*
X162120000Y-110722000D02*
X162120000Y-100606000D01*
X162160000Y-110726000D02*
X162160000Y-100602000D01*
X162200000Y-110729000D02*
X162200000Y-100599000D01*
X162240000Y-110732000D02*
X162240000Y-100596000D01*
X162280000Y-110734000D02*
X162280000Y-100594000D01*
X162320000Y-110737000D02*
X162320000Y-100591000D01*
X162360000Y-110739000D02*
X162360000Y-100589000D01*
X162400000Y-110741000D02*
X162400000Y-100587000D01*
X162440000Y-110742000D02*
X162440000Y-100586000D01*
X162480000Y-110743000D02*
X162480000Y-100585000D01*
X162520000Y-110744000D02*
X162520000Y-100584000D01*
X162560000Y-110744000D02*
X162560000Y-100584000D01*
X162600000Y-110744000D02*
X162600000Y-100584000D01*
X167720000Y-105664000D02*
G75*
G03X167720000Y-105664000I-5120000J0D01*
G01*
G04 #@! TO.C,C11*
X156036000Y-105664000D02*
G75*
G03X156036000Y-105664000I-5120000J0D01*
G01*
X150916000Y-110744000D02*
X150916000Y-100584000D01*
X150876000Y-110744000D02*
X150876000Y-100584000D01*
X150836000Y-110744000D02*
X150836000Y-100584000D01*
X150796000Y-110743000D02*
X150796000Y-100585000D01*
X150756000Y-110742000D02*
X150756000Y-100586000D01*
X150716000Y-110741000D02*
X150716000Y-100587000D01*
X150676000Y-110739000D02*
X150676000Y-100589000D01*
X150636000Y-110737000D02*
X150636000Y-100591000D01*
X150596000Y-110734000D02*
X150596000Y-100594000D01*
X150556000Y-110732000D02*
X150556000Y-100596000D01*
X150516000Y-110729000D02*
X150516000Y-100599000D01*
X150476000Y-110726000D02*
X150476000Y-100602000D01*
X150436000Y-110722000D02*
X150436000Y-100606000D01*
X150396000Y-110718000D02*
X150396000Y-100610000D01*
X150356000Y-110714000D02*
X150356000Y-100614000D01*
X150316000Y-110709000D02*
X150316000Y-100619000D01*
X150276000Y-110704000D02*
X150276000Y-100624000D01*
X150236000Y-110699000D02*
X150236000Y-100629000D01*
X150195000Y-110694000D02*
X150195000Y-100634000D01*
X150155000Y-110688000D02*
X150155000Y-100640000D01*
X150115000Y-110682000D02*
X150115000Y-100646000D01*
X150075000Y-110675000D02*
X150075000Y-100653000D01*
X150035000Y-110668000D02*
X150035000Y-100660000D01*
X149995000Y-110661000D02*
X149995000Y-100667000D01*
X149955000Y-110654000D02*
X149955000Y-100674000D01*
X149915000Y-110646000D02*
X149915000Y-100682000D01*
X149875000Y-110638000D02*
X149875000Y-100690000D01*
X149835000Y-110629000D02*
X149835000Y-100699000D01*
X149795000Y-110620000D02*
X149795000Y-100708000D01*
X149755000Y-110611000D02*
X149755000Y-100717000D01*
X149715000Y-110602000D02*
X149715000Y-100726000D01*
X149675000Y-110592000D02*
X149675000Y-100736000D01*
X149635000Y-110582000D02*
X149635000Y-106905000D01*
X149635000Y-104423000D02*
X149635000Y-100746000D01*
X149595000Y-110571000D02*
X149595000Y-106905000D01*
X149595000Y-104423000D02*
X149595000Y-100757000D01*
X149555000Y-110561000D02*
X149555000Y-106905000D01*
X149555000Y-104423000D02*
X149555000Y-100767000D01*
X149515000Y-110549000D02*
X149515000Y-106905000D01*
X149515000Y-104423000D02*
X149515000Y-100779000D01*
X149475000Y-110538000D02*
X149475000Y-106905000D01*
X149475000Y-104423000D02*
X149475000Y-100790000D01*
X149435000Y-110526000D02*
X149435000Y-106905000D01*
X149435000Y-104423000D02*
X149435000Y-100802000D01*
X149395000Y-110514000D02*
X149395000Y-106905000D01*
X149395000Y-104423000D02*
X149395000Y-100814000D01*
X149355000Y-110501000D02*
X149355000Y-106905000D01*
X149355000Y-104423000D02*
X149355000Y-100827000D01*
X149315000Y-110488000D02*
X149315000Y-106905000D01*
X149315000Y-104423000D02*
X149315000Y-100840000D01*
X149275000Y-110475000D02*
X149275000Y-106905000D01*
X149275000Y-104423000D02*
X149275000Y-100853000D01*
X149235000Y-110461000D02*
X149235000Y-106905000D01*
X149235000Y-104423000D02*
X149235000Y-100867000D01*
X149195000Y-110447000D02*
X149195000Y-106905000D01*
X149195000Y-104423000D02*
X149195000Y-100881000D01*
X149155000Y-110432000D02*
X149155000Y-106905000D01*
X149155000Y-104423000D02*
X149155000Y-100896000D01*
X149115000Y-110418000D02*
X149115000Y-106905000D01*
X149115000Y-104423000D02*
X149115000Y-100910000D01*
X149075000Y-110402000D02*
X149075000Y-106905000D01*
X149075000Y-104423000D02*
X149075000Y-100926000D01*
X149035000Y-110387000D02*
X149035000Y-106905000D01*
X149035000Y-104423000D02*
X149035000Y-100941000D01*
X148995000Y-110371000D02*
X148995000Y-106905000D01*
X148995000Y-104423000D02*
X148995000Y-100957000D01*
X148955000Y-110354000D02*
X148955000Y-106905000D01*
X148955000Y-104423000D02*
X148955000Y-100974000D01*
X148915000Y-110338000D02*
X148915000Y-106905000D01*
X148915000Y-104423000D02*
X148915000Y-100990000D01*
X148875000Y-110321000D02*
X148875000Y-106905000D01*
X148875000Y-104423000D02*
X148875000Y-101007000D01*
X148835000Y-110303000D02*
X148835000Y-106905000D01*
X148835000Y-104423000D02*
X148835000Y-101025000D01*
X148795000Y-110285000D02*
X148795000Y-106905000D01*
X148795000Y-104423000D02*
X148795000Y-101043000D01*
X148755000Y-110267000D02*
X148755000Y-106905000D01*
X148755000Y-104423000D02*
X148755000Y-101061000D01*
X148715000Y-110248000D02*
X148715000Y-106905000D01*
X148715000Y-104423000D02*
X148715000Y-101080000D01*
X148675000Y-110228000D02*
X148675000Y-106905000D01*
X148675000Y-104423000D02*
X148675000Y-101100000D01*
X148635000Y-110209000D02*
X148635000Y-106905000D01*
X148635000Y-104423000D02*
X148635000Y-101119000D01*
X148595000Y-110189000D02*
X148595000Y-106905000D01*
X148595000Y-104423000D02*
X148595000Y-101139000D01*
X148555000Y-110168000D02*
X148555000Y-106905000D01*
X148555000Y-104423000D02*
X148555000Y-101160000D01*
X148515000Y-110147000D02*
X148515000Y-106905000D01*
X148515000Y-104423000D02*
X148515000Y-101181000D01*
X148475000Y-110126000D02*
X148475000Y-106905000D01*
X148475000Y-104423000D02*
X148475000Y-101202000D01*
X148435000Y-110104000D02*
X148435000Y-106905000D01*
X148435000Y-104423000D02*
X148435000Y-101224000D01*
X148395000Y-110081000D02*
X148395000Y-106905000D01*
X148395000Y-104423000D02*
X148395000Y-101247000D01*
X148355000Y-110059000D02*
X148355000Y-106905000D01*
X148355000Y-104423000D02*
X148355000Y-101269000D01*
X148315000Y-110035000D02*
X148315000Y-106905000D01*
X148315000Y-104423000D02*
X148315000Y-101293000D01*
X148275000Y-110011000D02*
X148275000Y-106905000D01*
X148275000Y-104423000D02*
X148275000Y-101317000D01*
X148235000Y-109987000D02*
X148235000Y-106905000D01*
X148235000Y-104423000D02*
X148235000Y-101341000D01*
X148195000Y-109962000D02*
X148195000Y-106905000D01*
X148195000Y-104423000D02*
X148195000Y-101366000D01*
X148155000Y-109937000D02*
X148155000Y-106905000D01*
X148155000Y-104423000D02*
X148155000Y-101391000D01*
X148115000Y-109911000D02*
X148115000Y-106905000D01*
X148115000Y-104423000D02*
X148115000Y-101417000D01*
X148075000Y-109885000D02*
X148075000Y-106905000D01*
X148075000Y-104423000D02*
X148075000Y-101443000D01*
X148035000Y-109858000D02*
X148035000Y-106905000D01*
X148035000Y-104423000D02*
X148035000Y-101470000D01*
X147995000Y-109830000D02*
X147995000Y-106905000D01*
X147995000Y-104423000D02*
X147995000Y-101498000D01*
X147955000Y-109802000D02*
X147955000Y-106905000D01*
X147955000Y-104423000D02*
X147955000Y-101526000D01*
X147915000Y-109774000D02*
X147915000Y-106905000D01*
X147915000Y-104423000D02*
X147915000Y-101554000D01*
X147875000Y-109744000D02*
X147875000Y-106905000D01*
X147875000Y-104423000D02*
X147875000Y-101584000D01*
X147835000Y-109714000D02*
X147835000Y-106905000D01*
X147835000Y-104423000D02*
X147835000Y-101614000D01*
X147795000Y-109684000D02*
X147795000Y-106905000D01*
X147795000Y-104423000D02*
X147795000Y-101644000D01*
X147755000Y-109653000D02*
X147755000Y-106905000D01*
X147755000Y-104423000D02*
X147755000Y-101675000D01*
X147715000Y-109621000D02*
X147715000Y-106905000D01*
X147715000Y-104423000D02*
X147715000Y-101707000D01*
X147675000Y-109589000D02*
X147675000Y-106905000D01*
X147675000Y-104423000D02*
X147675000Y-101739000D01*
X147635000Y-109556000D02*
X147635000Y-106905000D01*
X147635000Y-104423000D02*
X147635000Y-101772000D01*
X147595000Y-109522000D02*
X147595000Y-106905000D01*
X147595000Y-104423000D02*
X147595000Y-101806000D01*
X147555000Y-109488000D02*
X147555000Y-106905000D01*
X147555000Y-104423000D02*
X147555000Y-101840000D01*
X147515000Y-109453000D02*
X147515000Y-106905000D01*
X147515000Y-104423000D02*
X147515000Y-101875000D01*
X147475000Y-109417000D02*
X147475000Y-106905000D01*
X147475000Y-104423000D02*
X147475000Y-101911000D01*
X147435000Y-109380000D02*
X147435000Y-106905000D01*
X147435000Y-104423000D02*
X147435000Y-101948000D01*
X147395000Y-109343000D02*
X147395000Y-106905000D01*
X147395000Y-104423000D02*
X147395000Y-101985000D01*
X147355000Y-109304000D02*
X147355000Y-106905000D01*
X147355000Y-104423000D02*
X147355000Y-102024000D01*
X147315000Y-109265000D02*
X147315000Y-106905000D01*
X147315000Y-104423000D02*
X147315000Y-102063000D01*
X147275000Y-109225000D02*
X147275000Y-106905000D01*
X147275000Y-104423000D02*
X147275000Y-102103000D01*
X147235000Y-109184000D02*
X147235000Y-106905000D01*
X147235000Y-104423000D02*
X147235000Y-102144000D01*
X147195000Y-109142000D02*
X147195000Y-106905000D01*
X147195000Y-104423000D02*
X147195000Y-102186000D01*
X147155000Y-109100000D02*
X147155000Y-102228000D01*
X147115000Y-109056000D02*
X147115000Y-102272000D01*
X147075000Y-109011000D02*
X147075000Y-102317000D01*
X147035000Y-108965000D02*
X147035000Y-102363000D01*
X146995000Y-108918000D02*
X146995000Y-102410000D01*
X146955000Y-108870000D02*
X146955000Y-102458000D01*
X146915000Y-108820000D02*
X146915000Y-102508000D01*
X146875000Y-108770000D02*
X146875000Y-102558000D01*
X146835000Y-108718000D02*
X146835000Y-102610000D01*
X146795000Y-108664000D02*
X146795000Y-102664000D01*
X146755000Y-108609000D02*
X146755000Y-102719000D01*
X146715000Y-108553000D02*
X146715000Y-102775000D01*
X146675000Y-108494000D02*
X146675000Y-102834000D01*
X146635000Y-108434000D02*
X146635000Y-102894000D01*
X146595000Y-108373000D02*
X146595000Y-102955000D01*
X146555000Y-108309000D02*
X146555000Y-103019000D01*
X146515000Y-108243000D02*
X146515000Y-103085000D01*
X146475000Y-108174000D02*
X146475000Y-103154000D01*
X146435000Y-108103000D02*
X146435000Y-103225000D01*
X146395000Y-108029000D02*
X146395000Y-103299000D01*
X146355000Y-107953000D02*
X146355000Y-103375000D01*
X146315000Y-107873000D02*
X146315000Y-103455000D01*
X146275000Y-107789000D02*
X146275000Y-103539000D01*
X146235000Y-107701000D02*
X146235000Y-103627000D01*
X146195000Y-107608000D02*
X146195000Y-103720000D01*
X146155000Y-107510000D02*
X146155000Y-103818000D01*
X146115000Y-107406000D02*
X146115000Y-103922000D01*
X146075000Y-107294000D02*
X146075000Y-104034000D01*
X146035000Y-107174000D02*
X146035000Y-104154000D01*
X145995000Y-107042000D02*
X145995000Y-104286000D01*
X145955000Y-106894000D02*
X145955000Y-104434000D01*
X145915000Y-106726000D02*
X145915000Y-104602000D01*
X145875000Y-106526000D02*
X145875000Y-104802000D01*
X145835000Y-106263000D02*
X145835000Y-105065000D01*
X156395646Y-108539000D02*
X155395646Y-108539000D01*
X155895646Y-109039000D02*
X155895646Y-108039000D01*
G04 #@! TO.C,J9*
X123250000Y-145602000D02*
X123250000Y-142942000D01*
X123190000Y-145602000D02*
X123250000Y-145602000D01*
X123190000Y-142942000D02*
X123250000Y-142942000D01*
X123190000Y-145602000D02*
X123190000Y-142942000D01*
X121920000Y-145602000D02*
X120590000Y-145602000D01*
X120590000Y-145602000D02*
X120590000Y-144272000D01*
G04 #@! TO.C,J11*
X139894000Y-145602000D02*
X139894000Y-144272000D01*
X141224000Y-145602000D02*
X139894000Y-145602000D01*
X142494000Y-145602000D02*
X142494000Y-142942000D01*
X142494000Y-142942000D02*
X142554000Y-142942000D01*
X142494000Y-145602000D02*
X142554000Y-145602000D01*
X142554000Y-145602000D02*
X142554000Y-142942000D01*
G04 #@! TO.C,C3*
X119784000Y-120258000D02*
X119784000Y-117018000D01*
X122024000Y-120258000D02*
X122024000Y-117018000D01*
X119784000Y-120258000D02*
X119849000Y-120258000D01*
X121959000Y-120258000D02*
X122024000Y-120258000D01*
X119784000Y-117018000D02*
X119849000Y-117018000D01*
X121959000Y-117018000D02*
X122024000Y-117018000D01*
G04 #@! TO.C,U3*
X163758000Y-121390000D02*
X163758000Y-124990000D01*
X163765844Y-121378547D02*
G75*
G02X168058000Y-122370000I1842156J-1811453D01*
G01*
X163780316Y-124998445D02*
G75*
G03X168058000Y-123970000I1827684J1808445D01*
G01*
G04 #@! TO.C,U4*
X163606445Y-135939684D02*
G75*
G03X162578000Y-131662000I-1808445J1827684D01*
G01*
X159986547Y-135954156D02*
G75*
G02X160978000Y-131662000I1811453J1842156D01*
G01*
X159998000Y-135962000D02*
X163598000Y-135962000D01*
G04 #@! TO.C,RV5*
D13*
X156884761Y-147534380D02*
X156551428Y-147058190D01*
X156313333Y-147534380D02*
X156313333Y-146534380D01*
X156694285Y-146534380D01*
X156789523Y-146582000D01*
X156837142Y-146629619D01*
X156884761Y-146724857D01*
X156884761Y-146867714D01*
X156837142Y-146962952D01*
X156789523Y-147010571D01*
X156694285Y-147058190D01*
X156313333Y-147058190D01*
X157170476Y-146534380D02*
X157503809Y-147534380D01*
X157837142Y-146534380D01*
X158646666Y-146534380D02*
X158170476Y-146534380D01*
X158122857Y-147010571D01*
X158170476Y-146962952D01*
X158265714Y-146915333D01*
X158503809Y-146915333D01*
X158599047Y-146962952D01*
X158646666Y-147010571D01*
X158694285Y-147105809D01*
X158694285Y-147343904D01*
X158646666Y-147439142D01*
X158599047Y-147486761D01*
X158503809Y-147534380D01*
X158265714Y-147534380D01*
X158170476Y-147486761D01*
X158122857Y-147439142D01*
G04 #@! TO.C,C15*
X153011142Y-115490857D02*
X153058761Y-115538476D01*
X153106380Y-115681333D01*
X153106380Y-115776571D01*
X153058761Y-115919428D01*
X152963523Y-116014666D01*
X152868285Y-116062285D01*
X152677809Y-116109904D01*
X152534952Y-116109904D01*
X152344476Y-116062285D01*
X152249238Y-116014666D01*
X152154000Y-115919428D01*
X152106380Y-115776571D01*
X152106380Y-115681333D01*
X152154000Y-115538476D01*
X152201619Y-115490857D01*
X153106380Y-114538476D02*
X153106380Y-115109904D01*
X153106380Y-114824190D02*
X152106380Y-114824190D01*
X152249238Y-114919428D01*
X152344476Y-115014666D01*
X152392095Y-115109904D01*
X152106380Y-113633714D02*
X152106380Y-114109904D01*
X152582571Y-114157523D01*
X152534952Y-114109904D01*
X152487333Y-114014666D01*
X152487333Y-113776571D01*
X152534952Y-113681333D01*
X152582571Y-113633714D01*
X152677809Y-113586095D01*
X152915904Y-113586095D01*
X153011142Y-113633714D01*
X153058761Y-113681333D01*
X153106380Y-113776571D01*
X153106380Y-114014666D01*
X153058761Y-114109904D01*
X153011142Y-114157523D01*
G04 #@! TO.C,RV3*
X103036761Y-114752380D02*
X102703428Y-114276190D01*
X102465333Y-114752380D02*
X102465333Y-113752380D01*
X102846285Y-113752380D01*
X102941523Y-113800000D01*
X102989142Y-113847619D01*
X103036761Y-113942857D01*
X103036761Y-114085714D01*
X102989142Y-114180952D01*
X102941523Y-114228571D01*
X102846285Y-114276190D01*
X102465333Y-114276190D01*
X103322476Y-113752380D02*
X103655809Y-114752380D01*
X103989142Y-113752380D01*
X104227238Y-113752380D02*
X104846285Y-113752380D01*
X104512952Y-114133333D01*
X104655809Y-114133333D01*
X104751047Y-114180952D01*
X104798666Y-114228571D01*
X104846285Y-114323809D01*
X104846285Y-114561904D01*
X104798666Y-114657142D01*
X104751047Y-114704761D01*
X104655809Y-114752380D01*
X104370095Y-114752380D01*
X104274857Y-114704761D01*
X104227238Y-114657142D01*
G04 #@! TO.C,R24*
X135580380Y-135770857D02*
X135104190Y-136104190D01*
X135580380Y-136342285D02*
X134580380Y-136342285D01*
X134580380Y-135961333D01*
X134628000Y-135866095D01*
X134675619Y-135818476D01*
X134770857Y-135770857D01*
X134913714Y-135770857D01*
X135008952Y-135818476D01*
X135056571Y-135866095D01*
X135104190Y-135961333D01*
X135104190Y-136342285D01*
X134675619Y-135389904D02*
X134628000Y-135342285D01*
X134580380Y-135247047D01*
X134580380Y-135008952D01*
X134628000Y-134913714D01*
X134675619Y-134866095D01*
X134770857Y-134818476D01*
X134866095Y-134818476D01*
X135008952Y-134866095D01*
X135580380Y-135437523D01*
X135580380Y-134818476D01*
X134913714Y-133961333D02*
X135580380Y-133961333D01*
X134532761Y-134199428D02*
X135247047Y-134437523D01*
X135247047Y-133818476D01*
G04 #@! TO.C,C18*
X156781142Y-125579142D02*
X156733523Y-125626761D01*
X156590666Y-125674380D01*
X156495428Y-125674380D01*
X156352571Y-125626761D01*
X156257333Y-125531523D01*
X156209714Y-125436285D01*
X156162095Y-125245809D01*
X156162095Y-125102952D01*
X156209714Y-124912476D01*
X156257333Y-124817238D01*
X156352571Y-124722000D01*
X156495428Y-124674380D01*
X156590666Y-124674380D01*
X156733523Y-124722000D01*
X156781142Y-124769619D01*
X157733523Y-125674380D02*
X157162095Y-125674380D01*
X157447809Y-125674380D02*
X157447809Y-124674380D01*
X157352571Y-124817238D01*
X157257333Y-124912476D01*
X157162095Y-124960095D01*
X158304952Y-125102952D02*
X158209714Y-125055333D01*
X158162095Y-125007714D01*
X158114476Y-124912476D01*
X158114476Y-124864857D01*
X158162095Y-124769619D01*
X158209714Y-124722000D01*
X158304952Y-124674380D01*
X158495428Y-124674380D01*
X158590666Y-124722000D01*
X158638285Y-124769619D01*
X158685904Y-124864857D01*
X158685904Y-124912476D01*
X158638285Y-125007714D01*
X158590666Y-125055333D01*
X158495428Y-125102952D01*
X158304952Y-125102952D01*
X158209714Y-125150571D01*
X158162095Y-125198190D01*
X158114476Y-125293428D01*
X158114476Y-125483904D01*
X158162095Y-125579142D01*
X158209714Y-125626761D01*
X158304952Y-125674380D01*
X158495428Y-125674380D01*
X158590666Y-125626761D01*
X158638285Y-125579142D01*
X158685904Y-125483904D01*
X158685904Y-125293428D01*
X158638285Y-125198190D01*
X158590666Y-125150571D01*
X158495428Y-125102952D01*
G04 #@! TO.C,C14*
X156837142Y-116943142D02*
X156789523Y-116990761D01*
X156646666Y-117038380D01*
X156551428Y-117038380D01*
X156408571Y-116990761D01*
X156313333Y-116895523D01*
X156265714Y-116800285D01*
X156218095Y-116609809D01*
X156218095Y-116466952D01*
X156265714Y-116276476D01*
X156313333Y-116181238D01*
X156408571Y-116086000D01*
X156551428Y-116038380D01*
X156646666Y-116038380D01*
X156789523Y-116086000D01*
X156837142Y-116133619D01*
X157789523Y-117038380D02*
X157218095Y-117038380D01*
X157503809Y-117038380D02*
X157503809Y-116038380D01*
X157408571Y-116181238D01*
X157313333Y-116276476D01*
X157218095Y-116324095D01*
X158646666Y-116371714D02*
X158646666Y-117038380D01*
X158408571Y-115990761D02*
X158170476Y-116705047D01*
X158789523Y-116705047D01*
G04 #@! TO.C,C20*
X141343142Y-122277142D02*
X141295523Y-122324761D01*
X141152666Y-122372380D01*
X141057428Y-122372380D01*
X140914571Y-122324761D01*
X140819333Y-122229523D01*
X140771714Y-122134285D01*
X140724095Y-121943809D01*
X140724095Y-121800952D01*
X140771714Y-121610476D01*
X140819333Y-121515238D01*
X140914571Y-121420000D01*
X141057428Y-121372380D01*
X141152666Y-121372380D01*
X141295523Y-121420000D01*
X141343142Y-121467619D01*
X141724095Y-121467619D02*
X141771714Y-121420000D01*
X141866952Y-121372380D01*
X142105047Y-121372380D01*
X142200285Y-121420000D01*
X142247904Y-121467619D01*
X142295523Y-121562857D01*
X142295523Y-121658095D01*
X142247904Y-121800952D01*
X141676476Y-122372380D01*
X142295523Y-122372380D01*
X142914571Y-121372380D02*
X143009809Y-121372380D01*
X143105047Y-121420000D01*
X143152666Y-121467619D01*
X143200285Y-121562857D01*
X143247904Y-121753333D01*
X143247904Y-121991428D01*
X143200285Y-122181904D01*
X143152666Y-122277142D01*
X143105047Y-122324761D01*
X143009809Y-122372380D01*
X142914571Y-122372380D01*
X142819333Y-122324761D01*
X142771714Y-122277142D01*
X142724095Y-122181904D01*
X142676476Y-121991428D01*
X142676476Y-121753333D01*
X142724095Y-121562857D01*
X142771714Y-121467619D01*
X142819333Y-121420000D01*
X142914571Y-121372380D01*
G04 #@! TO.C,D3*
X168346380Y-133326095D02*
X167346380Y-133326095D01*
X167346380Y-133088000D01*
X167394000Y-132945142D01*
X167489238Y-132849904D01*
X167584476Y-132802285D01*
X167774952Y-132754666D01*
X167917809Y-132754666D01*
X168108285Y-132802285D01*
X168203523Y-132849904D01*
X168298761Y-132945142D01*
X168346380Y-133088000D01*
X168346380Y-133326095D01*
X167346380Y-132421333D02*
X167346380Y-131802285D01*
X167727333Y-132135619D01*
X167727333Y-131992761D01*
X167774952Y-131897523D01*
X167822571Y-131849904D01*
X167917809Y-131802285D01*
X168155904Y-131802285D01*
X168251142Y-131849904D01*
X168298761Y-131897523D01*
X168346380Y-131992761D01*
X168346380Y-132278476D01*
X168298761Y-132373714D01*
X168251142Y-132421333D01*
X167838380Y-135897904D02*
X166838380Y-135897904D01*
X167838380Y-135326476D02*
X167266952Y-135755047D01*
X166838380Y-135326476D02*
X167409809Y-135897904D01*
G04 #@! TO.C,D4*
X172410380Y-133326095D02*
X171410380Y-133326095D01*
X171410380Y-133088000D01*
X171458000Y-132945142D01*
X171553238Y-132849904D01*
X171648476Y-132802285D01*
X171838952Y-132754666D01*
X171981809Y-132754666D01*
X172172285Y-132802285D01*
X172267523Y-132849904D01*
X172362761Y-132945142D01*
X172410380Y-133088000D01*
X172410380Y-133326095D01*
X171743714Y-131897523D02*
X172410380Y-131897523D01*
X171362761Y-132135619D02*
X172077047Y-132373714D01*
X172077047Y-131754666D01*
X171394380Y-135897904D02*
X170394380Y-135897904D01*
X171394380Y-135326476D02*
X170822952Y-135755047D01*
X170394380Y-135326476D02*
X170965809Y-135897904D01*
G04 #@! TO.C,R14*
X138628380Y-135770857D02*
X138152190Y-136104190D01*
X138628380Y-136342285D02*
X137628380Y-136342285D01*
X137628380Y-135961333D01*
X137676000Y-135866095D01*
X137723619Y-135818476D01*
X137818857Y-135770857D01*
X137961714Y-135770857D01*
X138056952Y-135818476D01*
X138104571Y-135866095D01*
X138152190Y-135961333D01*
X138152190Y-136342285D01*
X138628380Y-134818476D02*
X138628380Y-135389904D01*
X138628380Y-135104190D02*
X137628380Y-135104190D01*
X137771238Y-135199428D01*
X137866476Y-135294666D01*
X137914095Y-135389904D01*
X137961714Y-133961333D02*
X138628380Y-133961333D01*
X137580761Y-134199428D02*
X138295047Y-134437523D01*
X138295047Y-133818476D01*
G04 #@! TO.C,R12*
X105100380Y-129674857D02*
X104624190Y-130008190D01*
X105100380Y-130246285D02*
X104100380Y-130246285D01*
X104100380Y-129865333D01*
X104148000Y-129770095D01*
X104195619Y-129722476D01*
X104290857Y-129674857D01*
X104433714Y-129674857D01*
X104528952Y-129722476D01*
X104576571Y-129770095D01*
X104624190Y-129865333D01*
X104624190Y-130246285D01*
X105100380Y-128722476D02*
X105100380Y-129293904D01*
X105100380Y-129008190D02*
X104100380Y-129008190D01*
X104243238Y-129103428D01*
X104338476Y-129198666D01*
X104386095Y-129293904D01*
X104195619Y-128341523D02*
X104148000Y-128293904D01*
X104100380Y-128198666D01*
X104100380Y-127960571D01*
X104148000Y-127865333D01*
X104195619Y-127817714D01*
X104290857Y-127770095D01*
X104386095Y-127770095D01*
X104528952Y-127817714D01*
X105100380Y-128389142D01*
X105100380Y-127770095D01*
G04 #@! TO.C,J4*
X175998380Y-116141333D02*
X176712666Y-116141333D01*
X176855523Y-116188952D01*
X176950761Y-116284190D01*
X176998380Y-116427047D01*
X176998380Y-116522285D01*
X176331714Y-115236571D02*
X176998380Y-115236571D01*
X175950761Y-115474666D02*
X176665047Y-115712761D01*
X176665047Y-115093714D01*
G04 #@! TO.C,MK1*
X170394476Y-100900380D02*
X170394476Y-99900380D01*
X170727809Y-100614666D01*
X171061142Y-99900380D01*
X171061142Y-100900380D01*
X171537333Y-100900380D02*
X171537333Y-99900380D01*
X172108761Y-100900380D02*
X171680190Y-100328952D01*
X172108761Y-99900380D02*
X171537333Y-100471809D01*
X173061142Y-100900380D02*
X172489714Y-100900380D01*
X172775428Y-100900380D02*
X172775428Y-99900380D01*
X172680190Y-100043238D01*
X172584952Y-100138476D01*
X172489714Y-100186095D01*
G04 #@! TO.C,MK2*
X103338476Y-139000380D02*
X103338476Y-138000380D01*
X103671809Y-138714666D01*
X104005142Y-138000380D01*
X104005142Y-139000380D01*
X104481333Y-139000380D02*
X104481333Y-138000380D01*
X105052761Y-139000380D02*
X104624190Y-138428952D01*
X105052761Y-138000380D02*
X104481333Y-138571809D01*
X105433714Y-138095619D02*
X105481333Y-138048000D01*
X105576571Y-138000380D01*
X105814666Y-138000380D01*
X105909904Y-138048000D01*
X105957523Y-138095619D01*
X106005142Y-138190857D01*
X106005142Y-138286095D01*
X105957523Y-138428952D01*
X105386095Y-139000380D01*
X106005142Y-139000380D01*
G04 #@! TO.C,MK3*
X103338476Y-100900380D02*
X103338476Y-99900380D01*
X103671809Y-100614666D01*
X104005142Y-99900380D01*
X104005142Y-100900380D01*
X104481333Y-100900380D02*
X104481333Y-99900380D01*
X105052761Y-100900380D02*
X104624190Y-100328952D01*
X105052761Y-99900380D02*
X104481333Y-100471809D01*
X105386095Y-99900380D02*
X106005142Y-99900380D01*
X105671809Y-100281333D01*
X105814666Y-100281333D01*
X105909904Y-100328952D01*
X105957523Y-100376571D01*
X106005142Y-100471809D01*
X106005142Y-100709904D01*
X105957523Y-100805142D01*
X105909904Y-100852761D01*
X105814666Y-100900380D01*
X105528952Y-100900380D01*
X105433714Y-100852761D01*
X105386095Y-100805142D01*
G04 #@! TO.C,U1*
X127976380Y-119379904D02*
X128785904Y-119379904D01*
X128881142Y-119332285D01*
X128928761Y-119284666D01*
X128976380Y-119189428D01*
X128976380Y-118998952D01*
X128928761Y-118903714D01*
X128881142Y-118856095D01*
X128785904Y-118808476D01*
X127976380Y-118808476D01*
X128976380Y-117808476D02*
X128976380Y-118379904D01*
X128976380Y-118094190D02*
X127976380Y-118094190D01*
X128119238Y-118189428D01*
X128214476Y-118284666D01*
X128262095Y-118379904D01*
G04 #@! TO.C,RV1*
X133516761Y-104084380D02*
X133183428Y-103608190D01*
X132945333Y-104084380D02*
X132945333Y-103084380D01*
X133326285Y-103084380D01*
X133421523Y-103132000D01*
X133469142Y-103179619D01*
X133516761Y-103274857D01*
X133516761Y-103417714D01*
X133469142Y-103512952D01*
X133421523Y-103560571D01*
X133326285Y-103608190D01*
X132945333Y-103608190D01*
X133802476Y-103084380D02*
X134135809Y-104084380D01*
X134469142Y-103084380D01*
X135326285Y-104084380D02*
X134754857Y-104084380D01*
X135040571Y-104084380D02*
X135040571Y-103084380D01*
X134945333Y-103227238D01*
X134850095Y-103322476D01*
X134754857Y-103370095D01*
G04 #@! TO.C,C1*
X125833142Y-135254666D02*
X125880761Y-135302285D01*
X125928380Y-135445142D01*
X125928380Y-135540380D01*
X125880761Y-135683238D01*
X125785523Y-135778476D01*
X125690285Y-135826095D01*
X125499809Y-135873714D01*
X125356952Y-135873714D01*
X125166476Y-135826095D01*
X125071238Y-135778476D01*
X124976000Y-135683238D01*
X124928380Y-135540380D01*
X124928380Y-135445142D01*
X124976000Y-135302285D01*
X125023619Y-135254666D01*
X125928380Y-134302285D02*
X125928380Y-134873714D01*
X125928380Y-134588000D02*
X124928380Y-134588000D01*
X125071238Y-134683238D01*
X125166476Y-134778476D01*
X125214095Y-134873714D01*
G04 #@! TO.C,C4*
X141097333Y-105005142D02*
X141049714Y-105052761D01*
X140906857Y-105100380D01*
X140811619Y-105100380D01*
X140668761Y-105052761D01*
X140573523Y-104957523D01*
X140525904Y-104862285D01*
X140478285Y-104671809D01*
X140478285Y-104528952D01*
X140525904Y-104338476D01*
X140573523Y-104243238D01*
X140668761Y-104148000D01*
X140811619Y-104100380D01*
X140906857Y-104100380D01*
X141049714Y-104148000D01*
X141097333Y-104195619D01*
X141954476Y-104433714D02*
X141954476Y-105100380D01*
X141716380Y-104052761D02*
X141478285Y-104767047D01*
X142097333Y-104767047D01*
G04 #@! TO.C,C6*
X118213142Y-119118666D02*
X118260761Y-119166285D01*
X118308380Y-119309142D01*
X118308380Y-119404380D01*
X118260761Y-119547238D01*
X118165523Y-119642476D01*
X118070285Y-119690095D01*
X117879809Y-119737714D01*
X117736952Y-119737714D01*
X117546476Y-119690095D01*
X117451238Y-119642476D01*
X117356000Y-119547238D01*
X117308380Y-119404380D01*
X117308380Y-119309142D01*
X117356000Y-119166285D01*
X117403619Y-119118666D01*
X117308380Y-118261523D02*
X117308380Y-118452000D01*
X117356000Y-118547238D01*
X117403619Y-118594857D01*
X117546476Y-118690095D01*
X117736952Y-118737714D01*
X118117904Y-118737714D01*
X118213142Y-118690095D01*
X118260761Y-118642476D01*
X118308380Y-118547238D01*
X118308380Y-118356761D01*
X118260761Y-118261523D01*
X118213142Y-118213904D01*
X118117904Y-118166285D01*
X117879809Y-118166285D01*
X117784571Y-118213904D01*
X117736952Y-118261523D01*
X117689333Y-118356761D01*
X117689333Y-118547238D01*
X117736952Y-118642476D01*
X117784571Y-118690095D01*
X117879809Y-118737714D01*
G04 #@! TO.C,C7*
X151709333Y-127671142D02*
X151661714Y-127718761D01*
X151518857Y-127766380D01*
X151423619Y-127766380D01*
X151280761Y-127718761D01*
X151185523Y-127623523D01*
X151137904Y-127528285D01*
X151090285Y-127337809D01*
X151090285Y-127194952D01*
X151137904Y-127004476D01*
X151185523Y-126909238D01*
X151280761Y-126814000D01*
X151423619Y-126766380D01*
X151518857Y-126766380D01*
X151661714Y-126814000D01*
X151709333Y-126861619D01*
X152042666Y-126766380D02*
X152709333Y-126766380D01*
X152280761Y-127766380D01*
G04 #@! TO.C,C8*
X151709333Y-120051142D02*
X151661714Y-120098761D01*
X151518857Y-120146380D01*
X151423619Y-120146380D01*
X151280761Y-120098761D01*
X151185523Y-120003523D01*
X151137904Y-119908285D01*
X151090285Y-119717809D01*
X151090285Y-119574952D01*
X151137904Y-119384476D01*
X151185523Y-119289238D01*
X151280761Y-119194000D01*
X151423619Y-119146380D01*
X151518857Y-119146380D01*
X151661714Y-119194000D01*
X151709333Y-119241619D01*
X152280761Y-119574952D02*
X152185523Y-119527333D01*
X152137904Y-119479714D01*
X152090285Y-119384476D01*
X152090285Y-119336857D01*
X152137904Y-119241619D01*
X152185523Y-119194000D01*
X152280761Y-119146380D01*
X152471238Y-119146380D01*
X152566476Y-119194000D01*
X152614095Y-119241619D01*
X152661714Y-119336857D01*
X152661714Y-119384476D01*
X152614095Y-119479714D01*
X152566476Y-119527333D01*
X152471238Y-119574952D01*
X152280761Y-119574952D01*
X152185523Y-119622571D01*
X152137904Y-119670190D01*
X152090285Y-119765428D01*
X152090285Y-119955904D01*
X152137904Y-120051142D01*
X152185523Y-120098761D01*
X152280761Y-120146380D01*
X152471238Y-120146380D01*
X152566476Y-120098761D01*
X152614095Y-120051142D01*
X152661714Y-119955904D01*
X152661714Y-119765428D01*
X152614095Y-119670190D01*
X152566476Y-119622571D01*
X152471238Y-119574952D01*
G04 #@! TO.C,C19*
X158869142Y-129643142D02*
X158821523Y-129690761D01*
X158678666Y-129738380D01*
X158583428Y-129738380D01*
X158440571Y-129690761D01*
X158345333Y-129595523D01*
X158297714Y-129500285D01*
X158250095Y-129309809D01*
X158250095Y-129166952D01*
X158297714Y-128976476D01*
X158345333Y-128881238D01*
X158440571Y-128786000D01*
X158583428Y-128738380D01*
X158678666Y-128738380D01*
X158821523Y-128786000D01*
X158869142Y-128833619D01*
X159821523Y-129738380D02*
X159250095Y-129738380D01*
X159535809Y-129738380D02*
X159535809Y-128738380D01*
X159440571Y-128881238D01*
X159345333Y-128976476D01*
X159250095Y-129024095D01*
X160297714Y-129738380D02*
X160488190Y-129738380D01*
X160583428Y-129690761D01*
X160631047Y-129643142D01*
X160726285Y-129500285D01*
X160773904Y-129309809D01*
X160773904Y-128928857D01*
X160726285Y-128833619D01*
X160678666Y-128786000D01*
X160583428Y-128738380D01*
X160392952Y-128738380D01*
X160297714Y-128786000D01*
X160250095Y-128833619D01*
X160202476Y-128928857D01*
X160202476Y-129166952D01*
X160250095Y-129262190D01*
X160297714Y-129309809D01*
X160392952Y-129357428D01*
X160583428Y-129357428D01*
X160678666Y-129309809D01*
X160726285Y-129262190D01*
X160773904Y-129166952D01*
G04 #@! TO.C,R1*
X122372380Y-135294666D02*
X121896190Y-135628000D01*
X122372380Y-135866095D02*
X121372380Y-135866095D01*
X121372380Y-135485142D01*
X121420000Y-135389904D01*
X121467619Y-135342285D01*
X121562857Y-135294666D01*
X121705714Y-135294666D01*
X121800952Y-135342285D01*
X121848571Y-135389904D01*
X121896190Y-135485142D01*
X121896190Y-135866095D01*
X122372380Y-134342285D02*
X122372380Y-134913714D01*
X122372380Y-134628000D02*
X121372380Y-134628000D01*
X121515238Y-134723238D01*
X121610476Y-134818476D01*
X121658095Y-134913714D01*
G04 #@! TO.C,R2*
X129484380Y-135294666D02*
X129008190Y-135628000D01*
X129484380Y-135866095D02*
X128484380Y-135866095D01*
X128484380Y-135485142D01*
X128532000Y-135389904D01*
X128579619Y-135342285D01*
X128674857Y-135294666D01*
X128817714Y-135294666D01*
X128912952Y-135342285D01*
X128960571Y-135389904D01*
X129008190Y-135485142D01*
X129008190Y-135866095D01*
X128579619Y-134913714D02*
X128532000Y-134866095D01*
X128484380Y-134770857D01*
X128484380Y-134532761D01*
X128532000Y-134437523D01*
X128579619Y-134389904D01*
X128674857Y-134342285D01*
X128770095Y-134342285D01*
X128912952Y-134389904D01*
X129484380Y-134961333D01*
X129484380Y-134342285D01*
G04 #@! TO.C,R5*
X119324380Y-135294666D02*
X118848190Y-135628000D01*
X119324380Y-135866095D02*
X118324380Y-135866095D01*
X118324380Y-135485142D01*
X118372000Y-135389904D01*
X118419619Y-135342285D01*
X118514857Y-135294666D01*
X118657714Y-135294666D01*
X118752952Y-135342285D01*
X118800571Y-135389904D01*
X118848190Y-135485142D01*
X118848190Y-135866095D01*
X118324380Y-134389904D02*
X118324380Y-134866095D01*
X118800571Y-134913714D01*
X118752952Y-134866095D01*
X118705333Y-134770857D01*
X118705333Y-134532761D01*
X118752952Y-134437523D01*
X118800571Y-134389904D01*
X118895809Y-134342285D01*
X119133904Y-134342285D01*
X119229142Y-134389904D01*
X119276761Y-134437523D01*
X119324380Y-134532761D01*
X119324380Y-134770857D01*
X119276761Y-134866095D01*
X119229142Y-134913714D01*
G04 #@! TO.C,R7*
X116276380Y-135294666D02*
X115800190Y-135628000D01*
X116276380Y-135866095D02*
X115276380Y-135866095D01*
X115276380Y-135485142D01*
X115324000Y-135389904D01*
X115371619Y-135342285D01*
X115466857Y-135294666D01*
X115609714Y-135294666D01*
X115704952Y-135342285D01*
X115752571Y-135389904D01*
X115800190Y-135485142D01*
X115800190Y-135866095D01*
X115276380Y-134961333D02*
X115276380Y-134294666D01*
X116276380Y-134723238D01*
G04 #@! TO.C,R9*
X114752380Y-119546666D02*
X114276190Y-119880000D01*
X114752380Y-120118095D02*
X113752380Y-120118095D01*
X113752380Y-119737142D01*
X113800000Y-119641904D01*
X113847619Y-119594285D01*
X113942857Y-119546666D01*
X114085714Y-119546666D01*
X114180952Y-119594285D01*
X114228571Y-119641904D01*
X114276190Y-119737142D01*
X114276190Y-120118095D01*
X114752380Y-119070476D02*
X114752380Y-118880000D01*
X114704761Y-118784761D01*
X114657142Y-118737142D01*
X114514285Y-118641904D01*
X114323809Y-118594285D01*
X113942857Y-118594285D01*
X113847619Y-118641904D01*
X113800000Y-118689523D01*
X113752380Y-118784761D01*
X113752380Y-118975238D01*
X113800000Y-119070476D01*
X113847619Y-119118095D01*
X113942857Y-119165714D01*
X114180952Y-119165714D01*
X114276190Y-119118095D01*
X114323809Y-119070476D01*
X114371428Y-118975238D01*
X114371428Y-118784761D01*
X114323809Y-118689523D01*
X114276190Y-118641904D01*
X114180952Y-118594285D01*
G04 #@! TO.C,R10*
X137104380Y-120022857D02*
X136628190Y-120356190D01*
X137104380Y-120594285D02*
X136104380Y-120594285D01*
X136104380Y-120213333D01*
X136152000Y-120118095D01*
X136199619Y-120070476D01*
X136294857Y-120022857D01*
X136437714Y-120022857D01*
X136532952Y-120070476D01*
X136580571Y-120118095D01*
X136628190Y-120213333D01*
X136628190Y-120594285D01*
X137104380Y-119070476D02*
X137104380Y-119641904D01*
X137104380Y-119356190D02*
X136104380Y-119356190D01*
X136247238Y-119451428D01*
X136342476Y-119546666D01*
X136390095Y-119641904D01*
X136104380Y-118451428D02*
X136104380Y-118356190D01*
X136152000Y-118260952D01*
X136199619Y-118213333D01*
X136294857Y-118165714D01*
X136485333Y-118118095D01*
X136723428Y-118118095D01*
X136913904Y-118165714D01*
X137009142Y-118213333D01*
X137056761Y-118260952D01*
X137104380Y-118356190D01*
X137104380Y-118451428D01*
X137056761Y-118546666D01*
X137009142Y-118594285D01*
X136913904Y-118641904D01*
X136723428Y-118689523D01*
X136485333Y-118689523D01*
X136294857Y-118641904D01*
X136199619Y-118594285D01*
X136152000Y-118546666D01*
X136104380Y-118451428D01*
G04 #@! TO.C,R11*
X108148380Y-129674857D02*
X107672190Y-130008190D01*
X108148380Y-130246285D02*
X107148380Y-130246285D01*
X107148380Y-129865333D01*
X107196000Y-129770095D01*
X107243619Y-129722476D01*
X107338857Y-129674857D01*
X107481714Y-129674857D01*
X107576952Y-129722476D01*
X107624571Y-129770095D01*
X107672190Y-129865333D01*
X107672190Y-130246285D01*
X108148380Y-128722476D02*
X108148380Y-129293904D01*
X108148380Y-129008190D02*
X107148380Y-129008190D01*
X107291238Y-129103428D01*
X107386476Y-129198666D01*
X107434095Y-129293904D01*
X108148380Y-127770095D02*
X108148380Y-128341523D01*
X108148380Y-128055809D02*
X107148380Y-128055809D01*
X107291238Y-128151047D01*
X107386476Y-128246285D01*
X107434095Y-128341523D01*
G04 #@! TO.C,R13*
X121277142Y-105100380D02*
X120943809Y-104624190D01*
X120705714Y-105100380D02*
X120705714Y-104100380D01*
X121086666Y-104100380D01*
X121181904Y-104148000D01*
X121229523Y-104195619D01*
X121277142Y-104290857D01*
X121277142Y-104433714D01*
X121229523Y-104528952D01*
X121181904Y-104576571D01*
X121086666Y-104624190D01*
X120705714Y-104624190D01*
X122229523Y-105100380D02*
X121658095Y-105100380D01*
X121943809Y-105100380D02*
X121943809Y-104100380D01*
X121848571Y-104243238D01*
X121753333Y-104338476D01*
X121658095Y-104386095D01*
X122562857Y-104100380D02*
X123181904Y-104100380D01*
X122848571Y-104481333D01*
X122991428Y-104481333D01*
X123086666Y-104528952D01*
X123134285Y-104576571D01*
X123181904Y-104671809D01*
X123181904Y-104909904D01*
X123134285Y-105005142D01*
X123086666Y-105052761D01*
X122991428Y-105100380D01*
X122705714Y-105100380D01*
X122610476Y-105052761D01*
X122562857Y-105005142D01*
G04 #@! TO.C,R15*
X141676380Y-135770857D02*
X141200190Y-136104190D01*
X141676380Y-136342285D02*
X140676380Y-136342285D01*
X140676380Y-135961333D01*
X140724000Y-135866095D01*
X140771619Y-135818476D01*
X140866857Y-135770857D01*
X141009714Y-135770857D01*
X141104952Y-135818476D01*
X141152571Y-135866095D01*
X141200190Y-135961333D01*
X141200190Y-136342285D01*
X141676380Y-134818476D02*
X141676380Y-135389904D01*
X141676380Y-135104190D02*
X140676380Y-135104190D01*
X140819238Y-135199428D01*
X140914476Y-135294666D01*
X140962095Y-135389904D01*
X140676380Y-133913714D02*
X140676380Y-134389904D01*
X141152571Y-134437523D01*
X141104952Y-134389904D01*
X141057333Y-134294666D01*
X141057333Y-134056571D01*
X141104952Y-133961333D01*
X141152571Y-133913714D01*
X141247809Y-133866095D01*
X141485904Y-133866095D01*
X141581142Y-133913714D01*
X141628761Y-133961333D01*
X141676380Y-134056571D01*
X141676380Y-134294666D01*
X141628761Y-134389904D01*
X141581142Y-134437523D01*
G04 #@! TO.C,R25*
X132532380Y-135770857D02*
X132056190Y-136104190D01*
X132532380Y-136342285D02*
X131532380Y-136342285D01*
X131532380Y-135961333D01*
X131580000Y-135866095D01*
X131627619Y-135818476D01*
X131722857Y-135770857D01*
X131865714Y-135770857D01*
X131960952Y-135818476D01*
X132008571Y-135866095D01*
X132056190Y-135961333D01*
X132056190Y-136342285D01*
X131627619Y-135389904D02*
X131580000Y-135342285D01*
X131532380Y-135247047D01*
X131532380Y-135008952D01*
X131580000Y-134913714D01*
X131627619Y-134866095D01*
X131722857Y-134818476D01*
X131818095Y-134818476D01*
X131960952Y-134866095D01*
X132532380Y-135437523D01*
X132532380Y-134818476D01*
X131532380Y-133913714D02*
X131532380Y-134389904D01*
X132008571Y-134437523D01*
X131960952Y-134389904D01*
X131913333Y-134294666D01*
X131913333Y-134056571D01*
X131960952Y-133961333D01*
X132008571Y-133913714D01*
X132103809Y-133866095D01*
X132341904Y-133866095D01*
X132437142Y-133913714D01*
X132484761Y-133961333D01*
X132532380Y-134056571D01*
X132532380Y-134294666D01*
X132484761Y-134389904D01*
X132437142Y-134437523D01*
G04 #@! TO.C,C10*
X161957142Y-112271142D02*
X161909523Y-112318761D01*
X161766666Y-112366380D01*
X161671428Y-112366380D01*
X161528571Y-112318761D01*
X161433333Y-112223523D01*
X161385714Y-112128285D01*
X161338095Y-111937809D01*
X161338095Y-111794952D01*
X161385714Y-111604476D01*
X161433333Y-111509238D01*
X161528571Y-111414000D01*
X161671428Y-111366380D01*
X161766666Y-111366380D01*
X161909523Y-111414000D01*
X161957142Y-111461619D01*
X162909523Y-112366380D02*
X162338095Y-112366380D01*
X162623809Y-112366380D02*
X162623809Y-111366380D01*
X162528571Y-111509238D01*
X162433333Y-111604476D01*
X162338095Y-111652095D01*
X163528571Y-111366380D02*
X163623809Y-111366380D01*
X163719047Y-111414000D01*
X163766666Y-111461619D01*
X163814285Y-111556857D01*
X163861904Y-111747333D01*
X163861904Y-111985428D01*
X163814285Y-112175904D01*
X163766666Y-112271142D01*
X163719047Y-112318761D01*
X163623809Y-112366380D01*
X163528571Y-112366380D01*
X163433333Y-112318761D01*
X163385714Y-112271142D01*
X163338095Y-112175904D01*
X163290476Y-111985428D01*
X163290476Y-111747333D01*
X163338095Y-111556857D01*
X163385714Y-111461619D01*
X163433333Y-111414000D01*
X163528571Y-111366380D01*
G04 #@! TO.C,C11*
X151757142Y-109069142D02*
X151709523Y-109116761D01*
X151566666Y-109164380D01*
X151471428Y-109164380D01*
X151328571Y-109116761D01*
X151233333Y-109021523D01*
X151185714Y-108926285D01*
X151138095Y-108735809D01*
X151138095Y-108592952D01*
X151185714Y-108402476D01*
X151233333Y-108307238D01*
X151328571Y-108212000D01*
X151471428Y-108164380D01*
X151566666Y-108164380D01*
X151709523Y-108212000D01*
X151757142Y-108259619D01*
X152709523Y-109164380D02*
X152138095Y-109164380D01*
X152423809Y-109164380D02*
X152423809Y-108164380D01*
X152328571Y-108307238D01*
X152233333Y-108402476D01*
X152138095Y-108450095D01*
X153661904Y-109164380D02*
X153090476Y-109164380D01*
X153376190Y-109164380D02*
X153376190Y-108164380D01*
X153280952Y-108307238D01*
X153185714Y-108402476D01*
X153090476Y-108450095D01*
G04 #@! TO.C,C3*
X120753142Y-114974666D02*
X120800761Y-115022285D01*
X120848380Y-115165142D01*
X120848380Y-115260380D01*
X120800761Y-115403238D01*
X120705523Y-115498476D01*
X120610285Y-115546095D01*
X120419809Y-115593714D01*
X120276952Y-115593714D01*
X120086476Y-115546095D01*
X119991238Y-115498476D01*
X119896000Y-115403238D01*
X119848380Y-115260380D01*
X119848380Y-115165142D01*
X119896000Y-115022285D01*
X119943619Y-114974666D01*
X119848380Y-114641333D02*
X119848380Y-114022285D01*
X120229333Y-114355619D01*
X120229333Y-114212761D01*
X120276952Y-114117523D01*
X120324571Y-114069904D01*
X120419809Y-114022285D01*
X120657904Y-114022285D01*
X120753142Y-114069904D01*
X120800761Y-114117523D01*
X120848380Y-114212761D01*
X120848380Y-114498476D01*
X120800761Y-114593714D01*
X120753142Y-114641333D01*
G04 #@! TO.C,U3*
X168860380Y-123951904D02*
X169669904Y-123951904D01*
X169765142Y-123904285D01*
X169812761Y-123856666D01*
X169860380Y-123761428D01*
X169860380Y-123570952D01*
X169812761Y-123475714D01*
X169765142Y-123428095D01*
X169669904Y-123380476D01*
X168860380Y-123380476D01*
X168860380Y-122999523D02*
X168860380Y-122380476D01*
X169241333Y-122713809D01*
X169241333Y-122570952D01*
X169288952Y-122475714D01*
X169336571Y-122428095D01*
X169431809Y-122380476D01*
X169669904Y-122380476D01*
X169765142Y-122428095D01*
X169812761Y-122475714D01*
X169860380Y-122570952D01*
X169860380Y-122856666D01*
X169812761Y-122951904D01*
X169765142Y-122999523D01*
G04 #@! TO.C,U4*
X161036095Y-129764380D02*
X161036095Y-130573904D01*
X161083714Y-130669142D01*
X161131333Y-130716761D01*
X161226571Y-130764380D01*
X161417047Y-130764380D01*
X161512285Y-130716761D01*
X161559904Y-130669142D01*
X161607523Y-130573904D01*
X161607523Y-129764380D01*
X162512285Y-130097714D02*
X162512285Y-130764380D01*
X162274190Y-129716761D02*
X162036095Y-130431047D01*
X162655142Y-130431047D01*
G04 #@! TO.C,MK4*
X170394476Y-139000380D02*
X170394476Y-138000380D01*
X170727809Y-138714666D01*
X171061142Y-138000380D01*
X171061142Y-139000380D01*
X171537333Y-139000380D02*
X171537333Y-138000380D01*
X172108761Y-139000380D02*
X171680190Y-138428952D01*
X172108761Y-138000380D02*
X171537333Y-138571809D01*
X172965904Y-138333714D02*
X172965904Y-139000380D01*
X172727809Y-137952761D02*
X172489714Y-138667047D01*
X173108761Y-138667047D01*
G04 #@! TD*
M02*
