M48
;DRILL file {KiCad (5.0.0-3-g5ebb6b6)} date Sunday, 12 August 2018 at 20:31:29
;FORMAT={-:-/ absolute / metric / decimal}
FMAT,2
METRIC,TZ
T1C0.700
T2C0.750
T3C0.800
T4C1.000
T5C1.200
T6C3.200
%
G90
G05
M71
T1
X130.556Y-103.632
X133.096Y-101.092
X133.096Y-106.172
X105.664Y-111.76
X105.664Y-116.84
X108.204Y-114.3
T2
X160.528Y-134.112
X161.798Y-132.842
X163.068Y-134.112
X165.608Y-121.92
X165.608Y-124.46
X166.878Y-123.19
T3
X141.224Y-130.048
X141.224Y-140.208
X150.876Y-131.064
X152.876Y-131.064
X129.032Y-130.048
X129.032Y-140.208
X157.48Y-123.444
X160.98Y-123.444
X125.476Y-132.588
X125.476Y-137.588
X138.176Y-130.048
X138.176Y-140.208
X136.652Y-114.3
X136.652Y-124.46
X157.48Y-114.808
X160.98Y-114.808
X141.732Y-119.888
X145.232Y-119.888
X116.84Y-104.648
X127.Y-104.648
X117.856Y-116.412
X117.856Y-121.412
X121.92Y-130.048
X121.92Y-140.208
X135.128Y-130.048
X135.128Y-140.208
X124.46Y-114.808
X124.46Y-122.428
X127.Y-114.808
X127.Y-122.428
X129.54Y-114.808
X129.54Y-122.428
X132.08Y-114.808
X132.08Y-122.428
X132.08Y-130.048
X132.08Y-140.208
X157.052Y-129.54
X162.052Y-129.54
X150.876Y-123.444
X152.876Y-123.444
X118.872Y-130.048
X118.872Y-140.208
X114.3Y-114.3
X114.3Y-124.46
X120.904Y-117.388
X120.904Y-119.888
X152.908Y-112.348
X152.908Y-117.348
X104.648Y-123.952
X104.648Y-134.112
X138.764Y-104.648
X143.764Y-104.648
X115.824Y-130.048
X115.824Y-140.208
X107.696Y-123.952
X107.696Y-134.112
T4
X168.148Y-127.508
X168.148Y-137.668
X121.92Y-144.272
X160.1Y-105.664
X165.1Y-105.664
X171.704Y-127.508
X171.704Y-137.668
X117.856Y-109.22
X120.396Y-109.22
X122.936Y-109.22
X125.476Y-109.22
X128.016Y-109.22
X130.556Y-109.22
X133.096Y-109.22
X135.636Y-109.22
X138.176Y-109.22
X140.716Y-109.22
X148.416Y-105.664
X153.416Y-105.664
X141.224Y-144.272
T5
X152.4Y-141.732
X157.48Y-141.732
X162.56Y-141.732
X171.196Y-112.268
X171.196Y-117.348
T6
X104.648Y-104.648
X104.648Y-142.748
X171.704Y-104.648
X171.704Y-142.748
T0
M30
