G04 #@! TF.GenerationSoftware,KiCad,Pcbnew,(6.0.0-0)*
G04 #@! TF.CreationDate,2022-01-15T15:56:33+00:00*
G04 #@! TF.ProjectId,PowerSupply,506f7765-7253-4757-9070-6c792e6b6963,rev?*
G04 #@! TF.SameCoordinates,Original*
G04 #@! TF.FileFunction,Soldermask,Bot*
G04 #@! TF.FilePolarity,Negative*
%FSLAX46Y46*%
G04 Gerber Fmt 4.6, Leading zero omitted, Abs format (unit mm)*
G04 Created by KiCad (PCBNEW (6.0.0-0)) date 2022-01-15 15:56:33*
%MOMM*%
%LPD*%
G01*
G04 APERTURE LIST*
G04 Aperture macros list*
%AMRoundRect*
0 Rectangle with rounded corners*
0 $1 Rounding radius*
0 $2 $3 $4 $5 $6 $7 $8 $9 X,Y pos of 4 corners*
0 Add a 4 corners polygon primitive as box body*
4,1,4,$2,$3,$4,$5,$6,$7,$8,$9,$2,$3,0*
0 Add four circle primitives for the rounded corners*
1,1,$1+$1,$2,$3*
1,1,$1+$1,$4,$5*
1,1,$1+$1,$6,$7*
1,1,$1+$1,$8,$9*
0 Add four rect primitives between the rounded corners*
20,1,$1+$1,$2,$3,$4,$5,0*
20,1,$1+$1,$4,$5,$6,$7,0*
20,1,$1+$1,$6,$7,$8,$9,0*
20,1,$1+$1,$8,$9,$2,$3,0*%
%AMFreePoly0*
4,1,41,0.586777,0.930194,0.656366,0.874698,0.694986,0.794504,0.700000,0.750000,0.700000,-0.750000,0.680194,-0.836777,0.624698,-0.906366,0.544504,-0.944986,0.500000,-0.950000,0.000000,-0.950000,-0.023504,-0.944635,-0.083606,-0.943534,-0.139582,-0.934468,-0.274897,-0.892193,-0.326080,-0.867780,-0.444090,-0.789225,-0.486362,-0.751429,-0.577582,-0.642910,-0.607548,-0.594768,-0.664643,-0.465009,
-0.679893,-0.410393,-0.697476,-0.275933,-0.697084,-0.275882,-0.700000,-0.250000,-0.700000,0.250000,-0.697921,0.259109,-0.697582,0.286880,-0.675771,0.426957,-0.659192,0.481183,-0.598944,0.609508,-0.567811,0.656904,-0.473967,0.763162,-0.430783,0.799915,-0.310888,0.875563,-0.259125,0.898717,-0.122818,0.937674,-0.066635,0.945370,-0.042411,0.945222,0.000000,0.950000,0.500000,0.950000,
0.586777,0.930194,0.586777,0.930194,$1*%
%AMFreePoly1*
4,1,41,0.022678,0.944824,0.075125,0.944504,0.131210,0.936123,0.267031,0.895504,0.318507,0.871718,0.437469,0.794611,0.480202,0.757333,0.572740,0.649936,0.603290,0.602165,0.661967,0.473113,0.677883,0.418686,0.697980,0.278353,0.700000,0.250000,0.700000,-0.250000,0.699985,-0.252439,0.699836,-0.264655,0.697079,-0.295398,0.673559,-0.435199,0.656318,-0.489221,0.594506,-0.616800,
0.562797,-0.663810,0.467662,-0.768914,0.424032,-0.805137,0.303222,-0.879314,0.251181,-0.901834,0.114408,-0.939123,0.058135,-0.946132,0.037663,-0.945757,0.000000,-0.950000,-0.500000,-0.950000,-0.586777,-0.930194,-0.656366,-0.874698,-0.694986,-0.794504,-0.700000,-0.750000,-0.700000,0.750000,-0.680194,0.836777,-0.624698,0.906366,-0.544504,0.944986,-0.500000,0.950000,0.000000,0.950000,
0.022678,0.944824,0.022678,0.944824,$1*%
G04 Aperture macros list end*
%ADD10RoundRect,0.200000X-1.800000X0.900000X-1.800000X-0.900000X1.800000X-0.900000X1.800000X0.900000X0*%
%ADD11O,4.000000X2.200000*%
%ADD12C,3.600000*%
%ADD13RoundRect,0.200000X0.999490X-0.999490X0.999490X0.999490X-0.999490X0.999490X-0.999490X-0.999490X0*%
%ADD14C,2.398980*%
%ADD15RoundRect,0.200000X-0.999490X0.999490X-0.999490X-0.999490X0.999490X-0.999490X0.999490X0.999490X0*%
%ADD16C,3.200000*%
%ADD17RoundRect,0.200000X-1.200000X1.200000X-1.200000X-1.200000X1.200000X-1.200000X1.200000X1.200000X0*%
%ADD18C,2.800000*%
%ADD19O,2.800000X2.800000*%
%ADD20RoundRect,0.200000X1.800000X-0.900000X1.800000X0.900000X-1.800000X0.900000X-1.800000X-0.900000X0*%
%ADD21RoundRect,0.200000X-0.800000X-0.800000X0.800000X-0.800000X0.800000X0.800000X-0.800000X0.800000X0*%
%ADD22C,2.000000*%
%ADD23O,2.000000X2.000000*%
%ADD24RoundRect,0.200000X-0.999490X-0.999490X0.999490X-0.999490X0.999490X0.999490X-0.999490X0.999490X0*%
%ADD25RoundRect,0.200000X0.999490X0.999490X-0.999490X0.999490X-0.999490X-0.999490X0.999490X-0.999490X0*%
%ADD26FreePoly0,270.000000*%
%ADD27FreePoly1,270.000000*%
%ADD28C,1.840000*%
G04 APERTURE END LIST*
D10*
X129000000Y-53000000D03*
D11*
X129000000Y-58080000D03*
X129000000Y-63160000D03*
D10*
X129000000Y-70000000D03*
D11*
X129000000Y-75080000D03*
X129000000Y-80160000D03*
D10*
X129000000Y-87000000D03*
D11*
X129000000Y-92080000D03*
X129000000Y-97160000D03*
D12*
X130000000Y-40000000D03*
X130000000Y-110000000D03*
X55000000Y-110000000D03*
D13*
X79138060Y-55712480D03*
D14*
X79138060Y-65872480D03*
D15*
X68632980Y-65712480D03*
D14*
X68632980Y-55552480D03*
D13*
X75638060Y-55712480D03*
D14*
X75638060Y-65872480D03*
D15*
X72132980Y-65712480D03*
D14*
X72132980Y-55552480D03*
D16*
X129000000Y-47000000D03*
X119000000Y-52000000D03*
D17*
X93500000Y-56500000D03*
D18*
X93500000Y-64000000D03*
D17*
X112000000Y-61500000D03*
D18*
X112000000Y-69000000D03*
X102500000Y-43000000D03*
X120500000Y-43000000D03*
D19*
X64620000Y-43000000D03*
X82500000Y-43000000D03*
D20*
X59500000Y-79000000D03*
D11*
X59500000Y-73920000D03*
X59500000Y-68840000D03*
D21*
X106329063Y-85400000D03*
X107000000Y-87000000D03*
D22*
X109500000Y-87000000D03*
X110170937Y-88600000D03*
D21*
X95500000Y-87000000D03*
X94829063Y-85400000D03*
D22*
X98670937Y-88600000D03*
X98000000Y-87000000D03*
D21*
X83329063Y-85400000D03*
X84000000Y-87000000D03*
D22*
X87170937Y-88600000D03*
X86500000Y-87000000D03*
D18*
X68200000Y-89916000D03*
D19*
X68200000Y-69596000D03*
D22*
X98000000Y-95000000D03*
D23*
X85300000Y-95000000D03*
D24*
X85000000Y-105002540D03*
D14*
X74840000Y-105002540D03*
D25*
X79000000Y-99997460D03*
D14*
X89160000Y-99997460D03*
D22*
X77500000Y-95000000D03*
D23*
X77500000Y-82300000D03*
D22*
X110500000Y-99000000D03*
D23*
X97800000Y-99000000D03*
D22*
X113500000Y-95000000D03*
D23*
X100800000Y-95000000D03*
D16*
X109500000Y-79000000D03*
X98000000Y-79000000D03*
D22*
X73000000Y-110000000D03*
D23*
X85700000Y-110000000D03*
D22*
X73250000Y-95000000D03*
D23*
X73250000Y-82300000D03*
D22*
X119000000Y-88500000D03*
D23*
X119000000Y-101200000D03*
D12*
X55000000Y-40000000D03*
D26*
X121000000Y-74500000D03*
D27*
X121000000Y-75800000D03*
D26*
X100000000Y-72850000D03*
D27*
X100000000Y-74150000D03*
D28*
X91000000Y-108500000D03*
X93540000Y-105960000D03*
X96080000Y-108500000D03*
X103000000Y-108500000D03*
X105540000Y-105960000D03*
X108080000Y-108500000D03*
M02*
