G04 #@! TF.GenerationSoftware,KiCad,Pcbnew,(6.0.0-0)*
G04 #@! TF.CreationDate,2022-01-15T15:56:32+00:00*
G04 #@! TF.ProjectId,PowerSupply,506f7765-7253-4757-9070-6c792e6b6963,rev?*
G04 #@! TF.SameCoordinates,Original*
G04 #@! TF.FileFunction,Copper,L2,Bot*
G04 #@! TF.FilePolarity,Positive*
%FSLAX46Y46*%
G04 Gerber Fmt 4.6, Leading zero omitted, Abs format (unit mm)*
G04 Created by KiCad (PCBNEW (6.0.0-0)) date 2022-01-15 15:56:32*
%MOMM*%
%LPD*%
G01*
G04 APERTURE LIST*
G04 Aperture macros list*
%AMFreePoly0*
4,1,22,0.500000,-0.750000,0.000000,-0.750000,0.000000,-0.745033,-0.079941,-0.743568,-0.215256,-0.701293,-0.333266,-0.622738,-0.424486,-0.514219,-0.481581,-0.384460,-0.499164,-0.250000,-0.500000,-0.250000,-0.500000,0.250000,-0.499164,0.250000,-0.499963,0.256109,-0.478152,0.396186,-0.417904,0.524511,-0.324060,0.630769,-0.204165,0.706417,-0.067858,0.745374,0.000000,0.744959,0.000000,0.750000,
0.500000,0.750000,0.500000,-0.750000,0.500000,-0.750000,$1*%
%AMFreePoly1*
4,1,20,0.000000,0.744959,0.073905,0.744508,0.209726,0.703889,0.328688,0.626782,0.421226,0.519385,0.479903,0.390333,0.500000,0.250000,0.500000,-0.250000,0.499851,-0.262216,0.476331,-0.402017,0.414519,-0.529596,0.319384,-0.634700,0.198574,-0.708877,0.061801,-0.746166,0.000000,-0.745033,0.000000,-0.750000,-0.500000,-0.750000,-0.500000,0.750000,0.000000,0.750000,0.000000,0.744959,
0.000000,0.744959,$1*%
G04 Aperture macros list end*
G04 #@! TA.AperFunction,ComponentPad*
%ADD10R,3.600000X1.800000*%
G04 #@! TD*
G04 #@! TA.AperFunction,ComponentPad*
%ADD11O,3.600000X1.800000*%
G04 #@! TD*
G04 #@! TA.AperFunction,ComponentPad*
%ADD12R,1.998980X1.998980*%
G04 #@! TD*
G04 #@! TA.AperFunction,ComponentPad*
%ADD13C,1.998980*%
G04 #@! TD*
G04 #@! TA.AperFunction,ComponentPad*
%ADD14C,2.800000*%
G04 #@! TD*
G04 #@! TA.AperFunction,ComponentPad*
%ADD15R,2.400000X2.400000*%
G04 #@! TD*
G04 #@! TA.AperFunction,ComponentPad*
%ADD16C,2.400000*%
G04 #@! TD*
G04 #@! TA.AperFunction,ComponentPad*
%ADD17O,2.400000X2.400000*%
G04 #@! TD*
G04 #@! TA.AperFunction,ComponentPad*
%ADD18R,1.600000X1.600000*%
G04 #@! TD*
G04 #@! TA.AperFunction,ComponentPad*
%ADD19C,1.600000*%
G04 #@! TD*
G04 #@! TA.AperFunction,ComponentPad*
%ADD20O,1.600000X1.600000*%
G04 #@! TD*
G04 #@! TA.AperFunction,SMDPad,CuDef*
%ADD21FreePoly0,270.000000*%
G04 #@! TD*
G04 #@! TA.AperFunction,SMDPad,CuDef*
%ADD22FreePoly1,270.000000*%
G04 #@! TD*
G04 #@! TA.AperFunction,ComponentPad*
%ADD23C,1.440000*%
G04 #@! TD*
G04 #@! TA.AperFunction,Conductor*
%ADD24C,1.000000*%
G04 #@! TD*
G04 #@! TA.AperFunction,Conductor*
%ADD25C,2.000000*%
G04 #@! TD*
G04 APERTURE END LIST*
G36*
X121300000Y-75400000D02*
G01*
X120700000Y-75400000D01*
X120700000Y-74900000D01*
X121300000Y-74900000D01*
X121300000Y-75400000D01*
G37*
G36*
X100300000Y-73750000D02*
G01*
X99700000Y-73750000D01*
X99700000Y-73250000D01*
X100300000Y-73250000D01*
X100300000Y-73750000D01*
G37*
D10*
X129000000Y-53000000D03*
D11*
X129000000Y-58080000D03*
X129000000Y-63160000D03*
D10*
X129000000Y-70000000D03*
D11*
X129000000Y-75080000D03*
X129000000Y-80160000D03*
D10*
X129000000Y-87000000D03*
D11*
X129000000Y-92080000D03*
X129000000Y-97160000D03*
D12*
X79138060Y-55712480D03*
D13*
X79138060Y-65872480D03*
D12*
X68632980Y-65712480D03*
D13*
X68632980Y-55552480D03*
D12*
X75638060Y-55712480D03*
D13*
X75638060Y-65872480D03*
D12*
X72132980Y-65712480D03*
D13*
X72132980Y-55552480D03*
D14*
X129000000Y-47000000D03*
X119000000Y-52000000D03*
D15*
X93500000Y-56500000D03*
D16*
X93500000Y-64000000D03*
D15*
X112000000Y-61500000D03*
D16*
X112000000Y-69000000D03*
X102500000Y-43000000D03*
X120500000Y-43000000D03*
D17*
X64620000Y-43000000D03*
X82500000Y-43000000D03*
D10*
X59500000Y-79000000D03*
D11*
X59500000Y-73920000D03*
X59500000Y-68840000D03*
D18*
X106329063Y-85400000D03*
X107000000Y-87000000D03*
D19*
X109500000Y-87000000D03*
X110170937Y-88600000D03*
D18*
X95500000Y-87000000D03*
X94829063Y-85400000D03*
D19*
X98670937Y-88600000D03*
X98000000Y-87000000D03*
D18*
X83329063Y-85400000D03*
X84000000Y-87000000D03*
D19*
X87170937Y-88600000D03*
X86500000Y-87000000D03*
D16*
X68200000Y-89916000D03*
D17*
X68200000Y-69596000D03*
D19*
X98000000Y-95000000D03*
D20*
X85300000Y-95000000D03*
D12*
X85000000Y-105002540D03*
D13*
X74840000Y-105002540D03*
D12*
X79000000Y-99997460D03*
D13*
X89160000Y-99997460D03*
D19*
X77500000Y-95000000D03*
D20*
X77500000Y-82300000D03*
D19*
X110500000Y-99000000D03*
D20*
X97800000Y-99000000D03*
D19*
X113500000Y-95000000D03*
D20*
X100800000Y-95000000D03*
D14*
X109500000Y-79000000D03*
X98000000Y-79000000D03*
D19*
X73000000Y-110000000D03*
D20*
X85700000Y-110000000D03*
D19*
X73250000Y-95000000D03*
D20*
X73250000Y-82300000D03*
D19*
X119000000Y-88500000D03*
D20*
X119000000Y-101200000D03*
D21*
X121000000Y-74500000D03*
D22*
X121000000Y-75800000D03*
D21*
X100000000Y-72850000D03*
D22*
X100000000Y-74150000D03*
D23*
X91000000Y-108500000D03*
X93540000Y-105960000D03*
X96080000Y-108500000D03*
X103000000Y-108500000D03*
X105540000Y-105960000D03*
X108080000Y-108500000D03*
D24*
X86500000Y-87929063D02*
X87170937Y-88600000D01*
X86500000Y-87000000D02*
X86500000Y-87929063D01*
X86500000Y-87000000D02*
X86500000Y-85000000D01*
X77500000Y-82300000D02*
X73250000Y-82300000D01*
X86500000Y-85000000D02*
X83800000Y-82300000D01*
X78631370Y-82300000D02*
X77500000Y-82300000D01*
X83800000Y-82300000D02*
X78631370Y-82300000D01*
X113500000Y-95000000D02*
X124500000Y-95000000D01*
X124500000Y-95000000D02*
X127420000Y-92080000D01*
X127420000Y-92080000D02*
X129000000Y-92080000D01*
X126840000Y-97160000D02*
X129000000Y-97160000D01*
X110500000Y-99000000D02*
X111000000Y-98500000D01*
X125500000Y-98500000D02*
X126840000Y-97160000D01*
X111000000Y-98500000D02*
X125500000Y-98500000D01*
D25*
X79121520Y-65872480D02*
X79138060Y-65872480D01*
X68632980Y-55552480D02*
X68760480Y-55552480D01*
X75461520Y-62212480D02*
X79121520Y-65872480D01*
D24*
X79138060Y-65872480D02*
X79138060Y-67419940D01*
D25*
X75420480Y-62212480D02*
X75461520Y-62212480D01*
X68760480Y-55552480D02*
X75420480Y-62212480D01*
D24*
X79138060Y-67419940D02*
X76962000Y-69596000D01*
X79138060Y-65872480D02*
X79415520Y-65872480D01*
X76962000Y-69596000D02*
X68200000Y-69596000D01*
X82000000Y-95000000D02*
X85300000Y-95000000D01*
X79000000Y-98000000D02*
X77500000Y-96500000D01*
X79000000Y-99997460D02*
X79000000Y-98000000D01*
X77500000Y-96500000D02*
X77500000Y-95000000D01*
X77500000Y-95000000D02*
X82000000Y-95000000D01*
X92582540Y-105002540D02*
X93540000Y-105960000D01*
X85000000Y-105002540D02*
X92582540Y-105002540D01*
D25*
X96080000Y-108500000D02*
X96080000Y-108580000D01*
D24*
X111086000Y-111506000D02*
X108080000Y-108500000D01*
X112794000Y-111506000D02*
X111086000Y-111506000D01*
X119000000Y-101200000D02*
X119000000Y-105300000D01*
X99000000Y-111500000D02*
X96080000Y-108580000D01*
X119000000Y-105300000D02*
X112794000Y-111506000D01*
X110998000Y-111500000D02*
X99000000Y-111500000D01*
D25*
X82500000Y-43000000D02*
X82624000Y-43000000D01*
X93500000Y-56500000D02*
X122500000Y-56500000D01*
X75638060Y-55712480D02*
X75638060Y-49861940D01*
X82500000Y-43000000D02*
X73500000Y-43000000D01*
X64620000Y-43000000D02*
X73500000Y-43000000D01*
X122500000Y-56500000D02*
X126000000Y-53000000D01*
X82624000Y-43000000D02*
X93500000Y-53876000D01*
X75638060Y-49861940D02*
X82500000Y-43000000D01*
X93500000Y-53876000D02*
X93500000Y-56500000D01*
X129000000Y-53000000D02*
X129000000Y-47000000D01*
X126000000Y-53000000D02*
X129000000Y-53000000D01*
X125200000Y-80160000D02*
X121240010Y-76200010D01*
X121240010Y-76200010D02*
X121000000Y-76200010D01*
X112000000Y-73750000D02*
X118410000Y-80160000D01*
X118410000Y-80160000D02*
X125200000Y-80160000D01*
X129000000Y-80160000D02*
X125200000Y-80160000D01*
X112000000Y-69000000D02*
X112000000Y-73750000D01*
X129000000Y-80160000D02*
X129000000Y-75080000D01*
D24*
X100000000Y-74150000D02*
X106329063Y-80479063D01*
X106329063Y-80479063D02*
X106329063Y-85400000D01*
D25*
X121000000Y-65000000D02*
X127160000Y-65000000D01*
X89768480Y-64000000D02*
X93500000Y-64000000D01*
X129000000Y-63160000D02*
X129000000Y-58080000D01*
X93500000Y-64000000D02*
X97750000Y-64000000D01*
X97750000Y-64000000D02*
X98750000Y-65000000D01*
D24*
X93500000Y-64000000D02*
X93500000Y-66250000D01*
D25*
X98750000Y-65000000D02*
X121000000Y-65000000D01*
X59500000Y-73920000D02*
X79848480Y-73920000D01*
X79848480Y-73920000D02*
X89768480Y-64000000D01*
X121000000Y-65000000D02*
X121000000Y-74000000D01*
D24*
X93500000Y-66250000D02*
X99750000Y-72500000D01*
D25*
X127160000Y-65000000D02*
X129000000Y-63160000D01*
X59500000Y-68770000D02*
X62557520Y-65712480D01*
X62557520Y-65712480D02*
X68632980Y-65712480D01*
X59500000Y-68840000D02*
X59500000Y-68770000D01*
D24*
X98000000Y-87000000D02*
X98000000Y-79000000D01*
X98000000Y-95000000D02*
X94157460Y-95000000D01*
X98670937Y-88600000D02*
X98670937Y-87670937D01*
X98000000Y-95000000D02*
X98000000Y-89270937D01*
X98670937Y-87670937D02*
X98000000Y-87000000D01*
X98000000Y-95000000D02*
X100800000Y-95000000D01*
X94157460Y-95000000D02*
X89160000Y-99997460D01*
X98000000Y-89270937D02*
X98670937Y-88600000D01*
X109500000Y-87000000D02*
X109500000Y-79000000D01*
X110170937Y-88600000D02*
X110170937Y-87670937D01*
X109370938Y-89399999D02*
X110170937Y-88600000D01*
X99770937Y-99000000D02*
X109370938Y-89399999D01*
X97800000Y-99000000D02*
X99770937Y-99000000D01*
X110170937Y-87670937D02*
X109500000Y-87000000D01*
X97300000Y-99000000D02*
X97800000Y-99000000D01*
X93800000Y-102500000D02*
X97300000Y-99000000D01*
X77342540Y-102500000D02*
X93800000Y-102500000D01*
X74840000Y-105002540D02*
X77342540Y-102500000D01*
M02*
