G04 #@! TF.GenerationSoftware,KiCad,Pcbnew,(6.0.0-0)*
G04 #@! TF.CreationDate,2022-01-15T15:56:32+00:00*
G04 #@! TF.ProjectId,PowerSupply,506f7765-7253-4757-9070-6c792e6b6963,rev?*
G04 #@! TF.SameCoordinates,Original*
G04 #@! TF.FileFunction,Copper,L1,Top*
G04 #@! TF.FilePolarity,Positive*
%FSLAX46Y46*%
G04 Gerber Fmt 4.6, Leading zero omitted, Abs format (unit mm)*
G04 Created by KiCad (PCBNEW (6.0.0-0)) date 2022-01-15 15:56:32*
%MOMM*%
%LPD*%
G01*
G04 APERTURE LIST*
G04 #@! TA.AperFunction,ComponentPad*
%ADD10R,3.600000X1.800000*%
G04 #@! TD*
G04 #@! TA.AperFunction,ComponentPad*
%ADD11O,3.600000X1.800000*%
G04 #@! TD*
G04 #@! TA.AperFunction,ComponentPad*
%ADD12R,1.998980X1.998980*%
G04 #@! TD*
G04 #@! TA.AperFunction,ComponentPad*
%ADD13C,1.998980*%
G04 #@! TD*
G04 #@! TA.AperFunction,ComponentPad*
%ADD14C,2.800000*%
G04 #@! TD*
G04 #@! TA.AperFunction,ComponentPad*
%ADD15R,2.400000X2.400000*%
G04 #@! TD*
G04 #@! TA.AperFunction,ComponentPad*
%ADD16C,2.400000*%
G04 #@! TD*
G04 #@! TA.AperFunction,ComponentPad*
%ADD17O,2.400000X2.400000*%
G04 #@! TD*
G04 #@! TA.AperFunction,ComponentPad*
%ADD18R,1.600000X1.600000*%
G04 #@! TD*
G04 #@! TA.AperFunction,ComponentPad*
%ADD19C,1.600000*%
G04 #@! TD*
G04 #@! TA.AperFunction,ComponentPad*
%ADD20O,1.600000X1.600000*%
G04 #@! TD*
G04 #@! TA.AperFunction,ComponentPad*
%ADD21C,1.440000*%
G04 #@! TD*
G04 #@! TA.AperFunction,Conductor*
%ADD22C,1.000000*%
G04 #@! TD*
G04 #@! TA.AperFunction,Conductor*
%ADD23C,2.000000*%
G04 #@! TD*
G04 APERTURE END LIST*
D10*
X129000000Y-53000000D03*
D11*
X129000000Y-58080000D03*
X129000000Y-63160000D03*
D10*
X129000000Y-70000000D03*
D11*
X129000000Y-75080000D03*
X129000000Y-80160000D03*
D10*
X129000000Y-87000000D03*
D11*
X129000000Y-92080000D03*
X129000000Y-97160000D03*
D12*
X79138060Y-55712480D03*
D13*
X79138060Y-65872480D03*
D12*
X68632980Y-65712480D03*
D13*
X68632980Y-55552480D03*
D12*
X75638060Y-55712480D03*
D13*
X75638060Y-65872480D03*
D12*
X72132980Y-65712480D03*
D13*
X72132980Y-55552480D03*
D14*
X129000000Y-47000000D03*
X119000000Y-52000000D03*
D15*
X93500000Y-56500000D03*
D16*
X93500000Y-64000000D03*
D15*
X112000000Y-61500000D03*
D16*
X112000000Y-69000000D03*
X102500000Y-43000000D03*
X120500000Y-43000000D03*
D17*
X64620000Y-43000000D03*
X82500000Y-43000000D03*
D10*
X59500000Y-79000000D03*
D11*
X59500000Y-73920000D03*
X59500000Y-68840000D03*
D18*
X106329063Y-85400000D03*
X107000000Y-87000000D03*
D19*
X109500000Y-87000000D03*
X110170937Y-88600000D03*
D18*
X95500000Y-87000000D03*
X94829063Y-85400000D03*
D19*
X98670937Y-88600000D03*
X98000000Y-87000000D03*
D18*
X83329063Y-85400000D03*
X84000000Y-87000000D03*
D19*
X87170937Y-88600000D03*
X86500000Y-87000000D03*
D16*
X68200000Y-89916000D03*
D17*
X68200000Y-69596000D03*
D19*
X98000000Y-95000000D03*
D20*
X85300000Y-95000000D03*
D12*
X85000000Y-105002540D03*
D13*
X74840000Y-105002540D03*
D12*
X79000000Y-99997460D03*
D13*
X89160000Y-99997460D03*
D19*
X77500000Y-95000000D03*
D20*
X77500000Y-82300000D03*
D19*
X110500000Y-99000000D03*
D20*
X97800000Y-99000000D03*
D19*
X113500000Y-95000000D03*
D20*
X100800000Y-95000000D03*
D14*
X109500000Y-79000000D03*
X98000000Y-79000000D03*
D19*
X73000000Y-110000000D03*
D20*
X85700000Y-110000000D03*
D19*
X73250000Y-95000000D03*
D20*
X73250000Y-82300000D03*
D19*
X119000000Y-88500000D03*
D20*
X119000000Y-101200000D03*
D21*
X91000000Y-108500000D03*
X93540000Y-105960000D03*
X96080000Y-108500000D03*
X103000000Y-108500000D03*
X105540000Y-105960000D03*
X108080000Y-108500000D03*
D22*
X100000000Y-111500000D02*
X103000000Y-108500000D01*
X91000000Y-108500000D02*
X94000000Y-111500000D01*
X94000000Y-111500000D02*
X100000000Y-111500000D01*
X82500000Y-97500000D02*
X91000000Y-106000000D01*
X73250000Y-82300000D02*
X82500000Y-91550000D01*
X68200000Y-89916000D02*
X68200000Y-87350000D01*
X68200000Y-87350000D02*
X73250000Y-82300000D01*
X82500000Y-91550000D02*
X82500000Y-97500000D01*
X91000000Y-106000000D02*
X91000000Y-108500000D01*
X92000000Y-95000000D02*
X95000000Y-98000000D01*
X95000000Y-98000000D02*
X95000000Y-101000000D01*
X95000000Y-101000000D02*
X99960000Y-105960000D01*
X99960000Y-105960000D02*
X105540000Y-105960000D01*
X85300000Y-95000000D02*
X92000000Y-95000000D01*
X85000000Y-109300000D02*
X85700000Y-110000000D01*
X85000000Y-105002540D02*
X85000000Y-109300000D01*
X73250000Y-99158000D02*
X79094540Y-105002540D01*
X73250000Y-95000000D02*
X73250000Y-99158000D01*
X79094540Y-105002540D02*
X85000000Y-105002540D01*
D23*
X75638060Y-61209940D02*
X79138060Y-57709940D01*
X79138060Y-57709940D02*
X79138060Y-55712480D01*
X66796000Y-79000000D02*
X75638060Y-70157940D01*
X75638060Y-70157940D02*
X75638060Y-66605402D01*
X59500000Y-79000000D02*
X66796000Y-79000000D01*
X75638060Y-65872480D02*
X75638060Y-61209940D01*
X75638060Y-66605402D02*
X75638060Y-65872480D01*
X72132980Y-59217560D02*
X75638060Y-55712480D01*
X72132980Y-65712480D02*
X72132980Y-59217560D01*
X125200000Y-70000000D02*
X129000000Y-70000000D01*
X119000000Y-63800000D02*
X125200000Y-70000000D01*
X112000000Y-61500000D02*
X118000000Y-61500000D01*
X119000000Y-52000000D02*
X119000000Y-60500000D01*
X120500000Y-43000000D02*
X120500000Y-50500000D01*
X118000000Y-61500000D02*
X119000000Y-60500000D01*
X120500000Y-50500000D02*
X119000000Y-52000000D01*
X119000000Y-60500000D02*
X119000000Y-63800000D01*
X120500000Y-43000000D02*
X102500000Y-43000000D01*
D22*
X125000000Y-91000000D02*
X129000000Y-87000000D01*
X106329063Y-85400000D02*
X106329063Y-86329063D01*
X84000000Y-87000000D02*
X84000000Y-86070937D01*
X106329063Y-86329063D02*
X107000000Y-87000000D01*
X84000000Y-86070937D02*
X83329063Y-85400000D01*
X97700000Y-91000000D02*
X86200000Y-91000000D01*
X86200000Y-91000000D02*
X84000000Y-88800000D01*
X84000000Y-88800000D02*
X84000000Y-87000000D01*
X95500000Y-87000000D02*
X95500000Y-86070937D01*
X95500000Y-86070937D02*
X94829063Y-85400000D01*
X97700000Y-91000000D02*
X95500000Y-88800000D01*
X104720002Y-91000000D02*
X97700000Y-91000000D01*
X95500000Y-88800000D02*
X95500000Y-87000000D01*
X119000000Y-88500000D02*
X119000000Y-91000000D01*
X119000000Y-91000000D02*
X125000000Y-91000000D01*
X104580000Y-91000000D02*
X107000000Y-88580000D01*
X107000000Y-88580000D02*
X107000000Y-87000000D01*
X119000000Y-91000000D02*
X104580000Y-91000000D01*
D23*
X68632980Y-59052480D02*
X72132980Y-55552480D01*
X68632980Y-65712480D02*
X68632980Y-59052480D01*
X74840000Y-105002540D02*
X74840000Y-105160000D01*
D22*
X73000000Y-107000000D02*
X73000000Y-110000000D01*
X74840000Y-105160000D02*
X73000000Y-107000000D01*
M02*
