M48
; DRILL file {KiCad (6.0.0-0)} date Saturday, 15 January 2022 at 15:56:37
; FORMAT={-:-/ absolute / inch / decimal}
; #@! TF.CreationDate,2022-01-15T15:56:37+00:00
; #@! TF.GenerationSoftware,Kicad,Pcbnew,(6.0.0-0)
; #@! TF.FileFunction,Plated,1,2,PTH
FMAT,2
INCH
; #@! TA.AperFunction,Plated,PTH,ComponentDrill
T1C0.0315
; #@! TA.AperFunction,Plated,PTH,ComponentDrill
T2C0.0394
; #@! TA.AperFunction,Plated,PTH,ComponentDrill
T3C0.0472
; #@! TA.AperFunction,Plated,PTH,ComponentDrill
T4C0.0500
; #@! TA.AperFunction,Plated,PTH,ComponentDrill
T5C0.0630
%
G90
G05
T1
X2.874Y-4.3307
X2.8839Y-3.2402
X2.8839Y-3.7402
X3.0512Y-3.2402
X3.0512Y-3.7402
X3.2807Y-3.3622
X3.3071Y-3.4252
X3.3583Y-3.7402
X3.374Y-4.3307
X3.4055Y-3.4252
X3.4319Y-3.4882
X3.5827Y-4.2717
X3.6827Y-4.1717
X3.7334Y-3.3622
X3.7598Y-3.4252
X3.7827Y-4.2717
X3.8504Y-3.8976
X3.8583Y-3.4252
X3.8583Y-3.7402
X3.8847Y-3.4882
X3.9685Y-3.7402
X4.0551Y-4.2717
X4.1551Y-4.1717
X4.1862Y-3.3622
X4.2126Y-3.4252
X4.2551Y-4.2717
X4.311Y-3.4252
X4.3374Y-3.4882
X4.3504Y-3.8976
X4.4685Y-3.7402
X4.685Y-3.4843
X4.685Y-3.9843
T2
X2.7021Y-2.5871
X2.8399Y-2.5871
X2.9779Y-2.1934
X3.1102Y-3.9369
X3.1157Y-2.1934
X3.3465Y-4.134
T3
X2.3425Y-2.7102
X2.3425Y-2.9102
X2.3425Y-3.1102
X2.5441Y-1.6929
X2.685Y-2.74
X2.685Y-3.54
X3.248Y-1.6929
X3.6811Y-2.2244
X3.6811Y-2.5197
X4.0354Y-1.6929
X4.4094Y-2.4213
X4.4094Y-2.7165
X4.7441Y-1.6929
X5.0787Y-2.0866
X5.0787Y-2.2866
X5.0787Y-2.4866
X5.0787Y-2.7559
X5.0787Y-2.9559
X5.0787Y-3.1559
X5.0787Y-3.4252
X5.0787Y-3.6252
X5.0787Y-3.8252
T4
X2.7021Y-2.1871
X2.8399Y-2.1871
X2.9465Y-4.134
X2.9779Y-2.5934
X3.1157Y-2.5934
X3.5102Y-3.9369
T5
X3.8583Y-3.1102
X4.311Y-3.1102
X4.685Y-2.0472
X5.0787Y-1.8504
T0
M30
