G04 #@! TF.GenerationSoftware,KiCad,Pcbnew,(6.0.0-0)*
G04 #@! TF.CreationDate,2022-01-15T15:56:33+00:00*
G04 #@! TF.ProjectId,PowerSupply,506f7765-7253-4757-9070-6c792e6b6963,rev?*
G04 #@! TF.SameCoordinates,Original*
G04 #@! TF.FileFunction,Legend,Bot*
G04 #@! TF.FilePolarity,Positive*
%FSLAX46Y46*%
G04 Gerber Fmt 4.6, Leading zero omitted, Abs format (unit mm)*
G04 Created by KiCad (PCBNEW (6.0.0-0)) date 2022-01-15 15:56:33*
%MOMM*%
%LPD*%
G01*
G04 APERTURE LIST*
%ADD10C,0.300000*%
%ADD11C,0.120000*%
G04 APERTURE END LIST*
D10*
X96404464Y-65505952D02*
X96463988Y-65684523D01*
X96523511Y-65744047D01*
X96642559Y-65803571D01*
X96821130Y-65803571D01*
X96940178Y-65744047D01*
X96999702Y-65684523D01*
X97059226Y-65565476D01*
X97059226Y-65089285D01*
X95809226Y-65089285D01*
X95809226Y-65505952D01*
X95868750Y-65625000D01*
X95928273Y-65684523D01*
X96047321Y-65744047D01*
X96166369Y-65744047D01*
X96285416Y-65684523D01*
X96344940Y-65625000D01*
X96404464Y-65505952D01*
X96404464Y-65089285D01*
X97059226Y-66339285D02*
X96225892Y-66339285D01*
X95809226Y-66339285D02*
X95868750Y-66279761D01*
X95928273Y-66339285D01*
X95868750Y-66398809D01*
X95809226Y-66339285D01*
X95928273Y-66339285D01*
X97059226Y-67470238D02*
X96404464Y-67470238D01*
X96285416Y-67410714D01*
X96225892Y-67291666D01*
X96225892Y-67053571D01*
X96285416Y-66934523D01*
X96999702Y-67470238D02*
X97059226Y-67351190D01*
X97059226Y-67053571D01*
X96999702Y-66934523D01*
X96880654Y-66875000D01*
X96761607Y-66875000D01*
X96642559Y-66934523D01*
X96583035Y-67053571D01*
X96583035Y-67351190D01*
X96523511Y-67470238D01*
X96999702Y-68005952D02*
X97059226Y-68125000D01*
X97059226Y-68363095D01*
X96999702Y-68482142D01*
X96880654Y-68541666D01*
X96821130Y-68541666D01*
X96702083Y-68482142D01*
X96642559Y-68363095D01*
X96642559Y-68184523D01*
X96583035Y-68065476D01*
X96463988Y-68005952D01*
X96404464Y-68005952D01*
X96285416Y-68065476D01*
X96225892Y-68184523D01*
X96225892Y-68363095D01*
X96285416Y-68482142D01*
X96583035Y-69077380D02*
X96583035Y-70029761D01*
X96702083Y-70565476D02*
X96702083Y-71160714D01*
X97059226Y-70446428D02*
X95809226Y-70863095D01*
X97059226Y-71279761D01*
X95868750Y-72351190D02*
X95809226Y-72232142D01*
X95809226Y-72053571D01*
X95868750Y-71875000D01*
X95987797Y-71755952D01*
X96106845Y-71696428D01*
X96344940Y-71636904D01*
X96523511Y-71636904D01*
X96761607Y-71696428D01*
X96880654Y-71755952D01*
X96999702Y-71875000D01*
X97059226Y-72053571D01*
X97059226Y-72172619D01*
X96999702Y-72351190D01*
X96940178Y-72410714D01*
X96523511Y-72410714D01*
X96523511Y-72172619D01*
X97059226Y-72946428D02*
X95809226Y-72946428D01*
X97059226Y-73660714D01*
X95809226Y-73660714D01*
X97059226Y-74255952D02*
X95809226Y-74255952D01*
X95809226Y-74553571D01*
X95868750Y-74732142D01*
X95987797Y-74851190D01*
X96106845Y-74910714D01*
X96344940Y-74970238D01*
X96523511Y-74970238D01*
X96761607Y-74910714D01*
X96880654Y-74851190D01*
X96999702Y-74732142D01*
X97059226Y-74553571D01*
X97059226Y-74255952D01*
X99071726Y-69017857D02*
X99071726Y-68422619D01*
X97821726Y-68422619D01*
X99071726Y-69434523D02*
X98238392Y-69434523D01*
X97821726Y-69434523D02*
X97881250Y-69375000D01*
X97940773Y-69434523D01*
X97881250Y-69494047D01*
X97821726Y-69434523D01*
X97940773Y-69434523D01*
X98238392Y-70029761D02*
X99071726Y-70029761D01*
X98357440Y-70029761D02*
X98297916Y-70089285D01*
X98238392Y-70208333D01*
X98238392Y-70386904D01*
X98297916Y-70505952D01*
X98416964Y-70565476D01*
X99071726Y-70565476D01*
X99071726Y-71160714D02*
X97821726Y-71160714D01*
X98595535Y-71279761D02*
X99071726Y-71636904D01*
X98238392Y-71636904D02*
X98714583Y-71160714D01*
X117904464Y-66505952D02*
X117963988Y-66684523D01*
X118023511Y-66744047D01*
X118142559Y-66803571D01*
X118321130Y-66803571D01*
X118440178Y-66744047D01*
X118499702Y-66684523D01*
X118559226Y-66565476D01*
X118559226Y-66089285D01*
X117309226Y-66089285D01*
X117309226Y-66505952D01*
X117368750Y-66625000D01*
X117428273Y-66684523D01*
X117547321Y-66744047D01*
X117666369Y-66744047D01*
X117785416Y-66684523D01*
X117844940Y-66625000D01*
X117904464Y-66505952D01*
X117904464Y-66089285D01*
X118083035Y-67339285D02*
X118083035Y-68291666D01*
X118559226Y-67815476D02*
X117606845Y-67815476D01*
X117428273Y-68827380D02*
X117368750Y-68886904D01*
X117309226Y-69005952D01*
X117309226Y-69303571D01*
X117368750Y-69422619D01*
X117428273Y-69482142D01*
X117547321Y-69541666D01*
X117666369Y-69541666D01*
X117844940Y-69482142D01*
X118559226Y-68767857D01*
X118559226Y-69541666D01*
X118083035Y-70077380D02*
X118083035Y-71029761D01*
X118202083Y-71565476D02*
X118202083Y-72160714D01*
X118559226Y-71446428D02*
X117309226Y-71863095D01*
X118559226Y-72279761D01*
X117368750Y-73351190D02*
X117309226Y-73232142D01*
X117309226Y-73053571D01*
X117368750Y-72875000D01*
X117487797Y-72755952D01*
X117606845Y-72696428D01*
X117844940Y-72636904D01*
X118023511Y-72636904D01*
X118261607Y-72696428D01*
X118380654Y-72755952D01*
X118499702Y-72875000D01*
X118559226Y-73053571D01*
X118559226Y-73172619D01*
X118499702Y-73351190D01*
X118440178Y-73410714D01*
X118023511Y-73410714D01*
X118023511Y-73172619D01*
X118559226Y-73946428D02*
X117309226Y-73946428D01*
X118559226Y-74660714D01*
X117309226Y-74660714D01*
X118559226Y-75255952D02*
X117309226Y-75255952D01*
X117309226Y-75553571D01*
X117368750Y-75732142D01*
X117487797Y-75851190D01*
X117606845Y-75910714D01*
X117844940Y-75970238D01*
X118023511Y-75970238D01*
X118261607Y-75910714D01*
X118380654Y-75851190D01*
X118499702Y-75732142D01*
X118559226Y-75553571D01*
X118559226Y-75255952D01*
X120571726Y-70017857D02*
X120571726Y-69422619D01*
X119321726Y-69422619D01*
X120571726Y-70434523D02*
X119738392Y-70434523D01*
X119321726Y-70434523D02*
X119381250Y-70375000D01*
X119440773Y-70434523D01*
X119381250Y-70494047D01*
X119321726Y-70434523D01*
X119440773Y-70434523D01*
X119738392Y-71029761D02*
X120571726Y-71029761D01*
X119857440Y-71029761D02*
X119797916Y-71089285D01*
X119738392Y-71208333D01*
X119738392Y-71386904D01*
X119797916Y-71505952D01*
X119916964Y-71565476D01*
X120571726Y-71565476D01*
X120571726Y-72160714D02*
X119321726Y-72160714D01*
X120095535Y-72279761D02*
X120571726Y-72636904D01*
X119738392Y-72636904D02*
X120214583Y-72160714D01*
X96000000Y-101915476D02*
X95285714Y-101915476D01*
X95642857Y-103165476D02*
X95642857Y-101915476D01*
X94869047Y-103165476D02*
X94869047Y-102332142D01*
X94869047Y-102570238D02*
X94809523Y-102451190D01*
X94750000Y-102391666D01*
X94630952Y-102332142D01*
X94511904Y-102332142D01*
X94095238Y-103165476D02*
X94095238Y-102332142D01*
X94095238Y-101915476D02*
X94154761Y-101975000D01*
X94095238Y-102034523D01*
X94035714Y-101975000D01*
X94095238Y-101915476D01*
X94095238Y-102034523D01*
X93500000Y-103165476D02*
X93500000Y-102332142D01*
X93500000Y-102451190D02*
X93440476Y-102391666D01*
X93321428Y-102332142D01*
X93142857Y-102332142D01*
X93023809Y-102391666D01*
X92964285Y-102510714D01*
X92964285Y-103165476D01*
X92964285Y-102510714D02*
X92904761Y-102391666D01*
X92785714Y-102332142D01*
X92607142Y-102332142D01*
X92488095Y-102391666D01*
X92428571Y-102510714D01*
X92428571Y-103165476D01*
X91416666Y-102510714D02*
X91238095Y-102570238D01*
X91178571Y-102629761D01*
X91119047Y-102748809D01*
X91119047Y-102927380D01*
X91178571Y-103046428D01*
X91238095Y-103105952D01*
X91357142Y-103165476D01*
X91833333Y-103165476D01*
X91833333Y-101915476D01*
X91416666Y-101915476D01*
X91297619Y-101975000D01*
X91238095Y-102034523D01*
X91178571Y-102153571D01*
X91178571Y-102272619D01*
X91238095Y-102391666D01*
X91297619Y-102451190D01*
X91416666Y-102510714D01*
X91833333Y-102510714D01*
X107810714Y-102115476D02*
X107096428Y-102115476D01*
X107453571Y-103365476D02*
X107453571Y-102115476D01*
X106679761Y-103365476D02*
X106679761Y-102532142D01*
X106679761Y-102770238D02*
X106620238Y-102651190D01*
X106560714Y-102591666D01*
X106441666Y-102532142D01*
X106322619Y-102532142D01*
X105905952Y-103365476D02*
X105905952Y-102532142D01*
X105905952Y-102115476D02*
X105965476Y-102175000D01*
X105905952Y-102234523D01*
X105846428Y-102175000D01*
X105905952Y-102115476D01*
X105905952Y-102234523D01*
X105310714Y-103365476D02*
X105310714Y-102532142D01*
X105310714Y-102651190D02*
X105251190Y-102591666D01*
X105132142Y-102532142D01*
X104953571Y-102532142D01*
X104834523Y-102591666D01*
X104775000Y-102710714D01*
X104775000Y-103365476D01*
X104775000Y-102710714D02*
X104715476Y-102591666D01*
X104596428Y-102532142D01*
X104417857Y-102532142D01*
X104298809Y-102591666D01*
X104239285Y-102710714D01*
X104239285Y-103365476D01*
X103703571Y-103008333D02*
X103108333Y-103008333D01*
X103822619Y-103365476D02*
X103405952Y-102115476D01*
X102989285Y-103365476D01*
D11*
X120000000Y-74450000D02*
X120000000Y-75850000D01*
X121300000Y-73750000D02*
X120700000Y-73750000D01*
X120700000Y-76550000D02*
X121300000Y-76550000D01*
X122000000Y-75850000D02*
X122000000Y-74450000D01*
X120000000Y-75850000D02*
G75*
G03*
X120700000Y-76550000I699999J-1D01*
G01*
X120700000Y-73750000D02*
G75*
G03*
X120000000Y-74450000I-1J-699999D01*
G01*
X122000000Y-74450000D02*
G75*
G03*
X121300000Y-73750000I-699999J1D01*
G01*
X121300000Y-76550000D02*
G75*
G03*
X122000000Y-75850000I1J699999D01*
G01*
X100300000Y-72100000D02*
X99700000Y-72100000D01*
X101000000Y-74200000D02*
X101000000Y-72800000D01*
X99700000Y-74900000D02*
X100300000Y-74900000D01*
X99000000Y-72800000D02*
X99000000Y-74200000D01*
X99700000Y-72100000D02*
G75*
G03*
X99000000Y-72800000I-1J-699999D01*
G01*
X101000000Y-72800000D02*
G75*
G03*
X100300000Y-72100000I-699999J1D01*
G01*
X100300000Y-74900000D02*
G75*
G03*
X101000000Y-74200000I1J699999D01*
G01*
X99000000Y-74200000D02*
G75*
G03*
X99700000Y-74900000I699999J-1D01*
G01*
X89414000Y-105010000D02*
X89414000Y-111100000D01*
X89670000Y-111100000D02*
X89670000Y-113131000D01*
X89414000Y-105010000D02*
X97665000Y-105010000D01*
X97410000Y-111100000D02*
X97410000Y-113131000D01*
X89670000Y-113131000D02*
X97410000Y-113131000D01*
X89414000Y-111100000D02*
X97665000Y-111100000D01*
X97665000Y-105010000D02*
X97665000Y-111100000D01*
X89670000Y-111100000D02*
X97410000Y-111100000D01*
X109665000Y-105010000D02*
X109665000Y-111100000D01*
X101414000Y-105010000D02*
X101414000Y-111100000D01*
X101414000Y-111100000D02*
X109665000Y-111100000D01*
X101670000Y-111100000D02*
X109410000Y-111100000D01*
X109410000Y-111100000D02*
X109410000Y-113131000D01*
X101670000Y-113131000D02*
X109410000Y-113131000D01*
X101670000Y-111100000D02*
X101670000Y-113131000D01*
X101414000Y-105010000D02*
X109665000Y-105010000D01*
M02*
