G04 #@! TF.GenerationSoftware,KiCad,Pcbnew,(5.1.5-0-10_14)*
G04 #@! TF.CreationDate,2020-02-01T21:54:20+00:00*
G04 #@! TF.ProjectId,PowerSupply,506f7765-7253-4757-9070-6c792e6b6963,rev?*
G04 #@! TF.SameCoordinates,Original*
G04 #@! TF.FileFunction,Soldermask,Bot*
G04 #@! TF.FilePolarity,Negative*
%FSLAX46Y46*%
G04 Gerber Fmt 4.6, Leading zero omitted, Abs format (unit mm)*
G04 Created by KiCad (PCBNEW (5.1.5-0-10_14)) date 2020-02-01 21:54:20*
%MOMM*%
%LPD*%
G04 APERTURE LIST*
%ADD10C,3.600000*%
%ADD11C,2.800000*%
%ADD12O,2.800000X2.800000*%
%ADD13C,0.100000*%
%ADD14R,2.800000X2.800000*%
%ADD15R,2.000000X2.000000*%
%ADD16C,2.000000*%
%ADD17R,4.000000X2.200000*%
%ADD18O,4.000000X2.200000*%
%ADD19O,2.000000X2.000000*%
%ADD20C,2.398980*%
%ADD21R,2.398980X2.398980*%
%ADD22C,1.840000*%
%ADD23C,3.200000*%
%ADD24C,3.100000*%
%ADD25C,3.400000*%
G04 APERTURE END LIST*
D10*
X55000000Y-40000000D03*
D11*
X120500000Y-43000000D03*
D12*
X64620000Y-43000000D03*
D11*
X102500000Y-43000000D03*
D12*
X82500000Y-43000000D03*
D13*
G36*
X100949398Y-74156112D02*
G01*
X100949398Y-74174534D01*
X100948435Y-74194140D01*
X100943625Y-74242971D01*
X100940746Y-74262380D01*
X100931174Y-74310505D01*
X100926404Y-74329548D01*
X100912160Y-74376503D01*
X100905549Y-74394980D01*
X100886772Y-74440313D01*
X100878377Y-74458061D01*
X100855246Y-74501334D01*
X100845160Y-74518162D01*
X100817900Y-74558961D01*
X100806205Y-74574730D01*
X100775077Y-74612659D01*
X100761897Y-74627200D01*
X100727200Y-74661897D01*
X100712659Y-74675077D01*
X100674730Y-74706205D01*
X100658961Y-74717900D01*
X100618162Y-74745160D01*
X100601334Y-74755246D01*
X100558061Y-74778377D01*
X100540313Y-74786772D01*
X100494980Y-74805549D01*
X100476503Y-74812160D01*
X100429548Y-74826404D01*
X100410505Y-74831174D01*
X100362380Y-74840746D01*
X100342971Y-74843625D01*
X100294140Y-74848435D01*
X100274534Y-74849398D01*
X100256112Y-74849398D01*
X100250000Y-74850000D01*
X99750000Y-74850000D01*
X99743888Y-74849398D01*
X99725466Y-74849398D01*
X99705860Y-74848435D01*
X99657029Y-74843625D01*
X99637620Y-74840746D01*
X99589495Y-74831174D01*
X99570452Y-74826404D01*
X99523497Y-74812160D01*
X99505020Y-74805549D01*
X99459687Y-74786772D01*
X99441939Y-74778377D01*
X99398666Y-74755246D01*
X99381838Y-74745160D01*
X99341039Y-74717900D01*
X99325270Y-74706205D01*
X99287341Y-74675077D01*
X99272800Y-74661897D01*
X99238103Y-74627200D01*
X99224923Y-74612659D01*
X99193795Y-74574730D01*
X99182100Y-74558961D01*
X99154840Y-74518162D01*
X99144754Y-74501334D01*
X99121623Y-74458061D01*
X99113228Y-74440313D01*
X99094451Y-74394980D01*
X99087840Y-74376503D01*
X99073596Y-74329548D01*
X99068826Y-74310505D01*
X99059254Y-74262380D01*
X99056375Y-74242971D01*
X99051565Y-74194140D01*
X99050602Y-74174534D01*
X99050602Y-74156112D01*
X99050000Y-74150000D01*
X99050000Y-73650000D01*
X99053843Y-73610982D01*
X99065224Y-73573463D01*
X99083706Y-73538886D01*
X99108579Y-73508579D01*
X99138886Y-73483706D01*
X99173463Y-73465224D01*
X99210982Y-73453843D01*
X99250000Y-73450000D01*
X100750000Y-73450000D01*
X100789018Y-73453843D01*
X100826537Y-73465224D01*
X100861114Y-73483706D01*
X100891421Y-73508579D01*
X100916294Y-73538886D01*
X100934776Y-73573463D01*
X100946157Y-73610982D01*
X100950000Y-73650000D01*
X100950000Y-74150000D01*
X100949398Y-74156112D01*
G37*
G36*
X100946157Y-73389018D02*
G01*
X100934776Y-73426537D01*
X100916294Y-73461114D01*
X100891421Y-73491421D01*
X100861114Y-73516294D01*
X100826537Y-73534776D01*
X100789018Y-73546157D01*
X100750000Y-73550000D01*
X99250000Y-73550000D01*
X99210982Y-73546157D01*
X99173463Y-73534776D01*
X99138886Y-73516294D01*
X99108579Y-73491421D01*
X99083706Y-73461114D01*
X99065224Y-73426537D01*
X99053843Y-73389018D01*
X99050000Y-73350000D01*
X99050000Y-72850000D01*
X99050602Y-72843888D01*
X99050602Y-72825466D01*
X99051565Y-72805860D01*
X99056375Y-72757029D01*
X99059254Y-72737620D01*
X99068826Y-72689495D01*
X99073596Y-72670452D01*
X99087840Y-72623497D01*
X99094451Y-72605020D01*
X99113228Y-72559687D01*
X99121623Y-72541939D01*
X99144754Y-72498666D01*
X99154840Y-72481838D01*
X99182100Y-72441039D01*
X99193795Y-72425270D01*
X99224923Y-72387341D01*
X99238103Y-72372800D01*
X99272800Y-72338103D01*
X99287341Y-72324923D01*
X99325270Y-72293795D01*
X99341039Y-72282100D01*
X99381838Y-72254840D01*
X99398666Y-72244754D01*
X99441939Y-72221623D01*
X99459687Y-72213228D01*
X99505020Y-72194451D01*
X99523497Y-72187840D01*
X99570452Y-72173596D01*
X99589495Y-72168826D01*
X99637620Y-72159254D01*
X99657029Y-72156375D01*
X99705860Y-72151565D01*
X99725466Y-72150602D01*
X99743888Y-72150602D01*
X99750000Y-72150000D01*
X100250000Y-72150000D01*
X100256112Y-72150602D01*
X100274534Y-72150602D01*
X100294140Y-72151565D01*
X100342971Y-72156375D01*
X100362380Y-72159254D01*
X100410505Y-72168826D01*
X100429548Y-72173596D01*
X100476503Y-72187840D01*
X100494980Y-72194451D01*
X100540313Y-72213228D01*
X100558061Y-72221623D01*
X100601334Y-72244754D01*
X100618162Y-72254840D01*
X100658961Y-72282100D01*
X100674730Y-72293795D01*
X100712659Y-72324923D01*
X100727200Y-72338103D01*
X100761897Y-72372800D01*
X100775077Y-72387341D01*
X100806205Y-72425270D01*
X100817900Y-72441039D01*
X100845160Y-72481838D01*
X100855246Y-72498666D01*
X100878377Y-72541939D01*
X100886772Y-72559687D01*
X100905549Y-72605020D01*
X100912160Y-72623497D01*
X100926404Y-72670452D01*
X100931174Y-72689495D01*
X100940746Y-72737620D01*
X100943625Y-72757029D01*
X100948435Y-72805860D01*
X100949398Y-72825466D01*
X100949398Y-72843888D01*
X100950000Y-72850000D01*
X100950000Y-73350000D01*
X100946157Y-73389018D01*
G37*
D14*
X112000000Y-61500000D03*
D11*
X112000000Y-69000000D03*
D15*
X84000000Y-87000000D03*
D16*
X86500000Y-87000000D03*
D15*
X83329063Y-85400000D03*
D16*
X87170937Y-88600000D03*
D17*
X129000000Y-70000000D03*
D18*
X129000000Y-75080000D03*
X129000000Y-80160000D03*
D16*
X77500000Y-95000000D03*
D19*
X77500000Y-82300000D03*
D15*
X95500000Y-87000000D03*
D16*
X98000000Y-87000000D03*
D15*
X94829063Y-85400000D03*
D16*
X98670937Y-88600000D03*
D15*
X107000000Y-87000000D03*
D16*
X109500000Y-87000000D03*
D15*
X106329063Y-85400000D03*
D16*
X110170937Y-88600000D03*
D20*
X89160000Y-99997460D03*
D21*
X79000000Y-99997460D03*
D20*
X74840000Y-105002540D03*
D21*
X85000000Y-105002540D03*
D17*
X59500000Y-79000000D03*
D18*
X59500000Y-73920000D03*
X59500000Y-68840000D03*
D22*
X108080000Y-108500000D03*
X105540000Y-105960000D03*
X103000000Y-108500000D03*
X96080000Y-108500000D03*
X93540000Y-105960000D03*
X91000000Y-108500000D03*
D17*
X129000000Y-53000000D03*
D18*
X129000000Y-58080000D03*
X129000000Y-63160000D03*
D17*
X129000000Y-87000000D03*
D18*
X129000000Y-92080000D03*
X129000000Y-97160000D03*
D16*
X98000000Y-95000000D03*
D19*
X85300000Y-95000000D03*
D16*
X119000000Y-88500000D03*
D19*
X119000000Y-101200000D03*
D16*
X73250000Y-95000000D03*
D19*
X73250000Y-82300000D03*
D16*
X73000000Y-110000000D03*
D19*
X85700000Y-110000000D03*
D10*
X130000000Y-40000000D03*
X130000000Y-110000000D03*
X55000000Y-110000000D03*
D20*
X65002540Y-60160000D03*
D21*
X65002540Y-50000000D03*
D20*
X54497460Y-49840000D03*
D21*
X54497460Y-60000000D03*
D20*
X61502540Y-60160000D03*
D21*
X61502540Y-50000000D03*
D20*
X57997460Y-49840000D03*
D21*
X57997460Y-60000000D03*
D23*
X129000000Y-47000000D03*
X119000000Y-52000000D03*
X98000000Y-79000000D03*
X109500000Y-79000000D03*
D16*
X113500000Y-95000000D03*
D19*
X100800000Y-95000000D03*
D16*
X110500000Y-99000000D03*
D19*
X97800000Y-99000000D03*
D11*
X93500000Y-64000000D03*
D14*
X93500000Y-56500000D03*
D13*
G36*
X121949398Y-75806112D02*
G01*
X121949398Y-75824534D01*
X121948435Y-75844140D01*
X121943625Y-75892971D01*
X121940746Y-75912380D01*
X121931174Y-75960505D01*
X121926404Y-75979548D01*
X121912160Y-76026503D01*
X121905549Y-76044980D01*
X121886772Y-76090313D01*
X121878377Y-76108061D01*
X121855246Y-76151334D01*
X121845160Y-76168162D01*
X121817900Y-76208961D01*
X121806205Y-76224730D01*
X121775077Y-76262659D01*
X121761897Y-76277200D01*
X121727200Y-76311897D01*
X121712659Y-76325077D01*
X121674730Y-76356205D01*
X121658961Y-76367900D01*
X121618162Y-76395160D01*
X121601334Y-76405246D01*
X121558061Y-76428377D01*
X121540313Y-76436772D01*
X121494980Y-76455549D01*
X121476503Y-76462160D01*
X121429548Y-76476404D01*
X121410505Y-76481174D01*
X121362380Y-76490746D01*
X121342971Y-76493625D01*
X121294140Y-76498435D01*
X121274534Y-76499398D01*
X121256112Y-76499398D01*
X121250000Y-76500000D01*
X120750000Y-76500000D01*
X120743888Y-76499398D01*
X120725466Y-76499398D01*
X120705860Y-76498435D01*
X120657029Y-76493625D01*
X120637620Y-76490746D01*
X120589495Y-76481174D01*
X120570452Y-76476404D01*
X120523497Y-76462160D01*
X120505020Y-76455549D01*
X120459687Y-76436772D01*
X120441939Y-76428377D01*
X120398666Y-76405246D01*
X120381838Y-76395160D01*
X120341039Y-76367900D01*
X120325270Y-76356205D01*
X120287341Y-76325077D01*
X120272800Y-76311897D01*
X120238103Y-76277200D01*
X120224923Y-76262659D01*
X120193795Y-76224730D01*
X120182100Y-76208961D01*
X120154840Y-76168162D01*
X120144754Y-76151334D01*
X120121623Y-76108061D01*
X120113228Y-76090313D01*
X120094451Y-76044980D01*
X120087840Y-76026503D01*
X120073596Y-75979548D01*
X120068826Y-75960505D01*
X120059254Y-75912380D01*
X120056375Y-75892971D01*
X120051565Y-75844140D01*
X120050602Y-75824534D01*
X120050602Y-75806112D01*
X120050000Y-75800000D01*
X120050000Y-75300000D01*
X120053843Y-75260982D01*
X120065224Y-75223463D01*
X120083706Y-75188886D01*
X120108579Y-75158579D01*
X120138886Y-75133706D01*
X120173463Y-75115224D01*
X120210982Y-75103843D01*
X120250000Y-75100000D01*
X121750000Y-75100000D01*
X121789018Y-75103843D01*
X121826537Y-75115224D01*
X121861114Y-75133706D01*
X121891421Y-75158579D01*
X121916294Y-75188886D01*
X121934776Y-75223463D01*
X121946157Y-75260982D01*
X121950000Y-75300000D01*
X121950000Y-75800000D01*
X121949398Y-75806112D01*
G37*
G36*
X121946157Y-75039018D02*
G01*
X121934776Y-75076537D01*
X121916294Y-75111114D01*
X121891421Y-75141421D01*
X121861114Y-75166294D01*
X121826537Y-75184776D01*
X121789018Y-75196157D01*
X121750000Y-75200000D01*
X120250000Y-75200000D01*
X120210982Y-75196157D01*
X120173463Y-75184776D01*
X120138886Y-75166294D01*
X120108579Y-75141421D01*
X120083706Y-75111114D01*
X120065224Y-75076537D01*
X120053843Y-75039018D01*
X120050000Y-75000000D01*
X120050000Y-74500000D01*
X120050602Y-74493888D01*
X120050602Y-74475466D01*
X120051565Y-74455860D01*
X120056375Y-74407029D01*
X120059254Y-74387620D01*
X120068826Y-74339495D01*
X120073596Y-74320452D01*
X120087840Y-74273497D01*
X120094451Y-74255020D01*
X120113228Y-74209687D01*
X120121623Y-74191939D01*
X120144754Y-74148666D01*
X120154840Y-74131838D01*
X120182100Y-74091039D01*
X120193795Y-74075270D01*
X120224923Y-74037341D01*
X120238103Y-74022800D01*
X120272800Y-73988103D01*
X120287341Y-73974923D01*
X120325270Y-73943795D01*
X120341039Y-73932100D01*
X120381838Y-73904840D01*
X120398666Y-73894754D01*
X120441939Y-73871623D01*
X120459687Y-73863228D01*
X120505020Y-73844451D01*
X120523497Y-73837840D01*
X120570452Y-73823596D01*
X120589495Y-73818826D01*
X120637620Y-73809254D01*
X120657029Y-73806375D01*
X120705860Y-73801565D01*
X120725466Y-73800602D01*
X120743888Y-73800602D01*
X120750000Y-73800000D01*
X121250000Y-73800000D01*
X121256112Y-73800602D01*
X121274534Y-73800602D01*
X121294140Y-73801565D01*
X121342971Y-73806375D01*
X121362380Y-73809254D01*
X121410505Y-73818826D01*
X121429548Y-73823596D01*
X121476503Y-73837840D01*
X121494980Y-73844451D01*
X121540313Y-73863228D01*
X121558061Y-73871623D01*
X121601334Y-73894754D01*
X121618162Y-73904840D01*
X121658961Y-73932100D01*
X121674730Y-73943795D01*
X121712659Y-73974923D01*
X121727200Y-73988103D01*
X121761897Y-74022800D01*
X121775077Y-74037341D01*
X121806205Y-74075270D01*
X121817900Y-74091039D01*
X121845160Y-74131838D01*
X121855246Y-74148666D01*
X121878377Y-74191939D01*
X121886772Y-74209687D01*
X121905549Y-74255020D01*
X121912160Y-74273497D01*
X121926404Y-74320452D01*
X121931174Y-74339495D01*
X121940746Y-74387620D01*
X121943625Y-74407029D01*
X121948435Y-74455860D01*
X121949398Y-74475466D01*
X121949398Y-74493888D01*
X121950000Y-74500000D01*
X121950000Y-75000000D01*
X121946157Y-75039018D01*
G37*
D11*
X68200000Y-83400000D03*
D12*
X68200000Y-63080000D03*
D24*
X65000000Y-98650000D03*
D25*
X65000000Y-109900000D03*
X65000000Y-87400000D03*
X74400000Y-54000000D03*
X82095453Y-75143084D03*
D24*
X78247727Y-64571542D03*
M02*
