G04 #@! TF.GenerationSoftware,KiCad,Pcbnew,(5.1.5-0-10_14)*
G04 #@! TF.CreationDate,2020-02-01T21:54:20+00:00*
G04 #@! TF.ProjectId,PowerSupply,506f7765-7253-4757-9070-6c792e6b6963,rev?*
G04 #@! TF.SameCoordinates,Original*
G04 #@! TF.FileFunction,Legend,Top*
G04 #@! TF.FilePolarity,Positive*
%FSLAX46Y46*%
G04 Gerber Fmt 4.6, Leading zero omitted, Abs format (unit mm)*
G04 Created by KiCad (PCBNEW (5.1.5-0-10_14)) date 2020-02-01 21:54:20*
%MOMM*%
%LPD*%
G04 APERTURE LIST*
%ADD10C,0.300000*%
%ADD11C,0.120000*%
%ADD12C,0.150000*%
G04 APERTURE END LIST*
D10*
X58565476Y-55422619D02*
X57315476Y-55422619D01*
X57315476Y-55125000D01*
X57375000Y-54946428D01*
X57494047Y-54827380D01*
X57613095Y-54767857D01*
X57851190Y-54708333D01*
X58029761Y-54708333D01*
X58267857Y-54767857D01*
X58386904Y-54827380D01*
X58505952Y-54946428D01*
X58565476Y-55125000D01*
X58565476Y-55422619D01*
X57315476Y-53636904D02*
X57315476Y-53875000D01*
X57375000Y-53994047D01*
X57434523Y-54053571D01*
X57613095Y-54172619D01*
X57851190Y-54232142D01*
X58327380Y-54232142D01*
X58446428Y-54172619D01*
X58505952Y-54113095D01*
X58565476Y-53994047D01*
X58565476Y-53755952D01*
X58505952Y-53636904D01*
X58446428Y-53577380D01*
X58327380Y-53517857D01*
X58029761Y-53517857D01*
X57910714Y-53577380D01*
X57851190Y-53636904D01*
X57791666Y-53755952D01*
X57791666Y-53994047D01*
X57851190Y-54113095D01*
X57910714Y-54172619D01*
X58029761Y-54232142D01*
X62065476Y-56422619D02*
X60815476Y-56422619D01*
X60815476Y-56125000D01*
X60875000Y-55946428D01*
X60994047Y-55827380D01*
X61113095Y-55767857D01*
X61351190Y-55708333D01*
X61529761Y-55708333D01*
X61767857Y-55767857D01*
X61886904Y-55827380D01*
X62005952Y-55946428D01*
X62065476Y-56125000D01*
X62065476Y-56422619D01*
X60815476Y-54577380D02*
X60815476Y-55172619D01*
X61410714Y-55232142D01*
X61351190Y-55172619D01*
X61291666Y-55053571D01*
X61291666Y-54755952D01*
X61351190Y-54636904D01*
X61410714Y-54577380D01*
X61529761Y-54517857D01*
X61827380Y-54517857D01*
X61946428Y-54577380D01*
X62005952Y-54636904D01*
X62065476Y-54755952D01*
X62065476Y-55053571D01*
X62005952Y-55172619D01*
X61946428Y-55232142D01*
X65565476Y-56422619D02*
X64315476Y-56422619D01*
X64315476Y-56125000D01*
X64375000Y-55946428D01*
X64494047Y-55827380D01*
X64613095Y-55767857D01*
X64851190Y-55708333D01*
X65029761Y-55708333D01*
X65267857Y-55767857D01*
X65386904Y-55827380D01*
X65505952Y-55946428D01*
X65565476Y-56125000D01*
X65565476Y-56422619D01*
X65565476Y-54517857D02*
X65565476Y-55232142D01*
X65565476Y-54875000D02*
X64315476Y-54875000D01*
X64494047Y-54994047D01*
X64613095Y-55113095D01*
X64672619Y-55232142D01*
X55065476Y-55422619D02*
X53815476Y-55422619D01*
X53815476Y-55125000D01*
X53875000Y-54946428D01*
X53994047Y-54827380D01*
X54113095Y-54767857D01*
X54351190Y-54708333D01*
X54529761Y-54708333D01*
X54767857Y-54767857D01*
X54886904Y-54827380D01*
X55005952Y-54946428D01*
X55065476Y-55125000D01*
X55065476Y-55422619D01*
X54232142Y-53636904D02*
X55065476Y-53636904D01*
X53755952Y-53934523D02*
X54648809Y-54232142D01*
X54648809Y-53458333D01*
X111011904Y-105390476D02*
X111011904Y-104140476D01*
X111488095Y-104140476D01*
X111607142Y-104200000D01*
X111666666Y-104259523D01*
X111726190Y-104378571D01*
X111726190Y-104557142D01*
X111666666Y-104676190D01*
X111607142Y-104735714D01*
X111488095Y-104795238D01*
X111011904Y-104795238D01*
X112440476Y-105390476D02*
X112321428Y-105330952D01*
X112261904Y-105271428D01*
X112202380Y-105152380D01*
X112202380Y-104795238D01*
X112261904Y-104676190D01*
X112321428Y-104616666D01*
X112440476Y-104557142D01*
X112619047Y-104557142D01*
X112738095Y-104616666D01*
X112797619Y-104676190D01*
X112857142Y-104795238D01*
X112857142Y-105152380D01*
X112797619Y-105271428D01*
X112738095Y-105330952D01*
X112619047Y-105390476D01*
X112440476Y-105390476D01*
X113273809Y-104557142D02*
X113511904Y-105390476D01*
X113750000Y-104795238D01*
X113988095Y-105390476D01*
X114226190Y-104557142D01*
X115178571Y-105330952D02*
X115059523Y-105390476D01*
X114821428Y-105390476D01*
X114702380Y-105330952D01*
X114642857Y-105211904D01*
X114642857Y-104735714D01*
X114702380Y-104616666D01*
X114821428Y-104557142D01*
X115059523Y-104557142D01*
X115178571Y-104616666D01*
X115238095Y-104735714D01*
X115238095Y-104854761D01*
X114642857Y-104973809D01*
X115773809Y-105390476D02*
X115773809Y-104557142D01*
X115773809Y-104795238D02*
X115833333Y-104676190D01*
X115892857Y-104616666D01*
X116011904Y-104557142D01*
X116130952Y-104557142D01*
X116488095Y-105330952D02*
X116666666Y-105390476D01*
X116964285Y-105390476D01*
X117083333Y-105330952D01*
X117142857Y-105271428D01*
X117202380Y-105152380D01*
X117202380Y-105033333D01*
X117142857Y-104914285D01*
X117083333Y-104854761D01*
X116964285Y-104795238D01*
X116726190Y-104735714D01*
X116607142Y-104676190D01*
X116547619Y-104616666D01*
X116488095Y-104497619D01*
X116488095Y-104378571D01*
X116547619Y-104259523D01*
X116607142Y-104200000D01*
X116726190Y-104140476D01*
X117023809Y-104140476D01*
X117202380Y-104200000D01*
X118273809Y-104557142D02*
X118273809Y-105390476D01*
X117738095Y-104557142D02*
X117738095Y-105211904D01*
X117797619Y-105330952D01*
X117916666Y-105390476D01*
X118095238Y-105390476D01*
X118214285Y-105330952D01*
X118273809Y-105271428D01*
X118869047Y-104557142D02*
X118869047Y-105807142D01*
X118869047Y-104616666D02*
X118988095Y-104557142D01*
X119226190Y-104557142D01*
X119345238Y-104616666D01*
X119404761Y-104676190D01*
X119464285Y-104795238D01*
X119464285Y-105152380D01*
X119404761Y-105271428D01*
X119345238Y-105330952D01*
X119226190Y-105390476D01*
X118988095Y-105390476D01*
X118869047Y-105330952D01*
X120000000Y-104557142D02*
X120000000Y-105807142D01*
X120000000Y-104616666D02*
X120119047Y-104557142D01*
X120357142Y-104557142D01*
X120476190Y-104616666D01*
X120535714Y-104676190D01*
X120595238Y-104795238D01*
X120595238Y-105152380D01*
X120535714Y-105271428D01*
X120476190Y-105330952D01*
X120357142Y-105390476D01*
X120119047Y-105390476D01*
X120000000Y-105330952D01*
X121309523Y-105390476D02*
X121190476Y-105330952D01*
X121130952Y-105211904D01*
X121130952Y-104140476D01*
X121666666Y-104557142D02*
X121964285Y-105390476D01*
X122261904Y-104557142D02*
X121964285Y-105390476D01*
X121845238Y-105688095D01*
X121785714Y-105747619D01*
X121666666Y-105807142D01*
X123690476Y-105390476D02*
X123690476Y-104140476D01*
X124166666Y-104140476D01*
X124285714Y-104200000D01*
X124345238Y-104259523D01*
X124404761Y-104378571D01*
X124404761Y-104557142D01*
X124345238Y-104676190D01*
X124285714Y-104735714D01*
X124166666Y-104795238D01*
X123690476Y-104795238D01*
X125654761Y-105271428D02*
X125595238Y-105330952D01*
X125416666Y-105390476D01*
X125297619Y-105390476D01*
X125119047Y-105330952D01*
X125000000Y-105211904D01*
X124940476Y-105092857D01*
X124880952Y-104854761D01*
X124880952Y-104676190D01*
X124940476Y-104438095D01*
X125000000Y-104319047D01*
X125119047Y-104200000D01*
X125297619Y-104140476D01*
X125416666Y-104140476D01*
X125595238Y-104200000D01*
X125654761Y-104259523D01*
X126607142Y-104735714D02*
X126785714Y-104795238D01*
X126845238Y-104854761D01*
X126904761Y-104973809D01*
X126904761Y-105152380D01*
X126845238Y-105271428D01*
X126785714Y-105330952D01*
X126666666Y-105390476D01*
X126190476Y-105390476D01*
X126190476Y-104140476D01*
X126607142Y-104140476D01*
X126726190Y-104200000D01*
X126785714Y-104259523D01*
X126845238Y-104378571D01*
X126845238Y-104497619D01*
X126785714Y-104616666D01*
X126726190Y-104676190D01*
X126607142Y-104735714D01*
X126190476Y-104735714D01*
X127321428Y-104557142D02*
X127619047Y-105390476D01*
X127916666Y-104557142D01*
X128273809Y-104140476D02*
X129047619Y-104140476D01*
X128630952Y-104616666D01*
X128809523Y-104616666D01*
X128928571Y-104676190D01*
X128988095Y-104735714D01*
X129047619Y-104854761D01*
X129047619Y-105152380D01*
X128988095Y-105271428D01*
X128928571Y-105330952D01*
X128809523Y-105390476D01*
X128452380Y-105390476D01*
X128333333Y-105330952D01*
X128273809Y-105271428D01*
X113273809Y-106315476D02*
X113988095Y-106315476D01*
X113630952Y-107565476D02*
X113630952Y-106315476D01*
X114404761Y-107565476D02*
X114404761Y-106732142D01*
X114404761Y-106970238D02*
X114464285Y-106851190D01*
X114523809Y-106791666D01*
X114642857Y-106732142D01*
X114761904Y-106732142D01*
X115178571Y-107565476D02*
X115178571Y-106732142D01*
X115178571Y-106315476D02*
X115119047Y-106375000D01*
X115178571Y-106434523D01*
X115238095Y-106375000D01*
X115178571Y-106315476D01*
X115178571Y-106434523D01*
X115714285Y-107505952D02*
X115833333Y-107565476D01*
X116071428Y-107565476D01*
X116190476Y-107505952D01*
X116250000Y-107386904D01*
X116250000Y-107327380D01*
X116190476Y-107208333D01*
X116071428Y-107148809D01*
X115892857Y-107148809D01*
X115773809Y-107089285D01*
X115714285Y-106970238D01*
X115714285Y-106910714D01*
X115773809Y-106791666D01*
X115892857Y-106732142D01*
X116071428Y-106732142D01*
X116190476Y-106791666D01*
X116607142Y-106732142D02*
X117083333Y-106732142D01*
X116785714Y-106315476D02*
X116785714Y-107386904D01*
X116845238Y-107505952D01*
X116964285Y-107565476D01*
X117083333Y-107565476D01*
X118035714Y-107565476D02*
X118035714Y-106910714D01*
X117976190Y-106791666D01*
X117857142Y-106732142D01*
X117619047Y-106732142D01*
X117500000Y-106791666D01*
X118035714Y-107505952D02*
X117916666Y-107565476D01*
X117619047Y-107565476D01*
X117500000Y-107505952D01*
X117440476Y-107386904D01*
X117440476Y-107267857D01*
X117500000Y-107148809D01*
X117619047Y-107089285D01*
X117916666Y-107089285D01*
X118035714Y-107029761D01*
X118630952Y-106732142D02*
X118630952Y-107565476D01*
X118630952Y-106851190D02*
X118690476Y-106791666D01*
X118809523Y-106732142D01*
X118988095Y-106732142D01*
X119107142Y-106791666D01*
X119166666Y-106910714D01*
X119166666Y-107565476D01*
X121428571Y-107446428D02*
X121369047Y-107505952D01*
X121190476Y-107565476D01*
X121071428Y-107565476D01*
X120892857Y-107505952D01*
X120773809Y-107386904D01*
X120714285Y-107267857D01*
X120654761Y-107029761D01*
X120654761Y-106851190D01*
X120714285Y-106613095D01*
X120773809Y-106494047D01*
X120892857Y-106375000D01*
X121071428Y-106315476D01*
X121190476Y-106315476D01*
X121369047Y-106375000D01*
X121428571Y-106434523D01*
X122142857Y-107565476D02*
X122023809Y-107505952D01*
X121964285Y-107446428D01*
X121904761Y-107327380D01*
X121904761Y-106970238D01*
X121964285Y-106851190D01*
X122023809Y-106791666D01*
X122142857Y-106732142D01*
X122321428Y-106732142D01*
X122440476Y-106791666D01*
X122500000Y-106851190D01*
X122559523Y-106970238D01*
X122559523Y-107327380D01*
X122500000Y-107446428D01*
X122440476Y-107505952D01*
X122321428Y-107565476D01*
X122142857Y-107565476D01*
X123273809Y-107565476D02*
X123154761Y-107505952D01*
X123095238Y-107386904D01*
X123095238Y-106315476D01*
X123928571Y-107565476D02*
X123809523Y-107505952D01*
X123750000Y-107386904D01*
X123750000Y-106315476D01*
X124404761Y-107565476D02*
X124404761Y-106732142D01*
X124404761Y-106315476D02*
X124345238Y-106375000D01*
X124404761Y-106434523D01*
X124464285Y-106375000D01*
X124404761Y-106315476D01*
X124404761Y-106434523D01*
X125000000Y-106732142D02*
X125000000Y-107565476D01*
X125000000Y-106851190D02*
X125059523Y-106791666D01*
X125178571Y-106732142D01*
X125357142Y-106732142D01*
X125476190Y-106791666D01*
X125535714Y-106910714D01*
X125535714Y-107565476D01*
X126071428Y-107505952D02*
X126190476Y-107565476D01*
X126428571Y-107565476D01*
X126547619Y-107505952D01*
X126607142Y-107386904D01*
X126607142Y-107327380D01*
X126547619Y-107208333D01*
X126428571Y-107148809D01*
X126250000Y-107148809D01*
X126130952Y-107089285D01*
X126071428Y-106970238D01*
X126071428Y-106910714D01*
X126130952Y-106791666D01*
X126250000Y-106732142D01*
X126428571Y-106732142D01*
X126547619Y-106791666D01*
X116220238Y-109085714D02*
X115803571Y-109085714D01*
X115803571Y-109740476D02*
X115803571Y-108490476D01*
X116398809Y-108490476D01*
X117351190Y-109680952D02*
X117232142Y-109740476D01*
X116994047Y-109740476D01*
X116875000Y-109680952D01*
X116815476Y-109561904D01*
X116815476Y-109085714D01*
X116875000Y-108966666D01*
X116994047Y-108907142D01*
X117232142Y-108907142D01*
X117351190Y-108966666D01*
X117410714Y-109085714D01*
X117410714Y-109204761D01*
X116815476Y-109323809D01*
X117946428Y-109740476D02*
X117946428Y-108490476D01*
X117946428Y-108966666D02*
X118065476Y-108907142D01*
X118303571Y-108907142D01*
X118422619Y-108966666D01*
X118482142Y-109026190D01*
X118541666Y-109145238D01*
X118541666Y-109502380D01*
X118482142Y-109621428D01*
X118422619Y-109680952D01*
X118303571Y-109740476D01*
X118065476Y-109740476D01*
X117946428Y-109680952D01*
X119970238Y-108609523D02*
X120029761Y-108550000D01*
X120148809Y-108490476D01*
X120446428Y-108490476D01*
X120565476Y-108550000D01*
X120625000Y-108609523D01*
X120684523Y-108728571D01*
X120684523Y-108847619D01*
X120625000Y-109026190D01*
X119910714Y-109740476D01*
X120684523Y-109740476D01*
X121458333Y-108490476D02*
X121577380Y-108490476D01*
X121696428Y-108550000D01*
X121755952Y-108609523D01*
X121815476Y-108728571D01*
X121875000Y-108966666D01*
X121875000Y-109264285D01*
X121815476Y-109502380D01*
X121755952Y-109621428D01*
X121696428Y-109680952D01*
X121577380Y-109740476D01*
X121458333Y-109740476D01*
X121339285Y-109680952D01*
X121279761Y-109621428D01*
X121220238Y-109502380D01*
X121160714Y-109264285D01*
X121160714Y-108966666D01*
X121220238Y-108728571D01*
X121279761Y-108609523D01*
X121339285Y-108550000D01*
X121458333Y-108490476D01*
X122351190Y-108609523D02*
X122410714Y-108550000D01*
X122529761Y-108490476D01*
X122827380Y-108490476D01*
X122946428Y-108550000D01*
X123005952Y-108609523D01*
X123065476Y-108728571D01*
X123065476Y-108847619D01*
X123005952Y-109026190D01*
X122291666Y-109740476D01*
X123065476Y-109740476D01*
X123839285Y-108490476D02*
X123958333Y-108490476D01*
X124077380Y-108550000D01*
X124136904Y-108609523D01*
X124196428Y-108728571D01*
X124255952Y-108966666D01*
X124255952Y-109264285D01*
X124196428Y-109502380D01*
X124136904Y-109621428D01*
X124077380Y-109680952D01*
X123958333Y-109740476D01*
X123839285Y-109740476D01*
X123720238Y-109680952D01*
X123660714Y-109621428D01*
X123601190Y-109502380D01*
X123541666Y-109264285D01*
X123541666Y-108966666D01*
X123601190Y-108728571D01*
X123660714Y-108609523D01*
X123720238Y-108550000D01*
X123839285Y-108490476D01*
X112095238Y-76573214D02*
X112273809Y-76632738D01*
X112333333Y-76692261D01*
X112392857Y-76811309D01*
X112392857Y-76989880D01*
X112333333Y-77108928D01*
X112273809Y-77168452D01*
X112154761Y-77227976D01*
X111678571Y-77227976D01*
X111678571Y-75977976D01*
X112095238Y-75977976D01*
X112214285Y-76037500D01*
X112273809Y-76097023D01*
X112333333Y-76216071D01*
X112333333Y-76335119D01*
X112273809Y-76454166D01*
X112214285Y-76513690D01*
X112095238Y-76573214D01*
X111678571Y-76573214D01*
X112928571Y-77227976D02*
X112928571Y-76394642D01*
X112928571Y-75977976D02*
X112869047Y-76037500D01*
X112928571Y-76097023D01*
X112988095Y-76037500D01*
X112928571Y-75977976D01*
X112928571Y-76097023D01*
X114059523Y-77227976D02*
X114059523Y-76573214D01*
X114000000Y-76454166D01*
X113880952Y-76394642D01*
X113642857Y-76394642D01*
X113523809Y-76454166D01*
X114059523Y-77168452D02*
X113940476Y-77227976D01*
X113642857Y-77227976D01*
X113523809Y-77168452D01*
X113464285Y-77049404D01*
X113464285Y-76930357D01*
X113523809Y-76811309D01*
X113642857Y-76751785D01*
X113940476Y-76751785D01*
X114059523Y-76692261D01*
X114595238Y-77168452D02*
X114714285Y-77227976D01*
X114952380Y-77227976D01*
X115071428Y-77168452D01*
X115130952Y-77049404D01*
X115130952Y-76989880D01*
X115071428Y-76870833D01*
X114952380Y-76811309D01*
X114773809Y-76811309D01*
X114654761Y-76751785D01*
X114595238Y-76632738D01*
X114595238Y-76573214D01*
X114654761Y-76454166D01*
X114773809Y-76394642D01*
X114952380Y-76394642D01*
X115071428Y-76454166D01*
X116083333Y-76573214D02*
X116261904Y-76632738D01*
X116321428Y-76692261D01*
X116380952Y-76811309D01*
X116380952Y-76989880D01*
X116321428Y-77108928D01*
X116261904Y-77168452D01*
X116142857Y-77227976D01*
X115666666Y-77227976D01*
X115666666Y-75977976D01*
X116083333Y-75977976D01*
X116202380Y-76037500D01*
X116261904Y-76097023D01*
X116321428Y-76216071D01*
X116321428Y-76335119D01*
X116261904Y-76454166D01*
X116202380Y-76513690D01*
X116083333Y-76573214D01*
X115666666Y-76573214D01*
X113017857Y-78152976D02*
X113732142Y-78152976D01*
X113375000Y-79402976D02*
X113375000Y-78152976D01*
X114148809Y-79402976D02*
X114148809Y-78152976D01*
X114625000Y-78152976D01*
X114744047Y-78212500D01*
X114803571Y-78272023D01*
X114863095Y-78391071D01*
X114863095Y-78569642D01*
X114803571Y-78688690D01*
X114744047Y-78748214D01*
X114625000Y-78807738D01*
X114148809Y-78807738D01*
X100684523Y-76573214D02*
X100863095Y-76632738D01*
X100922619Y-76692261D01*
X100982142Y-76811309D01*
X100982142Y-76989880D01*
X100922619Y-77108928D01*
X100863095Y-77168452D01*
X100744047Y-77227976D01*
X100267857Y-77227976D01*
X100267857Y-75977976D01*
X100684523Y-75977976D01*
X100803571Y-76037500D01*
X100863095Y-76097023D01*
X100922619Y-76216071D01*
X100922619Y-76335119D01*
X100863095Y-76454166D01*
X100803571Y-76513690D01*
X100684523Y-76573214D01*
X100267857Y-76573214D01*
X101517857Y-77227976D02*
X101517857Y-76394642D01*
X101517857Y-75977976D02*
X101458333Y-76037500D01*
X101517857Y-76097023D01*
X101577380Y-76037500D01*
X101517857Y-75977976D01*
X101517857Y-76097023D01*
X102648809Y-77227976D02*
X102648809Y-76573214D01*
X102589285Y-76454166D01*
X102470238Y-76394642D01*
X102232142Y-76394642D01*
X102113095Y-76454166D01*
X102648809Y-77168452D02*
X102529761Y-77227976D01*
X102232142Y-77227976D01*
X102113095Y-77168452D01*
X102053571Y-77049404D01*
X102053571Y-76930357D01*
X102113095Y-76811309D01*
X102232142Y-76751785D01*
X102529761Y-76751785D01*
X102648809Y-76692261D01*
X103184523Y-77168452D02*
X103303571Y-77227976D01*
X103541666Y-77227976D01*
X103660714Y-77168452D01*
X103720238Y-77049404D01*
X103720238Y-76989880D01*
X103660714Y-76870833D01*
X103541666Y-76811309D01*
X103363095Y-76811309D01*
X103244047Y-76751785D01*
X103184523Y-76632738D01*
X103184523Y-76573214D01*
X103244047Y-76454166D01*
X103363095Y-76394642D01*
X103541666Y-76394642D01*
X103660714Y-76454166D01*
X104196428Y-76870833D02*
X104791666Y-76870833D01*
X104077380Y-77227976D02*
X104494047Y-75977976D01*
X104910714Y-77227976D01*
X101517857Y-78152976D02*
X102232142Y-78152976D01*
X101875000Y-79402976D02*
X101875000Y-78152976D01*
X102648809Y-79402976D02*
X102648809Y-78152976D01*
X103125000Y-78152976D01*
X103244047Y-78212500D01*
X103303571Y-78272023D01*
X103363095Y-78391071D01*
X103363095Y-78569642D01*
X103303571Y-78688690D01*
X103244047Y-78748214D01*
X103125000Y-78807738D01*
X102648809Y-78807738D01*
X112720238Y-51323214D02*
X112898809Y-51382738D01*
X112958333Y-51442261D01*
X113017857Y-51561309D01*
X113017857Y-51739880D01*
X112958333Y-51858928D01*
X112898809Y-51918452D01*
X112779761Y-51977976D01*
X112303571Y-51977976D01*
X112303571Y-50727976D01*
X112720238Y-50727976D01*
X112839285Y-50787500D01*
X112898809Y-50847023D01*
X112958333Y-50966071D01*
X112958333Y-51085119D01*
X112898809Y-51204166D01*
X112839285Y-51263690D01*
X112720238Y-51323214D01*
X112303571Y-51323214D01*
X113553571Y-51501785D02*
X114505952Y-51501785D01*
X114029761Y-51977976D02*
X114029761Y-51025595D01*
X115041666Y-50847023D02*
X115101190Y-50787500D01*
X115220238Y-50727976D01*
X115517857Y-50727976D01*
X115636904Y-50787500D01*
X115696428Y-50847023D01*
X115755952Y-50966071D01*
X115755952Y-51085119D01*
X115696428Y-51263690D01*
X114982142Y-51977976D01*
X115755952Y-51977976D01*
X113017857Y-52902976D02*
X113732142Y-52902976D01*
X113375000Y-54152976D02*
X113375000Y-52902976D01*
X114148809Y-54152976D02*
X114148809Y-52902976D01*
X114625000Y-52902976D01*
X114744047Y-52962500D01*
X114803571Y-53022023D01*
X114863095Y-53141071D01*
X114863095Y-53319642D01*
X114803571Y-53438690D01*
X114744047Y-53498214D01*
X114625000Y-53557738D01*
X114148809Y-53557738D01*
X124320238Y-44023214D02*
X124498809Y-44082738D01*
X124558333Y-44142261D01*
X124617857Y-44261309D01*
X124617857Y-44439880D01*
X124558333Y-44558928D01*
X124498809Y-44618452D01*
X124379761Y-44677976D01*
X123903571Y-44677976D01*
X123903571Y-43427976D01*
X124320238Y-43427976D01*
X124439285Y-43487500D01*
X124498809Y-43547023D01*
X124558333Y-43666071D01*
X124558333Y-43785119D01*
X124498809Y-43904166D01*
X124439285Y-43963690D01*
X124320238Y-44023214D01*
X123903571Y-44023214D01*
X125153571Y-44201785D02*
X126105952Y-44201785D01*
X125629761Y-44677976D02*
X125629761Y-43725595D01*
X127355952Y-44677976D02*
X126641666Y-44677976D01*
X126998809Y-44677976D02*
X126998809Y-43427976D01*
X126879761Y-43606547D01*
X126760714Y-43725595D01*
X126641666Y-43785119D01*
X124617857Y-45602976D02*
X125332142Y-45602976D01*
X124975000Y-46852976D02*
X124975000Y-45602976D01*
X125748809Y-46852976D02*
X125748809Y-45602976D01*
X126225000Y-45602976D01*
X126344047Y-45662500D01*
X126403571Y-45722023D01*
X126463095Y-45841071D01*
X126463095Y-46019642D01*
X126403571Y-46138690D01*
X126344047Y-46198214D01*
X126225000Y-46257738D01*
X125748809Y-46257738D01*
X103089285Y-102115476D02*
X103803571Y-102115476D01*
X103446428Y-103365476D02*
X103446428Y-102115476D01*
X104220238Y-103365476D02*
X104220238Y-102532142D01*
X104220238Y-102770238D02*
X104279761Y-102651190D01*
X104339285Y-102591666D01*
X104458333Y-102532142D01*
X104577380Y-102532142D01*
X104994047Y-103365476D02*
X104994047Y-102532142D01*
X104994047Y-102115476D02*
X104934523Y-102175000D01*
X104994047Y-102234523D01*
X105053571Y-102175000D01*
X104994047Y-102115476D01*
X104994047Y-102234523D01*
X105589285Y-103365476D02*
X105589285Y-102532142D01*
X105589285Y-102651190D02*
X105648809Y-102591666D01*
X105767857Y-102532142D01*
X105946428Y-102532142D01*
X106065476Y-102591666D01*
X106125000Y-102710714D01*
X106125000Y-103365476D01*
X106125000Y-102710714D02*
X106184523Y-102591666D01*
X106303571Y-102532142D01*
X106482142Y-102532142D01*
X106601190Y-102591666D01*
X106660714Y-102710714D01*
X106660714Y-103365476D01*
X107196428Y-103008333D02*
X107791666Y-103008333D01*
X107077380Y-103365476D02*
X107494047Y-102115476D01*
X107910714Y-103365476D01*
X91100000Y-101915476D02*
X91814285Y-101915476D01*
X91457142Y-103165476D02*
X91457142Y-101915476D01*
X92230952Y-103165476D02*
X92230952Y-102332142D01*
X92230952Y-102570238D02*
X92290476Y-102451190D01*
X92350000Y-102391666D01*
X92469047Y-102332142D01*
X92588095Y-102332142D01*
X93004761Y-103165476D02*
X93004761Y-102332142D01*
X93004761Y-101915476D02*
X92945238Y-101975000D01*
X93004761Y-102034523D01*
X93064285Y-101975000D01*
X93004761Y-101915476D01*
X93004761Y-102034523D01*
X93600000Y-103165476D02*
X93600000Y-102332142D01*
X93600000Y-102451190D02*
X93659523Y-102391666D01*
X93778571Y-102332142D01*
X93957142Y-102332142D01*
X94076190Y-102391666D01*
X94135714Y-102510714D01*
X94135714Y-103165476D01*
X94135714Y-102510714D02*
X94195238Y-102391666D01*
X94314285Y-102332142D01*
X94492857Y-102332142D01*
X94611904Y-102391666D01*
X94671428Y-102510714D01*
X94671428Y-103165476D01*
X95683333Y-102510714D02*
X95861904Y-102570238D01*
X95921428Y-102629761D01*
X95980952Y-102748809D01*
X95980952Y-102927380D01*
X95921428Y-103046428D01*
X95861904Y-103105952D01*
X95742857Y-103165476D01*
X95266666Y-103165476D01*
X95266666Y-101915476D01*
X95683333Y-101915476D01*
X95802380Y-101975000D01*
X95861904Y-102034523D01*
X95921428Y-102153571D01*
X95921428Y-102272619D01*
X95861904Y-102391666D01*
X95802380Y-102451190D01*
X95683333Y-102510714D01*
X95266666Y-102510714D01*
X55208333Y-46910714D02*
X55386904Y-46970238D01*
X55446428Y-47029761D01*
X55505952Y-47148809D01*
X55505952Y-47327380D01*
X55446428Y-47446428D01*
X55386904Y-47505952D01*
X55267857Y-47565476D01*
X54791666Y-47565476D01*
X54791666Y-46315476D01*
X55208333Y-46315476D01*
X55327380Y-46375000D01*
X55386904Y-46434523D01*
X55446428Y-46553571D01*
X55446428Y-46672619D01*
X55386904Y-46791666D01*
X55327380Y-46851190D01*
X55208333Y-46910714D01*
X54791666Y-46910714D01*
X56041666Y-47565476D02*
X56041666Y-46732142D01*
X56041666Y-46970238D02*
X56101190Y-46851190D01*
X56160714Y-46791666D01*
X56279761Y-46732142D01*
X56398809Y-46732142D01*
X56815476Y-47565476D02*
X56815476Y-46732142D01*
X56815476Y-46315476D02*
X56755952Y-46375000D01*
X56815476Y-46434523D01*
X56875000Y-46375000D01*
X56815476Y-46315476D01*
X56815476Y-46434523D01*
X57946428Y-47565476D02*
X57946428Y-46315476D01*
X57946428Y-47505952D02*
X57827380Y-47565476D01*
X57589285Y-47565476D01*
X57470238Y-47505952D01*
X57410714Y-47446428D01*
X57351190Y-47327380D01*
X57351190Y-46970238D01*
X57410714Y-46851190D01*
X57470238Y-46791666D01*
X57589285Y-46732142D01*
X57827380Y-46732142D01*
X57946428Y-46791666D01*
X59077380Y-46732142D02*
X59077380Y-47744047D01*
X59017857Y-47863095D01*
X58958333Y-47922619D01*
X58839285Y-47982142D01*
X58660714Y-47982142D01*
X58541666Y-47922619D01*
X59077380Y-47505952D02*
X58958333Y-47565476D01*
X58720238Y-47565476D01*
X58601190Y-47505952D01*
X58541666Y-47446428D01*
X58482142Y-47327380D01*
X58482142Y-46970238D01*
X58541666Y-46851190D01*
X58601190Y-46791666D01*
X58720238Y-46732142D01*
X58958333Y-46732142D01*
X59077380Y-46791666D01*
X60148809Y-47505952D02*
X60029761Y-47565476D01*
X59791666Y-47565476D01*
X59672619Y-47505952D01*
X59613095Y-47386904D01*
X59613095Y-46910714D01*
X59672619Y-46791666D01*
X59791666Y-46732142D01*
X60029761Y-46732142D01*
X60148809Y-46791666D01*
X60208333Y-46910714D01*
X60208333Y-47029761D01*
X59613095Y-47148809D01*
X62410714Y-47565476D02*
X61994047Y-46970238D01*
X61696428Y-47565476D02*
X61696428Y-46315476D01*
X62172619Y-46315476D01*
X62291666Y-46375000D01*
X62351190Y-46434523D01*
X62410714Y-46553571D01*
X62410714Y-46732142D01*
X62351190Y-46851190D01*
X62291666Y-46910714D01*
X62172619Y-46970238D01*
X61696428Y-46970238D01*
X63422619Y-47505952D02*
X63303571Y-47565476D01*
X63065476Y-47565476D01*
X62946428Y-47505952D01*
X62886904Y-47386904D01*
X62886904Y-46910714D01*
X62946428Y-46791666D01*
X63065476Y-46732142D01*
X63303571Y-46732142D01*
X63422619Y-46791666D01*
X63482142Y-46910714D01*
X63482142Y-47029761D01*
X62886904Y-47148809D01*
X64553571Y-47505952D02*
X64434523Y-47565476D01*
X64196428Y-47565476D01*
X64077380Y-47505952D01*
X64017857Y-47446428D01*
X63958333Y-47327380D01*
X63958333Y-46970238D01*
X64017857Y-46851190D01*
X64077380Y-46791666D01*
X64196428Y-46732142D01*
X64434523Y-46732142D01*
X64553571Y-46791666D01*
X64910714Y-46732142D02*
X65386904Y-46732142D01*
X65089285Y-46315476D02*
X65089285Y-47386904D01*
X65148809Y-47505952D01*
X65267857Y-47565476D01*
X65386904Y-47565476D01*
X123910714Y-94315476D02*
X123970238Y-94136904D01*
X124029761Y-94077380D01*
X124148809Y-94017857D01*
X124327380Y-94017857D01*
X124446428Y-94077380D01*
X124505952Y-94136904D01*
X124565476Y-94255952D01*
X124565476Y-94732142D01*
X123315476Y-94732142D01*
X123315476Y-94315476D01*
X123375000Y-94196428D01*
X123434523Y-94136904D01*
X123553571Y-94077380D01*
X123672619Y-94077380D01*
X123791666Y-94136904D01*
X123851190Y-94196428D01*
X123910714Y-94315476D01*
X123910714Y-94732142D01*
X124565476Y-93482142D02*
X123732142Y-93482142D01*
X123315476Y-93482142D02*
X123375000Y-93541666D01*
X123434523Y-93482142D01*
X123375000Y-93422619D01*
X123315476Y-93482142D01*
X123434523Y-93482142D01*
X124565476Y-92351190D02*
X123910714Y-92351190D01*
X123791666Y-92410714D01*
X123732142Y-92529761D01*
X123732142Y-92767857D01*
X123791666Y-92886904D01*
X124505952Y-92351190D02*
X124565476Y-92470238D01*
X124565476Y-92767857D01*
X124505952Y-92886904D01*
X124386904Y-92946428D01*
X124267857Y-92946428D01*
X124148809Y-92886904D01*
X124089285Y-92767857D01*
X124089285Y-92470238D01*
X124029761Y-92351190D01*
X124505952Y-91815476D02*
X124565476Y-91696428D01*
X124565476Y-91458333D01*
X124505952Y-91339285D01*
X124386904Y-91279761D01*
X124327380Y-91279761D01*
X124208333Y-91339285D01*
X124148809Y-91458333D01*
X124148809Y-91636904D01*
X124089285Y-91755952D01*
X123970238Y-91815476D01*
X123910714Y-91815476D01*
X123791666Y-91755952D01*
X123732142Y-91636904D01*
X123732142Y-91458333D01*
X123791666Y-91339285D01*
X124208333Y-90803571D02*
X124208333Y-90208333D01*
X124565476Y-90922619D02*
X123315476Y-90505952D01*
X124565476Y-90089285D01*
X123910714Y-100404761D02*
X123970238Y-100226190D01*
X124029761Y-100166666D01*
X124148809Y-100107142D01*
X124327380Y-100107142D01*
X124446428Y-100166666D01*
X124505952Y-100226190D01*
X124565476Y-100345238D01*
X124565476Y-100821428D01*
X123315476Y-100821428D01*
X123315476Y-100404761D01*
X123375000Y-100285714D01*
X123434523Y-100226190D01*
X123553571Y-100166666D01*
X123672619Y-100166666D01*
X123791666Y-100226190D01*
X123851190Y-100285714D01*
X123910714Y-100404761D01*
X123910714Y-100821428D01*
X124565476Y-99571428D02*
X123732142Y-99571428D01*
X123315476Y-99571428D02*
X123375000Y-99630952D01*
X123434523Y-99571428D01*
X123375000Y-99511904D01*
X123315476Y-99571428D01*
X123434523Y-99571428D01*
X124565476Y-98440476D02*
X123910714Y-98440476D01*
X123791666Y-98500000D01*
X123732142Y-98619047D01*
X123732142Y-98857142D01*
X123791666Y-98976190D01*
X124505952Y-98440476D02*
X124565476Y-98559523D01*
X124565476Y-98857142D01*
X124505952Y-98976190D01*
X124386904Y-99035714D01*
X124267857Y-99035714D01*
X124148809Y-98976190D01*
X124089285Y-98857142D01*
X124089285Y-98559523D01*
X124029761Y-98440476D01*
X124505952Y-97904761D02*
X124565476Y-97785714D01*
X124565476Y-97547619D01*
X124505952Y-97428571D01*
X124386904Y-97369047D01*
X124327380Y-97369047D01*
X124208333Y-97428571D01*
X124148809Y-97547619D01*
X124148809Y-97726190D01*
X124089285Y-97845238D01*
X123970238Y-97904761D01*
X123910714Y-97904761D01*
X123791666Y-97845238D01*
X123732142Y-97726190D01*
X123732142Y-97547619D01*
X123791666Y-97428571D01*
X123910714Y-96416666D02*
X123970238Y-96238095D01*
X124029761Y-96178571D01*
X124148809Y-96119047D01*
X124327380Y-96119047D01*
X124446428Y-96178571D01*
X124505952Y-96238095D01*
X124565476Y-96357142D01*
X124565476Y-96833333D01*
X123315476Y-96833333D01*
X123315476Y-96416666D01*
X123375000Y-96297619D01*
X123434523Y-96238095D01*
X123553571Y-96178571D01*
X123672619Y-96178571D01*
X123791666Y-96238095D01*
X123851190Y-96297619D01*
X123910714Y-96416666D01*
X123910714Y-96833333D01*
X124208333Y-88702380D02*
X124208333Y-88107142D01*
X124565476Y-88821428D02*
X123315476Y-88404761D01*
X124565476Y-87988095D01*
X123375000Y-86916666D02*
X123315476Y-87035714D01*
X123315476Y-87214285D01*
X123375000Y-87392857D01*
X123494047Y-87511904D01*
X123613095Y-87571428D01*
X123851190Y-87630952D01*
X124029761Y-87630952D01*
X124267857Y-87571428D01*
X124386904Y-87511904D01*
X124505952Y-87392857D01*
X124565476Y-87214285D01*
X124565476Y-87095238D01*
X124505952Y-86916666D01*
X124446428Y-86857142D01*
X124029761Y-86857142D01*
X124029761Y-87095238D01*
X124565476Y-86321428D02*
X123315476Y-86321428D01*
X124565476Y-85607142D01*
X123315476Y-85607142D01*
X124565476Y-85011904D02*
X123315476Y-85011904D01*
X123315476Y-84714285D01*
X123375000Y-84535714D01*
X123494047Y-84416666D01*
X123613095Y-84357142D01*
X123851190Y-84297619D01*
X124029761Y-84297619D01*
X124267857Y-84357142D01*
X124386904Y-84416666D01*
X124505952Y-84535714D01*
X124565476Y-84714285D01*
X124565476Y-85011904D01*
X124208333Y-83202380D02*
X124208333Y-82607142D01*
X124565476Y-83321428D02*
X123315476Y-82904761D01*
X124565476Y-82488095D01*
X123375000Y-81416666D02*
X123315476Y-81535714D01*
X123315476Y-81714285D01*
X123375000Y-81892857D01*
X123494047Y-82011904D01*
X123613095Y-82071428D01*
X123851190Y-82130952D01*
X124029761Y-82130952D01*
X124267857Y-82071428D01*
X124386904Y-82011904D01*
X124505952Y-81892857D01*
X124565476Y-81714285D01*
X124565476Y-81595238D01*
X124505952Y-81416666D01*
X124446428Y-81357142D01*
X124029761Y-81357142D01*
X124029761Y-81595238D01*
X124565476Y-80821428D02*
X123315476Y-80821428D01*
X124565476Y-80107142D01*
X123315476Y-80107142D01*
X124565476Y-79511904D02*
X123315476Y-79511904D01*
X123315476Y-79214285D01*
X123375000Y-79035714D01*
X123494047Y-78916666D01*
X123613095Y-78857142D01*
X123851190Y-78797619D01*
X124029761Y-78797619D01*
X124267857Y-78857142D01*
X124386904Y-78916666D01*
X124505952Y-79035714D01*
X124565476Y-79214285D01*
X124565476Y-79511904D01*
X124208333Y-77202380D02*
X124208333Y-76607142D01*
X124565476Y-77321428D02*
X123315476Y-76904761D01*
X124565476Y-76488095D01*
X123375000Y-75416666D02*
X123315476Y-75535714D01*
X123315476Y-75714285D01*
X123375000Y-75892857D01*
X123494047Y-76011904D01*
X123613095Y-76071428D01*
X123851190Y-76130952D01*
X124029761Y-76130952D01*
X124267857Y-76071428D01*
X124386904Y-76011904D01*
X124505952Y-75892857D01*
X124565476Y-75714285D01*
X124565476Y-75595238D01*
X124505952Y-75416666D01*
X124446428Y-75357142D01*
X124029761Y-75357142D01*
X124029761Y-75595238D01*
X124565476Y-74821428D02*
X123315476Y-74821428D01*
X124565476Y-74107142D01*
X123315476Y-74107142D01*
X124565476Y-73511904D02*
X123315476Y-73511904D01*
X123315476Y-73214285D01*
X123375000Y-73035714D01*
X123494047Y-72916666D01*
X123613095Y-72857142D01*
X123851190Y-72797619D01*
X124029761Y-72797619D01*
X124267857Y-72857142D01*
X124386904Y-72916666D01*
X124505952Y-73035714D01*
X124565476Y-73214285D01*
X124565476Y-73511904D01*
X124208333Y-66202380D02*
X124208333Y-65607142D01*
X124565476Y-66321428D02*
X123315476Y-65904761D01*
X124565476Y-65488095D01*
X123375000Y-64416666D02*
X123315476Y-64535714D01*
X123315476Y-64714285D01*
X123375000Y-64892857D01*
X123494047Y-65011904D01*
X123613095Y-65071428D01*
X123851190Y-65130952D01*
X124029761Y-65130952D01*
X124267857Y-65071428D01*
X124386904Y-65011904D01*
X124505952Y-64892857D01*
X124565476Y-64714285D01*
X124565476Y-64595238D01*
X124505952Y-64416666D01*
X124446428Y-64357142D01*
X124029761Y-64357142D01*
X124029761Y-64595238D01*
X124565476Y-63821428D02*
X123315476Y-63821428D01*
X124565476Y-63107142D01*
X123315476Y-63107142D01*
X124565476Y-62511904D02*
X123315476Y-62511904D01*
X123315476Y-62214285D01*
X123375000Y-62035714D01*
X123494047Y-61916666D01*
X123613095Y-61857142D01*
X123851190Y-61797619D01*
X124029761Y-61797619D01*
X124267857Y-61857142D01*
X124386904Y-61916666D01*
X124505952Y-62035714D01*
X124565476Y-62214285D01*
X124565476Y-62511904D01*
X124208333Y-60202380D02*
X124208333Y-59607142D01*
X124565476Y-60321428D02*
X123315476Y-59904761D01*
X124565476Y-59488095D01*
X123375000Y-58416666D02*
X123315476Y-58535714D01*
X123315476Y-58714285D01*
X123375000Y-58892857D01*
X123494047Y-59011904D01*
X123613095Y-59071428D01*
X123851190Y-59130952D01*
X124029761Y-59130952D01*
X124267857Y-59071428D01*
X124386904Y-59011904D01*
X124505952Y-58892857D01*
X124565476Y-58714285D01*
X124565476Y-58595238D01*
X124505952Y-58416666D01*
X124446428Y-58357142D01*
X124029761Y-58357142D01*
X124029761Y-58595238D01*
X124565476Y-57821428D02*
X123315476Y-57821428D01*
X124565476Y-57107142D01*
X123315476Y-57107142D01*
X124565476Y-56511904D02*
X123315476Y-56511904D01*
X123315476Y-56214285D01*
X123375000Y-56035714D01*
X123494047Y-55916666D01*
X123613095Y-55857142D01*
X123851190Y-55797619D01*
X124029761Y-55797619D01*
X124267857Y-55857142D01*
X124386904Y-55916666D01*
X124505952Y-56035714D01*
X124565476Y-56214285D01*
X124565476Y-56511904D01*
X123910714Y-70779761D02*
X123970238Y-70601190D01*
X124029761Y-70541666D01*
X124148809Y-70482142D01*
X124327380Y-70482142D01*
X124446428Y-70541666D01*
X124505952Y-70601190D01*
X124565476Y-70720238D01*
X124565476Y-71196428D01*
X123315476Y-71196428D01*
X123315476Y-70779761D01*
X123375000Y-70660714D01*
X123434523Y-70601190D01*
X123553571Y-70541666D01*
X123672619Y-70541666D01*
X123791666Y-70601190D01*
X123851190Y-70660714D01*
X123910714Y-70779761D01*
X123910714Y-71196428D01*
X124089285Y-69946428D02*
X124089285Y-68994047D01*
X124565476Y-69470238D02*
X123613095Y-69470238D01*
X123434523Y-68458333D02*
X123375000Y-68398809D01*
X123315476Y-68279761D01*
X123315476Y-67982142D01*
X123375000Y-67863095D01*
X123434523Y-67803571D01*
X123553571Y-67744047D01*
X123672619Y-67744047D01*
X123851190Y-67803571D01*
X124565476Y-68517857D01*
X124565476Y-67744047D01*
X123910714Y-53779761D02*
X123970238Y-53601190D01*
X124029761Y-53541666D01*
X124148809Y-53482142D01*
X124327380Y-53482142D01*
X124446428Y-53541666D01*
X124505952Y-53601190D01*
X124565476Y-53720238D01*
X124565476Y-54196428D01*
X123315476Y-54196428D01*
X123315476Y-53779761D01*
X123375000Y-53660714D01*
X123434523Y-53601190D01*
X123553571Y-53541666D01*
X123672619Y-53541666D01*
X123791666Y-53601190D01*
X123851190Y-53660714D01*
X123910714Y-53779761D01*
X123910714Y-54196428D01*
X124089285Y-52946428D02*
X124089285Y-51994047D01*
X124565476Y-52470238D02*
X123613095Y-52470238D01*
X124565476Y-50744047D02*
X124565476Y-51458333D01*
X124565476Y-51101190D02*
X123315476Y-51101190D01*
X123494047Y-51220238D01*
X123613095Y-51339285D01*
X123672619Y-51458333D01*
X84304761Y-41765476D02*
X84304761Y-40515476D01*
X84602380Y-40515476D01*
X84780952Y-40575000D01*
X84900000Y-40694047D01*
X84959523Y-40813095D01*
X85019047Y-41051190D01*
X85019047Y-41229761D01*
X84959523Y-41467857D01*
X84900000Y-41586904D01*
X84780952Y-41705952D01*
X84602380Y-41765476D01*
X84304761Y-41765476D01*
X85554761Y-41765476D02*
X85554761Y-40932142D01*
X85554761Y-41170238D02*
X85614285Y-41051190D01*
X85673809Y-40991666D01*
X85792857Y-40932142D01*
X85911904Y-40932142D01*
X86507142Y-41765476D02*
X86388095Y-41705952D01*
X86328571Y-41646428D01*
X86269047Y-41527380D01*
X86269047Y-41170238D01*
X86328571Y-41051190D01*
X86388095Y-40991666D01*
X86507142Y-40932142D01*
X86685714Y-40932142D01*
X86804761Y-40991666D01*
X86864285Y-41051190D01*
X86923809Y-41170238D01*
X86923809Y-41527380D01*
X86864285Y-41646428D01*
X86804761Y-41705952D01*
X86685714Y-41765476D01*
X86507142Y-41765476D01*
X87459523Y-40932142D02*
X87459523Y-42182142D01*
X87459523Y-40991666D02*
X87578571Y-40932142D01*
X87816666Y-40932142D01*
X87935714Y-40991666D01*
X87995238Y-41051190D01*
X88054761Y-41170238D01*
X88054761Y-41527380D01*
X87995238Y-41646428D01*
X87935714Y-41705952D01*
X87816666Y-41765476D01*
X87578571Y-41765476D01*
X87459523Y-41705952D01*
X88590476Y-40932142D02*
X88590476Y-42182142D01*
X88590476Y-40991666D02*
X88709523Y-40932142D01*
X88947619Y-40932142D01*
X89066666Y-40991666D01*
X89126190Y-41051190D01*
X89185714Y-41170238D01*
X89185714Y-41527380D01*
X89126190Y-41646428D01*
X89066666Y-41705952D01*
X88947619Y-41765476D01*
X88709523Y-41765476D01*
X88590476Y-41705952D01*
X89721428Y-41765476D02*
X89721428Y-40932142D01*
X89721428Y-40515476D02*
X89661904Y-40575000D01*
X89721428Y-40634523D01*
X89780952Y-40575000D01*
X89721428Y-40515476D01*
X89721428Y-40634523D01*
X90316666Y-40932142D02*
X90316666Y-41765476D01*
X90316666Y-41051190D02*
X90376190Y-40991666D01*
X90495238Y-40932142D01*
X90673809Y-40932142D01*
X90792857Y-40991666D01*
X90852380Y-41110714D01*
X90852380Y-41765476D01*
X91983333Y-40932142D02*
X91983333Y-41944047D01*
X91923809Y-42063095D01*
X91864285Y-42122619D01*
X91745238Y-42182142D01*
X91566666Y-42182142D01*
X91447619Y-42122619D01*
X91983333Y-41705952D02*
X91864285Y-41765476D01*
X91626190Y-41765476D01*
X91507142Y-41705952D01*
X91447619Y-41646428D01*
X91388095Y-41527380D01*
X91388095Y-41170238D01*
X91447619Y-41051190D01*
X91507142Y-40991666D01*
X91626190Y-40932142D01*
X91864285Y-40932142D01*
X91983333Y-40991666D01*
X94245238Y-41765476D02*
X93828571Y-41170238D01*
X93530952Y-41765476D02*
X93530952Y-40515476D01*
X94007142Y-40515476D01*
X94126190Y-40575000D01*
X94185714Y-40634523D01*
X94245238Y-40753571D01*
X94245238Y-40932142D01*
X94185714Y-41051190D01*
X94126190Y-41110714D01*
X94007142Y-41170238D01*
X93530952Y-41170238D01*
X95257142Y-41705952D02*
X95138095Y-41765476D01*
X94899999Y-41765476D01*
X94780952Y-41705952D01*
X94721428Y-41586904D01*
X94721428Y-41110714D01*
X94780952Y-40991666D01*
X94899999Y-40932142D01*
X95138095Y-40932142D01*
X95257142Y-40991666D01*
X95316666Y-41110714D01*
X95316666Y-41229761D01*
X94721428Y-41348809D01*
X95792857Y-41705952D02*
X95911904Y-41765476D01*
X96149999Y-41765476D01*
X96269047Y-41705952D01*
X96328571Y-41586904D01*
X96328571Y-41527380D01*
X96269047Y-41408333D01*
X96149999Y-41348809D01*
X95971428Y-41348809D01*
X95852380Y-41289285D01*
X95792857Y-41170238D01*
X95792857Y-41110714D01*
X95852380Y-40991666D01*
X95971428Y-40932142D01*
X96149999Y-40932142D01*
X96269047Y-40991666D01*
X96864285Y-41765476D02*
X96864285Y-40932142D01*
X96864285Y-40515476D02*
X96804761Y-40575000D01*
X96864285Y-40634523D01*
X96923809Y-40575000D01*
X96864285Y-40515476D01*
X96864285Y-40634523D01*
X97399999Y-41705952D02*
X97519047Y-41765476D01*
X97757142Y-41765476D01*
X97876190Y-41705952D01*
X97935714Y-41586904D01*
X97935714Y-41527380D01*
X97876190Y-41408333D01*
X97757142Y-41348809D01*
X97578571Y-41348809D01*
X97459523Y-41289285D01*
X97399999Y-41170238D01*
X97399999Y-41110714D01*
X97459523Y-40991666D01*
X97578571Y-40932142D01*
X97757142Y-40932142D01*
X97876190Y-40991666D01*
X98292857Y-40932142D02*
X98769047Y-40932142D01*
X98471428Y-40515476D02*
X98471428Y-41586904D01*
X98530952Y-41705952D01*
X98649999Y-41765476D01*
X98769047Y-41765476D01*
X99364285Y-41765476D02*
X99245238Y-41705952D01*
X99185714Y-41646428D01*
X99126190Y-41527380D01*
X99126190Y-41170238D01*
X99185714Y-41051190D01*
X99245238Y-40991666D01*
X99364285Y-40932142D01*
X99542857Y-40932142D01*
X99661904Y-40991666D01*
X99721428Y-41051190D01*
X99780952Y-41170238D01*
X99780952Y-41527380D01*
X99721428Y-41646428D01*
X99661904Y-41705952D01*
X99542857Y-41765476D01*
X99364285Y-41765476D01*
X100316666Y-41765476D02*
X100316666Y-40932142D01*
X100316666Y-41170238D02*
X100376190Y-41051190D01*
X100435714Y-40991666D01*
X100554761Y-40932142D01*
X100673809Y-40932142D01*
X105920238Y-52623214D02*
X106098809Y-52682738D01*
X106158333Y-52742261D01*
X106217857Y-52861309D01*
X106217857Y-53039880D01*
X106158333Y-53158928D01*
X106098809Y-53218452D01*
X105979761Y-53277976D01*
X105503571Y-53277976D01*
X105503571Y-52027976D01*
X105920238Y-52027976D01*
X106039285Y-52087500D01*
X106098809Y-52147023D01*
X106158333Y-52266071D01*
X106158333Y-52385119D01*
X106098809Y-52504166D01*
X106039285Y-52563690D01*
X105920238Y-52623214D01*
X105503571Y-52623214D01*
X106753571Y-52801785D02*
X107705952Y-52801785D01*
X107229761Y-53277976D02*
X107229761Y-52325595D01*
X108241666Y-52147023D02*
X108301190Y-52087500D01*
X108420238Y-52027976D01*
X108717857Y-52027976D01*
X108836904Y-52087500D01*
X108896428Y-52147023D01*
X108955952Y-52266071D01*
X108955952Y-52385119D01*
X108896428Y-52563690D01*
X108182142Y-53277976D01*
X108955952Y-53277976D01*
X103241666Y-54798214D02*
X102825000Y-54798214D01*
X102825000Y-55452976D02*
X102825000Y-54202976D01*
X103420238Y-54202976D01*
X103896428Y-55452976D02*
X103896428Y-54619642D01*
X103896428Y-54202976D02*
X103836904Y-54262500D01*
X103896428Y-54322023D01*
X103955952Y-54262500D01*
X103896428Y-54202976D01*
X103896428Y-54322023D01*
X104670238Y-55452976D02*
X104551190Y-55393452D01*
X104491666Y-55274404D01*
X104491666Y-54202976D01*
X104967857Y-54619642D02*
X105444047Y-54619642D01*
X105146428Y-54202976D02*
X105146428Y-55274404D01*
X105205952Y-55393452D01*
X105325000Y-55452976D01*
X105444047Y-55452976D01*
X106336904Y-55393452D02*
X106217857Y-55452976D01*
X105979761Y-55452976D01*
X105860714Y-55393452D01*
X105801190Y-55274404D01*
X105801190Y-54798214D01*
X105860714Y-54679166D01*
X105979761Y-54619642D01*
X106217857Y-54619642D01*
X106336904Y-54679166D01*
X106396428Y-54798214D01*
X106396428Y-54917261D01*
X105801190Y-55036309D01*
X106932142Y-55452976D02*
X106932142Y-54619642D01*
X106932142Y-54857738D02*
X106991666Y-54738690D01*
X107051190Y-54679166D01*
X107170238Y-54619642D01*
X107289285Y-54619642D01*
X109372619Y-55333928D02*
X109313095Y-55393452D01*
X109134523Y-55452976D01*
X109015476Y-55452976D01*
X108836904Y-55393452D01*
X108717857Y-55274404D01*
X108658333Y-55155357D01*
X108598809Y-54917261D01*
X108598809Y-54738690D01*
X108658333Y-54500595D01*
X108717857Y-54381547D01*
X108836904Y-54262500D01*
X109015476Y-54202976D01*
X109134523Y-54202976D01*
X109313095Y-54262500D01*
X109372619Y-54322023D01*
X110444047Y-55452976D02*
X110444047Y-54798214D01*
X110384523Y-54679166D01*
X110265476Y-54619642D01*
X110027380Y-54619642D01*
X109908333Y-54679166D01*
X110444047Y-55393452D02*
X110325000Y-55452976D01*
X110027380Y-55452976D01*
X109908333Y-55393452D01*
X109848809Y-55274404D01*
X109848809Y-55155357D01*
X109908333Y-55036309D01*
X110027380Y-54976785D01*
X110325000Y-54976785D01*
X110444047Y-54917261D01*
X111039285Y-54619642D02*
X111039285Y-55869642D01*
X111039285Y-54679166D02*
X111158333Y-54619642D01*
X111396428Y-54619642D01*
X111515476Y-54679166D01*
X111575000Y-54738690D01*
X111634523Y-54857738D01*
X111634523Y-55214880D01*
X111575000Y-55333928D01*
X111515476Y-55393452D01*
X111396428Y-55452976D01*
X111158333Y-55452976D01*
X111039285Y-55393452D01*
X81483333Y-51677976D02*
X81066666Y-51082738D01*
X80769047Y-51677976D02*
X80769047Y-50427976D01*
X81245238Y-50427976D01*
X81364285Y-50487500D01*
X81423809Y-50547023D01*
X81483333Y-50666071D01*
X81483333Y-50844642D01*
X81423809Y-50963690D01*
X81364285Y-51023214D01*
X81245238Y-51082738D01*
X80769047Y-51082738D01*
X82495238Y-51618452D02*
X82376190Y-51677976D01*
X82138095Y-51677976D01*
X82019047Y-51618452D01*
X81959523Y-51499404D01*
X81959523Y-51023214D01*
X82019047Y-50904166D01*
X82138095Y-50844642D01*
X82376190Y-50844642D01*
X82495238Y-50904166D01*
X82554761Y-51023214D01*
X82554761Y-51142261D01*
X81959523Y-51261309D01*
X83030952Y-51618452D02*
X83150000Y-51677976D01*
X83388095Y-51677976D01*
X83507142Y-51618452D01*
X83566666Y-51499404D01*
X83566666Y-51439880D01*
X83507142Y-51320833D01*
X83388095Y-51261309D01*
X83209523Y-51261309D01*
X83090476Y-51201785D01*
X83030952Y-51082738D01*
X83030952Y-51023214D01*
X83090476Y-50904166D01*
X83209523Y-50844642D01*
X83388095Y-50844642D01*
X83507142Y-50904166D01*
X84578571Y-51618452D02*
X84459523Y-51677976D01*
X84221428Y-51677976D01*
X84102380Y-51618452D01*
X84042857Y-51499404D01*
X84042857Y-51023214D01*
X84102380Y-50904166D01*
X84221428Y-50844642D01*
X84459523Y-50844642D01*
X84578571Y-50904166D01*
X84638095Y-51023214D01*
X84638095Y-51142261D01*
X84042857Y-51261309D01*
X85054761Y-50844642D02*
X85352380Y-51677976D01*
X85650000Y-50844642D01*
X86304761Y-51677976D02*
X86185714Y-51618452D01*
X86126190Y-51558928D01*
X86066666Y-51439880D01*
X86066666Y-51082738D01*
X86126190Y-50963690D01*
X86185714Y-50904166D01*
X86304761Y-50844642D01*
X86483333Y-50844642D01*
X86602380Y-50904166D01*
X86661904Y-50963690D01*
X86721428Y-51082738D01*
X86721428Y-51439880D01*
X86661904Y-51558928D01*
X86602380Y-51618452D01*
X86483333Y-51677976D01*
X86304761Y-51677976D01*
X87257142Y-51677976D02*
X87257142Y-50844642D01*
X87257142Y-50427976D02*
X87197619Y-50487500D01*
X87257142Y-50547023D01*
X87316666Y-50487500D01*
X87257142Y-50427976D01*
X87257142Y-50547023D01*
X87852380Y-51677976D02*
X87852380Y-50844642D01*
X87852380Y-51082738D02*
X87911904Y-50963690D01*
X87971428Y-50904166D01*
X88090476Y-50844642D01*
X88209523Y-50844642D01*
X83655952Y-53733928D02*
X83596428Y-53793452D01*
X83417857Y-53852976D01*
X83298809Y-53852976D01*
X83120238Y-53793452D01*
X83001190Y-53674404D01*
X82941666Y-53555357D01*
X82882142Y-53317261D01*
X82882142Y-53138690D01*
X82941666Y-52900595D01*
X83001190Y-52781547D01*
X83120238Y-52662500D01*
X83298809Y-52602976D01*
X83417857Y-52602976D01*
X83596428Y-52662500D01*
X83655952Y-52722023D01*
X84727380Y-53852976D02*
X84727380Y-53198214D01*
X84667857Y-53079166D01*
X84548809Y-53019642D01*
X84310714Y-53019642D01*
X84191666Y-53079166D01*
X84727380Y-53793452D02*
X84608333Y-53852976D01*
X84310714Y-53852976D01*
X84191666Y-53793452D01*
X84132142Y-53674404D01*
X84132142Y-53555357D01*
X84191666Y-53436309D01*
X84310714Y-53376785D01*
X84608333Y-53376785D01*
X84727380Y-53317261D01*
X85322619Y-53019642D02*
X85322619Y-54269642D01*
X85322619Y-53079166D02*
X85441666Y-53019642D01*
X85679761Y-53019642D01*
X85798809Y-53079166D01*
X85858333Y-53138690D01*
X85917857Y-53257738D01*
X85917857Y-53614880D01*
X85858333Y-53733928D01*
X85798809Y-53793452D01*
X85679761Y-53852976D01*
X85441666Y-53852976D01*
X85322619Y-53793452D01*
X63077380Y-79208333D02*
X63672619Y-79208333D01*
X62958333Y-79565476D02*
X63375000Y-78315476D01*
X63791666Y-79565476D01*
X64922619Y-79446428D02*
X64863095Y-79505952D01*
X64684523Y-79565476D01*
X64565476Y-79565476D01*
X64386904Y-79505952D01*
X64267857Y-79386904D01*
X64208333Y-79267857D01*
X64148809Y-79029761D01*
X64148809Y-78851190D01*
X64208333Y-78613095D01*
X64267857Y-78494047D01*
X64386904Y-78375000D01*
X64565476Y-78315476D01*
X64684523Y-78315476D01*
X64863095Y-78375000D01*
X64922619Y-78434523D01*
X63077380Y-69208333D02*
X63672619Y-69208333D01*
X62958333Y-69565476D02*
X63375000Y-68315476D01*
X63791666Y-69565476D01*
X64922619Y-69446428D02*
X64863095Y-69505952D01*
X64684523Y-69565476D01*
X64565476Y-69565476D01*
X64386904Y-69505952D01*
X64267857Y-69386904D01*
X64208333Y-69267857D01*
X64148809Y-69029761D01*
X64148809Y-68851190D01*
X64208333Y-68613095D01*
X64267857Y-68494047D01*
X64386904Y-68375000D01*
X64565476Y-68315476D01*
X64684523Y-68315476D01*
X64863095Y-68375000D01*
X64922619Y-68434523D01*
X63910714Y-74446428D02*
X63851190Y-74505952D01*
X63672619Y-74565476D01*
X63553571Y-74565476D01*
X63375000Y-74505952D01*
X63255952Y-74386904D01*
X63196428Y-74267857D01*
X63136904Y-74029761D01*
X63136904Y-73851190D01*
X63196428Y-73613095D01*
X63255952Y-73494047D01*
X63375000Y-73375000D01*
X63553571Y-73315476D01*
X63672619Y-73315476D01*
X63851190Y-73375000D01*
X63910714Y-73434523D01*
X64267857Y-73315476D02*
X64982142Y-73315476D01*
X64625000Y-74565476D02*
X64625000Y-73315476D01*
D11*
X116680000Y-49370000D02*
X116680000Y-36630000D01*
X116680000Y-36630000D02*
X68440000Y-36630000D01*
X68440000Y-36630000D02*
X68440000Y-49370000D01*
X68440000Y-49370000D02*
X116680000Y-49370000D01*
X119060000Y-43000000D02*
X116680000Y-43000000D01*
X66060000Y-43000000D02*
X68440000Y-43000000D01*
X121120000Y-65250000D02*
G75*
G03X121120000Y-65250000I-9120000J0D01*
G01*
X121081000Y-65250000D02*
X102919000Y-65250000D01*
X121080000Y-65290000D02*
X102920000Y-65290000D01*
X121080000Y-65330000D02*
X102920000Y-65330000D01*
X121080000Y-65370000D02*
X102920000Y-65370000D01*
X121079000Y-65410000D02*
X102921000Y-65410000D01*
X121078000Y-65450000D02*
X102922000Y-65450000D01*
X121077000Y-65490000D02*
X102923000Y-65490000D01*
X121076000Y-65530000D02*
X102924000Y-65530000D01*
X121075000Y-65570000D02*
X102925000Y-65570000D01*
X121073000Y-65610000D02*
X102927000Y-65610000D01*
X121072000Y-65650000D02*
X102928000Y-65650000D01*
X121070000Y-65690000D02*
X102930000Y-65690000D01*
X121068000Y-65730000D02*
X102932000Y-65730000D01*
X121066000Y-65770000D02*
X102934000Y-65770000D01*
X121063000Y-65810000D02*
X102937000Y-65810000D01*
X121061000Y-65850000D02*
X102939000Y-65850000D01*
X121058000Y-65890000D02*
X102942000Y-65890000D01*
X121055000Y-65930000D02*
X102945000Y-65930000D01*
X121052000Y-65971000D02*
X102948000Y-65971000D01*
X121049000Y-66011000D02*
X102951000Y-66011000D01*
X121045000Y-66051000D02*
X102955000Y-66051000D01*
X121042000Y-66091000D02*
X102958000Y-66091000D01*
X121038000Y-66131000D02*
X102962000Y-66131000D01*
X121034000Y-66171000D02*
X102966000Y-66171000D01*
X121030000Y-66211000D02*
X102970000Y-66211000D01*
X121026000Y-66251000D02*
X102974000Y-66251000D01*
X121021000Y-66291000D02*
X102979000Y-66291000D01*
X121016000Y-66331000D02*
X102984000Y-66331000D01*
X121011000Y-66371000D02*
X102989000Y-66371000D01*
X121006000Y-66411000D02*
X102994000Y-66411000D01*
X121001000Y-66451000D02*
X102999000Y-66451000D01*
X120996000Y-66491000D02*
X103004000Y-66491000D01*
X120990000Y-66531000D02*
X103010000Y-66531000D01*
X120984000Y-66571000D02*
X103016000Y-66571000D01*
X120979000Y-66611000D02*
X103021000Y-66611000D01*
X120972000Y-66651000D02*
X103028000Y-66651000D01*
X120966000Y-66691000D02*
X103034000Y-66691000D01*
X120960000Y-66731000D02*
X103040000Y-66731000D01*
X120953000Y-66771000D02*
X103047000Y-66771000D01*
X120946000Y-66811000D02*
X103054000Y-66811000D01*
X120939000Y-66851000D02*
X103061000Y-66851000D01*
X120932000Y-66891000D02*
X103068000Y-66891000D01*
X120924000Y-66931000D02*
X103076000Y-66931000D01*
X120917000Y-66971000D02*
X103083000Y-66971000D01*
X120909000Y-67011000D02*
X103091000Y-67011000D01*
X120901000Y-67051000D02*
X103099000Y-67051000D01*
X120893000Y-67091000D02*
X103107000Y-67091000D01*
X120885000Y-67131000D02*
X103115000Y-67131000D01*
X120876000Y-67171000D02*
X103124000Y-67171000D01*
X120867000Y-67211000D02*
X103133000Y-67211000D01*
X120858000Y-67251000D02*
X103142000Y-67251000D01*
X120849000Y-67291000D02*
X103151000Y-67291000D01*
X120840000Y-67331000D02*
X103160000Y-67331000D01*
X120831000Y-67371000D02*
X103169000Y-67371000D01*
X120821000Y-67411000D02*
X103179000Y-67411000D01*
X120811000Y-67451000D02*
X103189000Y-67451000D01*
X120801000Y-67491000D02*
X103199000Y-67491000D01*
X120791000Y-67531000D02*
X103209000Y-67531000D01*
X120780000Y-67571000D02*
X113440000Y-67571000D01*
X110560000Y-67571000D02*
X103220000Y-67571000D01*
X120770000Y-67611000D02*
X113440000Y-67611000D01*
X110560000Y-67611000D02*
X103230000Y-67611000D01*
X120759000Y-67651000D02*
X113440000Y-67651000D01*
X110560000Y-67651000D02*
X103241000Y-67651000D01*
X120748000Y-67691000D02*
X113440000Y-67691000D01*
X110560000Y-67691000D02*
X103252000Y-67691000D01*
X120737000Y-67731000D02*
X113440000Y-67731000D01*
X110560000Y-67731000D02*
X103263000Y-67731000D01*
X120725000Y-67771000D02*
X113440000Y-67771000D01*
X110560000Y-67771000D02*
X103275000Y-67771000D01*
X120714000Y-67811000D02*
X113440000Y-67811000D01*
X110560000Y-67811000D02*
X103286000Y-67811000D01*
X120702000Y-67851000D02*
X113440000Y-67851000D01*
X110560000Y-67851000D02*
X103298000Y-67851000D01*
X120690000Y-67891000D02*
X113440000Y-67891000D01*
X110560000Y-67891000D02*
X103310000Y-67891000D01*
X120678000Y-67931000D02*
X113440000Y-67931000D01*
X110560000Y-67931000D02*
X103322000Y-67931000D01*
X120665000Y-67971000D02*
X113440000Y-67971000D01*
X110560000Y-67971000D02*
X103335000Y-67971000D01*
X120653000Y-68011000D02*
X113440000Y-68011000D01*
X110560000Y-68011000D02*
X103347000Y-68011000D01*
X120640000Y-68051000D02*
X113440000Y-68051000D01*
X110560000Y-68051000D02*
X103360000Y-68051000D01*
X120627000Y-68091000D02*
X113440000Y-68091000D01*
X110560000Y-68091000D02*
X103373000Y-68091000D01*
X120614000Y-68131000D02*
X113440000Y-68131000D01*
X110560000Y-68131000D02*
X103386000Y-68131000D01*
X120600000Y-68171000D02*
X113440000Y-68171000D01*
X110560000Y-68171000D02*
X103400000Y-68171000D01*
X120587000Y-68211000D02*
X113440000Y-68211000D01*
X110560000Y-68211000D02*
X103413000Y-68211000D01*
X120573000Y-68251000D02*
X113440000Y-68251000D01*
X110560000Y-68251000D02*
X103427000Y-68251000D01*
X120559000Y-68291000D02*
X113440000Y-68291000D01*
X110560000Y-68291000D02*
X103441000Y-68291000D01*
X120545000Y-68331000D02*
X113440000Y-68331000D01*
X110560000Y-68331000D02*
X103455000Y-68331000D01*
X120530000Y-68371000D02*
X113440000Y-68371000D01*
X110560000Y-68371000D02*
X103470000Y-68371000D01*
X120516000Y-68411000D02*
X113440000Y-68411000D01*
X110560000Y-68411000D02*
X103484000Y-68411000D01*
X120501000Y-68451000D02*
X113440000Y-68451000D01*
X110560000Y-68451000D02*
X103499000Y-68451000D01*
X120486000Y-68491000D02*
X113440000Y-68491000D01*
X110560000Y-68491000D02*
X103514000Y-68491000D01*
X120470000Y-68531000D02*
X113440000Y-68531000D01*
X110560000Y-68531000D02*
X103530000Y-68531000D01*
X120455000Y-68571000D02*
X113440000Y-68571000D01*
X110560000Y-68571000D02*
X103545000Y-68571000D01*
X120439000Y-68611000D02*
X113440000Y-68611000D01*
X110560000Y-68611000D02*
X103561000Y-68611000D01*
X120423000Y-68651000D02*
X113440000Y-68651000D01*
X110560000Y-68651000D02*
X103577000Y-68651000D01*
X120407000Y-68691000D02*
X113440000Y-68691000D01*
X110560000Y-68691000D02*
X103593000Y-68691000D01*
X120390000Y-68731000D02*
X113440000Y-68731000D01*
X110560000Y-68731000D02*
X103610000Y-68731000D01*
X120374000Y-68771000D02*
X113440000Y-68771000D01*
X110560000Y-68771000D02*
X103626000Y-68771000D01*
X120357000Y-68811000D02*
X113440000Y-68811000D01*
X110560000Y-68811000D02*
X103643000Y-68811000D01*
X120340000Y-68851000D02*
X113440000Y-68851000D01*
X110560000Y-68851000D02*
X103660000Y-68851000D01*
X120323000Y-68891000D02*
X113440000Y-68891000D01*
X110560000Y-68891000D02*
X103677000Y-68891000D01*
X120305000Y-68931000D02*
X113440000Y-68931000D01*
X110560000Y-68931000D02*
X103695000Y-68931000D01*
X120287000Y-68971000D02*
X113440000Y-68971000D01*
X110560000Y-68971000D02*
X103713000Y-68971000D01*
X120269000Y-69011000D02*
X113440000Y-69011000D01*
X110560000Y-69011000D02*
X103731000Y-69011000D01*
X120251000Y-69051000D02*
X113440000Y-69051000D01*
X110560000Y-69051000D02*
X103749000Y-69051000D01*
X120233000Y-69091000D02*
X113440000Y-69091000D01*
X110560000Y-69091000D02*
X103767000Y-69091000D01*
X120214000Y-69131000D02*
X113440000Y-69131000D01*
X110560000Y-69131000D02*
X103786000Y-69131000D01*
X120195000Y-69171000D02*
X113440000Y-69171000D01*
X110560000Y-69171000D02*
X103805000Y-69171000D01*
X120176000Y-69211000D02*
X113440000Y-69211000D01*
X110560000Y-69211000D02*
X103824000Y-69211000D01*
X120156000Y-69251000D02*
X113440000Y-69251000D01*
X110560000Y-69251000D02*
X103844000Y-69251000D01*
X120137000Y-69291000D02*
X113440000Y-69291000D01*
X110560000Y-69291000D02*
X103863000Y-69291000D01*
X120117000Y-69331000D02*
X113440000Y-69331000D01*
X110560000Y-69331000D02*
X103883000Y-69331000D01*
X120097000Y-69371000D02*
X113440000Y-69371000D01*
X110560000Y-69371000D02*
X103903000Y-69371000D01*
X120076000Y-69411000D02*
X113440000Y-69411000D01*
X110560000Y-69411000D02*
X103924000Y-69411000D01*
X120056000Y-69451000D02*
X113440000Y-69451000D01*
X110560000Y-69451000D02*
X103944000Y-69451000D01*
X120035000Y-69491000D02*
X113440000Y-69491000D01*
X110560000Y-69491000D02*
X103965000Y-69491000D01*
X120014000Y-69531000D02*
X113440000Y-69531000D01*
X110560000Y-69531000D02*
X103986000Y-69531000D01*
X119992000Y-69571000D02*
X113440000Y-69571000D01*
X110560000Y-69571000D02*
X104008000Y-69571000D01*
X119971000Y-69611000D02*
X113440000Y-69611000D01*
X110560000Y-69611000D02*
X104029000Y-69611000D01*
X119949000Y-69651000D02*
X113440000Y-69651000D01*
X110560000Y-69651000D02*
X104051000Y-69651000D01*
X119927000Y-69691000D02*
X113440000Y-69691000D01*
X110560000Y-69691000D02*
X104073000Y-69691000D01*
X119904000Y-69731000D02*
X113440000Y-69731000D01*
X110560000Y-69731000D02*
X104096000Y-69731000D01*
X119882000Y-69771000D02*
X113440000Y-69771000D01*
X110560000Y-69771000D02*
X104118000Y-69771000D01*
X119859000Y-69811000D02*
X113440000Y-69811000D01*
X110560000Y-69811000D02*
X104141000Y-69811000D01*
X119835000Y-69851000D02*
X113440000Y-69851000D01*
X110560000Y-69851000D02*
X104165000Y-69851000D01*
X119812000Y-69891000D02*
X113440000Y-69891000D01*
X110560000Y-69891000D02*
X104188000Y-69891000D01*
X119788000Y-69931000D02*
X113440000Y-69931000D01*
X110560000Y-69931000D02*
X104212000Y-69931000D01*
X119764000Y-69971000D02*
X113440000Y-69971000D01*
X110560000Y-69971000D02*
X104236000Y-69971000D01*
X119740000Y-70011000D02*
X113440000Y-70011000D01*
X110560000Y-70011000D02*
X104260000Y-70011000D01*
X119715000Y-70051000D02*
X113440000Y-70051000D01*
X110560000Y-70051000D02*
X104285000Y-70051000D01*
X119690000Y-70091000D02*
X113440000Y-70091000D01*
X110560000Y-70091000D02*
X104310000Y-70091000D01*
X119665000Y-70131000D02*
X113440000Y-70131000D01*
X110560000Y-70131000D02*
X104335000Y-70131000D01*
X119640000Y-70171000D02*
X113440000Y-70171000D01*
X110560000Y-70171000D02*
X104360000Y-70171000D01*
X119614000Y-70211000D02*
X113440000Y-70211000D01*
X110560000Y-70211000D02*
X104386000Y-70211000D01*
X119588000Y-70251000D02*
X113440000Y-70251000D01*
X110560000Y-70251000D02*
X104412000Y-70251000D01*
X119561000Y-70291000D02*
X113440000Y-70291000D01*
X110560000Y-70291000D02*
X104439000Y-70291000D01*
X119535000Y-70331000D02*
X113440000Y-70331000D01*
X110560000Y-70331000D02*
X104465000Y-70331000D01*
X119508000Y-70371000D02*
X113440000Y-70371000D01*
X110560000Y-70371000D02*
X104492000Y-70371000D01*
X119480000Y-70411000D02*
X113440000Y-70411000D01*
X110560000Y-70411000D02*
X104520000Y-70411000D01*
X119453000Y-70451000D02*
X104547000Y-70451000D01*
X119425000Y-70491000D02*
X104575000Y-70491000D01*
X119397000Y-70531000D02*
X104603000Y-70531000D01*
X119368000Y-70571000D02*
X104632000Y-70571000D01*
X119339000Y-70611000D02*
X104661000Y-70611000D01*
X119310000Y-70651000D02*
X104690000Y-70651000D01*
X119280000Y-70691000D02*
X104720000Y-70691000D01*
X119250000Y-70731000D02*
X104750000Y-70731000D01*
X119220000Y-70771000D02*
X104780000Y-70771000D01*
X119190000Y-70811000D02*
X104810000Y-70811000D01*
X119159000Y-70851000D02*
X104841000Y-70851000D01*
X119127000Y-70891000D02*
X104873000Y-70891000D01*
X119096000Y-70931000D02*
X104904000Y-70931000D01*
X119064000Y-70971000D02*
X104936000Y-70971000D01*
X119031000Y-71011000D02*
X104969000Y-71011000D01*
X118999000Y-71051000D02*
X105001000Y-71051000D01*
X118965000Y-71091000D02*
X105035000Y-71091000D01*
X118932000Y-71131000D02*
X105068000Y-71131000D01*
X118898000Y-71171000D02*
X105102000Y-71171000D01*
X118864000Y-71211000D02*
X105136000Y-71211000D01*
X118829000Y-71251000D02*
X105171000Y-71251000D01*
X118794000Y-71291000D02*
X105206000Y-71291000D01*
X118758000Y-71331000D02*
X105242000Y-71331000D01*
X118722000Y-71371000D02*
X105278000Y-71371000D01*
X118686000Y-71411000D02*
X105314000Y-71411000D01*
X118649000Y-71451000D02*
X105351000Y-71451000D01*
X118612000Y-71491000D02*
X105388000Y-71491000D01*
X118574000Y-71531000D02*
X105426000Y-71531000D01*
X118536000Y-71571000D02*
X105464000Y-71571000D01*
X118497000Y-71611000D02*
X105503000Y-71611000D01*
X118458000Y-71651000D02*
X105542000Y-71651000D01*
X118418000Y-71691000D02*
X105582000Y-71691000D01*
X118378000Y-71731000D02*
X105622000Y-71731000D01*
X118337000Y-71771000D02*
X105663000Y-71771000D01*
X118296000Y-71811000D02*
X105704000Y-71811000D01*
X118254000Y-71851000D02*
X105746000Y-71851000D01*
X118212000Y-71891000D02*
X105788000Y-71891000D01*
X118170000Y-71931000D02*
X105830000Y-71931000D01*
X118126000Y-71971000D02*
X105874000Y-71971000D01*
X118082000Y-72011000D02*
X105918000Y-72011000D01*
X118038000Y-72051000D02*
X105962000Y-72051000D01*
X117993000Y-72091000D02*
X106007000Y-72091000D01*
X117947000Y-72131000D02*
X106053000Y-72131000D01*
X117901000Y-72171000D02*
X106099000Y-72171000D01*
X117854000Y-72211000D02*
X106146000Y-72211000D01*
X117806000Y-72251000D02*
X106194000Y-72251000D01*
X117758000Y-72291000D02*
X106242000Y-72291000D01*
X117709000Y-72331000D02*
X106291000Y-72331000D01*
X117660000Y-72371000D02*
X106340000Y-72371000D01*
X117609000Y-72411000D02*
X106391000Y-72411000D01*
X117558000Y-72451000D02*
X106442000Y-72451000D01*
X117506000Y-72491000D02*
X106494000Y-72491000D01*
X117454000Y-72531000D02*
X106546000Y-72531000D01*
X117400000Y-72571000D02*
X106600000Y-72571000D01*
X117346000Y-72611000D02*
X106654000Y-72611000D01*
X117291000Y-72651000D02*
X106709000Y-72651000D01*
X117235000Y-72691000D02*
X106765000Y-72691000D01*
X117178000Y-72731000D02*
X106822000Y-72731000D01*
X117120000Y-72771000D02*
X106880000Y-72771000D01*
X117062000Y-72811000D02*
X106938000Y-72811000D01*
X117002000Y-72851000D02*
X106998000Y-72851000D01*
X116941000Y-72891000D02*
X107059000Y-72891000D01*
X116879000Y-72931000D02*
X107121000Y-72931000D01*
X116816000Y-72971000D02*
X107184000Y-72971000D01*
X116752000Y-73011000D02*
X107248000Y-73011000D01*
X116686000Y-73051000D02*
X107314000Y-73051000D01*
X116620000Y-73091000D02*
X107380000Y-73091000D01*
X116552000Y-73131000D02*
X107448000Y-73131000D01*
X116482000Y-73171000D02*
X107518000Y-73171000D01*
X116412000Y-73211000D02*
X107588000Y-73211000D01*
X116339000Y-73251000D02*
X107661000Y-73251000D01*
X116265000Y-73291000D02*
X107735000Y-73291000D01*
X116190000Y-73331000D02*
X107810000Y-73331000D01*
X116113000Y-73371000D02*
X107887000Y-73371000D01*
X116033000Y-73411000D02*
X107967000Y-73411000D01*
X115952000Y-73450000D02*
X108048000Y-73450000D01*
X115869000Y-73490000D02*
X108131000Y-73490000D01*
X115784000Y-73530000D02*
X108216000Y-73530000D01*
X115696000Y-73570000D02*
X108304000Y-73570000D01*
X115605000Y-73610000D02*
X108395000Y-73610000D01*
X115512000Y-73650000D02*
X108488000Y-73650000D01*
X115416000Y-73690000D02*
X108584000Y-73690000D01*
X115317000Y-73730000D02*
X108683000Y-73730000D01*
X115214000Y-73770000D02*
X108786000Y-73770000D01*
X115107000Y-73810000D02*
X108893000Y-73810000D01*
X114996000Y-73850000D02*
X109004000Y-73850000D01*
X114880000Y-73890000D02*
X109120000Y-73890000D01*
X114759000Y-73930000D02*
X109241000Y-73930000D01*
X114632000Y-73970000D02*
X109368000Y-73970000D01*
X114498000Y-74010000D02*
X109502000Y-74010000D01*
X114355000Y-74050000D02*
X109645000Y-74050000D01*
X114203000Y-74090000D02*
X109797000Y-74090000D01*
X114039000Y-74130000D02*
X109961000Y-74130000D01*
X113860000Y-74170000D02*
X110140000Y-74170000D01*
X113661000Y-74210000D02*
X110339000Y-74210000D01*
X113435000Y-74250000D02*
X110565000Y-74250000D01*
X113166000Y-74290000D02*
X110834000Y-74290000D01*
X112814000Y-74330000D02*
X111186000Y-74330000D01*
X112040000Y-74370000D02*
X111960000Y-74370000D01*
X117115000Y-55490560D02*
X117115000Y-57290560D01*
X118015000Y-56390560D02*
X116215000Y-56390560D01*
X90340000Y-87000000D02*
G75*
G03X90340000Y-87000000I-5090000J0D01*
G01*
X85250000Y-81950000D02*
X85250000Y-92050000D01*
X85290000Y-81950000D02*
X85290000Y-92050000D01*
X85330000Y-81950000D02*
X85330000Y-92050000D01*
X85370000Y-81951000D02*
X85370000Y-92049000D01*
X85410000Y-81952000D02*
X85410000Y-92048000D01*
X85450000Y-81953000D02*
X85450000Y-92047000D01*
X85490000Y-81955000D02*
X85490000Y-92045000D01*
X85530000Y-81957000D02*
X85530000Y-86020000D01*
X85530000Y-87980000D02*
X85530000Y-92043000D01*
X85570000Y-81960000D02*
X85570000Y-86020000D01*
X85570000Y-87980000D02*
X85570000Y-92040000D01*
X85610000Y-81962000D02*
X85610000Y-86020000D01*
X85610000Y-87980000D02*
X85610000Y-92038000D01*
X85650000Y-81965000D02*
X85650000Y-86020000D01*
X85650000Y-87980000D02*
X85650000Y-92035000D01*
X85690000Y-81969000D02*
X85690000Y-86020000D01*
X85690000Y-87980000D02*
X85690000Y-92031000D01*
X85730000Y-81972000D02*
X85730000Y-86020000D01*
X85730000Y-87980000D02*
X85730000Y-92028000D01*
X85770000Y-81976000D02*
X85770000Y-86020000D01*
X85770000Y-87980000D02*
X85770000Y-92024000D01*
X85810000Y-81980000D02*
X85810000Y-86020000D01*
X85810000Y-87980000D02*
X85810000Y-92020000D01*
X85850000Y-81985000D02*
X85850000Y-86020000D01*
X85850000Y-87980000D02*
X85850000Y-92015000D01*
X85890000Y-81990000D02*
X85890000Y-86020000D01*
X85890000Y-87980000D02*
X85890000Y-92010000D01*
X85930000Y-81995000D02*
X85930000Y-86020000D01*
X85930000Y-87980000D02*
X85930000Y-92005000D01*
X85971000Y-82001000D02*
X85971000Y-86020000D01*
X85971000Y-87980000D02*
X85971000Y-91999000D01*
X86011000Y-82007000D02*
X86011000Y-86020000D01*
X86011000Y-87980000D02*
X86011000Y-91993000D01*
X86051000Y-82013000D02*
X86051000Y-86020000D01*
X86051000Y-87980000D02*
X86051000Y-91987000D01*
X86091000Y-82019000D02*
X86091000Y-86020000D01*
X86091000Y-87980000D02*
X86091000Y-91981000D01*
X86131000Y-82026000D02*
X86131000Y-86020000D01*
X86131000Y-87980000D02*
X86131000Y-91974000D01*
X86171000Y-82033000D02*
X86171000Y-86020000D01*
X86171000Y-87980000D02*
X86171000Y-91967000D01*
X86211000Y-82041000D02*
X86211000Y-86020000D01*
X86211000Y-89580000D02*
X86211000Y-91959000D01*
X86251000Y-82049000D02*
X86251000Y-86020000D01*
X86251000Y-89580000D02*
X86251000Y-91951000D01*
X86291000Y-82057000D02*
X86291000Y-86020000D01*
X86291000Y-89580000D02*
X86291000Y-91943000D01*
X86331000Y-82065000D02*
X86331000Y-86020000D01*
X86331000Y-89580000D02*
X86331000Y-91935000D01*
X86371000Y-82074000D02*
X86371000Y-86020000D01*
X86371000Y-89580000D02*
X86371000Y-91926000D01*
X86411000Y-82083000D02*
X86411000Y-86020000D01*
X86411000Y-89580000D02*
X86411000Y-91917000D01*
X86451000Y-82093000D02*
X86451000Y-86020000D01*
X86451000Y-89580000D02*
X86451000Y-91907000D01*
X86491000Y-82103000D02*
X86491000Y-86020000D01*
X86491000Y-89580000D02*
X86491000Y-91897000D01*
X86531000Y-82113000D02*
X86531000Y-86020000D01*
X86531000Y-89580000D02*
X86531000Y-91887000D01*
X86571000Y-82124000D02*
X86571000Y-86020000D01*
X86571000Y-89580000D02*
X86571000Y-91876000D01*
X86611000Y-82135000D02*
X86611000Y-86020000D01*
X86611000Y-89580000D02*
X86611000Y-91865000D01*
X86651000Y-82146000D02*
X86651000Y-86020000D01*
X86651000Y-89580000D02*
X86651000Y-91854000D01*
X86691000Y-82157000D02*
X86691000Y-86020000D01*
X86691000Y-89580000D02*
X86691000Y-91843000D01*
X86731000Y-82169000D02*
X86731000Y-86020000D01*
X86731000Y-89580000D02*
X86731000Y-91831000D01*
X86771000Y-82182000D02*
X86771000Y-86020000D01*
X86771000Y-89580000D02*
X86771000Y-91818000D01*
X86811000Y-82194000D02*
X86811000Y-86020000D01*
X86811000Y-89580000D02*
X86811000Y-91806000D01*
X86851000Y-82208000D02*
X86851000Y-86020000D01*
X86851000Y-89580000D02*
X86851000Y-91792000D01*
X86891000Y-82221000D02*
X86891000Y-86020000D01*
X86891000Y-89580000D02*
X86891000Y-91779000D01*
X86931000Y-82235000D02*
X86931000Y-86020000D01*
X86931000Y-89580000D02*
X86931000Y-91765000D01*
X86971000Y-82249000D02*
X86971000Y-86020000D01*
X86971000Y-89580000D02*
X86971000Y-91751000D01*
X87011000Y-82263000D02*
X87011000Y-86020000D01*
X87011000Y-89580000D02*
X87011000Y-91737000D01*
X87051000Y-82278000D02*
X87051000Y-86020000D01*
X87051000Y-89580000D02*
X87051000Y-91722000D01*
X87091000Y-82294000D02*
X87091000Y-86020000D01*
X87091000Y-89580000D02*
X87091000Y-91706000D01*
X87131000Y-82309000D02*
X87131000Y-86020000D01*
X87131000Y-89580000D02*
X87131000Y-91691000D01*
X87171000Y-82326000D02*
X87171000Y-86020000D01*
X87171000Y-89580000D02*
X87171000Y-91674000D01*
X87211000Y-82342000D02*
X87211000Y-86020000D01*
X87211000Y-89580000D02*
X87211000Y-91658000D01*
X87251000Y-82359000D02*
X87251000Y-86020000D01*
X87251000Y-89580000D02*
X87251000Y-91641000D01*
X87291000Y-82376000D02*
X87291000Y-86020000D01*
X87291000Y-89580000D02*
X87291000Y-91624000D01*
X87331000Y-82394000D02*
X87331000Y-86020000D01*
X87331000Y-89580000D02*
X87331000Y-91606000D01*
X87371000Y-82412000D02*
X87371000Y-86020000D01*
X87371000Y-89580000D02*
X87371000Y-91588000D01*
X87411000Y-82431000D02*
X87411000Y-86020000D01*
X87411000Y-89580000D02*
X87411000Y-91569000D01*
X87451000Y-82450000D02*
X87451000Y-86020000D01*
X87451000Y-89580000D02*
X87451000Y-91550000D01*
X87491000Y-82469000D02*
X87491000Y-87621000D01*
X87491000Y-89580000D02*
X87491000Y-91531000D01*
X87531000Y-82489000D02*
X87531000Y-87621000D01*
X87531000Y-89580000D02*
X87531000Y-91511000D01*
X87571000Y-82509000D02*
X87571000Y-87621000D01*
X87571000Y-89580000D02*
X87571000Y-91491000D01*
X87611000Y-82530000D02*
X87611000Y-87621000D01*
X87611000Y-89580000D02*
X87611000Y-91470000D01*
X87651000Y-82551000D02*
X87651000Y-87621000D01*
X87651000Y-89580000D02*
X87651000Y-91449000D01*
X87691000Y-82572000D02*
X87691000Y-87621000D01*
X87691000Y-89580000D02*
X87691000Y-91428000D01*
X87731000Y-82595000D02*
X87731000Y-87621000D01*
X87731000Y-89580000D02*
X87731000Y-91405000D01*
X87771000Y-82617000D02*
X87771000Y-87621000D01*
X87771000Y-89580000D02*
X87771000Y-91383000D01*
X87811000Y-82640000D02*
X87811000Y-87621000D01*
X87811000Y-89580000D02*
X87811000Y-91360000D01*
X87851000Y-82664000D02*
X87851000Y-87621000D01*
X87851000Y-89580000D02*
X87851000Y-91336000D01*
X87891000Y-82688000D02*
X87891000Y-87621000D01*
X87891000Y-89580000D02*
X87891000Y-91312000D01*
X87931000Y-82712000D02*
X87931000Y-87621000D01*
X87931000Y-89580000D02*
X87931000Y-91288000D01*
X87971000Y-82737000D02*
X87971000Y-87621000D01*
X87971000Y-89580000D02*
X87971000Y-91263000D01*
X88011000Y-82763000D02*
X88011000Y-87621000D01*
X88011000Y-89580000D02*
X88011000Y-91237000D01*
X88051000Y-82789000D02*
X88051000Y-87621000D01*
X88051000Y-89580000D02*
X88051000Y-91211000D01*
X88091000Y-82815000D02*
X88091000Y-87621000D01*
X88091000Y-89580000D02*
X88091000Y-91185000D01*
X88131000Y-82843000D02*
X88131000Y-87621000D01*
X88131000Y-89580000D02*
X88131000Y-91157000D01*
X88171000Y-82870000D02*
X88171000Y-91130000D01*
X88211000Y-82899000D02*
X88211000Y-91101000D01*
X88251000Y-82928000D02*
X88251000Y-91072000D01*
X88291000Y-82957000D02*
X88291000Y-91043000D01*
X88331000Y-82987000D02*
X88331000Y-91013000D01*
X88371000Y-83018000D02*
X88371000Y-90982000D01*
X88411000Y-83049000D02*
X88411000Y-90951000D01*
X88451000Y-83081000D02*
X88451000Y-90919000D01*
X88491000Y-83114000D02*
X88491000Y-90886000D01*
X88531000Y-83147000D02*
X88531000Y-90853000D01*
X88571000Y-83181000D02*
X88571000Y-90819000D01*
X88611000Y-83216000D02*
X88611000Y-90784000D01*
X88651000Y-83252000D02*
X88651000Y-90748000D01*
X88691000Y-83288000D02*
X88691000Y-90712000D01*
X88731000Y-83325000D02*
X88731000Y-90675000D01*
X88771000Y-83363000D02*
X88771000Y-90637000D01*
X88811000Y-83402000D02*
X88811000Y-90598000D01*
X88851000Y-83441000D02*
X88851000Y-90559000D01*
X88891000Y-83482000D02*
X88891000Y-90518000D01*
X88931000Y-83523000D02*
X88931000Y-90477000D01*
X88971000Y-83565000D02*
X88971000Y-90435000D01*
X89011000Y-83609000D02*
X89011000Y-90391000D01*
X89051000Y-83653000D02*
X89051000Y-90347000D01*
X89091000Y-83698000D02*
X89091000Y-90302000D01*
X89131000Y-83745000D02*
X89131000Y-90255000D01*
X89171000Y-83793000D02*
X89171000Y-90207000D01*
X89211000Y-83842000D02*
X89211000Y-90158000D01*
X89251000Y-83892000D02*
X89251000Y-90108000D01*
X89291000Y-83943000D02*
X89291000Y-90057000D01*
X89331000Y-83996000D02*
X89331000Y-90004000D01*
X89371000Y-84051000D02*
X89371000Y-89949000D01*
X89411000Y-84106000D02*
X89411000Y-89894000D01*
X89451000Y-84164000D02*
X89451000Y-89836000D01*
X89491000Y-84223000D02*
X89491000Y-89777000D01*
X89531000Y-84285000D02*
X89531000Y-89715000D01*
X89571000Y-84348000D02*
X89571000Y-89652000D01*
X89611000Y-84413000D02*
X89611000Y-89587000D01*
X89651000Y-84481000D02*
X89651000Y-89519000D01*
X89691000Y-84551000D02*
X89691000Y-89449000D01*
X89731000Y-84623000D02*
X89731000Y-89377000D01*
X89771000Y-84699000D02*
X89771000Y-89301000D01*
X89811000Y-84778000D02*
X89811000Y-89222000D01*
X89851000Y-84860000D02*
X89851000Y-89140000D01*
X89891000Y-84947000D02*
X89891000Y-89053000D01*
X89931000Y-85038000D02*
X89931000Y-88962000D01*
X89971000Y-85134000D02*
X89971000Y-88866000D01*
X90011000Y-85237000D02*
X90011000Y-88763000D01*
X90051000Y-85346000D02*
X90051000Y-88654000D01*
X90091000Y-85464000D02*
X90091000Y-88536000D01*
X90131000Y-85593000D02*
X90131000Y-88407000D01*
X90171000Y-85735000D02*
X90171000Y-88265000D01*
X90211000Y-85896000D02*
X90211000Y-88104000D01*
X90251000Y-86087000D02*
X90251000Y-87913000D01*
X90291000Y-86328000D02*
X90291000Y-87672000D01*
X90331000Y-86721000D02*
X90331000Y-87279000D01*
X81800000Y-87000000D02*
X83000000Y-87000000D01*
X82400000Y-86350000D02*
X82400000Y-87650000D01*
D12*
X126850155Y-70749647D02*
G75*
G03X126850000Y-69250000I-1700155J749647D01*
G01*
X126850155Y-75829647D02*
G75*
G03X126850000Y-74330000I-1700155J749647D01*
G01*
X126850155Y-80909647D02*
G75*
G03X126850000Y-79410000I-1700155J749647D01*
G01*
X133430000Y-67380000D02*
X126020000Y-67380000D01*
X126020000Y-67380000D02*
X126020000Y-82780000D01*
X126020000Y-82780000D02*
X133430000Y-82780000D01*
X133430000Y-82780000D02*
X133430000Y-67380000D01*
X126850000Y-69250000D02*
X126850000Y-68500000D01*
X126850000Y-68500000D02*
X131150000Y-68500000D01*
X131150000Y-68500000D02*
X131150000Y-69250000D01*
X131150000Y-69250000D02*
X131500000Y-69250000D01*
X131500000Y-69250000D02*
X131500000Y-68750000D01*
X131500000Y-68750000D02*
X132500000Y-68500000D01*
X132500000Y-68500000D02*
X132500000Y-71500000D01*
X132500000Y-71500000D02*
X131500000Y-71250000D01*
X131500000Y-71250000D02*
X131500000Y-70750000D01*
X131500000Y-70750000D02*
X131150000Y-70750000D01*
X131150000Y-70750000D02*
X131150000Y-70750000D01*
X131150000Y-70750000D02*
X131150000Y-71500000D01*
X131150000Y-71500000D02*
X126850000Y-71500000D01*
X126850000Y-71500000D02*
X126850000Y-70750000D01*
X126850000Y-74330000D02*
X126850000Y-73580000D01*
X126850000Y-73580000D02*
X131150000Y-73580000D01*
X131150000Y-73580000D02*
X131150000Y-74330000D01*
X131150000Y-74330000D02*
X131500000Y-74330000D01*
X131500000Y-74330000D02*
X131500000Y-73830000D01*
X131500000Y-73830000D02*
X132500000Y-73580000D01*
X132500000Y-73580000D02*
X132500000Y-76580000D01*
X132500000Y-76580000D02*
X131500000Y-76330000D01*
X131500000Y-76330000D02*
X131500000Y-75830000D01*
X131500000Y-75830000D02*
X131150000Y-75830000D01*
X131150000Y-75830000D02*
X131150000Y-75830000D01*
X131150000Y-75830000D02*
X131150000Y-76580000D01*
X131150000Y-76580000D02*
X126850000Y-76580000D01*
X126850000Y-76580000D02*
X126850000Y-75830000D01*
X126850000Y-79410000D02*
X126850000Y-78660000D01*
X126850000Y-78660000D02*
X131150000Y-78660000D01*
X131150000Y-78660000D02*
X131150000Y-79410000D01*
X131150000Y-79410000D02*
X131500000Y-79410000D01*
X131500000Y-79410000D02*
X131500000Y-78910000D01*
X131500000Y-78910000D02*
X132500000Y-78660000D01*
X132500000Y-78660000D02*
X132500000Y-81660000D01*
X132500000Y-81660000D02*
X131500000Y-81410000D01*
X131500000Y-81410000D02*
X131500000Y-80910000D01*
X131500000Y-80910000D02*
X131150000Y-80910000D01*
X131150000Y-80910000D02*
X131150000Y-80910000D01*
X131150000Y-80910000D02*
X131150000Y-81660000D01*
X131150000Y-81660000D02*
X126850000Y-81660000D01*
X126850000Y-81660000D02*
X126850000Y-80910000D01*
X133850000Y-70000000D02*
X134450000Y-70300000D01*
X134450000Y-70300000D02*
X134450000Y-69700000D01*
X134450000Y-69700000D02*
X133850000Y-70000000D01*
D11*
X75840000Y-93210000D02*
X79160000Y-93210000D01*
X79160000Y-93210000D02*
X79160000Y-84090000D01*
X79160000Y-84090000D02*
X75840000Y-84090000D01*
X75840000Y-84090000D02*
X75840000Y-93210000D01*
X77500000Y-94020000D02*
X77500000Y-93210000D01*
X77500000Y-83280000D02*
X77500000Y-84090000D01*
X101840000Y-87000000D02*
G75*
G03X101840000Y-87000000I-5090000J0D01*
G01*
X96750000Y-81950000D02*
X96750000Y-92050000D01*
X96790000Y-81950000D02*
X96790000Y-92050000D01*
X96830000Y-81950000D02*
X96830000Y-92050000D01*
X96870000Y-81951000D02*
X96870000Y-92049000D01*
X96910000Y-81952000D02*
X96910000Y-92048000D01*
X96950000Y-81953000D02*
X96950000Y-92047000D01*
X96990000Y-81955000D02*
X96990000Y-92045000D01*
X97030000Y-81957000D02*
X97030000Y-86020000D01*
X97030000Y-87980000D02*
X97030000Y-92043000D01*
X97070000Y-81960000D02*
X97070000Y-86020000D01*
X97070000Y-87980000D02*
X97070000Y-92040000D01*
X97110000Y-81962000D02*
X97110000Y-86020000D01*
X97110000Y-87980000D02*
X97110000Y-92038000D01*
X97150000Y-81965000D02*
X97150000Y-86020000D01*
X97150000Y-87980000D02*
X97150000Y-92035000D01*
X97190000Y-81969000D02*
X97190000Y-86020000D01*
X97190000Y-87980000D02*
X97190000Y-92031000D01*
X97230000Y-81972000D02*
X97230000Y-86020000D01*
X97230000Y-87980000D02*
X97230000Y-92028000D01*
X97270000Y-81976000D02*
X97270000Y-86020000D01*
X97270000Y-87980000D02*
X97270000Y-92024000D01*
X97310000Y-81980000D02*
X97310000Y-86020000D01*
X97310000Y-87980000D02*
X97310000Y-92020000D01*
X97350000Y-81985000D02*
X97350000Y-86020000D01*
X97350000Y-87980000D02*
X97350000Y-92015000D01*
X97390000Y-81990000D02*
X97390000Y-86020000D01*
X97390000Y-87980000D02*
X97390000Y-92010000D01*
X97430000Y-81995000D02*
X97430000Y-86020000D01*
X97430000Y-87980000D02*
X97430000Y-92005000D01*
X97471000Y-82001000D02*
X97471000Y-86020000D01*
X97471000Y-87980000D02*
X97471000Y-91999000D01*
X97511000Y-82007000D02*
X97511000Y-86020000D01*
X97511000Y-87980000D02*
X97511000Y-91993000D01*
X97551000Y-82013000D02*
X97551000Y-86020000D01*
X97551000Y-87980000D02*
X97551000Y-91987000D01*
X97591000Y-82019000D02*
X97591000Y-86020000D01*
X97591000Y-87980000D02*
X97591000Y-91981000D01*
X97631000Y-82026000D02*
X97631000Y-86020000D01*
X97631000Y-87980000D02*
X97631000Y-91974000D01*
X97671000Y-82033000D02*
X97671000Y-86020000D01*
X97671000Y-87980000D02*
X97671000Y-91967000D01*
X97711000Y-82041000D02*
X97711000Y-86020000D01*
X97711000Y-89580000D02*
X97711000Y-91959000D01*
X97751000Y-82049000D02*
X97751000Y-86020000D01*
X97751000Y-89580000D02*
X97751000Y-91951000D01*
X97791000Y-82057000D02*
X97791000Y-86020000D01*
X97791000Y-89580000D02*
X97791000Y-91943000D01*
X97831000Y-82065000D02*
X97831000Y-86020000D01*
X97831000Y-89580000D02*
X97831000Y-91935000D01*
X97871000Y-82074000D02*
X97871000Y-86020000D01*
X97871000Y-89580000D02*
X97871000Y-91926000D01*
X97911000Y-82083000D02*
X97911000Y-86020000D01*
X97911000Y-89580000D02*
X97911000Y-91917000D01*
X97951000Y-82093000D02*
X97951000Y-86020000D01*
X97951000Y-89580000D02*
X97951000Y-91907000D01*
X97991000Y-82103000D02*
X97991000Y-86020000D01*
X97991000Y-89580000D02*
X97991000Y-91897000D01*
X98031000Y-82113000D02*
X98031000Y-86020000D01*
X98031000Y-89580000D02*
X98031000Y-91887000D01*
X98071000Y-82124000D02*
X98071000Y-86020000D01*
X98071000Y-89580000D02*
X98071000Y-91876000D01*
X98111000Y-82135000D02*
X98111000Y-86020000D01*
X98111000Y-89580000D02*
X98111000Y-91865000D01*
X98151000Y-82146000D02*
X98151000Y-86020000D01*
X98151000Y-89580000D02*
X98151000Y-91854000D01*
X98191000Y-82157000D02*
X98191000Y-86020000D01*
X98191000Y-89580000D02*
X98191000Y-91843000D01*
X98231000Y-82169000D02*
X98231000Y-86020000D01*
X98231000Y-89580000D02*
X98231000Y-91831000D01*
X98271000Y-82182000D02*
X98271000Y-86020000D01*
X98271000Y-89580000D02*
X98271000Y-91818000D01*
X98311000Y-82194000D02*
X98311000Y-86020000D01*
X98311000Y-89580000D02*
X98311000Y-91806000D01*
X98351000Y-82208000D02*
X98351000Y-86020000D01*
X98351000Y-89580000D02*
X98351000Y-91792000D01*
X98391000Y-82221000D02*
X98391000Y-86020000D01*
X98391000Y-89580000D02*
X98391000Y-91779000D01*
X98431000Y-82235000D02*
X98431000Y-86020000D01*
X98431000Y-89580000D02*
X98431000Y-91765000D01*
X98471000Y-82249000D02*
X98471000Y-86020000D01*
X98471000Y-89580000D02*
X98471000Y-91751000D01*
X98511000Y-82263000D02*
X98511000Y-86020000D01*
X98511000Y-89580000D02*
X98511000Y-91737000D01*
X98551000Y-82278000D02*
X98551000Y-86020000D01*
X98551000Y-89580000D02*
X98551000Y-91722000D01*
X98591000Y-82294000D02*
X98591000Y-86020000D01*
X98591000Y-89580000D02*
X98591000Y-91706000D01*
X98631000Y-82309000D02*
X98631000Y-86020000D01*
X98631000Y-89580000D02*
X98631000Y-91691000D01*
X98671000Y-82326000D02*
X98671000Y-86020000D01*
X98671000Y-89580000D02*
X98671000Y-91674000D01*
X98711000Y-82342000D02*
X98711000Y-86020000D01*
X98711000Y-89580000D02*
X98711000Y-91658000D01*
X98751000Y-82359000D02*
X98751000Y-86020000D01*
X98751000Y-89580000D02*
X98751000Y-91641000D01*
X98791000Y-82376000D02*
X98791000Y-86020000D01*
X98791000Y-89580000D02*
X98791000Y-91624000D01*
X98831000Y-82394000D02*
X98831000Y-86020000D01*
X98831000Y-89580000D02*
X98831000Y-91606000D01*
X98871000Y-82412000D02*
X98871000Y-86020000D01*
X98871000Y-89580000D02*
X98871000Y-91588000D01*
X98911000Y-82431000D02*
X98911000Y-86020000D01*
X98911000Y-89580000D02*
X98911000Y-91569000D01*
X98951000Y-82450000D02*
X98951000Y-86020000D01*
X98951000Y-89580000D02*
X98951000Y-91550000D01*
X98991000Y-82469000D02*
X98991000Y-87621000D01*
X98991000Y-89580000D02*
X98991000Y-91531000D01*
X99031000Y-82489000D02*
X99031000Y-87621000D01*
X99031000Y-89580000D02*
X99031000Y-91511000D01*
X99071000Y-82509000D02*
X99071000Y-87621000D01*
X99071000Y-89580000D02*
X99071000Y-91491000D01*
X99111000Y-82530000D02*
X99111000Y-87621000D01*
X99111000Y-89580000D02*
X99111000Y-91470000D01*
X99151000Y-82551000D02*
X99151000Y-87621000D01*
X99151000Y-89580000D02*
X99151000Y-91449000D01*
X99191000Y-82572000D02*
X99191000Y-87621000D01*
X99191000Y-89580000D02*
X99191000Y-91428000D01*
X99231000Y-82595000D02*
X99231000Y-87621000D01*
X99231000Y-89580000D02*
X99231000Y-91405000D01*
X99271000Y-82617000D02*
X99271000Y-87621000D01*
X99271000Y-89580000D02*
X99271000Y-91383000D01*
X99311000Y-82640000D02*
X99311000Y-87621000D01*
X99311000Y-89580000D02*
X99311000Y-91360000D01*
X99351000Y-82664000D02*
X99351000Y-87621000D01*
X99351000Y-89580000D02*
X99351000Y-91336000D01*
X99391000Y-82688000D02*
X99391000Y-87621000D01*
X99391000Y-89580000D02*
X99391000Y-91312000D01*
X99431000Y-82712000D02*
X99431000Y-87621000D01*
X99431000Y-89580000D02*
X99431000Y-91288000D01*
X99471000Y-82737000D02*
X99471000Y-87621000D01*
X99471000Y-89580000D02*
X99471000Y-91263000D01*
X99511000Y-82763000D02*
X99511000Y-87621000D01*
X99511000Y-89580000D02*
X99511000Y-91237000D01*
X99551000Y-82789000D02*
X99551000Y-87621000D01*
X99551000Y-89580000D02*
X99551000Y-91211000D01*
X99591000Y-82815000D02*
X99591000Y-87621000D01*
X99591000Y-89580000D02*
X99591000Y-91185000D01*
X99631000Y-82843000D02*
X99631000Y-87621000D01*
X99631000Y-89580000D02*
X99631000Y-91157000D01*
X99671000Y-82870000D02*
X99671000Y-91130000D01*
X99711000Y-82899000D02*
X99711000Y-91101000D01*
X99751000Y-82928000D02*
X99751000Y-91072000D01*
X99791000Y-82957000D02*
X99791000Y-91043000D01*
X99831000Y-82987000D02*
X99831000Y-91013000D01*
X99871000Y-83018000D02*
X99871000Y-90982000D01*
X99911000Y-83049000D02*
X99911000Y-90951000D01*
X99951000Y-83081000D02*
X99951000Y-90919000D01*
X99991000Y-83114000D02*
X99991000Y-90886000D01*
X100031000Y-83147000D02*
X100031000Y-90853000D01*
X100071000Y-83181000D02*
X100071000Y-90819000D01*
X100111000Y-83216000D02*
X100111000Y-90784000D01*
X100151000Y-83252000D02*
X100151000Y-90748000D01*
X100191000Y-83288000D02*
X100191000Y-90712000D01*
X100231000Y-83325000D02*
X100231000Y-90675000D01*
X100271000Y-83363000D02*
X100271000Y-90637000D01*
X100311000Y-83402000D02*
X100311000Y-90598000D01*
X100351000Y-83441000D02*
X100351000Y-90559000D01*
X100391000Y-83482000D02*
X100391000Y-90518000D01*
X100431000Y-83523000D02*
X100431000Y-90477000D01*
X100471000Y-83565000D02*
X100471000Y-90435000D01*
X100511000Y-83609000D02*
X100511000Y-90391000D01*
X100551000Y-83653000D02*
X100551000Y-90347000D01*
X100591000Y-83698000D02*
X100591000Y-90302000D01*
X100631000Y-83745000D02*
X100631000Y-90255000D01*
X100671000Y-83793000D02*
X100671000Y-90207000D01*
X100711000Y-83842000D02*
X100711000Y-90158000D01*
X100751000Y-83892000D02*
X100751000Y-90108000D01*
X100791000Y-83943000D02*
X100791000Y-90057000D01*
X100831000Y-83996000D02*
X100831000Y-90004000D01*
X100871000Y-84051000D02*
X100871000Y-89949000D01*
X100911000Y-84106000D02*
X100911000Y-89894000D01*
X100951000Y-84164000D02*
X100951000Y-89836000D01*
X100991000Y-84223000D02*
X100991000Y-89777000D01*
X101031000Y-84285000D02*
X101031000Y-89715000D01*
X101071000Y-84348000D02*
X101071000Y-89652000D01*
X101111000Y-84413000D02*
X101111000Y-89587000D01*
X101151000Y-84481000D02*
X101151000Y-89519000D01*
X101191000Y-84551000D02*
X101191000Y-89449000D01*
X101231000Y-84623000D02*
X101231000Y-89377000D01*
X101271000Y-84699000D02*
X101271000Y-89301000D01*
X101311000Y-84778000D02*
X101311000Y-89222000D01*
X101351000Y-84860000D02*
X101351000Y-89140000D01*
X101391000Y-84947000D02*
X101391000Y-89053000D01*
X101431000Y-85038000D02*
X101431000Y-88962000D01*
X101471000Y-85134000D02*
X101471000Y-88866000D01*
X101511000Y-85237000D02*
X101511000Y-88763000D01*
X101551000Y-85346000D02*
X101551000Y-88654000D01*
X101591000Y-85464000D02*
X101591000Y-88536000D01*
X101631000Y-85593000D02*
X101631000Y-88407000D01*
X101671000Y-85735000D02*
X101671000Y-88265000D01*
X101711000Y-85896000D02*
X101711000Y-88104000D01*
X101751000Y-86087000D02*
X101751000Y-87913000D01*
X101791000Y-86328000D02*
X101791000Y-87672000D01*
X101831000Y-86721000D02*
X101831000Y-87279000D01*
X93300000Y-87000000D02*
X94500000Y-87000000D01*
X93900000Y-86350000D02*
X93900000Y-87650000D01*
X113340000Y-87000000D02*
G75*
G03X113340000Y-87000000I-5090000J0D01*
G01*
X108250000Y-81950000D02*
X108250000Y-92050000D01*
X108290000Y-81950000D02*
X108290000Y-92050000D01*
X108330000Y-81950000D02*
X108330000Y-92050000D01*
X108370000Y-81951000D02*
X108370000Y-92049000D01*
X108410000Y-81952000D02*
X108410000Y-92048000D01*
X108450000Y-81953000D02*
X108450000Y-92047000D01*
X108490000Y-81955000D02*
X108490000Y-92045000D01*
X108530000Y-81957000D02*
X108530000Y-86020000D01*
X108530000Y-87980000D02*
X108530000Y-92043000D01*
X108570000Y-81960000D02*
X108570000Y-86020000D01*
X108570000Y-87980000D02*
X108570000Y-92040000D01*
X108610000Y-81962000D02*
X108610000Y-86020000D01*
X108610000Y-87980000D02*
X108610000Y-92038000D01*
X108650000Y-81965000D02*
X108650000Y-86020000D01*
X108650000Y-87980000D02*
X108650000Y-92035000D01*
X108690000Y-81969000D02*
X108690000Y-86020000D01*
X108690000Y-87980000D02*
X108690000Y-92031000D01*
X108730000Y-81972000D02*
X108730000Y-86020000D01*
X108730000Y-87980000D02*
X108730000Y-92028000D01*
X108770000Y-81976000D02*
X108770000Y-86020000D01*
X108770000Y-87980000D02*
X108770000Y-92024000D01*
X108810000Y-81980000D02*
X108810000Y-86020000D01*
X108810000Y-87980000D02*
X108810000Y-92020000D01*
X108850000Y-81985000D02*
X108850000Y-86020000D01*
X108850000Y-87980000D02*
X108850000Y-92015000D01*
X108890000Y-81990000D02*
X108890000Y-86020000D01*
X108890000Y-87980000D02*
X108890000Y-92010000D01*
X108930000Y-81995000D02*
X108930000Y-86020000D01*
X108930000Y-87980000D02*
X108930000Y-92005000D01*
X108971000Y-82001000D02*
X108971000Y-86020000D01*
X108971000Y-87980000D02*
X108971000Y-91999000D01*
X109011000Y-82007000D02*
X109011000Y-86020000D01*
X109011000Y-87980000D02*
X109011000Y-91993000D01*
X109051000Y-82013000D02*
X109051000Y-86020000D01*
X109051000Y-87980000D02*
X109051000Y-91987000D01*
X109091000Y-82019000D02*
X109091000Y-86020000D01*
X109091000Y-87980000D02*
X109091000Y-91981000D01*
X109131000Y-82026000D02*
X109131000Y-86020000D01*
X109131000Y-87980000D02*
X109131000Y-91974000D01*
X109171000Y-82033000D02*
X109171000Y-86020000D01*
X109171000Y-87980000D02*
X109171000Y-91967000D01*
X109211000Y-82041000D02*
X109211000Y-86020000D01*
X109211000Y-89580000D02*
X109211000Y-91959000D01*
X109251000Y-82049000D02*
X109251000Y-86020000D01*
X109251000Y-89580000D02*
X109251000Y-91951000D01*
X109291000Y-82057000D02*
X109291000Y-86020000D01*
X109291000Y-89580000D02*
X109291000Y-91943000D01*
X109331000Y-82065000D02*
X109331000Y-86020000D01*
X109331000Y-89580000D02*
X109331000Y-91935000D01*
X109371000Y-82074000D02*
X109371000Y-86020000D01*
X109371000Y-89580000D02*
X109371000Y-91926000D01*
X109411000Y-82083000D02*
X109411000Y-86020000D01*
X109411000Y-89580000D02*
X109411000Y-91917000D01*
X109451000Y-82093000D02*
X109451000Y-86020000D01*
X109451000Y-89580000D02*
X109451000Y-91907000D01*
X109491000Y-82103000D02*
X109491000Y-86020000D01*
X109491000Y-89580000D02*
X109491000Y-91897000D01*
X109531000Y-82113000D02*
X109531000Y-86020000D01*
X109531000Y-89580000D02*
X109531000Y-91887000D01*
X109571000Y-82124000D02*
X109571000Y-86020000D01*
X109571000Y-89580000D02*
X109571000Y-91876000D01*
X109611000Y-82135000D02*
X109611000Y-86020000D01*
X109611000Y-89580000D02*
X109611000Y-91865000D01*
X109651000Y-82146000D02*
X109651000Y-86020000D01*
X109651000Y-89580000D02*
X109651000Y-91854000D01*
X109691000Y-82157000D02*
X109691000Y-86020000D01*
X109691000Y-89580000D02*
X109691000Y-91843000D01*
X109731000Y-82169000D02*
X109731000Y-86020000D01*
X109731000Y-89580000D02*
X109731000Y-91831000D01*
X109771000Y-82182000D02*
X109771000Y-86020000D01*
X109771000Y-89580000D02*
X109771000Y-91818000D01*
X109811000Y-82194000D02*
X109811000Y-86020000D01*
X109811000Y-89580000D02*
X109811000Y-91806000D01*
X109851000Y-82208000D02*
X109851000Y-86020000D01*
X109851000Y-89580000D02*
X109851000Y-91792000D01*
X109891000Y-82221000D02*
X109891000Y-86020000D01*
X109891000Y-89580000D02*
X109891000Y-91779000D01*
X109931000Y-82235000D02*
X109931000Y-86020000D01*
X109931000Y-89580000D02*
X109931000Y-91765000D01*
X109971000Y-82249000D02*
X109971000Y-86020000D01*
X109971000Y-89580000D02*
X109971000Y-91751000D01*
X110011000Y-82263000D02*
X110011000Y-86020000D01*
X110011000Y-89580000D02*
X110011000Y-91737000D01*
X110051000Y-82278000D02*
X110051000Y-86020000D01*
X110051000Y-89580000D02*
X110051000Y-91722000D01*
X110091000Y-82294000D02*
X110091000Y-86020000D01*
X110091000Y-89580000D02*
X110091000Y-91706000D01*
X110131000Y-82309000D02*
X110131000Y-86020000D01*
X110131000Y-89580000D02*
X110131000Y-91691000D01*
X110171000Y-82326000D02*
X110171000Y-86020000D01*
X110171000Y-89580000D02*
X110171000Y-91674000D01*
X110211000Y-82342000D02*
X110211000Y-86020000D01*
X110211000Y-89580000D02*
X110211000Y-91658000D01*
X110251000Y-82359000D02*
X110251000Y-86020000D01*
X110251000Y-89580000D02*
X110251000Y-91641000D01*
X110291000Y-82376000D02*
X110291000Y-86020000D01*
X110291000Y-89580000D02*
X110291000Y-91624000D01*
X110331000Y-82394000D02*
X110331000Y-86020000D01*
X110331000Y-89580000D02*
X110331000Y-91606000D01*
X110371000Y-82412000D02*
X110371000Y-86020000D01*
X110371000Y-89580000D02*
X110371000Y-91588000D01*
X110411000Y-82431000D02*
X110411000Y-86020000D01*
X110411000Y-89580000D02*
X110411000Y-91569000D01*
X110451000Y-82450000D02*
X110451000Y-86020000D01*
X110451000Y-89580000D02*
X110451000Y-91550000D01*
X110491000Y-82469000D02*
X110491000Y-87621000D01*
X110491000Y-89580000D02*
X110491000Y-91531000D01*
X110531000Y-82489000D02*
X110531000Y-87621000D01*
X110531000Y-89580000D02*
X110531000Y-91511000D01*
X110571000Y-82509000D02*
X110571000Y-87621000D01*
X110571000Y-89580000D02*
X110571000Y-91491000D01*
X110611000Y-82530000D02*
X110611000Y-87621000D01*
X110611000Y-89580000D02*
X110611000Y-91470000D01*
X110651000Y-82551000D02*
X110651000Y-87621000D01*
X110651000Y-89580000D02*
X110651000Y-91449000D01*
X110691000Y-82572000D02*
X110691000Y-87621000D01*
X110691000Y-89580000D02*
X110691000Y-91428000D01*
X110731000Y-82595000D02*
X110731000Y-87621000D01*
X110731000Y-89580000D02*
X110731000Y-91405000D01*
X110771000Y-82617000D02*
X110771000Y-87621000D01*
X110771000Y-89580000D02*
X110771000Y-91383000D01*
X110811000Y-82640000D02*
X110811000Y-87621000D01*
X110811000Y-89580000D02*
X110811000Y-91360000D01*
X110851000Y-82664000D02*
X110851000Y-87621000D01*
X110851000Y-89580000D02*
X110851000Y-91336000D01*
X110891000Y-82688000D02*
X110891000Y-87621000D01*
X110891000Y-89580000D02*
X110891000Y-91312000D01*
X110931000Y-82712000D02*
X110931000Y-87621000D01*
X110931000Y-89580000D02*
X110931000Y-91288000D01*
X110971000Y-82737000D02*
X110971000Y-87621000D01*
X110971000Y-89580000D02*
X110971000Y-91263000D01*
X111011000Y-82763000D02*
X111011000Y-87621000D01*
X111011000Y-89580000D02*
X111011000Y-91237000D01*
X111051000Y-82789000D02*
X111051000Y-87621000D01*
X111051000Y-89580000D02*
X111051000Y-91211000D01*
X111091000Y-82815000D02*
X111091000Y-87621000D01*
X111091000Y-89580000D02*
X111091000Y-91185000D01*
X111131000Y-82843000D02*
X111131000Y-87621000D01*
X111131000Y-89580000D02*
X111131000Y-91157000D01*
X111171000Y-82870000D02*
X111171000Y-91130000D01*
X111211000Y-82899000D02*
X111211000Y-91101000D01*
X111251000Y-82928000D02*
X111251000Y-91072000D01*
X111291000Y-82957000D02*
X111291000Y-91043000D01*
X111331000Y-82987000D02*
X111331000Y-91013000D01*
X111371000Y-83018000D02*
X111371000Y-90982000D01*
X111411000Y-83049000D02*
X111411000Y-90951000D01*
X111451000Y-83081000D02*
X111451000Y-90919000D01*
X111491000Y-83114000D02*
X111491000Y-90886000D01*
X111531000Y-83147000D02*
X111531000Y-90853000D01*
X111571000Y-83181000D02*
X111571000Y-90819000D01*
X111611000Y-83216000D02*
X111611000Y-90784000D01*
X111651000Y-83252000D02*
X111651000Y-90748000D01*
X111691000Y-83288000D02*
X111691000Y-90712000D01*
X111731000Y-83325000D02*
X111731000Y-90675000D01*
X111771000Y-83363000D02*
X111771000Y-90637000D01*
X111811000Y-83402000D02*
X111811000Y-90598000D01*
X111851000Y-83441000D02*
X111851000Y-90559000D01*
X111891000Y-83482000D02*
X111891000Y-90518000D01*
X111931000Y-83523000D02*
X111931000Y-90477000D01*
X111971000Y-83565000D02*
X111971000Y-90435000D01*
X112011000Y-83609000D02*
X112011000Y-90391000D01*
X112051000Y-83653000D02*
X112051000Y-90347000D01*
X112091000Y-83698000D02*
X112091000Y-90302000D01*
X112131000Y-83745000D02*
X112131000Y-90255000D01*
X112171000Y-83793000D02*
X112171000Y-90207000D01*
X112211000Y-83842000D02*
X112211000Y-90158000D01*
X112251000Y-83892000D02*
X112251000Y-90108000D01*
X112291000Y-83943000D02*
X112291000Y-90057000D01*
X112331000Y-83996000D02*
X112331000Y-90004000D01*
X112371000Y-84051000D02*
X112371000Y-89949000D01*
X112411000Y-84106000D02*
X112411000Y-89894000D01*
X112451000Y-84164000D02*
X112451000Y-89836000D01*
X112491000Y-84223000D02*
X112491000Y-89777000D01*
X112531000Y-84285000D02*
X112531000Y-89715000D01*
X112571000Y-84348000D02*
X112571000Y-89652000D01*
X112611000Y-84413000D02*
X112611000Y-89587000D01*
X112651000Y-84481000D02*
X112651000Y-89519000D01*
X112691000Y-84551000D02*
X112691000Y-89449000D01*
X112731000Y-84623000D02*
X112731000Y-89377000D01*
X112771000Y-84699000D02*
X112771000Y-89301000D01*
X112811000Y-84778000D02*
X112811000Y-89222000D01*
X112851000Y-84860000D02*
X112851000Y-89140000D01*
X112891000Y-84947000D02*
X112891000Y-89053000D01*
X112931000Y-85038000D02*
X112931000Y-88962000D01*
X112971000Y-85134000D02*
X112971000Y-88866000D01*
X113011000Y-85237000D02*
X113011000Y-88763000D01*
X113051000Y-85346000D02*
X113051000Y-88654000D01*
X113091000Y-85464000D02*
X113091000Y-88536000D01*
X113131000Y-85593000D02*
X113131000Y-88407000D01*
X113171000Y-85735000D02*
X113171000Y-88265000D01*
X113211000Y-85896000D02*
X113211000Y-88104000D01*
X113251000Y-86087000D02*
X113251000Y-87913000D01*
X113291000Y-86328000D02*
X113291000Y-87672000D01*
X113331000Y-86721000D02*
X113331000Y-87279000D01*
X104800000Y-87000000D02*
X106000000Y-87000000D01*
X105400000Y-86350000D02*
X105400000Y-87650000D01*
D12*
X86620000Y-99997460D02*
X87636000Y-99997460D01*
X81794000Y-99997460D02*
X80524000Y-99997460D01*
X82048000Y-98727460D02*
X82048000Y-101267460D01*
X82302000Y-98727460D02*
X82302000Y-101267460D01*
X82556000Y-98727460D02*
X82556000Y-101267460D01*
X81794000Y-98727460D02*
X81794000Y-101267460D01*
X82810000Y-98727460D02*
X81540000Y-101267460D01*
X81540000Y-98727460D02*
X82810000Y-101267460D01*
X82810000Y-98727460D02*
X82810000Y-101267460D01*
X82175000Y-98727460D02*
X82175000Y-101267460D01*
X81540000Y-101267460D02*
X81540000Y-98727460D01*
X81540000Y-98727460D02*
X86620000Y-98727460D01*
X86620000Y-98727460D02*
X86620000Y-101267460D01*
X86620000Y-101267460D02*
X81540000Y-101267460D01*
X77380000Y-105002540D02*
X76364000Y-105002540D01*
X82206000Y-105002540D02*
X83476000Y-105002540D01*
X81952000Y-106272540D02*
X81952000Y-103732540D01*
X81698000Y-106272540D02*
X81698000Y-103732540D01*
X81444000Y-106272540D02*
X81444000Y-103732540D01*
X82206000Y-106272540D02*
X82206000Y-103732540D01*
X81190000Y-106272540D02*
X82460000Y-103732540D01*
X82460000Y-106272540D02*
X81190000Y-103732540D01*
X81190000Y-106272540D02*
X81190000Y-103732540D01*
X81825000Y-106272540D02*
X81825000Y-103732540D01*
X82460000Y-103732540D02*
X82460000Y-106272540D01*
X82460000Y-106272540D02*
X77380000Y-106272540D01*
X77380000Y-106272540D02*
X77380000Y-103732540D01*
X77380000Y-103732540D02*
X82460000Y-103732540D01*
X61649845Y-78250353D02*
G75*
G03X61650000Y-79750000I1700155J-749647D01*
G01*
X61649845Y-73170353D02*
G75*
G03X61650000Y-74670000I1700155J-749647D01*
G01*
X61649845Y-68090353D02*
G75*
G03X61650000Y-69590000I1700155J-749647D01*
G01*
X55070000Y-81620000D02*
X62480000Y-81620000D01*
X62480000Y-81620000D02*
X62480000Y-66220000D01*
X62480000Y-66220000D02*
X55070000Y-66220000D01*
X55070000Y-66220000D02*
X55070000Y-81620000D01*
X61650000Y-79750000D02*
X61650000Y-80500000D01*
X61650000Y-80500000D02*
X57350000Y-80500000D01*
X57350000Y-80500000D02*
X57350000Y-79750000D01*
X57350000Y-79750000D02*
X57000000Y-79750000D01*
X57000000Y-79750000D02*
X57000000Y-80250000D01*
X57000000Y-80250000D02*
X56000000Y-80500000D01*
X56000000Y-80500000D02*
X56000000Y-77500000D01*
X56000000Y-77500000D02*
X57000000Y-77750000D01*
X57000000Y-77750000D02*
X57000000Y-78250000D01*
X57000000Y-78250000D02*
X57350000Y-78250000D01*
X57350000Y-78250000D02*
X57350000Y-78250000D01*
X57350000Y-78250000D02*
X57350000Y-77500000D01*
X57350000Y-77500000D02*
X61650000Y-77500000D01*
X61650000Y-77500000D02*
X61650000Y-78250000D01*
X61650000Y-74670000D02*
X61650000Y-75420000D01*
X61650000Y-75420000D02*
X57350000Y-75420000D01*
X57350000Y-75420000D02*
X57350000Y-74670000D01*
X57350000Y-74670000D02*
X57000000Y-74670000D01*
X57000000Y-74670000D02*
X57000000Y-75170000D01*
X57000000Y-75170000D02*
X56000000Y-75420000D01*
X56000000Y-75420000D02*
X56000000Y-72420000D01*
X56000000Y-72420000D02*
X57000000Y-72670000D01*
X57000000Y-72670000D02*
X57000000Y-73170000D01*
X57000000Y-73170000D02*
X57350000Y-73170000D01*
X57350000Y-73170000D02*
X57350000Y-73170000D01*
X57350000Y-73170000D02*
X57350000Y-72420000D01*
X57350000Y-72420000D02*
X61650000Y-72420000D01*
X61650000Y-72420000D02*
X61650000Y-73170000D01*
X61650000Y-69590000D02*
X61650000Y-70340000D01*
X61650000Y-70340000D02*
X57350000Y-70340000D01*
X57350000Y-70340000D02*
X57350000Y-69590000D01*
X57350000Y-69590000D02*
X57000000Y-69590000D01*
X57000000Y-69590000D02*
X57000000Y-70090000D01*
X57000000Y-70090000D02*
X56000000Y-70340000D01*
X56000000Y-70340000D02*
X56000000Y-67340000D01*
X56000000Y-67340000D02*
X57000000Y-67590000D01*
X57000000Y-67590000D02*
X57000000Y-68090000D01*
X57000000Y-68090000D02*
X57350000Y-68090000D01*
X57350000Y-68090000D02*
X57350000Y-68090000D01*
X57350000Y-68090000D02*
X57350000Y-67340000D01*
X57350000Y-67340000D02*
X61650000Y-67340000D01*
X61650000Y-67340000D02*
X61650000Y-68090000D01*
X54650000Y-79000000D02*
X54050000Y-78700000D01*
X54050000Y-78700000D02*
X54050000Y-79300000D01*
X54050000Y-79300000D02*
X54650000Y-79000000D01*
X126850155Y-53749647D02*
G75*
G03X126850000Y-52250000I-1700155J749647D01*
G01*
X126850155Y-58829647D02*
G75*
G03X126850000Y-57330000I-1700155J749647D01*
G01*
X126850155Y-63909647D02*
G75*
G03X126850000Y-62410000I-1700155J749647D01*
G01*
X133430000Y-50380000D02*
X126020000Y-50380000D01*
X126020000Y-50380000D02*
X126020000Y-65780000D01*
X126020000Y-65780000D02*
X133430000Y-65780000D01*
X133430000Y-65780000D02*
X133430000Y-50380000D01*
X126850000Y-52250000D02*
X126850000Y-51500000D01*
X126850000Y-51500000D02*
X131150000Y-51500000D01*
X131150000Y-51500000D02*
X131150000Y-52250000D01*
X131150000Y-52250000D02*
X131500000Y-52250000D01*
X131500000Y-52250000D02*
X131500000Y-51750000D01*
X131500000Y-51750000D02*
X132500000Y-51500000D01*
X132500000Y-51500000D02*
X132500000Y-54500000D01*
X132500000Y-54500000D02*
X131500000Y-54250000D01*
X131500000Y-54250000D02*
X131500000Y-53750000D01*
X131500000Y-53750000D02*
X131150000Y-53750000D01*
X131150000Y-53750000D02*
X131150000Y-53750000D01*
X131150000Y-53750000D02*
X131150000Y-54500000D01*
X131150000Y-54500000D02*
X126850000Y-54500000D01*
X126850000Y-54500000D02*
X126850000Y-53750000D01*
X126850000Y-57330000D02*
X126850000Y-56580000D01*
X126850000Y-56580000D02*
X131150000Y-56580000D01*
X131150000Y-56580000D02*
X131150000Y-57330000D01*
X131150000Y-57330000D02*
X131500000Y-57330000D01*
X131500000Y-57330000D02*
X131500000Y-56830000D01*
X131500000Y-56830000D02*
X132500000Y-56580000D01*
X132500000Y-56580000D02*
X132500000Y-59580000D01*
X132500000Y-59580000D02*
X131500000Y-59330000D01*
X131500000Y-59330000D02*
X131500000Y-58830000D01*
X131500000Y-58830000D02*
X131150000Y-58830000D01*
X131150000Y-58830000D02*
X131150000Y-58830000D01*
X131150000Y-58830000D02*
X131150000Y-59580000D01*
X131150000Y-59580000D02*
X126850000Y-59580000D01*
X126850000Y-59580000D02*
X126850000Y-58830000D01*
X126850000Y-62410000D02*
X126850000Y-61660000D01*
X126850000Y-61660000D02*
X131150000Y-61660000D01*
X131150000Y-61660000D02*
X131150000Y-62410000D01*
X131150000Y-62410000D02*
X131500000Y-62410000D01*
X131500000Y-62410000D02*
X131500000Y-61910000D01*
X131500000Y-61910000D02*
X132500000Y-61660000D01*
X132500000Y-61660000D02*
X132500000Y-64660000D01*
X132500000Y-64660000D02*
X131500000Y-64410000D01*
X131500000Y-64410000D02*
X131500000Y-63910000D01*
X131500000Y-63910000D02*
X131150000Y-63910000D01*
X131150000Y-63910000D02*
X131150000Y-63910000D01*
X131150000Y-63910000D02*
X131150000Y-64660000D01*
X131150000Y-64660000D02*
X126850000Y-64660000D01*
X126850000Y-64660000D02*
X126850000Y-63910000D01*
X133850000Y-53000000D02*
X134450000Y-53300000D01*
X134450000Y-53300000D02*
X134450000Y-52700000D01*
X134450000Y-52700000D02*
X133850000Y-53000000D01*
X126850155Y-87749647D02*
G75*
G03X126850000Y-86250000I-1700155J749647D01*
G01*
X126850155Y-92829647D02*
G75*
G03X126850000Y-91330000I-1700155J749647D01*
G01*
X126850155Y-97909647D02*
G75*
G03X126850000Y-96410000I-1700155J749647D01*
G01*
X133430000Y-84380000D02*
X126020000Y-84380000D01*
X126020000Y-84380000D02*
X126020000Y-99780000D01*
X126020000Y-99780000D02*
X133430000Y-99780000D01*
X133430000Y-99780000D02*
X133430000Y-84380000D01*
X126850000Y-86250000D02*
X126850000Y-85500000D01*
X126850000Y-85500000D02*
X131150000Y-85500000D01*
X131150000Y-85500000D02*
X131150000Y-86250000D01*
X131150000Y-86250000D02*
X131500000Y-86250000D01*
X131500000Y-86250000D02*
X131500000Y-85750000D01*
X131500000Y-85750000D02*
X132500000Y-85500000D01*
X132500000Y-85500000D02*
X132500000Y-88500000D01*
X132500000Y-88500000D02*
X131500000Y-88250000D01*
X131500000Y-88250000D02*
X131500000Y-87750000D01*
X131500000Y-87750000D02*
X131150000Y-87750000D01*
X131150000Y-87750000D02*
X131150000Y-87750000D01*
X131150000Y-87750000D02*
X131150000Y-88500000D01*
X131150000Y-88500000D02*
X126850000Y-88500000D01*
X126850000Y-88500000D02*
X126850000Y-87750000D01*
X126850000Y-91330000D02*
X126850000Y-90580000D01*
X126850000Y-90580000D02*
X131150000Y-90580000D01*
X131150000Y-90580000D02*
X131150000Y-91330000D01*
X131150000Y-91330000D02*
X131500000Y-91330000D01*
X131500000Y-91330000D02*
X131500000Y-90830000D01*
X131500000Y-90830000D02*
X132500000Y-90580000D01*
X132500000Y-90580000D02*
X132500000Y-93580000D01*
X132500000Y-93580000D02*
X131500000Y-93330000D01*
X131500000Y-93330000D02*
X131500000Y-92830000D01*
X131500000Y-92830000D02*
X131150000Y-92830000D01*
X131150000Y-92830000D02*
X131150000Y-92830000D01*
X131150000Y-92830000D02*
X131150000Y-93580000D01*
X131150000Y-93580000D02*
X126850000Y-93580000D01*
X126850000Y-93580000D02*
X126850000Y-92830000D01*
X126850000Y-96410000D02*
X126850000Y-95660000D01*
X126850000Y-95660000D02*
X131150000Y-95660000D01*
X131150000Y-95660000D02*
X131150000Y-96410000D01*
X131150000Y-96410000D02*
X131500000Y-96410000D01*
X131500000Y-96410000D02*
X131500000Y-95910000D01*
X131500000Y-95910000D02*
X132500000Y-95660000D01*
X132500000Y-95660000D02*
X132500000Y-98660000D01*
X132500000Y-98660000D02*
X131500000Y-98410000D01*
X131500000Y-98410000D02*
X131500000Y-97910000D01*
X131500000Y-97910000D02*
X131150000Y-97910000D01*
X131150000Y-97910000D02*
X131150000Y-97910000D01*
X131150000Y-97910000D02*
X131150000Y-98660000D01*
X131150000Y-98660000D02*
X126850000Y-98660000D01*
X126850000Y-98660000D02*
X126850000Y-97910000D01*
X133850000Y-87000000D02*
X134450000Y-87300000D01*
X134450000Y-87300000D02*
X134450000Y-86700000D01*
X134450000Y-86700000D02*
X133850000Y-87000000D01*
D11*
X96210000Y-96660000D02*
X96210000Y-93340000D01*
X96210000Y-93340000D02*
X87090000Y-93340000D01*
X87090000Y-93340000D02*
X87090000Y-96660000D01*
X87090000Y-96660000D02*
X96210000Y-96660000D01*
X97020000Y-95000000D02*
X96210000Y-95000000D01*
X86280000Y-95000000D02*
X87090000Y-95000000D01*
X120660000Y-90290000D02*
X117340000Y-90290000D01*
X117340000Y-90290000D02*
X117340000Y-99410000D01*
X117340000Y-99410000D02*
X120660000Y-99410000D01*
X120660000Y-99410000D02*
X120660000Y-90290000D01*
X119000000Y-89480000D02*
X119000000Y-90290000D01*
X119000000Y-100220000D02*
X119000000Y-99410000D01*
X71590000Y-93210000D02*
X74910000Y-93210000D01*
X74910000Y-93210000D02*
X74910000Y-84090000D01*
X74910000Y-84090000D02*
X71590000Y-84090000D01*
X71590000Y-84090000D02*
X71590000Y-93210000D01*
X73250000Y-94020000D02*
X73250000Y-93210000D01*
X73250000Y-83280000D02*
X73250000Y-84090000D01*
X74790000Y-108340000D02*
X74790000Y-111660000D01*
X74790000Y-111660000D02*
X83910000Y-111660000D01*
X83910000Y-111660000D02*
X83910000Y-108340000D01*
X83910000Y-108340000D02*
X74790000Y-108340000D01*
X73980000Y-110000000D02*
X74790000Y-110000000D01*
X84720000Y-110000000D02*
X83910000Y-110000000D01*
D12*
X65002540Y-57620000D02*
X65002540Y-58636000D01*
X65002540Y-52794000D02*
X65002540Y-51524000D01*
X66272540Y-53048000D02*
X63732540Y-53048000D01*
X66272540Y-53302000D02*
X63732540Y-53302000D01*
X66272540Y-53556000D02*
X63732540Y-53556000D01*
X66272540Y-52794000D02*
X63732540Y-52794000D01*
X66272540Y-53810000D02*
X63732540Y-52540000D01*
X66272540Y-52540000D02*
X63732540Y-53810000D01*
X66272540Y-53810000D02*
X63732540Y-53810000D01*
X66272540Y-53175000D02*
X63732540Y-53175000D01*
X63732540Y-52540000D02*
X66272540Y-52540000D01*
X66272540Y-52540000D02*
X66272540Y-57620000D01*
X66272540Y-57620000D02*
X63732540Y-57620000D01*
X63732540Y-57620000D02*
X63732540Y-52540000D01*
X54497460Y-52380000D02*
X54497460Y-51364000D01*
X54497460Y-57206000D02*
X54497460Y-58476000D01*
X53227460Y-56952000D02*
X55767460Y-56952000D01*
X53227460Y-56698000D02*
X55767460Y-56698000D01*
X53227460Y-56444000D02*
X55767460Y-56444000D01*
X53227460Y-57206000D02*
X55767460Y-57206000D01*
X53227460Y-56190000D02*
X55767460Y-57460000D01*
X53227460Y-57460000D02*
X55767460Y-56190000D01*
X53227460Y-56190000D02*
X55767460Y-56190000D01*
X53227460Y-56825000D02*
X55767460Y-56825000D01*
X55767460Y-57460000D02*
X53227460Y-57460000D01*
X53227460Y-57460000D02*
X53227460Y-52380000D01*
X53227460Y-52380000D02*
X55767460Y-52380000D01*
X55767460Y-52380000D02*
X55767460Y-57460000D01*
X61502540Y-57620000D02*
X61502540Y-58636000D01*
X61502540Y-52794000D02*
X61502540Y-51524000D01*
X62772540Y-53048000D02*
X60232540Y-53048000D01*
X62772540Y-53302000D02*
X60232540Y-53302000D01*
X62772540Y-53556000D02*
X60232540Y-53556000D01*
X62772540Y-52794000D02*
X60232540Y-52794000D01*
X62772540Y-53810000D02*
X60232540Y-52540000D01*
X62772540Y-52540000D02*
X60232540Y-53810000D01*
X62772540Y-53810000D02*
X60232540Y-53810000D01*
X62772540Y-53175000D02*
X60232540Y-53175000D01*
X60232540Y-52540000D02*
X62772540Y-52540000D01*
X62772540Y-52540000D02*
X62772540Y-57620000D01*
X62772540Y-57620000D02*
X60232540Y-57620000D01*
X60232540Y-57620000D02*
X60232540Y-52540000D01*
X57997460Y-52380000D02*
X57997460Y-51364000D01*
X57997460Y-57206000D02*
X57997460Y-58476000D01*
X56727460Y-56952000D02*
X59267460Y-56952000D01*
X56727460Y-56698000D02*
X59267460Y-56698000D01*
X56727460Y-56444000D02*
X59267460Y-56444000D01*
X56727460Y-57206000D02*
X59267460Y-57206000D01*
X56727460Y-56190000D02*
X59267460Y-57460000D01*
X56727460Y-57460000D02*
X59267460Y-56190000D01*
X56727460Y-56190000D02*
X59267460Y-56190000D01*
X56727460Y-56825000D02*
X59267460Y-56825000D01*
X59267460Y-57460000D02*
X56727460Y-57460000D01*
X56727460Y-57460000D02*
X56727460Y-52380000D01*
X56727460Y-52380000D02*
X59267460Y-52380000D01*
X59267460Y-52380000D02*
X59267460Y-57460000D01*
X130750000Y-47000000D02*
G75*
G03X130750000Y-47000000I-1750000J0D01*
G01*
X120750000Y-52000000D02*
G75*
G03X120750000Y-52000000I-1750000J0D01*
G01*
X99750000Y-79000000D02*
G75*
G03X99750000Y-79000000I-1750000J0D01*
G01*
X111250000Y-79000000D02*
G75*
G03X111250000Y-79000000I-1750000J0D01*
G01*
D11*
X111710000Y-96660000D02*
X111710000Y-93340000D01*
X111710000Y-93340000D02*
X102590000Y-93340000D01*
X102590000Y-93340000D02*
X102590000Y-96660000D01*
X102590000Y-96660000D02*
X111710000Y-96660000D01*
X112520000Y-95000000D02*
X111710000Y-95000000D01*
X101780000Y-95000000D02*
X102590000Y-95000000D01*
X108710000Y-100660000D02*
X108710000Y-97340000D01*
X108710000Y-97340000D02*
X99590000Y-97340000D01*
X99590000Y-97340000D02*
X99590000Y-100660000D01*
X99590000Y-100660000D02*
X108710000Y-100660000D01*
X109520000Y-99000000D02*
X108710000Y-99000000D01*
X98780000Y-99000000D02*
X99590000Y-99000000D01*
X99515000Y-51390560D02*
X97715000Y-51390560D01*
X98615000Y-50490560D02*
X98615000Y-52290560D01*
X93540000Y-69370000D02*
X93460000Y-69370000D01*
X94314000Y-69330000D02*
X92686000Y-69330000D01*
X94666000Y-69290000D02*
X92334000Y-69290000D01*
X94935000Y-69250000D02*
X92065000Y-69250000D01*
X95161000Y-69210000D02*
X91839000Y-69210000D01*
X95360000Y-69170000D02*
X91640000Y-69170000D01*
X95539000Y-69130000D02*
X91461000Y-69130000D01*
X95703000Y-69090000D02*
X91297000Y-69090000D01*
X95855000Y-69050000D02*
X91145000Y-69050000D01*
X95998000Y-69010000D02*
X91002000Y-69010000D01*
X96132000Y-68970000D02*
X90868000Y-68970000D01*
X96259000Y-68930000D02*
X90741000Y-68930000D01*
X96380000Y-68890000D02*
X90620000Y-68890000D01*
X96496000Y-68850000D02*
X90504000Y-68850000D01*
X96607000Y-68810000D02*
X90393000Y-68810000D01*
X96714000Y-68770000D02*
X90286000Y-68770000D01*
X96817000Y-68730000D02*
X90183000Y-68730000D01*
X96916000Y-68690000D02*
X90084000Y-68690000D01*
X97012000Y-68650000D02*
X89988000Y-68650000D01*
X97105000Y-68610000D02*
X89895000Y-68610000D01*
X97196000Y-68570000D02*
X89804000Y-68570000D01*
X97284000Y-68530000D02*
X89716000Y-68530000D01*
X97369000Y-68490000D02*
X89631000Y-68490000D01*
X97452000Y-68450000D02*
X89548000Y-68450000D01*
X97533000Y-68411000D02*
X89467000Y-68411000D01*
X97613000Y-68371000D02*
X89387000Y-68371000D01*
X97690000Y-68331000D02*
X89310000Y-68331000D01*
X97765000Y-68291000D02*
X89235000Y-68291000D01*
X97839000Y-68251000D02*
X89161000Y-68251000D01*
X97912000Y-68211000D02*
X89088000Y-68211000D01*
X97982000Y-68171000D02*
X89018000Y-68171000D01*
X98052000Y-68131000D02*
X88948000Y-68131000D01*
X98120000Y-68091000D02*
X88880000Y-68091000D01*
X98186000Y-68051000D02*
X88814000Y-68051000D01*
X98252000Y-68011000D02*
X88748000Y-68011000D01*
X98316000Y-67971000D02*
X88684000Y-67971000D01*
X98379000Y-67931000D02*
X88621000Y-67931000D01*
X98441000Y-67891000D02*
X88559000Y-67891000D01*
X98502000Y-67851000D02*
X88498000Y-67851000D01*
X98562000Y-67811000D02*
X88438000Y-67811000D01*
X98620000Y-67771000D02*
X88380000Y-67771000D01*
X98678000Y-67731000D02*
X88322000Y-67731000D01*
X98735000Y-67691000D02*
X88265000Y-67691000D01*
X98791000Y-67651000D02*
X88209000Y-67651000D01*
X98846000Y-67611000D02*
X88154000Y-67611000D01*
X98900000Y-67571000D02*
X88100000Y-67571000D01*
X98954000Y-67531000D02*
X88046000Y-67531000D01*
X99006000Y-67491000D02*
X87994000Y-67491000D01*
X99058000Y-67451000D02*
X87942000Y-67451000D01*
X99109000Y-67411000D02*
X87891000Y-67411000D01*
X99160000Y-67371000D02*
X87840000Y-67371000D01*
X99209000Y-67331000D02*
X87791000Y-67331000D01*
X99258000Y-67291000D02*
X87742000Y-67291000D01*
X99306000Y-67251000D02*
X87694000Y-67251000D01*
X99354000Y-67211000D02*
X87646000Y-67211000D01*
X99401000Y-67171000D02*
X87599000Y-67171000D01*
X99447000Y-67131000D02*
X87553000Y-67131000D01*
X99493000Y-67091000D02*
X87507000Y-67091000D01*
X99538000Y-67051000D02*
X87462000Y-67051000D01*
X99582000Y-67011000D02*
X87418000Y-67011000D01*
X99626000Y-66971000D02*
X87374000Y-66971000D01*
X99670000Y-66931000D02*
X87330000Y-66931000D01*
X99712000Y-66891000D02*
X87288000Y-66891000D01*
X99754000Y-66851000D02*
X87246000Y-66851000D01*
X99796000Y-66811000D02*
X87204000Y-66811000D01*
X99837000Y-66771000D02*
X87163000Y-66771000D01*
X99878000Y-66731000D02*
X87122000Y-66731000D01*
X99918000Y-66691000D02*
X87082000Y-66691000D01*
X99958000Y-66651000D02*
X87042000Y-66651000D01*
X99997000Y-66611000D02*
X87003000Y-66611000D01*
X100036000Y-66571000D02*
X86964000Y-66571000D01*
X100074000Y-66531000D02*
X86926000Y-66531000D01*
X100112000Y-66491000D02*
X86888000Y-66491000D01*
X100149000Y-66451000D02*
X86851000Y-66451000D01*
X100186000Y-66411000D02*
X86814000Y-66411000D01*
X100222000Y-66371000D02*
X86778000Y-66371000D01*
X100258000Y-66331000D02*
X86742000Y-66331000D01*
X100294000Y-66291000D02*
X86706000Y-66291000D01*
X100329000Y-66251000D02*
X86671000Y-66251000D01*
X100364000Y-66211000D02*
X86636000Y-66211000D01*
X100398000Y-66171000D02*
X86602000Y-66171000D01*
X100432000Y-66131000D02*
X86568000Y-66131000D01*
X100465000Y-66091000D02*
X86535000Y-66091000D01*
X100499000Y-66051000D02*
X86501000Y-66051000D01*
X100531000Y-66011000D02*
X86469000Y-66011000D01*
X100564000Y-65971000D02*
X86436000Y-65971000D01*
X100596000Y-65931000D02*
X86404000Y-65931000D01*
X100627000Y-65891000D02*
X86373000Y-65891000D01*
X100659000Y-65851000D02*
X86341000Y-65851000D01*
X100690000Y-65811000D02*
X86310000Y-65811000D01*
X100720000Y-65771000D02*
X86280000Y-65771000D01*
X100750000Y-65731000D02*
X86250000Y-65731000D01*
X100780000Y-65691000D02*
X86220000Y-65691000D01*
X100810000Y-65651000D02*
X86190000Y-65651000D01*
X100839000Y-65611000D02*
X86161000Y-65611000D01*
X100868000Y-65571000D02*
X86132000Y-65571000D01*
X100897000Y-65531000D02*
X86103000Y-65531000D01*
X100925000Y-65491000D02*
X86075000Y-65491000D01*
X100953000Y-65451000D02*
X86047000Y-65451000D01*
X92060000Y-65411000D02*
X86020000Y-65411000D01*
X100980000Y-65411000D02*
X94940000Y-65411000D01*
X92060000Y-65371000D02*
X85992000Y-65371000D01*
X101008000Y-65371000D02*
X94940000Y-65371000D01*
X92060000Y-65331000D02*
X85965000Y-65331000D01*
X101035000Y-65331000D02*
X94940000Y-65331000D01*
X92060000Y-65291000D02*
X85939000Y-65291000D01*
X101061000Y-65291000D02*
X94940000Y-65291000D01*
X92060000Y-65251000D02*
X85912000Y-65251000D01*
X101088000Y-65251000D02*
X94940000Y-65251000D01*
X92060000Y-65211000D02*
X85886000Y-65211000D01*
X101114000Y-65211000D02*
X94940000Y-65211000D01*
X92060000Y-65171000D02*
X85860000Y-65171000D01*
X101140000Y-65171000D02*
X94940000Y-65171000D01*
X92060000Y-65131000D02*
X85835000Y-65131000D01*
X101165000Y-65131000D02*
X94940000Y-65131000D01*
X92060000Y-65091000D02*
X85810000Y-65091000D01*
X101190000Y-65091000D02*
X94940000Y-65091000D01*
X92060000Y-65051000D02*
X85785000Y-65051000D01*
X101215000Y-65051000D02*
X94940000Y-65051000D01*
X92060000Y-65011000D02*
X85760000Y-65011000D01*
X101240000Y-65011000D02*
X94940000Y-65011000D01*
X92060000Y-64971000D02*
X85736000Y-64971000D01*
X101264000Y-64971000D02*
X94940000Y-64971000D01*
X92060000Y-64931000D02*
X85712000Y-64931000D01*
X101288000Y-64931000D02*
X94940000Y-64931000D01*
X92060000Y-64891000D02*
X85688000Y-64891000D01*
X101312000Y-64891000D02*
X94940000Y-64891000D01*
X92060000Y-64851000D02*
X85665000Y-64851000D01*
X101335000Y-64851000D02*
X94940000Y-64851000D01*
X92060000Y-64811000D02*
X85641000Y-64811000D01*
X101359000Y-64811000D02*
X94940000Y-64811000D01*
X92060000Y-64771000D02*
X85618000Y-64771000D01*
X101382000Y-64771000D02*
X94940000Y-64771000D01*
X92060000Y-64731000D02*
X85596000Y-64731000D01*
X101404000Y-64731000D02*
X94940000Y-64731000D01*
X92060000Y-64691000D02*
X85573000Y-64691000D01*
X101427000Y-64691000D02*
X94940000Y-64691000D01*
X92060000Y-64651000D02*
X85551000Y-64651000D01*
X101449000Y-64651000D02*
X94940000Y-64651000D01*
X92060000Y-64611000D02*
X85529000Y-64611000D01*
X101471000Y-64611000D02*
X94940000Y-64611000D01*
X92060000Y-64571000D02*
X85508000Y-64571000D01*
X101492000Y-64571000D02*
X94940000Y-64571000D01*
X92060000Y-64531000D02*
X85486000Y-64531000D01*
X101514000Y-64531000D02*
X94940000Y-64531000D01*
X92060000Y-64491000D02*
X85465000Y-64491000D01*
X101535000Y-64491000D02*
X94940000Y-64491000D01*
X92060000Y-64451000D02*
X85444000Y-64451000D01*
X101556000Y-64451000D02*
X94940000Y-64451000D01*
X92060000Y-64411000D02*
X85424000Y-64411000D01*
X101576000Y-64411000D02*
X94940000Y-64411000D01*
X92060000Y-64371000D02*
X85403000Y-64371000D01*
X101597000Y-64371000D02*
X94940000Y-64371000D01*
X92060000Y-64331000D02*
X85383000Y-64331000D01*
X101617000Y-64331000D02*
X94940000Y-64331000D01*
X92060000Y-64291000D02*
X85363000Y-64291000D01*
X101637000Y-64291000D02*
X94940000Y-64291000D01*
X92060000Y-64251000D02*
X85344000Y-64251000D01*
X101656000Y-64251000D02*
X94940000Y-64251000D01*
X92060000Y-64211000D02*
X85324000Y-64211000D01*
X101676000Y-64211000D02*
X94940000Y-64211000D01*
X92060000Y-64171000D02*
X85305000Y-64171000D01*
X101695000Y-64171000D02*
X94940000Y-64171000D01*
X92060000Y-64131000D02*
X85286000Y-64131000D01*
X101714000Y-64131000D02*
X94940000Y-64131000D01*
X92060000Y-64091000D02*
X85267000Y-64091000D01*
X101733000Y-64091000D02*
X94940000Y-64091000D01*
X92060000Y-64051000D02*
X85249000Y-64051000D01*
X101751000Y-64051000D02*
X94940000Y-64051000D01*
X92060000Y-64011000D02*
X85231000Y-64011000D01*
X101769000Y-64011000D02*
X94940000Y-64011000D01*
X92060000Y-63971000D02*
X85213000Y-63971000D01*
X101787000Y-63971000D02*
X94940000Y-63971000D01*
X92060000Y-63931000D02*
X85195000Y-63931000D01*
X101805000Y-63931000D02*
X94940000Y-63931000D01*
X92060000Y-63891000D02*
X85177000Y-63891000D01*
X101823000Y-63891000D02*
X94940000Y-63891000D01*
X92060000Y-63851000D02*
X85160000Y-63851000D01*
X101840000Y-63851000D02*
X94940000Y-63851000D01*
X92060000Y-63811000D02*
X85143000Y-63811000D01*
X101857000Y-63811000D02*
X94940000Y-63811000D01*
X92060000Y-63771000D02*
X85126000Y-63771000D01*
X101874000Y-63771000D02*
X94940000Y-63771000D01*
X92060000Y-63731000D02*
X85110000Y-63731000D01*
X101890000Y-63731000D02*
X94940000Y-63731000D01*
X92060000Y-63691000D02*
X85093000Y-63691000D01*
X101907000Y-63691000D02*
X94940000Y-63691000D01*
X92060000Y-63651000D02*
X85077000Y-63651000D01*
X101923000Y-63651000D02*
X94940000Y-63651000D01*
X92060000Y-63611000D02*
X85061000Y-63611000D01*
X101939000Y-63611000D02*
X94940000Y-63611000D01*
X92060000Y-63571000D02*
X85045000Y-63571000D01*
X101955000Y-63571000D02*
X94940000Y-63571000D01*
X92060000Y-63531000D02*
X85030000Y-63531000D01*
X101970000Y-63531000D02*
X94940000Y-63531000D01*
X92060000Y-63491000D02*
X85014000Y-63491000D01*
X101986000Y-63491000D02*
X94940000Y-63491000D01*
X92060000Y-63451000D02*
X84999000Y-63451000D01*
X102001000Y-63451000D02*
X94940000Y-63451000D01*
X92060000Y-63411000D02*
X84984000Y-63411000D01*
X102016000Y-63411000D02*
X94940000Y-63411000D01*
X92060000Y-63371000D02*
X84970000Y-63371000D01*
X102030000Y-63371000D02*
X94940000Y-63371000D01*
X92060000Y-63331000D02*
X84955000Y-63331000D01*
X102045000Y-63331000D02*
X94940000Y-63331000D01*
X92060000Y-63291000D02*
X84941000Y-63291000D01*
X102059000Y-63291000D02*
X94940000Y-63291000D01*
X92060000Y-63251000D02*
X84927000Y-63251000D01*
X102073000Y-63251000D02*
X94940000Y-63251000D01*
X92060000Y-63211000D02*
X84913000Y-63211000D01*
X102087000Y-63211000D02*
X94940000Y-63211000D01*
X92060000Y-63171000D02*
X84900000Y-63171000D01*
X102100000Y-63171000D02*
X94940000Y-63171000D01*
X92060000Y-63131000D02*
X84886000Y-63131000D01*
X102114000Y-63131000D02*
X94940000Y-63131000D01*
X92060000Y-63091000D02*
X84873000Y-63091000D01*
X102127000Y-63091000D02*
X94940000Y-63091000D01*
X92060000Y-63051000D02*
X84860000Y-63051000D01*
X102140000Y-63051000D02*
X94940000Y-63051000D01*
X92060000Y-63011000D02*
X84847000Y-63011000D01*
X102153000Y-63011000D02*
X94940000Y-63011000D01*
X92060000Y-62971000D02*
X84835000Y-62971000D01*
X102165000Y-62971000D02*
X94940000Y-62971000D01*
X92060000Y-62931000D02*
X84822000Y-62931000D01*
X102178000Y-62931000D02*
X94940000Y-62931000D01*
X92060000Y-62891000D02*
X84810000Y-62891000D01*
X102190000Y-62891000D02*
X94940000Y-62891000D01*
X92060000Y-62851000D02*
X84798000Y-62851000D01*
X102202000Y-62851000D02*
X94940000Y-62851000D01*
X92060000Y-62811000D02*
X84786000Y-62811000D01*
X102214000Y-62811000D02*
X94940000Y-62811000D01*
X92060000Y-62771000D02*
X84775000Y-62771000D01*
X102225000Y-62771000D02*
X94940000Y-62771000D01*
X92060000Y-62731000D02*
X84763000Y-62731000D01*
X102237000Y-62731000D02*
X94940000Y-62731000D01*
X92060000Y-62691000D02*
X84752000Y-62691000D01*
X102248000Y-62691000D02*
X94940000Y-62691000D01*
X92060000Y-62651000D02*
X84741000Y-62651000D01*
X102259000Y-62651000D02*
X94940000Y-62651000D01*
X92060000Y-62611000D02*
X84730000Y-62611000D01*
X102270000Y-62611000D02*
X94940000Y-62611000D01*
X92060000Y-62571000D02*
X84720000Y-62571000D01*
X102280000Y-62571000D02*
X94940000Y-62571000D01*
X102291000Y-62531000D02*
X84709000Y-62531000D01*
X102301000Y-62491000D02*
X84699000Y-62491000D01*
X102311000Y-62451000D02*
X84689000Y-62451000D01*
X102321000Y-62411000D02*
X84679000Y-62411000D01*
X102331000Y-62371000D02*
X84669000Y-62371000D01*
X102340000Y-62331000D02*
X84660000Y-62331000D01*
X102349000Y-62291000D02*
X84651000Y-62291000D01*
X102358000Y-62251000D02*
X84642000Y-62251000D01*
X102367000Y-62211000D02*
X84633000Y-62211000D01*
X102376000Y-62171000D02*
X84624000Y-62171000D01*
X102385000Y-62131000D02*
X84615000Y-62131000D01*
X102393000Y-62091000D02*
X84607000Y-62091000D01*
X102401000Y-62051000D02*
X84599000Y-62051000D01*
X102409000Y-62011000D02*
X84591000Y-62011000D01*
X102417000Y-61971000D02*
X84583000Y-61971000D01*
X102424000Y-61931000D02*
X84576000Y-61931000D01*
X102432000Y-61891000D02*
X84568000Y-61891000D01*
X102439000Y-61851000D02*
X84561000Y-61851000D01*
X102446000Y-61811000D02*
X84554000Y-61811000D01*
X102453000Y-61771000D02*
X84547000Y-61771000D01*
X102460000Y-61731000D02*
X84540000Y-61731000D01*
X102466000Y-61691000D02*
X84534000Y-61691000D01*
X102472000Y-61651000D02*
X84528000Y-61651000D01*
X102479000Y-61611000D02*
X84521000Y-61611000D01*
X102484000Y-61571000D02*
X84516000Y-61571000D01*
X102490000Y-61531000D02*
X84510000Y-61531000D01*
X102496000Y-61491000D02*
X84504000Y-61491000D01*
X102501000Y-61451000D02*
X84499000Y-61451000D01*
X102506000Y-61411000D02*
X84494000Y-61411000D01*
X102511000Y-61371000D02*
X84489000Y-61371000D01*
X102516000Y-61331000D02*
X84484000Y-61331000D01*
X102521000Y-61291000D02*
X84479000Y-61291000D01*
X102526000Y-61251000D02*
X84474000Y-61251000D01*
X102530000Y-61211000D02*
X84470000Y-61211000D01*
X102534000Y-61171000D02*
X84466000Y-61171000D01*
X102538000Y-61131000D02*
X84462000Y-61131000D01*
X102542000Y-61091000D02*
X84458000Y-61091000D01*
X102545000Y-61051000D02*
X84455000Y-61051000D01*
X102549000Y-61011000D02*
X84451000Y-61011000D01*
X102552000Y-60971000D02*
X84448000Y-60971000D01*
X102555000Y-60930000D02*
X84445000Y-60930000D01*
X102558000Y-60890000D02*
X84442000Y-60890000D01*
X102561000Y-60850000D02*
X84439000Y-60850000D01*
X102563000Y-60810000D02*
X84437000Y-60810000D01*
X102566000Y-60770000D02*
X84434000Y-60770000D01*
X102568000Y-60730000D02*
X84432000Y-60730000D01*
X102570000Y-60690000D02*
X84430000Y-60690000D01*
X102572000Y-60650000D02*
X84428000Y-60650000D01*
X102573000Y-60610000D02*
X84427000Y-60610000D01*
X102575000Y-60570000D02*
X84425000Y-60570000D01*
X102576000Y-60530000D02*
X84424000Y-60530000D01*
X102577000Y-60490000D02*
X84423000Y-60490000D01*
X102578000Y-60450000D02*
X84422000Y-60450000D01*
X102579000Y-60410000D02*
X84421000Y-60410000D01*
X102580000Y-60370000D02*
X84420000Y-60370000D01*
X102580000Y-60330000D02*
X84420000Y-60330000D01*
X102580000Y-60290000D02*
X84420000Y-60290000D01*
X102581000Y-60250000D02*
X84419000Y-60250000D01*
X102620000Y-60250000D02*
G75*
G03X102620000Y-60250000I-9120000J0D01*
G01*
X65580000Y-81110000D02*
X70820000Y-81110000D01*
X70820000Y-81110000D02*
X70820000Y-65370000D01*
X70820000Y-65370000D02*
X65580000Y-65370000D01*
X65580000Y-65370000D02*
X65580000Y-81110000D01*
X68200000Y-81960000D02*
X68200000Y-81110000D01*
X68200000Y-64520000D02*
X68200000Y-65370000D01*
X60090000Y-87290000D02*
X63250000Y-87290000D01*
X60090000Y-87290000D02*
X60090000Y-110010000D01*
X69910000Y-87290000D02*
X69910000Y-110010000D01*
X66750000Y-87290000D02*
X69910000Y-87290000D01*
X66750000Y-110010000D02*
X69910000Y-110010000D01*
X60090000Y-110010000D02*
X63250000Y-110010000D01*
X77519185Y-76925769D02*
X80488613Y-75844985D01*
X83777538Y-74647915D02*
X86746966Y-73567131D01*
X76006840Y-53298099D02*
X78976269Y-52217315D01*
X78976269Y-52217315D02*
X86746966Y-73567131D01*
X69748487Y-55575953D02*
X77519185Y-76925769D01*
X69748487Y-55575953D02*
X72717916Y-54495169D01*
D12*
X118033333Y-46452380D02*
X117700000Y-45976190D01*
X117461904Y-46452380D02*
X117461904Y-45452380D01*
X117842857Y-45452380D01*
X117938095Y-45500000D01*
X117985714Y-45547619D01*
X118033333Y-45642857D01*
X118033333Y-45785714D01*
X117985714Y-45880952D01*
X117938095Y-45928571D01*
X117842857Y-45976190D01*
X117461904Y-45976190D01*
X118890476Y-45785714D02*
X118890476Y-46452380D01*
X118652380Y-45404761D02*
X118414285Y-46119047D01*
X119033333Y-46119047D01*
X119357142Y-57366666D02*
X119404761Y-57414285D01*
X119452380Y-57557142D01*
X119452380Y-57652380D01*
X119404761Y-57795238D01*
X119309523Y-57890476D01*
X119214285Y-57938095D01*
X119023809Y-57985714D01*
X118880952Y-57985714D01*
X118690476Y-57938095D01*
X118595238Y-57890476D01*
X118500000Y-57795238D01*
X118452380Y-57652380D01*
X118452380Y-57557142D01*
X118500000Y-57414285D01*
X118547619Y-57366666D01*
X118452380Y-57033333D02*
X118452380Y-56414285D01*
X118833333Y-56747619D01*
X118833333Y-56604761D01*
X118880952Y-56509523D01*
X118928571Y-56461904D01*
X119023809Y-56414285D01*
X119261904Y-56414285D01*
X119357142Y-56461904D01*
X119404761Y-56509523D01*
X119452380Y-56604761D01*
X119452380Y-56890476D01*
X119404761Y-56985714D01*
X119357142Y-57033333D01*
X89333333Y-82857142D02*
X89285714Y-82904761D01*
X89142857Y-82952380D01*
X89047619Y-82952380D01*
X88904761Y-82904761D01*
X88809523Y-82809523D01*
X88761904Y-82714285D01*
X88714285Y-82523809D01*
X88714285Y-82380952D01*
X88761904Y-82190476D01*
X88809523Y-82095238D01*
X88904761Y-82000000D01*
X89047619Y-81952380D01*
X89142857Y-81952380D01*
X89285714Y-82000000D01*
X89333333Y-82047619D01*
X90285714Y-82952380D02*
X89714285Y-82952380D01*
X90000000Y-82952380D02*
X90000000Y-81952380D01*
X89904761Y-82095238D01*
X89809523Y-82190476D01*
X89714285Y-82238095D01*
X77702380Y-88571666D02*
X77226190Y-88905000D01*
X77702380Y-89143095D02*
X76702380Y-89143095D01*
X76702380Y-88762142D01*
X76750000Y-88666904D01*
X76797619Y-88619285D01*
X76892857Y-88571666D01*
X77035714Y-88571666D01*
X77130952Y-88619285D01*
X77178571Y-88666904D01*
X77226190Y-88762142D01*
X77226190Y-89143095D01*
X76702380Y-88238333D02*
X76702380Y-87619285D01*
X77083333Y-87952619D01*
X77083333Y-87809761D01*
X77130952Y-87714523D01*
X77178571Y-87666904D01*
X77273809Y-87619285D01*
X77511904Y-87619285D01*
X77607142Y-87666904D01*
X77654761Y-87714523D01*
X77702380Y-87809761D01*
X77702380Y-88095476D01*
X77654761Y-88190714D01*
X77607142Y-88238333D01*
X100833333Y-82857142D02*
X100785714Y-82904761D01*
X100642857Y-82952380D01*
X100547619Y-82952380D01*
X100404761Y-82904761D01*
X100309523Y-82809523D01*
X100261904Y-82714285D01*
X100214285Y-82523809D01*
X100214285Y-82380952D01*
X100261904Y-82190476D01*
X100309523Y-82095238D01*
X100404761Y-82000000D01*
X100547619Y-81952380D01*
X100642857Y-81952380D01*
X100785714Y-82000000D01*
X100833333Y-82047619D01*
X101690476Y-82285714D02*
X101690476Y-82952380D01*
X101452380Y-81904761D02*
X101214285Y-82619047D01*
X101833333Y-82619047D01*
X112333333Y-82857142D02*
X112285714Y-82904761D01*
X112142857Y-82952380D01*
X112047619Y-82952380D01*
X111904761Y-82904761D01*
X111809523Y-82809523D01*
X111761904Y-82714285D01*
X111714285Y-82523809D01*
X111714285Y-82380952D01*
X111761904Y-82190476D01*
X111809523Y-82095238D01*
X111904761Y-82000000D01*
X112047619Y-81952380D01*
X112142857Y-81952380D01*
X112285714Y-82000000D01*
X112333333Y-82047619D01*
X113238095Y-81952380D02*
X112761904Y-81952380D01*
X112714285Y-82428571D01*
X112761904Y-82380952D01*
X112857142Y-82333333D01*
X113095238Y-82333333D01*
X113190476Y-82380952D01*
X113238095Y-82428571D01*
X113285714Y-82523809D01*
X113285714Y-82761904D01*
X113238095Y-82857142D01*
X113190476Y-82904761D01*
X113095238Y-82952380D01*
X112857142Y-82952380D01*
X112761904Y-82904761D01*
X112714285Y-82857142D01*
X83731904Y-100782380D02*
X83731904Y-99782380D01*
X83970000Y-99782380D01*
X84112857Y-99830000D01*
X84208095Y-99925238D01*
X84255714Y-100020476D01*
X84303333Y-100210952D01*
X84303333Y-100353809D01*
X84255714Y-100544285D01*
X84208095Y-100639523D01*
X84112857Y-100734761D01*
X83970000Y-100782380D01*
X83731904Y-100782380D01*
X84684285Y-99877619D02*
X84731904Y-99830000D01*
X84827142Y-99782380D01*
X85065238Y-99782380D01*
X85160476Y-99830000D01*
X85208095Y-99877619D01*
X85255714Y-99972857D01*
X85255714Y-100068095D01*
X85208095Y-100210952D01*
X84636666Y-100782380D01*
X85255714Y-100782380D01*
X78651904Y-105227380D02*
X78651904Y-104227380D01*
X78890000Y-104227380D01*
X79032857Y-104275000D01*
X79128095Y-104370238D01*
X79175714Y-104465476D01*
X79223333Y-104655952D01*
X79223333Y-104798809D01*
X79175714Y-104989285D01*
X79128095Y-105084523D01*
X79032857Y-105179761D01*
X78890000Y-105227380D01*
X78651904Y-105227380D01*
X79556666Y-104227380D02*
X80175714Y-104227380D01*
X79842380Y-104608333D01*
X79985238Y-104608333D01*
X80080476Y-104655952D01*
X80128095Y-104703571D01*
X80175714Y-104798809D01*
X80175714Y-105036904D01*
X80128095Y-105132142D01*
X80080476Y-105179761D01*
X79985238Y-105227380D01*
X79699523Y-105227380D01*
X79604285Y-105179761D01*
X79556666Y-105132142D01*
X91288333Y-95702380D02*
X90955000Y-95226190D01*
X90716904Y-95702380D02*
X90716904Y-94702380D01*
X91097857Y-94702380D01*
X91193095Y-94750000D01*
X91240714Y-94797619D01*
X91288333Y-94892857D01*
X91288333Y-95035714D01*
X91240714Y-95130952D01*
X91193095Y-95178571D01*
X91097857Y-95226190D01*
X90716904Y-95226190D01*
X92193095Y-94702380D02*
X91716904Y-94702380D01*
X91669285Y-95178571D01*
X91716904Y-95130952D01*
X91812142Y-95083333D01*
X92050238Y-95083333D01*
X92145476Y-95130952D01*
X92193095Y-95178571D01*
X92240714Y-95273809D01*
X92240714Y-95511904D01*
X92193095Y-95607142D01*
X92145476Y-95654761D01*
X92050238Y-95702380D01*
X91812142Y-95702380D01*
X91716904Y-95654761D01*
X91669285Y-95607142D01*
X119577380Y-95271666D02*
X119101190Y-95605000D01*
X119577380Y-95843095D02*
X118577380Y-95843095D01*
X118577380Y-95462142D01*
X118625000Y-95366904D01*
X118672619Y-95319285D01*
X118767857Y-95271666D01*
X118910714Y-95271666D01*
X119005952Y-95319285D01*
X119053571Y-95366904D01*
X119101190Y-95462142D01*
X119101190Y-95843095D01*
X118577380Y-94414523D02*
X118577380Y-94605000D01*
X118625000Y-94700238D01*
X118672619Y-94747857D01*
X118815476Y-94843095D01*
X119005952Y-94890714D01*
X119386904Y-94890714D01*
X119482142Y-94843095D01*
X119529761Y-94795476D01*
X119577380Y-94700238D01*
X119577380Y-94509761D01*
X119529761Y-94414523D01*
X119482142Y-94366904D01*
X119386904Y-94319285D01*
X119148809Y-94319285D01*
X119053571Y-94366904D01*
X119005952Y-94414523D01*
X118958333Y-94509761D01*
X118958333Y-94700238D01*
X119005952Y-94795476D01*
X119053571Y-94843095D01*
X119148809Y-94890714D01*
X73372380Y-88761666D02*
X72896190Y-89095000D01*
X73372380Y-89333095D02*
X72372380Y-89333095D01*
X72372380Y-88952142D01*
X72420000Y-88856904D01*
X72467619Y-88809285D01*
X72562857Y-88761666D01*
X72705714Y-88761666D01*
X72800952Y-88809285D01*
X72848571Y-88856904D01*
X72896190Y-88952142D01*
X72896190Y-89333095D01*
X72372380Y-88428333D02*
X72372380Y-87761666D01*
X73372380Y-88190238D01*
X79223333Y-110307380D02*
X78890000Y-109831190D01*
X78651904Y-110307380D02*
X78651904Y-109307380D01*
X79032857Y-109307380D01*
X79128095Y-109355000D01*
X79175714Y-109402619D01*
X79223333Y-109497857D01*
X79223333Y-109640714D01*
X79175714Y-109735952D01*
X79128095Y-109783571D01*
X79032857Y-109831190D01*
X78651904Y-109831190D01*
X79794761Y-109735952D02*
X79699523Y-109688333D01*
X79651904Y-109640714D01*
X79604285Y-109545476D01*
X79604285Y-109497857D01*
X79651904Y-109402619D01*
X79699523Y-109355000D01*
X79794761Y-109307380D01*
X79985238Y-109307380D01*
X80080476Y-109355000D01*
X80128095Y-109402619D01*
X80175714Y-109497857D01*
X80175714Y-109545476D01*
X80128095Y-109640714D01*
X80080476Y-109688333D01*
X79985238Y-109735952D01*
X79794761Y-109735952D01*
X79699523Y-109783571D01*
X79651904Y-109831190D01*
X79604285Y-109926428D01*
X79604285Y-110116904D01*
X79651904Y-110212142D01*
X79699523Y-110259761D01*
X79794761Y-110307380D01*
X79985238Y-110307380D01*
X80080476Y-110259761D01*
X80128095Y-110212142D01*
X80175714Y-110116904D01*
X80175714Y-109926428D01*
X80128095Y-109831190D01*
X80080476Y-109783571D01*
X79985238Y-109735952D01*
X106833333Y-95452380D02*
X106500000Y-94976190D01*
X106261904Y-95452380D02*
X106261904Y-94452380D01*
X106642857Y-94452380D01*
X106738095Y-94500000D01*
X106785714Y-94547619D01*
X106833333Y-94642857D01*
X106833333Y-94785714D01*
X106785714Y-94880952D01*
X106738095Y-94928571D01*
X106642857Y-94976190D01*
X106261904Y-94976190D01*
X107214285Y-94547619D02*
X107261904Y-94500000D01*
X107357142Y-94452380D01*
X107595238Y-94452380D01*
X107690476Y-94500000D01*
X107738095Y-94547619D01*
X107785714Y-94642857D01*
X107785714Y-94738095D01*
X107738095Y-94880952D01*
X107166666Y-95452380D01*
X107785714Y-95452380D01*
X103988333Y-99377380D02*
X103655000Y-98901190D01*
X103416904Y-99377380D02*
X103416904Y-98377380D01*
X103797857Y-98377380D01*
X103893095Y-98425000D01*
X103940714Y-98472619D01*
X103988333Y-98567857D01*
X103988333Y-98710714D01*
X103940714Y-98805952D01*
X103893095Y-98853571D01*
X103797857Y-98901190D01*
X103416904Y-98901190D01*
X104464523Y-99377380D02*
X104655000Y-99377380D01*
X104750238Y-99329761D01*
X104797857Y-99282142D01*
X104893095Y-99139285D01*
X104940714Y-98948809D01*
X104940714Y-98567857D01*
X104893095Y-98472619D01*
X104845476Y-98425000D01*
X104750238Y-98377380D01*
X104559761Y-98377380D01*
X104464523Y-98425000D01*
X104416904Y-98472619D01*
X104369285Y-98567857D01*
X104369285Y-98805952D01*
X104416904Y-98901190D01*
X104464523Y-98948809D01*
X104559761Y-98996428D01*
X104750238Y-98996428D01*
X104845476Y-98948809D01*
X104893095Y-98901190D01*
X104940714Y-98805952D01*
X100757142Y-52366666D02*
X100804761Y-52414285D01*
X100852380Y-52557142D01*
X100852380Y-52652380D01*
X100804761Y-52795238D01*
X100709523Y-52890476D01*
X100614285Y-52938095D01*
X100423809Y-52985714D01*
X100280952Y-52985714D01*
X100090476Y-52938095D01*
X99995238Y-52890476D01*
X99900000Y-52795238D01*
X99852380Y-52652380D01*
X99852380Y-52557142D01*
X99900000Y-52414285D01*
X99947619Y-52366666D01*
X99947619Y-51985714D02*
X99900000Y-51938095D01*
X99852380Y-51842857D01*
X99852380Y-51604761D01*
X99900000Y-51509523D01*
X99947619Y-51461904D01*
X100042857Y-51414285D01*
X100138095Y-51414285D01*
X100280952Y-51461904D01*
X100852380Y-52033333D01*
X100852380Y-51414285D01*
X68652380Y-73966666D02*
X68176190Y-74300000D01*
X68652380Y-74538095D02*
X67652380Y-74538095D01*
X67652380Y-74157142D01*
X67700000Y-74061904D01*
X67747619Y-74014285D01*
X67842857Y-73966666D01*
X67985714Y-73966666D01*
X68080952Y-74014285D01*
X68128571Y-74061904D01*
X68176190Y-74157142D01*
X68176190Y-74538095D01*
X68652380Y-73014285D02*
X68652380Y-73585714D01*
X68652380Y-73300000D02*
X67652380Y-73300000D01*
X67795238Y-73395238D01*
X67890476Y-73490476D01*
X67938095Y-73585714D01*
X61266666Y-86328571D02*
X60933333Y-86328571D01*
X60933333Y-86852380D02*
X60933333Y-85852380D01*
X61409523Y-85852380D01*
X62314285Y-86852380D02*
X61742857Y-86852380D01*
X62028571Y-86852380D02*
X62028571Y-85852380D01*
X61933333Y-85995238D01*
X61838095Y-86090476D01*
X61742857Y-86138095D01*
X70462339Y-54046884D02*
X70149108Y-54160891D01*
X70328261Y-54653111D02*
X69986241Y-53713418D01*
X70433714Y-53550552D01*
X70779518Y-53526039D02*
X70807978Y-53465005D01*
X70881186Y-53387685D01*
X71104923Y-53306252D01*
X71210704Y-53318425D01*
X71271738Y-53346886D01*
X71349058Y-53420094D01*
X71381632Y-53509588D01*
X71385745Y-53660117D01*
X71044217Y-54392524D01*
X71625932Y-54180797D01*
M02*
