M48
; DRILL file {KiCad (5.1.5-0-10_14)} date Saturday, 01 February 2020 at 21:54:23
; FORMAT={-:-/ absolute / metric / decimal}
; #@! TF.CreationDate,2020-02-01T21:54:23+00:00
; #@! TF.GenerationSoftware,Kicad,Pcbnew,(5.1.5-0-10_14)
FMAT,2
METRIC
T1C0.800
T2C1.001
T3C1.200
T4C1.270
T5C1.300
T6C1.600
T7C2.700
T8C3.200
%
G90
G05
T1
X106.329Y-85.4
X107.0Y-87.0
X109.5Y-87.0
X110.171Y-88.6
X73.0Y-110.0
X85.7Y-110.0
X94.829Y-85.4
X95.5Y-87.0
X98.0Y-87.0
X98.671Y-88.6
X85.3Y-95.0
X98.0Y-95.0
X91.0Y-108.5
X93.54Y-105.96
X96.08Y-108.5
X83.329Y-85.4
X84.0Y-87.0
X86.5Y-87.0
X87.171Y-88.6
X119.0Y-88.5
X119.0Y-101.2
X100.8Y-95.0
X113.5Y-95.0
X77.5Y-82.3
X77.5Y-95.0
X73.25Y-82.3
X73.25Y-95.0
X97.8Y-99.0
X110.5Y-99.0
X103.0Y-108.5
X105.54Y-105.96
X108.08Y-108.5
T2
X85.0Y-105.003
X79.0Y-99.997
X54.497Y-60.0
X65.003Y-50.0
X57.997Y-60.0
X61.503Y-50.0
T3
X64.62Y-43.0
X82.5Y-43.0
X102.5Y-43.0
X120.5Y-43.0
X68.2Y-63.08
X68.2Y-83.4
X59.5Y-68.84
X59.5Y-73.92
X59.5Y-79.0
X112.0Y-61.5
X112.0Y-69.0
X129.0Y-70.0
X129.0Y-75.08
X129.0Y-80.16
X129.0Y-53.0
X129.0Y-58.08
X129.0Y-63.16
X129.0Y-87.0
X129.0Y-92.08
X129.0Y-97.16
X93.5Y-56.5
X93.5Y-64.0
T4
X61.503Y-60.16
X54.497Y-49.84
X65.003Y-60.16
X57.997Y-49.84
X74.84Y-105.003
X89.16Y-99.997
T5
X65.0Y-87.4
X65.0Y-109.9
X74.4Y-54.0
X82.095Y-75.143
T6
X129.0Y-47.0
X119.0Y-52.0
X98.0Y-79.0
X109.5Y-79.0
T7
X65.0Y-98.65
X78.248Y-64.572
T8
X55.0Y-110.0
X55.0Y-40.0
X130.0Y-40.0
X130.0Y-110.0
T0
M30
