G04 #@! TF.GenerationSoftware,KiCad,Pcbnew,(5.1.5-0-10_14)*
G04 #@! TF.CreationDate,2020-02-01T21:54:20+00:00*
G04 #@! TF.ProjectId,PowerSupply,506f7765-7253-4757-9070-6c792e6b6963,rev?*
G04 #@! TF.SameCoordinates,Original*
G04 #@! TF.FileFunction,Copper,L1,Top*
G04 #@! TF.FilePolarity,Positive*
%FSLAX46Y46*%
G04 Gerber Fmt 4.6, Leading zero omitted, Abs format (unit mm)*
G04 Created by KiCad (PCBNEW (5.1.5-0-10_14)) date 2020-02-01 21:54:20*
%MOMM*%
%LPD*%
G04 APERTURE LIST*
%ADD10C,2.400000*%
%ADD11O,2.400000X2.400000*%
%ADD12R,2.400000X2.400000*%
%ADD13R,1.600000X1.600000*%
%ADD14C,1.600000*%
%ADD15R,3.600000X1.800000*%
%ADD16O,3.600000X1.800000*%
%ADD17O,1.600000X1.600000*%
%ADD18C,1.998980*%
%ADD19R,1.998980X1.998980*%
%ADD20C,1.440000*%
%ADD21C,2.800000*%
%ADD22C,3.000000*%
%ADD23C,1.000000*%
%ADD24C,2.000000*%
G04 APERTURE END LIST*
D10*
X120500000Y-43000000D03*
D11*
X64620000Y-43000000D03*
D10*
X102500000Y-43000000D03*
D11*
X82500000Y-43000000D03*
D12*
X112000000Y-61500000D03*
D10*
X112000000Y-69000000D03*
D13*
X84000000Y-87000000D03*
D14*
X86500000Y-87000000D03*
D13*
X83329063Y-85400000D03*
D14*
X87170937Y-88600000D03*
D15*
X129000000Y-70000000D03*
D16*
X129000000Y-75080000D03*
X129000000Y-80160000D03*
D14*
X77500000Y-95000000D03*
D17*
X77500000Y-82300000D03*
D13*
X95500000Y-87000000D03*
D14*
X98000000Y-87000000D03*
D13*
X94829063Y-85400000D03*
D14*
X98670937Y-88600000D03*
D13*
X107000000Y-87000000D03*
D14*
X109500000Y-87000000D03*
D13*
X106329063Y-85400000D03*
D14*
X110170937Y-88600000D03*
D18*
X89160000Y-99997460D03*
D19*
X79000000Y-99997460D03*
D18*
X74840000Y-105002540D03*
D19*
X85000000Y-105002540D03*
D15*
X59500000Y-79000000D03*
D16*
X59500000Y-73920000D03*
X59500000Y-68840000D03*
D20*
X108080000Y-108500000D03*
X105540000Y-105960000D03*
X103000000Y-108500000D03*
X96080000Y-108500000D03*
X93540000Y-105960000D03*
X91000000Y-108500000D03*
D15*
X129000000Y-53000000D03*
D16*
X129000000Y-58080000D03*
X129000000Y-63160000D03*
D15*
X129000000Y-87000000D03*
D16*
X129000000Y-92080000D03*
X129000000Y-97160000D03*
D14*
X98000000Y-95000000D03*
D17*
X85300000Y-95000000D03*
D14*
X119000000Y-88500000D03*
D17*
X119000000Y-101200000D03*
D14*
X73250000Y-95000000D03*
D17*
X73250000Y-82300000D03*
D14*
X73000000Y-110000000D03*
D17*
X85700000Y-110000000D03*
D18*
X65002540Y-60160000D03*
D19*
X65002540Y-50000000D03*
D18*
X54497460Y-49840000D03*
D19*
X54497460Y-60000000D03*
D18*
X61502540Y-60160000D03*
D19*
X61502540Y-50000000D03*
D18*
X57997460Y-49840000D03*
D19*
X57997460Y-60000000D03*
D21*
X129000000Y-47000000D03*
X119000000Y-52000000D03*
X98000000Y-79000000D03*
X109500000Y-79000000D03*
D14*
X113500000Y-95000000D03*
D17*
X100800000Y-95000000D03*
D14*
X110500000Y-99000000D03*
D17*
X97800000Y-99000000D03*
D10*
X93500000Y-64000000D03*
D12*
X93500000Y-56500000D03*
D10*
X68200000Y-83400000D03*
D11*
X68200000Y-63080000D03*
D22*
X65000000Y-109900000D03*
X65000000Y-87400000D03*
X74400000Y-54000000D03*
X82095453Y-75143084D03*
D23*
X91000000Y-108500000D02*
X94000000Y-111500000D01*
X94000000Y-111500000D02*
X100000000Y-111500000D01*
X100000000Y-111500000D02*
X103000000Y-108500000D01*
X91000000Y-106000000D02*
X91000000Y-108500000D01*
X82500000Y-97500000D02*
X91000000Y-106000000D01*
X82500000Y-91550000D02*
X82500000Y-97500000D01*
X73250000Y-82300000D02*
X82500000Y-91550000D01*
X72150000Y-83400000D02*
X73250000Y-82300000D01*
X68200000Y-83400000D02*
X72150000Y-83400000D01*
X85300000Y-95000000D02*
X92000000Y-95000000D01*
X99960000Y-105960000D02*
X105540000Y-105960000D01*
X95000000Y-101000000D02*
X99960000Y-105960000D01*
X95000000Y-98000000D02*
X95000000Y-101000000D01*
X92000000Y-95000000D02*
X95000000Y-98000000D01*
X85000000Y-105002540D02*
X85000000Y-109300000D01*
X85000000Y-109300000D02*
X85700000Y-110000000D01*
X80502540Y-105002540D02*
X85000000Y-105002540D01*
X73250000Y-97750000D02*
X80502540Y-105002540D01*
X73250000Y-95000000D02*
X73250000Y-97750000D01*
D24*
X61502540Y-60160000D02*
X61502540Y-55497460D01*
X65002540Y-51997460D02*
X65002540Y-50000000D01*
X61502540Y-55497460D02*
X65002540Y-51997460D01*
X64400000Y-64900000D02*
X61502540Y-62002540D01*
X64400000Y-86800000D02*
X64400000Y-64900000D01*
X61502540Y-62002540D02*
X61502540Y-60160000D01*
X65000000Y-87400000D02*
X64400000Y-86800000D01*
X57997460Y-60000000D02*
X57997460Y-53505080D01*
X57997460Y-53505080D02*
X61502540Y-50000000D01*
X61502540Y-46117460D02*
X64620000Y-43000000D01*
X61502540Y-50000000D02*
X61502540Y-46117460D01*
X120500000Y-50500000D02*
X119000000Y-52000000D01*
X120500000Y-43000000D02*
X120500000Y-50500000D01*
X125200000Y-70000000D02*
X129000000Y-70000000D01*
X119000000Y-63800000D02*
X125200000Y-70000000D01*
X119000000Y-60500000D02*
X119000000Y-63800000D01*
X119000000Y-52000000D02*
X119000000Y-60500000D01*
X118000000Y-61500000D02*
X119000000Y-60500000D01*
X112000000Y-61500000D02*
X118000000Y-61500000D01*
X120500000Y-43000000D02*
X102500000Y-43000000D01*
D23*
X95500000Y-88800000D02*
X95500000Y-87000000D01*
X104720002Y-91000000D02*
X97700000Y-91000000D01*
X97700000Y-91000000D02*
X95500000Y-88800000D01*
X95500000Y-86070937D02*
X94829063Y-85400000D01*
X95500000Y-87000000D02*
X95500000Y-86070937D01*
X84000000Y-88800000D02*
X84000000Y-87000000D01*
X86200000Y-91000000D02*
X84000000Y-88800000D01*
X97700000Y-91000000D02*
X86200000Y-91000000D01*
X84000000Y-86070937D02*
X83329063Y-85400000D01*
X84000000Y-87000000D02*
X84000000Y-86070937D01*
X106329063Y-86329063D02*
X107000000Y-87000000D01*
X106329063Y-85400000D02*
X106329063Y-86329063D01*
X104800000Y-91000000D02*
X104720002Y-91000000D01*
X107000000Y-87000000D02*
X107000000Y-88800000D01*
X125000000Y-91000000D02*
X129000000Y-87000000D01*
X119000000Y-91000000D02*
X105000000Y-91000000D01*
X105000000Y-91000000D02*
X104800000Y-91000000D01*
X107000000Y-88800000D02*
X105000000Y-91000000D01*
X119000000Y-91000000D02*
X125000000Y-91000000D01*
X119000000Y-88500000D02*
X119000000Y-91000000D01*
D24*
X54497460Y-60000000D02*
X54497460Y-53340000D01*
X54497460Y-53340000D02*
X57997460Y-49840000D01*
D23*
X74840000Y-105160000D02*
X73000000Y-107000000D01*
X73000000Y-107000000D02*
X73000000Y-110000000D01*
D24*
X74840000Y-105002540D02*
X74840000Y-105160000D01*
X65000000Y-108500000D02*
X65000000Y-109900000D01*
X59500000Y-103000000D02*
X65000000Y-108500000D01*
X59500000Y-79000000D02*
X59500000Y-103000000D01*
M02*
