G04 #@! TF.GenerationSoftware,KiCad,Pcbnew,(5.1.5-0-10_14)*
G04 #@! TF.CreationDate,2020-02-01T21:54:20+00:00*
G04 #@! TF.ProjectId,PowerSupply,506f7765-7253-4757-9070-6c792e6b6963,rev?*
G04 #@! TF.SameCoordinates,Original*
G04 #@! TF.FileFunction,Legend,Bot*
G04 #@! TF.FilePolarity,Positive*
%FSLAX46Y46*%
G04 Gerber Fmt 4.6, Leading zero omitted, Abs format (unit mm)*
G04 Created by KiCad (PCBNEW (5.1.5-0-10_14)) date 2020-02-01 21:54:20*
%MOMM*%
%LPD*%
G04 APERTURE LIST*
%ADD10C,0.300000*%
%ADD11C,0.120000*%
G04 APERTURE END LIST*
D10*
X117823214Y-66505952D02*
X117882738Y-66684523D01*
X117942261Y-66744047D01*
X118061309Y-66803571D01*
X118239880Y-66803571D01*
X118358928Y-66744047D01*
X118418452Y-66684523D01*
X118477976Y-66565476D01*
X118477976Y-66089285D01*
X117227976Y-66089285D01*
X117227976Y-66505952D01*
X117287500Y-66625000D01*
X117347023Y-66684523D01*
X117466071Y-66744047D01*
X117585119Y-66744047D01*
X117704166Y-66684523D01*
X117763690Y-66625000D01*
X117823214Y-66505952D01*
X117823214Y-66089285D01*
X118001785Y-67339285D02*
X118001785Y-68291666D01*
X118477976Y-67815476D02*
X117525595Y-67815476D01*
X117347023Y-68827380D02*
X117287500Y-68886904D01*
X117227976Y-69005952D01*
X117227976Y-69303571D01*
X117287500Y-69422619D01*
X117347023Y-69482142D01*
X117466071Y-69541666D01*
X117585119Y-69541666D01*
X117763690Y-69482142D01*
X118477976Y-68767857D01*
X118477976Y-69541666D01*
X118001785Y-70077380D02*
X118001785Y-71029761D01*
X118120833Y-71565476D02*
X118120833Y-72160714D01*
X118477976Y-71446428D02*
X117227976Y-71863095D01*
X118477976Y-72279761D01*
X117287500Y-73351190D02*
X117227976Y-73232142D01*
X117227976Y-73053571D01*
X117287500Y-72875000D01*
X117406547Y-72755952D01*
X117525595Y-72696428D01*
X117763690Y-72636904D01*
X117942261Y-72636904D01*
X118180357Y-72696428D01*
X118299404Y-72755952D01*
X118418452Y-72875000D01*
X118477976Y-73053571D01*
X118477976Y-73172619D01*
X118418452Y-73351190D01*
X118358928Y-73410714D01*
X117942261Y-73410714D01*
X117942261Y-73172619D01*
X118477976Y-73946428D02*
X117227976Y-73946428D01*
X118477976Y-74660714D01*
X117227976Y-74660714D01*
X118477976Y-75255952D02*
X117227976Y-75255952D01*
X117227976Y-75553571D01*
X117287500Y-75732142D01*
X117406547Y-75851190D01*
X117525595Y-75910714D01*
X117763690Y-75970238D01*
X117942261Y-75970238D01*
X118180357Y-75910714D01*
X118299404Y-75851190D01*
X118418452Y-75732142D01*
X118477976Y-75553571D01*
X118477976Y-75255952D01*
X120652976Y-70017857D02*
X120652976Y-69422619D01*
X119402976Y-69422619D01*
X120652976Y-70434523D02*
X119819642Y-70434523D01*
X119402976Y-70434523D02*
X119462500Y-70375000D01*
X119522023Y-70434523D01*
X119462500Y-70494047D01*
X119402976Y-70434523D01*
X119522023Y-70434523D01*
X119819642Y-71029761D02*
X120652976Y-71029761D01*
X119938690Y-71029761D02*
X119879166Y-71089285D01*
X119819642Y-71208333D01*
X119819642Y-71386904D01*
X119879166Y-71505952D01*
X119998214Y-71565476D01*
X120652976Y-71565476D01*
X120652976Y-72160714D02*
X119402976Y-72160714D01*
X120176785Y-72279761D02*
X120652976Y-72636904D01*
X119819642Y-72636904D02*
X120295833Y-72160714D01*
X96323214Y-65505952D02*
X96382738Y-65684523D01*
X96442261Y-65744047D01*
X96561309Y-65803571D01*
X96739880Y-65803571D01*
X96858928Y-65744047D01*
X96918452Y-65684523D01*
X96977976Y-65565476D01*
X96977976Y-65089285D01*
X95727976Y-65089285D01*
X95727976Y-65505952D01*
X95787500Y-65625000D01*
X95847023Y-65684523D01*
X95966071Y-65744047D01*
X96085119Y-65744047D01*
X96204166Y-65684523D01*
X96263690Y-65625000D01*
X96323214Y-65505952D01*
X96323214Y-65089285D01*
X96977976Y-66339285D02*
X96144642Y-66339285D01*
X95727976Y-66339285D02*
X95787500Y-66279761D01*
X95847023Y-66339285D01*
X95787500Y-66398809D01*
X95727976Y-66339285D01*
X95847023Y-66339285D01*
X96977976Y-67470238D02*
X96323214Y-67470238D01*
X96204166Y-67410714D01*
X96144642Y-67291666D01*
X96144642Y-67053571D01*
X96204166Y-66934523D01*
X96918452Y-67470238D02*
X96977976Y-67351190D01*
X96977976Y-67053571D01*
X96918452Y-66934523D01*
X96799404Y-66875000D01*
X96680357Y-66875000D01*
X96561309Y-66934523D01*
X96501785Y-67053571D01*
X96501785Y-67351190D01*
X96442261Y-67470238D01*
X96918452Y-68005952D02*
X96977976Y-68125000D01*
X96977976Y-68363095D01*
X96918452Y-68482142D01*
X96799404Y-68541666D01*
X96739880Y-68541666D01*
X96620833Y-68482142D01*
X96561309Y-68363095D01*
X96561309Y-68184523D01*
X96501785Y-68065476D01*
X96382738Y-68005952D01*
X96323214Y-68005952D01*
X96204166Y-68065476D01*
X96144642Y-68184523D01*
X96144642Y-68363095D01*
X96204166Y-68482142D01*
X96501785Y-69077380D02*
X96501785Y-70029761D01*
X96620833Y-70565476D02*
X96620833Y-71160714D01*
X96977976Y-70446428D02*
X95727976Y-70863095D01*
X96977976Y-71279761D01*
X95787500Y-72351190D02*
X95727976Y-72232142D01*
X95727976Y-72053571D01*
X95787500Y-71875000D01*
X95906547Y-71755952D01*
X96025595Y-71696428D01*
X96263690Y-71636904D01*
X96442261Y-71636904D01*
X96680357Y-71696428D01*
X96799404Y-71755952D01*
X96918452Y-71875000D01*
X96977976Y-72053571D01*
X96977976Y-72172619D01*
X96918452Y-72351190D01*
X96858928Y-72410714D01*
X96442261Y-72410714D01*
X96442261Y-72172619D01*
X96977976Y-72946428D02*
X95727976Y-72946428D01*
X96977976Y-73660714D01*
X95727976Y-73660714D01*
X96977976Y-74255952D02*
X95727976Y-74255952D01*
X95727976Y-74553571D01*
X95787500Y-74732142D01*
X95906547Y-74851190D01*
X96025595Y-74910714D01*
X96263690Y-74970238D01*
X96442261Y-74970238D01*
X96680357Y-74910714D01*
X96799404Y-74851190D01*
X96918452Y-74732142D01*
X96977976Y-74553571D01*
X96977976Y-74255952D01*
X99152976Y-69017857D02*
X99152976Y-68422619D01*
X97902976Y-68422619D01*
X99152976Y-69434523D02*
X98319642Y-69434523D01*
X97902976Y-69434523D02*
X97962500Y-69375000D01*
X98022023Y-69434523D01*
X97962500Y-69494047D01*
X97902976Y-69434523D01*
X98022023Y-69434523D01*
X98319642Y-70029761D02*
X99152976Y-70029761D01*
X98438690Y-70029761D02*
X98379166Y-70089285D01*
X98319642Y-70208333D01*
X98319642Y-70386904D01*
X98379166Y-70505952D01*
X98498214Y-70565476D01*
X99152976Y-70565476D01*
X99152976Y-71160714D02*
X97902976Y-71160714D01*
X98676785Y-71279761D02*
X99152976Y-71636904D01*
X98319642Y-71636904D02*
X98795833Y-71160714D01*
X107810714Y-102115476D02*
X107096428Y-102115476D01*
X107453571Y-103365476D02*
X107453571Y-102115476D01*
X106679761Y-103365476D02*
X106679761Y-102532142D01*
X106679761Y-102770238D02*
X106620238Y-102651190D01*
X106560714Y-102591666D01*
X106441666Y-102532142D01*
X106322619Y-102532142D01*
X105905952Y-103365476D02*
X105905952Y-102532142D01*
X105905952Y-102115476D02*
X105965476Y-102175000D01*
X105905952Y-102234523D01*
X105846428Y-102175000D01*
X105905952Y-102115476D01*
X105905952Y-102234523D01*
X105310714Y-103365476D02*
X105310714Y-102532142D01*
X105310714Y-102651190D02*
X105251190Y-102591666D01*
X105132142Y-102532142D01*
X104953571Y-102532142D01*
X104834523Y-102591666D01*
X104775000Y-102710714D01*
X104775000Y-103365476D01*
X104775000Y-102710714D02*
X104715476Y-102591666D01*
X104596428Y-102532142D01*
X104417857Y-102532142D01*
X104298809Y-102591666D01*
X104239285Y-102710714D01*
X104239285Y-103365476D01*
X103703571Y-103008333D02*
X103108333Y-103008333D01*
X103822619Y-103365476D02*
X103405952Y-102115476D01*
X102989285Y-103365476D01*
X96000000Y-101915476D02*
X95285714Y-101915476D01*
X95642857Y-103165476D02*
X95642857Y-101915476D01*
X94869047Y-103165476D02*
X94869047Y-102332142D01*
X94869047Y-102570238D02*
X94809523Y-102451190D01*
X94750000Y-102391666D01*
X94630952Y-102332142D01*
X94511904Y-102332142D01*
X94095238Y-103165476D02*
X94095238Y-102332142D01*
X94095238Y-101915476D02*
X94154761Y-101975000D01*
X94095238Y-102034523D01*
X94035714Y-101975000D01*
X94095238Y-101915476D01*
X94095238Y-102034523D01*
X93500000Y-103165476D02*
X93500000Y-102332142D01*
X93500000Y-102451190D02*
X93440476Y-102391666D01*
X93321428Y-102332142D01*
X93142857Y-102332142D01*
X93023809Y-102391666D01*
X92964285Y-102510714D01*
X92964285Y-103165476D01*
X92964285Y-102510714D02*
X92904761Y-102391666D01*
X92785714Y-102332142D01*
X92607142Y-102332142D01*
X92488095Y-102391666D01*
X92428571Y-102510714D01*
X92428571Y-103165476D01*
X91416666Y-102510714D02*
X91238095Y-102570238D01*
X91178571Y-102629761D01*
X91119047Y-102748809D01*
X91119047Y-102927380D01*
X91178571Y-103046428D01*
X91238095Y-103105952D01*
X91357142Y-103165476D01*
X91833333Y-103165476D01*
X91833333Y-101915476D01*
X91416666Y-101915476D01*
X91297619Y-101975000D01*
X91238095Y-102034523D01*
X91178571Y-102153571D01*
X91178571Y-102272619D01*
X91238095Y-102391666D01*
X91297619Y-102451190D01*
X91416666Y-102510714D01*
X91833333Y-102510714D01*
D11*
X99000000Y-74200000D02*
G75*
G03X99700000Y-74900000I700000J0D01*
G01*
X100300000Y-74900000D02*
G75*
G03X101000000Y-74200000I0J700000D01*
G01*
X101000000Y-72800000D02*
G75*
G03X100300000Y-72100000I-700000J0D01*
G01*
X99700000Y-72100000D02*
G75*
G03X99000000Y-72800000I0J-700000D01*
G01*
X100300000Y-72100000D02*
X99700000Y-72100000D01*
X101000000Y-74200000D02*
X101000000Y-72800000D01*
X99700000Y-74900000D02*
X100300000Y-74900000D01*
X99000000Y-72800000D02*
X99000000Y-74200000D01*
X101414000Y-105010000D02*
X101414000Y-111100000D01*
X109665000Y-105010000D02*
X109665000Y-111100000D01*
X101414000Y-105010000D02*
X109665000Y-105010000D01*
X101414000Y-111100000D02*
X109665000Y-111100000D01*
X101670000Y-111100000D02*
X101670000Y-113131000D01*
X109410000Y-111100000D02*
X109410000Y-113131000D01*
X101670000Y-111100000D02*
X109410000Y-111100000D01*
X101670000Y-113131000D02*
X109410000Y-113131000D01*
X89414000Y-105010000D02*
X89414000Y-111100000D01*
X97665000Y-105010000D02*
X97665000Y-111100000D01*
X89414000Y-105010000D02*
X97665000Y-105010000D01*
X89414000Y-111100000D02*
X97665000Y-111100000D01*
X89670000Y-111100000D02*
X89670000Y-113131000D01*
X97410000Y-111100000D02*
X97410000Y-113131000D01*
X89670000Y-111100000D02*
X97410000Y-111100000D01*
X89670000Y-113131000D02*
X97410000Y-113131000D01*
X120000000Y-75850000D02*
G75*
G03X120700000Y-76550000I700000J0D01*
G01*
X121300000Y-76550000D02*
G75*
G03X122000000Y-75850000I0J700000D01*
G01*
X122000000Y-74450000D02*
G75*
G03X121300000Y-73750000I-700000J0D01*
G01*
X120700000Y-73750000D02*
G75*
G03X120000000Y-74450000I0J-700000D01*
G01*
X121300000Y-73750000D02*
X120700000Y-73750000D01*
X122000000Y-75850000D02*
X122000000Y-74450000D01*
X120700000Y-76550000D02*
X121300000Y-76550000D01*
X120000000Y-74450000D02*
X120000000Y-75850000D01*
M02*
