G04 #@! TF.GenerationSoftware,KiCad,Pcbnew,(6.0.0-0)*
G04 #@! TF.CreationDate,2022-01-15T15:53:31+00:00*
G04 #@! TF.ProjectId,SelectPCB,53656c65-6374-4504-9342-2e6b69636164,rev?*
G04 #@! TF.SameCoordinates,Original*
G04 #@! TF.FileFunction,Copper,L1,Top*
G04 #@! TF.FilePolarity,Positive*
%FSLAX46Y46*%
G04 Gerber Fmt 4.6, Leading zero omitted, Abs format (unit mm)*
G04 Created by KiCad (PCBNEW (6.0.0-0)) date 2022-01-15 15:53:31*
%MOMM*%
%LPD*%
G01*
G04 APERTURE LIST*
G04 #@! TA.AperFunction,ComponentPad*
%ADD10C,2.000000*%
G04 #@! TD*
G04 #@! TA.AperFunction,ComponentPad*
%ADD11C,1.600000*%
G04 #@! TD*
G04 #@! TA.AperFunction,ComponentPad*
%ADD12O,1.600000X1.600000*%
G04 #@! TD*
G04 #@! TA.AperFunction,ComponentPad*
%ADD13C,4.000500*%
G04 #@! TD*
G04 #@! TA.AperFunction,ComponentPad*
%ADD14R,2.450000X2.450000*%
G04 #@! TD*
G04 #@! TA.AperFunction,ComponentPad*
%ADD15C,2.450000*%
G04 #@! TD*
G04 #@! TA.AperFunction,Conductor*
%ADD16C,1.000000*%
G04 #@! TD*
G04 APERTURE END LIST*
D10*
X144500000Y-94976000D03*
X144500000Y-102476000D03*
D11*
X158750000Y-109250000D03*
D12*
X148590000Y-109250000D03*
D11*
X158750000Y-87250000D03*
D12*
X148590000Y-87250000D03*
D11*
X148590000Y-90500000D03*
D12*
X158750000Y-90500000D03*
D13*
X144750000Y-108250000D03*
X144500000Y-88750000D03*
X162750000Y-108250000D03*
X162750000Y-99750000D03*
X162750000Y-88750000D03*
D14*
X155915000Y-95050000D03*
D15*
X155915000Y-99750000D03*
X155915000Y-104450000D03*
X151085000Y-95050000D03*
X151085000Y-99750000D03*
X151085000Y-104450000D03*
D16*
X144500000Y-88750000D02*
X146840000Y-88750000D01*
X146840000Y-88750000D02*
X148590000Y-90500000D01*
X144500000Y-94590000D02*
X148590000Y-90500000D01*
X144500000Y-94976000D02*
X144500000Y-94590000D01*
X154500000Y-92028630D02*
X154500000Y-92250000D01*
X148590000Y-87250000D02*
X149721370Y-87250000D01*
X148750000Y-94000000D02*
X150500000Y-92250000D01*
X157160000Y-92250000D02*
X158910000Y-90500000D01*
X156000000Y-92250000D02*
X157160000Y-92250000D01*
X149721370Y-87250000D02*
X154500000Y-92028630D01*
X148750000Y-100500000D02*
X148750000Y-94000000D01*
X144500000Y-102476000D02*
X148362000Y-102476000D01*
X155915000Y-95050000D02*
X155915000Y-92825000D01*
X150500000Y-92250000D02*
X154500000Y-92250000D01*
X148750000Y-102115000D02*
X148750000Y-100500000D01*
X155915000Y-92825000D02*
X156000000Y-92740000D01*
X156000000Y-92740000D02*
X156000000Y-92250000D01*
X148362000Y-102476000D02*
X148750000Y-102088000D01*
X154500000Y-92250000D02*
X156000000Y-92250000D01*
X151085000Y-104450000D02*
X148750000Y-102115000D01*
X151085000Y-95050000D02*
X151085000Y-95335000D01*
X155915000Y-104450000D02*
X155915000Y-106415000D01*
X155915000Y-103915000D02*
X155915000Y-104450000D01*
X158750000Y-109250000D02*
X161750000Y-109250000D01*
X151085000Y-95335000D02*
X153750000Y-98000000D01*
X153750000Y-101750000D02*
X155915000Y-103915000D01*
X153750000Y-98000000D02*
X153750000Y-101750000D01*
X155915000Y-106415000D02*
X158750000Y-109250000D01*
X161750000Y-109250000D02*
X162750000Y-108250000D01*
X161250000Y-87250000D02*
X162750000Y-88750000D01*
X158750000Y-87250000D02*
X161250000Y-87250000D01*
X162750000Y-99750000D02*
X155915000Y-99750000D01*
G04 #@! TA.AperFunction,Conductor*
G36*
X144253941Y-86028002D02*
G01*
X144300434Y-86081658D01*
X144310538Y-86151932D01*
X144281044Y-86216512D01*
X144221318Y-86254896D01*
X144201612Y-86259006D01*
X144032910Y-86280318D01*
X144032906Y-86280319D01*
X144028978Y-86280815D01*
X143919447Y-86308938D01*
X143727059Y-86358334D01*
X143727051Y-86358337D01*
X143723221Y-86359320D01*
X143429714Y-86475527D01*
X143426246Y-86477434D01*
X143426243Y-86477435D01*
X143206504Y-86598238D01*
X143153087Y-86627604D01*
X143149879Y-86629935D01*
X142914763Y-86800757D01*
X142897701Y-86813153D01*
X142667584Y-87029247D01*
X142466366Y-87272478D01*
X142297219Y-87539011D01*
X142295532Y-87542597D01*
X142165671Y-87818567D01*
X142162812Y-87824642D01*
X142065263Y-88124866D01*
X142006111Y-88434949D01*
X141986290Y-88750000D01*
X142006111Y-89065051D01*
X142065263Y-89375134D01*
X142162812Y-89675358D01*
X142297219Y-89960989D01*
X142466366Y-90227522D01*
X142667584Y-90470753D01*
X142897701Y-90686847D01*
X143153087Y-90872396D01*
X143429714Y-91024473D01*
X143723221Y-91140680D01*
X143727051Y-91141663D01*
X143727059Y-91141666D01*
X143919447Y-91191062D01*
X144028978Y-91219185D01*
X144032906Y-91219681D01*
X144032910Y-91219682D01*
X144156292Y-91235269D01*
X144342163Y-91258750D01*
X144657837Y-91258750D01*
X144843708Y-91235269D01*
X144967090Y-91219682D01*
X144967094Y-91219681D01*
X144971022Y-91219185D01*
X145080553Y-91191062D01*
X145272941Y-91141666D01*
X145272949Y-91141663D01*
X145276779Y-91140680D01*
X145570286Y-91024473D01*
X145846913Y-90872396D01*
X146102299Y-90686847D01*
X146332416Y-90470753D01*
X146533634Y-90227522D01*
X146588217Y-90141513D01*
X146641606Y-90094714D01*
X146711821Y-90084209D01*
X146776569Y-90113333D01*
X146783688Y-90119922D01*
X146925071Y-90261306D01*
X147074671Y-90410906D01*
X147108696Y-90473218D01*
X147103631Y-90544034D01*
X147074670Y-90589096D01*
X144181844Y-93481922D01*
X144122163Y-93515346D01*
X144105923Y-93519245D01*
X144032406Y-93536895D01*
X144027835Y-93538788D01*
X144027833Y-93538789D01*
X143817611Y-93625865D01*
X143817607Y-93625867D01*
X143813037Y-93627760D01*
X143808817Y-93630346D01*
X143614798Y-93749241D01*
X143614792Y-93749245D01*
X143610584Y-93751824D01*
X143430031Y-93906031D01*
X143275824Y-94086584D01*
X143273245Y-94090792D01*
X143273241Y-94090798D01*
X143154346Y-94284817D01*
X143151760Y-94289037D01*
X143149867Y-94293607D01*
X143149865Y-94293611D01*
X143062789Y-94503833D01*
X143060895Y-94508406D01*
X143051795Y-94546309D01*
X143031118Y-94632438D01*
X143005465Y-94739289D01*
X142986835Y-94976000D01*
X143005465Y-95212711D01*
X143060895Y-95443594D01*
X143062788Y-95448165D01*
X143062789Y-95448167D01*
X143132725Y-95617007D01*
X143151760Y-95662963D01*
X143154346Y-95667183D01*
X143273241Y-95861202D01*
X143273245Y-95861208D01*
X143275824Y-95865416D01*
X143430031Y-96045969D01*
X143610584Y-96200176D01*
X143614792Y-96202755D01*
X143614798Y-96202759D01*
X143805656Y-96319717D01*
X143813037Y-96324240D01*
X143817607Y-96326133D01*
X143817611Y-96326135D01*
X144027833Y-96413211D01*
X144032406Y-96415105D01*
X144112609Y-96434360D01*
X144258476Y-96469380D01*
X144258482Y-96469381D01*
X144263289Y-96470535D01*
X144500000Y-96489165D01*
X144736711Y-96470535D01*
X144741518Y-96469381D01*
X144741524Y-96469380D01*
X144887391Y-96434360D01*
X144967594Y-96415105D01*
X144972167Y-96413211D01*
X145182389Y-96326135D01*
X145182393Y-96326133D01*
X145186963Y-96324240D01*
X145194344Y-96319717D01*
X145385202Y-96202759D01*
X145385208Y-96202755D01*
X145389416Y-96200176D01*
X145569969Y-96045969D01*
X145724176Y-95865416D01*
X145726755Y-95861208D01*
X145726759Y-95861202D01*
X145845654Y-95667183D01*
X145848240Y-95662963D01*
X145867276Y-95617007D01*
X145937211Y-95448167D01*
X145937212Y-95448165D01*
X145939105Y-95443594D01*
X145994535Y-95212711D01*
X146013165Y-94976000D01*
X145994535Y-94739289D01*
X145968882Y-94632436D01*
X145972429Y-94561531D01*
X146002306Y-94513929D01*
X148681117Y-91835118D01*
X148743429Y-91801092D01*
X148759229Y-91798692D01*
X148818087Y-91793543D01*
X148965859Y-91753947D01*
X149033933Y-91735707D01*
X149033935Y-91735706D01*
X149039243Y-91734284D01*
X149044225Y-91731961D01*
X149241762Y-91639849D01*
X149241767Y-91639846D01*
X149246749Y-91637523D01*
X149404526Y-91527046D01*
X149429789Y-91509357D01*
X149429792Y-91509355D01*
X149434300Y-91506198D01*
X149596198Y-91344300D01*
X149616030Y-91315978D01*
X149657723Y-91256433D01*
X149727523Y-91156749D01*
X149729846Y-91151767D01*
X149729849Y-91151762D01*
X149821961Y-90954225D01*
X149821961Y-90954224D01*
X149824284Y-90949243D01*
X149883543Y-90728087D01*
X149903498Y-90500000D01*
X149883543Y-90271913D01*
X149882119Y-90266598D01*
X149825707Y-90056067D01*
X149825706Y-90056065D01*
X149824284Y-90050757D01*
X149821961Y-90045775D01*
X149729849Y-89848238D01*
X149729846Y-89848233D01*
X149727523Y-89843251D01*
X149654098Y-89738389D01*
X149599357Y-89660211D01*
X149599355Y-89660208D01*
X149596198Y-89655700D01*
X149434300Y-89493802D01*
X149429792Y-89490645D01*
X149429789Y-89490643D01*
X149351611Y-89435902D01*
X149246749Y-89362477D01*
X149241767Y-89360154D01*
X149241762Y-89360151D01*
X149044225Y-89268039D01*
X149044224Y-89268039D01*
X149039243Y-89265716D01*
X149033935Y-89264294D01*
X149033933Y-89264293D01*
X148965859Y-89246053D01*
X148818087Y-89206457D01*
X148759229Y-89201308D01*
X148693112Y-89175445D01*
X148681116Y-89164882D01*
X148275597Y-88759363D01*
X148241571Y-88697051D01*
X148246636Y-88626236D01*
X148289183Y-88569400D01*
X148355703Y-88544589D01*
X148375674Y-88544747D01*
X148584525Y-88563019D01*
X148590000Y-88563498D01*
X148818087Y-88543543D01*
X148823400Y-88542119D01*
X148823402Y-88542119D01*
X149033933Y-88485707D01*
X149033935Y-88485706D01*
X149039243Y-88484284D01*
X149044225Y-88481961D01*
X149241762Y-88389849D01*
X149241767Y-88389846D01*
X149246749Y-88387523D01*
X149269488Y-88371601D01*
X149336762Y-88348913D01*
X149405623Y-88366198D01*
X149430854Y-88385719D01*
X152071541Y-91026405D01*
X152105567Y-91088717D01*
X152100502Y-91159532D01*
X152057955Y-91216368D01*
X151991435Y-91241179D01*
X151982446Y-91241500D01*
X150561850Y-91241500D01*
X150548242Y-91240763D01*
X150547662Y-91240700D01*
X150510612Y-91236675D01*
X150460570Y-91241053D01*
X150455788Y-91241379D01*
X150453310Y-91241500D01*
X150450231Y-91241500D01*
X150447177Y-91241799D01*
X150447166Y-91241800D01*
X150407529Y-91245687D01*
X150406215Y-91245809D01*
X150370688Y-91248917D01*
X150313587Y-91253913D01*
X150308468Y-91255400D01*
X150303167Y-91255920D01*
X150214166Y-91282791D01*
X150213033Y-91283126D01*
X150129586Y-91307370D01*
X150129582Y-91307372D01*
X150123664Y-91309091D01*
X150118932Y-91311544D01*
X150113831Y-91313084D01*
X150108388Y-91315978D01*
X150031740Y-91356731D01*
X150030574Y-91357343D01*
X149953547Y-91397271D01*
X149948074Y-91400108D01*
X149943911Y-91403431D01*
X149939204Y-91405934D01*
X149934429Y-91409828D01*
X149934428Y-91409829D01*
X149867102Y-91464739D01*
X149866075Y-91465567D01*
X149829792Y-91494531D01*
X149829787Y-91494536D01*
X149827028Y-91496738D01*
X149824527Y-91499239D01*
X149823809Y-91499881D01*
X149819461Y-91503594D01*
X149785938Y-91530935D01*
X149782015Y-91535677D01*
X149782013Y-91535679D01*
X149756703Y-91566273D01*
X149748713Y-91575053D01*
X148080621Y-93243145D01*
X148070478Y-93252247D01*
X148040975Y-93275968D01*
X148037008Y-93280696D01*
X148008709Y-93314421D01*
X148005528Y-93318069D01*
X148003885Y-93319881D01*
X148001691Y-93322075D01*
X147974358Y-93355349D01*
X147973696Y-93356147D01*
X147913846Y-93427474D01*
X147911278Y-93432144D01*
X147907897Y-93436261D01*
X147900832Y-93449438D01*
X147864023Y-93518086D01*
X147863394Y-93519245D01*
X147821538Y-93595381D01*
X147821535Y-93595389D01*
X147818567Y-93600787D01*
X147816955Y-93605869D01*
X147814438Y-93610563D01*
X147787238Y-93699531D01*
X147786918Y-93700559D01*
X147758765Y-93789306D01*
X147758171Y-93794602D01*
X147756613Y-93799698D01*
X147755990Y-93805834D01*
X147747218Y-93892187D01*
X147747089Y-93893393D01*
X147741500Y-93943227D01*
X147741500Y-93946754D01*
X147741445Y-93947739D01*
X147740998Y-93953419D01*
X147736626Y-93996462D01*
X147737206Y-94002593D01*
X147740941Y-94042109D01*
X147741500Y-94053967D01*
X147741500Y-101341500D01*
X147721498Y-101409621D01*
X147667842Y-101456114D01*
X147615500Y-101467500D01*
X145680556Y-101467500D01*
X145612435Y-101447498D01*
X145584746Y-101423332D01*
X145573178Y-101409788D01*
X145573177Y-101409787D01*
X145569969Y-101406031D01*
X145389416Y-101251824D01*
X145385208Y-101249245D01*
X145385202Y-101249241D01*
X145191183Y-101130346D01*
X145186963Y-101127760D01*
X145182393Y-101125867D01*
X145182389Y-101125865D01*
X144972167Y-101038789D01*
X144972165Y-101038788D01*
X144967594Y-101036895D01*
X144887391Y-101017640D01*
X144741524Y-100982620D01*
X144741518Y-100982619D01*
X144736711Y-100981465D01*
X144500000Y-100962835D01*
X144263289Y-100981465D01*
X144258482Y-100982619D01*
X144258476Y-100982620D01*
X144112609Y-101017640D01*
X144032406Y-101036895D01*
X144027835Y-101038788D01*
X144027833Y-101038789D01*
X143817611Y-101125865D01*
X143817607Y-101125867D01*
X143813037Y-101127760D01*
X143808817Y-101130346D01*
X143614798Y-101249241D01*
X143614792Y-101249245D01*
X143610584Y-101251824D01*
X143430031Y-101406031D01*
X143426823Y-101409787D01*
X143411621Y-101427586D01*
X143275824Y-101586584D01*
X143273245Y-101590792D01*
X143273241Y-101590798D01*
X143154346Y-101784817D01*
X143151760Y-101789037D01*
X143149867Y-101793607D01*
X143149865Y-101793611D01*
X143086492Y-101946609D01*
X143060895Y-102008406D01*
X143054038Y-102036967D01*
X143010234Y-102219426D01*
X143005465Y-102239289D01*
X142986835Y-102476000D01*
X143005465Y-102712711D01*
X143006619Y-102717518D01*
X143006620Y-102717524D01*
X143017080Y-102761093D01*
X143060895Y-102943594D01*
X143062788Y-102948165D01*
X143062789Y-102948167D01*
X143063594Y-102950109D01*
X143151760Y-103162963D01*
X143154346Y-103167183D01*
X143273241Y-103361202D01*
X143273245Y-103361208D01*
X143275824Y-103365416D01*
X143430031Y-103545969D01*
X143610584Y-103700176D01*
X143614792Y-103702755D01*
X143614798Y-103702759D01*
X143808817Y-103821654D01*
X143813037Y-103824240D01*
X143817607Y-103826133D01*
X143817611Y-103826135D01*
X144027833Y-103913211D01*
X144032406Y-103915105D01*
X144112609Y-103934360D01*
X144258476Y-103969380D01*
X144258482Y-103969381D01*
X144263289Y-103970535D01*
X144500000Y-103989165D01*
X144736711Y-103970535D01*
X144741518Y-103969381D01*
X144741524Y-103969380D01*
X144887391Y-103934360D01*
X144967594Y-103915105D01*
X144972167Y-103913211D01*
X145182389Y-103826135D01*
X145182393Y-103826133D01*
X145186963Y-103824240D01*
X145191183Y-103821654D01*
X145385202Y-103702759D01*
X145385208Y-103702755D01*
X145389416Y-103700176D01*
X145569969Y-103545969D01*
X145584746Y-103528668D01*
X145644197Y-103489860D01*
X145680556Y-103484500D01*
X148300157Y-103484500D01*
X148313764Y-103485237D01*
X148345262Y-103488659D01*
X148345267Y-103488659D01*
X148351388Y-103489324D01*
X148377638Y-103487027D01*
X148401388Y-103484950D01*
X148406214Y-103484621D01*
X148408686Y-103484500D01*
X148411769Y-103484500D01*
X148423738Y-103483326D01*
X148454506Y-103480310D01*
X148455819Y-103480188D01*
X148500084Y-103476315D01*
X148548413Y-103472087D01*
X148553532Y-103470600D01*
X148558833Y-103470080D01*
X148569302Y-103466919D01*
X148578827Y-103464044D01*
X148649821Y-103463505D01*
X148704336Y-103495572D01*
X149329313Y-104120549D01*
X149363339Y-104182861D01*
X149365584Y-104222267D01*
X149351802Y-104359136D01*
X149347235Y-104404495D01*
X149347459Y-104409162D01*
X149347459Y-104409167D01*
X149349572Y-104453160D01*
X149359596Y-104661853D01*
X149409862Y-104914557D01*
X149496928Y-105157055D01*
X149618881Y-105384021D01*
X149621676Y-105387764D01*
X149621678Y-105387767D01*
X149770250Y-105586729D01*
X149770255Y-105586735D01*
X149773042Y-105590467D01*
X149776351Y-105593747D01*
X149776356Y-105593753D01*
X149925648Y-105741747D01*
X149956025Y-105771860D01*
X149959787Y-105774618D01*
X149959790Y-105774621D01*
X150077293Y-105860778D01*
X150163809Y-105924214D01*
X150167940Y-105926388D01*
X150167941Y-105926388D01*
X150387695Y-106042006D01*
X150387701Y-106042008D01*
X150391830Y-106044181D01*
X150396238Y-106045720D01*
X150396244Y-106045723D01*
X150630663Y-106127586D01*
X150635079Y-106129128D01*
X150639672Y-106130000D01*
X150883623Y-106176316D01*
X150883626Y-106176316D01*
X150888212Y-106177187D01*
X151010492Y-106181991D01*
X151141000Y-106187119D01*
X151141005Y-106187119D01*
X151145668Y-106187302D01*
X151245981Y-106176316D01*
X151397138Y-106159762D01*
X151397143Y-106159761D01*
X151401791Y-106159252D01*
X151512899Y-106130000D01*
X151646432Y-106094844D01*
X151646434Y-106094843D01*
X151650955Y-106093653D01*
X151766104Y-106044181D01*
X151883392Y-105993790D01*
X151883394Y-105993789D01*
X151887686Y-105991945D01*
X152106783Y-105856364D01*
X152303433Y-105689887D01*
X152390622Y-105590467D01*
X152470241Y-105499680D01*
X152470244Y-105499676D01*
X152473317Y-105496172D01*
X152612701Y-105279474D01*
X152718525Y-105044554D01*
X152719795Y-105040051D01*
X152787193Y-104801077D01*
X152787194Y-104801074D01*
X152788463Y-104796573D01*
X152820979Y-104540979D01*
X152823361Y-104450000D01*
X152820327Y-104409167D01*
X152804614Y-104197719D01*
X152804613Y-104197715D01*
X152804267Y-104193054D01*
X152747403Y-103941752D01*
X152701705Y-103824240D01*
X152655712Y-103705969D01*
X152655711Y-103705967D01*
X152654019Y-103701616D01*
X152526167Y-103477921D01*
X152366654Y-103275580D01*
X152178986Y-103099040D01*
X151967285Y-102952177D01*
X151963095Y-102950111D01*
X151963092Y-102950109D01*
X151740389Y-102840285D01*
X151740386Y-102840284D01*
X151736201Y-102838220D01*
X151490812Y-102759670D01*
X151486205Y-102758920D01*
X151486202Y-102758919D01*
X151288664Y-102726748D01*
X151236508Y-102718254D01*
X151111285Y-102716615D01*
X150983553Y-102714942D01*
X150983550Y-102714942D01*
X150978876Y-102714881D01*
X150862310Y-102730745D01*
X150792116Y-102720112D01*
X150756225Y-102694991D01*
X149795405Y-101734171D01*
X149761379Y-101671859D01*
X149758500Y-101645076D01*
X149758500Y-101175036D01*
X149778502Y-101106915D01*
X149832158Y-101060422D01*
X149902432Y-101050318D01*
X149959005Y-101073424D01*
X150160301Y-101221021D01*
X150168220Y-101225969D01*
X150387880Y-101341538D01*
X150396454Y-101345266D01*
X150630793Y-101427101D01*
X150639802Y-101429515D01*
X150883682Y-101475817D01*
X150892936Y-101476871D01*
X151140982Y-101486617D01*
X151150295Y-101486291D01*
X151397047Y-101459268D01*
X151406224Y-101457567D01*
X151646269Y-101394369D01*
X151655089Y-101391332D01*
X151883160Y-101293345D01*
X151891432Y-101289038D01*
X152102513Y-101158417D01*
X152106904Y-101155227D01*
X152114778Y-101143279D01*
X152108715Y-101132925D01*
X150814885Y-99839095D01*
X150780859Y-99776783D01*
X150785924Y-99705968D01*
X150814885Y-99660905D01*
X152105453Y-98370337D01*
X152111837Y-98358647D01*
X152102425Y-98346537D01*
X151970868Y-98255272D01*
X151962839Y-98250543D01*
X151740201Y-98140750D01*
X151731568Y-98137262D01*
X151495140Y-98061581D01*
X151486089Y-98059408D01*
X151241076Y-98019505D01*
X151231787Y-98018693D01*
X150983583Y-98015443D01*
X150974272Y-98016013D01*
X150728319Y-98049485D01*
X150719183Y-98051427D01*
X150480882Y-98120886D01*
X150472139Y-98124155D01*
X150246715Y-98228077D01*
X150238560Y-98232597D01*
X150030971Y-98368698D01*
X150023573Y-98374375D01*
X149968402Y-98423618D01*
X149904261Y-98454056D01*
X149833846Y-98444985D01*
X149779514Y-98399285D01*
X149758500Y-98329615D01*
X149758500Y-96475657D01*
X149778502Y-96407536D01*
X149832158Y-96361043D01*
X149902432Y-96350939D01*
X149959005Y-96374045D01*
X150163809Y-96524214D01*
X150167940Y-96526388D01*
X150167941Y-96526388D01*
X150387695Y-96642006D01*
X150387701Y-96642008D01*
X150391830Y-96644181D01*
X150396238Y-96645720D01*
X150396244Y-96645723D01*
X150609596Y-96720229D01*
X150635079Y-96729128D01*
X150639672Y-96730000D01*
X150883623Y-96776316D01*
X150883626Y-96776316D01*
X150888212Y-96777187D01*
X151048896Y-96783500D01*
X151060375Y-96783951D01*
X151127658Y-96806612D01*
X151144524Y-96820759D01*
X152704595Y-98380829D01*
X152738620Y-98443141D01*
X152741500Y-98469924D01*
X152741500Y-98688525D01*
X152721498Y-98756646D01*
X152667842Y-98803139D01*
X152597568Y-98813243D01*
X152532988Y-98783749D01*
X152516549Y-98766530D01*
X152488589Y-98731063D01*
X152476665Y-98722593D01*
X152465130Y-98729080D01*
X151457022Y-99737188D01*
X151449408Y-99751132D01*
X151449539Y-99752965D01*
X151453790Y-99759580D01*
X152466823Y-100772613D01*
X152479203Y-100779373D01*
X152487544Y-100773129D01*
X152509529Y-100738949D01*
X152563203Y-100692477D01*
X152633480Y-100682401D01*
X152698050Y-100711919D01*
X152736410Y-100771660D01*
X152741500Y-100807111D01*
X152741500Y-101688157D01*
X152740763Y-101701764D01*
X152736676Y-101739388D01*
X152737213Y-101745523D01*
X152741050Y-101789388D01*
X152741379Y-101794214D01*
X152741500Y-101796686D01*
X152741500Y-101799769D01*
X152741801Y-101802837D01*
X152745690Y-101842506D01*
X152745812Y-101843819D01*
X152748312Y-101872396D01*
X152753913Y-101936413D01*
X152755400Y-101941532D01*
X152755920Y-101946833D01*
X152782791Y-102035834D01*
X152783126Y-102036967D01*
X152809091Y-102126336D01*
X152811544Y-102131068D01*
X152813084Y-102136169D01*
X152815978Y-102141612D01*
X152856731Y-102218260D01*
X152857343Y-102219426D01*
X152870197Y-102244223D01*
X152900108Y-102301926D01*
X152903431Y-102306089D01*
X152905934Y-102310796D01*
X152964755Y-102382918D01*
X152965446Y-102383774D01*
X152996738Y-102422973D01*
X152999242Y-102425477D01*
X152999884Y-102426195D01*
X153003585Y-102430528D01*
X153030935Y-102464062D01*
X153035682Y-102467989D01*
X153035684Y-102467991D01*
X153066262Y-102493287D01*
X153075042Y-102501277D01*
X154267432Y-103693667D01*
X154301458Y-103755979D01*
X154294534Y-103831487D01*
X154266471Y-103898410D01*
X154203049Y-104148137D01*
X154177235Y-104404495D01*
X154177459Y-104409162D01*
X154177459Y-104409167D01*
X154179572Y-104453160D01*
X154189596Y-104661853D01*
X154239862Y-104914557D01*
X154326928Y-105157055D01*
X154448881Y-105384021D01*
X154451676Y-105387764D01*
X154451678Y-105387767D01*
X154600250Y-105586729D01*
X154600255Y-105586735D01*
X154603042Y-105590467D01*
X154606351Y-105593747D01*
X154606356Y-105593753D01*
X154755648Y-105741747D01*
X154786025Y-105771860D01*
X154789787Y-105774618D01*
X154789790Y-105774621D01*
X154855005Y-105822438D01*
X154898113Y-105878849D01*
X154906500Y-105924050D01*
X154906500Y-106353157D01*
X154905763Y-106366764D01*
X154901676Y-106404388D01*
X154902213Y-106410523D01*
X154906050Y-106454388D01*
X154906379Y-106459214D01*
X154906500Y-106461686D01*
X154906500Y-106464769D01*
X154906801Y-106467837D01*
X154910690Y-106507506D01*
X154910812Y-106508819D01*
X154914685Y-106553084D01*
X154918913Y-106601413D01*
X154920400Y-106606532D01*
X154920920Y-106611833D01*
X154947791Y-106700834D01*
X154948126Y-106701967D01*
X154969584Y-106775822D01*
X154974091Y-106791336D01*
X154976544Y-106796068D01*
X154978084Y-106801169D01*
X154980978Y-106806612D01*
X155021731Y-106883260D01*
X155022343Y-106884426D01*
X155065108Y-106966926D01*
X155068431Y-106971089D01*
X155070934Y-106975796D01*
X155129755Y-107047918D01*
X155130446Y-107048774D01*
X155161738Y-107087973D01*
X155164242Y-107090477D01*
X155164884Y-107091195D01*
X155168585Y-107095528D01*
X155195935Y-107129062D01*
X155200682Y-107132989D01*
X155200684Y-107132991D01*
X155231262Y-107158287D01*
X155240042Y-107166277D01*
X157414882Y-109341117D01*
X157448908Y-109403429D01*
X157451308Y-109419229D01*
X157456457Y-109478087D01*
X157515716Y-109699243D01*
X157518039Y-109704224D01*
X157518039Y-109704225D01*
X157610151Y-109901762D01*
X157610154Y-109901767D01*
X157612477Y-109906749D01*
X157743802Y-110094300D01*
X157905700Y-110256198D01*
X157910208Y-110259355D01*
X157910211Y-110259357D01*
X157943354Y-110282564D01*
X158093251Y-110387523D01*
X158098233Y-110389846D01*
X158098238Y-110389849D01*
X158294765Y-110481490D01*
X158300757Y-110484284D01*
X158306065Y-110485706D01*
X158306067Y-110485707D01*
X158516598Y-110542119D01*
X158516600Y-110542119D01*
X158521913Y-110543543D01*
X158750000Y-110563498D01*
X158978087Y-110543543D01*
X158983400Y-110542119D01*
X158983402Y-110542119D01*
X159193933Y-110485707D01*
X159193935Y-110485706D01*
X159199243Y-110484284D01*
X159205235Y-110481490D01*
X159401762Y-110389849D01*
X159401767Y-110389846D01*
X159406749Y-110387523D01*
X159558469Y-110281287D01*
X159630740Y-110258500D01*
X161205383Y-110258500D01*
X161273504Y-110278502D01*
X161279444Y-110282564D01*
X161403087Y-110372396D01*
X161406556Y-110374303D01*
X161406559Y-110374305D01*
X161676243Y-110522565D01*
X161679714Y-110524473D01*
X161973221Y-110640680D01*
X161977051Y-110641663D01*
X161977059Y-110641666D01*
X162169447Y-110691062D01*
X162278978Y-110719185D01*
X162282906Y-110719681D01*
X162282910Y-110719682D01*
X162406292Y-110735269D01*
X162592163Y-110758750D01*
X162907837Y-110758750D01*
X163093708Y-110735269D01*
X163217090Y-110719682D01*
X163217094Y-110719681D01*
X163221022Y-110719185D01*
X163330553Y-110691062D01*
X163522941Y-110641666D01*
X163522949Y-110641663D01*
X163526779Y-110640680D01*
X163820286Y-110524473D01*
X163823757Y-110522565D01*
X164093441Y-110374305D01*
X164093444Y-110374303D01*
X164096913Y-110372396D01*
X164352299Y-110186847D01*
X164582416Y-109970753D01*
X164783634Y-109727522D01*
X164952781Y-109460989D01*
X165087188Y-109175358D01*
X165184737Y-108875134D01*
X165242232Y-108573737D01*
X165274644Y-108510571D01*
X165336061Y-108474955D01*
X165406984Y-108478199D01*
X165464894Y-108519271D01*
X165491406Y-108585131D01*
X165492000Y-108597347D01*
X165492000Y-111366000D01*
X165471998Y-111434121D01*
X165418342Y-111480614D01*
X165366000Y-111492000D01*
X141634000Y-111492000D01*
X141565879Y-111471998D01*
X141519386Y-111418342D01*
X141508000Y-111366000D01*
X141508000Y-110196166D01*
X143168542Y-110196166D01*
X143177369Y-110207784D01*
X143400147Y-110369642D01*
X143406827Y-110373882D01*
X143676466Y-110522116D01*
X143683601Y-110525473D01*
X143969706Y-110638751D01*
X143977197Y-110641185D01*
X144275237Y-110717708D01*
X144283008Y-110719190D01*
X144588263Y-110757753D01*
X144596153Y-110758250D01*
X144903847Y-110758250D01*
X144911737Y-110757753D01*
X145216992Y-110719190D01*
X145224763Y-110717708D01*
X145522803Y-110641185D01*
X145530294Y-110638751D01*
X145816399Y-110525473D01*
X145823534Y-110522116D01*
X146093173Y-110373882D01*
X146099853Y-110369642D01*
X146323002Y-110207515D01*
X146331425Y-110196591D01*
X146324522Y-110183732D01*
X144762812Y-108622022D01*
X144748868Y-108614408D01*
X144747035Y-108614539D01*
X144740420Y-108618790D01*
X143175155Y-110184055D01*
X143168542Y-110196166D01*
X141508000Y-110196166D01*
X141508000Y-108253958D01*
X142237040Y-108253958D01*
X142256359Y-108561026D01*
X142257352Y-108568887D01*
X142315004Y-108871109D01*
X142316975Y-108878786D01*
X142412051Y-109171401D01*
X142414966Y-109178764D01*
X142545970Y-109457162D01*
X142549782Y-109464095D01*
X142714644Y-109723876D01*
X142719296Y-109730279D01*
X142794320Y-109820968D01*
X142806837Y-109829422D01*
X142817575Y-109823215D01*
X144377978Y-108262812D01*
X144384356Y-108251132D01*
X145114408Y-108251132D01*
X145114539Y-108252965D01*
X145118790Y-108259580D01*
X146681322Y-109822112D01*
X146694585Y-109829354D01*
X146704687Y-109822168D01*
X146780704Y-109730279D01*
X146785356Y-109723876D01*
X146916947Y-109516522D01*
X147307273Y-109516522D01*
X147354764Y-109693761D01*
X147358510Y-109704053D01*
X147450586Y-109901511D01*
X147456069Y-109911007D01*
X147581028Y-110089467D01*
X147588084Y-110097875D01*
X147742125Y-110251916D01*
X147750533Y-110258972D01*
X147928993Y-110383931D01*
X147938489Y-110389414D01*
X148135947Y-110481490D01*
X148146239Y-110485236D01*
X148318503Y-110531394D01*
X148332599Y-110531058D01*
X148336000Y-110523116D01*
X148336000Y-110517967D01*
X148844000Y-110517967D01*
X148847973Y-110531498D01*
X148856522Y-110532727D01*
X149033761Y-110485236D01*
X149044053Y-110481490D01*
X149241511Y-110389414D01*
X149251007Y-110383931D01*
X149429467Y-110258972D01*
X149437875Y-110251916D01*
X149591916Y-110097875D01*
X149598972Y-110089467D01*
X149723931Y-109911007D01*
X149729414Y-109901511D01*
X149821490Y-109704053D01*
X149825236Y-109693761D01*
X149871394Y-109521497D01*
X149871058Y-109507401D01*
X149863116Y-109504000D01*
X148862115Y-109504000D01*
X148846876Y-109508475D01*
X148845671Y-109509865D01*
X148844000Y-109517548D01*
X148844000Y-110517967D01*
X148336000Y-110517967D01*
X148336000Y-109522115D01*
X148331525Y-109506876D01*
X148330135Y-109505671D01*
X148322452Y-109504000D01*
X147322033Y-109504000D01*
X147308502Y-109507973D01*
X147307273Y-109516522D01*
X146916947Y-109516522D01*
X146950218Y-109464095D01*
X146954030Y-109457162D01*
X147085034Y-109178764D01*
X147087949Y-109171401D01*
X147123315Y-109062555D01*
X147163388Y-109003949D01*
X147228785Y-108976312D01*
X147292749Y-108985665D01*
X147316883Y-108996000D01*
X148317885Y-108996000D01*
X148333124Y-108991525D01*
X148334329Y-108990135D01*
X148336000Y-108982452D01*
X148336000Y-108977885D01*
X148844000Y-108977885D01*
X148848475Y-108993124D01*
X148849865Y-108994329D01*
X148857548Y-108996000D01*
X149857967Y-108996000D01*
X149871498Y-108992027D01*
X149872727Y-108983478D01*
X149825236Y-108806239D01*
X149821490Y-108795947D01*
X149729414Y-108598489D01*
X149723931Y-108588993D01*
X149598972Y-108410533D01*
X149591916Y-108402125D01*
X149437875Y-108248084D01*
X149429467Y-108241028D01*
X149251007Y-108116069D01*
X149241511Y-108110586D01*
X149044053Y-108018510D01*
X149033761Y-108014764D01*
X148861497Y-107968606D01*
X148847401Y-107968942D01*
X148844000Y-107976884D01*
X148844000Y-108977885D01*
X148336000Y-108977885D01*
X148336000Y-107982033D01*
X148332027Y-107968502D01*
X148323478Y-107967273D01*
X148146239Y-108014764D01*
X148135947Y-108018510D01*
X147938489Y-108110586D01*
X147928993Y-108116069D01*
X147750533Y-108241028D01*
X147742125Y-108248084D01*
X147588084Y-108402125D01*
X147581028Y-108410533D01*
X147477847Y-108557891D01*
X147422390Y-108602219D01*
X147351771Y-108609528D01*
X147288410Y-108577497D01*
X147252425Y-108516296D01*
X147248883Y-108477709D01*
X147262960Y-108253958D01*
X147262960Y-108246042D01*
X147243641Y-107938974D01*
X147242648Y-107931113D01*
X147184996Y-107628891D01*
X147183025Y-107621214D01*
X147087949Y-107328599D01*
X147085034Y-107321236D01*
X146954030Y-107042838D01*
X146950218Y-107035905D01*
X146785356Y-106776124D01*
X146780704Y-106769721D01*
X146705680Y-106679032D01*
X146693163Y-106670578D01*
X146682425Y-106676785D01*
X145122022Y-108237188D01*
X145114408Y-108251132D01*
X144384356Y-108251132D01*
X144385592Y-108248868D01*
X144385461Y-108247035D01*
X144381210Y-108240420D01*
X142818678Y-106677888D01*
X142805415Y-106670646D01*
X142795313Y-106677832D01*
X142719296Y-106769721D01*
X142714644Y-106776124D01*
X142549782Y-107035905D01*
X142545970Y-107042838D01*
X142414966Y-107321236D01*
X142412051Y-107328599D01*
X142316975Y-107621214D01*
X142315004Y-107628891D01*
X142257352Y-107931113D01*
X142256359Y-107938974D01*
X142237040Y-108246042D01*
X142237040Y-108253958D01*
X141508000Y-108253958D01*
X141508000Y-106303409D01*
X143168575Y-106303409D01*
X143175478Y-106316268D01*
X144737188Y-107877978D01*
X144751132Y-107885592D01*
X144752965Y-107885461D01*
X144759580Y-107881210D01*
X146324845Y-106315945D01*
X146331458Y-106303834D01*
X146322631Y-106292216D01*
X146099853Y-106130358D01*
X146093173Y-106126118D01*
X145823534Y-105977884D01*
X145816399Y-105974527D01*
X145530294Y-105861249D01*
X145522803Y-105858815D01*
X145224763Y-105782292D01*
X145216992Y-105780810D01*
X144911737Y-105742247D01*
X144903847Y-105741750D01*
X144596153Y-105741750D01*
X144588263Y-105742247D01*
X144283008Y-105780810D01*
X144275237Y-105782292D01*
X143977197Y-105858815D01*
X143969706Y-105861249D01*
X143683601Y-105974527D01*
X143676466Y-105977884D01*
X143406827Y-106126118D01*
X143400147Y-106130358D01*
X143176998Y-106292485D01*
X143168575Y-106303409D01*
X141508000Y-106303409D01*
X141508000Y-86134000D01*
X141528002Y-86065879D01*
X141581658Y-86019386D01*
X141634000Y-86008000D01*
X144185820Y-86008000D01*
X144253941Y-86028002D01*
G37*
G04 #@! TD.AperFunction*
M02*
