G04 #@! TF.GenerationSoftware,KiCad,Pcbnew,(5.1.5-0-10_14)*
G04 #@! TF.CreationDate,2020-09-14T21:43:17+01:00*
G04 #@! TF.ProjectId,SelectPCB,53656c65-6374-4504-9342-2e6b69636164,rev?*
G04 #@! TF.SameCoordinates,Original*
G04 #@! TF.FileFunction,Copper,L2,Bot*
G04 #@! TF.FilePolarity,Positive*
%FSLAX46Y46*%
G04 Gerber Fmt 4.6, Leading zero omitted, Abs format (unit mm)*
G04 Created by KiCad (PCBNEW (5.1.5-0-10_14)) date 2020-09-14 21:43:17*
%MOMM*%
%LPD*%
G04 APERTURE LIST*
%ADD10C,4.000500*%
%ADD11R,2.450000X2.450000*%
%ADD12C,2.450000*%
%ADD13C,2.000000*%
%ADD14C,1.600000*%
%ADD15O,1.600000X1.600000*%
%ADD16C,0.254000*%
G04 APERTURE END LIST*
D10*
X162750000Y-88750000D03*
D11*
X155915000Y-95050000D03*
D12*
X155915000Y-99750000D03*
X155915000Y-104450000D03*
X151085000Y-104450000D03*
X151085000Y-99750000D03*
X151085000Y-95050000D03*
D13*
X144500000Y-95500000D03*
X144500000Y-100500000D03*
D14*
X158750000Y-109250000D03*
D15*
X148590000Y-109250000D03*
X148590000Y-87250000D03*
D14*
X158750000Y-87250000D03*
X148590000Y-90500000D03*
D15*
X158750000Y-90500000D03*
D10*
X162750000Y-108250000D03*
X162750000Y-99750000D03*
X144750000Y-108250000D03*
X144500000Y-88750000D03*
D16*
G36*
X143731326Y-86216021D02*
G01*
X143251741Y-86414672D01*
X142820126Y-86703068D01*
X142453068Y-87070126D01*
X142164672Y-87501741D01*
X141966021Y-87981326D01*
X141864750Y-88490451D01*
X141864750Y-89009549D01*
X141966021Y-89518674D01*
X142164672Y-89998259D01*
X142453068Y-90429874D01*
X142820126Y-90796932D01*
X143251741Y-91085328D01*
X143731326Y-91283979D01*
X144240451Y-91385250D01*
X144759549Y-91385250D01*
X145268674Y-91283979D01*
X145748259Y-91085328D01*
X146179874Y-90796932D01*
X146546932Y-90429874D01*
X146594512Y-90358665D01*
X147155000Y-90358665D01*
X147155000Y-90641335D01*
X147210147Y-90918574D01*
X147318320Y-91179727D01*
X147475363Y-91414759D01*
X147675241Y-91614637D01*
X147910273Y-91771680D01*
X148171426Y-91879853D01*
X148448665Y-91935000D01*
X148731335Y-91935000D01*
X149008574Y-91879853D01*
X149269727Y-91771680D01*
X149504759Y-91614637D01*
X149704637Y-91414759D01*
X149861680Y-91179727D01*
X149969853Y-90918574D01*
X150025000Y-90641335D01*
X150025000Y-90358665D01*
X157315000Y-90358665D01*
X157315000Y-90641335D01*
X157370147Y-90918574D01*
X157478320Y-91179727D01*
X157635363Y-91414759D01*
X157835241Y-91614637D01*
X158070273Y-91771680D01*
X158331426Y-91879853D01*
X158608665Y-91935000D01*
X158891335Y-91935000D01*
X159168574Y-91879853D01*
X159429727Y-91771680D01*
X159664759Y-91614637D01*
X159864637Y-91414759D01*
X160021680Y-91179727D01*
X160129853Y-90918574D01*
X160185000Y-90641335D01*
X160185000Y-90358665D01*
X160129853Y-90081426D01*
X160021680Y-89820273D01*
X159864637Y-89585241D01*
X159664759Y-89385363D01*
X159429727Y-89228320D01*
X159168574Y-89120147D01*
X158891335Y-89065000D01*
X158608665Y-89065000D01*
X158331426Y-89120147D01*
X158070273Y-89228320D01*
X157835241Y-89385363D01*
X157635363Y-89585241D01*
X157478320Y-89820273D01*
X157370147Y-90081426D01*
X157315000Y-90358665D01*
X150025000Y-90358665D01*
X149969853Y-90081426D01*
X149861680Y-89820273D01*
X149704637Y-89585241D01*
X149504759Y-89385363D01*
X149269727Y-89228320D01*
X149008574Y-89120147D01*
X148731335Y-89065000D01*
X148448665Y-89065000D01*
X148171426Y-89120147D01*
X147910273Y-89228320D01*
X147675241Y-89385363D01*
X147475363Y-89585241D01*
X147318320Y-89820273D01*
X147210147Y-90081426D01*
X147155000Y-90358665D01*
X146594512Y-90358665D01*
X146835328Y-89998259D01*
X147033979Y-89518674D01*
X147135250Y-89009549D01*
X147135250Y-88490451D01*
X147033979Y-87981326D01*
X146835328Y-87501741D01*
X146546932Y-87070126D01*
X146179874Y-86703068D01*
X145748259Y-86414672D01*
X145268674Y-86216021D01*
X144987037Y-86160000D01*
X147650604Y-86160000D01*
X147475363Y-86335241D01*
X147318320Y-86570273D01*
X147210147Y-86831426D01*
X147155000Y-87108665D01*
X147155000Y-87391335D01*
X147210147Y-87668574D01*
X147318320Y-87929727D01*
X147475363Y-88164759D01*
X147675241Y-88364637D01*
X147910273Y-88521680D01*
X148171426Y-88629853D01*
X148448665Y-88685000D01*
X148731335Y-88685000D01*
X149008574Y-88629853D01*
X149269727Y-88521680D01*
X149504759Y-88364637D01*
X149704637Y-88164759D01*
X149861680Y-87929727D01*
X149969853Y-87668574D01*
X150025000Y-87391335D01*
X150025000Y-87108665D01*
X149969853Y-86831426D01*
X149861680Y-86570273D01*
X149704637Y-86335241D01*
X149529396Y-86160000D01*
X157810604Y-86160000D01*
X157635363Y-86335241D01*
X157478320Y-86570273D01*
X157370147Y-86831426D01*
X157315000Y-87108665D01*
X157315000Y-87391335D01*
X157370147Y-87668574D01*
X157478320Y-87929727D01*
X157635363Y-88164759D01*
X157835241Y-88364637D01*
X158070273Y-88521680D01*
X158331426Y-88629853D01*
X158608665Y-88685000D01*
X158891335Y-88685000D01*
X159168574Y-88629853D01*
X159429727Y-88521680D01*
X159664759Y-88364637D01*
X159864637Y-88164759D01*
X160021680Y-87929727D01*
X160129853Y-87668574D01*
X160185000Y-87391335D01*
X160185000Y-87108665D01*
X160129853Y-86831426D01*
X160021680Y-86570273D01*
X159864637Y-86335241D01*
X159689396Y-86160000D01*
X162262963Y-86160000D01*
X161981326Y-86216021D01*
X161501741Y-86414672D01*
X161070126Y-86703068D01*
X160703068Y-87070126D01*
X160414672Y-87501741D01*
X160216021Y-87981326D01*
X160114750Y-88490451D01*
X160114750Y-89009549D01*
X160216021Y-89518674D01*
X160414672Y-89998259D01*
X160703068Y-90429874D01*
X161070126Y-90796932D01*
X161501741Y-91085328D01*
X161981326Y-91283979D01*
X162490451Y-91385250D01*
X163009549Y-91385250D01*
X163518674Y-91283979D01*
X163998259Y-91085328D01*
X164429874Y-90796932D01*
X164796932Y-90429874D01*
X165085328Y-89998259D01*
X165283979Y-89518674D01*
X165340001Y-89237032D01*
X165340000Y-99262966D01*
X165283979Y-98981326D01*
X165085328Y-98501741D01*
X164796932Y-98070126D01*
X164429874Y-97703068D01*
X163998259Y-97414672D01*
X163518674Y-97216021D01*
X163009549Y-97114750D01*
X162490451Y-97114750D01*
X161981326Y-97216021D01*
X161501741Y-97414672D01*
X161070126Y-97703068D01*
X160703068Y-98070126D01*
X160414672Y-98501741D01*
X160216021Y-98981326D01*
X160114750Y-99490451D01*
X160114750Y-100009549D01*
X160216021Y-100518674D01*
X160414672Y-100998259D01*
X160703068Y-101429874D01*
X161070126Y-101796932D01*
X161501741Y-102085328D01*
X161981326Y-102283979D01*
X162490451Y-102385250D01*
X163009549Y-102385250D01*
X163518674Y-102283979D01*
X163998259Y-102085328D01*
X164429874Y-101796932D01*
X164796932Y-101429874D01*
X165085328Y-100998259D01*
X165283979Y-100518674D01*
X165340000Y-100237034D01*
X165340000Y-107762964D01*
X165283979Y-107481326D01*
X165085328Y-107001741D01*
X164796932Y-106570126D01*
X164429874Y-106203068D01*
X163998259Y-105914672D01*
X163518674Y-105716021D01*
X163009549Y-105614750D01*
X162490451Y-105614750D01*
X161981326Y-105716021D01*
X161501741Y-105914672D01*
X161070126Y-106203068D01*
X160703068Y-106570126D01*
X160414672Y-107001741D01*
X160216021Y-107481326D01*
X160114750Y-107990451D01*
X160114750Y-108509549D01*
X160216021Y-109018674D01*
X160414672Y-109498259D01*
X160703068Y-109929874D01*
X161070126Y-110296932D01*
X161501741Y-110585328D01*
X161981326Y-110783979D01*
X162490451Y-110885250D01*
X163009549Y-110885250D01*
X163518674Y-110783979D01*
X163998259Y-110585328D01*
X164429874Y-110296932D01*
X164796932Y-109929874D01*
X165085328Y-109498259D01*
X165283979Y-109018674D01*
X165340000Y-108737036D01*
X165340000Y-111340000D01*
X141660000Y-111340000D01*
X141660000Y-107990451D01*
X142114750Y-107990451D01*
X142114750Y-108509549D01*
X142216021Y-109018674D01*
X142414672Y-109498259D01*
X142703068Y-109929874D01*
X143070126Y-110296932D01*
X143501741Y-110585328D01*
X143981326Y-110783979D01*
X144490451Y-110885250D01*
X145009549Y-110885250D01*
X145518674Y-110783979D01*
X145998259Y-110585328D01*
X146429874Y-110296932D01*
X146796932Y-109929874D01*
X147085328Y-109498259D01*
X147155000Y-109330056D01*
X147155000Y-109391335D01*
X147210147Y-109668574D01*
X147318320Y-109929727D01*
X147475363Y-110164759D01*
X147675241Y-110364637D01*
X147910273Y-110521680D01*
X148171426Y-110629853D01*
X148448665Y-110685000D01*
X148731335Y-110685000D01*
X149008574Y-110629853D01*
X149269727Y-110521680D01*
X149504759Y-110364637D01*
X149704637Y-110164759D01*
X149861680Y-109929727D01*
X149969853Y-109668574D01*
X150025000Y-109391335D01*
X150025000Y-109108665D01*
X157315000Y-109108665D01*
X157315000Y-109391335D01*
X157370147Y-109668574D01*
X157478320Y-109929727D01*
X157635363Y-110164759D01*
X157835241Y-110364637D01*
X158070273Y-110521680D01*
X158331426Y-110629853D01*
X158608665Y-110685000D01*
X158891335Y-110685000D01*
X159168574Y-110629853D01*
X159429727Y-110521680D01*
X159664759Y-110364637D01*
X159864637Y-110164759D01*
X160021680Y-109929727D01*
X160129853Y-109668574D01*
X160185000Y-109391335D01*
X160185000Y-109108665D01*
X160129853Y-108831426D01*
X160021680Y-108570273D01*
X159864637Y-108335241D01*
X159664759Y-108135363D01*
X159429727Y-107978320D01*
X159168574Y-107870147D01*
X158891335Y-107815000D01*
X158608665Y-107815000D01*
X158331426Y-107870147D01*
X158070273Y-107978320D01*
X157835241Y-108135363D01*
X157635363Y-108335241D01*
X157478320Y-108570273D01*
X157370147Y-108831426D01*
X157315000Y-109108665D01*
X150025000Y-109108665D01*
X149969853Y-108831426D01*
X149861680Y-108570273D01*
X149704637Y-108335241D01*
X149504759Y-108135363D01*
X149269727Y-107978320D01*
X149008574Y-107870147D01*
X148731335Y-107815000D01*
X148448665Y-107815000D01*
X148171426Y-107870147D01*
X147910273Y-107978320D01*
X147675241Y-108135363D01*
X147475363Y-108335241D01*
X147385250Y-108470105D01*
X147385250Y-107990451D01*
X147283979Y-107481326D01*
X147085328Y-107001741D01*
X146796932Y-106570126D01*
X146429874Y-106203068D01*
X145998259Y-105914672D01*
X145518674Y-105716021D01*
X145009549Y-105614750D01*
X144490451Y-105614750D01*
X143981326Y-105716021D01*
X143501741Y-105914672D01*
X143070126Y-106203068D01*
X142703068Y-106570126D01*
X142414672Y-107001741D01*
X142216021Y-107481326D01*
X142114750Y-107990451D01*
X141660000Y-107990451D01*
X141660000Y-104266806D01*
X149225000Y-104266806D01*
X149225000Y-104633194D01*
X149296479Y-104992542D01*
X149436689Y-105331041D01*
X149640243Y-105635681D01*
X149899319Y-105894757D01*
X150203959Y-106098311D01*
X150542458Y-106238521D01*
X150901806Y-106310000D01*
X151268194Y-106310000D01*
X151627542Y-106238521D01*
X151966041Y-106098311D01*
X152270681Y-105894757D01*
X152529757Y-105635681D01*
X152733311Y-105331041D01*
X152873521Y-104992542D01*
X152945000Y-104633194D01*
X152945000Y-104266806D01*
X154055000Y-104266806D01*
X154055000Y-104633194D01*
X154126479Y-104992542D01*
X154266689Y-105331041D01*
X154470243Y-105635681D01*
X154729319Y-105894757D01*
X155033959Y-106098311D01*
X155372458Y-106238521D01*
X155731806Y-106310000D01*
X156098194Y-106310000D01*
X156457542Y-106238521D01*
X156796041Y-106098311D01*
X157100681Y-105894757D01*
X157359757Y-105635681D01*
X157563311Y-105331041D01*
X157703521Y-104992542D01*
X157775000Y-104633194D01*
X157775000Y-104266806D01*
X157703521Y-103907458D01*
X157563311Y-103568959D01*
X157359757Y-103264319D01*
X157100681Y-103005243D01*
X156796041Y-102801689D01*
X156457542Y-102661479D01*
X156098194Y-102590000D01*
X155731806Y-102590000D01*
X155372458Y-102661479D01*
X155033959Y-102801689D01*
X154729319Y-103005243D01*
X154470243Y-103264319D01*
X154266689Y-103568959D01*
X154126479Y-103907458D01*
X154055000Y-104266806D01*
X152945000Y-104266806D01*
X152873521Y-103907458D01*
X152733311Y-103568959D01*
X152529757Y-103264319D01*
X152270681Y-103005243D01*
X151966041Y-102801689D01*
X151627542Y-102661479D01*
X151268194Y-102590000D01*
X150901806Y-102590000D01*
X150542458Y-102661479D01*
X150203959Y-102801689D01*
X149899319Y-103005243D01*
X149640243Y-103264319D01*
X149436689Y-103568959D01*
X149296479Y-103907458D01*
X149225000Y-104266806D01*
X141660000Y-104266806D01*
X141660000Y-100338967D01*
X142865000Y-100338967D01*
X142865000Y-100661033D01*
X142927832Y-100976912D01*
X143051082Y-101274463D01*
X143230013Y-101542252D01*
X143457748Y-101769987D01*
X143725537Y-101948918D01*
X144023088Y-102072168D01*
X144338967Y-102135000D01*
X144661033Y-102135000D01*
X144976912Y-102072168D01*
X145274463Y-101948918D01*
X145542252Y-101769987D01*
X145769987Y-101542252D01*
X145948918Y-101274463D01*
X146072168Y-100976912D01*
X146135000Y-100661033D01*
X146135000Y-100338967D01*
X146072168Y-100023088D01*
X145948918Y-99725537D01*
X145842858Y-99566806D01*
X149225000Y-99566806D01*
X149225000Y-99933194D01*
X149296479Y-100292542D01*
X149436689Y-100631041D01*
X149640243Y-100935681D01*
X149899319Y-101194757D01*
X150203959Y-101398311D01*
X150542458Y-101538521D01*
X150901806Y-101610000D01*
X151268194Y-101610000D01*
X151627542Y-101538521D01*
X151966041Y-101398311D01*
X152270681Y-101194757D01*
X152529757Y-100935681D01*
X152733311Y-100631041D01*
X152873521Y-100292542D01*
X152945000Y-99933194D01*
X152945000Y-99566806D01*
X154055000Y-99566806D01*
X154055000Y-99933194D01*
X154126479Y-100292542D01*
X154266689Y-100631041D01*
X154470243Y-100935681D01*
X154729319Y-101194757D01*
X155033959Y-101398311D01*
X155372458Y-101538521D01*
X155731806Y-101610000D01*
X156098194Y-101610000D01*
X156457542Y-101538521D01*
X156796041Y-101398311D01*
X157100681Y-101194757D01*
X157359757Y-100935681D01*
X157563311Y-100631041D01*
X157703521Y-100292542D01*
X157775000Y-99933194D01*
X157775000Y-99566806D01*
X157703521Y-99207458D01*
X157563311Y-98868959D01*
X157359757Y-98564319D01*
X157100681Y-98305243D01*
X156796041Y-98101689D01*
X156457542Y-97961479D01*
X156098194Y-97890000D01*
X155731806Y-97890000D01*
X155372458Y-97961479D01*
X155033959Y-98101689D01*
X154729319Y-98305243D01*
X154470243Y-98564319D01*
X154266689Y-98868959D01*
X154126479Y-99207458D01*
X154055000Y-99566806D01*
X152945000Y-99566806D01*
X152873521Y-99207458D01*
X152733311Y-98868959D01*
X152529757Y-98564319D01*
X152270681Y-98305243D01*
X151966041Y-98101689D01*
X151627542Y-97961479D01*
X151268194Y-97890000D01*
X150901806Y-97890000D01*
X150542458Y-97961479D01*
X150203959Y-98101689D01*
X149899319Y-98305243D01*
X149640243Y-98564319D01*
X149436689Y-98868959D01*
X149296479Y-99207458D01*
X149225000Y-99566806D01*
X145842858Y-99566806D01*
X145769987Y-99457748D01*
X145542252Y-99230013D01*
X145274463Y-99051082D01*
X144976912Y-98927832D01*
X144661033Y-98865000D01*
X144338967Y-98865000D01*
X144023088Y-98927832D01*
X143725537Y-99051082D01*
X143457748Y-99230013D01*
X143230013Y-99457748D01*
X143051082Y-99725537D01*
X142927832Y-100023088D01*
X142865000Y-100338967D01*
X141660000Y-100338967D01*
X141660000Y-95338967D01*
X142865000Y-95338967D01*
X142865000Y-95661033D01*
X142927832Y-95976912D01*
X143051082Y-96274463D01*
X143230013Y-96542252D01*
X143457748Y-96769987D01*
X143725537Y-96948918D01*
X144023088Y-97072168D01*
X144338967Y-97135000D01*
X144661033Y-97135000D01*
X144976912Y-97072168D01*
X145274463Y-96948918D01*
X145542252Y-96769987D01*
X145769987Y-96542252D01*
X145948918Y-96274463D01*
X146072168Y-95976912D01*
X146135000Y-95661033D01*
X146135000Y-95338967D01*
X146072168Y-95023088D01*
X146007434Y-94866806D01*
X149225000Y-94866806D01*
X149225000Y-95233194D01*
X149296479Y-95592542D01*
X149436689Y-95931041D01*
X149640243Y-96235681D01*
X149899319Y-96494757D01*
X150203959Y-96698311D01*
X150542458Y-96838521D01*
X150901806Y-96910000D01*
X151268194Y-96910000D01*
X151627542Y-96838521D01*
X151966041Y-96698311D01*
X152270681Y-96494757D01*
X152529757Y-96235681D01*
X152733311Y-95931041D01*
X152873521Y-95592542D01*
X152945000Y-95233194D01*
X152945000Y-94866806D01*
X152873521Y-94507458D01*
X152733311Y-94168959D01*
X152529757Y-93864319D01*
X152490438Y-93825000D01*
X154051928Y-93825000D01*
X154051928Y-96275000D01*
X154064188Y-96399482D01*
X154100498Y-96519180D01*
X154159463Y-96629494D01*
X154238815Y-96726185D01*
X154335506Y-96805537D01*
X154445820Y-96864502D01*
X154565518Y-96900812D01*
X154690000Y-96913072D01*
X157140000Y-96913072D01*
X157264482Y-96900812D01*
X157384180Y-96864502D01*
X157494494Y-96805537D01*
X157591185Y-96726185D01*
X157670537Y-96629494D01*
X157729502Y-96519180D01*
X157765812Y-96399482D01*
X157778072Y-96275000D01*
X157778072Y-93825000D01*
X157765812Y-93700518D01*
X157729502Y-93580820D01*
X157670537Y-93470506D01*
X157591185Y-93373815D01*
X157494494Y-93294463D01*
X157384180Y-93235498D01*
X157264482Y-93199188D01*
X157140000Y-93186928D01*
X154690000Y-93186928D01*
X154565518Y-93199188D01*
X154445820Y-93235498D01*
X154335506Y-93294463D01*
X154238815Y-93373815D01*
X154159463Y-93470506D01*
X154100498Y-93580820D01*
X154064188Y-93700518D01*
X154051928Y-93825000D01*
X152490438Y-93825000D01*
X152270681Y-93605243D01*
X151966041Y-93401689D01*
X151627542Y-93261479D01*
X151268194Y-93190000D01*
X150901806Y-93190000D01*
X150542458Y-93261479D01*
X150203959Y-93401689D01*
X149899319Y-93605243D01*
X149640243Y-93864319D01*
X149436689Y-94168959D01*
X149296479Y-94507458D01*
X149225000Y-94866806D01*
X146007434Y-94866806D01*
X145948918Y-94725537D01*
X145769987Y-94457748D01*
X145542252Y-94230013D01*
X145274463Y-94051082D01*
X144976912Y-93927832D01*
X144661033Y-93865000D01*
X144338967Y-93865000D01*
X144023088Y-93927832D01*
X143725537Y-94051082D01*
X143457748Y-94230013D01*
X143230013Y-94457748D01*
X143051082Y-94725537D01*
X142927832Y-95023088D01*
X142865000Y-95338967D01*
X141660000Y-95338967D01*
X141660000Y-86160000D01*
X144012963Y-86160000D01*
X143731326Y-86216021D01*
G37*
X143731326Y-86216021D02*
X143251741Y-86414672D01*
X142820126Y-86703068D01*
X142453068Y-87070126D01*
X142164672Y-87501741D01*
X141966021Y-87981326D01*
X141864750Y-88490451D01*
X141864750Y-89009549D01*
X141966021Y-89518674D01*
X142164672Y-89998259D01*
X142453068Y-90429874D01*
X142820126Y-90796932D01*
X143251741Y-91085328D01*
X143731326Y-91283979D01*
X144240451Y-91385250D01*
X144759549Y-91385250D01*
X145268674Y-91283979D01*
X145748259Y-91085328D01*
X146179874Y-90796932D01*
X146546932Y-90429874D01*
X146594512Y-90358665D01*
X147155000Y-90358665D01*
X147155000Y-90641335D01*
X147210147Y-90918574D01*
X147318320Y-91179727D01*
X147475363Y-91414759D01*
X147675241Y-91614637D01*
X147910273Y-91771680D01*
X148171426Y-91879853D01*
X148448665Y-91935000D01*
X148731335Y-91935000D01*
X149008574Y-91879853D01*
X149269727Y-91771680D01*
X149504759Y-91614637D01*
X149704637Y-91414759D01*
X149861680Y-91179727D01*
X149969853Y-90918574D01*
X150025000Y-90641335D01*
X150025000Y-90358665D01*
X157315000Y-90358665D01*
X157315000Y-90641335D01*
X157370147Y-90918574D01*
X157478320Y-91179727D01*
X157635363Y-91414759D01*
X157835241Y-91614637D01*
X158070273Y-91771680D01*
X158331426Y-91879853D01*
X158608665Y-91935000D01*
X158891335Y-91935000D01*
X159168574Y-91879853D01*
X159429727Y-91771680D01*
X159664759Y-91614637D01*
X159864637Y-91414759D01*
X160021680Y-91179727D01*
X160129853Y-90918574D01*
X160185000Y-90641335D01*
X160185000Y-90358665D01*
X160129853Y-90081426D01*
X160021680Y-89820273D01*
X159864637Y-89585241D01*
X159664759Y-89385363D01*
X159429727Y-89228320D01*
X159168574Y-89120147D01*
X158891335Y-89065000D01*
X158608665Y-89065000D01*
X158331426Y-89120147D01*
X158070273Y-89228320D01*
X157835241Y-89385363D01*
X157635363Y-89585241D01*
X157478320Y-89820273D01*
X157370147Y-90081426D01*
X157315000Y-90358665D01*
X150025000Y-90358665D01*
X149969853Y-90081426D01*
X149861680Y-89820273D01*
X149704637Y-89585241D01*
X149504759Y-89385363D01*
X149269727Y-89228320D01*
X149008574Y-89120147D01*
X148731335Y-89065000D01*
X148448665Y-89065000D01*
X148171426Y-89120147D01*
X147910273Y-89228320D01*
X147675241Y-89385363D01*
X147475363Y-89585241D01*
X147318320Y-89820273D01*
X147210147Y-90081426D01*
X147155000Y-90358665D01*
X146594512Y-90358665D01*
X146835328Y-89998259D01*
X147033979Y-89518674D01*
X147135250Y-89009549D01*
X147135250Y-88490451D01*
X147033979Y-87981326D01*
X146835328Y-87501741D01*
X146546932Y-87070126D01*
X146179874Y-86703068D01*
X145748259Y-86414672D01*
X145268674Y-86216021D01*
X144987037Y-86160000D01*
X147650604Y-86160000D01*
X147475363Y-86335241D01*
X147318320Y-86570273D01*
X147210147Y-86831426D01*
X147155000Y-87108665D01*
X147155000Y-87391335D01*
X147210147Y-87668574D01*
X147318320Y-87929727D01*
X147475363Y-88164759D01*
X147675241Y-88364637D01*
X147910273Y-88521680D01*
X148171426Y-88629853D01*
X148448665Y-88685000D01*
X148731335Y-88685000D01*
X149008574Y-88629853D01*
X149269727Y-88521680D01*
X149504759Y-88364637D01*
X149704637Y-88164759D01*
X149861680Y-87929727D01*
X149969853Y-87668574D01*
X150025000Y-87391335D01*
X150025000Y-87108665D01*
X149969853Y-86831426D01*
X149861680Y-86570273D01*
X149704637Y-86335241D01*
X149529396Y-86160000D01*
X157810604Y-86160000D01*
X157635363Y-86335241D01*
X157478320Y-86570273D01*
X157370147Y-86831426D01*
X157315000Y-87108665D01*
X157315000Y-87391335D01*
X157370147Y-87668574D01*
X157478320Y-87929727D01*
X157635363Y-88164759D01*
X157835241Y-88364637D01*
X158070273Y-88521680D01*
X158331426Y-88629853D01*
X158608665Y-88685000D01*
X158891335Y-88685000D01*
X159168574Y-88629853D01*
X159429727Y-88521680D01*
X159664759Y-88364637D01*
X159864637Y-88164759D01*
X160021680Y-87929727D01*
X160129853Y-87668574D01*
X160185000Y-87391335D01*
X160185000Y-87108665D01*
X160129853Y-86831426D01*
X160021680Y-86570273D01*
X159864637Y-86335241D01*
X159689396Y-86160000D01*
X162262963Y-86160000D01*
X161981326Y-86216021D01*
X161501741Y-86414672D01*
X161070126Y-86703068D01*
X160703068Y-87070126D01*
X160414672Y-87501741D01*
X160216021Y-87981326D01*
X160114750Y-88490451D01*
X160114750Y-89009549D01*
X160216021Y-89518674D01*
X160414672Y-89998259D01*
X160703068Y-90429874D01*
X161070126Y-90796932D01*
X161501741Y-91085328D01*
X161981326Y-91283979D01*
X162490451Y-91385250D01*
X163009549Y-91385250D01*
X163518674Y-91283979D01*
X163998259Y-91085328D01*
X164429874Y-90796932D01*
X164796932Y-90429874D01*
X165085328Y-89998259D01*
X165283979Y-89518674D01*
X165340001Y-89237032D01*
X165340000Y-99262966D01*
X165283979Y-98981326D01*
X165085328Y-98501741D01*
X164796932Y-98070126D01*
X164429874Y-97703068D01*
X163998259Y-97414672D01*
X163518674Y-97216021D01*
X163009549Y-97114750D01*
X162490451Y-97114750D01*
X161981326Y-97216021D01*
X161501741Y-97414672D01*
X161070126Y-97703068D01*
X160703068Y-98070126D01*
X160414672Y-98501741D01*
X160216021Y-98981326D01*
X160114750Y-99490451D01*
X160114750Y-100009549D01*
X160216021Y-100518674D01*
X160414672Y-100998259D01*
X160703068Y-101429874D01*
X161070126Y-101796932D01*
X161501741Y-102085328D01*
X161981326Y-102283979D01*
X162490451Y-102385250D01*
X163009549Y-102385250D01*
X163518674Y-102283979D01*
X163998259Y-102085328D01*
X164429874Y-101796932D01*
X164796932Y-101429874D01*
X165085328Y-100998259D01*
X165283979Y-100518674D01*
X165340000Y-100237034D01*
X165340000Y-107762964D01*
X165283979Y-107481326D01*
X165085328Y-107001741D01*
X164796932Y-106570126D01*
X164429874Y-106203068D01*
X163998259Y-105914672D01*
X163518674Y-105716021D01*
X163009549Y-105614750D01*
X162490451Y-105614750D01*
X161981326Y-105716021D01*
X161501741Y-105914672D01*
X161070126Y-106203068D01*
X160703068Y-106570126D01*
X160414672Y-107001741D01*
X160216021Y-107481326D01*
X160114750Y-107990451D01*
X160114750Y-108509549D01*
X160216021Y-109018674D01*
X160414672Y-109498259D01*
X160703068Y-109929874D01*
X161070126Y-110296932D01*
X161501741Y-110585328D01*
X161981326Y-110783979D01*
X162490451Y-110885250D01*
X163009549Y-110885250D01*
X163518674Y-110783979D01*
X163998259Y-110585328D01*
X164429874Y-110296932D01*
X164796932Y-109929874D01*
X165085328Y-109498259D01*
X165283979Y-109018674D01*
X165340000Y-108737036D01*
X165340000Y-111340000D01*
X141660000Y-111340000D01*
X141660000Y-107990451D01*
X142114750Y-107990451D01*
X142114750Y-108509549D01*
X142216021Y-109018674D01*
X142414672Y-109498259D01*
X142703068Y-109929874D01*
X143070126Y-110296932D01*
X143501741Y-110585328D01*
X143981326Y-110783979D01*
X144490451Y-110885250D01*
X145009549Y-110885250D01*
X145518674Y-110783979D01*
X145998259Y-110585328D01*
X146429874Y-110296932D01*
X146796932Y-109929874D01*
X147085328Y-109498259D01*
X147155000Y-109330056D01*
X147155000Y-109391335D01*
X147210147Y-109668574D01*
X147318320Y-109929727D01*
X147475363Y-110164759D01*
X147675241Y-110364637D01*
X147910273Y-110521680D01*
X148171426Y-110629853D01*
X148448665Y-110685000D01*
X148731335Y-110685000D01*
X149008574Y-110629853D01*
X149269727Y-110521680D01*
X149504759Y-110364637D01*
X149704637Y-110164759D01*
X149861680Y-109929727D01*
X149969853Y-109668574D01*
X150025000Y-109391335D01*
X150025000Y-109108665D01*
X157315000Y-109108665D01*
X157315000Y-109391335D01*
X157370147Y-109668574D01*
X157478320Y-109929727D01*
X157635363Y-110164759D01*
X157835241Y-110364637D01*
X158070273Y-110521680D01*
X158331426Y-110629853D01*
X158608665Y-110685000D01*
X158891335Y-110685000D01*
X159168574Y-110629853D01*
X159429727Y-110521680D01*
X159664759Y-110364637D01*
X159864637Y-110164759D01*
X160021680Y-109929727D01*
X160129853Y-109668574D01*
X160185000Y-109391335D01*
X160185000Y-109108665D01*
X160129853Y-108831426D01*
X160021680Y-108570273D01*
X159864637Y-108335241D01*
X159664759Y-108135363D01*
X159429727Y-107978320D01*
X159168574Y-107870147D01*
X158891335Y-107815000D01*
X158608665Y-107815000D01*
X158331426Y-107870147D01*
X158070273Y-107978320D01*
X157835241Y-108135363D01*
X157635363Y-108335241D01*
X157478320Y-108570273D01*
X157370147Y-108831426D01*
X157315000Y-109108665D01*
X150025000Y-109108665D01*
X149969853Y-108831426D01*
X149861680Y-108570273D01*
X149704637Y-108335241D01*
X149504759Y-108135363D01*
X149269727Y-107978320D01*
X149008574Y-107870147D01*
X148731335Y-107815000D01*
X148448665Y-107815000D01*
X148171426Y-107870147D01*
X147910273Y-107978320D01*
X147675241Y-108135363D01*
X147475363Y-108335241D01*
X147385250Y-108470105D01*
X147385250Y-107990451D01*
X147283979Y-107481326D01*
X147085328Y-107001741D01*
X146796932Y-106570126D01*
X146429874Y-106203068D01*
X145998259Y-105914672D01*
X145518674Y-105716021D01*
X145009549Y-105614750D01*
X144490451Y-105614750D01*
X143981326Y-105716021D01*
X143501741Y-105914672D01*
X143070126Y-106203068D01*
X142703068Y-106570126D01*
X142414672Y-107001741D01*
X142216021Y-107481326D01*
X142114750Y-107990451D01*
X141660000Y-107990451D01*
X141660000Y-104266806D01*
X149225000Y-104266806D01*
X149225000Y-104633194D01*
X149296479Y-104992542D01*
X149436689Y-105331041D01*
X149640243Y-105635681D01*
X149899319Y-105894757D01*
X150203959Y-106098311D01*
X150542458Y-106238521D01*
X150901806Y-106310000D01*
X151268194Y-106310000D01*
X151627542Y-106238521D01*
X151966041Y-106098311D01*
X152270681Y-105894757D01*
X152529757Y-105635681D01*
X152733311Y-105331041D01*
X152873521Y-104992542D01*
X152945000Y-104633194D01*
X152945000Y-104266806D01*
X154055000Y-104266806D01*
X154055000Y-104633194D01*
X154126479Y-104992542D01*
X154266689Y-105331041D01*
X154470243Y-105635681D01*
X154729319Y-105894757D01*
X155033959Y-106098311D01*
X155372458Y-106238521D01*
X155731806Y-106310000D01*
X156098194Y-106310000D01*
X156457542Y-106238521D01*
X156796041Y-106098311D01*
X157100681Y-105894757D01*
X157359757Y-105635681D01*
X157563311Y-105331041D01*
X157703521Y-104992542D01*
X157775000Y-104633194D01*
X157775000Y-104266806D01*
X157703521Y-103907458D01*
X157563311Y-103568959D01*
X157359757Y-103264319D01*
X157100681Y-103005243D01*
X156796041Y-102801689D01*
X156457542Y-102661479D01*
X156098194Y-102590000D01*
X155731806Y-102590000D01*
X155372458Y-102661479D01*
X155033959Y-102801689D01*
X154729319Y-103005243D01*
X154470243Y-103264319D01*
X154266689Y-103568959D01*
X154126479Y-103907458D01*
X154055000Y-104266806D01*
X152945000Y-104266806D01*
X152873521Y-103907458D01*
X152733311Y-103568959D01*
X152529757Y-103264319D01*
X152270681Y-103005243D01*
X151966041Y-102801689D01*
X151627542Y-102661479D01*
X151268194Y-102590000D01*
X150901806Y-102590000D01*
X150542458Y-102661479D01*
X150203959Y-102801689D01*
X149899319Y-103005243D01*
X149640243Y-103264319D01*
X149436689Y-103568959D01*
X149296479Y-103907458D01*
X149225000Y-104266806D01*
X141660000Y-104266806D01*
X141660000Y-100338967D01*
X142865000Y-100338967D01*
X142865000Y-100661033D01*
X142927832Y-100976912D01*
X143051082Y-101274463D01*
X143230013Y-101542252D01*
X143457748Y-101769987D01*
X143725537Y-101948918D01*
X144023088Y-102072168D01*
X144338967Y-102135000D01*
X144661033Y-102135000D01*
X144976912Y-102072168D01*
X145274463Y-101948918D01*
X145542252Y-101769987D01*
X145769987Y-101542252D01*
X145948918Y-101274463D01*
X146072168Y-100976912D01*
X146135000Y-100661033D01*
X146135000Y-100338967D01*
X146072168Y-100023088D01*
X145948918Y-99725537D01*
X145842858Y-99566806D01*
X149225000Y-99566806D01*
X149225000Y-99933194D01*
X149296479Y-100292542D01*
X149436689Y-100631041D01*
X149640243Y-100935681D01*
X149899319Y-101194757D01*
X150203959Y-101398311D01*
X150542458Y-101538521D01*
X150901806Y-101610000D01*
X151268194Y-101610000D01*
X151627542Y-101538521D01*
X151966041Y-101398311D01*
X152270681Y-101194757D01*
X152529757Y-100935681D01*
X152733311Y-100631041D01*
X152873521Y-100292542D01*
X152945000Y-99933194D01*
X152945000Y-99566806D01*
X154055000Y-99566806D01*
X154055000Y-99933194D01*
X154126479Y-100292542D01*
X154266689Y-100631041D01*
X154470243Y-100935681D01*
X154729319Y-101194757D01*
X155033959Y-101398311D01*
X155372458Y-101538521D01*
X155731806Y-101610000D01*
X156098194Y-101610000D01*
X156457542Y-101538521D01*
X156796041Y-101398311D01*
X157100681Y-101194757D01*
X157359757Y-100935681D01*
X157563311Y-100631041D01*
X157703521Y-100292542D01*
X157775000Y-99933194D01*
X157775000Y-99566806D01*
X157703521Y-99207458D01*
X157563311Y-98868959D01*
X157359757Y-98564319D01*
X157100681Y-98305243D01*
X156796041Y-98101689D01*
X156457542Y-97961479D01*
X156098194Y-97890000D01*
X155731806Y-97890000D01*
X155372458Y-97961479D01*
X155033959Y-98101689D01*
X154729319Y-98305243D01*
X154470243Y-98564319D01*
X154266689Y-98868959D01*
X154126479Y-99207458D01*
X154055000Y-99566806D01*
X152945000Y-99566806D01*
X152873521Y-99207458D01*
X152733311Y-98868959D01*
X152529757Y-98564319D01*
X152270681Y-98305243D01*
X151966041Y-98101689D01*
X151627542Y-97961479D01*
X151268194Y-97890000D01*
X150901806Y-97890000D01*
X150542458Y-97961479D01*
X150203959Y-98101689D01*
X149899319Y-98305243D01*
X149640243Y-98564319D01*
X149436689Y-98868959D01*
X149296479Y-99207458D01*
X149225000Y-99566806D01*
X145842858Y-99566806D01*
X145769987Y-99457748D01*
X145542252Y-99230013D01*
X145274463Y-99051082D01*
X144976912Y-98927832D01*
X144661033Y-98865000D01*
X144338967Y-98865000D01*
X144023088Y-98927832D01*
X143725537Y-99051082D01*
X143457748Y-99230013D01*
X143230013Y-99457748D01*
X143051082Y-99725537D01*
X142927832Y-100023088D01*
X142865000Y-100338967D01*
X141660000Y-100338967D01*
X141660000Y-95338967D01*
X142865000Y-95338967D01*
X142865000Y-95661033D01*
X142927832Y-95976912D01*
X143051082Y-96274463D01*
X143230013Y-96542252D01*
X143457748Y-96769987D01*
X143725537Y-96948918D01*
X144023088Y-97072168D01*
X144338967Y-97135000D01*
X144661033Y-97135000D01*
X144976912Y-97072168D01*
X145274463Y-96948918D01*
X145542252Y-96769987D01*
X145769987Y-96542252D01*
X145948918Y-96274463D01*
X146072168Y-95976912D01*
X146135000Y-95661033D01*
X146135000Y-95338967D01*
X146072168Y-95023088D01*
X146007434Y-94866806D01*
X149225000Y-94866806D01*
X149225000Y-95233194D01*
X149296479Y-95592542D01*
X149436689Y-95931041D01*
X149640243Y-96235681D01*
X149899319Y-96494757D01*
X150203959Y-96698311D01*
X150542458Y-96838521D01*
X150901806Y-96910000D01*
X151268194Y-96910000D01*
X151627542Y-96838521D01*
X151966041Y-96698311D01*
X152270681Y-96494757D01*
X152529757Y-96235681D01*
X152733311Y-95931041D01*
X152873521Y-95592542D01*
X152945000Y-95233194D01*
X152945000Y-94866806D01*
X152873521Y-94507458D01*
X152733311Y-94168959D01*
X152529757Y-93864319D01*
X152490438Y-93825000D01*
X154051928Y-93825000D01*
X154051928Y-96275000D01*
X154064188Y-96399482D01*
X154100498Y-96519180D01*
X154159463Y-96629494D01*
X154238815Y-96726185D01*
X154335506Y-96805537D01*
X154445820Y-96864502D01*
X154565518Y-96900812D01*
X154690000Y-96913072D01*
X157140000Y-96913072D01*
X157264482Y-96900812D01*
X157384180Y-96864502D01*
X157494494Y-96805537D01*
X157591185Y-96726185D01*
X157670537Y-96629494D01*
X157729502Y-96519180D01*
X157765812Y-96399482D01*
X157778072Y-96275000D01*
X157778072Y-93825000D01*
X157765812Y-93700518D01*
X157729502Y-93580820D01*
X157670537Y-93470506D01*
X157591185Y-93373815D01*
X157494494Y-93294463D01*
X157384180Y-93235498D01*
X157264482Y-93199188D01*
X157140000Y-93186928D01*
X154690000Y-93186928D01*
X154565518Y-93199188D01*
X154445820Y-93235498D01*
X154335506Y-93294463D01*
X154238815Y-93373815D01*
X154159463Y-93470506D01*
X154100498Y-93580820D01*
X154064188Y-93700518D01*
X154051928Y-93825000D01*
X152490438Y-93825000D01*
X152270681Y-93605243D01*
X151966041Y-93401689D01*
X151627542Y-93261479D01*
X151268194Y-93190000D01*
X150901806Y-93190000D01*
X150542458Y-93261479D01*
X150203959Y-93401689D01*
X149899319Y-93605243D01*
X149640243Y-93864319D01*
X149436689Y-94168959D01*
X149296479Y-94507458D01*
X149225000Y-94866806D01*
X146007434Y-94866806D01*
X145948918Y-94725537D01*
X145769987Y-94457748D01*
X145542252Y-94230013D01*
X145274463Y-94051082D01*
X144976912Y-93927832D01*
X144661033Y-93865000D01*
X144338967Y-93865000D01*
X144023088Y-93927832D01*
X143725537Y-94051082D01*
X143457748Y-94230013D01*
X143230013Y-94457748D01*
X143051082Y-94725537D01*
X142927832Y-95023088D01*
X142865000Y-95338967D01*
X141660000Y-95338967D01*
X141660000Y-86160000D01*
X144012963Y-86160000D01*
X143731326Y-86216021D01*
G36*
X165340001Y-88262968D02*
G01*
X165283979Y-87981326D01*
X165085328Y-87501741D01*
X164796932Y-87070126D01*
X164429874Y-86703068D01*
X163998259Y-86414672D01*
X163518674Y-86216021D01*
X163237037Y-86160000D01*
X165340001Y-86160000D01*
X165340001Y-88262968D01*
G37*
X165340001Y-88262968D02*
X165283979Y-87981326D01*
X165085328Y-87501741D01*
X164796932Y-87070126D01*
X164429874Y-86703068D01*
X163998259Y-86414672D01*
X163518674Y-86216021D01*
X163237037Y-86160000D01*
X165340001Y-86160000D01*
X165340001Y-88262968D01*
M02*
