G04 #@! TF.GenerationSoftware,KiCad,Pcbnew,(5.1.5-0-10_14)*
G04 #@! TF.CreationDate,2020-09-14T21:43:17+01:00*
G04 #@! TF.ProjectId,SelectPCB,53656c65-6374-4504-9342-2e6b69636164,rev?*
G04 #@! TF.SameCoordinates,Original*
G04 #@! TF.FileFunction,Legend,Top*
G04 #@! TF.FilePolarity,Positive*
%FSLAX46Y46*%
G04 Gerber Fmt 4.6, Leading zero omitted, Abs format (unit mm)*
G04 Created by KiCad (PCBNEW (5.1.5-0-10_14)) date 2020-09-14 21:43:17*
%MOMM*%
%LPD*%
G04 APERTURE LIST*
%ADD10C,0.200000*%
%ADD11C,0.120000*%
%ADD12C,0.150000*%
G04 APERTURE END LIST*
D10*
X142833333Y-91928571D02*
X142976190Y-91976190D01*
X143023809Y-92023809D01*
X143071428Y-92119047D01*
X143071428Y-92261904D01*
X143023809Y-92357142D01*
X142976190Y-92404761D01*
X142880952Y-92452380D01*
X142500000Y-92452380D01*
X142500000Y-91452380D01*
X142833333Y-91452380D01*
X142928571Y-91500000D01*
X142976190Y-91547619D01*
X143023809Y-91642857D01*
X143023809Y-91738095D01*
X142976190Y-91833333D01*
X142928571Y-91880952D01*
X142833333Y-91928571D01*
X142500000Y-91928571D01*
X143500000Y-92452380D02*
X143500000Y-91785714D01*
X143500000Y-91976190D02*
X143547619Y-91880952D01*
X143595238Y-91833333D01*
X143690476Y-91785714D01*
X143785714Y-91785714D01*
X144119047Y-92452380D02*
X144119047Y-91785714D01*
X144119047Y-91452380D02*
X144071428Y-91500000D01*
X144119047Y-91547619D01*
X144166666Y-91500000D01*
X144119047Y-91452380D01*
X144119047Y-91547619D01*
X145023809Y-91785714D02*
X145023809Y-92595238D01*
X144976190Y-92690476D01*
X144928571Y-92738095D01*
X144833333Y-92785714D01*
X144690476Y-92785714D01*
X144595238Y-92738095D01*
X145023809Y-92404761D02*
X144928571Y-92452380D01*
X144738095Y-92452380D01*
X144642857Y-92404761D01*
X144595238Y-92357142D01*
X144547619Y-92261904D01*
X144547619Y-91976190D01*
X144595238Y-91880952D01*
X144642857Y-91833333D01*
X144738095Y-91785714D01*
X144928571Y-91785714D01*
X145023809Y-91833333D01*
X145500000Y-92452380D02*
X145500000Y-91452380D01*
X145928571Y-92452380D02*
X145928571Y-91928571D01*
X145880952Y-91833333D01*
X145785714Y-91785714D01*
X145642857Y-91785714D01*
X145547619Y-91833333D01*
X145500000Y-91880952D01*
X146261904Y-91785714D02*
X146642857Y-91785714D01*
X146404761Y-91452380D02*
X146404761Y-92309523D01*
X146452380Y-92404761D01*
X146547619Y-92452380D01*
X146642857Y-92452380D01*
X161321428Y-92702380D02*
X161321428Y-91702380D01*
X161559523Y-91702380D01*
X161702380Y-91750000D01*
X161797619Y-91845238D01*
X161845238Y-91940476D01*
X161892857Y-92130952D01*
X161892857Y-92273809D01*
X161845238Y-92464285D01*
X161797619Y-92559523D01*
X161702380Y-92654761D01*
X161559523Y-92702380D01*
X161321428Y-92702380D01*
X162750000Y-92702380D02*
X162750000Y-92178571D01*
X162702380Y-92083333D01*
X162607142Y-92035714D01*
X162416666Y-92035714D01*
X162321428Y-92083333D01*
X162750000Y-92654761D02*
X162654761Y-92702380D01*
X162416666Y-92702380D01*
X162321428Y-92654761D01*
X162273809Y-92559523D01*
X162273809Y-92464285D01*
X162321428Y-92369047D01*
X162416666Y-92321428D01*
X162654761Y-92321428D01*
X162750000Y-92273809D01*
X163226190Y-92702380D02*
X163226190Y-92035714D01*
X163226190Y-92226190D02*
X163273809Y-92130952D01*
X163321428Y-92083333D01*
X163416666Y-92035714D01*
X163511904Y-92035714D01*
X163845238Y-92702380D02*
X163845238Y-91702380D01*
X163940476Y-92321428D02*
X164226190Y-92702380D01*
X164226190Y-92035714D02*
X163845238Y-92416666D01*
X161273809Y-105452380D02*
X161273809Y-104452380D01*
X161273809Y-104928571D02*
X161845238Y-104928571D01*
X161845238Y-105452380D02*
X161845238Y-104452380D01*
X162845238Y-104500000D02*
X162750000Y-104452380D01*
X162607142Y-104452380D01*
X162464285Y-104500000D01*
X162369047Y-104595238D01*
X162321428Y-104690476D01*
X162273809Y-104880952D01*
X162273809Y-105023809D01*
X162321428Y-105214285D01*
X162369047Y-105309523D01*
X162464285Y-105404761D01*
X162607142Y-105452380D01*
X162702380Y-105452380D01*
X162845238Y-105404761D01*
X162892857Y-105357142D01*
X162892857Y-105023809D01*
X162702380Y-105023809D01*
X163321428Y-105452380D02*
X163321428Y-104785714D01*
X163321428Y-104452380D02*
X163273809Y-104500000D01*
X163321428Y-104547619D01*
X163369047Y-104500000D01*
X163321428Y-104452380D01*
X163321428Y-104547619D01*
X163797619Y-104785714D02*
X163797619Y-105452380D01*
X163797619Y-104880952D02*
X163845238Y-104833333D01*
X163940476Y-104785714D01*
X164083333Y-104785714D01*
X164178571Y-104833333D01*
X164226190Y-104928571D01*
X164226190Y-105452380D01*
X161916666Y-95952380D02*
X162107142Y-95952380D01*
X162202380Y-96000000D01*
X162297619Y-96095238D01*
X162345238Y-96285714D01*
X162345238Y-96619047D01*
X162297619Y-96809523D01*
X162202380Y-96904761D01*
X162107142Y-96952380D01*
X161916666Y-96952380D01*
X161821428Y-96904761D01*
X161726190Y-96809523D01*
X161678571Y-96619047D01*
X161678571Y-96285714D01*
X161726190Y-96095238D01*
X161821428Y-96000000D01*
X161916666Y-95952380D01*
X163202380Y-96285714D02*
X163202380Y-96952380D01*
X162773809Y-96285714D02*
X162773809Y-96809523D01*
X162821428Y-96904761D01*
X162916666Y-96952380D01*
X163059523Y-96952380D01*
X163154761Y-96904761D01*
X163202380Y-96857142D01*
X163535714Y-96285714D02*
X163916666Y-96285714D01*
X163678571Y-95952380D02*
X163678571Y-96809523D01*
X163726190Y-96904761D01*
X163821428Y-96952380D01*
X163916666Y-96952380D01*
X142988095Y-105416666D02*
X143464285Y-105416666D01*
X142892857Y-105702380D02*
X143226190Y-104702380D01*
X143559523Y-105702380D01*
X144416666Y-104750000D02*
X144321428Y-104702380D01*
X144178571Y-104702380D01*
X144035714Y-104750000D01*
X143940476Y-104845238D01*
X143892857Y-104940476D01*
X143845238Y-105130952D01*
X143845238Y-105273809D01*
X143892857Y-105464285D01*
X143940476Y-105559523D01*
X144035714Y-105654761D01*
X144178571Y-105702380D01*
X144273809Y-105702380D01*
X144416666Y-105654761D01*
X144464285Y-105607142D01*
X144464285Y-105273809D01*
X144273809Y-105273809D01*
X144892857Y-105702380D02*
X144892857Y-104702380D01*
X145464285Y-105702380D01*
X145464285Y-104702380D01*
X145940476Y-105702380D02*
X145940476Y-104702380D01*
X146178571Y-104702380D01*
X146321428Y-104750000D01*
X146416666Y-104845238D01*
X146464285Y-104940476D01*
X146511904Y-105130952D01*
X146511904Y-105273809D01*
X146464285Y-105464285D01*
X146416666Y-105559523D01*
X146321428Y-105654761D01*
X146178571Y-105702380D01*
X145940476Y-105702380D01*
D11*
X145870000Y-94130000D02*
X145870000Y-101870000D01*
X143130000Y-94130000D02*
X143130000Y-101870000D01*
X145870000Y-94130000D02*
X143130000Y-94130000D01*
X145870000Y-101870000D02*
X143130000Y-101870000D01*
X156940000Y-110620000D02*
X156940000Y-107880000D01*
X156940000Y-107880000D02*
X150400000Y-107880000D01*
X150400000Y-107880000D02*
X150400000Y-110620000D01*
X150400000Y-110620000D02*
X156940000Y-110620000D01*
X157710000Y-109250000D02*
X156940000Y-109250000D01*
X149630000Y-109250000D02*
X150400000Y-109250000D01*
X149630000Y-87250000D02*
X150400000Y-87250000D01*
X157710000Y-87250000D02*
X156940000Y-87250000D01*
X150400000Y-88620000D02*
X156940000Y-88620000D01*
X150400000Y-85880000D02*
X150400000Y-88620000D01*
X156940000Y-85880000D02*
X150400000Y-85880000D01*
X156940000Y-88620000D02*
X156940000Y-85880000D01*
X150400000Y-89130000D02*
X150400000Y-91870000D01*
X150400000Y-91870000D02*
X156940000Y-91870000D01*
X156940000Y-91870000D02*
X156940000Y-89130000D01*
X156940000Y-89130000D02*
X150400000Y-89130000D01*
X149630000Y-90500000D02*
X150400000Y-90500000D01*
X157710000Y-90500000D02*
X156940000Y-90500000D01*
D12*
X144857142Y-98166666D02*
X144904761Y-98214285D01*
X144952380Y-98357142D01*
X144952380Y-98452380D01*
X144904761Y-98595238D01*
X144809523Y-98690476D01*
X144714285Y-98738095D01*
X144523809Y-98785714D01*
X144380952Y-98785714D01*
X144190476Y-98738095D01*
X144095238Y-98690476D01*
X144000000Y-98595238D01*
X143952380Y-98452380D01*
X143952380Y-98357142D01*
X144000000Y-98214285D01*
X144047619Y-98166666D01*
X144952380Y-97214285D02*
X144952380Y-97785714D01*
X144952380Y-97500000D02*
X143952380Y-97500000D01*
X144095238Y-97595238D01*
X144190476Y-97690476D01*
X144238095Y-97785714D01*
X153503333Y-109702380D02*
X153170000Y-109226190D01*
X152931904Y-109702380D02*
X152931904Y-108702380D01*
X153312857Y-108702380D01*
X153408095Y-108750000D01*
X153455714Y-108797619D01*
X153503333Y-108892857D01*
X153503333Y-109035714D01*
X153455714Y-109130952D01*
X153408095Y-109178571D01*
X153312857Y-109226190D01*
X152931904Y-109226190D01*
X154455714Y-109702380D02*
X153884285Y-109702380D01*
X154170000Y-109702380D02*
X154170000Y-108702380D01*
X154074761Y-108845238D01*
X153979523Y-108940476D01*
X153884285Y-108988095D01*
X153423333Y-87702380D02*
X153090000Y-87226190D01*
X152851904Y-87702380D02*
X152851904Y-86702380D01*
X153232857Y-86702380D01*
X153328095Y-86750000D01*
X153375714Y-86797619D01*
X153423333Y-86892857D01*
X153423333Y-87035714D01*
X153375714Y-87130952D01*
X153328095Y-87178571D01*
X153232857Y-87226190D01*
X152851904Y-87226190D01*
X153804285Y-86797619D02*
X153851904Y-86750000D01*
X153947142Y-86702380D01*
X154185238Y-86702380D01*
X154280476Y-86750000D01*
X154328095Y-86797619D01*
X154375714Y-86892857D01*
X154375714Y-86988095D01*
X154328095Y-87130952D01*
X153756666Y-87702380D01*
X154375714Y-87702380D01*
X153503333Y-90952380D02*
X153170000Y-90476190D01*
X152931904Y-90952380D02*
X152931904Y-89952380D01*
X153312857Y-89952380D01*
X153408095Y-90000000D01*
X153455714Y-90047619D01*
X153503333Y-90142857D01*
X153503333Y-90285714D01*
X153455714Y-90380952D01*
X153408095Y-90428571D01*
X153312857Y-90476190D01*
X152931904Y-90476190D01*
X153836666Y-89952380D02*
X154455714Y-89952380D01*
X154122380Y-90333333D01*
X154265238Y-90333333D01*
X154360476Y-90380952D01*
X154408095Y-90428571D01*
X154455714Y-90523809D01*
X154455714Y-90761904D01*
X154408095Y-90857142D01*
X154360476Y-90904761D01*
X154265238Y-90952380D01*
X153979523Y-90952380D01*
X153884285Y-90904761D01*
X153836666Y-90857142D01*
M02*
