G04 #@! TF.FileFunction,Copper,L1,Top,Signal*
%FSLAX46Y46*%
G04 Gerber Fmt 4.6, Leading zero omitted, Abs format (unit mm)*
G04 Created by KiCad (PCBNEW 4.0.7) date Friday, 04 May 2018 'PMt' 12:52:55*
%MOMM*%
%LPD*%
G01*
G04 APERTURE LIST*
%ADD10C,0.100000*%
%ADD11C,2.800000*%
%ADD12C,2.400000*%
%ADD13O,2.400000X2.400000*%
%ADD14R,2.400000X2.400000*%
%ADD15C,1.600000*%
%ADD16O,1.600000X1.600000*%
%ADD17C,6.400000*%
%ADD18R,3.600000X1.800000*%
%ADD19O,3.600000X1.800000*%
%ADD20R,2.000000X2.000000*%
%ADD21C,2.000000*%
%ADD22C,4.000000*%
%ADD23C,2.499360*%
%ADD24C,1.260000*%
%ADD25C,1.000000*%
%ADD26C,0.800000*%
G04 APERTURE END LIST*
D10*
D11*
X204000000Y-119000000D03*
D12*
X216000000Y-141000000D03*
D13*
X216000000Y-125760000D03*
D14*
X200000000Y-133000000D03*
D12*
X200000000Y-140500000D03*
D15*
X186000000Y-79000000D03*
D16*
X186000000Y-99000000D03*
D17*
X177500000Y-62500000D03*
D11*
X224500000Y-69000000D03*
X175700000Y-85100000D03*
D18*
X178600000Y-78900000D03*
D19*
X178600000Y-73820000D03*
D18*
X226000000Y-109000000D03*
D19*
X226000000Y-114080000D03*
D11*
X179000000Y-97000000D03*
X188000000Y-142000000D03*
D20*
X207000000Y-68500000D03*
D21*
X207000000Y-63500000D03*
D20*
X205000000Y-69172144D03*
D21*
X209000000Y-62827856D03*
D22*
X193568200Y-83511000D03*
X199088300Y-79500000D03*
X205911700Y-79500000D03*
X211431800Y-83510600D03*
X213540400Y-90000000D03*
X211431800Y-96489400D03*
X205911700Y-100500000D03*
X199088300Y-100500000D03*
X193568200Y-96489400D03*
D15*
X218500000Y-104500000D03*
X218500000Y-109500000D03*
X188000000Y-72500000D03*
D16*
X188000000Y-62340000D03*
D15*
X192000000Y-79000000D03*
D16*
X192000000Y-68840000D03*
D15*
X196000000Y-72500000D03*
D16*
X196000000Y-62340000D03*
D15*
X208500000Y-75000000D03*
D16*
X198340000Y-75000000D03*
D12*
X217000000Y-76000000D03*
D13*
X217000000Y-60760000D03*
D15*
X206000000Y-115150000D03*
D16*
X206000000Y-104990000D03*
D12*
X227000000Y-120000000D03*
D13*
X227000000Y-135240000D03*
D15*
X214000000Y-111000000D03*
D16*
X214000000Y-100840000D03*
D14*
X183000000Y-125000000D03*
D12*
X183000000Y-132500000D03*
D15*
X194000000Y-115000000D03*
D16*
X194000000Y-104840000D03*
D14*
X183000000Y-106000000D03*
D12*
X183000000Y-113500000D03*
D15*
X202000000Y-105000000D03*
D16*
X202000000Y-115160000D03*
D15*
X210000000Y-105000000D03*
D16*
X210000000Y-115160000D03*
D23*
X175200000Y-68250000D03*
X180360000Y-68250000D03*
D12*
X221500000Y-141000000D03*
D13*
X221500000Y-125760000D03*
D20*
X217000000Y-116000000D03*
D21*
X217000000Y-121000000D03*
D20*
X219000000Y-115327856D03*
D21*
X215000000Y-121672144D03*
D18*
X226000000Y-75000000D03*
D19*
X226000000Y-80080000D03*
D15*
X211000000Y-134000000D03*
D16*
X211000000Y-123840000D03*
D24*
X198000000Y-118920000D03*
X195460000Y-121460000D03*
X198000000Y-124000000D03*
D20*
X208000000Y-121500000D03*
D21*
X208000000Y-118960000D03*
D18*
X226000000Y-87000000D03*
D19*
X226000000Y-92080000D03*
X226000000Y-97160000D03*
X226000000Y-102240000D03*
D25*
X194000000Y-104840000D02*
X197840000Y-104840000D01*
X204340000Y-109500000D02*
X210000000Y-115160000D01*
X202500000Y-109500000D02*
X204340000Y-109500000D01*
X197840000Y-104840000D02*
X202500000Y-109500000D01*
X210000000Y-115160000D02*
X210000000Y-115000000D01*
X216000000Y-125760000D02*
X216740000Y-125760000D01*
X216740000Y-125760000D02*
X226000000Y-116500000D01*
X226000000Y-116500000D02*
X226000000Y-114080000D01*
X188000000Y-142000000D02*
X191000000Y-142000000D01*
X191000000Y-142000000D02*
X200000000Y-133000000D01*
X227000000Y-120000000D02*
X227000000Y-120260000D01*
X227000000Y-120260000D02*
X221500000Y-125760000D01*
X213167856Y-121672144D02*
X213167856Y-111832144D01*
X213167856Y-111832144D02*
X214000000Y-111000000D01*
X208000000Y-121500000D02*
X208000000Y-124000000D01*
X198000000Y-124000000D02*
X208000000Y-124000000D01*
X208000000Y-124000000D02*
X210840000Y-124000000D01*
X210840000Y-124000000D02*
X213167856Y-121672144D01*
X213167856Y-121672144D02*
X215000000Y-121672144D01*
X195460000Y-121460000D02*
X198000000Y-124000000D01*
X215000000Y-121672144D02*
X216327856Y-121672144D01*
X216327856Y-121672144D02*
X217000000Y-121000000D01*
X205840000Y-115160000D02*
X206000000Y-115000000D01*
X202000000Y-115160000D02*
X202000000Y-112000000D01*
X186000000Y-109000000D02*
X183000000Y-106000000D01*
X199000000Y-109000000D02*
X186000000Y-109000000D01*
X202000000Y-112000000D02*
X199000000Y-109000000D01*
X204000000Y-119000000D02*
X207960000Y-119000000D01*
X207960000Y-119000000D02*
X208000000Y-118960000D01*
X198000000Y-118920000D02*
X203920000Y-118920000D01*
X203920000Y-118920000D02*
X204000000Y-119000000D01*
D26*
G36*
X214837021Y-59317243D02*
X214449549Y-60254802D01*
X214751919Y-60660000D01*
X216900000Y-60660000D01*
X216900000Y-60640000D01*
X217100000Y-60640000D01*
X217100000Y-60660000D01*
X219248081Y-60660000D01*
X219550451Y-60254802D01*
X219162979Y-59317243D01*
X218621602Y-58775000D01*
X231225000Y-58775000D01*
X231225000Y-146225000D01*
X173775000Y-146225000D01*
X173775000Y-143054511D01*
X174699515Y-143054511D01*
X175124892Y-144084000D01*
X175911857Y-144872340D01*
X176940602Y-145299513D01*
X178054511Y-145300485D01*
X179084000Y-144875108D01*
X179872340Y-144088143D01*
X180299513Y-143059398D01*
X180299988Y-142514903D01*
X185399550Y-142514903D01*
X185794542Y-143470858D01*
X186525295Y-144202887D01*
X187480559Y-144599548D01*
X188514903Y-144600450D01*
X189470858Y-144205458D01*
X189977199Y-143700000D01*
X190999995Y-143700000D01*
X191000000Y-143700001D01*
X191650562Y-143570595D01*
X192202082Y-143202082D01*
X193207981Y-142196182D01*
X198445240Y-142196182D01*
X198523830Y-142701905D01*
X199478829Y-143099201D01*
X200513172Y-143100792D01*
X201469389Y-142706436D01*
X201476170Y-142701905D01*
X201554760Y-142196182D01*
X200000000Y-140641421D01*
X198445240Y-142196182D01*
X193207981Y-142196182D01*
X194390991Y-141013172D01*
X197399208Y-141013172D01*
X197793564Y-141969389D01*
X197798095Y-141976170D01*
X198303818Y-142054760D01*
X199858579Y-140500000D01*
X200141421Y-140500000D01*
X201696182Y-142054760D01*
X202201905Y-141976170D01*
X202599201Y-141021171D01*
X202600792Y-139986828D01*
X202206436Y-139030611D01*
X202201905Y-139023830D01*
X201696182Y-138945240D01*
X200141421Y-140500000D01*
X199858579Y-140500000D01*
X198303818Y-138945240D01*
X197798095Y-139023830D01*
X197400799Y-139978829D01*
X197399208Y-141013172D01*
X194390991Y-141013172D01*
X196600345Y-138803818D01*
X198445240Y-138803818D01*
X200000000Y-140358579D01*
X201554760Y-138803818D01*
X201476170Y-138298095D01*
X200521171Y-137900799D01*
X199486828Y-137899208D01*
X198530611Y-138293564D01*
X198523830Y-138298095D01*
X198445240Y-138803818D01*
X196600345Y-138803818D01*
X198418966Y-136985197D01*
X213549576Y-136985197D01*
X213921780Y-137886000D01*
X214610375Y-138575798D01*
X215095124Y-138777083D01*
X214642285Y-138964192D01*
X213966565Y-139638734D01*
X213600417Y-140520516D01*
X213599584Y-141475295D01*
X213964192Y-142357715D01*
X214638734Y-143033435D01*
X215520516Y-143399583D01*
X216475295Y-143400416D01*
X217357715Y-143035808D01*
X218033435Y-142361266D01*
X218399583Y-141479484D01*
X218400416Y-140524705D01*
X218035808Y-139642285D01*
X217361266Y-138966565D01*
X216904829Y-138777036D01*
X217386000Y-138578220D01*
X218075798Y-137889625D01*
X218449573Y-136989473D01*
X218449576Y-136985197D01*
X219049576Y-136985197D01*
X219421780Y-137886000D01*
X220110375Y-138575798D01*
X220595124Y-138777083D01*
X220142285Y-138964192D01*
X219466565Y-139638734D01*
X219100417Y-140520516D01*
X219099584Y-141475295D01*
X219464192Y-142357715D01*
X220138734Y-143033435D01*
X221020516Y-143399583D01*
X221975295Y-143400416D01*
X222812450Y-143054511D01*
X224699515Y-143054511D01*
X225124892Y-144084000D01*
X225911857Y-144872340D01*
X226940602Y-145299513D01*
X228054511Y-145300485D01*
X229084000Y-144875108D01*
X229872340Y-144088143D01*
X230299513Y-143059398D01*
X230300485Y-141945489D01*
X229875108Y-140916000D01*
X229088143Y-140127660D01*
X228059398Y-139700487D01*
X226945489Y-139699515D01*
X225916000Y-140124892D01*
X225127660Y-140911857D01*
X224700487Y-141940602D01*
X224699515Y-143054511D01*
X222812450Y-143054511D01*
X222857715Y-143035808D01*
X223533435Y-142361266D01*
X223899583Y-141479484D01*
X223900416Y-140524705D01*
X223535808Y-139642285D01*
X222861266Y-138966565D01*
X222404829Y-138777036D01*
X222886000Y-138578220D01*
X223575798Y-137889625D01*
X223949573Y-136989473D01*
X223950424Y-136014803D01*
X223578220Y-135114000D01*
X222889625Y-134424202D01*
X221989473Y-134050427D01*
X221014803Y-134049576D01*
X220114000Y-134421780D01*
X219424202Y-135110375D01*
X219050427Y-136010527D01*
X219049576Y-136985197D01*
X218449576Y-136985197D01*
X218450424Y-136014803D01*
X218078220Y-135114000D01*
X217389625Y-134424202D01*
X216489473Y-134050427D01*
X215514803Y-134049576D01*
X214614000Y-134421780D01*
X213924202Y-135110375D01*
X213550427Y-136010527D01*
X213549576Y-136985197D01*
X198418966Y-136985197D01*
X199980654Y-135423509D01*
X201200000Y-135423509D01*
X201285260Y-135407466D01*
X209733955Y-135407466D01*
X209763750Y-135871681D01*
X210574116Y-136202300D01*
X211449318Y-136197638D01*
X212236250Y-135871681D01*
X212266045Y-135407466D01*
X211000000Y-134141421D01*
X209733955Y-135407466D01*
X201285260Y-135407466D01*
X201644693Y-135339834D01*
X202053117Y-135077021D01*
X202327114Y-134676014D01*
X202423509Y-134200000D01*
X202423509Y-133574116D01*
X208797700Y-133574116D01*
X208802362Y-134449318D01*
X209128319Y-135236250D01*
X209592534Y-135266045D01*
X210858579Y-134000000D01*
X211141421Y-134000000D01*
X212407466Y-135266045D01*
X212871681Y-135236250D01*
X213202300Y-134425884D01*
X213197638Y-133550682D01*
X212871681Y-132763750D01*
X212407466Y-132733955D01*
X211141421Y-134000000D01*
X210858579Y-134000000D01*
X209592534Y-132733955D01*
X209128319Y-132763750D01*
X208797700Y-133574116D01*
X202423509Y-133574116D01*
X202423509Y-132592534D01*
X209733955Y-132592534D01*
X211000000Y-133858579D01*
X212266045Y-132592534D01*
X212236250Y-132128319D01*
X211425884Y-131797700D01*
X210550682Y-131802362D01*
X209763750Y-132128319D01*
X209733955Y-132592534D01*
X202423509Y-132592534D01*
X202423509Y-131800000D01*
X202339834Y-131355307D01*
X202077021Y-130946883D01*
X201676014Y-130672886D01*
X201200000Y-130576491D01*
X198800000Y-130576491D01*
X198355307Y-130660166D01*
X197946883Y-130922979D01*
X197672886Y-131323986D01*
X197576491Y-131800000D01*
X197576491Y-133019346D01*
X190295836Y-140300000D01*
X189976715Y-140300000D01*
X189474705Y-139797113D01*
X188519441Y-139400452D01*
X187485097Y-139399550D01*
X186529142Y-139794542D01*
X185797113Y-140525295D01*
X185400452Y-141480559D01*
X185399550Y-142514903D01*
X180299988Y-142514903D01*
X180300485Y-141945489D01*
X179875108Y-140916000D01*
X179088143Y-140127660D01*
X178059398Y-139700487D01*
X176945489Y-139699515D01*
X175916000Y-140124892D01*
X175127660Y-140911857D01*
X174700487Y-141940602D01*
X174699515Y-143054511D01*
X173775000Y-143054511D01*
X173775000Y-134196182D01*
X181445240Y-134196182D01*
X181523830Y-134701905D01*
X182478829Y-135099201D01*
X183513172Y-135100792D01*
X184469389Y-134706436D01*
X184476170Y-134701905D01*
X184554760Y-134196182D01*
X183000000Y-132641421D01*
X181445240Y-134196182D01*
X173775000Y-134196182D01*
X173775000Y-133013172D01*
X180399208Y-133013172D01*
X180793564Y-133969389D01*
X180798095Y-133976170D01*
X181303818Y-134054760D01*
X182858579Y-132500000D01*
X183141421Y-132500000D01*
X184696182Y-134054760D01*
X185201905Y-133976170D01*
X185599201Y-133021171D01*
X185600792Y-131986828D01*
X185206436Y-131030611D01*
X185201905Y-131023830D01*
X184696182Y-130945240D01*
X183141421Y-132500000D01*
X182858579Y-132500000D01*
X181303818Y-130945240D01*
X180798095Y-131023830D01*
X180400799Y-131978829D01*
X180399208Y-133013172D01*
X173775000Y-133013172D01*
X173775000Y-130803818D01*
X181445240Y-130803818D01*
X183000000Y-132358579D01*
X184554760Y-130803818D01*
X184476170Y-130298095D01*
X183521171Y-129900799D01*
X182486828Y-129899208D01*
X181530611Y-130293564D01*
X181523830Y-130298095D01*
X181445240Y-130803818D01*
X173775000Y-130803818D01*
X173775000Y-123800000D01*
X180576491Y-123800000D01*
X180576491Y-126200000D01*
X180660166Y-126644693D01*
X180922979Y-127053117D01*
X181323986Y-127327114D01*
X181800000Y-127423509D01*
X184200000Y-127423509D01*
X184644693Y-127339834D01*
X185053117Y-127077021D01*
X185327114Y-126676014D01*
X185423509Y-126200000D01*
X185423509Y-123800000D01*
X185339834Y-123355307D01*
X185077021Y-122946883D01*
X184676014Y-122672886D01*
X184200000Y-122576491D01*
X181800000Y-122576491D01*
X181355307Y-122660166D01*
X180946883Y-122922979D01*
X180672886Y-123323986D01*
X180576491Y-123800000D01*
X173775000Y-123800000D01*
X173775000Y-115196182D01*
X181445240Y-115196182D01*
X181523830Y-115701905D01*
X182478829Y-116099201D01*
X183513172Y-116100792D01*
X184469389Y-115706436D01*
X184476170Y-115701905D01*
X184523695Y-115396079D01*
X191999654Y-115396079D01*
X192303494Y-116131429D01*
X192865612Y-116694529D01*
X193600430Y-116999652D01*
X194396079Y-117000346D01*
X195131429Y-116696506D01*
X195694529Y-116134388D01*
X195999652Y-115399570D01*
X196000346Y-114603921D01*
X195696506Y-113868571D01*
X195134388Y-113305471D01*
X194399570Y-113000348D01*
X193603921Y-112999654D01*
X192868571Y-113303494D01*
X192305471Y-113865612D01*
X192000348Y-114600430D01*
X191999654Y-115396079D01*
X184523695Y-115396079D01*
X184554760Y-115196182D01*
X183000000Y-113641421D01*
X181445240Y-115196182D01*
X173775000Y-115196182D01*
X173775000Y-114013172D01*
X180399208Y-114013172D01*
X180793564Y-114969389D01*
X180798095Y-114976170D01*
X181303818Y-115054760D01*
X182858579Y-113500000D01*
X183141421Y-113500000D01*
X184696182Y-115054760D01*
X185201905Y-114976170D01*
X185599201Y-114021171D01*
X185600792Y-112986828D01*
X185206436Y-112030611D01*
X185201905Y-112023830D01*
X184696182Y-111945240D01*
X183141421Y-113500000D01*
X182858579Y-113500000D01*
X181303818Y-111945240D01*
X180798095Y-112023830D01*
X180400799Y-112978829D01*
X180399208Y-114013172D01*
X173775000Y-114013172D01*
X173775000Y-111803818D01*
X181445240Y-111803818D01*
X183000000Y-113358579D01*
X184554760Y-111803818D01*
X184476170Y-111298095D01*
X183521171Y-110900799D01*
X182486828Y-110899208D01*
X181530611Y-111293564D01*
X181523830Y-111298095D01*
X181445240Y-111803818D01*
X173775000Y-111803818D01*
X173775000Y-104800000D01*
X180576491Y-104800000D01*
X180576491Y-107200000D01*
X180660166Y-107644693D01*
X180922979Y-108053117D01*
X181323986Y-108327114D01*
X181800000Y-108423509D01*
X183019345Y-108423509D01*
X184797916Y-110202079D01*
X184797918Y-110202082D01*
X185349438Y-110570595D01*
X185457374Y-110592065D01*
X186000000Y-110700001D01*
X186000005Y-110700000D01*
X198295836Y-110700000D01*
X200300000Y-112704163D01*
X200300000Y-114134314D01*
X200152241Y-114355451D01*
X200000000Y-115120818D01*
X200000000Y-115199182D01*
X200152241Y-115964549D01*
X200585786Y-116613396D01*
X201234633Y-117046941D01*
X202000000Y-117199182D01*
X202154601Y-117168430D01*
X202102941Y-117220000D01*
X198677915Y-117220000D01*
X198365607Y-117090318D01*
X197637587Y-117089683D01*
X196964742Y-117367697D01*
X196449506Y-117882035D01*
X196170318Y-118554393D01*
X196169683Y-119282413D01*
X196414467Y-119874834D01*
X195825607Y-119630318D01*
X195097587Y-119629683D01*
X194424742Y-119907697D01*
X193909506Y-120422035D01*
X193630318Y-121094393D01*
X193629683Y-121822413D01*
X193907697Y-122495258D01*
X194422035Y-123010494D01*
X194737197Y-123141361D01*
X196318560Y-124722724D01*
X196447697Y-125035258D01*
X196962035Y-125550494D01*
X197634393Y-125829682D01*
X198362413Y-125830317D01*
X198677804Y-125700000D01*
X210194313Y-125700000D01*
X210234633Y-125726941D01*
X211000000Y-125879182D01*
X211765367Y-125726941D01*
X212414214Y-125293396D01*
X212847759Y-124644549D01*
X212909374Y-124334790D01*
X213730124Y-123514039D01*
X213752173Y-123536126D01*
X214534710Y-123861064D01*
X214302944Y-124015925D01*
X213782689Y-124794541D01*
X213600000Y-125712981D01*
X213600000Y-125807019D01*
X213782689Y-126725459D01*
X214302944Y-127504075D01*
X214808072Y-127841591D01*
X214614000Y-127921780D01*
X213924202Y-128610375D01*
X213550427Y-129510527D01*
X213549576Y-130485197D01*
X213921780Y-131386000D01*
X214610375Y-132075798D01*
X215510527Y-132449573D01*
X216485197Y-132450424D01*
X217386000Y-132078220D01*
X218075798Y-131389625D01*
X218449573Y-130489473D01*
X218450424Y-129514803D01*
X218078220Y-128614000D01*
X217389625Y-127924202D01*
X217191448Y-127841912D01*
X217697056Y-127504075D01*
X218217311Y-126725459D01*
X218226897Y-126677267D01*
X219100000Y-125804164D01*
X219100000Y-125807019D01*
X219282689Y-126725459D01*
X219802944Y-127504075D01*
X220308072Y-127841591D01*
X220114000Y-127921780D01*
X219424202Y-128610375D01*
X219050427Y-129510527D01*
X219049576Y-130485197D01*
X219421780Y-131386000D01*
X220110375Y-132075798D01*
X221010527Y-132449573D01*
X221985197Y-132450424D01*
X222886000Y-132078220D01*
X223480059Y-131485197D01*
X224549576Y-131485197D01*
X224921780Y-132386000D01*
X225610375Y-133075798D01*
X225808552Y-133158088D01*
X225302944Y-133495925D01*
X224782689Y-134274541D01*
X224600000Y-135192981D01*
X224600000Y-135287019D01*
X224782689Y-136205459D01*
X225302944Y-136984075D01*
X226081560Y-137504330D01*
X227000000Y-137687019D01*
X227918440Y-137504330D01*
X228697056Y-136984075D01*
X229217311Y-136205459D01*
X229400000Y-135287019D01*
X229400000Y-135192981D01*
X229217311Y-134274541D01*
X228697056Y-133495925D01*
X228191928Y-133158409D01*
X228386000Y-133078220D01*
X229075798Y-132389625D01*
X229449573Y-131489473D01*
X229450424Y-130514803D01*
X229078220Y-129614000D01*
X228389625Y-128924202D01*
X227489473Y-128550427D01*
X226514803Y-128549576D01*
X225614000Y-128921780D01*
X224924202Y-129610375D01*
X224550427Y-130510527D01*
X224549576Y-131485197D01*
X223480059Y-131485197D01*
X223575798Y-131389625D01*
X223949573Y-130489473D01*
X223950424Y-129514803D01*
X223578220Y-128614000D01*
X222889625Y-127924202D01*
X222691448Y-127841912D01*
X223197056Y-127504075D01*
X223717311Y-126725459D01*
X223900000Y-125807019D01*
X223900000Y-125764164D01*
X224733598Y-124930565D01*
X224921780Y-125386000D01*
X225610375Y-126075798D01*
X226510527Y-126449573D01*
X227485197Y-126450424D01*
X228386000Y-126078220D01*
X229075798Y-125389625D01*
X229449573Y-124489473D01*
X229450424Y-123514803D01*
X229078220Y-122614000D01*
X228429501Y-121964147D01*
X229033435Y-121361266D01*
X229399583Y-120479484D01*
X229400416Y-119524705D01*
X229035808Y-118642285D01*
X228361266Y-117966565D01*
X227479484Y-117600417D01*
X227270134Y-117600234D01*
X227570595Y-117150562D01*
X227600613Y-116999652D01*
X227700001Y-116500000D01*
X227700000Y-116499995D01*
X227700000Y-116032561D01*
X227762408Y-116020147D01*
X228443697Y-115564924D01*
X228898920Y-114883635D01*
X229058773Y-114080000D01*
X228898920Y-113276365D01*
X228443697Y-112595076D01*
X227762408Y-112139853D01*
X226958773Y-111980000D01*
X225041227Y-111980000D01*
X224237592Y-112139853D01*
X223556303Y-112595076D01*
X223101080Y-113276365D01*
X222941227Y-114080000D01*
X223101080Y-114883635D01*
X223556303Y-115564924D01*
X224140539Y-115955298D01*
X219200092Y-120895744D01*
X219200381Y-120564313D01*
X218866157Y-119755428D01*
X218247827Y-119136018D01*
X217439527Y-118800382D01*
X216564313Y-118799619D01*
X215755428Y-119133843D01*
X215416174Y-119472506D01*
X214867856Y-119472028D01*
X214867856Y-117456644D01*
X215122979Y-117853117D01*
X215523986Y-118127114D01*
X216000000Y-118223509D01*
X218000000Y-118223509D01*
X218444693Y-118139834D01*
X218853117Y-117877021D01*
X219075629Y-117551365D01*
X220000000Y-117551365D01*
X220444693Y-117467690D01*
X220853117Y-117204877D01*
X221127114Y-116803870D01*
X221223509Y-116327856D01*
X221223509Y-114327856D01*
X221139834Y-113883163D01*
X220877021Y-113474739D01*
X220476014Y-113200742D01*
X220000000Y-113104347D01*
X218000000Y-113104347D01*
X217555307Y-113188022D01*
X217146883Y-113450835D01*
X216924371Y-113776491D01*
X216000000Y-113776491D01*
X215555307Y-113860166D01*
X215146883Y-114122979D01*
X214872886Y-114523986D01*
X214867856Y-114548825D01*
X214867856Y-112805412D01*
X215131429Y-112696506D01*
X215694529Y-112134388D01*
X215999652Y-111399570D01*
X216000346Y-110603921D01*
X215707873Y-109896079D01*
X216499654Y-109896079D01*
X216803494Y-110631429D01*
X217365612Y-111194529D01*
X218100430Y-111499652D01*
X218896079Y-111500346D01*
X219631429Y-111196506D01*
X220194529Y-110634388D01*
X220499652Y-109899570D01*
X220500346Y-109103921D01*
X220196506Y-108368571D01*
X219928404Y-108100000D01*
X222976491Y-108100000D01*
X222976491Y-109900000D01*
X223060166Y-110344693D01*
X223322979Y-110753117D01*
X223723986Y-111027114D01*
X224200000Y-111123509D01*
X227800000Y-111123509D01*
X228244693Y-111039834D01*
X228653117Y-110777021D01*
X228927114Y-110376014D01*
X229023509Y-109900000D01*
X229023509Y-108100000D01*
X228939834Y-107655307D01*
X228677021Y-107246883D01*
X228276014Y-106972886D01*
X227800000Y-106876491D01*
X224200000Y-106876491D01*
X223755307Y-106960166D01*
X223346883Y-107222979D01*
X223072886Y-107623986D01*
X222976491Y-108100000D01*
X219928404Y-108100000D01*
X219634388Y-107805471D01*
X218899570Y-107500348D01*
X218103921Y-107499654D01*
X217368571Y-107803494D01*
X216805471Y-108365612D01*
X216500348Y-109100430D01*
X216499654Y-109896079D01*
X215707873Y-109896079D01*
X215696506Y-109868571D01*
X215134388Y-109305471D01*
X214399570Y-109000348D01*
X213603921Y-108999654D01*
X212868571Y-109303494D01*
X212305471Y-109865612D01*
X212003857Y-110591979D01*
X211965774Y-110630062D01*
X211597261Y-111181582D01*
X211467855Y-111832144D01*
X211467856Y-111832149D01*
X211467856Y-113786885D01*
X211414214Y-113706604D01*
X210765367Y-113273059D01*
X210455607Y-113211444D01*
X205542082Y-108297918D01*
X204990562Y-107929405D01*
X204340000Y-107799999D01*
X204339995Y-107800000D01*
X203204163Y-107800000D01*
X202402044Y-106997881D01*
X203131429Y-106696506D01*
X203694529Y-106134388D01*
X203999652Y-105399570D01*
X204000000Y-105000599D01*
X204000000Y-105029182D01*
X204152241Y-105794549D01*
X204585786Y-106443396D01*
X205234633Y-106876941D01*
X206000000Y-107029182D01*
X206765367Y-106876941D01*
X207414214Y-106443396D01*
X207847759Y-105794549D01*
X207999974Y-105029313D01*
X207999654Y-105396079D01*
X208303494Y-106131429D01*
X208865612Y-106694529D01*
X209600430Y-106999652D01*
X210396079Y-107000346D01*
X211131429Y-106696506D01*
X211694529Y-106134388D01*
X211999652Y-105399570D01*
X212000091Y-104896079D01*
X216499654Y-104896079D01*
X216803494Y-105631429D01*
X217365612Y-106194529D01*
X218100430Y-106499652D01*
X218896079Y-106500346D01*
X219631429Y-106196506D01*
X220194529Y-105634388D01*
X220499652Y-104899570D01*
X220500346Y-104103921D01*
X220196506Y-103368571D01*
X219634388Y-102805471D01*
X218899570Y-102500348D01*
X218103921Y-102499654D01*
X217368571Y-102803494D01*
X216805471Y-103365612D01*
X216500348Y-104100430D01*
X216499654Y-104896079D01*
X212000091Y-104896079D01*
X212000346Y-104603921D01*
X211696506Y-103868571D01*
X211134388Y-103305471D01*
X210399570Y-103000348D01*
X209603921Y-102999654D01*
X208868571Y-103303494D01*
X208305471Y-103865612D01*
X208000348Y-104600430D01*
X208000000Y-104999401D01*
X208000000Y-104950818D01*
X207847759Y-104185451D01*
X207414214Y-103536604D01*
X207233864Y-103416098D01*
X207721986Y-103214410D01*
X208622946Y-102315021D01*
X209111144Y-101139312D01*
X209112255Y-99866273D01*
X208626110Y-98689714D01*
X207726721Y-97788754D01*
X206551012Y-97300556D01*
X205277973Y-97299445D01*
X204101414Y-97785590D01*
X203200454Y-98684979D01*
X202712256Y-99860688D01*
X202711145Y-101133727D01*
X203197290Y-102310286D01*
X204096679Y-103211246D01*
X204698635Y-103461201D01*
X204585786Y-103536604D01*
X204152241Y-104185451D01*
X204000044Y-104950599D01*
X204000346Y-104603921D01*
X203696506Y-103868571D01*
X203134388Y-103305471D01*
X202399570Y-103000348D01*
X201603921Y-102999654D01*
X200868571Y-103303494D01*
X200305471Y-103865612D01*
X200001594Y-104597430D01*
X199104180Y-103700016D01*
X199722027Y-103700555D01*
X200898586Y-103214410D01*
X201799546Y-102315021D01*
X202287744Y-101139312D01*
X202288855Y-99866273D01*
X201802710Y-98689714D01*
X200903321Y-97788754D01*
X199727612Y-97300556D01*
X198454573Y-97299445D01*
X197278014Y-97785590D01*
X196377054Y-98684979D01*
X195888856Y-99860688D01*
X195887745Y-101133727D01*
X196373890Y-102310286D01*
X197202157Y-103140000D01*
X195045144Y-103140000D01*
X194765367Y-102953059D01*
X194000000Y-102800818D01*
X193234633Y-102953059D01*
X192585786Y-103386604D01*
X192152241Y-104035451D01*
X192000000Y-104800818D01*
X192000000Y-104879182D01*
X192152241Y-105644549D01*
X192585786Y-106293396D01*
X193234633Y-106726941D01*
X194000000Y-106879182D01*
X194765367Y-106726941D01*
X195045144Y-106540000D01*
X197135836Y-106540000D01*
X197895836Y-107300000D01*
X186704163Y-107300000D01*
X185423509Y-106019345D01*
X185423509Y-104800000D01*
X185339834Y-104355307D01*
X185077021Y-103946883D01*
X184676014Y-103672886D01*
X184200000Y-103576491D01*
X181800000Y-103576491D01*
X181355307Y-103660166D01*
X180946883Y-103922979D01*
X180672886Y-104323986D01*
X180576491Y-104800000D01*
X173775000Y-104800000D01*
X173775000Y-97514903D01*
X176399550Y-97514903D01*
X176794542Y-98470858D01*
X177525295Y-99202887D01*
X178480559Y-99599548D01*
X179514903Y-99600450D01*
X180470858Y-99205458D01*
X180715925Y-98960818D01*
X184000000Y-98960818D01*
X184000000Y-99039182D01*
X184152241Y-99804549D01*
X184585786Y-100453396D01*
X185234633Y-100886941D01*
X186000000Y-101039182D01*
X186765367Y-100886941D01*
X187414214Y-100453396D01*
X187847759Y-99804549D01*
X188000000Y-99039182D01*
X188000000Y-98960818D01*
X187847759Y-98195451D01*
X187414214Y-97546604D01*
X186780435Y-97123127D01*
X190367645Y-97123127D01*
X190853790Y-98299686D01*
X191753179Y-99200646D01*
X192928888Y-99688844D01*
X194201927Y-99689955D01*
X195378486Y-99203810D01*
X196279446Y-98304421D01*
X196767644Y-97128712D01*
X196767648Y-97123127D01*
X208231245Y-97123127D01*
X208717390Y-98299686D01*
X209616779Y-99200646D01*
X210792488Y-99688844D01*
X212065527Y-99689955D01*
X212504207Y-99508696D01*
X212152241Y-100035451D01*
X212000000Y-100800818D01*
X212000000Y-100879182D01*
X212152241Y-101644549D01*
X212585786Y-102293396D01*
X213234633Y-102726941D01*
X214000000Y-102879182D01*
X214765367Y-102726941D01*
X215414214Y-102293396D01*
X215449892Y-102240000D01*
X222941227Y-102240000D01*
X223101080Y-103043635D01*
X223556303Y-103724924D01*
X224237592Y-104180147D01*
X225041227Y-104340000D01*
X226958773Y-104340000D01*
X227762408Y-104180147D01*
X228443697Y-103724924D01*
X228898920Y-103043635D01*
X229058773Y-102240000D01*
X228898920Y-101436365D01*
X228443697Y-100755076D01*
X227762408Y-100299853D01*
X226958773Y-100140000D01*
X225041227Y-100140000D01*
X224237592Y-100299853D01*
X223556303Y-100755076D01*
X223101080Y-101436365D01*
X222941227Y-102240000D01*
X215449892Y-102240000D01*
X215847759Y-101644549D01*
X216000000Y-100879182D01*
X216000000Y-100800818D01*
X215847759Y-100035451D01*
X215414214Y-99386604D01*
X214765367Y-98953059D01*
X214000000Y-98800818D01*
X213557637Y-98888810D01*
X214143046Y-98304421D01*
X214427978Y-97618228D01*
X222846108Y-97618228D01*
X222936808Y-97947784D01*
X223402943Y-98715635D01*
X224127440Y-99246655D01*
X225000000Y-99460000D01*
X225900000Y-99460000D01*
X225900000Y-97260000D01*
X226100000Y-97260000D01*
X226100000Y-99460000D01*
X227000000Y-99460000D01*
X227872560Y-99246655D01*
X228597057Y-98715635D01*
X229063192Y-97947784D01*
X229153892Y-97618228D01*
X228847434Y-97260000D01*
X226100000Y-97260000D01*
X225900000Y-97260000D01*
X223152566Y-97260000D01*
X222846108Y-97618228D01*
X214427978Y-97618228D01*
X214631244Y-97128712D01*
X214631616Y-96701772D01*
X222846108Y-96701772D01*
X223152566Y-97060000D01*
X225900000Y-97060000D01*
X225900000Y-94860000D01*
X226100000Y-94860000D01*
X226100000Y-97060000D01*
X228847434Y-97060000D01*
X229153892Y-96701772D01*
X229063192Y-96372216D01*
X228597057Y-95604365D01*
X227872560Y-95073345D01*
X227000000Y-94860000D01*
X226100000Y-94860000D01*
X225900000Y-94860000D01*
X225000000Y-94860000D01*
X224127440Y-95073345D01*
X223402943Y-95604365D01*
X222936808Y-96372216D01*
X222846108Y-96701772D01*
X214631616Y-96701772D01*
X214632355Y-95855673D01*
X214146210Y-94679114D01*
X213246821Y-93778154D01*
X212071112Y-93289956D01*
X210798073Y-93288845D01*
X209621514Y-93774990D01*
X208720554Y-94674379D01*
X208232356Y-95850088D01*
X208231245Y-97123127D01*
X196767648Y-97123127D01*
X196768755Y-95855673D01*
X196282610Y-94679114D01*
X195383221Y-93778154D01*
X194207512Y-93289956D01*
X192934473Y-93288845D01*
X191757914Y-93774990D01*
X190856954Y-94674379D01*
X190368756Y-95850088D01*
X190367645Y-97123127D01*
X186780435Y-97123127D01*
X186765367Y-97113059D01*
X186000000Y-96960818D01*
X185234633Y-97113059D01*
X184585786Y-97546604D01*
X184152241Y-98195451D01*
X184000000Y-98960818D01*
X180715925Y-98960818D01*
X181202887Y-98474705D01*
X181599548Y-97519441D01*
X181600450Y-96485097D01*
X181205458Y-95529142D01*
X180474705Y-94797113D01*
X179519441Y-94400452D01*
X178485097Y-94399550D01*
X177529142Y-94794542D01*
X176797113Y-95525295D01*
X176400452Y-96480559D01*
X176399550Y-97514903D01*
X173775000Y-97514903D01*
X173775000Y-90732747D01*
X198799359Y-90732747D01*
X199361464Y-92093143D01*
X200401382Y-93134878D01*
X201760796Y-93699356D01*
X203232747Y-93700641D01*
X204593143Y-93138536D01*
X205634878Y-92098618D01*
X206199356Y-90739204D01*
X206199448Y-90633727D01*
X210339845Y-90633727D01*
X210825990Y-91810286D01*
X211725379Y-92711246D01*
X212901088Y-93199444D01*
X214174127Y-93200555D01*
X215350686Y-92714410D01*
X215986204Y-92080000D01*
X222941227Y-92080000D01*
X223101080Y-92883635D01*
X223556303Y-93564924D01*
X224237592Y-94020147D01*
X225041227Y-94180000D01*
X226958773Y-94180000D01*
X227762408Y-94020147D01*
X228443697Y-93564924D01*
X228898920Y-92883635D01*
X229058773Y-92080000D01*
X228898920Y-91276365D01*
X228443697Y-90595076D01*
X227762408Y-90139853D01*
X226958773Y-89980000D01*
X225041227Y-89980000D01*
X224237592Y-90139853D01*
X223556303Y-90595076D01*
X223101080Y-91276365D01*
X222941227Y-92080000D01*
X215986204Y-92080000D01*
X216251646Y-91815021D01*
X216739844Y-90639312D01*
X216740955Y-89366273D01*
X216254810Y-88189714D01*
X215516386Y-87450000D01*
X222800000Y-87450000D01*
X222800000Y-88178477D01*
X223013137Y-88693036D01*
X223406963Y-89086862D01*
X223921522Y-89300000D01*
X225550000Y-89300000D01*
X225900000Y-88950000D01*
X225900000Y-87100000D01*
X226100000Y-87100000D01*
X226100000Y-88950000D01*
X226450000Y-89300000D01*
X228078478Y-89300000D01*
X228593037Y-89086862D01*
X228986863Y-88693036D01*
X229200000Y-88178477D01*
X229200000Y-87450000D01*
X228850000Y-87100000D01*
X226100000Y-87100000D01*
X225900000Y-87100000D01*
X223150000Y-87100000D01*
X222800000Y-87450000D01*
X215516386Y-87450000D01*
X215355421Y-87288754D01*
X214179712Y-86800556D01*
X212906673Y-86799445D01*
X211730114Y-87285590D01*
X210829154Y-88184979D01*
X210340956Y-89360688D01*
X210339845Y-90633727D01*
X206199448Y-90633727D01*
X206200641Y-89267253D01*
X205638536Y-87906857D01*
X204598618Y-86865122D01*
X203239204Y-86300644D01*
X201767253Y-86299359D01*
X200406857Y-86861464D01*
X199365122Y-87901382D01*
X198800644Y-89260796D01*
X198799359Y-90732747D01*
X173775000Y-90732747D01*
X173775000Y-86851806D01*
X174225295Y-87302887D01*
X175180559Y-87699548D01*
X176214903Y-87700450D01*
X177170858Y-87305458D01*
X177902887Y-86574705D01*
X178299548Y-85619441D01*
X178300450Y-84585097D01*
X177905458Y-83629142D01*
X177174705Y-82897113D01*
X176219441Y-82500452D01*
X175185097Y-82499550D01*
X174229142Y-82894542D01*
X173775000Y-83347892D01*
X173775000Y-78000000D01*
X175576491Y-78000000D01*
X175576491Y-79800000D01*
X175660166Y-80244693D01*
X175922979Y-80653117D01*
X176323986Y-80927114D01*
X176800000Y-81023509D01*
X180400000Y-81023509D01*
X180844693Y-80939834D01*
X181253117Y-80677021D01*
X181527114Y-80276014D01*
X181623509Y-79800000D01*
X181623509Y-79396079D01*
X183999654Y-79396079D01*
X184303494Y-80131429D01*
X184865612Y-80694529D01*
X185600430Y-80999652D01*
X186396079Y-81000346D01*
X187131429Y-80696506D01*
X187694529Y-80134388D01*
X187999652Y-79399570D01*
X187999655Y-79396079D01*
X189999654Y-79396079D01*
X190303494Y-80131429D01*
X190865612Y-80694529D01*
X191567991Y-80986182D01*
X190856954Y-81695979D01*
X190368756Y-82871688D01*
X190367645Y-84144727D01*
X190853790Y-85321286D01*
X191753179Y-86222246D01*
X192928888Y-86710444D01*
X194201927Y-86711555D01*
X195378486Y-86225410D01*
X196279446Y-85326021D01*
X196767644Y-84150312D01*
X196767649Y-84144327D01*
X208231245Y-84144327D01*
X208717390Y-85320886D01*
X209616779Y-86221846D01*
X210792488Y-86710044D01*
X212065527Y-86711155D01*
X213242086Y-86225010D01*
X213646277Y-85821523D01*
X222800000Y-85821523D01*
X222800000Y-86550000D01*
X223150000Y-86900000D01*
X225900000Y-86900000D01*
X225900000Y-85050000D01*
X226100000Y-85050000D01*
X226100000Y-86900000D01*
X228850000Y-86900000D01*
X229200000Y-86550000D01*
X229200000Y-85821523D01*
X228986863Y-85306964D01*
X228593037Y-84913138D01*
X228078478Y-84700000D01*
X226450000Y-84700000D01*
X226100000Y-85050000D01*
X225900000Y-85050000D01*
X225550000Y-84700000D01*
X223921522Y-84700000D01*
X223406963Y-84913138D01*
X223013137Y-85306964D01*
X222800000Y-85821523D01*
X213646277Y-85821523D01*
X214143046Y-85325621D01*
X214631244Y-84149912D01*
X214632355Y-82876873D01*
X214146210Y-81700314D01*
X213246821Y-80799354D01*
X212071112Y-80311156D01*
X210798073Y-80310045D01*
X209621514Y-80796190D01*
X208720554Y-81695579D01*
X208232356Y-82871288D01*
X208231245Y-84144327D01*
X196767649Y-84144327D01*
X196768755Y-82877273D01*
X196282610Y-81700714D01*
X195383221Y-80799754D01*
X194207512Y-80311556D01*
X193517655Y-80310954D01*
X193694529Y-80134388D01*
X193999652Y-79399570D01*
X194000346Y-78603921D01*
X193696506Y-77868571D01*
X193134388Y-77305471D01*
X192399570Y-77000348D01*
X191603921Y-76999654D01*
X190868571Y-77303494D01*
X190305471Y-77865612D01*
X190000348Y-78600430D01*
X189999654Y-79396079D01*
X187999655Y-79396079D01*
X188000346Y-78603921D01*
X187696506Y-77868571D01*
X187134388Y-77305471D01*
X186399570Y-77000348D01*
X185603921Y-76999654D01*
X184868571Y-77303494D01*
X184305471Y-77865612D01*
X184000348Y-78600430D01*
X183999654Y-79396079D01*
X181623509Y-79396079D01*
X181623509Y-78000000D01*
X181539834Y-77555307D01*
X181277021Y-77146883D01*
X180876014Y-76872886D01*
X180400000Y-76776491D01*
X176800000Y-76776491D01*
X176355307Y-76860166D01*
X175946883Y-77122979D01*
X175672886Y-77523986D01*
X175576491Y-78000000D01*
X173775000Y-78000000D01*
X173775000Y-73820000D01*
X175541227Y-73820000D01*
X175701080Y-74623635D01*
X176156303Y-75304924D01*
X176837592Y-75760147D01*
X177641227Y-75920000D01*
X179558773Y-75920000D01*
X180362408Y-75760147D01*
X181043697Y-75304924D01*
X181498920Y-74623635D01*
X181641374Y-73907466D01*
X186733955Y-73907466D01*
X186763750Y-74371681D01*
X187574116Y-74702300D01*
X188449318Y-74697638D01*
X189236250Y-74371681D01*
X189266045Y-73907466D01*
X194733955Y-73907466D01*
X194763750Y-74371681D01*
X195574116Y-74702300D01*
X196360868Y-74698109D01*
X196300818Y-75000000D01*
X196453059Y-75765367D01*
X196886604Y-76414214D01*
X197379593Y-76743618D01*
X197278014Y-76785590D01*
X196377054Y-77684979D01*
X195888856Y-78860688D01*
X195887745Y-80133727D01*
X196373890Y-81310286D01*
X197273279Y-82211246D01*
X198448988Y-82699444D01*
X199722027Y-82700555D01*
X200898586Y-82214410D01*
X201799546Y-81315021D01*
X202287744Y-80139312D01*
X202287748Y-80133727D01*
X202711145Y-80133727D01*
X203197290Y-81310286D01*
X204096679Y-82211246D01*
X205272388Y-82699444D01*
X206545427Y-82700555D01*
X207721986Y-82214410D01*
X208622946Y-81315021D01*
X209111144Y-80139312D01*
X209111195Y-80080000D01*
X222941227Y-80080000D01*
X223101080Y-80883635D01*
X223556303Y-81564924D01*
X224237592Y-82020147D01*
X225041227Y-82180000D01*
X226958773Y-82180000D01*
X227762408Y-82020147D01*
X228443697Y-81564924D01*
X228898920Y-80883635D01*
X229058773Y-80080000D01*
X228898920Y-79276365D01*
X228443697Y-78595076D01*
X227762408Y-78139853D01*
X226958773Y-77980000D01*
X225041227Y-77980000D01*
X224237592Y-78139853D01*
X223556303Y-78595076D01*
X223101080Y-79276365D01*
X222941227Y-80080000D01*
X209111195Y-80080000D01*
X209112255Y-78866273D01*
X208626110Y-77689714D01*
X207821724Y-76883923D01*
X208100430Y-76999652D01*
X208896079Y-77000346D01*
X209631429Y-76696506D01*
X209853026Y-76475295D01*
X214599584Y-76475295D01*
X214964192Y-77357715D01*
X215638734Y-78033435D01*
X216520516Y-78399583D01*
X217475295Y-78400416D01*
X218357715Y-78035808D01*
X219033435Y-77361266D01*
X219399583Y-76479484D01*
X219400416Y-75524705D01*
X219035808Y-74642285D01*
X218494469Y-74100000D01*
X222976491Y-74100000D01*
X222976491Y-75900000D01*
X223060166Y-76344693D01*
X223322979Y-76753117D01*
X223723986Y-77027114D01*
X224200000Y-77123509D01*
X227800000Y-77123509D01*
X228244693Y-77039834D01*
X228653117Y-76777021D01*
X228927114Y-76376014D01*
X229023509Y-75900000D01*
X229023509Y-74100000D01*
X228939834Y-73655307D01*
X228677021Y-73246883D01*
X228276014Y-72972886D01*
X227800000Y-72876491D01*
X224200000Y-72876491D01*
X223755307Y-72960166D01*
X223346883Y-73222979D01*
X223072886Y-73623986D01*
X222976491Y-74100000D01*
X218494469Y-74100000D01*
X218361266Y-73966565D01*
X217479484Y-73600417D01*
X216524705Y-73599584D01*
X215642285Y-73964192D01*
X214966565Y-74638734D01*
X214600417Y-75520516D01*
X214599584Y-76475295D01*
X209853026Y-76475295D01*
X210194529Y-76134388D01*
X210499652Y-75399570D01*
X210500346Y-74603921D01*
X210196506Y-73868571D01*
X209634388Y-73305471D01*
X208899570Y-73000348D01*
X208103921Y-72999654D01*
X207368571Y-73303494D01*
X206805471Y-73865612D01*
X206500348Y-74600430D01*
X206499654Y-75396079D01*
X206803494Y-76131429D01*
X207270608Y-76599359D01*
X206551012Y-76300556D01*
X205277973Y-76299445D01*
X204101414Y-76785590D01*
X203200454Y-77684979D01*
X202712256Y-78860688D01*
X202711145Y-80133727D01*
X202287748Y-80133727D01*
X202288855Y-78866273D01*
X201802710Y-77689714D01*
X200903321Y-76788754D01*
X199838558Y-76346625D01*
X200226941Y-75765367D01*
X200379182Y-75000000D01*
X200226941Y-74234633D01*
X199793396Y-73585786D01*
X199144549Y-73152241D01*
X198379182Y-73000000D01*
X198300818Y-73000000D01*
X198160690Y-73027873D01*
X198202300Y-72925884D01*
X198197638Y-72050682D01*
X197871681Y-71263750D01*
X197407466Y-71233955D01*
X196141421Y-72500000D01*
X196155564Y-72514143D01*
X196014143Y-72655564D01*
X196000000Y-72641421D01*
X194733955Y-73907466D01*
X189266045Y-73907466D01*
X188000000Y-72641421D01*
X186733955Y-73907466D01*
X181641374Y-73907466D01*
X181658773Y-73820000D01*
X181498920Y-73016365D01*
X181043697Y-72335076D01*
X180653143Y-72074116D01*
X185797700Y-72074116D01*
X185802362Y-72949318D01*
X186128319Y-73736250D01*
X186592534Y-73766045D01*
X187858579Y-72500000D01*
X188141421Y-72500000D01*
X189407466Y-73766045D01*
X189871681Y-73736250D01*
X190202300Y-72925884D01*
X190197763Y-72074116D01*
X193797700Y-72074116D01*
X193802362Y-72949318D01*
X194128319Y-73736250D01*
X194592534Y-73766045D01*
X195858579Y-72500000D01*
X194592534Y-71233955D01*
X194128319Y-71263750D01*
X193797700Y-72074116D01*
X190197763Y-72074116D01*
X190197638Y-72050682D01*
X189871681Y-71263750D01*
X189407466Y-71233955D01*
X188141421Y-72500000D01*
X187858579Y-72500000D01*
X186592534Y-71233955D01*
X186128319Y-71263750D01*
X185797700Y-72074116D01*
X180653143Y-72074116D01*
X180362408Y-71879853D01*
X179558773Y-71720000D01*
X177641227Y-71720000D01*
X176837592Y-71879853D01*
X176156303Y-72335076D01*
X175701080Y-73016365D01*
X175541227Y-73820000D01*
X173775000Y-73820000D01*
X173775000Y-71092534D01*
X186733955Y-71092534D01*
X188000000Y-72358579D01*
X189266045Y-71092534D01*
X194733955Y-71092534D01*
X196000000Y-72358579D01*
X197266045Y-71092534D01*
X197236250Y-70628319D01*
X196425884Y-70297700D01*
X195550682Y-70302362D01*
X194763750Y-70628319D01*
X194733955Y-71092534D01*
X189266045Y-71092534D01*
X189236250Y-70628319D01*
X188425884Y-70297700D01*
X187550682Y-70302362D01*
X186763750Y-70628319D01*
X186733955Y-71092534D01*
X173775000Y-71092534D01*
X173775000Y-70289909D01*
X173810556Y-70325527D01*
X174710591Y-70699254D01*
X175685134Y-70700104D01*
X176585819Y-70327949D01*
X176932340Y-69982032D01*
X178769389Y-69982032D01*
X178854035Y-70492913D01*
X179826996Y-70898490D01*
X180881101Y-70900857D01*
X181855873Y-70499656D01*
X181865965Y-70492913D01*
X181950611Y-69982032D01*
X180360000Y-68391421D01*
X178769389Y-69982032D01*
X176932340Y-69982032D01*
X177275527Y-69639444D01*
X177649254Y-68739409D01*
X177650104Y-67764866D01*
X177292675Y-66899820D01*
X178051872Y-66900483D01*
X177711510Y-67716996D01*
X177709143Y-68771101D01*
X178110344Y-69745873D01*
X178117087Y-69755965D01*
X178627968Y-69840611D01*
X180218579Y-68250000D01*
X180501421Y-68250000D01*
X182092032Y-69840611D01*
X182602913Y-69755965D01*
X183001064Y-68800818D01*
X190000000Y-68800818D01*
X190000000Y-68879182D01*
X190152241Y-69644549D01*
X190585786Y-70293396D01*
X191234633Y-70726941D01*
X192000000Y-70879182D01*
X192765367Y-70726941D01*
X193414214Y-70293396D01*
X193847759Y-69644549D01*
X194000000Y-68879182D01*
X194000000Y-68800818D01*
X193874949Y-68172144D01*
X202776491Y-68172144D01*
X202776491Y-70172144D01*
X202860166Y-70616837D01*
X203122979Y-71025261D01*
X203523986Y-71299258D01*
X204000000Y-71395653D01*
X206000000Y-71395653D01*
X206444693Y-71311978D01*
X206853117Y-71049165D01*
X207075629Y-70723509D01*
X208000000Y-70723509D01*
X208444693Y-70639834D01*
X208853117Y-70377021D01*
X209127114Y-69976014D01*
X209220491Y-69514903D01*
X221899550Y-69514903D01*
X222294542Y-70470858D01*
X223025295Y-71202887D01*
X223980559Y-71599548D01*
X225014903Y-71600450D01*
X225970858Y-71205458D01*
X226702887Y-70474705D01*
X227099548Y-69519441D01*
X227100450Y-68485097D01*
X226705458Y-67529142D01*
X225974705Y-66797113D01*
X225019441Y-66400452D01*
X223985097Y-66399550D01*
X223029142Y-66794542D01*
X222297113Y-67525295D01*
X221900452Y-68480559D01*
X221899550Y-69514903D01*
X209220491Y-69514903D01*
X209223509Y-69500000D01*
X209223509Y-67500000D01*
X209139834Y-67055307D01*
X208877021Y-66646883D01*
X208476014Y-66372886D01*
X208000000Y-66276491D01*
X206000000Y-66276491D01*
X205555307Y-66360166D01*
X205146883Y-66622979D01*
X204924371Y-66948635D01*
X204000000Y-66948635D01*
X203555307Y-67032310D01*
X203146883Y-67295123D01*
X202872886Y-67696130D01*
X202776491Y-68172144D01*
X193874949Y-68172144D01*
X193847759Y-68035451D01*
X193414214Y-67386604D01*
X192765367Y-66953059D01*
X192000000Y-66800818D01*
X191234633Y-66953059D01*
X190585786Y-67386604D01*
X190152241Y-68035451D01*
X190000000Y-68800818D01*
X183001064Y-68800818D01*
X183008490Y-68783004D01*
X183010857Y-67728899D01*
X182609656Y-66754127D01*
X182602913Y-66744035D01*
X182092032Y-66659389D01*
X180501421Y-68250000D01*
X180218579Y-68250000D01*
X180204437Y-68235858D01*
X180345858Y-68094437D01*
X180360000Y-68108579D01*
X181950611Y-66517968D01*
X181865965Y-66007087D01*
X180893004Y-65601510D01*
X180621659Y-65600901D01*
X181227963Y-64995654D01*
X181899234Y-63379054D01*
X181900175Y-62300818D01*
X186000000Y-62300818D01*
X186000000Y-62379182D01*
X186152241Y-63144549D01*
X186585786Y-63793396D01*
X187234633Y-64226941D01*
X188000000Y-64379182D01*
X188765367Y-64226941D01*
X189414214Y-63793396D01*
X189847759Y-63144549D01*
X190000000Y-62379182D01*
X190000000Y-62300818D01*
X194000000Y-62300818D01*
X194000000Y-62379182D01*
X194152241Y-63144549D01*
X194585786Y-63793396D01*
X195234633Y-64226941D01*
X196000000Y-64379182D01*
X196765367Y-64226941D01*
X197414214Y-63793396D01*
X197847759Y-63144549D01*
X197871246Y-63026469D01*
X204599235Y-63026469D01*
X204600770Y-63981248D01*
X204963195Y-64856219D01*
X205448160Y-64910419D01*
X206732193Y-63626386D01*
X206815035Y-63826386D01*
X205589581Y-65051840D01*
X205643781Y-65536805D01*
X206526469Y-65900765D01*
X207481248Y-65899230D01*
X208356219Y-65536805D01*
X208396644Y-65175090D01*
X208526469Y-65228621D01*
X208587100Y-65228524D01*
X208654050Y-65295474D01*
X208721216Y-65228308D01*
X209481248Y-65227086D01*
X210356219Y-64864661D01*
X210410419Y-64379696D01*
X209399793Y-63369070D01*
X209399338Y-63085773D01*
X210551840Y-64238275D01*
X211036805Y-64184075D01*
X211400765Y-63301387D01*
X211399230Y-62346608D01*
X211036805Y-61471637D01*
X210551840Y-61417437D01*
X209267807Y-62701470D01*
X209184965Y-62501470D01*
X210410419Y-61276016D01*
X210409210Y-61265198D01*
X214449549Y-61265198D01*
X214837021Y-62202757D01*
X215553787Y-62920670D01*
X216490726Y-63309641D01*
X216494803Y-63310446D01*
X216900000Y-63007777D01*
X216900000Y-60860000D01*
X217100000Y-60860000D01*
X217100000Y-63007777D01*
X217505197Y-63310446D01*
X217509274Y-63309641D01*
X218123821Y-63054511D01*
X224699515Y-63054511D01*
X225124892Y-64084000D01*
X225911857Y-64872340D01*
X226940602Y-65299513D01*
X228054511Y-65300485D01*
X229084000Y-64875108D01*
X229872340Y-64088143D01*
X230299513Y-63059398D01*
X230300485Y-61945489D01*
X229875108Y-60916000D01*
X229088143Y-60127660D01*
X228059398Y-59700487D01*
X226945489Y-59699515D01*
X225916000Y-60124892D01*
X225127660Y-60911857D01*
X224700487Y-61940602D01*
X224699515Y-63054511D01*
X218123821Y-63054511D01*
X218446213Y-62920670D01*
X219162979Y-62202757D01*
X219550451Y-61265198D01*
X219248081Y-60860000D01*
X217100000Y-60860000D01*
X216900000Y-60860000D01*
X214751919Y-60860000D01*
X214449549Y-61265198D01*
X210409210Y-61265198D01*
X210356219Y-60791051D01*
X209473531Y-60427091D01*
X208518752Y-60428626D01*
X207643781Y-60791051D01*
X207603356Y-61152766D01*
X207473531Y-61099235D01*
X207412900Y-61099332D01*
X207345950Y-61032382D01*
X207278784Y-61099548D01*
X206518752Y-61100770D01*
X205643781Y-61463195D01*
X205589581Y-61948160D01*
X206600207Y-62958786D01*
X206600662Y-63242083D01*
X205448160Y-62089581D01*
X204963195Y-62143781D01*
X204599235Y-63026469D01*
X197871246Y-63026469D01*
X198000000Y-62379182D01*
X198000000Y-62300818D01*
X197847759Y-61535451D01*
X197414214Y-60886604D01*
X196765367Y-60453059D01*
X196000000Y-60300818D01*
X195234633Y-60453059D01*
X194585786Y-60886604D01*
X194152241Y-61535451D01*
X194000000Y-62300818D01*
X190000000Y-62300818D01*
X189847759Y-61535451D01*
X189414214Y-60886604D01*
X188765367Y-60453059D01*
X188000000Y-60300818D01*
X187234633Y-60453059D01*
X186585786Y-60886604D01*
X186152241Y-61535451D01*
X186000000Y-62300818D01*
X181900175Y-62300818D01*
X181900762Y-61628626D01*
X181232313Y-60010856D01*
X179998612Y-58775000D01*
X215378398Y-58775000D01*
X214837021Y-59317243D01*
X214837021Y-59317243D01*
G37*
X214837021Y-59317243D02*
X214449549Y-60254802D01*
X214751919Y-60660000D01*
X216900000Y-60660000D01*
X216900000Y-60640000D01*
X217100000Y-60640000D01*
X217100000Y-60660000D01*
X219248081Y-60660000D01*
X219550451Y-60254802D01*
X219162979Y-59317243D01*
X218621602Y-58775000D01*
X231225000Y-58775000D01*
X231225000Y-146225000D01*
X173775000Y-146225000D01*
X173775000Y-143054511D01*
X174699515Y-143054511D01*
X175124892Y-144084000D01*
X175911857Y-144872340D01*
X176940602Y-145299513D01*
X178054511Y-145300485D01*
X179084000Y-144875108D01*
X179872340Y-144088143D01*
X180299513Y-143059398D01*
X180299988Y-142514903D01*
X185399550Y-142514903D01*
X185794542Y-143470858D01*
X186525295Y-144202887D01*
X187480559Y-144599548D01*
X188514903Y-144600450D01*
X189470858Y-144205458D01*
X189977199Y-143700000D01*
X190999995Y-143700000D01*
X191000000Y-143700001D01*
X191650562Y-143570595D01*
X192202082Y-143202082D01*
X193207981Y-142196182D01*
X198445240Y-142196182D01*
X198523830Y-142701905D01*
X199478829Y-143099201D01*
X200513172Y-143100792D01*
X201469389Y-142706436D01*
X201476170Y-142701905D01*
X201554760Y-142196182D01*
X200000000Y-140641421D01*
X198445240Y-142196182D01*
X193207981Y-142196182D01*
X194390991Y-141013172D01*
X197399208Y-141013172D01*
X197793564Y-141969389D01*
X197798095Y-141976170D01*
X198303818Y-142054760D01*
X199858579Y-140500000D01*
X200141421Y-140500000D01*
X201696182Y-142054760D01*
X202201905Y-141976170D01*
X202599201Y-141021171D01*
X202600792Y-139986828D01*
X202206436Y-139030611D01*
X202201905Y-139023830D01*
X201696182Y-138945240D01*
X200141421Y-140500000D01*
X199858579Y-140500000D01*
X198303818Y-138945240D01*
X197798095Y-139023830D01*
X197400799Y-139978829D01*
X197399208Y-141013172D01*
X194390991Y-141013172D01*
X196600345Y-138803818D01*
X198445240Y-138803818D01*
X200000000Y-140358579D01*
X201554760Y-138803818D01*
X201476170Y-138298095D01*
X200521171Y-137900799D01*
X199486828Y-137899208D01*
X198530611Y-138293564D01*
X198523830Y-138298095D01*
X198445240Y-138803818D01*
X196600345Y-138803818D01*
X198418966Y-136985197D01*
X213549576Y-136985197D01*
X213921780Y-137886000D01*
X214610375Y-138575798D01*
X215095124Y-138777083D01*
X214642285Y-138964192D01*
X213966565Y-139638734D01*
X213600417Y-140520516D01*
X213599584Y-141475295D01*
X213964192Y-142357715D01*
X214638734Y-143033435D01*
X215520516Y-143399583D01*
X216475295Y-143400416D01*
X217357715Y-143035808D01*
X218033435Y-142361266D01*
X218399583Y-141479484D01*
X218400416Y-140524705D01*
X218035808Y-139642285D01*
X217361266Y-138966565D01*
X216904829Y-138777036D01*
X217386000Y-138578220D01*
X218075798Y-137889625D01*
X218449573Y-136989473D01*
X218449576Y-136985197D01*
X219049576Y-136985197D01*
X219421780Y-137886000D01*
X220110375Y-138575798D01*
X220595124Y-138777083D01*
X220142285Y-138964192D01*
X219466565Y-139638734D01*
X219100417Y-140520516D01*
X219099584Y-141475295D01*
X219464192Y-142357715D01*
X220138734Y-143033435D01*
X221020516Y-143399583D01*
X221975295Y-143400416D01*
X222812450Y-143054511D01*
X224699515Y-143054511D01*
X225124892Y-144084000D01*
X225911857Y-144872340D01*
X226940602Y-145299513D01*
X228054511Y-145300485D01*
X229084000Y-144875108D01*
X229872340Y-144088143D01*
X230299513Y-143059398D01*
X230300485Y-141945489D01*
X229875108Y-140916000D01*
X229088143Y-140127660D01*
X228059398Y-139700487D01*
X226945489Y-139699515D01*
X225916000Y-140124892D01*
X225127660Y-140911857D01*
X224700487Y-141940602D01*
X224699515Y-143054511D01*
X222812450Y-143054511D01*
X222857715Y-143035808D01*
X223533435Y-142361266D01*
X223899583Y-141479484D01*
X223900416Y-140524705D01*
X223535808Y-139642285D01*
X222861266Y-138966565D01*
X222404829Y-138777036D01*
X222886000Y-138578220D01*
X223575798Y-137889625D01*
X223949573Y-136989473D01*
X223950424Y-136014803D01*
X223578220Y-135114000D01*
X222889625Y-134424202D01*
X221989473Y-134050427D01*
X221014803Y-134049576D01*
X220114000Y-134421780D01*
X219424202Y-135110375D01*
X219050427Y-136010527D01*
X219049576Y-136985197D01*
X218449576Y-136985197D01*
X218450424Y-136014803D01*
X218078220Y-135114000D01*
X217389625Y-134424202D01*
X216489473Y-134050427D01*
X215514803Y-134049576D01*
X214614000Y-134421780D01*
X213924202Y-135110375D01*
X213550427Y-136010527D01*
X213549576Y-136985197D01*
X198418966Y-136985197D01*
X199980654Y-135423509D01*
X201200000Y-135423509D01*
X201285260Y-135407466D01*
X209733955Y-135407466D01*
X209763750Y-135871681D01*
X210574116Y-136202300D01*
X211449318Y-136197638D01*
X212236250Y-135871681D01*
X212266045Y-135407466D01*
X211000000Y-134141421D01*
X209733955Y-135407466D01*
X201285260Y-135407466D01*
X201644693Y-135339834D01*
X202053117Y-135077021D01*
X202327114Y-134676014D01*
X202423509Y-134200000D01*
X202423509Y-133574116D01*
X208797700Y-133574116D01*
X208802362Y-134449318D01*
X209128319Y-135236250D01*
X209592534Y-135266045D01*
X210858579Y-134000000D01*
X211141421Y-134000000D01*
X212407466Y-135266045D01*
X212871681Y-135236250D01*
X213202300Y-134425884D01*
X213197638Y-133550682D01*
X212871681Y-132763750D01*
X212407466Y-132733955D01*
X211141421Y-134000000D01*
X210858579Y-134000000D01*
X209592534Y-132733955D01*
X209128319Y-132763750D01*
X208797700Y-133574116D01*
X202423509Y-133574116D01*
X202423509Y-132592534D01*
X209733955Y-132592534D01*
X211000000Y-133858579D01*
X212266045Y-132592534D01*
X212236250Y-132128319D01*
X211425884Y-131797700D01*
X210550682Y-131802362D01*
X209763750Y-132128319D01*
X209733955Y-132592534D01*
X202423509Y-132592534D01*
X202423509Y-131800000D01*
X202339834Y-131355307D01*
X202077021Y-130946883D01*
X201676014Y-130672886D01*
X201200000Y-130576491D01*
X198800000Y-130576491D01*
X198355307Y-130660166D01*
X197946883Y-130922979D01*
X197672886Y-131323986D01*
X197576491Y-131800000D01*
X197576491Y-133019346D01*
X190295836Y-140300000D01*
X189976715Y-140300000D01*
X189474705Y-139797113D01*
X188519441Y-139400452D01*
X187485097Y-139399550D01*
X186529142Y-139794542D01*
X185797113Y-140525295D01*
X185400452Y-141480559D01*
X185399550Y-142514903D01*
X180299988Y-142514903D01*
X180300485Y-141945489D01*
X179875108Y-140916000D01*
X179088143Y-140127660D01*
X178059398Y-139700487D01*
X176945489Y-139699515D01*
X175916000Y-140124892D01*
X175127660Y-140911857D01*
X174700487Y-141940602D01*
X174699515Y-143054511D01*
X173775000Y-143054511D01*
X173775000Y-134196182D01*
X181445240Y-134196182D01*
X181523830Y-134701905D01*
X182478829Y-135099201D01*
X183513172Y-135100792D01*
X184469389Y-134706436D01*
X184476170Y-134701905D01*
X184554760Y-134196182D01*
X183000000Y-132641421D01*
X181445240Y-134196182D01*
X173775000Y-134196182D01*
X173775000Y-133013172D01*
X180399208Y-133013172D01*
X180793564Y-133969389D01*
X180798095Y-133976170D01*
X181303818Y-134054760D01*
X182858579Y-132500000D01*
X183141421Y-132500000D01*
X184696182Y-134054760D01*
X185201905Y-133976170D01*
X185599201Y-133021171D01*
X185600792Y-131986828D01*
X185206436Y-131030611D01*
X185201905Y-131023830D01*
X184696182Y-130945240D01*
X183141421Y-132500000D01*
X182858579Y-132500000D01*
X181303818Y-130945240D01*
X180798095Y-131023830D01*
X180400799Y-131978829D01*
X180399208Y-133013172D01*
X173775000Y-133013172D01*
X173775000Y-130803818D01*
X181445240Y-130803818D01*
X183000000Y-132358579D01*
X184554760Y-130803818D01*
X184476170Y-130298095D01*
X183521171Y-129900799D01*
X182486828Y-129899208D01*
X181530611Y-130293564D01*
X181523830Y-130298095D01*
X181445240Y-130803818D01*
X173775000Y-130803818D01*
X173775000Y-123800000D01*
X180576491Y-123800000D01*
X180576491Y-126200000D01*
X180660166Y-126644693D01*
X180922979Y-127053117D01*
X181323986Y-127327114D01*
X181800000Y-127423509D01*
X184200000Y-127423509D01*
X184644693Y-127339834D01*
X185053117Y-127077021D01*
X185327114Y-126676014D01*
X185423509Y-126200000D01*
X185423509Y-123800000D01*
X185339834Y-123355307D01*
X185077021Y-122946883D01*
X184676014Y-122672886D01*
X184200000Y-122576491D01*
X181800000Y-122576491D01*
X181355307Y-122660166D01*
X180946883Y-122922979D01*
X180672886Y-123323986D01*
X180576491Y-123800000D01*
X173775000Y-123800000D01*
X173775000Y-115196182D01*
X181445240Y-115196182D01*
X181523830Y-115701905D01*
X182478829Y-116099201D01*
X183513172Y-116100792D01*
X184469389Y-115706436D01*
X184476170Y-115701905D01*
X184523695Y-115396079D01*
X191999654Y-115396079D01*
X192303494Y-116131429D01*
X192865612Y-116694529D01*
X193600430Y-116999652D01*
X194396079Y-117000346D01*
X195131429Y-116696506D01*
X195694529Y-116134388D01*
X195999652Y-115399570D01*
X196000346Y-114603921D01*
X195696506Y-113868571D01*
X195134388Y-113305471D01*
X194399570Y-113000348D01*
X193603921Y-112999654D01*
X192868571Y-113303494D01*
X192305471Y-113865612D01*
X192000348Y-114600430D01*
X191999654Y-115396079D01*
X184523695Y-115396079D01*
X184554760Y-115196182D01*
X183000000Y-113641421D01*
X181445240Y-115196182D01*
X173775000Y-115196182D01*
X173775000Y-114013172D01*
X180399208Y-114013172D01*
X180793564Y-114969389D01*
X180798095Y-114976170D01*
X181303818Y-115054760D01*
X182858579Y-113500000D01*
X183141421Y-113500000D01*
X184696182Y-115054760D01*
X185201905Y-114976170D01*
X185599201Y-114021171D01*
X185600792Y-112986828D01*
X185206436Y-112030611D01*
X185201905Y-112023830D01*
X184696182Y-111945240D01*
X183141421Y-113500000D01*
X182858579Y-113500000D01*
X181303818Y-111945240D01*
X180798095Y-112023830D01*
X180400799Y-112978829D01*
X180399208Y-114013172D01*
X173775000Y-114013172D01*
X173775000Y-111803818D01*
X181445240Y-111803818D01*
X183000000Y-113358579D01*
X184554760Y-111803818D01*
X184476170Y-111298095D01*
X183521171Y-110900799D01*
X182486828Y-110899208D01*
X181530611Y-111293564D01*
X181523830Y-111298095D01*
X181445240Y-111803818D01*
X173775000Y-111803818D01*
X173775000Y-104800000D01*
X180576491Y-104800000D01*
X180576491Y-107200000D01*
X180660166Y-107644693D01*
X180922979Y-108053117D01*
X181323986Y-108327114D01*
X181800000Y-108423509D01*
X183019345Y-108423509D01*
X184797916Y-110202079D01*
X184797918Y-110202082D01*
X185349438Y-110570595D01*
X185457374Y-110592065D01*
X186000000Y-110700001D01*
X186000005Y-110700000D01*
X198295836Y-110700000D01*
X200300000Y-112704163D01*
X200300000Y-114134314D01*
X200152241Y-114355451D01*
X200000000Y-115120818D01*
X200000000Y-115199182D01*
X200152241Y-115964549D01*
X200585786Y-116613396D01*
X201234633Y-117046941D01*
X202000000Y-117199182D01*
X202154601Y-117168430D01*
X202102941Y-117220000D01*
X198677915Y-117220000D01*
X198365607Y-117090318D01*
X197637587Y-117089683D01*
X196964742Y-117367697D01*
X196449506Y-117882035D01*
X196170318Y-118554393D01*
X196169683Y-119282413D01*
X196414467Y-119874834D01*
X195825607Y-119630318D01*
X195097587Y-119629683D01*
X194424742Y-119907697D01*
X193909506Y-120422035D01*
X193630318Y-121094393D01*
X193629683Y-121822413D01*
X193907697Y-122495258D01*
X194422035Y-123010494D01*
X194737197Y-123141361D01*
X196318560Y-124722724D01*
X196447697Y-125035258D01*
X196962035Y-125550494D01*
X197634393Y-125829682D01*
X198362413Y-125830317D01*
X198677804Y-125700000D01*
X210194313Y-125700000D01*
X210234633Y-125726941D01*
X211000000Y-125879182D01*
X211765367Y-125726941D01*
X212414214Y-125293396D01*
X212847759Y-124644549D01*
X212909374Y-124334790D01*
X213730124Y-123514039D01*
X213752173Y-123536126D01*
X214534710Y-123861064D01*
X214302944Y-124015925D01*
X213782689Y-124794541D01*
X213600000Y-125712981D01*
X213600000Y-125807019D01*
X213782689Y-126725459D01*
X214302944Y-127504075D01*
X214808072Y-127841591D01*
X214614000Y-127921780D01*
X213924202Y-128610375D01*
X213550427Y-129510527D01*
X213549576Y-130485197D01*
X213921780Y-131386000D01*
X214610375Y-132075798D01*
X215510527Y-132449573D01*
X216485197Y-132450424D01*
X217386000Y-132078220D01*
X218075798Y-131389625D01*
X218449573Y-130489473D01*
X218450424Y-129514803D01*
X218078220Y-128614000D01*
X217389625Y-127924202D01*
X217191448Y-127841912D01*
X217697056Y-127504075D01*
X218217311Y-126725459D01*
X218226897Y-126677267D01*
X219100000Y-125804164D01*
X219100000Y-125807019D01*
X219282689Y-126725459D01*
X219802944Y-127504075D01*
X220308072Y-127841591D01*
X220114000Y-127921780D01*
X219424202Y-128610375D01*
X219050427Y-129510527D01*
X219049576Y-130485197D01*
X219421780Y-131386000D01*
X220110375Y-132075798D01*
X221010527Y-132449573D01*
X221985197Y-132450424D01*
X222886000Y-132078220D01*
X223480059Y-131485197D01*
X224549576Y-131485197D01*
X224921780Y-132386000D01*
X225610375Y-133075798D01*
X225808552Y-133158088D01*
X225302944Y-133495925D01*
X224782689Y-134274541D01*
X224600000Y-135192981D01*
X224600000Y-135287019D01*
X224782689Y-136205459D01*
X225302944Y-136984075D01*
X226081560Y-137504330D01*
X227000000Y-137687019D01*
X227918440Y-137504330D01*
X228697056Y-136984075D01*
X229217311Y-136205459D01*
X229400000Y-135287019D01*
X229400000Y-135192981D01*
X229217311Y-134274541D01*
X228697056Y-133495925D01*
X228191928Y-133158409D01*
X228386000Y-133078220D01*
X229075798Y-132389625D01*
X229449573Y-131489473D01*
X229450424Y-130514803D01*
X229078220Y-129614000D01*
X228389625Y-128924202D01*
X227489473Y-128550427D01*
X226514803Y-128549576D01*
X225614000Y-128921780D01*
X224924202Y-129610375D01*
X224550427Y-130510527D01*
X224549576Y-131485197D01*
X223480059Y-131485197D01*
X223575798Y-131389625D01*
X223949573Y-130489473D01*
X223950424Y-129514803D01*
X223578220Y-128614000D01*
X222889625Y-127924202D01*
X222691448Y-127841912D01*
X223197056Y-127504075D01*
X223717311Y-126725459D01*
X223900000Y-125807019D01*
X223900000Y-125764164D01*
X224733598Y-124930565D01*
X224921780Y-125386000D01*
X225610375Y-126075798D01*
X226510527Y-126449573D01*
X227485197Y-126450424D01*
X228386000Y-126078220D01*
X229075798Y-125389625D01*
X229449573Y-124489473D01*
X229450424Y-123514803D01*
X229078220Y-122614000D01*
X228429501Y-121964147D01*
X229033435Y-121361266D01*
X229399583Y-120479484D01*
X229400416Y-119524705D01*
X229035808Y-118642285D01*
X228361266Y-117966565D01*
X227479484Y-117600417D01*
X227270134Y-117600234D01*
X227570595Y-117150562D01*
X227600613Y-116999652D01*
X227700001Y-116500000D01*
X227700000Y-116499995D01*
X227700000Y-116032561D01*
X227762408Y-116020147D01*
X228443697Y-115564924D01*
X228898920Y-114883635D01*
X229058773Y-114080000D01*
X228898920Y-113276365D01*
X228443697Y-112595076D01*
X227762408Y-112139853D01*
X226958773Y-111980000D01*
X225041227Y-111980000D01*
X224237592Y-112139853D01*
X223556303Y-112595076D01*
X223101080Y-113276365D01*
X222941227Y-114080000D01*
X223101080Y-114883635D01*
X223556303Y-115564924D01*
X224140539Y-115955298D01*
X219200092Y-120895744D01*
X219200381Y-120564313D01*
X218866157Y-119755428D01*
X218247827Y-119136018D01*
X217439527Y-118800382D01*
X216564313Y-118799619D01*
X215755428Y-119133843D01*
X215416174Y-119472506D01*
X214867856Y-119472028D01*
X214867856Y-117456644D01*
X215122979Y-117853117D01*
X215523986Y-118127114D01*
X216000000Y-118223509D01*
X218000000Y-118223509D01*
X218444693Y-118139834D01*
X218853117Y-117877021D01*
X219075629Y-117551365D01*
X220000000Y-117551365D01*
X220444693Y-117467690D01*
X220853117Y-117204877D01*
X221127114Y-116803870D01*
X221223509Y-116327856D01*
X221223509Y-114327856D01*
X221139834Y-113883163D01*
X220877021Y-113474739D01*
X220476014Y-113200742D01*
X220000000Y-113104347D01*
X218000000Y-113104347D01*
X217555307Y-113188022D01*
X217146883Y-113450835D01*
X216924371Y-113776491D01*
X216000000Y-113776491D01*
X215555307Y-113860166D01*
X215146883Y-114122979D01*
X214872886Y-114523986D01*
X214867856Y-114548825D01*
X214867856Y-112805412D01*
X215131429Y-112696506D01*
X215694529Y-112134388D01*
X215999652Y-111399570D01*
X216000346Y-110603921D01*
X215707873Y-109896079D01*
X216499654Y-109896079D01*
X216803494Y-110631429D01*
X217365612Y-111194529D01*
X218100430Y-111499652D01*
X218896079Y-111500346D01*
X219631429Y-111196506D01*
X220194529Y-110634388D01*
X220499652Y-109899570D01*
X220500346Y-109103921D01*
X220196506Y-108368571D01*
X219928404Y-108100000D01*
X222976491Y-108100000D01*
X222976491Y-109900000D01*
X223060166Y-110344693D01*
X223322979Y-110753117D01*
X223723986Y-111027114D01*
X224200000Y-111123509D01*
X227800000Y-111123509D01*
X228244693Y-111039834D01*
X228653117Y-110777021D01*
X228927114Y-110376014D01*
X229023509Y-109900000D01*
X229023509Y-108100000D01*
X228939834Y-107655307D01*
X228677021Y-107246883D01*
X228276014Y-106972886D01*
X227800000Y-106876491D01*
X224200000Y-106876491D01*
X223755307Y-106960166D01*
X223346883Y-107222979D01*
X223072886Y-107623986D01*
X222976491Y-108100000D01*
X219928404Y-108100000D01*
X219634388Y-107805471D01*
X218899570Y-107500348D01*
X218103921Y-107499654D01*
X217368571Y-107803494D01*
X216805471Y-108365612D01*
X216500348Y-109100430D01*
X216499654Y-109896079D01*
X215707873Y-109896079D01*
X215696506Y-109868571D01*
X215134388Y-109305471D01*
X214399570Y-109000348D01*
X213603921Y-108999654D01*
X212868571Y-109303494D01*
X212305471Y-109865612D01*
X212003857Y-110591979D01*
X211965774Y-110630062D01*
X211597261Y-111181582D01*
X211467855Y-111832144D01*
X211467856Y-111832149D01*
X211467856Y-113786885D01*
X211414214Y-113706604D01*
X210765367Y-113273059D01*
X210455607Y-113211444D01*
X205542082Y-108297918D01*
X204990562Y-107929405D01*
X204340000Y-107799999D01*
X204339995Y-107800000D01*
X203204163Y-107800000D01*
X202402044Y-106997881D01*
X203131429Y-106696506D01*
X203694529Y-106134388D01*
X203999652Y-105399570D01*
X204000000Y-105000599D01*
X204000000Y-105029182D01*
X204152241Y-105794549D01*
X204585786Y-106443396D01*
X205234633Y-106876941D01*
X206000000Y-107029182D01*
X206765367Y-106876941D01*
X207414214Y-106443396D01*
X207847759Y-105794549D01*
X207999974Y-105029313D01*
X207999654Y-105396079D01*
X208303494Y-106131429D01*
X208865612Y-106694529D01*
X209600430Y-106999652D01*
X210396079Y-107000346D01*
X211131429Y-106696506D01*
X211694529Y-106134388D01*
X211999652Y-105399570D01*
X212000091Y-104896079D01*
X216499654Y-104896079D01*
X216803494Y-105631429D01*
X217365612Y-106194529D01*
X218100430Y-106499652D01*
X218896079Y-106500346D01*
X219631429Y-106196506D01*
X220194529Y-105634388D01*
X220499652Y-104899570D01*
X220500346Y-104103921D01*
X220196506Y-103368571D01*
X219634388Y-102805471D01*
X218899570Y-102500348D01*
X218103921Y-102499654D01*
X217368571Y-102803494D01*
X216805471Y-103365612D01*
X216500348Y-104100430D01*
X216499654Y-104896079D01*
X212000091Y-104896079D01*
X212000346Y-104603921D01*
X211696506Y-103868571D01*
X211134388Y-103305471D01*
X210399570Y-103000348D01*
X209603921Y-102999654D01*
X208868571Y-103303494D01*
X208305471Y-103865612D01*
X208000348Y-104600430D01*
X208000000Y-104999401D01*
X208000000Y-104950818D01*
X207847759Y-104185451D01*
X207414214Y-103536604D01*
X207233864Y-103416098D01*
X207721986Y-103214410D01*
X208622946Y-102315021D01*
X209111144Y-101139312D01*
X209112255Y-99866273D01*
X208626110Y-98689714D01*
X207726721Y-97788754D01*
X206551012Y-97300556D01*
X205277973Y-97299445D01*
X204101414Y-97785590D01*
X203200454Y-98684979D01*
X202712256Y-99860688D01*
X202711145Y-101133727D01*
X203197290Y-102310286D01*
X204096679Y-103211246D01*
X204698635Y-103461201D01*
X204585786Y-103536604D01*
X204152241Y-104185451D01*
X204000044Y-104950599D01*
X204000346Y-104603921D01*
X203696506Y-103868571D01*
X203134388Y-103305471D01*
X202399570Y-103000348D01*
X201603921Y-102999654D01*
X200868571Y-103303494D01*
X200305471Y-103865612D01*
X200001594Y-104597430D01*
X199104180Y-103700016D01*
X199722027Y-103700555D01*
X200898586Y-103214410D01*
X201799546Y-102315021D01*
X202287744Y-101139312D01*
X202288855Y-99866273D01*
X201802710Y-98689714D01*
X200903321Y-97788754D01*
X199727612Y-97300556D01*
X198454573Y-97299445D01*
X197278014Y-97785590D01*
X196377054Y-98684979D01*
X195888856Y-99860688D01*
X195887745Y-101133727D01*
X196373890Y-102310286D01*
X197202157Y-103140000D01*
X195045144Y-103140000D01*
X194765367Y-102953059D01*
X194000000Y-102800818D01*
X193234633Y-102953059D01*
X192585786Y-103386604D01*
X192152241Y-104035451D01*
X192000000Y-104800818D01*
X192000000Y-104879182D01*
X192152241Y-105644549D01*
X192585786Y-106293396D01*
X193234633Y-106726941D01*
X194000000Y-106879182D01*
X194765367Y-106726941D01*
X195045144Y-106540000D01*
X197135836Y-106540000D01*
X197895836Y-107300000D01*
X186704163Y-107300000D01*
X185423509Y-106019345D01*
X185423509Y-104800000D01*
X185339834Y-104355307D01*
X185077021Y-103946883D01*
X184676014Y-103672886D01*
X184200000Y-103576491D01*
X181800000Y-103576491D01*
X181355307Y-103660166D01*
X180946883Y-103922979D01*
X180672886Y-104323986D01*
X180576491Y-104800000D01*
X173775000Y-104800000D01*
X173775000Y-97514903D01*
X176399550Y-97514903D01*
X176794542Y-98470858D01*
X177525295Y-99202887D01*
X178480559Y-99599548D01*
X179514903Y-99600450D01*
X180470858Y-99205458D01*
X180715925Y-98960818D01*
X184000000Y-98960818D01*
X184000000Y-99039182D01*
X184152241Y-99804549D01*
X184585786Y-100453396D01*
X185234633Y-100886941D01*
X186000000Y-101039182D01*
X186765367Y-100886941D01*
X187414214Y-100453396D01*
X187847759Y-99804549D01*
X188000000Y-99039182D01*
X188000000Y-98960818D01*
X187847759Y-98195451D01*
X187414214Y-97546604D01*
X186780435Y-97123127D01*
X190367645Y-97123127D01*
X190853790Y-98299686D01*
X191753179Y-99200646D01*
X192928888Y-99688844D01*
X194201927Y-99689955D01*
X195378486Y-99203810D01*
X196279446Y-98304421D01*
X196767644Y-97128712D01*
X196767648Y-97123127D01*
X208231245Y-97123127D01*
X208717390Y-98299686D01*
X209616779Y-99200646D01*
X210792488Y-99688844D01*
X212065527Y-99689955D01*
X212504207Y-99508696D01*
X212152241Y-100035451D01*
X212000000Y-100800818D01*
X212000000Y-100879182D01*
X212152241Y-101644549D01*
X212585786Y-102293396D01*
X213234633Y-102726941D01*
X214000000Y-102879182D01*
X214765367Y-102726941D01*
X215414214Y-102293396D01*
X215449892Y-102240000D01*
X222941227Y-102240000D01*
X223101080Y-103043635D01*
X223556303Y-103724924D01*
X224237592Y-104180147D01*
X225041227Y-104340000D01*
X226958773Y-104340000D01*
X227762408Y-104180147D01*
X228443697Y-103724924D01*
X228898920Y-103043635D01*
X229058773Y-102240000D01*
X228898920Y-101436365D01*
X228443697Y-100755076D01*
X227762408Y-100299853D01*
X226958773Y-100140000D01*
X225041227Y-100140000D01*
X224237592Y-100299853D01*
X223556303Y-100755076D01*
X223101080Y-101436365D01*
X222941227Y-102240000D01*
X215449892Y-102240000D01*
X215847759Y-101644549D01*
X216000000Y-100879182D01*
X216000000Y-100800818D01*
X215847759Y-100035451D01*
X215414214Y-99386604D01*
X214765367Y-98953059D01*
X214000000Y-98800818D01*
X213557637Y-98888810D01*
X214143046Y-98304421D01*
X214427978Y-97618228D01*
X222846108Y-97618228D01*
X222936808Y-97947784D01*
X223402943Y-98715635D01*
X224127440Y-99246655D01*
X225000000Y-99460000D01*
X225900000Y-99460000D01*
X225900000Y-97260000D01*
X226100000Y-97260000D01*
X226100000Y-99460000D01*
X227000000Y-99460000D01*
X227872560Y-99246655D01*
X228597057Y-98715635D01*
X229063192Y-97947784D01*
X229153892Y-97618228D01*
X228847434Y-97260000D01*
X226100000Y-97260000D01*
X225900000Y-97260000D01*
X223152566Y-97260000D01*
X222846108Y-97618228D01*
X214427978Y-97618228D01*
X214631244Y-97128712D01*
X214631616Y-96701772D01*
X222846108Y-96701772D01*
X223152566Y-97060000D01*
X225900000Y-97060000D01*
X225900000Y-94860000D01*
X226100000Y-94860000D01*
X226100000Y-97060000D01*
X228847434Y-97060000D01*
X229153892Y-96701772D01*
X229063192Y-96372216D01*
X228597057Y-95604365D01*
X227872560Y-95073345D01*
X227000000Y-94860000D01*
X226100000Y-94860000D01*
X225900000Y-94860000D01*
X225000000Y-94860000D01*
X224127440Y-95073345D01*
X223402943Y-95604365D01*
X222936808Y-96372216D01*
X222846108Y-96701772D01*
X214631616Y-96701772D01*
X214632355Y-95855673D01*
X214146210Y-94679114D01*
X213246821Y-93778154D01*
X212071112Y-93289956D01*
X210798073Y-93288845D01*
X209621514Y-93774990D01*
X208720554Y-94674379D01*
X208232356Y-95850088D01*
X208231245Y-97123127D01*
X196767648Y-97123127D01*
X196768755Y-95855673D01*
X196282610Y-94679114D01*
X195383221Y-93778154D01*
X194207512Y-93289956D01*
X192934473Y-93288845D01*
X191757914Y-93774990D01*
X190856954Y-94674379D01*
X190368756Y-95850088D01*
X190367645Y-97123127D01*
X186780435Y-97123127D01*
X186765367Y-97113059D01*
X186000000Y-96960818D01*
X185234633Y-97113059D01*
X184585786Y-97546604D01*
X184152241Y-98195451D01*
X184000000Y-98960818D01*
X180715925Y-98960818D01*
X181202887Y-98474705D01*
X181599548Y-97519441D01*
X181600450Y-96485097D01*
X181205458Y-95529142D01*
X180474705Y-94797113D01*
X179519441Y-94400452D01*
X178485097Y-94399550D01*
X177529142Y-94794542D01*
X176797113Y-95525295D01*
X176400452Y-96480559D01*
X176399550Y-97514903D01*
X173775000Y-97514903D01*
X173775000Y-90732747D01*
X198799359Y-90732747D01*
X199361464Y-92093143D01*
X200401382Y-93134878D01*
X201760796Y-93699356D01*
X203232747Y-93700641D01*
X204593143Y-93138536D01*
X205634878Y-92098618D01*
X206199356Y-90739204D01*
X206199448Y-90633727D01*
X210339845Y-90633727D01*
X210825990Y-91810286D01*
X211725379Y-92711246D01*
X212901088Y-93199444D01*
X214174127Y-93200555D01*
X215350686Y-92714410D01*
X215986204Y-92080000D01*
X222941227Y-92080000D01*
X223101080Y-92883635D01*
X223556303Y-93564924D01*
X224237592Y-94020147D01*
X225041227Y-94180000D01*
X226958773Y-94180000D01*
X227762408Y-94020147D01*
X228443697Y-93564924D01*
X228898920Y-92883635D01*
X229058773Y-92080000D01*
X228898920Y-91276365D01*
X228443697Y-90595076D01*
X227762408Y-90139853D01*
X226958773Y-89980000D01*
X225041227Y-89980000D01*
X224237592Y-90139853D01*
X223556303Y-90595076D01*
X223101080Y-91276365D01*
X222941227Y-92080000D01*
X215986204Y-92080000D01*
X216251646Y-91815021D01*
X216739844Y-90639312D01*
X216740955Y-89366273D01*
X216254810Y-88189714D01*
X215516386Y-87450000D01*
X222800000Y-87450000D01*
X222800000Y-88178477D01*
X223013137Y-88693036D01*
X223406963Y-89086862D01*
X223921522Y-89300000D01*
X225550000Y-89300000D01*
X225900000Y-88950000D01*
X225900000Y-87100000D01*
X226100000Y-87100000D01*
X226100000Y-88950000D01*
X226450000Y-89300000D01*
X228078478Y-89300000D01*
X228593037Y-89086862D01*
X228986863Y-88693036D01*
X229200000Y-88178477D01*
X229200000Y-87450000D01*
X228850000Y-87100000D01*
X226100000Y-87100000D01*
X225900000Y-87100000D01*
X223150000Y-87100000D01*
X222800000Y-87450000D01*
X215516386Y-87450000D01*
X215355421Y-87288754D01*
X214179712Y-86800556D01*
X212906673Y-86799445D01*
X211730114Y-87285590D01*
X210829154Y-88184979D01*
X210340956Y-89360688D01*
X210339845Y-90633727D01*
X206199448Y-90633727D01*
X206200641Y-89267253D01*
X205638536Y-87906857D01*
X204598618Y-86865122D01*
X203239204Y-86300644D01*
X201767253Y-86299359D01*
X200406857Y-86861464D01*
X199365122Y-87901382D01*
X198800644Y-89260796D01*
X198799359Y-90732747D01*
X173775000Y-90732747D01*
X173775000Y-86851806D01*
X174225295Y-87302887D01*
X175180559Y-87699548D01*
X176214903Y-87700450D01*
X177170858Y-87305458D01*
X177902887Y-86574705D01*
X178299548Y-85619441D01*
X178300450Y-84585097D01*
X177905458Y-83629142D01*
X177174705Y-82897113D01*
X176219441Y-82500452D01*
X175185097Y-82499550D01*
X174229142Y-82894542D01*
X173775000Y-83347892D01*
X173775000Y-78000000D01*
X175576491Y-78000000D01*
X175576491Y-79800000D01*
X175660166Y-80244693D01*
X175922979Y-80653117D01*
X176323986Y-80927114D01*
X176800000Y-81023509D01*
X180400000Y-81023509D01*
X180844693Y-80939834D01*
X181253117Y-80677021D01*
X181527114Y-80276014D01*
X181623509Y-79800000D01*
X181623509Y-79396079D01*
X183999654Y-79396079D01*
X184303494Y-80131429D01*
X184865612Y-80694529D01*
X185600430Y-80999652D01*
X186396079Y-81000346D01*
X187131429Y-80696506D01*
X187694529Y-80134388D01*
X187999652Y-79399570D01*
X187999655Y-79396079D01*
X189999654Y-79396079D01*
X190303494Y-80131429D01*
X190865612Y-80694529D01*
X191567991Y-80986182D01*
X190856954Y-81695979D01*
X190368756Y-82871688D01*
X190367645Y-84144727D01*
X190853790Y-85321286D01*
X191753179Y-86222246D01*
X192928888Y-86710444D01*
X194201927Y-86711555D01*
X195378486Y-86225410D01*
X196279446Y-85326021D01*
X196767644Y-84150312D01*
X196767649Y-84144327D01*
X208231245Y-84144327D01*
X208717390Y-85320886D01*
X209616779Y-86221846D01*
X210792488Y-86710044D01*
X212065527Y-86711155D01*
X213242086Y-86225010D01*
X213646277Y-85821523D01*
X222800000Y-85821523D01*
X222800000Y-86550000D01*
X223150000Y-86900000D01*
X225900000Y-86900000D01*
X225900000Y-85050000D01*
X226100000Y-85050000D01*
X226100000Y-86900000D01*
X228850000Y-86900000D01*
X229200000Y-86550000D01*
X229200000Y-85821523D01*
X228986863Y-85306964D01*
X228593037Y-84913138D01*
X228078478Y-84700000D01*
X226450000Y-84700000D01*
X226100000Y-85050000D01*
X225900000Y-85050000D01*
X225550000Y-84700000D01*
X223921522Y-84700000D01*
X223406963Y-84913138D01*
X223013137Y-85306964D01*
X222800000Y-85821523D01*
X213646277Y-85821523D01*
X214143046Y-85325621D01*
X214631244Y-84149912D01*
X214632355Y-82876873D01*
X214146210Y-81700314D01*
X213246821Y-80799354D01*
X212071112Y-80311156D01*
X210798073Y-80310045D01*
X209621514Y-80796190D01*
X208720554Y-81695579D01*
X208232356Y-82871288D01*
X208231245Y-84144327D01*
X196767649Y-84144327D01*
X196768755Y-82877273D01*
X196282610Y-81700714D01*
X195383221Y-80799754D01*
X194207512Y-80311556D01*
X193517655Y-80310954D01*
X193694529Y-80134388D01*
X193999652Y-79399570D01*
X194000346Y-78603921D01*
X193696506Y-77868571D01*
X193134388Y-77305471D01*
X192399570Y-77000348D01*
X191603921Y-76999654D01*
X190868571Y-77303494D01*
X190305471Y-77865612D01*
X190000348Y-78600430D01*
X189999654Y-79396079D01*
X187999655Y-79396079D01*
X188000346Y-78603921D01*
X187696506Y-77868571D01*
X187134388Y-77305471D01*
X186399570Y-77000348D01*
X185603921Y-76999654D01*
X184868571Y-77303494D01*
X184305471Y-77865612D01*
X184000348Y-78600430D01*
X183999654Y-79396079D01*
X181623509Y-79396079D01*
X181623509Y-78000000D01*
X181539834Y-77555307D01*
X181277021Y-77146883D01*
X180876014Y-76872886D01*
X180400000Y-76776491D01*
X176800000Y-76776491D01*
X176355307Y-76860166D01*
X175946883Y-77122979D01*
X175672886Y-77523986D01*
X175576491Y-78000000D01*
X173775000Y-78000000D01*
X173775000Y-73820000D01*
X175541227Y-73820000D01*
X175701080Y-74623635D01*
X176156303Y-75304924D01*
X176837592Y-75760147D01*
X177641227Y-75920000D01*
X179558773Y-75920000D01*
X180362408Y-75760147D01*
X181043697Y-75304924D01*
X181498920Y-74623635D01*
X181641374Y-73907466D01*
X186733955Y-73907466D01*
X186763750Y-74371681D01*
X187574116Y-74702300D01*
X188449318Y-74697638D01*
X189236250Y-74371681D01*
X189266045Y-73907466D01*
X194733955Y-73907466D01*
X194763750Y-74371681D01*
X195574116Y-74702300D01*
X196360868Y-74698109D01*
X196300818Y-75000000D01*
X196453059Y-75765367D01*
X196886604Y-76414214D01*
X197379593Y-76743618D01*
X197278014Y-76785590D01*
X196377054Y-77684979D01*
X195888856Y-78860688D01*
X195887745Y-80133727D01*
X196373890Y-81310286D01*
X197273279Y-82211246D01*
X198448988Y-82699444D01*
X199722027Y-82700555D01*
X200898586Y-82214410D01*
X201799546Y-81315021D01*
X202287744Y-80139312D01*
X202287748Y-80133727D01*
X202711145Y-80133727D01*
X203197290Y-81310286D01*
X204096679Y-82211246D01*
X205272388Y-82699444D01*
X206545427Y-82700555D01*
X207721986Y-82214410D01*
X208622946Y-81315021D01*
X209111144Y-80139312D01*
X209111195Y-80080000D01*
X222941227Y-80080000D01*
X223101080Y-80883635D01*
X223556303Y-81564924D01*
X224237592Y-82020147D01*
X225041227Y-82180000D01*
X226958773Y-82180000D01*
X227762408Y-82020147D01*
X228443697Y-81564924D01*
X228898920Y-80883635D01*
X229058773Y-80080000D01*
X228898920Y-79276365D01*
X228443697Y-78595076D01*
X227762408Y-78139853D01*
X226958773Y-77980000D01*
X225041227Y-77980000D01*
X224237592Y-78139853D01*
X223556303Y-78595076D01*
X223101080Y-79276365D01*
X222941227Y-80080000D01*
X209111195Y-80080000D01*
X209112255Y-78866273D01*
X208626110Y-77689714D01*
X207821724Y-76883923D01*
X208100430Y-76999652D01*
X208896079Y-77000346D01*
X209631429Y-76696506D01*
X209853026Y-76475295D01*
X214599584Y-76475295D01*
X214964192Y-77357715D01*
X215638734Y-78033435D01*
X216520516Y-78399583D01*
X217475295Y-78400416D01*
X218357715Y-78035808D01*
X219033435Y-77361266D01*
X219399583Y-76479484D01*
X219400416Y-75524705D01*
X219035808Y-74642285D01*
X218494469Y-74100000D01*
X222976491Y-74100000D01*
X222976491Y-75900000D01*
X223060166Y-76344693D01*
X223322979Y-76753117D01*
X223723986Y-77027114D01*
X224200000Y-77123509D01*
X227800000Y-77123509D01*
X228244693Y-77039834D01*
X228653117Y-76777021D01*
X228927114Y-76376014D01*
X229023509Y-75900000D01*
X229023509Y-74100000D01*
X228939834Y-73655307D01*
X228677021Y-73246883D01*
X228276014Y-72972886D01*
X227800000Y-72876491D01*
X224200000Y-72876491D01*
X223755307Y-72960166D01*
X223346883Y-73222979D01*
X223072886Y-73623986D01*
X222976491Y-74100000D01*
X218494469Y-74100000D01*
X218361266Y-73966565D01*
X217479484Y-73600417D01*
X216524705Y-73599584D01*
X215642285Y-73964192D01*
X214966565Y-74638734D01*
X214600417Y-75520516D01*
X214599584Y-76475295D01*
X209853026Y-76475295D01*
X210194529Y-76134388D01*
X210499652Y-75399570D01*
X210500346Y-74603921D01*
X210196506Y-73868571D01*
X209634388Y-73305471D01*
X208899570Y-73000348D01*
X208103921Y-72999654D01*
X207368571Y-73303494D01*
X206805471Y-73865612D01*
X206500348Y-74600430D01*
X206499654Y-75396079D01*
X206803494Y-76131429D01*
X207270608Y-76599359D01*
X206551012Y-76300556D01*
X205277973Y-76299445D01*
X204101414Y-76785590D01*
X203200454Y-77684979D01*
X202712256Y-78860688D01*
X202711145Y-80133727D01*
X202287748Y-80133727D01*
X202288855Y-78866273D01*
X201802710Y-77689714D01*
X200903321Y-76788754D01*
X199838558Y-76346625D01*
X200226941Y-75765367D01*
X200379182Y-75000000D01*
X200226941Y-74234633D01*
X199793396Y-73585786D01*
X199144549Y-73152241D01*
X198379182Y-73000000D01*
X198300818Y-73000000D01*
X198160690Y-73027873D01*
X198202300Y-72925884D01*
X198197638Y-72050682D01*
X197871681Y-71263750D01*
X197407466Y-71233955D01*
X196141421Y-72500000D01*
X196155564Y-72514143D01*
X196014143Y-72655564D01*
X196000000Y-72641421D01*
X194733955Y-73907466D01*
X189266045Y-73907466D01*
X188000000Y-72641421D01*
X186733955Y-73907466D01*
X181641374Y-73907466D01*
X181658773Y-73820000D01*
X181498920Y-73016365D01*
X181043697Y-72335076D01*
X180653143Y-72074116D01*
X185797700Y-72074116D01*
X185802362Y-72949318D01*
X186128319Y-73736250D01*
X186592534Y-73766045D01*
X187858579Y-72500000D01*
X188141421Y-72500000D01*
X189407466Y-73766045D01*
X189871681Y-73736250D01*
X190202300Y-72925884D01*
X190197763Y-72074116D01*
X193797700Y-72074116D01*
X193802362Y-72949318D01*
X194128319Y-73736250D01*
X194592534Y-73766045D01*
X195858579Y-72500000D01*
X194592534Y-71233955D01*
X194128319Y-71263750D01*
X193797700Y-72074116D01*
X190197763Y-72074116D01*
X190197638Y-72050682D01*
X189871681Y-71263750D01*
X189407466Y-71233955D01*
X188141421Y-72500000D01*
X187858579Y-72500000D01*
X186592534Y-71233955D01*
X186128319Y-71263750D01*
X185797700Y-72074116D01*
X180653143Y-72074116D01*
X180362408Y-71879853D01*
X179558773Y-71720000D01*
X177641227Y-71720000D01*
X176837592Y-71879853D01*
X176156303Y-72335076D01*
X175701080Y-73016365D01*
X175541227Y-73820000D01*
X173775000Y-73820000D01*
X173775000Y-71092534D01*
X186733955Y-71092534D01*
X188000000Y-72358579D01*
X189266045Y-71092534D01*
X194733955Y-71092534D01*
X196000000Y-72358579D01*
X197266045Y-71092534D01*
X197236250Y-70628319D01*
X196425884Y-70297700D01*
X195550682Y-70302362D01*
X194763750Y-70628319D01*
X194733955Y-71092534D01*
X189266045Y-71092534D01*
X189236250Y-70628319D01*
X188425884Y-70297700D01*
X187550682Y-70302362D01*
X186763750Y-70628319D01*
X186733955Y-71092534D01*
X173775000Y-71092534D01*
X173775000Y-70289909D01*
X173810556Y-70325527D01*
X174710591Y-70699254D01*
X175685134Y-70700104D01*
X176585819Y-70327949D01*
X176932340Y-69982032D01*
X178769389Y-69982032D01*
X178854035Y-70492913D01*
X179826996Y-70898490D01*
X180881101Y-70900857D01*
X181855873Y-70499656D01*
X181865965Y-70492913D01*
X181950611Y-69982032D01*
X180360000Y-68391421D01*
X178769389Y-69982032D01*
X176932340Y-69982032D01*
X177275527Y-69639444D01*
X177649254Y-68739409D01*
X177650104Y-67764866D01*
X177292675Y-66899820D01*
X178051872Y-66900483D01*
X177711510Y-67716996D01*
X177709143Y-68771101D01*
X178110344Y-69745873D01*
X178117087Y-69755965D01*
X178627968Y-69840611D01*
X180218579Y-68250000D01*
X180501421Y-68250000D01*
X182092032Y-69840611D01*
X182602913Y-69755965D01*
X183001064Y-68800818D01*
X190000000Y-68800818D01*
X190000000Y-68879182D01*
X190152241Y-69644549D01*
X190585786Y-70293396D01*
X191234633Y-70726941D01*
X192000000Y-70879182D01*
X192765367Y-70726941D01*
X193414214Y-70293396D01*
X193847759Y-69644549D01*
X194000000Y-68879182D01*
X194000000Y-68800818D01*
X193874949Y-68172144D01*
X202776491Y-68172144D01*
X202776491Y-70172144D01*
X202860166Y-70616837D01*
X203122979Y-71025261D01*
X203523986Y-71299258D01*
X204000000Y-71395653D01*
X206000000Y-71395653D01*
X206444693Y-71311978D01*
X206853117Y-71049165D01*
X207075629Y-70723509D01*
X208000000Y-70723509D01*
X208444693Y-70639834D01*
X208853117Y-70377021D01*
X209127114Y-69976014D01*
X209220491Y-69514903D01*
X221899550Y-69514903D01*
X222294542Y-70470858D01*
X223025295Y-71202887D01*
X223980559Y-71599548D01*
X225014903Y-71600450D01*
X225970858Y-71205458D01*
X226702887Y-70474705D01*
X227099548Y-69519441D01*
X227100450Y-68485097D01*
X226705458Y-67529142D01*
X225974705Y-66797113D01*
X225019441Y-66400452D01*
X223985097Y-66399550D01*
X223029142Y-66794542D01*
X222297113Y-67525295D01*
X221900452Y-68480559D01*
X221899550Y-69514903D01*
X209220491Y-69514903D01*
X209223509Y-69500000D01*
X209223509Y-67500000D01*
X209139834Y-67055307D01*
X208877021Y-66646883D01*
X208476014Y-66372886D01*
X208000000Y-66276491D01*
X206000000Y-66276491D01*
X205555307Y-66360166D01*
X205146883Y-66622979D01*
X204924371Y-66948635D01*
X204000000Y-66948635D01*
X203555307Y-67032310D01*
X203146883Y-67295123D01*
X202872886Y-67696130D01*
X202776491Y-68172144D01*
X193874949Y-68172144D01*
X193847759Y-68035451D01*
X193414214Y-67386604D01*
X192765367Y-66953059D01*
X192000000Y-66800818D01*
X191234633Y-66953059D01*
X190585786Y-67386604D01*
X190152241Y-68035451D01*
X190000000Y-68800818D01*
X183001064Y-68800818D01*
X183008490Y-68783004D01*
X183010857Y-67728899D01*
X182609656Y-66754127D01*
X182602913Y-66744035D01*
X182092032Y-66659389D01*
X180501421Y-68250000D01*
X180218579Y-68250000D01*
X180204437Y-68235858D01*
X180345858Y-68094437D01*
X180360000Y-68108579D01*
X181950611Y-66517968D01*
X181865965Y-66007087D01*
X180893004Y-65601510D01*
X180621659Y-65600901D01*
X181227963Y-64995654D01*
X181899234Y-63379054D01*
X181900175Y-62300818D01*
X186000000Y-62300818D01*
X186000000Y-62379182D01*
X186152241Y-63144549D01*
X186585786Y-63793396D01*
X187234633Y-64226941D01*
X188000000Y-64379182D01*
X188765367Y-64226941D01*
X189414214Y-63793396D01*
X189847759Y-63144549D01*
X190000000Y-62379182D01*
X190000000Y-62300818D01*
X194000000Y-62300818D01*
X194000000Y-62379182D01*
X194152241Y-63144549D01*
X194585786Y-63793396D01*
X195234633Y-64226941D01*
X196000000Y-64379182D01*
X196765367Y-64226941D01*
X197414214Y-63793396D01*
X197847759Y-63144549D01*
X197871246Y-63026469D01*
X204599235Y-63026469D01*
X204600770Y-63981248D01*
X204963195Y-64856219D01*
X205448160Y-64910419D01*
X206732193Y-63626386D01*
X206815035Y-63826386D01*
X205589581Y-65051840D01*
X205643781Y-65536805D01*
X206526469Y-65900765D01*
X207481248Y-65899230D01*
X208356219Y-65536805D01*
X208396644Y-65175090D01*
X208526469Y-65228621D01*
X208587100Y-65228524D01*
X208654050Y-65295474D01*
X208721216Y-65228308D01*
X209481248Y-65227086D01*
X210356219Y-64864661D01*
X210410419Y-64379696D01*
X209399793Y-63369070D01*
X209399338Y-63085773D01*
X210551840Y-64238275D01*
X211036805Y-64184075D01*
X211400765Y-63301387D01*
X211399230Y-62346608D01*
X211036805Y-61471637D01*
X210551840Y-61417437D01*
X209267807Y-62701470D01*
X209184965Y-62501470D01*
X210410419Y-61276016D01*
X210409210Y-61265198D01*
X214449549Y-61265198D01*
X214837021Y-62202757D01*
X215553787Y-62920670D01*
X216490726Y-63309641D01*
X216494803Y-63310446D01*
X216900000Y-63007777D01*
X216900000Y-60860000D01*
X217100000Y-60860000D01*
X217100000Y-63007777D01*
X217505197Y-63310446D01*
X217509274Y-63309641D01*
X218123821Y-63054511D01*
X224699515Y-63054511D01*
X225124892Y-64084000D01*
X225911857Y-64872340D01*
X226940602Y-65299513D01*
X228054511Y-65300485D01*
X229084000Y-64875108D01*
X229872340Y-64088143D01*
X230299513Y-63059398D01*
X230300485Y-61945489D01*
X229875108Y-60916000D01*
X229088143Y-60127660D01*
X228059398Y-59700487D01*
X226945489Y-59699515D01*
X225916000Y-60124892D01*
X225127660Y-60911857D01*
X224700487Y-61940602D01*
X224699515Y-63054511D01*
X218123821Y-63054511D01*
X218446213Y-62920670D01*
X219162979Y-62202757D01*
X219550451Y-61265198D01*
X219248081Y-60860000D01*
X217100000Y-60860000D01*
X216900000Y-60860000D01*
X214751919Y-60860000D01*
X214449549Y-61265198D01*
X210409210Y-61265198D01*
X210356219Y-60791051D01*
X209473531Y-60427091D01*
X208518752Y-60428626D01*
X207643781Y-60791051D01*
X207603356Y-61152766D01*
X207473531Y-61099235D01*
X207412900Y-61099332D01*
X207345950Y-61032382D01*
X207278784Y-61099548D01*
X206518752Y-61100770D01*
X205643781Y-61463195D01*
X205589581Y-61948160D01*
X206600207Y-62958786D01*
X206600662Y-63242083D01*
X205448160Y-62089581D01*
X204963195Y-62143781D01*
X204599235Y-63026469D01*
X197871246Y-63026469D01*
X198000000Y-62379182D01*
X198000000Y-62300818D01*
X197847759Y-61535451D01*
X197414214Y-60886604D01*
X196765367Y-60453059D01*
X196000000Y-60300818D01*
X195234633Y-60453059D01*
X194585786Y-60886604D01*
X194152241Y-61535451D01*
X194000000Y-62300818D01*
X190000000Y-62300818D01*
X189847759Y-61535451D01*
X189414214Y-60886604D01*
X188765367Y-60453059D01*
X188000000Y-60300818D01*
X187234633Y-60453059D01*
X186585786Y-60886604D01*
X186152241Y-61535451D01*
X186000000Y-62300818D01*
X181900175Y-62300818D01*
X181900762Y-61628626D01*
X181232313Y-60010856D01*
X179998612Y-58775000D01*
X215378398Y-58775000D01*
X214837021Y-59317243D01*
M02*
