M48
;DRILL file {KiCad 4.0.7} date Friday, 04 May 2018 'PMt' 12:52:58
;FORMAT={-:-/ absolute / metric / decimal}
FMAT,2
METRIC,TZ
T1C0.700
T2C0.800
T3C1.000
T4C1.001
T5C1.200
T6C1.600
T7C2.000
T8C3.200
T9C2.500
T10C3.200
T11C5.000
%
G90
G05
M71
T1
X195.46Y-121.46
X198.Y-118.92
X198.Y-124.
T2
X186.Y-79.
X186.Y-99.
X188.Y-62.34
X188.Y-72.5
X192.Y-68.84
X192.Y-79.
X194.Y-104.84
X194.Y-115.
X196.Y-62.34
X196.Y-72.5
X198.34Y-75.
X202.Y-105.
X202.Y-115.16
X206.Y-104.99
X206.Y-115.15
X208.5Y-75.
X210.Y-105.
X210.Y-115.16
X211.Y-123.84
X211.Y-134.
X214.Y-100.84
X214.Y-111.
X218.5Y-104.5
X218.5Y-109.5
T3
X205.Y-69.172
X207.Y-63.5
X207.Y-68.5
X209.Y-62.828
X215.Y-121.672
X217.Y-116.
X217.Y-121.
X219.Y-115.328
T4
X175.2Y-68.25
X180.36Y-68.25
X208.Y-118.96
X208.Y-121.5
T5
X178.6Y-73.82
X178.6Y-78.9
X183.Y-106.
X183.Y-113.5
X183.Y-125.
X183.Y-132.5
X200.Y-133.
X200.Y-140.5
X216.Y-125.76
X216.Y-141.
X217.Y-60.76
X217.Y-76.
X221.5Y-125.76
X221.5Y-141.
X226.Y-75.
X226.Y-80.08
X226.Y-87.
X226.Y-92.08
X226.Y-97.16
X226.Y-102.24
X226.Y-109.
X226.Y-114.08
X227.Y-120.
X227.Y-135.24
T6
X175.7Y-85.1
X179.Y-97.
X188.Y-142.
X204.Y-119.
X224.5Y-69.
T7
X193.568Y-83.511
X193.568Y-96.489
X199.088Y-79.5
X199.088Y-100.5
X205.912Y-79.5
X205.912Y-100.5
X211.432Y-83.511
X211.432Y-96.489
X213.54Y-90.
T8
X177.5Y-62.5
T9
X216.Y-130.
X216.Y-136.5
X221.5Y-130.
X221.5Y-136.5
X227.Y-124.
X227.Y-131.
T10
X177.5Y-142.5
X227.5Y-62.5
X227.5Y-142.5
T11
X202.5Y-90.
T0
M30
