G04 #@! TF.FileFunction,Copper,L2,Bot,Signal*
%FSLAX46Y46*%
G04 Gerber Fmt 4.6, Leading zero omitted, Abs format (unit mm)*
G04 Created by KiCad (PCBNEW 4.0.6) date Friday, 28 July 2017 'PMt' 19:42:32*
%MOMM*%
%LPD*%
G01*
G04 APERTURE LIST*
%ADD10C,0.100000*%
%ADD11C,1.600000*%
%ADD12O,1.600000X1.600000*%
%ADD13R,2.400000X2.400000*%
%ADD14C,2.400000*%
%ADD15C,6.400000*%
%ADD16C,2.800000*%
%ADD17R,3.600000X1.800000*%
%ADD18O,3.600000X1.800000*%
%ADD19R,1.800000X3.600000*%
%ADD20O,1.800000X3.600000*%
%ADD21C,3.000000*%
%ADD22O,2.400000X2.400000*%
%ADD23R,2.000000X2.000000*%
%ADD24C,2.000000*%
%ADD25C,2.500000*%
%ADD26C,1.000000*%
%ADD27C,2.000000*%
%ADD28C,0.800000*%
G04 APERTURE END LIST*
D10*
D11*
X200500000Y-85500000D03*
D12*
X200500000Y-65500000D03*
D13*
X182500000Y-80500000D03*
D14*
X182500000Y-88000000D03*
D11*
X189500000Y-137500000D03*
D12*
X189500000Y-117500000D03*
D11*
X215500000Y-137500000D03*
D12*
X215500000Y-117500000D03*
D15*
X227500000Y-62500000D03*
D11*
X208000000Y-127000000D03*
D12*
X208000000Y-137160000D03*
D11*
X197000000Y-137000000D03*
D12*
X197000000Y-126840000D03*
D16*
X178500000Y-115000000D03*
X179500000Y-96000000D03*
X178500000Y-138000000D03*
D17*
X226500000Y-103500000D03*
D18*
X226500000Y-108580000D03*
D17*
X178500000Y-129000000D03*
D18*
X178500000Y-123920000D03*
D17*
X178500000Y-108500000D03*
D18*
X178500000Y-103420000D03*
D19*
X187000000Y-63500000D03*
D20*
X192080000Y-63500000D03*
D17*
X226500000Y-87500000D03*
D18*
X226500000Y-92580000D03*
D17*
X226500000Y-72000000D03*
D18*
X226500000Y-77080000D03*
D11*
X208500000Y-88500000D03*
D12*
X198340000Y-88500000D03*
D11*
X217000000Y-111500000D03*
D12*
X217000000Y-101340000D03*
D11*
X208000000Y-91500000D03*
D12*
X218160000Y-91500000D03*
D11*
X210500000Y-80500000D03*
D12*
X210500000Y-70340000D03*
D11*
X218500000Y-87500000D03*
D12*
X218500000Y-60000000D03*
D21*
X208989435Y-113931484D03*
X202500041Y-116040367D03*
X196010602Y-113931820D03*
X192000019Y-108411708D03*
X191999956Y-101588329D03*
X196010688Y-96068136D03*
X202499959Y-93959633D03*
X208989398Y-96068180D03*
X212999981Y-101588292D03*
D14*
X194500000Y-77000000D03*
D22*
X194500000Y-92240000D03*
D14*
X202500000Y-120000000D03*
D22*
X202500000Y-135240000D03*
D14*
X221000000Y-97000000D03*
D22*
X221000000Y-112240000D03*
D14*
X194500000Y-72000000D03*
D22*
X179260000Y-72000000D03*
D23*
X210500000Y-63500000D03*
D24*
X205500000Y-63500000D03*
X187000000Y-112000000D03*
X187000000Y-102000000D03*
D19*
X220500000Y-146500000D03*
D20*
X215420000Y-146500000D03*
X210340000Y-146500000D03*
X205260000Y-146500000D03*
X200180000Y-146500000D03*
X195100000Y-146500000D03*
X190020000Y-146500000D03*
X184940000Y-146500000D03*
D23*
X228000000Y-136000000D03*
D24*
X223000000Y-136000000D03*
D25*
X228000000Y-128000000D03*
D11*
X228000000Y-124500000D03*
D12*
X228000000Y-114340000D03*
D11*
X224000000Y-127500000D03*
D12*
X224000000Y-117340000D03*
D26*
X223000000Y-136000000D02*
X223000000Y-144000000D01*
X223000000Y-144000000D02*
X220500000Y-146500000D01*
X224000000Y-127500000D02*
X224000000Y-135000000D01*
X224000000Y-135000000D02*
X223000000Y-136000000D01*
X200180000Y-146500000D02*
X200180000Y-150500000D01*
X200000000Y-150320000D02*
X200000000Y-150500000D01*
X200180000Y-150500000D02*
X200000000Y-150320000D01*
X184940000Y-146500000D02*
X184940000Y-148440000D01*
X216500000Y-150500000D02*
X220500000Y-146500000D01*
X200000000Y-150500000D02*
X216500000Y-150500000D01*
X187000000Y-150500000D02*
X200000000Y-150500000D01*
X184940000Y-148440000D02*
X187000000Y-150500000D01*
X182500000Y-88000000D02*
X182500000Y-144060000D01*
X182500000Y-144060000D02*
X184940000Y-146500000D01*
X182500000Y-88000000D02*
X197840000Y-88000000D01*
X197840000Y-88000000D02*
X198340000Y-88500000D01*
X221000000Y-97000000D02*
X226500000Y-97000000D01*
X230000000Y-112340000D02*
X228000000Y-114340000D01*
X230000000Y-100500000D02*
X230000000Y-112340000D01*
X226500000Y-97000000D02*
X230000000Y-100500000D01*
X194500000Y-77000000D02*
X186000000Y-77000000D01*
X186000000Y-77000000D02*
X182500000Y-80500000D01*
X182500000Y-80500000D02*
X182500000Y-75240000D01*
X182500000Y-75240000D02*
X179260000Y-72000000D01*
D27*
X187000000Y-63500000D02*
X187000000Y-64260000D01*
X187000000Y-64260000D02*
X179260000Y-72000000D01*
D26*
X187000000Y-112000000D02*
X187000000Y-120000000D01*
X208989435Y-120510565D02*
X208989435Y-113931484D01*
X206500000Y-123000000D02*
X208989435Y-120510565D01*
X190000000Y-123000000D02*
X206500000Y-123000000D01*
X187000000Y-120000000D02*
X190000000Y-123000000D01*
D27*
X215500000Y-117500000D02*
X215740000Y-117500000D01*
D26*
X215740000Y-117500000D02*
X221000000Y-112240000D01*
X215500000Y-117500000D02*
X212557951Y-117500000D01*
X212557951Y-117500000D02*
X208989435Y-113931484D01*
D27*
X192000019Y-108411708D02*
X192000019Y-101588392D01*
X192000019Y-101588392D02*
X191999956Y-101588329D01*
D26*
X215420000Y-146500000D02*
X215420000Y-137580000D01*
D27*
X215420000Y-137580000D02*
X215500000Y-137500000D01*
D26*
X189500000Y-137500000D02*
X189500000Y-145980000D01*
X189500000Y-145980000D02*
X190020000Y-146500000D01*
X189500000Y-117500000D02*
X189500000Y-110000000D01*
X187000000Y-107500000D02*
X187000000Y-102000000D01*
X189500000Y-110000000D02*
X187000000Y-107500000D01*
X194500000Y-92240000D02*
X194500000Y-94557448D01*
X194500000Y-94557448D02*
X196010688Y-96068136D01*
X195500000Y-95557448D02*
X196010688Y-96068136D01*
X218500000Y-87500000D02*
X226500000Y-87500000D01*
X208000000Y-91500000D02*
X204959592Y-91500000D01*
X204959592Y-91500000D02*
X202499959Y-93959633D01*
X202499959Y-93959633D02*
X202499959Y-87499959D01*
X202499959Y-87499959D02*
X200500000Y-85500000D01*
D27*
X202499959Y-93959633D02*
X203040367Y-93959633D01*
D26*
X205500000Y-63500000D02*
X205500000Y-85500000D01*
X205500000Y-85500000D02*
X208500000Y-88500000D01*
X205500000Y-63500000D02*
X202500000Y-63500000D01*
X202500000Y-63500000D02*
X200500000Y-65500000D01*
X218500000Y-60000000D02*
X209000000Y-60000000D01*
X209000000Y-60000000D02*
X205500000Y-63500000D01*
X210500000Y-70340000D02*
X210500000Y-63500000D01*
X205260000Y-146500000D02*
X205260000Y-139900000D01*
X205260000Y-139900000D02*
X208000000Y-137160000D01*
X208000000Y-137160000D02*
X204420000Y-137160000D01*
X204420000Y-137160000D02*
X202500000Y-135240000D01*
X196010602Y-113931820D02*
X196010602Y-112489398D01*
X196010602Y-112489398D02*
X199000000Y-109500000D01*
X206557578Y-98500000D02*
X208989398Y-96068180D01*
X201000000Y-98500000D02*
X206557578Y-98500000D01*
X199000000Y-100500000D02*
X201000000Y-98500000D01*
X199000000Y-109500000D02*
X199000000Y-100500000D01*
X217000000Y-111500000D02*
X217000000Y-107500000D01*
X218160000Y-98660000D02*
X218160000Y-91500000D01*
X220000000Y-100500000D02*
X218160000Y-98660000D01*
X220000000Y-104500000D02*
X220000000Y-100500000D01*
X217000000Y-107500000D02*
X220000000Y-104500000D01*
X197000000Y-126840000D02*
X207840000Y-126840000D01*
D27*
X207840000Y-126840000D02*
X208000000Y-127000000D01*
X202500000Y-120000000D02*
X202500000Y-116040408D01*
X202500000Y-116040408D02*
X202500041Y-116040367D01*
D26*
X210500000Y-80500000D02*
X214000000Y-80500000D01*
X222500000Y-72000000D02*
X226500000Y-72000000D01*
X214000000Y-80500000D02*
X222500000Y-72000000D01*
D27*
X192080000Y-63500000D02*
X192080000Y-69580000D01*
X192080000Y-69580000D02*
X194500000Y-72000000D01*
D26*
X228000000Y-136000000D02*
X228000000Y-128000000D01*
X224000000Y-117340000D02*
X224000000Y-120500000D01*
X224000000Y-120500000D02*
X228000000Y-124500000D01*
X228000000Y-124500000D02*
X228000000Y-128000000D01*
D28*
G36*
X224502598Y-59361176D02*
X227500000Y-62358579D01*
X230497402Y-59361176D01*
X230232734Y-58775000D01*
X231225000Y-58775000D01*
X231225000Y-59767266D01*
X230638824Y-59502598D01*
X227641421Y-62500000D01*
X230638824Y-65497402D01*
X231225000Y-65232734D01*
X231225000Y-99332217D01*
X231202082Y-99297918D01*
X231202079Y-99297916D01*
X227702082Y-95797918D01*
X227150562Y-95429405D01*
X226500000Y-95299999D01*
X226499995Y-95300000D01*
X222694120Y-95300000D01*
X222361266Y-94966565D01*
X221479484Y-94600417D01*
X220524705Y-94599584D01*
X219860000Y-94874234D01*
X219860000Y-93038228D01*
X223346108Y-93038228D01*
X223436808Y-93367784D01*
X223902943Y-94135635D01*
X224627440Y-94666655D01*
X225500000Y-94880000D01*
X226400000Y-94880000D01*
X226400000Y-92680000D01*
X226600000Y-92680000D01*
X226600000Y-94880000D01*
X227500000Y-94880000D01*
X228372560Y-94666655D01*
X229097057Y-94135635D01*
X229563192Y-93367784D01*
X229653892Y-93038228D01*
X229347434Y-92680000D01*
X226600000Y-92680000D01*
X226400000Y-92680000D01*
X223652566Y-92680000D01*
X223346108Y-93038228D01*
X219860000Y-93038228D01*
X219860000Y-92545144D01*
X220046941Y-92265367D01*
X220075503Y-92121772D01*
X223346108Y-92121772D01*
X223652566Y-92480000D01*
X226400000Y-92480000D01*
X226400000Y-90280000D01*
X226600000Y-90280000D01*
X226600000Y-92480000D01*
X229347434Y-92480000D01*
X229653892Y-92121772D01*
X229563192Y-91792216D01*
X229097057Y-91024365D01*
X228372560Y-90493345D01*
X227500000Y-90280000D01*
X226600000Y-90280000D01*
X226400000Y-90280000D01*
X225500000Y-90280000D01*
X224627440Y-90493345D01*
X223902943Y-91024365D01*
X223436808Y-91792216D01*
X223346108Y-92121772D01*
X220075503Y-92121772D01*
X220199182Y-91500000D01*
X220046941Y-90734633D01*
X219613396Y-90085786D01*
X218964549Y-89652241D01*
X218199182Y-89500000D01*
X218120818Y-89500000D01*
X217355451Y-89652241D01*
X216706604Y-90085786D01*
X216273059Y-90734633D01*
X216120818Y-91500000D01*
X216273059Y-92265367D01*
X216460000Y-92545144D01*
X216460000Y-98659995D01*
X216459999Y-98660000D01*
X216589405Y-99310562D01*
X216631828Y-99374052D01*
X216234633Y-99453059D01*
X215585786Y-99886604D01*
X215358693Y-100226473D01*
X215290264Y-100060863D01*
X214531405Y-99300678D01*
X213539400Y-98888762D01*
X212465274Y-98887824D01*
X211472552Y-99298009D01*
X210712367Y-100056868D01*
X210300451Y-101048873D01*
X210299513Y-102122999D01*
X210709698Y-103115721D01*
X211468557Y-103875906D01*
X212460562Y-104287822D01*
X213534688Y-104288760D01*
X214527410Y-103878575D01*
X215287595Y-103119716D01*
X215485449Y-102643231D01*
X215585786Y-102793396D01*
X216234633Y-103226941D01*
X217000000Y-103379182D01*
X217765367Y-103226941D01*
X218300000Y-102869711D01*
X218300000Y-103795837D01*
X215797918Y-106297918D01*
X215429405Y-106849438D01*
X215299999Y-107500000D01*
X215300000Y-107500005D01*
X215300000Y-110378788D01*
X215000348Y-111100430D01*
X214999654Y-111896079D01*
X215303494Y-112631429D01*
X215865612Y-113194529D01*
X216600430Y-113499652D01*
X217335543Y-113500293D01*
X215535836Y-115300000D01*
X215500000Y-115300000D01*
X214658096Y-115467465D01*
X214160422Y-115800000D01*
X213262114Y-115800000D01*
X211689178Y-114227063D01*
X211689903Y-113396777D01*
X211279718Y-112404055D01*
X210520859Y-111643870D01*
X209528854Y-111231954D01*
X208454728Y-111231016D01*
X207462006Y-111641201D01*
X206701821Y-112400060D01*
X206289905Y-113392065D01*
X206288967Y-114466191D01*
X206699152Y-115458913D01*
X207289435Y-116050227D01*
X207289435Y-119806402D01*
X205795836Y-121300000D01*
X204558875Y-121300000D01*
X204899583Y-120479484D01*
X204900416Y-119524705D01*
X204700000Y-119039661D01*
X204700000Y-117659293D01*
X204787655Y-117571791D01*
X205199571Y-116579786D01*
X205200509Y-115505660D01*
X204790324Y-114512938D01*
X204031465Y-113752753D01*
X203039460Y-113340837D01*
X201965334Y-113339899D01*
X200972612Y-113750084D01*
X200212427Y-114508943D01*
X199800511Y-115500948D01*
X199799573Y-116575074D01*
X200209758Y-117567796D01*
X200300000Y-117658196D01*
X200300000Y-119039867D01*
X200100417Y-119520516D01*
X200099584Y-120475295D01*
X200440345Y-121300000D01*
X190704163Y-121300000D01*
X188805127Y-119400963D01*
X189500000Y-119539182D01*
X190265367Y-119386941D01*
X190914214Y-118953396D01*
X191347759Y-118304549D01*
X191500000Y-117539182D01*
X191500000Y-117460818D01*
X191347759Y-116695451D01*
X191200000Y-116474314D01*
X191200000Y-111003028D01*
X191460600Y-111111238D01*
X192534726Y-111112176D01*
X193527448Y-110701991D01*
X194287633Y-109943132D01*
X194699549Y-108951127D01*
X194700487Y-107877001D01*
X194290302Y-106884279D01*
X194200019Y-106793838D01*
X194200019Y-103207151D01*
X194287570Y-103119753D01*
X194699486Y-102127748D01*
X194700424Y-101053622D01*
X194290239Y-100060900D01*
X193531380Y-99300715D01*
X192539375Y-98888799D01*
X191465249Y-98887861D01*
X190472527Y-99298046D01*
X189712342Y-100056905D01*
X189300426Y-101048910D01*
X189299488Y-102123036D01*
X189709673Y-103115758D01*
X189800019Y-103206262D01*
X189800019Y-106792823D01*
X189712405Y-106880284D01*
X189440139Y-107535975D01*
X188700000Y-106795836D01*
X188700000Y-103411523D01*
X188863982Y-103247827D01*
X189199618Y-102439527D01*
X189200381Y-101564313D01*
X188866157Y-100755428D01*
X188247827Y-100136018D01*
X187439527Y-99800382D01*
X186564313Y-99799619D01*
X185755428Y-100133843D01*
X185136018Y-100752173D01*
X184800382Y-101560473D01*
X184799619Y-102435687D01*
X185133843Y-103244572D01*
X185300000Y-103411019D01*
X185300000Y-107499995D01*
X185299999Y-107500000D01*
X185429405Y-108150562D01*
X185797918Y-108702082D01*
X186895744Y-109799908D01*
X186564313Y-109799619D01*
X185755428Y-110133843D01*
X185136018Y-110752173D01*
X184800382Y-111560473D01*
X184799619Y-112435687D01*
X185133843Y-113244572D01*
X185300000Y-113411019D01*
X185300000Y-119999995D01*
X185299999Y-120000000D01*
X185429405Y-120650562D01*
X185797918Y-121202082D01*
X188797916Y-124202079D01*
X188797918Y-124202082D01*
X189349438Y-124570595D01*
X189457374Y-124592065D01*
X190000000Y-124700001D01*
X190000005Y-124700000D01*
X206499995Y-124700000D01*
X206500000Y-124700001D01*
X207150562Y-124570595D01*
X207702082Y-124202082D01*
X210191514Y-121712649D01*
X210191517Y-121712647D01*
X210560030Y-121161127D01*
X210581500Y-121053191D01*
X210689436Y-120510565D01*
X210689435Y-120510560D01*
X210689435Y-118035647D01*
X211355867Y-118702079D01*
X211355869Y-118702082D01*
X211907389Y-119070595D01*
X212015325Y-119092065D01*
X212557951Y-119200001D01*
X212557956Y-119200000D01*
X214160422Y-119200000D01*
X214658096Y-119532535D01*
X215500000Y-119700000D01*
X215740000Y-119700000D01*
X216581904Y-119532535D01*
X217295635Y-119055635D01*
X217772535Y-118341904D01*
X217889306Y-117754858D01*
X220964254Y-114679909D01*
X221000000Y-114687019D01*
X221918440Y-114504330D01*
X222697056Y-113984075D01*
X223217311Y-113205459D01*
X223400000Y-112287019D01*
X223400000Y-112192981D01*
X223217311Y-111274541D01*
X222697056Y-110495925D01*
X221918440Y-109975670D01*
X221000000Y-109792981D01*
X220081560Y-109975670D01*
X219302944Y-110495925D01*
X218960741Y-111008068D01*
X218700000Y-110377027D01*
X218700000Y-108204164D01*
X221202079Y-105702084D01*
X221202082Y-105702082D01*
X221570595Y-105150562D01*
X221625206Y-104876014D01*
X221700001Y-104500000D01*
X221700000Y-104499995D01*
X221700000Y-100500005D01*
X221700001Y-100500000D01*
X221570595Y-99849438D01*
X221374431Y-99555857D01*
X221270449Y-99400237D01*
X221475295Y-99400416D01*
X222357715Y-99035808D01*
X222694109Y-98700000D01*
X225795836Y-98700000D01*
X228300000Y-101204163D01*
X228300000Y-101376491D01*
X224700000Y-101376491D01*
X224255307Y-101460166D01*
X223846883Y-101722979D01*
X223572886Y-102123986D01*
X223476491Y-102600000D01*
X223476491Y-104400000D01*
X223560166Y-104844693D01*
X223822979Y-105253117D01*
X224223986Y-105527114D01*
X224700000Y-105623509D01*
X228300000Y-105623509D01*
X228300000Y-106664971D01*
X228262408Y-106639853D01*
X227458773Y-106480000D01*
X225541227Y-106480000D01*
X224737592Y-106639853D01*
X224056303Y-107095076D01*
X223601080Y-107776365D01*
X223441227Y-108580000D01*
X223601080Y-109383635D01*
X224056303Y-110064924D01*
X224737592Y-110520147D01*
X225541227Y-110680000D01*
X227458773Y-110680000D01*
X228262408Y-110520147D01*
X228300000Y-110495029D01*
X228300000Y-111635837D01*
X227544392Y-112391444D01*
X227234633Y-112453059D01*
X226585786Y-112886604D01*
X226152241Y-113535451D01*
X226000000Y-114300818D01*
X226000000Y-114379182D01*
X226152241Y-115144549D01*
X226585786Y-115793396D01*
X227234633Y-116226941D01*
X228000000Y-116379182D01*
X228765367Y-116226941D01*
X229414214Y-115793396D01*
X229847759Y-115144549D01*
X229909374Y-114834790D01*
X231202079Y-113542084D01*
X231202082Y-113542082D01*
X231225000Y-113507783D01*
X231225000Y-151225000D01*
X218179164Y-151225000D01*
X219880654Y-149523509D01*
X221400000Y-149523509D01*
X221844693Y-149439834D01*
X222253117Y-149177021D01*
X222527114Y-148776014D01*
X222623509Y-148300000D01*
X222623509Y-148054511D01*
X224699515Y-148054511D01*
X225124892Y-149084000D01*
X225911857Y-149872340D01*
X226940602Y-150299513D01*
X228054511Y-150300485D01*
X229084000Y-149875108D01*
X229872340Y-149088143D01*
X230299513Y-148059398D01*
X230300485Y-146945489D01*
X229875108Y-145916000D01*
X229088143Y-145127660D01*
X228059398Y-144700487D01*
X226945489Y-144699515D01*
X225916000Y-145124892D01*
X225127660Y-145911857D01*
X224700487Y-146940602D01*
X224699515Y-148054511D01*
X222623509Y-148054511D01*
X222623509Y-146780655D01*
X224202079Y-145202084D01*
X224202082Y-145202082D01*
X224570595Y-144650562D01*
X224575194Y-144627440D01*
X224700001Y-144000000D01*
X224700000Y-143999995D01*
X224700000Y-137411523D01*
X224863982Y-137247827D01*
X225199618Y-136439527D01*
X225199823Y-136204340D01*
X225202079Y-136202084D01*
X225202082Y-136202082D01*
X225570595Y-135650562D01*
X225592065Y-135542626D01*
X225700001Y-135000000D01*
X225700000Y-134999995D01*
X225700000Y-128849251D01*
X225921780Y-129386000D01*
X226300000Y-129764881D01*
X226300000Y-134024451D01*
X226146883Y-134122979D01*
X225872886Y-134523986D01*
X225776491Y-135000000D01*
X225776491Y-137000000D01*
X225860166Y-137444693D01*
X226122979Y-137853117D01*
X226523986Y-138127114D01*
X227000000Y-138223509D01*
X229000000Y-138223509D01*
X229444693Y-138139834D01*
X229853117Y-137877021D01*
X230127114Y-137476014D01*
X230223509Y-137000000D01*
X230223509Y-135000000D01*
X230139834Y-134555307D01*
X229877021Y-134146883D01*
X229700000Y-134025929D01*
X229700000Y-129764768D01*
X230075798Y-129389625D01*
X230449573Y-128489473D01*
X230450424Y-127514803D01*
X230078220Y-126614000D01*
X229700000Y-126235119D01*
X229700000Y-125621212D01*
X229999652Y-124899570D01*
X230000346Y-124103921D01*
X229696506Y-123368571D01*
X229134388Y-122805471D01*
X228408020Y-122503857D01*
X225700000Y-119795836D01*
X225700000Y-118365686D01*
X225847759Y-118144549D01*
X226000000Y-117379182D01*
X226000000Y-117300818D01*
X225847759Y-116535451D01*
X225414214Y-115886604D01*
X224765367Y-115453059D01*
X224000000Y-115300818D01*
X223234633Y-115453059D01*
X222585786Y-115886604D01*
X222152241Y-116535451D01*
X222000000Y-117300818D01*
X222000000Y-117379182D01*
X222152241Y-118144549D01*
X222300000Y-118365686D01*
X222300000Y-120499995D01*
X222299999Y-120500000D01*
X222429405Y-121150562D01*
X222797918Y-121702082D01*
X226005103Y-124909266D01*
X226300000Y-125622973D01*
X226300000Y-126235232D01*
X225924202Y-126610375D01*
X225860152Y-126764625D01*
X225696506Y-126368571D01*
X225134388Y-125805471D01*
X224399570Y-125500348D01*
X223603921Y-125499654D01*
X222868571Y-125803494D01*
X222305471Y-126365612D01*
X222000348Y-127100430D01*
X221999654Y-127896079D01*
X222300000Y-128622973D01*
X222300000Y-133908831D01*
X221755428Y-134133843D01*
X221136018Y-134752173D01*
X220800382Y-135560473D01*
X220799619Y-136435687D01*
X221133843Y-137244572D01*
X221300000Y-137411019D01*
X221300000Y-143295837D01*
X221119346Y-143476491D01*
X219600000Y-143476491D01*
X219155307Y-143560166D01*
X218746883Y-143822979D01*
X218472886Y-144223986D01*
X218376491Y-144700000D01*
X218376491Y-146219346D01*
X217520000Y-147075837D01*
X217520000Y-145541227D01*
X217360147Y-144737592D01*
X217120000Y-144378187D01*
X217120000Y-138959306D01*
X217532535Y-138341903D01*
X217700000Y-137500000D01*
X217532535Y-136658097D01*
X217055635Y-135944365D01*
X216341903Y-135467465D01*
X215500000Y-135300000D01*
X214658097Y-135467465D01*
X213944365Y-135944365D01*
X213864365Y-136024365D01*
X213387465Y-136738097D01*
X213220000Y-137580000D01*
X213387465Y-138421903D01*
X213720000Y-138919577D01*
X213720000Y-144378187D01*
X213479853Y-144737592D01*
X213320000Y-145541227D01*
X213320000Y-147458773D01*
X213479853Y-148262408D01*
X213839061Y-148800000D01*
X212113363Y-148800000D01*
X212426655Y-148372560D01*
X212640000Y-147500000D01*
X212640000Y-146600000D01*
X210440000Y-146600000D01*
X210440000Y-146620000D01*
X210240000Y-146620000D01*
X210240000Y-146600000D01*
X208040000Y-146600000D01*
X208040000Y-147500000D01*
X208253345Y-148372560D01*
X208566637Y-148800000D01*
X206840939Y-148800000D01*
X207200147Y-148262408D01*
X207360000Y-147458773D01*
X207360000Y-145541227D01*
X207351800Y-145500000D01*
X208040000Y-145500000D01*
X208040000Y-146400000D01*
X210240000Y-146400000D01*
X210240000Y-143652566D01*
X210440000Y-143652566D01*
X210440000Y-146400000D01*
X212640000Y-146400000D01*
X212640000Y-145500000D01*
X212426655Y-144627440D01*
X211895635Y-143902943D01*
X211127784Y-143436808D01*
X210798228Y-143346108D01*
X210440000Y-143652566D01*
X210240000Y-143652566D01*
X209881772Y-143346108D01*
X209552216Y-143436808D01*
X208784365Y-143902943D01*
X208253345Y-144627440D01*
X208040000Y-145500000D01*
X207351800Y-145500000D01*
X207200147Y-144737592D01*
X206960000Y-144378187D01*
X206960000Y-140604164D01*
X208455607Y-139108556D01*
X208765367Y-139046941D01*
X209414214Y-138613396D01*
X209847759Y-137964549D01*
X210000000Y-137199182D01*
X210000000Y-137120818D01*
X209847759Y-136355451D01*
X209414214Y-135706604D01*
X208765367Y-135273059D01*
X208000000Y-135120818D01*
X207234633Y-135273059D01*
X206954856Y-135460000D01*
X205124163Y-135460000D01*
X204900000Y-135235837D01*
X204900000Y-135192981D01*
X204717311Y-134274541D01*
X204197056Y-133495925D01*
X203418440Y-132975670D01*
X202500000Y-132792981D01*
X201581560Y-132975670D01*
X200802944Y-133495925D01*
X200282689Y-134274541D01*
X200100000Y-135192981D01*
X200100000Y-135287019D01*
X200282689Y-136205459D01*
X200802944Y-136984075D01*
X201581560Y-137504330D01*
X202500000Y-137687019D01*
X202535745Y-137679909D01*
X203217916Y-138362079D01*
X203217918Y-138362082D01*
X203625454Y-138634388D01*
X203769438Y-138730595D01*
X204004802Y-138777412D01*
X203689405Y-139249438D01*
X203559999Y-139900000D01*
X203560000Y-139900005D01*
X203560000Y-144378187D01*
X203319853Y-144737592D01*
X203160000Y-145541227D01*
X203160000Y-147458773D01*
X203319853Y-148262408D01*
X203679061Y-148800000D01*
X201880000Y-148800000D01*
X201880000Y-148621813D01*
X202120147Y-148262408D01*
X202280000Y-147458773D01*
X202280000Y-145541227D01*
X202120147Y-144737592D01*
X201664924Y-144056303D01*
X200983635Y-143601080D01*
X200180000Y-143441227D01*
X199376365Y-143601080D01*
X198695076Y-144056303D01*
X198239853Y-144737592D01*
X198080000Y-145541227D01*
X198080000Y-147458773D01*
X198239853Y-148262408D01*
X198480000Y-148621813D01*
X198480000Y-148800000D01*
X196873363Y-148800000D01*
X197186655Y-148372560D01*
X197400000Y-147500000D01*
X197400000Y-146600000D01*
X195200000Y-146600000D01*
X195200000Y-146620000D01*
X195000000Y-146620000D01*
X195000000Y-146600000D01*
X192800000Y-146600000D01*
X192800000Y-147500000D01*
X193013345Y-148372560D01*
X193326637Y-148800000D01*
X191600939Y-148800000D01*
X191960147Y-148262408D01*
X192120000Y-147458773D01*
X192120000Y-145541227D01*
X192111800Y-145500000D01*
X192800000Y-145500000D01*
X192800000Y-146400000D01*
X195000000Y-146400000D01*
X195000000Y-143652566D01*
X195200000Y-143652566D01*
X195200000Y-146400000D01*
X197400000Y-146400000D01*
X197400000Y-145500000D01*
X197186655Y-144627440D01*
X196655635Y-143902943D01*
X195887784Y-143436808D01*
X195558228Y-143346108D01*
X195200000Y-143652566D01*
X195000000Y-143652566D01*
X194641772Y-143346108D01*
X194312216Y-143436808D01*
X193544365Y-143902943D01*
X193013345Y-144627440D01*
X192800000Y-145500000D01*
X192111800Y-145500000D01*
X191960147Y-144737592D01*
X191504924Y-144056303D01*
X191200000Y-143852559D01*
X191200000Y-138621212D01*
X191499652Y-137899570D01*
X191500091Y-137396079D01*
X194999654Y-137396079D01*
X195303494Y-138131429D01*
X195865612Y-138694529D01*
X196600430Y-138999652D01*
X197396079Y-139000346D01*
X198131429Y-138696506D01*
X198694529Y-138134388D01*
X198999652Y-137399570D01*
X199000346Y-136603921D01*
X198696506Y-135868571D01*
X198134388Y-135305471D01*
X197399570Y-135000348D01*
X196603921Y-134999654D01*
X195868571Y-135303494D01*
X195305471Y-135865612D01*
X195000348Y-136600430D01*
X194999654Y-137396079D01*
X191500091Y-137396079D01*
X191500346Y-137103921D01*
X191196506Y-136368571D01*
X190634388Y-135805471D01*
X189899570Y-135500348D01*
X189103921Y-135499654D01*
X188368571Y-135803494D01*
X187805471Y-136365612D01*
X187500348Y-137100430D01*
X187499654Y-137896079D01*
X187800000Y-138622973D01*
X187800000Y-145979995D01*
X187799999Y-145980000D01*
X187920000Y-146583280D01*
X187920000Y-147458773D01*
X188079853Y-148262408D01*
X188439061Y-148800000D01*
X187704163Y-148800000D01*
X186927668Y-148023504D01*
X187040000Y-147458773D01*
X187040000Y-145541227D01*
X186880147Y-144737592D01*
X186424924Y-144056303D01*
X185743635Y-143601080D01*
X184940000Y-143441227D01*
X184393997Y-143549834D01*
X184200000Y-143355836D01*
X184200000Y-126800818D01*
X195000000Y-126800818D01*
X195000000Y-126879182D01*
X195152241Y-127644549D01*
X195585786Y-128293396D01*
X196234633Y-128726941D01*
X197000000Y-128879182D01*
X197765367Y-128726941D01*
X198045144Y-128540000D01*
X206428730Y-128540000D01*
X206444365Y-128555635D01*
X207158097Y-129032535D01*
X208000000Y-129200000D01*
X208841903Y-129032535D01*
X209555635Y-128555635D01*
X210032535Y-127841903D01*
X210200000Y-127000000D01*
X210032535Y-126158097D01*
X209555635Y-125444365D01*
X209395635Y-125284365D01*
X208681903Y-124807465D01*
X207840000Y-124640000D01*
X206998097Y-124807465D01*
X206500423Y-125140000D01*
X198045144Y-125140000D01*
X197765367Y-124953059D01*
X197000000Y-124800818D01*
X196234633Y-124953059D01*
X195585786Y-125386604D01*
X195152241Y-126035451D01*
X195000000Y-126800818D01*
X184200000Y-126800818D01*
X184200000Y-92192981D01*
X192100000Y-92192981D01*
X192100000Y-92287019D01*
X192282689Y-93205459D01*
X192800000Y-93979669D01*
X192800000Y-94557443D01*
X192799999Y-94557448D01*
X192929405Y-95208010D01*
X193297918Y-95759530D01*
X193310945Y-95772557D01*
X193310220Y-96602843D01*
X193720405Y-97595565D01*
X194479264Y-98355750D01*
X195471269Y-98767666D01*
X196545395Y-98768604D01*
X197538117Y-98358419D01*
X198298302Y-97599560D01*
X198710218Y-96607555D01*
X198711156Y-95533429D01*
X198300971Y-94540707D01*
X197542112Y-93780522D01*
X196595661Y-93387521D01*
X196717311Y-93205459D01*
X196900000Y-92287019D01*
X196900000Y-92192981D01*
X196717311Y-91274541D01*
X196197056Y-90495925D01*
X195418440Y-89975670D01*
X194500000Y-89792981D01*
X193581560Y-89975670D01*
X192802944Y-90495925D01*
X192282689Y-91274541D01*
X192100000Y-92192981D01*
X184200000Y-92192981D01*
X184200000Y-89700000D01*
X196743471Y-89700000D01*
X196886604Y-89914214D01*
X197535451Y-90347759D01*
X198300818Y-90500000D01*
X198379182Y-90500000D01*
X199144549Y-90347759D01*
X199793396Y-89914214D01*
X200226941Y-89265367D01*
X200379182Y-88500000D01*
X200226941Y-87734633D01*
X200058221Y-87482125D01*
X200091979Y-87496143D01*
X200799959Y-88204122D01*
X200799959Y-91841620D01*
X200212345Y-92428209D01*
X199800429Y-93420214D01*
X199799491Y-94494340D01*
X200209676Y-95487062D01*
X200968535Y-96247247D01*
X201960540Y-96659163D01*
X203034666Y-96660101D01*
X204027388Y-96249916D01*
X204787573Y-95491057D01*
X205199489Y-94499052D01*
X205199782Y-94163668D01*
X205240367Y-93959633D01*
X205200137Y-93757381D01*
X205200219Y-93663537D01*
X205663755Y-93200000D01*
X206878788Y-93200000D01*
X207600430Y-93499652D01*
X208134245Y-93500118D01*
X207461969Y-93777897D01*
X206701784Y-94536756D01*
X206289868Y-95528761D01*
X206289138Y-96364276D01*
X205853414Y-96800000D01*
X201000005Y-96800000D01*
X201000000Y-96799999D01*
X200349438Y-96929405D01*
X199797918Y-97297918D01*
X199797916Y-97297921D01*
X197797918Y-99297918D01*
X197429405Y-99849438D01*
X197299999Y-100500000D01*
X197300000Y-100500005D01*
X197300000Y-108795837D01*
X194808520Y-111287316D01*
X194605652Y-111590929D01*
X194483173Y-111641537D01*
X193722988Y-112400396D01*
X193311072Y-113392401D01*
X193310134Y-114466527D01*
X193720319Y-115459249D01*
X194479178Y-116219434D01*
X195471183Y-116631350D01*
X196545309Y-116632288D01*
X197538031Y-116222103D01*
X198298216Y-115463244D01*
X198710132Y-114471239D01*
X198711070Y-113397113D01*
X198359036Y-112545127D01*
X200202079Y-110702084D01*
X200202082Y-110702082D01*
X200570595Y-110150562D01*
X200573921Y-110133843D01*
X200700001Y-109500000D01*
X200700000Y-109499995D01*
X200700000Y-106664706D01*
X201110375Y-107075798D01*
X202010527Y-107449573D01*
X202985197Y-107450424D01*
X203886000Y-107078220D01*
X204575798Y-106389625D01*
X204949573Y-105489473D01*
X204950424Y-104514803D01*
X204578220Y-103614000D01*
X203889625Y-102924202D01*
X202989473Y-102550427D01*
X202014803Y-102549576D01*
X201114000Y-102921780D01*
X200700000Y-103335058D01*
X200700000Y-101204164D01*
X201704163Y-100200000D01*
X206557573Y-100200000D01*
X206557578Y-100200001D01*
X207208140Y-100070595D01*
X207759660Y-99702082D01*
X208693819Y-98767923D01*
X209524105Y-98768648D01*
X210516827Y-98358463D01*
X211277012Y-97599604D01*
X211688928Y-96607599D01*
X211689866Y-95533473D01*
X211279681Y-94540751D01*
X210520822Y-93780566D01*
X209528817Y-93368650D01*
X208716525Y-93367941D01*
X209131429Y-93196506D01*
X209694529Y-92634388D01*
X209999652Y-91899570D01*
X210000346Y-91103921D01*
X209696506Y-90368571D01*
X209555896Y-90227715D01*
X209631429Y-90196506D01*
X210194529Y-89634388D01*
X210499652Y-88899570D01*
X210500346Y-88103921D01*
X210414468Y-87896079D01*
X216499654Y-87896079D01*
X216803494Y-88631429D01*
X217365612Y-89194529D01*
X218100430Y-89499652D01*
X218896079Y-89500346D01*
X219622973Y-89200000D01*
X223788799Y-89200000D01*
X223822979Y-89253117D01*
X224223986Y-89527114D01*
X224700000Y-89623509D01*
X228300000Y-89623509D01*
X228744693Y-89539834D01*
X229153117Y-89277021D01*
X229427114Y-88876014D01*
X229523509Y-88400000D01*
X229523509Y-86600000D01*
X229439834Y-86155307D01*
X229177021Y-85746883D01*
X228776014Y-85472886D01*
X228300000Y-85376491D01*
X224700000Y-85376491D01*
X224255307Y-85460166D01*
X223846883Y-85722979D01*
X223794257Y-85800000D01*
X219621212Y-85800000D01*
X218899570Y-85500348D01*
X218103921Y-85499654D01*
X217368571Y-85803494D01*
X216805471Y-86365612D01*
X216500348Y-87100430D01*
X216499654Y-87896079D01*
X210414468Y-87896079D01*
X210196506Y-87368571D01*
X209634388Y-86805471D01*
X208908020Y-86503857D01*
X207200000Y-84795836D01*
X207200000Y-80896079D01*
X208499654Y-80896079D01*
X208803494Y-81631429D01*
X209365612Y-82194529D01*
X210100430Y-82499652D01*
X210896079Y-82500346D01*
X211622973Y-82200000D01*
X213999995Y-82200000D01*
X214000000Y-82200001D01*
X214650562Y-82070595D01*
X215202082Y-81702082D01*
X219365935Y-77538228D01*
X223346108Y-77538228D01*
X223436808Y-77867784D01*
X223902943Y-78635635D01*
X224627440Y-79166655D01*
X225500000Y-79380000D01*
X226400000Y-79380000D01*
X226400000Y-77180000D01*
X226600000Y-77180000D01*
X226600000Y-79380000D01*
X227500000Y-79380000D01*
X228372560Y-79166655D01*
X229097057Y-78635635D01*
X229563192Y-77867784D01*
X229653892Y-77538228D01*
X229347434Y-77180000D01*
X226600000Y-77180000D01*
X226400000Y-77180000D01*
X223652566Y-77180000D01*
X223346108Y-77538228D01*
X219365935Y-77538228D01*
X220282391Y-76621772D01*
X223346108Y-76621772D01*
X223652566Y-76980000D01*
X226400000Y-76980000D01*
X226400000Y-74780000D01*
X226600000Y-74780000D01*
X226600000Y-76980000D01*
X229347434Y-76980000D01*
X229653892Y-76621772D01*
X229563192Y-76292216D01*
X229097057Y-75524365D01*
X228372560Y-74993345D01*
X227500000Y-74780000D01*
X226600000Y-74780000D01*
X226400000Y-74780000D01*
X225500000Y-74780000D01*
X224627440Y-74993345D01*
X223902943Y-75524365D01*
X223436808Y-76292216D01*
X223346108Y-76621772D01*
X220282391Y-76621772D01*
X223204163Y-73700000D01*
X223788799Y-73700000D01*
X223822979Y-73753117D01*
X224223986Y-74027114D01*
X224700000Y-74123509D01*
X228300000Y-74123509D01*
X228744693Y-74039834D01*
X229153117Y-73777021D01*
X229427114Y-73376014D01*
X229523509Y-72900000D01*
X229523509Y-71100000D01*
X229439834Y-70655307D01*
X229177021Y-70246883D01*
X228776014Y-69972886D01*
X228300000Y-69876491D01*
X224700000Y-69876491D01*
X224255307Y-69960166D01*
X223846883Y-70222979D01*
X223794257Y-70300000D01*
X222500000Y-70300000D01*
X221849438Y-70429405D01*
X221297918Y-70797918D01*
X221297916Y-70797921D01*
X213295836Y-78800000D01*
X211621212Y-78800000D01*
X210899570Y-78500348D01*
X210103921Y-78499654D01*
X209368571Y-78803494D01*
X208805471Y-79365612D01*
X208500348Y-80100430D01*
X208499654Y-80896079D01*
X207200000Y-80896079D01*
X207200000Y-64911523D01*
X207363982Y-64747827D01*
X207699618Y-63939527D01*
X207699823Y-63704341D01*
X208276491Y-63127673D01*
X208276491Y-64500000D01*
X208360166Y-64944693D01*
X208622979Y-65353117D01*
X208800000Y-65474071D01*
X208800000Y-69314314D01*
X208652241Y-69535451D01*
X208500000Y-70300818D01*
X208500000Y-70379182D01*
X208652241Y-71144549D01*
X209085786Y-71793396D01*
X209734633Y-72226941D01*
X210500000Y-72379182D01*
X211265367Y-72226941D01*
X211914214Y-71793396D01*
X212347759Y-71144549D01*
X212500000Y-70379182D01*
X212500000Y-70300818D01*
X212347759Y-69535451D01*
X212200000Y-69314314D01*
X212200000Y-65638824D01*
X224502598Y-65638824D01*
X224824745Y-66352302D01*
X226502598Y-67082839D01*
X228332297Y-67115681D01*
X230035287Y-66445826D01*
X230175255Y-66352302D01*
X230497402Y-65638824D01*
X227500000Y-62641421D01*
X224502598Y-65638824D01*
X212200000Y-65638824D01*
X212200000Y-65475549D01*
X212353117Y-65377021D01*
X212627114Y-64976014D01*
X212723509Y-64500000D01*
X212723509Y-63332297D01*
X222884319Y-63332297D01*
X223554174Y-65035287D01*
X223647698Y-65175255D01*
X224361176Y-65497402D01*
X227358579Y-62500000D01*
X224361176Y-59502598D01*
X223647698Y-59824745D01*
X222917161Y-61502598D01*
X222884319Y-63332297D01*
X212723509Y-63332297D01*
X212723509Y-62500000D01*
X212639834Y-62055307D01*
X212411201Y-61700000D01*
X217454856Y-61700000D01*
X217734633Y-61886941D01*
X218500000Y-62039182D01*
X219265367Y-61886941D01*
X219914214Y-61453396D01*
X220347759Y-60804549D01*
X220500000Y-60039182D01*
X220500000Y-59960818D01*
X220347759Y-59195451D01*
X220066823Y-58775000D01*
X224767266Y-58775000D01*
X224502598Y-59361176D01*
X224502598Y-59361176D01*
G37*
X224502598Y-59361176D02*
X227500000Y-62358579D01*
X230497402Y-59361176D01*
X230232734Y-58775000D01*
X231225000Y-58775000D01*
X231225000Y-59767266D01*
X230638824Y-59502598D01*
X227641421Y-62500000D01*
X230638824Y-65497402D01*
X231225000Y-65232734D01*
X231225000Y-99332217D01*
X231202082Y-99297918D01*
X231202079Y-99297916D01*
X227702082Y-95797918D01*
X227150562Y-95429405D01*
X226500000Y-95299999D01*
X226499995Y-95300000D01*
X222694120Y-95300000D01*
X222361266Y-94966565D01*
X221479484Y-94600417D01*
X220524705Y-94599584D01*
X219860000Y-94874234D01*
X219860000Y-93038228D01*
X223346108Y-93038228D01*
X223436808Y-93367784D01*
X223902943Y-94135635D01*
X224627440Y-94666655D01*
X225500000Y-94880000D01*
X226400000Y-94880000D01*
X226400000Y-92680000D01*
X226600000Y-92680000D01*
X226600000Y-94880000D01*
X227500000Y-94880000D01*
X228372560Y-94666655D01*
X229097057Y-94135635D01*
X229563192Y-93367784D01*
X229653892Y-93038228D01*
X229347434Y-92680000D01*
X226600000Y-92680000D01*
X226400000Y-92680000D01*
X223652566Y-92680000D01*
X223346108Y-93038228D01*
X219860000Y-93038228D01*
X219860000Y-92545144D01*
X220046941Y-92265367D01*
X220075503Y-92121772D01*
X223346108Y-92121772D01*
X223652566Y-92480000D01*
X226400000Y-92480000D01*
X226400000Y-90280000D01*
X226600000Y-90280000D01*
X226600000Y-92480000D01*
X229347434Y-92480000D01*
X229653892Y-92121772D01*
X229563192Y-91792216D01*
X229097057Y-91024365D01*
X228372560Y-90493345D01*
X227500000Y-90280000D01*
X226600000Y-90280000D01*
X226400000Y-90280000D01*
X225500000Y-90280000D01*
X224627440Y-90493345D01*
X223902943Y-91024365D01*
X223436808Y-91792216D01*
X223346108Y-92121772D01*
X220075503Y-92121772D01*
X220199182Y-91500000D01*
X220046941Y-90734633D01*
X219613396Y-90085786D01*
X218964549Y-89652241D01*
X218199182Y-89500000D01*
X218120818Y-89500000D01*
X217355451Y-89652241D01*
X216706604Y-90085786D01*
X216273059Y-90734633D01*
X216120818Y-91500000D01*
X216273059Y-92265367D01*
X216460000Y-92545144D01*
X216460000Y-98659995D01*
X216459999Y-98660000D01*
X216589405Y-99310562D01*
X216631828Y-99374052D01*
X216234633Y-99453059D01*
X215585786Y-99886604D01*
X215358693Y-100226473D01*
X215290264Y-100060863D01*
X214531405Y-99300678D01*
X213539400Y-98888762D01*
X212465274Y-98887824D01*
X211472552Y-99298009D01*
X210712367Y-100056868D01*
X210300451Y-101048873D01*
X210299513Y-102122999D01*
X210709698Y-103115721D01*
X211468557Y-103875906D01*
X212460562Y-104287822D01*
X213534688Y-104288760D01*
X214527410Y-103878575D01*
X215287595Y-103119716D01*
X215485449Y-102643231D01*
X215585786Y-102793396D01*
X216234633Y-103226941D01*
X217000000Y-103379182D01*
X217765367Y-103226941D01*
X218300000Y-102869711D01*
X218300000Y-103795837D01*
X215797918Y-106297918D01*
X215429405Y-106849438D01*
X215299999Y-107500000D01*
X215300000Y-107500005D01*
X215300000Y-110378788D01*
X215000348Y-111100430D01*
X214999654Y-111896079D01*
X215303494Y-112631429D01*
X215865612Y-113194529D01*
X216600430Y-113499652D01*
X217335543Y-113500293D01*
X215535836Y-115300000D01*
X215500000Y-115300000D01*
X214658096Y-115467465D01*
X214160422Y-115800000D01*
X213262114Y-115800000D01*
X211689178Y-114227063D01*
X211689903Y-113396777D01*
X211279718Y-112404055D01*
X210520859Y-111643870D01*
X209528854Y-111231954D01*
X208454728Y-111231016D01*
X207462006Y-111641201D01*
X206701821Y-112400060D01*
X206289905Y-113392065D01*
X206288967Y-114466191D01*
X206699152Y-115458913D01*
X207289435Y-116050227D01*
X207289435Y-119806402D01*
X205795836Y-121300000D01*
X204558875Y-121300000D01*
X204899583Y-120479484D01*
X204900416Y-119524705D01*
X204700000Y-119039661D01*
X204700000Y-117659293D01*
X204787655Y-117571791D01*
X205199571Y-116579786D01*
X205200509Y-115505660D01*
X204790324Y-114512938D01*
X204031465Y-113752753D01*
X203039460Y-113340837D01*
X201965334Y-113339899D01*
X200972612Y-113750084D01*
X200212427Y-114508943D01*
X199800511Y-115500948D01*
X199799573Y-116575074D01*
X200209758Y-117567796D01*
X200300000Y-117658196D01*
X200300000Y-119039867D01*
X200100417Y-119520516D01*
X200099584Y-120475295D01*
X200440345Y-121300000D01*
X190704163Y-121300000D01*
X188805127Y-119400963D01*
X189500000Y-119539182D01*
X190265367Y-119386941D01*
X190914214Y-118953396D01*
X191347759Y-118304549D01*
X191500000Y-117539182D01*
X191500000Y-117460818D01*
X191347759Y-116695451D01*
X191200000Y-116474314D01*
X191200000Y-111003028D01*
X191460600Y-111111238D01*
X192534726Y-111112176D01*
X193527448Y-110701991D01*
X194287633Y-109943132D01*
X194699549Y-108951127D01*
X194700487Y-107877001D01*
X194290302Y-106884279D01*
X194200019Y-106793838D01*
X194200019Y-103207151D01*
X194287570Y-103119753D01*
X194699486Y-102127748D01*
X194700424Y-101053622D01*
X194290239Y-100060900D01*
X193531380Y-99300715D01*
X192539375Y-98888799D01*
X191465249Y-98887861D01*
X190472527Y-99298046D01*
X189712342Y-100056905D01*
X189300426Y-101048910D01*
X189299488Y-102123036D01*
X189709673Y-103115758D01*
X189800019Y-103206262D01*
X189800019Y-106792823D01*
X189712405Y-106880284D01*
X189440139Y-107535975D01*
X188700000Y-106795836D01*
X188700000Y-103411523D01*
X188863982Y-103247827D01*
X189199618Y-102439527D01*
X189200381Y-101564313D01*
X188866157Y-100755428D01*
X188247827Y-100136018D01*
X187439527Y-99800382D01*
X186564313Y-99799619D01*
X185755428Y-100133843D01*
X185136018Y-100752173D01*
X184800382Y-101560473D01*
X184799619Y-102435687D01*
X185133843Y-103244572D01*
X185300000Y-103411019D01*
X185300000Y-107499995D01*
X185299999Y-107500000D01*
X185429405Y-108150562D01*
X185797918Y-108702082D01*
X186895744Y-109799908D01*
X186564313Y-109799619D01*
X185755428Y-110133843D01*
X185136018Y-110752173D01*
X184800382Y-111560473D01*
X184799619Y-112435687D01*
X185133843Y-113244572D01*
X185300000Y-113411019D01*
X185300000Y-119999995D01*
X185299999Y-120000000D01*
X185429405Y-120650562D01*
X185797918Y-121202082D01*
X188797916Y-124202079D01*
X188797918Y-124202082D01*
X189349438Y-124570595D01*
X189457374Y-124592065D01*
X190000000Y-124700001D01*
X190000005Y-124700000D01*
X206499995Y-124700000D01*
X206500000Y-124700001D01*
X207150562Y-124570595D01*
X207702082Y-124202082D01*
X210191514Y-121712649D01*
X210191517Y-121712647D01*
X210560030Y-121161127D01*
X210581500Y-121053191D01*
X210689436Y-120510565D01*
X210689435Y-120510560D01*
X210689435Y-118035647D01*
X211355867Y-118702079D01*
X211355869Y-118702082D01*
X211907389Y-119070595D01*
X212015325Y-119092065D01*
X212557951Y-119200001D01*
X212557956Y-119200000D01*
X214160422Y-119200000D01*
X214658096Y-119532535D01*
X215500000Y-119700000D01*
X215740000Y-119700000D01*
X216581904Y-119532535D01*
X217295635Y-119055635D01*
X217772535Y-118341904D01*
X217889306Y-117754858D01*
X220964254Y-114679909D01*
X221000000Y-114687019D01*
X221918440Y-114504330D01*
X222697056Y-113984075D01*
X223217311Y-113205459D01*
X223400000Y-112287019D01*
X223400000Y-112192981D01*
X223217311Y-111274541D01*
X222697056Y-110495925D01*
X221918440Y-109975670D01*
X221000000Y-109792981D01*
X220081560Y-109975670D01*
X219302944Y-110495925D01*
X218960741Y-111008068D01*
X218700000Y-110377027D01*
X218700000Y-108204164D01*
X221202079Y-105702084D01*
X221202082Y-105702082D01*
X221570595Y-105150562D01*
X221625206Y-104876014D01*
X221700001Y-104500000D01*
X221700000Y-104499995D01*
X221700000Y-100500005D01*
X221700001Y-100500000D01*
X221570595Y-99849438D01*
X221374431Y-99555857D01*
X221270449Y-99400237D01*
X221475295Y-99400416D01*
X222357715Y-99035808D01*
X222694109Y-98700000D01*
X225795836Y-98700000D01*
X228300000Y-101204163D01*
X228300000Y-101376491D01*
X224700000Y-101376491D01*
X224255307Y-101460166D01*
X223846883Y-101722979D01*
X223572886Y-102123986D01*
X223476491Y-102600000D01*
X223476491Y-104400000D01*
X223560166Y-104844693D01*
X223822979Y-105253117D01*
X224223986Y-105527114D01*
X224700000Y-105623509D01*
X228300000Y-105623509D01*
X228300000Y-106664971D01*
X228262408Y-106639853D01*
X227458773Y-106480000D01*
X225541227Y-106480000D01*
X224737592Y-106639853D01*
X224056303Y-107095076D01*
X223601080Y-107776365D01*
X223441227Y-108580000D01*
X223601080Y-109383635D01*
X224056303Y-110064924D01*
X224737592Y-110520147D01*
X225541227Y-110680000D01*
X227458773Y-110680000D01*
X228262408Y-110520147D01*
X228300000Y-110495029D01*
X228300000Y-111635837D01*
X227544392Y-112391444D01*
X227234633Y-112453059D01*
X226585786Y-112886604D01*
X226152241Y-113535451D01*
X226000000Y-114300818D01*
X226000000Y-114379182D01*
X226152241Y-115144549D01*
X226585786Y-115793396D01*
X227234633Y-116226941D01*
X228000000Y-116379182D01*
X228765367Y-116226941D01*
X229414214Y-115793396D01*
X229847759Y-115144549D01*
X229909374Y-114834790D01*
X231202079Y-113542084D01*
X231202082Y-113542082D01*
X231225000Y-113507783D01*
X231225000Y-151225000D01*
X218179164Y-151225000D01*
X219880654Y-149523509D01*
X221400000Y-149523509D01*
X221844693Y-149439834D01*
X222253117Y-149177021D01*
X222527114Y-148776014D01*
X222623509Y-148300000D01*
X222623509Y-148054511D01*
X224699515Y-148054511D01*
X225124892Y-149084000D01*
X225911857Y-149872340D01*
X226940602Y-150299513D01*
X228054511Y-150300485D01*
X229084000Y-149875108D01*
X229872340Y-149088143D01*
X230299513Y-148059398D01*
X230300485Y-146945489D01*
X229875108Y-145916000D01*
X229088143Y-145127660D01*
X228059398Y-144700487D01*
X226945489Y-144699515D01*
X225916000Y-145124892D01*
X225127660Y-145911857D01*
X224700487Y-146940602D01*
X224699515Y-148054511D01*
X222623509Y-148054511D01*
X222623509Y-146780655D01*
X224202079Y-145202084D01*
X224202082Y-145202082D01*
X224570595Y-144650562D01*
X224575194Y-144627440D01*
X224700001Y-144000000D01*
X224700000Y-143999995D01*
X224700000Y-137411523D01*
X224863982Y-137247827D01*
X225199618Y-136439527D01*
X225199823Y-136204340D01*
X225202079Y-136202084D01*
X225202082Y-136202082D01*
X225570595Y-135650562D01*
X225592065Y-135542626D01*
X225700001Y-135000000D01*
X225700000Y-134999995D01*
X225700000Y-128849251D01*
X225921780Y-129386000D01*
X226300000Y-129764881D01*
X226300000Y-134024451D01*
X226146883Y-134122979D01*
X225872886Y-134523986D01*
X225776491Y-135000000D01*
X225776491Y-137000000D01*
X225860166Y-137444693D01*
X226122979Y-137853117D01*
X226523986Y-138127114D01*
X227000000Y-138223509D01*
X229000000Y-138223509D01*
X229444693Y-138139834D01*
X229853117Y-137877021D01*
X230127114Y-137476014D01*
X230223509Y-137000000D01*
X230223509Y-135000000D01*
X230139834Y-134555307D01*
X229877021Y-134146883D01*
X229700000Y-134025929D01*
X229700000Y-129764768D01*
X230075798Y-129389625D01*
X230449573Y-128489473D01*
X230450424Y-127514803D01*
X230078220Y-126614000D01*
X229700000Y-126235119D01*
X229700000Y-125621212D01*
X229999652Y-124899570D01*
X230000346Y-124103921D01*
X229696506Y-123368571D01*
X229134388Y-122805471D01*
X228408020Y-122503857D01*
X225700000Y-119795836D01*
X225700000Y-118365686D01*
X225847759Y-118144549D01*
X226000000Y-117379182D01*
X226000000Y-117300818D01*
X225847759Y-116535451D01*
X225414214Y-115886604D01*
X224765367Y-115453059D01*
X224000000Y-115300818D01*
X223234633Y-115453059D01*
X222585786Y-115886604D01*
X222152241Y-116535451D01*
X222000000Y-117300818D01*
X222000000Y-117379182D01*
X222152241Y-118144549D01*
X222300000Y-118365686D01*
X222300000Y-120499995D01*
X222299999Y-120500000D01*
X222429405Y-121150562D01*
X222797918Y-121702082D01*
X226005103Y-124909266D01*
X226300000Y-125622973D01*
X226300000Y-126235232D01*
X225924202Y-126610375D01*
X225860152Y-126764625D01*
X225696506Y-126368571D01*
X225134388Y-125805471D01*
X224399570Y-125500348D01*
X223603921Y-125499654D01*
X222868571Y-125803494D01*
X222305471Y-126365612D01*
X222000348Y-127100430D01*
X221999654Y-127896079D01*
X222300000Y-128622973D01*
X222300000Y-133908831D01*
X221755428Y-134133843D01*
X221136018Y-134752173D01*
X220800382Y-135560473D01*
X220799619Y-136435687D01*
X221133843Y-137244572D01*
X221300000Y-137411019D01*
X221300000Y-143295837D01*
X221119346Y-143476491D01*
X219600000Y-143476491D01*
X219155307Y-143560166D01*
X218746883Y-143822979D01*
X218472886Y-144223986D01*
X218376491Y-144700000D01*
X218376491Y-146219346D01*
X217520000Y-147075837D01*
X217520000Y-145541227D01*
X217360147Y-144737592D01*
X217120000Y-144378187D01*
X217120000Y-138959306D01*
X217532535Y-138341903D01*
X217700000Y-137500000D01*
X217532535Y-136658097D01*
X217055635Y-135944365D01*
X216341903Y-135467465D01*
X215500000Y-135300000D01*
X214658097Y-135467465D01*
X213944365Y-135944365D01*
X213864365Y-136024365D01*
X213387465Y-136738097D01*
X213220000Y-137580000D01*
X213387465Y-138421903D01*
X213720000Y-138919577D01*
X213720000Y-144378187D01*
X213479853Y-144737592D01*
X213320000Y-145541227D01*
X213320000Y-147458773D01*
X213479853Y-148262408D01*
X213839061Y-148800000D01*
X212113363Y-148800000D01*
X212426655Y-148372560D01*
X212640000Y-147500000D01*
X212640000Y-146600000D01*
X210440000Y-146600000D01*
X210440000Y-146620000D01*
X210240000Y-146620000D01*
X210240000Y-146600000D01*
X208040000Y-146600000D01*
X208040000Y-147500000D01*
X208253345Y-148372560D01*
X208566637Y-148800000D01*
X206840939Y-148800000D01*
X207200147Y-148262408D01*
X207360000Y-147458773D01*
X207360000Y-145541227D01*
X207351800Y-145500000D01*
X208040000Y-145500000D01*
X208040000Y-146400000D01*
X210240000Y-146400000D01*
X210240000Y-143652566D01*
X210440000Y-143652566D01*
X210440000Y-146400000D01*
X212640000Y-146400000D01*
X212640000Y-145500000D01*
X212426655Y-144627440D01*
X211895635Y-143902943D01*
X211127784Y-143436808D01*
X210798228Y-143346108D01*
X210440000Y-143652566D01*
X210240000Y-143652566D01*
X209881772Y-143346108D01*
X209552216Y-143436808D01*
X208784365Y-143902943D01*
X208253345Y-144627440D01*
X208040000Y-145500000D01*
X207351800Y-145500000D01*
X207200147Y-144737592D01*
X206960000Y-144378187D01*
X206960000Y-140604164D01*
X208455607Y-139108556D01*
X208765367Y-139046941D01*
X209414214Y-138613396D01*
X209847759Y-137964549D01*
X210000000Y-137199182D01*
X210000000Y-137120818D01*
X209847759Y-136355451D01*
X209414214Y-135706604D01*
X208765367Y-135273059D01*
X208000000Y-135120818D01*
X207234633Y-135273059D01*
X206954856Y-135460000D01*
X205124163Y-135460000D01*
X204900000Y-135235837D01*
X204900000Y-135192981D01*
X204717311Y-134274541D01*
X204197056Y-133495925D01*
X203418440Y-132975670D01*
X202500000Y-132792981D01*
X201581560Y-132975670D01*
X200802944Y-133495925D01*
X200282689Y-134274541D01*
X200100000Y-135192981D01*
X200100000Y-135287019D01*
X200282689Y-136205459D01*
X200802944Y-136984075D01*
X201581560Y-137504330D01*
X202500000Y-137687019D01*
X202535745Y-137679909D01*
X203217916Y-138362079D01*
X203217918Y-138362082D01*
X203625454Y-138634388D01*
X203769438Y-138730595D01*
X204004802Y-138777412D01*
X203689405Y-139249438D01*
X203559999Y-139900000D01*
X203560000Y-139900005D01*
X203560000Y-144378187D01*
X203319853Y-144737592D01*
X203160000Y-145541227D01*
X203160000Y-147458773D01*
X203319853Y-148262408D01*
X203679061Y-148800000D01*
X201880000Y-148800000D01*
X201880000Y-148621813D01*
X202120147Y-148262408D01*
X202280000Y-147458773D01*
X202280000Y-145541227D01*
X202120147Y-144737592D01*
X201664924Y-144056303D01*
X200983635Y-143601080D01*
X200180000Y-143441227D01*
X199376365Y-143601080D01*
X198695076Y-144056303D01*
X198239853Y-144737592D01*
X198080000Y-145541227D01*
X198080000Y-147458773D01*
X198239853Y-148262408D01*
X198480000Y-148621813D01*
X198480000Y-148800000D01*
X196873363Y-148800000D01*
X197186655Y-148372560D01*
X197400000Y-147500000D01*
X197400000Y-146600000D01*
X195200000Y-146600000D01*
X195200000Y-146620000D01*
X195000000Y-146620000D01*
X195000000Y-146600000D01*
X192800000Y-146600000D01*
X192800000Y-147500000D01*
X193013345Y-148372560D01*
X193326637Y-148800000D01*
X191600939Y-148800000D01*
X191960147Y-148262408D01*
X192120000Y-147458773D01*
X192120000Y-145541227D01*
X192111800Y-145500000D01*
X192800000Y-145500000D01*
X192800000Y-146400000D01*
X195000000Y-146400000D01*
X195000000Y-143652566D01*
X195200000Y-143652566D01*
X195200000Y-146400000D01*
X197400000Y-146400000D01*
X197400000Y-145500000D01*
X197186655Y-144627440D01*
X196655635Y-143902943D01*
X195887784Y-143436808D01*
X195558228Y-143346108D01*
X195200000Y-143652566D01*
X195000000Y-143652566D01*
X194641772Y-143346108D01*
X194312216Y-143436808D01*
X193544365Y-143902943D01*
X193013345Y-144627440D01*
X192800000Y-145500000D01*
X192111800Y-145500000D01*
X191960147Y-144737592D01*
X191504924Y-144056303D01*
X191200000Y-143852559D01*
X191200000Y-138621212D01*
X191499652Y-137899570D01*
X191500091Y-137396079D01*
X194999654Y-137396079D01*
X195303494Y-138131429D01*
X195865612Y-138694529D01*
X196600430Y-138999652D01*
X197396079Y-139000346D01*
X198131429Y-138696506D01*
X198694529Y-138134388D01*
X198999652Y-137399570D01*
X199000346Y-136603921D01*
X198696506Y-135868571D01*
X198134388Y-135305471D01*
X197399570Y-135000348D01*
X196603921Y-134999654D01*
X195868571Y-135303494D01*
X195305471Y-135865612D01*
X195000348Y-136600430D01*
X194999654Y-137396079D01*
X191500091Y-137396079D01*
X191500346Y-137103921D01*
X191196506Y-136368571D01*
X190634388Y-135805471D01*
X189899570Y-135500348D01*
X189103921Y-135499654D01*
X188368571Y-135803494D01*
X187805471Y-136365612D01*
X187500348Y-137100430D01*
X187499654Y-137896079D01*
X187800000Y-138622973D01*
X187800000Y-145979995D01*
X187799999Y-145980000D01*
X187920000Y-146583280D01*
X187920000Y-147458773D01*
X188079853Y-148262408D01*
X188439061Y-148800000D01*
X187704163Y-148800000D01*
X186927668Y-148023504D01*
X187040000Y-147458773D01*
X187040000Y-145541227D01*
X186880147Y-144737592D01*
X186424924Y-144056303D01*
X185743635Y-143601080D01*
X184940000Y-143441227D01*
X184393997Y-143549834D01*
X184200000Y-143355836D01*
X184200000Y-126800818D01*
X195000000Y-126800818D01*
X195000000Y-126879182D01*
X195152241Y-127644549D01*
X195585786Y-128293396D01*
X196234633Y-128726941D01*
X197000000Y-128879182D01*
X197765367Y-128726941D01*
X198045144Y-128540000D01*
X206428730Y-128540000D01*
X206444365Y-128555635D01*
X207158097Y-129032535D01*
X208000000Y-129200000D01*
X208841903Y-129032535D01*
X209555635Y-128555635D01*
X210032535Y-127841903D01*
X210200000Y-127000000D01*
X210032535Y-126158097D01*
X209555635Y-125444365D01*
X209395635Y-125284365D01*
X208681903Y-124807465D01*
X207840000Y-124640000D01*
X206998097Y-124807465D01*
X206500423Y-125140000D01*
X198045144Y-125140000D01*
X197765367Y-124953059D01*
X197000000Y-124800818D01*
X196234633Y-124953059D01*
X195585786Y-125386604D01*
X195152241Y-126035451D01*
X195000000Y-126800818D01*
X184200000Y-126800818D01*
X184200000Y-92192981D01*
X192100000Y-92192981D01*
X192100000Y-92287019D01*
X192282689Y-93205459D01*
X192800000Y-93979669D01*
X192800000Y-94557443D01*
X192799999Y-94557448D01*
X192929405Y-95208010D01*
X193297918Y-95759530D01*
X193310945Y-95772557D01*
X193310220Y-96602843D01*
X193720405Y-97595565D01*
X194479264Y-98355750D01*
X195471269Y-98767666D01*
X196545395Y-98768604D01*
X197538117Y-98358419D01*
X198298302Y-97599560D01*
X198710218Y-96607555D01*
X198711156Y-95533429D01*
X198300971Y-94540707D01*
X197542112Y-93780522D01*
X196595661Y-93387521D01*
X196717311Y-93205459D01*
X196900000Y-92287019D01*
X196900000Y-92192981D01*
X196717311Y-91274541D01*
X196197056Y-90495925D01*
X195418440Y-89975670D01*
X194500000Y-89792981D01*
X193581560Y-89975670D01*
X192802944Y-90495925D01*
X192282689Y-91274541D01*
X192100000Y-92192981D01*
X184200000Y-92192981D01*
X184200000Y-89700000D01*
X196743471Y-89700000D01*
X196886604Y-89914214D01*
X197535451Y-90347759D01*
X198300818Y-90500000D01*
X198379182Y-90500000D01*
X199144549Y-90347759D01*
X199793396Y-89914214D01*
X200226941Y-89265367D01*
X200379182Y-88500000D01*
X200226941Y-87734633D01*
X200058221Y-87482125D01*
X200091979Y-87496143D01*
X200799959Y-88204122D01*
X200799959Y-91841620D01*
X200212345Y-92428209D01*
X199800429Y-93420214D01*
X199799491Y-94494340D01*
X200209676Y-95487062D01*
X200968535Y-96247247D01*
X201960540Y-96659163D01*
X203034666Y-96660101D01*
X204027388Y-96249916D01*
X204787573Y-95491057D01*
X205199489Y-94499052D01*
X205199782Y-94163668D01*
X205240367Y-93959633D01*
X205200137Y-93757381D01*
X205200219Y-93663537D01*
X205663755Y-93200000D01*
X206878788Y-93200000D01*
X207600430Y-93499652D01*
X208134245Y-93500118D01*
X207461969Y-93777897D01*
X206701784Y-94536756D01*
X206289868Y-95528761D01*
X206289138Y-96364276D01*
X205853414Y-96800000D01*
X201000005Y-96800000D01*
X201000000Y-96799999D01*
X200349438Y-96929405D01*
X199797918Y-97297918D01*
X199797916Y-97297921D01*
X197797918Y-99297918D01*
X197429405Y-99849438D01*
X197299999Y-100500000D01*
X197300000Y-100500005D01*
X197300000Y-108795837D01*
X194808520Y-111287316D01*
X194605652Y-111590929D01*
X194483173Y-111641537D01*
X193722988Y-112400396D01*
X193311072Y-113392401D01*
X193310134Y-114466527D01*
X193720319Y-115459249D01*
X194479178Y-116219434D01*
X195471183Y-116631350D01*
X196545309Y-116632288D01*
X197538031Y-116222103D01*
X198298216Y-115463244D01*
X198710132Y-114471239D01*
X198711070Y-113397113D01*
X198359036Y-112545127D01*
X200202079Y-110702084D01*
X200202082Y-110702082D01*
X200570595Y-110150562D01*
X200573921Y-110133843D01*
X200700001Y-109500000D01*
X200700000Y-109499995D01*
X200700000Y-106664706D01*
X201110375Y-107075798D01*
X202010527Y-107449573D01*
X202985197Y-107450424D01*
X203886000Y-107078220D01*
X204575798Y-106389625D01*
X204949573Y-105489473D01*
X204950424Y-104514803D01*
X204578220Y-103614000D01*
X203889625Y-102924202D01*
X202989473Y-102550427D01*
X202014803Y-102549576D01*
X201114000Y-102921780D01*
X200700000Y-103335058D01*
X200700000Y-101204164D01*
X201704163Y-100200000D01*
X206557573Y-100200000D01*
X206557578Y-100200001D01*
X207208140Y-100070595D01*
X207759660Y-99702082D01*
X208693819Y-98767923D01*
X209524105Y-98768648D01*
X210516827Y-98358463D01*
X211277012Y-97599604D01*
X211688928Y-96607599D01*
X211689866Y-95533473D01*
X211279681Y-94540751D01*
X210520822Y-93780566D01*
X209528817Y-93368650D01*
X208716525Y-93367941D01*
X209131429Y-93196506D01*
X209694529Y-92634388D01*
X209999652Y-91899570D01*
X210000346Y-91103921D01*
X209696506Y-90368571D01*
X209555896Y-90227715D01*
X209631429Y-90196506D01*
X210194529Y-89634388D01*
X210499652Y-88899570D01*
X210500346Y-88103921D01*
X210414468Y-87896079D01*
X216499654Y-87896079D01*
X216803494Y-88631429D01*
X217365612Y-89194529D01*
X218100430Y-89499652D01*
X218896079Y-89500346D01*
X219622973Y-89200000D01*
X223788799Y-89200000D01*
X223822979Y-89253117D01*
X224223986Y-89527114D01*
X224700000Y-89623509D01*
X228300000Y-89623509D01*
X228744693Y-89539834D01*
X229153117Y-89277021D01*
X229427114Y-88876014D01*
X229523509Y-88400000D01*
X229523509Y-86600000D01*
X229439834Y-86155307D01*
X229177021Y-85746883D01*
X228776014Y-85472886D01*
X228300000Y-85376491D01*
X224700000Y-85376491D01*
X224255307Y-85460166D01*
X223846883Y-85722979D01*
X223794257Y-85800000D01*
X219621212Y-85800000D01*
X218899570Y-85500348D01*
X218103921Y-85499654D01*
X217368571Y-85803494D01*
X216805471Y-86365612D01*
X216500348Y-87100430D01*
X216499654Y-87896079D01*
X210414468Y-87896079D01*
X210196506Y-87368571D01*
X209634388Y-86805471D01*
X208908020Y-86503857D01*
X207200000Y-84795836D01*
X207200000Y-80896079D01*
X208499654Y-80896079D01*
X208803494Y-81631429D01*
X209365612Y-82194529D01*
X210100430Y-82499652D01*
X210896079Y-82500346D01*
X211622973Y-82200000D01*
X213999995Y-82200000D01*
X214000000Y-82200001D01*
X214650562Y-82070595D01*
X215202082Y-81702082D01*
X219365935Y-77538228D01*
X223346108Y-77538228D01*
X223436808Y-77867784D01*
X223902943Y-78635635D01*
X224627440Y-79166655D01*
X225500000Y-79380000D01*
X226400000Y-79380000D01*
X226400000Y-77180000D01*
X226600000Y-77180000D01*
X226600000Y-79380000D01*
X227500000Y-79380000D01*
X228372560Y-79166655D01*
X229097057Y-78635635D01*
X229563192Y-77867784D01*
X229653892Y-77538228D01*
X229347434Y-77180000D01*
X226600000Y-77180000D01*
X226400000Y-77180000D01*
X223652566Y-77180000D01*
X223346108Y-77538228D01*
X219365935Y-77538228D01*
X220282391Y-76621772D01*
X223346108Y-76621772D01*
X223652566Y-76980000D01*
X226400000Y-76980000D01*
X226400000Y-74780000D01*
X226600000Y-74780000D01*
X226600000Y-76980000D01*
X229347434Y-76980000D01*
X229653892Y-76621772D01*
X229563192Y-76292216D01*
X229097057Y-75524365D01*
X228372560Y-74993345D01*
X227500000Y-74780000D01*
X226600000Y-74780000D01*
X226400000Y-74780000D01*
X225500000Y-74780000D01*
X224627440Y-74993345D01*
X223902943Y-75524365D01*
X223436808Y-76292216D01*
X223346108Y-76621772D01*
X220282391Y-76621772D01*
X223204163Y-73700000D01*
X223788799Y-73700000D01*
X223822979Y-73753117D01*
X224223986Y-74027114D01*
X224700000Y-74123509D01*
X228300000Y-74123509D01*
X228744693Y-74039834D01*
X229153117Y-73777021D01*
X229427114Y-73376014D01*
X229523509Y-72900000D01*
X229523509Y-71100000D01*
X229439834Y-70655307D01*
X229177021Y-70246883D01*
X228776014Y-69972886D01*
X228300000Y-69876491D01*
X224700000Y-69876491D01*
X224255307Y-69960166D01*
X223846883Y-70222979D01*
X223794257Y-70300000D01*
X222500000Y-70300000D01*
X221849438Y-70429405D01*
X221297918Y-70797918D01*
X221297916Y-70797921D01*
X213295836Y-78800000D01*
X211621212Y-78800000D01*
X210899570Y-78500348D01*
X210103921Y-78499654D01*
X209368571Y-78803494D01*
X208805471Y-79365612D01*
X208500348Y-80100430D01*
X208499654Y-80896079D01*
X207200000Y-80896079D01*
X207200000Y-64911523D01*
X207363982Y-64747827D01*
X207699618Y-63939527D01*
X207699823Y-63704341D01*
X208276491Y-63127673D01*
X208276491Y-64500000D01*
X208360166Y-64944693D01*
X208622979Y-65353117D01*
X208800000Y-65474071D01*
X208800000Y-69314314D01*
X208652241Y-69535451D01*
X208500000Y-70300818D01*
X208500000Y-70379182D01*
X208652241Y-71144549D01*
X209085786Y-71793396D01*
X209734633Y-72226941D01*
X210500000Y-72379182D01*
X211265367Y-72226941D01*
X211914214Y-71793396D01*
X212347759Y-71144549D01*
X212500000Y-70379182D01*
X212500000Y-70300818D01*
X212347759Y-69535451D01*
X212200000Y-69314314D01*
X212200000Y-65638824D01*
X224502598Y-65638824D01*
X224824745Y-66352302D01*
X226502598Y-67082839D01*
X228332297Y-67115681D01*
X230035287Y-66445826D01*
X230175255Y-66352302D01*
X230497402Y-65638824D01*
X227500000Y-62641421D01*
X224502598Y-65638824D01*
X212200000Y-65638824D01*
X212200000Y-65475549D01*
X212353117Y-65377021D01*
X212627114Y-64976014D01*
X212723509Y-64500000D01*
X212723509Y-63332297D01*
X222884319Y-63332297D01*
X223554174Y-65035287D01*
X223647698Y-65175255D01*
X224361176Y-65497402D01*
X227358579Y-62500000D01*
X224361176Y-59502598D01*
X223647698Y-59824745D01*
X222917161Y-61502598D01*
X222884319Y-63332297D01*
X212723509Y-63332297D01*
X212723509Y-62500000D01*
X212639834Y-62055307D01*
X212411201Y-61700000D01*
X217454856Y-61700000D01*
X217734633Y-61886941D01*
X218500000Y-62039182D01*
X219265367Y-61886941D01*
X219914214Y-61453396D01*
X220347759Y-60804549D01*
X220500000Y-60039182D01*
X220500000Y-59960818D01*
X220347759Y-59195451D01*
X220066823Y-58775000D01*
X224767266Y-58775000D01*
X224502598Y-59361176D01*
G36*
X207797918Y-58797918D02*
X207797916Y-58797921D01*
X205296015Y-61299821D01*
X205064313Y-61299619D01*
X204255428Y-61633843D01*
X204088981Y-61800000D01*
X202500005Y-61800000D01*
X202500000Y-61799999D01*
X201849438Y-61929405D01*
X201297918Y-62297918D01*
X201297916Y-62297921D01*
X200044392Y-63551444D01*
X199734633Y-63613059D01*
X199085786Y-64046604D01*
X198652241Y-64695451D01*
X198500000Y-65460818D01*
X198500000Y-65539182D01*
X198652241Y-66304549D01*
X199085786Y-66953396D01*
X199734633Y-67386941D01*
X200500000Y-67539182D01*
X201265367Y-67386941D01*
X201914214Y-66953396D01*
X202347759Y-66304549D01*
X202409374Y-65994790D01*
X203204163Y-65200000D01*
X203800000Y-65200000D01*
X203800000Y-85499995D01*
X203799999Y-85500000D01*
X203929405Y-86150562D01*
X204297918Y-86702082D01*
X206505103Y-88909266D01*
X206803494Y-89631429D01*
X206944104Y-89772285D01*
X206877027Y-89800000D01*
X204959592Y-89800000D01*
X204309030Y-89929405D01*
X204199959Y-90002284D01*
X204199959Y-87499964D01*
X204199960Y-87499959D01*
X204070554Y-86849397D01*
X203938819Y-86652241D01*
X203702041Y-86297877D01*
X203702038Y-86297875D01*
X202494897Y-85090733D01*
X202196506Y-84368571D01*
X201634388Y-83805471D01*
X200899570Y-83500348D01*
X200103921Y-83499654D01*
X199368571Y-83803494D01*
X198805471Y-84365612D01*
X198500348Y-85100430D01*
X198499654Y-85896079D01*
X198782322Y-86580190D01*
X198688211Y-86561470D01*
X198490562Y-86429405D01*
X197840000Y-86299999D01*
X197839995Y-86300000D01*
X184194120Y-86300000D01*
X183861266Y-85966565D01*
X182979484Y-85600417D01*
X182024705Y-85599584D01*
X181142285Y-85964192D01*
X180466565Y-86638734D01*
X180100417Y-87520516D01*
X180099584Y-88475295D01*
X180464192Y-89357715D01*
X180800000Y-89694109D01*
X180800000Y-93724569D01*
X180019441Y-93400452D01*
X178985097Y-93399550D01*
X178029142Y-93794542D01*
X177297113Y-94525295D01*
X176900452Y-95480559D01*
X176899550Y-96514903D01*
X177294542Y-97470858D01*
X178025295Y-98202887D01*
X178980559Y-98599548D01*
X180014903Y-98600450D01*
X180800000Y-98276055D01*
X180800000Y-101839061D01*
X180262408Y-101479853D01*
X179458773Y-101320000D01*
X177541227Y-101320000D01*
X176737592Y-101479853D01*
X176056303Y-101935076D01*
X175601080Y-102616365D01*
X175441227Y-103420000D01*
X175601080Y-104223635D01*
X176056303Y-104904924D01*
X176737592Y-105360147D01*
X177541227Y-105520000D01*
X179458773Y-105520000D01*
X180262408Y-105360147D01*
X180800000Y-105000939D01*
X180800000Y-106489275D01*
X180776014Y-106472886D01*
X180300000Y-106376491D01*
X176700000Y-106376491D01*
X176255307Y-106460166D01*
X175846883Y-106722979D01*
X175572886Y-107123986D01*
X175476491Y-107600000D01*
X175476491Y-109400000D01*
X175560166Y-109844693D01*
X175822979Y-110253117D01*
X176223986Y-110527114D01*
X176700000Y-110623509D01*
X180300000Y-110623509D01*
X180744693Y-110539834D01*
X180800000Y-110504245D01*
X180800000Y-113757951D01*
X180705458Y-113529142D01*
X179974705Y-112797113D01*
X179019441Y-112400452D01*
X177985097Y-112399550D01*
X177029142Y-112794542D01*
X176297113Y-113525295D01*
X175900452Y-114480559D01*
X175899550Y-115514903D01*
X176294542Y-116470858D01*
X177025295Y-117202887D01*
X177980559Y-117599548D01*
X179014903Y-117600450D01*
X179970858Y-117205458D01*
X180702887Y-116474705D01*
X180800000Y-116240831D01*
X180800000Y-122339061D01*
X180262408Y-121979853D01*
X179458773Y-121820000D01*
X177541227Y-121820000D01*
X176737592Y-121979853D01*
X176056303Y-122435076D01*
X175601080Y-123116365D01*
X175441227Y-123920000D01*
X175601080Y-124723635D01*
X176056303Y-125404924D01*
X176737592Y-125860147D01*
X177541227Y-126020000D01*
X179458773Y-126020000D01*
X180262408Y-125860147D01*
X180800000Y-125500939D01*
X180800000Y-126989275D01*
X180776014Y-126972886D01*
X180300000Y-126876491D01*
X176700000Y-126876491D01*
X176255307Y-126960166D01*
X175846883Y-127222979D01*
X175572886Y-127623986D01*
X175476491Y-128100000D01*
X175476491Y-129900000D01*
X175560166Y-130344693D01*
X175822979Y-130753117D01*
X176223986Y-131027114D01*
X176700000Y-131123509D01*
X180300000Y-131123509D01*
X180744693Y-131039834D01*
X180800000Y-131004245D01*
X180800000Y-136390789D01*
X180340499Y-136300923D01*
X178641421Y-138000000D01*
X180340499Y-139699077D01*
X180800000Y-139609211D01*
X180800000Y-144059995D01*
X180799999Y-144060000D01*
X180929405Y-144710562D01*
X181297918Y-145262082D01*
X182840000Y-146804163D01*
X182840000Y-147458773D01*
X182999853Y-148262408D01*
X183291494Y-148698879D01*
X183369405Y-149090562D01*
X183737918Y-149642082D01*
X185320837Y-151225000D01*
X173775000Y-151225000D01*
X173775000Y-148054511D01*
X174699515Y-148054511D01*
X175124892Y-149084000D01*
X175911857Y-149872340D01*
X176940602Y-150299513D01*
X178054511Y-150300485D01*
X179084000Y-149875108D01*
X179872340Y-149088143D01*
X180299513Y-148059398D01*
X180300485Y-146945489D01*
X179875108Y-145916000D01*
X179088143Y-145127660D01*
X178059398Y-144700487D01*
X176945489Y-144699515D01*
X175916000Y-145124892D01*
X175127660Y-145911857D01*
X174700487Y-146940602D01*
X174699515Y-148054511D01*
X173775000Y-148054511D01*
X173775000Y-139840499D01*
X176800923Y-139840499D01*
X176903890Y-140366987D01*
X177931193Y-140797616D01*
X179045092Y-140802333D01*
X180076006Y-140380421D01*
X180096110Y-140366987D01*
X180199077Y-139840499D01*
X178500000Y-138141421D01*
X176800923Y-139840499D01*
X173775000Y-139840499D01*
X173775000Y-138545092D01*
X175697667Y-138545092D01*
X176119579Y-139576006D01*
X176133013Y-139596110D01*
X176659501Y-139699077D01*
X178358579Y-138000000D01*
X176659501Y-136300923D01*
X176133013Y-136403890D01*
X175702384Y-137431193D01*
X175697667Y-138545092D01*
X173775000Y-138545092D01*
X173775000Y-136159501D01*
X176800923Y-136159501D01*
X178500000Y-137858579D01*
X180199077Y-136159501D01*
X180096110Y-135633013D01*
X179068807Y-135202384D01*
X177954908Y-135197667D01*
X176923994Y-135619579D01*
X176903890Y-135633013D01*
X176800923Y-136159501D01*
X173775000Y-136159501D01*
X173775000Y-72000000D01*
X176812981Y-72000000D01*
X176995670Y-72918440D01*
X177515925Y-73697056D01*
X178294541Y-74217311D01*
X179212981Y-74400000D01*
X179255836Y-74400000D01*
X180800000Y-75944163D01*
X180800000Y-78195755D01*
X180446883Y-78422979D01*
X180172886Y-78823986D01*
X180076491Y-79300000D01*
X180076491Y-81700000D01*
X180160166Y-82144693D01*
X180422979Y-82553117D01*
X180823986Y-82827114D01*
X181300000Y-82923509D01*
X183700000Y-82923509D01*
X184144693Y-82839834D01*
X184553117Y-82577021D01*
X184827114Y-82176014D01*
X184923509Y-81700000D01*
X184923509Y-80480655D01*
X186704163Y-78700000D01*
X192805880Y-78700000D01*
X193138734Y-79033435D01*
X194020516Y-79399583D01*
X194975295Y-79400416D01*
X195857715Y-79035808D01*
X196533435Y-78361266D01*
X196899583Y-77479484D01*
X196900416Y-76524705D01*
X196535808Y-75642285D01*
X195861266Y-74966565D01*
X194979484Y-74600417D01*
X194024705Y-74599584D01*
X193142285Y-74964192D01*
X192805891Y-75300000D01*
X186000000Y-75300000D01*
X185349438Y-75429405D01*
X184797918Y-75797918D01*
X184797916Y-75797921D01*
X184200000Y-76395837D01*
X184200000Y-75240005D01*
X184200001Y-75240000D01*
X184070595Y-74589438D01*
X183810381Y-74200000D01*
X183702082Y-74037918D01*
X183702079Y-74037916D01*
X182017717Y-72353553D01*
X187847761Y-66523509D01*
X187900000Y-66523509D01*
X188344693Y-66439834D01*
X188753117Y-66177021D01*
X189027114Y-65776014D01*
X189123509Y-65300000D01*
X189123509Y-64644546D01*
X189200000Y-64260000D01*
X189200000Y-63500000D01*
X189880000Y-63500000D01*
X189880000Y-69580000D01*
X190047465Y-70421904D01*
X190427430Y-70990562D01*
X190524365Y-71135635D01*
X192265449Y-72876719D01*
X192464192Y-73357715D01*
X193138734Y-74033435D01*
X194020516Y-74399583D01*
X194975295Y-74400416D01*
X195857715Y-74035808D01*
X196533435Y-73361266D01*
X196899583Y-72479484D01*
X196900416Y-71524705D01*
X196535808Y-70642285D01*
X195861266Y-69966565D01*
X195376573Y-69765303D01*
X194280000Y-68668730D01*
X194280000Y-63500000D01*
X194180000Y-62997266D01*
X194180000Y-62541227D01*
X194020147Y-61737592D01*
X193564924Y-61056303D01*
X192883635Y-60601080D01*
X192080000Y-60441227D01*
X191276365Y-60601080D01*
X190595076Y-61056303D01*
X190139853Y-61737592D01*
X189980000Y-62541227D01*
X189980000Y-62997266D01*
X189880000Y-63500000D01*
X189200000Y-63500000D01*
X189123509Y-63115454D01*
X189123509Y-61700000D01*
X189039834Y-61255307D01*
X188777021Y-60846883D01*
X188376014Y-60572886D01*
X187900000Y-60476491D01*
X186100000Y-60476491D01*
X185655307Y-60560166D01*
X185246883Y-60822979D01*
X184972886Y-61223986D01*
X184876491Y-61700000D01*
X184876491Y-63115454D01*
X184837561Y-63311169D01*
X178383795Y-69764935D01*
X178294541Y-69782689D01*
X177515925Y-70302944D01*
X176995670Y-71081560D01*
X176812981Y-72000000D01*
X173775000Y-72000000D01*
X173775000Y-63054511D01*
X174699515Y-63054511D01*
X175124892Y-64084000D01*
X175911857Y-64872340D01*
X176940602Y-65299513D01*
X178054511Y-65300485D01*
X179084000Y-64875108D01*
X179872340Y-64088143D01*
X180299513Y-63059398D01*
X180300485Y-61945489D01*
X179875108Y-60916000D01*
X179088143Y-60127660D01*
X178059398Y-59700487D01*
X176945489Y-59699515D01*
X175916000Y-60124892D01*
X175127660Y-60911857D01*
X174700487Y-61940602D01*
X174699515Y-63054511D01*
X173775000Y-63054511D01*
X173775000Y-58775000D01*
X207832217Y-58775000D01*
X207797918Y-58797918D01*
X207797918Y-58797918D01*
G37*
X207797918Y-58797918D02*
X207797916Y-58797921D01*
X205296015Y-61299821D01*
X205064313Y-61299619D01*
X204255428Y-61633843D01*
X204088981Y-61800000D01*
X202500005Y-61800000D01*
X202500000Y-61799999D01*
X201849438Y-61929405D01*
X201297918Y-62297918D01*
X201297916Y-62297921D01*
X200044392Y-63551444D01*
X199734633Y-63613059D01*
X199085786Y-64046604D01*
X198652241Y-64695451D01*
X198500000Y-65460818D01*
X198500000Y-65539182D01*
X198652241Y-66304549D01*
X199085786Y-66953396D01*
X199734633Y-67386941D01*
X200500000Y-67539182D01*
X201265367Y-67386941D01*
X201914214Y-66953396D01*
X202347759Y-66304549D01*
X202409374Y-65994790D01*
X203204163Y-65200000D01*
X203800000Y-65200000D01*
X203800000Y-85499995D01*
X203799999Y-85500000D01*
X203929405Y-86150562D01*
X204297918Y-86702082D01*
X206505103Y-88909266D01*
X206803494Y-89631429D01*
X206944104Y-89772285D01*
X206877027Y-89800000D01*
X204959592Y-89800000D01*
X204309030Y-89929405D01*
X204199959Y-90002284D01*
X204199959Y-87499964D01*
X204199960Y-87499959D01*
X204070554Y-86849397D01*
X203938819Y-86652241D01*
X203702041Y-86297877D01*
X203702038Y-86297875D01*
X202494897Y-85090733D01*
X202196506Y-84368571D01*
X201634388Y-83805471D01*
X200899570Y-83500348D01*
X200103921Y-83499654D01*
X199368571Y-83803494D01*
X198805471Y-84365612D01*
X198500348Y-85100430D01*
X198499654Y-85896079D01*
X198782322Y-86580190D01*
X198688211Y-86561470D01*
X198490562Y-86429405D01*
X197840000Y-86299999D01*
X197839995Y-86300000D01*
X184194120Y-86300000D01*
X183861266Y-85966565D01*
X182979484Y-85600417D01*
X182024705Y-85599584D01*
X181142285Y-85964192D01*
X180466565Y-86638734D01*
X180100417Y-87520516D01*
X180099584Y-88475295D01*
X180464192Y-89357715D01*
X180800000Y-89694109D01*
X180800000Y-93724569D01*
X180019441Y-93400452D01*
X178985097Y-93399550D01*
X178029142Y-93794542D01*
X177297113Y-94525295D01*
X176900452Y-95480559D01*
X176899550Y-96514903D01*
X177294542Y-97470858D01*
X178025295Y-98202887D01*
X178980559Y-98599548D01*
X180014903Y-98600450D01*
X180800000Y-98276055D01*
X180800000Y-101839061D01*
X180262408Y-101479853D01*
X179458773Y-101320000D01*
X177541227Y-101320000D01*
X176737592Y-101479853D01*
X176056303Y-101935076D01*
X175601080Y-102616365D01*
X175441227Y-103420000D01*
X175601080Y-104223635D01*
X176056303Y-104904924D01*
X176737592Y-105360147D01*
X177541227Y-105520000D01*
X179458773Y-105520000D01*
X180262408Y-105360147D01*
X180800000Y-105000939D01*
X180800000Y-106489275D01*
X180776014Y-106472886D01*
X180300000Y-106376491D01*
X176700000Y-106376491D01*
X176255307Y-106460166D01*
X175846883Y-106722979D01*
X175572886Y-107123986D01*
X175476491Y-107600000D01*
X175476491Y-109400000D01*
X175560166Y-109844693D01*
X175822979Y-110253117D01*
X176223986Y-110527114D01*
X176700000Y-110623509D01*
X180300000Y-110623509D01*
X180744693Y-110539834D01*
X180800000Y-110504245D01*
X180800000Y-113757951D01*
X180705458Y-113529142D01*
X179974705Y-112797113D01*
X179019441Y-112400452D01*
X177985097Y-112399550D01*
X177029142Y-112794542D01*
X176297113Y-113525295D01*
X175900452Y-114480559D01*
X175899550Y-115514903D01*
X176294542Y-116470858D01*
X177025295Y-117202887D01*
X177980559Y-117599548D01*
X179014903Y-117600450D01*
X179970858Y-117205458D01*
X180702887Y-116474705D01*
X180800000Y-116240831D01*
X180800000Y-122339061D01*
X180262408Y-121979853D01*
X179458773Y-121820000D01*
X177541227Y-121820000D01*
X176737592Y-121979853D01*
X176056303Y-122435076D01*
X175601080Y-123116365D01*
X175441227Y-123920000D01*
X175601080Y-124723635D01*
X176056303Y-125404924D01*
X176737592Y-125860147D01*
X177541227Y-126020000D01*
X179458773Y-126020000D01*
X180262408Y-125860147D01*
X180800000Y-125500939D01*
X180800000Y-126989275D01*
X180776014Y-126972886D01*
X180300000Y-126876491D01*
X176700000Y-126876491D01*
X176255307Y-126960166D01*
X175846883Y-127222979D01*
X175572886Y-127623986D01*
X175476491Y-128100000D01*
X175476491Y-129900000D01*
X175560166Y-130344693D01*
X175822979Y-130753117D01*
X176223986Y-131027114D01*
X176700000Y-131123509D01*
X180300000Y-131123509D01*
X180744693Y-131039834D01*
X180800000Y-131004245D01*
X180800000Y-136390789D01*
X180340499Y-136300923D01*
X178641421Y-138000000D01*
X180340499Y-139699077D01*
X180800000Y-139609211D01*
X180800000Y-144059995D01*
X180799999Y-144060000D01*
X180929405Y-144710562D01*
X181297918Y-145262082D01*
X182840000Y-146804163D01*
X182840000Y-147458773D01*
X182999853Y-148262408D01*
X183291494Y-148698879D01*
X183369405Y-149090562D01*
X183737918Y-149642082D01*
X185320837Y-151225000D01*
X173775000Y-151225000D01*
X173775000Y-148054511D01*
X174699515Y-148054511D01*
X175124892Y-149084000D01*
X175911857Y-149872340D01*
X176940602Y-150299513D01*
X178054511Y-150300485D01*
X179084000Y-149875108D01*
X179872340Y-149088143D01*
X180299513Y-148059398D01*
X180300485Y-146945489D01*
X179875108Y-145916000D01*
X179088143Y-145127660D01*
X178059398Y-144700487D01*
X176945489Y-144699515D01*
X175916000Y-145124892D01*
X175127660Y-145911857D01*
X174700487Y-146940602D01*
X174699515Y-148054511D01*
X173775000Y-148054511D01*
X173775000Y-139840499D01*
X176800923Y-139840499D01*
X176903890Y-140366987D01*
X177931193Y-140797616D01*
X179045092Y-140802333D01*
X180076006Y-140380421D01*
X180096110Y-140366987D01*
X180199077Y-139840499D01*
X178500000Y-138141421D01*
X176800923Y-139840499D01*
X173775000Y-139840499D01*
X173775000Y-138545092D01*
X175697667Y-138545092D01*
X176119579Y-139576006D01*
X176133013Y-139596110D01*
X176659501Y-139699077D01*
X178358579Y-138000000D01*
X176659501Y-136300923D01*
X176133013Y-136403890D01*
X175702384Y-137431193D01*
X175697667Y-138545092D01*
X173775000Y-138545092D01*
X173775000Y-136159501D01*
X176800923Y-136159501D01*
X178500000Y-137858579D01*
X180199077Y-136159501D01*
X180096110Y-135633013D01*
X179068807Y-135202384D01*
X177954908Y-135197667D01*
X176923994Y-135619579D01*
X176903890Y-135633013D01*
X176800923Y-136159501D01*
X173775000Y-136159501D01*
X173775000Y-72000000D01*
X176812981Y-72000000D01*
X176995670Y-72918440D01*
X177515925Y-73697056D01*
X178294541Y-74217311D01*
X179212981Y-74400000D01*
X179255836Y-74400000D01*
X180800000Y-75944163D01*
X180800000Y-78195755D01*
X180446883Y-78422979D01*
X180172886Y-78823986D01*
X180076491Y-79300000D01*
X180076491Y-81700000D01*
X180160166Y-82144693D01*
X180422979Y-82553117D01*
X180823986Y-82827114D01*
X181300000Y-82923509D01*
X183700000Y-82923509D01*
X184144693Y-82839834D01*
X184553117Y-82577021D01*
X184827114Y-82176014D01*
X184923509Y-81700000D01*
X184923509Y-80480655D01*
X186704163Y-78700000D01*
X192805880Y-78700000D01*
X193138734Y-79033435D01*
X194020516Y-79399583D01*
X194975295Y-79400416D01*
X195857715Y-79035808D01*
X196533435Y-78361266D01*
X196899583Y-77479484D01*
X196900416Y-76524705D01*
X196535808Y-75642285D01*
X195861266Y-74966565D01*
X194979484Y-74600417D01*
X194024705Y-74599584D01*
X193142285Y-74964192D01*
X192805891Y-75300000D01*
X186000000Y-75300000D01*
X185349438Y-75429405D01*
X184797918Y-75797918D01*
X184797916Y-75797921D01*
X184200000Y-76395837D01*
X184200000Y-75240005D01*
X184200001Y-75240000D01*
X184070595Y-74589438D01*
X183810381Y-74200000D01*
X183702082Y-74037918D01*
X183702079Y-74037916D01*
X182017717Y-72353553D01*
X187847761Y-66523509D01*
X187900000Y-66523509D01*
X188344693Y-66439834D01*
X188753117Y-66177021D01*
X189027114Y-65776014D01*
X189123509Y-65300000D01*
X189123509Y-64644546D01*
X189200000Y-64260000D01*
X189200000Y-63500000D01*
X189880000Y-63500000D01*
X189880000Y-69580000D01*
X190047465Y-70421904D01*
X190427430Y-70990562D01*
X190524365Y-71135635D01*
X192265449Y-72876719D01*
X192464192Y-73357715D01*
X193138734Y-74033435D01*
X194020516Y-74399583D01*
X194975295Y-74400416D01*
X195857715Y-74035808D01*
X196533435Y-73361266D01*
X196899583Y-72479484D01*
X196900416Y-71524705D01*
X196535808Y-70642285D01*
X195861266Y-69966565D01*
X195376573Y-69765303D01*
X194280000Y-68668730D01*
X194280000Y-63500000D01*
X194180000Y-62997266D01*
X194180000Y-62541227D01*
X194020147Y-61737592D01*
X193564924Y-61056303D01*
X192883635Y-60601080D01*
X192080000Y-60441227D01*
X191276365Y-60601080D01*
X190595076Y-61056303D01*
X190139853Y-61737592D01*
X189980000Y-62541227D01*
X189980000Y-62997266D01*
X189880000Y-63500000D01*
X189200000Y-63500000D01*
X189123509Y-63115454D01*
X189123509Y-61700000D01*
X189039834Y-61255307D01*
X188777021Y-60846883D01*
X188376014Y-60572886D01*
X187900000Y-60476491D01*
X186100000Y-60476491D01*
X185655307Y-60560166D01*
X185246883Y-60822979D01*
X184972886Y-61223986D01*
X184876491Y-61700000D01*
X184876491Y-63115454D01*
X184837561Y-63311169D01*
X178383795Y-69764935D01*
X178294541Y-69782689D01*
X177515925Y-70302944D01*
X176995670Y-71081560D01*
X176812981Y-72000000D01*
X173775000Y-72000000D01*
X173775000Y-63054511D01*
X174699515Y-63054511D01*
X175124892Y-64084000D01*
X175911857Y-64872340D01*
X176940602Y-65299513D01*
X178054511Y-65300485D01*
X179084000Y-64875108D01*
X179872340Y-64088143D01*
X180299513Y-63059398D01*
X180300485Y-61945489D01*
X179875108Y-60916000D01*
X179088143Y-60127660D01*
X178059398Y-59700487D01*
X176945489Y-59699515D01*
X175916000Y-60124892D01*
X175127660Y-60911857D01*
X174700487Y-61940602D01*
X174699515Y-63054511D01*
X173775000Y-63054511D01*
X173775000Y-58775000D01*
X207832217Y-58775000D01*
X207797918Y-58797918D01*
M02*
