G04 #@! TF.FileFunction,Legend,Top*
%FSLAX46Y46*%
G04 Gerber Fmt 4.6, Leading zero omitted, Abs format (unit mm)*
G04 Created by KiCad (PCBNEW 4.0.6) date Friday, 28 July 2017 'PMt' 19:42:32*
%MOMM*%
%LPD*%
G01*
G04 APERTURE LIST*
%ADD10C,0.100000*%
%ADD11C,0.200000*%
%ADD12C,0.300000*%
%ADD13C,0.120000*%
%ADD14C,0.150000*%
G04 APERTURE END LIST*
D10*
D11*
X230452381Y-130333335D02*
X231452381Y-130000002D01*
X230452381Y-129666668D01*
X231547619Y-129571430D02*
X231547619Y-128809525D01*
X231452381Y-128571430D02*
X230452381Y-128571430D01*
X231452381Y-128142858D02*
X230928571Y-128142858D01*
X230833333Y-128190477D01*
X230785714Y-128285715D01*
X230785714Y-128428573D01*
X230833333Y-128523811D01*
X230880952Y-128571430D01*
X231404762Y-127285715D02*
X231452381Y-127380953D01*
X231452381Y-127571430D01*
X231404762Y-127666668D01*
X231309524Y-127714287D01*
X230928571Y-127714287D01*
X230833333Y-127666668D01*
X230785714Y-127571430D01*
X230785714Y-127380953D01*
X230833333Y-127285715D01*
X230928571Y-127238096D01*
X231023810Y-127238096D01*
X231119048Y-127714287D01*
X231452381Y-126380953D02*
X230928571Y-126380953D01*
X230833333Y-126428572D01*
X230785714Y-126523810D01*
X230785714Y-126714287D01*
X230833333Y-126809525D01*
X231404762Y-126380953D02*
X231452381Y-126476191D01*
X231452381Y-126714287D01*
X231404762Y-126809525D01*
X231309524Y-126857144D01*
X231214286Y-126857144D01*
X231119048Y-126809525D01*
X231071429Y-126714287D01*
X231071429Y-126476191D01*
X231023810Y-126380953D01*
X230785714Y-126047620D02*
X230785714Y-125666668D01*
X230452381Y-125904763D02*
X231309524Y-125904763D01*
X231404762Y-125857144D01*
X231452381Y-125761906D01*
X231452381Y-125666668D01*
X231404762Y-124952381D02*
X231452381Y-125047619D01*
X231452381Y-125238096D01*
X231404762Y-125333334D01*
X231309524Y-125380953D01*
X230928571Y-125380953D01*
X230833333Y-125333334D01*
X230785714Y-125238096D01*
X230785714Y-125047619D01*
X230833333Y-124952381D01*
X230928571Y-124904762D01*
X231023810Y-124904762D01*
X231119048Y-125380953D01*
X231452381Y-124476191D02*
X230785714Y-124476191D01*
X230976190Y-124476191D02*
X230880952Y-124428572D01*
X230833333Y-124380953D01*
X230785714Y-124285715D01*
X230785714Y-124190476D01*
X231547619Y-124095238D02*
X231547619Y-123333333D01*
X231404762Y-122714285D02*
X231452381Y-122809523D01*
X231452381Y-123000000D01*
X231404762Y-123095238D01*
X231309524Y-123142857D01*
X230928571Y-123142857D01*
X230833333Y-123095238D01*
X230785714Y-123000000D01*
X230785714Y-122809523D01*
X230833333Y-122714285D01*
X230928571Y-122666666D01*
X231023810Y-122666666D01*
X231119048Y-123142857D01*
X231452381Y-122095238D02*
X231404762Y-122190476D01*
X231309524Y-122238095D01*
X230452381Y-122238095D01*
X231404762Y-121333332D02*
X231452381Y-121428570D01*
X231452381Y-121619047D01*
X231404762Y-121714285D01*
X231309524Y-121761904D01*
X230928571Y-121761904D01*
X230833333Y-121714285D01*
X230785714Y-121619047D01*
X230785714Y-121428570D01*
X230833333Y-121333332D01*
X230928571Y-121285713D01*
X231023810Y-121285713D01*
X231119048Y-121761904D01*
X230785714Y-120952380D02*
X231452381Y-120714285D01*
X230785714Y-120476189D01*
X231452381Y-119666665D02*
X230928571Y-119666665D01*
X230833333Y-119714284D01*
X230785714Y-119809522D01*
X230785714Y-119999999D01*
X230833333Y-120095237D01*
X231404762Y-119666665D02*
X231452381Y-119761903D01*
X231452381Y-119999999D01*
X231404762Y-120095237D01*
X231309524Y-120142856D01*
X231214286Y-120142856D01*
X231119048Y-120095237D01*
X231071429Y-119999999D01*
X231071429Y-119761903D01*
X231023810Y-119666665D01*
X230785714Y-119333332D02*
X230785714Y-118952380D01*
X230452381Y-119190475D02*
X231309524Y-119190475D01*
X231404762Y-119142856D01*
X231452381Y-119047618D01*
X231452381Y-118952380D01*
X231452381Y-118619046D02*
X230785714Y-118619046D01*
X230452381Y-118619046D02*
X230500000Y-118666665D01*
X230547619Y-118619046D01*
X230500000Y-118571427D01*
X230452381Y-118619046D01*
X230547619Y-118619046D01*
X231452381Y-117999999D02*
X231404762Y-118095237D01*
X231357143Y-118142856D01*
X231261905Y-118190475D01*
X230976190Y-118190475D01*
X230880952Y-118142856D01*
X230833333Y-118095237D01*
X230785714Y-117999999D01*
X230785714Y-117857141D01*
X230833333Y-117761903D01*
X230880952Y-117714284D01*
X230976190Y-117666665D01*
X231261905Y-117666665D01*
X231357143Y-117714284D01*
X231404762Y-117761903D01*
X231452381Y-117857141D01*
X231452381Y-117999999D01*
X230785714Y-117238094D02*
X231452381Y-117238094D01*
X230880952Y-117238094D02*
X230833333Y-117190475D01*
X230785714Y-117095237D01*
X230785714Y-116952379D01*
X230833333Y-116857141D01*
X230928571Y-116809522D01*
X231452381Y-116809522D01*
X230857143Y-141690476D02*
X230904762Y-141738095D01*
X230952381Y-141880952D01*
X230952381Y-141976190D01*
X230904762Y-142119048D01*
X230809524Y-142214286D01*
X230714286Y-142261905D01*
X230523810Y-142309524D01*
X230380952Y-142309524D01*
X230190476Y-142261905D01*
X230095238Y-142214286D01*
X230000000Y-142119048D01*
X229952381Y-141976190D01*
X229952381Y-141880952D01*
X230000000Y-141738095D01*
X230047619Y-141690476D01*
X231047619Y-141500000D02*
X231047619Y-140738095D01*
X230952381Y-140500000D02*
X229952381Y-140500000D01*
X230952381Y-140071428D02*
X230428571Y-140071428D01*
X230333333Y-140119047D01*
X230285714Y-140214285D01*
X230285714Y-140357143D01*
X230333333Y-140452381D01*
X230380952Y-140500000D01*
X230904762Y-139214285D02*
X230952381Y-139309523D01*
X230952381Y-139500000D01*
X230904762Y-139595238D01*
X230809524Y-139642857D01*
X230428571Y-139642857D01*
X230333333Y-139595238D01*
X230285714Y-139500000D01*
X230285714Y-139309523D01*
X230333333Y-139214285D01*
X230428571Y-139166666D01*
X230523810Y-139166666D01*
X230619048Y-139642857D01*
X230952381Y-138309523D02*
X230428571Y-138309523D01*
X230333333Y-138357142D01*
X230285714Y-138452380D01*
X230285714Y-138642857D01*
X230333333Y-138738095D01*
X230904762Y-138309523D02*
X230952381Y-138404761D01*
X230952381Y-138642857D01*
X230904762Y-138738095D01*
X230809524Y-138785714D01*
X230714286Y-138785714D01*
X230619048Y-138738095D01*
X230571429Y-138642857D01*
X230571429Y-138404761D01*
X230523810Y-138309523D01*
X230285714Y-137976190D02*
X230285714Y-137595238D01*
X229952381Y-137833333D02*
X230809524Y-137833333D01*
X230904762Y-137785714D01*
X230952381Y-137690476D01*
X230952381Y-137595238D01*
X228452381Y-121666667D02*
X227976190Y-122000001D01*
X228452381Y-122238096D02*
X227452381Y-122238096D01*
X227452381Y-121857143D01*
X227500000Y-121761905D01*
X227547619Y-121714286D01*
X227642857Y-121666667D01*
X227785714Y-121666667D01*
X227880952Y-121714286D01*
X227928571Y-121761905D01*
X227976190Y-121857143D01*
X227976190Y-122238096D01*
X228547619Y-121476191D02*
X228547619Y-120714286D01*
X228452381Y-120476191D02*
X227452381Y-120476191D01*
X228452381Y-120047619D02*
X227928571Y-120047619D01*
X227833333Y-120095238D01*
X227785714Y-120190476D01*
X227785714Y-120333334D01*
X227833333Y-120428572D01*
X227880952Y-120476191D01*
X228404762Y-119190476D02*
X228452381Y-119285714D01*
X228452381Y-119476191D01*
X228404762Y-119571429D01*
X228309524Y-119619048D01*
X227928571Y-119619048D01*
X227833333Y-119571429D01*
X227785714Y-119476191D01*
X227785714Y-119285714D01*
X227833333Y-119190476D01*
X227928571Y-119142857D01*
X228023810Y-119142857D01*
X228119048Y-119619048D01*
X228452381Y-118285714D02*
X227928571Y-118285714D01*
X227833333Y-118333333D01*
X227785714Y-118428571D01*
X227785714Y-118619048D01*
X227833333Y-118714286D01*
X228404762Y-118285714D02*
X228452381Y-118380952D01*
X228452381Y-118619048D01*
X228404762Y-118714286D01*
X228309524Y-118761905D01*
X228214286Y-118761905D01*
X228119048Y-118714286D01*
X228071429Y-118619048D01*
X228071429Y-118380952D01*
X228023810Y-118285714D01*
X227785714Y-117952381D02*
X227785714Y-117571429D01*
X227452381Y-117809524D02*
X228309524Y-117809524D01*
X228404762Y-117761905D01*
X228452381Y-117666667D01*
X228452381Y-117571429D01*
X228452381Y-116714285D02*
X228452381Y-117285714D01*
X228452381Y-117000000D02*
X227452381Y-117000000D01*
X227595238Y-117095238D01*
X227690476Y-117190476D01*
X227738095Y-117285714D01*
X224452381Y-124666667D02*
X223976190Y-125000001D01*
X224452381Y-125238096D02*
X223452381Y-125238096D01*
X223452381Y-124857143D01*
X223500000Y-124761905D01*
X223547619Y-124714286D01*
X223642857Y-124666667D01*
X223785714Y-124666667D01*
X223880952Y-124714286D01*
X223928571Y-124761905D01*
X223976190Y-124857143D01*
X223976190Y-125238096D01*
X224547619Y-124476191D02*
X224547619Y-123714286D01*
X224452381Y-123476191D02*
X223452381Y-123476191D01*
X224452381Y-123047619D02*
X223928571Y-123047619D01*
X223833333Y-123095238D01*
X223785714Y-123190476D01*
X223785714Y-123333334D01*
X223833333Y-123428572D01*
X223880952Y-123476191D01*
X224404762Y-122190476D02*
X224452381Y-122285714D01*
X224452381Y-122476191D01*
X224404762Y-122571429D01*
X224309524Y-122619048D01*
X223928571Y-122619048D01*
X223833333Y-122571429D01*
X223785714Y-122476191D01*
X223785714Y-122285714D01*
X223833333Y-122190476D01*
X223928571Y-122142857D01*
X224023810Y-122142857D01*
X224119048Y-122619048D01*
X224452381Y-121285714D02*
X223928571Y-121285714D01*
X223833333Y-121333333D01*
X223785714Y-121428571D01*
X223785714Y-121619048D01*
X223833333Y-121714286D01*
X224404762Y-121285714D02*
X224452381Y-121380952D01*
X224452381Y-121619048D01*
X224404762Y-121714286D01*
X224309524Y-121761905D01*
X224214286Y-121761905D01*
X224119048Y-121714286D01*
X224071429Y-121619048D01*
X224071429Y-121380952D01*
X224023810Y-121285714D01*
X223785714Y-120952381D02*
X223785714Y-120571429D01*
X223452381Y-120809524D02*
X224309524Y-120809524D01*
X224404762Y-120761905D01*
X224452381Y-120666667D01*
X224452381Y-120571429D01*
X223547619Y-120285714D02*
X223500000Y-120238095D01*
X223452381Y-120142857D01*
X223452381Y-119904761D01*
X223500000Y-119809523D01*
X223547619Y-119761904D01*
X223642857Y-119714285D01*
X223738095Y-119714285D01*
X223880952Y-119761904D01*
X224452381Y-120333333D01*
X224452381Y-119714285D01*
X206361905Y-84695238D02*
X206552381Y-84695238D01*
X206476190Y-84885714D02*
X206552381Y-84695238D01*
X206476190Y-84504762D01*
X206704762Y-84809524D02*
X206552381Y-84695238D01*
X206704762Y-84580952D01*
X206361905Y-83971428D02*
X206933333Y-83971428D01*
X207047619Y-84009524D01*
X207123810Y-84085714D01*
X207161905Y-84200000D01*
X207161905Y-84276190D01*
X206628571Y-83247619D02*
X207161905Y-83247619D01*
X206628571Y-83590476D02*
X207047619Y-83590476D01*
X207123810Y-83552381D01*
X207161905Y-83476190D01*
X207161905Y-83361904D01*
X207123810Y-83285714D01*
X207085714Y-83247619D01*
X207161905Y-82866666D02*
X206628571Y-82866666D01*
X206704762Y-82866666D02*
X206666667Y-82828571D01*
X206628571Y-82752380D01*
X206628571Y-82638094D01*
X206666667Y-82561904D01*
X206742857Y-82523809D01*
X207161905Y-82523809D01*
X206742857Y-82523809D02*
X206666667Y-82485713D01*
X206628571Y-82409523D01*
X206628571Y-82295237D01*
X206666667Y-82219047D01*
X206742857Y-82180952D01*
X207161905Y-82180952D01*
X206628571Y-81799999D02*
X207428571Y-81799999D01*
X206666667Y-81799999D02*
X206628571Y-81723808D01*
X206628571Y-81571427D01*
X206666667Y-81495237D01*
X206704762Y-81457142D01*
X206780952Y-81419046D01*
X207009524Y-81419046D01*
X207085714Y-81457142D01*
X207123810Y-81495237D01*
X207161905Y-81571427D01*
X207161905Y-81723808D01*
X207123810Y-81799999D01*
X207123810Y-80771427D02*
X207161905Y-80847617D01*
X207161905Y-80999998D01*
X207123810Y-81076189D01*
X207047619Y-81114284D01*
X206742857Y-81114284D01*
X206666667Y-81076189D01*
X206628571Y-80999998D01*
X206628571Y-80847617D01*
X206666667Y-80771427D01*
X206742857Y-80733332D01*
X206819048Y-80733332D01*
X206895238Y-81114284D01*
X207161905Y-80390475D02*
X206628571Y-80390475D01*
X206780952Y-80390475D02*
X206704762Y-80352380D01*
X206666667Y-80314284D01*
X206628571Y-80238094D01*
X206628571Y-80161903D01*
X207161905Y-78942856D02*
X206742857Y-78942856D01*
X206666667Y-78980951D01*
X206628571Y-79057141D01*
X206628571Y-79209522D01*
X206666667Y-79285713D01*
X207123810Y-78942856D02*
X207161905Y-79019046D01*
X207161905Y-79209522D01*
X207123810Y-79285713D01*
X207047619Y-79323808D01*
X206971429Y-79323808D01*
X206895238Y-79285713D01*
X206857143Y-79209522D01*
X206857143Y-79019046D01*
X206819048Y-78942856D01*
X206628571Y-78561903D02*
X207161905Y-78561903D01*
X206704762Y-78561903D02*
X206666667Y-78523808D01*
X206628571Y-78447617D01*
X206628571Y-78333331D01*
X206666667Y-78257141D01*
X206742857Y-78219046D01*
X207161905Y-78219046D01*
X207161905Y-77495236D02*
X206361905Y-77495236D01*
X207123810Y-77495236D02*
X207161905Y-77571426D01*
X207161905Y-77723807D01*
X207123810Y-77799998D01*
X207085714Y-77838093D01*
X207009524Y-77876188D01*
X206780952Y-77876188D01*
X206704762Y-77838093D01*
X206666667Y-77799998D01*
X206628571Y-77723807D01*
X206628571Y-77571426D01*
X206666667Y-77495236D01*
X206628571Y-76161902D02*
X207161905Y-76161902D01*
X206628571Y-76504759D02*
X207047619Y-76504759D01*
X207123810Y-76466664D01*
X207161905Y-76390473D01*
X207161905Y-76276187D01*
X207123810Y-76199997D01*
X207085714Y-76161902D01*
X207123810Y-75819044D02*
X207161905Y-75742854D01*
X207161905Y-75590473D01*
X207123810Y-75514282D01*
X207047619Y-75476187D01*
X207009524Y-75476187D01*
X206933333Y-75514282D01*
X206895238Y-75590473D01*
X206895238Y-75704758D01*
X206857143Y-75780949D01*
X206780952Y-75819044D01*
X206742857Y-75819044D01*
X206666667Y-75780949D01*
X206628571Y-75704758D01*
X206628571Y-75590473D01*
X206666667Y-75514282D01*
X207123810Y-74828568D02*
X207161905Y-74904758D01*
X207161905Y-75057139D01*
X207123810Y-75133330D01*
X207047619Y-75171425D01*
X206742857Y-75171425D01*
X206666667Y-75133330D01*
X206628571Y-75057139D01*
X206628571Y-74904758D01*
X206666667Y-74828568D01*
X206742857Y-74790473D01*
X206819048Y-74790473D01*
X206895238Y-75171425D01*
X207123810Y-73533330D02*
X207161905Y-73609520D01*
X207161905Y-73761901D01*
X207123810Y-73838092D01*
X207047619Y-73876187D01*
X206742857Y-73876187D01*
X206666667Y-73838092D01*
X206628571Y-73761901D01*
X206628571Y-73609520D01*
X206666667Y-73533330D01*
X206742857Y-73495235D01*
X206819048Y-73495235D01*
X206895238Y-73876187D01*
X207161905Y-73228568D02*
X206628571Y-72809521D01*
X206628571Y-73228568D02*
X207161905Y-72809521D01*
X206628571Y-72619045D02*
X206628571Y-72314283D01*
X206361905Y-72504759D02*
X207047619Y-72504759D01*
X207123810Y-72466664D01*
X207161905Y-72390473D01*
X207161905Y-72314283D01*
X207123810Y-71742854D02*
X207161905Y-71819044D01*
X207161905Y-71971425D01*
X207123810Y-72047616D01*
X207047619Y-72085711D01*
X206742857Y-72085711D01*
X206666667Y-72047616D01*
X206628571Y-71971425D01*
X206628571Y-71819044D01*
X206666667Y-71742854D01*
X206742857Y-71704759D01*
X206819048Y-71704759D01*
X206895238Y-72085711D01*
X207161905Y-71361902D02*
X206628571Y-71361902D01*
X206780952Y-71361902D02*
X206704762Y-71323807D01*
X206666667Y-71285711D01*
X206628571Y-71209521D01*
X206628571Y-71133330D01*
X206628571Y-70866664D02*
X207161905Y-70866664D01*
X206704762Y-70866664D02*
X206666667Y-70828569D01*
X206628571Y-70752378D01*
X206628571Y-70638092D01*
X206666667Y-70561902D01*
X206742857Y-70523807D01*
X207161905Y-70523807D01*
X207161905Y-69799997D02*
X206742857Y-69799997D01*
X206666667Y-69838092D01*
X206628571Y-69914282D01*
X206628571Y-70066663D01*
X206666667Y-70142854D01*
X207123810Y-69799997D02*
X207161905Y-69876187D01*
X207161905Y-70066663D01*
X207123810Y-70142854D01*
X207047619Y-70180949D01*
X206971429Y-70180949D01*
X206895238Y-70142854D01*
X206857143Y-70066663D01*
X206857143Y-69876187D01*
X206819048Y-69799997D01*
X207161905Y-69304758D02*
X207123810Y-69380949D01*
X207047619Y-69419044D01*
X206361905Y-69419044D01*
X208523810Y-84847619D02*
X208561905Y-84771429D01*
X208561905Y-84619048D01*
X208523810Y-84542857D01*
X208447619Y-84504762D01*
X208409524Y-84504762D01*
X208333333Y-84542857D01*
X208295238Y-84619048D01*
X208295238Y-84733333D01*
X208257143Y-84809524D01*
X208180952Y-84847619D01*
X208142857Y-84847619D01*
X208066667Y-84809524D01*
X208028571Y-84733333D01*
X208028571Y-84619048D01*
X208066667Y-84542857D01*
X208028571Y-84238095D02*
X208561905Y-84085714D01*
X208180952Y-83933333D01*
X208561905Y-83780952D01*
X208028571Y-83628571D01*
X208561905Y-83323810D02*
X208028571Y-83323810D01*
X207761905Y-83323810D02*
X207800000Y-83361905D01*
X207838095Y-83323810D01*
X207800000Y-83285715D01*
X207761905Y-83323810D01*
X207838095Y-83323810D01*
X208028571Y-83057144D02*
X208028571Y-82752382D01*
X207761905Y-82942858D02*
X208447619Y-82942858D01*
X208523810Y-82904763D01*
X208561905Y-82828572D01*
X208561905Y-82752382D01*
X208523810Y-82142858D02*
X208561905Y-82219048D01*
X208561905Y-82371429D01*
X208523810Y-82447620D01*
X208485714Y-82485715D01*
X208409524Y-82523810D01*
X208180952Y-82523810D01*
X208104762Y-82485715D01*
X208066667Y-82447620D01*
X208028571Y-82371429D01*
X208028571Y-82219048D01*
X208066667Y-82142858D01*
X208561905Y-81800001D02*
X207761905Y-81800001D01*
X208561905Y-81457144D02*
X208142857Y-81457144D01*
X208066667Y-81495239D01*
X208028571Y-81571429D01*
X208028571Y-81685715D01*
X208066667Y-81761906D01*
X208104762Y-81800001D01*
X208028571Y-80580953D02*
X208028571Y-80276191D01*
X208561905Y-80466667D02*
X207876190Y-80466667D01*
X207800000Y-80428572D01*
X207761905Y-80352381D01*
X207761905Y-80276191D01*
X208561905Y-79895238D02*
X208523810Y-79971429D01*
X208485714Y-80009524D01*
X208409524Y-80047619D01*
X208180952Y-80047619D01*
X208104762Y-80009524D01*
X208066667Y-79971429D01*
X208028571Y-79895238D01*
X208028571Y-79780952D01*
X208066667Y-79704762D01*
X208104762Y-79666667D01*
X208180952Y-79628571D01*
X208409524Y-79628571D01*
X208485714Y-79666667D01*
X208523810Y-79704762D01*
X208561905Y-79780952D01*
X208561905Y-79895238D01*
X208561905Y-79285714D02*
X208028571Y-79285714D01*
X208180952Y-79285714D02*
X208104762Y-79247619D01*
X208066667Y-79209523D01*
X208028571Y-79133333D01*
X208028571Y-79057142D01*
X208561905Y-78180952D02*
X207761905Y-78180952D01*
X208561905Y-77723809D01*
X207761905Y-77723809D01*
X208142857Y-77076190D02*
X208142857Y-77342857D01*
X208561905Y-77342857D02*
X207761905Y-77342857D01*
X207761905Y-76961904D01*
X208142857Y-76390476D02*
X208180952Y-76276190D01*
X208219048Y-76238095D01*
X208295238Y-76200000D01*
X208409524Y-76200000D01*
X208485714Y-76238095D01*
X208523810Y-76276190D01*
X208561905Y-76352381D01*
X208561905Y-76657143D01*
X207761905Y-76657143D01*
X207761905Y-76390476D01*
X207800000Y-76314286D01*
X207838095Y-76276190D01*
X207914286Y-76238095D01*
X207990476Y-76238095D01*
X208066667Y-76276190D01*
X208104762Y-76314286D01*
X208142857Y-76390476D01*
X208142857Y-76657143D01*
X208523810Y-75285714D02*
X208561905Y-75171428D01*
X208561905Y-74980952D01*
X208523810Y-74904762D01*
X208485714Y-74866666D01*
X208409524Y-74828571D01*
X208333333Y-74828571D01*
X208257143Y-74866666D01*
X208219048Y-74904762D01*
X208180952Y-74980952D01*
X208142857Y-75133333D01*
X208104762Y-75209524D01*
X208066667Y-75247619D01*
X207990476Y-75285714D01*
X207914286Y-75285714D01*
X207838095Y-75247619D01*
X207800000Y-75209524D01*
X207761905Y-75133333D01*
X207761905Y-74942857D01*
X207800000Y-74828571D01*
X208523810Y-74180952D02*
X208561905Y-74257142D01*
X208561905Y-74409523D01*
X208523810Y-74485714D01*
X208447619Y-74523809D01*
X208142857Y-74523809D01*
X208066667Y-74485714D01*
X208028571Y-74409523D01*
X208028571Y-74257142D01*
X208066667Y-74180952D01*
X208142857Y-74142857D01*
X208219048Y-74142857D01*
X208295238Y-74523809D01*
X208561905Y-73685714D02*
X208523810Y-73761905D01*
X208447619Y-73800000D01*
X207761905Y-73800000D01*
X208523810Y-73076190D02*
X208561905Y-73152380D01*
X208561905Y-73304761D01*
X208523810Y-73380952D01*
X208447619Y-73419047D01*
X208142857Y-73419047D01*
X208066667Y-73380952D01*
X208028571Y-73304761D01*
X208028571Y-73152380D01*
X208066667Y-73076190D01*
X208142857Y-73038095D01*
X208219048Y-73038095D01*
X208295238Y-73419047D01*
X208523810Y-72352381D02*
X208561905Y-72428571D01*
X208561905Y-72580952D01*
X208523810Y-72657143D01*
X208485714Y-72695238D01*
X208409524Y-72733333D01*
X208180952Y-72733333D01*
X208104762Y-72695238D01*
X208066667Y-72657143D01*
X208028571Y-72580952D01*
X208028571Y-72428571D01*
X208066667Y-72352381D01*
X208028571Y-72123810D02*
X208028571Y-71819048D01*
X207761905Y-72009524D02*
X208447619Y-72009524D01*
X208523810Y-71971429D01*
X208561905Y-71895238D01*
X208561905Y-71819048D01*
X208561905Y-71438095D02*
X208523810Y-71514286D01*
X208485714Y-71552381D01*
X208409524Y-71590476D01*
X208180952Y-71590476D01*
X208104762Y-71552381D01*
X208066667Y-71514286D01*
X208028571Y-71438095D01*
X208028571Y-71323809D01*
X208066667Y-71247619D01*
X208104762Y-71209524D01*
X208180952Y-71171428D01*
X208409524Y-71171428D01*
X208485714Y-71209524D01*
X208523810Y-71247619D01*
X208561905Y-71323809D01*
X208561905Y-71438095D01*
X208561905Y-70828571D02*
X208028571Y-70828571D01*
X208180952Y-70828571D02*
X208104762Y-70790476D01*
X208066667Y-70752380D01*
X208028571Y-70676190D01*
X208028571Y-70599999D01*
X177071429Y-132928571D02*
X177214286Y-132976190D01*
X177261905Y-133023810D01*
X177309524Y-133119048D01*
X177309524Y-133261905D01*
X177261905Y-133357143D01*
X177214286Y-133404762D01*
X177119048Y-133452381D01*
X176738095Y-133452381D01*
X176738095Y-132452381D01*
X177071429Y-132452381D01*
X177166667Y-132500000D01*
X177214286Y-132547619D01*
X177261905Y-132642857D01*
X177261905Y-132738095D01*
X177214286Y-132833333D01*
X177166667Y-132880952D01*
X177071429Y-132928571D01*
X176738095Y-132928571D01*
X177880952Y-133452381D02*
X177785714Y-133404762D01*
X177738095Y-133357143D01*
X177690476Y-133261905D01*
X177690476Y-132976190D01*
X177738095Y-132880952D01*
X177785714Y-132833333D01*
X177880952Y-132785714D01*
X178023810Y-132785714D01*
X178119048Y-132833333D01*
X178166667Y-132880952D01*
X178214286Y-132976190D01*
X178214286Y-133261905D01*
X178166667Y-133357143D01*
X178119048Y-133404762D01*
X178023810Y-133452381D01*
X177880952Y-133452381D01*
X178500000Y-132785714D02*
X178880952Y-132785714D01*
X178642857Y-132452381D02*
X178642857Y-133309524D01*
X178690476Y-133404762D01*
X178785714Y-133452381D01*
X178880952Y-133452381D01*
X179071429Y-132785714D02*
X179452381Y-132785714D01*
X179214286Y-132452381D02*
X179214286Y-133309524D01*
X179261905Y-133404762D01*
X179357143Y-133452381D01*
X179452381Y-133452381D01*
X179928572Y-133452381D02*
X179833334Y-133404762D01*
X179785715Y-133357143D01*
X179738096Y-133261905D01*
X179738096Y-132976190D01*
X179785715Y-132880952D01*
X179833334Y-132833333D01*
X179928572Y-132785714D01*
X180071430Y-132785714D01*
X180166668Y-132833333D01*
X180214287Y-132880952D01*
X180261906Y-132976190D01*
X180261906Y-133261905D01*
X180214287Y-133357143D01*
X180166668Y-133404762D01*
X180071430Y-133452381D01*
X179928572Y-133452381D01*
X180690477Y-133452381D02*
X180690477Y-132785714D01*
X180690477Y-132880952D02*
X180738096Y-132833333D01*
X180833334Y-132785714D01*
X180976192Y-132785714D01*
X181071430Y-132833333D01*
X181119049Y-132928571D01*
X181119049Y-133452381D01*
X181119049Y-132928571D02*
X181166668Y-132833333D01*
X181261906Y-132785714D01*
X181404763Y-132785714D01*
X181500001Y-132833333D01*
X181547620Y-132928571D01*
X181547620Y-133452381D01*
X179595238Y-119452381D02*
X180166667Y-119452381D01*
X179880952Y-120452381D02*
X179880952Y-119452381D01*
X180642857Y-120452381D02*
X180547619Y-120404762D01*
X180500000Y-120357143D01*
X180452381Y-120261905D01*
X180452381Y-119976190D01*
X180500000Y-119880952D01*
X180547619Y-119833333D01*
X180642857Y-119785714D01*
X180785715Y-119785714D01*
X180880953Y-119833333D01*
X180928572Y-119880952D01*
X180976191Y-119976190D01*
X180976191Y-120261905D01*
X180928572Y-120357143D01*
X180880953Y-120404762D01*
X180785715Y-120452381D01*
X180642857Y-120452381D01*
X181404762Y-119785714D02*
X181404762Y-120785714D01*
X181404762Y-119833333D02*
X181500000Y-119785714D01*
X181690477Y-119785714D01*
X181785715Y-119833333D01*
X181833334Y-119880952D01*
X181880953Y-119976190D01*
X181880953Y-120261905D01*
X181833334Y-120357143D01*
X181785715Y-120404762D01*
X181690477Y-120452381D01*
X181500000Y-120452381D01*
X181404762Y-120404762D01*
X200857143Y-77000000D02*
X200904762Y-77047619D01*
X200952381Y-77190476D01*
X200952381Y-77285714D01*
X200904762Y-77428572D01*
X200809524Y-77523810D01*
X200714286Y-77571429D01*
X200523810Y-77619048D01*
X200380952Y-77619048D01*
X200190476Y-77571429D01*
X200095238Y-77523810D01*
X200000000Y-77428572D01*
X199952381Y-77285714D01*
X199952381Y-77190476D01*
X200000000Y-77047619D01*
X200047619Y-77000000D01*
X201047619Y-76809524D02*
X201047619Y-76047619D01*
X200285714Y-75380952D02*
X201095238Y-75380952D01*
X201190476Y-75428571D01*
X201238095Y-75476190D01*
X201285714Y-75571429D01*
X201285714Y-75714286D01*
X201238095Y-75809524D01*
X200904762Y-75380952D02*
X200952381Y-75476190D01*
X200952381Y-75666667D01*
X200904762Y-75761905D01*
X200857143Y-75809524D01*
X200761905Y-75857143D01*
X200476190Y-75857143D01*
X200380952Y-75809524D01*
X200333333Y-75761905D01*
X200285714Y-75666667D01*
X200285714Y-75476190D01*
X200333333Y-75380952D01*
X200047619Y-74952381D02*
X200000000Y-74904762D01*
X199952381Y-74809524D01*
X199952381Y-74571428D01*
X200000000Y-74476190D01*
X200047619Y-74428571D01*
X200142857Y-74380952D01*
X200238095Y-74380952D01*
X200380952Y-74428571D01*
X200952381Y-75000000D01*
X200952381Y-74380952D01*
X218857143Y-74547619D02*
X218904762Y-74595238D01*
X218952381Y-74738095D01*
X218952381Y-74833333D01*
X218904762Y-74976191D01*
X218809524Y-75071429D01*
X218714286Y-75119048D01*
X218523810Y-75166667D01*
X218380952Y-75166667D01*
X218190476Y-75119048D01*
X218095238Y-75071429D01*
X218000000Y-74976191D01*
X217952381Y-74833333D01*
X217952381Y-74738095D01*
X218000000Y-74595238D01*
X218047619Y-74547619D01*
X219047619Y-74357143D02*
X219047619Y-73595238D01*
X218952381Y-72833333D02*
X218952381Y-73404762D01*
X218952381Y-73119048D02*
X217952381Y-73119048D01*
X218095238Y-73214286D01*
X218190476Y-73309524D01*
X218238095Y-73404762D01*
X197452381Y-132523809D02*
X196976190Y-132857143D01*
X197452381Y-133095238D02*
X196452381Y-133095238D01*
X196452381Y-132714285D01*
X196500000Y-132619047D01*
X196547619Y-132571428D01*
X196642857Y-132523809D01*
X196785714Y-132523809D01*
X196880952Y-132571428D01*
X196928571Y-132619047D01*
X196976190Y-132714285D01*
X196976190Y-133095238D01*
X197547619Y-132333333D02*
X197547619Y-131571428D01*
X197452381Y-131333333D02*
X196452381Y-131333333D01*
X196833333Y-131333333D02*
X196785714Y-131238095D01*
X196785714Y-131047618D01*
X196833333Y-130952380D01*
X196880952Y-130904761D01*
X196976190Y-130857142D01*
X197261905Y-130857142D01*
X197357143Y-130904761D01*
X197404762Y-130952380D01*
X197452381Y-131047618D01*
X197452381Y-131238095D01*
X197404762Y-131333333D01*
X208452381Y-133000000D02*
X207976190Y-133333334D01*
X208452381Y-133571429D02*
X207452381Y-133571429D01*
X207452381Y-133190476D01*
X207500000Y-133095238D01*
X207547619Y-133047619D01*
X207642857Y-133000000D01*
X207785714Y-133000000D01*
X207880952Y-133047619D01*
X207928571Y-133095238D01*
X207976190Y-133190476D01*
X207976190Y-133571429D01*
X208547619Y-132809524D02*
X208547619Y-132047619D01*
X207785714Y-131380952D02*
X208595238Y-131380952D01*
X208690476Y-131428571D01*
X208738095Y-131476190D01*
X208785714Y-131571429D01*
X208785714Y-131714286D01*
X208738095Y-131809524D01*
X208404762Y-131380952D02*
X208452381Y-131476190D01*
X208452381Y-131666667D01*
X208404762Y-131761905D01*
X208357143Y-131809524D01*
X208261905Y-131857143D01*
X207976190Y-131857143D01*
X207880952Y-131809524D01*
X207833333Y-131761905D01*
X207785714Y-131666667D01*
X207785714Y-131476190D01*
X207833333Y-131380952D01*
X208452381Y-130380952D02*
X208452381Y-130952381D01*
X208452381Y-130666667D02*
X207452381Y-130666667D01*
X207595238Y-130761905D01*
X207690476Y-130857143D01*
X207738095Y-130952381D01*
X221452381Y-105500000D02*
X220976190Y-105833334D01*
X221452381Y-106071429D02*
X220452381Y-106071429D01*
X220452381Y-105690476D01*
X220500000Y-105595238D01*
X220547619Y-105547619D01*
X220642857Y-105500000D01*
X220785714Y-105500000D01*
X220880952Y-105547619D01*
X220928571Y-105595238D01*
X220976190Y-105690476D01*
X220976190Y-106071429D01*
X221547619Y-105309524D02*
X221547619Y-104547619D01*
X221452381Y-103880952D02*
X220928571Y-103880952D01*
X220833333Y-103928571D01*
X220785714Y-104023809D01*
X220785714Y-104214286D01*
X220833333Y-104309524D01*
X221404762Y-103880952D02*
X221452381Y-103976190D01*
X221452381Y-104214286D01*
X221404762Y-104309524D01*
X221309524Y-104357143D01*
X221214286Y-104357143D01*
X221119048Y-104309524D01*
X221071429Y-104214286D01*
X221071429Y-103976190D01*
X221023810Y-103880952D01*
X221452381Y-102880952D02*
X221452381Y-103452381D01*
X221452381Y-103166667D02*
X220452381Y-103166667D01*
X220595238Y-103261905D01*
X220690476Y-103357143D01*
X220738095Y-103452381D01*
X228238096Y-96000000D02*
X228142858Y-95952381D01*
X228000001Y-95952381D01*
X227857143Y-96000000D01*
X227761905Y-96095238D01*
X227714286Y-96190476D01*
X227666667Y-96380952D01*
X227666667Y-96523810D01*
X227714286Y-96714286D01*
X227761905Y-96809524D01*
X227857143Y-96904762D01*
X228000001Y-96952381D01*
X228095239Y-96952381D01*
X228238096Y-96904762D01*
X228285715Y-96857143D01*
X228285715Y-96523810D01*
X228095239Y-96523810D01*
X228714286Y-96952381D02*
X228714286Y-95952381D01*
X229285715Y-96952381D01*
X229285715Y-95952381D01*
X229761905Y-96952381D02*
X229761905Y-95952381D01*
X230000000Y-95952381D01*
X230142858Y-96000000D01*
X230238096Y-96095238D01*
X230285715Y-96190476D01*
X230333334Y-96380952D01*
X230333334Y-96523810D01*
X230285715Y-96714286D01*
X230238096Y-96809524D01*
X230142858Y-96904762D01*
X230000000Y-96952381D01*
X229761905Y-96952381D01*
X174214286Y-114102381D02*
X174785715Y-114102381D01*
X174500000Y-115102381D02*
X174500000Y-114102381D01*
X175119048Y-115102381D02*
X175119048Y-114102381D01*
X175500001Y-114102381D01*
X175595239Y-114150000D01*
X175642858Y-114197619D01*
X175690477Y-114292857D01*
X175690477Y-114435714D01*
X175642858Y-114530952D01*
X175595239Y-114578571D01*
X175500001Y-114626190D01*
X175119048Y-114626190D01*
X173976191Y-116278571D02*
X174119048Y-116326190D01*
X174166667Y-116373810D01*
X174214286Y-116469048D01*
X174214286Y-116611905D01*
X174166667Y-116707143D01*
X174119048Y-116754762D01*
X174023810Y-116802381D01*
X173642857Y-116802381D01*
X173642857Y-115802381D01*
X173976191Y-115802381D01*
X174071429Y-115850000D01*
X174119048Y-115897619D01*
X174166667Y-115992857D01*
X174166667Y-116088095D01*
X174119048Y-116183333D01*
X174071429Y-116230952D01*
X173976191Y-116278571D01*
X173642857Y-116278571D01*
X174642857Y-116802381D02*
X174642857Y-116135714D01*
X174642857Y-115802381D02*
X174595238Y-115850000D01*
X174642857Y-115897619D01*
X174690476Y-115850000D01*
X174642857Y-115802381D01*
X174642857Y-115897619D01*
X175547619Y-116802381D02*
X175547619Y-116278571D01*
X175500000Y-116183333D01*
X175404762Y-116135714D01*
X175214285Y-116135714D01*
X175119047Y-116183333D01*
X175547619Y-116754762D02*
X175452381Y-116802381D01*
X175214285Y-116802381D01*
X175119047Y-116754762D01*
X175071428Y-116659524D01*
X175071428Y-116564286D01*
X175119047Y-116469048D01*
X175214285Y-116421429D01*
X175452381Y-116421429D01*
X175547619Y-116373810D01*
X175976190Y-116754762D02*
X176071428Y-116802381D01*
X176261904Y-116802381D01*
X176357143Y-116754762D01*
X176404762Y-116659524D01*
X176404762Y-116611905D01*
X176357143Y-116516667D01*
X176261904Y-116469048D01*
X176119047Y-116469048D01*
X176023809Y-116421429D01*
X175976190Y-116326190D01*
X175976190Y-116278571D01*
X176023809Y-116183333D01*
X176119047Y-116135714D01*
X176261904Y-116135714D01*
X176357143Y-116183333D01*
X218738095Y-142666667D02*
X219214286Y-142666667D01*
X218642857Y-142952381D02*
X218976190Y-141952381D01*
X219309524Y-142952381D01*
X220166667Y-142000000D02*
X220071429Y-141952381D01*
X219928572Y-141952381D01*
X219785714Y-142000000D01*
X219690476Y-142095238D01*
X219642857Y-142190476D01*
X219595238Y-142380952D01*
X219595238Y-142523810D01*
X219642857Y-142714286D01*
X219690476Y-142809524D01*
X219785714Y-142904762D01*
X219928572Y-142952381D01*
X220023810Y-142952381D01*
X220166667Y-142904762D01*
X220214286Y-142857143D01*
X220214286Y-142523810D01*
X220023810Y-142523810D01*
X220642857Y-142952381D02*
X220642857Y-141952381D01*
X221214286Y-142952381D01*
X221214286Y-141952381D01*
X221690476Y-142952381D02*
X221690476Y-141952381D01*
X221928571Y-141952381D01*
X222071429Y-142000000D01*
X222166667Y-142095238D01*
X222214286Y-142190476D01*
X222261905Y-142380952D01*
X222261905Y-142523810D01*
X222214286Y-142714286D01*
X222166667Y-142809524D01*
X222071429Y-142904762D01*
X221928571Y-142952381D01*
X221690476Y-142952381D01*
X175214286Y-95102381D02*
X175785715Y-95102381D01*
X175500000Y-96102381D02*
X175500000Y-95102381D01*
X176119048Y-96102381D02*
X176119048Y-95102381D01*
X176500001Y-95102381D01*
X176595239Y-95150000D01*
X176642858Y-95197619D01*
X176690477Y-95292857D01*
X176690477Y-95435714D01*
X176642858Y-95530952D01*
X176595239Y-95578571D01*
X176500001Y-95626190D01*
X176119048Y-95626190D01*
X174309523Y-97802381D02*
X174309523Y-96802381D01*
X174690476Y-96802381D01*
X174785714Y-96850000D01*
X174833333Y-96897619D01*
X174880952Y-96992857D01*
X174880952Y-97135714D01*
X174833333Y-97230952D01*
X174785714Y-97278571D01*
X174690476Y-97326190D01*
X174309523Y-97326190D01*
X175452380Y-97802381D02*
X175357142Y-97754762D01*
X175309523Y-97659524D01*
X175309523Y-96802381D01*
X176261905Y-97802381D02*
X176261905Y-97278571D01*
X176214286Y-97183333D01*
X176119048Y-97135714D01*
X175928571Y-97135714D01*
X175833333Y-97183333D01*
X176261905Y-97754762D02*
X176166667Y-97802381D01*
X175928571Y-97802381D01*
X175833333Y-97754762D01*
X175785714Y-97659524D01*
X175785714Y-97564286D01*
X175833333Y-97469048D01*
X175928571Y-97421429D01*
X176166667Y-97421429D01*
X176261905Y-97373810D01*
X176595238Y-97135714D02*
X176976190Y-97135714D01*
X176738095Y-96802381D02*
X176738095Y-97659524D01*
X176785714Y-97754762D01*
X176880952Y-97802381D01*
X176976190Y-97802381D01*
X177690477Y-97754762D02*
X177595239Y-97802381D01*
X177404762Y-97802381D01*
X177309524Y-97754762D01*
X177261905Y-97659524D01*
X177261905Y-97278571D01*
X177309524Y-97183333D01*
X177404762Y-97135714D01*
X177595239Y-97135714D01*
X177690477Y-97183333D01*
X177738096Y-97278571D01*
X177738096Y-97373810D01*
X177261905Y-97469048D01*
X228738096Y-80500000D02*
X228642858Y-80452381D01*
X228500001Y-80452381D01*
X228357143Y-80500000D01*
X228261905Y-80595238D01*
X228214286Y-80690476D01*
X228166667Y-80880952D01*
X228166667Y-81023810D01*
X228214286Y-81214286D01*
X228261905Y-81309524D01*
X228357143Y-81404762D01*
X228500001Y-81452381D01*
X228595239Y-81452381D01*
X228738096Y-81404762D01*
X228785715Y-81357143D01*
X228785715Y-81023810D01*
X228595239Y-81023810D01*
X229214286Y-81452381D02*
X229214286Y-80452381D01*
X229785715Y-81452381D01*
X229785715Y-80452381D01*
X230261905Y-81452381D02*
X230261905Y-80452381D01*
X230500000Y-80452381D01*
X230642858Y-80500000D01*
X230738096Y-80595238D01*
X230785715Y-80690476D01*
X230833334Y-80880952D01*
X230833334Y-81023810D01*
X230785715Y-81214286D01*
X230738096Y-81309524D01*
X230642858Y-81404762D01*
X230500000Y-81452381D01*
X230261905Y-81452381D01*
X195642857Y-59952381D02*
X195642857Y-58952381D01*
X195642857Y-59428571D02*
X196214286Y-59428571D01*
X196214286Y-59952381D02*
X196214286Y-58952381D01*
X196547619Y-58952381D02*
X197119048Y-58952381D01*
X196833333Y-59952381D02*
X196833333Y-58952381D01*
X197452381Y-59952381D02*
X197452381Y-59285714D01*
X197452381Y-58952381D02*
X197404762Y-59000000D01*
X197452381Y-59047619D01*
X197500000Y-59000000D01*
X197452381Y-58952381D01*
X197452381Y-59047619D01*
X197928571Y-59285714D02*
X197928571Y-59952381D01*
X197928571Y-59380952D02*
X197976190Y-59333333D01*
X198071428Y-59285714D01*
X198214286Y-59285714D01*
X198309524Y-59333333D01*
X198357143Y-59428571D01*
X198357143Y-59952381D01*
X197400000Y-111390476D02*
X197361905Y-111466667D01*
X197361905Y-111580952D01*
X197400000Y-111695238D01*
X197476190Y-111771429D01*
X197552381Y-111809524D01*
X197704762Y-111847619D01*
X197819048Y-111847619D01*
X197971429Y-111809524D01*
X198047619Y-111771429D01*
X198123810Y-111695238D01*
X198161905Y-111580952D01*
X198161905Y-111504762D01*
X198123810Y-111390476D01*
X198085714Y-111352381D01*
X197819048Y-111352381D01*
X197819048Y-111504762D01*
X198161905Y-111009524D02*
X197361905Y-111009524D01*
X198161905Y-110552381D01*
X197361905Y-110552381D01*
X198161905Y-110171429D02*
X197361905Y-110171429D01*
X197361905Y-109980953D01*
X197400000Y-109866667D01*
X197476190Y-109790476D01*
X197552381Y-109752381D01*
X197704762Y-109714286D01*
X197819048Y-109714286D01*
X197971429Y-109752381D01*
X198047619Y-109790476D01*
X198123810Y-109866667D01*
X198161905Y-109980953D01*
X198161905Y-110171429D01*
X197742857Y-108761905D02*
X197742857Y-108152381D01*
X197971429Y-108152381D02*
X197971429Y-108761905D01*
X198123810Y-106819048D02*
X198161905Y-106895238D01*
X198161905Y-107047619D01*
X198123810Y-107123810D01*
X198085714Y-107161905D01*
X198009524Y-107200000D01*
X197780952Y-107200000D01*
X197704762Y-107161905D01*
X197666667Y-107123810D01*
X197628571Y-107047619D01*
X197628571Y-106895238D01*
X197666667Y-106819048D01*
X198161905Y-106476191D02*
X197361905Y-106476191D01*
X198161905Y-106133334D02*
X197742857Y-106133334D01*
X197666667Y-106171429D01*
X197628571Y-106247619D01*
X197628571Y-106361905D01*
X197666667Y-106438096D01*
X197704762Y-106476191D01*
X198161905Y-105409524D02*
X197742857Y-105409524D01*
X197666667Y-105447619D01*
X197628571Y-105523809D01*
X197628571Y-105676190D01*
X197666667Y-105752381D01*
X198123810Y-105409524D02*
X198161905Y-105485714D01*
X198161905Y-105676190D01*
X198123810Y-105752381D01*
X198047619Y-105790476D01*
X197971429Y-105790476D01*
X197895238Y-105752381D01*
X197857143Y-105676190D01*
X197857143Y-105485714D01*
X197819048Y-105409524D01*
X198123810Y-105066666D02*
X198161905Y-104990476D01*
X198161905Y-104838095D01*
X198123810Y-104761904D01*
X198047619Y-104723809D01*
X198009524Y-104723809D01*
X197933333Y-104761904D01*
X197895238Y-104838095D01*
X197895238Y-104952380D01*
X197857143Y-105028571D01*
X197780952Y-105066666D01*
X197742857Y-105066666D01*
X197666667Y-105028571D01*
X197628571Y-104952380D01*
X197628571Y-104838095D01*
X197666667Y-104761904D01*
X198123810Y-104419047D02*
X198161905Y-104342857D01*
X198161905Y-104190476D01*
X198123810Y-104114285D01*
X198047619Y-104076190D01*
X198009524Y-104076190D01*
X197933333Y-104114285D01*
X197895238Y-104190476D01*
X197895238Y-104304761D01*
X197857143Y-104380952D01*
X197780952Y-104419047D01*
X197742857Y-104419047D01*
X197666667Y-104380952D01*
X197628571Y-104304761D01*
X197628571Y-104190476D01*
X197666667Y-104114285D01*
X198161905Y-103733333D02*
X197628571Y-103733333D01*
X197361905Y-103733333D02*
X197400000Y-103771428D01*
X197438095Y-103733333D01*
X197400000Y-103695238D01*
X197361905Y-103733333D01*
X197438095Y-103733333D01*
X198123810Y-103390476D02*
X198161905Y-103314286D01*
X198161905Y-103161905D01*
X198123810Y-103085714D01*
X198047619Y-103047619D01*
X198009524Y-103047619D01*
X197933333Y-103085714D01*
X197895238Y-103161905D01*
X197895238Y-103276190D01*
X197857143Y-103352381D01*
X197780952Y-103390476D01*
X197742857Y-103390476D01*
X197666667Y-103352381D01*
X197628571Y-103276190D01*
X197628571Y-103161905D01*
X197666667Y-103085714D01*
X197628571Y-101752381D02*
X198276190Y-101752381D01*
X198352381Y-101790476D01*
X198390476Y-101828571D01*
X198428571Y-101904762D01*
X198428571Y-102019047D01*
X198390476Y-102095238D01*
X198123810Y-101752381D02*
X198161905Y-101828571D01*
X198161905Y-101980952D01*
X198123810Y-102057143D01*
X198085714Y-102095238D01*
X198009524Y-102133333D01*
X197780952Y-102133333D01*
X197704762Y-102095238D01*
X197666667Y-102057143D01*
X197628571Y-101980952D01*
X197628571Y-101828571D01*
X197666667Y-101752381D01*
X198161905Y-101371428D02*
X197628571Y-101371428D01*
X197780952Y-101371428D02*
X197704762Y-101333333D01*
X197666667Y-101295237D01*
X197628571Y-101219047D01*
X197628571Y-101142856D01*
X198161905Y-100761904D02*
X198123810Y-100838095D01*
X198085714Y-100876190D01*
X198009524Y-100914285D01*
X197780952Y-100914285D01*
X197704762Y-100876190D01*
X197666667Y-100838095D01*
X197628571Y-100761904D01*
X197628571Y-100647618D01*
X197666667Y-100571428D01*
X197704762Y-100533333D01*
X197780952Y-100495237D01*
X198009524Y-100495237D01*
X198085714Y-100533333D01*
X198123810Y-100571428D01*
X198161905Y-100647618D01*
X198161905Y-100761904D01*
X197628571Y-99809523D02*
X198161905Y-99809523D01*
X197628571Y-100152380D02*
X198047619Y-100152380D01*
X198123810Y-100114285D01*
X198161905Y-100038094D01*
X198161905Y-99923808D01*
X198123810Y-99847618D01*
X198085714Y-99809523D01*
X197628571Y-99428570D02*
X198161905Y-99428570D01*
X197704762Y-99428570D02*
X197666667Y-99390475D01*
X197628571Y-99314284D01*
X197628571Y-99199998D01*
X197666667Y-99123808D01*
X197742857Y-99085713D01*
X198161905Y-99085713D01*
X198161905Y-98361903D02*
X197361905Y-98361903D01*
X198123810Y-98361903D02*
X198161905Y-98438093D01*
X198161905Y-98590474D01*
X198123810Y-98666665D01*
X198085714Y-98704760D01*
X198009524Y-98742855D01*
X197780952Y-98742855D01*
X197704762Y-98704760D01*
X197666667Y-98666665D01*
X197628571Y-98590474D01*
X197628571Y-98438093D01*
X197666667Y-98361903D01*
X199333333Y-111847619D02*
X199333333Y-111466667D01*
X199561905Y-111923810D02*
X198761905Y-111657143D01*
X199561905Y-111390476D01*
X198800000Y-110704762D02*
X198761905Y-110780953D01*
X198761905Y-110895238D01*
X198800000Y-111009524D01*
X198876190Y-111085715D01*
X198952381Y-111123810D01*
X199104762Y-111161905D01*
X199219048Y-111161905D01*
X199371429Y-111123810D01*
X199447619Y-111085715D01*
X199523810Y-111009524D01*
X199561905Y-110895238D01*
X199561905Y-110819048D01*
X199523810Y-110704762D01*
X199485714Y-110666667D01*
X199219048Y-110666667D01*
X199219048Y-110819048D01*
X199561905Y-110323810D02*
X198761905Y-110323810D01*
X199561905Y-109866667D01*
X198761905Y-109866667D01*
X199561905Y-109485715D02*
X198761905Y-109485715D01*
X198761905Y-109295239D01*
X198800000Y-109180953D01*
X198876190Y-109104762D01*
X198952381Y-109066667D01*
X199104762Y-109028572D01*
X199219048Y-109028572D01*
X199371429Y-109066667D01*
X199447619Y-109104762D01*
X199523810Y-109180953D01*
X199561905Y-109295239D01*
X199561905Y-109485715D01*
X199142857Y-108076191D02*
X199142857Y-107466667D01*
X199371429Y-107466667D02*
X199371429Y-108076191D01*
X199561905Y-106133334D02*
X199142857Y-106133334D01*
X199066667Y-106171429D01*
X199028571Y-106247619D01*
X199028571Y-106400000D01*
X199066667Y-106476191D01*
X199523810Y-106133334D02*
X199561905Y-106209524D01*
X199561905Y-106400000D01*
X199523810Y-106476191D01*
X199447619Y-106514286D01*
X199371429Y-106514286D01*
X199295238Y-106476191D01*
X199257143Y-106400000D01*
X199257143Y-106209524D01*
X199219048Y-106133334D01*
X199028571Y-105409524D02*
X199561905Y-105409524D01*
X199028571Y-105752381D02*
X199447619Y-105752381D01*
X199523810Y-105714286D01*
X199561905Y-105638095D01*
X199561905Y-105523809D01*
X199523810Y-105447619D01*
X199485714Y-105409524D01*
X199561905Y-104685714D02*
X198761905Y-104685714D01*
X199523810Y-104685714D02*
X199561905Y-104761904D01*
X199561905Y-104914285D01*
X199523810Y-104990476D01*
X199485714Y-105028571D01*
X199409524Y-105066666D01*
X199180952Y-105066666D01*
X199104762Y-105028571D01*
X199066667Y-104990476D01*
X199028571Y-104914285D01*
X199028571Y-104761904D01*
X199066667Y-104685714D01*
X199561905Y-104304761D02*
X199028571Y-104304761D01*
X198761905Y-104304761D02*
X198800000Y-104342856D01*
X198838095Y-104304761D01*
X198800000Y-104266666D01*
X198761905Y-104304761D01*
X198838095Y-104304761D01*
X199561905Y-103809523D02*
X199523810Y-103885714D01*
X199485714Y-103923809D01*
X199409524Y-103961904D01*
X199180952Y-103961904D01*
X199104762Y-103923809D01*
X199066667Y-103885714D01*
X199028571Y-103809523D01*
X199028571Y-103695237D01*
X199066667Y-103619047D01*
X199104762Y-103580952D01*
X199180952Y-103542856D01*
X199409524Y-103542856D01*
X199485714Y-103580952D01*
X199523810Y-103619047D01*
X199561905Y-103695237D01*
X199561905Y-103809523D01*
X199028571Y-102247618D02*
X199676190Y-102247618D01*
X199752381Y-102285713D01*
X199790476Y-102323808D01*
X199828571Y-102399999D01*
X199828571Y-102514284D01*
X199790476Y-102590475D01*
X199523810Y-102247618D02*
X199561905Y-102323808D01*
X199561905Y-102476189D01*
X199523810Y-102552380D01*
X199485714Y-102590475D01*
X199409524Y-102628570D01*
X199180952Y-102628570D01*
X199104762Y-102590475D01*
X199066667Y-102552380D01*
X199028571Y-102476189D01*
X199028571Y-102323808D01*
X199066667Y-102247618D01*
X199561905Y-101866665D02*
X199028571Y-101866665D01*
X199180952Y-101866665D02*
X199104762Y-101828570D01*
X199066667Y-101790474D01*
X199028571Y-101714284D01*
X199028571Y-101638093D01*
X199561905Y-101257141D02*
X199523810Y-101333332D01*
X199485714Y-101371427D01*
X199409524Y-101409522D01*
X199180952Y-101409522D01*
X199104762Y-101371427D01*
X199066667Y-101333332D01*
X199028571Y-101257141D01*
X199028571Y-101142855D01*
X199066667Y-101066665D01*
X199104762Y-101028570D01*
X199180952Y-100990474D01*
X199409524Y-100990474D01*
X199485714Y-101028570D01*
X199523810Y-101066665D01*
X199561905Y-101142855D01*
X199561905Y-101257141D01*
X199028571Y-100304760D02*
X199561905Y-100304760D01*
X199028571Y-100647617D02*
X199447619Y-100647617D01*
X199523810Y-100609522D01*
X199561905Y-100533331D01*
X199561905Y-100419045D01*
X199523810Y-100342855D01*
X199485714Y-100304760D01*
X199028571Y-99923807D02*
X199561905Y-99923807D01*
X199104762Y-99923807D02*
X199066667Y-99885712D01*
X199028571Y-99809521D01*
X199028571Y-99695235D01*
X199066667Y-99619045D01*
X199142857Y-99580950D01*
X199561905Y-99580950D01*
X199561905Y-98857140D02*
X198761905Y-98857140D01*
X199523810Y-98857140D02*
X199561905Y-98933330D01*
X199561905Y-99085711D01*
X199523810Y-99161902D01*
X199485714Y-99199997D01*
X199409524Y-99238092D01*
X199180952Y-99238092D01*
X199104762Y-99199997D01*
X199066667Y-99161902D01*
X199028571Y-99085711D01*
X199028571Y-98933330D01*
X199066667Y-98857140D01*
X174214286Y-138102381D02*
X174785715Y-138102381D01*
X174500000Y-139102381D02*
X174500000Y-138102381D01*
X175119048Y-139102381D02*
X175119048Y-138102381D01*
X175500001Y-138102381D01*
X175595239Y-138150000D01*
X175642858Y-138197619D01*
X175690477Y-138292857D01*
X175690477Y-138435714D01*
X175642858Y-138530952D01*
X175595239Y-138578571D01*
X175500001Y-138626190D01*
X175119048Y-138626190D01*
X174238096Y-139850000D02*
X174142858Y-139802381D01*
X174000001Y-139802381D01*
X173857143Y-139850000D01*
X173761905Y-139945238D01*
X173714286Y-140040476D01*
X173666667Y-140230952D01*
X173666667Y-140373810D01*
X173714286Y-140564286D01*
X173761905Y-140659524D01*
X173857143Y-140754762D01*
X174000001Y-140802381D01*
X174095239Y-140802381D01*
X174238096Y-140754762D01*
X174285715Y-140707143D01*
X174285715Y-140373810D01*
X174095239Y-140373810D01*
X174714286Y-140802381D02*
X174714286Y-139802381D01*
X175285715Y-140802381D01*
X175285715Y-139802381D01*
X175761905Y-140802381D02*
X175761905Y-139802381D01*
X176000000Y-139802381D01*
X176142858Y-139850000D01*
X176238096Y-139945238D01*
X176285715Y-140040476D01*
X176333334Y-140230952D01*
X176333334Y-140373810D01*
X176285715Y-140564286D01*
X176238096Y-140659524D01*
X176142858Y-140754762D01*
X176000000Y-140802381D01*
X175761905Y-140802381D01*
X217452381Y-106976190D02*
X216976190Y-107309524D01*
X217452381Y-107547619D02*
X216452381Y-107547619D01*
X216452381Y-107166666D01*
X216500000Y-107071428D01*
X216547619Y-107023809D01*
X216642857Y-106976190D01*
X216785714Y-106976190D01*
X216880952Y-107023809D01*
X216928571Y-107071428D01*
X216976190Y-107166666D01*
X216976190Y-107547619D01*
X217547619Y-106785714D02*
X217547619Y-106023809D01*
X217452381Y-105785714D02*
X216452381Y-105785714D01*
X217071429Y-105690476D02*
X217452381Y-105404761D01*
X216785714Y-105404761D02*
X217166667Y-105785714D01*
X194952381Y-86000000D02*
X194476190Y-86333334D01*
X194952381Y-86571429D02*
X193952381Y-86571429D01*
X193952381Y-86190476D01*
X194000000Y-86095238D01*
X194047619Y-86047619D01*
X194142857Y-86000000D01*
X194285714Y-86000000D01*
X194380952Y-86047619D01*
X194428571Y-86095238D01*
X194476190Y-86190476D01*
X194476190Y-86571429D01*
X195047619Y-85809524D02*
X195047619Y-85047619D01*
X194952381Y-84380952D02*
X194428571Y-84380952D01*
X194333333Y-84428571D01*
X194285714Y-84523809D01*
X194285714Y-84714286D01*
X194333333Y-84809524D01*
X194904762Y-84380952D02*
X194952381Y-84476190D01*
X194952381Y-84714286D01*
X194904762Y-84809524D01*
X194809524Y-84857143D01*
X194714286Y-84857143D01*
X194619048Y-84809524D01*
X194571429Y-84714286D01*
X194571429Y-84476190D01*
X194523810Y-84380952D01*
X194047619Y-83952381D02*
X194000000Y-83904762D01*
X193952381Y-83809524D01*
X193952381Y-83571428D01*
X194000000Y-83476190D01*
X194047619Y-83428571D01*
X194142857Y-83380952D01*
X194238095Y-83380952D01*
X194380952Y-83428571D01*
X194952381Y-84000000D01*
X194952381Y-83380952D01*
X187357143Y-108404762D02*
X187404762Y-108452381D01*
X187452381Y-108595238D01*
X187452381Y-108690476D01*
X187404762Y-108833334D01*
X187309524Y-108928572D01*
X187214286Y-108976191D01*
X187023810Y-109023810D01*
X186880952Y-109023810D01*
X186690476Y-108976191D01*
X186595238Y-108928572D01*
X186500000Y-108833334D01*
X186452381Y-108690476D01*
X186452381Y-108595238D01*
X186500000Y-108452381D01*
X186547619Y-108404762D01*
X187547619Y-108214286D02*
X187547619Y-107452381D01*
X186785714Y-107357143D02*
X186785714Y-106976191D01*
X187452381Y-107214286D02*
X186595238Y-107214286D01*
X186500000Y-107166667D01*
X186452381Y-107071429D01*
X186452381Y-106976191D01*
X187452381Y-106642857D02*
X186785714Y-106642857D01*
X186452381Y-106642857D02*
X186500000Y-106690476D01*
X186547619Y-106642857D01*
X186500000Y-106595238D01*
X186452381Y-106642857D01*
X186547619Y-106642857D01*
X186785714Y-106261905D02*
X186785714Y-105738095D01*
X187452381Y-106261905D01*
X187452381Y-105738095D01*
X186785714Y-105452381D02*
X186785714Y-104928571D01*
X187452381Y-105452381D01*
X187452381Y-104928571D01*
X220452381Y-59357143D02*
X220404762Y-59404762D01*
X220261905Y-59452381D01*
X220166667Y-59452381D01*
X220023809Y-59404762D01*
X219928571Y-59309524D01*
X219880952Y-59214286D01*
X219833333Y-59023810D01*
X219833333Y-58880952D01*
X219880952Y-58690476D01*
X219928571Y-58595238D01*
X220023809Y-58500000D01*
X220166667Y-58452381D01*
X220261905Y-58452381D01*
X220404762Y-58500000D01*
X220452381Y-58547619D01*
X220880952Y-59452381D02*
X220880952Y-58452381D01*
X221309524Y-59452381D02*
X221309524Y-58928571D01*
X221261905Y-58833333D01*
X221166667Y-58785714D01*
X221023809Y-58785714D01*
X220928571Y-58833333D01*
X220880952Y-58880952D01*
X222214286Y-59452381D02*
X222214286Y-58928571D01*
X222166667Y-58833333D01*
X222071429Y-58785714D01*
X221880952Y-58785714D01*
X221785714Y-58833333D01*
X222214286Y-59404762D02*
X222119048Y-59452381D01*
X221880952Y-59452381D01*
X221785714Y-59404762D01*
X221738095Y-59309524D01*
X221738095Y-59214286D01*
X221785714Y-59119048D01*
X221880952Y-59071429D01*
X222119048Y-59071429D01*
X222214286Y-59023810D01*
X222642857Y-59404762D02*
X222738095Y-59452381D01*
X222928571Y-59452381D01*
X223023810Y-59404762D01*
X223071429Y-59309524D01*
X223071429Y-59261905D01*
X223023810Y-59166667D01*
X222928571Y-59119048D01*
X222785714Y-59119048D01*
X222690476Y-59071429D01*
X222642857Y-58976190D01*
X222642857Y-58928571D01*
X222690476Y-58833333D01*
X222785714Y-58785714D01*
X222928571Y-58785714D01*
X223023810Y-58833333D01*
X223452381Y-59404762D02*
X223547619Y-59452381D01*
X223738095Y-59452381D01*
X223833334Y-59404762D01*
X223880953Y-59309524D01*
X223880953Y-59261905D01*
X223833334Y-59166667D01*
X223738095Y-59119048D01*
X223595238Y-59119048D01*
X223500000Y-59071429D01*
X223452381Y-58976190D01*
X223452381Y-58928571D01*
X223500000Y-58833333D01*
X223595238Y-58785714D01*
X223738095Y-58785714D01*
X223833334Y-58833333D01*
X224309524Y-59452381D02*
X224309524Y-58785714D01*
X224309524Y-58452381D02*
X224261905Y-58500000D01*
X224309524Y-58547619D01*
X224357143Y-58500000D01*
X224309524Y-58452381D01*
X224309524Y-58547619D01*
X224738095Y-59404762D02*
X224833333Y-59452381D01*
X225023809Y-59452381D01*
X225119048Y-59404762D01*
X225166667Y-59309524D01*
X225166667Y-59261905D01*
X225119048Y-59166667D01*
X225023809Y-59119048D01*
X224880952Y-59119048D01*
X224785714Y-59071429D01*
X224738095Y-58976190D01*
X224738095Y-58928571D01*
X224785714Y-58833333D01*
X224880952Y-58785714D01*
X225023809Y-58785714D01*
X225119048Y-58833333D01*
X186142857Y-72452381D02*
X185809523Y-71976190D01*
X185571428Y-72452381D02*
X185571428Y-71452381D01*
X185952381Y-71452381D01*
X186047619Y-71500000D01*
X186095238Y-71547619D01*
X186142857Y-71642857D01*
X186142857Y-71785714D01*
X186095238Y-71880952D01*
X186047619Y-71928571D01*
X185952381Y-71976190D01*
X185571428Y-71976190D01*
X186333333Y-72547619D02*
X187095238Y-72547619D01*
X187190476Y-71785714D02*
X187571428Y-71785714D01*
X187333333Y-72452381D02*
X187333333Y-71595238D01*
X187380952Y-71500000D01*
X187476190Y-71452381D01*
X187571428Y-71452381D01*
X174642857Y-76857143D02*
X174595238Y-76904762D01*
X174452381Y-76952381D01*
X174357143Y-76952381D01*
X174214285Y-76904762D01*
X174119047Y-76809524D01*
X174071428Y-76714286D01*
X174023809Y-76523810D01*
X174023809Y-76380952D01*
X174071428Y-76190476D01*
X174119047Y-76095238D01*
X174214285Y-76000000D01*
X174357143Y-75952381D01*
X174452381Y-75952381D01*
X174595238Y-76000000D01*
X174642857Y-76047619D01*
X174833333Y-77047619D02*
X175595238Y-77047619D01*
X175690476Y-76285714D02*
X176071428Y-76285714D01*
X175833333Y-76952381D02*
X175833333Y-76095238D01*
X175880952Y-76000000D01*
X175976190Y-75952381D01*
X176071428Y-75952381D01*
X201952381Y-59857143D02*
X201904762Y-59904762D01*
X201761905Y-59952381D01*
X201666667Y-59952381D01*
X201523809Y-59904762D01*
X201428571Y-59809524D01*
X201380952Y-59714286D01*
X201333333Y-59523810D01*
X201333333Y-59380952D01*
X201380952Y-59190476D01*
X201428571Y-59095238D01*
X201523809Y-59000000D01*
X201666667Y-58952381D01*
X201761905Y-58952381D01*
X201904762Y-59000000D01*
X201952381Y-59047619D01*
X202142857Y-60047619D02*
X202904762Y-60047619D01*
X203095238Y-59047619D02*
X203142857Y-59000000D01*
X203238095Y-58952381D01*
X203476191Y-58952381D01*
X203571429Y-59000000D01*
X203619048Y-59047619D01*
X203666667Y-59142857D01*
X203666667Y-59238095D01*
X203619048Y-59380952D01*
X203047619Y-59952381D01*
X203666667Y-59952381D01*
X215857143Y-128500000D02*
X215904762Y-128547619D01*
X215952381Y-128690476D01*
X215952381Y-128785714D01*
X215904762Y-128928572D01*
X215809524Y-129023810D01*
X215714286Y-129071429D01*
X215523810Y-129119048D01*
X215380952Y-129119048D01*
X215190476Y-129071429D01*
X215095238Y-129023810D01*
X215000000Y-128928572D01*
X214952381Y-128785714D01*
X214952381Y-128690476D01*
X215000000Y-128547619D01*
X215047619Y-128500000D01*
X216047619Y-128309524D02*
X216047619Y-127547619D01*
X215952381Y-127166667D02*
X215904762Y-127261905D01*
X215857143Y-127309524D01*
X215761905Y-127357143D01*
X215476190Y-127357143D01*
X215380952Y-127309524D01*
X215333333Y-127261905D01*
X215285714Y-127166667D01*
X215285714Y-127023809D01*
X215333333Y-126928571D01*
X215380952Y-126880952D01*
X215476190Y-126833333D01*
X215761905Y-126833333D01*
X215857143Y-126880952D01*
X215904762Y-126928571D01*
X215952381Y-127023809D01*
X215952381Y-127166667D01*
X215952381Y-125880952D02*
X215952381Y-126452381D01*
X215952381Y-126166667D02*
X214952381Y-126166667D01*
X215095238Y-126261905D01*
X215190476Y-126357143D01*
X215238095Y-126452381D01*
X189857143Y-128500000D02*
X189904762Y-128547619D01*
X189952381Y-128690476D01*
X189952381Y-128785714D01*
X189904762Y-128928572D01*
X189809524Y-129023810D01*
X189714286Y-129071429D01*
X189523810Y-129119048D01*
X189380952Y-129119048D01*
X189190476Y-129071429D01*
X189095238Y-129023810D01*
X189000000Y-128928572D01*
X188952381Y-128785714D01*
X188952381Y-128690476D01*
X189000000Y-128547619D01*
X189047619Y-128500000D01*
X190047619Y-128309524D02*
X190047619Y-127547619D01*
X189952381Y-127166667D02*
X189904762Y-127261905D01*
X189857143Y-127309524D01*
X189761905Y-127357143D01*
X189476190Y-127357143D01*
X189380952Y-127309524D01*
X189333333Y-127261905D01*
X189285714Y-127166667D01*
X189285714Y-127023809D01*
X189333333Y-126928571D01*
X189380952Y-126880952D01*
X189476190Y-126833333D01*
X189761905Y-126833333D01*
X189857143Y-126880952D01*
X189904762Y-126928571D01*
X189952381Y-127023809D01*
X189952381Y-127166667D01*
X189047619Y-126452381D02*
X189000000Y-126404762D01*
X188952381Y-126309524D01*
X188952381Y-126071428D01*
X189000000Y-125976190D01*
X189047619Y-125928571D01*
X189142857Y-125880952D01*
X189238095Y-125880952D01*
X189380952Y-125928571D01*
X189952381Y-126500000D01*
X189952381Y-125880952D01*
X210952381Y-75857143D02*
X210476190Y-76190477D01*
X210952381Y-76428572D02*
X209952381Y-76428572D01*
X209952381Y-76047619D01*
X210000000Y-75952381D01*
X210047619Y-75904762D01*
X210142857Y-75857143D01*
X210285714Y-75857143D01*
X210380952Y-75904762D01*
X210428571Y-75952381D01*
X210476190Y-76047619D01*
X210476190Y-76428572D01*
X211047619Y-75666667D02*
X211047619Y-74904762D01*
X210285714Y-74809524D02*
X210285714Y-74428572D01*
X210952381Y-74666667D02*
X210095238Y-74666667D01*
X210000000Y-74619048D01*
X209952381Y-74523810D01*
X209952381Y-74428572D01*
X212000000Y-91952381D02*
X211666666Y-91476190D01*
X211428571Y-91952381D02*
X211428571Y-90952381D01*
X211809524Y-90952381D01*
X211904762Y-91000000D01*
X211952381Y-91047619D01*
X212000000Y-91142857D01*
X212000000Y-91285714D01*
X211952381Y-91380952D01*
X211904762Y-91428571D01*
X211809524Y-91476190D01*
X211428571Y-91476190D01*
X212190476Y-92047619D02*
X212952381Y-92047619D01*
X213619048Y-91285714D02*
X213619048Y-92095238D01*
X213571429Y-92190476D01*
X213523810Y-92238095D01*
X213428571Y-92285714D01*
X213285714Y-92285714D01*
X213190476Y-92238095D01*
X213619048Y-91904762D02*
X213523810Y-91952381D01*
X213333333Y-91952381D01*
X213238095Y-91904762D01*
X213190476Y-91857143D01*
X213142857Y-91761905D01*
X213142857Y-91476190D01*
X213190476Y-91380952D01*
X213238095Y-91333333D01*
X213333333Y-91285714D01*
X213523810Y-91285714D01*
X213619048Y-91333333D01*
X214047619Y-91047619D02*
X214095238Y-91000000D01*
X214190476Y-90952381D01*
X214428572Y-90952381D01*
X214523810Y-91000000D01*
X214571429Y-91047619D01*
X214619048Y-91142857D01*
X214619048Y-91238095D01*
X214571429Y-91380952D01*
X214000000Y-91952381D01*
X214619048Y-91952381D01*
X202952381Y-128023809D02*
X202476190Y-128357143D01*
X202952381Y-128595238D02*
X201952381Y-128595238D01*
X201952381Y-128214285D01*
X202000000Y-128119047D01*
X202047619Y-128071428D01*
X202142857Y-128023809D01*
X202285714Y-128023809D01*
X202380952Y-128071428D01*
X202428571Y-128119047D01*
X202476190Y-128214285D01*
X202476190Y-128595238D01*
X203047619Y-127833333D02*
X203047619Y-127071428D01*
X202285714Y-126404761D02*
X203095238Y-126404761D01*
X203190476Y-126452380D01*
X203238095Y-126499999D01*
X203285714Y-126595238D01*
X203285714Y-126738095D01*
X203238095Y-126833333D01*
X202904762Y-126404761D02*
X202952381Y-126499999D01*
X202952381Y-126690476D01*
X202904762Y-126785714D01*
X202857143Y-126833333D01*
X202761905Y-126880952D01*
X202476190Y-126880952D01*
X202380952Y-126833333D01*
X202333333Y-126785714D01*
X202285714Y-126690476D01*
X202285714Y-126499999D01*
X202333333Y-126404761D01*
X228285714Y-68452381D02*
X228285714Y-67452381D01*
X228857143Y-68452381D01*
X228857143Y-67452381D01*
X229666667Y-67928571D02*
X229333333Y-67928571D01*
X229333333Y-68452381D02*
X229333333Y-67452381D01*
X229809524Y-67452381D01*
X230523810Y-67928571D02*
X230666667Y-67976190D01*
X230714286Y-68023810D01*
X230761905Y-68119048D01*
X230761905Y-68261905D01*
X230714286Y-68357143D01*
X230666667Y-68404762D01*
X230571429Y-68452381D01*
X230190476Y-68452381D01*
X230190476Y-67452381D01*
X230523810Y-67452381D01*
X230619048Y-67500000D01*
X230666667Y-67547619D01*
X230714286Y-67642857D01*
X230714286Y-67738095D01*
X230666667Y-67833333D01*
X230619048Y-67880952D01*
X230523810Y-67928571D01*
X230190476Y-67928571D01*
X224357142Y-83952381D02*
X224357142Y-82952381D01*
X224738095Y-82952381D01*
X224833333Y-83000000D01*
X224880952Y-83047619D01*
X224928571Y-83142857D01*
X224928571Y-83285714D01*
X224880952Y-83380952D01*
X224833333Y-83428571D01*
X224738095Y-83476190D01*
X224357142Y-83476190D01*
X225357142Y-83952381D02*
X225357142Y-83285714D01*
X225357142Y-83476190D02*
X225404761Y-83380952D01*
X225452380Y-83333333D01*
X225547618Y-83285714D01*
X225642857Y-83285714D01*
X226357143Y-83904762D02*
X226261905Y-83952381D01*
X226071428Y-83952381D01*
X225976190Y-83904762D01*
X225928571Y-83809524D01*
X225928571Y-83428571D01*
X225976190Y-83333333D01*
X226071428Y-83285714D01*
X226261905Y-83285714D01*
X226357143Y-83333333D01*
X226404762Y-83428571D01*
X226404762Y-83523810D01*
X225928571Y-83619048D01*
X226785714Y-83904762D02*
X226880952Y-83952381D01*
X227071428Y-83952381D01*
X227166667Y-83904762D01*
X227214286Y-83809524D01*
X227214286Y-83761905D01*
X227166667Y-83666667D01*
X227071428Y-83619048D01*
X226928571Y-83619048D01*
X226833333Y-83571429D01*
X226785714Y-83476190D01*
X226785714Y-83428571D01*
X226833333Y-83333333D01*
X226928571Y-83285714D01*
X227071428Y-83285714D01*
X227166667Y-83333333D01*
X228023810Y-83904762D02*
X227928572Y-83952381D01*
X227738095Y-83952381D01*
X227642857Y-83904762D01*
X227595238Y-83809524D01*
X227595238Y-83428571D01*
X227642857Y-83333333D01*
X227738095Y-83285714D01*
X227928572Y-83285714D01*
X228023810Y-83333333D01*
X228071429Y-83428571D01*
X228071429Y-83523810D01*
X227595238Y-83619048D01*
X228500000Y-83285714D02*
X228500000Y-83952381D01*
X228500000Y-83380952D02*
X228547619Y-83333333D01*
X228642857Y-83285714D01*
X228785715Y-83285714D01*
X228880953Y-83333333D01*
X228928572Y-83428571D01*
X228928572Y-83952381D01*
X229833334Y-83904762D02*
X229738096Y-83952381D01*
X229547619Y-83952381D01*
X229452381Y-83904762D01*
X229404762Y-83857143D01*
X229357143Y-83761905D01*
X229357143Y-83476190D01*
X229404762Y-83380952D01*
X229452381Y-83333333D01*
X229547619Y-83285714D01*
X229738096Y-83285714D01*
X229833334Y-83333333D01*
X230642858Y-83904762D02*
X230547620Y-83952381D01*
X230357143Y-83952381D01*
X230261905Y-83904762D01*
X230214286Y-83809524D01*
X230214286Y-83428571D01*
X230261905Y-83333333D01*
X230357143Y-83285714D01*
X230547620Y-83285714D01*
X230642858Y-83333333D01*
X230690477Y-83428571D01*
X230690477Y-83523810D01*
X230214286Y-83619048D01*
X225404761Y-99952381D02*
X225404761Y-98952381D01*
X225404761Y-99428571D02*
X225976190Y-99428571D01*
X225976190Y-99952381D02*
X225976190Y-98952381D01*
X226833333Y-99904762D02*
X226738095Y-99952381D01*
X226547618Y-99952381D01*
X226452380Y-99904762D01*
X226404761Y-99809524D01*
X226404761Y-99428571D01*
X226452380Y-99333333D01*
X226547618Y-99285714D01*
X226738095Y-99285714D01*
X226833333Y-99333333D01*
X226880952Y-99428571D01*
X226880952Y-99523810D01*
X226404761Y-99619048D01*
X227738095Y-99952381D02*
X227738095Y-99428571D01*
X227690476Y-99333333D01*
X227595238Y-99285714D01*
X227404761Y-99285714D01*
X227309523Y-99333333D01*
X227738095Y-99904762D02*
X227642857Y-99952381D01*
X227404761Y-99952381D01*
X227309523Y-99904762D01*
X227261904Y-99809524D01*
X227261904Y-99714286D01*
X227309523Y-99619048D01*
X227404761Y-99571429D01*
X227642857Y-99571429D01*
X227738095Y-99523810D01*
X228071428Y-99285714D02*
X228452380Y-99285714D01*
X228214285Y-98952381D02*
X228214285Y-99809524D01*
X228261904Y-99904762D01*
X228357142Y-99952381D01*
X228452380Y-99952381D01*
X229166667Y-99904762D02*
X229071429Y-99952381D01*
X228880952Y-99952381D01*
X228785714Y-99904762D01*
X228738095Y-99809524D01*
X228738095Y-99428571D01*
X228785714Y-99333333D01*
X228880952Y-99285714D01*
X229071429Y-99285714D01*
X229166667Y-99333333D01*
X229214286Y-99428571D01*
X229214286Y-99523810D01*
X228738095Y-99619048D01*
X229642857Y-99952381D02*
X229642857Y-99285714D01*
X229642857Y-99476190D02*
X229690476Y-99380952D01*
X229738095Y-99333333D01*
X229833333Y-99285714D01*
X229928572Y-99285714D01*
X230214286Y-99904762D02*
X230309524Y-99952381D01*
X230500000Y-99952381D01*
X230595239Y-99904762D01*
X230642858Y-99809524D01*
X230642858Y-99761905D01*
X230595239Y-99666667D01*
X230500000Y-99619048D01*
X230357143Y-99619048D01*
X230261905Y-99571429D01*
X230214286Y-99476190D01*
X230214286Y-99428571D01*
X230261905Y-99333333D01*
X230357143Y-99285714D01*
X230500000Y-99285714D01*
X230595239Y-99333333D01*
X173904761Y-99952381D02*
X173904761Y-98952381D01*
X173904761Y-99428571D02*
X174476190Y-99428571D01*
X174476190Y-99952381D02*
X174476190Y-98952381D01*
X175333333Y-99904762D02*
X175238095Y-99952381D01*
X175047618Y-99952381D01*
X174952380Y-99904762D01*
X174904761Y-99809524D01*
X174904761Y-99428571D01*
X174952380Y-99333333D01*
X175047618Y-99285714D01*
X175238095Y-99285714D01*
X175333333Y-99333333D01*
X175380952Y-99428571D01*
X175380952Y-99523810D01*
X174904761Y-99619048D01*
X176238095Y-99952381D02*
X176238095Y-99428571D01*
X176190476Y-99333333D01*
X176095238Y-99285714D01*
X175904761Y-99285714D01*
X175809523Y-99333333D01*
X176238095Y-99904762D02*
X176142857Y-99952381D01*
X175904761Y-99952381D01*
X175809523Y-99904762D01*
X175761904Y-99809524D01*
X175761904Y-99714286D01*
X175809523Y-99619048D01*
X175904761Y-99571429D01*
X176142857Y-99571429D01*
X176238095Y-99523810D01*
X176571428Y-99285714D02*
X176952380Y-99285714D01*
X176714285Y-98952381D02*
X176714285Y-99809524D01*
X176761904Y-99904762D01*
X176857142Y-99952381D01*
X176952380Y-99952381D01*
X177666667Y-99904762D02*
X177571429Y-99952381D01*
X177380952Y-99952381D01*
X177285714Y-99904762D01*
X177238095Y-99809524D01*
X177238095Y-99428571D01*
X177285714Y-99333333D01*
X177380952Y-99285714D01*
X177571429Y-99285714D01*
X177666667Y-99333333D01*
X177714286Y-99428571D01*
X177714286Y-99523810D01*
X177238095Y-99619048D01*
X178142857Y-99952381D02*
X178142857Y-99285714D01*
X178142857Y-99476190D02*
X178190476Y-99380952D01*
X178238095Y-99333333D01*
X178333333Y-99285714D01*
X178428572Y-99285714D01*
X178714286Y-99904762D02*
X178809524Y-99952381D01*
X179000000Y-99952381D01*
X179095239Y-99904762D01*
X179142858Y-99809524D01*
X179142858Y-99761905D01*
X179095239Y-99666667D01*
X179000000Y-99619048D01*
X178857143Y-99619048D01*
X178761905Y-99571429D01*
X178714286Y-99476190D01*
X178714286Y-99428571D01*
X178761905Y-99333333D01*
X178857143Y-99285714D01*
X179000000Y-99285714D01*
X179095239Y-99333333D01*
X179642857Y-59952381D02*
X179642857Y-58952381D01*
X179642857Y-59428571D02*
X180214286Y-59428571D01*
X180214286Y-59952381D02*
X180214286Y-58952381D01*
X180547619Y-58952381D02*
X181119048Y-58952381D01*
X180833333Y-59952381D02*
X180833333Y-58952381D01*
X181595238Y-59952381D02*
X181500000Y-59904762D01*
X181452381Y-59857143D01*
X181404762Y-59761905D01*
X181404762Y-59476190D01*
X181452381Y-59380952D01*
X181500000Y-59333333D01*
X181595238Y-59285714D01*
X181738096Y-59285714D01*
X181833334Y-59333333D01*
X181880953Y-59380952D01*
X181928572Y-59476190D01*
X181928572Y-59761905D01*
X181880953Y-59857143D01*
X181833334Y-59904762D01*
X181738096Y-59952381D01*
X181595238Y-59952381D01*
X182785715Y-59285714D02*
X182785715Y-59952381D01*
X182357143Y-59285714D02*
X182357143Y-59809524D01*
X182404762Y-59904762D01*
X182500000Y-59952381D01*
X182642858Y-59952381D01*
X182738096Y-59904762D01*
X182785715Y-59857143D01*
X183119048Y-59285714D02*
X183500000Y-59285714D01*
X183261905Y-58952381D02*
X183261905Y-59809524D01*
X183309524Y-59904762D01*
X183404762Y-59952381D01*
X183500000Y-59952381D01*
X203023810Y-88952381D02*
X202690476Y-88476190D01*
X202452381Y-88952381D02*
X202452381Y-87952381D01*
X202833334Y-87952381D01*
X202928572Y-88000000D01*
X202976191Y-88047619D01*
X203023810Y-88142857D01*
X203023810Y-88285714D01*
X202976191Y-88380952D01*
X202928572Y-88428571D01*
X202833334Y-88476190D01*
X202452381Y-88476190D01*
X203214286Y-89047619D02*
X203976191Y-89047619D01*
X204166667Y-88904762D02*
X204261905Y-88952381D01*
X204452381Y-88952381D01*
X204547620Y-88904762D01*
X204595239Y-88809524D01*
X204595239Y-88761905D01*
X204547620Y-88666667D01*
X204452381Y-88619048D01*
X204309524Y-88619048D01*
X204214286Y-88571429D01*
X204166667Y-88476190D01*
X204166667Y-88428571D01*
X204214286Y-88333333D01*
X204309524Y-88285714D01*
X204452381Y-88285714D01*
X204547620Y-88333333D01*
X213642857Y-142952381D02*
X213071428Y-142952381D01*
X213357142Y-142952381D02*
X213357142Y-141952381D01*
X213261904Y-142095238D01*
X213166666Y-142190476D01*
X213071428Y-142238095D01*
X213833333Y-143047619D02*
X214595238Y-143047619D01*
X215023809Y-141952381D02*
X215214286Y-141952381D01*
X215309524Y-142000000D01*
X215404762Y-142095238D01*
X215452381Y-142285714D01*
X215452381Y-142619048D01*
X215404762Y-142809524D01*
X215309524Y-142904762D01*
X215214286Y-142952381D01*
X215023809Y-142952381D01*
X214928571Y-142904762D01*
X214833333Y-142809524D01*
X214785714Y-142619048D01*
X214785714Y-142285714D01*
X214833333Y-142095238D01*
X214928571Y-142000000D01*
X215023809Y-141952381D01*
X216309524Y-142285714D02*
X216309524Y-142952381D01*
X215880952Y-142285714D02*
X215880952Y-142809524D01*
X215928571Y-142904762D01*
X216023809Y-142952381D01*
X216166667Y-142952381D01*
X216261905Y-142904762D01*
X216309524Y-142857143D01*
X216642857Y-142285714D02*
X217023809Y-142285714D01*
X216785714Y-141952381D02*
X216785714Y-142809524D01*
X216833333Y-142904762D01*
X216928571Y-142952381D01*
X217023809Y-142952381D01*
X198238095Y-142666667D02*
X198714286Y-142666667D01*
X198142857Y-142952381D02*
X198476190Y-141952381D01*
X198809524Y-142952381D01*
X199666667Y-142000000D02*
X199571429Y-141952381D01*
X199428572Y-141952381D01*
X199285714Y-142000000D01*
X199190476Y-142095238D01*
X199142857Y-142190476D01*
X199095238Y-142380952D01*
X199095238Y-142523810D01*
X199142857Y-142714286D01*
X199190476Y-142809524D01*
X199285714Y-142904762D01*
X199428572Y-142952381D01*
X199523810Y-142952381D01*
X199666667Y-142904762D01*
X199714286Y-142857143D01*
X199714286Y-142523810D01*
X199523810Y-142523810D01*
X200142857Y-142952381D02*
X200142857Y-141952381D01*
X200714286Y-142952381D01*
X200714286Y-141952381D01*
X201190476Y-142952381D02*
X201190476Y-141952381D01*
X201428571Y-141952381D01*
X201571429Y-142000000D01*
X201666667Y-142095238D01*
X201714286Y-142190476D01*
X201761905Y-142380952D01*
X201761905Y-142523810D01*
X201714286Y-142714286D01*
X201666667Y-142809524D01*
X201571429Y-142904762D01*
X201428571Y-142952381D01*
X201190476Y-142952381D01*
X209238096Y-142000000D02*
X209142858Y-141952381D01*
X209000001Y-141952381D01*
X208857143Y-142000000D01*
X208761905Y-142095238D01*
X208714286Y-142190476D01*
X208666667Y-142380952D01*
X208666667Y-142523810D01*
X208714286Y-142714286D01*
X208761905Y-142809524D01*
X208857143Y-142904762D01*
X209000001Y-142952381D01*
X209095239Y-142952381D01*
X209238096Y-142904762D01*
X209285715Y-142857143D01*
X209285715Y-142523810D01*
X209095239Y-142523810D01*
X209714286Y-142952381D02*
X209714286Y-141952381D01*
X210285715Y-142952381D01*
X210285715Y-141952381D01*
X210761905Y-142952381D02*
X210761905Y-141952381D01*
X211000000Y-141952381D01*
X211142858Y-142000000D01*
X211238096Y-142095238D01*
X211285715Y-142190476D01*
X211333334Y-142380952D01*
X211333334Y-142523810D01*
X211285715Y-142714286D01*
X211238096Y-142809524D01*
X211142858Y-142904762D01*
X211000000Y-142952381D01*
X210761905Y-142952381D01*
X204547619Y-142952381D02*
X204547619Y-141952381D01*
X205023809Y-142285714D02*
X205023809Y-142952381D01*
X205023809Y-142380952D02*
X205071428Y-142333333D01*
X205166666Y-142285714D01*
X205309524Y-142285714D01*
X205404762Y-142333333D01*
X205452381Y-142428571D01*
X205452381Y-142952381D01*
X183238095Y-142666667D02*
X183714286Y-142666667D01*
X183142857Y-142952381D02*
X183476190Y-141952381D01*
X183809524Y-142952381D01*
X184666667Y-142000000D02*
X184571429Y-141952381D01*
X184428572Y-141952381D01*
X184285714Y-142000000D01*
X184190476Y-142095238D01*
X184142857Y-142190476D01*
X184095238Y-142380952D01*
X184095238Y-142523810D01*
X184142857Y-142714286D01*
X184190476Y-142809524D01*
X184285714Y-142904762D01*
X184428572Y-142952381D01*
X184523810Y-142952381D01*
X184666667Y-142904762D01*
X184714286Y-142857143D01*
X184714286Y-142523810D01*
X184523810Y-142523810D01*
X185142857Y-142952381D02*
X185142857Y-141952381D01*
X185714286Y-142952381D01*
X185714286Y-141952381D01*
X186190476Y-142952381D02*
X186190476Y-141952381D01*
X186428571Y-141952381D01*
X186571429Y-142000000D01*
X186666667Y-142095238D01*
X186714286Y-142190476D01*
X186761905Y-142380952D01*
X186761905Y-142523810D01*
X186714286Y-142714286D01*
X186666667Y-142809524D01*
X186571429Y-142904762D01*
X186428571Y-142952381D01*
X186190476Y-142952381D01*
X194238096Y-142000000D02*
X194142858Y-141952381D01*
X194000001Y-141952381D01*
X193857143Y-142000000D01*
X193761905Y-142095238D01*
X193714286Y-142190476D01*
X193666667Y-142380952D01*
X193666667Y-142523810D01*
X193714286Y-142714286D01*
X193761905Y-142809524D01*
X193857143Y-142904762D01*
X194000001Y-142952381D01*
X194095239Y-142952381D01*
X194238096Y-142904762D01*
X194285715Y-142857143D01*
X194285715Y-142523810D01*
X194095239Y-142523810D01*
X194714286Y-142952381D02*
X194714286Y-141952381D01*
X195285715Y-142952381D01*
X195285715Y-141952381D01*
X195761905Y-142952381D02*
X195761905Y-141952381D01*
X196000000Y-141952381D01*
X196142858Y-142000000D01*
X196238096Y-142095238D01*
X196285715Y-142190476D01*
X196333334Y-142380952D01*
X196333334Y-142523810D01*
X196285715Y-142714286D01*
X196238096Y-142809524D01*
X196142858Y-142904762D01*
X196000000Y-142952381D01*
X195761905Y-142952381D01*
X188071428Y-142047619D02*
X188119047Y-142000000D01*
X188214285Y-141952381D01*
X188452381Y-141952381D01*
X188547619Y-142000000D01*
X188595238Y-142047619D01*
X188642857Y-142142857D01*
X188642857Y-142238095D01*
X188595238Y-142380952D01*
X188023809Y-142952381D01*
X188642857Y-142952381D01*
X188833333Y-143047619D02*
X189595238Y-143047619D01*
X190023809Y-141952381D02*
X190214286Y-141952381D01*
X190309524Y-142000000D01*
X190404762Y-142095238D01*
X190452381Y-142285714D01*
X190452381Y-142619048D01*
X190404762Y-142809524D01*
X190309524Y-142904762D01*
X190214286Y-142952381D01*
X190023809Y-142952381D01*
X189928571Y-142904762D01*
X189833333Y-142809524D01*
X189785714Y-142619048D01*
X189785714Y-142285714D01*
X189833333Y-142095238D01*
X189928571Y-142000000D01*
X190023809Y-141952381D01*
X191309524Y-142285714D02*
X191309524Y-142952381D01*
X190880952Y-142285714D02*
X190880952Y-142809524D01*
X190928571Y-142904762D01*
X191023809Y-142952381D01*
X191166667Y-142952381D01*
X191261905Y-142904762D01*
X191309524Y-142857143D01*
X191642857Y-142285714D02*
X192023809Y-142285714D01*
X191785714Y-141952381D02*
X191785714Y-142809524D01*
X191833333Y-142904762D01*
X191928571Y-142952381D01*
X192023809Y-142952381D01*
X174142857Y-120404762D02*
X174285714Y-120452381D01*
X174523810Y-120452381D01*
X174619048Y-120404762D01*
X174666667Y-120357143D01*
X174714286Y-120261905D01*
X174714286Y-120166667D01*
X174666667Y-120071429D01*
X174619048Y-120023810D01*
X174523810Y-119976190D01*
X174333333Y-119928571D01*
X174238095Y-119880952D01*
X174190476Y-119833333D01*
X174142857Y-119738095D01*
X174142857Y-119642857D01*
X174190476Y-119547619D01*
X174238095Y-119500000D01*
X174333333Y-119452381D01*
X174571429Y-119452381D01*
X174714286Y-119500000D01*
X175571429Y-120404762D02*
X175476191Y-120452381D01*
X175285714Y-120452381D01*
X175190476Y-120404762D01*
X175142857Y-120357143D01*
X175095238Y-120261905D01*
X175095238Y-119976190D01*
X175142857Y-119880952D01*
X175190476Y-119833333D01*
X175285714Y-119785714D01*
X175476191Y-119785714D01*
X175571429Y-119833333D01*
X176428572Y-120452381D02*
X176428572Y-119928571D01*
X176380953Y-119833333D01*
X176285715Y-119785714D01*
X176095238Y-119785714D01*
X176000000Y-119833333D01*
X176428572Y-120404762D02*
X176333334Y-120452381D01*
X176095238Y-120452381D01*
X176000000Y-120404762D01*
X175952381Y-120309524D01*
X175952381Y-120214286D01*
X176000000Y-120119048D01*
X176095238Y-120071429D01*
X176333334Y-120071429D01*
X176428572Y-120023810D01*
X177047619Y-120452381D02*
X176952381Y-120404762D01*
X176904762Y-120309524D01*
X176904762Y-119452381D01*
X177809525Y-120404762D02*
X177714287Y-120452381D01*
X177523810Y-120452381D01*
X177428572Y-120404762D01*
X177380953Y-120309524D01*
X177380953Y-119928571D01*
X177428572Y-119833333D01*
X177523810Y-119785714D01*
X177714287Y-119785714D01*
X177809525Y-119833333D01*
X177857144Y-119928571D01*
X177857144Y-120023810D01*
X177380953Y-120119048D01*
D12*
X206128571Y-109434524D02*
X206128571Y-110029762D01*
X204628571Y-110029762D01*
X204628571Y-109196428D02*
X204628571Y-108482143D01*
X206128571Y-108839286D02*
X204628571Y-108839286D01*
X206128571Y-108065476D02*
X204628571Y-108065476D01*
X204628571Y-107589285D01*
X204700000Y-107470238D01*
X204771429Y-107410714D01*
X204914286Y-107351190D01*
X205128571Y-107351190D01*
X205271429Y-107410714D01*
X205342857Y-107470238D01*
X205414286Y-107589285D01*
X205414286Y-108065476D01*
X206128571Y-106815476D02*
X204628571Y-106815476D01*
X206128571Y-105267857D02*
X204628571Y-105267857D01*
X204628571Y-104791666D01*
X204700000Y-104672619D01*
X204771429Y-104613095D01*
X204914286Y-104553571D01*
X205128571Y-104553571D01*
X205271429Y-104613095D01*
X205342857Y-104672619D01*
X205414286Y-104791666D01*
X205414286Y-105267857D01*
X205985714Y-103303571D02*
X206057143Y-103363095D01*
X206128571Y-103541666D01*
X206128571Y-103660714D01*
X206057143Y-103839286D01*
X205914286Y-103958333D01*
X205771429Y-104017857D01*
X205485714Y-104077381D01*
X205271429Y-104077381D01*
X204985714Y-104017857D01*
X204842857Y-103958333D01*
X204700000Y-103839286D01*
X204628571Y-103660714D01*
X204628571Y-103541666D01*
X204700000Y-103363095D01*
X204771429Y-103303571D01*
X205342857Y-102351190D02*
X205414286Y-102172619D01*
X205485714Y-102113095D01*
X205628571Y-102053571D01*
X205842857Y-102053571D01*
X205985714Y-102113095D01*
X206057143Y-102172619D01*
X206128571Y-102291666D01*
X206128571Y-102767857D01*
X204628571Y-102767857D01*
X204628571Y-102351190D01*
X204700000Y-102232143D01*
X204771429Y-102172619D01*
X204914286Y-102113095D01*
X205057143Y-102113095D01*
X205200000Y-102172619D01*
X205271429Y-102232143D01*
X205342857Y-102351190D01*
X205342857Y-102767857D01*
X205128571Y-101636905D02*
X206128571Y-101339286D01*
X205128571Y-101041666D01*
X206128571Y-99910714D02*
X206128571Y-100625000D01*
X206128571Y-100267857D02*
X204628571Y-100267857D01*
X204842857Y-100386905D01*
X204985714Y-100505952D01*
X205057143Y-100625000D01*
X207178571Y-111726190D02*
X207178571Y-111011905D01*
X208678571Y-111369048D02*
X207178571Y-111369048D01*
X208678571Y-110595238D02*
X207678571Y-110595238D01*
X207964286Y-110595238D02*
X207821429Y-110535714D01*
X207750000Y-110476190D01*
X207678571Y-110357143D01*
X207678571Y-110238095D01*
X208678571Y-109821428D02*
X207678571Y-109821428D01*
X207178571Y-109821428D02*
X207250000Y-109880952D01*
X207321429Y-109821428D01*
X207250000Y-109761904D01*
X207178571Y-109821428D01*
X207321429Y-109821428D01*
X208607143Y-109285714D02*
X208678571Y-109166666D01*
X208678571Y-108928571D01*
X208607143Y-108809523D01*
X208464286Y-108749999D01*
X208392857Y-108749999D01*
X208250000Y-108809523D01*
X208178571Y-108928571D01*
X208178571Y-109107142D01*
X208107143Y-109226190D01*
X207964286Y-109285714D01*
X207892857Y-109285714D01*
X207750000Y-109226190D01*
X207678571Y-109107142D01*
X207678571Y-108928571D01*
X207750000Y-108809523D01*
X207678571Y-108392856D02*
X207678571Y-107916666D01*
X207178571Y-108214285D02*
X208464286Y-108214285D01*
X208607143Y-108154761D01*
X208678571Y-108035714D01*
X208678571Y-107916666D01*
X208678571Y-106964285D02*
X207892857Y-106964285D01*
X207750000Y-107023808D01*
X207678571Y-107142856D01*
X207678571Y-107380951D01*
X207750000Y-107499999D01*
X208607143Y-106964285D02*
X208678571Y-107083332D01*
X208678571Y-107380951D01*
X208607143Y-107499999D01*
X208464286Y-107559523D01*
X208321429Y-107559523D01*
X208178571Y-107499999D01*
X208107143Y-107380951D01*
X208107143Y-107083332D01*
X208035714Y-106964285D01*
X207678571Y-106369047D02*
X208678571Y-106369047D01*
X207821429Y-106369047D02*
X207750000Y-106309523D01*
X207678571Y-106190476D01*
X207678571Y-106011904D01*
X207750000Y-105892856D01*
X207892857Y-105833333D01*
X208678571Y-105833333D01*
X208535714Y-103571428D02*
X208607143Y-103630952D01*
X208678571Y-103809523D01*
X208678571Y-103928571D01*
X208607143Y-104107143D01*
X208464286Y-104226190D01*
X208321429Y-104285714D01*
X208035714Y-104345238D01*
X207821429Y-104345238D01*
X207535714Y-104285714D01*
X207392857Y-104226190D01*
X207250000Y-104107143D01*
X207178571Y-103928571D01*
X207178571Y-103809523D01*
X207250000Y-103630952D01*
X207321429Y-103571428D01*
X208678571Y-102857143D02*
X208607143Y-102976190D01*
X208535714Y-103035714D01*
X208392857Y-103095238D01*
X207964286Y-103095238D01*
X207821429Y-103035714D01*
X207750000Y-102976190D01*
X207678571Y-102857143D01*
X207678571Y-102678571D01*
X207750000Y-102559523D01*
X207821429Y-102500000D01*
X207964286Y-102440476D01*
X208392857Y-102440476D01*
X208535714Y-102500000D01*
X208607143Y-102559523D01*
X208678571Y-102678571D01*
X208678571Y-102857143D01*
X208678571Y-101726191D02*
X208607143Y-101845238D01*
X208464286Y-101904762D01*
X207178571Y-101904762D01*
X208678571Y-101071429D02*
X208607143Y-101190476D01*
X208464286Y-101250000D01*
X207178571Y-101250000D01*
X208678571Y-100595238D02*
X207678571Y-100595238D01*
X207178571Y-100595238D02*
X207250000Y-100654762D01*
X207321429Y-100595238D01*
X207250000Y-100535714D01*
X207178571Y-100595238D01*
X207321429Y-100595238D01*
X207678571Y-100000000D02*
X208678571Y-100000000D01*
X207821429Y-100000000D02*
X207750000Y-99940476D01*
X207678571Y-99821429D01*
X207678571Y-99642857D01*
X207750000Y-99523809D01*
X207892857Y-99464286D01*
X208678571Y-99464286D01*
X208607143Y-98928572D02*
X208678571Y-98809524D01*
X208678571Y-98571429D01*
X208607143Y-98452381D01*
X208464286Y-98392857D01*
X208392857Y-98392857D01*
X208250000Y-98452381D01*
X208178571Y-98571429D01*
X208178571Y-98750000D01*
X208107143Y-98869048D01*
X207964286Y-98928572D01*
X207892857Y-98928572D01*
X207750000Y-98869048D01*
X207678571Y-98750000D01*
X207678571Y-98571429D01*
X207750000Y-98452381D01*
X209728571Y-109047618D02*
X210800000Y-109047618D01*
X211014286Y-109107142D01*
X211157143Y-109226190D01*
X211228571Y-109404761D01*
X211228571Y-109523809D01*
X210228571Y-107916666D02*
X211228571Y-107916666D01*
X210228571Y-108452380D02*
X211014286Y-108452380D01*
X211157143Y-108392856D01*
X211228571Y-108273809D01*
X211228571Y-108095237D01*
X211157143Y-107976189D01*
X211085714Y-107916666D01*
X211228571Y-107142857D02*
X211157143Y-107261904D01*
X211014286Y-107321428D01*
X209728571Y-107321428D01*
X210228571Y-106785714D02*
X211228571Y-106488095D01*
X210228571Y-106190475D02*
X211228571Y-106488095D01*
X211585714Y-106607142D01*
X211657143Y-106666666D01*
X211728571Y-106785714D01*
X209871429Y-104821428D02*
X209800000Y-104761904D01*
X209728571Y-104642856D01*
X209728571Y-104345237D01*
X209800000Y-104226190D01*
X209871429Y-104166666D01*
X210014286Y-104107142D01*
X210157143Y-104107142D01*
X210371429Y-104166666D01*
X211228571Y-104880952D01*
X211228571Y-104107142D01*
X209728571Y-103333333D02*
X209728571Y-103214285D01*
X209800000Y-103095237D01*
X209871429Y-103035714D01*
X210014286Y-102976190D01*
X210300000Y-102916666D01*
X210657143Y-102916666D01*
X210942857Y-102976190D01*
X211085714Y-103035714D01*
X211157143Y-103095237D01*
X211228571Y-103214285D01*
X211228571Y-103333333D01*
X211157143Y-103452380D01*
X211085714Y-103511904D01*
X210942857Y-103571428D01*
X210657143Y-103630952D01*
X210300000Y-103630952D01*
X210014286Y-103571428D01*
X209871429Y-103511904D01*
X209800000Y-103452380D01*
X209728571Y-103333333D01*
X211228571Y-101726190D02*
X211228571Y-102440476D01*
X211228571Y-102083333D02*
X209728571Y-102083333D01*
X209942857Y-102202381D01*
X210085714Y-102321428D01*
X210157143Y-102440476D01*
X209728571Y-101309524D02*
X209728571Y-100476190D01*
X211228571Y-101011905D01*
D13*
X197190000Y-84060000D02*
X203810000Y-84060000D01*
X203810000Y-84060000D02*
X203810000Y-66940000D01*
X203810000Y-66940000D02*
X197190000Y-66940000D01*
X197190000Y-66940000D02*
X197190000Y-84060000D01*
X200500000Y-84520000D02*
X200500000Y-84060000D01*
X200500000Y-66480000D02*
X200500000Y-66940000D01*
X191550000Y-84250000D02*
X173450000Y-84250000D01*
X191550000Y-84290000D02*
X173450000Y-84290000D01*
X191550000Y-84330000D02*
X173450000Y-84330000D01*
X191550000Y-84370000D02*
X173450000Y-84370000D01*
X191549000Y-84410000D02*
X173451000Y-84410000D01*
X191548000Y-84450000D02*
X173452000Y-84450000D01*
X191547000Y-84490000D02*
X173453000Y-84490000D01*
X191546000Y-84530000D02*
X173454000Y-84530000D01*
X191545000Y-84570000D02*
X173455000Y-84570000D01*
X191543000Y-84610000D02*
X173457000Y-84610000D01*
X191542000Y-84650000D02*
X173458000Y-84650000D01*
X191540000Y-84690000D02*
X173460000Y-84690000D01*
X191538000Y-84730000D02*
X173462000Y-84730000D01*
X191536000Y-84770000D02*
X173464000Y-84770000D01*
X191533000Y-84810000D02*
X173467000Y-84810000D01*
X191531000Y-84850000D02*
X173469000Y-84850000D01*
X191528000Y-84890000D02*
X173472000Y-84890000D01*
X191525000Y-84930000D02*
X173475000Y-84930000D01*
X191522000Y-84971000D02*
X173478000Y-84971000D01*
X191519000Y-85011000D02*
X173481000Y-85011000D01*
X191515000Y-85051000D02*
X173485000Y-85051000D01*
X191512000Y-85091000D02*
X173488000Y-85091000D01*
X191508000Y-85131000D02*
X173492000Y-85131000D01*
X191504000Y-85171000D02*
X173496000Y-85171000D01*
X191500000Y-85211000D02*
X173500000Y-85211000D01*
X191495000Y-85251000D02*
X173505000Y-85251000D01*
X191491000Y-85291000D02*
X173509000Y-85291000D01*
X191486000Y-85331000D02*
X173514000Y-85331000D01*
X191481000Y-85371000D02*
X173519000Y-85371000D01*
X191476000Y-85411000D02*
X173524000Y-85411000D01*
X191471000Y-85451000D02*
X173529000Y-85451000D01*
X191466000Y-85491000D02*
X173534000Y-85491000D01*
X191460000Y-85531000D02*
X173540000Y-85531000D01*
X191454000Y-85571000D02*
X173546000Y-85571000D01*
X191448000Y-85611000D02*
X173552000Y-85611000D01*
X191442000Y-85651000D02*
X173558000Y-85651000D01*
X191436000Y-85691000D02*
X173564000Y-85691000D01*
X191429000Y-85731000D02*
X173571000Y-85731000D01*
X191423000Y-85771000D02*
X173577000Y-85771000D01*
X191416000Y-85811000D02*
X173584000Y-85811000D01*
X191409000Y-85851000D02*
X173591000Y-85851000D01*
X191401000Y-85891000D02*
X173599000Y-85891000D01*
X191394000Y-85931000D02*
X173606000Y-85931000D01*
X191386000Y-85971000D02*
X173614000Y-85971000D01*
X191378000Y-86011000D02*
X173622000Y-86011000D01*
X191370000Y-86051000D02*
X173630000Y-86051000D01*
X191362000Y-86091000D02*
X173638000Y-86091000D01*
X191354000Y-86131000D02*
X173646000Y-86131000D01*
X191345000Y-86171000D02*
X173655000Y-86171000D01*
X191337000Y-86211000D02*
X173663000Y-86211000D01*
X191328000Y-86251000D02*
X173672000Y-86251000D01*
X191319000Y-86291000D02*
X173681000Y-86291000D01*
X191309000Y-86331000D02*
X173691000Y-86331000D01*
X191300000Y-86371000D02*
X173700000Y-86371000D01*
X191290000Y-86411000D02*
X173710000Y-86411000D01*
X191280000Y-86451000D02*
X173720000Y-86451000D01*
X191270000Y-86491000D02*
X173730000Y-86491000D01*
X191260000Y-86531000D02*
X173740000Y-86531000D01*
X191249000Y-86571000D02*
X173751000Y-86571000D01*
X191239000Y-86611000D02*
X173761000Y-86611000D01*
X191228000Y-86651000D02*
X183880000Y-86651000D01*
X181120000Y-86651000D02*
X173772000Y-86651000D01*
X191217000Y-86691000D02*
X183880000Y-86691000D01*
X181120000Y-86691000D02*
X173783000Y-86691000D01*
X191206000Y-86731000D02*
X183880000Y-86731000D01*
X181120000Y-86731000D02*
X173794000Y-86731000D01*
X191194000Y-86771000D02*
X183880000Y-86771000D01*
X181120000Y-86771000D02*
X173806000Y-86771000D01*
X191183000Y-86811000D02*
X183880000Y-86811000D01*
X181120000Y-86811000D02*
X173817000Y-86811000D01*
X191171000Y-86851000D02*
X183880000Y-86851000D01*
X181120000Y-86851000D02*
X173829000Y-86851000D01*
X191159000Y-86891000D02*
X183880000Y-86891000D01*
X181120000Y-86891000D02*
X173841000Y-86891000D01*
X191146000Y-86931000D02*
X183880000Y-86931000D01*
X181120000Y-86931000D02*
X173854000Y-86931000D01*
X191134000Y-86971000D02*
X183880000Y-86971000D01*
X181120000Y-86971000D02*
X173866000Y-86971000D01*
X191121000Y-87011000D02*
X183880000Y-87011000D01*
X181120000Y-87011000D02*
X173879000Y-87011000D01*
X191109000Y-87051000D02*
X183880000Y-87051000D01*
X181120000Y-87051000D02*
X173891000Y-87051000D01*
X191095000Y-87091000D02*
X183880000Y-87091000D01*
X181120000Y-87091000D02*
X173905000Y-87091000D01*
X191082000Y-87131000D02*
X183880000Y-87131000D01*
X181120000Y-87131000D02*
X173918000Y-87131000D01*
X191069000Y-87171000D02*
X183880000Y-87171000D01*
X181120000Y-87171000D02*
X173931000Y-87171000D01*
X191055000Y-87211000D02*
X183880000Y-87211000D01*
X181120000Y-87211000D02*
X173945000Y-87211000D01*
X191041000Y-87251000D02*
X183880000Y-87251000D01*
X181120000Y-87251000D02*
X173959000Y-87251000D01*
X191027000Y-87291000D02*
X183880000Y-87291000D01*
X181120000Y-87291000D02*
X173973000Y-87291000D01*
X191013000Y-87331000D02*
X183880000Y-87331000D01*
X181120000Y-87331000D02*
X173987000Y-87331000D01*
X190998000Y-87371000D02*
X183880000Y-87371000D01*
X181120000Y-87371000D02*
X174002000Y-87371000D01*
X190984000Y-87411000D02*
X183880000Y-87411000D01*
X181120000Y-87411000D02*
X174016000Y-87411000D01*
X190969000Y-87451000D02*
X183880000Y-87451000D01*
X181120000Y-87451000D02*
X174031000Y-87451000D01*
X190953000Y-87491000D02*
X183880000Y-87491000D01*
X181120000Y-87491000D02*
X174047000Y-87491000D01*
X190938000Y-87531000D02*
X183880000Y-87531000D01*
X181120000Y-87531000D02*
X174062000Y-87531000D01*
X190923000Y-87571000D02*
X183880000Y-87571000D01*
X181120000Y-87571000D02*
X174077000Y-87571000D01*
X190907000Y-87611000D02*
X183880000Y-87611000D01*
X181120000Y-87611000D02*
X174093000Y-87611000D01*
X190891000Y-87651000D02*
X183880000Y-87651000D01*
X181120000Y-87651000D02*
X174109000Y-87651000D01*
X190874000Y-87691000D02*
X183880000Y-87691000D01*
X181120000Y-87691000D02*
X174126000Y-87691000D01*
X190858000Y-87731000D02*
X183880000Y-87731000D01*
X181120000Y-87731000D02*
X174142000Y-87731000D01*
X190841000Y-87771000D02*
X183880000Y-87771000D01*
X181120000Y-87771000D02*
X174159000Y-87771000D01*
X190824000Y-87811000D02*
X183880000Y-87811000D01*
X181120000Y-87811000D02*
X174176000Y-87811000D01*
X190807000Y-87851000D02*
X183880000Y-87851000D01*
X181120000Y-87851000D02*
X174193000Y-87851000D01*
X190790000Y-87891000D02*
X183880000Y-87891000D01*
X181120000Y-87891000D02*
X174210000Y-87891000D01*
X190772000Y-87931000D02*
X183880000Y-87931000D01*
X181120000Y-87931000D02*
X174228000Y-87931000D01*
X190754000Y-87971000D02*
X183880000Y-87971000D01*
X181120000Y-87971000D02*
X174246000Y-87971000D01*
X190736000Y-88011000D02*
X183880000Y-88011000D01*
X181120000Y-88011000D02*
X174264000Y-88011000D01*
X190718000Y-88051000D02*
X183880000Y-88051000D01*
X181120000Y-88051000D02*
X174282000Y-88051000D01*
X190700000Y-88091000D02*
X183880000Y-88091000D01*
X181120000Y-88091000D02*
X174300000Y-88091000D01*
X190681000Y-88131000D02*
X183880000Y-88131000D01*
X181120000Y-88131000D02*
X174319000Y-88131000D01*
X190662000Y-88171000D02*
X183880000Y-88171000D01*
X181120000Y-88171000D02*
X174338000Y-88171000D01*
X190643000Y-88211000D02*
X183880000Y-88211000D01*
X181120000Y-88211000D02*
X174357000Y-88211000D01*
X190623000Y-88251000D02*
X183880000Y-88251000D01*
X181120000Y-88251000D02*
X174377000Y-88251000D01*
X190603000Y-88291000D02*
X183880000Y-88291000D01*
X181120000Y-88291000D02*
X174397000Y-88291000D01*
X190583000Y-88331000D02*
X183880000Y-88331000D01*
X181120000Y-88331000D02*
X174417000Y-88331000D01*
X190563000Y-88371000D02*
X183880000Y-88371000D01*
X181120000Y-88371000D02*
X174437000Y-88371000D01*
X190543000Y-88411000D02*
X183880000Y-88411000D01*
X181120000Y-88411000D02*
X174457000Y-88411000D01*
X190522000Y-88451000D02*
X183880000Y-88451000D01*
X181120000Y-88451000D02*
X174478000Y-88451000D01*
X190501000Y-88491000D02*
X183880000Y-88491000D01*
X181120000Y-88491000D02*
X174499000Y-88491000D01*
X190480000Y-88531000D02*
X183880000Y-88531000D01*
X181120000Y-88531000D02*
X174520000Y-88531000D01*
X190458000Y-88571000D02*
X183880000Y-88571000D01*
X181120000Y-88571000D02*
X174542000Y-88571000D01*
X190437000Y-88611000D02*
X183880000Y-88611000D01*
X181120000Y-88611000D02*
X174563000Y-88611000D01*
X190415000Y-88651000D02*
X183880000Y-88651000D01*
X181120000Y-88651000D02*
X174585000Y-88651000D01*
X190392000Y-88691000D02*
X183880000Y-88691000D01*
X181120000Y-88691000D02*
X174608000Y-88691000D01*
X190370000Y-88731000D02*
X183880000Y-88731000D01*
X181120000Y-88731000D02*
X174630000Y-88731000D01*
X190347000Y-88771000D02*
X183880000Y-88771000D01*
X181120000Y-88771000D02*
X174653000Y-88771000D01*
X190324000Y-88811000D02*
X183880000Y-88811000D01*
X181120000Y-88811000D02*
X174676000Y-88811000D01*
X190301000Y-88851000D02*
X183880000Y-88851000D01*
X181120000Y-88851000D02*
X174699000Y-88851000D01*
X190277000Y-88891000D02*
X183880000Y-88891000D01*
X181120000Y-88891000D02*
X174723000Y-88891000D01*
X190253000Y-88931000D02*
X183880000Y-88931000D01*
X181120000Y-88931000D02*
X174747000Y-88931000D01*
X190229000Y-88971000D02*
X183880000Y-88971000D01*
X181120000Y-88971000D02*
X174771000Y-88971000D01*
X190205000Y-89011000D02*
X183880000Y-89011000D01*
X181120000Y-89011000D02*
X174795000Y-89011000D01*
X190180000Y-89051000D02*
X183880000Y-89051000D01*
X181120000Y-89051000D02*
X174820000Y-89051000D01*
X190155000Y-89091000D02*
X183880000Y-89091000D01*
X181120000Y-89091000D02*
X174845000Y-89091000D01*
X190130000Y-89131000D02*
X183880000Y-89131000D01*
X181120000Y-89131000D02*
X174870000Y-89131000D01*
X190104000Y-89171000D02*
X183880000Y-89171000D01*
X181120000Y-89171000D02*
X174896000Y-89171000D01*
X190078000Y-89211000D02*
X183880000Y-89211000D01*
X181120000Y-89211000D02*
X174922000Y-89211000D01*
X190052000Y-89251000D02*
X183880000Y-89251000D01*
X181120000Y-89251000D02*
X174948000Y-89251000D01*
X190025000Y-89291000D02*
X183880000Y-89291000D01*
X181120000Y-89291000D02*
X174975000Y-89291000D01*
X189999000Y-89331000D02*
X183880000Y-89331000D01*
X181120000Y-89331000D02*
X175001000Y-89331000D01*
X189971000Y-89371000D02*
X183880000Y-89371000D01*
X181120000Y-89371000D02*
X175029000Y-89371000D01*
X189944000Y-89411000D02*
X175056000Y-89411000D01*
X189916000Y-89451000D02*
X175084000Y-89451000D01*
X189888000Y-89491000D02*
X175112000Y-89491000D01*
X189860000Y-89531000D02*
X175140000Y-89531000D01*
X189831000Y-89571000D02*
X175169000Y-89571000D01*
X189802000Y-89611000D02*
X175198000Y-89611000D01*
X189773000Y-89651000D02*
X175227000Y-89651000D01*
X189743000Y-89691000D02*
X175257000Y-89691000D01*
X189713000Y-89731000D02*
X175287000Y-89731000D01*
X189683000Y-89771000D02*
X175317000Y-89771000D01*
X189652000Y-89811000D02*
X175348000Y-89811000D01*
X189621000Y-89851000D02*
X175379000Y-89851000D01*
X189589000Y-89891000D02*
X175411000Y-89891000D01*
X189557000Y-89931000D02*
X175443000Y-89931000D01*
X189525000Y-89971000D02*
X175475000Y-89971000D01*
X189493000Y-90011000D02*
X175507000Y-90011000D01*
X189460000Y-90051000D02*
X175540000Y-90051000D01*
X189426000Y-90091000D02*
X175574000Y-90091000D01*
X189393000Y-90131000D02*
X175607000Y-90131000D01*
X189358000Y-90171000D02*
X175642000Y-90171000D01*
X189324000Y-90211000D02*
X175676000Y-90211000D01*
X189289000Y-90251000D02*
X175711000Y-90251000D01*
X189254000Y-90291000D02*
X175746000Y-90291000D01*
X189218000Y-90331000D02*
X175782000Y-90331000D01*
X189182000Y-90371000D02*
X175818000Y-90371000D01*
X189145000Y-90411000D02*
X175855000Y-90411000D01*
X189108000Y-90451000D02*
X175892000Y-90451000D01*
X189070000Y-90491000D02*
X175930000Y-90491000D01*
X189032000Y-90531000D02*
X175968000Y-90531000D01*
X188994000Y-90571000D02*
X176006000Y-90571000D01*
X188955000Y-90611000D02*
X176045000Y-90611000D01*
X188916000Y-90651000D02*
X176084000Y-90651000D01*
X188876000Y-90691000D02*
X176124000Y-90691000D01*
X188835000Y-90731000D02*
X176165000Y-90731000D01*
X188794000Y-90771000D02*
X176206000Y-90771000D01*
X188753000Y-90811000D02*
X176247000Y-90811000D01*
X188711000Y-90851000D02*
X176289000Y-90851000D01*
X188668000Y-90891000D02*
X176332000Y-90891000D01*
X188625000Y-90931000D02*
X176375000Y-90931000D01*
X188582000Y-90971000D02*
X176418000Y-90971000D01*
X188538000Y-91011000D02*
X176462000Y-91011000D01*
X188493000Y-91051000D02*
X176507000Y-91051000D01*
X188447000Y-91091000D02*
X176553000Y-91091000D01*
X188401000Y-91131000D02*
X176599000Y-91131000D01*
X188355000Y-91171000D02*
X176645000Y-91171000D01*
X188307000Y-91211000D02*
X176693000Y-91211000D01*
X188259000Y-91251000D02*
X176741000Y-91251000D01*
X188211000Y-91291000D02*
X176789000Y-91291000D01*
X188162000Y-91331000D02*
X176838000Y-91331000D01*
X188111000Y-91371000D02*
X176889000Y-91371000D01*
X188061000Y-91411000D02*
X176939000Y-91411000D01*
X188009000Y-91451000D02*
X176991000Y-91451000D01*
X187957000Y-91491000D02*
X177043000Y-91491000D01*
X187904000Y-91531000D02*
X177096000Y-91531000D01*
X187850000Y-91571000D02*
X177150000Y-91571000D01*
X187795000Y-91611000D02*
X177205000Y-91611000D01*
X187740000Y-91651000D02*
X177260000Y-91651000D01*
X187683000Y-91691000D02*
X177317000Y-91691000D01*
X187626000Y-91731000D02*
X177374000Y-91731000D01*
X187567000Y-91771000D02*
X177433000Y-91771000D01*
X187508000Y-91811000D02*
X177492000Y-91811000D01*
X187447000Y-91851000D02*
X177553000Y-91851000D01*
X187386000Y-91891000D02*
X177614000Y-91891000D01*
X187323000Y-91931000D02*
X177677000Y-91931000D01*
X187259000Y-91971000D02*
X177741000Y-91971000D01*
X187194000Y-92011000D02*
X177806000Y-92011000D01*
X187128000Y-92051000D02*
X177872000Y-92051000D01*
X187061000Y-92091000D02*
X177939000Y-92091000D01*
X186992000Y-92131000D02*
X178008000Y-92131000D01*
X186922000Y-92171000D02*
X178078000Y-92171000D01*
X186850000Y-92211000D02*
X178150000Y-92211000D01*
X186777000Y-92251000D02*
X178223000Y-92251000D01*
X186702000Y-92291000D02*
X178298000Y-92291000D01*
X186625000Y-92331000D02*
X178375000Y-92331000D01*
X186546000Y-92371000D02*
X178454000Y-92371000D01*
X186466000Y-92411000D02*
X178534000Y-92411000D01*
X186383000Y-92450000D02*
X178617000Y-92450000D01*
X186299000Y-92490000D02*
X178701000Y-92490000D01*
X186211000Y-92530000D02*
X178789000Y-92530000D01*
X186122000Y-92570000D02*
X178878000Y-92570000D01*
X186030000Y-92610000D02*
X178970000Y-92610000D01*
X185934000Y-92650000D02*
X179066000Y-92650000D01*
X185836000Y-92690000D02*
X179164000Y-92690000D01*
X185734000Y-92730000D02*
X179266000Y-92730000D01*
X185629000Y-92770000D02*
X179371000Y-92770000D01*
X185519000Y-92810000D02*
X179481000Y-92810000D01*
X185405000Y-92850000D02*
X179595000Y-92850000D01*
X185285000Y-92890000D02*
X179715000Y-92890000D01*
X185160000Y-92930000D02*
X179840000Y-92930000D01*
X185028000Y-92970000D02*
X179972000Y-92970000D01*
X184888000Y-93010000D02*
X180112000Y-93010000D01*
X184738000Y-93050000D02*
X180262000Y-93050000D01*
X184578000Y-93090000D02*
X180422000Y-93090000D01*
X184403000Y-93130000D02*
X180597000Y-93130000D01*
X184210000Y-93170000D02*
X180790000Y-93170000D01*
X183992000Y-93210000D02*
X181008000Y-93210000D01*
X183736000Y-93250000D02*
X181264000Y-93250000D01*
X183413000Y-93290000D02*
X181587000Y-93290000D01*
X182887000Y-93330000D02*
X182113000Y-93330000D01*
X182500000Y-77300000D02*
X182500000Y-79100000D01*
X183400000Y-78200000D02*
X181600000Y-78200000D01*
X191590000Y-84250000D02*
G75*
G03X191590000Y-84250000I-9090000J0D01*
G01*
X186190000Y-136060000D02*
X192810000Y-136060000D01*
X192810000Y-136060000D02*
X192810000Y-118940000D01*
X192810000Y-118940000D02*
X186190000Y-118940000D01*
X186190000Y-118940000D02*
X186190000Y-136060000D01*
X189500000Y-136520000D02*
X189500000Y-136060000D01*
X189500000Y-118480000D02*
X189500000Y-118940000D01*
X212190000Y-136060000D02*
X218810000Y-136060000D01*
X218810000Y-136060000D02*
X218810000Y-118940000D01*
X218810000Y-118940000D02*
X212190000Y-118940000D01*
X212190000Y-118940000D02*
X212190000Y-136060000D01*
X215500000Y-136520000D02*
X215500000Y-136060000D01*
X215500000Y-118480000D02*
X215500000Y-118940000D01*
X209310000Y-128870000D02*
X206690000Y-128870000D01*
X206690000Y-128870000D02*
X206690000Y-135290000D01*
X206690000Y-135290000D02*
X209310000Y-135290000D01*
X209310000Y-135290000D02*
X209310000Y-128870000D01*
X208000000Y-127980000D02*
X208000000Y-128870000D01*
X208000000Y-136180000D02*
X208000000Y-135290000D01*
X195690000Y-135130000D02*
X198310000Y-135130000D01*
X198310000Y-135130000D02*
X198310000Y-128710000D01*
X198310000Y-128710000D02*
X195690000Y-128710000D01*
X195690000Y-128710000D02*
X195690000Y-135130000D01*
X197000000Y-136020000D02*
X197000000Y-135130000D01*
X197000000Y-127820000D02*
X197000000Y-128710000D01*
D14*
X180250000Y-115000000D02*
G75*
G03X180250000Y-115000000I-1750000J0D01*
G01*
X181250000Y-96000000D02*
G75*
G03X181250000Y-96000000I-1750000J0D01*
G01*
X180250000Y-138000000D02*
G75*
G03X180250000Y-138000000I-1750000J0D01*
G01*
X224350155Y-104249647D02*
G75*
G03X224350000Y-102750000I-1700155J749647D01*
G01*
X224350155Y-109329647D02*
G75*
G03X224350000Y-107830000I-1700155J749647D01*
G01*
X230930000Y-100880000D02*
X223520000Y-100880000D01*
X223520000Y-100880000D02*
X223520000Y-111200000D01*
X223520000Y-111200000D02*
X230930000Y-111200000D01*
X230930000Y-111200000D02*
X230930000Y-100880000D01*
X224350000Y-102750000D02*
X224350000Y-102000000D01*
X224350000Y-102000000D02*
X228650000Y-102000000D01*
X228650000Y-102000000D02*
X228650000Y-102750000D01*
X228650000Y-102750000D02*
X229000000Y-102750000D01*
X229000000Y-102750000D02*
X229000000Y-102250000D01*
X229000000Y-102250000D02*
X230000000Y-102000000D01*
X230000000Y-102000000D02*
X230000000Y-105000000D01*
X230000000Y-105000000D02*
X229000000Y-104750000D01*
X229000000Y-104750000D02*
X229000000Y-104250000D01*
X229000000Y-104250000D02*
X228650000Y-104250000D01*
X228650000Y-104250000D02*
X228650000Y-104250000D01*
X228650000Y-104250000D02*
X228650000Y-105000000D01*
X228650000Y-105000000D02*
X224350000Y-105000000D01*
X224350000Y-105000000D02*
X224350000Y-104250000D01*
X224350000Y-107830000D02*
X224350000Y-107080000D01*
X224350000Y-107080000D02*
X228650000Y-107080000D01*
X228650000Y-107080000D02*
X228650000Y-107830000D01*
X228650000Y-107830000D02*
X229000000Y-107830000D01*
X229000000Y-107830000D02*
X229000000Y-107330000D01*
X229000000Y-107330000D02*
X230000000Y-107080000D01*
X230000000Y-107080000D02*
X230000000Y-110080000D01*
X230000000Y-110080000D02*
X229000000Y-109830000D01*
X229000000Y-109830000D02*
X229000000Y-109330000D01*
X229000000Y-109330000D02*
X228650000Y-109330000D01*
X228650000Y-109330000D02*
X228650000Y-109330000D01*
X228650000Y-109330000D02*
X228650000Y-110080000D01*
X228650000Y-110080000D02*
X224350000Y-110080000D01*
X224350000Y-110080000D02*
X224350000Y-109330000D01*
X231350000Y-103500000D02*
X231950000Y-103800000D01*
X231950000Y-103800000D02*
X231950000Y-103200000D01*
X231950000Y-103200000D02*
X231350000Y-103500000D01*
X180649845Y-128250353D02*
G75*
G03X180650000Y-129750000I1700155J-749647D01*
G01*
X180649845Y-123170353D02*
G75*
G03X180650000Y-124670000I1700155J-749647D01*
G01*
X174070000Y-131620000D02*
X181480000Y-131620000D01*
X181480000Y-131620000D02*
X181480000Y-121300000D01*
X181480000Y-121300000D02*
X174070000Y-121300000D01*
X174070000Y-121300000D02*
X174070000Y-131620000D01*
X180650000Y-129750000D02*
X180650000Y-130500000D01*
X180650000Y-130500000D02*
X176350000Y-130500000D01*
X176350000Y-130500000D02*
X176350000Y-129750000D01*
X176350000Y-129750000D02*
X176000000Y-129750000D01*
X176000000Y-129750000D02*
X176000000Y-130250000D01*
X176000000Y-130250000D02*
X175000000Y-130500000D01*
X175000000Y-130500000D02*
X175000000Y-127500000D01*
X175000000Y-127500000D02*
X176000000Y-127750000D01*
X176000000Y-127750000D02*
X176000000Y-128250000D01*
X176000000Y-128250000D02*
X176350000Y-128250000D01*
X176350000Y-128250000D02*
X176350000Y-128250000D01*
X176350000Y-128250000D02*
X176350000Y-127500000D01*
X176350000Y-127500000D02*
X180650000Y-127500000D01*
X180650000Y-127500000D02*
X180650000Y-128250000D01*
X180650000Y-124670000D02*
X180650000Y-125420000D01*
X180650000Y-125420000D02*
X176350000Y-125420000D01*
X176350000Y-125420000D02*
X176350000Y-124670000D01*
X176350000Y-124670000D02*
X176000000Y-124670000D01*
X176000000Y-124670000D02*
X176000000Y-125170000D01*
X176000000Y-125170000D02*
X175000000Y-125420000D01*
X175000000Y-125420000D02*
X175000000Y-122420000D01*
X175000000Y-122420000D02*
X176000000Y-122670000D01*
X176000000Y-122670000D02*
X176000000Y-123170000D01*
X176000000Y-123170000D02*
X176350000Y-123170000D01*
X176350000Y-123170000D02*
X176350000Y-123170000D01*
X176350000Y-123170000D02*
X176350000Y-122420000D01*
X176350000Y-122420000D02*
X180650000Y-122420000D01*
X180650000Y-122420000D02*
X180650000Y-123170000D01*
X173650000Y-129000000D02*
X173050000Y-128700000D01*
X173050000Y-128700000D02*
X173050000Y-129300000D01*
X173050000Y-129300000D02*
X173650000Y-129000000D01*
X180649845Y-107750353D02*
G75*
G03X180650000Y-109250000I1700155J-749647D01*
G01*
X180649845Y-102670353D02*
G75*
G03X180650000Y-104170000I1700155J-749647D01*
G01*
X174070000Y-111120000D02*
X181480000Y-111120000D01*
X181480000Y-111120000D02*
X181480000Y-100800000D01*
X181480000Y-100800000D02*
X174070000Y-100800000D01*
X174070000Y-100800000D02*
X174070000Y-111120000D01*
X180650000Y-109250000D02*
X180650000Y-110000000D01*
X180650000Y-110000000D02*
X176350000Y-110000000D01*
X176350000Y-110000000D02*
X176350000Y-109250000D01*
X176350000Y-109250000D02*
X176000000Y-109250000D01*
X176000000Y-109250000D02*
X176000000Y-109750000D01*
X176000000Y-109750000D02*
X175000000Y-110000000D01*
X175000000Y-110000000D02*
X175000000Y-107000000D01*
X175000000Y-107000000D02*
X176000000Y-107250000D01*
X176000000Y-107250000D02*
X176000000Y-107750000D01*
X176000000Y-107750000D02*
X176350000Y-107750000D01*
X176350000Y-107750000D02*
X176350000Y-107750000D01*
X176350000Y-107750000D02*
X176350000Y-107000000D01*
X176350000Y-107000000D02*
X180650000Y-107000000D01*
X180650000Y-107000000D02*
X180650000Y-107750000D01*
X180650000Y-104170000D02*
X180650000Y-104920000D01*
X180650000Y-104920000D02*
X176350000Y-104920000D01*
X176350000Y-104920000D02*
X176350000Y-104170000D01*
X176350000Y-104170000D02*
X176000000Y-104170000D01*
X176000000Y-104170000D02*
X176000000Y-104670000D01*
X176000000Y-104670000D02*
X175000000Y-104920000D01*
X175000000Y-104920000D02*
X175000000Y-101920000D01*
X175000000Y-101920000D02*
X176000000Y-102170000D01*
X176000000Y-102170000D02*
X176000000Y-102670000D01*
X176000000Y-102670000D02*
X176350000Y-102670000D01*
X176350000Y-102670000D02*
X176350000Y-102670000D01*
X176350000Y-102670000D02*
X176350000Y-101920000D01*
X176350000Y-101920000D02*
X180650000Y-101920000D01*
X180650000Y-101920000D02*
X180650000Y-102670000D01*
X173650000Y-108500000D02*
X173050000Y-108200000D01*
X173050000Y-108200000D02*
X173050000Y-108800000D01*
X173050000Y-108800000D02*
X173650000Y-108500000D01*
X187749647Y-65649845D02*
G75*
G03X186250000Y-65650000I-749647J-1700155D01*
G01*
X192829647Y-65649845D02*
G75*
G03X191330000Y-65650000I-749647J-1700155D01*
G01*
X184380000Y-59070000D02*
X184380000Y-66480000D01*
X184380000Y-66480000D02*
X194700000Y-66480000D01*
X194700000Y-66480000D02*
X194700000Y-59070000D01*
X194700000Y-59070000D02*
X184380000Y-59070000D01*
X186250000Y-65650000D02*
X185500000Y-65650000D01*
X185500000Y-65650000D02*
X185500000Y-61350000D01*
X185500000Y-61350000D02*
X186250000Y-61350000D01*
X186250000Y-61350000D02*
X186250000Y-61000000D01*
X186250000Y-61000000D02*
X185750000Y-61000000D01*
X185750000Y-61000000D02*
X185500000Y-60000000D01*
X185500000Y-60000000D02*
X188500000Y-60000000D01*
X188500000Y-60000000D02*
X188250000Y-61000000D01*
X188250000Y-61000000D02*
X187750000Y-61000000D01*
X187750000Y-61000000D02*
X187750000Y-61350000D01*
X187750000Y-61350000D02*
X187750000Y-61350000D01*
X187750000Y-61350000D02*
X188500000Y-61350000D01*
X188500000Y-61350000D02*
X188500000Y-65650000D01*
X188500000Y-65650000D02*
X187750000Y-65650000D01*
X191330000Y-65650000D02*
X190580000Y-65650000D01*
X190580000Y-65650000D02*
X190580000Y-61350000D01*
X190580000Y-61350000D02*
X191330000Y-61350000D01*
X191330000Y-61350000D02*
X191330000Y-61000000D01*
X191330000Y-61000000D02*
X190830000Y-61000000D01*
X190830000Y-61000000D02*
X190580000Y-60000000D01*
X190580000Y-60000000D02*
X193580000Y-60000000D01*
X193580000Y-60000000D02*
X193330000Y-61000000D01*
X193330000Y-61000000D02*
X192830000Y-61000000D01*
X192830000Y-61000000D02*
X192830000Y-61350000D01*
X192830000Y-61350000D02*
X192830000Y-61350000D01*
X192830000Y-61350000D02*
X193580000Y-61350000D01*
X193580000Y-61350000D02*
X193580000Y-65650000D01*
X193580000Y-65650000D02*
X192830000Y-65650000D01*
X187000000Y-58650000D02*
X187300000Y-58050000D01*
X187300000Y-58050000D02*
X186700000Y-58050000D01*
X186700000Y-58050000D02*
X187000000Y-58650000D01*
X224350155Y-88249647D02*
G75*
G03X224350000Y-86750000I-1700155J749647D01*
G01*
X224350155Y-93329647D02*
G75*
G03X224350000Y-91830000I-1700155J749647D01*
G01*
X230930000Y-84880000D02*
X223520000Y-84880000D01*
X223520000Y-84880000D02*
X223520000Y-95200000D01*
X223520000Y-95200000D02*
X230930000Y-95200000D01*
X230930000Y-95200000D02*
X230930000Y-84880000D01*
X224350000Y-86750000D02*
X224350000Y-86000000D01*
X224350000Y-86000000D02*
X228650000Y-86000000D01*
X228650000Y-86000000D02*
X228650000Y-86750000D01*
X228650000Y-86750000D02*
X229000000Y-86750000D01*
X229000000Y-86750000D02*
X229000000Y-86250000D01*
X229000000Y-86250000D02*
X230000000Y-86000000D01*
X230000000Y-86000000D02*
X230000000Y-89000000D01*
X230000000Y-89000000D02*
X229000000Y-88750000D01*
X229000000Y-88750000D02*
X229000000Y-88250000D01*
X229000000Y-88250000D02*
X228650000Y-88250000D01*
X228650000Y-88250000D02*
X228650000Y-88250000D01*
X228650000Y-88250000D02*
X228650000Y-89000000D01*
X228650000Y-89000000D02*
X224350000Y-89000000D01*
X224350000Y-89000000D02*
X224350000Y-88250000D01*
X224350000Y-91830000D02*
X224350000Y-91080000D01*
X224350000Y-91080000D02*
X228650000Y-91080000D01*
X228650000Y-91080000D02*
X228650000Y-91830000D01*
X228650000Y-91830000D02*
X229000000Y-91830000D01*
X229000000Y-91830000D02*
X229000000Y-91330000D01*
X229000000Y-91330000D02*
X230000000Y-91080000D01*
X230000000Y-91080000D02*
X230000000Y-94080000D01*
X230000000Y-94080000D02*
X229000000Y-93830000D01*
X229000000Y-93830000D02*
X229000000Y-93330000D01*
X229000000Y-93330000D02*
X228650000Y-93330000D01*
X228650000Y-93330000D02*
X228650000Y-93330000D01*
X228650000Y-93330000D02*
X228650000Y-94080000D01*
X228650000Y-94080000D02*
X224350000Y-94080000D01*
X224350000Y-94080000D02*
X224350000Y-93330000D01*
X231350000Y-87500000D02*
X231950000Y-87800000D01*
X231950000Y-87800000D02*
X231950000Y-87200000D01*
X231950000Y-87200000D02*
X231350000Y-87500000D01*
X224350155Y-72749647D02*
G75*
G03X224350000Y-71250000I-1700155J749647D01*
G01*
X224350155Y-77829647D02*
G75*
G03X224350000Y-76330000I-1700155J749647D01*
G01*
X230930000Y-69380000D02*
X223520000Y-69380000D01*
X223520000Y-69380000D02*
X223520000Y-79700000D01*
X223520000Y-79700000D02*
X230930000Y-79700000D01*
X230930000Y-79700000D02*
X230930000Y-69380000D01*
X224350000Y-71250000D02*
X224350000Y-70500000D01*
X224350000Y-70500000D02*
X228650000Y-70500000D01*
X228650000Y-70500000D02*
X228650000Y-71250000D01*
X228650000Y-71250000D02*
X229000000Y-71250000D01*
X229000000Y-71250000D02*
X229000000Y-70750000D01*
X229000000Y-70750000D02*
X230000000Y-70500000D01*
X230000000Y-70500000D02*
X230000000Y-73500000D01*
X230000000Y-73500000D02*
X229000000Y-73250000D01*
X229000000Y-73250000D02*
X229000000Y-72750000D01*
X229000000Y-72750000D02*
X228650000Y-72750000D01*
X228650000Y-72750000D02*
X228650000Y-72750000D01*
X228650000Y-72750000D02*
X228650000Y-73500000D01*
X228650000Y-73500000D02*
X224350000Y-73500000D01*
X224350000Y-73500000D02*
X224350000Y-72750000D01*
X224350000Y-76330000D02*
X224350000Y-75580000D01*
X224350000Y-75580000D02*
X228650000Y-75580000D01*
X228650000Y-75580000D02*
X228650000Y-76330000D01*
X228650000Y-76330000D02*
X229000000Y-76330000D01*
X229000000Y-76330000D02*
X229000000Y-75830000D01*
X229000000Y-75830000D02*
X230000000Y-75580000D01*
X230000000Y-75580000D02*
X230000000Y-78580000D01*
X230000000Y-78580000D02*
X229000000Y-78330000D01*
X229000000Y-78330000D02*
X229000000Y-77830000D01*
X229000000Y-77830000D02*
X228650000Y-77830000D01*
X228650000Y-77830000D02*
X228650000Y-77830000D01*
X228650000Y-77830000D02*
X228650000Y-78580000D01*
X228650000Y-78580000D02*
X224350000Y-78580000D01*
X224350000Y-78580000D02*
X224350000Y-77830000D01*
X231350000Y-72000000D02*
X231950000Y-72300000D01*
X231950000Y-72300000D02*
X231950000Y-71700000D01*
X231950000Y-71700000D02*
X231350000Y-72000000D01*
D13*
X206630000Y-89810000D02*
X206630000Y-87190000D01*
X206630000Y-87190000D02*
X200210000Y-87190000D01*
X200210000Y-87190000D02*
X200210000Y-89810000D01*
X200210000Y-89810000D02*
X206630000Y-89810000D01*
X207520000Y-88500000D02*
X206630000Y-88500000D01*
X199320000Y-88500000D02*
X200210000Y-88500000D01*
X215690000Y-109630000D02*
X218310000Y-109630000D01*
X218310000Y-109630000D02*
X218310000Y-103210000D01*
X218310000Y-103210000D02*
X215690000Y-103210000D01*
X215690000Y-103210000D02*
X215690000Y-109630000D01*
X217000000Y-110520000D02*
X217000000Y-109630000D01*
X217000000Y-102320000D02*
X217000000Y-103210000D01*
X209870000Y-90190000D02*
X209870000Y-92810000D01*
X209870000Y-92810000D02*
X216290000Y-92810000D01*
X216290000Y-92810000D02*
X216290000Y-90190000D01*
X216290000Y-90190000D02*
X209870000Y-90190000D01*
X208980000Y-91500000D02*
X209870000Y-91500000D01*
X217180000Y-91500000D02*
X216290000Y-91500000D01*
X209190000Y-78630000D02*
X211810000Y-78630000D01*
X211810000Y-78630000D02*
X211810000Y-72210000D01*
X211810000Y-72210000D02*
X209190000Y-72210000D01*
X209190000Y-72210000D02*
X209190000Y-78630000D01*
X210500000Y-79520000D02*
X210500000Y-78630000D01*
X210500000Y-71320000D02*
X210500000Y-72210000D01*
X213690000Y-84810000D02*
X223310000Y-84810000D01*
X223310000Y-84810000D02*
X223310000Y-62690000D01*
X223310000Y-62690000D02*
X213690000Y-62690000D01*
X213690000Y-62690000D02*
X213690000Y-84810000D01*
X218500000Y-86520000D02*
X218500000Y-84810000D01*
X218500000Y-60980000D02*
X218500000Y-62690000D01*
X196810000Y-78610000D02*
X192190000Y-78610000D01*
X192190000Y-78610000D02*
X192190000Y-90630000D01*
X192190000Y-90630000D02*
X196810000Y-90630000D01*
X196810000Y-90630000D02*
X196810000Y-78610000D01*
X194500000Y-78380000D02*
X194500000Y-78610000D01*
X194500000Y-90860000D02*
X194500000Y-90630000D01*
X204810000Y-121610000D02*
X200190000Y-121610000D01*
X200190000Y-121610000D02*
X200190000Y-133630000D01*
X200190000Y-133630000D02*
X204810000Y-133630000D01*
X204810000Y-133630000D02*
X204810000Y-121610000D01*
X202500000Y-121380000D02*
X202500000Y-121610000D01*
X202500000Y-133860000D02*
X202500000Y-133630000D01*
X223310000Y-98610000D02*
X218690000Y-98610000D01*
X218690000Y-98610000D02*
X218690000Y-110630000D01*
X218690000Y-110630000D02*
X223310000Y-110630000D01*
X223310000Y-110630000D02*
X223310000Y-98610000D01*
X221000000Y-98380000D02*
X221000000Y-98610000D01*
X221000000Y-110860000D02*
X221000000Y-110630000D01*
X192890000Y-74310000D02*
X192890000Y-69690000D01*
X192890000Y-69690000D02*
X180870000Y-69690000D01*
X180870000Y-69690000D02*
X180870000Y-74310000D01*
X180870000Y-74310000D02*
X192890000Y-74310000D01*
X193120000Y-72000000D02*
X192890000Y-72000000D01*
X180640000Y-72000000D02*
X180870000Y-72000000D01*
X203048475Y-64679194D02*
G75*
G03X212951333Y-64680000I4951525J1179194D01*
G01*
X203048475Y-62320806D02*
G75*
G02X212951333Y-62320000I4951525J-1179194D01*
G01*
X203048475Y-62320806D02*
G75*
G03X203048667Y-64680000I4951525J-1179194D01*
G01*
X208000000Y-68550000D02*
X208000000Y-58450000D01*
X207960000Y-68550000D02*
X207960000Y-58450000D01*
X207920000Y-68550000D02*
X207920000Y-58450000D01*
X207880000Y-68549000D02*
X207880000Y-58451000D01*
X207840000Y-68548000D02*
X207840000Y-58452000D01*
X207800000Y-68547000D02*
X207800000Y-58453000D01*
X207760000Y-68545000D02*
X207760000Y-58455000D01*
X207720000Y-68543000D02*
X207720000Y-58457000D01*
X207680000Y-68540000D02*
X207680000Y-58460000D01*
X207640000Y-68538000D02*
X207640000Y-58462000D01*
X207600000Y-68535000D02*
X207600000Y-58465000D01*
X207560000Y-68531000D02*
X207560000Y-58469000D01*
X207520000Y-68528000D02*
X207520000Y-58472000D01*
X207480000Y-68524000D02*
X207480000Y-58476000D01*
X207440000Y-68520000D02*
X207440000Y-58480000D01*
X207400000Y-68515000D02*
X207400000Y-58485000D01*
X207360000Y-68510000D02*
X207360000Y-58490000D01*
X207320000Y-68505000D02*
X207320000Y-58495000D01*
X207279000Y-68499000D02*
X207279000Y-58501000D01*
X207239000Y-68493000D02*
X207239000Y-58507000D01*
X207199000Y-68487000D02*
X207199000Y-58513000D01*
X207159000Y-68481000D02*
X207159000Y-58519000D01*
X207119000Y-68474000D02*
X207119000Y-58526000D01*
X207079000Y-68467000D02*
X207079000Y-58533000D01*
X207039000Y-68459000D02*
X207039000Y-58541000D01*
X206999000Y-68451000D02*
X206999000Y-58549000D01*
X206959000Y-68443000D02*
X206959000Y-58557000D01*
X206919000Y-68435000D02*
X206919000Y-58565000D01*
X206879000Y-68426000D02*
X206879000Y-58574000D01*
X206839000Y-68417000D02*
X206839000Y-58583000D01*
X206799000Y-68407000D02*
X206799000Y-58593000D01*
X206759000Y-68397000D02*
X206759000Y-58603000D01*
X206719000Y-68387000D02*
X206719000Y-58613000D01*
X206679000Y-68376000D02*
X206679000Y-64681000D01*
X206679000Y-62319000D02*
X206679000Y-58624000D01*
X206639000Y-68365000D02*
X206639000Y-64681000D01*
X206639000Y-62319000D02*
X206639000Y-58635000D01*
X206599000Y-68354000D02*
X206599000Y-64681000D01*
X206599000Y-62319000D02*
X206599000Y-58646000D01*
X206559000Y-68343000D02*
X206559000Y-64681000D01*
X206559000Y-62319000D02*
X206559000Y-58657000D01*
X206519000Y-68331000D02*
X206519000Y-64681000D01*
X206519000Y-62319000D02*
X206519000Y-58669000D01*
X206479000Y-68318000D02*
X206479000Y-64681000D01*
X206479000Y-62319000D02*
X206479000Y-58682000D01*
X206439000Y-68306000D02*
X206439000Y-64681000D01*
X206439000Y-62319000D02*
X206439000Y-58694000D01*
X206399000Y-68292000D02*
X206399000Y-64681000D01*
X206399000Y-62319000D02*
X206399000Y-58708000D01*
X206359000Y-68279000D02*
X206359000Y-64681000D01*
X206359000Y-62319000D02*
X206359000Y-58721000D01*
X206319000Y-68265000D02*
X206319000Y-64681000D01*
X206319000Y-62319000D02*
X206319000Y-58735000D01*
X206279000Y-68251000D02*
X206279000Y-64681000D01*
X206279000Y-62319000D02*
X206279000Y-58749000D01*
X206239000Y-68237000D02*
X206239000Y-64681000D01*
X206239000Y-62319000D02*
X206239000Y-58763000D01*
X206199000Y-68222000D02*
X206199000Y-64681000D01*
X206199000Y-62319000D02*
X206199000Y-58778000D01*
X206159000Y-68206000D02*
X206159000Y-64681000D01*
X206159000Y-62319000D02*
X206159000Y-58794000D01*
X206119000Y-68191000D02*
X206119000Y-64681000D01*
X206119000Y-62319000D02*
X206119000Y-58809000D01*
X206079000Y-68174000D02*
X206079000Y-64681000D01*
X206079000Y-62319000D02*
X206079000Y-58826000D01*
X206039000Y-68158000D02*
X206039000Y-64681000D01*
X206039000Y-62319000D02*
X206039000Y-58842000D01*
X205999000Y-68141000D02*
X205999000Y-64681000D01*
X205999000Y-62319000D02*
X205999000Y-58859000D01*
X205959000Y-68124000D02*
X205959000Y-64681000D01*
X205959000Y-62319000D02*
X205959000Y-58876000D01*
X205919000Y-68106000D02*
X205919000Y-64681000D01*
X205919000Y-62319000D02*
X205919000Y-58894000D01*
X205879000Y-68088000D02*
X205879000Y-64681000D01*
X205879000Y-62319000D02*
X205879000Y-58912000D01*
X205839000Y-68069000D02*
X205839000Y-64681000D01*
X205839000Y-62319000D02*
X205839000Y-58931000D01*
X205799000Y-68050000D02*
X205799000Y-64681000D01*
X205799000Y-62319000D02*
X205799000Y-58950000D01*
X205759000Y-68031000D02*
X205759000Y-64681000D01*
X205759000Y-62319000D02*
X205759000Y-58969000D01*
X205719000Y-68011000D02*
X205719000Y-64681000D01*
X205719000Y-62319000D02*
X205719000Y-58989000D01*
X205679000Y-67991000D02*
X205679000Y-64681000D01*
X205679000Y-62319000D02*
X205679000Y-59009000D01*
X205639000Y-67970000D02*
X205639000Y-64681000D01*
X205639000Y-62319000D02*
X205639000Y-59030000D01*
X205599000Y-67949000D02*
X205599000Y-64681000D01*
X205599000Y-62319000D02*
X205599000Y-59051000D01*
X205559000Y-67928000D02*
X205559000Y-64681000D01*
X205559000Y-62319000D02*
X205559000Y-59072000D01*
X205519000Y-67905000D02*
X205519000Y-64681000D01*
X205519000Y-62319000D02*
X205519000Y-59095000D01*
X205479000Y-67883000D02*
X205479000Y-64681000D01*
X205479000Y-62319000D02*
X205479000Y-59117000D01*
X205439000Y-67860000D02*
X205439000Y-64681000D01*
X205439000Y-62319000D02*
X205439000Y-59140000D01*
X205399000Y-67836000D02*
X205399000Y-64681000D01*
X205399000Y-62319000D02*
X205399000Y-59164000D01*
X205359000Y-67812000D02*
X205359000Y-64681000D01*
X205359000Y-62319000D02*
X205359000Y-59188000D01*
X205319000Y-67788000D02*
X205319000Y-64681000D01*
X205319000Y-62319000D02*
X205319000Y-59212000D01*
X205279000Y-67763000D02*
X205279000Y-64681000D01*
X205279000Y-62319000D02*
X205279000Y-59237000D01*
X205239000Y-67737000D02*
X205239000Y-64681000D01*
X205239000Y-62319000D02*
X205239000Y-59263000D01*
X205199000Y-67711000D02*
X205199000Y-64681000D01*
X205199000Y-62319000D02*
X205199000Y-59289000D01*
X205159000Y-67685000D02*
X205159000Y-64681000D01*
X205159000Y-62319000D02*
X205159000Y-59315000D01*
X205119000Y-67657000D02*
X205119000Y-64681000D01*
X205119000Y-62319000D02*
X205119000Y-59343000D01*
X205079000Y-67630000D02*
X205079000Y-64681000D01*
X205079000Y-62319000D02*
X205079000Y-59370000D01*
X205039000Y-67601000D02*
X205039000Y-64681000D01*
X205039000Y-62319000D02*
X205039000Y-59399000D01*
X204999000Y-67572000D02*
X204999000Y-64681000D01*
X204999000Y-62319000D02*
X204999000Y-59428000D01*
X204959000Y-67543000D02*
X204959000Y-64681000D01*
X204959000Y-62319000D02*
X204959000Y-59457000D01*
X204919000Y-67513000D02*
X204919000Y-64681000D01*
X204919000Y-62319000D02*
X204919000Y-59487000D01*
X204879000Y-67482000D02*
X204879000Y-64681000D01*
X204879000Y-62319000D02*
X204879000Y-59518000D01*
X204839000Y-67451000D02*
X204839000Y-64681000D01*
X204839000Y-62319000D02*
X204839000Y-59549000D01*
X204799000Y-67419000D02*
X204799000Y-64681000D01*
X204799000Y-62319000D02*
X204799000Y-59581000D01*
X204759000Y-67386000D02*
X204759000Y-64681000D01*
X204759000Y-62319000D02*
X204759000Y-59614000D01*
X204719000Y-67353000D02*
X204719000Y-64681000D01*
X204719000Y-62319000D02*
X204719000Y-59647000D01*
X204679000Y-67319000D02*
X204679000Y-64681000D01*
X204679000Y-62319000D02*
X204679000Y-59681000D01*
X204639000Y-67284000D02*
X204639000Y-64681000D01*
X204639000Y-62319000D02*
X204639000Y-59716000D01*
X204599000Y-67248000D02*
X204599000Y-64681000D01*
X204599000Y-62319000D02*
X204599000Y-59752000D01*
X204559000Y-67212000D02*
X204559000Y-64681000D01*
X204559000Y-62319000D02*
X204559000Y-59788000D01*
X204519000Y-67175000D02*
X204519000Y-64681000D01*
X204519000Y-62319000D02*
X204519000Y-59825000D01*
X204479000Y-67137000D02*
X204479000Y-64681000D01*
X204479000Y-62319000D02*
X204479000Y-59863000D01*
X204439000Y-67098000D02*
X204439000Y-64681000D01*
X204439000Y-62319000D02*
X204439000Y-59902000D01*
X204399000Y-67059000D02*
X204399000Y-64681000D01*
X204399000Y-62319000D02*
X204399000Y-59941000D01*
X204359000Y-67018000D02*
X204359000Y-64681000D01*
X204359000Y-62319000D02*
X204359000Y-59982000D01*
X204319000Y-66977000D02*
X204319000Y-60023000D01*
X204279000Y-66935000D02*
X204279000Y-60065000D01*
X204239000Y-66891000D02*
X204239000Y-60109000D01*
X204199000Y-66847000D02*
X204199000Y-60153000D01*
X204159000Y-66802000D02*
X204159000Y-60198000D01*
X204119000Y-66755000D02*
X204119000Y-60245000D01*
X204079000Y-66707000D02*
X204079000Y-60293000D01*
X204039000Y-66658000D02*
X204039000Y-60342000D01*
X203999000Y-66608000D02*
X203999000Y-60392000D01*
X203959000Y-66557000D02*
X203959000Y-60443000D01*
X203919000Y-66504000D02*
X203919000Y-60496000D01*
X203879000Y-66449000D02*
X203879000Y-60551000D01*
X203839000Y-66394000D02*
X203839000Y-60606000D01*
X203799000Y-66336000D02*
X203799000Y-60664000D01*
X203759000Y-66277000D02*
X203759000Y-60723000D01*
X203719000Y-66215000D02*
X203719000Y-60785000D01*
X203679000Y-66152000D02*
X203679000Y-60848000D01*
X203639000Y-66087000D02*
X203639000Y-60913000D01*
X203599000Y-66019000D02*
X203599000Y-60981000D01*
X203559000Y-65949000D02*
X203559000Y-61051000D01*
X203519000Y-65877000D02*
X203519000Y-61123000D01*
X203479000Y-65801000D02*
X203479000Y-61199000D01*
X203439000Y-65722000D02*
X203439000Y-61278000D01*
X203399000Y-65640000D02*
X203399000Y-61360000D01*
X203359000Y-65553000D02*
X203359000Y-61447000D01*
X203319000Y-65462000D02*
X203319000Y-61538000D01*
X203279000Y-65366000D02*
X203279000Y-61634000D01*
X203239000Y-65263000D02*
X203239000Y-61737000D01*
X203199000Y-65154000D02*
X203199000Y-61846000D01*
X203159000Y-65036000D02*
X203159000Y-61964000D01*
X203119000Y-64907000D02*
X203119000Y-62093000D01*
X203079000Y-64765000D02*
X203079000Y-62235000D01*
X203039000Y-64604000D02*
X203039000Y-62396000D01*
X202999000Y-64413000D02*
X202999000Y-62587000D01*
X202959000Y-64172000D02*
X202959000Y-62828000D01*
X202919000Y-63779000D02*
X202919000Y-63221000D01*
X213200000Y-63500000D02*
X211700000Y-63500000D01*
X212450000Y-64250000D02*
X212450000Y-62750000D01*
X184440000Y-110810000D02*
X184440000Y-103190000D01*
X189560000Y-110810000D02*
X189560000Y-103190000D01*
X184440000Y-110810000D02*
X186689000Y-110810000D01*
X187311000Y-110810000D02*
X189560000Y-110810000D01*
X184440000Y-103190000D02*
X186689000Y-103190000D01*
X187311000Y-103190000D02*
X189560000Y-103190000D01*
D14*
X219750353Y-144350155D02*
G75*
G03X221250000Y-144350000I749647J1700155D01*
G01*
X214670353Y-144350155D02*
G75*
G03X216170000Y-144350000I749647J1700155D01*
G01*
X209590353Y-144350155D02*
G75*
G03X211090000Y-144350000I749647J1700155D01*
G01*
X204510353Y-144350155D02*
G75*
G03X206010000Y-144350000I749647J1700155D01*
G01*
X199430353Y-144350155D02*
G75*
G03X200930000Y-144350000I749647J1700155D01*
G01*
X194350353Y-144350155D02*
G75*
G03X195850000Y-144350000I749647J1700155D01*
G01*
X189270353Y-144350155D02*
G75*
G03X190770000Y-144350000I749647J1700155D01*
G01*
X184190353Y-144350155D02*
G75*
G03X185690000Y-144350000I749647J1700155D01*
G01*
X223120000Y-150930000D02*
X223120000Y-143520000D01*
X223120000Y-143520000D02*
X182320000Y-143520000D01*
X182320000Y-143520000D02*
X182320000Y-150930000D01*
X182320000Y-150930000D02*
X223120000Y-150930000D01*
X221250000Y-144350000D02*
X222000000Y-144350000D01*
X222000000Y-144350000D02*
X222000000Y-148650000D01*
X222000000Y-148650000D02*
X221250000Y-148650000D01*
X221250000Y-148650000D02*
X221250000Y-149000000D01*
X221250000Y-149000000D02*
X221750000Y-149000000D01*
X221750000Y-149000000D02*
X222000000Y-150000000D01*
X222000000Y-150000000D02*
X219000000Y-150000000D01*
X219000000Y-150000000D02*
X219250000Y-149000000D01*
X219250000Y-149000000D02*
X219750000Y-149000000D01*
X219750000Y-149000000D02*
X219750000Y-148650000D01*
X219750000Y-148650000D02*
X219750000Y-148650000D01*
X219750000Y-148650000D02*
X219000000Y-148650000D01*
X219000000Y-148650000D02*
X219000000Y-144350000D01*
X219000000Y-144350000D02*
X219750000Y-144350000D01*
X216170000Y-144350000D02*
X216920000Y-144350000D01*
X216920000Y-144350000D02*
X216920000Y-148650000D01*
X216920000Y-148650000D02*
X216170000Y-148650000D01*
X216170000Y-148650000D02*
X216170000Y-149000000D01*
X216170000Y-149000000D02*
X216670000Y-149000000D01*
X216670000Y-149000000D02*
X216920000Y-150000000D01*
X216920000Y-150000000D02*
X213920000Y-150000000D01*
X213920000Y-150000000D02*
X214170000Y-149000000D01*
X214170000Y-149000000D02*
X214670000Y-149000000D01*
X214670000Y-149000000D02*
X214670000Y-148650000D01*
X214670000Y-148650000D02*
X214670000Y-148650000D01*
X214670000Y-148650000D02*
X213920000Y-148650000D01*
X213920000Y-148650000D02*
X213920000Y-144350000D01*
X213920000Y-144350000D02*
X214670000Y-144350000D01*
X211090000Y-144350000D02*
X211840000Y-144350000D01*
X211840000Y-144350000D02*
X211840000Y-148650000D01*
X211840000Y-148650000D02*
X211090000Y-148650000D01*
X211090000Y-148650000D02*
X211090000Y-149000000D01*
X211090000Y-149000000D02*
X211590000Y-149000000D01*
X211590000Y-149000000D02*
X211840000Y-150000000D01*
X211840000Y-150000000D02*
X208840000Y-150000000D01*
X208840000Y-150000000D02*
X209090000Y-149000000D01*
X209090000Y-149000000D02*
X209590000Y-149000000D01*
X209590000Y-149000000D02*
X209590000Y-148650000D01*
X209590000Y-148650000D02*
X209590000Y-148650000D01*
X209590000Y-148650000D02*
X208840000Y-148650000D01*
X208840000Y-148650000D02*
X208840000Y-144350000D01*
X208840000Y-144350000D02*
X209590000Y-144350000D01*
X206010000Y-144350000D02*
X206760000Y-144350000D01*
X206760000Y-144350000D02*
X206760000Y-148650000D01*
X206760000Y-148650000D02*
X206010000Y-148650000D01*
X206010000Y-148650000D02*
X206010000Y-149000000D01*
X206010000Y-149000000D02*
X206510000Y-149000000D01*
X206510000Y-149000000D02*
X206760000Y-150000000D01*
X206760000Y-150000000D02*
X203760000Y-150000000D01*
X203760000Y-150000000D02*
X204010000Y-149000000D01*
X204010000Y-149000000D02*
X204510000Y-149000000D01*
X204510000Y-149000000D02*
X204510000Y-148650000D01*
X204510000Y-148650000D02*
X204510000Y-148650000D01*
X204510000Y-148650000D02*
X203760000Y-148650000D01*
X203760000Y-148650000D02*
X203760000Y-144350000D01*
X203760000Y-144350000D02*
X204510000Y-144350000D01*
X200930000Y-144350000D02*
X201680000Y-144350000D01*
X201680000Y-144350000D02*
X201680000Y-148650000D01*
X201680000Y-148650000D02*
X200930000Y-148650000D01*
X200930000Y-148650000D02*
X200930000Y-149000000D01*
X200930000Y-149000000D02*
X201430000Y-149000000D01*
X201430000Y-149000000D02*
X201680000Y-150000000D01*
X201680000Y-150000000D02*
X198680000Y-150000000D01*
X198680000Y-150000000D02*
X198930000Y-149000000D01*
X198930000Y-149000000D02*
X199430000Y-149000000D01*
X199430000Y-149000000D02*
X199430000Y-148650000D01*
X199430000Y-148650000D02*
X199430000Y-148650000D01*
X199430000Y-148650000D02*
X198680000Y-148650000D01*
X198680000Y-148650000D02*
X198680000Y-144350000D01*
X198680000Y-144350000D02*
X199430000Y-144350000D01*
X195850000Y-144350000D02*
X196600000Y-144350000D01*
X196600000Y-144350000D02*
X196600000Y-148650000D01*
X196600000Y-148650000D02*
X195850000Y-148650000D01*
X195850000Y-148650000D02*
X195850000Y-149000000D01*
X195850000Y-149000000D02*
X196350000Y-149000000D01*
X196350000Y-149000000D02*
X196600000Y-150000000D01*
X196600000Y-150000000D02*
X193600000Y-150000000D01*
X193600000Y-150000000D02*
X193850000Y-149000000D01*
X193850000Y-149000000D02*
X194350000Y-149000000D01*
X194350000Y-149000000D02*
X194350000Y-148650000D01*
X194350000Y-148650000D02*
X194350000Y-148650000D01*
X194350000Y-148650000D02*
X193600000Y-148650000D01*
X193600000Y-148650000D02*
X193600000Y-144350000D01*
X193600000Y-144350000D02*
X194350000Y-144350000D01*
X190770000Y-144350000D02*
X191520000Y-144350000D01*
X191520000Y-144350000D02*
X191520000Y-148650000D01*
X191520000Y-148650000D02*
X190770000Y-148650000D01*
X190770000Y-148650000D02*
X190770000Y-149000000D01*
X190770000Y-149000000D02*
X191270000Y-149000000D01*
X191270000Y-149000000D02*
X191520000Y-150000000D01*
X191520000Y-150000000D02*
X188520000Y-150000000D01*
X188520000Y-150000000D02*
X188770000Y-149000000D01*
X188770000Y-149000000D02*
X189270000Y-149000000D01*
X189270000Y-149000000D02*
X189270000Y-148650000D01*
X189270000Y-148650000D02*
X189270000Y-148650000D01*
X189270000Y-148650000D02*
X188520000Y-148650000D01*
X188520000Y-148650000D02*
X188520000Y-144350000D01*
X188520000Y-144350000D02*
X189270000Y-144350000D01*
X185690000Y-144350000D02*
X186440000Y-144350000D01*
X186440000Y-144350000D02*
X186440000Y-148650000D01*
X186440000Y-148650000D02*
X185690000Y-148650000D01*
X185690000Y-148650000D02*
X185690000Y-149000000D01*
X185690000Y-149000000D02*
X186190000Y-149000000D01*
X186190000Y-149000000D02*
X186440000Y-150000000D01*
X186440000Y-150000000D02*
X183440000Y-150000000D01*
X183440000Y-150000000D02*
X183690000Y-149000000D01*
X183690000Y-149000000D02*
X184190000Y-149000000D01*
X184190000Y-149000000D02*
X184190000Y-148650000D01*
X184190000Y-148650000D02*
X184190000Y-148650000D01*
X184190000Y-148650000D02*
X183440000Y-148650000D01*
X183440000Y-148650000D02*
X183440000Y-144350000D01*
X183440000Y-144350000D02*
X184190000Y-144350000D01*
X220500000Y-151350000D02*
X220200000Y-151950000D01*
X220200000Y-151950000D02*
X220800000Y-151950000D01*
X220800000Y-151950000D02*
X220500000Y-151350000D01*
D13*
X220548475Y-137179194D02*
G75*
G03X230451333Y-137180000I4951525J1179194D01*
G01*
X220548475Y-134820806D02*
G75*
G02X230451333Y-134820000I4951525J-1179194D01*
G01*
X220548475Y-134820806D02*
G75*
G03X220548667Y-137180000I4951525J-1179194D01*
G01*
X225500000Y-141050000D02*
X225500000Y-130950000D01*
X225460000Y-141050000D02*
X225460000Y-130950000D01*
X225420000Y-141050000D02*
X225420000Y-130950000D01*
X225380000Y-141049000D02*
X225380000Y-130951000D01*
X225340000Y-141048000D02*
X225340000Y-130952000D01*
X225300000Y-141047000D02*
X225300000Y-130953000D01*
X225260000Y-141045000D02*
X225260000Y-130955000D01*
X225220000Y-141043000D02*
X225220000Y-130957000D01*
X225180000Y-141040000D02*
X225180000Y-130960000D01*
X225140000Y-141038000D02*
X225140000Y-130962000D01*
X225100000Y-141035000D02*
X225100000Y-130965000D01*
X225060000Y-141031000D02*
X225060000Y-130969000D01*
X225020000Y-141028000D02*
X225020000Y-130972000D01*
X224980000Y-141024000D02*
X224980000Y-130976000D01*
X224940000Y-141020000D02*
X224940000Y-130980000D01*
X224900000Y-141015000D02*
X224900000Y-130985000D01*
X224860000Y-141010000D02*
X224860000Y-130990000D01*
X224820000Y-141005000D02*
X224820000Y-130995000D01*
X224779000Y-140999000D02*
X224779000Y-131001000D01*
X224739000Y-140993000D02*
X224739000Y-131007000D01*
X224699000Y-140987000D02*
X224699000Y-131013000D01*
X224659000Y-140981000D02*
X224659000Y-131019000D01*
X224619000Y-140974000D02*
X224619000Y-131026000D01*
X224579000Y-140967000D02*
X224579000Y-131033000D01*
X224539000Y-140959000D02*
X224539000Y-131041000D01*
X224499000Y-140951000D02*
X224499000Y-131049000D01*
X224459000Y-140943000D02*
X224459000Y-131057000D01*
X224419000Y-140935000D02*
X224419000Y-131065000D01*
X224379000Y-140926000D02*
X224379000Y-131074000D01*
X224339000Y-140917000D02*
X224339000Y-131083000D01*
X224299000Y-140907000D02*
X224299000Y-131093000D01*
X224259000Y-140897000D02*
X224259000Y-131103000D01*
X224219000Y-140887000D02*
X224219000Y-131113000D01*
X224179000Y-140876000D02*
X224179000Y-137181000D01*
X224179000Y-134819000D02*
X224179000Y-131124000D01*
X224139000Y-140865000D02*
X224139000Y-137181000D01*
X224139000Y-134819000D02*
X224139000Y-131135000D01*
X224099000Y-140854000D02*
X224099000Y-137181000D01*
X224099000Y-134819000D02*
X224099000Y-131146000D01*
X224059000Y-140843000D02*
X224059000Y-137181000D01*
X224059000Y-134819000D02*
X224059000Y-131157000D01*
X224019000Y-140831000D02*
X224019000Y-137181000D01*
X224019000Y-134819000D02*
X224019000Y-131169000D01*
X223979000Y-140818000D02*
X223979000Y-137181000D01*
X223979000Y-134819000D02*
X223979000Y-131182000D01*
X223939000Y-140806000D02*
X223939000Y-137181000D01*
X223939000Y-134819000D02*
X223939000Y-131194000D01*
X223899000Y-140792000D02*
X223899000Y-137181000D01*
X223899000Y-134819000D02*
X223899000Y-131208000D01*
X223859000Y-140779000D02*
X223859000Y-137181000D01*
X223859000Y-134819000D02*
X223859000Y-131221000D01*
X223819000Y-140765000D02*
X223819000Y-137181000D01*
X223819000Y-134819000D02*
X223819000Y-131235000D01*
X223779000Y-140751000D02*
X223779000Y-137181000D01*
X223779000Y-134819000D02*
X223779000Y-131249000D01*
X223739000Y-140737000D02*
X223739000Y-137181000D01*
X223739000Y-134819000D02*
X223739000Y-131263000D01*
X223699000Y-140722000D02*
X223699000Y-137181000D01*
X223699000Y-134819000D02*
X223699000Y-131278000D01*
X223659000Y-140706000D02*
X223659000Y-137181000D01*
X223659000Y-134819000D02*
X223659000Y-131294000D01*
X223619000Y-140691000D02*
X223619000Y-137181000D01*
X223619000Y-134819000D02*
X223619000Y-131309000D01*
X223579000Y-140674000D02*
X223579000Y-137181000D01*
X223579000Y-134819000D02*
X223579000Y-131326000D01*
X223539000Y-140658000D02*
X223539000Y-137181000D01*
X223539000Y-134819000D02*
X223539000Y-131342000D01*
X223499000Y-140641000D02*
X223499000Y-137181000D01*
X223499000Y-134819000D02*
X223499000Y-131359000D01*
X223459000Y-140624000D02*
X223459000Y-137181000D01*
X223459000Y-134819000D02*
X223459000Y-131376000D01*
X223419000Y-140606000D02*
X223419000Y-137181000D01*
X223419000Y-134819000D02*
X223419000Y-131394000D01*
X223379000Y-140588000D02*
X223379000Y-137181000D01*
X223379000Y-134819000D02*
X223379000Y-131412000D01*
X223339000Y-140569000D02*
X223339000Y-137181000D01*
X223339000Y-134819000D02*
X223339000Y-131431000D01*
X223299000Y-140550000D02*
X223299000Y-137181000D01*
X223299000Y-134819000D02*
X223299000Y-131450000D01*
X223259000Y-140531000D02*
X223259000Y-137181000D01*
X223259000Y-134819000D02*
X223259000Y-131469000D01*
X223219000Y-140511000D02*
X223219000Y-137181000D01*
X223219000Y-134819000D02*
X223219000Y-131489000D01*
X223179000Y-140491000D02*
X223179000Y-137181000D01*
X223179000Y-134819000D02*
X223179000Y-131509000D01*
X223139000Y-140470000D02*
X223139000Y-137181000D01*
X223139000Y-134819000D02*
X223139000Y-131530000D01*
X223099000Y-140449000D02*
X223099000Y-137181000D01*
X223099000Y-134819000D02*
X223099000Y-131551000D01*
X223059000Y-140428000D02*
X223059000Y-137181000D01*
X223059000Y-134819000D02*
X223059000Y-131572000D01*
X223019000Y-140405000D02*
X223019000Y-137181000D01*
X223019000Y-134819000D02*
X223019000Y-131595000D01*
X222979000Y-140383000D02*
X222979000Y-137181000D01*
X222979000Y-134819000D02*
X222979000Y-131617000D01*
X222939000Y-140360000D02*
X222939000Y-137181000D01*
X222939000Y-134819000D02*
X222939000Y-131640000D01*
X222899000Y-140336000D02*
X222899000Y-137181000D01*
X222899000Y-134819000D02*
X222899000Y-131664000D01*
X222859000Y-140312000D02*
X222859000Y-137181000D01*
X222859000Y-134819000D02*
X222859000Y-131688000D01*
X222819000Y-140288000D02*
X222819000Y-137181000D01*
X222819000Y-134819000D02*
X222819000Y-131712000D01*
X222779000Y-140263000D02*
X222779000Y-137181000D01*
X222779000Y-134819000D02*
X222779000Y-131737000D01*
X222739000Y-140237000D02*
X222739000Y-137181000D01*
X222739000Y-134819000D02*
X222739000Y-131763000D01*
X222699000Y-140211000D02*
X222699000Y-137181000D01*
X222699000Y-134819000D02*
X222699000Y-131789000D01*
X222659000Y-140185000D02*
X222659000Y-137181000D01*
X222659000Y-134819000D02*
X222659000Y-131815000D01*
X222619000Y-140157000D02*
X222619000Y-137181000D01*
X222619000Y-134819000D02*
X222619000Y-131843000D01*
X222579000Y-140130000D02*
X222579000Y-137181000D01*
X222579000Y-134819000D02*
X222579000Y-131870000D01*
X222539000Y-140101000D02*
X222539000Y-137181000D01*
X222539000Y-134819000D02*
X222539000Y-131899000D01*
X222499000Y-140072000D02*
X222499000Y-137181000D01*
X222499000Y-134819000D02*
X222499000Y-131928000D01*
X222459000Y-140043000D02*
X222459000Y-137181000D01*
X222459000Y-134819000D02*
X222459000Y-131957000D01*
X222419000Y-140013000D02*
X222419000Y-137181000D01*
X222419000Y-134819000D02*
X222419000Y-131987000D01*
X222379000Y-139982000D02*
X222379000Y-137181000D01*
X222379000Y-134819000D02*
X222379000Y-132018000D01*
X222339000Y-139951000D02*
X222339000Y-137181000D01*
X222339000Y-134819000D02*
X222339000Y-132049000D01*
X222299000Y-139919000D02*
X222299000Y-137181000D01*
X222299000Y-134819000D02*
X222299000Y-132081000D01*
X222259000Y-139886000D02*
X222259000Y-137181000D01*
X222259000Y-134819000D02*
X222259000Y-132114000D01*
X222219000Y-139853000D02*
X222219000Y-137181000D01*
X222219000Y-134819000D02*
X222219000Y-132147000D01*
X222179000Y-139819000D02*
X222179000Y-137181000D01*
X222179000Y-134819000D02*
X222179000Y-132181000D01*
X222139000Y-139784000D02*
X222139000Y-137181000D01*
X222139000Y-134819000D02*
X222139000Y-132216000D01*
X222099000Y-139748000D02*
X222099000Y-137181000D01*
X222099000Y-134819000D02*
X222099000Y-132252000D01*
X222059000Y-139712000D02*
X222059000Y-137181000D01*
X222059000Y-134819000D02*
X222059000Y-132288000D01*
X222019000Y-139675000D02*
X222019000Y-137181000D01*
X222019000Y-134819000D02*
X222019000Y-132325000D01*
X221979000Y-139637000D02*
X221979000Y-137181000D01*
X221979000Y-134819000D02*
X221979000Y-132363000D01*
X221939000Y-139598000D02*
X221939000Y-137181000D01*
X221939000Y-134819000D02*
X221939000Y-132402000D01*
X221899000Y-139559000D02*
X221899000Y-137181000D01*
X221899000Y-134819000D02*
X221899000Y-132441000D01*
X221859000Y-139518000D02*
X221859000Y-137181000D01*
X221859000Y-134819000D02*
X221859000Y-132482000D01*
X221819000Y-139477000D02*
X221819000Y-132523000D01*
X221779000Y-139435000D02*
X221779000Y-132565000D01*
X221739000Y-139391000D02*
X221739000Y-132609000D01*
X221699000Y-139347000D02*
X221699000Y-132653000D01*
X221659000Y-139302000D02*
X221659000Y-132698000D01*
X221619000Y-139255000D02*
X221619000Y-132745000D01*
X221579000Y-139207000D02*
X221579000Y-132793000D01*
X221539000Y-139158000D02*
X221539000Y-132842000D01*
X221499000Y-139108000D02*
X221499000Y-132892000D01*
X221459000Y-139057000D02*
X221459000Y-132943000D01*
X221419000Y-139004000D02*
X221419000Y-132996000D01*
X221379000Y-138949000D02*
X221379000Y-133051000D01*
X221339000Y-138894000D02*
X221339000Y-133106000D01*
X221299000Y-138836000D02*
X221299000Y-133164000D01*
X221259000Y-138777000D02*
X221259000Y-133223000D01*
X221219000Y-138715000D02*
X221219000Y-133285000D01*
X221179000Y-138652000D02*
X221179000Y-133348000D01*
X221139000Y-138587000D02*
X221139000Y-133413000D01*
X221099000Y-138519000D02*
X221099000Y-133481000D01*
X221059000Y-138449000D02*
X221059000Y-133551000D01*
X221019000Y-138377000D02*
X221019000Y-133623000D01*
X220979000Y-138301000D02*
X220979000Y-133699000D01*
X220939000Y-138222000D02*
X220939000Y-133778000D01*
X220899000Y-138140000D02*
X220899000Y-133860000D01*
X220859000Y-138053000D02*
X220859000Y-133947000D01*
X220819000Y-137962000D02*
X220819000Y-134038000D01*
X220779000Y-137866000D02*
X220779000Y-134134000D01*
X220739000Y-137763000D02*
X220739000Y-134237000D01*
X220699000Y-137654000D02*
X220699000Y-134346000D01*
X220659000Y-137536000D02*
X220659000Y-134464000D01*
X220619000Y-137407000D02*
X220619000Y-134593000D01*
X220579000Y-137265000D02*
X220579000Y-134735000D01*
X220539000Y-137104000D02*
X220539000Y-134896000D01*
X220499000Y-136913000D02*
X220499000Y-135087000D01*
X220459000Y-136672000D02*
X220459000Y-135328000D01*
X220419000Y-136279000D02*
X220419000Y-135721000D01*
X230700000Y-136000000D02*
X229200000Y-136000000D01*
X229950000Y-136750000D02*
X229950000Y-135250000D01*
X226690000Y-122630000D02*
X229310000Y-122630000D01*
X229310000Y-122630000D02*
X229310000Y-116210000D01*
X229310000Y-116210000D02*
X226690000Y-116210000D01*
X226690000Y-116210000D02*
X226690000Y-122630000D01*
X228000000Y-123520000D02*
X228000000Y-122630000D01*
X228000000Y-115320000D02*
X228000000Y-116210000D01*
X222690000Y-125630000D02*
X225310000Y-125630000D01*
X225310000Y-125630000D02*
X225310000Y-119210000D01*
X225310000Y-119210000D02*
X222690000Y-119210000D01*
X222690000Y-119210000D02*
X222690000Y-125630000D01*
X224000000Y-126520000D02*
X224000000Y-125630000D01*
X224000000Y-118320000D02*
X224000000Y-119210000D01*
M02*
