M48
;DRILL file {KiCad 4.0.6} date Friday, 28 July 2017 'PMt' 19:42:35
;FORMAT={-:-/ absolute / metric / decimal}
FMAT,2
METRIC,TZ
T1C0.800
T2C1.000
T3C1.200
T4C1.500
T5C1.600
T6C2.000
T7C3.200
T8C2.500
T9C3.200
%
G90
G05
M71
T1
X189.5Y-117.5
X189.5Y-137.5
X197.Y-126.84
X197.Y-137.
X198.34Y-88.5
X200.5Y-65.5
X200.5Y-85.5
X208.Y-91.5
X208.Y-127.
X208.Y-137.16
X208.5Y-88.5
X210.5Y-70.34
X210.5Y-80.5
X215.5Y-117.5
X215.5Y-137.5
X217.Y-101.34
X217.Y-111.5
X218.16Y-91.5
X218.5Y-60.
X218.5Y-87.5
X224.Y-117.34
X224.Y-127.5
X228.Y-114.34
X228.Y-124.5
T2
X187.Y-102.
X187.Y-112.
X205.5Y-63.5
X210.5Y-63.5
X223.Y-136.
X228.Y-136.
T3
X178.5Y-103.42
X178.5Y-108.5
X178.5Y-123.92
X178.5Y-129.
X179.26Y-72.
X182.5Y-80.5
X182.5Y-88.
X184.94Y-146.5
X187.Y-63.5
X190.02Y-146.5
X192.08Y-63.5
X194.5Y-72.
X194.5Y-77.
X194.5Y-92.24
X195.1Y-146.5
X200.18Y-146.5
X202.5Y-120.
X202.5Y-135.24
X205.26Y-146.5
X210.34Y-146.5
X215.42Y-146.5
X220.5Y-146.5
X221.Y-97.
X221.Y-112.24
X226.5Y-72.
X226.5Y-77.08
X226.5Y-87.5
X226.5Y-92.58
X226.5Y-103.5
X226.5Y-108.58
T4
X228.Y-128.
T5
X178.5Y-115.
X178.5Y-138.
X179.5Y-96.
T6
X192.Y-101.588
X192.Y-108.412
X196.011Y-113.932
X196.011Y-96.068
X202.5Y-93.96
X202.5Y-116.04
X208.989Y-96.068
X208.989Y-113.931
X213.Y-101.588
T7
X227.5Y-62.5
T8
X202.5Y-105.
T9
X177.5Y-62.5
X177.5Y-147.5
X227.5Y-147.5
T0
M30
