%TF.GenerationSoftware,KiCad,Pcbnew,(5.1.5-0-10_14)*%
%TF.CreationDate,2020-09-13T21:21:23+01:00*%
%TF.ProjectId,SSFXPCB,53534658-5043-4422-9e6b-696361645f70,rev?*%
%TF.SameCoordinates,Original*%
%TF.FileFunction,Copper,L2,Bot*%
%TF.FilePolarity,Positive*%
%FSLAX46Y46*%
G04 Gerber Fmt 4.6, Leading zero omitted, Abs format (unit mm)*
G04 Created by KiCad (PCBNEW (5.1.5-0-10_14)) date 2020-09-13 21:21:23*
%MOMM*%
%LPD*%
G04 APERTURE LIST*
%ADD10O,3.000000X2.000000*%
%ADD11C,2.340000*%
%ADD12C,1.260000*%
%ADD13C,1.600000*%
%ADD14R,2.000000X2.000000*%
%ADD15O,2.000000X2.000000*%
%ADD16O,1.600000X1.600000*%
%ADD17C,2.000000*%
%ADD18R,2.400000X2.400000*%
%ADD19C,2.400000*%
%ADD20R,1.800000X3.600000*%
%ADD21O,1.800000X3.600000*%
%ADD22R,1.600000X1.600000*%
%ADD23R,1.100000X1.800000*%
%ADD24C,0.100000*%
%ADD25C,2.800000*%
%ADD26O,3.600000X1.800000*%
%ADD27R,3.600000X1.800000*%
%ADD28O,2.400000X2.400000*%
%ADD29O,1.700000X1.700000*%
%ADD30R,1.700000X1.700000*%
%ADD31C,1.000000*%
%ADD32C,0.254000*%
G04 APERTURE END LIST*
D10*
X187452000Y-52070000D03*
X171222000Y-52070000D03*
X187452000Y-64770000D03*
X171222000Y-64770000D03*
X151371000Y-52070000D03*
X135141000Y-52070000D03*
X151371000Y-64770000D03*
X135141000Y-64770000D03*
D11*
X114808000Y-49784000D03*
X109808000Y-49784000D03*
X104808000Y-49784000D03*
D12*
X165100000Y-90932000D03*
X162560000Y-88392000D03*
X160020000Y-90932000D03*
D13*
X177292000Y-75692000D03*
X172292000Y-75692000D03*
D14*
X167132000Y-79000000D03*
D15*
X177292000Y-79000000D03*
D16*
X196088000Y-87376000D03*
D13*
X185928000Y-87376000D03*
D17*
X127500000Y-59000000D03*
X120000000Y-59000000D03*
D18*
X125476000Y-81788000D03*
D19*
X132976000Y-81788000D03*
D20*
X109728000Y-91440000D03*
D21*
X104648000Y-91440000D03*
X141732000Y-91440000D03*
D20*
X146812000Y-91440000D03*
D12*
X116332000Y-79756000D03*
X113792000Y-77216000D03*
X111252000Y-79756000D03*
D22*
X123952000Y-54500000D03*
D13*
X123952000Y-51000000D03*
D19*
X159004000Y-76200000D03*
X159004000Y-61200000D03*
D22*
X161036000Y-80772000D03*
D13*
X161036000Y-84272000D03*
D17*
X185928000Y-75692000D03*
X195928000Y-75692000D03*
D15*
X121412000Y-66548000D03*
D14*
X111252000Y-66548000D03*
X111252000Y-70104000D03*
D15*
X121412000Y-70104000D03*
X177292000Y-82296000D03*
D14*
X167132000Y-82296000D03*
D13*
X130556000Y-59944000D03*
D16*
X130556000Y-49784000D03*
D13*
X113030000Y-58420000D03*
D16*
X102870000Y-58420000D03*
D13*
X102870000Y-61976000D03*
D16*
X113030000Y-61976000D03*
X111252000Y-73660000D03*
D13*
X121412000Y-73660000D03*
D16*
X170180000Y-95504000D03*
D13*
X170180000Y-85344000D03*
X185928000Y-90424000D03*
D16*
X196088000Y-90424000D03*
X196088000Y-93472000D03*
D13*
X185928000Y-93472000D03*
D16*
X177292000Y-85344000D03*
D13*
X177292000Y-95504000D03*
D16*
X154940000Y-95504000D03*
D13*
X154940000Y-85344000D03*
X173736000Y-85344000D03*
D16*
X173736000Y-95504000D03*
D23*
X128016000Y-67456000D03*
%TA.AperFunction,ComponentPad*%
D24*
G36*
X130857955Y-66557324D02*
G01*
X130884650Y-66561284D01*
X130910828Y-66567841D01*
X130936238Y-66576933D01*
X130960634Y-66588472D01*
X130983782Y-66602346D01*
X131005458Y-66618422D01*
X131025454Y-66636546D01*
X131043578Y-66656542D01*
X131059654Y-66678218D01*
X131073528Y-66701366D01*
X131085067Y-66725762D01*
X131094159Y-66751172D01*
X131100716Y-66777350D01*
X131104676Y-66804045D01*
X131106000Y-66831000D01*
X131106000Y-68081000D01*
X131104676Y-68107955D01*
X131100716Y-68134650D01*
X131094159Y-68160828D01*
X131085067Y-68186238D01*
X131073528Y-68210634D01*
X131059654Y-68233782D01*
X131043578Y-68255458D01*
X131025454Y-68275454D01*
X131005458Y-68293578D01*
X130983782Y-68309654D01*
X130960634Y-68323528D01*
X130936238Y-68335067D01*
X130910828Y-68344159D01*
X130884650Y-68350716D01*
X130857955Y-68354676D01*
X130831000Y-68356000D01*
X130281000Y-68356000D01*
X130254045Y-68354676D01*
X130227350Y-68350716D01*
X130201172Y-68344159D01*
X130175762Y-68335067D01*
X130151366Y-68323528D01*
X130128218Y-68309654D01*
X130106542Y-68293578D01*
X130086546Y-68275454D01*
X130068422Y-68255458D01*
X130052346Y-68233782D01*
X130038472Y-68210634D01*
X130026933Y-68186238D01*
X130017841Y-68160828D01*
X130011284Y-68134650D01*
X130007324Y-68107955D01*
X130006000Y-68081000D01*
X130006000Y-66831000D01*
X130007324Y-66804045D01*
X130011284Y-66777350D01*
X130017841Y-66751172D01*
X130026933Y-66725762D01*
X130038472Y-66701366D01*
X130052346Y-66678218D01*
X130068422Y-66656542D01*
X130086546Y-66636546D01*
X130106542Y-66618422D01*
X130128218Y-66602346D01*
X130151366Y-66588472D01*
X130175762Y-66576933D01*
X130201172Y-66567841D01*
X130227350Y-66561284D01*
X130254045Y-66557324D01*
X130281000Y-66556000D01*
X130831000Y-66556000D01*
X130857955Y-66557324D01*
G37*
%TD.AperFunction*%
%TA.AperFunction,ComponentPad*%
G36*
X129587955Y-64487324D02*
G01*
X129614650Y-64491284D01*
X129640828Y-64497841D01*
X129666238Y-64506933D01*
X129690634Y-64518472D01*
X129713782Y-64532346D01*
X129735458Y-64548422D01*
X129755454Y-64566546D01*
X129773578Y-64586542D01*
X129789654Y-64608218D01*
X129803528Y-64631366D01*
X129815067Y-64655762D01*
X129824159Y-64681172D01*
X129830716Y-64707350D01*
X129834676Y-64734045D01*
X129836000Y-64761000D01*
X129836000Y-66011000D01*
X129834676Y-66037955D01*
X129830716Y-66064650D01*
X129824159Y-66090828D01*
X129815067Y-66116238D01*
X129803528Y-66140634D01*
X129789654Y-66163782D01*
X129773578Y-66185458D01*
X129755454Y-66205454D01*
X129735458Y-66223578D01*
X129713782Y-66239654D01*
X129690634Y-66253528D01*
X129666238Y-66265067D01*
X129640828Y-66274159D01*
X129614650Y-66280716D01*
X129587955Y-66284676D01*
X129561000Y-66286000D01*
X129011000Y-66286000D01*
X128984045Y-66284676D01*
X128957350Y-66280716D01*
X128931172Y-66274159D01*
X128905762Y-66265067D01*
X128881366Y-66253528D01*
X128858218Y-66239654D01*
X128836542Y-66223578D01*
X128816546Y-66205454D01*
X128798422Y-66185458D01*
X128782346Y-66163782D01*
X128768472Y-66140634D01*
X128756933Y-66116238D01*
X128747841Y-66090828D01*
X128741284Y-66064650D01*
X128737324Y-66037955D01*
X128736000Y-66011000D01*
X128736000Y-64761000D01*
X128737324Y-64734045D01*
X128741284Y-64707350D01*
X128747841Y-64681172D01*
X128756933Y-64655762D01*
X128768472Y-64631366D01*
X128782346Y-64608218D01*
X128798422Y-64586542D01*
X128816546Y-64566546D01*
X128836542Y-64548422D01*
X128858218Y-64532346D01*
X128881366Y-64518472D01*
X128905762Y-64506933D01*
X128931172Y-64497841D01*
X128957350Y-64491284D01*
X128984045Y-64487324D01*
X129011000Y-64486000D01*
X129561000Y-64486000D01*
X129587955Y-64487324D01*
G37*
%TD.AperFunction*%
%TA.AperFunction,ComponentPad*%
G36*
X183435955Y-81543324D02*
G01*
X183462650Y-81547284D01*
X183488828Y-81553841D01*
X183514238Y-81562933D01*
X183538634Y-81574472D01*
X183561782Y-81588346D01*
X183583458Y-81604422D01*
X183603454Y-81622546D01*
X183621578Y-81642542D01*
X183637654Y-81664218D01*
X183651528Y-81687366D01*
X183663067Y-81711762D01*
X183672159Y-81737172D01*
X183678716Y-81763350D01*
X183682676Y-81790045D01*
X183684000Y-81817000D01*
X183684000Y-83067000D01*
X183682676Y-83093955D01*
X183678716Y-83120650D01*
X183672159Y-83146828D01*
X183663067Y-83172238D01*
X183651528Y-83196634D01*
X183637654Y-83219782D01*
X183621578Y-83241458D01*
X183603454Y-83261454D01*
X183583458Y-83279578D01*
X183561782Y-83295654D01*
X183538634Y-83309528D01*
X183514238Y-83321067D01*
X183488828Y-83330159D01*
X183462650Y-83336716D01*
X183435955Y-83340676D01*
X183409000Y-83342000D01*
X182859000Y-83342000D01*
X182832045Y-83340676D01*
X182805350Y-83336716D01*
X182779172Y-83330159D01*
X182753762Y-83321067D01*
X182729366Y-83309528D01*
X182706218Y-83295654D01*
X182684542Y-83279578D01*
X182664546Y-83261454D01*
X182646422Y-83241458D01*
X182630346Y-83219782D01*
X182616472Y-83196634D01*
X182604933Y-83172238D01*
X182595841Y-83146828D01*
X182589284Y-83120650D01*
X182585324Y-83093955D01*
X182584000Y-83067000D01*
X182584000Y-81817000D01*
X182585324Y-81790045D01*
X182589284Y-81763350D01*
X182595841Y-81737172D01*
X182604933Y-81711762D01*
X182616472Y-81687366D01*
X182630346Y-81664218D01*
X182646422Y-81642542D01*
X182664546Y-81622546D01*
X182684542Y-81604422D01*
X182706218Y-81588346D01*
X182729366Y-81574472D01*
X182753762Y-81562933D01*
X182779172Y-81553841D01*
X182805350Y-81547284D01*
X182832045Y-81543324D01*
X182859000Y-81542000D01*
X183409000Y-81542000D01*
X183435955Y-81543324D01*
G37*
%TD.AperFunction*%
%TA.AperFunction,ComponentPad*%
G36*
X182165955Y-79473324D02*
G01*
X182192650Y-79477284D01*
X182218828Y-79483841D01*
X182244238Y-79492933D01*
X182268634Y-79504472D01*
X182291782Y-79518346D01*
X182313458Y-79534422D01*
X182333454Y-79552546D01*
X182351578Y-79572542D01*
X182367654Y-79594218D01*
X182381528Y-79617366D01*
X182393067Y-79641762D01*
X182402159Y-79667172D01*
X182408716Y-79693350D01*
X182412676Y-79720045D01*
X182414000Y-79747000D01*
X182414000Y-80997000D01*
X182412676Y-81023955D01*
X182408716Y-81050650D01*
X182402159Y-81076828D01*
X182393067Y-81102238D01*
X182381528Y-81126634D01*
X182367654Y-81149782D01*
X182351578Y-81171458D01*
X182333454Y-81191454D01*
X182313458Y-81209578D01*
X182291782Y-81225654D01*
X182268634Y-81239528D01*
X182244238Y-81251067D01*
X182218828Y-81260159D01*
X182192650Y-81266716D01*
X182165955Y-81270676D01*
X182139000Y-81272000D01*
X181589000Y-81272000D01*
X181562045Y-81270676D01*
X181535350Y-81266716D01*
X181509172Y-81260159D01*
X181483762Y-81251067D01*
X181459366Y-81239528D01*
X181436218Y-81225654D01*
X181414542Y-81209578D01*
X181394546Y-81191454D01*
X181376422Y-81171458D01*
X181360346Y-81149782D01*
X181346472Y-81126634D01*
X181334933Y-81102238D01*
X181325841Y-81076828D01*
X181319284Y-81050650D01*
X181315324Y-81023955D01*
X181314000Y-80997000D01*
X181314000Y-79747000D01*
X181315324Y-79720045D01*
X181319284Y-79693350D01*
X181325841Y-79667172D01*
X181334933Y-79641762D01*
X181346472Y-79617366D01*
X181360346Y-79594218D01*
X181376422Y-79572542D01*
X181394546Y-79552546D01*
X181414542Y-79534422D01*
X181436218Y-79518346D01*
X181459366Y-79504472D01*
X181483762Y-79492933D01*
X181509172Y-79483841D01*
X181535350Y-79477284D01*
X181562045Y-79473324D01*
X181589000Y-79472000D01*
X182139000Y-79472000D01*
X182165955Y-79473324D01*
G37*
%TD.AperFunction*%
D23*
X184404000Y-80372000D03*
D25*
X117000000Y-62500000D03*
X125476000Y-71000000D03*
X181864000Y-93472000D03*
X118364000Y-88392000D03*
X154500000Y-81280000D03*
D26*
X193548000Y-59436000D03*
D27*
X193548000Y-54356000D03*
D19*
X136144000Y-93980000D03*
D28*
X115824000Y-93980000D03*
D29*
X159004000Y-49784000D03*
X159004000Y-52324000D03*
D30*
X159004000Y-54864000D03*
X164084000Y-54864000D03*
D29*
X164084000Y-52324000D03*
X164084000Y-49784000D03*
D30*
X102616000Y-66548000D03*
X196088000Y-82804000D03*
D31*
X127500000Y-52840000D02*
X130556000Y-49784000D01*
X127500000Y-59000000D02*
X127500000Y-52840000D01*
X102616000Y-66548000D02*
X102616000Y-66384000D01*
X119000001Y-58000001D02*
X120000000Y-59000000D01*
X117500000Y-56500000D02*
X119000001Y-58000001D01*
X111500000Y-56500000D02*
X117500000Y-56500000D01*
X102616000Y-65384000D02*
X111500000Y-56500000D01*
X102616000Y-66548000D02*
X102616000Y-65384000D01*
X122952000Y-52000000D02*
X123952000Y-51000000D01*
X107024000Y-52000000D02*
X122952000Y-52000000D01*
X104808000Y-49784000D02*
X107024000Y-52000000D01*
X123952000Y-60960000D02*
X123952000Y-54500000D01*
X111252000Y-73660000D02*
X123952000Y-60960000D01*
X154500000Y-82000000D02*
X154500000Y-81280000D01*
X155000000Y-82500000D02*
X154500000Y-82000000D01*
X155000000Y-85284000D02*
X155000000Y-82500000D01*
X154940000Y-85344000D02*
X155000000Y-85284000D01*
X160808000Y-81000000D02*
X161036000Y-80772000D01*
X154780000Y-81000000D02*
X160808000Y-81000000D01*
X154500000Y-81280000D02*
X154780000Y-81000000D01*
X195928000Y-82644000D02*
X196088000Y-82804000D01*
X195928000Y-75692000D02*
X195928000Y-82644000D01*
X186696000Y-82804000D02*
X196088000Y-82804000D01*
X182124000Y-87376000D02*
X186696000Y-82804000D01*
X175768000Y-87376000D02*
X182124000Y-87376000D01*
X173736000Y-85344000D02*
X175768000Y-87376000D01*
X175591999Y-80595999D02*
X177292000Y-82296000D01*
X175591999Y-77392001D02*
X175591999Y-80595999D01*
X177292000Y-75692000D02*
X175591999Y-77392001D01*
X177292000Y-85344000D02*
X181864000Y-80772000D01*
X181864000Y-79756000D02*
X185928000Y-75692000D01*
X181864000Y-80772000D02*
X181864000Y-79756000D01*
X160701056Y-76200000D02*
X164084000Y-79582944D01*
X159004000Y-76200000D02*
X160701056Y-76200000D01*
X164084000Y-79582944D02*
X164084000Y-83820000D01*
X173736000Y-93472000D02*
X181864000Y-93472000D01*
X164084000Y-83820000D02*
X173736000Y-93472000D01*
X159004000Y-49784000D02*
X164084000Y-49784000D01*
X160020000Y-85288000D02*
X161036000Y-84272000D01*
X160020000Y-90932000D02*
X160020000Y-85288000D01*
X160701056Y-61200000D02*
X159004000Y-61200000D01*
X165634001Y-56267055D02*
X160701056Y-61200000D01*
X165634001Y-53453999D02*
X165634001Y-56267055D01*
X165354001Y-53173999D02*
X165634001Y-53453999D01*
X164933999Y-53173999D02*
X165354001Y-53173999D01*
X164084000Y-52324000D02*
X164933999Y-53173999D01*
X170180000Y-85344000D02*
X170180000Y-65812000D01*
X170180000Y-65812000D02*
X171222000Y-64770000D01*
X157801919Y-52324000D02*
X159004000Y-52324000D01*
X157103999Y-53021920D02*
X157801919Y-52324000D01*
X159761998Y-64770000D02*
X157103999Y-62112001D01*
X157103999Y-62112001D02*
X157103999Y-53021920D01*
X171222000Y-64770000D02*
X159761998Y-64770000D01*
D32*
G36*
X198642001Y-96534000D02*
G01*
X178680821Y-96534000D01*
X178822447Y-96322041D01*
X178952632Y-96007747D01*
X179019000Y-95674095D01*
X179019000Y-95333905D01*
X178952632Y-95000253D01*
X178910692Y-94899000D01*
X180018832Y-94899000D01*
X180056501Y-94955376D01*
X180380624Y-95279499D01*
X180761752Y-95534160D01*
X181185239Y-95709574D01*
X181634811Y-95799000D01*
X182093189Y-95799000D01*
X182542761Y-95709574D01*
X182966248Y-95534160D01*
X183347376Y-95279499D01*
X183671499Y-94955376D01*
X183926160Y-94574248D01*
X184101574Y-94150761D01*
X184191000Y-93701189D01*
X184191000Y-93242811D01*
X184101574Y-92793239D01*
X183926160Y-92369752D01*
X183671499Y-91988624D01*
X183347376Y-91664501D01*
X182966248Y-91409840D01*
X182542761Y-91234426D01*
X182093189Y-91145000D01*
X181634811Y-91145000D01*
X181185239Y-91234426D01*
X180761752Y-91409840D01*
X180380624Y-91664501D01*
X180056501Y-91988624D01*
X180018832Y-92045000D01*
X174327082Y-92045000D01*
X166509567Y-84227485D01*
X168132000Y-84227485D01*
X168313724Y-84209587D01*
X168488464Y-84156580D01*
X168649505Y-84070501D01*
X168753000Y-83985565D01*
X168753000Y-84371140D01*
X168649553Y-84525959D01*
X168519368Y-84840253D01*
X168453000Y-85173905D01*
X168453000Y-85514095D01*
X168519368Y-85847747D01*
X168649553Y-86162041D01*
X168838552Y-86444898D01*
X169079102Y-86685448D01*
X169361959Y-86874447D01*
X169676253Y-87004632D01*
X170009905Y-87071000D01*
X170350095Y-87071000D01*
X170683747Y-87004632D01*
X170998041Y-86874447D01*
X171280898Y-86685448D01*
X171521448Y-86444898D01*
X171710447Y-86162041D01*
X171840632Y-85847747D01*
X171907000Y-85514095D01*
X171907000Y-85173905D01*
X172009000Y-85173905D01*
X172009000Y-85514095D01*
X172075368Y-85847747D01*
X172205553Y-86162041D01*
X172394552Y-86444898D01*
X172635102Y-86685448D01*
X172917959Y-86874447D01*
X173232253Y-87004632D01*
X173414876Y-87040958D01*
X174709395Y-88335478D01*
X174754077Y-88389923D01*
X174808522Y-88434605D01*
X174808525Y-88434608D01*
X174860056Y-88476898D01*
X174971366Y-88568248D01*
X175219269Y-88700755D01*
X175488259Y-88782352D01*
X175697902Y-88803000D01*
X175697912Y-88803000D01*
X175768000Y-88809903D01*
X175838088Y-88803000D01*
X182053912Y-88803000D01*
X182124000Y-88809903D01*
X182194088Y-88803000D01*
X182194098Y-88803000D01*
X182403741Y-88782352D01*
X182672731Y-88700755D01*
X182920634Y-88568248D01*
X183137923Y-88389923D01*
X183182610Y-88335472D01*
X184201000Y-87317082D01*
X184201000Y-87546095D01*
X184267368Y-87879747D01*
X184397553Y-88194041D01*
X184586552Y-88476898D01*
X184827102Y-88717448D01*
X185100310Y-88900000D01*
X184827102Y-89082552D01*
X184586552Y-89323102D01*
X184397553Y-89605959D01*
X184267368Y-89920253D01*
X184201000Y-90253905D01*
X184201000Y-90594095D01*
X184267368Y-90927747D01*
X184397553Y-91242041D01*
X184586552Y-91524898D01*
X184827102Y-91765448D01*
X185100310Y-91948000D01*
X184827102Y-92130552D01*
X184586552Y-92371102D01*
X184397553Y-92653959D01*
X184267368Y-92968253D01*
X184201000Y-93301905D01*
X184201000Y-93642095D01*
X184267368Y-93975747D01*
X184397553Y-94290041D01*
X184586552Y-94572898D01*
X184827102Y-94813448D01*
X185109959Y-95002447D01*
X185424253Y-95132632D01*
X185757905Y-95199000D01*
X186098095Y-95199000D01*
X186431747Y-95132632D01*
X186746041Y-95002447D01*
X187028898Y-94813448D01*
X187269448Y-94572898D01*
X187458447Y-94290041D01*
X187588632Y-93975747D01*
X187619405Y-93821039D01*
X194696096Y-93821039D01*
X194736754Y-93955087D01*
X194856963Y-94209420D01*
X195024481Y-94435414D01*
X195232869Y-94624385D01*
X195474119Y-94769070D01*
X195738960Y-94863909D01*
X195961000Y-94742624D01*
X195961000Y-93599000D01*
X196215000Y-93599000D01*
X196215000Y-94742624D01*
X196437040Y-94863909D01*
X196701881Y-94769070D01*
X196943131Y-94624385D01*
X197151519Y-94435414D01*
X197319037Y-94209420D01*
X197439246Y-93955087D01*
X197479904Y-93821039D01*
X197357915Y-93599000D01*
X196215000Y-93599000D01*
X195961000Y-93599000D01*
X194818085Y-93599000D01*
X194696096Y-93821039D01*
X187619405Y-93821039D01*
X187655000Y-93642095D01*
X187655000Y-93301905D01*
X187588632Y-92968253D01*
X187458447Y-92653959D01*
X187269448Y-92371102D01*
X187028898Y-92130552D01*
X186755690Y-91948000D01*
X187028898Y-91765448D01*
X187269448Y-91524898D01*
X187458447Y-91242041D01*
X187588632Y-90927747D01*
X187655000Y-90594095D01*
X187655000Y-90253905D01*
X187588632Y-89920253D01*
X187458447Y-89605959D01*
X187269448Y-89323102D01*
X187028898Y-89082552D01*
X186755690Y-88900000D01*
X187028898Y-88717448D01*
X187269448Y-88476898D01*
X187458447Y-88194041D01*
X187588632Y-87879747D01*
X187655000Y-87546095D01*
X187655000Y-87205905D01*
X194361000Y-87205905D01*
X194361000Y-87546095D01*
X194427368Y-87879747D01*
X194557553Y-88194041D01*
X194746552Y-88476898D01*
X194987102Y-88717448D01*
X195260310Y-88900000D01*
X194987102Y-89082552D01*
X194746552Y-89323102D01*
X194557553Y-89605959D01*
X194427368Y-89920253D01*
X194361000Y-90253905D01*
X194361000Y-90594095D01*
X194427368Y-90927747D01*
X194557553Y-91242041D01*
X194746552Y-91524898D01*
X194987102Y-91765448D01*
X195269959Y-91954447D01*
X195584253Y-92084632D01*
X195675560Y-92102794D01*
X195474119Y-92174930D01*
X195232869Y-92319615D01*
X195024481Y-92508586D01*
X194856963Y-92734580D01*
X194736754Y-92988913D01*
X194696096Y-93122961D01*
X194818085Y-93345000D01*
X195961000Y-93345000D01*
X195961000Y-93325000D01*
X196215000Y-93325000D01*
X196215000Y-93345000D01*
X197357915Y-93345000D01*
X197479904Y-93122961D01*
X197439246Y-92988913D01*
X197319037Y-92734580D01*
X197151519Y-92508586D01*
X196943131Y-92319615D01*
X196701881Y-92174930D01*
X196500440Y-92102794D01*
X196591747Y-92084632D01*
X196906041Y-91954447D01*
X197188898Y-91765448D01*
X197429448Y-91524898D01*
X197618447Y-91242041D01*
X197748632Y-90927747D01*
X197815000Y-90594095D01*
X197815000Y-90253905D01*
X197748632Y-89920253D01*
X197618447Y-89605959D01*
X197429448Y-89323102D01*
X197188898Y-89082552D01*
X196915690Y-88900000D01*
X197188898Y-88717448D01*
X197429448Y-88476898D01*
X197618447Y-88194041D01*
X197748632Y-87879747D01*
X197815000Y-87546095D01*
X197815000Y-87205905D01*
X197748632Y-86872253D01*
X197618447Y-86557959D01*
X197429448Y-86275102D01*
X197188898Y-86034552D01*
X196906041Y-85845553D01*
X196591747Y-85715368D01*
X196258095Y-85649000D01*
X195917905Y-85649000D01*
X195584253Y-85715368D01*
X195269959Y-85845553D01*
X194987102Y-86034552D01*
X194746552Y-86275102D01*
X194557553Y-86557959D01*
X194427368Y-86872253D01*
X194361000Y-87205905D01*
X187655000Y-87205905D01*
X187588632Y-86872253D01*
X187458447Y-86557959D01*
X187269448Y-86275102D01*
X187028898Y-86034552D01*
X186746041Y-85845553D01*
X186431747Y-85715368D01*
X186098095Y-85649000D01*
X185869082Y-85649000D01*
X187287082Y-84231000D01*
X194512325Y-84231000D01*
X194579341Y-84312659D01*
X194720495Y-84428501D01*
X194881536Y-84514580D01*
X195056276Y-84567587D01*
X195238000Y-84585485D01*
X196938000Y-84585485D01*
X197119724Y-84567587D01*
X197294464Y-84514580D01*
X197455505Y-84428501D01*
X197596659Y-84312659D01*
X197712501Y-84171505D01*
X197798580Y-84010464D01*
X197851587Y-83835724D01*
X197869485Y-83654000D01*
X197869485Y-81954000D01*
X197851587Y-81772276D01*
X197798580Y-81597536D01*
X197712501Y-81436495D01*
X197596659Y-81295341D01*
X197455505Y-81179499D01*
X197355000Y-81125777D01*
X197355000Y-76990190D01*
X197424799Y-76920391D01*
X197635685Y-76604777D01*
X197780947Y-76254085D01*
X197855000Y-75881793D01*
X197855000Y-75502207D01*
X197780947Y-75129915D01*
X197635685Y-74779223D01*
X197424799Y-74463609D01*
X197156391Y-74195201D01*
X196840777Y-73984315D01*
X196490085Y-73839053D01*
X196117793Y-73765000D01*
X195738207Y-73765000D01*
X195365915Y-73839053D01*
X195015223Y-73984315D01*
X194699609Y-74195201D01*
X194431201Y-74463609D01*
X194220315Y-74779223D01*
X194075053Y-75129915D01*
X194001000Y-75502207D01*
X194001000Y-75881793D01*
X194075053Y-76254085D01*
X194220315Y-76604777D01*
X194431201Y-76920391D01*
X194501000Y-76990190D01*
X194501001Y-81377000D01*
X186766087Y-81377000D01*
X186695999Y-81370097D01*
X186625911Y-81377000D01*
X186625902Y-81377000D01*
X186416259Y-81397648D01*
X186147269Y-81479245D01*
X185899366Y-81611752D01*
X185764236Y-81722651D01*
X185814580Y-81628464D01*
X185867587Y-81453724D01*
X185885485Y-81272000D01*
X185885485Y-79472000D01*
X185867587Y-79290276D01*
X185814580Y-79115536D01*
X185728501Y-78954495D01*
X185612659Y-78813341D01*
X185471505Y-78697499D01*
X185310464Y-78611420D01*
X185135724Y-78558413D01*
X185084695Y-78553387D01*
X186019083Y-77619000D01*
X186117793Y-77619000D01*
X186490085Y-77544947D01*
X186840777Y-77399685D01*
X187156391Y-77188799D01*
X187424799Y-76920391D01*
X187635685Y-76604777D01*
X187780947Y-76254085D01*
X187855000Y-75881793D01*
X187855000Y-75502207D01*
X187780947Y-75129915D01*
X187635685Y-74779223D01*
X187424799Y-74463609D01*
X187156391Y-74195201D01*
X186840777Y-73984315D01*
X186490085Y-73839053D01*
X186117793Y-73765000D01*
X185738207Y-73765000D01*
X185365915Y-73839053D01*
X185015223Y-73984315D01*
X184699609Y-74195201D01*
X184431201Y-74463609D01*
X184220315Y-74779223D01*
X184075053Y-75129915D01*
X184001000Y-75502207D01*
X184001000Y-75600917D01*
X180904523Y-78697395D01*
X180850078Y-78742077D01*
X180805395Y-78796523D01*
X180805392Y-78796526D01*
X180781282Y-78825904D01*
X180671752Y-78959366D01*
X180652334Y-78995695D01*
X180585844Y-79076713D01*
X180474353Y-79285298D01*
X180405697Y-79511626D01*
X180382515Y-79747000D01*
X180382515Y-80235403D01*
X179068518Y-81549400D01*
X178999685Y-81383223D01*
X178788799Y-81067609D01*
X178520391Y-80799201D01*
X178294102Y-80648000D01*
X178520391Y-80496799D01*
X178788799Y-80228391D01*
X178999685Y-79912777D01*
X179144947Y-79562085D01*
X179219000Y-79189793D01*
X179219000Y-78810207D01*
X179144947Y-78437915D01*
X178999685Y-78087223D01*
X178788799Y-77771609D01*
X178520391Y-77503201D01*
X178204777Y-77292315D01*
X178073071Y-77237760D01*
X178110041Y-77222447D01*
X178392898Y-77033448D01*
X178633448Y-76792898D01*
X178822447Y-76510041D01*
X178952632Y-76195747D01*
X179019000Y-75862095D01*
X179019000Y-75521905D01*
X178952632Y-75188253D01*
X178822447Y-74873959D01*
X178633448Y-74591102D01*
X178392898Y-74350552D01*
X178110041Y-74161553D01*
X177795747Y-74031368D01*
X177462095Y-73965000D01*
X177121905Y-73965000D01*
X176788253Y-74031368D01*
X176473959Y-74161553D01*
X176191102Y-74350552D01*
X175950552Y-74591102D01*
X175761553Y-74873959D01*
X175631368Y-75188253D01*
X175595042Y-75370876D01*
X174632522Y-76333396D01*
X174578076Y-76378079D01*
X174533394Y-76432524D01*
X174533391Y-76432527D01*
X174469777Y-76510041D01*
X174399751Y-76595368D01*
X174267244Y-76843271D01*
X174185647Y-77112261D01*
X174164999Y-77321904D01*
X174164999Y-77321913D01*
X174158096Y-77392001D01*
X174164999Y-77462089D01*
X174165000Y-80525902D01*
X174158096Y-80595999D01*
X174165000Y-80666097D01*
X174171419Y-80731269D01*
X174185648Y-80875740D01*
X174267245Y-81144730D01*
X174399752Y-81392633D01*
X174533391Y-81555473D01*
X174533395Y-81555477D01*
X174578077Y-81609922D01*
X174632522Y-81654604D01*
X175365000Y-82387082D01*
X175365000Y-82485793D01*
X175439053Y-82858085D01*
X175584315Y-83208777D01*
X175795201Y-83524391D01*
X176063609Y-83792799D01*
X176284315Y-83940269D01*
X176191102Y-84002552D01*
X175950552Y-84243102D01*
X175761553Y-84525959D01*
X175631368Y-84840253D01*
X175568150Y-85158068D01*
X175432958Y-85022876D01*
X175396632Y-84840253D01*
X175266447Y-84525959D01*
X175077448Y-84243102D01*
X174836898Y-84002552D01*
X174554041Y-83813553D01*
X174239747Y-83683368D01*
X173906095Y-83617000D01*
X173565905Y-83617000D01*
X173232253Y-83683368D01*
X172917959Y-83813553D01*
X172635102Y-84002552D01*
X172394552Y-84243102D01*
X172205553Y-84525959D01*
X172075368Y-84840253D01*
X172009000Y-85173905D01*
X171907000Y-85173905D01*
X171840632Y-84840253D01*
X171710447Y-84525959D01*
X171607000Y-84371140D01*
X171607000Y-76955412D01*
X171805996Y-77049571D01*
X172080184Y-77118300D01*
X172362512Y-77132217D01*
X172642130Y-77090787D01*
X172908292Y-76995603D01*
X173033514Y-76928671D01*
X173105097Y-76684702D01*
X172292000Y-75871605D01*
X172277858Y-75885748D01*
X172098253Y-75706143D01*
X172112395Y-75692000D01*
X172471605Y-75692000D01*
X173284702Y-76505097D01*
X173528671Y-76433514D01*
X173649571Y-76178004D01*
X173718300Y-75903816D01*
X173732217Y-75621488D01*
X173690787Y-75341870D01*
X173595603Y-75075708D01*
X173528671Y-74950486D01*
X173284702Y-74878903D01*
X172471605Y-75692000D01*
X172112395Y-75692000D01*
X172098253Y-75677858D01*
X172277858Y-75498253D01*
X172292000Y-75512395D01*
X173105097Y-74699298D01*
X173033514Y-74455329D01*
X172778004Y-74334429D01*
X172503816Y-74265700D01*
X172221488Y-74251783D01*
X171941870Y-74293213D01*
X171675708Y-74388397D01*
X171607000Y-74425122D01*
X171607000Y-66697000D01*
X171816658Y-66697000D01*
X172099758Y-66669117D01*
X172462999Y-66558929D01*
X172797763Y-66379994D01*
X173091187Y-66139187D01*
X173331994Y-65845763D01*
X173510929Y-65510999D01*
X173621117Y-65147758D01*
X173658323Y-64770000D01*
X185015677Y-64770000D01*
X185052883Y-65147758D01*
X185163071Y-65510999D01*
X185342006Y-65845763D01*
X185582813Y-66139187D01*
X185876237Y-66379994D01*
X186211001Y-66558929D01*
X186574242Y-66669117D01*
X186857342Y-66697000D01*
X188046658Y-66697000D01*
X188329758Y-66669117D01*
X188692999Y-66558929D01*
X189027763Y-66379994D01*
X189321187Y-66139187D01*
X189561994Y-65845763D01*
X189740929Y-65510999D01*
X189851117Y-65147758D01*
X189888323Y-64770000D01*
X189851117Y-64392242D01*
X189740929Y-64029001D01*
X189561994Y-63694237D01*
X189321187Y-63400813D01*
X189027763Y-63160006D01*
X188692999Y-62981071D01*
X188329758Y-62870883D01*
X188046658Y-62843000D01*
X186857342Y-62843000D01*
X186574242Y-62870883D01*
X186211001Y-62981071D01*
X185876237Y-63160006D01*
X185582813Y-63400813D01*
X185342006Y-63694237D01*
X185163071Y-64029001D01*
X185052883Y-64392242D01*
X185015677Y-64770000D01*
X173658323Y-64770000D01*
X173621117Y-64392242D01*
X173510929Y-64029001D01*
X173331994Y-63694237D01*
X173091187Y-63400813D01*
X172797763Y-63160006D01*
X172462999Y-62981071D01*
X172099758Y-62870883D01*
X171816658Y-62843000D01*
X170627342Y-62843000D01*
X170344242Y-62870883D01*
X169981001Y-62981071D01*
X169646237Y-63160006D01*
X169423258Y-63343000D01*
X160353080Y-63343000D01*
X160061561Y-63051481D01*
X160359884Y-62852149D01*
X160585033Y-62627000D01*
X160630968Y-62627000D01*
X160701056Y-62633903D01*
X160771144Y-62627000D01*
X160771154Y-62627000D01*
X160980797Y-62606352D01*
X161249787Y-62524755D01*
X161497690Y-62392248D01*
X161714979Y-62213923D01*
X161759665Y-62159473D01*
X164483138Y-59436000D01*
X190812160Y-59436000D01*
X190847435Y-59794155D01*
X190951905Y-60138546D01*
X191121555Y-60455938D01*
X191349865Y-60734135D01*
X191628062Y-60962445D01*
X191945454Y-61132095D01*
X192289845Y-61236565D01*
X192558245Y-61263000D01*
X194537755Y-61263000D01*
X194806155Y-61236565D01*
X195150546Y-61132095D01*
X195467938Y-60962445D01*
X195746135Y-60734135D01*
X195974445Y-60455938D01*
X196144095Y-60138546D01*
X196248565Y-59794155D01*
X196283840Y-59436000D01*
X196248565Y-59077845D01*
X196144095Y-58733454D01*
X195974445Y-58416062D01*
X195746135Y-58137865D01*
X195467938Y-57909555D01*
X195150546Y-57739905D01*
X194806155Y-57635435D01*
X194537755Y-57609000D01*
X192558245Y-57609000D01*
X192289845Y-57635435D01*
X191945454Y-57739905D01*
X191628062Y-57909555D01*
X191349865Y-58137865D01*
X191121555Y-58416062D01*
X190951905Y-58733454D01*
X190847435Y-59077845D01*
X190812160Y-59436000D01*
X164483138Y-59436000D01*
X166593479Y-57325660D01*
X166647924Y-57280978D01*
X166692606Y-57226533D01*
X166692609Y-57226530D01*
X166814051Y-57078552D01*
X166826249Y-57063689D01*
X166958756Y-56815786D01*
X167040353Y-56546796D01*
X167061001Y-56337153D01*
X167061001Y-56337145D01*
X167067904Y-56267055D01*
X167061001Y-56196965D01*
X167061001Y-53524089D01*
X167067904Y-53453999D01*
X167061001Y-53383909D01*
X167061001Y-53383901D01*
X167040353Y-53174258D01*
X167040275Y-53173999D01*
X167012523Y-53082515D01*
X166958756Y-52905268D01*
X166826249Y-52657365D01*
X166656424Y-52450434D01*
X169131876Y-52450434D01*
X169162856Y-52578355D01*
X169291990Y-52872761D01*
X169476078Y-53136317D01*
X169708046Y-53358895D01*
X169978980Y-53531942D01*
X170278468Y-53648807D01*
X170595000Y-53705000D01*
X171095000Y-53705000D01*
X171095000Y-52197000D01*
X171349000Y-52197000D01*
X171349000Y-53705000D01*
X171849000Y-53705000D01*
X172165532Y-53648807D01*
X172465020Y-53531942D01*
X172735954Y-53358895D01*
X172967922Y-53136317D01*
X173152010Y-52872761D01*
X173281144Y-52578355D01*
X173312124Y-52450434D01*
X173192777Y-52197000D01*
X171349000Y-52197000D01*
X171095000Y-52197000D01*
X169251223Y-52197000D01*
X169131876Y-52450434D01*
X166656424Y-52450434D01*
X166647923Y-52440076D01*
X166593478Y-52395394D01*
X166412609Y-52214525D01*
X166367924Y-52160076D01*
X166258167Y-52070000D01*
X185015677Y-52070000D01*
X185052883Y-52447758D01*
X185163071Y-52810999D01*
X185342006Y-53145763D01*
X185582813Y-53439187D01*
X185876237Y-53679994D01*
X186211001Y-53858929D01*
X186574242Y-53969117D01*
X186857342Y-53997000D01*
X188046658Y-53997000D01*
X188329758Y-53969117D01*
X188692999Y-53858929D01*
X189027763Y-53679994D01*
X189300700Y-53456000D01*
X190816515Y-53456000D01*
X190816515Y-55256000D01*
X190834413Y-55437724D01*
X190887420Y-55612464D01*
X190973499Y-55773505D01*
X191089341Y-55914659D01*
X191230495Y-56030501D01*
X191391536Y-56116580D01*
X191566276Y-56169587D01*
X191748000Y-56187485D01*
X195348000Y-56187485D01*
X195529724Y-56169587D01*
X195704464Y-56116580D01*
X195865505Y-56030501D01*
X196006659Y-55914659D01*
X196122501Y-55773505D01*
X196208580Y-55612464D01*
X196261587Y-55437724D01*
X196279485Y-55256000D01*
X196279485Y-53456000D01*
X196261587Y-53274276D01*
X196208580Y-53099536D01*
X196122501Y-52938495D01*
X196006659Y-52797341D01*
X195865505Y-52681499D01*
X195704464Y-52595420D01*
X195529724Y-52542413D01*
X195348000Y-52524515D01*
X191748000Y-52524515D01*
X191566276Y-52542413D01*
X191391536Y-52595420D01*
X191230495Y-52681499D01*
X191089341Y-52797341D01*
X190973499Y-52938495D01*
X190887420Y-53099536D01*
X190834413Y-53274276D01*
X190816515Y-53456000D01*
X189300700Y-53456000D01*
X189321187Y-53439187D01*
X189561994Y-53145763D01*
X189740929Y-52810999D01*
X189851117Y-52447758D01*
X189888323Y-52070000D01*
X189851117Y-51692242D01*
X189740929Y-51329001D01*
X189561994Y-50994237D01*
X189321187Y-50700813D01*
X189027763Y-50460006D01*
X188692999Y-50281071D01*
X188329758Y-50170883D01*
X188046658Y-50143000D01*
X186857342Y-50143000D01*
X186574242Y-50170883D01*
X186211001Y-50281071D01*
X185876237Y-50460006D01*
X185582813Y-50700813D01*
X185342006Y-50994237D01*
X185163071Y-51329001D01*
X185052883Y-51692242D01*
X185015677Y-52070000D01*
X166258167Y-52070000D01*
X166150635Y-51981751D01*
X165902732Y-51849244D01*
X165794871Y-51816525D01*
X165792711Y-51805668D01*
X165744620Y-51689566D01*
X169131876Y-51689566D01*
X169251223Y-51943000D01*
X171095000Y-51943000D01*
X171095000Y-50435000D01*
X171349000Y-50435000D01*
X171349000Y-51943000D01*
X173192777Y-51943000D01*
X173312124Y-51689566D01*
X173281144Y-51561645D01*
X173152010Y-51267239D01*
X172967922Y-51003683D01*
X172735954Y-50781105D01*
X172465020Y-50608058D01*
X172165532Y-50491193D01*
X171849000Y-50435000D01*
X171349000Y-50435000D01*
X171095000Y-50435000D01*
X170595000Y-50435000D01*
X170278468Y-50491193D01*
X169978980Y-50608058D01*
X169708046Y-50781105D01*
X169476078Y-51003683D01*
X169291990Y-51267239D01*
X169162856Y-51561645D01*
X169131876Y-51689566D01*
X165744620Y-51689566D01*
X165658757Y-51482275D01*
X165464286Y-51191229D01*
X165327057Y-51054000D01*
X165464286Y-50916771D01*
X165658757Y-50625725D01*
X165792711Y-50302332D01*
X165861000Y-49959019D01*
X165861000Y-49608981D01*
X165792711Y-49265668D01*
X165658757Y-48942275D01*
X165532955Y-48754000D01*
X198642000Y-48754000D01*
X198642001Y-96534000D01*
G37*
X198642001Y-96534000D02*
X178680821Y-96534000D01*
X178822447Y-96322041D01*
X178952632Y-96007747D01*
X179019000Y-95674095D01*
X179019000Y-95333905D01*
X178952632Y-95000253D01*
X178910692Y-94899000D01*
X180018832Y-94899000D01*
X180056501Y-94955376D01*
X180380624Y-95279499D01*
X180761752Y-95534160D01*
X181185239Y-95709574D01*
X181634811Y-95799000D01*
X182093189Y-95799000D01*
X182542761Y-95709574D01*
X182966248Y-95534160D01*
X183347376Y-95279499D01*
X183671499Y-94955376D01*
X183926160Y-94574248D01*
X184101574Y-94150761D01*
X184191000Y-93701189D01*
X184191000Y-93242811D01*
X184101574Y-92793239D01*
X183926160Y-92369752D01*
X183671499Y-91988624D01*
X183347376Y-91664501D01*
X182966248Y-91409840D01*
X182542761Y-91234426D01*
X182093189Y-91145000D01*
X181634811Y-91145000D01*
X181185239Y-91234426D01*
X180761752Y-91409840D01*
X180380624Y-91664501D01*
X180056501Y-91988624D01*
X180018832Y-92045000D01*
X174327082Y-92045000D01*
X166509567Y-84227485D01*
X168132000Y-84227485D01*
X168313724Y-84209587D01*
X168488464Y-84156580D01*
X168649505Y-84070501D01*
X168753000Y-83985565D01*
X168753000Y-84371140D01*
X168649553Y-84525959D01*
X168519368Y-84840253D01*
X168453000Y-85173905D01*
X168453000Y-85514095D01*
X168519368Y-85847747D01*
X168649553Y-86162041D01*
X168838552Y-86444898D01*
X169079102Y-86685448D01*
X169361959Y-86874447D01*
X169676253Y-87004632D01*
X170009905Y-87071000D01*
X170350095Y-87071000D01*
X170683747Y-87004632D01*
X170998041Y-86874447D01*
X171280898Y-86685448D01*
X171521448Y-86444898D01*
X171710447Y-86162041D01*
X171840632Y-85847747D01*
X171907000Y-85514095D01*
X171907000Y-85173905D01*
X172009000Y-85173905D01*
X172009000Y-85514095D01*
X172075368Y-85847747D01*
X172205553Y-86162041D01*
X172394552Y-86444898D01*
X172635102Y-86685448D01*
X172917959Y-86874447D01*
X173232253Y-87004632D01*
X173414876Y-87040958D01*
X174709395Y-88335478D01*
X174754077Y-88389923D01*
X174808522Y-88434605D01*
X174808525Y-88434608D01*
X174860056Y-88476898D01*
X174971366Y-88568248D01*
X175219269Y-88700755D01*
X175488259Y-88782352D01*
X175697902Y-88803000D01*
X175697912Y-88803000D01*
X175768000Y-88809903D01*
X175838088Y-88803000D01*
X182053912Y-88803000D01*
X182124000Y-88809903D01*
X182194088Y-88803000D01*
X182194098Y-88803000D01*
X182403741Y-88782352D01*
X182672731Y-88700755D01*
X182920634Y-88568248D01*
X183137923Y-88389923D01*
X183182610Y-88335472D01*
X184201000Y-87317082D01*
X184201000Y-87546095D01*
X184267368Y-87879747D01*
X184397553Y-88194041D01*
X184586552Y-88476898D01*
X184827102Y-88717448D01*
X185100310Y-88900000D01*
X184827102Y-89082552D01*
X184586552Y-89323102D01*
X184397553Y-89605959D01*
X184267368Y-89920253D01*
X184201000Y-90253905D01*
X184201000Y-90594095D01*
X184267368Y-90927747D01*
X184397553Y-91242041D01*
X184586552Y-91524898D01*
X184827102Y-91765448D01*
X185100310Y-91948000D01*
X184827102Y-92130552D01*
X184586552Y-92371102D01*
X184397553Y-92653959D01*
X184267368Y-92968253D01*
X184201000Y-93301905D01*
X184201000Y-93642095D01*
X184267368Y-93975747D01*
X184397553Y-94290041D01*
X184586552Y-94572898D01*
X184827102Y-94813448D01*
X185109959Y-95002447D01*
X185424253Y-95132632D01*
X185757905Y-95199000D01*
X186098095Y-95199000D01*
X186431747Y-95132632D01*
X186746041Y-95002447D01*
X187028898Y-94813448D01*
X187269448Y-94572898D01*
X187458447Y-94290041D01*
X187588632Y-93975747D01*
X187619405Y-93821039D01*
X194696096Y-93821039D01*
X194736754Y-93955087D01*
X194856963Y-94209420D01*
X195024481Y-94435414D01*
X195232869Y-94624385D01*
X195474119Y-94769070D01*
X195738960Y-94863909D01*
X195961000Y-94742624D01*
X195961000Y-93599000D01*
X196215000Y-93599000D01*
X196215000Y-94742624D01*
X196437040Y-94863909D01*
X196701881Y-94769070D01*
X196943131Y-94624385D01*
X197151519Y-94435414D01*
X197319037Y-94209420D01*
X197439246Y-93955087D01*
X197479904Y-93821039D01*
X197357915Y-93599000D01*
X196215000Y-93599000D01*
X195961000Y-93599000D01*
X194818085Y-93599000D01*
X194696096Y-93821039D01*
X187619405Y-93821039D01*
X187655000Y-93642095D01*
X187655000Y-93301905D01*
X187588632Y-92968253D01*
X187458447Y-92653959D01*
X187269448Y-92371102D01*
X187028898Y-92130552D01*
X186755690Y-91948000D01*
X187028898Y-91765448D01*
X187269448Y-91524898D01*
X187458447Y-91242041D01*
X187588632Y-90927747D01*
X187655000Y-90594095D01*
X187655000Y-90253905D01*
X187588632Y-89920253D01*
X187458447Y-89605959D01*
X187269448Y-89323102D01*
X187028898Y-89082552D01*
X186755690Y-88900000D01*
X187028898Y-88717448D01*
X187269448Y-88476898D01*
X187458447Y-88194041D01*
X187588632Y-87879747D01*
X187655000Y-87546095D01*
X187655000Y-87205905D01*
X194361000Y-87205905D01*
X194361000Y-87546095D01*
X194427368Y-87879747D01*
X194557553Y-88194041D01*
X194746552Y-88476898D01*
X194987102Y-88717448D01*
X195260310Y-88900000D01*
X194987102Y-89082552D01*
X194746552Y-89323102D01*
X194557553Y-89605959D01*
X194427368Y-89920253D01*
X194361000Y-90253905D01*
X194361000Y-90594095D01*
X194427368Y-90927747D01*
X194557553Y-91242041D01*
X194746552Y-91524898D01*
X194987102Y-91765448D01*
X195269959Y-91954447D01*
X195584253Y-92084632D01*
X195675560Y-92102794D01*
X195474119Y-92174930D01*
X195232869Y-92319615D01*
X195024481Y-92508586D01*
X194856963Y-92734580D01*
X194736754Y-92988913D01*
X194696096Y-93122961D01*
X194818085Y-93345000D01*
X195961000Y-93345000D01*
X195961000Y-93325000D01*
X196215000Y-93325000D01*
X196215000Y-93345000D01*
X197357915Y-93345000D01*
X197479904Y-93122961D01*
X197439246Y-92988913D01*
X197319037Y-92734580D01*
X197151519Y-92508586D01*
X196943131Y-92319615D01*
X196701881Y-92174930D01*
X196500440Y-92102794D01*
X196591747Y-92084632D01*
X196906041Y-91954447D01*
X197188898Y-91765448D01*
X197429448Y-91524898D01*
X197618447Y-91242041D01*
X197748632Y-90927747D01*
X197815000Y-90594095D01*
X197815000Y-90253905D01*
X197748632Y-89920253D01*
X197618447Y-89605959D01*
X197429448Y-89323102D01*
X197188898Y-89082552D01*
X196915690Y-88900000D01*
X197188898Y-88717448D01*
X197429448Y-88476898D01*
X197618447Y-88194041D01*
X197748632Y-87879747D01*
X197815000Y-87546095D01*
X197815000Y-87205905D01*
X197748632Y-86872253D01*
X197618447Y-86557959D01*
X197429448Y-86275102D01*
X197188898Y-86034552D01*
X196906041Y-85845553D01*
X196591747Y-85715368D01*
X196258095Y-85649000D01*
X195917905Y-85649000D01*
X195584253Y-85715368D01*
X195269959Y-85845553D01*
X194987102Y-86034552D01*
X194746552Y-86275102D01*
X194557553Y-86557959D01*
X194427368Y-86872253D01*
X194361000Y-87205905D01*
X187655000Y-87205905D01*
X187588632Y-86872253D01*
X187458447Y-86557959D01*
X187269448Y-86275102D01*
X187028898Y-86034552D01*
X186746041Y-85845553D01*
X186431747Y-85715368D01*
X186098095Y-85649000D01*
X185869082Y-85649000D01*
X187287082Y-84231000D01*
X194512325Y-84231000D01*
X194579341Y-84312659D01*
X194720495Y-84428501D01*
X194881536Y-84514580D01*
X195056276Y-84567587D01*
X195238000Y-84585485D01*
X196938000Y-84585485D01*
X197119724Y-84567587D01*
X197294464Y-84514580D01*
X197455505Y-84428501D01*
X197596659Y-84312659D01*
X197712501Y-84171505D01*
X197798580Y-84010464D01*
X197851587Y-83835724D01*
X197869485Y-83654000D01*
X197869485Y-81954000D01*
X197851587Y-81772276D01*
X197798580Y-81597536D01*
X197712501Y-81436495D01*
X197596659Y-81295341D01*
X197455505Y-81179499D01*
X197355000Y-81125777D01*
X197355000Y-76990190D01*
X197424799Y-76920391D01*
X197635685Y-76604777D01*
X197780947Y-76254085D01*
X197855000Y-75881793D01*
X197855000Y-75502207D01*
X197780947Y-75129915D01*
X197635685Y-74779223D01*
X197424799Y-74463609D01*
X197156391Y-74195201D01*
X196840777Y-73984315D01*
X196490085Y-73839053D01*
X196117793Y-73765000D01*
X195738207Y-73765000D01*
X195365915Y-73839053D01*
X195015223Y-73984315D01*
X194699609Y-74195201D01*
X194431201Y-74463609D01*
X194220315Y-74779223D01*
X194075053Y-75129915D01*
X194001000Y-75502207D01*
X194001000Y-75881793D01*
X194075053Y-76254085D01*
X194220315Y-76604777D01*
X194431201Y-76920391D01*
X194501000Y-76990190D01*
X194501001Y-81377000D01*
X186766087Y-81377000D01*
X186695999Y-81370097D01*
X186625911Y-81377000D01*
X186625902Y-81377000D01*
X186416259Y-81397648D01*
X186147269Y-81479245D01*
X185899366Y-81611752D01*
X185764236Y-81722651D01*
X185814580Y-81628464D01*
X185867587Y-81453724D01*
X185885485Y-81272000D01*
X185885485Y-79472000D01*
X185867587Y-79290276D01*
X185814580Y-79115536D01*
X185728501Y-78954495D01*
X185612659Y-78813341D01*
X185471505Y-78697499D01*
X185310464Y-78611420D01*
X185135724Y-78558413D01*
X185084695Y-78553387D01*
X186019083Y-77619000D01*
X186117793Y-77619000D01*
X186490085Y-77544947D01*
X186840777Y-77399685D01*
X187156391Y-77188799D01*
X187424799Y-76920391D01*
X187635685Y-76604777D01*
X187780947Y-76254085D01*
X187855000Y-75881793D01*
X187855000Y-75502207D01*
X187780947Y-75129915D01*
X187635685Y-74779223D01*
X187424799Y-74463609D01*
X187156391Y-74195201D01*
X186840777Y-73984315D01*
X186490085Y-73839053D01*
X186117793Y-73765000D01*
X185738207Y-73765000D01*
X185365915Y-73839053D01*
X185015223Y-73984315D01*
X184699609Y-74195201D01*
X184431201Y-74463609D01*
X184220315Y-74779223D01*
X184075053Y-75129915D01*
X184001000Y-75502207D01*
X184001000Y-75600917D01*
X180904523Y-78697395D01*
X180850078Y-78742077D01*
X180805395Y-78796523D01*
X180805392Y-78796526D01*
X180781282Y-78825904D01*
X180671752Y-78959366D01*
X180652334Y-78995695D01*
X180585844Y-79076713D01*
X180474353Y-79285298D01*
X180405697Y-79511626D01*
X180382515Y-79747000D01*
X180382515Y-80235403D01*
X179068518Y-81549400D01*
X178999685Y-81383223D01*
X178788799Y-81067609D01*
X178520391Y-80799201D01*
X178294102Y-80648000D01*
X178520391Y-80496799D01*
X178788799Y-80228391D01*
X178999685Y-79912777D01*
X179144947Y-79562085D01*
X179219000Y-79189793D01*
X179219000Y-78810207D01*
X179144947Y-78437915D01*
X178999685Y-78087223D01*
X178788799Y-77771609D01*
X178520391Y-77503201D01*
X178204777Y-77292315D01*
X178073071Y-77237760D01*
X178110041Y-77222447D01*
X178392898Y-77033448D01*
X178633448Y-76792898D01*
X178822447Y-76510041D01*
X178952632Y-76195747D01*
X179019000Y-75862095D01*
X179019000Y-75521905D01*
X178952632Y-75188253D01*
X178822447Y-74873959D01*
X178633448Y-74591102D01*
X178392898Y-74350552D01*
X178110041Y-74161553D01*
X177795747Y-74031368D01*
X177462095Y-73965000D01*
X177121905Y-73965000D01*
X176788253Y-74031368D01*
X176473959Y-74161553D01*
X176191102Y-74350552D01*
X175950552Y-74591102D01*
X175761553Y-74873959D01*
X175631368Y-75188253D01*
X175595042Y-75370876D01*
X174632522Y-76333396D01*
X174578076Y-76378079D01*
X174533394Y-76432524D01*
X174533391Y-76432527D01*
X174469777Y-76510041D01*
X174399751Y-76595368D01*
X174267244Y-76843271D01*
X174185647Y-77112261D01*
X174164999Y-77321904D01*
X174164999Y-77321913D01*
X174158096Y-77392001D01*
X174164999Y-77462089D01*
X174165000Y-80525902D01*
X174158096Y-80595999D01*
X174165000Y-80666097D01*
X174171419Y-80731269D01*
X174185648Y-80875740D01*
X174267245Y-81144730D01*
X174399752Y-81392633D01*
X174533391Y-81555473D01*
X174533395Y-81555477D01*
X174578077Y-81609922D01*
X174632522Y-81654604D01*
X175365000Y-82387082D01*
X175365000Y-82485793D01*
X175439053Y-82858085D01*
X175584315Y-83208777D01*
X175795201Y-83524391D01*
X176063609Y-83792799D01*
X176284315Y-83940269D01*
X176191102Y-84002552D01*
X175950552Y-84243102D01*
X175761553Y-84525959D01*
X175631368Y-84840253D01*
X175568150Y-85158068D01*
X175432958Y-85022876D01*
X175396632Y-84840253D01*
X175266447Y-84525959D01*
X175077448Y-84243102D01*
X174836898Y-84002552D01*
X174554041Y-83813553D01*
X174239747Y-83683368D01*
X173906095Y-83617000D01*
X173565905Y-83617000D01*
X173232253Y-83683368D01*
X172917959Y-83813553D01*
X172635102Y-84002552D01*
X172394552Y-84243102D01*
X172205553Y-84525959D01*
X172075368Y-84840253D01*
X172009000Y-85173905D01*
X171907000Y-85173905D01*
X171840632Y-84840253D01*
X171710447Y-84525959D01*
X171607000Y-84371140D01*
X171607000Y-76955412D01*
X171805996Y-77049571D01*
X172080184Y-77118300D01*
X172362512Y-77132217D01*
X172642130Y-77090787D01*
X172908292Y-76995603D01*
X173033514Y-76928671D01*
X173105097Y-76684702D01*
X172292000Y-75871605D01*
X172277858Y-75885748D01*
X172098253Y-75706143D01*
X172112395Y-75692000D01*
X172471605Y-75692000D01*
X173284702Y-76505097D01*
X173528671Y-76433514D01*
X173649571Y-76178004D01*
X173718300Y-75903816D01*
X173732217Y-75621488D01*
X173690787Y-75341870D01*
X173595603Y-75075708D01*
X173528671Y-74950486D01*
X173284702Y-74878903D01*
X172471605Y-75692000D01*
X172112395Y-75692000D01*
X172098253Y-75677858D01*
X172277858Y-75498253D01*
X172292000Y-75512395D01*
X173105097Y-74699298D01*
X173033514Y-74455329D01*
X172778004Y-74334429D01*
X172503816Y-74265700D01*
X172221488Y-74251783D01*
X171941870Y-74293213D01*
X171675708Y-74388397D01*
X171607000Y-74425122D01*
X171607000Y-66697000D01*
X171816658Y-66697000D01*
X172099758Y-66669117D01*
X172462999Y-66558929D01*
X172797763Y-66379994D01*
X173091187Y-66139187D01*
X173331994Y-65845763D01*
X173510929Y-65510999D01*
X173621117Y-65147758D01*
X173658323Y-64770000D01*
X185015677Y-64770000D01*
X185052883Y-65147758D01*
X185163071Y-65510999D01*
X185342006Y-65845763D01*
X185582813Y-66139187D01*
X185876237Y-66379994D01*
X186211001Y-66558929D01*
X186574242Y-66669117D01*
X186857342Y-66697000D01*
X188046658Y-66697000D01*
X188329758Y-66669117D01*
X188692999Y-66558929D01*
X189027763Y-66379994D01*
X189321187Y-66139187D01*
X189561994Y-65845763D01*
X189740929Y-65510999D01*
X189851117Y-65147758D01*
X189888323Y-64770000D01*
X189851117Y-64392242D01*
X189740929Y-64029001D01*
X189561994Y-63694237D01*
X189321187Y-63400813D01*
X189027763Y-63160006D01*
X188692999Y-62981071D01*
X188329758Y-62870883D01*
X188046658Y-62843000D01*
X186857342Y-62843000D01*
X186574242Y-62870883D01*
X186211001Y-62981071D01*
X185876237Y-63160006D01*
X185582813Y-63400813D01*
X185342006Y-63694237D01*
X185163071Y-64029001D01*
X185052883Y-64392242D01*
X185015677Y-64770000D01*
X173658323Y-64770000D01*
X173621117Y-64392242D01*
X173510929Y-64029001D01*
X173331994Y-63694237D01*
X173091187Y-63400813D01*
X172797763Y-63160006D01*
X172462999Y-62981071D01*
X172099758Y-62870883D01*
X171816658Y-62843000D01*
X170627342Y-62843000D01*
X170344242Y-62870883D01*
X169981001Y-62981071D01*
X169646237Y-63160006D01*
X169423258Y-63343000D01*
X160353080Y-63343000D01*
X160061561Y-63051481D01*
X160359884Y-62852149D01*
X160585033Y-62627000D01*
X160630968Y-62627000D01*
X160701056Y-62633903D01*
X160771144Y-62627000D01*
X160771154Y-62627000D01*
X160980797Y-62606352D01*
X161249787Y-62524755D01*
X161497690Y-62392248D01*
X161714979Y-62213923D01*
X161759665Y-62159473D01*
X164483138Y-59436000D01*
X190812160Y-59436000D01*
X190847435Y-59794155D01*
X190951905Y-60138546D01*
X191121555Y-60455938D01*
X191349865Y-60734135D01*
X191628062Y-60962445D01*
X191945454Y-61132095D01*
X192289845Y-61236565D01*
X192558245Y-61263000D01*
X194537755Y-61263000D01*
X194806155Y-61236565D01*
X195150546Y-61132095D01*
X195467938Y-60962445D01*
X195746135Y-60734135D01*
X195974445Y-60455938D01*
X196144095Y-60138546D01*
X196248565Y-59794155D01*
X196283840Y-59436000D01*
X196248565Y-59077845D01*
X196144095Y-58733454D01*
X195974445Y-58416062D01*
X195746135Y-58137865D01*
X195467938Y-57909555D01*
X195150546Y-57739905D01*
X194806155Y-57635435D01*
X194537755Y-57609000D01*
X192558245Y-57609000D01*
X192289845Y-57635435D01*
X191945454Y-57739905D01*
X191628062Y-57909555D01*
X191349865Y-58137865D01*
X191121555Y-58416062D01*
X190951905Y-58733454D01*
X190847435Y-59077845D01*
X190812160Y-59436000D01*
X164483138Y-59436000D01*
X166593479Y-57325660D01*
X166647924Y-57280978D01*
X166692606Y-57226533D01*
X166692609Y-57226530D01*
X166814051Y-57078552D01*
X166826249Y-57063689D01*
X166958756Y-56815786D01*
X167040353Y-56546796D01*
X167061001Y-56337153D01*
X167061001Y-56337145D01*
X167067904Y-56267055D01*
X167061001Y-56196965D01*
X167061001Y-53524089D01*
X167067904Y-53453999D01*
X167061001Y-53383909D01*
X167061001Y-53383901D01*
X167040353Y-53174258D01*
X167040275Y-53173999D01*
X167012523Y-53082515D01*
X166958756Y-52905268D01*
X166826249Y-52657365D01*
X166656424Y-52450434D01*
X169131876Y-52450434D01*
X169162856Y-52578355D01*
X169291990Y-52872761D01*
X169476078Y-53136317D01*
X169708046Y-53358895D01*
X169978980Y-53531942D01*
X170278468Y-53648807D01*
X170595000Y-53705000D01*
X171095000Y-53705000D01*
X171095000Y-52197000D01*
X171349000Y-52197000D01*
X171349000Y-53705000D01*
X171849000Y-53705000D01*
X172165532Y-53648807D01*
X172465020Y-53531942D01*
X172735954Y-53358895D01*
X172967922Y-53136317D01*
X173152010Y-52872761D01*
X173281144Y-52578355D01*
X173312124Y-52450434D01*
X173192777Y-52197000D01*
X171349000Y-52197000D01*
X171095000Y-52197000D01*
X169251223Y-52197000D01*
X169131876Y-52450434D01*
X166656424Y-52450434D01*
X166647923Y-52440076D01*
X166593478Y-52395394D01*
X166412609Y-52214525D01*
X166367924Y-52160076D01*
X166258167Y-52070000D01*
X185015677Y-52070000D01*
X185052883Y-52447758D01*
X185163071Y-52810999D01*
X185342006Y-53145763D01*
X185582813Y-53439187D01*
X185876237Y-53679994D01*
X186211001Y-53858929D01*
X186574242Y-53969117D01*
X186857342Y-53997000D01*
X188046658Y-53997000D01*
X188329758Y-53969117D01*
X188692999Y-53858929D01*
X189027763Y-53679994D01*
X189300700Y-53456000D01*
X190816515Y-53456000D01*
X190816515Y-55256000D01*
X190834413Y-55437724D01*
X190887420Y-55612464D01*
X190973499Y-55773505D01*
X191089341Y-55914659D01*
X191230495Y-56030501D01*
X191391536Y-56116580D01*
X191566276Y-56169587D01*
X191748000Y-56187485D01*
X195348000Y-56187485D01*
X195529724Y-56169587D01*
X195704464Y-56116580D01*
X195865505Y-56030501D01*
X196006659Y-55914659D01*
X196122501Y-55773505D01*
X196208580Y-55612464D01*
X196261587Y-55437724D01*
X196279485Y-55256000D01*
X196279485Y-53456000D01*
X196261587Y-53274276D01*
X196208580Y-53099536D01*
X196122501Y-52938495D01*
X196006659Y-52797341D01*
X195865505Y-52681499D01*
X195704464Y-52595420D01*
X195529724Y-52542413D01*
X195348000Y-52524515D01*
X191748000Y-52524515D01*
X191566276Y-52542413D01*
X191391536Y-52595420D01*
X191230495Y-52681499D01*
X191089341Y-52797341D01*
X190973499Y-52938495D01*
X190887420Y-53099536D01*
X190834413Y-53274276D01*
X190816515Y-53456000D01*
X189300700Y-53456000D01*
X189321187Y-53439187D01*
X189561994Y-53145763D01*
X189740929Y-52810999D01*
X189851117Y-52447758D01*
X189888323Y-52070000D01*
X189851117Y-51692242D01*
X189740929Y-51329001D01*
X189561994Y-50994237D01*
X189321187Y-50700813D01*
X189027763Y-50460006D01*
X188692999Y-50281071D01*
X188329758Y-50170883D01*
X188046658Y-50143000D01*
X186857342Y-50143000D01*
X186574242Y-50170883D01*
X186211001Y-50281071D01*
X185876237Y-50460006D01*
X185582813Y-50700813D01*
X185342006Y-50994237D01*
X185163071Y-51329001D01*
X185052883Y-51692242D01*
X185015677Y-52070000D01*
X166258167Y-52070000D01*
X166150635Y-51981751D01*
X165902732Y-51849244D01*
X165794871Y-51816525D01*
X165792711Y-51805668D01*
X165744620Y-51689566D01*
X169131876Y-51689566D01*
X169251223Y-51943000D01*
X171095000Y-51943000D01*
X171095000Y-50435000D01*
X171349000Y-50435000D01*
X171349000Y-51943000D01*
X173192777Y-51943000D01*
X173312124Y-51689566D01*
X173281144Y-51561645D01*
X173152010Y-51267239D01*
X172967922Y-51003683D01*
X172735954Y-50781105D01*
X172465020Y-50608058D01*
X172165532Y-50491193D01*
X171849000Y-50435000D01*
X171349000Y-50435000D01*
X171095000Y-50435000D01*
X170595000Y-50435000D01*
X170278468Y-50491193D01*
X169978980Y-50608058D01*
X169708046Y-50781105D01*
X169476078Y-51003683D01*
X169291990Y-51267239D01*
X169162856Y-51561645D01*
X169131876Y-51689566D01*
X165744620Y-51689566D01*
X165658757Y-51482275D01*
X165464286Y-51191229D01*
X165327057Y-51054000D01*
X165464286Y-50916771D01*
X165658757Y-50625725D01*
X165792711Y-50302332D01*
X165861000Y-49959019D01*
X165861000Y-49608981D01*
X165792711Y-49265668D01*
X165658757Y-48942275D01*
X165532955Y-48754000D01*
X198642000Y-48754000D01*
X198642001Y-96534000D01*
G36*
X102949663Y-48790698D02*
G01*
X102791587Y-49172328D01*
X102711000Y-49577464D01*
X102711000Y-49990536D01*
X102791587Y-50395672D01*
X102949663Y-50777302D01*
X103179154Y-51120759D01*
X103471241Y-51412846D01*
X103814698Y-51642337D01*
X104196328Y-51800413D01*
X104601464Y-51881000D01*
X104886918Y-51881000D01*
X105965390Y-52959472D01*
X106010077Y-53013923D01*
X106227366Y-53192248D01*
X106475269Y-53324755D01*
X106744259Y-53406352D01*
X106953902Y-53427000D01*
X106953911Y-53427000D01*
X107023999Y-53433903D01*
X107094087Y-53427000D01*
X122266101Y-53427000D01*
X122238413Y-53518276D01*
X122220515Y-53700000D01*
X122220515Y-55300000D01*
X122238413Y-55481724D01*
X122291420Y-55656464D01*
X122377499Y-55817505D01*
X122493341Y-55958659D01*
X122525001Y-55984641D01*
X122525000Y-60368918D01*
X113183485Y-69710433D01*
X113183485Y-69104000D01*
X113165587Y-68922276D01*
X113112580Y-68747536D01*
X113026501Y-68586495D01*
X112910659Y-68445341D01*
X112769505Y-68329499D01*
X112762959Y-68326000D01*
X112769505Y-68322501D01*
X112910659Y-68206659D01*
X113026501Y-68065505D01*
X113112580Y-67904464D01*
X113165587Y-67729724D01*
X113183485Y-67548000D01*
X113183485Y-65548000D01*
X113165587Y-65366276D01*
X113112580Y-65191536D01*
X113026501Y-65030495D01*
X112910659Y-64889341D01*
X112769505Y-64773499D01*
X112608464Y-64687420D01*
X112433724Y-64634413D01*
X112252000Y-64616515D01*
X110252000Y-64616515D01*
X110070276Y-64634413D01*
X109895536Y-64687420D01*
X109734495Y-64773499D01*
X109593341Y-64889341D01*
X109477499Y-65030495D01*
X109391420Y-65191536D01*
X109338413Y-65366276D01*
X109320515Y-65548000D01*
X109320515Y-67548000D01*
X109338413Y-67729724D01*
X109391420Y-67904464D01*
X109477499Y-68065505D01*
X109593341Y-68206659D01*
X109734495Y-68322501D01*
X109741041Y-68326000D01*
X109734495Y-68329499D01*
X109593341Y-68445341D01*
X109477499Y-68586495D01*
X109391420Y-68747536D01*
X109338413Y-68922276D01*
X109320515Y-69104000D01*
X109320515Y-71104000D01*
X109338413Y-71285724D01*
X109391420Y-71460464D01*
X109477499Y-71621505D01*
X109593341Y-71762659D01*
X109734495Y-71878501D01*
X109895536Y-71964580D01*
X110070276Y-72017587D01*
X110252000Y-72035485D01*
X110661059Y-72035485D01*
X110433959Y-72129553D01*
X110151102Y-72318552D01*
X109910552Y-72559102D01*
X109721553Y-72841959D01*
X109591368Y-73156253D01*
X109525000Y-73489905D01*
X109525000Y-73830095D01*
X109591368Y-74163747D01*
X109721553Y-74478041D01*
X109910552Y-74760898D01*
X110151102Y-75001448D01*
X110433959Y-75190447D01*
X110748253Y-75320632D01*
X111081905Y-75387000D01*
X111422095Y-75387000D01*
X111755747Y-75320632D01*
X112070041Y-75190447D01*
X112352898Y-75001448D01*
X112593448Y-74760898D01*
X112782447Y-74478041D01*
X112912632Y-74163747D01*
X112948958Y-73981124D01*
X119635482Y-67294600D01*
X119704315Y-67460777D01*
X119915201Y-67776391D01*
X120183609Y-68044799D01*
X120499223Y-68255685D01*
X120668978Y-68326000D01*
X120499223Y-68396315D01*
X120183609Y-68607201D01*
X119915201Y-68875609D01*
X119704315Y-69191223D01*
X119559053Y-69541915D01*
X119485000Y-69914207D01*
X119485000Y-70293793D01*
X119559053Y-70666085D01*
X119704315Y-71016777D01*
X119915201Y-71332391D01*
X120183609Y-71600799D01*
X120499223Y-71811685D01*
X120849915Y-71956947D01*
X120985717Y-71983959D01*
X120908253Y-71999368D01*
X120593959Y-72129553D01*
X120311102Y-72318552D01*
X120070552Y-72559102D01*
X119881553Y-72841959D01*
X119751368Y-73156253D01*
X119685000Y-73489905D01*
X119685000Y-73830095D01*
X119751368Y-74163747D01*
X119881553Y-74478041D01*
X120070552Y-74760898D01*
X120311102Y-75001448D01*
X120593959Y-75190447D01*
X120908253Y-75320632D01*
X121241905Y-75387000D01*
X121582095Y-75387000D01*
X121915747Y-75320632D01*
X122230041Y-75190447D01*
X122512898Y-75001448D01*
X122753448Y-74760898D01*
X122942447Y-74478041D01*
X123072632Y-74163747D01*
X123139000Y-73830095D01*
X123139000Y-73489905D01*
X123072632Y-73156253D01*
X122942447Y-72841959D01*
X122753448Y-72559102D01*
X122512898Y-72318552D01*
X122230041Y-72129553D01*
X121915747Y-71999368D01*
X121838283Y-71983959D01*
X121974085Y-71956947D01*
X122324777Y-71811685D01*
X122640391Y-71600799D01*
X122908799Y-71332391D01*
X123119685Y-71016777D01*
X123149000Y-70946005D01*
X123149000Y-71229189D01*
X123238426Y-71678761D01*
X123413840Y-72102248D01*
X123668501Y-72483376D01*
X123992624Y-72807499D01*
X124373752Y-73062160D01*
X124797239Y-73237574D01*
X125246811Y-73327000D01*
X125705189Y-73327000D01*
X126154761Y-73237574D01*
X126578248Y-73062160D01*
X126959376Y-72807499D01*
X127283499Y-72483376D01*
X127538160Y-72102248D01*
X127713574Y-71678761D01*
X127803000Y-71229189D01*
X127803000Y-70770811D01*
X127713574Y-70321239D01*
X127538160Y-69897752D01*
X127283499Y-69516624D01*
X126959376Y-69192501D01*
X126578248Y-68937840D01*
X126154761Y-68762426D01*
X125705189Y-68673000D01*
X125246811Y-68673000D01*
X124797239Y-68762426D01*
X124373752Y-68937840D01*
X123992624Y-69192501D01*
X123668501Y-69516624D01*
X123413840Y-69897752D01*
X123339000Y-70078432D01*
X123339000Y-69914207D01*
X123264947Y-69541915D01*
X123119685Y-69191223D01*
X122908799Y-68875609D01*
X122640391Y-68607201D01*
X122324777Y-68396315D01*
X122155022Y-68326000D01*
X122324777Y-68255685D01*
X122640391Y-68044799D01*
X122908799Y-67776391D01*
X123119685Y-67460777D01*
X123264947Y-67110085D01*
X123339000Y-66737793D01*
X123339000Y-66556000D01*
X126534515Y-66556000D01*
X126534515Y-68356000D01*
X126552413Y-68537724D01*
X126605420Y-68712464D01*
X126691499Y-68873505D01*
X126807341Y-69014659D01*
X126948495Y-69130501D01*
X127109536Y-69216580D01*
X127284276Y-69269587D01*
X127466000Y-69287485D01*
X128566000Y-69287485D01*
X128747724Y-69269587D01*
X128922464Y-69216580D01*
X129083505Y-69130501D01*
X129224659Y-69014659D01*
X129340501Y-68873505D01*
X129355349Y-68845727D01*
X129427886Y-68934114D01*
X129610713Y-69084156D01*
X129819298Y-69195647D01*
X130045626Y-69264303D01*
X130281000Y-69287485D01*
X130831000Y-69287485D01*
X131066374Y-69264303D01*
X131292702Y-69195647D01*
X131501287Y-69084156D01*
X131684114Y-68934114D01*
X131834156Y-68751287D01*
X131945647Y-68542702D01*
X132014303Y-68316374D01*
X132037485Y-68081000D01*
X132037485Y-66831000D01*
X132014303Y-66595626D01*
X131945647Y-66369298D01*
X131834156Y-66160713D01*
X131684114Y-65977886D01*
X131501287Y-65827844D01*
X131292702Y-65716353D01*
X131066374Y-65647697D01*
X130831000Y-65624515D01*
X130767485Y-65624515D01*
X130767485Y-64770000D01*
X132704677Y-64770000D01*
X132741883Y-65147758D01*
X132852071Y-65510999D01*
X133031006Y-65845763D01*
X133271813Y-66139187D01*
X133565237Y-66379994D01*
X133900001Y-66558929D01*
X134263242Y-66669117D01*
X134546342Y-66697000D01*
X135735658Y-66697000D01*
X136018758Y-66669117D01*
X136381999Y-66558929D01*
X136716763Y-66379994D01*
X137010187Y-66139187D01*
X137250994Y-65845763D01*
X137429929Y-65510999D01*
X137540117Y-65147758D01*
X137577323Y-64770000D01*
X148934677Y-64770000D01*
X148971883Y-65147758D01*
X149082071Y-65510999D01*
X149261006Y-65845763D01*
X149501813Y-66139187D01*
X149795237Y-66379994D01*
X150130001Y-66558929D01*
X150493242Y-66669117D01*
X150776342Y-66697000D01*
X151965658Y-66697000D01*
X152248758Y-66669117D01*
X152611999Y-66558929D01*
X152946763Y-66379994D01*
X153240187Y-66139187D01*
X153480994Y-65845763D01*
X153659929Y-65510999D01*
X153770117Y-65147758D01*
X153807323Y-64770000D01*
X153770117Y-64392242D01*
X153659929Y-64029001D01*
X153480994Y-63694237D01*
X153240187Y-63400813D01*
X152946763Y-63160006D01*
X152611999Y-62981071D01*
X152248758Y-62870883D01*
X151965658Y-62843000D01*
X150776342Y-62843000D01*
X150493242Y-62870883D01*
X150130001Y-62981071D01*
X149795237Y-63160006D01*
X149501813Y-63400813D01*
X149261006Y-63694237D01*
X149082071Y-64029001D01*
X148971883Y-64392242D01*
X148934677Y-64770000D01*
X137577323Y-64770000D01*
X137540117Y-64392242D01*
X137429929Y-64029001D01*
X137250994Y-63694237D01*
X137010187Y-63400813D01*
X136716763Y-63160006D01*
X136381999Y-62981071D01*
X136018758Y-62870883D01*
X135735658Y-62843000D01*
X134546342Y-62843000D01*
X134263242Y-62870883D01*
X133900001Y-62981071D01*
X133565237Y-63160006D01*
X133271813Y-63400813D01*
X133031006Y-63694237D01*
X132852071Y-64029001D01*
X132741883Y-64392242D01*
X132704677Y-64770000D01*
X130767485Y-64770000D01*
X130767485Y-64761000D01*
X130744303Y-64525626D01*
X130675647Y-64299298D01*
X130564156Y-64090713D01*
X130414114Y-63907886D01*
X130231287Y-63757844D01*
X130022702Y-63646353D01*
X129796374Y-63577697D01*
X129561000Y-63554515D01*
X129011000Y-63554515D01*
X128775626Y-63577697D01*
X128549298Y-63646353D01*
X128340713Y-63757844D01*
X128157886Y-63907886D01*
X128007844Y-64090713D01*
X127896353Y-64299298D01*
X127827697Y-64525626D01*
X127804515Y-64761000D01*
X127804515Y-65624515D01*
X127466000Y-65624515D01*
X127284276Y-65642413D01*
X127109536Y-65695420D01*
X126948495Y-65781499D01*
X126807341Y-65897341D01*
X126691499Y-66038495D01*
X126605420Y-66199536D01*
X126552413Y-66374276D01*
X126534515Y-66556000D01*
X123339000Y-66556000D01*
X123339000Y-66358207D01*
X123264947Y-65985915D01*
X123119685Y-65635223D01*
X122908799Y-65319609D01*
X122640391Y-65051201D01*
X122324777Y-64840315D01*
X122158600Y-64771482D01*
X124911477Y-62018605D01*
X124965922Y-61973923D01*
X125144248Y-61756634D01*
X125276755Y-61508731D01*
X125358352Y-61239741D01*
X125379000Y-61030098D01*
X125379000Y-61030089D01*
X125385903Y-60960001D01*
X125379000Y-60889913D01*
X125379000Y-55984641D01*
X125410659Y-55958659D01*
X125526501Y-55817505D01*
X125612580Y-55656464D01*
X125665587Y-55481724D01*
X125683485Y-55300000D01*
X125683485Y-53700000D01*
X125665587Y-53518276D01*
X125612580Y-53343536D01*
X125526501Y-53182495D01*
X125410659Y-53041341D01*
X125269505Y-52925499D01*
X125108464Y-52839420D01*
X124933724Y-52786413D01*
X124752000Y-52768515D01*
X124201567Y-52768515D01*
X124273124Y-52696958D01*
X124455747Y-52660632D01*
X124770041Y-52530447D01*
X125052898Y-52341448D01*
X125293448Y-52100898D01*
X125482447Y-51818041D01*
X125612632Y-51503747D01*
X125679000Y-51170095D01*
X125679000Y-50829905D01*
X125612632Y-50496253D01*
X125482447Y-50181959D01*
X125293448Y-49899102D01*
X125052898Y-49658552D01*
X124770041Y-49469553D01*
X124455747Y-49339368D01*
X124122095Y-49273000D01*
X123781905Y-49273000D01*
X123448253Y-49339368D01*
X123133959Y-49469553D01*
X122851102Y-49658552D01*
X122610552Y-49899102D01*
X122421553Y-50181959D01*
X122291368Y-50496253D01*
X122276102Y-50573000D01*
X116431484Y-50573000D01*
X116504257Y-50426140D01*
X116596938Y-50082878D01*
X116620873Y-49728131D01*
X116575139Y-49375530D01*
X116461495Y-49038627D01*
X116346389Y-48823275D01*
X116178500Y-48754000D01*
X129167179Y-48754000D01*
X129025553Y-48965959D01*
X128895368Y-49280253D01*
X128859042Y-49462875D01*
X126540523Y-51781395D01*
X126486078Y-51826077D01*
X126441396Y-51880522D01*
X126441392Y-51880526D01*
X126307753Y-52043366D01*
X126175246Y-52291269D01*
X126093649Y-52560259D01*
X126066097Y-52840000D01*
X126073001Y-52910097D01*
X126073000Y-57701810D01*
X126003201Y-57771609D01*
X125792315Y-58087223D01*
X125647053Y-58437915D01*
X125573000Y-58810207D01*
X125573000Y-59189793D01*
X125647053Y-59562085D01*
X125792315Y-59912777D01*
X126003201Y-60228391D01*
X126271609Y-60496799D01*
X126587223Y-60707685D01*
X126937915Y-60852947D01*
X127310207Y-60927000D01*
X127689793Y-60927000D01*
X128062085Y-60852947D01*
X128412777Y-60707685D01*
X128728391Y-60496799D01*
X128875803Y-60349387D01*
X128895368Y-60447747D01*
X129025553Y-60762041D01*
X129214552Y-61044898D01*
X129455102Y-61285448D01*
X129737959Y-61474447D01*
X130052253Y-61604632D01*
X130385905Y-61671000D01*
X130726095Y-61671000D01*
X131059747Y-61604632D01*
X131374041Y-61474447D01*
X131656898Y-61285448D01*
X131897448Y-61044898D01*
X132086447Y-60762041D01*
X132216632Y-60447747D01*
X132283000Y-60114095D01*
X132283000Y-59773905D01*
X132216632Y-59440253D01*
X132086447Y-59125959D01*
X131897448Y-58843102D01*
X131656898Y-58602552D01*
X131374041Y-58413553D01*
X131059747Y-58283368D01*
X130726095Y-58217000D01*
X130385905Y-58217000D01*
X130052253Y-58283368D01*
X129737959Y-58413553D01*
X129455102Y-58602552D01*
X129397210Y-58660444D01*
X129352947Y-58437915D01*
X129207685Y-58087223D01*
X128996799Y-57771609D01*
X128927000Y-57701810D01*
X128927000Y-53431082D01*
X129907648Y-52450434D01*
X133050876Y-52450434D01*
X133081856Y-52578355D01*
X133210990Y-52872761D01*
X133395078Y-53136317D01*
X133627046Y-53358895D01*
X133897980Y-53531942D01*
X134197468Y-53648807D01*
X134514000Y-53705000D01*
X135014000Y-53705000D01*
X135014000Y-52197000D01*
X135268000Y-52197000D01*
X135268000Y-53705000D01*
X135768000Y-53705000D01*
X136084532Y-53648807D01*
X136384020Y-53531942D01*
X136654954Y-53358895D01*
X136886922Y-53136317D01*
X137071010Y-52872761D01*
X137200144Y-52578355D01*
X137231124Y-52450434D01*
X137111777Y-52197000D01*
X135268000Y-52197000D01*
X135014000Y-52197000D01*
X133170223Y-52197000D01*
X133050876Y-52450434D01*
X129907648Y-52450434D01*
X130288082Y-52070000D01*
X148934677Y-52070000D01*
X148971883Y-52447758D01*
X149082071Y-52810999D01*
X149261006Y-53145763D01*
X149501813Y-53439187D01*
X149795237Y-53679994D01*
X150130001Y-53858929D01*
X150493242Y-53969117D01*
X150776342Y-53997000D01*
X151965658Y-53997000D01*
X152248758Y-53969117D01*
X152611999Y-53858929D01*
X152946763Y-53679994D01*
X153240187Y-53439187D01*
X153480994Y-53145763D01*
X153659929Y-52810999D01*
X153770117Y-52447758D01*
X153807323Y-52070000D01*
X153770117Y-51692242D01*
X153659929Y-51329001D01*
X153480994Y-50994237D01*
X153240187Y-50700813D01*
X152946763Y-50460006D01*
X152611999Y-50281071D01*
X152248758Y-50170883D01*
X151965658Y-50143000D01*
X150776342Y-50143000D01*
X150493242Y-50170883D01*
X150130001Y-50281071D01*
X149795237Y-50460006D01*
X149501813Y-50700813D01*
X149261006Y-50994237D01*
X149082071Y-51329001D01*
X148971883Y-51692242D01*
X148934677Y-52070000D01*
X130288082Y-52070000D01*
X130668516Y-51689566D01*
X133050876Y-51689566D01*
X133170223Y-51943000D01*
X135014000Y-51943000D01*
X135014000Y-50435000D01*
X135268000Y-50435000D01*
X135268000Y-51943000D01*
X137111777Y-51943000D01*
X137231124Y-51689566D01*
X137200144Y-51561645D01*
X137071010Y-51267239D01*
X136886922Y-51003683D01*
X136654954Y-50781105D01*
X136384020Y-50608058D01*
X136084532Y-50491193D01*
X135768000Y-50435000D01*
X135268000Y-50435000D01*
X135014000Y-50435000D01*
X134514000Y-50435000D01*
X134197468Y-50491193D01*
X133897980Y-50608058D01*
X133627046Y-50781105D01*
X133395078Y-51003683D01*
X133210990Y-51267239D01*
X133081856Y-51561645D01*
X133050876Y-51689566D01*
X130668516Y-51689566D01*
X130877125Y-51480958D01*
X131059747Y-51444632D01*
X131374041Y-51314447D01*
X131656898Y-51125448D01*
X131897448Y-50884898D01*
X132086447Y-50602041D01*
X132216632Y-50287747D01*
X132283000Y-49954095D01*
X132283000Y-49613905D01*
X132216632Y-49280253D01*
X132086447Y-48965959D01*
X131944821Y-48754000D01*
X157555045Y-48754000D01*
X157429243Y-48942275D01*
X157295289Y-49265668D01*
X157227000Y-49608981D01*
X157227000Y-49959019D01*
X157295289Y-50302332D01*
X157429243Y-50625725D01*
X157617994Y-50908211D01*
X157522178Y-50917648D01*
X157253188Y-50999245D01*
X157005285Y-51131752D01*
X156787996Y-51310077D01*
X156743309Y-51364528D01*
X156144522Y-51963315D01*
X156090077Y-52007997D01*
X156045395Y-52062442D01*
X156045391Y-52062446D01*
X155934966Y-52197000D01*
X155911752Y-52225286D01*
X155779245Y-52473189D01*
X155697648Y-52742179D01*
X155688014Y-52840000D01*
X155670096Y-53021920D01*
X155677000Y-53092018D01*
X155676999Y-62041913D01*
X155670096Y-62112001D01*
X155676999Y-62182089D01*
X155676999Y-62182098D01*
X155697647Y-62391741D01*
X155779244Y-62660731D01*
X155891573Y-62870883D01*
X155911752Y-62908635D01*
X156045391Y-63071475D01*
X156045394Y-63071478D01*
X156090076Y-63125923D01*
X156144522Y-63170606D01*
X158703388Y-65729472D01*
X158748075Y-65783923D01*
X158965364Y-65962248D01*
X159213267Y-66094755D01*
X159482257Y-66176352D01*
X159691900Y-66197000D01*
X159691909Y-66197000D01*
X159761997Y-66203903D01*
X159832085Y-66197000D01*
X168753001Y-66197000D01*
X168753000Y-77310435D01*
X168649505Y-77225499D01*
X168488464Y-77139420D01*
X168313724Y-77086413D01*
X168132000Y-77068515D01*
X166132000Y-77068515D01*
X165950276Y-77086413D01*
X165775536Y-77139420D01*
X165614495Y-77225499D01*
X165473341Y-77341341D01*
X165357499Y-77482495D01*
X165271420Y-77643536D01*
X165218413Y-77818276D01*
X165200515Y-78000000D01*
X165200515Y-78694030D01*
X165097922Y-78569021D01*
X165043477Y-78524339D01*
X161759666Y-75240528D01*
X161714979Y-75186077D01*
X161497690Y-75007752D01*
X161249787Y-74875245D01*
X160980797Y-74793648D01*
X160771154Y-74773000D01*
X160771144Y-74773000D01*
X160701056Y-74766097D01*
X160630968Y-74773000D01*
X160585033Y-74773000D01*
X160359884Y-74547851D01*
X160011512Y-74315077D01*
X159624423Y-74154739D01*
X159213491Y-74073000D01*
X158794509Y-74073000D01*
X158383577Y-74154739D01*
X157996488Y-74315077D01*
X157648116Y-74547851D01*
X157351851Y-74844116D01*
X157119077Y-75192488D01*
X156958739Y-75579577D01*
X156877000Y-75990509D01*
X156877000Y-76409491D01*
X156958739Y-76820423D01*
X157119077Y-77207512D01*
X157351851Y-77555884D01*
X157648116Y-77852149D01*
X157996488Y-78084923D01*
X158383577Y-78245261D01*
X158794509Y-78327000D01*
X159213491Y-78327000D01*
X159624423Y-78245261D01*
X160011512Y-78084923D01*
X160345041Y-77862067D01*
X161523489Y-79040515D01*
X160236000Y-79040515D01*
X160054276Y-79058413D01*
X159879536Y-79111420D01*
X159718495Y-79197499D01*
X159577341Y-79313341D01*
X159461499Y-79454495D01*
X159398156Y-79573000D01*
X156083875Y-79573000D01*
X155983376Y-79472501D01*
X155602248Y-79217840D01*
X155178761Y-79042426D01*
X154729189Y-78953000D01*
X154270811Y-78953000D01*
X153821239Y-79042426D01*
X153397752Y-79217840D01*
X153016624Y-79472501D01*
X152692501Y-79796624D01*
X152437840Y-80177752D01*
X152262426Y-80601239D01*
X152173000Y-81050811D01*
X152173000Y-81509189D01*
X152262426Y-81958761D01*
X152437840Y-82382248D01*
X152692501Y-82763376D01*
X153016624Y-83087499D01*
X153397752Y-83342160D01*
X153573001Y-83414750D01*
X153573000Y-84281343D01*
X153409553Y-84525959D01*
X153279368Y-84840253D01*
X153213000Y-85173905D01*
X153213000Y-85514095D01*
X153279368Y-85847747D01*
X153409553Y-86162041D01*
X153598552Y-86444898D01*
X153839102Y-86685448D01*
X154121959Y-86874447D01*
X154436253Y-87004632D01*
X154769905Y-87071000D01*
X155110095Y-87071000D01*
X155443747Y-87004632D01*
X155758041Y-86874447D01*
X156040898Y-86685448D01*
X156281448Y-86444898D01*
X156470447Y-86162041D01*
X156600632Y-85847747D01*
X156667000Y-85514095D01*
X156667000Y-85173905D01*
X156600632Y-84840253D01*
X156470447Y-84525959D01*
X156427000Y-84460936D01*
X156427000Y-82584530D01*
X156532258Y-82427000D01*
X159869097Y-82427000D01*
X159879536Y-82432580D01*
X160054276Y-82485587D01*
X160236000Y-82503485D01*
X161836000Y-82503485D01*
X162017724Y-82485587D01*
X162192464Y-82432580D01*
X162353505Y-82346501D01*
X162494659Y-82230659D01*
X162610501Y-82089505D01*
X162657001Y-82002511D01*
X162657001Y-83672575D01*
X162566447Y-83453959D01*
X162377448Y-83171102D01*
X162136898Y-82930552D01*
X161854041Y-82741553D01*
X161539747Y-82611368D01*
X161206095Y-82545000D01*
X160865905Y-82545000D01*
X160532253Y-82611368D01*
X160217959Y-82741553D01*
X159935102Y-82930552D01*
X159694552Y-83171102D01*
X159505553Y-83453959D01*
X159375368Y-83768253D01*
X159339042Y-83950876D01*
X159060522Y-84229395D01*
X159006078Y-84274077D01*
X158961396Y-84328522D01*
X158961392Y-84328526D01*
X158879345Y-84428501D01*
X158827753Y-84491366D01*
X158695246Y-84739269D01*
X158613649Y-85008259D01*
X158607703Y-85068635D01*
X158586097Y-85288000D01*
X158593001Y-85358097D01*
X158593000Y-90308444D01*
X158522834Y-90477840D01*
X158463000Y-90778649D01*
X158463000Y-91085351D01*
X158522834Y-91386160D01*
X158640204Y-91669516D01*
X158810599Y-91924530D01*
X159027470Y-92141401D01*
X159282484Y-92311796D01*
X159565840Y-92429166D01*
X159866649Y-92489000D01*
X160173351Y-92489000D01*
X160474160Y-92429166D01*
X160757516Y-92311796D01*
X161012530Y-92141401D01*
X161229401Y-91924530D01*
X161310455Y-91803224D01*
X164408381Y-91803224D01*
X164459337Y-92029862D01*
X164685830Y-92133754D01*
X164928238Y-92191463D01*
X165177248Y-92200772D01*
X165423289Y-92161323D01*
X165656905Y-92074632D01*
X165740663Y-92029862D01*
X165791619Y-91803224D01*
X165100000Y-91111605D01*
X164408381Y-91803224D01*
X161310455Y-91803224D01*
X161399796Y-91669516D01*
X161517166Y-91386160D01*
X161577000Y-91085351D01*
X161577000Y-91009248D01*
X163831228Y-91009248D01*
X163870677Y-91255289D01*
X163957368Y-91488905D01*
X164002138Y-91572663D01*
X164228776Y-91623619D01*
X164920395Y-90932000D01*
X165279605Y-90932000D01*
X165971224Y-91623619D01*
X166197862Y-91572663D01*
X166301754Y-91346170D01*
X166359463Y-91103762D01*
X166368772Y-90854752D01*
X166329323Y-90608711D01*
X166242632Y-90375095D01*
X166197862Y-90291337D01*
X165971224Y-90240381D01*
X165279605Y-90932000D01*
X164920395Y-90932000D01*
X164228776Y-90240381D01*
X164002138Y-90291337D01*
X163898246Y-90517830D01*
X163840537Y-90760238D01*
X163831228Y-91009248D01*
X161577000Y-91009248D01*
X161577000Y-90778649D01*
X161517166Y-90477840D01*
X161447000Y-90308444D01*
X161447000Y-90060776D01*
X164408381Y-90060776D01*
X165100000Y-90752395D01*
X165791619Y-90060776D01*
X165740663Y-89834138D01*
X165514170Y-89730246D01*
X165271762Y-89672537D01*
X165022752Y-89663228D01*
X164776711Y-89702677D01*
X164543095Y-89789368D01*
X164459337Y-89834138D01*
X164408381Y-90060776D01*
X161447000Y-90060776D01*
X161447000Y-89263224D01*
X161868381Y-89263224D01*
X161919337Y-89489862D01*
X162145830Y-89593754D01*
X162388238Y-89651463D01*
X162637248Y-89660772D01*
X162883289Y-89621323D01*
X163116905Y-89534632D01*
X163200663Y-89489862D01*
X163251619Y-89263224D01*
X162560000Y-88571605D01*
X161868381Y-89263224D01*
X161447000Y-89263224D01*
X161447000Y-89004342D01*
X161462138Y-89032663D01*
X161688776Y-89083619D01*
X162380395Y-88392000D01*
X162739605Y-88392000D01*
X163431224Y-89083619D01*
X163657862Y-89032663D01*
X163761754Y-88806170D01*
X163819463Y-88563762D01*
X163828772Y-88314752D01*
X163789323Y-88068711D01*
X163702632Y-87835095D01*
X163657862Y-87751337D01*
X163431224Y-87700381D01*
X162739605Y-88392000D01*
X162380395Y-88392000D01*
X161688776Y-87700381D01*
X161462138Y-87751337D01*
X161447000Y-87784339D01*
X161447000Y-87520776D01*
X161868381Y-87520776D01*
X162560000Y-88212395D01*
X163251619Y-87520776D01*
X163200663Y-87294138D01*
X162974170Y-87190246D01*
X162731762Y-87132537D01*
X162482752Y-87123228D01*
X162236711Y-87162677D01*
X162003095Y-87249368D01*
X161919337Y-87294138D01*
X161868381Y-87520776D01*
X161447000Y-87520776D01*
X161447000Y-85951081D01*
X161539747Y-85932632D01*
X161854041Y-85802447D01*
X162136898Y-85613448D01*
X162377448Y-85372898D01*
X162566447Y-85090041D01*
X162696632Y-84775747D01*
X162763000Y-84442095D01*
X162763000Y-84375754D01*
X162891753Y-84616634D01*
X163025392Y-84779474D01*
X163025396Y-84779478D01*
X163070078Y-84833923D01*
X163124523Y-84878605D01*
X172677390Y-94431472D01*
X172722077Y-94485923D01*
X172727410Y-94490299D01*
X172583615Y-94648869D01*
X172438930Y-94890119D01*
X172344091Y-95154960D01*
X172465376Y-95377000D01*
X173609000Y-95377000D01*
X173609000Y-95357000D01*
X173863000Y-95357000D01*
X173863000Y-95377000D01*
X175006624Y-95377000D01*
X175127909Y-95154960D01*
X175036250Y-94899000D01*
X175673308Y-94899000D01*
X175631368Y-95000253D01*
X175565000Y-95333905D01*
X175565000Y-95674095D01*
X175631368Y-96007747D01*
X175761553Y-96322041D01*
X175903179Y-96534000D01*
X174729810Y-96534000D01*
X174888385Y-96359131D01*
X175033070Y-96117881D01*
X175127909Y-95853040D01*
X175006624Y-95631000D01*
X173863000Y-95631000D01*
X173863000Y-95651000D01*
X173609000Y-95651000D01*
X173609000Y-95631000D01*
X172465376Y-95631000D01*
X172344091Y-95853040D01*
X172438930Y-96117881D01*
X172583615Y-96359131D01*
X172742190Y-96534000D01*
X171173810Y-96534000D01*
X171332385Y-96359131D01*
X171477070Y-96117881D01*
X171571909Y-95853040D01*
X171450624Y-95631000D01*
X170307000Y-95631000D01*
X170307000Y-95651000D01*
X170053000Y-95651000D01*
X170053000Y-95631000D01*
X168909376Y-95631000D01*
X168788091Y-95853040D01*
X168882930Y-96117881D01*
X169027615Y-96359131D01*
X169186190Y-96534000D01*
X155933810Y-96534000D01*
X156092385Y-96359131D01*
X156237070Y-96117881D01*
X156331909Y-95853040D01*
X156210624Y-95631000D01*
X155067000Y-95631000D01*
X155067000Y-95651000D01*
X154813000Y-95651000D01*
X154813000Y-95631000D01*
X153669376Y-95631000D01*
X153548091Y-95853040D01*
X153642930Y-96117881D01*
X153787615Y-96359131D01*
X153946190Y-96534000D01*
X100570000Y-96534000D01*
X100570000Y-91567000D01*
X103113000Y-91567000D01*
X103113000Y-92467000D01*
X103167271Y-92764023D01*
X103278446Y-93044751D01*
X103442252Y-93298396D01*
X103652394Y-93515210D01*
X103900796Y-93686862D01*
X104177913Y-93806755D01*
X104283260Y-93831036D01*
X104521000Y-93710378D01*
X104521000Y-91567000D01*
X104775000Y-91567000D01*
X104775000Y-93710378D01*
X105012740Y-93831036D01*
X105118087Y-93806755D01*
X105395204Y-93686862D01*
X105643606Y-93515210D01*
X105853748Y-93298396D01*
X106017554Y-93044751D01*
X106128729Y-92764023D01*
X106183000Y-92467000D01*
X106183000Y-91567000D01*
X104775000Y-91567000D01*
X104521000Y-91567000D01*
X103113000Y-91567000D01*
X100570000Y-91567000D01*
X100570000Y-90413000D01*
X103113000Y-90413000D01*
X103113000Y-91313000D01*
X104521000Y-91313000D01*
X104521000Y-89169622D01*
X104775000Y-89169622D01*
X104775000Y-91313000D01*
X106183000Y-91313000D01*
X106183000Y-90413000D01*
X106128729Y-90115977D01*
X106017554Y-89835249D01*
X105891461Y-89640000D01*
X107896515Y-89640000D01*
X107896515Y-93240000D01*
X107914413Y-93421724D01*
X107967420Y-93596464D01*
X108053499Y-93757505D01*
X108169341Y-93898659D01*
X108310495Y-94014501D01*
X108471536Y-94100580D01*
X108646276Y-94153587D01*
X108828000Y-94171485D01*
X110628000Y-94171485D01*
X110809724Y-94153587D01*
X110984464Y-94100580D01*
X111145505Y-94014501D01*
X111286659Y-93898659D01*
X111391828Y-93770509D01*
X113697000Y-93770509D01*
X113697000Y-94189491D01*
X113778739Y-94600423D01*
X113939077Y-94987512D01*
X114171851Y-95335884D01*
X114468116Y-95632149D01*
X114816488Y-95864923D01*
X115203577Y-96025261D01*
X115614509Y-96107000D01*
X116033491Y-96107000D01*
X116444423Y-96025261D01*
X116831512Y-95864923D01*
X117179884Y-95632149D01*
X117476149Y-95335884D01*
X117708923Y-94987512D01*
X117869261Y-94600423D01*
X117951000Y-94189491D01*
X117951000Y-93770509D01*
X134017000Y-93770509D01*
X134017000Y-94189491D01*
X134098739Y-94600423D01*
X134259077Y-94987512D01*
X134491851Y-95335884D01*
X134788116Y-95632149D01*
X135136488Y-95864923D01*
X135523577Y-96025261D01*
X135934509Y-96107000D01*
X136353491Y-96107000D01*
X136764423Y-96025261D01*
X137151512Y-95864923D01*
X137499884Y-95632149D01*
X137796149Y-95335884D01*
X137917038Y-95154960D01*
X153548091Y-95154960D01*
X153669376Y-95377000D01*
X154813000Y-95377000D01*
X154813000Y-94234085D01*
X155067000Y-94234085D01*
X155067000Y-95377000D01*
X156210624Y-95377000D01*
X156331909Y-95154960D01*
X168788091Y-95154960D01*
X168909376Y-95377000D01*
X170053000Y-95377000D01*
X170053000Y-94234085D01*
X170307000Y-94234085D01*
X170307000Y-95377000D01*
X171450624Y-95377000D01*
X171571909Y-95154960D01*
X171477070Y-94890119D01*
X171332385Y-94648869D01*
X171143414Y-94440481D01*
X170917420Y-94272963D01*
X170663087Y-94152754D01*
X170529039Y-94112096D01*
X170307000Y-94234085D01*
X170053000Y-94234085D01*
X169830961Y-94112096D01*
X169696913Y-94152754D01*
X169442580Y-94272963D01*
X169216586Y-94440481D01*
X169027615Y-94648869D01*
X168882930Y-94890119D01*
X168788091Y-95154960D01*
X156331909Y-95154960D01*
X156237070Y-94890119D01*
X156092385Y-94648869D01*
X155903414Y-94440481D01*
X155677420Y-94272963D01*
X155423087Y-94152754D01*
X155289039Y-94112096D01*
X155067000Y-94234085D01*
X154813000Y-94234085D01*
X154590961Y-94112096D01*
X154456913Y-94152754D01*
X154202580Y-94272963D01*
X153976586Y-94440481D01*
X153787615Y-94648869D01*
X153642930Y-94890119D01*
X153548091Y-95154960D01*
X137917038Y-95154960D01*
X138028923Y-94987512D01*
X138189261Y-94600423D01*
X138271000Y-94189491D01*
X138271000Y-93770509D01*
X138189261Y-93359577D01*
X138028923Y-92972488D01*
X137796149Y-92624116D01*
X137499884Y-92327851D01*
X137151512Y-92095077D01*
X136764423Y-91934739D01*
X136353491Y-91853000D01*
X135934509Y-91853000D01*
X135523577Y-91934739D01*
X135136488Y-92095077D01*
X134788116Y-92327851D01*
X134491851Y-92624116D01*
X134259077Y-92972488D01*
X134098739Y-93359577D01*
X134017000Y-93770509D01*
X117951000Y-93770509D01*
X117869261Y-93359577D01*
X117708923Y-92972488D01*
X117476149Y-92624116D01*
X117179884Y-92327851D01*
X116831512Y-92095077D01*
X116444423Y-91934739D01*
X116033491Y-91853000D01*
X115614509Y-91853000D01*
X115203577Y-91934739D01*
X114816488Y-92095077D01*
X114468116Y-92327851D01*
X114171851Y-92624116D01*
X113939077Y-92972488D01*
X113778739Y-93359577D01*
X113697000Y-93770509D01*
X111391828Y-93770509D01*
X111402501Y-93757505D01*
X111488580Y-93596464D01*
X111541587Y-93421724D01*
X111559485Y-93240000D01*
X111559485Y-89640000D01*
X111541587Y-89458276D01*
X111488580Y-89283536D01*
X111402501Y-89122495D01*
X111286659Y-88981341D01*
X111145505Y-88865499D01*
X110984464Y-88779420D01*
X110809724Y-88726413D01*
X110628000Y-88708515D01*
X108828000Y-88708515D01*
X108646276Y-88726413D01*
X108471536Y-88779420D01*
X108310495Y-88865499D01*
X108169341Y-88981341D01*
X108053499Y-89122495D01*
X107967420Y-89283536D01*
X107914413Y-89458276D01*
X107896515Y-89640000D01*
X105891461Y-89640000D01*
X105853748Y-89581604D01*
X105643606Y-89364790D01*
X105395204Y-89193138D01*
X105118087Y-89073245D01*
X105012740Y-89048964D01*
X104775000Y-89169622D01*
X104521000Y-89169622D01*
X104283260Y-89048964D01*
X104177913Y-89073245D01*
X103900796Y-89193138D01*
X103652394Y-89364790D01*
X103442252Y-89581604D01*
X103278446Y-89835249D01*
X103167271Y-90115977D01*
X103113000Y-90413000D01*
X100570000Y-90413000D01*
X100570000Y-88162811D01*
X116037000Y-88162811D01*
X116037000Y-88621189D01*
X116126426Y-89070761D01*
X116301840Y-89494248D01*
X116556501Y-89875376D01*
X116880624Y-90199499D01*
X117261752Y-90454160D01*
X117685239Y-90629574D01*
X118134811Y-90719000D01*
X118593189Y-90719000D01*
X119042761Y-90629574D01*
X119466248Y-90454160D01*
X119472107Y-90450245D01*
X139905000Y-90450245D01*
X139905000Y-92429754D01*
X139931435Y-92698154D01*
X140035905Y-93042545D01*
X140205555Y-93359937D01*
X140433865Y-93638135D01*
X140712062Y-93866445D01*
X141029454Y-94036095D01*
X141373845Y-94140565D01*
X141732000Y-94175840D01*
X142090154Y-94140565D01*
X142434545Y-94036095D01*
X142751937Y-93866445D01*
X143030135Y-93638135D01*
X143258445Y-93359938D01*
X143322553Y-93240000D01*
X145273928Y-93240000D01*
X145286188Y-93364482D01*
X145322498Y-93484180D01*
X145381463Y-93594494D01*
X145460815Y-93691185D01*
X145557506Y-93770537D01*
X145667820Y-93829502D01*
X145787518Y-93865812D01*
X145912000Y-93878072D01*
X146526250Y-93875000D01*
X146685000Y-93716250D01*
X146685000Y-91567000D01*
X146939000Y-91567000D01*
X146939000Y-93716250D01*
X147097750Y-93875000D01*
X147712000Y-93878072D01*
X147836482Y-93865812D01*
X147956180Y-93829502D01*
X148066494Y-93770537D01*
X148163185Y-93691185D01*
X148242537Y-93594494D01*
X148301502Y-93484180D01*
X148337812Y-93364482D01*
X148350072Y-93240000D01*
X148347000Y-91725750D01*
X148188250Y-91567000D01*
X146939000Y-91567000D01*
X146685000Y-91567000D01*
X145435750Y-91567000D01*
X145277000Y-91725750D01*
X145273928Y-93240000D01*
X143322553Y-93240000D01*
X143428095Y-93042546D01*
X143532565Y-92698155D01*
X143559000Y-92429755D01*
X143559000Y-90450245D01*
X143532565Y-90181845D01*
X143428095Y-89837454D01*
X143322554Y-89640000D01*
X145273928Y-89640000D01*
X145277000Y-91154250D01*
X145435750Y-91313000D01*
X146685000Y-91313000D01*
X146685000Y-89163750D01*
X146939000Y-89163750D01*
X146939000Y-91313000D01*
X148188250Y-91313000D01*
X148347000Y-91154250D01*
X148350072Y-89640000D01*
X148337812Y-89515518D01*
X148301502Y-89395820D01*
X148242537Y-89285506D01*
X148163185Y-89188815D01*
X148066494Y-89109463D01*
X147956180Y-89050498D01*
X147836482Y-89014188D01*
X147712000Y-89001928D01*
X147097750Y-89005000D01*
X146939000Y-89163750D01*
X146685000Y-89163750D01*
X146526250Y-89005000D01*
X145912000Y-89001928D01*
X145787518Y-89014188D01*
X145667820Y-89050498D01*
X145557506Y-89109463D01*
X145460815Y-89188815D01*
X145381463Y-89285506D01*
X145322498Y-89395820D01*
X145286188Y-89515518D01*
X145273928Y-89640000D01*
X143322554Y-89640000D01*
X143258445Y-89520062D01*
X143030135Y-89241865D01*
X142751938Y-89013555D01*
X142434546Y-88843905D01*
X142090155Y-88739435D01*
X141732000Y-88704160D01*
X141373846Y-88739435D01*
X141029455Y-88843905D01*
X140712063Y-89013555D01*
X140433866Y-89241865D01*
X140205556Y-89520062D01*
X140035906Y-89837454D01*
X139931436Y-90181845D01*
X139905000Y-90450245D01*
X119472107Y-90450245D01*
X119847376Y-90199499D01*
X120171499Y-89875376D01*
X120426160Y-89494248D01*
X120601574Y-89070761D01*
X120691000Y-88621189D01*
X120691000Y-88162811D01*
X120601574Y-87713239D01*
X120426160Y-87289752D01*
X120171499Y-86908624D01*
X119847376Y-86584501D01*
X119466248Y-86329840D01*
X119042761Y-86154426D01*
X118593189Y-86065000D01*
X118134811Y-86065000D01*
X117685239Y-86154426D01*
X117261752Y-86329840D01*
X116880624Y-86584501D01*
X116556501Y-86908624D01*
X116301840Y-87289752D01*
X116126426Y-87713239D01*
X116037000Y-88162811D01*
X100570000Y-88162811D01*
X100570000Y-79602649D01*
X109695000Y-79602649D01*
X109695000Y-79909351D01*
X109754834Y-80210160D01*
X109872204Y-80493516D01*
X110042599Y-80748530D01*
X110259470Y-80965401D01*
X110514484Y-81135796D01*
X110797840Y-81253166D01*
X111098649Y-81313000D01*
X111405351Y-81313000D01*
X111706160Y-81253166D01*
X111989516Y-81135796D01*
X112244530Y-80965401D01*
X112461401Y-80748530D01*
X112542455Y-80627224D01*
X115640381Y-80627224D01*
X115691337Y-80853862D01*
X115917830Y-80957754D01*
X116160238Y-81015463D01*
X116409248Y-81024772D01*
X116655289Y-80985323D01*
X116888905Y-80898632D01*
X116972663Y-80853862D01*
X117023619Y-80627224D01*
X116984395Y-80588000D01*
X123344515Y-80588000D01*
X123344515Y-82988000D01*
X123362413Y-83169724D01*
X123415420Y-83344464D01*
X123501499Y-83505505D01*
X123617341Y-83646659D01*
X123758495Y-83762501D01*
X123919536Y-83848580D01*
X124094276Y-83901587D01*
X124276000Y-83919485D01*
X126676000Y-83919485D01*
X126857724Y-83901587D01*
X127032464Y-83848580D01*
X127193505Y-83762501D01*
X127334659Y-83646659D01*
X127450501Y-83505505D01*
X127536580Y-83344464D01*
X127589587Y-83169724D01*
X127599804Y-83065980D01*
X131877626Y-83065980D01*
X131997514Y-83350836D01*
X132321210Y-83511699D01*
X132670069Y-83606322D01*
X133030684Y-83631067D01*
X133389198Y-83584985D01*
X133731833Y-83469846D01*
X133954486Y-83350836D01*
X134074374Y-83065980D01*
X132976000Y-81967605D01*
X131877626Y-83065980D01*
X127599804Y-83065980D01*
X127607485Y-82988000D01*
X127607485Y-81842684D01*
X131132933Y-81842684D01*
X131179015Y-82201198D01*
X131294154Y-82543833D01*
X131413164Y-82766486D01*
X131698020Y-82886374D01*
X132796395Y-81788000D01*
X133155605Y-81788000D01*
X134253980Y-82886374D01*
X134538836Y-82766486D01*
X134699699Y-82442790D01*
X134794322Y-82093931D01*
X134819067Y-81733316D01*
X134772985Y-81374802D01*
X134657846Y-81032167D01*
X134538836Y-80809514D01*
X134253980Y-80689626D01*
X133155605Y-81788000D01*
X132796395Y-81788000D01*
X131698020Y-80689626D01*
X131413164Y-80809514D01*
X131252301Y-81133210D01*
X131157678Y-81482069D01*
X131132933Y-81842684D01*
X127607485Y-81842684D01*
X127607485Y-80588000D01*
X127599805Y-80510020D01*
X131877626Y-80510020D01*
X132976000Y-81608395D01*
X134074374Y-80510020D01*
X133954486Y-80225164D01*
X133630790Y-80064301D01*
X133281931Y-79969678D01*
X132921316Y-79944933D01*
X132562802Y-79991015D01*
X132220167Y-80106154D01*
X131997514Y-80225164D01*
X131877626Y-80510020D01*
X127599805Y-80510020D01*
X127589587Y-80406276D01*
X127536580Y-80231536D01*
X127450501Y-80070495D01*
X127334659Y-79929341D01*
X127193505Y-79813499D01*
X127032464Y-79727420D01*
X126857724Y-79674413D01*
X126676000Y-79656515D01*
X124276000Y-79656515D01*
X124094276Y-79674413D01*
X123919536Y-79727420D01*
X123758495Y-79813499D01*
X123617341Y-79929341D01*
X123501499Y-80070495D01*
X123415420Y-80231536D01*
X123362413Y-80406276D01*
X123344515Y-80588000D01*
X116984395Y-80588000D01*
X116332000Y-79935605D01*
X115640381Y-80627224D01*
X112542455Y-80627224D01*
X112631796Y-80493516D01*
X112749166Y-80210160D01*
X112809000Y-79909351D01*
X112809000Y-79833248D01*
X115063228Y-79833248D01*
X115102677Y-80079289D01*
X115189368Y-80312905D01*
X115234138Y-80396663D01*
X115460776Y-80447619D01*
X116152395Y-79756000D01*
X116511605Y-79756000D01*
X117203224Y-80447619D01*
X117429862Y-80396663D01*
X117533754Y-80170170D01*
X117591463Y-79927762D01*
X117600772Y-79678752D01*
X117561323Y-79432711D01*
X117474632Y-79199095D01*
X117429862Y-79115337D01*
X117203224Y-79064381D01*
X116511605Y-79756000D01*
X116152395Y-79756000D01*
X115460776Y-79064381D01*
X115234138Y-79115337D01*
X115130246Y-79341830D01*
X115072537Y-79584238D01*
X115063228Y-79833248D01*
X112809000Y-79833248D01*
X112809000Y-79602649D01*
X112749166Y-79301840D01*
X112631796Y-79018484D01*
X112542456Y-78884776D01*
X115640381Y-78884776D01*
X116332000Y-79576395D01*
X117023619Y-78884776D01*
X116972663Y-78658138D01*
X116746170Y-78554246D01*
X116503762Y-78496537D01*
X116254752Y-78487228D01*
X116008711Y-78526677D01*
X115775095Y-78613368D01*
X115691337Y-78658138D01*
X115640381Y-78884776D01*
X112542456Y-78884776D01*
X112461401Y-78763470D01*
X112244530Y-78546599D01*
X111989516Y-78376204D01*
X111706160Y-78258834D01*
X111405351Y-78199000D01*
X111098649Y-78199000D01*
X110797840Y-78258834D01*
X110514484Y-78376204D01*
X110259470Y-78546599D01*
X110042599Y-78763470D01*
X109872204Y-79018484D01*
X109754834Y-79301840D01*
X109695000Y-79602649D01*
X100570000Y-79602649D01*
X100570000Y-78087224D01*
X113100381Y-78087224D01*
X113151337Y-78313862D01*
X113377830Y-78417754D01*
X113620238Y-78475463D01*
X113869248Y-78484772D01*
X114115289Y-78445323D01*
X114348905Y-78358632D01*
X114432663Y-78313862D01*
X114483619Y-78087224D01*
X113792000Y-77395605D01*
X113100381Y-78087224D01*
X100570000Y-78087224D01*
X100570000Y-77293248D01*
X112523228Y-77293248D01*
X112562677Y-77539289D01*
X112649368Y-77772905D01*
X112694138Y-77856663D01*
X112920776Y-77907619D01*
X113612395Y-77216000D01*
X113971605Y-77216000D01*
X114663224Y-77907619D01*
X114889862Y-77856663D01*
X114993754Y-77630170D01*
X115051463Y-77387762D01*
X115060772Y-77138752D01*
X115021323Y-76892711D01*
X114934632Y-76659095D01*
X114889862Y-76575337D01*
X114663224Y-76524381D01*
X113971605Y-77216000D01*
X113612395Y-77216000D01*
X112920776Y-76524381D01*
X112694138Y-76575337D01*
X112590246Y-76801830D01*
X112532537Y-77044238D01*
X112523228Y-77293248D01*
X100570000Y-77293248D01*
X100570000Y-76344776D01*
X113100381Y-76344776D01*
X113792000Y-77036395D01*
X114483619Y-76344776D01*
X114432663Y-76118138D01*
X114206170Y-76014246D01*
X113963762Y-75956537D01*
X113714752Y-75947228D01*
X113468711Y-75986677D01*
X113235095Y-76073368D01*
X113151337Y-76118138D01*
X113100381Y-76344776D01*
X100570000Y-76344776D01*
X100570000Y-65698000D01*
X100834515Y-65698000D01*
X100834515Y-67398000D01*
X100852413Y-67579724D01*
X100905420Y-67754464D01*
X100991499Y-67915505D01*
X101107341Y-68056659D01*
X101248495Y-68172501D01*
X101409536Y-68258580D01*
X101584276Y-68311587D01*
X101766000Y-68329485D01*
X103466000Y-68329485D01*
X103647724Y-68311587D01*
X103822464Y-68258580D01*
X103983505Y-68172501D01*
X104124659Y-68056659D01*
X104240501Y-67915505D01*
X104326580Y-67754464D01*
X104379587Y-67579724D01*
X104397485Y-67398000D01*
X104397485Y-65698000D01*
X104390545Y-65627537D01*
X108212177Y-61805905D01*
X111303000Y-61805905D01*
X111303000Y-62146095D01*
X111369368Y-62479747D01*
X111499553Y-62794041D01*
X111688552Y-63076898D01*
X111929102Y-63317448D01*
X112211959Y-63506447D01*
X112526253Y-63636632D01*
X112859905Y-63703000D01*
X113200095Y-63703000D01*
X113533747Y-63636632D01*
X113848041Y-63506447D01*
X114130898Y-63317448D01*
X114371448Y-63076898D01*
X114560447Y-62794041D01*
X114673000Y-62522314D01*
X114673000Y-62729189D01*
X114762426Y-63178761D01*
X114937840Y-63602248D01*
X115192501Y-63983376D01*
X115516624Y-64307499D01*
X115897752Y-64562160D01*
X116321239Y-64737574D01*
X116770811Y-64827000D01*
X117229189Y-64827000D01*
X117678761Y-64737574D01*
X118102248Y-64562160D01*
X118483376Y-64307499D01*
X118807499Y-63983376D01*
X119062160Y-63602248D01*
X119237574Y-63178761D01*
X119327000Y-62729189D01*
X119327000Y-62270811D01*
X119237574Y-61821239D01*
X119062160Y-61397752D01*
X118807499Y-61016624D01*
X118483376Y-60692501D01*
X118102248Y-60437840D01*
X117678761Y-60262426D01*
X117229189Y-60173000D01*
X116770811Y-60173000D01*
X116321239Y-60262426D01*
X115897752Y-60437840D01*
X115516624Y-60692501D01*
X115192501Y-61016624D01*
X114937840Y-61397752D01*
X114762426Y-61821239D01*
X114757000Y-61848517D01*
X114757000Y-61805905D01*
X114690632Y-61472253D01*
X114560447Y-61157959D01*
X114371448Y-60875102D01*
X114130898Y-60634552D01*
X113848041Y-60445553D01*
X113533747Y-60315368D01*
X113200095Y-60249000D01*
X112859905Y-60249000D01*
X112526253Y-60315368D01*
X112211959Y-60445553D01*
X111929102Y-60634552D01*
X111688552Y-60875102D01*
X111499553Y-61157959D01*
X111369368Y-61472253D01*
X111303000Y-61805905D01*
X108212177Y-61805905D01*
X111323737Y-58694345D01*
X111369368Y-58923747D01*
X111499553Y-59238041D01*
X111688552Y-59520898D01*
X111929102Y-59761448D01*
X112211959Y-59950447D01*
X112526253Y-60080632D01*
X112859905Y-60147000D01*
X113200095Y-60147000D01*
X113533747Y-60080632D01*
X113848041Y-59950447D01*
X114130898Y-59761448D01*
X114371448Y-59520898D01*
X114560447Y-59238041D01*
X114690632Y-58923747D01*
X114757000Y-58590095D01*
X114757000Y-58249905D01*
X114692770Y-57927000D01*
X116908918Y-57927000D01*
X118040526Y-59058609D01*
X118040531Y-59058613D01*
X118073000Y-59091082D01*
X118073000Y-59189793D01*
X118147053Y-59562085D01*
X118292315Y-59912777D01*
X118503201Y-60228391D01*
X118771609Y-60496799D01*
X119087223Y-60707685D01*
X119437915Y-60852947D01*
X119810207Y-60927000D01*
X120189793Y-60927000D01*
X120562085Y-60852947D01*
X120912777Y-60707685D01*
X121228391Y-60496799D01*
X121496799Y-60228391D01*
X121707685Y-59912777D01*
X121852947Y-59562085D01*
X121927000Y-59189793D01*
X121927000Y-58810207D01*
X121852947Y-58437915D01*
X121707685Y-58087223D01*
X121496799Y-57771609D01*
X121228391Y-57503201D01*
X120912777Y-57292315D01*
X120562085Y-57147053D01*
X120189793Y-57073000D01*
X120091082Y-57073000D01*
X120058613Y-57040531D01*
X120058609Y-57040526D01*
X118558609Y-55540527D01*
X118513923Y-55486077D01*
X118296634Y-55307752D01*
X118048731Y-55175245D01*
X117779741Y-55093648D01*
X117570098Y-55073000D01*
X117570088Y-55073000D01*
X117500000Y-55066097D01*
X117429912Y-55073000D01*
X111570087Y-55073000D01*
X111499999Y-55066097D01*
X111429911Y-55073000D01*
X111429902Y-55073000D01*
X111220259Y-55093648D01*
X110951269Y-55175245D01*
X110703366Y-55307752D01*
X110486077Y-55486077D01*
X110441390Y-55540528D01*
X104524491Y-61457427D01*
X104400447Y-61157959D01*
X104211448Y-60875102D01*
X103970898Y-60634552D01*
X103688041Y-60445553D01*
X103373747Y-60315368D01*
X103040095Y-60249000D01*
X102699905Y-60249000D01*
X102366253Y-60315368D01*
X102051959Y-60445553D01*
X101769102Y-60634552D01*
X101528552Y-60875102D01*
X101339553Y-61157959D01*
X101209368Y-61472253D01*
X101143000Y-61805905D01*
X101143000Y-62146095D01*
X101209368Y-62479747D01*
X101339553Y-62794041D01*
X101528552Y-63076898D01*
X101769102Y-63317448D01*
X102051959Y-63506447D01*
X102351427Y-63630491D01*
X101656523Y-64325395D01*
X101602078Y-64370077D01*
X101557396Y-64424522D01*
X101557392Y-64424526D01*
X101474422Y-64525626D01*
X101423753Y-64587366D01*
X101291245Y-64835269D01*
X101267574Y-64913301D01*
X101248495Y-64923499D01*
X101107341Y-65039341D01*
X100991499Y-65180495D01*
X100905420Y-65341536D01*
X100852413Y-65516276D01*
X100834515Y-65698000D01*
X100570000Y-65698000D01*
X100570000Y-58769039D01*
X101478096Y-58769039D01*
X101518754Y-58903087D01*
X101638963Y-59157420D01*
X101806481Y-59383414D01*
X102014869Y-59572385D01*
X102256119Y-59717070D01*
X102520960Y-59811909D01*
X102743000Y-59690624D01*
X102743000Y-58547000D01*
X102997000Y-58547000D01*
X102997000Y-59690624D01*
X103219040Y-59811909D01*
X103483881Y-59717070D01*
X103725131Y-59572385D01*
X103933519Y-59383414D01*
X104101037Y-59157420D01*
X104221246Y-58903087D01*
X104261904Y-58769039D01*
X104139915Y-58547000D01*
X102997000Y-58547000D01*
X102743000Y-58547000D01*
X101600085Y-58547000D01*
X101478096Y-58769039D01*
X100570000Y-58769039D01*
X100570000Y-58070961D01*
X101478096Y-58070961D01*
X101600085Y-58293000D01*
X102743000Y-58293000D01*
X102743000Y-57149376D01*
X102997000Y-57149376D01*
X102997000Y-58293000D01*
X104139915Y-58293000D01*
X104261904Y-58070961D01*
X104221246Y-57936913D01*
X104101037Y-57682580D01*
X103933519Y-57456586D01*
X103725131Y-57267615D01*
X103483881Y-57122930D01*
X103219040Y-57028091D01*
X102997000Y-57149376D01*
X102743000Y-57149376D01*
X102520960Y-57028091D01*
X102256119Y-57122930D01*
X102014869Y-57267615D01*
X101806481Y-57456586D01*
X101638963Y-57682580D01*
X101518754Y-57936913D01*
X101478096Y-58070961D01*
X100570000Y-58070961D01*
X100570000Y-48754000D01*
X102974184Y-48754000D01*
X102949663Y-48790698D01*
G37*
X102949663Y-48790698D02*
X102791587Y-49172328D01*
X102711000Y-49577464D01*
X102711000Y-49990536D01*
X102791587Y-50395672D01*
X102949663Y-50777302D01*
X103179154Y-51120759D01*
X103471241Y-51412846D01*
X103814698Y-51642337D01*
X104196328Y-51800413D01*
X104601464Y-51881000D01*
X104886918Y-51881000D01*
X105965390Y-52959472D01*
X106010077Y-53013923D01*
X106227366Y-53192248D01*
X106475269Y-53324755D01*
X106744259Y-53406352D01*
X106953902Y-53427000D01*
X106953911Y-53427000D01*
X107023999Y-53433903D01*
X107094087Y-53427000D01*
X122266101Y-53427000D01*
X122238413Y-53518276D01*
X122220515Y-53700000D01*
X122220515Y-55300000D01*
X122238413Y-55481724D01*
X122291420Y-55656464D01*
X122377499Y-55817505D01*
X122493341Y-55958659D01*
X122525001Y-55984641D01*
X122525000Y-60368918D01*
X113183485Y-69710433D01*
X113183485Y-69104000D01*
X113165587Y-68922276D01*
X113112580Y-68747536D01*
X113026501Y-68586495D01*
X112910659Y-68445341D01*
X112769505Y-68329499D01*
X112762959Y-68326000D01*
X112769505Y-68322501D01*
X112910659Y-68206659D01*
X113026501Y-68065505D01*
X113112580Y-67904464D01*
X113165587Y-67729724D01*
X113183485Y-67548000D01*
X113183485Y-65548000D01*
X113165587Y-65366276D01*
X113112580Y-65191536D01*
X113026501Y-65030495D01*
X112910659Y-64889341D01*
X112769505Y-64773499D01*
X112608464Y-64687420D01*
X112433724Y-64634413D01*
X112252000Y-64616515D01*
X110252000Y-64616515D01*
X110070276Y-64634413D01*
X109895536Y-64687420D01*
X109734495Y-64773499D01*
X109593341Y-64889341D01*
X109477499Y-65030495D01*
X109391420Y-65191536D01*
X109338413Y-65366276D01*
X109320515Y-65548000D01*
X109320515Y-67548000D01*
X109338413Y-67729724D01*
X109391420Y-67904464D01*
X109477499Y-68065505D01*
X109593341Y-68206659D01*
X109734495Y-68322501D01*
X109741041Y-68326000D01*
X109734495Y-68329499D01*
X109593341Y-68445341D01*
X109477499Y-68586495D01*
X109391420Y-68747536D01*
X109338413Y-68922276D01*
X109320515Y-69104000D01*
X109320515Y-71104000D01*
X109338413Y-71285724D01*
X109391420Y-71460464D01*
X109477499Y-71621505D01*
X109593341Y-71762659D01*
X109734495Y-71878501D01*
X109895536Y-71964580D01*
X110070276Y-72017587D01*
X110252000Y-72035485D01*
X110661059Y-72035485D01*
X110433959Y-72129553D01*
X110151102Y-72318552D01*
X109910552Y-72559102D01*
X109721553Y-72841959D01*
X109591368Y-73156253D01*
X109525000Y-73489905D01*
X109525000Y-73830095D01*
X109591368Y-74163747D01*
X109721553Y-74478041D01*
X109910552Y-74760898D01*
X110151102Y-75001448D01*
X110433959Y-75190447D01*
X110748253Y-75320632D01*
X111081905Y-75387000D01*
X111422095Y-75387000D01*
X111755747Y-75320632D01*
X112070041Y-75190447D01*
X112352898Y-75001448D01*
X112593448Y-74760898D01*
X112782447Y-74478041D01*
X112912632Y-74163747D01*
X112948958Y-73981124D01*
X119635482Y-67294600D01*
X119704315Y-67460777D01*
X119915201Y-67776391D01*
X120183609Y-68044799D01*
X120499223Y-68255685D01*
X120668978Y-68326000D01*
X120499223Y-68396315D01*
X120183609Y-68607201D01*
X119915201Y-68875609D01*
X119704315Y-69191223D01*
X119559053Y-69541915D01*
X119485000Y-69914207D01*
X119485000Y-70293793D01*
X119559053Y-70666085D01*
X119704315Y-71016777D01*
X119915201Y-71332391D01*
X120183609Y-71600799D01*
X120499223Y-71811685D01*
X120849915Y-71956947D01*
X120985717Y-71983959D01*
X120908253Y-71999368D01*
X120593959Y-72129553D01*
X120311102Y-72318552D01*
X120070552Y-72559102D01*
X119881553Y-72841959D01*
X119751368Y-73156253D01*
X119685000Y-73489905D01*
X119685000Y-73830095D01*
X119751368Y-74163747D01*
X119881553Y-74478041D01*
X120070552Y-74760898D01*
X120311102Y-75001448D01*
X120593959Y-75190447D01*
X120908253Y-75320632D01*
X121241905Y-75387000D01*
X121582095Y-75387000D01*
X121915747Y-75320632D01*
X122230041Y-75190447D01*
X122512898Y-75001448D01*
X122753448Y-74760898D01*
X122942447Y-74478041D01*
X123072632Y-74163747D01*
X123139000Y-73830095D01*
X123139000Y-73489905D01*
X123072632Y-73156253D01*
X122942447Y-72841959D01*
X122753448Y-72559102D01*
X122512898Y-72318552D01*
X122230041Y-72129553D01*
X121915747Y-71999368D01*
X121838283Y-71983959D01*
X121974085Y-71956947D01*
X122324777Y-71811685D01*
X122640391Y-71600799D01*
X122908799Y-71332391D01*
X123119685Y-71016777D01*
X123149000Y-70946005D01*
X123149000Y-71229189D01*
X123238426Y-71678761D01*
X123413840Y-72102248D01*
X123668501Y-72483376D01*
X123992624Y-72807499D01*
X124373752Y-73062160D01*
X124797239Y-73237574D01*
X125246811Y-73327000D01*
X125705189Y-73327000D01*
X126154761Y-73237574D01*
X126578248Y-73062160D01*
X126959376Y-72807499D01*
X127283499Y-72483376D01*
X127538160Y-72102248D01*
X127713574Y-71678761D01*
X127803000Y-71229189D01*
X127803000Y-70770811D01*
X127713574Y-70321239D01*
X127538160Y-69897752D01*
X127283499Y-69516624D01*
X126959376Y-69192501D01*
X126578248Y-68937840D01*
X126154761Y-68762426D01*
X125705189Y-68673000D01*
X125246811Y-68673000D01*
X124797239Y-68762426D01*
X124373752Y-68937840D01*
X123992624Y-69192501D01*
X123668501Y-69516624D01*
X123413840Y-69897752D01*
X123339000Y-70078432D01*
X123339000Y-69914207D01*
X123264947Y-69541915D01*
X123119685Y-69191223D01*
X122908799Y-68875609D01*
X122640391Y-68607201D01*
X122324777Y-68396315D01*
X122155022Y-68326000D01*
X122324777Y-68255685D01*
X122640391Y-68044799D01*
X122908799Y-67776391D01*
X123119685Y-67460777D01*
X123264947Y-67110085D01*
X123339000Y-66737793D01*
X123339000Y-66556000D01*
X126534515Y-66556000D01*
X126534515Y-68356000D01*
X126552413Y-68537724D01*
X126605420Y-68712464D01*
X126691499Y-68873505D01*
X126807341Y-69014659D01*
X126948495Y-69130501D01*
X127109536Y-69216580D01*
X127284276Y-69269587D01*
X127466000Y-69287485D01*
X128566000Y-69287485D01*
X128747724Y-69269587D01*
X128922464Y-69216580D01*
X129083505Y-69130501D01*
X129224659Y-69014659D01*
X129340501Y-68873505D01*
X129355349Y-68845727D01*
X129427886Y-68934114D01*
X129610713Y-69084156D01*
X129819298Y-69195647D01*
X130045626Y-69264303D01*
X130281000Y-69287485D01*
X130831000Y-69287485D01*
X131066374Y-69264303D01*
X131292702Y-69195647D01*
X131501287Y-69084156D01*
X131684114Y-68934114D01*
X131834156Y-68751287D01*
X131945647Y-68542702D01*
X132014303Y-68316374D01*
X132037485Y-68081000D01*
X132037485Y-66831000D01*
X132014303Y-66595626D01*
X131945647Y-66369298D01*
X131834156Y-66160713D01*
X131684114Y-65977886D01*
X131501287Y-65827844D01*
X131292702Y-65716353D01*
X131066374Y-65647697D01*
X130831000Y-65624515D01*
X130767485Y-65624515D01*
X130767485Y-64770000D01*
X132704677Y-64770000D01*
X132741883Y-65147758D01*
X132852071Y-65510999D01*
X133031006Y-65845763D01*
X133271813Y-66139187D01*
X133565237Y-66379994D01*
X133900001Y-66558929D01*
X134263242Y-66669117D01*
X134546342Y-66697000D01*
X135735658Y-66697000D01*
X136018758Y-66669117D01*
X136381999Y-66558929D01*
X136716763Y-66379994D01*
X137010187Y-66139187D01*
X137250994Y-65845763D01*
X137429929Y-65510999D01*
X137540117Y-65147758D01*
X137577323Y-64770000D01*
X148934677Y-64770000D01*
X148971883Y-65147758D01*
X149082071Y-65510999D01*
X149261006Y-65845763D01*
X149501813Y-66139187D01*
X149795237Y-66379994D01*
X150130001Y-66558929D01*
X150493242Y-66669117D01*
X150776342Y-66697000D01*
X151965658Y-66697000D01*
X152248758Y-66669117D01*
X152611999Y-66558929D01*
X152946763Y-66379994D01*
X153240187Y-66139187D01*
X153480994Y-65845763D01*
X153659929Y-65510999D01*
X153770117Y-65147758D01*
X153807323Y-64770000D01*
X153770117Y-64392242D01*
X153659929Y-64029001D01*
X153480994Y-63694237D01*
X153240187Y-63400813D01*
X152946763Y-63160006D01*
X152611999Y-62981071D01*
X152248758Y-62870883D01*
X151965658Y-62843000D01*
X150776342Y-62843000D01*
X150493242Y-62870883D01*
X150130001Y-62981071D01*
X149795237Y-63160006D01*
X149501813Y-63400813D01*
X149261006Y-63694237D01*
X149082071Y-64029001D01*
X148971883Y-64392242D01*
X148934677Y-64770000D01*
X137577323Y-64770000D01*
X137540117Y-64392242D01*
X137429929Y-64029001D01*
X137250994Y-63694237D01*
X137010187Y-63400813D01*
X136716763Y-63160006D01*
X136381999Y-62981071D01*
X136018758Y-62870883D01*
X135735658Y-62843000D01*
X134546342Y-62843000D01*
X134263242Y-62870883D01*
X133900001Y-62981071D01*
X133565237Y-63160006D01*
X133271813Y-63400813D01*
X133031006Y-63694237D01*
X132852071Y-64029001D01*
X132741883Y-64392242D01*
X132704677Y-64770000D01*
X130767485Y-64770000D01*
X130767485Y-64761000D01*
X130744303Y-64525626D01*
X130675647Y-64299298D01*
X130564156Y-64090713D01*
X130414114Y-63907886D01*
X130231287Y-63757844D01*
X130022702Y-63646353D01*
X129796374Y-63577697D01*
X129561000Y-63554515D01*
X129011000Y-63554515D01*
X128775626Y-63577697D01*
X128549298Y-63646353D01*
X128340713Y-63757844D01*
X128157886Y-63907886D01*
X128007844Y-64090713D01*
X127896353Y-64299298D01*
X127827697Y-64525626D01*
X127804515Y-64761000D01*
X127804515Y-65624515D01*
X127466000Y-65624515D01*
X127284276Y-65642413D01*
X127109536Y-65695420D01*
X126948495Y-65781499D01*
X126807341Y-65897341D01*
X126691499Y-66038495D01*
X126605420Y-66199536D01*
X126552413Y-66374276D01*
X126534515Y-66556000D01*
X123339000Y-66556000D01*
X123339000Y-66358207D01*
X123264947Y-65985915D01*
X123119685Y-65635223D01*
X122908799Y-65319609D01*
X122640391Y-65051201D01*
X122324777Y-64840315D01*
X122158600Y-64771482D01*
X124911477Y-62018605D01*
X124965922Y-61973923D01*
X125144248Y-61756634D01*
X125276755Y-61508731D01*
X125358352Y-61239741D01*
X125379000Y-61030098D01*
X125379000Y-61030089D01*
X125385903Y-60960001D01*
X125379000Y-60889913D01*
X125379000Y-55984641D01*
X125410659Y-55958659D01*
X125526501Y-55817505D01*
X125612580Y-55656464D01*
X125665587Y-55481724D01*
X125683485Y-55300000D01*
X125683485Y-53700000D01*
X125665587Y-53518276D01*
X125612580Y-53343536D01*
X125526501Y-53182495D01*
X125410659Y-53041341D01*
X125269505Y-52925499D01*
X125108464Y-52839420D01*
X124933724Y-52786413D01*
X124752000Y-52768515D01*
X124201567Y-52768515D01*
X124273124Y-52696958D01*
X124455747Y-52660632D01*
X124770041Y-52530447D01*
X125052898Y-52341448D01*
X125293448Y-52100898D01*
X125482447Y-51818041D01*
X125612632Y-51503747D01*
X125679000Y-51170095D01*
X125679000Y-50829905D01*
X125612632Y-50496253D01*
X125482447Y-50181959D01*
X125293448Y-49899102D01*
X125052898Y-49658552D01*
X124770041Y-49469553D01*
X124455747Y-49339368D01*
X124122095Y-49273000D01*
X123781905Y-49273000D01*
X123448253Y-49339368D01*
X123133959Y-49469553D01*
X122851102Y-49658552D01*
X122610552Y-49899102D01*
X122421553Y-50181959D01*
X122291368Y-50496253D01*
X122276102Y-50573000D01*
X116431484Y-50573000D01*
X116504257Y-50426140D01*
X116596938Y-50082878D01*
X116620873Y-49728131D01*
X116575139Y-49375530D01*
X116461495Y-49038627D01*
X116346389Y-48823275D01*
X116178500Y-48754000D01*
X129167179Y-48754000D01*
X129025553Y-48965959D01*
X128895368Y-49280253D01*
X128859042Y-49462875D01*
X126540523Y-51781395D01*
X126486078Y-51826077D01*
X126441396Y-51880522D01*
X126441392Y-51880526D01*
X126307753Y-52043366D01*
X126175246Y-52291269D01*
X126093649Y-52560259D01*
X126066097Y-52840000D01*
X126073001Y-52910097D01*
X126073000Y-57701810D01*
X126003201Y-57771609D01*
X125792315Y-58087223D01*
X125647053Y-58437915D01*
X125573000Y-58810207D01*
X125573000Y-59189793D01*
X125647053Y-59562085D01*
X125792315Y-59912777D01*
X126003201Y-60228391D01*
X126271609Y-60496799D01*
X126587223Y-60707685D01*
X126937915Y-60852947D01*
X127310207Y-60927000D01*
X127689793Y-60927000D01*
X128062085Y-60852947D01*
X128412777Y-60707685D01*
X128728391Y-60496799D01*
X128875803Y-60349387D01*
X128895368Y-60447747D01*
X129025553Y-60762041D01*
X129214552Y-61044898D01*
X129455102Y-61285448D01*
X129737959Y-61474447D01*
X130052253Y-61604632D01*
X130385905Y-61671000D01*
X130726095Y-61671000D01*
X131059747Y-61604632D01*
X131374041Y-61474447D01*
X131656898Y-61285448D01*
X131897448Y-61044898D01*
X132086447Y-60762041D01*
X132216632Y-60447747D01*
X132283000Y-60114095D01*
X132283000Y-59773905D01*
X132216632Y-59440253D01*
X132086447Y-59125959D01*
X131897448Y-58843102D01*
X131656898Y-58602552D01*
X131374041Y-58413553D01*
X131059747Y-58283368D01*
X130726095Y-58217000D01*
X130385905Y-58217000D01*
X130052253Y-58283368D01*
X129737959Y-58413553D01*
X129455102Y-58602552D01*
X129397210Y-58660444D01*
X129352947Y-58437915D01*
X129207685Y-58087223D01*
X128996799Y-57771609D01*
X128927000Y-57701810D01*
X128927000Y-53431082D01*
X129907648Y-52450434D01*
X133050876Y-52450434D01*
X133081856Y-52578355D01*
X133210990Y-52872761D01*
X133395078Y-53136317D01*
X133627046Y-53358895D01*
X133897980Y-53531942D01*
X134197468Y-53648807D01*
X134514000Y-53705000D01*
X135014000Y-53705000D01*
X135014000Y-52197000D01*
X135268000Y-52197000D01*
X135268000Y-53705000D01*
X135768000Y-53705000D01*
X136084532Y-53648807D01*
X136384020Y-53531942D01*
X136654954Y-53358895D01*
X136886922Y-53136317D01*
X137071010Y-52872761D01*
X137200144Y-52578355D01*
X137231124Y-52450434D01*
X137111777Y-52197000D01*
X135268000Y-52197000D01*
X135014000Y-52197000D01*
X133170223Y-52197000D01*
X133050876Y-52450434D01*
X129907648Y-52450434D01*
X130288082Y-52070000D01*
X148934677Y-52070000D01*
X148971883Y-52447758D01*
X149082071Y-52810999D01*
X149261006Y-53145763D01*
X149501813Y-53439187D01*
X149795237Y-53679994D01*
X150130001Y-53858929D01*
X150493242Y-53969117D01*
X150776342Y-53997000D01*
X151965658Y-53997000D01*
X152248758Y-53969117D01*
X152611999Y-53858929D01*
X152946763Y-53679994D01*
X153240187Y-53439187D01*
X153480994Y-53145763D01*
X153659929Y-52810999D01*
X153770117Y-52447758D01*
X153807323Y-52070000D01*
X153770117Y-51692242D01*
X153659929Y-51329001D01*
X153480994Y-50994237D01*
X153240187Y-50700813D01*
X152946763Y-50460006D01*
X152611999Y-50281071D01*
X152248758Y-50170883D01*
X151965658Y-50143000D01*
X150776342Y-50143000D01*
X150493242Y-50170883D01*
X150130001Y-50281071D01*
X149795237Y-50460006D01*
X149501813Y-50700813D01*
X149261006Y-50994237D01*
X149082071Y-51329001D01*
X148971883Y-51692242D01*
X148934677Y-52070000D01*
X130288082Y-52070000D01*
X130668516Y-51689566D01*
X133050876Y-51689566D01*
X133170223Y-51943000D01*
X135014000Y-51943000D01*
X135014000Y-50435000D01*
X135268000Y-50435000D01*
X135268000Y-51943000D01*
X137111777Y-51943000D01*
X137231124Y-51689566D01*
X137200144Y-51561645D01*
X137071010Y-51267239D01*
X136886922Y-51003683D01*
X136654954Y-50781105D01*
X136384020Y-50608058D01*
X136084532Y-50491193D01*
X135768000Y-50435000D01*
X135268000Y-50435000D01*
X135014000Y-50435000D01*
X134514000Y-50435000D01*
X134197468Y-50491193D01*
X133897980Y-50608058D01*
X133627046Y-50781105D01*
X133395078Y-51003683D01*
X133210990Y-51267239D01*
X133081856Y-51561645D01*
X133050876Y-51689566D01*
X130668516Y-51689566D01*
X130877125Y-51480958D01*
X131059747Y-51444632D01*
X131374041Y-51314447D01*
X131656898Y-51125448D01*
X131897448Y-50884898D01*
X132086447Y-50602041D01*
X132216632Y-50287747D01*
X132283000Y-49954095D01*
X132283000Y-49613905D01*
X132216632Y-49280253D01*
X132086447Y-48965959D01*
X131944821Y-48754000D01*
X157555045Y-48754000D01*
X157429243Y-48942275D01*
X157295289Y-49265668D01*
X157227000Y-49608981D01*
X157227000Y-49959019D01*
X157295289Y-50302332D01*
X157429243Y-50625725D01*
X157617994Y-50908211D01*
X157522178Y-50917648D01*
X157253188Y-50999245D01*
X157005285Y-51131752D01*
X156787996Y-51310077D01*
X156743309Y-51364528D01*
X156144522Y-51963315D01*
X156090077Y-52007997D01*
X156045395Y-52062442D01*
X156045391Y-52062446D01*
X155934966Y-52197000D01*
X155911752Y-52225286D01*
X155779245Y-52473189D01*
X155697648Y-52742179D01*
X155688014Y-52840000D01*
X155670096Y-53021920D01*
X155677000Y-53092018D01*
X155676999Y-62041913D01*
X155670096Y-62112001D01*
X155676999Y-62182089D01*
X155676999Y-62182098D01*
X155697647Y-62391741D01*
X155779244Y-62660731D01*
X155891573Y-62870883D01*
X155911752Y-62908635D01*
X156045391Y-63071475D01*
X156045394Y-63071478D01*
X156090076Y-63125923D01*
X156144522Y-63170606D01*
X158703388Y-65729472D01*
X158748075Y-65783923D01*
X158965364Y-65962248D01*
X159213267Y-66094755D01*
X159482257Y-66176352D01*
X159691900Y-66197000D01*
X159691909Y-66197000D01*
X159761997Y-66203903D01*
X159832085Y-66197000D01*
X168753001Y-66197000D01*
X168753000Y-77310435D01*
X168649505Y-77225499D01*
X168488464Y-77139420D01*
X168313724Y-77086413D01*
X168132000Y-77068515D01*
X166132000Y-77068515D01*
X165950276Y-77086413D01*
X165775536Y-77139420D01*
X165614495Y-77225499D01*
X165473341Y-77341341D01*
X165357499Y-77482495D01*
X165271420Y-77643536D01*
X165218413Y-77818276D01*
X165200515Y-78000000D01*
X165200515Y-78694030D01*
X165097922Y-78569021D01*
X165043477Y-78524339D01*
X161759666Y-75240528D01*
X161714979Y-75186077D01*
X161497690Y-75007752D01*
X161249787Y-74875245D01*
X160980797Y-74793648D01*
X160771154Y-74773000D01*
X160771144Y-74773000D01*
X160701056Y-74766097D01*
X160630968Y-74773000D01*
X160585033Y-74773000D01*
X160359884Y-74547851D01*
X160011512Y-74315077D01*
X159624423Y-74154739D01*
X159213491Y-74073000D01*
X158794509Y-74073000D01*
X158383577Y-74154739D01*
X157996488Y-74315077D01*
X157648116Y-74547851D01*
X157351851Y-74844116D01*
X157119077Y-75192488D01*
X156958739Y-75579577D01*
X156877000Y-75990509D01*
X156877000Y-76409491D01*
X156958739Y-76820423D01*
X157119077Y-77207512D01*
X157351851Y-77555884D01*
X157648116Y-77852149D01*
X157996488Y-78084923D01*
X158383577Y-78245261D01*
X158794509Y-78327000D01*
X159213491Y-78327000D01*
X159624423Y-78245261D01*
X160011512Y-78084923D01*
X160345041Y-77862067D01*
X161523489Y-79040515D01*
X160236000Y-79040515D01*
X160054276Y-79058413D01*
X159879536Y-79111420D01*
X159718495Y-79197499D01*
X159577341Y-79313341D01*
X159461499Y-79454495D01*
X159398156Y-79573000D01*
X156083875Y-79573000D01*
X155983376Y-79472501D01*
X155602248Y-79217840D01*
X155178761Y-79042426D01*
X154729189Y-78953000D01*
X154270811Y-78953000D01*
X153821239Y-79042426D01*
X153397752Y-79217840D01*
X153016624Y-79472501D01*
X152692501Y-79796624D01*
X152437840Y-80177752D01*
X152262426Y-80601239D01*
X152173000Y-81050811D01*
X152173000Y-81509189D01*
X152262426Y-81958761D01*
X152437840Y-82382248D01*
X152692501Y-82763376D01*
X153016624Y-83087499D01*
X153397752Y-83342160D01*
X153573001Y-83414750D01*
X153573000Y-84281343D01*
X153409553Y-84525959D01*
X153279368Y-84840253D01*
X153213000Y-85173905D01*
X153213000Y-85514095D01*
X153279368Y-85847747D01*
X153409553Y-86162041D01*
X153598552Y-86444898D01*
X153839102Y-86685448D01*
X154121959Y-86874447D01*
X154436253Y-87004632D01*
X154769905Y-87071000D01*
X155110095Y-87071000D01*
X155443747Y-87004632D01*
X155758041Y-86874447D01*
X156040898Y-86685448D01*
X156281448Y-86444898D01*
X156470447Y-86162041D01*
X156600632Y-85847747D01*
X156667000Y-85514095D01*
X156667000Y-85173905D01*
X156600632Y-84840253D01*
X156470447Y-84525959D01*
X156427000Y-84460936D01*
X156427000Y-82584530D01*
X156532258Y-82427000D01*
X159869097Y-82427000D01*
X159879536Y-82432580D01*
X160054276Y-82485587D01*
X160236000Y-82503485D01*
X161836000Y-82503485D01*
X162017724Y-82485587D01*
X162192464Y-82432580D01*
X162353505Y-82346501D01*
X162494659Y-82230659D01*
X162610501Y-82089505D01*
X162657001Y-82002511D01*
X162657001Y-83672575D01*
X162566447Y-83453959D01*
X162377448Y-83171102D01*
X162136898Y-82930552D01*
X161854041Y-82741553D01*
X161539747Y-82611368D01*
X161206095Y-82545000D01*
X160865905Y-82545000D01*
X160532253Y-82611368D01*
X160217959Y-82741553D01*
X159935102Y-82930552D01*
X159694552Y-83171102D01*
X159505553Y-83453959D01*
X159375368Y-83768253D01*
X159339042Y-83950876D01*
X159060522Y-84229395D01*
X159006078Y-84274077D01*
X158961396Y-84328522D01*
X158961392Y-84328526D01*
X158879345Y-84428501D01*
X158827753Y-84491366D01*
X158695246Y-84739269D01*
X158613649Y-85008259D01*
X158607703Y-85068635D01*
X158586097Y-85288000D01*
X158593001Y-85358097D01*
X158593000Y-90308444D01*
X158522834Y-90477840D01*
X158463000Y-90778649D01*
X158463000Y-91085351D01*
X158522834Y-91386160D01*
X158640204Y-91669516D01*
X158810599Y-91924530D01*
X159027470Y-92141401D01*
X159282484Y-92311796D01*
X159565840Y-92429166D01*
X159866649Y-92489000D01*
X160173351Y-92489000D01*
X160474160Y-92429166D01*
X160757516Y-92311796D01*
X161012530Y-92141401D01*
X161229401Y-91924530D01*
X161310455Y-91803224D01*
X164408381Y-91803224D01*
X164459337Y-92029862D01*
X164685830Y-92133754D01*
X164928238Y-92191463D01*
X165177248Y-92200772D01*
X165423289Y-92161323D01*
X165656905Y-92074632D01*
X165740663Y-92029862D01*
X165791619Y-91803224D01*
X165100000Y-91111605D01*
X164408381Y-91803224D01*
X161310455Y-91803224D01*
X161399796Y-91669516D01*
X161517166Y-91386160D01*
X161577000Y-91085351D01*
X161577000Y-91009248D01*
X163831228Y-91009248D01*
X163870677Y-91255289D01*
X163957368Y-91488905D01*
X164002138Y-91572663D01*
X164228776Y-91623619D01*
X164920395Y-90932000D01*
X165279605Y-90932000D01*
X165971224Y-91623619D01*
X166197862Y-91572663D01*
X166301754Y-91346170D01*
X166359463Y-91103762D01*
X166368772Y-90854752D01*
X166329323Y-90608711D01*
X166242632Y-90375095D01*
X166197862Y-90291337D01*
X165971224Y-90240381D01*
X165279605Y-90932000D01*
X164920395Y-90932000D01*
X164228776Y-90240381D01*
X164002138Y-90291337D01*
X163898246Y-90517830D01*
X163840537Y-90760238D01*
X163831228Y-91009248D01*
X161577000Y-91009248D01*
X161577000Y-90778649D01*
X161517166Y-90477840D01*
X161447000Y-90308444D01*
X161447000Y-90060776D01*
X164408381Y-90060776D01*
X165100000Y-90752395D01*
X165791619Y-90060776D01*
X165740663Y-89834138D01*
X165514170Y-89730246D01*
X165271762Y-89672537D01*
X165022752Y-89663228D01*
X164776711Y-89702677D01*
X164543095Y-89789368D01*
X164459337Y-89834138D01*
X164408381Y-90060776D01*
X161447000Y-90060776D01*
X161447000Y-89263224D01*
X161868381Y-89263224D01*
X161919337Y-89489862D01*
X162145830Y-89593754D01*
X162388238Y-89651463D01*
X162637248Y-89660772D01*
X162883289Y-89621323D01*
X163116905Y-89534632D01*
X163200663Y-89489862D01*
X163251619Y-89263224D01*
X162560000Y-88571605D01*
X161868381Y-89263224D01*
X161447000Y-89263224D01*
X161447000Y-89004342D01*
X161462138Y-89032663D01*
X161688776Y-89083619D01*
X162380395Y-88392000D01*
X162739605Y-88392000D01*
X163431224Y-89083619D01*
X163657862Y-89032663D01*
X163761754Y-88806170D01*
X163819463Y-88563762D01*
X163828772Y-88314752D01*
X163789323Y-88068711D01*
X163702632Y-87835095D01*
X163657862Y-87751337D01*
X163431224Y-87700381D01*
X162739605Y-88392000D01*
X162380395Y-88392000D01*
X161688776Y-87700381D01*
X161462138Y-87751337D01*
X161447000Y-87784339D01*
X161447000Y-87520776D01*
X161868381Y-87520776D01*
X162560000Y-88212395D01*
X163251619Y-87520776D01*
X163200663Y-87294138D01*
X162974170Y-87190246D01*
X162731762Y-87132537D01*
X162482752Y-87123228D01*
X162236711Y-87162677D01*
X162003095Y-87249368D01*
X161919337Y-87294138D01*
X161868381Y-87520776D01*
X161447000Y-87520776D01*
X161447000Y-85951081D01*
X161539747Y-85932632D01*
X161854041Y-85802447D01*
X162136898Y-85613448D01*
X162377448Y-85372898D01*
X162566447Y-85090041D01*
X162696632Y-84775747D01*
X162763000Y-84442095D01*
X162763000Y-84375754D01*
X162891753Y-84616634D01*
X163025392Y-84779474D01*
X163025396Y-84779478D01*
X163070078Y-84833923D01*
X163124523Y-84878605D01*
X172677390Y-94431472D01*
X172722077Y-94485923D01*
X172727410Y-94490299D01*
X172583615Y-94648869D01*
X172438930Y-94890119D01*
X172344091Y-95154960D01*
X172465376Y-95377000D01*
X173609000Y-95377000D01*
X173609000Y-95357000D01*
X173863000Y-95357000D01*
X173863000Y-95377000D01*
X175006624Y-95377000D01*
X175127909Y-95154960D01*
X175036250Y-94899000D01*
X175673308Y-94899000D01*
X175631368Y-95000253D01*
X175565000Y-95333905D01*
X175565000Y-95674095D01*
X175631368Y-96007747D01*
X175761553Y-96322041D01*
X175903179Y-96534000D01*
X174729810Y-96534000D01*
X174888385Y-96359131D01*
X175033070Y-96117881D01*
X175127909Y-95853040D01*
X175006624Y-95631000D01*
X173863000Y-95631000D01*
X173863000Y-95651000D01*
X173609000Y-95651000D01*
X173609000Y-95631000D01*
X172465376Y-95631000D01*
X172344091Y-95853040D01*
X172438930Y-96117881D01*
X172583615Y-96359131D01*
X172742190Y-96534000D01*
X171173810Y-96534000D01*
X171332385Y-96359131D01*
X171477070Y-96117881D01*
X171571909Y-95853040D01*
X171450624Y-95631000D01*
X170307000Y-95631000D01*
X170307000Y-95651000D01*
X170053000Y-95651000D01*
X170053000Y-95631000D01*
X168909376Y-95631000D01*
X168788091Y-95853040D01*
X168882930Y-96117881D01*
X169027615Y-96359131D01*
X169186190Y-96534000D01*
X155933810Y-96534000D01*
X156092385Y-96359131D01*
X156237070Y-96117881D01*
X156331909Y-95853040D01*
X156210624Y-95631000D01*
X155067000Y-95631000D01*
X155067000Y-95651000D01*
X154813000Y-95651000D01*
X154813000Y-95631000D01*
X153669376Y-95631000D01*
X153548091Y-95853040D01*
X153642930Y-96117881D01*
X153787615Y-96359131D01*
X153946190Y-96534000D01*
X100570000Y-96534000D01*
X100570000Y-91567000D01*
X103113000Y-91567000D01*
X103113000Y-92467000D01*
X103167271Y-92764023D01*
X103278446Y-93044751D01*
X103442252Y-93298396D01*
X103652394Y-93515210D01*
X103900796Y-93686862D01*
X104177913Y-93806755D01*
X104283260Y-93831036D01*
X104521000Y-93710378D01*
X104521000Y-91567000D01*
X104775000Y-91567000D01*
X104775000Y-93710378D01*
X105012740Y-93831036D01*
X105118087Y-93806755D01*
X105395204Y-93686862D01*
X105643606Y-93515210D01*
X105853748Y-93298396D01*
X106017554Y-93044751D01*
X106128729Y-92764023D01*
X106183000Y-92467000D01*
X106183000Y-91567000D01*
X104775000Y-91567000D01*
X104521000Y-91567000D01*
X103113000Y-91567000D01*
X100570000Y-91567000D01*
X100570000Y-90413000D01*
X103113000Y-90413000D01*
X103113000Y-91313000D01*
X104521000Y-91313000D01*
X104521000Y-89169622D01*
X104775000Y-89169622D01*
X104775000Y-91313000D01*
X106183000Y-91313000D01*
X106183000Y-90413000D01*
X106128729Y-90115977D01*
X106017554Y-89835249D01*
X105891461Y-89640000D01*
X107896515Y-89640000D01*
X107896515Y-93240000D01*
X107914413Y-93421724D01*
X107967420Y-93596464D01*
X108053499Y-93757505D01*
X108169341Y-93898659D01*
X108310495Y-94014501D01*
X108471536Y-94100580D01*
X108646276Y-94153587D01*
X108828000Y-94171485D01*
X110628000Y-94171485D01*
X110809724Y-94153587D01*
X110984464Y-94100580D01*
X111145505Y-94014501D01*
X111286659Y-93898659D01*
X111391828Y-93770509D01*
X113697000Y-93770509D01*
X113697000Y-94189491D01*
X113778739Y-94600423D01*
X113939077Y-94987512D01*
X114171851Y-95335884D01*
X114468116Y-95632149D01*
X114816488Y-95864923D01*
X115203577Y-96025261D01*
X115614509Y-96107000D01*
X116033491Y-96107000D01*
X116444423Y-96025261D01*
X116831512Y-95864923D01*
X117179884Y-95632149D01*
X117476149Y-95335884D01*
X117708923Y-94987512D01*
X117869261Y-94600423D01*
X117951000Y-94189491D01*
X117951000Y-93770509D01*
X134017000Y-93770509D01*
X134017000Y-94189491D01*
X134098739Y-94600423D01*
X134259077Y-94987512D01*
X134491851Y-95335884D01*
X134788116Y-95632149D01*
X135136488Y-95864923D01*
X135523577Y-96025261D01*
X135934509Y-96107000D01*
X136353491Y-96107000D01*
X136764423Y-96025261D01*
X137151512Y-95864923D01*
X137499884Y-95632149D01*
X137796149Y-95335884D01*
X137917038Y-95154960D01*
X153548091Y-95154960D01*
X153669376Y-95377000D01*
X154813000Y-95377000D01*
X154813000Y-94234085D01*
X155067000Y-94234085D01*
X155067000Y-95377000D01*
X156210624Y-95377000D01*
X156331909Y-95154960D01*
X168788091Y-95154960D01*
X168909376Y-95377000D01*
X170053000Y-95377000D01*
X170053000Y-94234085D01*
X170307000Y-94234085D01*
X170307000Y-95377000D01*
X171450624Y-95377000D01*
X171571909Y-95154960D01*
X171477070Y-94890119D01*
X171332385Y-94648869D01*
X171143414Y-94440481D01*
X170917420Y-94272963D01*
X170663087Y-94152754D01*
X170529039Y-94112096D01*
X170307000Y-94234085D01*
X170053000Y-94234085D01*
X169830961Y-94112096D01*
X169696913Y-94152754D01*
X169442580Y-94272963D01*
X169216586Y-94440481D01*
X169027615Y-94648869D01*
X168882930Y-94890119D01*
X168788091Y-95154960D01*
X156331909Y-95154960D01*
X156237070Y-94890119D01*
X156092385Y-94648869D01*
X155903414Y-94440481D01*
X155677420Y-94272963D01*
X155423087Y-94152754D01*
X155289039Y-94112096D01*
X155067000Y-94234085D01*
X154813000Y-94234085D01*
X154590961Y-94112096D01*
X154456913Y-94152754D01*
X154202580Y-94272963D01*
X153976586Y-94440481D01*
X153787615Y-94648869D01*
X153642930Y-94890119D01*
X153548091Y-95154960D01*
X137917038Y-95154960D01*
X138028923Y-94987512D01*
X138189261Y-94600423D01*
X138271000Y-94189491D01*
X138271000Y-93770509D01*
X138189261Y-93359577D01*
X138028923Y-92972488D01*
X137796149Y-92624116D01*
X137499884Y-92327851D01*
X137151512Y-92095077D01*
X136764423Y-91934739D01*
X136353491Y-91853000D01*
X135934509Y-91853000D01*
X135523577Y-91934739D01*
X135136488Y-92095077D01*
X134788116Y-92327851D01*
X134491851Y-92624116D01*
X134259077Y-92972488D01*
X134098739Y-93359577D01*
X134017000Y-93770509D01*
X117951000Y-93770509D01*
X117869261Y-93359577D01*
X117708923Y-92972488D01*
X117476149Y-92624116D01*
X117179884Y-92327851D01*
X116831512Y-92095077D01*
X116444423Y-91934739D01*
X116033491Y-91853000D01*
X115614509Y-91853000D01*
X115203577Y-91934739D01*
X114816488Y-92095077D01*
X114468116Y-92327851D01*
X114171851Y-92624116D01*
X113939077Y-92972488D01*
X113778739Y-93359577D01*
X113697000Y-93770509D01*
X111391828Y-93770509D01*
X111402501Y-93757505D01*
X111488580Y-93596464D01*
X111541587Y-93421724D01*
X111559485Y-93240000D01*
X111559485Y-89640000D01*
X111541587Y-89458276D01*
X111488580Y-89283536D01*
X111402501Y-89122495D01*
X111286659Y-88981341D01*
X111145505Y-88865499D01*
X110984464Y-88779420D01*
X110809724Y-88726413D01*
X110628000Y-88708515D01*
X108828000Y-88708515D01*
X108646276Y-88726413D01*
X108471536Y-88779420D01*
X108310495Y-88865499D01*
X108169341Y-88981341D01*
X108053499Y-89122495D01*
X107967420Y-89283536D01*
X107914413Y-89458276D01*
X107896515Y-89640000D01*
X105891461Y-89640000D01*
X105853748Y-89581604D01*
X105643606Y-89364790D01*
X105395204Y-89193138D01*
X105118087Y-89073245D01*
X105012740Y-89048964D01*
X104775000Y-89169622D01*
X104521000Y-89169622D01*
X104283260Y-89048964D01*
X104177913Y-89073245D01*
X103900796Y-89193138D01*
X103652394Y-89364790D01*
X103442252Y-89581604D01*
X103278446Y-89835249D01*
X103167271Y-90115977D01*
X103113000Y-90413000D01*
X100570000Y-90413000D01*
X100570000Y-88162811D01*
X116037000Y-88162811D01*
X116037000Y-88621189D01*
X116126426Y-89070761D01*
X116301840Y-89494248D01*
X116556501Y-89875376D01*
X116880624Y-90199499D01*
X117261752Y-90454160D01*
X117685239Y-90629574D01*
X118134811Y-90719000D01*
X118593189Y-90719000D01*
X119042761Y-90629574D01*
X119466248Y-90454160D01*
X119472107Y-90450245D01*
X139905000Y-90450245D01*
X139905000Y-92429754D01*
X139931435Y-92698154D01*
X140035905Y-93042545D01*
X140205555Y-93359937D01*
X140433865Y-93638135D01*
X140712062Y-93866445D01*
X141029454Y-94036095D01*
X141373845Y-94140565D01*
X141732000Y-94175840D01*
X142090154Y-94140565D01*
X142434545Y-94036095D01*
X142751937Y-93866445D01*
X143030135Y-93638135D01*
X143258445Y-93359938D01*
X143322553Y-93240000D01*
X145273928Y-93240000D01*
X145286188Y-93364482D01*
X145322498Y-93484180D01*
X145381463Y-93594494D01*
X145460815Y-93691185D01*
X145557506Y-93770537D01*
X145667820Y-93829502D01*
X145787518Y-93865812D01*
X145912000Y-93878072D01*
X146526250Y-93875000D01*
X146685000Y-93716250D01*
X146685000Y-91567000D01*
X146939000Y-91567000D01*
X146939000Y-93716250D01*
X147097750Y-93875000D01*
X147712000Y-93878072D01*
X147836482Y-93865812D01*
X147956180Y-93829502D01*
X148066494Y-93770537D01*
X148163185Y-93691185D01*
X148242537Y-93594494D01*
X148301502Y-93484180D01*
X148337812Y-93364482D01*
X148350072Y-93240000D01*
X148347000Y-91725750D01*
X148188250Y-91567000D01*
X146939000Y-91567000D01*
X146685000Y-91567000D01*
X145435750Y-91567000D01*
X145277000Y-91725750D01*
X145273928Y-93240000D01*
X143322553Y-93240000D01*
X143428095Y-93042546D01*
X143532565Y-92698155D01*
X143559000Y-92429755D01*
X143559000Y-90450245D01*
X143532565Y-90181845D01*
X143428095Y-89837454D01*
X143322554Y-89640000D01*
X145273928Y-89640000D01*
X145277000Y-91154250D01*
X145435750Y-91313000D01*
X146685000Y-91313000D01*
X146685000Y-89163750D01*
X146939000Y-89163750D01*
X146939000Y-91313000D01*
X148188250Y-91313000D01*
X148347000Y-91154250D01*
X148350072Y-89640000D01*
X148337812Y-89515518D01*
X148301502Y-89395820D01*
X148242537Y-89285506D01*
X148163185Y-89188815D01*
X148066494Y-89109463D01*
X147956180Y-89050498D01*
X147836482Y-89014188D01*
X147712000Y-89001928D01*
X147097750Y-89005000D01*
X146939000Y-89163750D01*
X146685000Y-89163750D01*
X146526250Y-89005000D01*
X145912000Y-89001928D01*
X145787518Y-89014188D01*
X145667820Y-89050498D01*
X145557506Y-89109463D01*
X145460815Y-89188815D01*
X145381463Y-89285506D01*
X145322498Y-89395820D01*
X145286188Y-89515518D01*
X145273928Y-89640000D01*
X143322554Y-89640000D01*
X143258445Y-89520062D01*
X143030135Y-89241865D01*
X142751938Y-89013555D01*
X142434546Y-88843905D01*
X142090155Y-88739435D01*
X141732000Y-88704160D01*
X141373846Y-88739435D01*
X141029455Y-88843905D01*
X140712063Y-89013555D01*
X140433866Y-89241865D01*
X140205556Y-89520062D01*
X140035906Y-89837454D01*
X139931436Y-90181845D01*
X139905000Y-90450245D01*
X119472107Y-90450245D01*
X119847376Y-90199499D01*
X120171499Y-89875376D01*
X120426160Y-89494248D01*
X120601574Y-89070761D01*
X120691000Y-88621189D01*
X120691000Y-88162811D01*
X120601574Y-87713239D01*
X120426160Y-87289752D01*
X120171499Y-86908624D01*
X119847376Y-86584501D01*
X119466248Y-86329840D01*
X119042761Y-86154426D01*
X118593189Y-86065000D01*
X118134811Y-86065000D01*
X117685239Y-86154426D01*
X117261752Y-86329840D01*
X116880624Y-86584501D01*
X116556501Y-86908624D01*
X116301840Y-87289752D01*
X116126426Y-87713239D01*
X116037000Y-88162811D01*
X100570000Y-88162811D01*
X100570000Y-79602649D01*
X109695000Y-79602649D01*
X109695000Y-79909351D01*
X109754834Y-80210160D01*
X109872204Y-80493516D01*
X110042599Y-80748530D01*
X110259470Y-80965401D01*
X110514484Y-81135796D01*
X110797840Y-81253166D01*
X111098649Y-81313000D01*
X111405351Y-81313000D01*
X111706160Y-81253166D01*
X111989516Y-81135796D01*
X112244530Y-80965401D01*
X112461401Y-80748530D01*
X112542455Y-80627224D01*
X115640381Y-80627224D01*
X115691337Y-80853862D01*
X115917830Y-80957754D01*
X116160238Y-81015463D01*
X116409248Y-81024772D01*
X116655289Y-80985323D01*
X116888905Y-80898632D01*
X116972663Y-80853862D01*
X117023619Y-80627224D01*
X116984395Y-80588000D01*
X123344515Y-80588000D01*
X123344515Y-82988000D01*
X123362413Y-83169724D01*
X123415420Y-83344464D01*
X123501499Y-83505505D01*
X123617341Y-83646659D01*
X123758495Y-83762501D01*
X123919536Y-83848580D01*
X124094276Y-83901587D01*
X124276000Y-83919485D01*
X126676000Y-83919485D01*
X126857724Y-83901587D01*
X127032464Y-83848580D01*
X127193505Y-83762501D01*
X127334659Y-83646659D01*
X127450501Y-83505505D01*
X127536580Y-83344464D01*
X127589587Y-83169724D01*
X127599804Y-83065980D01*
X131877626Y-83065980D01*
X131997514Y-83350836D01*
X132321210Y-83511699D01*
X132670069Y-83606322D01*
X133030684Y-83631067D01*
X133389198Y-83584985D01*
X133731833Y-83469846D01*
X133954486Y-83350836D01*
X134074374Y-83065980D01*
X132976000Y-81967605D01*
X131877626Y-83065980D01*
X127599804Y-83065980D01*
X127607485Y-82988000D01*
X127607485Y-81842684D01*
X131132933Y-81842684D01*
X131179015Y-82201198D01*
X131294154Y-82543833D01*
X131413164Y-82766486D01*
X131698020Y-82886374D01*
X132796395Y-81788000D01*
X133155605Y-81788000D01*
X134253980Y-82886374D01*
X134538836Y-82766486D01*
X134699699Y-82442790D01*
X134794322Y-82093931D01*
X134819067Y-81733316D01*
X134772985Y-81374802D01*
X134657846Y-81032167D01*
X134538836Y-80809514D01*
X134253980Y-80689626D01*
X133155605Y-81788000D01*
X132796395Y-81788000D01*
X131698020Y-80689626D01*
X131413164Y-80809514D01*
X131252301Y-81133210D01*
X131157678Y-81482069D01*
X131132933Y-81842684D01*
X127607485Y-81842684D01*
X127607485Y-80588000D01*
X127599805Y-80510020D01*
X131877626Y-80510020D01*
X132976000Y-81608395D01*
X134074374Y-80510020D01*
X133954486Y-80225164D01*
X133630790Y-80064301D01*
X133281931Y-79969678D01*
X132921316Y-79944933D01*
X132562802Y-79991015D01*
X132220167Y-80106154D01*
X131997514Y-80225164D01*
X131877626Y-80510020D01*
X127599805Y-80510020D01*
X127589587Y-80406276D01*
X127536580Y-80231536D01*
X127450501Y-80070495D01*
X127334659Y-79929341D01*
X127193505Y-79813499D01*
X127032464Y-79727420D01*
X126857724Y-79674413D01*
X126676000Y-79656515D01*
X124276000Y-79656515D01*
X124094276Y-79674413D01*
X123919536Y-79727420D01*
X123758495Y-79813499D01*
X123617341Y-79929341D01*
X123501499Y-80070495D01*
X123415420Y-80231536D01*
X123362413Y-80406276D01*
X123344515Y-80588000D01*
X116984395Y-80588000D01*
X116332000Y-79935605D01*
X115640381Y-80627224D01*
X112542455Y-80627224D01*
X112631796Y-80493516D01*
X112749166Y-80210160D01*
X112809000Y-79909351D01*
X112809000Y-79833248D01*
X115063228Y-79833248D01*
X115102677Y-80079289D01*
X115189368Y-80312905D01*
X115234138Y-80396663D01*
X115460776Y-80447619D01*
X116152395Y-79756000D01*
X116511605Y-79756000D01*
X117203224Y-80447619D01*
X117429862Y-80396663D01*
X117533754Y-80170170D01*
X117591463Y-79927762D01*
X117600772Y-79678752D01*
X117561323Y-79432711D01*
X117474632Y-79199095D01*
X117429862Y-79115337D01*
X117203224Y-79064381D01*
X116511605Y-79756000D01*
X116152395Y-79756000D01*
X115460776Y-79064381D01*
X115234138Y-79115337D01*
X115130246Y-79341830D01*
X115072537Y-79584238D01*
X115063228Y-79833248D01*
X112809000Y-79833248D01*
X112809000Y-79602649D01*
X112749166Y-79301840D01*
X112631796Y-79018484D01*
X112542456Y-78884776D01*
X115640381Y-78884776D01*
X116332000Y-79576395D01*
X117023619Y-78884776D01*
X116972663Y-78658138D01*
X116746170Y-78554246D01*
X116503762Y-78496537D01*
X116254752Y-78487228D01*
X116008711Y-78526677D01*
X115775095Y-78613368D01*
X115691337Y-78658138D01*
X115640381Y-78884776D01*
X112542456Y-78884776D01*
X112461401Y-78763470D01*
X112244530Y-78546599D01*
X111989516Y-78376204D01*
X111706160Y-78258834D01*
X111405351Y-78199000D01*
X111098649Y-78199000D01*
X110797840Y-78258834D01*
X110514484Y-78376204D01*
X110259470Y-78546599D01*
X110042599Y-78763470D01*
X109872204Y-79018484D01*
X109754834Y-79301840D01*
X109695000Y-79602649D01*
X100570000Y-79602649D01*
X100570000Y-78087224D01*
X113100381Y-78087224D01*
X113151337Y-78313862D01*
X113377830Y-78417754D01*
X113620238Y-78475463D01*
X113869248Y-78484772D01*
X114115289Y-78445323D01*
X114348905Y-78358632D01*
X114432663Y-78313862D01*
X114483619Y-78087224D01*
X113792000Y-77395605D01*
X113100381Y-78087224D01*
X100570000Y-78087224D01*
X100570000Y-77293248D01*
X112523228Y-77293248D01*
X112562677Y-77539289D01*
X112649368Y-77772905D01*
X112694138Y-77856663D01*
X112920776Y-77907619D01*
X113612395Y-77216000D01*
X113971605Y-77216000D01*
X114663224Y-77907619D01*
X114889862Y-77856663D01*
X114993754Y-77630170D01*
X115051463Y-77387762D01*
X115060772Y-77138752D01*
X115021323Y-76892711D01*
X114934632Y-76659095D01*
X114889862Y-76575337D01*
X114663224Y-76524381D01*
X113971605Y-77216000D01*
X113612395Y-77216000D01*
X112920776Y-76524381D01*
X112694138Y-76575337D01*
X112590246Y-76801830D01*
X112532537Y-77044238D01*
X112523228Y-77293248D01*
X100570000Y-77293248D01*
X100570000Y-76344776D01*
X113100381Y-76344776D01*
X113792000Y-77036395D01*
X114483619Y-76344776D01*
X114432663Y-76118138D01*
X114206170Y-76014246D01*
X113963762Y-75956537D01*
X113714752Y-75947228D01*
X113468711Y-75986677D01*
X113235095Y-76073368D01*
X113151337Y-76118138D01*
X113100381Y-76344776D01*
X100570000Y-76344776D01*
X100570000Y-65698000D01*
X100834515Y-65698000D01*
X100834515Y-67398000D01*
X100852413Y-67579724D01*
X100905420Y-67754464D01*
X100991499Y-67915505D01*
X101107341Y-68056659D01*
X101248495Y-68172501D01*
X101409536Y-68258580D01*
X101584276Y-68311587D01*
X101766000Y-68329485D01*
X103466000Y-68329485D01*
X103647724Y-68311587D01*
X103822464Y-68258580D01*
X103983505Y-68172501D01*
X104124659Y-68056659D01*
X104240501Y-67915505D01*
X104326580Y-67754464D01*
X104379587Y-67579724D01*
X104397485Y-67398000D01*
X104397485Y-65698000D01*
X104390545Y-65627537D01*
X108212177Y-61805905D01*
X111303000Y-61805905D01*
X111303000Y-62146095D01*
X111369368Y-62479747D01*
X111499553Y-62794041D01*
X111688552Y-63076898D01*
X111929102Y-63317448D01*
X112211959Y-63506447D01*
X112526253Y-63636632D01*
X112859905Y-63703000D01*
X113200095Y-63703000D01*
X113533747Y-63636632D01*
X113848041Y-63506447D01*
X114130898Y-63317448D01*
X114371448Y-63076898D01*
X114560447Y-62794041D01*
X114673000Y-62522314D01*
X114673000Y-62729189D01*
X114762426Y-63178761D01*
X114937840Y-63602248D01*
X115192501Y-63983376D01*
X115516624Y-64307499D01*
X115897752Y-64562160D01*
X116321239Y-64737574D01*
X116770811Y-64827000D01*
X117229189Y-64827000D01*
X117678761Y-64737574D01*
X118102248Y-64562160D01*
X118483376Y-64307499D01*
X118807499Y-63983376D01*
X119062160Y-63602248D01*
X119237574Y-63178761D01*
X119327000Y-62729189D01*
X119327000Y-62270811D01*
X119237574Y-61821239D01*
X119062160Y-61397752D01*
X118807499Y-61016624D01*
X118483376Y-60692501D01*
X118102248Y-60437840D01*
X117678761Y-60262426D01*
X117229189Y-60173000D01*
X116770811Y-60173000D01*
X116321239Y-60262426D01*
X115897752Y-60437840D01*
X115516624Y-60692501D01*
X115192501Y-61016624D01*
X114937840Y-61397752D01*
X114762426Y-61821239D01*
X114757000Y-61848517D01*
X114757000Y-61805905D01*
X114690632Y-61472253D01*
X114560447Y-61157959D01*
X114371448Y-60875102D01*
X114130898Y-60634552D01*
X113848041Y-60445553D01*
X113533747Y-60315368D01*
X113200095Y-60249000D01*
X112859905Y-60249000D01*
X112526253Y-60315368D01*
X112211959Y-60445553D01*
X111929102Y-60634552D01*
X111688552Y-60875102D01*
X111499553Y-61157959D01*
X111369368Y-61472253D01*
X111303000Y-61805905D01*
X108212177Y-61805905D01*
X111323737Y-58694345D01*
X111369368Y-58923747D01*
X111499553Y-59238041D01*
X111688552Y-59520898D01*
X111929102Y-59761448D01*
X112211959Y-59950447D01*
X112526253Y-60080632D01*
X112859905Y-60147000D01*
X113200095Y-60147000D01*
X113533747Y-60080632D01*
X113848041Y-59950447D01*
X114130898Y-59761448D01*
X114371448Y-59520898D01*
X114560447Y-59238041D01*
X114690632Y-58923747D01*
X114757000Y-58590095D01*
X114757000Y-58249905D01*
X114692770Y-57927000D01*
X116908918Y-57927000D01*
X118040526Y-59058609D01*
X118040531Y-59058613D01*
X118073000Y-59091082D01*
X118073000Y-59189793D01*
X118147053Y-59562085D01*
X118292315Y-59912777D01*
X118503201Y-60228391D01*
X118771609Y-60496799D01*
X119087223Y-60707685D01*
X119437915Y-60852947D01*
X119810207Y-60927000D01*
X120189793Y-60927000D01*
X120562085Y-60852947D01*
X120912777Y-60707685D01*
X121228391Y-60496799D01*
X121496799Y-60228391D01*
X121707685Y-59912777D01*
X121852947Y-59562085D01*
X121927000Y-59189793D01*
X121927000Y-58810207D01*
X121852947Y-58437915D01*
X121707685Y-58087223D01*
X121496799Y-57771609D01*
X121228391Y-57503201D01*
X120912777Y-57292315D01*
X120562085Y-57147053D01*
X120189793Y-57073000D01*
X120091082Y-57073000D01*
X120058613Y-57040531D01*
X120058609Y-57040526D01*
X118558609Y-55540527D01*
X118513923Y-55486077D01*
X118296634Y-55307752D01*
X118048731Y-55175245D01*
X117779741Y-55093648D01*
X117570098Y-55073000D01*
X117570088Y-55073000D01*
X117500000Y-55066097D01*
X117429912Y-55073000D01*
X111570087Y-55073000D01*
X111499999Y-55066097D01*
X111429911Y-55073000D01*
X111429902Y-55073000D01*
X111220259Y-55093648D01*
X110951269Y-55175245D01*
X110703366Y-55307752D01*
X110486077Y-55486077D01*
X110441390Y-55540528D01*
X104524491Y-61457427D01*
X104400447Y-61157959D01*
X104211448Y-60875102D01*
X103970898Y-60634552D01*
X103688041Y-60445553D01*
X103373747Y-60315368D01*
X103040095Y-60249000D01*
X102699905Y-60249000D01*
X102366253Y-60315368D01*
X102051959Y-60445553D01*
X101769102Y-60634552D01*
X101528552Y-60875102D01*
X101339553Y-61157959D01*
X101209368Y-61472253D01*
X101143000Y-61805905D01*
X101143000Y-62146095D01*
X101209368Y-62479747D01*
X101339553Y-62794041D01*
X101528552Y-63076898D01*
X101769102Y-63317448D01*
X102051959Y-63506447D01*
X102351427Y-63630491D01*
X101656523Y-64325395D01*
X101602078Y-64370077D01*
X101557396Y-64424522D01*
X101557392Y-64424526D01*
X101474422Y-64525626D01*
X101423753Y-64587366D01*
X101291245Y-64835269D01*
X101267574Y-64913301D01*
X101248495Y-64923499D01*
X101107341Y-65039341D01*
X100991499Y-65180495D01*
X100905420Y-65341536D01*
X100852413Y-65516276D01*
X100834515Y-65698000D01*
X100570000Y-65698000D01*
X100570000Y-58769039D01*
X101478096Y-58769039D01*
X101518754Y-58903087D01*
X101638963Y-59157420D01*
X101806481Y-59383414D01*
X102014869Y-59572385D01*
X102256119Y-59717070D01*
X102520960Y-59811909D01*
X102743000Y-59690624D01*
X102743000Y-58547000D01*
X102997000Y-58547000D01*
X102997000Y-59690624D01*
X103219040Y-59811909D01*
X103483881Y-59717070D01*
X103725131Y-59572385D01*
X103933519Y-59383414D01*
X104101037Y-59157420D01*
X104221246Y-58903087D01*
X104261904Y-58769039D01*
X104139915Y-58547000D01*
X102997000Y-58547000D01*
X102743000Y-58547000D01*
X101600085Y-58547000D01*
X101478096Y-58769039D01*
X100570000Y-58769039D01*
X100570000Y-58070961D01*
X101478096Y-58070961D01*
X101600085Y-58293000D01*
X102743000Y-58293000D01*
X102743000Y-57149376D01*
X102997000Y-57149376D01*
X102997000Y-58293000D01*
X104139915Y-58293000D01*
X104261904Y-58070961D01*
X104221246Y-57936913D01*
X104101037Y-57682580D01*
X103933519Y-57456586D01*
X103725131Y-57267615D01*
X103483881Y-57122930D01*
X103219040Y-57028091D01*
X102997000Y-57149376D01*
X102743000Y-57149376D01*
X102520960Y-57028091D01*
X102256119Y-57122930D01*
X102014869Y-57267615D01*
X101806481Y-57456586D01*
X101638963Y-57682580D01*
X101518754Y-57936913D01*
X101478096Y-58070961D01*
X100570000Y-58070961D01*
X100570000Y-48754000D01*
X102974184Y-48754000D01*
X102949663Y-48790698D01*
G36*
X115001748Y-49769858D02*
G01*
X114987605Y-49784000D01*
X115001748Y-49798143D01*
X114822143Y-49977748D01*
X114808000Y-49963605D01*
X114793858Y-49977748D01*
X114614253Y-49798143D01*
X114628395Y-49784000D01*
X114614253Y-49769858D01*
X114793858Y-49590253D01*
X114808000Y-49604395D01*
X114822143Y-49590253D01*
X115001748Y-49769858D01*
G37*
X115001748Y-49769858D02*
X114987605Y-49784000D01*
X115001748Y-49798143D01*
X114822143Y-49977748D01*
X114808000Y-49963605D01*
X114793858Y-49977748D01*
X114614253Y-49798143D01*
X114628395Y-49784000D01*
X114614253Y-49769858D01*
X114793858Y-49590253D01*
X114808000Y-49604395D01*
X114822143Y-49590253D01*
X115001748Y-49769858D01*
M02*
