M48
; DRILL file {KiCad (5.1.5-0-10_14)} date Sunday, 13 September 2020 at 21:21:28
; FORMAT={-:-/ absolute / metric / decimal}
; #@! TF.CreationDate,2020-09-13T21:21:28+01:00
; #@! TF.GenerationSoftware,Kicad,Pcbnew,(5.1.5-0-10_14)
FMAT,2
METRIC
T1C0.700
T2C0.750
T3C0.800
T4C1.000
T5C1.200
T6C1.300
T7C1.500
T8C1.600
%
G90
G05
T1
X111.252Y-79.756
X113.792Y-77.216
X116.332Y-79.756
X160.02Y-90.932
X162.56Y-88.392
X165.1Y-90.932
T2
X181.864Y-80.772
X183.134Y-82.042
X184.404Y-80.772
X128.016Y-67.056
X129.286Y-65.786
X130.556Y-67.056
T3
X130.556Y-49.784
X130.556Y-59.944
X102.87Y-61.976
X113.03Y-61.976
X173.736Y-85.344
X173.736Y-95.504
X161.036Y-80.772
X161.036Y-84.272
X177.292Y-85.344
X177.292Y-95.504
X172.292Y-75.692
X177.292Y-75.692
X185.928Y-93.472
X196.088Y-93.472
X185.928Y-90.424
X196.088Y-90.424
X154.94Y-85.344
X154.94Y-95.504
X123.952Y-51.0
X123.952Y-54.5
X170.18Y-85.344
X170.18Y-95.504
X102.87Y-58.42
X113.03Y-58.42
X111.252Y-73.66
X121.412Y-73.66
X185.928Y-87.376
X196.088Y-87.376
T4
X164.084Y-49.784
X164.084Y-52.324
X164.084Y-54.864
X159.004Y-49.784
X159.004Y-52.324
X159.004Y-54.864
X120.0Y-59.0
X127.5Y-59.0
X185.928Y-75.692
X195.928Y-75.692
X111.252Y-66.548
X121.412Y-66.548
X167.132Y-79.0
X177.292Y-79.0
X167.132Y-82.296
X177.292Y-82.296
X111.252Y-70.104
X121.412Y-70.104
X196.088Y-82.804
X102.616Y-66.548
T5
X104.648Y-91.44
X109.728Y-91.44
X141.732Y-91.44
X146.812Y-91.44
X159.004Y-61.2
X159.004Y-76.2
X193.548Y-54.356
X193.548Y-59.436
X125.476Y-81.788
X132.976Y-81.788
X115.824Y-93.98
X136.144Y-93.98
T6
X104.808Y-49.784
X109.808Y-49.784
X114.808Y-49.784
T7
X171.222Y-52.07
X171.222Y-64.77
X187.452Y-52.07
X187.452Y-64.77
X135.141Y-52.07
X135.141Y-64.77
X151.371Y-52.07
X151.371Y-64.77
T8
X125.476Y-71.0
X117.0Y-62.5
X118.364Y-88.392
X181.864Y-93.472
X154.5Y-81.28
T0
M30
