M48
; DRILL file {KiCad (5.1.5-0-10_14)} date Sunday, 13 September 2020 at 21:20:50
; FORMAT={-:-/ absolute / metric / decimal}
; #@! TF.CreationDate,2020-09-13T21:20:50+01:00
; #@! TF.GenerationSoftware,Kicad,Pcbnew,(5.1.5-0-10_14)
FMAT,2
METRIC
T1C0.700
T2C0.800
T3C1.000
T4C1.200
T5C1.500
T6C1.600
T7C2.000
T8C3.200
T9C2.500
T10C3.200
%
G90
G05
T1
X211.46Y-77.46
X214.0Y-74.92
X214.0Y-80.0
X192.5Y-131.5
X195.04Y-128.96
X197.58Y-131.5
T2
X180.5Y-120.0
X180.5Y-132.5
X215.0Y-115.0
X215.0Y-135.0
X221.0Y-130.5
X221.0Y-140.66
X195.5Y-120.0
X195.5Y-122.0
X190.5Y-116.5
X190.5Y-126.66
X184.5Y-121.5
X184.5Y-131.66
X220.0Y-79.84
X220.0Y-90.0
X186.0Y-95.0
X186.0Y-115.0
X213.5Y-85.5
X213.5Y-87.5
X225.0Y-128.5
X225.0Y-141.0
T3
X201.0Y-71.0
X201.0Y-78.5
X208.0Y-119.0
X208.0Y-126.5
X201.0Y-82.5
X201.0Y-90.0
X208.0Y-131.0
X208.0Y-138.5
T4
X178.5Y-103.42
X178.5Y-108.5
X207.0Y-64.0
X212.08Y-64.0
X226.5Y-85.0
X226.5Y-90.08
X202.0Y-120.5
X202.0Y-135.74
X207.0Y-74.76
X207.0Y-90.0
X177.76Y-70.0
X193.0Y-70.0
X184.94Y-146.5
X190.02Y-146.5
X195.1Y-146.5
X200.18Y-146.5
X205.26Y-146.5
X210.34Y-146.5
X215.42Y-146.5
X220.5Y-146.5
X182.5Y-79.0
X182.5Y-86.5
X195.0Y-76.0
X195.0Y-91.24
X219.0Y-98.0
X219.0Y-113.24
X226.5Y-103.5
X226.5Y-108.58
X187.0Y-64.0
X192.08Y-64.0
T5
X202.498Y-113.096
X202.533Y-96.809
T6
X179.5Y-115.5
X229.0Y-118.0
X227.0Y-76.0
T7
X192.0Y-101.588
X192.0Y-108.412
X196.011Y-113.932
X196.011Y-96.068
X202.5Y-93.96
X202.5Y-116.04
X208.989Y-96.068
X208.989Y-113.931
X213.0Y-101.588
T8
X177.5Y-147.5
T9
X202.5Y-105.0
T10
X227.5Y-147.5
X227.5Y-62.5
X177.5Y-62.5
T0
M30
