%TF.GenerationSoftware,KiCad,Pcbnew,(5.1.5-0-10_14)*%
%TF.CreationDate,2020-09-13T21:20:46+01:00*%
%TF.ProjectId,PrePCB,50726550-4342-42e6-9b69-6361645f7063,rev?*%
%TF.SameCoordinates,Original*%
%TF.FileFunction,Copper,L2,Bot*%
%TF.FilePolarity,Positive*%
%FSLAX46Y46*%
G04 Gerber Fmt 4.6, Leading zero omitted, Abs format (unit mm)*
G04 Created by KiCad (PCBNEW (5.1.5-0-10_14)) date 2020-09-13 21:20:46*
%MOMM*%
%LPD*%
G04 APERTURE LIST*
%ADD10C,3.000000*%
%ADD11C,2.500000*%
%ADD12C,2.000000*%
%ADD13R,2.400000X2.400000*%
%ADD14C,2.400000*%
%ADD15C,1.600000*%
%ADD16O,1.600000X1.600000*%
%ADD17C,6.400000*%
%ADD18C,1.260000*%
%ADD19C,2.800000*%
%ADD20R,1.800000X3.600000*%
%ADD21O,1.800000X3.600000*%
%ADD22R,3.600000X1.800000*%
%ADD23O,3.600000X1.800000*%
%ADD24R,1.600000X1.600000*%
%ADD25O,2.400000X2.400000*%
%ADD26C,1.000000*%
%ADD27C,2.000000*%
%ADD28C,0.800000*%
G04 APERTURE END LIST*
D10*
X208989435Y-113931484D03*
X202500041Y-116040367D03*
X196010602Y-113931820D03*
X192000019Y-108411708D03*
X191999956Y-101588329D03*
X196010688Y-96068136D03*
X202499959Y-93959633D03*
X208989398Y-96068180D03*
X212999981Y-101588292D03*
D11*
X202498210Y-113095678D03*
X202532691Y-96809217D03*
D12*
X201000000Y-90000000D03*
X201000000Y-82500000D03*
D13*
X182500000Y-79000000D03*
D14*
X182500000Y-86500000D03*
D15*
X225000000Y-128500000D03*
D16*
X225000000Y-141000000D03*
D15*
X186000000Y-115000000D03*
D16*
X186000000Y-95000000D03*
D15*
X180500000Y-120000000D03*
D16*
X180500000Y-132500000D03*
D12*
X208000000Y-119000000D03*
X208000000Y-126500000D03*
D15*
X215000000Y-135000000D03*
D16*
X215000000Y-115000000D03*
D17*
X177500000Y-147500000D03*
D12*
X201000000Y-71000000D03*
X201000000Y-78500000D03*
X208000000Y-131000000D03*
X208000000Y-138500000D03*
D15*
X220000000Y-90000000D03*
D16*
X220000000Y-79840000D03*
D15*
X184500000Y-121500000D03*
D16*
X184500000Y-131660000D03*
D15*
X190500000Y-116500000D03*
D16*
X190500000Y-126660000D03*
D15*
X221000000Y-130500000D03*
D16*
X221000000Y-140660000D03*
D18*
X214000000Y-74920000D03*
X211460000Y-77460000D03*
X214000000Y-80000000D03*
X197580000Y-131500000D03*
X195040000Y-128960000D03*
X192500000Y-131500000D03*
D19*
X227000000Y-76000000D03*
X179500000Y-115500000D03*
X229000000Y-118000000D03*
D20*
X207000000Y-64000000D03*
D21*
X212080000Y-64000000D03*
D22*
X226500000Y-103500000D03*
D23*
X226500000Y-108580000D03*
D22*
X226500000Y-85000000D03*
D23*
X226500000Y-90080000D03*
D22*
X178500000Y-108500000D03*
D23*
X178500000Y-103420000D03*
D20*
X187000000Y-64000000D03*
D21*
X192080000Y-64000000D03*
D20*
X220500000Y-146500000D03*
D21*
X215420000Y-146500000D03*
X210340000Y-146500000D03*
X205260000Y-146500000D03*
X200180000Y-146500000D03*
X195100000Y-146500000D03*
X190020000Y-146500000D03*
X184940000Y-146500000D03*
D24*
X213500000Y-87500000D03*
D15*
X213500000Y-85500000D03*
D24*
X195500000Y-120000000D03*
D15*
X195500000Y-122000000D03*
D14*
X207000000Y-90000000D03*
D25*
X207000000Y-74760000D03*
D14*
X195000000Y-76000000D03*
D25*
X195000000Y-91240000D03*
D14*
X202000000Y-120500000D03*
D25*
X202000000Y-135740000D03*
D14*
X219000000Y-98000000D03*
D25*
X219000000Y-113240000D03*
D14*
X193000000Y-70000000D03*
D25*
X177760000Y-70000000D03*
D26*
X220000000Y-90000000D02*
X220000000Y-85000000D01*
X227000000Y-78000000D02*
X227000000Y-76000000D01*
X220000000Y-85000000D02*
X227000000Y-78000000D01*
X201000000Y-71000000D02*
X201000000Y-74000000D01*
X207000000Y-80000000D02*
X214000000Y-80000000D01*
X201000000Y-74000000D02*
X207000000Y-80000000D01*
X213500000Y-87500000D02*
X215000000Y-87500000D01*
X216000000Y-82000000D02*
X214000000Y-80000000D01*
X216000000Y-86500000D02*
X216000000Y-82000000D01*
X215000000Y-87500000D02*
X216000000Y-86500000D01*
X220000000Y-90000000D02*
X215057578Y-90000000D01*
X215057578Y-90000000D02*
X213500000Y-91557578D01*
X213500000Y-87500000D02*
X213500000Y-91557578D01*
X213500000Y-91557578D02*
X208989398Y-96068180D01*
X226500000Y-90080000D02*
X220080000Y-90080000D01*
D27*
X220080000Y-90080000D02*
X220000000Y-90000000D01*
D26*
X200180000Y-146500000D02*
X200180000Y-147680000D01*
X200180000Y-147680000D02*
X202500000Y-150000000D01*
X215420000Y-148580000D02*
X215420000Y-146500000D01*
X214000000Y-150000000D02*
X215420000Y-148580000D01*
X202500000Y-150000000D02*
X214000000Y-150000000D01*
X190500000Y-126660000D02*
X180160000Y-126660000D01*
X174500000Y-94500000D02*
X182500000Y-86500000D01*
X174500000Y-121000000D02*
X174500000Y-94500000D01*
X180160000Y-126660000D02*
X174500000Y-121000000D01*
X195040000Y-128960000D02*
X197580000Y-131500000D01*
X195500000Y-122000000D02*
X195500000Y-128500000D01*
X195500000Y-128500000D02*
X195040000Y-128960000D01*
X201000000Y-82500000D02*
X186500000Y-82500000D01*
X186500000Y-82500000D02*
X182500000Y-86500000D01*
X190500000Y-126660000D02*
X192740000Y-126660000D01*
X192740000Y-126660000D02*
X195040000Y-128960000D01*
X197580000Y-131500000D02*
X197580000Y-143900000D01*
X197580000Y-143900000D02*
X200180000Y-146500000D01*
X195000000Y-91240000D02*
X199760000Y-91240000D01*
X199760000Y-91240000D02*
X201000000Y-90000000D01*
X195000000Y-91240000D02*
X195000000Y-95057448D01*
X195000000Y-95057448D02*
X196010688Y-96068136D01*
X186000000Y-95000000D02*
X194942552Y-95000000D01*
X194942552Y-95000000D02*
X196010688Y-96068136D01*
X184500000Y-121500000D02*
X184500000Y-116500000D01*
X184500000Y-116500000D02*
X186000000Y-115000000D01*
X184500000Y-121500000D02*
X182000000Y-121500000D01*
X182000000Y-121500000D02*
X180500000Y-120000000D01*
X195000000Y-76000000D02*
X182500000Y-76000000D01*
D27*
X177760000Y-70000000D02*
X181000000Y-70000000D01*
X181000000Y-70000000D02*
X187000000Y-64000000D01*
D26*
X182500000Y-79000000D02*
X182500000Y-76000000D01*
X182500000Y-76000000D02*
X182500000Y-74740000D01*
X182500000Y-74740000D02*
X177760000Y-70000000D01*
X215000000Y-115000000D02*
X217240000Y-115000000D01*
X217240000Y-115000000D02*
X219000000Y-113240000D01*
X208989435Y-113931484D02*
X213931484Y-113931484D01*
X213931484Y-113931484D02*
X215000000Y-115000000D01*
X208000000Y-119000000D02*
X208000000Y-114920919D01*
X208000000Y-114920919D02*
X208989435Y-113931484D01*
X225000000Y-128500000D02*
X223000000Y-128500000D01*
X223000000Y-128500000D02*
X221000000Y-130500000D01*
X221000000Y-130500000D02*
X219500000Y-130500000D01*
X219500000Y-130500000D02*
X215000000Y-135000000D01*
X207000000Y-64000000D02*
X207000000Y-74760000D01*
X207000000Y-90000000D02*
X207000000Y-84500000D01*
X207000000Y-84500000D02*
X201000000Y-78500000D01*
D27*
X202499959Y-93959633D02*
X203040367Y-93959633D01*
D26*
X203040367Y-93959633D02*
X207000000Y-90000000D01*
D27*
X202499959Y-93959633D02*
X202499959Y-96776485D01*
D26*
X202499959Y-96776485D02*
X202532691Y-96809217D01*
X202000000Y-120500000D02*
X202000000Y-125000000D01*
X202000000Y-125000000D02*
X208000000Y-131000000D01*
X202000000Y-120500000D02*
X202000000Y-116540408D01*
D27*
X202000000Y-116540408D02*
X202500041Y-116040367D01*
X202500041Y-116040367D02*
X202500041Y-113097509D01*
D26*
X202500041Y-113097509D02*
X202498210Y-113095678D01*
X202000000Y-116540408D02*
X202500041Y-116040367D01*
D27*
X192000019Y-108411708D02*
X192000019Y-101588392D01*
X192000019Y-101588392D02*
X191999956Y-101588329D01*
D26*
X184500000Y-131660000D02*
X184500000Y-133500000D01*
X195100000Y-144100000D02*
X195100000Y-146500000D01*
X184500000Y-133500000D02*
X195100000Y-144100000D01*
X184500000Y-131660000D02*
X181340000Y-131660000D01*
X181340000Y-131660000D02*
X180500000Y-132500000D01*
X195500000Y-120000000D02*
X195500000Y-114442422D01*
X195500000Y-114442422D02*
X196010602Y-113931820D01*
X190500000Y-116500000D02*
X193442422Y-116500000D01*
X193442422Y-116500000D02*
X196010602Y-113931820D01*
X220500000Y-146500000D02*
X220500000Y-141160000D01*
X220500000Y-141160000D02*
X221000000Y-140660000D01*
X225000000Y-141000000D02*
X221340000Y-141000000D01*
X221340000Y-141000000D02*
X221000000Y-140660000D01*
X202000000Y-135740000D02*
X202000000Y-139000000D01*
X205260000Y-142260000D02*
X205260000Y-146500000D01*
X202000000Y-139000000D02*
X205260000Y-142260000D01*
D27*
X192080000Y-64000000D02*
X192080000Y-69080000D01*
X192080000Y-69080000D02*
X193000000Y-70000000D01*
D28*
G36*
X231225000Y-116407811D02*
G01*
X230811267Y-116330155D01*
X229141421Y-118000000D01*
X230811267Y-119669845D01*
X231225000Y-119592189D01*
X231225000Y-151225000D01*
X215187057Y-151225000D01*
X215207897Y-151207897D01*
X215261128Y-151143035D01*
X216563036Y-149841127D01*
X216627897Y-149787897D01*
X216737873Y-149653892D01*
X216840336Y-149529040D01*
X216840337Y-149529039D01*
X216998194Y-149233709D01*
X217095402Y-148913258D01*
X217120000Y-148663510D01*
X217120000Y-148663501D01*
X217122765Y-148635424D01*
X217174535Y-148572343D01*
X217369535Y-148207524D01*
X217489615Y-147811672D01*
X217520000Y-147503167D01*
X217520000Y-145496834D01*
X217489615Y-145188328D01*
X217369535Y-144792476D01*
X217320106Y-144700000D01*
X218394194Y-144700000D01*
X218394194Y-148300000D01*
X218417363Y-148535241D01*
X218485981Y-148761442D01*
X218597409Y-148969910D01*
X218747366Y-149152634D01*
X218930090Y-149302591D01*
X219138558Y-149414019D01*
X219364759Y-149482637D01*
X219600000Y-149505806D01*
X221400000Y-149505806D01*
X221635241Y-149482637D01*
X221861442Y-149414019D01*
X222069910Y-149302591D01*
X222252634Y-149152634D01*
X222402591Y-148969910D01*
X222514019Y-148761442D01*
X222582637Y-148535241D01*
X222605806Y-148300000D01*
X222605806Y-147224224D01*
X224700000Y-147224224D01*
X224700000Y-147775776D01*
X224807602Y-148316730D01*
X225018672Y-148826297D01*
X225325098Y-149284896D01*
X225715104Y-149674902D01*
X226173703Y-149981328D01*
X226683270Y-150192398D01*
X227224224Y-150300000D01*
X227775776Y-150300000D01*
X228316730Y-150192398D01*
X228826297Y-149981328D01*
X229284896Y-149674902D01*
X229674902Y-149284896D01*
X229981328Y-148826297D01*
X230192398Y-148316730D01*
X230300000Y-147775776D01*
X230300000Y-147224224D01*
X230192398Y-146683270D01*
X229981328Y-146173703D01*
X229674902Y-145715104D01*
X229284896Y-145325098D01*
X228826297Y-145018672D01*
X228316730Y-144807602D01*
X227775776Y-144700000D01*
X227224224Y-144700000D01*
X226683270Y-144807602D01*
X226173703Y-145018672D01*
X225715104Y-145325098D01*
X225325098Y-145715104D01*
X225018672Y-146173703D01*
X224807602Y-146683270D01*
X224700000Y-147224224D01*
X222605806Y-147224224D01*
X222605806Y-144700000D01*
X222582637Y-144464759D01*
X222514019Y-144238558D01*
X222402591Y-144030090D01*
X222252634Y-143847366D01*
X222200000Y-143804171D01*
X222200000Y-142700000D01*
X223944325Y-142700000D01*
X224052645Y-142772377D01*
X224416622Y-142923141D01*
X224803017Y-143000000D01*
X225196983Y-143000000D01*
X225583378Y-142923141D01*
X225947355Y-142772377D01*
X226274926Y-142553501D01*
X226553501Y-142274926D01*
X226772377Y-141947355D01*
X226923141Y-141583378D01*
X227000000Y-141196983D01*
X227000000Y-140803017D01*
X226923141Y-140416622D01*
X226772377Y-140052645D01*
X226553501Y-139725074D01*
X226274926Y-139446499D01*
X225947355Y-139227623D01*
X225583378Y-139076859D01*
X225196983Y-139000000D01*
X224803017Y-139000000D01*
X224416622Y-139076859D01*
X224052645Y-139227623D01*
X223944325Y-139300000D01*
X222468427Y-139300000D01*
X222274926Y-139106499D01*
X221947355Y-138887623D01*
X221583378Y-138736859D01*
X221196983Y-138660000D01*
X220803017Y-138660000D01*
X220416622Y-138736859D01*
X220052645Y-138887623D01*
X219725074Y-139106499D01*
X219446499Y-139385074D01*
X219227623Y-139712645D01*
X219076859Y-140076622D01*
X219032637Y-140298942D01*
X218921807Y-140506291D01*
X218824599Y-140826742D01*
X218791776Y-141160000D01*
X218800001Y-141243510D01*
X218800001Y-143804170D01*
X218747366Y-143847366D01*
X218597409Y-144030090D01*
X218485981Y-144238558D01*
X218417363Y-144464759D01*
X218394194Y-144700000D01*
X217320106Y-144700000D01*
X217174535Y-144427657D01*
X216912109Y-144107891D01*
X216592343Y-143845465D01*
X216227524Y-143650465D01*
X215831672Y-143530385D01*
X215420000Y-143489839D01*
X215008329Y-143530385D01*
X214612477Y-143650465D01*
X214247658Y-143845465D01*
X213927892Y-144107891D01*
X213665466Y-144427657D01*
X213470466Y-144792476D01*
X213350386Y-145188328D01*
X213320000Y-145496833D01*
X213320000Y-147503166D01*
X213350385Y-147811671D01*
X213451345Y-148144492D01*
X213295837Y-148300000D01*
X212452157Y-148300000D01*
X212576297Y-147946786D01*
X212640000Y-147500000D01*
X212640000Y-146600000D01*
X210440000Y-146600000D01*
X210440000Y-146620000D01*
X210240000Y-146620000D01*
X210240000Y-146600000D01*
X208040000Y-146600000D01*
X208040000Y-147500000D01*
X208103703Y-147946786D01*
X208227843Y-148300000D01*
X207160106Y-148300000D01*
X207209535Y-148207524D01*
X207329615Y-147811672D01*
X207360000Y-147503167D01*
X207360000Y-145500000D01*
X208040000Y-145500000D01*
X208040000Y-146400000D01*
X210240000Y-146400000D01*
X210240000Y-143652566D01*
X210440000Y-143652566D01*
X210440000Y-146400000D01*
X212640000Y-146400000D01*
X212640000Y-145500000D01*
X212576297Y-145053214D01*
X212426655Y-144627440D01*
X212196823Y-144239041D01*
X211895635Y-143902943D01*
X211534665Y-143632062D01*
X211127784Y-143436808D01*
X210798228Y-143346108D01*
X210440000Y-143652566D01*
X210240000Y-143652566D01*
X209881772Y-143346108D01*
X209552216Y-143436808D01*
X209145335Y-143632062D01*
X208784365Y-143902943D01*
X208483177Y-144239041D01*
X208253345Y-144627440D01*
X208103703Y-145053214D01*
X208040000Y-145500000D01*
X207360000Y-145500000D01*
X207360000Y-145496834D01*
X207329615Y-145188328D01*
X207209535Y-144792476D01*
X207014535Y-144427657D01*
X206960000Y-144361206D01*
X206960000Y-142343499D01*
X206968224Y-142259999D01*
X206960000Y-142176499D01*
X206960000Y-142176490D01*
X206935402Y-141926742D01*
X206838194Y-141606291D01*
X206680337Y-141310961D01*
X206624873Y-141243378D01*
X206521131Y-141116968D01*
X206521128Y-141116965D01*
X206467897Y-141052103D01*
X206403036Y-140998873D01*
X203700000Y-138295837D01*
X203700000Y-138283319D01*
X205800000Y-138283319D01*
X205800000Y-138716681D01*
X205884545Y-139141716D01*
X206050385Y-139542091D01*
X206291148Y-139902418D01*
X206597582Y-140208852D01*
X206957909Y-140449615D01*
X207358284Y-140615455D01*
X207783319Y-140700000D01*
X208216681Y-140700000D01*
X208641716Y-140615455D01*
X209042091Y-140449615D01*
X209402418Y-140208852D01*
X209708852Y-139902418D01*
X209949615Y-139542091D01*
X210115455Y-139141716D01*
X210200000Y-138716681D01*
X210200000Y-138283319D01*
X210115455Y-137858284D01*
X209949615Y-137457909D01*
X209708852Y-137097582D01*
X209402418Y-136791148D01*
X209042091Y-136550385D01*
X208641716Y-136384545D01*
X208216681Y-136300000D01*
X207783319Y-136300000D01*
X207358284Y-136384545D01*
X206957909Y-136550385D01*
X206597582Y-136791148D01*
X206291148Y-137097582D01*
X206050385Y-137457909D01*
X205884545Y-137858284D01*
X205800000Y-138283319D01*
X203700000Y-138283319D01*
X203700000Y-137434113D01*
X203864202Y-137269911D01*
X204126853Y-136876826D01*
X204307770Y-136440054D01*
X204400000Y-135976379D01*
X204400000Y-135503621D01*
X204307770Y-135039946D01*
X204209631Y-134803017D01*
X213000000Y-134803017D01*
X213000000Y-135196983D01*
X213076859Y-135583378D01*
X213227623Y-135947355D01*
X213446499Y-136274926D01*
X213725074Y-136553501D01*
X214052645Y-136772377D01*
X214416622Y-136923141D01*
X214803017Y-137000000D01*
X215196983Y-137000000D01*
X215583378Y-136923141D01*
X215947355Y-136772377D01*
X216274926Y-136553501D01*
X216553501Y-136274926D01*
X216772377Y-135947355D01*
X216923141Y-135583378D01*
X216948556Y-135455607D01*
X220108606Y-132295557D01*
X220416622Y-132423141D01*
X220803017Y-132500000D01*
X221196983Y-132500000D01*
X221583378Y-132423141D01*
X221947355Y-132272377D01*
X222274926Y-132053501D01*
X222553501Y-131774926D01*
X222772377Y-131447355D01*
X222923141Y-131083378D01*
X222948556Y-130955607D01*
X223704163Y-130200000D01*
X223944325Y-130200000D01*
X224052645Y-130272377D01*
X224416622Y-130423141D01*
X224803017Y-130500000D01*
X225196983Y-130500000D01*
X225583378Y-130423141D01*
X225947355Y-130272377D01*
X226274926Y-130053501D01*
X226553501Y-129774926D01*
X226772377Y-129447355D01*
X226923141Y-129083378D01*
X227000000Y-128696983D01*
X227000000Y-128303017D01*
X226923141Y-127916622D01*
X226772377Y-127552645D01*
X226553501Y-127225074D01*
X226274926Y-126946499D01*
X225947355Y-126727623D01*
X225583378Y-126576859D01*
X225196983Y-126500000D01*
X224803017Y-126500000D01*
X224416622Y-126576859D01*
X224052645Y-126727623D01*
X223944325Y-126800000D01*
X223083499Y-126800000D01*
X222999999Y-126791776D01*
X222916499Y-126800000D01*
X222916490Y-126800000D01*
X222666742Y-126824598D01*
X222346291Y-126921806D01*
X222300094Y-126946499D01*
X222050960Y-127079663D01*
X221856968Y-127238869D01*
X221856965Y-127238872D01*
X221792103Y-127292103D01*
X221738872Y-127356965D01*
X220544393Y-128551444D01*
X220416622Y-128576859D01*
X220052645Y-128727623D01*
X219944325Y-128800000D01*
X219583499Y-128800000D01*
X219499999Y-128791776D01*
X219416499Y-128800000D01*
X219416490Y-128800000D01*
X219166742Y-128824598D01*
X218846291Y-128921806D01*
X218800094Y-128946499D01*
X218550960Y-129079663D01*
X218356968Y-129238869D01*
X218356965Y-129238872D01*
X218292103Y-129292103D01*
X218238872Y-129356965D01*
X214544393Y-133051444D01*
X214416622Y-133076859D01*
X214052645Y-133227623D01*
X213725074Y-133446499D01*
X213446499Y-133725074D01*
X213227623Y-134052645D01*
X213076859Y-134416622D01*
X213000000Y-134803017D01*
X204209631Y-134803017D01*
X204126853Y-134603174D01*
X203864202Y-134210089D01*
X203529911Y-133875798D01*
X203136826Y-133613147D01*
X202700054Y-133432230D01*
X202236379Y-133340000D01*
X201763621Y-133340000D01*
X201299946Y-133432230D01*
X200863174Y-133613147D01*
X200470089Y-133875798D01*
X200135798Y-134210089D01*
X199873147Y-134603174D01*
X199692230Y-135039946D01*
X199600000Y-135503621D01*
X199600000Y-135976379D01*
X199692230Y-136440054D01*
X199873147Y-136876826D01*
X200135798Y-137269911D01*
X200300001Y-137434114D01*
X200300001Y-138916491D01*
X200291776Y-139000000D01*
X200324599Y-139333258D01*
X200421807Y-139653709D01*
X200579663Y-139949039D01*
X200738868Y-140143031D01*
X200738877Y-140143040D01*
X200792104Y-140207897D01*
X200856961Y-140261124D01*
X203560000Y-142964163D01*
X203560000Y-144361207D01*
X203505466Y-144427657D01*
X203310466Y-144792476D01*
X203190386Y-145188328D01*
X203160000Y-145496833D01*
X203160000Y-147503166D01*
X203190385Y-147811671D01*
X203310465Y-148207523D01*
X203359895Y-148300000D01*
X203204163Y-148300000D01*
X202280000Y-147375837D01*
X202280000Y-145496834D01*
X202249615Y-145188328D01*
X202129535Y-144792476D01*
X201934535Y-144427657D01*
X201672109Y-144107891D01*
X201352343Y-143845465D01*
X200987524Y-143650465D01*
X200591672Y-143530385D01*
X200180000Y-143489839D01*
X199768329Y-143530385D01*
X199650340Y-143566177D01*
X199280000Y-143195837D01*
X199280000Y-132177858D01*
X199339675Y-132033791D01*
X199410000Y-131680239D01*
X199410000Y-131319761D01*
X199339675Y-130966209D01*
X199201725Y-130633170D01*
X199001454Y-130333443D01*
X198746557Y-130078546D01*
X198446830Y-129878275D01*
X198302763Y-129818600D01*
X197188135Y-128703972D01*
X197200000Y-128583510D01*
X197200000Y-128583501D01*
X197208224Y-128500001D01*
X197200000Y-128416501D01*
X197200000Y-123055675D01*
X197272377Y-122947355D01*
X197423141Y-122583378D01*
X197500000Y-122196983D01*
X197500000Y-121803017D01*
X197423141Y-121416622D01*
X197382944Y-121319579D01*
X197414019Y-121261442D01*
X197482637Y-121035241D01*
X197505806Y-120800000D01*
X197505806Y-120263621D01*
X199600000Y-120263621D01*
X199600000Y-120736379D01*
X199692230Y-121200054D01*
X199873147Y-121636826D01*
X200135798Y-122029911D01*
X200300000Y-122194113D01*
X200300001Y-124916490D01*
X200291776Y-125000000D01*
X200324599Y-125333258D01*
X200421807Y-125653709D01*
X200579663Y-125949039D01*
X200738868Y-126143031D01*
X200738877Y-126143040D01*
X200792104Y-126207897D01*
X200856961Y-126261124D01*
X205800000Y-131204163D01*
X205800000Y-131216681D01*
X205884545Y-131641716D01*
X206050385Y-132042091D01*
X206291148Y-132402418D01*
X206597582Y-132708852D01*
X206957909Y-132949615D01*
X207358284Y-133115455D01*
X207783319Y-133200000D01*
X208216681Y-133200000D01*
X208641716Y-133115455D01*
X209042091Y-132949615D01*
X209402418Y-132708852D01*
X209708852Y-132402418D01*
X209949615Y-132042091D01*
X210115455Y-131641716D01*
X210200000Y-131216681D01*
X210200000Y-130783319D01*
X210115455Y-130358284D01*
X209949615Y-129957909D01*
X209708852Y-129597582D01*
X209402418Y-129291148D01*
X209042091Y-129050385D01*
X208641716Y-128884545D01*
X208216681Y-128800000D01*
X208204163Y-128800000D01*
X208104163Y-128700000D01*
X208216681Y-128700000D01*
X208641716Y-128615455D01*
X209042091Y-128449615D01*
X209402418Y-128208852D01*
X209708852Y-127902418D01*
X209949615Y-127542091D01*
X210115455Y-127141716D01*
X210200000Y-126716681D01*
X210200000Y-126283319D01*
X210115455Y-125858284D01*
X209949615Y-125457909D01*
X209708852Y-125097582D01*
X209402418Y-124791148D01*
X209042091Y-124550385D01*
X208641716Y-124384545D01*
X208216681Y-124300000D01*
X207783319Y-124300000D01*
X207358284Y-124384545D01*
X206957909Y-124550385D01*
X206597582Y-124791148D01*
X206291148Y-125097582D01*
X206050385Y-125457909D01*
X205884545Y-125858284D01*
X205800000Y-126283319D01*
X205800000Y-126395837D01*
X203700000Y-124295837D01*
X203700000Y-122194113D01*
X203864202Y-122029911D01*
X204126853Y-121636826D01*
X204307770Y-121200054D01*
X204400000Y-120736379D01*
X204400000Y-120263621D01*
X204307770Y-119799946D01*
X204126853Y-119363174D01*
X203864202Y-118970089D01*
X203700000Y-118805887D01*
X203700000Y-118783319D01*
X205800000Y-118783319D01*
X205800000Y-119216681D01*
X205884545Y-119641716D01*
X206050385Y-120042091D01*
X206291148Y-120402418D01*
X206597582Y-120708852D01*
X206957909Y-120949615D01*
X207358284Y-121115455D01*
X207783319Y-121200000D01*
X208216681Y-121200000D01*
X208641716Y-121115455D01*
X209042091Y-120949615D01*
X209402418Y-120708852D01*
X209708852Y-120402418D01*
X209949615Y-120042091D01*
X210045224Y-119811267D01*
X227330155Y-119811267D01*
X227428185Y-120333549D01*
X227913640Y-120595356D01*
X228440843Y-120757425D01*
X228989533Y-120813528D01*
X229538627Y-120761509D01*
X230067021Y-120603366D01*
X230554410Y-120345177D01*
X230571815Y-120333549D01*
X230669845Y-119811267D01*
X229000000Y-118141421D01*
X227330155Y-119811267D01*
X210045224Y-119811267D01*
X210115455Y-119641716D01*
X210200000Y-119216681D01*
X210200000Y-118783319D01*
X210115455Y-118358284D01*
X209962715Y-117989533D01*
X226186472Y-117989533D01*
X226238491Y-118538627D01*
X226396634Y-119067021D01*
X226654823Y-119554410D01*
X226666451Y-119571815D01*
X227188733Y-119669845D01*
X228858579Y-118000000D01*
X227188733Y-116330155D01*
X226666451Y-116428185D01*
X226404644Y-116913640D01*
X226242575Y-117440843D01*
X226186472Y-117989533D01*
X209962715Y-117989533D01*
X209949615Y-117957909D01*
X209708852Y-117597582D01*
X209700000Y-117588730D01*
X209700000Y-116543040D01*
X209776996Y-116527724D01*
X210268365Y-116324193D01*
X210710585Y-116028711D01*
X211086662Y-115652634D01*
X211100794Y-115631484D01*
X213096785Y-115631484D01*
X213227623Y-115947355D01*
X213446499Y-116274926D01*
X213725074Y-116553501D01*
X214052645Y-116772377D01*
X214416622Y-116923141D01*
X214803017Y-117000000D01*
X215196983Y-117000000D01*
X215583378Y-116923141D01*
X215947355Y-116772377D01*
X216055675Y-116700000D01*
X217156500Y-116700000D01*
X217240000Y-116708224D01*
X217323500Y-116700000D01*
X217323510Y-116700000D01*
X217573258Y-116675402D01*
X217893709Y-116578194D01*
X218189039Y-116420337D01*
X218245958Y-116373625D01*
X218383031Y-116261132D01*
X218383035Y-116261128D01*
X218447897Y-116207897D01*
X218463624Y-116188733D01*
X227330155Y-116188733D01*
X229000000Y-117858579D01*
X230669845Y-116188733D01*
X230571815Y-115666451D01*
X230086360Y-115404644D01*
X229559157Y-115242575D01*
X229010467Y-115186472D01*
X228461373Y-115238491D01*
X227932979Y-115396634D01*
X227445590Y-115654823D01*
X227428185Y-115666451D01*
X227330155Y-116188733D01*
X218463624Y-116188733D01*
X218501131Y-116143032D01*
X219004163Y-115640000D01*
X219236379Y-115640000D01*
X219700054Y-115547770D01*
X220136826Y-115366853D01*
X220529911Y-115104202D01*
X220864202Y-114769911D01*
X221126853Y-114376826D01*
X221307770Y-113940054D01*
X221400000Y-113476379D01*
X221400000Y-113003621D01*
X221307770Y-112539946D01*
X221126853Y-112103174D01*
X220864202Y-111710089D01*
X220529911Y-111375798D01*
X220136826Y-111113147D01*
X219700054Y-110932230D01*
X219236379Y-110840000D01*
X218763621Y-110840000D01*
X218299946Y-110932230D01*
X217863174Y-111113147D01*
X217470089Y-111375798D01*
X217135798Y-111710089D01*
X216873147Y-112103174D01*
X216692230Y-112539946D01*
X216600000Y-113003621D01*
X216600000Y-113235837D01*
X216535837Y-113300000D01*
X216055675Y-113300000D01*
X215947355Y-113227623D01*
X215583378Y-113076859D01*
X215455606Y-113051444D01*
X215192613Y-112788450D01*
X215139381Y-112723587D01*
X215074519Y-112670356D01*
X215074515Y-112670352D01*
X214880523Y-112511147D01*
X214754525Y-112443800D01*
X214585193Y-112353290D01*
X214264742Y-112256082D01*
X214014994Y-112231484D01*
X214014984Y-112231484D01*
X213931484Y-112223260D01*
X213847984Y-112231484D01*
X211100794Y-112231484D01*
X211086662Y-112210334D01*
X210710585Y-111834257D01*
X210268365Y-111538775D01*
X209776996Y-111335244D01*
X209255362Y-111231484D01*
X208723508Y-111231484D01*
X208201874Y-111335244D01*
X207710505Y-111538775D01*
X207268285Y-111834257D01*
X206892208Y-112210334D01*
X206596726Y-112652554D01*
X206393195Y-113143923D01*
X206289435Y-113665557D01*
X206289435Y-114197411D01*
X206350244Y-114503119D01*
X206324599Y-114587661D01*
X206291776Y-114920919D01*
X206300001Y-115004429D01*
X206300000Y-117588730D01*
X206291148Y-117597582D01*
X206050385Y-117957909D01*
X205884545Y-118358284D01*
X205800000Y-118783319D01*
X203700000Y-118783319D01*
X203700000Y-118465787D01*
X203778971Y-118433076D01*
X204221191Y-118137594D01*
X204597268Y-117761517D01*
X204892750Y-117319297D01*
X205096281Y-116827928D01*
X205200041Y-116306294D01*
X205200041Y-115774440D01*
X205096281Y-115252806D01*
X204892750Y-114761437D01*
X204700041Y-114473028D01*
X204700041Y-114182147D01*
X204854058Y-113810317D01*
X204948210Y-113336982D01*
X204948210Y-112854374D01*
X204854058Y-112381039D01*
X204669372Y-111935168D01*
X204401250Y-111533894D01*
X204059994Y-111192638D01*
X203658720Y-110924516D01*
X203212849Y-110739830D01*
X202739514Y-110645678D01*
X202256906Y-110645678D01*
X201783571Y-110739830D01*
X201337700Y-110924516D01*
X200936426Y-111192638D01*
X200595170Y-111533894D01*
X200327048Y-111935168D01*
X200142362Y-112381039D01*
X200048210Y-112854374D01*
X200048210Y-113336982D01*
X200142362Y-113810317D01*
X200300041Y-114190987D01*
X200300041Y-114473028D01*
X200107332Y-114761437D01*
X199903801Y-115252806D01*
X199800041Y-115774440D01*
X199800041Y-116306294D01*
X199808317Y-116347901D01*
X199789357Y-116540408D01*
X199831834Y-116971683D01*
X199957631Y-117386384D01*
X200161917Y-117768576D01*
X200300001Y-117936831D01*
X200300000Y-118805887D01*
X200135798Y-118970089D01*
X199873147Y-119363174D01*
X199692230Y-119799946D01*
X199600000Y-120263621D01*
X197505806Y-120263621D01*
X197505806Y-119200000D01*
X197482637Y-118964759D01*
X197414019Y-118738558D01*
X197302591Y-118530090D01*
X197200000Y-118405082D01*
X197200000Y-116361614D01*
X197289532Y-116324529D01*
X197731752Y-116029047D01*
X198107829Y-115652970D01*
X198403311Y-115210750D01*
X198606842Y-114719381D01*
X198710602Y-114197747D01*
X198710602Y-113665893D01*
X198606842Y-113144259D01*
X198403311Y-112652890D01*
X198107829Y-112210670D01*
X197731752Y-111834593D01*
X197289532Y-111539111D01*
X196798163Y-111335580D01*
X196276529Y-111231820D01*
X195744675Y-111231820D01*
X195223041Y-111335580D01*
X194731672Y-111539111D01*
X194289452Y-111834593D01*
X193913375Y-112210670D01*
X193617893Y-112652890D01*
X193414362Y-113144259D01*
X193310602Y-113665893D01*
X193310602Y-114197747D01*
X193315564Y-114222694D01*
X192738259Y-114800000D01*
X191555675Y-114800000D01*
X191447355Y-114727623D01*
X191083378Y-114576859D01*
X190696983Y-114500000D01*
X190303017Y-114500000D01*
X189916622Y-114576859D01*
X189552645Y-114727623D01*
X189225074Y-114946499D01*
X188946499Y-115225074D01*
X188727623Y-115552645D01*
X188576859Y-115916622D01*
X188500000Y-116303017D01*
X188500000Y-116696983D01*
X188576859Y-117083378D01*
X188727623Y-117447355D01*
X188946499Y-117774926D01*
X189225074Y-118053501D01*
X189552645Y-118272377D01*
X189916622Y-118423141D01*
X190303017Y-118500000D01*
X190696983Y-118500000D01*
X191083378Y-118423141D01*
X191447355Y-118272377D01*
X191555675Y-118200000D01*
X193358922Y-118200000D01*
X193442422Y-118208224D01*
X193525922Y-118200000D01*
X193525932Y-118200000D01*
X193775680Y-118175402D01*
X193800000Y-118168024D01*
X193800000Y-118405082D01*
X193697409Y-118530090D01*
X193585981Y-118738558D01*
X193517363Y-118964759D01*
X193494194Y-119200000D01*
X193494194Y-120800000D01*
X193517363Y-121035241D01*
X193585981Y-121261442D01*
X193617056Y-121319579D01*
X193576859Y-121416622D01*
X193500000Y-121803017D01*
X193500000Y-122196983D01*
X193576859Y-122583378D01*
X193727623Y-122947355D01*
X193800000Y-123055675D01*
X193800001Y-125330727D01*
X193689039Y-125239663D01*
X193393709Y-125081806D01*
X193073258Y-124984598D01*
X192823510Y-124960000D01*
X192823500Y-124960000D01*
X192740000Y-124951776D01*
X192656500Y-124960000D01*
X191555675Y-124960000D01*
X191447355Y-124887623D01*
X191083378Y-124736859D01*
X190696983Y-124660000D01*
X190303017Y-124660000D01*
X189916622Y-124736859D01*
X189552645Y-124887623D01*
X189444325Y-124960000D01*
X180864163Y-124960000D01*
X176200000Y-120295837D01*
X176200000Y-119803017D01*
X178500000Y-119803017D01*
X178500000Y-120196983D01*
X178576859Y-120583378D01*
X178727623Y-120947355D01*
X178946499Y-121274926D01*
X179225074Y-121553501D01*
X179552645Y-121772377D01*
X179916622Y-121923141D01*
X180044393Y-121948556D01*
X180738872Y-122643035D01*
X180792103Y-122707897D01*
X180856965Y-122761128D01*
X180856968Y-122761131D01*
X180913798Y-122807770D01*
X181050961Y-122920337D01*
X181346291Y-123078194D01*
X181666742Y-123175402D01*
X181916490Y-123200000D01*
X181916499Y-123200000D01*
X181999999Y-123208224D01*
X182083499Y-123200000D01*
X183444325Y-123200000D01*
X183552645Y-123272377D01*
X183916622Y-123423141D01*
X184303017Y-123500000D01*
X184696983Y-123500000D01*
X185083378Y-123423141D01*
X185447355Y-123272377D01*
X185774926Y-123053501D01*
X186053501Y-122774926D01*
X186272377Y-122447355D01*
X186423141Y-122083378D01*
X186500000Y-121696983D01*
X186500000Y-121303017D01*
X186423141Y-120916622D01*
X186272377Y-120552645D01*
X186200000Y-120444325D01*
X186200000Y-117204163D01*
X186455607Y-116948556D01*
X186583378Y-116923141D01*
X186947355Y-116772377D01*
X187274926Y-116553501D01*
X187553501Y-116274926D01*
X187772377Y-115947355D01*
X187923141Y-115583378D01*
X188000000Y-115196983D01*
X188000000Y-114803017D01*
X187923141Y-114416622D01*
X187772377Y-114052645D01*
X187553501Y-113725074D01*
X187274926Y-113446499D01*
X186947355Y-113227623D01*
X186583378Y-113076859D01*
X186196983Y-113000000D01*
X185803017Y-113000000D01*
X185416622Y-113076859D01*
X185052645Y-113227623D01*
X184725074Y-113446499D01*
X184446499Y-113725074D01*
X184227623Y-114052645D01*
X184076859Y-114416622D01*
X184051444Y-114544393D01*
X183356961Y-115238876D01*
X183292104Y-115292103D01*
X183238877Y-115356960D01*
X183238868Y-115356969D01*
X183079663Y-115550961D01*
X182921807Y-115846291D01*
X182824599Y-116166742D01*
X182791776Y-116500000D01*
X182800001Y-116583510D01*
X182800000Y-119800000D01*
X182704163Y-119800000D01*
X182448556Y-119544393D01*
X182423141Y-119416622D01*
X182272377Y-119052645D01*
X182053501Y-118725074D01*
X181774926Y-118446499D01*
X181447355Y-118227623D01*
X181083378Y-118076859D01*
X180696983Y-118000000D01*
X180303017Y-118000000D01*
X179916622Y-118076859D01*
X179552645Y-118227623D01*
X179225074Y-118446499D01*
X178946499Y-118725074D01*
X178727623Y-119052645D01*
X178576859Y-119416622D01*
X178500000Y-119803017D01*
X176200000Y-119803017D01*
X176200000Y-115243922D01*
X176900000Y-115243922D01*
X176900000Y-115756078D01*
X176999917Y-116258392D01*
X177195910Y-116731562D01*
X177480448Y-117157403D01*
X177842597Y-117519552D01*
X178268438Y-117804090D01*
X178741608Y-118000083D01*
X179243922Y-118100000D01*
X179756078Y-118100000D01*
X180258392Y-118000083D01*
X180731562Y-117804090D01*
X181157403Y-117519552D01*
X181519552Y-117157403D01*
X181804090Y-116731562D01*
X182000083Y-116258392D01*
X182100000Y-115756078D01*
X182100000Y-115243922D01*
X182000083Y-114741608D01*
X181804090Y-114268438D01*
X181519552Y-113842597D01*
X181157403Y-113480448D01*
X180731562Y-113195910D01*
X180258392Y-112999917D01*
X179756078Y-112900000D01*
X179243922Y-112900000D01*
X178741608Y-112999917D01*
X178268438Y-113195910D01*
X177842597Y-113480448D01*
X177480448Y-113842597D01*
X177195910Y-114268438D01*
X176999917Y-114741608D01*
X176900000Y-115243922D01*
X176200000Y-115243922D01*
X176200000Y-110493409D01*
X176238558Y-110514019D01*
X176464759Y-110582637D01*
X176700000Y-110605806D01*
X180300000Y-110605806D01*
X180535241Y-110582637D01*
X180761442Y-110514019D01*
X180969910Y-110402591D01*
X181152634Y-110252634D01*
X181302591Y-110069910D01*
X181414019Y-109861442D01*
X181482637Y-109635241D01*
X181505806Y-109400000D01*
X181505806Y-107600000D01*
X181482637Y-107364759D01*
X181414019Y-107138558D01*
X181302591Y-106930090D01*
X181152634Y-106747366D01*
X180969910Y-106597409D01*
X180761442Y-106485981D01*
X180535241Y-106417363D01*
X180300000Y-106394194D01*
X176700000Y-106394194D01*
X176464759Y-106417363D01*
X176238558Y-106485981D01*
X176200000Y-106506591D01*
X176200000Y-104987701D01*
X176427657Y-105174535D01*
X176792476Y-105369535D01*
X177188328Y-105489615D01*
X177496833Y-105520000D01*
X179503167Y-105520000D01*
X179811672Y-105489615D01*
X180207524Y-105369535D01*
X180572343Y-105174535D01*
X180892109Y-104912109D01*
X181154535Y-104592343D01*
X181349535Y-104227524D01*
X181469615Y-103831672D01*
X181510161Y-103420000D01*
X181469615Y-103008328D01*
X181349535Y-102612476D01*
X181154535Y-102247657D01*
X180892109Y-101927891D01*
X180572343Y-101665465D01*
X180207524Y-101470465D01*
X179811672Y-101350385D01*
X179527555Y-101322402D01*
X189299956Y-101322402D01*
X189299956Y-101854256D01*
X189403716Y-102375890D01*
X189607247Y-102867259D01*
X189800020Y-103155764D01*
X189800019Y-106844368D01*
X189607310Y-107132778D01*
X189403779Y-107624147D01*
X189300019Y-108145781D01*
X189300019Y-108677635D01*
X189403779Y-109199269D01*
X189607310Y-109690638D01*
X189902792Y-110132858D01*
X190278869Y-110508935D01*
X190721089Y-110804417D01*
X191212458Y-111007948D01*
X191734092Y-111111708D01*
X192265946Y-111111708D01*
X192787580Y-111007948D01*
X193278949Y-110804417D01*
X193721169Y-110508935D01*
X194097246Y-110132858D01*
X194392728Y-109690638D01*
X194596259Y-109199269D01*
X194700019Y-108677635D01*
X194700019Y-108580000D01*
X223489839Y-108580000D01*
X223530385Y-108991672D01*
X223650465Y-109387524D01*
X223845465Y-109752343D01*
X224107891Y-110072109D01*
X224427657Y-110334535D01*
X224792476Y-110529535D01*
X225188328Y-110649615D01*
X225496833Y-110680000D01*
X227503167Y-110680000D01*
X227811672Y-110649615D01*
X228207524Y-110529535D01*
X228572343Y-110334535D01*
X228892109Y-110072109D01*
X229154535Y-109752343D01*
X229349535Y-109387524D01*
X229469615Y-108991672D01*
X229510161Y-108580000D01*
X229469615Y-108168328D01*
X229349535Y-107772476D01*
X229154535Y-107407657D01*
X228892109Y-107087891D01*
X228572343Y-106825465D01*
X228207524Y-106630465D01*
X227811672Y-106510385D01*
X227503167Y-106480000D01*
X225496833Y-106480000D01*
X225188328Y-106510385D01*
X224792476Y-106630465D01*
X224427657Y-106825465D01*
X224107891Y-107087891D01*
X223845465Y-107407657D01*
X223650465Y-107772476D01*
X223530385Y-108168328D01*
X223489839Y-108580000D01*
X194700019Y-108580000D01*
X194700019Y-108145781D01*
X194596259Y-107624147D01*
X194392728Y-107132778D01*
X194200019Y-106844369D01*
X194200019Y-104758696D01*
X200050000Y-104758696D01*
X200050000Y-105241304D01*
X200144152Y-105714639D01*
X200328838Y-106160510D01*
X200596960Y-106561784D01*
X200938216Y-106903040D01*
X201339490Y-107171162D01*
X201785361Y-107355848D01*
X202258696Y-107450000D01*
X202741304Y-107450000D01*
X203214639Y-107355848D01*
X203660510Y-107171162D01*
X204061784Y-106903040D01*
X204403040Y-106561784D01*
X204671162Y-106160510D01*
X204855848Y-105714639D01*
X204950000Y-105241304D01*
X204950000Y-104758696D01*
X204855848Y-104285361D01*
X204671162Y-103839490D01*
X204403040Y-103438216D01*
X204061784Y-103096960D01*
X203660510Y-102828838D01*
X203214639Y-102644152D01*
X202741304Y-102550000D01*
X202258696Y-102550000D01*
X201785361Y-102644152D01*
X201339490Y-102828838D01*
X200938216Y-103096960D01*
X200596960Y-103438216D01*
X200328838Y-103839490D01*
X200144152Y-104285361D01*
X200050000Y-104758696D01*
X194200019Y-104758696D01*
X194200019Y-103155574D01*
X194392665Y-102867259D01*
X194596196Y-102375890D01*
X194699956Y-101854256D01*
X194699956Y-101322402D01*
X194699949Y-101322365D01*
X210299981Y-101322365D01*
X210299981Y-101854219D01*
X210403741Y-102375853D01*
X210607272Y-102867222D01*
X210902754Y-103309442D01*
X211278831Y-103685519D01*
X211721051Y-103981001D01*
X212212420Y-104184532D01*
X212734054Y-104288292D01*
X213265908Y-104288292D01*
X213787542Y-104184532D01*
X214278911Y-103981001D01*
X214721131Y-103685519D01*
X215097208Y-103309442D01*
X215392690Y-102867222D01*
X215503376Y-102600000D01*
X223494194Y-102600000D01*
X223494194Y-104400000D01*
X223517363Y-104635241D01*
X223585981Y-104861442D01*
X223697409Y-105069910D01*
X223847366Y-105252634D01*
X224030090Y-105402591D01*
X224238558Y-105514019D01*
X224464759Y-105582637D01*
X224700000Y-105605806D01*
X228300000Y-105605806D01*
X228535241Y-105582637D01*
X228761442Y-105514019D01*
X228969910Y-105402591D01*
X229152634Y-105252634D01*
X229302591Y-105069910D01*
X229414019Y-104861442D01*
X229482637Y-104635241D01*
X229505806Y-104400000D01*
X229505806Y-102600000D01*
X229482637Y-102364759D01*
X229414019Y-102138558D01*
X229302591Y-101930090D01*
X229152634Y-101747366D01*
X228969910Y-101597409D01*
X228761442Y-101485981D01*
X228535241Y-101417363D01*
X228300000Y-101394194D01*
X224700000Y-101394194D01*
X224464759Y-101417363D01*
X224238558Y-101485981D01*
X224030090Y-101597409D01*
X223847366Y-101747366D01*
X223697409Y-101930090D01*
X223585981Y-102138558D01*
X223517363Y-102364759D01*
X223494194Y-102600000D01*
X215503376Y-102600000D01*
X215596221Y-102375853D01*
X215699981Y-101854219D01*
X215699981Y-101322365D01*
X215596221Y-100800731D01*
X215392690Y-100309362D01*
X215097208Y-99867142D01*
X214721131Y-99491065D01*
X214278911Y-99195583D01*
X213787542Y-98992052D01*
X213265908Y-98888292D01*
X212734054Y-98888292D01*
X212212420Y-98992052D01*
X211721051Y-99195583D01*
X211278831Y-99491065D01*
X210902754Y-99867142D01*
X210607272Y-100309362D01*
X210403741Y-100800731D01*
X210299981Y-101322365D01*
X194699949Y-101322365D01*
X194596196Y-100800768D01*
X194392665Y-100309399D01*
X194097183Y-99867179D01*
X193721106Y-99491102D01*
X193278886Y-99195620D01*
X192787517Y-98992089D01*
X192265883Y-98888329D01*
X191734029Y-98888329D01*
X191212395Y-98992089D01*
X190721026Y-99195620D01*
X190278806Y-99491102D01*
X189902729Y-99867179D01*
X189607247Y-100309399D01*
X189403716Y-100800768D01*
X189299956Y-101322402D01*
X179527555Y-101322402D01*
X179503167Y-101320000D01*
X177496833Y-101320000D01*
X177188328Y-101350385D01*
X176792476Y-101470465D01*
X176427657Y-101665465D01*
X176200000Y-101852299D01*
X176200000Y-95204163D01*
X182504163Y-88900000D01*
X182736379Y-88900000D01*
X183200054Y-88807770D01*
X183636826Y-88626853D01*
X184029911Y-88364202D01*
X184364202Y-88029911D01*
X184626853Y-87636826D01*
X184807770Y-87200054D01*
X184900000Y-86736379D01*
X184900000Y-86504163D01*
X187204163Y-84200000D01*
X199588730Y-84200000D01*
X199597582Y-84208852D01*
X199957909Y-84449615D01*
X200358284Y-84615455D01*
X200783319Y-84700000D01*
X201216681Y-84700000D01*
X201641716Y-84615455D01*
X202042091Y-84449615D01*
X202402418Y-84208852D01*
X202708852Y-83902418D01*
X202949615Y-83542091D01*
X203115455Y-83141716D01*
X203135712Y-83039875D01*
X205300001Y-85204164D01*
X205300000Y-88305887D01*
X205135798Y-88470089D01*
X204873147Y-88863174D01*
X204692230Y-89299946D01*
X204600000Y-89763621D01*
X204600000Y-89995837D01*
X203241582Y-91354255D01*
X202799756Y-91266370D01*
X202949615Y-91042091D01*
X203115455Y-90641716D01*
X203200000Y-90216681D01*
X203200000Y-89783319D01*
X203115455Y-89358284D01*
X202949615Y-88957909D01*
X202708852Y-88597582D01*
X202402418Y-88291148D01*
X202042091Y-88050385D01*
X201641716Y-87884545D01*
X201216681Y-87800000D01*
X200783319Y-87800000D01*
X200358284Y-87884545D01*
X199957909Y-88050385D01*
X199597582Y-88291148D01*
X199291148Y-88597582D01*
X199050385Y-88957909D01*
X198884545Y-89358284D01*
X198848399Y-89540000D01*
X196694113Y-89540000D01*
X196529911Y-89375798D01*
X196136826Y-89113147D01*
X195700054Y-88932230D01*
X195236379Y-88840000D01*
X194763621Y-88840000D01*
X194299946Y-88932230D01*
X193863174Y-89113147D01*
X193470089Y-89375798D01*
X193135798Y-89710089D01*
X192873147Y-90103174D01*
X192692230Y-90539946D01*
X192600000Y-91003621D01*
X192600000Y-91476379D01*
X192692230Y-91940054D01*
X192873147Y-92376826D01*
X193135798Y-92769911D01*
X193300000Y-92934113D01*
X193300001Y-93300000D01*
X187055675Y-93300000D01*
X186947355Y-93227623D01*
X186583378Y-93076859D01*
X186196983Y-93000000D01*
X185803017Y-93000000D01*
X185416622Y-93076859D01*
X185052645Y-93227623D01*
X184725074Y-93446499D01*
X184446499Y-93725074D01*
X184227623Y-94052645D01*
X184076859Y-94416622D01*
X184000000Y-94803017D01*
X184000000Y-95196983D01*
X184076859Y-95583378D01*
X184227623Y-95947355D01*
X184446499Y-96274926D01*
X184725074Y-96553501D01*
X185052645Y-96772377D01*
X185416622Y-96923141D01*
X185803017Y-97000000D01*
X186196983Y-97000000D01*
X186583378Y-96923141D01*
X186947355Y-96772377D01*
X187055675Y-96700000D01*
X193383478Y-96700000D01*
X193414448Y-96855697D01*
X193617979Y-97347066D01*
X193913461Y-97789286D01*
X194289538Y-98165363D01*
X194731758Y-98460845D01*
X195223127Y-98664376D01*
X195744761Y-98768136D01*
X196276615Y-98768136D01*
X196798249Y-98664376D01*
X197289618Y-98460845D01*
X197731838Y-98165363D01*
X198107915Y-97789286D01*
X198403397Y-97347066D01*
X198606928Y-96855697D01*
X198710688Y-96334063D01*
X198710688Y-95802209D01*
X198606928Y-95280575D01*
X198403397Y-94789206D01*
X198107915Y-94346986D01*
X197731838Y-93970909D01*
X197289618Y-93675427D01*
X196798249Y-93471896D01*
X196700000Y-93452353D01*
X196700000Y-92940000D01*
X199676500Y-92940000D01*
X199760000Y-92948224D01*
X199843500Y-92940000D01*
X199843510Y-92940000D01*
X200006495Y-92923947D01*
X199903719Y-93172072D01*
X199799959Y-93693706D01*
X199799959Y-94225560D01*
X199903719Y-94747194D01*
X200107250Y-95238563D01*
X200299959Y-95526972D01*
X200299959Y-95797350D01*
X200176843Y-96094578D01*
X200082691Y-96567913D01*
X200082691Y-97050521D01*
X200176843Y-97523856D01*
X200361529Y-97969727D01*
X200629651Y-98371001D01*
X200970907Y-98712257D01*
X201372181Y-98980379D01*
X201818052Y-99165065D01*
X202291387Y-99259217D01*
X202773995Y-99259217D01*
X203247330Y-99165065D01*
X203693201Y-98980379D01*
X204094475Y-98712257D01*
X204435731Y-98371001D01*
X204703853Y-97969727D01*
X204888539Y-97523856D01*
X204982691Y-97050521D01*
X204982691Y-96567913D01*
X204888539Y-96094578D01*
X204703853Y-95648707D01*
X204699959Y-95642879D01*
X204699959Y-95526972D01*
X204892668Y-95238563D01*
X205035045Y-94894833D01*
X205082736Y-94805610D01*
X205208534Y-94390908D01*
X205229869Y-94174294D01*
X207004163Y-92400000D01*
X207236379Y-92400000D01*
X207700054Y-92307770D01*
X208136826Y-92126853D01*
X208529911Y-91864202D01*
X208864202Y-91529911D01*
X209126853Y-91136826D01*
X209307770Y-90700054D01*
X209400000Y-90236379D01*
X209400000Y-89763621D01*
X209307770Y-89299946D01*
X209126853Y-88863174D01*
X208864202Y-88470089D01*
X208700000Y-88305887D01*
X208700000Y-84583499D01*
X208708224Y-84499999D01*
X208700000Y-84416499D01*
X208700000Y-84416490D01*
X208675402Y-84166742D01*
X208578194Y-83846291D01*
X208420337Y-83550961D01*
X208336692Y-83449040D01*
X208261131Y-83356968D01*
X208261128Y-83356965D01*
X208207897Y-83292103D01*
X208143035Y-83238872D01*
X206541605Y-81637442D01*
X206666742Y-81675402D01*
X206916490Y-81700000D01*
X206916499Y-81700000D01*
X206999999Y-81708224D01*
X207083499Y-81700000D01*
X213295837Y-81700000D01*
X214300001Y-82704164D01*
X214300001Y-83666587D01*
X214083378Y-83576859D01*
X213696983Y-83500000D01*
X213303017Y-83500000D01*
X212916622Y-83576859D01*
X212552645Y-83727623D01*
X212225074Y-83946499D01*
X211946499Y-84225074D01*
X211727623Y-84552645D01*
X211576859Y-84916622D01*
X211500000Y-85303017D01*
X211500000Y-85696983D01*
X211576859Y-86083378D01*
X211617056Y-86180421D01*
X211585981Y-86238558D01*
X211517363Y-86464759D01*
X211494194Y-86700000D01*
X211494194Y-88300000D01*
X211517363Y-88535241D01*
X211585981Y-88761442D01*
X211697409Y-88969910D01*
X211800000Y-89094919D01*
X211800001Y-90853414D01*
X209280273Y-93373142D01*
X209255325Y-93368180D01*
X208723471Y-93368180D01*
X208201837Y-93471940D01*
X207710468Y-93675471D01*
X207268248Y-93970953D01*
X206892171Y-94347030D01*
X206596689Y-94789250D01*
X206393158Y-95280619D01*
X206289398Y-95802253D01*
X206289398Y-96334107D01*
X206393158Y-96855741D01*
X206596689Y-97347110D01*
X206892171Y-97789330D01*
X207268248Y-98165407D01*
X207710468Y-98460889D01*
X208201837Y-98664420D01*
X208723471Y-98768180D01*
X209255325Y-98768180D01*
X209776959Y-98664420D01*
X210268328Y-98460889D01*
X210710548Y-98165407D01*
X211086625Y-97789330D01*
X211103803Y-97763621D01*
X216600000Y-97763621D01*
X216600000Y-98236379D01*
X216692230Y-98700054D01*
X216873147Y-99136826D01*
X217135798Y-99529911D01*
X217470089Y-99864202D01*
X217863174Y-100126853D01*
X218299946Y-100307770D01*
X218763621Y-100400000D01*
X219236379Y-100400000D01*
X219700054Y-100307770D01*
X220136826Y-100126853D01*
X220529911Y-99864202D01*
X220864202Y-99529911D01*
X221126853Y-99136826D01*
X221307770Y-98700054D01*
X221400000Y-98236379D01*
X221400000Y-97763621D01*
X221307770Y-97299946D01*
X221126853Y-96863174D01*
X220864202Y-96470089D01*
X220529911Y-96135798D01*
X220136826Y-95873147D01*
X219700054Y-95692230D01*
X219236379Y-95600000D01*
X218763621Y-95600000D01*
X218299946Y-95692230D01*
X217863174Y-95873147D01*
X217470089Y-96135798D01*
X217135798Y-96470089D01*
X216873147Y-96863174D01*
X216692230Y-97299946D01*
X216600000Y-97763621D01*
X211103803Y-97763621D01*
X211382107Y-97347110D01*
X211585638Y-96855741D01*
X211689398Y-96334107D01*
X211689398Y-95802253D01*
X211684436Y-95777305D01*
X214643035Y-92818706D01*
X214707897Y-92765475D01*
X214761128Y-92700613D01*
X215761741Y-91700000D01*
X218588732Y-91700000D01*
X218600783Y-91712051D01*
X218851832Y-91918083D01*
X219234024Y-92122368D01*
X219648725Y-92248166D01*
X220079999Y-92290643D01*
X220511274Y-92248166D01*
X220925976Y-92122368D01*
X221308168Y-91918083D01*
X221476422Y-91780000D01*
X224361206Y-91780000D01*
X224427657Y-91834535D01*
X224792476Y-92029535D01*
X225188328Y-92149615D01*
X225496833Y-92180000D01*
X227503167Y-92180000D01*
X227811672Y-92149615D01*
X228207524Y-92029535D01*
X228572343Y-91834535D01*
X228892109Y-91572109D01*
X229154535Y-91252343D01*
X229349535Y-90887524D01*
X229469615Y-90491672D01*
X229510161Y-90080000D01*
X229469615Y-89668328D01*
X229349535Y-89272476D01*
X229154535Y-88907657D01*
X228892109Y-88587891D01*
X228572343Y-88325465D01*
X228207524Y-88130465D01*
X227811672Y-88010385D01*
X227503167Y-87980000D01*
X225496833Y-87980000D01*
X225188328Y-88010385D01*
X224792476Y-88130465D01*
X224427657Y-88325465D01*
X224361206Y-88380000D01*
X221700000Y-88380000D01*
X221700000Y-85900000D01*
X223293226Y-85900000D01*
X223320257Y-86174448D01*
X223400310Y-86438349D01*
X223530310Y-86681562D01*
X223705261Y-86894739D01*
X223918438Y-87069690D01*
X224161651Y-87199690D01*
X224425552Y-87279743D01*
X224700000Y-87306774D01*
X226050000Y-87300000D01*
X226400000Y-86950000D01*
X226400000Y-85100000D01*
X226600000Y-85100000D01*
X226600000Y-86950000D01*
X226950000Y-87300000D01*
X228300000Y-87306774D01*
X228574448Y-87279743D01*
X228838349Y-87199690D01*
X229081562Y-87069690D01*
X229294739Y-86894739D01*
X229469690Y-86681562D01*
X229599690Y-86438349D01*
X229679743Y-86174448D01*
X229706774Y-85900000D01*
X229700000Y-85450000D01*
X229350000Y-85100000D01*
X226600000Y-85100000D01*
X226400000Y-85100000D01*
X223650000Y-85100000D01*
X223300000Y-85450000D01*
X223293226Y-85900000D01*
X221700000Y-85900000D01*
X221700000Y-85704163D01*
X223293388Y-84110775D01*
X223300000Y-84550000D01*
X223650000Y-84900000D01*
X226400000Y-84900000D01*
X226400000Y-83050000D01*
X226600000Y-83050000D01*
X226600000Y-84900000D01*
X229350000Y-84900000D01*
X229700000Y-84550000D01*
X229706774Y-84100000D01*
X229679743Y-83825552D01*
X229599690Y-83561651D01*
X229469690Y-83318438D01*
X229294739Y-83105261D01*
X229081562Y-82930310D01*
X228838349Y-82800310D01*
X228574448Y-82720257D01*
X228300000Y-82693226D01*
X226950000Y-82700000D01*
X226600000Y-83050000D01*
X226400000Y-83050000D01*
X226050000Y-82700000D01*
X224710882Y-82693281D01*
X228143036Y-79261127D01*
X228207897Y-79207897D01*
X228261128Y-79143035D01*
X228261132Y-79143031D01*
X228420337Y-78949040D01*
X228504713Y-78791183D01*
X228578194Y-78653709D01*
X228675402Y-78333258D01*
X228700000Y-78083510D01*
X228700000Y-78083500D01*
X228708224Y-78000000D01*
X228705420Y-77971535D01*
X229019552Y-77657403D01*
X229304090Y-77231562D01*
X229500083Y-76758392D01*
X229600000Y-76256078D01*
X229600000Y-75743922D01*
X229500083Y-75241608D01*
X229304090Y-74768438D01*
X229019552Y-74342597D01*
X228657403Y-73980448D01*
X228231562Y-73695910D01*
X227758392Y-73499917D01*
X227256078Y-73400000D01*
X226743922Y-73400000D01*
X226241608Y-73499917D01*
X225768438Y-73695910D01*
X225342597Y-73980448D01*
X224980448Y-74342597D01*
X224695910Y-74768438D01*
X224499917Y-75241608D01*
X224400000Y-75743922D01*
X224400000Y-76256078D01*
X224499917Y-76758392D01*
X224695910Y-77231562D01*
X224963620Y-77632217D01*
X221699673Y-80896164D01*
X221772377Y-80787355D01*
X221923141Y-80423378D01*
X222000000Y-80036983D01*
X222000000Y-79643017D01*
X221923141Y-79256622D01*
X221772377Y-78892645D01*
X221553501Y-78565074D01*
X221274926Y-78286499D01*
X220947355Y-78067623D01*
X220583378Y-77916859D01*
X220196983Y-77840000D01*
X219803017Y-77840000D01*
X219416622Y-77916859D01*
X219052645Y-78067623D01*
X218725074Y-78286499D01*
X218446499Y-78565074D01*
X218227623Y-78892645D01*
X218076859Y-79256622D01*
X218000000Y-79643017D01*
X218000000Y-80036983D01*
X218076859Y-80423378D01*
X218227623Y-80787355D01*
X218446499Y-81114926D01*
X218725074Y-81393501D01*
X219052645Y-81612377D01*
X219416622Y-81763141D01*
X219803017Y-81840000D01*
X220196983Y-81840000D01*
X220583378Y-81763141D01*
X220947355Y-81612377D01*
X221056164Y-81539673D01*
X218856961Y-83738876D01*
X218792104Y-83792103D01*
X218738877Y-83856960D01*
X218738868Y-83856969D01*
X218579663Y-84050961D01*
X218421807Y-84346291D01*
X218324599Y-84666742D01*
X218291776Y-85000000D01*
X218300001Y-85083510D01*
X218300000Y-88300000D01*
X216604163Y-88300000D01*
X217143031Y-87761131D01*
X217207897Y-87707897D01*
X217420337Y-87449039D01*
X217500000Y-87300000D01*
X217578194Y-87153710D01*
X217675402Y-86833258D01*
X217681147Y-86774926D01*
X217700000Y-86583510D01*
X217700000Y-86583502D01*
X217708224Y-86500000D01*
X217700000Y-86416498D01*
X217700000Y-82083499D01*
X217708224Y-81999999D01*
X217700000Y-81916499D01*
X217700000Y-81916490D01*
X217675402Y-81666742D01*
X217578194Y-81346291D01*
X217482124Y-81166557D01*
X217420337Y-81050960D01*
X217261131Y-80856968D01*
X217261128Y-80856965D01*
X217207897Y-80792103D01*
X217143035Y-80738872D01*
X215681400Y-79277237D01*
X215621725Y-79133170D01*
X215421454Y-78833443D01*
X215166557Y-78578546D01*
X214866830Y-78378275D01*
X214533791Y-78240325D01*
X214180239Y-78170000D01*
X213819761Y-78170000D01*
X213466209Y-78240325D01*
X213322142Y-78300000D01*
X213092838Y-78300000D01*
X213219675Y-77993791D01*
X213290000Y-77640239D01*
X213290000Y-77279761D01*
X213219675Y-76926209D01*
X213081725Y-76593170D01*
X212978132Y-76438132D01*
X213133170Y-76541725D01*
X213466209Y-76679675D01*
X213819761Y-76750000D01*
X214180239Y-76750000D01*
X214533791Y-76679675D01*
X214866830Y-76541725D01*
X215166557Y-76341454D01*
X215421454Y-76086557D01*
X215621725Y-75786830D01*
X215759675Y-75453791D01*
X215830000Y-75100239D01*
X215830000Y-74739761D01*
X215759675Y-74386209D01*
X215621725Y-74053170D01*
X215421454Y-73753443D01*
X215166557Y-73498546D01*
X214866830Y-73298275D01*
X214533791Y-73160325D01*
X214180239Y-73090000D01*
X213819761Y-73090000D01*
X213466209Y-73160325D01*
X213133170Y-73298275D01*
X212833443Y-73498546D01*
X212578546Y-73753443D01*
X212378275Y-74053170D01*
X212240325Y-74386209D01*
X212170000Y-74739761D01*
X212170000Y-75100239D01*
X212240325Y-75453791D01*
X212378275Y-75786830D01*
X212481868Y-75941868D01*
X212326830Y-75838275D01*
X211993791Y-75700325D01*
X211640239Y-75630000D01*
X211279761Y-75630000D01*
X210926209Y-75700325D01*
X210593170Y-75838275D01*
X210293443Y-76038546D01*
X210038546Y-76293443D01*
X209838275Y-76593170D01*
X209700325Y-76926209D01*
X209630000Y-77279761D01*
X209630000Y-77640239D01*
X209700325Y-77993791D01*
X209827162Y-78300000D01*
X207704163Y-78300000D01*
X206514637Y-77110474D01*
X206763621Y-77160000D01*
X207236379Y-77160000D01*
X207700054Y-77067770D01*
X208136826Y-76886853D01*
X208529911Y-76624202D01*
X208864202Y-76289911D01*
X209126853Y-75896826D01*
X209307770Y-75460054D01*
X209400000Y-74996379D01*
X209400000Y-74523621D01*
X209307770Y-74059946D01*
X209126853Y-73623174D01*
X208864202Y-73230089D01*
X208700000Y-73065887D01*
X208700000Y-66695829D01*
X208752634Y-66652634D01*
X208902591Y-66469910D01*
X209014019Y-66261442D01*
X209082637Y-66035241D01*
X209105806Y-65800000D01*
X209105806Y-64100000D01*
X209780000Y-64100000D01*
X209780000Y-65000000D01*
X209843703Y-65446786D01*
X209993345Y-65872560D01*
X210223177Y-66260959D01*
X210524365Y-66597057D01*
X210885335Y-66867938D01*
X211292216Y-67063192D01*
X211621772Y-67153892D01*
X211980000Y-66847434D01*
X211980000Y-64100000D01*
X212180000Y-64100000D01*
X212180000Y-66847434D01*
X212538228Y-67153892D01*
X212867784Y-67063192D01*
X213274665Y-66867938D01*
X213635635Y-66597057D01*
X213936823Y-66260959D01*
X214166655Y-65872560D01*
X214316297Y-65446786D01*
X214380000Y-65000000D01*
X214380000Y-64100000D01*
X212180000Y-64100000D01*
X211980000Y-64100000D01*
X209780000Y-64100000D01*
X209105806Y-64100000D01*
X209105806Y-63000000D01*
X209780000Y-63000000D01*
X209780000Y-63900000D01*
X211980000Y-63900000D01*
X211980000Y-61152566D01*
X212180000Y-61152566D01*
X212180000Y-63900000D01*
X214380000Y-63900000D01*
X214380000Y-63000000D01*
X214316297Y-62553214D01*
X214200671Y-62224224D01*
X224700000Y-62224224D01*
X224700000Y-62775776D01*
X224807602Y-63316730D01*
X225018672Y-63826297D01*
X225325098Y-64284896D01*
X225715104Y-64674902D01*
X226173703Y-64981328D01*
X226683270Y-65192398D01*
X227224224Y-65300000D01*
X227775776Y-65300000D01*
X228316730Y-65192398D01*
X228826297Y-64981328D01*
X229284896Y-64674902D01*
X229674902Y-64284896D01*
X229981328Y-63826297D01*
X230192398Y-63316730D01*
X230300000Y-62775776D01*
X230300000Y-62224224D01*
X230192398Y-61683270D01*
X229981328Y-61173703D01*
X229674902Y-60715104D01*
X229284896Y-60325098D01*
X228826297Y-60018672D01*
X228316730Y-59807602D01*
X227775776Y-59700000D01*
X227224224Y-59700000D01*
X226683270Y-59807602D01*
X226173703Y-60018672D01*
X225715104Y-60325098D01*
X225325098Y-60715104D01*
X225018672Y-61173703D01*
X224807602Y-61683270D01*
X224700000Y-62224224D01*
X214200671Y-62224224D01*
X214166655Y-62127440D01*
X213936823Y-61739041D01*
X213635635Y-61402943D01*
X213274665Y-61132062D01*
X212867784Y-60936808D01*
X212538228Y-60846108D01*
X212180000Y-61152566D01*
X211980000Y-61152566D01*
X211621772Y-60846108D01*
X211292216Y-60936808D01*
X210885335Y-61132062D01*
X210524365Y-61402943D01*
X210223177Y-61739041D01*
X209993345Y-62127440D01*
X209843703Y-62553214D01*
X209780000Y-63000000D01*
X209105806Y-63000000D01*
X209105806Y-62200000D01*
X209082637Y-61964759D01*
X209014019Y-61738558D01*
X208902591Y-61530090D01*
X208752634Y-61347366D01*
X208569910Y-61197409D01*
X208361442Y-61085981D01*
X208135241Y-61017363D01*
X207900000Y-60994194D01*
X206100000Y-60994194D01*
X205864759Y-61017363D01*
X205638558Y-61085981D01*
X205430090Y-61197409D01*
X205247366Y-61347366D01*
X205097409Y-61530090D01*
X204985981Y-61738558D01*
X204917363Y-61964759D01*
X204894194Y-62200000D01*
X204894194Y-65800000D01*
X204917363Y-66035241D01*
X204985981Y-66261442D01*
X205097409Y-66469910D01*
X205247366Y-66652634D01*
X205300000Y-66695830D01*
X205300001Y-73065886D01*
X205135798Y-73230089D01*
X204873147Y-73623174D01*
X204692230Y-74059946D01*
X204600000Y-74523621D01*
X204600000Y-74996379D01*
X204649526Y-75245363D01*
X202700000Y-73295837D01*
X202700000Y-72411270D01*
X202708852Y-72402418D01*
X202949615Y-72042091D01*
X203115455Y-71641716D01*
X203200000Y-71216681D01*
X203200000Y-70783319D01*
X203115455Y-70358284D01*
X202949615Y-69957909D01*
X202708852Y-69597582D01*
X202402418Y-69291148D01*
X202042091Y-69050385D01*
X201641716Y-68884545D01*
X201216681Y-68800000D01*
X200783319Y-68800000D01*
X200358284Y-68884545D01*
X199957909Y-69050385D01*
X199597582Y-69291148D01*
X199291148Y-69597582D01*
X199050385Y-69957909D01*
X198884545Y-70358284D01*
X198800000Y-70783319D01*
X198800000Y-71216681D01*
X198884545Y-71641716D01*
X199050385Y-72042091D01*
X199291148Y-72402418D01*
X199300000Y-72411270D01*
X199300001Y-73916491D01*
X199291776Y-74000000D01*
X199324599Y-74333258D01*
X199421807Y-74653709D01*
X199579663Y-74949039D01*
X199738868Y-75143031D01*
X199738877Y-75143040D01*
X199792104Y-75207897D01*
X199856961Y-75261124D01*
X200895837Y-76300000D01*
X200783319Y-76300000D01*
X200358284Y-76384545D01*
X199957909Y-76550385D01*
X199597582Y-76791148D01*
X199291148Y-77097582D01*
X199050385Y-77457909D01*
X198884545Y-77858284D01*
X198800000Y-78283319D01*
X198800000Y-78716681D01*
X198884545Y-79141716D01*
X199050385Y-79542091D01*
X199291148Y-79902418D01*
X199597582Y-80208852D01*
X199957909Y-80449615D01*
X200079550Y-80500000D01*
X199957909Y-80550385D01*
X199597582Y-80791148D01*
X199588730Y-80800000D01*
X186583499Y-80800000D01*
X186499999Y-80791776D01*
X186416499Y-80800000D01*
X186416490Y-80800000D01*
X186166742Y-80824598D01*
X185846291Y-80921806D01*
X185550961Y-81079663D01*
X185550959Y-81079664D01*
X185550960Y-81079664D01*
X185356968Y-81238869D01*
X185356965Y-81238872D01*
X185292103Y-81292103D01*
X185238872Y-81356965D01*
X182495837Y-84100000D01*
X182263621Y-84100000D01*
X181799946Y-84192230D01*
X181363174Y-84373147D01*
X180970089Y-84635798D01*
X180635798Y-84970089D01*
X180373147Y-85363174D01*
X180192230Y-85799946D01*
X180100000Y-86263621D01*
X180100000Y-86495837D01*
X173775000Y-92820837D01*
X173775000Y-69763621D01*
X175360000Y-69763621D01*
X175360000Y-70236379D01*
X175452230Y-70700054D01*
X175633147Y-71136826D01*
X175895798Y-71529911D01*
X176230089Y-71864202D01*
X176623174Y-72126853D01*
X177059946Y-72307770D01*
X177523621Y-72400000D01*
X177755837Y-72400000D01*
X180800000Y-75444163D01*
X180800000Y-75916490D01*
X180791775Y-76000000D01*
X180800001Y-76083520D01*
X180800001Y-76706590D01*
X180630090Y-76797409D01*
X180447366Y-76947366D01*
X180297409Y-77130090D01*
X180185981Y-77338558D01*
X180117363Y-77564759D01*
X180094194Y-77800000D01*
X180094194Y-80200000D01*
X180117363Y-80435241D01*
X180185981Y-80661442D01*
X180297409Y-80869910D01*
X180447366Y-81052634D01*
X180630090Y-81202591D01*
X180838558Y-81314019D01*
X181064759Y-81382637D01*
X181300000Y-81405806D01*
X183700000Y-81405806D01*
X183935241Y-81382637D01*
X184161442Y-81314019D01*
X184369910Y-81202591D01*
X184552634Y-81052634D01*
X184702591Y-80869910D01*
X184814019Y-80661442D01*
X184882637Y-80435241D01*
X184905806Y-80200000D01*
X184905806Y-77800000D01*
X184895957Y-77700000D01*
X193305887Y-77700000D01*
X193470089Y-77864202D01*
X193863174Y-78126853D01*
X194299946Y-78307770D01*
X194763621Y-78400000D01*
X195236379Y-78400000D01*
X195700054Y-78307770D01*
X196136826Y-78126853D01*
X196529911Y-77864202D01*
X196864202Y-77529911D01*
X197126853Y-77136826D01*
X197307770Y-76700054D01*
X197400000Y-76236379D01*
X197400000Y-75763621D01*
X197307770Y-75299946D01*
X197126853Y-74863174D01*
X196864202Y-74470089D01*
X196529911Y-74135798D01*
X196136826Y-73873147D01*
X195700054Y-73692230D01*
X195236379Y-73600000D01*
X194763621Y-73600000D01*
X194299946Y-73692230D01*
X193863174Y-73873147D01*
X193470089Y-74135798D01*
X193305887Y-74300000D01*
X184143022Y-74300000D01*
X184078194Y-74086291D01*
X183920337Y-73790961D01*
X183877518Y-73738786D01*
X183761131Y-73596968D01*
X183761128Y-73596965D01*
X183707897Y-73532103D01*
X183643035Y-73478872D01*
X182080941Y-71916778D01*
X182228168Y-71838083D01*
X182563161Y-71563161D01*
X182632057Y-71479211D01*
X185031269Y-69080000D01*
X189869357Y-69080000D01*
X189911834Y-69511275D01*
X190037631Y-69925976D01*
X190241917Y-70308168D01*
X190342949Y-70431275D01*
X190516840Y-70643161D01*
X190600784Y-70712052D01*
X190765376Y-70876645D01*
X190873147Y-71136826D01*
X191135798Y-71529911D01*
X191470089Y-71864202D01*
X191863174Y-72126853D01*
X192299946Y-72307770D01*
X192763621Y-72400000D01*
X193236379Y-72400000D01*
X193700054Y-72307770D01*
X194136826Y-72126853D01*
X194529911Y-71864202D01*
X194864202Y-71529911D01*
X195126853Y-71136826D01*
X195307770Y-70700054D01*
X195400000Y-70236379D01*
X195400000Y-69763621D01*
X195307770Y-69299946D01*
X195126853Y-68863174D01*
X194864202Y-68470089D01*
X194529911Y-68135798D01*
X194280000Y-67968813D01*
X194280000Y-63891930D01*
X194248167Y-63568725D01*
X194180000Y-63344008D01*
X194180000Y-62996833D01*
X194149615Y-62688328D01*
X194029535Y-62292476D01*
X193834535Y-61927657D01*
X193572109Y-61607891D01*
X193252343Y-61345465D01*
X192887523Y-61150465D01*
X192491671Y-61030385D01*
X192080000Y-60989839D01*
X191668328Y-61030385D01*
X191272476Y-61150465D01*
X190907657Y-61345465D01*
X190587891Y-61607891D01*
X190325465Y-61927657D01*
X190130465Y-62292477D01*
X190010385Y-62688329D01*
X189980000Y-62996834D01*
X189980000Y-63344009D01*
X189911833Y-63568726D01*
X189880000Y-63891931D01*
X189880001Y-68971930D01*
X189869357Y-69080000D01*
X185031269Y-69080000D01*
X187105464Y-67005806D01*
X187900000Y-67005806D01*
X188135241Y-66982637D01*
X188361442Y-66914019D01*
X188569910Y-66802591D01*
X188752634Y-66652634D01*
X188902591Y-66469910D01*
X189014019Y-66261442D01*
X189082637Y-66035241D01*
X189105806Y-65800000D01*
X189105806Y-64636850D01*
X189168166Y-64431276D01*
X189210643Y-64000001D01*
X189168166Y-63568726D01*
X189105806Y-63363152D01*
X189105806Y-62200000D01*
X189082637Y-61964759D01*
X189014019Y-61738558D01*
X188902591Y-61530090D01*
X188752634Y-61347366D01*
X188569910Y-61197409D01*
X188361442Y-61085981D01*
X188135241Y-61017363D01*
X187900000Y-60994194D01*
X186100000Y-60994194D01*
X185864759Y-61017363D01*
X185638558Y-61085981D01*
X185430090Y-61197409D01*
X185247366Y-61347366D01*
X185097409Y-61530090D01*
X184985981Y-61738558D01*
X184917363Y-61964759D01*
X184894194Y-62200000D01*
X184894194Y-62994536D01*
X180088732Y-67800000D01*
X178720234Y-67800000D01*
X178460054Y-67692230D01*
X177996379Y-67600000D01*
X177523621Y-67600000D01*
X177059946Y-67692230D01*
X176623174Y-67873147D01*
X176230089Y-68135798D01*
X175895798Y-68470089D01*
X175633147Y-68863174D01*
X175452230Y-69299946D01*
X175360000Y-69763621D01*
X173775000Y-69763621D01*
X173775000Y-62224224D01*
X174700000Y-62224224D01*
X174700000Y-62775776D01*
X174807602Y-63316730D01*
X175018672Y-63826297D01*
X175325098Y-64284896D01*
X175715104Y-64674902D01*
X176173703Y-64981328D01*
X176683270Y-65192398D01*
X177224224Y-65300000D01*
X177775776Y-65300000D01*
X178316730Y-65192398D01*
X178826297Y-64981328D01*
X179284896Y-64674902D01*
X179674902Y-64284896D01*
X179981328Y-63826297D01*
X180192398Y-63316730D01*
X180300000Y-62775776D01*
X180300000Y-62224224D01*
X180192398Y-61683270D01*
X179981328Y-61173703D01*
X179674902Y-60715104D01*
X179284896Y-60325098D01*
X178826297Y-60018672D01*
X178316730Y-59807602D01*
X177775776Y-59700000D01*
X177224224Y-59700000D01*
X176683270Y-59807602D01*
X176173703Y-60018672D01*
X175715104Y-60325098D01*
X175325098Y-60715104D01*
X175018672Y-61173703D01*
X174807602Y-61683270D01*
X174700000Y-62224224D01*
X173775000Y-62224224D01*
X173775000Y-58775000D01*
X231225001Y-58775000D01*
X231225000Y-116407811D01*
G37*
X231225000Y-116407811D02*
X230811267Y-116330155D01*
X229141421Y-118000000D01*
X230811267Y-119669845D01*
X231225000Y-119592189D01*
X231225000Y-151225000D01*
X215187057Y-151225000D01*
X215207897Y-151207897D01*
X215261128Y-151143035D01*
X216563036Y-149841127D01*
X216627897Y-149787897D01*
X216737873Y-149653892D01*
X216840336Y-149529040D01*
X216840337Y-149529039D01*
X216998194Y-149233709D01*
X217095402Y-148913258D01*
X217120000Y-148663510D01*
X217120000Y-148663501D01*
X217122765Y-148635424D01*
X217174535Y-148572343D01*
X217369535Y-148207524D01*
X217489615Y-147811672D01*
X217520000Y-147503167D01*
X217520000Y-145496834D01*
X217489615Y-145188328D01*
X217369535Y-144792476D01*
X217320106Y-144700000D01*
X218394194Y-144700000D01*
X218394194Y-148300000D01*
X218417363Y-148535241D01*
X218485981Y-148761442D01*
X218597409Y-148969910D01*
X218747366Y-149152634D01*
X218930090Y-149302591D01*
X219138558Y-149414019D01*
X219364759Y-149482637D01*
X219600000Y-149505806D01*
X221400000Y-149505806D01*
X221635241Y-149482637D01*
X221861442Y-149414019D01*
X222069910Y-149302591D01*
X222252634Y-149152634D01*
X222402591Y-148969910D01*
X222514019Y-148761442D01*
X222582637Y-148535241D01*
X222605806Y-148300000D01*
X222605806Y-147224224D01*
X224700000Y-147224224D01*
X224700000Y-147775776D01*
X224807602Y-148316730D01*
X225018672Y-148826297D01*
X225325098Y-149284896D01*
X225715104Y-149674902D01*
X226173703Y-149981328D01*
X226683270Y-150192398D01*
X227224224Y-150300000D01*
X227775776Y-150300000D01*
X228316730Y-150192398D01*
X228826297Y-149981328D01*
X229284896Y-149674902D01*
X229674902Y-149284896D01*
X229981328Y-148826297D01*
X230192398Y-148316730D01*
X230300000Y-147775776D01*
X230300000Y-147224224D01*
X230192398Y-146683270D01*
X229981328Y-146173703D01*
X229674902Y-145715104D01*
X229284896Y-145325098D01*
X228826297Y-145018672D01*
X228316730Y-144807602D01*
X227775776Y-144700000D01*
X227224224Y-144700000D01*
X226683270Y-144807602D01*
X226173703Y-145018672D01*
X225715104Y-145325098D01*
X225325098Y-145715104D01*
X225018672Y-146173703D01*
X224807602Y-146683270D01*
X224700000Y-147224224D01*
X222605806Y-147224224D01*
X222605806Y-144700000D01*
X222582637Y-144464759D01*
X222514019Y-144238558D01*
X222402591Y-144030090D01*
X222252634Y-143847366D01*
X222200000Y-143804171D01*
X222200000Y-142700000D01*
X223944325Y-142700000D01*
X224052645Y-142772377D01*
X224416622Y-142923141D01*
X224803017Y-143000000D01*
X225196983Y-143000000D01*
X225583378Y-142923141D01*
X225947355Y-142772377D01*
X226274926Y-142553501D01*
X226553501Y-142274926D01*
X226772377Y-141947355D01*
X226923141Y-141583378D01*
X227000000Y-141196983D01*
X227000000Y-140803017D01*
X226923141Y-140416622D01*
X226772377Y-140052645D01*
X226553501Y-139725074D01*
X226274926Y-139446499D01*
X225947355Y-139227623D01*
X225583378Y-139076859D01*
X225196983Y-139000000D01*
X224803017Y-139000000D01*
X224416622Y-139076859D01*
X224052645Y-139227623D01*
X223944325Y-139300000D01*
X222468427Y-139300000D01*
X222274926Y-139106499D01*
X221947355Y-138887623D01*
X221583378Y-138736859D01*
X221196983Y-138660000D01*
X220803017Y-138660000D01*
X220416622Y-138736859D01*
X220052645Y-138887623D01*
X219725074Y-139106499D01*
X219446499Y-139385074D01*
X219227623Y-139712645D01*
X219076859Y-140076622D01*
X219032637Y-140298942D01*
X218921807Y-140506291D01*
X218824599Y-140826742D01*
X218791776Y-141160000D01*
X218800001Y-141243510D01*
X218800001Y-143804170D01*
X218747366Y-143847366D01*
X218597409Y-144030090D01*
X218485981Y-144238558D01*
X218417363Y-144464759D01*
X218394194Y-144700000D01*
X217320106Y-144700000D01*
X217174535Y-144427657D01*
X216912109Y-144107891D01*
X216592343Y-143845465D01*
X216227524Y-143650465D01*
X215831672Y-143530385D01*
X215420000Y-143489839D01*
X215008329Y-143530385D01*
X214612477Y-143650465D01*
X214247658Y-143845465D01*
X213927892Y-144107891D01*
X213665466Y-144427657D01*
X213470466Y-144792476D01*
X213350386Y-145188328D01*
X213320000Y-145496833D01*
X213320000Y-147503166D01*
X213350385Y-147811671D01*
X213451345Y-148144492D01*
X213295837Y-148300000D01*
X212452157Y-148300000D01*
X212576297Y-147946786D01*
X212640000Y-147500000D01*
X212640000Y-146600000D01*
X210440000Y-146600000D01*
X210440000Y-146620000D01*
X210240000Y-146620000D01*
X210240000Y-146600000D01*
X208040000Y-146600000D01*
X208040000Y-147500000D01*
X208103703Y-147946786D01*
X208227843Y-148300000D01*
X207160106Y-148300000D01*
X207209535Y-148207524D01*
X207329615Y-147811672D01*
X207360000Y-147503167D01*
X207360000Y-145500000D01*
X208040000Y-145500000D01*
X208040000Y-146400000D01*
X210240000Y-146400000D01*
X210240000Y-143652566D01*
X210440000Y-143652566D01*
X210440000Y-146400000D01*
X212640000Y-146400000D01*
X212640000Y-145500000D01*
X212576297Y-145053214D01*
X212426655Y-144627440D01*
X212196823Y-144239041D01*
X211895635Y-143902943D01*
X211534665Y-143632062D01*
X211127784Y-143436808D01*
X210798228Y-143346108D01*
X210440000Y-143652566D01*
X210240000Y-143652566D01*
X209881772Y-143346108D01*
X209552216Y-143436808D01*
X209145335Y-143632062D01*
X208784365Y-143902943D01*
X208483177Y-144239041D01*
X208253345Y-144627440D01*
X208103703Y-145053214D01*
X208040000Y-145500000D01*
X207360000Y-145500000D01*
X207360000Y-145496834D01*
X207329615Y-145188328D01*
X207209535Y-144792476D01*
X207014535Y-144427657D01*
X206960000Y-144361206D01*
X206960000Y-142343499D01*
X206968224Y-142259999D01*
X206960000Y-142176499D01*
X206960000Y-142176490D01*
X206935402Y-141926742D01*
X206838194Y-141606291D01*
X206680337Y-141310961D01*
X206624873Y-141243378D01*
X206521131Y-141116968D01*
X206521128Y-141116965D01*
X206467897Y-141052103D01*
X206403036Y-140998873D01*
X203700000Y-138295837D01*
X203700000Y-138283319D01*
X205800000Y-138283319D01*
X205800000Y-138716681D01*
X205884545Y-139141716D01*
X206050385Y-139542091D01*
X206291148Y-139902418D01*
X206597582Y-140208852D01*
X206957909Y-140449615D01*
X207358284Y-140615455D01*
X207783319Y-140700000D01*
X208216681Y-140700000D01*
X208641716Y-140615455D01*
X209042091Y-140449615D01*
X209402418Y-140208852D01*
X209708852Y-139902418D01*
X209949615Y-139542091D01*
X210115455Y-139141716D01*
X210200000Y-138716681D01*
X210200000Y-138283319D01*
X210115455Y-137858284D01*
X209949615Y-137457909D01*
X209708852Y-137097582D01*
X209402418Y-136791148D01*
X209042091Y-136550385D01*
X208641716Y-136384545D01*
X208216681Y-136300000D01*
X207783319Y-136300000D01*
X207358284Y-136384545D01*
X206957909Y-136550385D01*
X206597582Y-136791148D01*
X206291148Y-137097582D01*
X206050385Y-137457909D01*
X205884545Y-137858284D01*
X205800000Y-138283319D01*
X203700000Y-138283319D01*
X203700000Y-137434113D01*
X203864202Y-137269911D01*
X204126853Y-136876826D01*
X204307770Y-136440054D01*
X204400000Y-135976379D01*
X204400000Y-135503621D01*
X204307770Y-135039946D01*
X204209631Y-134803017D01*
X213000000Y-134803017D01*
X213000000Y-135196983D01*
X213076859Y-135583378D01*
X213227623Y-135947355D01*
X213446499Y-136274926D01*
X213725074Y-136553501D01*
X214052645Y-136772377D01*
X214416622Y-136923141D01*
X214803017Y-137000000D01*
X215196983Y-137000000D01*
X215583378Y-136923141D01*
X215947355Y-136772377D01*
X216274926Y-136553501D01*
X216553501Y-136274926D01*
X216772377Y-135947355D01*
X216923141Y-135583378D01*
X216948556Y-135455607D01*
X220108606Y-132295557D01*
X220416622Y-132423141D01*
X220803017Y-132500000D01*
X221196983Y-132500000D01*
X221583378Y-132423141D01*
X221947355Y-132272377D01*
X222274926Y-132053501D01*
X222553501Y-131774926D01*
X222772377Y-131447355D01*
X222923141Y-131083378D01*
X222948556Y-130955607D01*
X223704163Y-130200000D01*
X223944325Y-130200000D01*
X224052645Y-130272377D01*
X224416622Y-130423141D01*
X224803017Y-130500000D01*
X225196983Y-130500000D01*
X225583378Y-130423141D01*
X225947355Y-130272377D01*
X226274926Y-130053501D01*
X226553501Y-129774926D01*
X226772377Y-129447355D01*
X226923141Y-129083378D01*
X227000000Y-128696983D01*
X227000000Y-128303017D01*
X226923141Y-127916622D01*
X226772377Y-127552645D01*
X226553501Y-127225074D01*
X226274926Y-126946499D01*
X225947355Y-126727623D01*
X225583378Y-126576859D01*
X225196983Y-126500000D01*
X224803017Y-126500000D01*
X224416622Y-126576859D01*
X224052645Y-126727623D01*
X223944325Y-126800000D01*
X223083499Y-126800000D01*
X222999999Y-126791776D01*
X222916499Y-126800000D01*
X222916490Y-126800000D01*
X222666742Y-126824598D01*
X222346291Y-126921806D01*
X222300094Y-126946499D01*
X222050960Y-127079663D01*
X221856968Y-127238869D01*
X221856965Y-127238872D01*
X221792103Y-127292103D01*
X221738872Y-127356965D01*
X220544393Y-128551444D01*
X220416622Y-128576859D01*
X220052645Y-128727623D01*
X219944325Y-128800000D01*
X219583499Y-128800000D01*
X219499999Y-128791776D01*
X219416499Y-128800000D01*
X219416490Y-128800000D01*
X219166742Y-128824598D01*
X218846291Y-128921806D01*
X218800094Y-128946499D01*
X218550960Y-129079663D01*
X218356968Y-129238869D01*
X218356965Y-129238872D01*
X218292103Y-129292103D01*
X218238872Y-129356965D01*
X214544393Y-133051444D01*
X214416622Y-133076859D01*
X214052645Y-133227623D01*
X213725074Y-133446499D01*
X213446499Y-133725074D01*
X213227623Y-134052645D01*
X213076859Y-134416622D01*
X213000000Y-134803017D01*
X204209631Y-134803017D01*
X204126853Y-134603174D01*
X203864202Y-134210089D01*
X203529911Y-133875798D01*
X203136826Y-133613147D01*
X202700054Y-133432230D01*
X202236379Y-133340000D01*
X201763621Y-133340000D01*
X201299946Y-133432230D01*
X200863174Y-133613147D01*
X200470089Y-133875798D01*
X200135798Y-134210089D01*
X199873147Y-134603174D01*
X199692230Y-135039946D01*
X199600000Y-135503621D01*
X199600000Y-135976379D01*
X199692230Y-136440054D01*
X199873147Y-136876826D01*
X200135798Y-137269911D01*
X200300001Y-137434114D01*
X200300001Y-138916491D01*
X200291776Y-139000000D01*
X200324599Y-139333258D01*
X200421807Y-139653709D01*
X200579663Y-139949039D01*
X200738868Y-140143031D01*
X200738877Y-140143040D01*
X200792104Y-140207897D01*
X200856961Y-140261124D01*
X203560000Y-142964163D01*
X203560000Y-144361207D01*
X203505466Y-144427657D01*
X203310466Y-144792476D01*
X203190386Y-145188328D01*
X203160000Y-145496833D01*
X203160000Y-147503166D01*
X203190385Y-147811671D01*
X203310465Y-148207523D01*
X203359895Y-148300000D01*
X203204163Y-148300000D01*
X202280000Y-147375837D01*
X202280000Y-145496834D01*
X202249615Y-145188328D01*
X202129535Y-144792476D01*
X201934535Y-144427657D01*
X201672109Y-144107891D01*
X201352343Y-143845465D01*
X200987524Y-143650465D01*
X200591672Y-143530385D01*
X200180000Y-143489839D01*
X199768329Y-143530385D01*
X199650340Y-143566177D01*
X199280000Y-143195837D01*
X199280000Y-132177858D01*
X199339675Y-132033791D01*
X199410000Y-131680239D01*
X199410000Y-131319761D01*
X199339675Y-130966209D01*
X199201725Y-130633170D01*
X199001454Y-130333443D01*
X198746557Y-130078546D01*
X198446830Y-129878275D01*
X198302763Y-129818600D01*
X197188135Y-128703972D01*
X197200000Y-128583510D01*
X197200000Y-128583501D01*
X197208224Y-128500001D01*
X197200000Y-128416501D01*
X197200000Y-123055675D01*
X197272377Y-122947355D01*
X197423141Y-122583378D01*
X197500000Y-122196983D01*
X197500000Y-121803017D01*
X197423141Y-121416622D01*
X197382944Y-121319579D01*
X197414019Y-121261442D01*
X197482637Y-121035241D01*
X197505806Y-120800000D01*
X197505806Y-120263621D01*
X199600000Y-120263621D01*
X199600000Y-120736379D01*
X199692230Y-121200054D01*
X199873147Y-121636826D01*
X200135798Y-122029911D01*
X200300000Y-122194113D01*
X200300001Y-124916490D01*
X200291776Y-125000000D01*
X200324599Y-125333258D01*
X200421807Y-125653709D01*
X200579663Y-125949039D01*
X200738868Y-126143031D01*
X200738877Y-126143040D01*
X200792104Y-126207897D01*
X200856961Y-126261124D01*
X205800000Y-131204163D01*
X205800000Y-131216681D01*
X205884545Y-131641716D01*
X206050385Y-132042091D01*
X206291148Y-132402418D01*
X206597582Y-132708852D01*
X206957909Y-132949615D01*
X207358284Y-133115455D01*
X207783319Y-133200000D01*
X208216681Y-133200000D01*
X208641716Y-133115455D01*
X209042091Y-132949615D01*
X209402418Y-132708852D01*
X209708852Y-132402418D01*
X209949615Y-132042091D01*
X210115455Y-131641716D01*
X210200000Y-131216681D01*
X210200000Y-130783319D01*
X210115455Y-130358284D01*
X209949615Y-129957909D01*
X209708852Y-129597582D01*
X209402418Y-129291148D01*
X209042091Y-129050385D01*
X208641716Y-128884545D01*
X208216681Y-128800000D01*
X208204163Y-128800000D01*
X208104163Y-128700000D01*
X208216681Y-128700000D01*
X208641716Y-128615455D01*
X209042091Y-128449615D01*
X209402418Y-128208852D01*
X209708852Y-127902418D01*
X209949615Y-127542091D01*
X210115455Y-127141716D01*
X210200000Y-126716681D01*
X210200000Y-126283319D01*
X210115455Y-125858284D01*
X209949615Y-125457909D01*
X209708852Y-125097582D01*
X209402418Y-124791148D01*
X209042091Y-124550385D01*
X208641716Y-124384545D01*
X208216681Y-124300000D01*
X207783319Y-124300000D01*
X207358284Y-124384545D01*
X206957909Y-124550385D01*
X206597582Y-124791148D01*
X206291148Y-125097582D01*
X206050385Y-125457909D01*
X205884545Y-125858284D01*
X205800000Y-126283319D01*
X205800000Y-126395837D01*
X203700000Y-124295837D01*
X203700000Y-122194113D01*
X203864202Y-122029911D01*
X204126853Y-121636826D01*
X204307770Y-121200054D01*
X204400000Y-120736379D01*
X204400000Y-120263621D01*
X204307770Y-119799946D01*
X204126853Y-119363174D01*
X203864202Y-118970089D01*
X203700000Y-118805887D01*
X203700000Y-118783319D01*
X205800000Y-118783319D01*
X205800000Y-119216681D01*
X205884545Y-119641716D01*
X206050385Y-120042091D01*
X206291148Y-120402418D01*
X206597582Y-120708852D01*
X206957909Y-120949615D01*
X207358284Y-121115455D01*
X207783319Y-121200000D01*
X208216681Y-121200000D01*
X208641716Y-121115455D01*
X209042091Y-120949615D01*
X209402418Y-120708852D01*
X209708852Y-120402418D01*
X209949615Y-120042091D01*
X210045224Y-119811267D01*
X227330155Y-119811267D01*
X227428185Y-120333549D01*
X227913640Y-120595356D01*
X228440843Y-120757425D01*
X228989533Y-120813528D01*
X229538627Y-120761509D01*
X230067021Y-120603366D01*
X230554410Y-120345177D01*
X230571815Y-120333549D01*
X230669845Y-119811267D01*
X229000000Y-118141421D01*
X227330155Y-119811267D01*
X210045224Y-119811267D01*
X210115455Y-119641716D01*
X210200000Y-119216681D01*
X210200000Y-118783319D01*
X210115455Y-118358284D01*
X209962715Y-117989533D01*
X226186472Y-117989533D01*
X226238491Y-118538627D01*
X226396634Y-119067021D01*
X226654823Y-119554410D01*
X226666451Y-119571815D01*
X227188733Y-119669845D01*
X228858579Y-118000000D01*
X227188733Y-116330155D01*
X226666451Y-116428185D01*
X226404644Y-116913640D01*
X226242575Y-117440843D01*
X226186472Y-117989533D01*
X209962715Y-117989533D01*
X209949615Y-117957909D01*
X209708852Y-117597582D01*
X209700000Y-117588730D01*
X209700000Y-116543040D01*
X209776996Y-116527724D01*
X210268365Y-116324193D01*
X210710585Y-116028711D01*
X211086662Y-115652634D01*
X211100794Y-115631484D01*
X213096785Y-115631484D01*
X213227623Y-115947355D01*
X213446499Y-116274926D01*
X213725074Y-116553501D01*
X214052645Y-116772377D01*
X214416622Y-116923141D01*
X214803017Y-117000000D01*
X215196983Y-117000000D01*
X215583378Y-116923141D01*
X215947355Y-116772377D01*
X216055675Y-116700000D01*
X217156500Y-116700000D01*
X217240000Y-116708224D01*
X217323500Y-116700000D01*
X217323510Y-116700000D01*
X217573258Y-116675402D01*
X217893709Y-116578194D01*
X218189039Y-116420337D01*
X218245958Y-116373625D01*
X218383031Y-116261132D01*
X218383035Y-116261128D01*
X218447897Y-116207897D01*
X218463624Y-116188733D01*
X227330155Y-116188733D01*
X229000000Y-117858579D01*
X230669845Y-116188733D01*
X230571815Y-115666451D01*
X230086360Y-115404644D01*
X229559157Y-115242575D01*
X229010467Y-115186472D01*
X228461373Y-115238491D01*
X227932979Y-115396634D01*
X227445590Y-115654823D01*
X227428185Y-115666451D01*
X227330155Y-116188733D01*
X218463624Y-116188733D01*
X218501131Y-116143032D01*
X219004163Y-115640000D01*
X219236379Y-115640000D01*
X219700054Y-115547770D01*
X220136826Y-115366853D01*
X220529911Y-115104202D01*
X220864202Y-114769911D01*
X221126853Y-114376826D01*
X221307770Y-113940054D01*
X221400000Y-113476379D01*
X221400000Y-113003621D01*
X221307770Y-112539946D01*
X221126853Y-112103174D01*
X220864202Y-111710089D01*
X220529911Y-111375798D01*
X220136826Y-111113147D01*
X219700054Y-110932230D01*
X219236379Y-110840000D01*
X218763621Y-110840000D01*
X218299946Y-110932230D01*
X217863174Y-111113147D01*
X217470089Y-111375798D01*
X217135798Y-111710089D01*
X216873147Y-112103174D01*
X216692230Y-112539946D01*
X216600000Y-113003621D01*
X216600000Y-113235837D01*
X216535837Y-113300000D01*
X216055675Y-113300000D01*
X215947355Y-113227623D01*
X215583378Y-113076859D01*
X215455606Y-113051444D01*
X215192613Y-112788450D01*
X215139381Y-112723587D01*
X215074519Y-112670356D01*
X215074515Y-112670352D01*
X214880523Y-112511147D01*
X214754525Y-112443800D01*
X214585193Y-112353290D01*
X214264742Y-112256082D01*
X214014994Y-112231484D01*
X214014984Y-112231484D01*
X213931484Y-112223260D01*
X213847984Y-112231484D01*
X211100794Y-112231484D01*
X211086662Y-112210334D01*
X210710585Y-111834257D01*
X210268365Y-111538775D01*
X209776996Y-111335244D01*
X209255362Y-111231484D01*
X208723508Y-111231484D01*
X208201874Y-111335244D01*
X207710505Y-111538775D01*
X207268285Y-111834257D01*
X206892208Y-112210334D01*
X206596726Y-112652554D01*
X206393195Y-113143923D01*
X206289435Y-113665557D01*
X206289435Y-114197411D01*
X206350244Y-114503119D01*
X206324599Y-114587661D01*
X206291776Y-114920919D01*
X206300001Y-115004429D01*
X206300000Y-117588730D01*
X206291148Y-117597582D01*
X206050385Y-117957909D01*
X205884545Y-118358284D01*
X205800000Y-118783319D01*
X203700000Y-118783319D01*
X203700000Y-118465787D01*
X203778971Y-118433076D01*
X204221191Y-118137594D01*
X204597268Y-117761517D01*
X204892750Y-117319297D01*
X205096281Y-116827928D01*
X205200041Y-116306294D01*
X205200041Y-115774440D01*
X205096281Y-115252806D01*
X204892750Y-114761437D01*
X204700041Y-114473028D01*
X204700041Y-114182147D01*
X204854058Y-113810317D01*
X204948210Y-113336982D01*
X204948210Y-112854374D01*
X204854058Y-112381039D01*
X204669372Y-111935168D01*
X204401250Y-111533894D01*
X204059994Y-111192638D01*
X203658720Y-110924516D01*
X203212849Y-110739830D01*
X202739514Y-110645678D01*
X202256906Y-110645678D01*
X201783571Y-110739830D01*
X201337700Y-110924516D01*
X200936426Y-111192638D01*
X200595170Y-111533894D01*
X200327048Y-111935168D01*
X200142362Y-112381039D01*
X200048210Y-112854374D01*
X200048210Y-113336982D01*
X200142362Y-113810317D01*
X200300041Y-114190987D01*
X200300041Y-114473028D01*
X200107332Y-114761437D01*
X199903801Y-115252806D01*
X199800041Y-115774440D01*
X199800041Y-116306294D01*
X199808317Y-116347901D01*
X199789357Y-116540408D01*
X199831834Y-116971683D01*
X199957631Y-117386384D01*
X200161917Y-117768576D01*
X200300001Y-117936831D01*
X200300000Y-118805887D01*
X200135798Y-118970089D01*
X199873147Y-119363174D01*
X199692230Y-119799946D01*
X199600000Y-120263621D01*
X197505806Y-120263621D01*
X197505806Y-119200000D01*
X197482637Y-118964759D01*
X197414019Y-118738558D01*
X197302591Y-118530090D01*
X197200000Y-118405082D01*
X197200000Y-116361614D01*
X197289532Y-116324529D01*
X197731752Y-116029047D01*
X198107829Y-115652970D01*
X198403311Y-115210750D01*
X198606842Y-114719381D01*
X198710602Y-114197747D01*
X198710602Y-113665893D01*
X198606842Y-113144259D01*
X198403311Y-112652890D01*
X198107829Y-112210670D01*
X197731752Y-111834593D01*
X197289532Y-111539111D01*
X196798163Y-111335580D01*
X196276529Y-111231820D01*
X195744675Y-111231820D01*
X195223041Y-111335580D01*
X194731672Y-111539111D01*
X194289452Y-111834593D01*
X193913375Y-112210670D01*
X193617893Y-112652890D01*
X193414362Y-113144259D01*
X193310602Y-113665893D01*
X193310602Y-114197747D01*
X193315564Y-114222694D01*
X192738259Y-114800000D01*
X191555675Y-114800000D01*
X191447355Y-114727623D01*
X191083378Y-114576859D01*
X190696983Y-114500000D01*
X190303017Y-114500000D01*
X189916622Y-114576859D01*
X189552645Y-114727623D01*
X189225074Y-114946499D01*
X188946499Y-115225074D01*
X188727623Y-115552645D01*
X188576859Y-115916622D01*
X188500000Y-116303017D01*
X188500000Y-116696983D01*
X188576859Y-117083378D01*
X188727623Y-117447355D01*
X188946499Y-117774926D01*
X189225074Y-118053501D01*
X189552645Y-118272377D01*
X189916622Y-118423141D01*
X190303017Y-118500000D01*
X190696983Y-118500000D01*
X191083378Y-118423141D01*
X191447355Y-118272377D01*
X191555675Y-118200000D01*
X193358922Y-118200000D01*
X193442422Y-118208224D01*
X193525922Y-118200000D01*
X193525932Y-118200000D01*
X193775680Y-118175402D01*
X193800000Y-118168024D01*
X193800000Y-118405082D01*
X193697409Y-118530090D01*
X193585981Y-118738558D01*
X193517363Y-118964759D01*
X193494194Y-119200000D01*
X193494194Y-120800000D01*
X193517363Y-121035241D01*
X193585981Y-121261442D01*
X193617056Y-121319579D01*
X193576859Y-121416622D01*
X193500000Y-121803017D01*
X193500000Y-122196983D01*
X193576859Y-122583378D01*
X193727623Y-122947355D01*
X193800000Y-123055675D01*
X193800001Y-125330727D01*
X193689039Y-125239663D01*
X193393709Y-125081806D01*
X193073258Y-124984598D01*
X192823510Y-124960000D01*
X192823500Y-124960000D01*
X192740000Y-124951776D01*
X192656500Y-124960000D01*
X191555675Y-124960000D01*
X191447355Y-124887623D01*
X191083378Y-124736859D01*
X190696983Y-124660000D01*
X190303017Y-124660000D01*
X189916622Y-124736859D01*
X189552645Y-124887623D01*
X189444325Y-124960000D01*
X180864163Y-124960000D01*
X176200000Y-120295837D01*
X176200000Y-119803017D01*
X178500000Y-119803017D01*
X178500000Y-120196983D01*
X178576859Y-120583378D01*
X178727623Y-120947355D01*
X178946499Y-121274926D01*
X179225074Y-121553501D01*
X179552645Y-121772377D01*
X179916622Y-121923141D01*
X180044393Y-121948556D01*
X180738872Y-122643035D01*
X180792103Y-122707897D01*
X180856965Y-122761128D01*
X180856968Y-122761131D01*
X180913798Y-122807770D01*
X181050961Y-122920337D01*
X181346291Y-123078194D01*
X181666742Y-123175402D01*
X181916490Y-123200000D01*
X181916499Y-123200000D01*
X181999999Y-123208224D01*
X182083499Y-123200000D01*
X183444325Y-123200000D01*
X183552645Y-123272377D01*
X183916622Y-123423141D01*
X184303017Y-123500000D01*
X184696983Y-123500000D01*
X185083378Y-123423141D01*
X185447355Y-123272377D01*
X185774926Y-123053501D01*
X186053501Y-122774926D01*
X186272377Y-122447355D01*
X186423141Y-122083378D01*
X186500000Y-121696983D01*
X186500000Y-121303017D01*
X186423141Y-120916622D01*
X186272377Y-120552645D01*
X186200000Y-120444325D01*
X186200000Y-117204163D01*
X186455607Y-116948556D01*
X186583378Y-116923141D01*
X186947355Y-116772377D01*
X187274926Y-116553501D01*
X187553501Y-116274926D01*
X187772377Y-115947355D01*
X187923141Y-115583378D01*
X188000000Y-115196983D01*
X188000000Y-114803017D01*
X187923141Y-114416622D01*
X187772377Y-114052645D01*
X187553501Y-113725074D01*
X187274926Y-113446499D01*
X186947355Y-113227623D01*
X186583378Y-113076859D01*
X186196983Y-113000000D01*
X185803017Y-113000000D01*
X185416622Y-113076859D01*
X185052645Y-113227623D01*
X184725074Y-113446499D01*
X184446499Y-113725074D01*
X184227623Y-114052645D01*
X184076859Y-114416622D01*
X184051444Y-114544393D01*
X183356961Y-115238876D01*
X183292104Y-115292103D01*
X183238877Y-115356960D01*
X183238868Y-115356969D01*
X183079663Y-115550961D01*
X182921807Y-115846291D01*
X182824599Y-116166742D01*
X182791776Y-116500000D01*
X182800001Y-116583510D01*
X182800000Y-119800000D01*
X182704163Y-119800000D01*
X182448556Y-119544393D01*
X182423141Y-119416622D01*
X182272377Y-119052645D01*
X182053501Y-118725074D01*
X181774926Y-118446499D01*
X181447355Y-118227623D01*
X181083378Y-118076859D01*
X180696983Y-118000000D01*
X180303017Y-118000000D01*
X179916622Y-118076859D01*
X179552645Y-118227623D01*
X179225074Y-118446499D01*
X178946499Y-118725074D01*
X178727623Y-119052645D01*
X178576859Y-119416622D01*
X178500000Y-119803017D01*
X176200000Y-119803017D01*
X176200000Y-115243922D01*
X176900000Y-115243922D01*
X176900000Y-115756078D01*
X176999917Y-116258392D01*
X177195910Y-116731562D01*
X177480448Y-117157403D01*
X177842597Y-117519552D01*
X178268438Y-117804090D01*
X178741608Y-118000083D01*
X179243922Y-118100000D01*
X179756078Y-118100000D01*
X180258392Y-118000083D01*
X180731562Y-117804090D01*
X181157403Y-117519552D01*
X181519552Y-117157403D01*
X181804090Y-116731562D01*
X182000083Y-116258392D01*
X182100000Y-115756078D01*
X182100000Y-115243922D01*
X182000083Y-114741608D01*
X181804090Y-114268438D01*
X181519552Y-113842597D01*
X181157403Y-113480448D01*
X180731562Y-113195910D01*
X180258392Y-112999917D01*
X179756078Y-112900000D01*
X179243922Y-112900000D01*
X178741608Y-112999917D01*
X178268438Y-113195910D01*
X177842597Y-113480448D01*
X177480448Y-113842597D01*
X177195910Y-114268438D01*
X176999917Y-114741608D01*
X176900000Y-115243922D01*
X176200000Y-115243922D01*
X176200000Y-110493409D01*
X176238558Y-110514019D01*
X176464759Y-110582637D01*
X176700000Y-110605806D01*
X180300000Y-110605806D01*
X180535241Y-110582637D01*
X180761442Y-110514019D01*
X180969910Y-110402591D01*
X181152634Y-110252634D01*
X181302591Y-110069910D01*
X181414019Y-109861442D01*
X181482637Y-109635241D01*
X181505806Y-109400000D01*
X181505806Y-107600000D01*
X181482637Y-107364759D01*
X181414019Y-107138558D01*
X181302591Y-106930090D01*
X181152634Y-106747366D01*
X180969910Y-106597409D01*
X180761442Y-106485981D01*
X180535241Y-106417363D01*
X180300000Y-106394194D01*
X176700000Y-106394194D01*
X176464759Y-106417363D01*
X176238558Y-106485981D01*
X176200000Y-106506591D01*
X176200000Y-104987701D01*
X176427657Y-105174535D01*
X176792476Y-105369535D01*
X177188328Y-105489615D01*
X177496833Y-105520000D01*
X179503167Y-105520000D01*
X179811672Y-105489615D01*
X180207524Y-105369535D01*
X180572343Y-105174535D01*
X180892109Y-104912109D01*
X181154535Y-104592343D01*
X181349535Y-104227524D01*
X181469615Y-103831672D01*
X181510161Y-103420000D01*
X181469615Y-103008328D01*
X181349535Y-102612476D01*
X181154535Y-102247657D01*
X180892109Y-101927891D01*
X180572343Y-101665465D01*
X180207524Y-101470465D01*
X179811672Y-101350385D01*
X179527555Y-101322402D01*
X189299956Y-101322402D01*
X189299956Y-101854256D01*
X189403716Y-102375890D01*
X189607247Y-102867259D01*
X189800020Y-103155764D01*
X189800019Y-106844368D01*
X189607310Y-107132778D01*
X189403779Y-107624147D01*
X189300019Y-108145781D01*
X189300019Y-108677635D01*
X189403779Y-109199269D01*
X189607310Y-109690638D01*
X189902792Y-110132858D01*
X190278869Y-110508935D01*
X190721089Y-110804417D01*
X191212458Y-111007948D01*
X191734092Y-111111708D01*
X192265946Y-111111708D01*
X192787580Y-111007948D01*
X193278949Y-110804417D01*
X193721169Y-110508935D01*
X194097246Y-110132858D01*
X194392728Y-109690638D01*
X194596259Y-109199269D01*
X194700019Y-108677635D01*
X194700019Y-108580000D01*
X223489839Y-108580000D01*
X223530385Y-108991672D01*
X223650465Y-109387524D01*
X223845465Y-109752343D01*
X224107891Y-110072109D01*
X224427657Y-110334535D01*
X224792476Y-110529535D01*
X225188328Y-110649615D01*
X225496833Y-110680000D01*
X227503167Y-110680000D01*
X227811672Y-110649615D01*
X228207524Y-110529535D01*
X228572343Y-110334535D01*
X228892109Y-110072109D01*
X229154535Y-109752343D01*
X229349535Y-109387524D01*
X229469615Y-108991672D01*
X229510161Y-108580000D01*
X229469615Y-108168328D01*
X229349535Y-107772476D01*
X229154535Y-107407657D01*
X228892109Y-107087891D01*
X228572343Y-106825465D01*
X228207524Y-106630465D01*
X227811672Y-106510385D01*
X227503167Y-106480000D01*
X225496833Y-106480000D01*
X225188328Y-106510385D01*
X224792476Y-106630465D01*
X224427657Y-106825465D01*
X224107891Y-107087891D01*
X223845465Y-107407657D01*
X223650465Y-107772476D01*
X223530385Y-108168328D01*
X223489839Y-108580000D01*
X194700019Y-108580000D01*
X194700019Y-108145781D01*
X194596259Y-107624147D01*
X194392728Y-107132778D01*
X194200019Y-106844369D01*
X194200019Y-104758696D01*
X200050000Y-104758696D01*
X200050000Y-105241304D01*
X200144152Y-105714639D01*
X200328838Y-106160510D01*
X200596960Y-106561784D01*
X200938216Y-106903040D01*
X201339490Y-107171162D01*
X201785361Y-107355848D01*
X202258696Y-107450000D01*
X202741304Y-107450000D01*
X203214639Y-107355848D01*
X203660510Y-107171162D01*
X204061784Y-106903040D01*
X204403040Y-106561784D01*
X204671162Y-106160510D01*
X204855848Y-105714639D01*
X204950000Y-105241304D01*
X204950000Y-104758696D01*
X204855848Y-104285361D01*
X204671162Y-103839490D01*
X204403040Y-103438216D01*
X204061784Y-103096960D01*
X203660510Y-102828838D01*
X203214639Y-102644152D01*
X202741304Y-102550000D01*
X202258696Y-102550000D01*
X201785361Y-102644152D01*
X201339490Y-102828838D01*
X200938216Y-103096960D01*
X200596960Y-103438216D01*
X200328838Y-103839490D01*
X200144152Y-104285361D01*
X200050000Y-104758696D01*
X194200019Y-104758696D01*
X194200019Y-103155574D01*
X194392665Y-102867259D01*
X194596196Y-102375890D01*
X194699956Y-101854256D01*
X194699956Y-101322402D01*
X194699949Y-101322365D01*
X210299981Y-101322365D01*
X210299981Y-101854219D01*
X210403741Y-102375853D01*
X210607272Y-102867222D01*
X210902754Y-103309442D01*
X211278831Y-103685519D01*
X211721051Y-103981001D01*
X212212420Y-104184532D01*
X212734054Y-104288292D01*
X213265908Y-104288292D01*
X213787542Y-104184532D01*
X214278911Y-103981001D01*
X214721131Y-103685519D01*
X215097208Y-103309442D01*
X215392690Y-102867222D01*
X215503376Y-102600000D01*
X223494194Y-102600000D01*
X223494194Y-104400000D01*
X223517363Y-104635241D01*
X223585981Y-104861442D01*
X223697409Y-105069910D01*
X223847366Y-105252634D01*
X224030090Y-105402591D01*
X224238558Y-105514019D01*
X224464759Y-105582637D01*
X224700000Y-105605806D01*
X228300000Y-105605806D01*
X228535241Y-105582637D01*
X228761442Y-105514019D01*
X228969910Y-105402591D01*
X229152634Y-105252634D01*
X229302591Y-105069910D01*
X229414019Y-104861442D01*
X229482637Y-104635241D01*
X229505806Y-104400000D01*
X229505806Y-102600000D01*
X229482637Y-102364759D01*
X229414019Y-102138558D01*
X229302591Y-101930090D01*
X229152634Y-101747366D01*
X228969910Y-101597409D01*
X228761442Y-101485981D01*
X228535241Y-101417363D01*
X228300000Y-101394194D01*
X224700000Y-101394194D01*
X224464759Y-101417363D01*
X224238558Y-101485981D01*
X224030090Y-101597409D01*
X223847366Y-101747366D01*
X223697409Y-101930090D01*
X223585981Y-102138558D01*
X223517363Y-102364759D01*
X223494194Y-102600000D01*
X215503376Y-102600000D01*
X215596221Y-102375853D01*
X215699981Y-101854219D01*
X215699981Y-101322365D01*
X215596221Y-100800731D01*
X215392690Y-100309362D01*
X215097208Y-99867142D01*
X214721131Y-99491065D01*
X214278911Y-99195583D01*
X213787542Y-98992052D01*
X213265908Y-98888292D01*
X212734054Y-98888292D01*
X212212420Y-98992052D01*
X211721051Y-99195583D01*
X211278831Y-99491065D01*
X210902754Y-99867142D01*
X210607272Y-100309362D01*
X210403741Y-100800731D01*
X210299981Y-101322365D01*
X194699949Y-101322365D01*
X194596196Y-100800768D01*
X194392665Y-100309399D01*
X194097183Y-99867179D01*
X193721106Y-99491102D01*
X193278886Y-99195620D01*
X192787517Y-98992089D01*
X192265883Y-98888329D01*
X191734029Y-98888329D01*
X191212395Y-98992089D01*
X190721026Y-99195620D01*
X190278806Y-99491102D01*
X189902729Y-99867179D01*
X189607247Y-100309399D01*
X189403716Y-100800768D01*
X189299956Y-101322402D01*
X179527555Y-101322402D01*
X179503167Y-101320000D01*
X177496833Y-101320000D01*
X177188328Y-101350385D01*
X176792476Y-101470465D01*
X176427657Y-101665465D01*
X176200000Y-101852299D01*
X176200000Y-95204163D01*
X182504163Y-88900000D01*
X182736379Y-88900000D01*
X183200054Y-88807770D01*
X183636826Y-88626853D01*
X184029911Y-88364202D01*
X184364202Y-88029911D01*
X184626853Y-87636826D01*
X184807770Y-87200054D01*
X184900000Y-86736379D01*
X184900000Y-86504163D01*
X187204163Y-84200000D01*
X199588730Y-84200000D01*
X199597582Y-84208852D01*
X199957909Y-84449615D01*
X200358284Y-84615455D01*
X200783319Y-84700000D01*
X201216681Y-84700000D01*
X201641716Y-84615455D01*
X202042091Y-84449615D01*
X202402418Y-84208852D01*
X202708852Y-83902418D01*
X202949615Y-83542091D01*
X203115455Y-83141716D01*
X203135712Y-83039875D01*
X205300001Y-85204164D01*
X205300000Y-88305887D01*
X205135798Y-88470089D01*
X204873147Y-88863174D01*
X204692230Y-89299946D01*
X204600000Y-89763621D01*
X204600000Y-89995837D01*
X203241582Y-91354255D01*
X202799756Y-91266370D01*
X202949615Y-91042091D01*
X203115455Y-90641716D01*
X203200000Y-90216681D01*
X203200000Y-89783319D01*
X203115455Y-89358284D01*
X202949615Y-88957909D01*
X202708852Y-88597582D01*
X202402418Y-88291148D01*
X202042091Y-88050385D01*
X201641716Y-87884545D01*
X201216681Y-87800000D01*
X200783319Y-87800000D01*
X200358284Y-87884545D01*
X199957909Y-88050385D01*
X199597582Y-88291148D01*
X199291148Y-88597582D01*
X199050385Y-88957909D01*
X198884545Y-89358284D01*
X198848399Y-89540000D01*
X196694113Y-89540000D01*
X196529911Y-89375798D01*
X196136826Y-89113147D01*
X195700054Y-88932230D01*
X195236379Y-88840000D01*
X194763621Y-88840000D01*
X194299946Y-88932230D01*
X193863174Y-89113147D01*
X193470089Y-89375798D01*
X193135798Y-89710089D01*
X192873147Y-90103174D01*
X192692230Y-90539946D01*
X192600000Y-91003621D01*
X192600000Y-91476379D01*
X192692230Y-91940054D01*
X192873147Y-92376826D01*
X193135798Y-92769911D01*
X193300000Y-92934113D01*
X193300001Y-93300000D01*
X187055675Y-93300000D01*
X186947355Y-93227623D01*
X186583378Y-93076859D01*
X186196983Y-93000000D01*
X185803017Y-93000000D01*
X185416622Y-93076859D01*
X185052645Y-93227623D01*
X184725074Y-93446499D01*
X184446499Y-93725074D01*
X184227623Y-94052645D01*
X184076859Y-94416622D01*
X184000000Y-94803017D01*
X184000000Y-95196983D01*
X184076859Y-95583378D01*
X184227623Y-95947355D01*
X184446499Y-96274926D01*
X184725074Y-96553501D01*
X185052645Y-96772377D01*
X185416622Y-96923141D01*
X185803017Y-97000000D01*
X186196983Y-97000000D01*
X186583378Y-96923141D01*
X186947355Y-96772377D01*
X187055675Y-96700000D01*
X193383478Y-96700000D01*
X193414448Y-96855697D01*
X193617979Y-97347066D01*
X193913461Y-97789286D01*
X194289538Y-98165363D01*
X194731758Y-98460845D01*
X195223127Y-98664376D01*
X195744761Y-98768136D01*
X196276615Y-98768136D01*
X196798249Y-98664376D01*
X197289618Y-98460845D01*
X197731838Y-98165363D01*
X198107915Y-97789286D01*
X198403397Y-97347066D01*
X198606928Y-96855697D01*
X198710688Y-96334063D01*
X198710688Y-95802209D01*
X198606928Y-95280575D01*
X198403397Y-94789206D01*
X198107915Y-94346986D01*
X197731838Y-93970909D01*
X197289618Y-93675427D01*
X196798249Y-93471896D01*
X196700000Y-93452353D01*
X196700000Y-92940000D01*
X199676500Y-92940000D01*
X199760000Y-92948224D01*
X199843500Y-92940000D01*
X199843510Y-92940000D01*
X200006495Y-92923947D01*
X199903719Y-93172072D01*
X199799959Y-93693706D01*
X199799959Y-94225560D01*
X199903719Y-94747194D01*
X200107250Y-95238563D01*
X200299959Y-95526972D01*
X200299959Y-95797350D01*
X200176843Y-96094578D01*
X200082691Y-96567913D01*
X200082691Y-97050521D01*
X200176843Y-97523856D01*
X200361529Y-97969727D01*
X200629651Y-98371001D01*
X200970907Y-98712257D01*
X201372181Y-98980379D01*
X201818052Y-99165065D01*
X202291387Y-99259217D01*
X202773995Y-99259217D01*
X203247330Y-99165065D01*
X203693201Y-98980379D01*
X204094475Y-98712257D01*
X204435731Y-98371001D01*
X204703853Y-97969727D01*
X204888539Y-97523856D01*
X204982691Y-97050521D01*
X204982691Y-96567913D01*
X204888539Y-96094578D01*
X204703853Y-95648707D01*
X204699959Y-95642879D01*
X204699959Y-95526972D01*
X204892668Y-95238563D01*
X205035045Y-94894833D01*
X205082736Y-94805610D01*
X205208534Y-94390908D01*
X205229869Y-94174294D01*
X207004163Y-92400000D01*
X207236379Y-92400000D01*
X207700054Y-92307770D01*
X208136826Y-92126853D01*
X208529911Y-91864202D01*
X208864202Y-91529911D01*
X209126853Y-91136826D01*
X209307770Y-90700054D01*
X209400000Y-90236379D01*
X209400000Y-89763621D01*
X209307770Y-89299946D01*
X209126853Y-88863174D01*
X208864202Y-88470089D01*
X208700000Y-88305887D01*
X208700000Y-84583499D01*
X208708224Y-84499999D01*
X208700000Y-84416499D01*
X208700000Y-84416490D01*
X208675402Y-84166742D01*
X208578194Y-83846291D01*
X208420337Y-83550961D01*
X208336692Y-83449040D01*
X208261131Y-83356968D01*
X208261128Y-83356965D01*
X208207897Y-83292103D01*
X208143035Y-83238872D01*
X206541605Y-81637442D01*
X206666742Y-81675402D01*
X206916490Y-81700000D01*
X206916499Y-81700000D01*
X206999999Y-81708224D01*
X207083499Y-81700000D01*
X213295837Y-81700000D01*
X214300001Y-82704164D01*
X214300001Y-83666587D01*
X214083378Y-83576859D01*
X213696983Y-83500000D01*
X213303017Y-83500000D01*
X212916622Y-83576859D01*
X212552645Y-83727623D01*
X212225074Y-83946499D01*
X211946499Y-84225074D01*
X211727623Y-84552645D01*
X211576859Y-84916622D01*
X211500000Y-85303017D01*
X211500000Y-85696983D01*
X211576859Y-86083378D01*
X211617056Y-86180421D01*
X211585981Y-86238558D01*
X211517363Y-86464759D01*
X211494194Y-86700000D01*
X211494194Y-88300000D01*
X211517363Y-88535241D01*
X211585981Y-88761442D01*
X211697409Y-88969910D01*
X211800000Y-89094919D01*
X211800001Y-90853414D01*
X209280273Y-93373142D01*
X209255325Y-93368180D01*
X208723471Y-93368180D01*
X208201837Y-93471940D01*
X207710468Y-93675471D01*
X207268248Y-93970953D01*
X206892171Y-94347030D01*
X206596689Y-94789250D01*
X206393158Y-95280619D01*
X206289398Y-95802253D01*
X206289398Y-96334107D01*
X206393158Y-96855741D01*
X206596689Y-97347110D01*
X206892171Y-97789330D01*
X207268248Y-98165407D01*
X207710468Y-98460889D01*
X208201837Y-98664420D01*
X208723471Y-98768180D01*
X209255325Y-98768180D01*
X209776959Y-98664420D01*
X210268328Y-98460889D01*
X210710548Y-98165407D01*
X211086625Y-97789330D01*
X211103803Y-97763621D01*
X216600000Y-97763621D01*
X216600000Y-98236379D01*
X216692230Y-98700054D01*
X216873147Y-99136826D01*
X217135798Y-99529911D01*
X217470089Y-99864202D01*
X217863174Y-100126853D01*
X218299946Y-100307770D01*
X218763621Y-100400000D01*
X219236379Y-100400000D01*
X219700054Y-100307770D01*
X220136826Y-100126853D01*
X220529911Y-99864202D01*
X220864202Y-99529911D01*
X221126853Y-99136826D01*
X221307770Y-98700054D01*
X221400000Y-98236379D01*
X221400000Y-97763621D01*
X221307770Y-97299946D01*
X221126853Y-96863174D01*
X220864202Y-96470089D01*
X220529911Y-96135798D01*
X220136826Y-95873147D01*
X219700054Y-95692230D01*
X219236379Y-95600000D01*
X218763621Y-95600000D01*
X218299946Y-95692230D01*
X217863174Y-95873147D01*
X217470089Y-96135798D01*
X217135798Y-96470089D01*
X216873147Y-96863174D01*
X216692230Y-97299946D01*
X216600000Y-97763621D01*
X211103803Y-97763621D01*
X211382107Y-97347110D01*
X211585638Y-96855741D01*
X211689398Y-96334107D01*
X211689398Y-95802253D01*
X211684436Y-95777305D01*
X214643035Y-92818706D01*
X214707897Y-92765475D01*
X214761128Y-92700613D01*
X215761741Y-91700000D01*
X218588732Y-91700000D01*
X218600783Y-91712051D01*
X218851832Y-91918083D01*
X219234024Y-92122368D01*
X219648725Y-92248166D01*
X220079999Y-92290643D01*
X220511274Y-92248166D01*
X220925976Y-92122368D01*
X221308168Y-91918083D01*
X221476422Y-91780000D01*
X224361206Y-91780000D01*
X224427657Y-91834535D01*
X224792476Y-92029535D01*
X225188328Y-92149615D01*
X225496833Y-92180000D01*
X227503167Y-92180000D01*
X227811672Y-92149615D01*
X228207524Y-92029535D01*
X228572343Y-91834535D01*
X228892109Y-91572109D01*
X229154535Y-91252343D01*
X229349535Y-90887524D01*
X229469615Y-90491672D01*
X229510161Y-90080000D01*
X229469615Y-89668328D01*
X229349535Y-89272476D01*
X229154535Y-88907657D01*
X228892109Y-88587891D01*
X228572343Y-88325465D01*
X228207524Y-88130465D01*
X227811672Y-88010385D01*
X227503167Y-87980000D01*
X225496833Y-87980000D01*
X225188328Y-88010385D01*
X224792476Y-88130465D01*
X224427657Y-88325465D01*
X224361206Y-88380000D01*
X221700000Y-88380000D01*
X221700000Y-85900000D01*
X223293226Y-85900000D01*
X223320257Y-86174448D01*
X223400310Y-86438349D01*
X223530310Y-86681562D01*
X223705261Y-86894739D01*
X223918438Y-87069690D01*
X224161651Y-87199690D01*
X224425552Y-87279743D01*
X224700000Y-87306774D01*
X226050000Y-87300000D01*
X226400000Y-86950000D01*
X226400000Y-85100000D01*
X226600000Y-85100000D01*
X226600000Y-86950000D01*
X226950000Y-87300000D01*
X228300000Y-87306774D01*
X228574448Y-87279743D01*
X228838349Y-87199690D01*
X229081562Y-87069690D01*
X229294739Y-86894739D01*
X229469690Y-86681562D01*
X229599690Y-86438349D01*
X229679743Y-86174448D01*
X229706774Y-85900000D01*
X229700000Y-85450000D01*
X229350000Y-85100000D01*
X226600000Y-85100000D01*
X226400000Y-85100000D01*
X223650000Y-85100000D01*
X223300000Y-85450000D01*
X223293226Y-85900000D01*
X221700000Y-85900000D01*
X221700000Y-85704163D01*
X223293388Y-84110775D01*
X223300000Y-84550000D01*
X223650000Y-84900000D01*
X226400000Y-84900000D01*
X226400000Y-83050000D01*
X226600000Y-83050000D01*
X226600000Y-84900000D01*
X229350000Y-84900000D01*
X229700000Y-84550000D01*
X229706774Y-84100000D01*
X229679743Y-83825552D01*
X229599690Y-83561651D01*
X229469690Y-83318438D01*
X229294739Y-83105261D01*
X229081562Y-82930310D01*
X228838349Y-82800310D01*
X228574448Y-82720257D01*
X228300000Y-82693226D01*
X226950000Y-82700000D01*
X226600000Y-83050000D01*
X226400000Y-83050000D01*
X226050000Y-82700000D01*
X224710882Y-82693281D01*
X228143036Y-79261127D01*
X228207897Y-79207897D01*
X228261128Y-79143035D01*
X228261132Y-79143031D01*
X228420337Y-78949040D01*
X228504713Y-78791183D01*
X228578194Y-78653709D01*
X228675402Y-78333258D01*
X228700000Y-78083510D01*
X228700000Y-78083500D01*
X228708224Y-78000000D01*
X228705420Y-77971535D01*
X229019552Y-77657403D01*
X229304090Y-77231562D01*
X229500083Y-76758392D01*
X229600000Y-76256078D01*
X229600000Y-75743922D01*
X229500083Y-75241608D01*
X229304090Y-74768438D01*
X229019552Y-74342597D01*
X228657403Y-73980448D01*
X228231562Y-73695910D01*
X227758392Y-73499917D01*
X227256078Y-73400000D01*
X226743922Y-73400000D01*
X226241608Y-73499917D01*
X225768438Y-73695910D01*
X225342597Y-73980448D01*
X224980448Y-74342597D01*
X224695910Y-74768438D01*
X224499917Y-75241608D01*
X224400000Y-75743922D01*
X224400000Y-76256078D01*
X224499917Y-76758392D01*
X224695910Y-77231562D01*
X224963620Y-77632217D01*
X221699673Y-80896164D01*
X221772377Y-80787355D01*
X221923141Y-80423378D01*
X222000000Y-80036983D01*
X222000000Y-79643017D01*
X221923141Y-79256622D01*
X221772377Y-78892645D01*
X221553501Y-78565074D01*
X221274926Y-78286499D01*
X220947355Y-78067623D01*
X220583378Y-77916859D01*
X220196983Y-77840000D01*
X219803017Y-77840000D01*
X219416622Y-77916859D01*
X219052645Y-78067623D01*
X218725074Y-78286499D01*
X218446499Y-78565074D01*
X218227623Y-78892645D01*
X218076859Y-79256622D01*
X218000000Y-79643017D01*
X218000000Y-80036983D01*
X218076859Y-80423378D01*
X218227623Y-80787355D01*
X218446499Y-81114926D01*
X218725074Y-81393501D01*
X219052645Y-81612377D01*
X219416622Y-81763141D01*
X219803017Y-81840000D01*
X220196983Y-81840000D01*
X220583378Y-81763141D01*
X220947355Y-81612377D01*
X221056164Y-81539673D01*
X218856961Y-83738876D01*
X218792104Y-83792103D01*
X218738877Y-83856960D01*
X218738868Y-83856969D01*
X218579663Y-84050961D01*
X218421807Y-84346291D01*
X218324599Y-84666742D01*
X218291776Y-85000000D01*
X218300001Y-85083510D01*
X218300000Y-88300000D01*
X216604163Y-88300000D01*
X217143031Y-87761131D01*
X217207897Y-87707897D01*
X217420337Y-87449039D01*
X217500000Y-87300000D01*
X217578194Y-87153710D01*
X217675402Y-86833258D01*
X217681147Y-86774926D01*
X217700000Y-86583510D01*
X217700000Y-86583502D01*
X217708224Y-86500000D01*
X217700000Y-86416498D01*
X217700000Y-82083499D01*
X217708224Y-81999999D01*
X217700000Y-81916499D01*
X217700000Y-81916490D01*
X217675402Y-81666742D01*
X217578194Y-81346291D01*
X217482124Y-81166557D01*
X217420337Y-81050960D01*
X217261131Y-80856968D01*
X217261128Y-80856965D01*
X217207897Y-80792103D01*
X217143035Y-80738872D01*
X215681400Y-79277237D01*
X215621725Y-79133170D01*
X215421454Y-78833443D01*
X215166557Y-78578546D01*
X214866830Y-78378275D01*
X214533791Y-78240325D01*
X214180239Y-78170000D01*
X213819761Y-78170000D01*
X213466209Y-78240325D01*
X213322142Y-78300000D01*
X213092838Y-78300000D01*
X213219675Y-77993791D01*
X213290000Y-77640239D01*
X213290000Y-77279761D01*
X213219675Y-76926209D01*
X213081725Y-76593170D01*
X212978132Y-76438132D01*
X213133170Y-76541725D01*
X213466209Y-76679675D01*
X213819761Y-76750000D01*
X214180239Y-76750000D01*
X214533791Y-76679675D01*
X214866830Y-76541725D01*
X215166557Y-76341454D01*
X215421454Y-76086557D01*
X215621725Y-75786830D01*
X215759675Y-75453791D01*
X215830000Y-75100239D01*
X215830000Y-74739761D01*
X215759675Y-74386209D01*
X215621725Y-74053170D01*
X215421454Y-73753443D01*
X215166557Y-73498546D01*
X214866830Y-73298275D01*
X214533791Y-73160325D01*
X214180239Y-73090000D01*
X213819761Y-73090000D01*
X213466209Y-73160325D01*
X213133170Y-73298275D01*
X212833443Y-73498546D01*
X212578546Y-73753443D01*
X212378275Y-74053170D01*
X212240325Y-74386209D01*
X212170000Y-74739761D01*
X212170000Y-75100239D01*
X212240325Y-75453791D01*
X212378275Y-75786830D01*
X212481868Y-75941868D01*
X212326830Y-75838275D01*
X211993791Y-75700325D01*
X211640239Y-75630000D01*
X211279761Y-75630000D01*
X210926209Y-75700325D01*
X210593170Y-75838275D01*
X210293443Y-76038546D01*
X210038546Y-76293443D01*
X209838275Y-76593170D01*
X209700325Y-76926209D01*
X209630000Y-77279761D01*
X209630000Y-77640239D01*
X209700325Y-77993791D01*
X209827162Y-78300000D01*
X207704163Y-78300000D01*
X206514637Y-77110474D01*
X206763621Y-77160000D01*
X207236379Y-77160000D01*
X207700054Y-77067770D01*
X208136826Y-76886853D01*
X208529911Y-76624202D01*
X208864202Y-76289911D01*
X209126853Y-75896826D01*
X209307770Y-75460054D01*
X209400000Y-74996379D01*
X209400000Y-74523621D01*
X209307770Y-74059946D01*
X209126853Y-73623174D01*
X208864202Y-73230089D01*
X208700000Y-73065887D01*
X208700000Y-66695829D01*
X208752634Y-66652634D01*
X208902591Y-66469910D01*
X209014019Y-66261442D01*
X209082637Y-66035241D01*
X209105806Y-65800000D01*
X209105806Y-64100000D01*
X209780000Y-64100000D01*
X209780000Y-65000000D01*
X209843703Y-65446786D01*
X209993345Y-65872560D01*
X210223177Y-66260959D01*
X210524365Y-66597057D01*
X210885335Y-66867938D01*
X211292216Y-67063192D01*
X211621772Y-67153892D01*
X211980000Y-66847434D01*
X211980000Y-64100000D01*
X212180000Y-64100000D01*
X212180000Y-66847434D01*
X212538228Y-67153892D01*
X212867784Y-67063192D01*
X213274665Y-66867938D01*
X213635635Y-66597057D01*
X213936823Y-66260959D01*
X214166655Y-65872560D01*
X214316297Y-65446786D01*
X214380000Y-65000000D01*
X214380000Y-64100000D01*
X212180000Y-64100000D01*
X211980000Y-64100000D01*
X209780000Y-64100000D01*
X209105806Y-64100000D01*
X209105806Y-63000000D01*
X209780000Y-63000000D01*
X209780000Y-63900000D01*
X211980000Y-63900000D01*
X211980000Y-61152566D01*
X212180000Y-61152566D01*
X212180000Y-63900000D01*
X214380000Y-63900000D01*
X214380000Y-63000000D01*
X214316297Y-62553214D01*
X214200671Y-62224224D01*
X224700000Y-62224224D01*
X224700000Y-62775776D01*
X224807602Y-63316730D01*
X225018672Y-63826297D01*
X225325098Y-64284896D01*
X225715104Y-64674902D01*
X226173703Y-64981328D01*
X226683270Y-65192398D01*
X227224224Y-65300000D01*
X227775776Y-65300000D01*
X228316730Y-65192398D01*
X228826297Y-64981328D01*
X229284896Y-64674902D01*
X229674902Y-64284896D01*
X229981328Y-63826297D01*
X230192398Y-63316730D01*
X230300000Y-62775776D01*
X230300000Y-62224224D01*
X230192398Y-61683270D01*
X229981328Y-61173703D01*
X229674902Y-60715104D01*
X229284896Y-60325098D01*
X228826297Y-60018672D01*
X228316730Y-59807602D01*
X227775776Y-59700000D01*
X227224224Y-59700000D01*
X226683270Y-59807602D01*
X226173703Y-60018672D01*
X225715104Y-60325098D01*
X225325098Y-60715104D01*
X225018672Y-61173703D01*
X224807602Y-61683270D01*
X224700000Y-62224224D01*
X214200671Y-62224224D01*
X214166655Y-62127440D01*
X213936823Y-61739041D01*
X213635635Y-61402943D01*
X213274665Y-61132062D01*
X212867784Y-60936808D01*
X212538228Y-60846108D01*
X212180000Y-61152566D01*
X211980000Y-61152566D01*
X211621772Y-60846108D01*
X211292216Y-60936808D01*
X210885335Y-61132062D01*
X210524365Y-61402943D01*
X210223177Y-61739041D01*
X209993345Y-62127440D01*
X209843703Y-62553214D01*
X209780000Y-63000000D01*
X209105806Y-63000000D01*
X209105806Y-62200000D01*
X209082637Y-61964759D01*
X209014019Y-61738558D01*
X208902591Y-61530090D01*
X208752634Y-61347366D01*
X208569910Y-61197409D01*
X208361442Y-61085981D01*
X208135241Y-61017363D01*
X207900000Y-60994194D01*
X206100000Y-60994194D01*
X205864759Y-61017363D01*
X205638558Y-61085981D01*
X205430090Y-61197409D01*
X205247366Y-61347366D01*
X205097409Y-61530090D01*
X204985981Y-61738558D01*
X204917363Y-61964759D01*
X204894194Y-62200000D01*
X204894194Y-65800000D01*
X204917363Y-66035241D01*
X204985981Y-66261442D01*
X205097409Y-66469910D01*
X205247366Y-66652634D01*
X205300000Y-66695830D01*
X205300001Y-73065886D01*
X205135798Y-73230089D01*
X204873147Y-73623174D01*
X204692230Y-74059946D01*
X204600000Y-74523621D01*
X204600000Y-74996379D01*
X204649526Y-75245363D01*
X202700000Y-73295837D01*
X202700000Y-72411270D01*
X202708852Y-72402418D01*
X202949615Y-72042091D01*
X203115455Y-71641716D01*
X203200000Y-71216681D01*
X203200000Y-70783319D01*
X203115455Y-70358284D01*
X202949615Y-69957909D01*
X202708852Y-69597582D01*
X202402418Y-69291148D01*
X202042091Y-69050385D01*
X201641716Y-68884545D01*
X201216681Y-68800000D01*
X200783319Y-68800000D01*
X200358284Y-68884545D01*
X199957909Y-69050385D01*
X199597582Y-69291148D01*
X199291148Y-69597582D01*
X199050385Y-69957909D01*
X198884545Y-70358284D01*
X198800000Y-70783319D01*
X198800000Y-71216681D01*
X198884545Y-71641716D01*
X199050385Y-72042091D01*
X199291148Y-72402418D01*
X199300000Y-72411270D01*
X199300001Y-73916491D01*
X199291776Y-74000000D01*
X199324599Y-74333258D01*
X199421807Y-74653709D01*
X199579663Y-74949039D01*
X199738868Y-75143031D01*
X199738877Y-75143040D01*
X199792104Y-75207897D01*
X199856961Y-75261124D01*
X200895837Y-76300000D01*
X200783319Y-76300000D01*
X200358284Y-76384545D01*
X199957909Y-76550385D01*
X199597582Y-76791148D01*
X199291148Y-77097582D01*
X199050385Y-77457909D01*
X198884545Y-77858284D01*
X198800000Y-78283319D01*
X198800000Y-78716681D01*
X198884545Y-79141716D01*
X199050385Y-79542091D01*
X199291148Y-79902418D01*
X199597582Y-80208852D01*
X199957909Y-80449615D01*
X200079550Y-80500000D01*
X199957909Y-80550385D01*
X199597582Y-80791148D01*
X199588730Y-80800000D01*
X186583499Y-80800000D01*
X186499999Y-80791776D01*
X186416499Y-80800000D01*
X186416490Y-80800000D01*
X186166742Y-80824598D01*
X185846291Y-80921806D01*
X185550961Y-81079663D01*
X185550959Y-81079664D01*
X185550960Y-81079664D01*
X185356968Y-81238869D01*
X185356965Y-81238872D01*
X185292103Y-81292103D01*
X185238872Y-81356965D01*
X182495837Y-84100000D01*
X182263621Y-84100000D01*
X181799946Y-84192230D01*
X181363174Y-84373147D01*
X180970089Y-84635798D01*
X180635798Y-84970089D01*
X180373147Y-85363174D01*
X180192230Y-85799946D01*
X180100000Y-86263621D01*
X180100000Y-86495837D01*
X173775000Y-92820837D01*
X173775000Y-69763621D01*
X175360000Y-69763621D01*
X175360000Y-70236379D01*
X175452230Y-70700054D01*
X175633147Y-71136826D01*
X175895798Y-71529911D01*
X176230089Y-71864202D01*
X176623174Y-72126853D01*
X177059946Y-72307770D01*
X177523621Y-72400000D01*
X177755837Y-72400000D01*
X180800000Y-75444163D01*
X180800000Y-75916490D01*
X180791775Y-76000000D01*
X180800001Y-76083520D01*
X180800001Y-76706590D01*
X180630090Y-76797409D01*
X180447366Y-76947366D01*
X180297409Y-77130090D01*
X180185981Y-77338558D01*
X180117363Y-77564759D01*
X180094194Y-77800000D01*
X180094194Y-80200000D01*
X180117363Y-80435241D01*
X180185981Y-80661442D01*
X180297409Y-80869910D01*
X180447366Y-81052634D01*
X180630090Y-81202591D01*
X180838558Y-81314019D01*
X181064759Y-81382637D01*
X181300000Y-81405806D01*
X183700000Y-81405806D01*
X183935241Y-81382637D01*
X184161442Y-81314019D01*
X184369910Y-81202591D01*
X184552634Y-81052634D01*
X184702591Y-80869910D01*
X184814019Y-80661442D01*
X184882637Y-80435241D01*
X184905806Y-80200000D01*
X184905806Y-77800000D01*
X184895957Y-77700000D01*
X193305887Y-77700000D01*
X193470089Y-77864202D01*
X193863174Y-78126853D01*
X194299946Y-78307770D01*
X194763621Y-78400000D01*
X195236379Y-78400000D01*
X195700054Y-78307770D01*
X196136826Y-78126853D01*
X196529911Y-77864202D01*
X196864202Y-77529911D01*
X197126853Y-77136826D01*
X197307770Y-76700054D01*
X197400000Y-76236379D01*
X197400000Y-75763621D01*
X197307770Y-75299946D01*
X197126853Y-74863174D01*
X196864202Y-74470089D01*
X196529911Y-74135798D01*
X196136826Y-73873147D01*
X195700054Y-73692230D01*
X195236379Y-73600000D01*
X194763621Y-73600000D01*
X194299946Y-73692230D01*
X193863174Y-73873147D01*
X193470089Y-74135798D01*
X193305887Y-74300000D01*
X184143022Y-74300000D01*
X184078194Y-74086291D01*
X183920337Y-73790961D01*
X183877518Y-73738786D01*
X183761131Y-73596968D01*
X183761128Y-73596965D01*
X183707897Y-73532103D01*
X183643035Y-73478872D01*
X182080941Y-71916778D01*
X182228168Y-71838083D01*
X182563161Y-71563161D01*
X182632057Y-71479211D01*
X185031269Y-69080000D01*
X189869357Y-69080000D01*
X189911834Y-69511275D01*
X190037631Y-69925976D01*
X190241917Y-70308168D01*
X190342949Y-70431275D01*
X190516840Y-70643161D01*
X190600784Y-70712052D01*
X190765376Y-70876645D01*
X190873147Y-71136826D01*
X191135798Y-71529911D01*
X191470089Y-71864202D01*
X191863174Y-72126853D01*
X192299946Y-72307770D01*
X192763621Y-72400000D01*
X193236379Y-72400000D01*
X193700054Y-72307770D01*
X194136826Y-72126853D01*
X194529911Y-71864202D01*
X194864202Y-71529911D01*
X195126853Y-71136826D01*
X195307770Y-70700054D01*
X195400000Y-70236379D01*
X195400000Y-69763621D01*
X195307770Y-69299946D01*
X195126853Y-68863174D01*
X194864202Y-68470089D01*
X194529911Y-68135798D01*
X194280000Y-67968813D01*
X194280000Y-63891930D01*
X194248167Y-63568725D01*
X194180000Y-63344008D01*
X194180000Y-62996833D01*
X194149615Y-62688328D01*
X194029535Y-62292476D01*
X193834535Y-61927657D01*
X193572109Y-61607891D01*
X193252343Y-61345465D01*
X192887523Y-61150465D01*
X192491671Y-61030385D01*
X192080000Y-60989839D01*
X191668328Y-61030385D01*
X191272476Y-61150465D01*
X190907657Y-61345465D01*
X190587891Y-61607891D01*
X190325465Y-61927657D01*
X190130465Y-62292477D01*
X190010385Y-62688329D01*
X189980000Y-62996834D01*
X189980000Y-63344009D01*
X189911833Y-63568726D01*
X189880000Y-63891931D01*
X189880001Y-68971930D01*
X189869357Y-69080000D01*
X185031269Y-69080000D01*
X187105464Y-67005806D01*
X187900000Y-67005806D01*
X188135241Y-66982637D01*
X188361442Y-66914019D01*
X188569910Y-66802591D01*
X188752634Y-66652634D01*
X188902591Y-66469910D01*
X189014019Y-66261442D01*
X189082637Y-66035241D01*
X189105806Y-65800000D01*
X189105806Y-64636850D01*
X189168166Y-64431276D01*
X189210643Y-64000001D01*
X189168166Y-63568726D01*
X189105806Y-63363152D01*
X189105806Y-62200000D01*
X189082637Y-61964759D01*
X189014019Y-61738558D01*
X188902591Y-61530090D01*
X188752634Y-61347366D01*
X188569910Y-61197409D01*
X188361442Y-61085981D01*
X188135241Y-61017363D01*
X187900000Y-60994194D01*
X186100000Y-60994194D01*
X185864759Y-61017363D01*
X185638558Y-61085981D01*
X185430090Y-61197409D01*
X185247366Y-61347366D01*
X185097409Y-61530090D01*
X184985981Y-61738558D01*
X184917363Y-61964759D01*
X184894194Y-62200000D01*
X184894194Y-62994536D01*
X180088732Y-67800000D01*
X178720234Y-67800000D01*
X178460054Y-67692230D01*
X177996379Y-67600000D01*
X177523621Y-67600000D01*
X177059946Y-67692230D01*
X176623174Y-67873147D01*
X176230089Y-68135798D01*
X175895798Y-68470089D01*
X175633147Y-68863174D01*
X175452230Y-69299946D01*
X175360000Y-69763621D01*
X173775000Y-69763621D01*
X173775000Y-62224224D01*
X174700000Y-62224224D01*
X174700000Y-62775776D01*
X174807602Y-63316730D01*
X175018672Y-63826297D01*
X175325098Y-64284896D01*
X175715104Y-64674902D01*
X176173703Y-64981328D01*
X176683270Y-65192398D01*
X177224224Y-65300000D01*
X177775776Y-65300000D01*
X178316730Y-65192398D01*
X178826297Y-64981328D01*
X179284896Y-64674902D01*
X179674902Y-64284896D01*
X179981328Y-63826297D01*
X180192398Y-63316730D01*
X180300000Y-62775776D01*
X180300000Y-62224224D01*
X180192398Y-61683270D01*
X179981328Y-61173703D01*
X179674902Y-60715104D01*
X179284896Y-60325098D01*
X178826297Y-60018672D01*
X178316730Y-59807602D01*
X177775776Y-59700000D01*
X177224224Y-59700000D01*
X176683270Y-59807602D01*
X176173703Y-60018672D01*
X175715104Y-60325098D01*
X175325098Y-60715104D01*
X175018672Y-61173703D01*
X174807602Y-61683270D01*
X174700000Y-62224224D01*
X173775000Y-62224224D01*
X173775000Y-58775000D01*
X231225001Y-58775000D01*
X231225000Y-116407811D01*
G36*
X178898872Y-127803035D02*
G01*
X178952103Y-127867897D01*
X179016965Y-127921128D01*
X179016969Y-127921132D01*
X179126425Y-128010960D01*
X179210961Y-128080337D01*
X179506291Y-128238194D01*
X179826742Y-128335402D01*
X180076490Y-128360000D01*
X180076498Y-128360000D01*
X180160000Y-128368224D01*
X180243502Y-128360000D01*
X189444325Y-128360000D01*
X189552645Y-128432377D01*
X189916622Y-128583141D01*
X190303017Y-128660000D01*
X190696983Y-128660000D01*
X191083378Y-128583141D01*
X191447355Y-128432377D01*
X191555675Y-128360000D01*
X192035837Y-128360000D01*
X193358600Y-129682763D01*
X193418275Y-129826830D01*
X193521868Y-129981868D01*
X193366830Y-129878275D01*
X193033791Y-129740325D01*
X192680239Y-129670000D01*
X192319761Y-129670000D01*
X191966209Y-129740325D01*
X191633170Y-129878275D01*
X191333443Y-130078546D01*
X191078546Y-130333443D01*
X190878275Y-130633170D01*
X190740325Y-130966209D01*
X190670000Y-131319761D01*
X190670000Y-131680239D01*
X190740325Y-132033791D01*
X190878275Y-132366830D01*
X191078546Y-132666557D01*
X191333443Y-132921454D01*
X191633170Y-133121725D01*
X191966209Y-133259675D01*
X192319761Y-133330000D01*
X192680239Y-133330000D01*
X193033791Y-133259675D01*
X193366830Y-133121725D01*
X193666557Y-132921454D01*
X193921454Y-132666557D01*
X194121725Y-132366830D01*
X194259675Y-132033791D01*
X194330000Y-131680239D01*
X194330000Y-131319761D01*
X194259675Y-130966209D01*
X194121725Y-130633170D01*
X194018132Y-130478132D01*
X194173170Y-130581725D01*
X194317237Y-130641400D01*
X195880000Y-132204163D01*
X195880001Y-142475838D01*
X186200000Y-132795837D01*
X186200000Y-132715675D01*
X186272377Y-132607355D01*
X186423141Y-132243378D01*
X186500000Y-131856983D01*
X186500000Y-131463017D01*
X186423141Y-131076622D01*
X186272377Y-130712645D01*
X186053501Y-130385074D01*
X185774926Y-130106499D01*
X185447355Y-129887623D01*
X185083378Y-129736859D01*
X184696983Y-129660000D01*
X184303017Y-129660000D01*
X183916622Y-129736859D01*
X183552645Y-129887623D01*
X183444325Y-129960000D01*
X181423499Y-129960000D01*
X181339999Y-129951776D01*
X181256499Y-129960000D01*
X181256490Y-129960000D01*
X181006742Y-129984598D01*
X180686291Y-130081806D01*
X180390961Y-130239663D01*
X180132103Y-130452103D01*
X180078868Y-130516970D01*
X180044394Y-130551443D01*
X179916622Y-130576859D01*
X179552645Y-130727623D01*
X179225074Y-130946499D01*
X178946499Y-131225074D01*
X178727623Y-131552645D01*
X178576859Y-131916622D01*
X178500000Y-132303017D01*
X178500000Y-132696983D01*
X178576859Y-133083378D01*
X178727623Y-133447355D01*
X178946499Y-133774926D01*
X179225074Y-134053501D01*
X179552645Y-134272377D01*
X179916622Y-134423141D01*
X180303017Y-134500000D01*
X180696983Y-134500000D01*
X181083378Y-134423141D01*
X181447355Y-134272377D01*
X181774926Y-134053501D01*
X182053501Y-133774926D01*
X182272377Y-133447355D01*
X182308561Y-133360000D01*
X182800001Y-133360000D01*
X182800001Y-133416491D01*
X182791776Y-133500000D01*
X182824599Y-133833258D01*
X182921807Y-134153709D01*
X183079663Y-134449039D01*
X183238868Y-134643031D01*
X183238877Y-134643040D01*
X183292104Y-134707897D01*
X183356961Y-134761124D01*
X193233315Y-144637478D01*
X193150466Y-144792476D01*
X193030386Y-145188328D01*
X193000000Y-145496833D01*
X193000000Y-147503166D01*
X193030385Y-147811671D01*
X193150465Y-148207523D01*
X193345465Y-148572343D01*
X193607891Y-148892109D01*
X193927657Y-149154535D01*
X194292476Y-149349535D01*
X194688328Y-149469615D01*
X195100000Y-149510161D01*
X195511671Y-149469615D01*
X195907523Y-149349535D01*
X196272343Y-149154535D01*
X196592109Y-148892109D01*
X196854535Y-148572343D01*
X197049535Y-148207524D01*
X197169615Y-147811672D01*
X197200000Y-147503167D01*
X197200000Y-145924163D01*
X198080000Y-146804163D01*
X198080000Y-147503166D01*
X198110385Y-147811671D01*
X198230465Y-148207523D01*
X198425465Y-148572343D01*
X198687891Y-148892109D01*
X199007657Y-149154535D01*
X199372476Y-149349535D01*
X199477113Y-149381276D01*
X201238872Y-151143035D01*
X201292103Y-151207897D01*
X201312943Y-151225000D01*
X180167531Y-151225000D01*
X180449403Y-150590825D01*
X177500000Y-147641421D01*
X174550597Y-150590825D01*
X174832469Y-151225000D01*
X173775000Y-151225000D01*
X173775000Y-150167531D01*
X174409175Y-150449403D01*
X177358579Y-147500000D01*
X177641421Y-147500000D01*
X180590825Y-150449403D01*
X181297388Y-150135357D01*
X181738554Y-149343885D01*
X182016836Y-148481554D01*
X182121538Y-147581503D01*
X182048637Y-146678319D01*
X181800935Y-145806713D01*
X181642262Y-145496833D01*
X182840000Y-145496833D01*
X182840000Y-147503166D01*
X182870385Y-147811671D01*
X182990465Y-148207523D01*
X183185465Y-148572343D01*
X183447891Y-148892109D01*
X183767657Y-149154535D01*
X184132476Y-149349535D01*
X184528328Y-149469615D01*
X184940000Y-149510161D01*
X185351671Y-149469615D01*
X185747523Y-149349535D01*
X186112343Y-149154535D01*
X186432109Y-148892109D01*
X186694535Y-148572343D01*
X186889535Y-148207524D01*
X187009615Y-147811672D01*
X187040000Y-147503167D01*
X187040000Y-146600000D01*
X187720000Y-146600000D01*
X187720000Y-147500000D01*
X187783703Y-147946786D01*
X187933345Y-148372560D01*
X188163177Y-148760959D01*
X188464365Y-149097057D01*
X188825335Y-149367938D01*
X189232216Y-149563192D01*
X189561772Y-149653892D01*
X189920000Y-149347434D01*
X189920000Y-146600000D01*
X190120000Y-146600000D01*
X190120000Y-149347434D01*
X190478228Y-149653892D01*
X190807784Y-149563192D01*
X191214665Y-149367938D01*
X191575635Y-149097057D01*
X191876823Y-148760959D01*
X192106655Y-148372560D01*
X192256297Y-147946786D01*
X192320000Y-147500000D01*
X192320000Y-146600000D01*
X190120000Y-146600000D01*
X189920000Y-146600000D01*
X187720000Y-146600000D01*
X187040000Y-146600000D01*
X187040000Y-145500000D01*
X187720000Y-145500000D01*
X187720000Y-146400000D01*
X189920000Y-146400000D01*
X189920000Y-143652566D01*
X190120000Y-143652566D01*
X190120000Y-146400000D01*
X192320000Y-146400000D01*
X192320000Y-145500000D01*
X192256297Y-145053214D01*
X192106655Y-144627440D01*
X191876823Y-144239041D01*
X191575635Y-143902943D01*
X191214665Y-143632062D01*
X190807784Y-143436808D01*
X190478228Y-143346108D01*
X190120000Y-143652566D01*
X189920000Y-143652566D01*
X189561772Y-143346108D01*
X189232216Y-143436808D01*
X188825335Y-143632062D01*
X188464365Y-143902943D01*
X188163177Y-144239041D01*
X187933345Y-144627440D01*
X187783703Y-145053214D01*
X187720000Y-145500000D01*
X187040000Y-145500000D01*
X187040000Y-145496834D01*
X187009615Y-145188328D01*
X186889535Y-144792476D01*
X186694535Y-144427657D01*
X186432109Y-144107891D01*
X186112343Y-143845465D01*
X185747524Y-143650465D01*
X185351672Y-143530385D01*
X184940000Y-143489839D01*
X184528329Y-143530385D01*
X184132477Y-143650465D01*
X183767658Y-143845465D01*
X183447892Y-144107891D01*
X183185466Y-144427657D01*
X182990466Y-144792476D01*
X182870386Y-145188328D01*
X182840000Y-145496833D01*
X181642262Y-145496833D01*
X181387949Y-145000178D01*
X181297388Y-144864643D01*
X180590825Y-144550597D01*
X177641421Y-147500000D01*
X177358579Y-147500000D01*
X174409175Y-144550597D01*
X173775000Y-144832469D01*
X173775000Y-144409175D01*
X174550597Y-144409175D01*
X177500000Y-147358579D01*
X180449403Y-144409175D01*
X180135357Y-143702612D01*
X179343885Y-143261446D01*
X178481554Y-142983164D01*
X177581503Y-142878462D01*
X176678319Y-142951363D01*
X175806713Y-143199065D01*
X175000178Y-143612051D01*
X174864643Y-143702612D01*
X174550597Y-144409175D01*
X173775000Y-144409175D01*
X173775000Y-122679163D01*
X178898872Y-127803035D01*
G37*
X178898872Y-127803035D02*
X178952103Y-127867897D01*
X179016965Y-127921128D01*
X179016969Y-127921132D01*
X179126425Y-128010960D01*
X179210961Y-128080337D01*
X179506291Y-128238194D01*
X179826742Y-128335402D01*
X180076490Y-128360000D01*
X180076498Y-128360000D01*
X180160000Y-128368224D01*
X180243502Y-128360000D01*
X189444325Y-128360000D01*
X189552645Y-128432377D01*
X189916622Y-128583141D01*
X190303017Y-128660000D01*
X190696983Y-128660000D01*
X191083378Y-128583141D01*
X191447355Y-128432377D01*
X191555675Y-128360000D01*
X192035837Y-128360000D01*
X193358600Y-129682763D01*
X193418275Y-129826830D01*
X193521868Y-129981868D01*
X193366830Y-129878275D01*
X193033791Y-129740325D01*
X192680239Y-129670000D01*
X192319761Y-129670000D01*
X191966209Y-129740325D01*
X191633170Y-129878275D01*
X191333443Y-130078546D01*
X191078546Y-130333443D01*
X190878275Y-130633170D01*
X190740325Y-130966209D01*
X190670000Y-131319761D01*
X190670000Y-131680239D01*
X190740325Y-132033791D01*
X190878275Y-132366830D01*
X191078546Y-132666557D01*
X191333443Y-132921454D01*
X191633170Y-133121725D01*
X191966209Y-133259675D01*
X192319761Y-133330000D01*
X192680239Y-133330000D01*
X193033791Y-133259675D01*
X193366830Y-133121725D01*
X193666557Y-132921454D01*
X193921454Y-132666557D01*
X194121725Y-132366830D01*
X194259675Y-132033791D01*
X194330000Y-131680239D01*
X194330000Y-131319761D01*
X194259675Y-130966209D01*
X194121725Y-130633170D01*
X194018132Y-130478132D01*
X194173170Y-130581725D01*
X194317237Y-130641400D01*
X195880000Y-132204163D01*
X195880001Y-142475838D01*
X186200000Y-132795837D01*
X186200000Y-132715675D01*
X186272377Y-132607355D01*
X186423141Y-132243378D01*
X186500000Y-131856983D01*
X186500000Y-131463017D01*
X186423141Y-131076622D01*
X186272377Y-130712645D01*
X186053501Y-130385074D01*
X185774926Y-130106499D01*
X185447355Y-129887623D01*
X185083378Y-129736859D01*
X184696983Y-129660000D01*
X184303017Y-129660000D01*
X183916622Y-129736859D01*
X183552645Y-129887623D01*
X183444325Y-129960000D01*
X181423499Y-129960000D01*
X181339999Y-129951776D01*
X181256499Y-129960000D01*
X181256490Y-129960000D01*
X181006742Y-129984598D01*
X180686291Y-130081806D01*
X180390961Y-130239663D01*
X180132103Y-130452103D01*
X180078868Y-130516970D01*
X180044394Y-130551443D01*
X179916622Y-130576859D01*
X179552645Y-130727623D01*
X179225074Y-130946499D01*
X178946499Y-131225074D01*
X178727623Y-131552645D01*
X178576859Y-131916622D01*
X178500000Y-132303017D01*
X178500000Y-132696983D01*
X178576859Y-133083378D01*
X178727623Y-133447355D01*
X178946499Y-133774926D01*
X179225074Y-134053501D01*
X179552645Y-134272377D01*
X179916622Y-134423141D01*
X180303017Y-134500000D01*
X180696983Y-134500000D01*
X181083378Y-134423141D01*
X181447355Y-134272377D01*
X181774926Y-134053501D01*
X182053501Y-133774926D01*
X182272377Y-133447355D01*
X182308561Y-133360000D01*
X182800001Y-133360000D01*
X182800001Y-133416491D01*
X182791776Y-133500000D01*
X182824599Y-133833258D01*
X182921807Y-134153709D01*
X183079663Y-134449039D01*
X183238868Y-134643031D01*
X183238877Y-134643040D01*
X183292104Y-134707897D01*
X183356961Y-134761124D01*
X193233315Y-144637478D01*
X193150466Y-144792476D01*
X193030386Y-145188328D01*
X193000000Y-145496833D01*
X193000000Y-147503166D01*
X193030385Y-147811671D01*
X193150465Y-148207523D01*
X193345465Y-148572343D01*
X193607891Y-148892109D01*
X193927657Y-149154535D01*
X194292476Y-149349535D01*
X194688328Y-149469615D01*
X195100000Y-149510161D01*
X195511671Y-149469615D01*
X195907523Y-149349535D01*
X196272343Y-149154535D01*
X196592109Y-148892109D01*
X196854535Y-148572343D01*
X197049535Y-148207524D01*
X197169615Y-147811672D01*
X197200000Y-147503167D01*
X197200000Y-145924163D01*
X198080000Y-146804163D01*
X198080000Y-147503166D01*
X198110385Y-147811671D01*
X198230465Y-148207523D01*
X198425465Y-148572343D01*
X198687891Y-148892109D01*
X199007657Y-149154535D01*
X199372476Y-149349535D01*
X199477113Y-149381276D01*
X201238872Y-151143035D01*
X201292103Y-151207897D01*
X201312943Y-151225000D01*
X180167531Y-151225000D01*
X180449403Y-150590825D01*
X177500000Y-147641421D01*
X174550597Y-150590825D01*
X174832469Y-151225000D01*
X173775000Y-151225000D01*
X173775000Y-150167531D01*
X174409175Y-150449403D01*
X177358579Y-147500000D01*
X177641421Y-147500000D01*
X180590825Y-150449403D01*
X181297388Y-150135357D01*
X181738554Y-149343885D01*
X182016836Y-148481554D01*
X182121538Y-147581503D01*
X182048637Y-146678319D01*
X181800935Y-145806713D01*
X181642262Y-145496833D01*
X182840000Y-145496833D01*
X182840000Y-147503166D01*
X182870385Y-147811671D01*
X182990465Y-148207523D01*
X183185465Y-148572343D01*
X183447891Y-148892109D01*
X183767657Y-149154535D01*
X184132476Y-149349535D01*
X184528328Y-149469615D01*
X184940000Y-149510161D01*
X185351671Y-149469615D01*
X185747523Y-149349535D01*
X186112343Y-149154535D01*
X186432109Y-148892109D01*
X186694535Y-148572343D01*
X186889535Y-148207524D01*
X187009615Y-147811672D01*
X187040000Y-147503167D01*
X187040000Y-146600000D01*
X187720000Y-146600000D01*
X187720000Y-147500000D01*
X187783703Y-147946786D01*
X187933345Y-148372560D01*
X188163177Y-148760959D01*
X188464365Y-149097057D01*
X188825335Y-149367938D01*
X189232216Y-149563192D01*
X189561772Y-149653892D01*
X189920000Y-149347434D01*
X189920000Y-146600000D01*
X190120000Y-146600000D01*
X190120000Y-149347434D01*
X190478228Y-149653892D01*
X190807784Y-149563192D01*
X191214665Y-149367938D01*
X191575635Y-149097057D01*
X191876823Y-148760959D01*
X192106655Y-148372560D01*
X192256297Y-147946786D01*
X192320000Y-147500000D01*
X192320000Y-146600000D01*
X190120000Y-146600000D01*
X189920000Y-146600000D01*
X187720000Y-146600000D01*
X187040000Y-146600000D01*
X187040000Y-145500000D01*
X187720000Y-145500000D01*
X187720000Y-146400000D01*
X189920000Y-146400000D01*
X189920000Y-143652566D01*
X190120000Y-143652566D01*
X190120000Y-146400000D01*
X192320000Y-146400000D01*
X192320000Y-145500000D01*
X192256297Y-145053214D01*
X192106655Y-144627440D01*
X191876823Y-144239041D01*
X191575635Y-143902943D01*
X191214665Y-143632062D01*
X190807784Y-143436808D01*
X190478228Y-143346108D01*
X190120000Y-143652566D01*
X189920000Y-143652566D01*
X189561772Y-143346108D01*
X189232216Y-143436808D01*
X188825335Y-143632062D01*
X188464365Y-143902943D01*
X188163177Y-144239041D01*
X187933345Y-144627440D01*
X187783703Y-145053214D01*
X187720000Y-145500000D01*
X187040000Y-145500000D01*
X187040000Y-145496834D01*
X187009615Y-145188328D01*
X186889535Y-144792476D01*
X186694535Y-144427657D01*
X186432109Y-144107891D01*
X186112343Y-143845465D01*
X185747524Y-143650465D01*
X185351672Y-143530385D01*
X184940000Y-143489839D01*
X184528329Y-143530385D01*
X184132477Y-143650465D01*
X183767658Y-143845465D01*
X183447892Y-144107891D01*
X183185466Y-144427657D01*
X182990466Y-144792476D01*
X182870386Y-145188328D01*
X182840000Y-145496833D01*
X181642262Y-145496833D01*
X181387949Y-145000178D01*
X181297388Y-144864643D01*
X180590825Y-144550597D01*
X177641421Y-147500000D01*
X177358579Y-147500000D01*
X174409175Y-144550597D01*
X173775000Y-144832469D01*
X173775000Y-144409175D01*
X174550597Y-144409175D01*
X177500000Y-147358579D01*
X180449403Y-144409175D01*
X180135357Y-143702612D01*
X179343885Y-143261446D01*
X178481554Y-142983164D01*
X177581503Y-142878462D01*
X176678319Y-142951363D01*
X175806713Y-143199065D01*
X175000178Y-143612051D01*
X174864643Y-143702612D01*
X174550597Y-144409175D01*
X173775000Y-144409175D01*
X173775000Y-122679163D01*
X178898872Y-127803035D01*
M02*
