%TF.GenerationSoftware,KiCad,Pcbnew,(5.1.5-0-10_14)*%
%TF.CreationDate,2020-09-13T21:20:46+01:00*%
%TF.ProjectId,PrePCB,50726550-4342-42e6-9b69-6361645f7063,rev?*%
%TF.SameCoordinates,Original*%
%TF.FileFunction,Copper,L1,Top*%
%TF.FilePolarity,Positive*%
%FSLAX46Y46*%
G04 Gerber Fmt 4.6, Leading zero omitted, Abs format (unit mm)*
G04 Created by KiCad (PCBNEW (5.1.5-0-10_14)) date 2020-09-13 21:20:46*
%MOMM*%
%LPD*%
G04 APERTURE LIST*
%ADD10C,3.000000*%
%ADD11C,2.500000*%
%ADD12C,2.000000*%
%ADD13R,2.400000X2.400000*%
%ADD14C,2.400000*%
%ADD15C,1.600000*%
%ADD16O,1.600000X1.600000*%
%ADD17C,6.400000*%
%ADD18C,1.260000*%
%ADD19C,2.800000*%
%ADD20R,1.800000X3.600000*%
%ADD21O,1.800000X3.600000*%
%ADD22R,3.600000X1.800000*%
%ADD23O,3.600000X1.800000*%
%ADD24R,1.600000X1.600000*%
%ADD25O,2.400000X2.400000*%
%ADD26C,1.000000*%
%ADD27C,2.000000*%
%ADD28C,0.800000*%
G04 APERTURE END LIST*
D10*
X208989435Y-113931484D03*
X202500041Y-116040367D03*
X196010602Y-113931820D03*
X192000019Y-108411708D03*
X191999956Y-101588329D03*
X196010688Y-96068136D03*
X202499959Y-93959633D03*
X208989398Y-96068180D03*
X212999981Y-101588292D03*
D11*
X202498210Y-113095678D03*
X202532691Y-96809217D03*
D12*
X201000000Y-90000000D03*
X201000000Y-82500000D03*
D13*
X182500000Y-79000000D03*
D14*
X182500000Y-86500000D03*
D15*
X225000000Y-128500000D03*
D16*
X225000000Y-141000000D03*
D15*
X186000000Y-115000000D03*
D16*
X186000000Y-95000000D03*
D15*
X180500000Y-120000000D03*
D16*
X180500000Y-132500000D03*
D12*
X208000000Y-119000000D03*
X208000000Y-126500000D03*
D15*
X215000000Y-135000000D03*
D16*
X215000000Y-115000000D03*
D17*
X177500000Y-147500000D03*
D12*
X201000000Y-71000000D03*
X201000000Y-78500000D03*
X208000000Y-131000000D03*
X208000000Y-138500000D03*
D15*
X220000000Y-90000000D03*
D16*
X220000000Y-79840000D03*
D15*
X184500000Y-121500000D03*
D16*
X184500000Y-131660000D03*
D15*
X190500000Y-116500000D03*
D16*
X190500000Y-126660000D03*
D15*
X221000000Y-130500000D03*
D16*
X221000000Y-140660000D03*
D18*
X214000000Y-74920000D03*
X211460000Y-77460000D03*
X214000000Y-80000000D03*
X197580000Y-131500000D03*
X195040000Y-128960000D03*
X192500000Y-131500000D03*
D19*
X227000000Y-76000000D03*
X179500000Y-115500000D03*
X229000000Y-118000000D03*
D20*
X207000000Y-64000000D03*
D21*
X212080000Y-64000000D03*
D22*
X226500000Y-103500000D03*
D23*
X226500000Y-108580000D03*
D22*
X226500000Y-85000000D03*
D23*
X226500000Y-90080000D03*
D22*
X178500000Y-108500000D03*
D23*
X178500000Y-103420000D03*
D20*
X187000000Y-64000000D03*
D21*
X192080000Y-64000000D03*
D20*
X220500000Y-146500000D03*
D21*
X215420000Y-146500000D03*
X210340000Y-146500000D03*
X205260000Y-146500000D03*
X200180000Y-146500000D03*
X195100000Y-146500000D03*
X190020000Y-146500000D03*
X184940000Y-146500000D03*
D24*
X213500000Y-87500000D03*
D15*
X213500000Y-85500000D03*
D24*
X195500000Y-120000000D03*
D15*
X195500000Y-122000000D03*
D14*
X207000000Y-90000000D03*
D25*
X207000000Y-74760000D03*
D14*
X195000000Y-76000000D03*
D25*
X195000000Y-91240000D03*
D14*
X202000000Y-120500000D03*
D25*
X202000000Y-135740000D03*
D14*
X219000000Y-98000000D03*
D25*
X219000000Y-113240000D03*
D14*
X193000000Y-70000000D03*
D25*
X177760000Y-70000000D03*
D26*
X220000000Y-79840000D02*
X218920000Y-79840000D01*
X218920000Y-79840000D02*
X214000000Y-74920000D01*
X211460000Y-77460000D02*
X214000000Y-74920000D01*
X201000000Y-82500000D02*
X206420000Y-82500000D01*
X206420000Y-82500000D02*
X211460000Y-77460000D01*
X213500000Y-85500000D02*
X213500000Y-83500000D01*
X213500000Y-83500000D02*
X211460000Y-81460000D01*
X211460000Y-81460000D02*
X211460000Y-77460000D01*
X208000000Y-126500000D02*
X197500000Y-126500000D01*
X197500000Y-126500000D02*
X195040000Y-128960000D01*
X219000000Y-98000000D02*
X217500000Y-98000000D01*
X195000000Y-83000000D02*
X198500000Y-86500000D01*
X198500000Y-86500000D02*
X208500000Y-86500000D01*
X208500000Y-86500000D02*
X210500000Y-88500000D01*
X210500000Y-88500000D02*
X210500000Y-91000000D01*
X195000000Y-83000000D02*
X195000000Y-76000000D01*
X217500000Y-98000000D02*
X210500000Y-91000000D01*
D27*
X212999981Y-101588292D02*
X213088292Y-101588292D01*
X213088292Y-101588292D02*
X215000000Y-103500000D01*
X215000000Y-103500000D02*
X226500000Y-103500000D01*
X178500000Y-103420000D02*
X179920000Y-103420000D01*
X179920000Y-103420000D02*
X181500000Y-105000000D01*
X181500000Y-105000000D02*
X196500000Y-105000000D01*
X196500000Y-105000000D02*
X199911708Y-101588292D01*
X199911708Y-101588292D02*
X212999981Y-101588292D01*
X212999981Y-101588292D02*
X212999981Y-101611687D01*
X192000019Y-108411708D02*
X226331708Y-108411708D01*
X226331708Y-108411708D02*
X226500000Y-108580000D01*
X178500000Y-108500000D02*
X191911727Y-108500000D01*
X191911727Y-108500000D02*
X192000019Y-108411708D01*
X191911727Y-108500000D02*
X192000019Y-108411708D01*
D26*
X179500000Y-115500000D02*
X181500000Y-117500000D01*
X189500000Y-117500000D02*
X190500000Y-116500000D01*
X181500000Y-117500000D02*
X189500000Y-117500000D01*
X208000000Y-138500000D02*
X199500000Y-138500000D01*
X199500000Y-138500000D02*
X192500000Y-131500000D01*
X195500000Y-120000000D02*
X194500000Y-120000000D01*
X192500000Y-122000000D02*
X192500000Y-131500000D01*
X194500000Y-120000000D02*
X192500000Y-122000000D01*
X184940000Y-146500000D02*
X184940000Y-139060000D01*
X184940000Y-139060000D02*
X192500000Y-131500000D01*
D28*
G36*
X231225000Y-116407811D02*
G01*
X230811267Y-116330155D01*
X229141421Y-118000000D01*
X230811267Y-119669845D01*
X231225000Y-119592189D01*
X231225000Y-151225000D01*
X180167531Y-151225000D01*
X180449403Y-150590825D01*
X177500000Y-147641421D01*
X174550597Y-150590825D01*
X174832469Y-151225000D01*
X173775000Y-151225000D01*
X173775000Y-150167531D01*
X174409175Y-150449403D01*
X177358579Y-147500000D01*
X177641421Y-147500000D01*
X180590825Y-150449403D01*
X181297388Y-150135357D01*
X181738554Y-149343885D01*
X182016836Y-148481554D01*
X182121538Y-147581503D01*
X182048637Y-146678319D01*
X181800935Y-145806713D01*
X181642262Y-145496833D01*
X182840000Y-145496833D01*
X182840000Y-147503166D01*
X182870385Y-147811671D01*
X182990465Y-148207523D01*
X183185465Y-148572343D01*
X183447891Y-148892109D01*
X183767657Y-149154535D01*
X184132476Y-149349535D01*
X184528328Y-149469615D01*
X184940000Y-149510161D01*
X185351671Y-149469615D01*
X185747523Y-149349535D01*
X186112343Y-149154535D01*
X186432109Y-148892109D01*
X186694535Y-148572343D01*
X186889535Y-148207524D01*
X187009615Y-147811672D01*
X187040000Y-147503167D01*
X187040000Y-146600000D01*
X187720000Y-146600000D01*
X187720000Y-147500000D01*
X187783703Y-147946786D01*
X187933345Y-148372560D01*
X188163177Y-148760959D01*
X188464365Y-149097057D01*
X188825335Y-149367938D01*
X189232216Y-149563192D01*
X189561772Y-149653892D01*
X189920000Y-149347434D01*
X189920000Y-146600000D01*
X190120000Y-146600000D01*
X190120000Y-149347434D01*
X190478228Y-149653892D01*
X190807784Y-149563192D01*
X191214665Y-149367938D01*
X191575635Y-149097057D01*
X191876823Y-148760959D01*
X192106655Y-148372560D01*
X192256297Y-147946786D01*
X192320000Y-147500000D01*
X192320000Y-146600000D01*
X190120000Y-146600000D01*
X189920000Y-146600000D01*
X187720000Y-146600000D01*
X187040000Y-146600000D01*
X187040000Y-145500000D01*
X187720000Y-145500000D01*
X187720000Y-146400000D01*
X189920000Y-146400000D01*
X189920000Y-143652566D01*
X190120000Y-143652566D01*
X190120000Y-146400000D01*
X192320000Y-146400000D01*
X192320000Y-145500000D01*
X192319549Y-145496833D01*
X193000000Y-145496833D01*
X193000000Y-147503166D01*
X193030385Y-147811671D01*
X193150465Y-148207523D01*
X193345465Y-148572343D01*
X193607891Y-148892109D01*
X193927657Y-149154535D01*
X194292476Y-149349535D01*
X194688328Y-149469615D01*
X195100000Y-149510161D01*
X195511671Y-149469615D01*
X195907523Y-149349535D01*
X196272343Y-149154535D01*
X196592109Y-148892109D01*
X196854535Y-148572343D01*
X197049535Y-148207524D01*
X197169615Y-147811672D01*
X197200000Y-147503167D01*
X197200000Y-145496834D01*
X197200000Y-145496833D01*
X198080000Y-145496833D01*
X198080000Y-147503166D01*
X198110385Y-147811671D01*
X198230465Y-148207523D01*
X198425465Y-148572343D01*
X198687891Y-148892109D01*
X199007657Y-149154535D01*
X199372476Y-149349535D01*
X199768328Y-149469615D01*
X200180000Y-149510161D01*
X200591671Y-149469615D01*
X200987523Y-149349535D01*
X201352343Y-149154535D01*
X201672109Y-148892109D01*
X201934535Y-148572343D01*
X202129535Y-148207524D01*
X202249615Y-147811672D01*
X202280000Y-147503167D01*
X202280000Y-145496834D01*
X202280000Y-145496833D01*
X203160000Y-145496833D01*
X203160000Y-147503166D01*
X203190385Y-147811671D01*
X203310465Y-148207523D01*
X203505465Y-148572343D01*
X203767891Y-148892109D01*
X204087657Y-149154535D01*
X204452476Y-149349535D01*
X204848328Y-149469615D01*
X205260000Y-149510161D01*
X205671671Y-149469615D01*
X206067523Y-149349535D01*
X206432343Y-149154535D01*
X206752109Y-148892109D01*
X207014535Y-148572343D01*
X207209535Y-148207524D01*
X207329615Y-147811672D01*
X207360000Y-147503167D01*
X207360000Y-146600000D01*
X208040000Y-146600000D01*
X208040000Y-147500000D01*
X208103703Y-147946786D01*
X208253345Y-148372560D01*
X208483177Y-148760959D01*
X208784365Y-149097057D01*
X209145335Y-149367938D01*
X209552216Y-149563192D01*
X209881772Y-149653892D01*
X210240000Y-149347434D01*
X210240000Y-146600000D01*
X210440000Y-146600000D01*
X210440000Y-149347434D01*
X210798228Y-149653892D01*
X211127784Y-149563192D01*
X211534665Y-149367938D01*
X211895635Y-149097057D01*
X212196823Y-148760959D01*
X212426655Y-148372560D01*
X212576297Y-147946786D01*
X212640000Y-147500000D01*
X212640000Y-146600000D01*
X210440000Y-146600000D01*
X210240000Y-146600000D01*
X208040000Y-146600000D01*
X207360000Y-146600000D01*
X207360000Y-145500000D01*
X208040000Y-145500000D01*
X208040000Y-146400000D01*
X210240000Y-146400000D01*
X210240000Y-143652566D01*
X210440000Y-143652566D01*
X210440000Y-146400000D01*
X212640000Y-146400000D01*
X212640000Y-145500000D01*
X212639549Y-145496833D01*
X213320000Y-145496833D01*
X213320000Y-147503166D01*
X213350385Y-147811671D01*
X213470465Y-148207523D01*
X213665465Y-148572343D01*
X213927891Y-148892109D01*
X214247657Y-149154535D01*
X214612476Y-149349535D01*
X215008328Y-149469615D01*
X215420000Y-149510161D01*
X215831671Y-149469615D01*
X216227523Y-149349535D01*
X216592343Y-149154535D01*
X216912109Y-148892109D01*
X217174535Y-148572343D01*
X217369535Y-148207524D01*
X217489615Y-147811672D01*
X217520000Y-147503167D01*
X217520000Y-145496834D01*
X217489615Y-145188328D01*
X217369535Y-144792476D01*
X217320106Y-144700000D01*
X218394194Y-144700000D01*
X218394194Y-148300000D01*
X218417363Y-148535241D01*
X218485981Y-148761442D01*
X218597409Y-148969910D01*
X218747366Y-149152634D01*
X218930090Y-149302591D01*
X219138558Y-149414019D01*
X219364759Y-149482637D01*
X219600000Y-149505806D01*
X221400000Y-149505806D01*
X221635241Y-149482637D01*
X221861442Y-149414019D01*
X222069910Y-149302591D01*
X222252634Y-149152634D01*
X222402591Y-148969910D01*
X222514019Y-148761442D01*
X222582637Y-148535241D01*
X222605806Y-148300000D01*
X222605806Y-147224224D01*
X224700000Y-147224224D01*
X224700000Y-147775776D01*
X224807602Y-148316730D01*
X225018672Y-148826297D01*
X225325098Y-149284896D01*
X225715104Y-149674902D01*
X226173703Y-149981328D01*
X226683270Y-150192398D01*
X227224224Y-150300000D01*
X227775776Y-150300000D01*
X228316730Y-150192398D01*
X228826297Y-149981328D01*
X229284896Y-149674902D01*
X229674902Y-149284896D01*
X229981328Y-148826297D01*
X230192398Y-148316730D01*
X230300000Y-147775776D01*
X230300000Y-147224224D01*
X230192398Y-146683270D01*
X229981328Y-146173703D01*
X229674902Y-145715104D01*
X229284896Y-145325098D01*
X228826297Y-145018672D01*
X228316730Y-144807602D01*
X227775776Y-144700000D01*
X227224224Y-144700000D01*
X226683270Y-144807602D01*
X226173703Y-145018672D01*
X225715104Y-145325098D01*
X225325098Y-145715104D01*
X225018672Y-146173703D01*
X224807602Y-146683270D01*
X224700000Y-147224224D01*
X222605806Y-147224224D01*
X222605806Y-144700000D01*
X222582637Y-144464759D01*
X222514019Y-144238558D01*
X222402591Y-144030090D01*
X222252634Y-143847366D01*
X222069910Y-143697409D01*
X221861442Y-143585981D01*
X221635241Y-143517363D01*
X221400000Y-143494194D01*
X219600000Y-143494194D01*
X219364759Y-143517363D01*
X219138558Y-143585981D01*
X218930090Y-143697409D01*
X218747366Y-143847366D01*
X218597409Y-144030090D01*
X218485981Y-144238558D01*
X218417363Y-144464759D01*
X218394194Y-144700000D01*
X217320106Y-144700000D01*
X217174535Y-144427657D01*
X216912109Y-144107891D01*
X216592343Y-143845465D01*
X216227524Y-143650465D01*
X215831672Y-143530385D01*
X215420000Y-143489839D01*
X215008329Y-143530385D01*
X214612477Y-143650465D01*
X214247658Y-143845465D01*
X213927892Y-144107891D01*
X213665466Y-144427657D01*
X213470466Y-144792476D01*
X213350386Y-145188328D01*
X213320000Y-145496833D01*
X212639549Y-145496833D01*
X212576297Y-145053214D01*
X212426655Y-144627440D01*
X212196823Y-144239041D01*
X211895635Y-143902943D01*
X211534665Y-143632062D01*
X211127784Y-143436808D01*
X210798228Y-143346108D01*
X210440000Y-143652566D01*
X210240000Y-143652566D01*
X209881772Y-143346108D01*
X209552216Y-143436808D01*
X209145335Y-143632062D01*
X208784365Y-143902943D01*
X208483177Y-144239041D01*
X208253345Y-144627440D01*
X208103703Y-145053214D01*
X208040000Y-145500000D01*
X207360000Y-145500000D01*
X207360000Y-145496834D01*
X207329615Y-145188328D01*
X207209535Y-144792476D01*
X207014535Y-144427657D01*
X206752109Y-144107891D01*
X206432343Y-143845465D01*
X206067524Y-143650465D01*
X205671672Y-143530385D01*
X205260000Y-143489839D01*
X204848329Y-143530385D01*
X204452477Y-143650465D01*
X204087658Y-143845465D01*
X203767892Y-144107891D01*
X203505466Y-144427657D01*
X203310466Y-144792476D01*
X203190386Y-145188328D01*
X203160000Y-145496833D01*
X202280000Y-145496833D01*
X202249615Y-145188328D01*
X202129535Y-144792476D01*
X201934535Y-144427657D01*
X201672109Y-144107891D01*
X201352343Y-143845465D01*
X200987524Y-143650465D01*
X200591672Y-143530385D01*
X200180000Y-143489839D01*
X199768329Y-143530385D01*
X199372477Y-143650465D01*
X199007658Y-143845465D01*
X198687892Y-144107891D01*
X198425466Y-144427657D01*
X198230466Y-144792476D01*
X198110386Y-145188328D01*
X198080000Y-145496833D01*
X197200000Y-145496833D01*
X197169615Y-145188328D01*
X197049535Y-144792476D01*
X196854535Y-144427657D01*
X196592109Y-144107891D01*
X196272343Y-143845465D01*
X195907524Y-143650465D01*
X195511672Y-143530385D01*
X195100000Y-143489839D01*
X194688329Y-143530385D01*
X194292477Y-143650465D01*
X193927658Y-143845465D01*
X193607892Y-144107891D01*
X193345466Y-144427657D01*
X193150466Y-144792476D01*
X193030386Y-145188328D01*
X193000000Y-145496833D01*
X192319549Y-145496833D01*
X192256297Y-145053214D01*
X192106655Y-144627440D01*
X191876823Y-144239041D01*
X191575635Y-143902943D01*
X191214665Y-143632062D01*
X190807784Y-143436808D01*
X190478228Y-143346108D01*
X190120000Y-143652566D01*
X189920000Y-143652566D01*
X189561772Y-143346108D01*
X189232216Y-143436808D01*
X188825335Y-143632062D01*
X188464365Y-143902943D01*
X188163177Y-144239041D01*
X187933345Y-144627440D01*
X187783703Y-145053214D01*
X187720000Y-145500000D01*
X187040000Y-145500000D01*
X187040000Y-145496834D01*
X187009615Y-145188328D01*
X186889535Y-144792476D01*
X186694535Y-144427657D01*
X186640000Y-144361206D01*
X186640000Y-139764163D01*
X192500000Y-133904163D01*
X198238872Y-139643035D01*
X198292103Y-139707897D01*
X198356965Y-139761128D01*
X198356969Y-139761132D01*
X198550960Y-139920337D01*
X198708817Y-140004713D01*
X198846291Y-140078194D01*
X199166742Y-140175402D01*
X199416490Y-140200000D01*
X199416500Y-140200000D01*
X199500000Y-140208224D01*
X199583500Y-140200000D01*
X206588730Y-140200000D01*
X206597582Y-140208852D01*
X206957909Y-140449615D01*
X207358284Y-140615455D01*
X207783319Y-140700000D01*
X208216681Y-140700000D01*
X208641716Y-140615455D01*
X209009735Y-140463017D01*
X219000000Y-140463017D01*
X219000000Y-140856983D01*
X219076859Y-141243378D01*
X219227623Y-141607355D01*
X219446499Y-141934926D01*
X219725074Y-142213501D01*
X220052645Y-142432377D01*
X220416622Y-142583141D01*
X220803017Y-142660000D01*
X221196983Y-142660000D01*
X221583378Y-142583141D01*
X221947355Y-142432377D01*
X222274926Y-142213501D01*
X222553501Y-141934926D01*
X222772377Y-141607355D01*
X222923141Y-141243378D01*
X223000000Y-140856983D01*
X223000000Y-141196983D01*
X223076859Y-141583378D01*
X223227623Y-141947355D01*
X223446499Y-142274926D01*
X223725074Y-142553501D01*
X224052645Y-142772377D01*
X224416622Y-142923141D01*
X224803017Y-143000000D01*
X225196983Y-143000000D01*
X225583378Y-142923141D01*
X225947355Y-142772377D01*
X226274926Y-142553501D01*
X226553501Y-142274926D01*
X226772377Y-141947355D01*
X226923141Y-141583378D01*
X227000000Y-141196983D01*
X227000000Y-140803017D01*
X226923141Y-140416622D01*
X226772377Y-140052645D01*
X226553501Y-139725074D01*
X226274926Y-139446499D01*
X225947355Y-139227623D01*
X225583378Y-139076859D01*
X225196983Y-139000000D01*
X224803017Y-139000000D01*
X224416622Y-139076859D01*
X224052645Y-139227623D01*
X223725074Y-139446499D01*
X223446499Y-139725074D01*
X223227623Y-140052645D01*
X223076859Y-140416622D01*
X223000000Y-140803017D01*
X223000000Y-140463017D01*
X222923141Y-140076622D01*
X222772377Y-139712645D01*
X222553501Y-139385074D01*
X222274926Y-139106499D01*
X221947355Y-138887623D01*
X221583378Y-138736859D01*
X221196983Y-138660000D01*
X220803017Y-138660000D01*
X220416622Y-138736859D01*
X220052645Y-138887623D01*
X219725074Y-139106499D01*
X219446499Y-139385074D01*
X219227623Y-139712645D01*
X219076859Y-140076622D01*
X219000000Y-140463017D01*
X209009735Y-140463017D01*
X209042091Y-140449615D01*
X209402418Y-140208852D01*
X209708852Y-139902418D01*
X209949615Y-139542091D01*
X210115455Y-139141716D01*
X210200000Y-138716681D01*
X210200000Y-138283319D01*
X210115455Y-137858284D01*
X209949615Y-137457909D01*
X209708852Y-137097582D01*
X209402418Y-136791148D01*
X209042091Y-136550385D01*
X208641716Y-136384545D01*
X208216681Y-136300000D01*
X207783319Y-136300000D01*
X207358284Y-136384545D01*
X206957909Y-136550385D01*
X206597582Y-136791148D01*
X206588730Y-136800000D01*
X204158675Y-136800000D01*
X204307770Y-136440054D01*
X204400000Y-135976379D01*
X204400000Y-135503621D01*
X204307770Y-135039946D01*
X204209631Y-134803017D01*
X213000000Y-134803017D01*
X213000000Y-135196983D01*
X213076859Y-135583378D01*
X213227623Y-135947355D01*
X213446499Y-136274926D01*
X213725074Y-136553501D01*
X214052645Y-136772377D01*
X214416622Y-136923141D01*
X214803017Y-137000000D01*
X215196983Y-137000000D01*
X215583378Y-136923141D01*
X215947355Y-136772377D01*
X216274926Y-136553501D01*
X216553501Y-136274926D01*
X216772377Y-135947355D01*
X216923141Y-135583378D01*
X217000000Y-135196983D01*
X217000000Y-134803017D01*
X216923141Y-134416622D01*
X216772377Y-134052645D01*
X216553501Y-133725074D01*
X216274926Y-133446499D01*
X215947355Y-133227623D01*
X215583378Y-133076859D01*
X215196983Y-133000000D01*
X214803017Y-133000000D01*
X214416622Y-133076859D01*
X214052645Y-133227623D01*
X213725074Y-133446499D01*
X213446499Y-133725074D01*
X213227623Y-134052645D01*
X213076859Y-134416622D01*
X213000000Y-134803017D01*
X204209631Y-134803017D01*
X204126853Y-134603174D01*
X203864202Y-134210089D01*
X203529911Y-133875798D01*
X203136826Y-133613147D01*
X202700054Y-133432230D01*
X202236379Y-133340000D01*
X201763621Y-133340000D01*
X201299946Y-133432230D01*
X200863174Y-133613147D01*
X200470089Y-133875798D01*
X200135798Y-134210089D01*
X199873147Y-134603174D01*
X199692230Y-135039946D01*
X199600000Y-135503621D01*
X199600000Y-135976379D01*
X199654492Y-136250329D01*
X194200000Y-130795837D01*
X194200000Y-130592838D01*
X194506209Y-130719675D01*
X194859761Y-130790000D01*
X195220239Y-130790000D01*
X195573791Y-130719675D01*
X195906830Y-130581725D01*
X196061868Y-130478132D01*
X195958275Y-130633170D01*
X195820325Y-130966209D01*
X195750000Y-131319761D01*
X195750000Y-131680239D01*
X195820325Y-132033791D01*
X195958275Y-132366830D01*
X196158546Y-132666557D01*
X196413443Y-132921454D01*
X196713170Y-133121725D01*
X197046209Y-133259675D01*
X197399761Y-133330000D01*
X197760239Y-133330000D01*
X198113791Y-133259675D01*
X198446830Y-133121725D01*
X198746557Y-132921454D01*
X199001454Y-132666557D01*
X199201725Y-132366830D01*
X199339675Y-132033791D01*
X199410000Y-131680239D01*
X199410000Y-131319761D01*
X199339675Y-130966209D01*
X199263920Y-130783319D01*
X205800000Y-130783319D01*
X205800000Y-131216681D01*
X205884545Y-131641716D01*
X206050385Y-132042091D01*
X206291148Y-132402418D01*
X206597582Y-132708852D01*
X206957909Y-132949615D01*
X207358284Y-133115455D01*
X207783319Y-133200000D01*
X208216681Y-133200000D01*
X208641716Y-133115455D01*
X209042091Y-132949615D01*
X209402418Y-132708852D01*
X209708852Y-132402418D01*
X209949615Y-132042091D01*
X210115455Y-131641716D01*
X210200000Y-131216681D01*
X210200000Y-130783319D01*
X210115455Y-130358284D01*
X210092563Y-130303017D01*
X219000000Y-130303017D01*
X219000000Y-130696983D01*
X219076859Y-131083378D01*
X219227623Y-131447355D01*
X219446499Y-131774926D01*
X219725074Y-132053501D01*
X220052645Y-132272377D01*
X220416622Y-132423141D01*
X220803017Y-132500000D01*
X221196983Y-132500000D01*
X221583378Y-132423141D01*
X221947355Y-132272377D01*
X222274926Y-132053501D01*
X222553501Y-131774926D01*
X222772377Y-131447355D01*
X222923141Y-131083378D01*
X223000000Y-130696983D01*
X223000000Y-130303017D01*
X222923141Y-129916622D01*
X222772377Y-129552645D01*
X222553501Y-129225074D01*
X222274926Y-128946499D01*
X221947355Y-128727623D01*
X221583378Y-128576859D01*
X221196983Y-128500000D01*
X220803017Y-128500000D01*
X220416622Y-128576859D01*
X220052645Y-128727623D01*
X219725074Y-128946499D01*
X219446499Y-129225074D01*
X219227623Y-129552645D01*
X219076859Y-129916622D01*
X219000000Y-130303017D01*
X210092563Y-130303017D01*
X209949615Y-129957909D01*
X209708852Y-129597582D01*
X209402418Y-129291148D01*
X209042091Y-129050385D01*
X208641716Y-128884545D01*
X208216681Y-128800000D01*
X207783319Y-128800000D01*
X207358284Y-128884545D01*
X206957909Y-129050385D01*
X206597582Y-129291148D01*
X206291148Y-129597582D01*
X206050385Y-129957909D01*
X205884545Y-130358284D01*
X205800000Y-130783319D01*
X199263920Y-130783319D01*
X199201725Y-130633170D01*
X199001454Y-130333443D01*
X198746557Y-130078546D01*
X198446830Y-129878275D01*
X198113791Y-129740325D01*
X197760239Y-129670000D01*
X197399761Y-129670000D01*
X197046209Y-129740325D01*
X196713170Y-129878275D01*
X196558132Y-129981868D01*
X196661725Y-129826830D01*
X196721400Y-129682763D01*
X198204163Y-128200000D01*
X206588730Y-128200000D01*
X206597582Y-128208852D01*
X206957909Y-128449615D01*
X207358284Y-128615455D01*
X207783319Y-128700000D01*
X208216681Y-128700000D01*
X208641716Y-128615455D01*
X209042091Y-128449615D01*
X209261490Y-128303017D01*
X223000000Y-128303017D01*
X223000000Y-128696983D01*
X223076859Y-129083378D01*
X223227623Y-129447355D01*
X223446499Y-129774926D01*
X223725074Y-130053501D01*
X224052645Y-130272377D01*
X224416622Y-130423141D01*
X224803017Y-130500000D01*
X225196983Y-130500000D01*
X225583378Y-130423141D01*
X225947355Y-130272377D01*
X226274926Y-130053501D01*
X226553501Y-129774926D01*
X226772377Y-129447355D01*
X226923141Y-129083378D01*
X227000000Y-128696983D01*
X227000000Y-128303017D01*
X226923141Y-127916622D01*
X226772377Y-127552645D01*
X226553501Y-127225074D01*
X226274926Y-126946499D01*
X225947355Y-126727623D01*
X225583378Y-126576859D01*
X225196983Y-126500000D01*
X224803017Y-126500000D01*
X224416622Y-126576859D01*
X224052645Y-126727623D01*
X223725074Y-126946499D01*
X223446499Y-127225074D01*
X223227623Y-127552645D01*
X223076859Y-127916622D01*
X223000000Y-128303017D01*
X209261490Y-128303017D01*
X209402418Y-128208852D01*
X209708852Y-127902418D01*
X209949615Y-127542091D01*
X210115455Y-127141716D01*
X210200000Y-126716681D01*
X210200000Y-126283319D01*
X210115455Y-125858284D01*
X209949615Y-125457909D01*
X209708852Y-125097582D01*
X209402418Y-124791148D01*
X209042091Y-124550385D01*
X208641716Y-124384545D01*
X208216681Y-124300000D01*
X207783319Y-124300000D01*
X207358284Y-124384545D01*
X206957909Y-124550385D01*
X206597582Y-124791148D01*
X206588730Y-124800000D01*
X197583499Y-124800000D01*
X197499999Y-124791776D01*
X197416499Y-124800000D01*
X197416490Y-124800000D01*
X197166742Y-124824598D01*
X196846291Y-124921806D01*
X196550961Y-125079663D01*
X196550959Y-125079664D01*
X196550960Y-125079664D01*
X196356968Y-125238869D01*
X196356965Y-125238872D01*
X196292103Y-125292103D01*
X196238872Y-125356965D01*
X194317237Y-127278600D01*
X194200000Y-127327162D01*
X194200000Y-123528427D01*
X194225074Y-123553501D01*
X194552645Y-123772377D01*
X194916622Y-123923141D01*
X195303017Y-124000000D01*
X195696983Y-124000000D01*
X196083378Y-123923141D01*
X196447355Y-123772377D01*
X196774926Y-123553501D01*
X197053501Y-123274926D01*
X197272377Y-122947355D01*
X197423141Y-122583378D01*
X197500000Y-122196983D01*
X197500000Y-121803017D01*
X197423141Y-121416622D01*
X197382944Y-121319579D01*
X197414019Y-121261442D01*
X197482637Y-121035241D01*
X197505806Y-120800000D01*
X197505806Y-120263621D01*
X199600000Y-120263621D01*
X199600000Y-120736379D01*
X199692230Y-121200054D01*
X199873147Y-121636826D01*
X200135798Y-122029911D01*
X200470089Y-122364202D01*
X200863174Y-122626853D01*
X201299946Y-122807770D01*
X201763621Y-122900000D01*
X202236379Y-122900000D01*
X202700054Y-122807770D01*
X203136826Y-122626853D01*
X203529911Y-122364202D01*
X203864202Y-122029911D01*
X204126853Y-121636826D01*
X204307770Y-121200054D01*
X204400000Y-120736379D01*
X204400000Y-120263621D01*
X204307770Y-119799946D01*
X204126853Y-119363174D01*
X203864202Y-118970089D01*
X203677432Y-118783319D01*
X205800000Y-118783319D01*
X205800000Y-119216681D01*
X205884545Y-119641716D01*
X206050385Y-120042091D01*
X206291148Y-120402418D01*
X206597582Y-120708852D01*
X206957909Y-120949615D01*
X207358284Y-121115455D01*
X207783319Y-121200000D01*
X208216681Y-121200000D01*
X208641716Y-121115455D01*
X209042091Y-120949615D01*
X209402418Y-120708852D01*
X209708852Y-120402418D01*
X209949615Y-120042091D01*
X210045224Y-119811267D01*
X227330155Y-119811267D01*
X227428185Y-120333549D01*
X227913640Y-120595356D01*
X228440843Y-120757425D01*
X228989533Y-120813528D01*
X229538627Y-120761509D01*
X230067021Y-120603366D01*
X230554410Y-120345177D01*
X230571815Y-120333549D01*
X230669845Y-119811267D01*
X229000000Y-118141421D01*
X227330155Y-119811267D01*
X210045224Y-119811267D01*
X210115455Y-119641716D01*
X210200000Y-119216681D01*
X210200000Y-118783319D01*
X210115455Y-118358284D01*
X209962715Y-117989533D01*
X226186472Y-117989533D01*
X226238491Y-118538627D01*
X226396634Y-119067021D01*
X226654823Y-119554410D01*
X226666451Y-119571815D01*
X227188733Y-119669845D01*
X228858579Y-118000000D01*
X227188733Y-116330155D01*
X226666451Y-116428185D01*
X226404644Y-116913640D01*
X226242575Y-117440843D01*
X226186472Y-117989533D01*
X209962715Y-117989533D01*
X209949615Y-117957909D01*
X209708852Y-117597582D01*
X209402418Y-117291148D01*
X209042091Y-117050385D01*
X208641716Y-116884545D01*
X208216681Y-116800000D01*
X207783319Y-116800000D01*
X207358284Y-116884545D01*
X206957909Y-117050385D01*
X206597582Y-117291148D01*
X206291148Y-117597582D01*
X206050385Y-117957909D01*
X205884545Y-118358284D01*
X205800000Y-118783319D01*
X203677432Y-118783319D01*
X203529911Y-118635798D01*
X203437931Y-118574339D01*
X203778971Y-118433076D01*
X204221191Y-118137594D01*
X204597268Y-117761517D01*
X204892750Y-117319297D01*
X205096281Y-116827928D01*
X205200041Y-116306294D01*
X205200041Y-115774440D01*
X205096281Y-115252806D01*
X204892750Y-114761437D01*
X204612263Y-114341658D01*
X204669372Y-114256188D01*
X204854058Y-113810317D01*
X204882852Y-113665557D01*
X206289435Y-113665557D01*
X206289435Y-114197411D01*
X206393195Y-114719045D01*
X206596726Y-115210414D01*
X206892208Y-115652634D01*
X207268285Y-116028711D01*
X207710505Y-116324193D01*
X208201874Y-116527724D01*
X208723508Y-116631484D01*
X209255362Y-116631484D01*
X209776996Y-116527724D01*
X210268365Y-116324193D01*
X210710585Y-116028711D01*
X211086662Y-115652634D01*
X211382144Y-115210414D01*
X211550892Y-114803017D01*
X213000000Y-114803017D01*
X213000000Y-115196983D01*
X213076859Y-115583378D01*
X213227623Y-115947355D01*
X213446499Y-116274926D01*
X213725074Y-116553501D01*
X214052645Y-116772377D01*
X214416622Y-116923141D01*
X214803017Y-117000000D01*
X215196983Y-117000000D01*
X215583378Y-116923141D01*
X215947355Y-116772377D01*
X216274926Y-116553501D01*
X216553501Y-116274926D01*
X216611093Y-116188733D01*
X227330155Y-116188733D01*
X229000000Y-117858579D01*
X230669845Y-116188733D01*
X230571815Y-115666451D01*
X230086360Y-115404644D01*
X229559157Y-115242575D01*
X229010467Y-115186472D01*
X228461373Y-115238491D01*
X227932979Y-115396634D01*
X227445590Y-115654823D01*
X227428185Y-115666451D01*
X227330155Y-116188733D01*
X216611093Y-116188733D01*
X216772377Y-115947355D01*
X216923141Y-115583378D01*
X217000000Y-115196983D01*
X217000000Y-114803017D01*
X216933061Y-114466494D01*
X217135798Y-114769911D01*
X217470089Y-115104202D01*
X217863174Y-115366853D01*
X218299946Y-115547770D01*
X218763621Y-115640000D01*
X219236379Y-115640000D01*
X219700054Y-115547770D01*
X220136826Y-115366853D01*
X220529911Y-115104202D01*
X220864202Y-114769911D01*
X221126853Y-114376826D01*
X221307770Y-113940054D01*
X221400000Y-113476379D01*
X221400000Y-113003621D01*
X221307770Y-112539946D01*
X221126853Y-112103174D01*
X220864202Y-111710089D01*
X220529911Y-111375798D01*
X220136826Y-111113147D01*
X219700054Y-110932230D01*
X219236379Y-110840000D01*
X218763621Y-110840000D01*
X218299946Y-110932230D01*
X217863174Y-111113147D01*
X217470089Y-111375798D01*
X217135798Y-111710089D01*
X216873147Y-112103174D01*
X216692230Y-112539946D01*
X216600000Y-113003621D01*
X216600000Y-113476379D01*
X216690146Y-113929578D01*
X216553501Y-113725074D01*
X216274926Y-113446499D01*
X215947355Y-113227623D01*
X215583378Y-113076859D01*
X215196983Y-113000000D01*
X214803017Y-113000000D01*
X214416622Y-113076859D01*
X214052645Y-113227623D01*
X213725074Y-113446499D01*
X213446499Y-113725074D01*
X213227623Y-114052645D01*
X213076859Y-114416622D01*
X213000000Y-114803017D01*
X211550892Y-114803017D01*
X211585675Y-114719045D01*
X211689435Y-114197411D01*
X211689435Y-113665557D01*
X211585675Y-113143923D01*
X211382144Y-112652554D01*
X211086662Y-112210334D01*
X210710585Y-111834257D01*
X210268365Y-111538775D01*
X209776996Y-111335244D01*
X209255362Y-111231484D01*
X208723508Y-111231484D01*
X208201874Y-111335244D01*
X207710505Y-111538775D01*
X207268285Y-111834257D01*
X206892208Y-112210334D01*
X206596726Y-112652554D01*
X206393195Y-113143923D01*
X206289435Y-113665557D01*
X204882852Y-113665557D01*
X204948210Y-113336982D01*
X204948210Y-112854374D01*
X204854058Y-112381039D01*
X204669372Y-111935168D01*
X204401250Y-111533894D01*
X204059994Y-111192638D01*
X203658720Y-110924516D01*
X203212849Y-110739830D01*
X202739514Y-110645678D01*
X202256906Y-110645678D01*
X201783571Y-110739830D01*
X201337700Y-110924516D01*
X200936426Y-111192638D01*
X200595170Y-111533894D01*
X200327048Y-111935168D01*
X200142362Y-112381039D01*
X200048210Y-112854374D01*
X200048210Y-113336982D01*
X200142362Y-113810317D01*
X200327048Y-114256188D01*
X200385988Y-114344399D01*
X200107332Y-114761437D01*
X199903801Y-115252806D01*
X199800041Y-115774440D01*
X199800041Y-116306294D01*
X199903801Y-116827928D01*
X200107332Y-117319297D01*
X200402814Y-117761517D01*
X200778891Y-118137594D01*
X201028767Y-118304556D01*
X200863174Y-118373147D01*
X200470089Y-118635798D01*
X200135798Y-118970089D01*
X199873147Y-119363174D01*
X199692230Y-119799946D01*
X199600000Y-120263621D01*
X197505806Y-120263621D01*
X197505806Y-119200000D01*
X197482637Y-118964759D01*
X197414019Y-118738558D01*
X197302591Y-118530090D01*
X197152634Y-118347366D01*
X196969910Y-118197409D01*
X196761442Y-118085981D01*
X196535241Y-118017363D01*
X196300000Y-117994194D01*
X194700000Y-117994194D01*
X194464759Y-118017363D01*
X194238558Y-118085981D01*
X194030090Y-118197409D01*
X193847366Y-118347366D01*
X193739375Y-118478954D01*
X193550960Y-118579663D01*
X193356968Y-118738869D01*
X193356965Y-118738872D01*
X193292103Y-118792103D01*
X193238872Y-118856965D01*
X191356965Y-120738872D01*
X191292103Y-120792103D01*
X191238873Y-120856964D01*
X191238868Y-120856969D01*
X191079663Y-121050961D01*
X191000001Y-121200000D01*
X190921806Y-121346292D01*
X190824598Y-121666743D01*
X190800000Y-121916491D01*
X190800000Y-121916500D01*
X190791776Y-122000000D01*
X190800000Y-122083500D01*
X190800000Y-124680491D01*
X190696983Y-124660000D01*
X190303017Y-124660000D01*
X189916622Y-124736859D01*
X189552645Y-124887623D01*
X189225074Y-125106499D01*
X188946499Y-125385074D01*
X188727623Y-125712645D01*
X188576859Y-126076622D01*
X188500000Y-126463017D01*
X188500000Y-126856983D01*
X188576859Y-127243378D01*
X188727623Y-127607355D01*
X188946499Y-127934926D01*
X189225074Y-128213501D01*
X189552645Y-128432377D01*
X189916622Y-128583141D01*
X190303017Y-128660000D01*
X190696983Y-128660000D01*
X190800001Y-128639508D01*
X190800001Y-130795836D01*
X183796961Y-137798876D01*
X183732104Y-137852103D01*
X183678877Y-137916960D01*
X183678868Y-137916969D01*
X183519663Y-138110961D01*
X183361807Y-138406291D01*
X183264599Y-138726742D01*
X183231776Y-139060000D01*
X183240001Y-139143510D01*
X183240000Y-144361207D01*
X183185466Y-144427657D01*
X182990466Y-144792476D01*
X182870386Y-145188328D01*
X182840000Y-145496833D01*
X181642262Y-145496833D01*
X181387949Y-145000178D01*
X181297388Y-144864643D01*
X180590825Y-144550597D01*
X177641421Y-147500000D01*
X177358579Y-147500000D01*
X174409175Y-144550597D01*
X173775000Y-144832469D01*
X173775000Y-144409175D01*
X174550597Y-144409175D01*
X177500000Y-147358579D01*
X180449403Y-144409175D01*
X180135357Y-143702612D01*
X179343885Y-143261446D01*
X178481554Y-142983164D01*
X177581503Y-142878462D01*
X176678319Y-142951363D01*
X175806713Y-143199065D01*
X175000178Y-143612051D01*
X174864643Y-143702612D01*
X174550597Y-144409175D01*
X173775000Y-144409175D01*
X173775000Y-132303017D01*
X178500000Y-132303017D01*
X178500000Y-132696983D01*
X178576859Y-133083378D01*
X178727623Y-133447355D01*
X178946499Y-133774926D01*
X179225074Y-134053501D01*
X179552645Y-134272377D01*
X179916622Y-134423141D01*
X180303017Y-134500000D01*
X180696983Y-134500000D01*
X181083378Y-134423141D01*
X181447355Y-134272377D01*
X181774926Y-134053501D01*
X182053501Y-133774926D01*
X182272377Y-133447355D01*
X182423141Y-133083378D01*
X182500000Y-132696983D01*
X182500000Y-132303017D01*
X182423141Y-131916622D01*
X182272377Y-131552645D01*
X182212490Y-131463017D01*
X182500000Y-131463017D01*
X182500000Y-131856983D01*
X182576859Y-132243378D01*
X182727623Y-132607355D01*
X182946499Y-132934926D01*
X183225074Y-133213501D01*
X183552645Y-133432377D01*
X183916622Y-133583141D01*
X184303017Y-133660000D01*
X184696983Y-133660000D01*
X185083378Y-133583141D01*
X185447355Y-133432377D01*
X185774926Y-133213501D01*
X186053501Y-132934926D01*
X186272377Y-132607355D01*
X186423141Y-132243378D01*
X186500000Y-131856983D01*
X186500000Y-131463017D01*
X186423141Y-131076622D01*
X186272377Y-130712645D01*
X186053501Y-130385074D01*
X185774926Y-130106499D01*
X185447355Y-129887623D01*
X185083378Y-129736859D01*
X184696983Y-129660000D01*
X184303017Y-129660000D01*
X183916622Y-129736859D01*
X183552645Y-129887623D01*
X183225074Y-130106499D01*
X182946499Y-130385074D01*
X182727623Y-130712645D01*
X182576859Y-131076622D01*
X182500000Y-131463017D01*
X182212490Y-131463017D01*
X182053501Y-131225074D01*
X181774926Y-130946499D01*
X181447355Y-130727623D01*
X181083378Y-130576859D01*
X180696983Y-130500000D01*
X180303017Y-130500000D01*
X179916622Y-130576859D01*
X179552645Y-130727623D01*
X179225074Y-130946499D01*
X178946499Y-131225074D01*
X178727623Y-131552645D01*
X178576859Y-131916622D01*
X178500000Y-132303017D01*
X173775000Y-132303017D01*
X173775000Y-115243922D01*
X176900000Y-115243922D01*
X176900000Y-115756078D01*
X176999917Y-116258392D01*
X177195910Y-116731562D01*
X177480448Y-117157403D01*
X177842597Y-117519552D01*
X178268438Y-117804090D01*
X178741608Y-118000083D01*
X179243922Y-118100000D01*
X179695837Y-118100000D01*
X179744140Y-118148303D01*
X179552645Y-118227623D01*
X179225074Y-118446499D01*
X178946499Y-118725074D01*
X178727623Y-119052645D01*
X178576859Y-119416622D01*
X178500000Y-119803017D01*
X178500000Y-120196983D01*
X178576859Y-120583378D01*
X178727623Y-120947355D01*
X178946499Y-121274926D01*
X179225074Y-121553501D01*
X179552645Y-121772377D01*
X179916622Y-121923141D01*
X180303017Y-122000000D01*
X180696983Y-122000000D01*
X181083378Y-121923141D01*
X181447355Y-121772377D01*
X181774926Y-121553501D01*
X182025410Y-121303017D01*
X182500000Y-121303017D01*
X182500000Y-121696983D01*
X182576859Y-122083378D01*
X182727623Y-122447355D01*
X182946499Y-122774926D01*
X183225074Y-123053501D01*
X183552645Y-123272377D01*
X183916622Y-123423141D01*
X184303017Y-123500000D01*
X184696983Y-123500000D01*
X185083378Y-123423141D01*
X185447355Y-123272377D01*
X185774926Y-123053501D01*
X186053501Y-122774926D01*
X186272377Y-122447355D01*
X186423141Y-122083378D01*
X186500000Y-121696983D01*
X186500000Y-121303017D01*
X186423141Y-120916622D01*
X186272377Y-120552645D01*
X186053501Y-120225074D01*
X185774926Y-119946499D01*
X185447355Y-119727623D01*
X185083378Y-119576859D01*
X184696983Y-119500000D01*
X184303017Y-119500000D01*
X183916622Y-119576859D01*
X183552645Y-119727623D01*
X183225074Y-119946499D01*
X182946499Y-120225074D01*
X182727623Y-120552645D01*
X182576859Y-120916622D01*
X182500000Y-121303017D01*
X182025410Y-121303017D01*
X182053501Y-121274926D01*
X182272377Y-120947355D01*
X182423141Y-120583378D01*
X182500000Y-120196983D01*
X182500000Y-119803017D01*
X182423141Y-119416622D01*
X182333413Y-119200000D01*
X189416500Y-119200000D01*
X189500000Y-119208224D01*
X189583500Y-119200000D01*
X189583510Y-119200000D01*
X189833258Y-119175402D01*
X190153709Y-119078194D01*
X190449039Y-118920337D01*
X190643031Y-118761132D01*
X190643035Y-118761128D01*
X190707897Y-118707897D01*
X190761129Y-118643034D01*
X190955606Y-118448556D01*
X191083378Y-118423141D01*
X191447355Y-118272377D01*
X191774926Y-118053501D01*
X192053501Y-117774926D01*
X192272377Y-117447355D01*
X192423141Y-117083378D01*
X192500000Y-116696983D01*
X192500000Y-116303017D01*
X192423141Y-115916622D01*
X192272377Y-115552645D01*
X192053501Y-115225074D01*
X191774926Y-114946499D01*
X191447355Y-114727623D01*
X191083378Y-114576859D01*
X190696983Y-114500000D01*
X190303017Y-114500000D01*
X189916622Y-114576859D01*
X189552645Y-114727623D01*
X189225074Y-114946499D01*
X188946499Y-115225074D01*
X188727623Y-115552645D01*
X188625165Y-115800000D01*
X187833413Y-115800000D01*
X187923141Y-115583378D01*
X188000000Y-115196983D01*
X188000000Y-114803017D01*
X187923141Y-114416622D01*
X187772377Y-114052645D01*
X187553501Y-113725074D01*
X187494320Y-113665893D01*
X193310602Y-113665893D01*
X193310602Y-114197747D01*
X193414362Y-114719381D01*
X193617893Y-115210750D01*
X193913375Y-115652970D01*
X194289452Y-116029047D01*
X194731672Y-116324529D01*
X195223041Y-116528060D01*
X195744675Y-116631820D01*
X196276529Y-116631820D01*
X196798163Y-116528060D01*
X197289532Y-116324529D01*
X197731752Y-116029047D01*
X198107829Y-115652970D01*
X198403311Y-115210750D01*
X198606842Y-114719381D01*
X198710602Y-114197747D01*
X198710602Y-113665893D01*
X198606842Y-113144259D01*
X198403311Y-112652890D01*
X198107829Y-112210670D01*
X197731752Y-111834593D01*
X197289532Y-111539111D01*
X196798163Y-111335580D01*
X196276529Y-111231820D01*
X195744675Y-111231820D01*
X195223041Y-111335580D01*
X194731672Y-111539111D01*
X194289452Y-111834593D01*
X193913375Y-112210670D01*
X193617893Y-112652890D01*
X193414362Y-113144259D01*
X193310602Y-113665893D01*
X187494320Y-113665893D01*
X187274926Y-113446499D01*
X186947355Y-113227623D01*
X186583378Y-113076859D01*
X186196983Y-113000000D01*
X185803017Y-113000000D01*
X185416622Y-113076859D01*
X185052645Y-113227623D01*
X184725074Y-113446499D01*
X184446499Y-113725074D01*
X184227623Y-114052645D01*
X184076859Y-114416622D01*
X184000000Y-114803017D01*
X184000000Y-115196983D01*
X184076859Y-115583378D01*
X184166587Y-115800000D01*
X182204163Y-115800000D01*
X182100000Y-115695837D01*
X182100000Y-115243922D01*
X182000083Y-114741608D01*
X181804090Y-114268438D01*
X181519552Y-113842597D01*
X181157403Y-113480448D01*
X180731562Y-113195910D01*
X180258392Y-112999917D01*
X179756078Y-112900000D01*
X179243922Y-112900000D01*
X178741608Y-112999917D01*
X178268438Y-113195910D01*
X177842597Y-113480448D01*
X177480448Y-113842597D01*
X177195910Y-114268438D01*
X176999917Y-114741608D01*
X176900000Y-115243922D01*
X173775000Y-115243922D01*
X173775000Y-103420000D01*
X175489839Y-103420000D01*
X175530385Y-103831672D01*
X175650465Y-104227524D01*
X175845465Y-104592343D01*
X176107891Y-104912109D01*
X176427657Y-105174535D01*
X176792476Y-105369535D01*
X177188328Y-105489615D01*
X177496833Y-105520000D01*
X177844008Y-105520000D01*
X178068725Y-105588167D01*
X178391930Y-105620000D01*
X179008731Y-105620000D01*
X179688730Y-106300000D01*
X178391930Y-106300000D01*
X178068725Y-106331833D01*
X177863148Y-106394194D01*
X176700000Y-106394194D01*
X176464759Y-106417363D01*
X176238558Y-106485981D01*
X176030090Y-106597409D01*
X175847366Y-106747366D01*
X175697409Y-106930090D01*
X175585981Y-107138558D01*
X175517363Y-107364759D01*
X175494194Y-107600000D01*
X175494194Y-109400000D01*
X175517363Y-109635241D01*
X175585981Y-109861442D01*
X175697409Y-110069910D01*
X175847366Y-110252634D01*
X176030090Y-110402591D01*
X176238558Y-110514019D01*
X176464759Y-110582637D01*
X176700000Y-110605806D01*
X177863148Y-110605806D01*
X178068725Y-110668167D01*
X178391930Y-110700000D01*
X190564818Y-110700000D01*
X190721089Y-110804417D01*
X191212458Y-111007948D01*
X191734092Y-111111708D01*
X192265946Y-111111708D01*
X192787580Y-111007948D01*
X193278949Y-110804417D01*
X193567358Y-110611708D01*
X225063365Y-110611708D01*
X225188328Y-110649615D01*
X225496833Y-110680000D01*
X225844010Y-110680000D01*
X226068726Y-110748166D01*
X226500000Y-110790643D01*
X226931275Y-110748166D01*
X227155991Y-110680000D01*
X227503167Y-110680000D01*
X227811672Y-110649615D01*
X228207524Y-110529535D01*
X228572343Y-110334535D01*
X228892109Y-110072109D01*
X229154535Y-109752343D01*
X229349535Y-109387524D01*
X229469615Y-108991672D01*
X229510161Y-108580000D01*
X229469615Y-108168328D01*
X229349535Y-107772476D01*
X229154535Y-107407657D01*
X228892109Y-107087891D01*
X228572343Y-106825465D01*
X228207524Y-106630465D01*
X227811672Y-106510385D01*
X227503167Y-106480000D01*
X227384717Y-106480000D01*
X227177685Y-106369339D01*
X226762983Y-106243541D01*
X226439778Y-106211708D01*
X226439768Y-106211708D01*
X226331708Y-106201065D01*
X226223648Y-106211708D01*
X204636953Y-106211708D01*
X204671162Y-106160510D01*
X204855848Y-105714639D01*
X204950000Y-105241304D01*
X204950000Y-104758696D01*
X204855848Y-104285361D01*
X204671162Y-103839490D01*
X204636953Y-103788292D01*
X211432642Y-103788292D01*
X211721051Y-103981001D01*
X212212420Y-104184532D01*
X212662862Y-104274131D01*
X213367951Y-104979221D01*
X213436839Y-105063161D01*
X213520778Y-105132048D01*
X213520781Y-105132051D01*
X213667712Y-105252634D01*
X213771832Y-105338083D01*
X214154023Y-105542369D01*
X214568725Y-105668167D01*
X214891930Y-105700000D01*
X214891939Y-105700000D01*
X214999999Y-105710643D01*
X215108059Y-105700000D01*
X226608070Y-105700000D01*
X226931275Y-105668167D01*
X227136852Y-105605806D01*
X228300000Y-105605806D01*
X228535241Y-105582637D01*
X228761442Y-105514019D01*
X228969910Y-105402591D01*
X229152634Y-105252634D01*
X229302591Y-105069910D01*
X229414019Y-104861442D01*
X229482637Y-104635241D01*
X229505806Y-104400000D01*
X229505806Y-102600000D01*
X229482637Y-102364759D01*
X229414019Y-102138558D01*
X229302591Y-101930090D01*
X229152634Y-101747366D01*
X228969910Y-101597409D01*
X228761442Y-101485981D01*
X228535241Y-101417363D01*
X228300000Y-101394194D01*
X227136852Y-101394194D01*
X226931275Y-101331833D01*
X226608070Y-101300000D01*
X215911269Y-101300000D01*
X215641964Y-101030695D01*
X215596221Y-100800731D01*
X215392690Y-100309362D01*
X215097208Y-99867142D01*
X214721131Y-99491065D01*
X214278911Y-99195583D01*
X213787542Y-98992052D01*
X213265908Y-98888292D01*
X212734054Y-98888292D01*
X212212420Y-98992052D01*
X211721051Y-99195583D01*
X211432642Y-99388292D01*
X200019770Y-99388292D01*
X199911708Y-99377649D01*
X199803646Y-99388292D01*
X199803638Y-99388292D01*
X199480433Y-99420125D01*
X199065731Y-99545923D01*
X198683540Y-99750209D01*
X198432490Y-99956240D01*
X198432486Y-99956244D01*
X198348547Y-100025131D01*
X198279659Y-100109071D01*
X195588732Y-102800000D01*
X194420524Y-102800000D01*
X194596196Y-102375890D01*
X194699956Y-101854256D01*
X194699956Y-101322402D01*
X194596196Y-100800768D01*
X194392665Y-100309399D01*
X194097183Y-99867179D01*
X193721106Y-99491102D01*
X193278886Y-99195620D01*
X192787517Y-98992089D01*
X192265883Y-98888329D01*
X191734029Y-98888329D01*
X191212395Y-98992089D01*
X190721026Y-99195620D01*
X190278806Y-99491102D01*
X189902729Y-99867179D01*
X189607247Y-100309399D01*
X189403716Y-100800768D01*
X189299956Y-101322402D01*
X189299956Y-101854256D01*
X189403716Y-102375890D01*
X189579388Y-102800000D01*
X182411269Y-102800000D01*
X181552057Y-101940788D01*
X181483161Y-101856839D01*
X181148168Y-101581917D01*
X180765977Y-101377631D01*
X180351275Y-101251833D01*
X180028070Y-101220000D01*
X180028060Y-101220000D01*
X179920000Y-101209357D01*
X179811940Y-101220000D01*
X178391930Y-101220000D01*
X178068725Y-101251833D01*
X177844008Y-101320000D01*
X177496833Y-101320000D01*
X177188328Y-101350385D01*
X176792476Y-101470465D01*
X176427657Y-101665465D01*
X176107891Y-101927891D01*
X175845465Y-102247657D01*
X175650465Y-102612476D01*
X175530385Y-103008328D01*
X175489839Y-103420000D01*
X173775000Y-103420000D01*
X173775000Y-94803017D01*
X184000000Y-94803017D01*
X184000000Y-95196983D01*
X184076859Y-95583378D01*
X184227623Y-95947355D01*
X184446499Y-96274926D01*
X184725074Y-96553501D01*
X185052645Y-96772377D01*
X185416622Y-96923141D01*
X185803017Y-97000000D01*
X186196983Y-97000000D01*
X186583378Y-96923141D01*
X186947355Y-96772377D01*
X187274926Y-96553501D01*
X187553501Y-96274926D01*
X187772377Y-95947355D01*
X187923141Y-95583378D01*
X188000000Y-95196983D01*
X188000000Y-94803017D01*
X187923141Y-94416622D01*
X187772377Y-94052645D01*
X187553501Y-93725074D01*
X187274926Y-93446499D01*
X186947355Y-93227623D01*
X186583378Y-93076859D01*
X186196983Y-93000000D01*
X185803017Y-93000000D01*
X185416622Y-93076859D01*
X185052645Y-93227623D01*
X184725074Y-93446499D01*
X184446499Y-93725074D01*
X184227623Y-94052645D01*
X184076859Y-94416622D01*
X184000000Y-94803017D01*
X173775000Y-94803017D01*
X173775000Y-91003621D01*
X192600000Y-91003621D01*
X192600000Y-91476379D01*
X192692230Y-91940054D01*
X192873147Y-92376826D01*
X193135798Y-92769911D01*
X193470089Y-93104202D01*
X193863174Y-93366853D01*
X194299946Y-93547770D01*
X194763621Y-93640000D01*
X194817287Y-93640000D01*
X194731758Y-93675427D01*
X194289538Y-93970909D01*
X193913461Y-94346986D01*
X193617979Y-94789206D01*
X193414448Y-95280575D01*
X193310688Y-95802209D01*
X193310688Y-96334063D01*
X193414448Y-96855697D01*
X193617979Y-97347066D01*
X193913461Y-97789286D01*
X194289538Y-98165363D01*
X194731758Y-98460845D01*
X195223127Y-98664376D01*
X195744761Y-98768136D01*
X196276615Y-98768136D01*
X196798249Y-98664376D01*
X197289618Y-98460845D01*
X197731838Y-98165363D01*
X198107915Y-97789286D01*
X198403397Y-97347066D01*
X198606928Y-96855697D01*
X198710688Y-96334063D01*
X198710688Y-95802209D01*
X198606928Y-95280575D01*
X198403397Y-94789206D01*
X198107915Y-94346986D01*
X197731838Y-93970909D01*
X197289618Y-93675427D01*
X196798249Y-93471896D01*
X196276615Y-93368136D01*
X196133729Y-93368136D01*
X196136826Y-93366853D01*
X196529911Y-93104202D01*
X196864202Y-92769911D01*
X197126853Y-92376826D01*
X197307770Y-91940054D01*
X197400000Y-91476379D01*
X197400000Y-91003621D01*
X197307770Y-90539946D01*
X197126853Y-90103174D01*
X196864202Y-89710089D01*
X196529911Y-89375798D01*
X196136826Y-89113147D01*
X195700054Y-88932230D01*
X195236379Y-88840000D01*
X194763621Y-88840000D01*
X194299946Y-88932230D01*
X193863174Y-89113147D01*
X193470089Y-89375798D01*
X193135798Y-89710089D01*
X192873147Y-90103174D01*
X192692230Y-90539946D01*
X192600000Y-91003621D01*
X173775000Y-91003621D01*
X173775000Y-86263621D01*
X180100000Y-86263621D01*
X180100000Y-86736379D01*
X180192230Y-87200054D01*
X180373147Y-87636826D01*
X180635798Y-88029911D01*
X180970089Y-88364202D01*
X181363174Y-88626853D01*
X181799946Y-88807770D01*
X182263621Y-88900000D01*
X182736379Y-88900000D01*
X183200054Y-88807770D01*
X183636826Y-88626853D01*
X184029911Y-88364202D01*
X184364202Y-88029911D01*
X184626853Y-87636826D01*
X184807770Y-87200054D01*
X184900000Y-86736379D01*
X184900000Y-86263621D01*
X184807770Y-85799946D01*
X184626853Y-85363174D01*
X184364202Y-84970089D01*
X184029911Y-84635798D01*
X183636826Y-84373147D01*
X183200054Y-84192230D01*
X182736379Y-84100000D01*
X182263621Y-84100000D01*
X181799946Y-84192230D01*
X181363174Y-84373147D01*
X180970089Y-84635798D01*
X180635798Y-84970089D01*
X180373147Y-85363174D01*
X180192230Y-85799946D01*
X180100000Y-86263621D01*
X173775000Y-86263621D01*
X173775000Y-77800000D01*
X180094194Y-77800000D01*
X180094194Y-80200000D01*
X180117363Y-80435241D01*
X180185981Y-80661442D01*
X180297409Y-80869910D01*
X180447366Y-81052634D01*
X180630090Y-81202591D01*
X180838558Y-81314019D01*
X181064759Y-81382637D01*
X181300000Y-81405806D01*
X183700000Y-81405806D01*
X183935241Y-81382637D01*
X184161442Y-81314019D01*
X184369910Y-81202591D01*
X184552634Y-81052634D01*
X184702591Y-80869910D01*
X184814019Y-80661442D01*
X184882637Y-80435241D01*
X184905806Y-80200000D01*
X184905806Y-77800000D01*
X184882637Y-77564759D01*
X184814019Y-77338558D01*
X184702591Y-77130090D01*
X184552634Y-76947366D01*
X184369910Y-76797409D01*
X184161442Y-76685981D01*
X183935241Y-76617363D01*
X183700000Y-76594194D01*
X181300000Y-76594194D01*
X181064759Y-76617363D01*
X180838558Y-76685981D01*
X180630090Y-76797409D01*
X180447366Y-76947366D01*
X180297409Y-77130090D01*
X180185981Y-77338558D01*
X180117363Y-77564759D01*
X180094194Y-77800000D01*
X173775000Y-77800000D01*
X173775000Y-75763621D01*
X192600000Y-75763621D01*
X192600000Y-76236379D01*
X192692230Y-76700054D01*
X192873147Y-77136826D01*
X193135798Y-77529911D01*
X193300001Y-77694114D01*
X193300000Y-82916500D01*
X193291776Y-83000000D01*
X193300000Y-83083500D01*
X193300000Y-83083509D01*
X193324598Y-83333257D01*
X193421806Y-83653708D01*
X193479225Y-83761132D01*
X193579663Y-83949039D01*
X193738868Y-84143031D01*
X193738873Y-84143036D01*
X193792103Y-84207897D01*
X193856965Y-84261128D01*
X197238872Y-87643035D01*
X197292103Y-87707897D01*
X197356965Y-87761128D01*
X197356968Y-87761131D01*
X197404330Y-87800000D01*
X197550961Y-87920337D01*
X197846291Y-88078194D01*
X198166742Y-88175402D01*
X198416490Y-88200000D01*
X198416507Y-88200000D01*
X198499999Y-88208223D01*
X198583491Y-88200000D01*
X199733995Y-88200000D01*
X199597582Y-88291148D01*
X199291148Y-88597582D01*
X199050385Y-88957909D01*
X198884545Y-89358284D01*
X198800000Y-89783319D01*
X198800000Y-90216681D01*
X198884545Y-90641716D01*
X199050385Y-91042091D01*
X199291148Y-91402418D01*
X199597582Y-91708852D01*
X199957909Y-91949615D01*
X200358284Y-92115455D01*
X200497974Y-92143241D01*
X200402732Y-92238483D01*
X200107250Y-92680703D01*
X199903719Y-93172072D01*
X199799959Y-93693706D01*
X199799959Y-94225560D01*
X199903719Y-94747194D01*
X200107250Y-95238563D01*
X200371414Y-95633913D01*
X200361529Y-95648707D01*
X200176843Y-96094578D01*
X200082691Y-96567913D01*
X200082691Y-97050521D01*
X200176843Y-97523856D01*
X200361529Y-97969727D01*
X200629651Y-98371001D01*
X200970907Y-98712257D01*
X201372181Y-98980379D01*
X201818052Y-99165065D01*
X202291387Y-99259217D01*
X202773995Y-99259217D01*
X203247330Y-99165065D01*
X203693201Y-98980379D01*
X204094475Y-98712257D01*
X204435731Y-98371001D01*
X204703853Y-97969727D01*
X204888539Y-97523856D01*
X204982691Y-97050521D01*
X204982691Y-96567913D01*
X204888539Y-96094578D01*
X204767454Y-95802253D01*
X206289398Y-95802253D01*
X206289398Y-96334107D01*
X206393158Y-96855741D01*
X206596689Y-97347110D01*
X206892171Y-97789330D01*
X207268248Y-98165407D01*
X207710468Y-98460889D01*
X208201837Y-98664420D01*
X208723471Y-98768180D01*
X209255325Y-98768180D01*
X209776959Y-98664420D01*
X210268328Y-98460889D01*
X210710548Y-98165407D01*
X211086625Y-97789330D01*
X211382107Y-97347110D01*
X211585638Y-96855741D01*
X211689398Y-96334107D01*
X211689398Y-95802253D01*
X211585638Y-95280619D01*
X211382107Y-94789250D01*
X211086625Y-94347030D01*
X210710548Y-93970953D01*
X210268328Y-93675471D01*
X209776959Y-93471940D01*
X209255325Y-93368180D01*
X208723471Y-93368180D01*
X208201837Y-93471940D01*
X207710468Y-93675471D01*
X207268248Y-93970953D01*
X206892171Y-94347030D01*
X206596689Y-94789250D01*
X206393158Y-95280619D01*
X206289398Y-95802253D01*
X204767454Y-95802253D01*
X204703853Y-95648707D01*
X204661236Y-95584926D01*
X204892668Y-95238563D01*
X205096199Y-94747194D01*
X205199959Y-94225560D01*
X205199959Y-93693706D01*
X205096199Y-93172072D01*
X204892668Y-92680703D01*
X204597186Y-92238483D01*
X204221109Y-91862406D01*
X203778889Y-91566924D01*
X203287520Y-91363393D01*
X202799756Y-91266370D01*
X202949615Y-91042091D01*
X203115455Y-90641716D01*
X203200000Y-90216681D01*
X203200000Y-89783319D01*
X203115455Y-89358284D01*
X202949615Y-88957909D01*
X202708852Y-88597582D01*
X202402418Y-88291148D01*
X202266005Y-88200000D01*
X205405887Y-88200000D01*
X205135798Y-88470089D01*
X204873147Y-88863174D01*
X204692230Y-89299946D01*
X204600000Y-89763621D01*
X204600000Y-90236379D01*
X204692230Y-90700054D01*
X204873147Y-91136826D01*
X205135798Y-91529911D01*
X205470089Y-91864202D01*
X205863174Y-92126853D01*
X206299946Y-92307770D01*
X206763621Y-92400000D01*
X207236379Y-92400000D01*
X207700054Y-92307770D01*
X208136826Y-92126853D01*
X208529911Y-91864202D01*
X208864202Y-91529911D01*
X208877992Y-91509272D01*
X208921807Y-91653709D01*
X209079663Y-91949039D01*
X209238868Y-92143031D01*
X209238877Y-92143040D01*
X209292104Y-92207897D01*
X209356961Y-92261124D01*
X216238872Y-99143035D01*
X216292103Y-99207897D01*
X216356965Y-99261128D01*
X216356969Y-99261132D01*
X216550960Y-99420337D01*
X216683284Y-99491065D01*
X216846291Y-99578194D01*
X217166742Y-99675402D01*
X217293803Y-99687916D01*
X217470089Y-99864202D01*
X217863174Y-100126853D01*
X218299946Y-100307770D01*
X218763621Y-100400000D01*
X219236379Y-100400000D01*
X219700054Y-100307770D01*
X220136826Y-100126853D01*
X220529911Y-99864202D01*
X220864202Y-99529911D01*
X221126853Y-99136826D01*
X221307770Y-98700054D01*
X221400000Y-98236379D01*
X221400000Y-97763621D01*
X221307770Y-97299946D01*
X221126853Y-96863174D01*
X220864202Y-96470089D01*
X220529911Y-96135798D01*
X220136826Y-95873147D01*
X219700054Y-95692230D01*
X219236379Y-95600000D01*
X218763621Y-95600000D01*
X218299946Y-95692230D01*
X217863174Y-95873147D01*
X217811702Y-95907539D01*
X212200000Y-90295837D01*
X212200000Y-89803017D01*
X218000000Y-89803017D01*
X218000000Y-90196983D01*
X218076859Y-90583378D01*
X218227623Y-90947355D01*
X218446499Y-91274926D01*
X218725074Y-91553501D01*
X219052645Y-91772377D01*
X219416622Y-91923141D01*
X219803017Y-92000000D01*
X220196983Y-92000000D01*
X220583378Y-91923141D01*
X220947355Y-91772377D01*
X221274926Y-91553501D01*
X221553501Y-91274926D01*
X221772377Y-90947355D01*
X221923141Y-90583378D01*
X222000000Y-90196983D01*
X222000000Y-90080000D01*
X223489839Y-90080000D01*
X223530385Y-90491672D01*
X223650465Y-90887524D01*
X223845465Y-91252343D01*
X224107891Y-91572109D01*
X224427657Y-91834535D01*
X224792476Y-92029535D01*
X225188328Y-92149615D01*
X225496833Y-92180000D01*
X227503167Y-92180000D01*
X227811672Y-92149615D01*
X228207524Y-92029535D01*
X228572343Y-91834535D01*
X228892109Y-91572109D01*
X229154535Y-91252343D01*
X229349535Y-90887524D01*
X229469615Y-90491672D01*
X229510161Y-90080000D01*
X229469615Y-89668328D01*
X229349535Y-89272476D01*
X229154535Y-88907657D01*
X228892109Y-88587891D01*
X228572343Y-88325465D01*
X228207524Y-88130465D01*
X227811672Y-88010385D01*
X227503167Y-87980000D01*
X225496833Y-87980000D01*
X225188328Y-88010385D01*
X224792476Y-88130465D01*
X224427657Y-88325465D01*
X224107891Y-88587891D01*
X223845465Y-88907657D01*
X223650465Y-89272476D01*
X223530385Y-89668328D01*
X223489839Y-90080000D01*
X222000000Y-90080000D01*
X222000000Y-89803017D01*
X221923141Y-89416622D01*
X221772377Y-89052645D01*
X221553501Y-88725074D01*
X221274926Y-88446499D01*
X220947355Y-88227623D01*
X220583378Y-88076859D01*
X220196983Y-88000000D01*
X219803017Y-88000000D01*
X219416622Y-88076859D01*
X219052645Y-88227623D01*
X218725074Y-88446499D01*
X218446499Y-88725074D01*
X218227623Y-89052645D01*
X218076859Y-89416622D01*
X218000000Y-89803017D01*
X212200000Y-89803017D01*
X212200000Y-89393409D01*
X212238558Y-89414019D01*
X212464759Y-89482637D01*
X212700000Y-89505806D01*
X214300000Y-89505806D01*
X214535241Y-89482637D01*
X214761442Y-89414019D01*
X214969910Y-89302591D01*
X215152634Y-89152634D01*
X215302591Y-88969910D01*
X215414019Y-88761442D01*
X215482637Y-88535241D01*
X215505806Y-88300000D01*
X215505806Y-86700000D01*
X215482637Y-86464759D01*
X215414019Y-86238558D01*
X215382944Y-86180421D01*
X215423141Y-86083378D01*
X215459617Y-85900000D01*
X223293226Y-85900000D01*
X223320257Y-86174448D01*
X223400310Y-86438349D01*
X223530310Y-86681562D01*
X223705261Y-86894739D01*
X223918438Y-87069690D01*
X224161651Y-87199690D01*
X224425552Y-87279743D01*
X224700000Y-87306774D01*
X226050000Y-87300000D01*
X226400000Y-86950000D01*
X226400000Y-85100000D01*
X226600000Y-85100000D01*
X226600000Y-86950000D01*
X226950000Y-87300000D01*
X228300000Y-87306774D01*
X228574448Y-87279743D01*
X228838349Y-87199690D01*
X229081562Y-87069690D01*
X229294739Y-86894739D01*
X229469690Y-86681562D01*
X229599690Y-86438349D01*
X229679743Y-86174448D01*
X229706774Y-85900000D01*
X229700000Y-85450000D01*
X229350000Y-85100000D01*
X226600000Y-85100000D01*
X226400000Y-85100000D01*
X223650000Y-85100000D01*
X223300000Y-85450000D01*
X223293226Y-85900000D01*
X215459617Y-85900000D01*
X215500000Y-85696983D01*
X215500000Y-85303017D01*
X215423141Y-84916622D01*
X215272377Y-84552645D01*
X215200000Y-84444325D01*
X215200000Y-84100000D01*
X223293226Y-84100000D01*
X223300000Y-84550000D01*
X223650000Y-84900000D01*
X226400000Y-84900000D01*
X226400000Y-83050000D01*
X226600000Y-83050000D01*
X226600000Y-84900000D01*
X229350000Y-84900000D01*
X229700000Y-84550000D01*
X229706774Y-84100000D01*
X229679743Y-83825552D01*
X229599690Y-83561651D01*
X229469690Y-83318438D01*
X229294739Y-83105261D01*
X229081562Y-82930310D01*
X228838349Y-82800310D01*
X228574448Y-82720257D01*
X228300000Y-82693226D01*
X226950000Y-82700000D01*
X226600000Y-83050000D01*
X226400000Y-83050000D01*
X226050000Y-82700000D01*
X224700000Y-82693226D01*
X224425552Y-82720257D01*
X224161651Y-82800310D01*
X223918438Y-82930310D01*
X223705261Y-83105261D01*
X223530310Y-83318438D01*
X223400310Y-83561651D01*
X223320257Y-83825552D01*
X223293226Y-84100000D01*
X215200000Y-84100000D01*
X215200000Y-83583502D01*
X215208224Y-83500000D01*
X215200000Y-83416498D01*
X215200000Y-83416490D01*
X215175402Y-83166742D01*
X215078194Y-82846291D01*
X214920337Y-82550961D01*
X214878514Y-82500000D01*
X214761132Y-82356969D01*
X214761128Y-82356965D01*
X214707897Y-82292103D01*
X214643035Y-82238872D01*
X214225217Y-81821054D01*
X214533791Y-81759675D01*
X214866830Y-81621725D01*
X215166557Y-81421454D01*
X215421454Y-81166557D01*
X215621725Y-80866830D01*
X215759675Y-80533791D01*
X215830000Y-80180239D01*
X215830000Y-79819761D01*
X215759675Y-79466209D01*
X215621725Y-79133170D01*
X215421454Y-78833443D01*
X215166557Y-78578546D01*
X214866830Y-78378275D01*
X214533791Y-78240325D01*
X214180239Y-78170000D01*
X213819761Y-78170000D01*
X213466209Y-78240325D01*
X213160000Y-78367162D01*
X213160000Y-78164163D01*
X214000000Y-77324163D01*
X217658872Y-80983035D01*
X217712103Y-81047897D01*
X217776965Y-81101128D01*
X217776969Y-81101132D01*
X217970961Y-81260337D01*
X218266291Y-81418194D01*
X218586742Y-81515402D01*
X218836490Y-81540000D01*
X218836498Y-81540000D01*
X218920000Y-81548224D01*
X218951927Y-81545080D01*
X219052645Y-81612377D01*
X219416622Y-81763141D01*
X219803017Y-81840000D01*
X220196983Y-81840000D01*
X220583378Y-81763141D01*
X220947355Y-81612377D01*
X221274926Y-81393501D01*
X221553501Y-81114926D01*
X221772377Y-80787355D01*
X221923141Y-80423378D01*
X222000000Y-80036983D01*
X222000000Y-79643017D01*
X221923141Y-79256622D01*
X221772377Y-78892645D01*
X221553501Y-78565074D01*
X221274926Y-78286499D01*
X220947355Y-78067623D01*
X220583378Y-77916859D01*
X220196983Y-77840000D01*
X219803017Y-77840000D01*
X219416622Y-77916859D01*
X219405591Y-77921428D01*
X217228085Y-75743922D01*
X224400000Y-75743922D01*
X224400000Y-76256078D01*
X224499917Y-76758392D01*
X224695910Y-77231562D01*
X224980448Y-77657403D01*
X225342597Y-78019552D01*
X225768438Y-78304090D01*
X226241608Y-78500083D01*
X226743922Y-78600000D01*
X227256078Y-78600000D01*
X227758392Y-78500083D01*
X228231562Y-78304090D01*
X228657403Y-78019552D01*
X229019552Y-77657403D01*
X229304090Y-77231562D01*
X229500083Y-76758392D01*
X229600000Y-76256078D01*
X229600000Y-75743922D01*
X229500083Y-75241608D01*
X229304090Y-74768438D01*
X229019552Y-74342597D01*
X228657403Y-73980448D01*
X228231562Y-73695910D01*
X227758392Y-73499917D01*
X227256078Y-73400000D01*
X226743922Y-73400000D01*
X226241608Y-73499917D01*
X225768438Y-73695910D01*
X225342597Y-73980448D01*
X224980448Y-74342597D01*
X224695910Y-74768438D01*
X224499917Y-75241608D01*
X224400000Y-75743922D01*
X217228085Y-75743922D01*
X215681400Y-74197237D01*
X215621725Y-74053170D01*
X215421454Y-73753443D01*
X215166557Y-73498546D01*
X214866830Y-73298275D01*
X214533791Y-73160325D01*
X214180239Y-73090000D01*
X213819761Y-73090000D01*
X213466209Y-73160325D01*
X213133170Y-73298275D01*
X212833443Y-73498546D01*
X212578546Y-73753443D01*
X212378275Y-74053170D01*
X212318600Y-74197237D01*
X210737237Y-75778600D01*
X210593170Y-75838275D01*
X210293443Y-76038546D01*
X210038546Y-76293443D01*
X209838275Y-76593170D01*
X209778600Y-76737237D01*
X205715837Y-80800000D01*
X202411270Y-80800000D01*
X202402418Y-80791148D01*
X202042091Y-80550385D01*
X201920450Y-80500000D01*
X202042091Y-80449615D01*
X202402418Y-80208852D01*
X202708852Y-79902418D01*
X202949615Y-79542091D01*
X203115455Y-79141716D01*
X203200000Y-78716681D01*
X203200000Y-78283319D01*
X203115455Y-77858284D01*
X202949615Y-77457909D01*
X202708852Y-77097582D01*
X202402418Y-76791148D01*
X202042091Y-76550385D01*
X201641716Y-76384545D01*
X201216681Y-76300000D01*
X200783319Y-76300000D01*
X200358284Y-76384545D01*
X199957909Y-76550385D01*
X199597582Y-76791148D01*
X199291148Y-77097582D01*
X199050385Y-77457909D01*
X198884545Y-77858284D01*
X198800000Y-78283319D01*
X198800000Y-78716681D01*
X198884545Y-79141716D01*
X199050385Y-79542091D01*
X199291148Y-79902418D01*
X199597582Y-80208852D01*
X199957909Y-80449615D01*
X200079550Y-80500000D01*
X199957909Y-80550385D01*
X199597582Y-80791148D01*
X199291148Y-81097582D01*
X199050385Y-81457909D01*
X198884545Y-81858284D01*
X198800000Y-82283319D01*
X198800000Y-82716681D01*
X198884545Y-83141716D01*
X199050385Y-83542091D01*
X199291148Y-83902418D01*
X199597582Y-84208852D01*
X199957909Y-84449615D01*
X200358284Y-84615455D01*
X200783319Y-84700000D01*
X201216681Y-84700000D01*
X201641716Y-84615455D01*
X202042091Y-84449615D01*
X202402418Y-84208852D01*
X202411270Y-84200000D01*
X206336500Y-84200000D01*
X206420000Y-84208224D01*
X206503500Y-84200000D01*
X206503510Y-84200000D01*
X206753258Y-84175402D01*
X207073709Y-84078194D01*
X207369039Y-83920337D01*
X207475145Y-83833258D01*
X207563031Y-83761132D01*
X207563035Y-83761128D01*
X207627897Y-83707897D01*
X207681128Y-83643035D01*
X209761852Y-81562311D01*
X209784598Y-81793257D01*
X209881806Y-82113708D01*
X209955287Y-82251182D01*
X210039663Y-82409039D01*
X210198868Y-82603031D01*
X210198873Y-82603036D01*
X210252103Y-82667897D01*
X210316965Y-82721128D01*
X211800001Y-84204164D01*
X211800001Y-84444324D01*
X211727623Y-84552645D01*
X211576859Y-84916622D01*
X211500000Y-85303017D01*
X211500000Y-85696983D01*
X211576859Y-86083378D01*
X211617056Y-86180421D01*
X211585981Y-86238558D01*
X211517363Y-86464759D01*
X211494194Y-86700000D01*
X211494194Y-87090031D01*
X209761128Y-85356965D01*
X209707897Y-85292103D01*
X209643035Y-85238872D01*
X209643031Y-85238868D01*
X209449039Y-85079663D01*
X209446289Y-85078193D01*
X209153709Y-84921806D01*
X208833258Y-84824598D01*
X208583510Y-84800000D01*
X208583500Y-84800000D01*
X208500000Y-84791776D01*
X208416500Y-84800000D01*
X199204163Y-84800000D01*
X196700000Y-82295837D01*
X196700000Y-77694113D01*
X196864202Y-77529911D01*
X197126853Y-77136826D01*
X197307770Y-76700054D01*
X197400000Y-76236379D01*
X197400000Y-75763621D01*
X197307770Y-75299946D01*
X197126853Y-74863174D01*
X196899971Y-74523621D01*
X204600000Y-74523621D01*
X204600000Y-74996379D01*
X204692230Y-75460054D01*
X204873147Y-75896826D01*
X205135798Y-76289911D01*
X205470089Y-76624202D01*
X205863174Y-76886853D01*
X206299946Y-77067770D01*
X206763621Y-77160000D01*
X207236379Y-77160000D01*
X207700054Y-77067770D01*
X208136826Y-76886853D01*
X208529911Y-76624202D01*
X208864202Y-76289911D01*
X209126853Y-75896826D01*
X209307770Y-75460054D01*
X209400000Y-74996379D01*
X209400000Y-74523621D01*
X209307770Y-74059946D01*
X209126853Y-73623174D01*
X208864202Y-73230089D01*
X208529911Y-72895798D01*
X208136826Y-72633147D01*
X207700054Y-72452230D01*
X207236379Y-72360000D01*
X206763621Y-72360000D01*
X206299946Y-72452230D01*
X205863174Y-72633147D01*
X205470089Y-72895798D01*
X205135798Y-73230089D01*
X204873147Y-73623174D01*
X204692230Y-74059946D01*
X204600000Y-74523621D01*
X196899971Y-74523621D01*
X196864202Y-74470089D01*
X196529911Y-74135798D01*
X196136826Y-73873147D01*
X195700054Y-73692230D01*
X195236379Y-73600000D01*
X194763621Y-73600000D01*
X194299946Y-73692230D01*
X193863174Y-73873147D01*
X193470089Y-74135798D01*
X193135798Y-74470089D01*
X192873147Y-74863174D01*
X192692230Y-75299946D01*
X192600000Y-75763621D01*
X173775000Y-75763621D01*
X173775000Y-69763621D01*
X175360000Y-69763621D01*
X175360000Y-70236379D01*
X175452230Y-70700054D01*
X175633147Y-71136826D01*
X175895798Y-71529911D01*
X176230089Y-71864202D01*
X176623174Y-72126853D01*
X177059946Y-72307770D01*
X177523621Y-72400000D01*
X177996379Y-72400000D01*
X178460054Y-72307770D01*
X178896826Y-72126853D01*
X179289911Y-71864202D01*
X179624202Y-71529911D01*
X179886853Y-71136826D01*
X180067770Y-70700054D01*
X180160000Y-70236379D01*
X180160000Y-69763621D01*
X190600000Y-69763621D01*
X190600000Y-70236379D01*
X190692230Y-70700054D01*
X190873147Y-71136826D01*
X191135798Y-71529911D01*
X191470089Y-71864202D01*
X191863174Y-72126853D01*
X192299946Y-72307770D01*
X192763621Y-72400000D01*
X193236379Y-72400000D01*
X193700054Y-72307770D01*
X194136826Y-72126853D01*
X194529911Y-71864202D01*
X194864202Y-71529911D01*
X195126853Y-71136826D01*
X195273280Y-70783319D01*
X198800000Y-70783319D01*
X198800000Y-71216681D01*
X198884545Y-71641716D01*
X199050385Y-72042091D01*
X199291148Y-72402418D01*
X199597582Y-72708852D01*
X199957909Y-72949615D01*
X200358284Y-73115455D01*
X200783319Y-73200000D01*
X201216681Y-73200000D01*
X201641716Y-73115455D01*
X202042091Y-72949615D01*
X202402418Y-72708852D01*
X202708852Y-72402418D01*
X202949615Y-72042091D01*
X203115455Y-71641716D01*
X203200000Y-71216681D01*
X203200000Y-70783319D01*
X203115455Y-70358284D01*
X202949615Y-69957909D01*
X202708852Y-69597582D01*
X202402418Y-69291148D01*
X202042091Y-69050385D01*
X201641716Y-68884545D01*
X201216681Y-68800000D01*
X200783319Y-68800000D01*
X200358284Y-68884545D01*
X199957909Y-69050385D01*
X199597582Y-69291148D01*
X199291148Y-69597582D01*
X199050385Y-69957909D01*
X198884545Y-70358284D01*
X198800000Y-70783319D01*
X195273280Y-70783319D01*
X195307770Y-70700054D01*
X195400000Y-70236379D01*
X195400000Y-69763621D01*
X195307770Y-69299946D01*
X195126853Y-68863174D01*
X194864202Y-68470089D01*
X194529911Y-68135798D01*
X194136826Y-67873147D01*
X193700054Y-67692230D01*
X193236379Y-67600000D01*
X192763621Y-67600000D01*
X192299946Y-67692230D01*
X191863174Y-67873147D01*
X191470089Y-68135798D01*
X191135798Y-68470089D01*
X190873147Y-68863174D01*
X190692230Y-69299946D01*
X190600000Y-69763621D01*
X180160000Y-69763621D01*
X180067770Y-69299946D01*
X179886853Y-68863174D01*
X179624202Y-68470089D01*
X179289911Y-68135798D01*
X178896826Y-67873147D01*
X178460054Y-67692230D01*
X177996379Y-67600000D01*
X177523621Y-67600000D01*
X177059946Y-67692230D01*
X176623174Y-67873147D01*
X176230089Y-68135798D01*
X175895798Y-68470089D01*
X175633147Y-68863174D01*
X175452230Y-69299946D01*
X175360000Y-69763621D01*
X173775000Y-69763621D01*
X173775000Y-62224224D01*
X174700000Y-62224224D01*
X174700000Y-62775776D01*
X174807602Y-63316730D01*
X175018672Y-63826297D01*
X175325098Y-64284896D01*
X175715104Y-64674902D01*
X176173703Y-64981328D01*
X176683270Y-65192398D01*
X177224224Y-65300000D01*
X177775776Y-65300000D01*
X178316730Y-65192398D01*
X178826297Y-64981328D01*
X179284896Y-64674902D01*
X179674902Y-64284896D01*
X179981328Y-63826297D01*
X180192398Y-63316730D01*
X180300000Y-62775776D01*
X180300000Y-62224224D01*
X180295182Y-62200000D01*
X184894194Y-62200000D01*
X184894194Y-65800000D01*
X184917363Y-66035241D01*
X184985981Y-66261442D01*
X185097409Y-66469910D01*
X185247366Y-66652634D01*
X185430090Y-66802591D01*
X185638558Y-66914019D01*
X185864759Y-66982637D01*
X186100000Y-67005806D01*
X187900000Y-67005806D01*
X188135241Y-66982637D01*
X188361442Y-66914019D01*
X188569910Y-66802591D01*
X188752634Y-66652634D01*
X188902591Y-66469910D01*
X189014019Y-66261442D01*
X189082637Y-66035241D01*
X189105806Y-65800000D01*
X189105806Y-62996834D01*
X189980000Y-62996834D01*
X189980000Y-65003167D01*
X190010386Y-65311672D01*
X190130466Y-65707524D01*
X190325466Y-66072343D01*
X190587892Y-66392109D01*
X190907658Y-66654535D01*
X191272477Y-66849535D01*
X191668329Y-66969615D01*
X192080000Y-67010161D01*
X192491672Y-66969615D01*
X192887524Y-66849535D01*
X193252343Y-66654535D01*
X193572109Y-66392109D01*
X193834535Y-66072343D01*
X194029535Y-65707524D01*
X194149615Y-65311672D01*
X194180000Y-65003166D01*
X194180000Y-62996833D01*
X194149615Y-62688328D01*
X194029535Y-62292476D01*
X193980106Y-62200000D01*
X204894194Y-62200000D01*
X204894194Y-65800000D01*
X204917363Y-66035241D01*
X204985981Y-66261442D01*
X205097409Y-66469910D01*
X205247366Y-66652634D01*
X205430090Y-66802591D01*
X205638558Y-66914019D01*
X205864759Y-66982637D01*
X206100000Y-67005806D01*
X207900000Y-67005806D01*
X208135241Y-66982637D01*
X208361442Y-66914019D01*
X208569910Y-66802591D01*
X208752634Y-66652634D01*
X208902591Y-66469910D01*
X209014019Y-66261442D01*
X209082637Y-66035241D01*
X209105806Y-65800000D01*
X209105806Y-64100000D01*
X209780000Y-64100000D01*
X209780000Y-65000000D01*
X209843703Y-65446786D01*
X209993345Y-65872560D01*
X210223177Y-66260959D01*
X210524365Y-66597057D01*
X210885335Y-66867938D01*
X211292216Y-67063192D01*
X211621772Y-67153892D01*
X211980000Y-66847434D01*
X211980000Y-64100000D01*
X212180000Y-64100000D01*
X212180000Y-66847434D01*
X212538228Y-67153892D01*
X212867784Y-67063192D01*
X213274665Y-66867938D01*
X213635635Y-66597057D01*
X213936823Y-66260959D01*
X214166655Y-65872560D01*
X214316297Y-65446786D01*
X214380000Y-65000000D01*
X214380000Y-64100000D01*
X212180000Y-64100000D01*
X211980000Y-64100000D01*
X209780000Y-64100000D01*
X209105806Y-64100000D01*
X209105806Y-63000000D01*
X209780000Y-63000000D01*
X209780000Y-63900000D01*
X211980000Y-63900000D01*
X211980000Y-61152566D01*
X212180000Y-61152566D01*
X212180000Y-63900000D01*
X214380000Y-63900000D01*
X214380000Y-63000000D01*
X214316297Y-62553214D01*
X214200671Y-62224224D01*
X224700000Y-62224224D01*
X224700000Y-62775776D01*
X224807602Y-63316730D01*
X225018672Y-63826297D01*
X225325098Y-64284896D01*
X225715104Y-64674902D01*
X226173703Y-64981328D01*
X226683270Y-65192398D01*
X227224224Y-65300000D01*
X227775776Y-65300000D01*
X228316730Y-65192398D01*
X228826297Y-64981328D01*
X229284896Y-64674902D01*
X229674902Y-64284896D01*
X229981328Y-63826297D01*
X230192398Y-63316730D01*
X230300000Y-62775776D01*
X230300000Y-62224224D01*
X230192398Y-61683270D01*
X229981328Y-61173703D01*
X229674902Y-60715104D01*
X229284896Y-60325098D01*
X228826297Y-60018672D01*
X228316730Y-59807602D01*
X227775776Y-59700000D01*
X227224224Y-59700000D01*
X226683270Y-59807602D01*
X226173703Y-60018672D01*
X225715104Y-60325098D01*
X225325098Y-60715104D01*
X225018672Y-61173703D01*
X224807602Y-61683270D01*
X224700000Y-62224224D01*
X214200671Y-62224224D01*
X214166655Y-62127440D01*
X213936823Y-61739041D01*
X213635635Y-61402943D01*
X213274665Y-61132062D01*
X212867784Y-60936808D01*
X212538228Y-60846108D01*
X212180000Y-61152566D01*
X211980000Y-61152566D01*
X211621772Y-60846108D01*
X211292216Y-60936808D01*
X210885335Y-61132062D01*
X210524365Y-61402943D01*
X210223177Y-61739041D01*
X209993345Y-62127440D01*
X209843703Y-62553214D01*
X209780000Y-63000000D01*
X209105806Y-63000000D01*
X209105806Y-62200000D01*
X209082637Y-61964759D01*
X209014019Y-61738558D01*
X208902591Y-61530090D01*
X208752634Y-61347366D01*
X208569910Y-61197409D01*
X208361442Y-61085981D01*
X208135241Y-61017363D01*
X207900000Y-60994194D01*
X206100000Y-60994194D01*
X205864759Y-61017363D01*
X205638558Y-61085981D01*
X205430090Y-61197409D01*
X205247366Y-61347366D01*
X205097409Y-61530090D01*
X204985981Y-61738558D01*
X204917363Y-61964759D01*
X204894194Y-62200000D01*
X193980106Y-62200000D01*
X193834535Y-61927657D01*
X193572109Y-61607891D01*
X193252343Y-61345465D01*
X192887523Y-61150465D01*
X192491671Y-61030385D01*
X192080000Y-60989839D01*
X191668328Y-61030385D01*
X191272476Y-61150465D01*
X190907657Y-61345465D01*
X190587891Y-61607891D01*
X190325465Y-61927657D01*
X190130465Y-62292477D01*
X190010385Y-62688329D01*
X189980000Y-62996834D01*
X189105806Y-62996834D01*
X189105806Y-62200000D01*
X189082637Y-61964759D01*
X189014019Y-61738558D01*
X188902591Y-61530090D01*
X188752634Y-61347366D01*
X188569910Y-61197409D01*
X188361442Y-61085981D01*
X188135241Y-61017363D01*
X187900000Y-60994194D01*
X186100000Y-60994194D01*
X185864759Y-61017363D01*
X185638558Y-61085981D01*
X185430090Y-61197409D01*
X185247366Y-61347366D01*
X185097409Y-61530090D01*
X184985981Y-61738558D01*
X184917363Y-61964759D01*
X184894194Y-62200000D01*
X180295182Y-62200000D01*
X180192398Y-61683270D01*
X179981328Y-61173703D01*
X179674902Y-60715104D01*
X179284896Y-60325098D01*
X178826297Y-60018672D01*
X178316730Y-59807602D01*
X177775776Y-59700000D01*
X177224224Y-59700000D01*
X176683270Y-59807602D01*
X176173703Y-60018672D01*
X175715104Y-60325098D01*
X175325098Y-60715104D01*
X175018672Y-61173703D01*
X174807602Y-61683270D01*
X174700000Y-62224224D01*
X173775000Y-62224224D01*
X173775000Y-58775000D01*
X231225001Y-58775000D01*
X231225000Y-116407811D01*
G37*
X231225000Y-116407811D02*
X230811267Y-116330155D01*
X229141421Y-118000000D01*
X230811267Y-119669845D01*
X231225000Y-119592189D01*
X231225000Y-151225000D01*
X180167531Y-151225000D01*
X180449403Y-150590825D01*
X177500000Y-147641421D01*
X174550597Y-150590825D01*
X174832469Y-151225000D01*
X173775000Y-151225000D01*
X173775000Y-150167531D01*
X174409175Y-150449403D01*
X177358579Y-147500000D01*
X177641421Y-147500000D01*
X180590825Y-150449403D01*
X181297388Y-150135357D01*
X181738554Y-149343885D01*
X182016836Y-148481554D01*
X182121538Y-147581503D01*
X182048637Y-146678319D01*
X181800935Y-145806713D01*
X181642262Y-145496833D01*
X182840000Y-145496833D01*
X182840000Y-147503166D01*
X182870385Y-147811671D01*
X182990465Y-148207523D01*
X183185465Y-148572343D01*
X183447891Y-148892109D01*
X183767657Y-149154535D01*
X184132476Y-149349535D01*
X184528328Y-149469615D01*
X184940000Y-149510161D01*
X185351671Y-149469615D01*
X185747523Y-149349535D01*
X186112343Y-149154535D01*
X186432109Y-148892109D01*
X186694535Y-148572343D01*
X186889535Y-148207524D01*
X187009615Y-147811672D01*
X187040000Y-147503167D01*
X187040000Y-146600000D01*
X187720000Y-146600000D01*
X187720000Y-147500000D01*
X187783703Y-147946786D01*
X187933345Y-148372560D01*
X188163177Y-148760959D01*
X188464365Y-149097057D01*
X188825335Y-149367938D01*
X189232216Y-149563192D01*
X189561772Y-149653892D01*
X189920000Y-149347434D01*
X189920000Y-146600000D01*
X190120000Y-146600000D01*
X190120000Y-149347434D01*
X190478228Y-149653892D01*
X190807784Y-149563192D01*
X191214665Y-149367938D01*
X191575635Y-149097057D01*
X191876823Y-148760959D01*
X192106655Y-148372560D01*
X192256297Y-147946786D01*
X192320000Y-147500000D01*
X192320000Y-146600000D01*
X190120000Y-146600000D01*
X189920000Y-146600000D01*
X187720000Y-146600000D01*
X187040000Y-146600000D01*
X187040000Y-145500000D01*
X187720000Y-145500000D01*
X187720000Y-146400000D01*
X189920000Y-146400000D01*
X189920000Y-143652566D01*
X190120000Y-143652566D01*
X190120000Y-146400000D01*
X192320000Y-146400000D01*
X192320000Y-145500000D01*
X192319549Y-145496833D01*
X193000000Y-145496833D01*
X193000000Y-147503166D01*
X193030385Y-147811671D01*
X193150465Y-148207523D01*
X193345465Y-148572343D01*
X193607891Y-148892109D01*
X193927657Y-149154535D01*
X194292476Y-149349535D01*
X194688328Y-149469615D01*
X195100000Y-149510161D01*
X195511671Y-149469615D01*
X195907523Y-149349535D01*
X196272343Y-149154535D01*
X196592109Y-148892109D01*
X196854535Y-148572343D01*
X197049535Y-148207524D01*
X197169615Y-147811672D01*
X197200000Y-147503167D01*
X197200000Y-145496834D01*
X197200000Y-145496833D01*
X198080000Y-145496833D01*
X198080000Y-147503166D01*
X198110385Y-147811671D01*
X198230465Y-148207523D01*
X198425465Y-148572343D01*
X198687891Y-148892109D01*
X199007657Y-149154535D01*
X199372476Y-149349535D01*
X199768328Y-149469615D01*
X200180000Y-149510161D01*
X200591671Y-149469615D01*
X200987523Y-149349535D01*
X201352343Y-149154535D01*
X201672109Y-148892109D01*
X201934535Y-148572343D01*
X202129535Y-148207524D01*
X202249615Y-147811672D01*
X202280000Y-147503167D01*
X202280000Y-145496834D01*
X202280000Y-145496833D01*
X203160000Y-145496833D01*
X203160000Y-147503166D01*
X203190385Y-147811671D01*
X203310465Y-148207523D01*
X203505465Y-148572343D01*
X203767891Y-148892109D01*
X204087657Y-149154535D01*
X204452476Y-149349535D01*
X204848328Y-149469615D01*
X205260000Y-149510161D01*
X205671671Y-149469615D01*
X206067523Y-149349535D01*
X206432343Y-149154535D01*
X206752109Y-148892109D01*
X207014535Y-148572343D01*
X207209535Y-148207524D01*
X207329615Y-147811672D01*
X207360000Y-147503167D01*
X207360000Y-146600000D01*
X208040000Y-146600000D01*
X208040000Y-147500000D01*
X208103703Y-147946786D01*
X208253345Y-148372560D01*
X208483177Y-148760959D01*
X208784365Y-149097057D01*
X209145335Y-149367938D01*
X209552216Y-149563192D01*
X209881772Y-149653892D01*
X210240000Y-149347434D01*
X210240000Y-146600000D01*
X210440000Y-146600000D01*
X210440000Y-149347434D01*
X210798228Y-149653892D01*
X211127784Y-149563192D01*
X211534665Y-149367938D01*
X211895635Y-149097057D01*
X212196823Y-148760959D01*
X212426655Y-148372560D01*
X212576297Y-147946786D01*
X212640000Y-147500000D01*
X212640000Y-146600000D01*
X210440000Y-146600000D01*
X210240000Y-146600000D01*
X208040000Y-146600000D01*
X207360000Y-146600000D01*
X207360000Y-145500000D01*
X208040000Y-145500000D01*
X208040000Y-146400000D01*
X210240000Y-146400000D01*
X210240000Y-143652566D01*
X210440000Y-143652566D01*
X210440000Y-146400000D01*
X212640000Y-146400000D01*
X212640000Y-145500000D01*
X212639549Y-145496833D01*
X213320000Y-145496833D01*
X213320000Y-147503166D01*
X213350385Y-147811671D01*
X213470465Y-148207523D01*
X213665465Y-148572343D01*
X213927891Y-148892109D01*
X214247657Y-149154535D01*
X214612476Y-149349535D01*
X215008328Y-149469615D01*
X215420000Y-149510161D01*
X215831671Y-149469615D01*
X216227523Y-149349535D01*
X216592343Y-149154535D01*
X216912109Y-148892109D01*
X217174535Y-148572343D01*
X217369535Y-148207524D01*
X217489615Y-147811672D01*
X217520000Y-147503167D01*
X217520000Y-145496834D01*
X217489615Y-145188328D01*
X217369535Y-144792476D01*
X217320106Y-144700000D01*
X218394194Y-144700000D01*
X218394194Y-148300000D01*
X218417363Y-148535241D01*
X218485981Y-148761442D01*
X218597409Y-148969910D01*
X218747366Y-149152634D01*
X218930090Y-149302591D01*
X219138558Y-149414019D01*
X219364759Y-149482637D01*
X219600000Y-149505806D01*
X221400000Y-149505806D01*
X221635241Y-149482637D01*
X221861442Y-149414019D01*
X222069910Y-149302591D01*
X222252634Y-149152634D01*
X222402591Y-148969910D01*
X222514019Y-148761442D01*
X222582637Y-148535241D01*
X222605806Y-148300000D01*
X222605806Y-147224224D01*
X224700000Y-147224224D01*
X224700000Y-147775776D01*
X224807602Y-148316730D01*
X225018672Y-148826297D01*
X225325098Y-149284896D01*
X225715104Y-149674902D01*
X226173703Y-149981328D01*
X226683270Y-150192398D01*
X227224224Y-150300000D01*
X227775776Y-150300000D01*
X228316730Y-150192398D01*
X228826297Y-149981328D01*
X229284896Y-149674902D01*
X229674902Y-149284896D01*
X229981328Y-148826297D01*
X230192398Y-148316730D01*
X230300000Y-147775776D01*
X230300000Y-147224224D01*
X230192398Y-146683270D01*
X229981328Y-146173703D01*
X229674902Y-145715104D01*
X229284896Y-145325098D01*
X228826297Y-145018672D01*
X228316730Y-144807602D01*
X227775776Y-144700000D01*
X227224224Y-144700000D01*
X226683270Y-144807602D01*
X226173703Y-145018672D01*
X225715104Y-145325098D01*
X225325098Y-145715104D01*
X225018672Y-146173703D01*
X224807602Y-146683270D01*
X224700000Y-147224224D01*
X222605806Y-147224224D01*
X222605806Y-144700000D01*
X222582637Y-144464759D01*
X222514019Y-144238558D01*
X222402591Y-144030090D01*
X222252634Y-143847366D01*
X222069910Y-143697409D01*
X221861442Y-143585981D01*
X221635241Y-143517363D01*
X221400000Y-143494194D01*
X219600000Y-143494194D01*
X219364759Y-143517363D01*
X219138558Y-143585981D01*
X218930090Y-143697409D01*
X218747366Y-143847366D01*
X218597409Y-144030090D01*
X218485981Y-144238558D01*
X218417363Y-144464759D01*
X218394194Y-144700000D01*
X217320106Y-144700000D01*
X217174535Y-144427657D01*
X216912109Y-144107891D01*
X216592343Y-143845465D01*
X216227524Y-143650465D01*
X215831672Y-143530385D01*
X215420000Y-143489839D01*
X215008329Y-143530385D01*
X214612477Y-143650465D01*
X214247658Y-143845465D01*
X213927892Y-144107891D01*
X213665466Y-144427657D01*
X213470466Y-144792476D01*
X213350386Y-145188328D01*
X213320000Y-145496833D01*
X212639549Y-145496833D01*
X212576297Y-145053214D01*
X212426655Y-144627440D01*
X212196823Y-144239041D01*
X211895635Y-143902943D01*
X211534665Y-143632062D01*
X211127784Y-143436808D01*
X210798228Y-143346108D01*
X210440000Y-143652566D01*
X210240000Y-143652566D01*
X209881772Y-143346108D01*
X209552216Y-143436808D01*
X209145335Y-143632062D01*
X208784365Y-143902943D01*
X208483177Y-144239041D01*
X208253345Y-144627440D01*
X208103703Y-145053214D01*
X208040000Y-145500000D01*
X207360000Y-145500000D01*
X207360000Y-145496834D01*
X207329615Y-145188328D01*
X207209535Y-144792476D01*
X207014535Y-144427657D01*
X206752109Y-144107891D01*
X206432343Y-143845465D01*
X206067524Y-143650465D01*
X205671672Y-143530385D01*
X205260000Y-143489839D01*
X204848329Y-143530385D01*
X204452477Y-143650465D01*
X204087658Y-143845465D01*
X203767892Y-144107891D01*
X203505466Y-144427657D01*
X203310466Y-144792476D01*
X203190386Y-145188328D01*
X203160000Y-145496833D01*
X202280000Y-145496833D01*
X202249615Y-145188328D01*
X202129535Y-144792476D01*
X201934535Y-144427657D01*
X201672109Y-144107891D01*
X201352343Y-143845465D01*
X200987524Y-143650465D01*
X200591672Y-143530385D01*
X200180000Y-143489839D01*
X199768329Y-143530385D01*
X199372477Y-143650465D01*
X199007658Y-143845465D01*
X198687892Y-144107891D01*
X198425466Y-144427657D01*
X198230466Y-144792476D01*
X198110386Y-145188328D01*
X198080000Y-145496833D01*
X197200000Y-145496833D01*
X197169615Y-145188328D01*
X197049535Y-144792476D01*
X196854535Y-144427657D01*
X196592109Y-144107891D01*
X196272343Y-143845465D01*
X195907524Y-143650465D01*
X195511672Y-143530385D01*
X195100000Y-143489839D01*
X194688329Y-143530385D01*
X194292477Y-143650465D01*
X193927658Y-143845465D01*
X193607892Y-144107891D01*
X193345466Y-144427657D01*
X193150466Y-144792476D01*
X193030386Y-145188328D01*
X193000000Y-145496833D01*
X192319549Y-145496833D01*
X192256297Y-145053214D01*
X192106655Y-144627440D01*
X191876823Y-144239041D01*
X191575635Y-143902943D01*
X191214665Y-143632062D01*
X190807784Y-143436808D01*
X190478228Y-143346108D01*
X190120000Y-143652566D01*
X189920000Y-143652566D01*
X189561772Y-143346108D01*
X189232216Y-143436808D01*
X188825335Y-143632062D01*
X188464365Y-143902943D01*
X188163177Y-144239041D01*
X187933345Y-144627440D01*
X187783703Y-145053214D01*
X187720000Y-145500000D01*
X187040000Y-145500000D01*
X187040000Y-145496834D01*
X187009615Y-145188328D01*
X186889535Y-144792476D01*
X186694535Y-144427657D01*
X186640000Y-144361206D01*
X186640000Y-139764163D01*
X192500000Y-133904163D01*
X198238872Y-139643035D01*
X198292103Y-139707897D01*
X198356965Y-139761128D01*
X198356969Y-139761132D01*
X198550960Y-139920337D01*
X198708817Y-140004713D01*
X198846291Y-140078194D01*
X199166742Y-140175402D01*
X199416490Y-140200000D01*
X199416500Y-140200000D01*
X199500000Y-140208224D01*
X199583500Y-140200000D01*
X206588730Y-140200000D01*
X206597582Y-140208852D01*
X206957909Y-140449615D01*
X207358284Y-140615455D01*
X207783319Y-140700000D01*
X208216681Y-140700000D01*
X208641716Y-140615455D01*
X209009735Y-140463017D01*
X219000000Y-140463017D01*
X219000000Y-140856983D01*
X219076859Y-141243378D01*
X219227623Y-141607355D01*
X219446499Y-141934926D01*
X219725074Y-142213501D01*
X220052645Y-142432377D01*
X220416622Y-142583141D01*
X220803017Y-142660000D01*
X221196983Y-142660000D01*
X221583378Y-142583141D01*
X221947355Y-142432377D01*
X222274926Y-142213501D01*
X222553501Y-141934926D01*
X222772377Y-141607355D01*
X222923141Y-141243378D01*
X223000000Y-140856983D01*
X223000000Y-141196983D01*
X223076859Y-141583378D01*
X223227623Y-141947355D01*
X223446499Y-142274926D01*
X223725074Y-142553501D01*
X224052645Y-142772377D01*
X224416622Y-142923141D01*
X224803017Y-143000000D01*
X225196983Y-143000000D01*
X225583378Y-142923141D01*
X225947355Y-142772377D01*
X226274926Y-142553501D01*
X226553501Y-142274926D01*
X226772377Y-141947355D01*
X226923141Y-141583378D01*
X227000000Y-141196983D01*
X227000000Y-140803017D01*
X226923141Y-140416622D01*
X226772377Y-140052645D01*
X226553501Y-139725074D01*
X226274926Y-139446499D01*
X225947355Y-139227623D01*
X225583378Y-139076859D01*
X225196983Y-139000000D01*
X224803017Y-139000000D01*
X224416622Y-139076859D01*
X224052645Y-139227623D01*
X223725074Y-139446499D01*
X223446499Y-139725074D01*
X223227623Y-140052645D01*
X223076859Y-140416622D01*
X223000000Y-140803017D01*
X223000000Y-140463017D01*
X222923141Y-140076622D01*
X222772377Y-139712645D01*
X222553501Y-139385074D01*
X222274926Y-139106499D01*
X221947355Y-138887623D01*
X221583378Y-138736859D01*
X221196983Y-138660000D01*
X220803017Y-138660000D01*
X220416622Y-138736859D01*
X220052645Y-138887623D01*
X219725074Y-139106499D01*
X219446499Y-139385074D01*
X219227623Y-139712645D01*
X219076859Y-140076622D01*
X219000000Y-140463017D01*
X209009735Y-140463017D01*
X209042091Y-140449615D01*
X209402418Y-140208852D01*
X209708852Y-139902418D01*
X209949615Y-139542091D01*
X210115455Y-139141716D01*
X210200000Y-138716681D01*
X210200000Y-138283319D01*
X210115455Y-137858284D01*
X209949615Y-137457909D01*
X209708852Y-137097582D01*
X209402418Y-136791148D01*
X209042091Y-136550385D01*
X208641716Y-136384545D01*
X208216681Y-136300000D01*
X207783319Y-136300000D01*
X207358284Y-136384545D01*
X206957909Y-136550385D01*
X206597582Y-136791148D01*
X206588730Y-136800000D01*
X204158675Y-136800000D01*
X204307770Y-136440054D01*
X204400000Y-135976379D01*
X204400000Y-135503621D01*
X204307770Y-135039946D01*
X204209631Y-134803017D01*
X213000000Y-134803017D01*
X213000000Y-135196983D01*
X213076859Y-135583378D01*
X213227623Y-135947355D01*
X213446499Y-136274926D01*
X213725074Y-136553501D01*
X214052645Y-136772377D01*
X214416622Y-136923141D01*
X214803017Y-137000000D01*
X215196983Y-137000000D01*
X215583378Y-136923141D01*
X215947355Y-136772377D01*
X216274926Y-136553501D01*
X216553501Y-136274926D01*
X216772377Y-135947355D01*
X216923141Y-135583378D01*
X217000000Y-135196983D01*
X217000000Y-134803017D01*
X216923141Y-134416622D01*
X216772377Y-134052645D01*
X216553501Y-133725074D01*
X216274926Y-133446499D01*
X215947355Y-133227623D01*
X215583378Y-133076859D01*
X215196983Y-133000000D01*
X214803017Y-133000000D01*
X214416622Y-133076859D01*
X214052645Y-133227623D01*
X213725074Y-133446499D01*
X213446499Y-133725074D01*
X213227623Y-134052645D01*
X213076859Y-134416622D01*
X213000000Y-134803017D01*
X204209631Y-134803017D01*
X204126853Y-134603174D01*
X203864202Y-134210089D01*
X203529911Y-133875798D01*
X203136826Y-133613147D01*
X202700054Y-133432230D01*
X202236379Y-133340000D01*
X201763621Y-133340000D01*
X201299946Y-133432230D01*
X200863174Y-133613147D01*
X200470089Y-133875798D01*
X200135798Y-134210089D01*
X199873147Y-134603174D01*
X199692230Y-135039946D01*
X199600000Y-135503621D01*
X199600000Y-135976379D01*
X199654492Y-136250329D01*
X194200000Y-130795837D01*
X194200000Y-130592838D01*
X194506209Y-130719675D01*
X194859761Y-130790000D01*
X195220239Y-130790000D01*
X195573791Y-130719675D01*
X195906830Y-130581725D01*
X196061868Y-130478132D01*
X195958275Y-130633170D01*
X195820325Y-130966209D01*
X195750000Y-131319761D01*
X195750000Y-131680239D01*
X195820325Y-132033791D01*
X195958275Y-132366830D01*
X196158546Y-132666557D01*
X196413443Y-132921454D01*
X196713170Y-133121725D01*
X197046209Y-133259675D01*
X197399761Y-133330000D01*
X197760239Y-133330000D01*
X198113791Y-133259675D01*
X198446830Y-133121725D01*
X198746557Y-132921454D01*
X199001454Y-132666557D01*
X199201725Y-132366830D01*
X199339675Y-132033791D01*
X199410000Y-131680239D01*
X199410000Y-131319761D01*
X199339675Y-130966209D01*
X199263920Y-130783319D01*
X205800000Y-130783319D01*
X205800000Y-131216681D01*
X205884545Y-131641716D01*
X206050385Y-132042091D01*
X206291148Y-132402418D01*
X206597582Y-132708852D01*
X206957909Y-132949615D01*
X207358284Y-133115455D01*
X207783319Y-133200000D01*
X208216681Y-133200000D01*
X208641716Y-133115455D01*
X209042091Y-132949615D01*
X209402418Y-132708852D01*
X209708852Y-132402418D01*
X209949615Y-132042091D01*
X210115455Y-131641716D01*
X210200000Y-131216681D01*
X210200000Y-130783319D01*
X210115455Y-130358284D01*
X210092563Y-130303017D01*
X219000000Y-130303017D01*
X219000000Y-130696983D01*
X219076859Y-131083378D01*
X219227623Y-131447355D01*
X219446499Y-131774926D01*
X219725074Y-132053501D01*
X220052645Y-132272377D01*
X220416622Y-132423141D01*
X220803017Y-132500000D01*
X221196983Y-132500000D01*
X221583378Y-132423141D01*
X221947355Y-132272377D01*
X222274926Y-132053501D01*
X222553501Y-131774926D01*
X222772377Y-131447355D01*
X222923141Y-131083378D01*
X223000000Y-130696983D01*
X223000000Y-130303017D01*
X222923141Y-129916622D01*
X222772377Y-129552645D01*
X222553501Y-129225074D01*
X222274926Y-128946499D01*
X221947355Y-128727623D01*
X221583378Y-128576859D01*
X221196983Y-128500000D01*
X220803017Y-128500000D01*
X220416622Y-128576859D01*
X220052645Y-128727623D01*
X219725074Y-128946499D01*
X219446499Y-129225074D01*
X219227623Y-129552645D01*
X219076859Y-129916622D01*
X219000000Y-130303017D01*
X210092563Y-130303017D01*
X209949615Y-129957909D01*
X209708852Y-129597582D01*
X209402418Y-129291148D01*
X209042091Y-129050385D01*
X208641716Y-128884545D01*
X208216681Y-128800000D01*
X207783319Y-128800000D01*
X207358284Y-128884545D01*
X206957909Y-129050385D01*
X206597582Y-129291148D01*
X206291148Y-129597582D01*
X206050385Y-129957909D01*
X205884545Y-130358284D01*
X205800000Y-130783319D01*
X199263920Y-130783319D01*
X199201725Y-130633170D01*
X199001454Y-130333443D01*
X198746557Y-130078546D01*
X198446830Y-129878275D01*
X198113791Y-129740325D01*
X197760239Y-129670000D01*
X197399761Y-129670000D01*
X197046209Y-129740325D01*
X196713170Y-129878275D01*
X196558132Y-129981868D01*
X196661725Y-129826830D01*
X196721400Y-129682763D01*
X198204163Y-128200000D01*
X206588730Y-128200000D01*
X206597582Y-128208852D01*
X206957909Y-128449615D01*
X207358284Y-128615455D01*
X207783319Y-128700000D01*
X208216681Y-128700000D01*
X208641716Y-128615455D01*
X209042091Y-128449615D01*
X209261490Y-128303017D01*
X223000000Y-128303017D01*
X223000000Y-128696983D01*
X223076859Y-129083378D01*
X223227623Y-129447355D01*
X223446499Y-129774926D01*
X223725074Y-130053501D01*
X224052645Y-130272377D01*
X224416622Y-130423141D01*
X224803017Y-130500000D01*
X225196983Y-130500000D01*
X225583378Y-130423141D01*
X225947355Y-130272377D01*
X226274926Y-130053501D01*
X226553501Y-129774926D01*
X226772377Y-129447355D01*
X226923141Y-129083378D01*
X227000000Y-128696983D01*
X227000000Y-128303017D01*
X226923141Y-127916622D01*
X226772377Y-127552645D01*
X226553501Y-127225074D01*
X226274926Y-126946499D01*
X225947355Y-126727623D01*
X225583378Y-126576859D01*
X225196983Y-126500000D01*
X224803017Y-126500000D01*
X224416622Y-126576859D01*
X224052645Y-126727623D01*
X223725074Y-126946499D01*
X223446499Y-127225074D01*
X223227623Y-127552645D01*
X223076859Y-127916622D01*
X223000000Y-128303017D01*
X209261490Y-128303017D01*
X209402418Y-128208852D01*
X209708852Y-127902418D01*
X209949615Y-127542091D01*
X210115455Y-127141716D01*
X210200000Y-126716681D01*
X210200000Y-126283319D01*
X210115455Y-125858284D01*
X209949615Y-125457909D01*
X209708852Y-125097582D01*
X209402418Y-124791148D01*
X209042091Y-124550385D01*
X208641716Y-124384545D01*
X208216681Y-124300000D01*
X207783319Y-124300000D01*
X207358284Y-124384545D01*
X206957909Y-124550385D01*
X206597582Y-124791148D01*
X206588730Y-124800000D01*
X197583499Y-124800000D01*
X197499999Y-124791776D01*
X197416499Y-124800000D01*
X197416490Y-124800000D01*
X197166742Y-124824598D01*
X196846291Y-124921806D01*
X196550961Y-125079663D01*
X196550959Y-125079664D01*
X196550960Y-125079664D01*
X196356968Y-125238869D01*
X196356965Y-125238872D01*
X196292103Y-125292103D01*
X196238872Y-125356965D01*
X194317237Y-127278600D01*
X194200000Y-127327162D01*
X194200000Y-123528427D01*
X194225074Y-123553501D01*
X194552645Y-123772377D01*
X194916622Y-123923141D01*
X195303017Y-124000000D01*
X195696983Y-124000000D01*
X196083378Y-123923141D01*
X196447355Y-123772377D01*
X196774926Y-123553501D01*
X197053501Y-123274926D01*
X197272377Y-122947355D01*
X197423141Y-122583378D01*
X197500000Y-122196983D01*
X197500000Y-121803017D01*
X197423141Y-121416622D01*
X197382944Y-121319579D01*
X197414019Y-121261442D01*
X197482637Y-121035241D01*
X197505806Y-120800000D01*
X197505806Y-120263621D01*
X199600000Y-120263621D01*
X199600000Y-120736379D01*
X199692230Y-121200054D01*
X199873147Y-121636826D01*
X200135798Y-122029911D01*
X200470089Y-122364202D01*
X200863174Y-122626853D01*
X201299946Y-122807770D01*
X201763621Y-122900000D01*
X202236379Y-122900000D01*
X202700054Y-122807770D01*
X203136826Y-122626853D01*
X203529911Y-122364202D01*
X203864202Y-122029911D01*
X204126853Y-121636826D01*
X204307770Y-121200054D01*
X204400000Y-120736379D01*
X204400000Y-120263621D01*
X204307770Y-119799946D01*
X204126853Y-119363174D01*
X203864202Y-118970089D01*
X203677432Y-118783319D01*
X205800000Y-118783319D01*
X205800000Y-119216681D01*
X205884545Y-119641716D01*
X206050385Y-120042091D01*
X206291148Y-120402418D01*
X206597582Y-120708852D01*
X206957909Y-120949615D01*
X207358284Y-121115455D01*
X207783319Y-121200000D01*
X208216681Y-121200000D01*
X208641716Y-121115455D01*
X209042091Y-120949615D01*
X209402418Y-120708852D01*
X209708852Y-120402418D01*
X209949615Y-120042091D01*
X210045224Y-119811267D01*
X227330155Y-119811267D01*
X227428185Y-120333549D01*
X227913640Y-120595356D01*
X228440843Y-120757425D01*
X228989533Y-120813528D01*
X229538627Y-120761509D01*
X230067021Y-120603366D01*
X230554410Y-120345177D01*
X230571815Y-120333549D01*
X230669845Y-119811267D01*
X229000000Y-118141421D01*
X227330155Y-119811267D01*
X210045224Y-119811267D01*
X210115455Y-119641716D01*
X210200000Y-119216681D01*
X210200000Y-118783319D01*
X210115455Y-118358284D01*
X209962715Y-117989533D01*
X226186472Y-117989533D01*
X226238491Y-118538627D01*
X226396634Y-119067021D01*
X226654823Y-119554410D01*
X226666451Y-119571815D01*
X227188733Y-119669845D01*
X228858579Y-118000000D01*
X227188733Y-116330155D01*
X226666451Y-116428185D01*
X226404644Y-116913640D01*
X226242575Y-117440843D01*
X226186472Y-117989533D01*
X209962715Y-117989533D01*
X209949615Y-117957909D01*
X209708852Y-117597582D01*
X209402418Y-117291148D01*
X209042091Y-117050385D01*
X208641716Y-116884545D01*
X208216681Y-116800000D01*
X207783319Y-116800000D01*
X207358284Y-116884545D01*
X206957909Y-117050385D01*
X206597582Y-117291148D01*
X206291148Y-117597582D01*
X206050385Y-117957909D01*
X205884545Y-118358284D01*
X205800000Y-118783319D01*
X203677432Y-118783319D01*
X203529911Y-118635798D01*
X203437931Y-118574339D01*
X203778971Y-118433076D01*
X204221191Y-118137594D01*
X204597268Y-117761517D01*
X204892750Y-117319297D01*
X205096281Y-116827928D01*
X205200041Y-116306294D01*
X205200041Y-115774440D01*
X205096281Y-115252806D01*
X204892750Y-114761437D01*
X204612263Y-114341658D01*
X204669372Y-114256188D01*
X204854058Y-113810317D01*
X204882852Y-113665557D01*
X206289435Y-113665557D01*
X206289435Y-114197411D01*
X206393195Y-114719045D01*
X206596726Y-115210414D01*
X206892208Y-115652634D01*
X207268285Y-116028711D01*
X207710505Y-116324193D01*
X208201874Y-116527724D01*
X208723508Y-116631484D01*
X209255362Y-116631484D01*
X209776996Y-116527724D01*
X210268365Y-116324193D01*
X210710585Y-116028711D01*
X211086662Y-115652634D01*
X211382144Y-115210414D01*
X211550892Y-114803017D01*
X213000000Y-114803017D01*
X213000000Y-115196983D01*
X213076859Y-115583378D01*
X213227623Y-115947355D01*
X213446499Y-116274926D01*
X213725074Y-116553501D01*
X214052645Y-116772377D01*
X214416622Y-116923141D01*
X214803017Y-117000000D01*
X215196983Y-117000000D01*
X215583378Y-116923141D01*
X215947355Y-116772377D01*
X216274926Y-116553501D01*
X216553501Y-116274926D01*
X216611093Y-116188733D01*
X227330155Y-116188733D01*
X229000000Y-117858579D01*
X230669845Y-116188733D01*
X230571815Y-115666451D01*
X230086360Y-115404644D01*
X229559157Y-115242575D01*
X229010467Y-115186472D01*
X228461373Y-115238491D01*
X227932979Y-115396634D01*
X227445590Y-115654823D01*
X227428185Y-115666451D01*
X227330155Y-116188733D01*
X216611093Y-116188733D01*
X216772377Y-115947355D01*
X216923141Y-115583378D01*
X217000000Y-115196983D01*
X217000000Y-114803017D01*
X216933061Y-114466494D01*
X217135798Y-114769911D01*
X217470089Y-115104202D01*
X217863174Y-115366853D01*
X218299946Y-115547770D01*
X218763621Y-115640000D01*
X219236379Y-115640000D01*
X219700054Y-115547770D01*
X220136826Y-115366853D01*
X220529911Y-115104202D01*
X220864202Y-114769911D01*
X221126853Y-114376826D01*
X221307770Y-113940054D01*
X221400000Y-113476379D01*
X221400000Y-113003621D01*
X221307770Y-112539946D01*
X221126853Y-112103174D01*
X220864202Y-111710089D01*
X220529911Y-111375798D01*
X220136826Y-111113147D01*
X219700054Y-110932230D01*
X219236379Y-110840000D01*
X218763621Y-110840000D01*
X218299946Y-110932230D01*
X217863174Y-111113147D01*
X217470089Y-111375798D01*
X217135798Y-111710089D01*
X216873147Y-112103174D01*
X216692230Y-112539946D01*
X216600000Y-113003621D01*
X216600000Y-113476379D01*
X216690146Y-113929578D01*
X216553501Y-113725074D01*
X216274926Y-113446499D01*
X215947355Y-113227623D01*
X215583378Y-113076859D01*
X215196983Y-113000000D01*
X214803017Y-113000000D01*
X214416622Y-113076859D01*
X214052645Y-113227623D01*
X213725074Y-113446499D01*
X213446499Y-113725074D01*
X213227623Y-114052645D01*
X213076859Y-114416622D01*
X213000000Y-114803017D01*
X211550892Y-114803017D01*
X211585675Y-114719045D01*
X211689435Y-114197411D01*
X211689435Y-113665557D01*
X211585675Y-113143923D01*
X211382144Y-112652554D01*
X211086662Y-112210334D01*
X210710585Y-111834257D01*
X210268365Y-111538775D01*
X209776996Y-111335244D01*
X209255362Y-111231484D01*
X208723508Y-111231484D01*
X208201874Y-111335244D01*
X207710505Y-111538775D01*
X207268285Y-111834257D01*
X206892208Y-112210334D01*
X206596726Y-112652554D01*
X206393195Y-113143923D01*
X206289435Y-113665557D01*
X204882852Y-113665557D01*
X204948210Y-113336982D01*
X204948210Y-112854374D01*
X204854058Y-112381039D01*
X204669372Y-111935168D01*
X204401250Y-111533894D01*
X204059994Y-111192638D01*
X203658720Y-110924516D01*
X203212849Y-110739830D01*
X202739514Y-110645678D01*
X202256906Y-110645678D01*
X201783571Y-110739830D01*
X201337700Y-110924516D01*
X200936426Y-111192638D01*
X200595170Y-111533894D01*
X200327048Y-111935168D01*
X200142362Y-112381039D01*
X200048210Y-112854374D01*
X200048210Y-113336982D01*
X200142362Y-113810317D01*
X200327048Y-114256188D01*
X200385988Y-114344399D01*
X200107332Y-114761437D01*
X199903801Y-115252806D01*
X199800041Y-115774440D01*
X199800041Y-116306294D01*
X199903801Y-116827928D01*
X200107332Y-117319297D01*
X200402814Y-117761517D01*
X200778891Y-118137594D01*
X201028767Y-118304556D01*
X200863174Y-118373147D01*
X200470089Y-118635798D01*
X200135798Y-118970089D01*
X199873147Y-119363174D01*
X199692230Y-119799946D01*
X199600000Y-120263621D01*
X197505806Y-120263621D01*
X197505806Y-119200000D01*
X197482637Y-118964759D01*
X197414019Y-118738558D01*
X197302591Y-118530090D01*
X197152634Y-118347366D01*
X196969910Y-118197409D01*
X196761442Y-118085981D01*
X196535241Y-118017363D01*
X196300000Y-117994194D01*
X194700000Y-117994194D01*
X194464759Y-118017363D01*
X194238558Y-118085981D01*
X194030090Y-118197409D01*
X193847366Y-118347366D01*
X193739375Y-118478954D01*
X193550960Y-118579663D01*
X193356968Y-118738869D01*
X193356965Y-118738872D01*
X193292103Y-118792103D01*
X193238872Y-118856965D01*
X191356965Y-120738872D01*
X191292103Y-120792103D01*
X191238873Y-120856964D01*
X191238868Y-120856969D01*
X191079663Y-121050961D01*
X191000001Y-121200000D01*
X190921806Y-121346292D01*
X190824598Y-121666743D01*
X190800000Y-121916491D01*
X190800000Y-121916500D01*
X190791776Y-122000000D01*
X190800000Y-122083500D01*
X190800000Y-124680491D01*
X190696983Y-124660000D01*
X190303017Y-124660000D01*
X189916622Y-124736859D01*
X189552645Y-124887623D01*
X189225074Y-125106499D01*
X188946499Y-125385074D01*
X188727623Y-125712645D01*
X188576859Y-126076622D01*
X188500000Y-126463017D01*
X188500000Y-126856983D01*
X188576859Y-127243378D01*
X188727623Y-127607355D01*
X188946499Y-127934926D01*
X189225074Y-128213501D01*
X189552645Y-128432377D01*
X189916622Y-128583141D01*
X190303017Y-128660000D01*
X190696983Y-128660000D01*
X190800001Y-128639508D01*
X190800001Y-130795836D01*
X183796961Y-137798876D01*
X183732104Y-137852103D01*
X183678877Y-137916960D01*
X183678868Y-137916969D01*
X183519663Y-138110961D01*
X183361807Y-138406291D01*
X183264599Y-138726742D01*
X183231776Y-139060000D01*
X183240001Y-139143510D01*
X183240000Y-144361207D01*
X183185466Y-144427657D01*
X182990466Y-144792476D01*
X182870386Y-145188328D01*
X182840000Y-145496833D01*
X181642262Y-145496833D01*
X181387949Y-145000178D01*
X181297388Y-144864643D01*
X180590825Y-144550597D01*
X177641421Y-147500000D01*
X177358579Y-147500000D01*
X174409175Y-144550597D01*
X173775000Y-144832469D01*
X173775000Y-144409175D01*
X174550597Y-144409175D01*
X177500000Y-147358579D01*
X180449403Y-144409175D01*
X180135357Y-143702612D01*
X179343885Y-143261446D01*
X178481554Y-142983164D01*
X177581503Y-142878462D01*
X176678319Y-142951363D01*
X175806713Y-143199065D01*
X175000178Y-143612051D01*
X174864643Y-143702612D01*
X174550597Y-144409175D01*
X173775000Y-144409175D01*
X173775000Y-132303017D01*
X178500000Y-132303017D01*
X178500000Y-132696983D01*
X178576859Y-133083378D01*
X178727623Y-133447355D01*
X178946499Y-133774926D01*
X179225074Y-134053501D01*
X179552645Y-134272377D01*
X179916622Y-134423141D01*
X180303017Y-134500000D01*
X180696983Y-134500000D01*
X181083378Y-134423141D01*
X181447355Y-134272377D01*
X181774926Y-134053501D01*
X182053501Y-133774926D01*
X182272377Y-133447355D01*
X182423141Y-133083378D01*
X182500000Y-132696983D01*
X182500000Y-132303017D01*
X182423141Y-131916622D01*
X182272377Y-131552645D01*
X182212490Y-131463017D01*
X182500000Y-131463017D01*
X182500000Y-131856983D01*
X182576859Y-132243378D01*
X182727623Y-132607355D01*
X182946499Y-132934926D01*
X183225074Y-133213501D01*
X183552645Y-133432377D01*
X183916622Y-133583141D01*
X184303017Y-133660000D01*
X184696983Y-133660000D01*
X185083378Y-133583141D01*
X185447355Y-133432377D01*
X185774926Y-133213501D01*
X186053501Y-132934926D01*
X186272377Y-132607355D01*
X186423141Y-132243378D01*
X186500000Y-131856983D01*
X186500000Y-131463017D01*
X186423141Y-131076622D01*
X186272377Y-130712645D01*
X186053501Y-130385074D01*
X185774926Y-130106499D01*
X185447355Y-129887623D01*
X185083378Y-129736859D01*
X184696983Y-129660000D01*
X184303017Y-129660000D01*
X183916622Y-129736859D01*
X183552645Y-129887623D01*
X183225074Y-130106499D01*
X182946499Y-130385074D01*
X182727623Y-130712645D01*
X182576859Y-131076622D01*
X182500000Y-131463017D01*
X182212490Y-131463017D01*
X182053501Y-131225074D01*
X181774926Y-130946499D01*
X181447355Y-130727623D01*
X181083378Y-130576859D01*
X180696983Y-130500000D01*
X180303017Y-130500000D01*
X179916622Y-130576859D01*
X179552645Y-130727623D01*
X179225074Y-130946499D01*
X178946499Y-131225074D01*
X178727623Y-131552645D01*
X178576859Y-131916622D01*
X178500000Y-132303017D01*
X173775000Y-132303017D01*
X173775000Y-115243922D01*
X176900000Y-115243922D01*
X176900000Y-115756078D01*
X176999917Y-116258392D01*
X177195910Y-116731562D01*
X177480448Y-117157403D01*
X177842597Y-117519552D01*
X178268438Y-117804090D01*
X178741608Y-118000083D01*
X179243922Y-118100000D01*
X179695837Y-118100000D01*
X179744140Y-118148303D01*
X179552645Y-118227623D01*
X179225074Y-118446499D01*
X178946499Y-118725074D01*
X178727623Y-119052645D01*
X178576859Y-119416622D01*
X178500000Y-119803017D01*
X178500000Y-120196983D01*
X178576859Y-120583378D01*
X178727623Y-120947355D01*
X178946499Y-121274926D01*
X179225074Y-121553501D01*
X179552645Y-121772377D01*
X179916622Y-121923141D01*
X180303017Y-122000000D01*
X180696983Y-122000000D01*
X181083378Y-121923141D01*
X181447355Y-121772377D01*
X181774926Y-121553501D01*
X182025410Y-121303017D01*
X182500000Y-121303017D01*
X182500000Y-121696983D01*
X182576859Y-122083378D01*
X182727623Y-122447355D01*
X182946499Y-122774926D01*
X183225074Y-123053501D01*
X183552645Y-123272377D01*
X183916622Y-123423141D01*
X184303017Y-123500000D01*
X184696983Y-123500000D01*
X185083378Y-123423141D01*
X185447355Y-123272377D01*
X185774926Y-123053501D01*
X186053501Y-122774926D01*
X186272377Y-122447355D01*
X186423141Y-122083378D01*
X186500000Y-121696983D01*
X186500000Y-121303017D01*
X186423141Y-120916622D01*
X186272377Y-120552645D01*
X186053501Y-120225074D01*
X185774926Y-119946499D01*
X185447355Y-119727623D01*
X185083378Y-119576859D01*
X184696983Y-119500000D01*
X184303017Y-119500000D01*
X183916622Y-119576859D01*
X183552645Y-119727623D01*
X183225074Y-119946499D01*
X182946499Y-120225074D01*
X182727623Y-120552645D01*
X182576859Y-120916622D01*
X182500000Y-121303017D01*
X182025410Y-121303017D01*
X182053501Y-121274926D01*
X182272377Y-120947355D01*
X182423141Y-120583378D01*
X182500000Y-120196983D01*
X182500000Y-119803017D01*
X182423141Y-119416622D01*
X182333413Y-119200000D01*
X189416500Y-119200000D01*
X189500000Y-119208224D01*
X189583500Y-119200000D01*
X189583510Y-119200000D01*
X189833258Y-119175402D01*
X190153709Y-119078194D01*
X190449039Y-118920337D01*
X190643031Y-118761132D01*
X190643035Y-118761128D01*
X190707897Y-118707897D01*
X190761129Y-118643034D01*
X190955606Y-118448556D01*
X191083378Y-118423141D01*
X191447355Y-118272377D01*
X191774926Y-118053501D01*
X192053501Y-117774926D01*
X192272377Y-117447355D01*
X192423141Y-117083378D01*
X192500000Y-116696983D01*
X192500000Y-116303017D01*
X192423141Y-115916622D01*
X192272377Y-115552645D01*
X192053501Y-115225074D01*
X191774926Y-114946499D01*
X191447355Y-114727623D01*
X191083378Y-114576859D01*
X190696983Y-114500000D01*
X190303017Y-114500000D01*
X189916622Y-114576859D01*
X189552645Y-114727623D01*
X189225074Y-114946499D01*
X188946499Y-115225074D01*
X188727623Y-115552645D01*
X188625165Y-115800000D01*
X187833413Y-115800000D01*
X187923141Y-115583378D01*
X188000000Y-115196983D01*
X188000000Y-114803017D01*
X187923141Y-114416622D01*
X187772377Y-114052645D01*
X187553501Y-113725074D01*
X187494320Y-113665893D01*
X193310602Y-113665893D01*
X193310602Y-114197747D01*
X193414362Y-114719381D01*
X193617893Y-115210750D01*
X193913375Y-115652970D01*
X194289452Y-116029047D01*
X194731672Y-116324529D01*
X195223041Y-116528060D01*
X195744675Y-116631820D01*
X196276529Y-116631820D01*
X196798163Y-116528060D01*
X197289532Y-116324529D01*
X197731752Y-116029047D01*
X198107829Y-115652970D01*
X198403311Y-115210750D01*
X198606842Y-114719381D01*
X198710602Y-114197747D01*
X198710602Y-113665893D01*
X198606842Y-113144259D01*
X198403311Y-112652890D01*
X198107829Y-112210670D01*
X197731752Y-111834593D01*
X197289532Y-111539111D01*
X196798163Y-111335580D01*
X196276529Y-111231820D01*
X195744675Y-111231820D01*
X195223041Y-111335580D01*
X194731672Y-111539111D01*
X194289452Y-111834593D01*
X193913375Y-112210670D01*
X193617893Y-112652890D01*
X193414362Y-113144259D01*
X193310602Y-113665893D01*
X187494320Y-113665893D01*
X187274926Y-113446499D01*
X186947355Y-113227623D01*
X186583378Y-113076859D01*
X186196983Y-113000000D01*
X185803017Y-113000000D01*
X185416622Y-113076859D01*
X185052645Y-113227623D01*
X184725074Y-113446499D01*
X184446499Y-113725074D01*
X184227623Y-114052645D01*
X184076859Y-114416622D01*
X184000000Y-114803017D01*
X184000000Y-115196983D01*
X184076859Y-115583378D01*
X184166587Y-115800000D01*
X182204163Y-115800000D01*
X182100000Y-115695837D01*
X182100000Y-115243922D01*
X182000083Y-114741608D01*
X181804090Y-114268438D01*
X181519552Y-113842597D01*
X181157403Y-113480448D01*
X180731562Y-113195910D01*
X180258392Y-112999917D01*
X179756078Y-112900000D01*
X179243922Y-112900000D01*
X178741608Y-112999917D01*
X178268438Y-113195910D01*
X177842597Y-113480448D01*
X177480448Y-113842597D01*
X177195910Y-114268438D01*
X176999917Y-114741608D01*
X176900000Y-115243922D01*
X173775000Y-115243922D01*
X173775000Y-103420000D01*
X175489839Y-103420000D01*
X175530385Y-103831672D01*
X175650465Y-104227524D01*
X175845465Y-104592343D01*
X176107891Y-104912109D01*
X176427657Y-105174535D01*
X176792476Y-105369535D01*
X177188328Y-105489615D01*
X177496833Y-105520000D01*
X177844008Y-105520000D01*
X178068725Y-105588167D01*
X178391930Y-105620000D01*
X179008731Y-105620000D01*
X179688730Y-106300000D01*
X178391930Y-106300000D01*
X178068725Y-106331833D01*
X177863148Y-106394194D01*
X176700000Y-106394194D01*
X176464759Y-106417363D01*
X176238558Y-106485981D01*
X176030090Y-106597409D01*
X175847366Y-106747366D01*
X175697409Y-106930090D01*
X175585981Y-107138558D01*
X175517363Y-107364759D01*
X175494194Y-107600000D01*
X175494194Y-109400000D01*
X175517363Y-109635241D01*
X175585981Y-109861442D01*
X175697409Y-110069910D01*
X175847366Y-110252634D01*
X176030090Y-110402591D01*
X176238558Y-110514019D01*
X176464759Y-110582637D01*
X176700000Y-110605806D01*
X177863148Y-110605806D01*
X178068725Y-110668167D01*
X178391930Y-110700000D01*
X190564818Y-110700000D01*
X190721089Y-110804417D01*
X191212458Y-111007948D01*
X191734092Y-111111708D01*
X192265946Y-111111708D01*
X192787580Y-111007948D01*
X193278949Y-110804417D01*
X193567358Y-110611708D01*
X225063365Y-110611708D01*
X225188328Y-110649615D01*
X225496833Y-110680000D01*
X225844010Y-110680000D01*
X226068726Y-110748166D01*
X226500000Y-110790643D01*
X226931275Y-110748166D01*
X227155991Y-110680000D01*
X227503167Y-110680000D01*
X227811672Y-110649615D01*
X228207524Y-110529535D01*
X228572343Y-110334535D01*
X228892109Y-110072109D01*
X229154535Y-109752343D01*
X229349535Y-109387524D01*
X229469615Y-108991672D01*
X229510161Y-108580000D01*
X229469615Y-108168328D01*
X229349535Y-107772476D01*
X229154535Y-107407657D01*
X228892109Y-107087891D01*
X228572343Y-106825465D01*
X228207524Y-106630465D01*
X227811672Y-106510385D01*
X227503167Y-106480000D01*
X227384717Y-106480000D01*
X227177685Y-106369339D01*
X226762983Y-106243541D01*
X226439778Y-106211708D01*
X226439768Y-106211708D01*
X226331708Y-106201065D01*
X226223648Y-106211708D01*
X204636953Y-106211708D01*
X204671162Y-106160510D01*
X204855848Y-105714639D01*
X204950000Y-105241304D01*
X204950000Y-104758696D01*
X204855848Y-104285361D01*
X204671162Y-103839490D01*
X204636953Y-103788292D01*
X211432642Y-103788292D01*
X211721051Y-103981001D01*
X212212420Y-104184532D01*
X212662862Y-104274131D01*
X213367951Y-104979221D01*
X213436839Y-105063161D01*
X213520778Y-105132048D01*
X213520781Y-105132051D01*
X213667712Y-105252634D01*
X213771832Y-105338083D01*
X214154023Y-105542369D01*
X214568725Y-105668167D01*
X214891930Y-105700000D01*
X214891939Y-105700000D01*
X214999999Y-105710643D01*
X215108059Y-105700000D01*
X226608070Y-105700000D01*
X226931275Y-105668167D01*
X227136852Y-105605806D01*
X228300000Y-105605806D01*
X228535241Y-105582637D01*
X228761442Y-105514019D01*
X228969910Y-105402591D01*
X229152634Y-105252634D01*
X229302591Y-105069910D01*
X229414019Y-104861442D01*
X229482637Y-104635241D01*
X229505806Y-104400000D01*
X229505806Y-102600000D01*
X229482637Y-102364759D01*
X229414019Y-102138558D01*
X229302591Y-101930090D01*
X229152634Y-101747366D01*
X228969910Y-101597409D01*
X228761442Y-101485981D01*
X228535241Y-101417363D01*
X228300000Y-101394194D01*
X227136852Y-101394194D01*
X226931275Y-101331833D01*
X226608070Y-101300000D01*
X215911269Y-101300000D01*
X215641964Y-101030695D01*
X215596221Y-100800731D01*
X215392690Y-100309362D01*
X215097208Y-99867142D01*
X214721131Y-99491065D01*
X214278911Y-99195583D01*
X213787542Y-98992052D01*
X213265908Y-98888292D01*
X212734054Y-98888292D01*
X212212420Y-98992052D01*
X211721051Y-99195583D01*
X211432642Y-99388292D01*
X200019770Y-99388292D01*
X199911708Y-99377649D01*
X199803646Y-99388292D01*
X199803638Y-99388292D01*
X199480433Y-99420125D01*
X199065731Y-99545923D01*
X198683540Y-99750209D01*
X198432490Y-99956240D01*
X198432486Y-99956244D01*
X198348547Y-100025131D01*
X198279659Y-100109071D01*
X195588732Y-102800000D01*
X194420524Y-102800000D01*
X194596196Y-102375890D01*
X194699956Y-101854256D01*
X194699956Y-101322402D01*
X194596196Y-100800768D01*
X194392665Y-100309399D01*
X194097183Y-99867179D01*
X193721106Y-99491102D01*
X193278886Y-99195620D01*
X192787517Y-98992089D01*
X192265883Y-98888329D01*
X191734029Y-98888329D01*
X191212395Y-98992089D01*
X190721026Y-99195620D01*
X190278806Y-99491102D01*
X189902729Y-99867179D01*
X189607247Y-100309399D01*
X189403716Y-100800768D01*
X189299956Y-101322402D01*
X189299956Y-101854256D01*
X189403716Y-102375890D01*
X189579388Y-102800000D01*
X182411269Y-102800000D01*
X181552057Y-101940788D01*
X181483161Y-101856839D01*
X181148168Y-101581917D01*
X180765977Y-101377631D01*
X180351275Y-101251833D01*
X180028070Y-101220000D01*
X180028060Y-101220000D01*
X179920000Y-101209357D01*
X179811940Y-101220000D01*
X178391930Y-101220000D01*
X178068725Y-101251833D01*
X177844008Y-101320000D01*
X177496833Y-101320000D01*
X177188328Y-101350385D01*
X176792476Y-101470465D01*
X176427657Y-101665465D01*
X176107891Y-101927891D01*
X175845465Y-102247657D01*
X175650465Y-102612476D01*
X175530385Y-103008328D01*
X175489839Y-103420000D01*
X173775000Y-103420000D01*
X173775000Y-94803017D01*
X184000000Y-94803017D01*
X184000000Y-95196983D01*
X184076859Y-95583378D01*
X184227623Y-95947355D01*
X184446499Y-96274926D01*
X184725074Y-96553501D01*
X185052645Y-96772377D01*
X185416622Y-96923141D01*
X185803017Y-97000000D01*
X186196983Y-97000000D01*
X186583378Y-96923141D01*
X186947355Y-96772377D01*
X187274926Y-96553501D01*
X187553501Y-96274926D01*
X187772377Y-95947355D01*
X187923141Y-95583378D01*
X188000000Y-95196983D01*
X188000000Y-94803017D01*
X187923141Y-94416622D01*
X187772377Y-94052645D01*
X187553501Y-93725074D01*
X187274926Y-93446499D01*
X186947355Y-93227623D01*
X186583378Y-93076859D01*
X186196983Y-93000000D01*
X185803017Y-93000000D01*
X185416622Y-93076859D01*
X185052645Y-93227623D01*
X184725074Y-93446499D01*
X184446499Y-93725074D01*
X184227623Y-94052645D01*
X184076859Y-94416622D01*
X184000000Y-94803017D01*
X173775000Y-94803017D01*
X173775000Y-91003621D01*
X192600000Y-91003621D01*
X192600000Y-91476379D01*
X192692230Y-91940054D01*
X192873147Y-92376826D01*
X193135798Y-92769911D01*
X193470089Y-93104202D01*
X193863174Y-93366853D01*
X194299946Y-93547770D01*
X194763621Y-93640000D01*
X194817287Y-93640000D01*
X194731758Y-93675427D01*
X194289538Y-93970909D01*
X193913461Y-94346986D01*
X193617979Y-94789206D01*
X193414448Y-95280575D01*
X193310688Y-95802209D01*
X193310688Y-96334063D01*
X193414448Y-96855697D01*
X193617979Y-97347066D01*
X193913461Y-97789286D01*
X194289538Y-98165363D01*
X194731758Y-98460845D01*
X195223127Y-98664376D01*
X195744761Y-98768136D01*
X196276615Y-98768136D01*
X196798249Y-98664376D01*
X197289618Y-98460845D01*
X197731838Y-98165363D01*
X198107915Y-97789286D01*
X198403397Y-97347066D01*
X198606928Y-96855697D01*
X198710688Y-96334063D01*
X198710688Y-95802209D01*
X198606928Y-95280575D01*
X198403397Y-94789206D01*
X198107915Y-94346986D01*
X197731838Y-93970909D01*
X197289618Y-93675427D01*
X196798249Y-93471896D01*
X196276615Y-93368136D01*
X196133729Y-93368136D01*
X196136826Y-93366853D01*
X196529911Y-93104202D01*
X196864202Y-92769911D01*
X197126853Y-92376826D01*
X197307770Y-91940054D01*
X197400000Y-91476379D01*
X197400000Y-91003621D01*
X197307770Y-90539946D01*
X197126853Y-90103174D01*
X196864202Y-89710089D01*
X196529911Y-89375798D01*
X196136826Y-89113147D01*
X195700054Y-88932230D01*
X195236379Y-88840000D01*
X194763621Y-88840000D01*
X194299946Y-88932230D01*
X193863174Y-89113147D01*
X193470089Y-89375798D01*
X193135798Y-89710089D01*
X192873147Y-90103174D01*
X192692230Y-90539946D01*
X192600000Y-91003621D01*
X173775000Y-91003621D01*
X173775000Y-86263621D01*
X180100000Y-86263621D01*
X180100000Y-86736379D01*
X180192230Y-87200054D01*
X180373147Y-87636826D01*
X180635798Y-88029911D01*
X180970089Y-88364202D01*
X181363174Y-88626853D01*
X181799946Y-88807770D01*
X182263621Y-88900000D01*
X182736379Y-88900000D01*
X183200054Y-88807770D01*
X183636826Y-88626853D01*
X184029911Y-88364202D01*
X184364202Y-88029911D01*
X184626853Y-87636826D01*
X184807770Y-87200054D01*
X184900000Y-86736379D01*
X184900000Y-86263621D01*
X184807770Y-85799946D01*
X184626853Y-85363174D01*
X184364202Y-84970089D01*
X184029911Y-84635798D01*
X183636826Y-84373147D01*
X183200054Y-84192230D01*
X182736379Y-84100000D01*
X182263621Y-84100000D01*
X181799946Y-84192230D01*
X181363174Y-84373147D01*
X180970089Y-84635798D01*
X180635798Y-84970089D01*
X180373147Y-85363174D01*
X180192230Y-85799946D01*
X180100000Y-86263621D01*
X173775000Y-86263621D01*
X173775000Y-77800000D01*
X180094194Y-77800000D01*
X180094194Y-80200000D01*
X180117363Y-80435241D01*
X180185981Y-80661442D01*
X180297409Y-80869910D01*
X180447366Y-81052634D01*
X180630090Y-81202591D01*
X180838558Y-81314019D01*
X181064759Y-81382637D01*
X181300000Y-81405806D01*
X183700000Y-81405806D01*
X183935241Y-81382637D01*
X184161442Y-81314019D01*
X184369910Y-81202591D01*
X184552634Y-81052634D01*
X184702591Y-80869910D01*
X184814019Y-80661442D01*
X184882637Y-80435241D01*
X184905806Y-80200000D01*
X184905806Y-77800000D01*
X184882637Y-77564759D01*
X184814019Y-77338558D01*
X184702591Y-77130090D01*
X184552634Y-76947366D01*
X184369910Y-76797409D01*
X184161442Y-76685981D01*
X183935241Y-76617363D01*
X183700000Y-76594194D01*
X181300000Y-76594194D01*
X181064759Y-76617363D01*
X180838558Y-76685981D01*
X180630090Y-76797409D01*
X180447366Y-76947366D01*
X180297409Y-77130090D01*
X180185981Y-77338558D01*
X180117363Y-77564759D01*
X180094194Y-77800000D01*
X173775000Y-77800000D01*
X173775000Y-75763621D01*
X192600000Y-75763621D01*
X192600000Y-76236379D01*
X192692230Y-76700054D01*
X192873147Y-77136826D01*
X193135798Y-77529911D01*
X193300001Y-77694114D01*
X193300000Y-82916500D01*
X193291776Y-83000000D01*
X193300000Y-83083500D01*
X193300000Y-83083509D01*
X193324598Y-83333257D01*
X193421806Y-83653708D01*
X193479225Y-83761132D01*
X193579663Y-83949039D01*
X193738868Y-84143031D01*
X193738873Y-84143036D01*
X193792103Y-84207897D01*
X193856965Y-84261128D01*
X197238872Y-87643035D01*
X197292103Y-87707897D01*
X197356965Y-87761128D01*
X197356968Y-87761131D01*
X197404330Y-87800000D01*
X197550961Y-87920337D01*
X197846291Y-88078194D01*
X198166742Y-88175402D01*
X198416490Y-88200000D01*
X198416507Y-88200000D01*
X198499999Y-88208223D01*
X198583491Y-88200000D01*
X199733995Y-88200000D01*
X199597582Y-88291148D01*
X199291148Y-88597582D01*
X199050385Y-88957909D01*
X198884545Y-89358284D01*
X198800000Y-89783319D01*
X198800000Y-90216681D01*
X198884545Y-90641716D01*
X199050385Y-91042091D01*
X199291148Y-91402418D01*
X199597582Y-91708852D01*
X199957909Y-91949615D01*
X200358284Y-92115455D01*
X200497974Y-92143241D01*
X200402732Y-92238483D01*
X200107250Y-92680703D01*
X199903719Y-93172072D01*
X199799959Y-93693706D01*
X199799959Y-94225560D01*
X199903719Y-94747194D01*
X200107250Y-95238563D01*
X200371414Y-95633913D01*
X200361529Y-95648707D01*
X200176843Y-96094578D01*
X200082691Y-96567913D01*
X200082691Y-97050521D01*
X200176843Y-97523856D01*
X200361529Y-97969727D01*
X200629651Y-98371001D01*
X200970907Y-98712257D01*
X201372181Y-98980379D01*
X201818052Y-99165065D01*
X202291387Y-99259217D01*
X202773995Y-99259217D01*
X203247330Y-99165065D01*
X203693201Y-98980379D01*
X204094475Y-98712257D01*
X204435731Y-98371001D01*
X204703853Y-97969727D01*
X204888539Y-97523856D01*
X204982691Y-97050521D01*
X204982691Y-96567913D01*
X204888539Y-96094578D01*
X204767454Y-95802253D01*
X206289398Y-95802253D01*
X206289398Y-96334107D01*
X206393158Y-96855741D01*
X206596689Y-97347110D01*
X206892171Y-97789330D01*
X207268248Y-98165407D01*
X207710468Y-98460889D01*
X208201837Y-98664420D01*
X208723471Y-98768180D01*
X209255325Y-98768180D01*
X209776959Y-98664420D01*
X210268328Y-98460889D01*
X210710548Y-98165407D01*
X211086625Y-97789330D01*
X211382107Y-97347110D01*
X211585638Y-96855741D01*
X211689398Y-96334107D01*
X211689398Y-95802253D01*
X211585638Y-95280619D01*
X211382107Y-94789250D01*
X211086625Y-94347030D01*
X210710548Y-93970953D01*
X210268328Y-93675471D01*
X209776959Y-93471940D01*
X209255325Y-93368180D01*
X208723471Y-93368180D01*
X208201837Y-93471940D01*
X207710468Y-93675471D01*
X207268248Y-93970953D01*
X206892171Y-94347030D01*
X206596689Y-94789250D01*
X206393158Y-95280619D01*
X206289398Y-95802253D01*
X204767454Y-95802253D01*
X204703853Y-95648707D01*
X204661236Y-95584926D01*
X204892668Y-95238563D01*
X205096199Y-94747194D01*
X205199959Y-94225560D01*
X205199959Y-93693706D01*
X205096199Y-93172072D01*
X204892668Y-92680703D01*
X204597186Y-92238483D01*
X204221109Y-91862406D01*
X203778889Y-91566924D01*
X203287520Y-91363393D01*
X202799756Y-91266370D01*
X202949615Y-91042091D01*
X203115455Y-90641716D01*
X203200000Y-90216681D01*
X203200000Y-89783319D01*
X203115455Y-89358284D01*
X202949615Y-88957909D01*
X202708852Y-88597582D01*
X202402418Y-88291148D01*
X202266005Y-88200000D01*
X205405887Y-88200000D01*
X205135798Y-88470089D01*
X204873147Y-88863174D01*
X204692230Y-89299946D01*
X204600000Y-89763621D01*
X204600000Y-90236379D01*
X204692230Y-90700054D01*
X204873147Y-91136826D01*
X205135798Y-91529911D01*
X205470089Y-91864202D01*
X205863174Y-92126853D01*
X206299946Y-92307770D01*
X206763621Y-92400000D01*
X207236379Y-92400000D01*
X207700054Y-92307770D01*
X208136826Y-92126853D01*
X208529911Y-91864202D01*
X208864202Y-91529911D01*
X208877992Y-91509272D01*
X208921807Y-91653709D01*
X209079663Y-91949039D01*
X209238868Y-92143031D01*
X209238877Y-92143040D01*
X209292104Y-92207897D01*
X209356961Y-92261124D01*
X216238872Y-99143035D01*
X216292103Y-99207897D01*
X216356965Y-99261128D01*
X216356969Y-99261132D01*
X216550960Y-99420337D01*
X216683284Y-99491065D01*
X216846291Y-99578194D01*
X217166742Y-99675402D01*
X217293803Y-99687916D01*
X217470089Y-99864202D01*
X217863174Y-100126853D01*
X218299946Y-100307770D01*
X218763621Y-100400000D01*
X219236379Y-100400000D01*
X219700054Y-100307770D01*
X220136826Y-100126853D01*
X220529911Y-99864202D01*
X220864202Y-99529911D01*
X221126853Y-99136826D01*
X221307770Y-98700054D01*
X221400000Y-98236379D01*
X221400000Y-97763621D01*
X221307770Y-97299946D01*
X221126853Y-96863174D01*
X220864202Y-96470089D01*
X220529911Y-96135798D01*
X220136826Y-95873147D01*
X219700054Y-95692230D01*
X219236379Y-95600000D01*
X218763621Y-95600000D01*
X218299946Y-95692230D01*
X217863174Y-95873147D01*
X217811702Y-95907539D01*
X212200000Y-90295837D01*
X212200000Y-89803017D01*
X218000000Y-89803017D01*
X218000000Y-90196983D01*
X218076859Y-90583378D01*
X218227623Y-90947355D01*
X218446499Y-91274926D01*
X218725074Y-91553501D01*
X219052645Y-91772377D01*
X219416622Y-91923141D01*
X219803017Y-92000000D01*
X220196983Y-92000000D01*
X220583378Y-91923141D01*
X220947355Y-91772377D01*
X221274926Y-91553501D01*
X221553501Y-91274926D01*
X221772377Y-90947355D01*
X221923141Y-90583378D01*
X222000000Y-90196983D01*
X222000000Y-90080000D01*
X223489839Y-90080000D01*
X223530385Y-90491672D01*
X223650465Y-90887524D01*
X223845465Y-91252343D01*
X224107891Y-91572109D01*
X224427657Y-91834535D01*
X224792476Y-92029535D01*
X225188328Y-92149615D01*
X225496833Y-92180000D01*
X227503167Y-92180000D01*
X227811672Y-92149615D01*
X228207524Y-92029535D01*
X228572343Y-91834535D01*
X228892109Y-91572109D01*
X229154535Y-91252343D01*
X229349535Y-90887524D01*
X229469615Y-90491672D01*
X229510161Y-90080000D01*
X229469615Y-89668328D01*
X229349535Y-89272476D01*
X229154535Y-88907657D01*
X228892109Y-88587891D01*
X228572343Y-88325465D01*
X228207524Y-88130465D01*
X227811672Y-88010385D01*
X227503167Y-87980000D01*
X225496833Y-87980000D01*
X225188328Y-88010385D01*
X224792476Y-88130465D01*
X224427657Y-88325465D01*
X224107891Y-88587891D01*
X223845465Y-88907657D01*
X223650465Y-89272476D01*
X223530385Y-89668328D01*
X223489839Y-90080000D01*
X222000000Y-90080000D01*
X222000000Y-89803017D01*
X221923141Y-89416622D01*
X221772377Y-89052645D01*
X221553501Y-88725074D01*
X221274926Y-88446499D01*
X220947355Y-88227623D01*
X220583378Y-88076859D01*
X220196983Y-88000000D01*
X219803017Y-88000000D01*
X219416622Y-88076859D01*
X219052645Y-88227623D01*
X218725074Y-88446499D01*
X218446499Y-88725074D01*
X218227623Y-89052645D01*
X218076859Y-89416622D01*
X218000000Y-89803017D01*
X212200000Y-89803017D01*
X212200000Y-89393409D01*
X212238558Y-89414019D01*
X212464759Y-89482637D01*
X212700000Y-89505806D01*
X214300000Y-89505806D01*
X214535241Y-89482637D01*
X214761442Y-89414019D01*
X214969910Y-89302591D01*
X215152634Y-89152634D01*
X215302591Y-88969910D01*
X215414019Y-88761442D01*
X215482637Y-88535241D01*
X215505806Y-88300000D01*
X215505806Y-86700000D01*
X215482637Y-86464759D01*
X215414019Y-86238558D01*
X215382944Y-86180421D01*
X215423141Y-86083378D01*
X215459617Y-85900000D01*
X223293226Y-85900000D01*
X223320257Y-86174448D01*
X223400310Y-86438349D01*
X223530310Y-86681562D01*
X223705261Y-86894739D01*
X223918438Y-87069690D01*
X224161651Y-87199690D01*
X224425552Y-87279743D01*
X224700000Y-87306774D01*
X226050000Y-87300000D01*
X226400000Y-86950000D01*
X226400000Y-85100000D01*
X226600000Y-85100000D01*
X226600000Y-86950000D01*
X226950000Y-87300000D01*
X228300000Y-87306774D01*
X228574448Y-87279743D01*
X228838349Y-87199690D01*
X229081562Y-87069690D01*
X229294739Y-86894739D01*
X229469690Y-86681562D01*
X229599690Y-86438349D01*
X229679743Y-86174448D01*
X229706774Y-85900000D01*
X229700000Y-85450000D01*
X229350000Y-85100000D01*
X226600000Y-85100000D01*
X226400000Y-85100000D01*
X223650000Y-85100000D01*
X223300000Y-85450000D01*
X223293226Y-85900000D01*
X215459617Y-85900000D01*
X215500000Y-85696983D01*
X215500000Y-85303017D01*
X215423141Y-84916622D01*
X215272377Y-84552645D01*
X215200000Y-84444325D01*
X215200000Y-84100000D01*
X223293226Y-84100000D01*
X223300000Y-84550000D01*
X223650000Y-84900000D01*
X226400000Y-84900000D01*
X226400000Y-83050000D01*
X226600000Y-83050000D01*
X226600000Y-84900000D01*
X229350000Y-84900000D01*
X229700000Y-84550000D01*
X229706774Y-84100000D01*
X229679743Y-83825552D01*
X229599690Y-83561651D01*
X229469690Y-83318438D01*
X229294739Y-83105261D01*
X229081562Y-82930310D01*
X228838349Y-82800310D01*
X228574448Y-82720257D01*
X228300000Y-82693226D01*
X226950000Y-82700000D01*
X226600000Y-83050000D01*
X226400000Y-83050000D01*
X226050000Y-82700000D01*
X224700000Y-82693226D01*
X224425552Y-82720257D01*
X224161651Y-82800310D01*
X223918438Y-82930310D01*
X223705261Y-83105261D01*
X223530310Y-83318438D01*
X223400310Y-83561651D01*
X223320257Y-83825552D01*
X223293226Y-84100000D01*
X215200000Y-84100000D01*
X215200000Y-83583502D01*
X215208224Y-83500000D01*
X215200000Y-83416498D01*
X215200000Y-83416490D01*
X215175402Y-83166742D01*
X215078194Y-82846291D01*
X214920337Y-82550961D01*
X214878514Y-82500000D01*
X214761132Y-82356969D01*
X214761128Y-82356965D01*
X214707897Y-82292103D01*
X214643035Y-82238872D01*
X214225217Y-81821054D01*
X214533791Y-81759675D01*
X214866830Y-81621725D01*
X215166557Y-81421454D01*
X215421454Y-81166557D01*
X215621725Y-80866830D01*
X215759675Y-80533791D01*
X215830000Y-80180239D01*
X215830000Y-79819761D01*
X215759675Y-79466209D01*
X215621725Y-79133170D01*
X215421454Y-78833443D01*
X215166557Y-78578546D01*
X214866830Y-78378275D01*
X214533791Y-78240325D01*
X214180239Y-78170000D01*
X213819761Y-78170000D01*
X213466209Y-78240325D01*
X213160000Y-78367162D01*
X213160000Y-78164163D01*
X214000000Y-77324163D01*
X217658872Y-80983035D01*
X217712103Y-81047897D01*
X217776965Y-81101128D01*
X217776969Y-81101132D01*
X217970961Y-81260337D01*
X218266291Y-81418194D01*
X218586742Y-81515402D01*
X218836490Y-81540000D01*
X218836498Y-81540000D01*
X218920000Y-81548224D01*
X218951927Y-81545080D01*
X219052645Y-81612377D01*
X219416622Y-81763141D01*
X219803017Y-81840000D01*
X220196983Y-81840000D01*
X220583378Y-81763141D01*
X220947355Y-81612377D01*
X221274926Y-81393501D01*
X221553501Y-81114926D01*
X221772377Y-80787355D01*
X221923141Y-80423378D01*
X222000000Y-80036983D01*
X222000000Y-79643017D01*
X221923141Y-79256622D01*
X221772377Y-78892645D01*
X221553501Y-78565074D01*
X221274926Y-78286499D01*
X220947355Y-78067623D01*
X220583378Y-77916859D01*
X220196983Y-77840000D01*
X219803017Y-77840000D01*
X219416622Y-77916859D01*
X219405591Y-77921428D01*
X217228085Y-75743922D01*
X224400000Y-75743922D01*
X224400000Y-76256078D01*
X224499917Y-76758392D01*
X224695910Y-77231562D01*
X224980448Y-77657403D01*
X225342597Y-78019552D01*
X225768438Y-78304090D01*
X226241608Y-78500083D01*
X226743922Y-78600000D01*
X227256078Y-78600000D01*
X227758392Y-78500083D01*
X228231562Y-78304090D01*
X228657403Y-78019552D01*
X229019552Y-77657403D01*
X229304090Y-77231562D01*
X229500083Y-76758392D01*
X229600000Y-76256078D01*
X229600000Y-75743922D01*
X229500083Y-75241608D01*
X229304090Y-74768438D01*
X229019552Y-74342597D01*
X228657403Y-73980448D01*
X228231562Y-73695910D01*
X227758392Y-73499917D01*
X227256078Y-73400000D01*
X226743922Y-73400000D01*
X226241608Y-73499917D01*
X225768438Y-73695910D01*
X225342597Y-73980448D01*
X224980448Y-74342597D01*
X224695910Y-74768438D01*
X224499917Y-75241608D01*
X224400000Y-75743922D01*
X217228085Y-75743922D01*
X215681400Y-74197237D01*
X215621725Y-74053170D01*
X215421454Y-73753443D01*
X215166557Y-73498546D01*
X214866830Y-73298275D01*
X214533791Y-73160325D01*
X214180239Y-73090000D01*
X213819761Y-73090000D01*
X213466209Y-73160325D01*
X213133170Y-73298275D01*
X212833443Y-73498546D01*
X212578546Y-73753443D01*
X212378275Y-74053170D01*
X212318600Y-74197237D01*
X210737237Y-75778600D01*
X210593170Y-75838275D01*
X210293443Y-76038546D01*
X210038546Y-76293443D01*
X209838275Y-76593170D01*
X209778600Y-76737237D01*
X205715837Y-80800000D01*
X202411270Y-80800000D01*
X202402418Y-80791148D01*
X202042091Y-80550385D01*
X201920450Y-80500000D01*
X202042091Y-80449615D01*
X202402418Y-80208852D01*
X202708852Y-79902418D01*
X202949615Y-79542091D01*
X203115455Y-79141716D01*
X203200000Y-78716681D01*
X203200000Y-78283319D01*
X203115455Y-77858284D01*
X202949615Y-77457909D01*
X202708852Y-77097582D01*
X202402418Y-76791148D01*
X202042091Y-76550385D01*
X201641716Y-76384545D01*
X201216681Y-76300000D01*
X200783319Y-76300000D01*
X200358284Y-76384545D01*
X199957909Y-76550385D01*
X199597582Y-76791148D01*
X199291148Y-77097582D01*
X199050385Y-77457909D01*
X198884545Y-77858284D01*
X198800000Y-78283319D01*
X198800000Y-78716681D01*
X198884545Y-79141716D01*
X199050385Y-79542091D01*
X199291148Y-79902418D01*
X199597582Y-80208852D01*
X199957909Y-80449615D01*
X200079550Y-80500000D01*
X199957909Y-80550385D01*
X199597582Y-80791148D01*
X199291148Y-81097582D01*
X199050385Y-81457909D01*
X198884545Y-81858284D01*
X198800000Y-82283319D01*
X198800000Y-82716681D01*
X198884545Y-83141716D01*
X199050385Y-83542091D01*
X199291148Y-83902418D01*
X199597582Y-84208852D01*
X199957909Y-84449615D01*
X200358284Y-84615455D01*
X200783319Y-84700000D01*
X201216681Y-84700000D01*
X201641716Y-84615455D01*
X202042091Y-84449615D01*
X202402418Y-84208852D01*
X202411270Y-84200000D01*
X206336500Y-84200000D01*
X206420000Y-84208224D01*
X206503500Y-84200000D01*
X206503510Y-84200000D01*
X206753258Y-84175402D01*
X207073709Y-84078194D01*
X207369039Y-83920337D01*
X207475145Y-83833258D01*
X207563031Y-83761132D01*
X207563035Y-83761128D01*
X207627897Y-83707897D01*
X207681128Y-83643035D01*
X209761852Y-81562311D01*
X209784598Y-81793257D01*
X209881806Y-82113708D01*
X209955287Y-82251182D01*
X210039663Y-82409039D01*
X210198868Y-82603031D01*
X210198873Y-82603036D01*
X210252103Y-82667897D01*
X210316965Y-82721128D01*
X211800001Y-84204164D01*
X211800001Y-84444324D01*
X211727623Y-84552645D01*
X211576859Y-84916622D01*
X211500000Y-85303017D01*
X211500000Y-85696983D01*
X211576859Y-86083378D01*
X211617056Y-86180421D01*
X211585981Y-86238558D01*
X211517363Y-86464759D01*
X211494194Y-86700000D01*
X211494194Y-87090031D01*
X209761128Y-85356965D01*
X209707897Y-85292103D01*
X209643035Y-85238872D01*
X209643031Y-85238868D01*
X209449039Y-85079663D01*
X209446289Y-85078193D01*
X209153709Y-84921806D01*
X208833258Y-84824598D01*
X208583510Y-84800000D01*
X208583500Y-84800000D01*
X208500000Y-84791776D01*
X208416500Y-84800000D01*
X199204163Y-84800000D01*
X196700000Y-82295837D01*
X196700000Y-77694113D01*
X196864202Y-77529911D01*
X197126853Y-77136826D01*
X197307770Y-76700054D01*
X197400000Y-76236379D01*
X197400000Y-75763621D01*
X197307770Y-75299946D01*
X197126853Y-74863174D01*
X196899971Y-74523621D01*
X204600000Y-74523621D01*
X204600000Y-74996379D01*
X204692230Y-75460054D01*
X204873147Y-75896826D01*
X205135798Y-76289911D01*
X205470089Y-76624202D01*
X205863174Y-76886853D01*
X206299946Y-77067770D01*
X206763621Y-77160000D01*
X207236379Y-77160000D01*
X207700054Y-77067770D01*
X208136826Y-76886853D01*
X208529911Y-76624202D01*
X208864202Y-76289911D01*
X209126853Y-75896826D01*
X209307770Y-75460054D01*
X209400000Y-74996379D01*
X209400000Y-74523621D01*
X209307770Y-74059946D01*
X209126853Y-73623174D01*
X208864202Y-73230089D01*
X208529911Y-72895798D01*
X208136826Y-72633147D01*
X207700054Y-72452230D01*
X207236379Y-72360000D01*
X206763621Y-72360000D01*
X206299946Y-72452230D01*
X205863174Y-72633147D01*
X205470089Y-72895798D01*
X205135798Y-73230089D01*
X204873147Y-73623174D01*
X204692230Y-74059946D01*
X204600000Y-74523621D01*
X196899971Y-74523621D01*
X196864202Y-74470089D01*
X196529911Y-74135798D01*
X196136826Y-73873147D01*
X195700054Y-73692230D01*
X195236379Y-73600000D01*
X194763621Y-73600000D01*
X194299946Y-73692230D01*
X193863174Y-73873147D01*
X193470089Y-74135798D01*
X193135798Y-74470089D01*
X192873147Y-74863174D01*
X192692230Y-75299946D01*
X192600000Y-75763621D01*
X173775000Y-75763621D01*
X173775000Y-69763621D01*
X175360000Y-69763621D01*
X175360000Y-70236379D01*
X175452230Y-70700054D01*
X175633147Y-71136826D01*
X175895798Y-71529911D01*
X176230089Y-71864202D01*
X176623174Y-72126853D01*
X177059946Y-72307770D01*
X177523621Y-72400000D01*
X177996379Y-72400000D01*
X178460054Y-72307770D01*
X178896826Y-72126853D01*
X179289911Y-71864202D01*
X179624202Y-71529911D01*
X179886853Y-71136826D01*
X180067770Y-70700054D01*
X180160000Y-70236379D01*
X180160000Y-69763621D01*
X190600000Y-69763621D01*
X190600000Y-70236379D01*
X190692230Y-70700054D01*
X190873147Y-71136826D01*
X191135798Y-71529911D01*
X191470089Y-71864202D01*
X191863174Y-72126853D01*
X192299946Y-72307770D01*
X192763621Y-72400000D01*
X193236379Y-72400000D01*
X193700054Y-72307770D01*
X194136826Y-72126853D01*
X194529911Y-71864202D01*
X194864202Y-71529911D01*
X195126853Y-71136826D01*
X195273280Y-70783319D01*
X198800000Y-70783319D01*
X198800000Y-71216681D01*
X198884545Y-71641716D01*
X199050385Y-72042091D01*
X199291148Y-72402418D01*
X199597582Y-72708852D01*
X199957909Y-72949615D01*
X200358284Y-73115455D01*
X200783319Y-73200000D01*
X201216681Y-73200000D01*
X201641716Y-73115455D01*
X202042091Y-72949615D01*
X202402418Y-72708852D01*
X202708852Y-72402418D01*
X202949615Y-72042091D01*
X203115455Y-71641716D01*
X203200000Y-71216681D01*
X203200000Y-70783319D01*
X203115455Y-70358284D01*
X202949615Y-69957909D01*
X202708852Y-69597582D01*
X202402418Y-69291148D01*
X202042091Y-69050385D01*
X201641716Y-68884545D01*
X201216681Y-68800000D01*
X200783319Y-68800000D01*
X200358284Y-68884545D01*
X199957909Y-69050385D01*
X199597582Y-69291148D01*
X199291148Y-69597582D01*
X199050385Y-69957909D01*
X198884545Y-70358284D01*
X198800000Y-70783319D01*
X195273280Y-70783319D01*
X195307770Y-70700054D01*
X195400000Y-70236379D01*
X195400000Y-69763621D01*
X195307770Y-69299946D01*
X195126853Y-68863174D01*
X194864202Y-68470089D01*
X194529911Y-68135798D01*
X194136826Y-67873147D01*
X193700054Y-67692230D01*
X193236379Y-67600000D01*
X192763621Y-67600000D01*
X192299946Y-67692230D01*
X191863174Y-67873147D01*
X191470089Y-68135798D01*
X191135798Y-68470089D01*
X190873147Y-68863174D01*
X190692230Y-69299946D01*
X190600000Y-69763621D01*
X180160000Y-69763621D01*
X180067770Y-69299946D01*
X179886853Y-68863174D01*
X179624202Y-68470089D01*
X179289911Y-68135798D01*
X178896826Y-67873147D01*
X178460054Y-67692230D01*
X177996379Y-67600000D01*
X177523621Y-67600000D01*
X177059946Y-67692230D01*
X176623174Y-67873147D01*
X176230089Y-68135798D01*
X175895798Y-68470089D01*
X175633147Y-68863174D01*
X175452230Y-69299946D01*
X175360000Y-69763621D01*
X173775000Y-69763621D01*
X173775000Y-62224224D01*
X174700000Y-62224224D01*
X174700000Y-62775776D01*
X174807602Y-63316730D01*
X175018672Y-63826297D01*
X175325098Y-64284896D01*
X175715104Y-64674902D01*
X176173703Y-64981328D01*
X176683270Y-65192398D01*
X177224224Y-65300000D01*
X177775776Y-65300000D01*
X178316730Y-65192398D01*
X178826297Y-64981328D01*
X179284896Y-64674902D01*
X179674902Y-64284896D01*
X179981328Y-63826297D01*
X180192398Y-63316730D01*
X180300000Y-62775776D01*
X180300000Y-62224224D01*
X180295182Y-62200000D01*
X184894194Y-62200000D01*
X184894194Y-65800000D01*
X184917363Y-66035241D01*
X184985981Y-66261442D01*
X185097409Y-66469910D01*
X185247366Y-66652634D01*
X185430090Y-66802591D01*
X185638558Y-66914019D01*
X185864759Y-66982637D01*
X186100000Y-67005806D01*
X187900000Y-67005806D01*
X188135241Y-66982637D01*
X188361442Y-66914019D01*
X188569910Y-66802591D01*
X188752634Y-66652634D01*
X188902591Y-66469910D01*
X189014019Y-66261442D01*
X189082637Y-66035241D01*
X189105806Y-65800000D01*
X189105806Y-62996834D01*
X189980000Y-62996834D01*
X189980000Y-65003167D01*
X190010386Y-65311672D01*
X190130466Y-65707524D01*
X190325466Y-66072343D01*
X190587892Y-66392109D01*
X190907658Y-66654535D01*
X191272477Y-66849535D01*
X191668329Y-66969615D01*
X192080000Y-67010161D01*
X192491672Y-66969615D01*
X192887524Y-66849535D01*
X193252343Y-66654535D01*
X193572109Y-66392109D01*
X193834535Y-66072343D01*
X194029535Y-65707524D01*
X194149615Y-65311672D01*
X194180000Y-65003166D01*
X194180000Y-62996833D01*
X194149615Y-62688328D01*
X194029535Y-62292476D01*
X193980106Y-62200000D01*
X204894194Y-62200000D01*
X204894194Y-65800000D01*
X204917363Y-66035241D01*
X204985981Y-66261442D01*
X205097409Y-66469910D01*
X205247366Y-66652634D01*
X205430090Y-66802591D01*
X205638558Y-66914019D01*
X205864759Y-66982637D01*
X206100000Y-67005806D01*
X207900000Y-67005806D01*
X208135241Y-66982637D01*
X208361442Y-66914019D01*
X208569910Y-66802591D01*
X208752634Y-66652634D01*
X208902591Y-66469910D01*
X209014019Y-66261442D01*
X209082637Y-66035241D01*
X209105806Y-65800000D01*
X209105806Y-64100000D01*
X209780000Y-64100000D01*
X209780000Y-65000000D01*
X209843703Y-65446786D01*
X209993345Y-65872560D01*
X210223177Y-66260959D01*
X210524365Y-66597057D01*
X210885335Y-66867938D01*
X211292216Y-67063192D01*
X211621772Y-67153892D01*
X211980000Y-66847434D01*
X211980000Y-64100000D01*
X212180000Y-64100000D01*
X212180000Y-66847434D01*
X212538228Y-67153892D01*
X212867784Y-67063192D01*
X213274665Y-66867938D01*
X213635635Y-66597057D01*
X213936823Y-66260959D01*
X214166655Y-65872560D01*
X214316297Y-65446786D01*
X214380000Y-65000000D01*
X214380000Y-64100000D01*
X212180000Y-64100000D01*
X211980000Y-64100000D01*
X209780000Y-64100000D01*
X209105806Y-64100000D01*
X209105806Y-63000000D01*
X209780000Y-63000000D01*
X209780000Y-63900000D01*
X211980000Y-63900000D01*
X211980000Y-61152566D01*
X212180000Y-61152566D01*
X212180000Y-63900000D01*
X214380000Y-63900000D01*
X214380000Y-63000000D01*
X214316297Y-62553214D01*
X214200671Y-62224224D01*
X224700000Y-62224224D01*
X224700000Y-62775776D01*
X224807602Y-63316730D01*
X225018672Y-63826297D01*
X225325098Y-64284896D01*
X225715104Y-64674902D01*
X226173703Y-64981328D01*
X226683270Y-65192398D01*
X227224224Y-65300000D01*
X227775776Y-65300000D01*
X228316730Y-65192398D01*
X228826297Y-64981328D01*
X229284896Y-64674902D01*
X229674902Y-64284896D01*
X229981328Y-63826297D01*
X230192398Y-63316730D01*
X230300000Y-62775776D01*
X230300000Y-62224224D01*
X230192398Y-61683270D01*
X229981328Y-61173703D01*
X229674902Y-60715104D01*
X229284896Y-60325098D01*
X228826297Y-60018672D01*
X228316730Y-59807602D01*
X227775776Y-59700000D01*
X227224224Y-59700000D01*
X226683270Y-59807602D01*
X226173703Y-60018672D01*
X225715104Y-60325098D01*
X225325098Y-60715104D01*
X225018672Y-61173703D01*
X224807602Y-61683270D01*
X224700000Y-62224224D01*
X214200671Y-62224224D01*
X214166655Y-62127440D01*
X213936823Y-61739041D01*
X213635635Y-61402943D01*
X213274665Y-61132062D01*
X212867784Y-60936808D01*
X212538228Y-60846108D01*
X212180000Y-61152566D01*
X211980000Y-61152566D01*
X211621772Y-60846108D01*
X211292216Y-60936808D01*
X210885335Y-61132062D01*
X210524365Y-61402943D01*
X210223177Y-61739041D01*
X209993345Y-62127440D01*
X209843703Y-62553214D01*
X209780000Y-63000000D01*
X209105806Y-63000000D01*
X209105806Y-62200000D01*
X209082637Y-61964759D01*
X209014019Y-61738558D01*
X208902591Y-61530090D01*
X208752634Y-61347366D01*
X208569910Y-61197409D01*
X208361442Y-61085981D01*
X208135241Y-61017363D01*
X207900000Y-60994194D01*
X206100000Y-60994194D01*
X205864759Y-61017363D01*
X205638558Y-61085981D01*
X205430090Y-61197409D01*
X205247366Y-61347366D01*
X205097409Y-61530090D01*
X204985981Y-61738558D01*
X204917363Y-61964759D01*
X204894194Y-62200000D01*
X193980106Y-62200000D01*
X193834535Y-61927657D01*
X193572109Y-61607891D01*
X193252343Y-61345465D01*
X192887523Y-61150465D01*
X192491671Y-61030385D01*
X192080000Y-60989839D01*
X191668328Y-61030385D01*
X191272476Y-61150465D01*
X190907657Y-61345465D01*
X190587891Y-61607891D01*
X190325465Y-61927657D01*
X190130465Y-62292477D01*
X190010385Y-62688329D01*
X189980000Y-62996834D01*
X189105806Y-62996834D01*
X189105806Y-62200000D01*
X189082637Y-61964759D01*
X189014019Y-61738558D01*
X188902591Y-61530090D01*
X188752634Y-61347366D01*
X188569910Y-61197409D01*
X188361442Y-61085981D01*
X188135241Y-61017363D01*
X187900000Y-60994194D01*
X186100000Y-60994194D01*
X185864759Y-61017363D01*
X185638558Y-61085981D01*
X185430090Y-61197409D01*
X185247366Y-61347366D01*
X185097409Y-61530090D01*
X184985981Y-61738558D01*
X184917363Y-61964759D01*
X184894194Y-62200000D01*
X180295182Y-62200000D01*
X180192398Y-61683270D01*
X179981328Y-61173703D01*
X179674902Y-60715104D01*
X179284896Y-60325098D01*
X178826297Y-60018672D01*
X178316730Y-59807602D01*
X177775776Y-59700000D01*
X177224224Y-59700000D01*
X176683270Y-59807602D01*
X176173703Y-60018672D01*
X175715104Y-60325098D01*
X175325098Y-60715104D01*
X175018672Y-61173703D01*
X174807602Y-61683270D01*
X174700000Y-62224224D01*
X173775000Y-62224224D01*
X173775000Y-58775000D01*
X231225001Y-58775000D01*
X231225000Y-116407811D01*
M02*
