%TF.GenerationSoftware,KiCad,Pcbnew,(5.1.5-0-10_14)*%
%TF.CreationDate,2020-09-13T21:20:46+01:00*%
%TF.ProjectId,PrePCB,50726550-4342-42e6-9b69-6361645f7063,rev?*%
%TF.SameCoordinates,Original*%
%TF.FileFunction,Legend,Top*%
%TF.FilePolarity,Positive*%
%FSLAX46Y46*%
G04 Gerber Fmt 4.6, Leading zero omitted, Abs format (unit mm)*
G04 Created by KiCad (PCBNEW (5.1.5-0-10_14)) date 2020-09-13 21:20:46*
%MOMM*%
%LPD*%
G04 APERTURE LIST*
%ADD10C,0.200000*%
%ADD11C,0.300000*%
%ADD12C,0.120000*%
%ADD13C,0.150000*%
G04 APERTURE END LIST*
D10*
X195142857Y-59452380D02*
X195142857Y-58452380D01*
X195142857Y-58928571D02*
X195714285Y-58928571D01*
X195714285Y-59452380D02*
X195714285Y-58452380D01*
X196047619Y-58452380D02*
X196619047Y-58452380D01*
X196333333Y-59452380D02*
X196333333Y-58452380D01*
X196952380Y-59452380D02*
X196952380Y-58785714D01*
X196952380Y-58452380D02*
X196904761Y-58500000D01*
X196952380Y-58547619D01*
X197000000Y-58500000D01*
X196952380Y-58452380D01*
X196952380Y-58547619D01*
X197428571Y-58785714D02*
X197428571Y-59452380D01*
X197428571Y-58880952D02*
X197476190Y-58833333D01*
X197571428Y-58785714D01*
X197714285Y-58785714D01*
X197809523Y-58833333D01*
X197857142Y-58928571D01*
X197857142Y-59452380D01*
X174934761Y-138361904D02*
X174934761Y-138552380D01*
X174744285Y-138476190D02*
X174934761Y-138552380D01*
X175125238Y-138476190D01*
X174820476Y-138704761D02*
X174934761Y-138552380D01*
X175049047Y-138704761D01*
X175430000Y-138361904D02*
X175430000Y-139009523D01*
X175468095Y-139085714D01*
X175506190Y-139123809D01*
X175582380Y-139161904D01*
X175734761Y-139161904D01*
X175810952Y-139123809D01*
X175849047Y-139085714D01*
X175887142Y-139009523D01*
X175887142Y-138361904D01*
X176230000Y-139123809D02*
X176306190Y-139161904D01*
X176458571Y-139161904D01*
X176534761Y-139123809D01*
X176572857Y-139047619D01*
X176572857Y-139009523D01*
X176534761Y-138933333D01*
X176458571Y-138895238D01*
X176344285Y-138895238D01*
X176268095Y-138857142D01*
X176230000Y-138780952D01*
X176230000Y-138742857D01*
X176268095Y-138666666D01*
X176344285Y-138628571D01*
X176458571Y-138628571D01*
X176534761Y-138666666D01*
X177220476Y-139123809D02*
X177144285Y-139161904D01*
X176991904Y-139161904D01*
X176915714Y-139123809D01*
X176877619Y-139047619D01*
X176877619Y-138742857D01*
X176915714Y-138666666D01*
X176991904Y-138628571D01*
X177144285Y-138628571D01*
X177220476Y-138666666D01*
X177258571Y-138742857D01*
X177258571Y-138819047D01*
X176877619Y-138895238D01*
X178172857Y-138933333D02*
X178553809Y-138933333D01*
X178096666Y-139161904D02*
X178363333Y-138361904D01*
X178630000Y-139161904D01*
X179315714Y-138400000D02*
X179239523Y-138361904D01*
X179125238Y-138361904D01*
X179010952Y-138400000D01*
X178934761Y-138476190D01*
X178896666Y-138552380D01*
X178858571Y-138704761D01*
X178858571Y-138819047D01*
X178896666Y-138971428D01*
X178934761Y-139047619D01*
X179010952Y-139123809D01*
X179125238Y-139161904D01*
X179201428Y-139161904D01*
X179315714Y-139123809D01*
X179353809Y-139085714D01*
X179353809Y-138819047D01*
X179201428Y-138819047D01*
X179696666Y-139161904D02*
X179696666Y-138361904D01*
X180153809Y-139161904D01*
X180153809Y-138361904D01*
X180534761Y-139161904D02*
X180534761Y-138361904D01*
X180725238Y-138361904D01*
X180839523Y-138400000D01*
X180915714Y-138476190D01*
X180953809Y-138552380D01*
X180991904Y-138704761D01*
X180991904Y-138819047D01*
X180953809Y-138971428D01*
X180915714Y-139047619D01*
X180839523Y-139123809D01*
X180725238Y-139161904D01*
X180534761Y-139161904D01*
X182287142Y-139161904D02*
X182287142Y-138742857D01*
X182249047Y-138666666D01*
X182172857Y-138628571D01*
X182020476Y-138628571D01*
X181944285Y-138666666D01*
X182287142Y-139123809D02*
X182210952Y-139161904D01*
X182020476Y-139161904D01*
X181944285Y-139123809D01*
X181906190Y-139047619D01*
X181906190Y-138971428D01*
X181944285Y-138895238D01*
X182020476Y-138857142D01*
X182210952Y-138857142D01*
X182287142Y-138819047D01*
X182630000Y-139123809D02*
X182706190Y-139161904D01*
X182858571Y-139161904D01*
X182934761Y-139123809D01*
X182972857Y-139047619D01*
X182972857Y-139009523D01*
X182934761Y-138933333D01*
X182858571Y-138895238D01*
X182744285Y-138895238D01*
X182668095Y-138857142D01*
X182630000Y-138780952D01*
X182630000Y-138742857D01*
X182668095Y-138666666D01*
X182744285Y-138628571D01*
X182858571Y-138628571D01*
X182934761Y-138666666D01*
X174820476Y-140561904D02*
X174820476Y-140028571D01*
X174820476Y-140180952D02*
X174858571Y-140104761D01*
X174896666Y-140066666D01*
X174972857Y-140028571D01*
X175049047Y-140028571D01*
X175620476Y-140523809D02*
X175544285Y-140561904D01*
X175391904Y-140561904D01*
X175315714Y-140523809D01*
X175277619Y-140447619D01*
X175277619Y-140142857D01*
X175315714Y-140066666D01*
X175391904Y-140028571D01*
X175544285Y-140028571D01*
X175620476Y-140066666D01*
X175658571Y-140142857D01*
X175658571Y-140219047D01*
X175277619Y-140295238D01*
X175887142Y-140028571D02*
X176191904Y-140028571D01*
X176001428Y-139761904D02*
X176001428Y-140447619D01*
X176039523Y-140523809D01*
X176115714Y-140561904D01*
X176191904Y-140561904D01*
X176801428Y-140028571D02*
X176801428Y-140561904D01*
X176458571Y-140028571D02*
X176458571Y-140447619D01*
X176496666Y-140523809D01*
X176572857Y-140561904D01*
X176687142Y-140561904D01*
X176763333Y-140523809D01*
X176801428Y-140485714D01*
X177182380Y-140561904D02*
X177182380Y-140028571D01*
X177182380Y-140180952D02*
X177220476Y-140104761D01*
X177258571Y-140066666D01*
X177334761Y-140028571D01*
X177410952Y-140028571D01*
X177677619Y-140028571D02*
X177677619Y-140561904D01*
X177677619Y-140104761D02*
X177715714Y-140066666D01*
X177791904Y-140028571D01*
X177906190Y-140028571D01*
X177982380Y-140066666D01*
X178020476Y-140142857D01*
X178020476Y-140561904D01*
X178896666Y-140028571D02*
X179201428Y-140028571D01*
X179010952Y-140561904D02*
X179010952Y-139876190D01*
X179049047Y-139800000D01*
X179125238Y-139761904D01*
X179201428Y-139761904D01*
X179468095Y-140561904D02*
X179468095Y-140028571D01*
X179468095Y-140180952D02*
X179506190Y-140104761D01*
X179544285Y-140066666D01*
X179620476Y-140028571D01*
X179696666Y-140028571D01*
X180077619Y-140561904D02*
X180001428Y-140523809D01*
X179963333Y-140485714D01*
X179925238Y-140409523D01*
X179925238Y-140180952D01*
X179963333Y-140104761D01*
X180001428Y-140066666D01*
X180077619Y-140028571D01*
X180191904Y-140028571D01*
X180268095Y-140066666D01*
X180306190Y-140104761D01*
X180344285Y-140180952D01*
X180344285Y-140409523D01*
X180306190Y-140485714D01*
X180268095Y-140523809D01*
X180191904Y-140561904D01*
X180077619Y-140561904D01*
X180687142Y-140561904D02*
X180687142Y-140028571D01*
X180687142Y-140104761D02*
X180725238Y-140066666D01*
X180801428Y-140028571D01*
X180915714Y-140028571D01*
X180991904Y-140066666D01*
X181030000Y-140142857D01*
X181030000Y-140561904D01*
X181030000Y-140142857D02*
X181068095Y-140066666D01*
X181144285Y-140028571D01*
X181258571Y-140028571D01*
X181334761Y-140066666D01*
X181372857Y-140142857D01*
X181372857Y-140561904D01*
X182363333Y-140028571D02*
X182363333Y-140828571D01*
X182363333Y-140066666D02*
X182439523Y-140028571D01*
X182591904Y-140028571D01*
X182668095Y-140066666D01*
X182706190Y-140104761D01*
X182744285Y-140180952D01*
X182744285Y-140409523D01*
X182706190Y-140485714D01*
X182668095Y-140523809D01*
X182591904Y-140561904D01*
X182439523Y-140561904D01*
X182363333Y-140523809D01*
X183201428Y-140561904D02*
X183125238Y-140523809D01*
X183087142Y-140485714D01*
X183049047Y-140409523D01*
X183049047Y-140180952D01*
X183087142Y-140104761D01*
X183125238Y-140066666D01*
X183201428Y-140028571D01*
X183315714Y-140028571D01*
X183391904Y-140066666D01*
X183430000Y-140104761D01*
X183468095Y-140180952D01*
X183468095Y-140409523D01*
X183430000Y-140485714D01*
X183391904Y-140523809D01*
X183315714Y-140561904D01*
X183201428Y-140561904D01*
X183696666Y-140028571D02*
X184001428Y-140028571D01*
X183810952Y-139761904D02*
X183810952Y-140447619D01*
X183849047Y-140523809D01*
X183925238Y-140561904D01*
X184001428Y-140561904D01*
X184230000Y-140523809D02*
X184306190Y-140561904D01*
X184458571Y-140561904D01*
X184534761Y-140523809D01*
X184572857Y-140447619D01*
X184572857Y-140409523D01*
X184534761Y-140333333D01*
X184458571Y-140295238D01*
X184344285Y-140295238D01*
X184268095Y-140257142D01*
X184230000Y-140180952D01*
X184230000Y-140142857D01*
X184268095Y-140066666D01*
X184344285Y-140028571D01*
X184458571Y-140028571D01*
X184534761Y-140066666D01*
X210934761Y-68861904D02*
X210934761Y-69052380D01*
X210744285Y-68976190D02*
X210934761Y-69052380D01*
X211125238Y-68976190D01*
X210820476Y-69204761D02*
X210934761Y-69052380D01*
X211049047Y-69204761D01*
X211887142Y-69585714D02*
X211849047Y-69623809D01*
X211734761Y-69661904D01*
X211658571Y-69661904D01*
X211544285Y-69623809D01*
X211468095Y-69547619D01*
X211430000Y-69471428D01*
X211391904Y-69319047D01*
X211391904Y-69204761D01*
X211430000Y-69052380D01*
X211468095Y-68976190D01*
X211544285Y-68900000D01*
X211658571Y-68861904D01*
X211734761Y-68861904D01*
X211849047Y-68900000D01*
X211887142Y-68938095D01*
X212344285Y-69661904D02*
X212268095Y-69623809D01*
X212230000Y-69585714D01*
X212191904Y-69509523D01*
X212191904Y-69280952D01*
X212230000Y-69204761D01*
X212268095Y-69166666D01*
X212344285Y-69128571D01*
X212458571Y-69128571D01*
X212534761Y-69166666D01*
X212572857Y-69204761D01*
X212610952Y-69280952D01*
X212610952Y-69509523D01*
X212572857Y-69585714D01*
X212534761Y-69623809D01*
X212458571Y-69661904D01*
X212344285Y-69661904D01*
X212953809Y-69128571D02*
X212953809Y-69661904D01*
X212953809Y-69204761D02*
X212991904Y-69166666D01*
X213068095Y-69128571D01*
X213182380Y-69128571D01*
X213258571Y-69166666D01*
X213296666Y-69242857D01*
X213296666Y-69661904D01*
X213677619Y-69128571D02*
X213677619Y-69661904D01*
X213677619Y-69204761D02*
X213715714Y-69166666D01*
X213791904Y-69128571D01*
X213906190Y-69128571D01*
X213982380Y-69166666D01*
X214020476Y-69242857D01*
X214020476Y-69661904D01*
X214706190Y-69623809D02*
X214630000Y-69661904D01*
X214477619Y-69661904D01*
X214401428Y-69623809D01*
X214363333Y-69547619D01*
X214363333Y-69242857D01*
X214401428Y-69166666D01*
X214477619Y-69128571D01*
X214630000Y-69128571D01*
X214706190Y-69166666D01*
X214744285Y-69242857D01*
X214744285Y-69319047D01*
X214363333Y-69395238D01*
X215430000Y-69623809D02*
X215353809Y-69661904D01*
X215201428Y-69661904D01*
X215125238Y-69623809D01*
X215087142Y-69585714D01*
X215049047Y-69509523D01*
X215049047Y-69280952D01*
X215087142Y-69204761D01*
X215125238Y-69166666D01*
X215201428Y-69128571D01*
X215353809Y-69128571D01*
X215430000Y-69166666D01*
X215658571Y-69128571D02*
X215963333Y-69128571D01*
X215772857Y-68861904D02*
X215772857Y-69547619D01*
X215810952Y-69623809D01*
X215887142Y-69661904D01*
X215963333Y-69661904D01*
X216534761Y-69623809D02*
X216458571Y-69661904D01*
X216306190Y-69661904D01*
X216230000Y-69623809D01*
X216191904Y-69547619D01*
X216191904Y-69242857D01*
X216230000Y-69166666D01*
X216306190Y-69128571D01*
X216458571Y-69128571D01*
X216534761Y-69166666D01*
X216572857Y-69242857D01*
X216572857Y-69319047D01*
X216191904Y-69395238D01*
X217258571Y-69661904D02*
X217258571Y-68861904D01*
X217258571Y-69623809D02*
X217182380Y-69661904D01*
X217030000Y-69661904D01*
X216953809Y-69623809D01*
X216915714Y-69585714D01*
X216877619Y-69509523D01*
X216877619Y-69280952D01*
X216915714Y-69204761D01*
X216953809Y-69166666D01*
X217030000Y-69128571D01*
X217182380Y-69128571D01*
X217258571Y-69166666D01*
X218249047Y-69661904D02*
X218249047Y-69128571D01*
X218249047Y-68861904D02*
X218210952Y-68900000D01*
X218249047Y-68938095D01*
X218287142Y-68900000D01*
X218249047Y-68861904D01*
X218249047Y-68938095D01*
X218630000Y-69128571D02*
X218630000Y-69661904D01*
X218630000Y-69204761D02*
X218668095Y-69166666D01*
X218744285Y-69128571D01*
X218858571Y-69128571D01*
X218934761Y-69166666D01*
X218972857Y-69242857D01*
X218972857Y-69661904D01*
X220534761Y-68823809D02*
X219849047Y-69852380D01*
X221372857Y-68823809D02*
X220687142Y-69852380D01*
X210744285Y-70528571D02*
X210896666Y-71061904D01*
X211049047Y-70680952D01*
X211201428Y-71061904D01*
X211353809Y-70528571D01*
X211658571Y-71061904D02*
X211658571Y-70528571D01*
X211658571Y-70261904D02*
X211620476Y-70300000D01*
X211658571Y-70338095D01*
X211696666Y-70300000D01*
X211658571Y-70261904D01*
X211658571Y-70338095D01*
X211925238Y-70528571D02*
X212230000Y-70528571D01*
X212039523Y-70261904D02*
X212039523Y-70947619D01*
X212077619Y-71023809D01*
X212153809Y-71061904D01*
X212230000Y-71061904D01*
X212496666Y-71061904D02*
X212496666Y-70261904D01*
X212839523Y-71061904D02*
X212839523Y-70642857D01*
X212801428Y-70566666D01*
X212725238Y-70528571D01*
X212610952Y-70528571D01*
X212534761Y-70566666D01*
X212496666Y-70604761D01*
X214287142Y-71061904D02*
X214020476Y-70680952D01*
X213830000Y-71061904D02*
X213830000Y-70261904D01*
X214134761Y-70261904D01*
X214210952Y-70300000D01*
X214249047Y-70338095D01*
X214287142Y-70414285D01*
X214287142Y-70528571D01*
X214249047Y-70604761D01*
X214210952Y-70642857D01*
X214134761Y-70680952D01*
X213830000Y-70680952D01*
X214439523Y-71138095D02*
X215049047Y-71138095D01*
X215239523Y-71061904D02*
X215239523Y-70261904D01*
X215315714Y-70757142D02*
X215544285Y-71061904D01*
X215544285Y-70528571D02*
X215239523Y-70833333D01*
X215849047Y-70338095D02*
X215887142Y-70300000D01*
X215963333Y-70261904D01*
X216153809Y-70261904D01*
X216230000Y-70300000D01*
X216268095Y-70338095D01*
X216306190Y-70414285D01*
X216306190Y-70490476D01*
X216268095Y-70604761D01*
X215810952Y-71061904D01*
X216306190Y-71061904D01*
X191434761Y-137861904D02*
X191434761Y-138052380D01*
X191244285Y-137976190D02*
X191434761Y-138052380D01*
X191625238Y-137976190D01*
X191320476Y-138204761D02*
X191434761Y-138052380D01*
X191549047Y-138204761D01*
X192387142Y-138585714D02*
X192349047Y-138623809D01*
X192234761Y-138661904D01*
X192158571Y-138661904D01*
X192044285Y-138623809D01*
X191968095Y-138547619D01*
X191930000Y-138471428D01*
X191891904Y-138319047D01*
X191891904Y-138204761D01*
X191930000Y-138052380D01*
X191968095Y-137976190D01*
X192044285Y-137900000D01*
X192158571Y-137861904D01*
X192234761Y-137861904D01*
X192349047Y-137900000D01*
X192387142Y-137938095D01*
X192844285Y-138661904D02*
X192768095Y-138623809D01*
X192730000Y-138585714D01*
X192691904Y-138509523D01*
X192691904Y-138280952D01*
X192730000Y-138204761D01*
X192768095Y-138166666D01*
X192844285Y-138128571D01*
X192958571Y-138128571D01*
X193034761Y-138166666D01*
X193072857Y-138204761D01*
X193110952Y-138280952D01*
X193110952Y-138509523D01*
X193072857Y-138585714D01*
X193034761Y-138623809D01*
X192958571Y-138661904D01*
X192844285Y-138661904D01*
X193453809Y-138128571D02*
X193453809Y-138661904D01*
X193453809Y-138204761D02*
X193491904Y-138166666D01*
X193568095Y-138128571D01*
X193682380Y-138128571D01*
X193758571Y-138166666D01*
X193796666Y-138242857D01*
X193796666Y-138661904D01*
X194177619Y-138128571D02*
X194177619Y-138661904D01*
X194177619Y-138204761D02*
X194215714Y-138166666D01*
X194291904Y-138128571D01*
X194406190Y-138128571D01*
X194482380Y-138166666D01*
X194520476Y-138242857D01*
X194520476Y-138661904D01*
X195206190Y-138623809D02*
X195130000Y-138661904D01*
X194977619Y-138661904D01*
X194901428Y-138623809D01*
X194863333Y-138547619D01*
X194863333Y-138242857D01*
X194901428Y-138166666D01*
X194977619Y-138128571D01*
X195130000Y-138128571D01*
X195206190Y-138166666D01*
X195244285Y-138242857D01*
X195244285Y-138319047D01*
X194863333Y-138395238D01*
X195930000Y-138623809D02*
X195853809Y-138661904D01*
X195701428Y-138661904D01*
X195625238Y-138623809D01*
X195587142Y-138585714D01*
X195549047Y-138509523D01*
X195549047Y-138280952D01*
X195587142Y-138204761D01*
X195625238Y-138166666D01*
X195701428Y-138128571D01*
X195853809Y-138128571D01*
X195930000Y-138166666D01*
X196158571Y-138128571D02*
X196463333Y-138128571D01*
X196272857Y-137861904D02*
X196272857Y-138547619D01*
X196310952Y-138623809D01*
X196387142Y-138661904D01*
X196463333Y-138661904D01*
X197034761Y-138623809D02*
X196958571Y-138661904D01*
X196806190Y-138661904D01*
X196730000Y-138623809D01*
X196691904Y-138547619D01*
X196691904Y-138242857D01*
X196730000Y-138166666D01*
X196806190Y-138128571D01*
X196958571Y-138128571D01*
X197034761Y-138166666D01*
X197072857Y-138242857D01*
X197072857Y-138319047D01*
X196691904Y-138395238D01*
X197758571Y-138661904D02*
X197758571Y-137861904D01*
X197758571Y-138623809D02*
X197682380Y-138661904D01*
X197530000Y-138661904D01*
X197453809Y-138623809D01*
X197415714Y-138585714D01*
X197377619Y-138509523D01*
X197377619Y-138280952D01*
X197415714Y-138204761D01*
X197453809Y-138166666D01*
X197530000Y-138128571D01*
X197682380Y-138128571D01*
X197758571Y-138166666D01*
X198749047Y-138661904D02*
X198749047Y-138128571D01*
X198749047Y-137861904D02*
X198710952Y-137900000D01*
X198749047Y-137938095D01*
X198787142Y-137900000D01*
X198749047Y-137861904D01*
X198749047Y-137938095D01*
X199130000Y-138128571D02*
X199130000Y-138661904D01*
X199130000Y-138204761D02*
X199168095Y-138166666D01*
X199244285Y-138128571D01*
X199358571Y-138128571D01*
X199434761Y-138166666D01*
X199472857Y-138242857D01*
X199472857Y-138661904D01*
X201034761Y-137823809D02*
X200349047Y-138852380D01*
X201872857Y-137823809D02*
X201187142Y-138852380D01*
X191244285Y-139528571D02*
X191396666Y-140061904D01*
X191549047Y-139680952D01*
X191701428Y-140061904D01*
X191853809Y-139528571D01*
X192158571Y-140061904D02*
X192158571Y-139528571D01*
X192158571Y-139261904D02*
X192120476Y-139300000D01*
X192158571Y-139338095D01*
X192196666Y-139300000D01*
X192158571Y-139261904D01*
X192158571Y-139338095D01*
X192425238Y-139528571D02*
X192730000Y-139528571D01*
X192539523Y-139261904D02*
X192539523Y-139947619D01*
X192577619Y-140023809D01*
X192653809Y-140061904D01*
X192730000Y-140061904D01*
X192996666Y-140061904D02*
X192996666Y-139261904D01*
X193339523Y-140061904D02*
X193339523Y-139642857D01*
X193301428Y-139566666D01*
X193225238Y-139528571D01*
X193110952Y-139528571D01*
X193034761Y-139566666D01*
X192996666Y-139604761D01*
X194787142Y-140061904D02*
X194520476Y-139680952D01*
X194330000Y-140061904D02*
X194330000Y-139261904D01*
X194634761Y-139261904D01*
X194710952Y-139300000D01*
X194749047Y-139338095D01*
X194787142Y-139414285D01*
X194787142Y-139528571D01*
X194749047Y-139604761D01*
X194710952Y-139642857D01*
X194634761Y-139680952D01*
X194330000Y-139680952D01*
X194939523Y-140138095D02*
X195549047Y-140138095D01*
X195739523Y-140061904D02*
X195739523Y-139261904D01*
X195815714Y-139757142D02*
X196044285Y-140061904D01*
X196044285Y-139528571D02*
X195739523Y-139833333D01*
X196806190Y-140061904D02*
X196349047Y-140061904D01*
X196577619Y-140061904D02*
X196577619Y-139261904D01*
X196501428Y-139376190D01*
X196425238Y-139452380D01*
X196349047Y-139490476D01*
X174934761Y-135361904D02*
X174934761Y-135552380D01*
X174744285Y-135476190D02*
X174934761Y-135552380D01*
X175125238Y-135476190D01*
X174820476Y-135704761D02*
X174934761Y-135552380D01*
X175049047Y-135704761D01*
X175430000Y-135361904D02*
X175430000Y-136009523D01*
X175468095Y-136085714D01*
X175506190Y-136123809D01*
X175582380Y-136161904D01*
X175734761Y-136161904D01*
X175810952Y-136123809D01*
X175849047Y-136085714D01*
X175887142Y-136009523D01*
X175887142Y-135361904D01*
X176230000Y-136123809D02*
X176306190Y-136161904D01*
X176458571Y-136161904D01*
X176534761Y-136123809D01*
X176572857Y-136047619D01*
X176572857Y-136009523D01*
X176534761Y-135933333D01*
X176458571Y-135895238D01*
X176344285Y-135895238D01*
X176268095Y-135857142D01*
X176230000Y-135780952D01*
X176230000Y-135742857D01*
X176268095Y-135666666D01*
X176344285Y-135628571D01*
X176458571Y-135628571D01*
X176534761Y-135666666D01*
X177220476Y-136123809D02*
X177144285Y-136161904D01*
X176991904Y-136161904D01*
X176915714Y-136123809D01*
X176877619Y-136047619D01*
X176877619Y-135742857D01*
X176915714Y-135666666D01*
X176991904Y-135628571D01*
X177144285Y-135628571D01*
X177220476Y-135666666D01*
X177258571Y-135742857D01*
X177258571Y-135819047D01*
X176877619Y-135895238D01*
X178630000Y-135400000D02*
X178553809Y-135361904D01*
X178439523Y-135361904D01*
X178325238Y-135400000D01*
X178249047Y-135476190D01*
X178210952Y-135552380D01*
X178172857Y-135704761D01*
X178172857Y-135819047D01*
X178210952Y-135971428D01*
X178249047Y-136047619D01*
X178325238Y-136123809D01*
X178439523Y-136161904D01*
X178515714Y-136161904D01*
X178630000Y-136123809D01*
X178668095Y-136085714D01*
X178668095Y-135819047D01*
X178515714Y-135819047D01*
X179010952Y-136161904D02*
X179010952Y-135361904D01*
X179468095Y-136161904D01*
X179468095Y-135361904D01*
X179849047Y-136161904D02*
X179849047Y-135361904D01*
X180039523Y-135361904D01*
X180153809Y-135400000D01*
X180230000Y-135476190D01*
X180268095Y-135552380D01*
X180306190Y-135704761D01*
X180306190Y-135819047D01*
X180268095Y-135971428D01*
X180230000Y-136047619D01*
X180153809Y-136123809D01*
X180039523Y-136161904D01*
X179849047Y-136161904D01*
X181144285Y-135628571D02*
X181449047Y-135628571D01*
X181258571Y-136161904D02*
X181258571Y-135476190D01*
X181296666Y-135400000D01*
X181372857Y-135361904D01*
X181449047Y-135361904D01*
X181830000Y-136161904D02*
X181753809Y-136123809D01*
X181715714Y-136085714D01*
X181677619Y-136009523D01*
X181677619Y-135780952D01*
X181715714Y-135704761D01*
X181753809Y-135666666D01*
X181830000Y-135628571D01*
X181944285Y-135628571D01*
X182020476Y-135666666D01*
X182058571Y-135704761D01*
X182096666Y-135780952D01*
X182096666Y-136009523D01*
X182058571Y-136085714D01*
X182020476Y-136123809D01*
X181944285Y-136161904D01*
X181830000Y-136161904D01*
X182439523Y-136161904D02*
X182439523Y-135628571D01*
X182439523Y-135780952D02*
X182477619Y-135704761D01*
X182515714Y-135666666D01*
X182591904Y-135628571D01*
X182668095Y-135628571D01*
X174744285Y-137028571D02*
X174896666Y-137561904D01*
X175049047Y-137180952D01*
X175201428Y-137561904D01*
X175353809Y-137028571D01*
X175658571Y-137561904D02*
X175658571Y-137028571D01*
X175658571Y-136761904D02*
X175620476Y-136800000D01*
X175658571Y-136838095D01*
X175696666Y-136800000D01*
X175658571Y-136761904D01*
X175658571Y-136838095D01*
X176039523Y-137561904D02*
X176039523Y-137028571D01*
X176039523Y-137180952D02*
X176077619Y-137104761D01*
X176115714Y-137066666D01*
X176191904Y-137028571D01*
X176268095Y-137028571D01*
X176839523Y-137523809D02*
X176763333Y-137561904D01*
X176610952Y-137561904D01*
X176534761Y-137523809D01*
X176496666Y-137447619D01*
X176496666Y-137142857D01*
X176534761Y-137066666D01*
X176610952Y-137028571D01*
X176763333Y-137028571D01*
X176839523Y-137066666D01*
X176877619Y-137142857D01*
X176877619Y-137219047D01*
X176496666Y-137295238D01*
X177791904Y-137523809D02*
X177868095Y-137561904D01*
X178020476Y-137561904D01*
X178096666Y-137523809D01*
X178134761Y-137447619D01*
X178134761Y-137409523D01*
X178096666Y-137333333D01*
X178020476Y-137295238D01*
X177906190Y-137295238D01*
X177830000Y-137257142D01*
X177791904Y-137180952D01*
X177791904Y-137142857D01*
X177830000Y-137066666D01*
X177906190Y-137028571D01*
X178020476Y-137028571D01*
X178096666Y-137066666D01*
X178477619Y-137561904D02*
X178477619Y-136761904D01*
X178820476Y-137561904D02*
X178820476Y-137142857D01*
X178782380Y-137066666D01*
X178706190Y-137028571D01*
X178591904Y-137028571D01*
X178515714Y-137066666D01*
X178477619Y-137104761D01*
X179201428Y-137561904D02*
X179201428Y-137028571D01*
X179201428Y-136761904D02*
X179163333Y-136800000D01*
X179201428Y-136838095D01*
X179239523Y-136800000D01*
X179201428Y-136761904D01*
X179201428Y-136838095D01*
X179887142Y-137523809D02*
X179810952Y-137561904D01*
X179658571Y-137561904D01*
X179582380Y-137523809D01*
X179544285Y-137447619D01*
X179544285Y-137142857D01*
X179582380Y-137066666D01*
X179658571Y-137028571D01*
X179810952Y-137028571D01*
X179887142Y-137066666D01*
X179925238Y-137142857D01*
X179925238Y-137219047D01*
X179544285Y-137295238D01*
X180382380Y-137561904D02*
X180306190Y-137523809D01*
X180268095Y-137447619D01*
X180268095Y-136761904D01*
X181030000Y-137561904D02*
X181030000Y-136761904D01*
X181030000Y-137523809D02*
X180953809Y-137561904D01*
X180801428Y-137561904D01*
X180725238Y-137523809D01*
X180687142Y-137485714D01*
X180649047Y-137409523D01*
X180649047Y-137180952D01*
X180687142Y-137104761D01*
X180725238Y-137066666D01*
X180801428Y-137028571D01*
X180953809Y-137028571D01*
X181030000Y-137066666D01*
X181410952Y-137561904D02*
X181410952Y-137028571D01*
X181410952Y-136761904D02*
X181372857Y-136800000D01*
X181410952Y-136838095D01*
X181449047Y-136800000D01*
X181410952Y-136761904D01*
X181410952Y-136838095D01*
X181791904Y-137028571D02*
X181791904Y-137561904D01*
X181791904Y-137104761D02*
X181830000Y-137066666D01*
X181906190Y-137028571D01*
X182020476Y-137028571D01*
X182096666Y-137066666D01*
X182134761Y-137142857D01*
X182134761Y-137561904D01*
X182858571Y-137028571D02*
X182858571Y-137676190D01*
X182820476Y-137752380D01*
X182782380Y-137790476D01*
X182706190Y-137828571D01*
X182591904Y-137828571D01*
X182515714Y-137790476D01*
X182858571Y-137523809D02*
X182782380Y-137561904D01*
X182630000Y-137561904D01*
X182553809Y-137523809D01*
X182515714Y-137485714D01*
X182477619Y-137409523D01*
X182477619Y-137180952D01*
X182515714Y-137104761D01*
X182553809Y-137066666D01*
X182630000Y-137028571D01*
X182782380Y-137028571D01*
X182858571Y-137066666D01*
X220800000Y-126260476D02*
X220761904Y-126336666D01*
X220761904Y-126450952D01*
X220800000Y-126565238D01*
X220876190Y-126641428D01*
X220952380Y-126679523D01*
X221104761Y-126717619D01*
X221219047Y-126717619D01*
X221371428Y-126679523D01*
X221447619Y-126641428D01*
X221523809Y-126565238D01*
X221561904Y-126450952D01*
X221561904Y-126374761D01*
X221523809Y-126260476D01*
X221485714Y-126222380D01*
X221219047Y-126222380D01*
X221219047Y-126374761D01*
X221561904Y-125879523D02*
X220761904Y-125879523D01*
X221561904Y-125422380D01*
X220761904Y-125422380D01*
X221561904Y-125041428D02*
X220761904Y-125041428D01*
X220761904Y-124850952D01*
X220800000Y-124736666D01*
X220876190Y-124660476D01*
X220952380Y-124622380D01*
X221104761Y-124584285D01*
X221219047Y-124584285D01*
X221371428Y-124622380D01*
X221447619Y-124660476D01*
X221523809Y-124736666D01*
X221561904Y-124850952D01*
X221561904Y-125041428D01*
X221142857Y-123631904D02*
X221142857Y-123022380D01*
X221371428Y-123022380D02*
X221371428Y-123631904D01*
X221523809Y-121689047D02*
X221561904Y-121765238D01*
X221561904Y-121917619D01*
X221523809Y-121993809D01*
X221485714Y-122031904D01*
X221409523Y-122070000D01*
X221180952Y-122070000D01*
X221104761Y-122031904D01*
X221066666Y-121993809D01*
X221028571Y-121917619D01*
X221028571Y-121765238D01*
X221066666Y-121689047D01*
X221561904Y-121346190D02*
X220761904Y-121346190D01*
X221561904Y-121003333D02*
X221142857Y-121003333D01*
X221066666Y-121041428D01*
X221028571Y-121117619D01*
X221028571Y-121231904D01*
X221066666Y-121308095D01*
X221104761Y-121346190D01*
X221561904Y-120279523D02*
X221142857Y-120279523D01*
X221066666Y-120317619D01*
X221028571Y-120393809D01*
X221028571Y-120546190D01*
X221066666Y-120622380D01*
X221523809Y-120279523D02*
X221561904Y-120355714D01*
X221561904Y-120546190D01*
X221523809Y-120622380D01*
X221447619Y-120660476D01*
X221371428Y-120660476D01*
X221295238Y-120622380D01*
X221257142Y-120546190D01*
X221257142Y-120355714D01*
X221219047Y-120279523D01*
X221523809Y-119936666D02*
X221561904Y-119860476D01*
X221561904Y-119708095D01*
X221523809Y-119631904D01*
X221447619Y-119593809D01*
X221409523Y-119593809D01*
X221333333Y-119631904D01*
X221295238Y-119708095D01*
X221295238Y-119822380D01*
X221257142Y-119898571D01*
X221180952Y-119936666D01*
X221142857Y-119936666D01*
X221066666Y-119898571D01*
X221028571Y-119822380D01*
X221028571Y-119708095D01*
X221066666Y-119631904D01*
X221523809Y-119289047D02*
X221561904Y-119212857D01*
X221561904Y-119060476D01*
X221523809Y-118984285D01*
X221447619Y-118946190D01*
X221409523Y-118946190D01*
X221333333Y-118984285D01*
X221295238Y-119060476D01*
X221295238Y-119174761D01*
X221257142Y-119250952D01*
X221180952Y-119289047D01*
X221142857Y-119289047D01*
X221066666Y-119250952D01*
X221028571Y-119174761D01*
X221028571Y-119060476D01*
X221066666Y-118984285D01*
X221561904Y-118603333D02*
X221028571Y-118603333D01*
X220761904Y-118603333D02*
X220800000Y-118641428D01*
X220838095Y-118603333D01*
X220800000Y-118565238D01*
X220761904Y-118603333D01*
X220838095Y-118603333D01*
X221523809Y-118260476D02*
X221561904Y-118184285D01*
X221561904Y-118031904D01*
X221523809Y-117955714D01*
X221447619Y-117917619D01*
X221409523Y-117917619D01*
X221333333Y-117955714D01*
X221295238Y-118031904D01*
X221295238Y-118146190D01*
X221257142Y-118222380D01*
X221180952Y-118260476D01*
X221142857Y-118260476D01*
X221066666Y-118222380D01*
X221028571Y-118146190D01*
X221028571Y-118031904D01*
X221066666Y-117955714D01*
X221028571Y-116622380D02*
X221676190Y-116622380D01*
X221752380Y-116660476D01*
X221790476Y-116698571D01*
X221828571Y-116774761D01*
X221828571Y-116889047D01*
X221790476Y-116965238D01*
X221523809Y-116622380D02*
X221561904Y-116698571D01*
X221561904Y-116850952D01*
X221523809Y-116927142D01*
X221485714Y-116965238D01*
X221409523Y-117003333D01*
X221180952Y-117003333D01*
X221104761Y-116965238D01*
X221066666Y-116927142D01*
X221028571Y-116850952D01*
X221028571Y-116698571D01*
X221066666Y-116622380D01*
X221561904Y-116241428D02*
X221028571Y-116241428D01*
X221180952Y-116241428D02*
X221104761Y-116203333D01*
X221066666Y-116165238D01*
X221028571Y-116089047D01*
X221028571Y-116012857D01*
X221561904Y-115631904D02*
X221523809Y-115708095D01*
X221485714Y-115746190D01*
X221409523Y-115784285D01*
X221180952Y-115784285D01*
X221104761Y-115746190D01*
X221066666Y-115708095D01*
X221028571Y-115631904D01*
X221028571Y-115517619D01*
X221066666Y-115441428D01*
X221104761Y-115403333D01*
X221180952Y-115365238D01*
X221409523Y-115365238D01*
X221485714Y-115403333D01*
X221523809Y-115441428D01*
X221561904Y-115517619D01*
X221561904Y-115631904D01*
X221028571Y-114679523D02*
X221561904Y-114679523D01*
X221028571Y-115022380D02*
X221447619Y-115022380D01*
X221523809Y-114984285D01*
X221561904Y-114908095D01*
X221561904Y-114793809D01*
X221523809Y-114717619D01*
X221485714Y-114679523D01*
X221028571Y-114298571D02*
X221561904Y-114298571D01*
X221104761Y-114298571D02*
X221066666Y-114260476D01*
X221028571Y-114184285D01*
X221028571Y-114070000D01*
X221066666Y-113993809D01*
X221142857Y-113955714D01*
X221561904Y-113955714D01*
X221561904Y-113231904D02*
X220761904Y-113231904D01*
X221523809Y-113231904D02*
X221561904Y-113308095D01*
X221561904Y-113460476D01*
X221523809Y-113536666D01*
X221485714Y-113574761D01*
X221409523Y-113612857D01*
X221180952Y-113612857D01*
X221104761Y-113574761D01*
X221066666Y-113536666D01*
X221028571Y-113460476D01*
X221028571Y-113308095D01*
X221066666Y-113231904D01*
X222733333Y-126717619D02*
X222733333Y-126336666D01*
X222961904Y-126793809D02*
X222161904Y-126527142D01*
X222961904Y-126260476D01*
X222200000Y-125574761D02*
X222161904Y-125650952D01*
X222161904Y-125765238D01*
X222200000Y-125879523D01*
X222276190Y-125955714D01*
X222352380Y-125993809D01*
X222504761Y-126031904D01*
X222619047Y-126031904D01*
X222771428Y-125993809D01*
X222847619Y-125955714D01*
X222923809Y-125879523D01*
X222961904Y-125765238D01*
X222961904Y-125689047D01*
X222923809Y-125574761D01*
X222885714Y-125536666D01*
X222619047Y-125536666D01*
X222619047Y-125689047D01*
X222961904Y-125193809D02*
X222161904Y-125193809D01*
X222961904Y-124736666D01*
X222161904Y-124736666D01*
X222961904Y-124355714D02*
X222161904Y-124355714D01*
X222161904Y-124165238D01*
X222200000Y-124050952D01*
X222276190Y-123974761D01*
X222352380Y-123936666D01*
X222504761Y-123898571D01*
X222619047Y-123898571D01*
X222771428Y-123936666D01*
X222847619Y-123974761D01*
X222923809Y-124050952D01*
X222961904Y-124165238D01*
X222961904Y-124355714D01*
X222542857Y-122946190D02*
X222542857Y-122336666D01*
X222771428Y-122336666D02*
X222771428Y-122946190D01*
X222961904Y-121003333D02*
X222542857Y-121003333D01*
X222466666Y-121041428D01*
X222428571Y-121117619D01*
X222428571Y-121270000D01*
X222466666Y-121346190D01*
X222923809Y-121003333D02*
X222961904Y-121079523D01*
X222961904Y-121270000D01*
X222923809Y-121346190D01*
X222847619Y-121384285D01*
X222771428Y-121384285D01*
X222695238Y-121346190D01*
X222657142Y-121270000D01*
X222657142Y-121079523D01*
X222619047Y-121003333D01*
X222428571Y-120279523D02*
X222961904Y-120279523D01*
X222428571Y-120622380D02*
X222847619Y-120622380D01*
X222923809Y-120584285D01*
X222961904Y-120508095D01*
X222961904Y-120393809D01*
X222923809Y-120317619D01*
X222885714Y-120279523D01*
X222961904Y-119555714D02*
X222161904Y-119555714D01*
X222923809Y-119555714D02*
X222961904Y-119631904D01*
X222961904Y-119784285D01*
X222923809Y-119860476D01*
X222885714Y-119898571D01*
X222809523Y-119936666D01*
X222580952Y-119936666D01*
X222504761Y-119898571D01*
X222466666Y-119860476D01*
X222428571Y-119784285D01*
X222428571Y-119631904D01*
X222466666Y-119555714D01*
X222961904Y-119174761D02*
X222428571Y-119174761D01*
X222161904Y-119174761D02*
X222200000Y-119212857D01*
X222238095Y-119174761D01*
X222200000Y-119136666D01*
X222161904Y-119174761D01*
X222238095Y-119174761D01*
X222961904Y-118679523D02*
X222923809Y-118755714D01*
X222885714Y-118793809D01*
X222809523Y-118831904D01*
X222580952Y-118831904D01*
X222504761Y-118793809D01*
X222466666Y-118755714D01*
X222428571Y-118679523D01*
X222428571Y-118565238D01*
X222466666Y-118489047D01*
X222504761Y-118450952D01*
X222580952Y-118412857D01*
X222809523Y-118412857D01*
X222885714Y-118450952D01*
X222923809Y-118489047D01*
X222961904Y-118565238D01*
X222961904Y-118679523D01*
X222428571Y-117117619D02*
X223076190Y-117117619D01*
X223152380Y-117155714D01*
X223190476Y-117193809D01*
X223228571Y-117270000D01*
X223228571Y-117384285D01*
X223190476Y-117460476D01*
X222923809Y-117117619D02*
X222961904Y-117193809D01*
X222961904Y-117346190D01*
X222923809Y-117422380D01*
X222885714Y-117460476D01*
X222809523Y-117498571D01*
X222580952Y-117498571D01*
X222504761Y-117460476D01*
X222466666Y-117422380D01*
X222428571Y-117346190D01*
X222428571Y-117193809D01*
X222466666Y-117117619D01*
X222961904Y-116736666D02*
X222428571Y-116736666D01*
X222580952Y-116736666D02*
X222504761Y-116698571D01*
X222466666Y-116660476D01*
X222428571Y-116584285D01*
X222428571Y-116508095D01*
X222961904Y-116127142D02*
X222923809Y-116203333D01*
X222885714Y-116241428D01*
X222809523Y-116279523D01*
X222580952Y-116279523D01*
X222504761Y-116241428D01*
X222466666Y-116203333D01*
X222428571Y-116127142D01*
X222428571Y-116012857D01*
X222466666Y-115936666D01*
X222504761Y-115898571D01*
X222580952Y-115860476D01*
X222809523Y-115860476D01*
X222885714Y-115898571D01*
X222923809Y-115936666D01*
X222961904Y-116012857D01*
X222961904Y-116127142D01*
X222428571Y-115174761D02*
X222961904Y-115174761D01*
X222428571Y-115517619D02*
X222847619Y-115517619D01*
X222923809Y-115479523D01*
X222961904Y-115403333D01*
X222961904Y-115289047D01*
X222923809Y-115212857D01*
X222885714Y-115174761D01*
X222428571Y-114793809D02*
X222961904Y-114793809D01*
X222504761Y-114793809D02*
X222466666Y-114755714D01*
X222428571Y-114679523D01*
X222428571Y-114565238D01*
X222466666Y-114489047D01*
X222542857Y-114450952D01*
X222961904Y-114450952D01*
X222961904Y-113727142D02*
X222161904Y-113727142D01*
X222923809Y-113727142D02*
X222961904Y-113803333D01*
X222961904Y-113955714D01*
X222923809Y-114031904D01*
X222885714Y-114070000D01*
X222809523Y-114108095D01*
X222580952Y-114108095D01*
X222504761Y-114070000D01*
X222466666Y-114031904D01*
X222428571Y-113955714D01*
X222428571Y-113803333D01*
X222466666Y-113727142D01*
X223561904Y-126679523D02*
X224209523Y-126679523D01*
X224285714Y-126641428D01*
X224323809Y-126603333D01*
X224361904Y-126527142D01*
X224361904Y-126374761D01*
X224323809Y-126298571D01*
X224285714Y-126260476D01*
X224209523Y-126222380D01*
X223561904Y-126222380D01*
X224323809Y-125879523D02*
X224361904Y-125803333D01*
X224361904Y-125650952D01*
X224323809Y-125574761D01*
X224247619Y-125536666D01*
X224209523Y-125536666D01*
X224133333Y-125574761D01*
X224095238Y-125650952D01*
X224095238Y-125765238D01*
X224057142Y-125841428D01*
X223980952Y-125879523D01*
X223942857Y-125879523D01*
X223866666Y-125841428D01*
X223828571Y-125765238D01*
X223828571Y-125650952D01*
X223866666Y-125574761D01*
X224323809Y-124889047D02*
X224361904Y-124965238D01*
X224361904Y-125117619D01*
X224323809Y-125193809D01*
X224247619Y-125231904D01*
X223942857Y-125231904D01*
X223866666Y-125193809D01*
X223828571Y-125117619D01*
X223828571Y-124965238D01*
X223866666Y-124889047D01*
X223942857Y-124850952D01*
X224019047Y-124850952D01*
X224095238Y-125231904D01*
X223828571Y-123898571D02*
X224514285Y-123898571D01*
X224590476Y-123936666D01*
X224628571Y-124012857D01*
X224628571Y-124050952D01*
X223561904Y-123898571D02*
X223600000Y-123936666D01*
X223638095Y-123898571D01*
X223600000Y-123860476D01*
X223561904Y-123898571D01*
X223638095Y-123898571D01*
X223828571Y-123174761D02*
X224361904Y-123174761D01*
X223828571Y-123517619D02*
X224247619Y-123517619D01*
X224323809Y-123479523D01*
X224361904Y-123403333D01*
X224361904Y-123289047D01*
X224323809Y-123212857D01*
X224285714Y-123174761D01*
X224361904Y-122793809D02*
X223828571Y-122793809D01*
X223904761Y-122793809D02*
X223866666Y-122755714D01*
X223828571Y-122679523D01*
X223828571Y-122565238D01*
X223866666Y-122489047D01*
X223942857Y-122450952D01*
X224361904Y-122450952D01*
X223942857Y-122450952D02*
X223866666Y-122412857D01*
X223828571Y-122336666D01*
X223828571Y-122222380D01*
X223866666Y-122146190D01*
X223942857Y-122108095D01*
X224361904Y-122108095D01*
X223828571Y-121727142D02*
X224628571Y-121727142D01*
X223866666Y-121727142D02*
X223828571Y-121650952D01*
X223828571Y-121498571D01*
X223866666Y-121422380D01*
X223904761Y-121384285D01*
X223980952Y-121346190D01*
X224209523Y-121346190D01*
X224285714Y-121384285D01*
X224323809Y-121422380D01*
X224361904Y-121498571D01*
X224361904Y-121650952D01*
X224323809Y-121727142D01*
X224323809Y-120698571D02*
X224361904Y-120774761D01*
X224361904Y-120927142D01*
X224323809Y-121003333D01*
X224247619Y-121041428D01*
X223942857Y-121041428D01*
X223866666Y-121003333D01*
X223828571Y-120927142D01*
X223828571Y-120774761D01*
X223866666Y-120698571D01*
X223942857Y-120660476D01*
X224019047Y-120660476D01*
X224095238Y-121041428D01*
X224361904Y-120317619D02*
X223828571Y-120317619D01*
X223980952Y-120317619D02*
X223904761Y-120279523D01*
X223866666Y-120241428D01*
X223828571Y-120165238D01*
X223828571Y-120089047D01*
X223828571Y-119289047D02*
X224361904Y-119136666D01*
X223980952Y-118984285D01*
X224361904Y-118831904D01*
X223828571Y-118679523D01*
X224361904Y-118374761D02*
X223828571Y-118374761D01*
X223561904Y-118374761D02*
X223600000Y-118412857D01*
X223638095Y-118374761D01*
X223600000Y-118336666D01*
X223561904Y-118374761D01*
X223638095Y-118374761D01*
X224361904Y-117993809D02*
X223828571Y-117993809D01*
X223980952Y-117993809D02*
X223904761Y-117955714D01*
X223866666Y-117917619D01*
X223828571Y-117841428D01*
X223828571Y-117765238D01*
X224323809Y-117193809D02*
X224361904Y-117270000D01*
X224361904Y-117422380D01*
X224323809Y-117498571D01*
X224247619Y-117536666D01*
X223942857Y-117536666D01*
X223866666Y-117498571D01*
X223828571Y-117422380D01*
X223828571Y-117270000D01*
X223866666Y-117193809D01*
X223942857Y-117155714D01*
X224019047Y-117155714D01*
X224095238Y-117536666D01*
X224323809Y-116850952D02*
X224361904Y-116774761D01*
X224361904Y-116622380D01*
X224323809Y-116546190D01*
X224247619Y-116508095D01*
X224209523Y-116508095D01*
X224133333Y-116546190D01*
X224095238Y-116622380D01*
X224095238Y-116736666D01*
X224057142Y-116812857D01*
X223980952Y-116850952D01*
X223942857Y-116850952D01*
X223866666Y-116812857D01*
X223828571Y-116736666D01*
X223828571Y-116622380D01*
X223866666Y-116546190D01*
X225228571Y-126755714D02*
X225761904Y-126603333D01*
X225380952Y-126450952D01*
X225761904Y-126298571D01*
X225228571Y-126146190D01*
X225761904Y-125841428D02*
X224961904Y-125841428D01*
X225761904Y-125498571D02*
X225342857Y-125498571D01*
X225266666Y-125536666D01*
X225228571Y-125612857D01*
X225228571Y-125727142D01*
X225266666Y-125803333D01*
X225304761Y-125841428D01*
X225723809Y-124812857D02*
X225761904Y-124889047D01*
X225761904Y-125041428D01*
X225723809Y-125117619D01*
X225647619Y-125155714D01*
X225342857Y-125155714D01*
X225266666Y-125117619D01*
X225228571Y-125041428D01*
X225228571Y-124889047D01*
X225266666Y-124812857D01*
X225342857Y-124774761D01*
X225419047Y-124774761D01*
X225495238Y-125155714D01*
X225761904Y-124431904D02*
X225228571Y-124431904D01*
X225380952Y-124431904D02*
X225304761Y-124393809D01*
X225266666Y-124355714D01*
X225228571Y-124279523D01*
X225228571Y-124203333D01*
X225723809Y-123631904D02*
X225761904Y-123708095D01*
X225761904Y-123860476D01*
X225723809Y-123936666D01*
X225647619Y-123974761D01*
X225342857Y-123974761D01*
X225266666Y-123936666D01*
X225228571Y-123860476D01*
X225228571Y-123708095D01*
X225266666Y-123631904D01*
X225342857Y-123593809D01*
X225419047Y-123593809D01*
X225495238Y-123974761D01*
X225228571Y-122641428D02*
X225761904Y-122641428D01*
X225304761Y-122641428D02*
X225266666Y-122603333D01*
X225228571Y-122527142D01*
X225228571Y-122412857D01*
X225266666Y-122336666D01*
X225342857Y-122298571D01*
X225761904Y-122298571D01*
X225723809Y-121612857D02*
X225761904Y-121689047D01*
X225761904Y-121841428D01*
X225723809Y-121917619D01*
X225647619Y-121955714D01*
X225342857Y-121955714D01*
X225266666Y-121917619D01*
X225228571Y-121841428D01*
X225228571Y-121689047D01*
X225266666Y-121612857D01*
X225342857Y-121574761D01*
X225419047Y-121574761D01*
X225495238Y-121955714D01*
X225723809Y-120889047D02*
X225761904Y-120965238D01*
X225761904Y-121117619D01*
X225723809Y-121193809D01*
X225685714Y-121231904D01*
X225609523Y-121270000D01*
X225380952Y-121270000D01*
X225304761Y-121231904D01*
X225266666Y-121193809D01*
X225228571Y-121117619D01*
X225228571Y-120965238D01*
X225266666Y-120889047D01*
X225723809Y-120241428D02*
X225761904Y-120317619D01*
X225761904Y-120470000D01*
X225723809Y-120546190D01*
X225647619Y-120584285D01*
X225342857Y-120584285D01*
X225266666Y-120546190D01*
X225228571Y-120470000D01*
X225228571Y-120317619D01*
X225266666Y-120241428D01*
X225342857Y-120203333D01*
X225419047Y-120203333D01*
X225495238Y-120584285D01*
X225723809Y-119898571D02*
X225761904Y-119822380D01*
X225761904Y-119670000D01*
X225723809Y-119593809D01*
X225647619Y-119555714D01*
X225609523Y-119555714D01*
X225533333Y-119593809D01*
X225495238Y-119670000D01*
X225495238Y-119784285D01*
X225457142Y-119860476D01*
X225380952Y-119898571D01*
X225342857Y-119898571D01*
X225266666Y-119860476D01*
X225228571Y-119784285D01*
X225228571Y-119670000D01*
X225266666Y-119593809D01*
X225723809Y-119250952D02*
X225761904Y-119174761D01*
X225761904Y-119022380D01*
X225723809Y-118946190D01*
X225647619Y-118908095D01*
X225609523Y-118908095D01*
X225533333Y-118946190D01*
X225495238Y-119022380D01*
X225495238Y-119136666D01*
X225457142Y-119212857D01*
X225380952Y-119250952D01*
X225342857Y-119250952D01*
X225266666Y-119212857D01*
X225228571Y-119136666D01*
X225228571Y-119022380D01*
X225266666Y-118946190D01*
X225761904Y-118222380D02*
X225342857Y-118222380D01*
X225266666Y-118260476D01*
X225228571Y-118336666D01*
X225228571Y-118489047D01*
X225266666Y-118565238D01*
X225723809Y-118222380D02*
X225761904Y-118298571D01*
X225761904Y-118489047D01*
X225723809Y-118565238D01*
X225647619Y-118603333D01*
X225571428Y-118603333D01*
X225495238Y-118565238D01*
X225457142Y-118489047D01*
X225457142Y-118298571D01*
X225419047Y-118222380D01*
X225761904Y-117841428D02*
X225228571Y-117841428D01*
X225380952Y-117841428D02*
X225304761Y-117803333D01*
X225266666Y-117765238D01*
X225228571Y-117689047D01*
X225228571Y-117612857D01*
X225228571Y-117422380D02*
X225761904Y-117231904D01*
X225228571Y-117041428D02*
X225761904Y-117231904D01*
X225952380Y-117308095D01*
X225990476Y-117346190D01*
X226028571Y-117422380D01*
X225761904Y-116012857D02*
X225723809Y-116089047D01*
X225685714Y-116127142D01*
X225609523Y-116165238D01*
X225380952Y-116165238D01*
X225304761Y-116127142D01*
X225266666Y-116089047D01*
X225228571Y-116012857D01*
X225228571Y-115898571D01*
X225266666Y-115822380D01*
X225304761Y-115784285D01*
X225380952Y-115746190D01*
X225609523Y-115746190D01*
X225685714Y-115784285D01*
X225723809Y-115822380D01*
X225761904Y-115898571D01*
X225761904Y-116012857D01*
X225761904Y-115403333D02*
X225228571Y-115403333D01*
X225380952Y-115403333D02*
X225304761Y-115365238D01*
X225266666Y-115327142D01*
X225228571Y-115250952D01*
X225228571Y-115174761D01*
X225761904Y-114298571D02*
X224961904Y-114298571D01*
X224961904Y-114108095D01*
X225000000Y-113993809D01*
X225076190Y-113917619D01*
X225152380Y-113879523D01*
X225304761Y-113841428D01*
X225419047Y-113841428D01*
X225571428Y-113879523D01*
X225647619Y-113917619D01*
X225723809Y-113993809D01*
X225761904Y-114108095D01*
X225761904Y-114298571D01*
X225761904Y-113498571D02*
X224961904Y-113498571D01*
X225761904Y-113041428D01*
X224961904Y-113041428D01*
X225761904Y-112660476D02*
X224961904Y-112660476D01*
X224961904Y-112355714D01*
X225000000Y-112279523D01*
X225038095Y-112241428D01*
X225114285Y-112203333D01*
X225228571Y-112203333D01*
X225304761Y-112241428D01*
X225342857Y-112279523D01*
X225380952Y-112355714D01*
X225380952Y-112660476D01*
X227123809Y-126336666D02*
X227161904Y-126412857D01*
X227161904Y-126565238D01*
X227123809Y-126641428D01*
X227085714Y-126679523D01*
X227009523Y-126717619D01*
X226780952Y-126717619D01*
X226704761Y-126679523D01*
X226666666Y-126641428D01*
X226628571Y-126565238D01*
X226628571Y-126412857D01*
X226666666Y-126336666D01*
X227161904Y-125879523D02*
X227123809Y-125955714D01*
X227085714Y-125993809D01*
X227009523Y-126031904D01*
X226780952Y-126031904D01*
X226704761Y-125993809D01*
X226666666Y-125955714D01*
X226628571Y-125879523D01*
X226628571Y-125765238D01*
X226666666Y-125689047D01*
X226704761Y-125650952D01*
X226780952Y-125612857D01*
X227009523Y-125612857D01*
X227085714Y-125650952D01*
X227123809Y-125689047D01*
X227161904Y-125765238D01*
X227161904Y-125879523D01*
X227161904Y-125270000D02*
X226628571Y-125270000D01*
X226704761Y-125270000D02*
X226666666Y-125231904D01*
X226628571Y-125155714D01*
X226628571Y-125041428D01*
X226666666Y-124965238D01*
X226742857Y-124927142D01*
X227161904Y-124927142D01*
X226742857Y-124927142D02*
X226666666Y-124889047D01*
X226628571Y-124812857D01*
X226628571Y-124698571D01*
X226666666Y-124622380D01*
X226742857Y-124584285D01*
X227161904Y-124584285D01*
X226628571Y-124203333D02*
X227428571Y-124203333D01*
X226666666Y-124203333D02*
X226628571Y-124127142D01*
X226628571Y-123974761D01*
X226666666Y-123898571D01*
X226704761Y-123860476D01*
X226780952Y-123822380D01*
X227009523Y-123822380D01*
X227085714Y-123860476D01*
X227123809Y-123898571D01*
X227161904Y-123974761D01*
X227161904Y-124127142D01*
X227123809Y-124203333D01*
X227161904Y-123365238D02*
X227123809Y-123441428D01*
X227085714Y-123479523D01*
X227009523Y-123517619D01*
X226780952Y-123517619D01*
X226704761Y-123479523D01*
X226666666Y-123441428D01*
X226628571Y-123365238D01*
X226628571Y-123250952D01*
X226666666Y-123174761D01*
X226704761Y-123136666D01*
X226780952Y-123098571D01*
X227009523Y-123098571D01*
X227085714Y-123136666D01*
X227123809Y-123174761D01*
X227161904Y-123250952D01*
X227161904Y-123365238D01*
X226628571Y-122755714D02*
X227161904Y-122755714D01*
X226704761Y-122755714D02*
X226666666Y-122717619D01*
X226628571Y-122641428D01*
X226628571Y-122527142D01*
X226666666Y-122450952D01*
X226742857Y-122412857D01*
X227161904Y-122412857D01*
X227123809Y-121727142D02*
X227161904Y-121803333D01*
X227161904Y-121955714D01*
X227123809Y-122031904D01*
X227047619Y-122070000D01*
X226742857Y-122070000D01*
X226666666Y-122031904D01*
X226628571Y-121955714D01*
X226628571Y-121803333D01*
X226666666Y-121727142D01*
X226742857Y-121689047D01*
X226819047Y-121689047D01*
X226895238Y-122070000D01*
X226628571Y-121346190D02*
X227161904Y-121346190D01*
X226704761Y-121346190D02*
X226666666Y-121308095D01*
X226628571Y-121231904D01*
X226628571Y-121117619D01*
X226666666Y-121041428D01*
X226742857Y-121003333D01*
X227161904Y-121003333D01*
X226628571Y-120736666D02*
X226628571Y-120431904D01*
X226361904Y-120622380D02*
X227047619Y-120622380D01*
X227123809Y-120584285D01*
X227161904Y-120508095D01*
X227161904Y-120431904D01*
X228214285Y-113102380D02*
X228785714Y-113102380D01*
X228500000Y-114102380D02*
X228500000Y-113102380D01*
X229119047Y-114102380D02*
X229119047Y-113102380D01*
X229500000Y-113102380D01*
X229595238Y-113150000D01*
X229642857Y-113197619D01*
X229690476Y-113292857D01*
X229690476Y-113435714D01*
X229642857Y-113530952D01*
X229595238Y-113578571D01*
X229500000Y-113626190D01*
X229119047Y-113626190D01*
X228238095Y-114850000D02*
X228142857Y-114802380D01*
X228000000Y-114802380D01*
X227857142Y-114850000D01*
X227761904Y-114945238D01*
X227714285Y-115040476D01*
X227666666Y-115230952D01*
X227666666Y-115373809D01*
X227714285Y-115564285D01*
X227761904Y-115659523D01*
X227857142Y-115754761D01*
X228000000Y-115802380D01*
X228095238Y-115802380D01*
X228238095Y-115754761D01*
X228285714Y-115707142D01*
X228285714Y-115373809D01*
X228095238Y-115373809D01*
X228714285Y-115802380D02*
X228714285Y-114802380D01*
X229285714Y-115802380D01*
X229285714Y-114802380D01*
X229761904Y-115802380D02*
X229761904Y-114802380D01*
X230000000Y-114802380D01*
X230142857Y-114850000D01*
X230238095Y-114945238D01*
X230285714Y-115040476D01*
X230333333Y-115230952D01*
X230333333Y-115373809D01*
X230285714Y-115564285D01*
X230238095Y-115659523D01*
X230142857Y-115754761D01*
X230000000Y-115802380D01*
X229761904Y-115802380D01*
X175214285Y-115602380D02*
X175785714Y-115602380D01*
X175500000Y-116602380D02*
X175500000Y-115602380D01*
X176119047Y-116602380D02*
X176119047Y-115602380D01*
X176500000Y-115602380D01*
X176595238Y-115650000D01*
X176642857Y-115697619D01*
X176690476Y-115792857D01*
X176690476Y-115935714D01*
X176642857Y-116030952D01*
X176595238Y-116078571D01*
X176500000Y-116126190D01*
X176119047Y-116126190D01*
X173261904Y-117302380D02*
X173595238Y-118302380D01*
X173928571Y-117302380D01*
X174023809Y-118397619D02*
X174785714Y-118397619D01*
X175023809Y-118302380D02*
X175023809Y-117302380D01*
X175023809Y-117683333D02*
X175119047Y-117635714D01*
X175309523Y-117635714D01*
X175404761Y-117683333D01*
X175452380Y-117730952D01*
X175500000Y-117826190D01*
X175500000Y-118111904D01*
X175452380Y-118207142D01*
X175404761Y-118254761D01*
X175309523Y-118302380D01*
X175119047Y-118302380D01*
X175023809Y-118254761D01*
X175928571Y-118302380D02*
X175928571Y-117635714D01*
X175928571Y-117302380D02*
X175880952Y-117350000D01*
X175928571Y-117397619D01*
X175976190Y-117350000D01*
X175928571Y-117302380D01*
X175928571Y-117397619D01*
X176833333Y-118302380D02*
X176833333Y-117778571D01*
X176785714Y-117683333D01*
X176690476Y-117635714D01*
X176500000Y-117635714D01*
X176404761Y-117683333D01*
X176833333Y-118254761D02*
X176738095Y-118302380D01*
X176500000Y-118302380D01*
X176404761Y-118254761D01*
X176357142Y-118159523D01*
X176357142Y-118064285D01*
X176404761Y-117969047D01*
X176500000Y-117921428D01*
X176738095Y-117921428D01*
X176833333Y-117873809D01*
X177261904Y-118254761D02*
X177357142Y-118302380D01*
X177547619Y-118302380D01*
X177642857Y-118254761D01*
X177690476Y-118159523D01*
X177690476Y-118111904D01*
X177642857Y-118016666D01*
X177547619Y-117969047D01*
X177404761Y-117969047D01*
X177309523Y-117921428D01*
X177261904Y-117826190D01*
X177261904Y-117778571D01*
X177309523Y-117683333D01*
X177404761Y-117635714D01*
X177547619Y-117635714D01*
X177642857Y-117683333D01*
X178642857Y-118302380D02*
X178071428Y-118302380D01*
X178357142Y-118302380D02*
X178357142Y-117302380D01*
X178261904Y-117445238D01*
X178166666Y-117540476D01*
X178071428Y-117588095D01*
X226214285Y-70602380D02*
X226785714Y-70602380D01*
X226500000Y-71602380D02*
X226500000Y-70602380D01*
X227119047Y-71602380D02*
X227119047Y-70602380D01*
X227500000Y-70602380D01*
X227595238Y-70650000D01*
X227642857Y-70697619D01*
X227690476Y-70792857D01*
X227690476Y-70935714D01*
X227642857Y-71030952D01*
X227595238Y-71078571D01*
X227500000Y-71126190D01*
X227119047Y-71126190D01*
X224261904Y-72302380D02*
X224595238Y-73302380D01*
X224928571Y-72302380D01*
X225023809Y-73397619D02*
X225785714Y-73397619D01*
X226023809Y-73302380D02*
X226023809Y-72302380D01*
X226023809Y-72683333D02*
X226119047Y-72635714D01*
X226309523Y-72635714D01*
X226404761Y-72683333D01*
X226452380Y-72730952D01*
X226500000Y-72826190D01*
X226500000Y-73111904D01*
X226452380Y-73207142D01*
X226404761Y-73254761D01*
X226309523Y-73302380D01*
X226119047Y-73302380D01*
X226023809Y-73254761D01*
X226928571Y-73302380D02*
X226928571Y-72635714D01*
X226928571Y-72302380D02*
X226880952Y-72350000D01*
X226928571Y-72397619D01*
X226976190Y-72350000D01*
X226928571Y-72302380D01*
X226928571Y-72397619D01*
X227833333Y-73302380D02*
X227833333Y-72778571D01*
X227785714Y-72683333D01*
X227690476Y-72635714D01*
X227500000Y-72635714D01*
X227404761Y-72683333D01*
X227833333Y-73254761D02*
X227738095Y-73302380D01*
X227500000Y-73302380D01*
X227404761Y-73254761D01*
X227357142Y-73159523D01*
X227357142Y-73064285D01*
X227404761Y-72969047D01*
X227500000Y-72921428D01*
X227738095Y-72921428D01*
X227833333Y-72873809D01*
X228261904Y-73254761D02*
X228357142Y-73302380D01*
X228547619Y-73302380D01*
X228642857Y-73254761D01*
X228690476Y-73159523D01*
X228690476Y-73111904D01*
X228642857Y-73016666D01*
X228547619Y-72969047D01*
X228404761Y-72969047D01*
X228309523Y-72921428D01*
X228261904Y-72826190D01*
X228261904Y-72778571D01*
X228309523Y-72683333D01*
X228404761Y-72635714D01*
X228547619Y-72635714D01*
X228642857Y-72683333D01*
X229071428Y-72397619D02*
X229119047Y-72350000D01*
X229214285Y-72302380D01*
X229452380Y-72302380D01*
X229547619Y-72350000D01*
X229595238Y-72397619D01*
X229642857Y-72492857D01*
X229642857Y-72588095D01*
X229595238Y-72730952D01*
X229023809Y-73302380D01*
X229642857Y-73302380D01*
X177857142Y-128666666D02*
X177904761Y-128714285D01*
X177952380Y-128857142D01*
X177952380Y-128952380D01*
X177904761Y-129095238D01*
X177809523Y-129190476D01*
X177714285Y-129238095D01*
X177523809Y-129285714D01*
X177380952Y-129285714D01*
X177190476Y-129238095D01*
X177095238Y-129190476D01*
X177000000Y-129095238D01*
X176952380Y-128952380D01*
X176952380Y-128857142D01*
X177000000Y-128714285D01*
X177047619Y-128666666D01*
X178047619Y-128476190D02*
X178047619Y-127714285D01*
X177952380Y-127476190D02*
X177285714Y-127476190D01*
X176952380Y-127476190D02*
X177000000Y-127523809D01*
X177047619Y-127476190D01*
X177000000Y-127428571D01*
X176952380Y-127476190D01*
X177047619Y-127476190D01*
X177285714Y-127000000D02*
X177952380Y-127000000D01*
X177380952Y-127000000D02*
X177333333Y-126952380D01*
X177285714Y-126857142D01*
X177285714Y-126714285D01*
X177333333Y-126619047D01*
X177428571Y-126571428D01*
X177952380Y-126571428D01*
X177285714Y-126238095D02*
X177285714Y-125857142D01*
X176952380Y-126095238D02*
X177809523Y-126095238D01*
X177904761Y-126047619D01*
X177952380Y-125952380D01*
X177952380Y-125857142D01*
X177904761Y-125571428D02*
X177952380Y-125476190D01*
X177952380Y-125285714D01*
X177904761Y-125190476D01*
X177809523Y-125142857D01*
X177761904Y-125142857D01*
X177666666Y-125190476D01*
X177619047Y-125285714D01*
X177619047Y-125428571D01*
X177571428Y-125523809D01*
X177476190Y-125571428D01*
X177428571Y-125571428D01*
X177333333Y-125523809D01*
X177285714Y-125428571D01*
X177285714Y-125285714D01*
X177333333Y-125190476D01*
X177285714Y-124857142D02*
X177285714Y-124476190D01*
X176952380Y-124714285D02*
X177809523Y-124714285D01*
X177904761Y-124666666D01*
X177952380Y-124571428D01*
X177952380Y-124476190D01*
X177285714Y-123714285D02*
X178095238Y-123714285D01*
X178190476Y-123761904D01*
X178238095Y-123809523D01*
X178285714Y-123904761D01*
X178285714Y-124047619D01*
X178238095Y-124142857D01*
X177904761Y-123714285D02*
X177952380Y-123809523D01*
X177952380Y-124000000D01*
X177904761Y-124095238D01*
X177857142Y-124142857D01*
X177761904Y-124190476D01*
X177476190Y-124190476D01*
X177380952Y-124142857D01*
X177333333Y-124095238D01*
X177285714Y-124000000D01*
X177285714Y-123809523D01*
X177333333Y-123714285D01*
X177047619Y-123285714D02*
X177000000Y-123238095D01*
X176952380Y-123142857D01*
X176952380Y-122904761D01*
X177000000Y-122809523D01*
X177047619Y-122761904D01*
X177142857Y-122714285D01*
X177238095Y-122714285D01*
X177380952Y-122761904D01*
X177952380Y-123333333D01*
X177952380Y-122714285D01*
X227857142Y-137666666D02*
X227904761Y-137714285D01*
X227952380Y-137857142D01*
X227952380Y-137952380D01*
X227904761Y-138095238D01*
X227809523Y-138190476D01*
X227714285Y-138238095D01*
X227523809Y-138285714D01*
X227380952Y-138285714D01*
X227190476Y-138238095D01*
X227095238Y-138190476D01*
X227000000Y-138095238D01*
X226952380Y-137952380D01*
X226952380Y-137857142D01*
X227000000Y-137714285D01*
X227047619Y-137666666D01*
X228047619Y-137476190D02*
X228047619Y-136714285D01*
X227952380Y-136476190D02*
X227285714Y-136476190D01*
X226952380Y-136476190D02*
X227000000Y-136523809D01*
X227047619Y-136476190D01*
X227000000Y-136428571D01*
X226952380Y-136476190D01*
X227047619Y-136476190D01*
X227285714Y-136000000D02*
X227952380Y-136000000D01*
X227380952Y-136000000D02*
X227333333Y-135952380D01*
X227285714Y-135857142D01*
X227285714Y-135714285D01*
X227333333Y-135619047D01*
X227428571Y-135571428D01*
X227952380Y-135571428D01*
X227285714Y-135238095D02*
X227285714Y-134857142D01*
X226952380Y-135095238D02*
X227809523Y-135095238D01*
X227904761Y-135047619D01*
X227952380Y-134952380D01*
X227952380Y-134857142D01*
X227904761Y-134571428D02*
X227952380Y-134476190D01*
X227952380Y-134285714D01*
X227904761Y-134190476D01*
X227809523Y-134142857D01*
X227761904Y-134142857D01*
X227666666Y-134190476D01*
X227619047Y-134285714D01*
X227619047Y-134428571D01*
X227571428Y-134523809D01*
X227476190Y-134571428D01*
X227428571Y-134571428D01*
X227333333Y-134523809D01*
X227285714Y-134428571D01*
X227285714Y-134285714D01*
X227333333Y-134190476D01*
X227285714Y-133857142D02*
X227285714Y-133476190D01*
X226952380Y-133714285D02*
X227809523Y-133714285D01*
X227904761Y-133666666D01*
X227952380Y-133571428D01*
X227952380Y-133476190D01*
X227285714Y-132714285D02*
X228095238Y-132714285D01*
X228190476Y-132761904D01*
X228238095Y-132809523D01*
X228285714Y-132904761D01*
X228285714Y-133047619D01*
X228238095Y-133142857D01*
X227904761Y-132714285D02*
X227952380Y-132809523D01*
X227952380Y-133000000D01*
X227904761Y-133095238D01*
X227857142Y-133142857D01*
X227761904Y-133190476D01*
X227476190Y-133190476D01*
X227380952Y-133142857D01*
X227333333Y-133095238D01*
X227285714Y-133000000D01*
X227285714Y-132809523D01*
X227333333Y-132714285D01*
X227952380Y-131714285D02*
X227952380Y-132285714D01*
X227952380Y-132000000D02*
X226952380Y-132000000D01*
X227095238Y-132095238D01*
X227190476Y-132190476D01*
X227238095Y-132285714D01*
X218952380Y-139666666D02*
X218476190Y-140000000D01*
X218952380Y-140238095D02*
X217952380Y-140238095D01*
X217952380Y-139857142D01*
X218000000Y-139761904D01*
X218047619Y-139714285D01*
X218142857Y-139666666D01*
X218285714Y-139666666D01*
X218380952Y-139714285D01*
X218428571Y-139761904D01*
X218476190Y-139857142D01*
X218476190Y-140238095D01*
X219047619Y-139476190D02*
X219047619Y-138714285D01*
X218952380Y-138476190D02*
X218285714Y-138476190D01*
X217952380Y-138476190D02*
X218000000Y-138523809D01*
X218047619Y-138476190D01*
X218000000Y-138428571D01*
X217952380Y-138476190D01*
X218047619Y-138476190D01*
X218285714Y-138000000D02*
X218952380Y-138000000D01*
X218380952Y-138000000D02*
X218333333Y-137952380D01*
X218285714Y-137857142D01*
X218285714Y-137714285D01*
X218333333Y-137619047D01*
X218428571Y-137571428D01*
X218952380Y-137571428D01*
X218285714Y-137238095D02*
X218285714Y-136857142D01*
X217952380Y-137095238D02*
X218809523Y-137095238D01*
X218904761Y-137047619D01*
X218952380Y-136952380D01*
X218952380Y-136857142D01*
X218904761Y-136571428D02*
X218952380Y-136476190D01*
X218952380Y-136285714D01*
X218904761Y-136190476D01*
X218809523Y-136142857D01*
X218761904Y-136142857D01*
X218666666Y-136190476D01*
X218619047Y-136285714D01*
X218619047Y-136428571D01*
X218571428Y-136523809D01*
X218476190Y-136571428D01*
X218428571Y-136571428D01*
X218333333Y-136523809D01*
X218285714Y-136428571D01*
X218285714Y-136285714D01*
X218333333Y-136190476D01*
X218285714Y-135857142D02*
X218285714Y-135476190D01*
X217952380Y-135714285D02*
X218809523Y-135714285D01*
X218904761Y-135666666D01*
X218952380Y-135571428D01*
X218952380Y-135476190D01*
X218285714Y-134714285D02*
X219095238Y-134714285D01*
X219190476Y-134761904D01*
X219238095Y-134809523D01*
X219285714Y-134904761D01*
X219285714Y-135047619D01*
X219238095Y-135142857D01*
X218904761Y-134714285D02*
X218952380Y-134809523D01*
X218952380Y-135000000D01*
X218904761Y-135095238D01*
X218857142Y-135142857D01*
X218761904Y-135190476D01*
X218476190Y-135190476D01*
X218380952Y-135142857D01*
X218333333Y-135095238D01*
X218285714Y-135000000D01*
X218285714Y-134809523D01*
X218333333Y-134714285D01*
X218952380Y-133714285D02*
X218952380Y-134285714D01*
X218952380Y-134000000D02*
X217952380Y-134000000D01*
X218095238Y-134095238D01*
X218190476Y-134190476D01*
X218238095Y-134285714D01*
X187452380Y-128666666D02*
X186976190Y-129000000D01*
X187452380Y-129238095D02*
X186452380Y-129238095D01*
X186452380Y-128857142D01*
X186500000Y-128761904D01*
X186547619Y-128714285D01*
X186642857Y-128666666D01*
X186785714Y-128666666D01*
X186880952Y-128714285D01*
X186928571Y-128761904D01*
X186976190Y-128857142D01*
X186976190Y-129238095D01*
X187547619Y-128476190D02*
X187547619Y-127714285D01*
X187452380Y-127476190D02*
X186785714Y-127476190D01*
X186452380Y-127476190D02*
X186500000Y-127523809D01*
X186547619Y-127476190D01*
X186500000Y-127428571D01*
X186452380Y-127476190D01*
X186547619Y-127476190D01*
X186785714Y-127000000D02*
X187452380Y-127000000D01*
X186880952Y-127000000D02*
X186833333Y-126952380D01*
X186785714Y-126857142D01*
X186785714Y-126714285D01*
X186833333Y-126619047D01*
X186928571Y-126571428D01*
X187452380Y-126571428D01*
X186785714Y-126238095D02*
X186785714Y-125857142D01*
X186452380Y-126095238D02*
X187309523Y-126095238D01*
X187404761Y-126047619D01*
X187452380Y-125952380D01*
X187452380Y-125857142D01*
X187404761Y-125571428D02*
X187452380Y-125476190D01*
X187452380Y-125285714D01*
X187404761Y-125190476D01*
X187309523Y-125142857D01*
X187261904Y-125142857D01*
X187166666Y-125190476D01*
X187119047Y-125285714D01*
X187119047Y-125428571D01*
X187071428Y-125523809D01*
X186976190Y-125571428D01*
X186928571Y-125571428D01*
X186833333Y-125523809D01*
X186785714Y-125428571D01*
X186785714Y-125285714D01*
X186833333Y-125190476D01*
X186785714Y-124857142D02*
X186785714Y-124476190D01*
X186452380Y-124714285D02*
X187309523Y-124714285D01*
X187404761Y-124666666D01*
X187452380Y-124571428D01*
X187452380Y-124476190D01*
X186785714Y-123714285D02*
X187595238Y-123714285D01*
X187690476Y-123761904D01*
X187738095Y-123809523D01*
X187785714Y-123904761D01*
X187785714Y-124047619D01*
X187738095Y-124142857D01*
X187404761Y-123714285D02*
X187452380Y-123809523D01*
X187452380Y-124000000D01*
X187404761Y-124095238D01*
X187357142Y-124142857D01*
X187261904Y-124190476D01*
X186976190Y-124190476D01*
X186880952Y-124142857D01*
X186833333Y-124095238D01*
X186785714Y-124000000D01*
X186785714Y-123809523D01*
X186833333Y-123714285D01*
X186547619Y-123285714D02*
X186500000Y-123238095D01*
X186452380Y-123142857D01*
X186452380Y-122904761D01*
X186500000Y-122809523D01*
X186547619Y-122761904D01*
X186642857Y-122714285D01*
X186738095Y-122714285D01*
X186880952Y-122761904D01*
X187452380Y-123333333D01*
X187452380Y-122714285D01*
X209952380Y-137309523D02*
X209904761Y-137404761D01*
X209857142Y-137452380D01*
X209761904Y-137500000D01*
X209476190Y-137500000D01*
X209380952Y-137452380D01*
X209333333Y-137404761D01*
X209285714Y-137309523D01*
X209285714Y-137166666D01*
X209333333Y-137071428D01*
X209380952Y-137023809D01*
X209476190Y-136976190D01*
X209761904Y-136976190D01*
X209857142Y-137023809D01*
X209904761Y-137071428D01*
X209952380Y-137166666D01*
X209952380Y-137309523D01*
X209952380Y-136547619D02*
X209285714Y-136547619D01*
X209476190Y-136547619D02*
X209380952Y-136500000D01*
X209333333Y-136452380D01*
X209285714Y-136357142D01*
X209285714Y-136261904D01*
X209857142Y-134595238D02*
X209904761Y-134642857D01*
X209952380Y-134785714D01*
X209952380Y-134880952D01*
X209904761Y-135023809D01*
X209809523Y-135119047D01*
X209714285Y-135166666D01*
X209523809Y-135214285D01*
X209380952Y-135214285D01*
X209190476Y-135166666D01*
X209095238Y-135119047D01*
X209000000Y-135023809D01*
X208952380Y-134880952D01*
X208952380Y-134785714D01*
X209000000Y-134642857D01*
X209047619Y-134595238D01*
X210047619Y-134404761D02*
X210047619Y-133642857D01*
X209952380Y-133404761D02*
X209285714Y-133404761D01*
X208952380Y-133404761D02*
X209000000Y-133452380D01*
X209047619Y-133404761D01*
X209000000Y-133357142D01*
X208952380Y-133404761D01*
X209047619Y-133404761D01*
X209285714Y-132928571D02*
X209952380Y-132928571D01*
X209380952Y-132928571D02*
X209333333Y-132880952D01*
X209285714Y-132785714D01*
X209285714Y-132642857D01*
X209333333Y-132547619D01*
X209428571Y-132500000D01*
X209952380Y-132500000D01*
X209952380Y-131500000D02*
X209952380Y-132071428D01*
X209952380Y-131785714D02*
X208952380Y-131785714D01*
X209095238Y-131880952D01*
X209190476Y-131976190D01*
X209238095Y-132071428D01*
X202952380Y-77809523D02*
X202904761Y-77904761D01*
X202857142Y-77952380D01*
X202761904Y-78000000D01*
X202476190Y-78000000D01*
X202380952Y-77952380D01*
X202333333Y-77904761D01*
X202285714Y-77809523D01*
X202285714Y-77666666D01*
X202333333Y-77571428D01*
X202380952Y-77523809D01*
X202476190Y-77476190D01*
X202761904Y-77476190D01*
X202857142Y-77523809D01*
X202904761Y-77571428D01*
X202952380Y-77666666D01*
X202952380Y-77809523D01*
X202952380Y-77047619D02*
X202285714Y-77047619D01*
X202476190Y-77047619D02*
X202380952Y-77000000D01*
X202333333Y-76952380D01*
X202285714Y-76857142D01*
X202285714Y-76761904D01*
X202857142Y-75095238D02*
X202904761Y-75142857D01*
X202952380Y-75285714D01*
X202952380Y-75380952D01*
X202904761Y-75523809D01*
X202809523Y-75619047D01*
X202714285Y-75666666D01*
X202523809Y-75714285D01*
X202380952Y-75714285D01*
X202190476Y-75666666D01*
X202095238Y-75619047D01*
X202000000Y-75523809D01*
X201952380Y-75380952D01*
X201952380Y-75285714D01*
X202000000Y-75142857D01*
X202047619Y-75095238D01*
X203047619Y-74904761D02*
X203047619Y-74142857D01*
X202952380Y-73904761D02*
X202285714Y-73904761D01*
X201952380Y-73904761D02*
X202000000Y-73952380D01*
X202047619Y-73904761D01*
X202000000Y-73857142D01*
X201952380Y-73904761D01*
X202047619Y-73904761D01*
X202285714Y-73428571D02*
X202952380Y-73428571D01*
X202380952Y-73428571D02*
X202333333Y-73380952D01*
X202285714Y-73285714D01*
X202285714Y-73142857D01*
X202333333Y-73047619D01*
X202428571Y-73000000D01*
X202952380Y-73000000D01*
X202047619Y-72571428D02*
X202000000Y-72523809D01*
X201952380Y-72428571D01*
X201952380Y-72190476D01*
X202000000Y-72095238D01*
X202047619Y-72047619D01*
X202142857Y-72000000D01*
X202238095Y-72000000D01*
X202380952Y-72047619D01*
X202952380Y-72619047D01*
X202952380Y-72000000D01*
X199952380Y-76595238D02*
X198952380Y-76595238D01*
X199952380Y-76023809D01*
X198952380Y-76023809D01*
X199904761Y-75166666D02*
X199952380Y-75261904D01*
X199952380Y-75452380D01*
X199904761Y-75547619D01*
X199809523Y-75595238D01*
X199428571Y-75595238D01*
X199333333Y-75547619D01*
X199285714Y-75452380D01*
X199285714Y-75261904D01*
X199333333Y-75166666D01*
X199428571Y-75119047D01*
X199523809Y-75119047D01*
X199619047Y-75595238D01*
X199952380Y-74547619D02*
X199904761Y-74642857D01*
X199857142Y-74690476D01*
X199761904Y-74738095D01*
X199476190Y-74738095D01*
X199380952Y-74690476D01*
X199333333Y-74642857D01*
X199285714Y-74547619D01*
X199285714Y-74404761D01*
X199333333Y-74309523D01*
X199380952Y-74261904D01*
X199476190Y-74214285D01*
X199761904Y-74214285D01*
X199857142Y-74261904D01*
X199904761Y-74309523D01*
X199952380Y-74404761D01*
X199952380Y-74547619D01*
X199285714Y-73785714D02*
X199952380Y-73785714D01*
X199380952Y-73785714D02*
X199333333Y-73738095D01*
X199285714Y-73642857D01*
X199285714Y-73500000D01*
X199333333Y-73404761D01*
X199428571Y-73357142D01*
X199952380Y-73357142D01*
X199047619Y-72928571D02*
X199000000Y-72880952D01*
X198952380Y-72785714D01*
X198952380Y-72547619D01*
X199000000Y-72452380D01*
X199047619Y-72404761D01*
X199142857Y-72357142D01*
X199238095Y-72357142D01*
X199380952Y-72404761D01*
X199952380Y-72976190D01*
X199952380Y-72357142D01*
X206952380Y-136595238D02*
X205952380Y-136595238D01*
X206952380Y-136023809D01*
X205952380Y-136023809D01*
X206904761Y-135166666D02*
X206952380Y-135261904D01*
X206952380Y-135452380D01*
X206904761Y-135547619D01*
X206809523Y-135595238D01*
X206428571Y-135595238D01*
X206333333Y-135547619D01*
X206285714Y-135452380D01*
X206285714Y-135261904D01*
X206333333Y-135166666D01*
X206428571Y-135119047D01*
X206523809Y-135119047D01*
X206619047Y-135595238D01*
X206952380Y-134547619D02*
X206904761Y-134642857D01*
X206857142Y-134690476D01*
X206761904Y-134738095D01*
X206476190Y-134738095D01*
X206380952Y-134690476D01*
X206333333Y-134642857D01*
X206285714Y-134547619D01*
X206285714Y-134404761D01*
X206333333Y-134309523D01*
X206380952Y-134261904D01*
X206476190Y-134214285D01*
X206761904Y-134214285D01*
X206857142Y-134261904D01*
X206904761Y-134309523D01*
X206952380Y-134404761D01*
X206952380Y-134547619D01*
X206285714Y-133785714D02*
X206952380Y-133785714D01*
X206380952Y-133785714D02*
X206333333Y-133738095D01*
X206285714Y-133642857D01*
X206285714Y-133500000D01*
X206333333Y-133404761D01*
X206428571Y-133357142D01*
X206952380Y-133357142D01*
X206952380Y-132357142D02*
X206952380Y-132928571D01*
X206952380Y-132642857D02*
X205952380Y-132642857D01*
X206095238Y-132738095D01*
X206190476Y-132833333D01*
X206238095Y-132928571D01*
X208357142Y-124000000D02*
X208404761Y-124047619D01*
X208452380Y-124190476D01*
X208452380Y-124285714D01*
X208404761Y-124428571D01*
X208309523Y-124523809D01*
X208214285Y-124571428D01*
X208023809Y-124619047D01*
X207880952Y-124619047D01*
X207690476Y-124571428D01*
X207595238Y-124523809D01*
X207500000Y-124428571D01*
X207452380Y-124285714D01*
X207452380Y-124190476D01*
X207500000Y-124047619D01*
X207547619Y-124000000D01*
X208547619Y-123809523D02*
X208547619Y-123047619D01*
X208452380Y-122380952D02*
X207928571Y-122380952D01*
X207833333Y-122428571D01*
X207785714Y-122523809D01*
X207785714Y-122714285D01*
X207833333Y-122809523D01*
X208404761Y-122380952D02*
X208452380Y-122476190D01*
X208452380Y-122714285D01*
X208404761Y-122809523D01*
X208309523Y-122857142D01*
X208214285Y-122857142D01*
X208119047Y-122809523D01*
X208071428Y-122714285D01*
X208071428Y-122476190D01*
X208023809Y-122380952D01*
X208452380Y-121380952D02*
X208452380Y-121952380D01*
X208452380Y-121666666D02*
X207452380Y-121666666D01*
X207595238Y-121761904D01*
X207690476Y-121857142D01*
X207738095Y-121952380D01*
X201357142Y-87000000D02*
X201404761Y-87047619D01*
X201452380Y-87190476D01*
X201452380Y-87285714D01*
X201404761Y-87428571D01*
X201309523Y-87523809D01*
X201214285Y-87571428D01*
X201023809Y-87619047D01*
X200880952Y-87619047D01*
X200690476Y-87571428D01*
X200595238Y-87523809D01*
X200500000Y-87428571D01*
X200452380Y-87285714D01*
X200452380Y-87190476D01*
X200500000Y-87047619D01*
X200547619Y-87000000D01*
X201547619Y-86809523D02*
X201547619Y-86047619D01*
X201452380Y-85380952D02*
X200928571Y-85380952D01*
X200833333Y-85428571D01*
X200785714Y-85523809D01*
X200785714Y-85714285D01*
X200833333Y-85809523D01*
X201404761Y-85380952D02*
X201452380Y-85476190D01*
X201452380Y-85714285D01*
X201404761Y-85809523D01*
X201309523Y-85857142D01*
X201214285Y-85857142D01*
X201119047Y-85809523D01*
X201071428Y-85714285D01*
X201071428Y-85476190D01*
X201023809Y-85380952D01*
X200547619Y-84952380D02*
X200500000Y-84904761D01*
X200452380Y-84809523D01*
X200452380Y-84571428D01*
X200500000Y-84476190D01*
X200547619Y-84428571D01*
X200642857Y-84380952D01*
X200738095Y-84380952D01*
X200880952Y-84428571D01*
X201452380Y-85000000D01*
X201452380Y-84380952D01*
X195452380Y-85000000D02*
X194976190Y-85333333D01*
X195452380Y-85571428D02*
X194452380Y-85571428D01*
X194452380Y-85190476D01*
X194500000Y-85095238D01*
X194547619Y-85047619D01*
X194642857Y-85000000D01*
X194785714Y-85000000D01*
X194880952Y-85047619D01*
X194928571Y-85095238D01*
X194976190Y-85190476D01*
X194976190Y-85571428D01*
X195547619Y-84809523D02*
X195547619Y-84047619D01*
X195452380Y-83380952D02*
X194928571Y-83380952D01*
X194833333Y-83428571D01*
X194785714Y-83523809D01*
X194785714Y-83714285D01*
X194833333Y-83809523D01*
X195404761Y-83380952D02*
X195452380Y-83476190D01*
X195452380Y-83714285D01*
X195404761Y-83809523D01*
X195309523Y-83857142D01*
X195214285Y-83857142D01*
X195119047Y-83809523D01*
X195071428Y-83714285D01*
X195071428Y-83476190D01*
X195023809Y-83380952D01*
X194547619Y-82952380D02*
X194500000Y-82904761D01*
X194452380Y-82809523D01*
X194452380Y-82571428D01*
X194500000Y-82476190D01*
X194547619Y-82428571D01*
X194642857Y-82380952D01*
X194738095Y-82380952D01*
X194880952Y-82428571D01*
X195452380Y-83000000D01*
X195452380Y-82380952D01*
X219452380Y-106000000D02*
X218976190Y-106333333D01*
X219452380Y-106571428D02*
X218452380Y-106571428D01*
X218452380Y-106190476D01*
X218500000Y-106095238D01*
X218547619Y-106047619D01*
X218642857Y-106000000D01*
X218785714Y-106000000D01*
X218880952Y-106047619D01*
X218928571Y-106095238D01*
X218976190Y-106190476D01*
X218976190Y-106571428D01*
X219547619Y-105809523D02*
X219547619Y-105047619D01*
X219452380Y-104380952D02*
X218928571Y-104380952D01*
X218833333Y-104428571D01*
X218785714Y-104523809D01*
X218785714Y-104714285D01*
X218833333Y-104809523D01*
X219404761Y-104380952D02*
X219452380Y-104476190D01*
X219452380Y-104714285D01*
X219404761Y-104809523D01*
X219309523Y-104857142D01*
X219214285Y-104857142D01*
X219119047Y-104809523D01*
X219071428Y-104714285D01*
X219071428Y-104476190D01*
X219023809Y-104380952D01*
X219452380Y-103380952D02*
X219452380Y-103952380D01*
X219452380Y-103666666D02*
X218452380Y-103666666D01*
X218595238Y-103761904D01*
X218690476Y-103857142D01*
X218738095Y-103952380D01*
X174952380Y-143357142D02*
X174904761Y-143404761D01*
X174761904Y-143452380D01*
X174666666Y-143452380D01*
X174523809Y-143404761D01*
X174428571Y-143309523D01*
X174380952Y-143214285D01*
X174333333Y-143023809D01*
X174333333Y-142880952D01*
X174380952Y-142690476D01*
X174428571Y-142595238D01*
X174523809Y-142500000D01*
X174666666Y-142452380D01*
X174761904Y-142452380D01*
X174904761Y-142500000D01*
X174952380Y-142547619D01*
X175380952Y-143452380D02*
X175380952Y-142452380D01*
X175809523Y-143452380D02*
X175809523Y-142928571D01*
X175761904Y-142833333D01*
X175666666Y-142785714D01*
X175523809Y-142785714D01*
X175428571Y-142833333D01*
X175380952Y-142880952D01*
X176714285Y-143452380D02*
X176714285Y-142928571D01*
X176666666Y-142833333D01*
X176571428Y-142785714D01*
X176380952Y-142785714D01*
X176285714Y-142833333D01*
X176714285Y-143404761D02*
X176619047Y-143452380D01*
X176380952Y-143452380D01*
X176285714Y-143404761D01*
X176238095Y-143309523D01*
X176238095Y-143214285D01*
X176285714Y-143119047D01*
X176380952Y-143071428D01*
X176619047Y-143071428D01*
X176714285Y-143023809D01*
X177142857Y-143404761D02*
X177238095Y-143452380D01*
X177428571Y-143452380D01*
X177523809Y-143404761D01*
X177571428Y-143309523D01*
X177571428Y-143261904D01*
X177523809Y-143166666D01*
X177428571Y-143119047D01*
X177285714Y-143119047D01*
X177190476Y-143071428D01*
X177142857Y-142976190D01*
X177142857Y-142928571D01*
X177190476Y-142833333D01*
X177285714Y-142785714D01*
X177428571Y-142785714D01*
X177523809Y-142833333D01*
X177952380Y-143404761D02*
X178047619Y-143452380D01*
X178238095Y-143452380D01*
X178333333Y-143404761D01*
X178380952Y-143309523D01*
X178380952Y-143261904D01*
X178333333Y-143166666D01*
X178238095Y-143119047D01*
X178095238Y-143119047D01*
X178000000Y-143071428D01*
X177952380Y-142976190D01*
X177952380Y-142928571D01*
X178000000Y-142833333D01*
X178095238Y-142785714D01*
X178238095Y-142785714D01*
X178333333Y-142833333D01*
X178809523Y-143452380D02*
X178809523Y-142785714D01*
X178809523Y-142452380D02*
X178761904Y-142500000D01*
X178809523Y-142547619D01*
X178857142Y-142500000D01*
X178809523Y-142452380D01*
X178809523Y-142547619D01*
X179238095Y-143404761D02*
X179333333Y-143452380D01*
X179523809Y-143452380D01*
X179619047Y-143404761D01*
X179666666Y-143309523D01*
X179666666Y-143261904D01*
X179619047Y-143166666D01*
X179523809Y-143119047D01*
X179380952Y-143119047D01*
X179285714Y-143071428D01*
X179238095Y-142976190D01*
X179238095Y-142928571D01*
X179285714Y-142833333D01*
X179380952Y-142785714D01*
X179523809Y-142785714D01*
X179619047Y-142833333D01*
X185142857Y-70452380D02*
X184809523Y-69976190D01*
X184571428Y-70452380D02*
X184571428Y-69452380D01*
X184952380Y-69452380D01*
X185047619Y-69500000D01*
X185095238Y-69547619D01*
X185142857Y-69642857D01*
X185142857Y-69785714D01*
X185095238Y-69880952D01*
X185047619Y-69928571D01*
X184952380Y-69976190D01*
X184571428Y-69976190D01*
X185333333Y-70547619D02*
X186095238Y-70547619D01*
X186190476Y-69785714D02*
X186571428Y-69785714D01*
X186333333Y-70452380D02*
X186333333Y-69595238D01*
X186380952Y-69500000D01*
X186476190Y-69452380D01*
X186571428Y-69452380D01*
X175142857Y-74857142D02*
X175095238Y-74904761D01*
X174952380Y-74952380D01*
X174857142Y-74952380D01*
X174714285Y-74904761D01*
X174619047Y-74809523D01*
X174571428Y-74714285D01*
X174523809Y-74523809D01*
X174523809Y-74380952D01*
X174571428Y-74190476D01*
X174619047Y-74095238D01*
X174714285Y-74000000D01*
X174857142Y-73952380D01*
X174952380Y-73952380D01*
X175095238Y-74000000D01*
X175142857Y-74047619D01*
X175333333Y-75047619D02*
X176095238Y-75047619D01*
X176190476Y-74285714D02*
X176571428Y-74285714D01*
X176333333Y-74952380D02*
X176333333Y-74095238D01*
X176380952Y-74000000D01*
X176476190Y-73952380D01*
X176571428Y-73952380D01*
X210725238Y-71952380D02*
X211058571Y-72952380D01*
X211391904Y-71952380D01*
X212296666Y-72952380D02*
X211963333Y-72476190D01*
X211725238Y-72952380D02*
X211725238Y-71952380D01*
X212106190Y-71952380D01*
X212201428Y-72000000D01*
X212249047Y-72047619D01*
X212296666Y-72142857D01*
X212296666Y-72285714D01*
X212249047Y-72380952D01*
X212201428Y-72428571D01*
X212106190Y-72476190D01*
X211725238Y-72476190D01*
X212487142Y-73047619D02*
X213249047Y-73047619D01*
X213487142Y-72952380D02*
X213487142Y-71952380D01*
X213582380Y-72571428D02*
X213868095Y-72952380D01*
X213868095Y-72285714D02*
X213487142Y-72666666D01*
X214249047Y-72047619D02*
X214296666Y-72000000D01*
X214391904Y-71952380D01*
X214630000Y-71952380D01*
X214725238Y-72000000D01*
X214772857Y-72047619D01*
X214820476Y-72142857D01*
X214820476Y-72238095D01*
X214772857Y-72380952D01*
X214201428Y-72952380D01*
X214820476Y-72952380D01*
X190904761Y-135952380D02*
X191238095Y-136952380D01*
X191571428Y-135952380D01*
X192476190Y-136952380D02*
X192142857Y-136476190D01*
X191904761Y-136952380D02*
X191904761Y-135952380D01*
X192285714Y-135952380D01*
X192380952Y-136000000D01*
X192428571Y-136047619D01*
X192476190Y-136142857D01*
X192476190Y-136285714D01*
X192428571Y-136380952D01*
X192380952Y-136428571D01*
X192285714Y-136476190D01*
X191904761Y-136476190D01*
X192666666Y-137047619D02*
X193428571Y-137047619D01*
X193666666Y-136952380D02*
X193666666Y-135952380D01*
X193761904Y-136571428D02*
X194047619Y-136952380D01*
X194047619Y-136285714D02*
X193666666Y-136666666D01*
X195000000Y-136952380D02*
X194428571Y-136952380D01*
X194714285Y-136952380D02*
X194714285Y-135952380D01*
X194619047Y-136095238D01*
X194523809Y-136190476D01*
X194428571Y-136238095D01*
X215357142Y-126500000D02*
X215404761Y-126547619D01*
X215452380Y-126690476D01*
X215452380Y-126785714D01*
X215404761Y-126928571D01*
X215309523Y-127023809D01*
X215214285Y-127071428D01*
X215023809Y-127119047D01*
X214880952Y-127119047D01*
X214690476Y-127071428D01*
X214595238Y-127023809D01*
X214500000Y-126928571D01*
X214452380Y-126785714D01*
X214452380Y-126690476D01*
X214500000Y-126547619D01*
X214547619Y-126500000D01*
X215547619Y-126309523D02*
X215547619Y-125547619D01*
X215452380Y-125166666D02*
X215404761Y-125261904D01*
X215357142Y-125309523D01*
X215261904Y-125357142D01*
X214976190Y-125357142D01*
X214880952Y-125309523D01*
X214833333Y-125261904D01*
X214785714Y-125166666D01*
X214785714Y-125023809D01*
X214833333Y-124928571D01*
X214880952Y-124880952D01*
X214976190Y-124833333D01*
X215261904Y-124833333D01*
X215357142Y-124880952D01*
X215404761Y-124928571D01*
X215452380Y-125023809D01*
X215452380Y-125166666D01*
X215452380Y-123880952D02*
X215452380Y-124452380D01*
X215452380Y-124166666D02*
X214452380Y-124166666D01*
X214595238Y-124261904D01*
X214690476Y-124357142D01*
X214738095Y-124452380D01*
X186357142Y-106000000D02*
X186404761Y-106047619D01*
X186452380Y-106190476D01*
X186452380Y-106285714D01*
X186404761Y-106428571D01*
X186309523Y-106523809D01*
X186214285Y-106571428D01*
X186023809Y-106619047D01*
X185880952Y-106619047D01*
X185690476Y-106571428D01*
X185595238Y-106523809D01*
X185500000Y-106428571D01*
X185452380Y-106285714D01*
X185452380Y-106190476D01*
X185500000Y-106047619D01*
X185547619Y-106000000D01*
X186547619Y-105809523D02*
X186547619Y-105047619D01*
X186452380Y-104666666D02*
X186404761Y-104761904D01*
X186357142Y-104809523D01*
X186261904Y-104857142D01*
X185976190Y-104857142D01*
X185880952Y-104809523D01*
X185833333Y-104761904D01*
X185785714Y-104666666D01*
X185785714Y-104523809D01*
X185833333Y-104428571D01*
X185880952Y-104380952D01*
X185976190Y-104333333D01*
X186261904Y-104333333D01*
X186357142Y-104380952D01*
X186404761Y-104428571D01*
X186452380Y-104523809D01*
X186452380Y-104666666D01*
X185547619Y-103952380D02*
X185500000Y-103904761D01*
X185452380Y-103809523D01*
X185452380Y-103571428D01*
X185500000Y-103476190D01*
X185547619Y-103428571D01*
X185642857Y-103380952D01*
X185738095Y-103380952D01*
X185880952Y-103428571D01*
X186452380Y-104000000D01*
X186452380Y-103380952D01*
X220452380Y-85952380D02*
X219976190Y-86285714D01*
X220452380Y-86523809D02*
X219452380Y-86523809D01*
X219452380Y-86142857D01*
X219500000Y-86047619D01*
X219547619Y-86000000D01*
X219642857Y-85952380D01*
X219785714Y-85952380D01*
X219880952Y-86000000D01*
X219928571Y-86047619D01*
X219976190Y-86142857D01*
X219976190Y-86523809D01*
X220547619Y-85761904D02*
X220547619Y-85000000D01*
X220452380Y-84761904D02*
X219452380Y-84761904D01*
X220071428Y-84666666D02*
X220452380Y-84380952D01*
X219785714Y-84380952D02*
X220166666Y-84761904D01*
X219547619Y-84000000D02*
X219500000Y-83952380D01*
X219452380Y-83857142D01*
X219452380Y-83619047D01*
X219500000Y-83523809D01*
X219547619Y-83476190D01*
X219642857Y-83428571D01*
X219738095Y-83428571D01*
X219880952Y-83476190D01*
X220452380Y-84047619D01*
X220452380Y-83428571D01*
X217357142Y-89952380D02*
X217404761Y-90000000D01*
X217452380Y-90142857D01*
X217452380Y-90238095D01*
X217404761Y-90380952D01*
X217309523Y-90476190D01*
X217214285Y-90523809D01*
X217023809Y-90571428D01*
X216880952Y-90571428D01*
X216690476Y-90523809D01*
X216595238Y-90476190D01*
X216500000Y-90380952D01*
X216452380Y-90238095D01*
X216452380Y-90142857D01*
X216500000Y-90000000D01*
X216547619Y-89952380D01*
X217547619Y-89761904D02*
X217547619Y-89000000D01*
X217452380Y-88761904D02*
X216452380Y-88761904D01*
X217071428Y-88666666D02*
X217452380Y-88380952D01*
X216785714Y-88380952D02*
X217166666Y-88761904D01*
X216547619Y-88000000D02*
X216500000Y-87952380D01*
X216452380Y-87857142D01*
X216452380Y-87619047D01*
X216500000Y-87523809D01*
X216547619Y-87476190D01*
X216642857Y-87428571D01*
X216738095Y-87428571D01*
X216880952Y-87476190D01*
X217452380Y-88047619D01*
X217452380Y-87428571D01*
X190952380Y-122452380D02*
X190476190Y-122785714D01*
X190952380Y-123023809D02*
X189952380Y-123023809D01*
X189952380Y-122642857D01*
X190000000Y-122547619D01*
X190047619Y-122500000D01*
X190142857Y-122452380D01*
X190285714Y-122452380D01*
X190380952Y-122500000D01*
X190428571Y-122547619D01*
X190476190Y-122642857D01*
X190476190Y-123023809D01*
X191047619Y-122261904D02*
X191047619Y-121500000D01*
X190952380Y-121261904D02*
X189952380Y-121261904D01*
X190571428Y-121166666D02*
X190952380Y-120880952D01*
X190285714Y-120880952D02*
X190666666Y-121261904D01*
X190952380Y-119928571D02*
X190952380Y-120500000D01*
X190952380Y-120214285D02*
X189952380Y-120214285D01*
X190095238Y-120309523D01*
X190190476Y-120404761D01*
X190238095Y-120500000D01*
X198357142Y-125452380D02*
X198404761Y-125500000D01*
X198452380Y-125642857D01*
X198452380Y-125738095D01*
X198404761Y-125880952D01*
X198309523Y-125976190D01*
X198214285Y-126023809D01*
X198023809Y-126071428D01*
X197880952Y-126071428D01*
X197690476Y-126023809D01*
X197595238Y-125976190D01*
X197500000Y-125880952D01*
X197452380Y-125738095D01*
X197452380Y-125642857D01*
X197500000Y-125500000D01*
X197547619Y-125452380D01*
X198547619Y-125261904D02*
X198547619Y-124500000D01*
X198452380Y-124261904D02*
X197452380Y-124261904D01*
X198071428Y-124166666D02*
X198452380Y-123880952D01*
X197785714Y-123880952D02*
X198166666Y-124261904D01*
X198452380Y-122928571D02*
X198452380Y-123500000D01*
X198452380Y-123214285D02*
X197452380Y-123214285D01*
X197595238Y-123309523D01*
X197690476Y-123404761D01*
X197738095Y-123500000D01*
X207452380Y-83500000D02*
X206976190Y-83833333D01*
X207452380Y-84071428D02*
X206452380Y-84071428D01*
X206452380Y-83690476D01*
X206500000Y-83595238D01*
X206547619Y-83547619D01*
X206642857Y-83500000D01*
X206785714Y-83500000D01*
X206880952Y-83547619D01*
X206928571Y-83595238D01*
X206976190Y-83690476D01*
X206976190Y-84071428D01*
X207547619Y-83309523D02*
X207547619Y-82547619D01*
X206785714Y-81880952D02*
X207595238Y-81880952D01*
X207690476Y-81928571D01*
X207738095Y-81976190D01*
X207785714Y-82071428D01*
X207785714Y-82214285D01*
X207738095Y-82309523D01*
X207404761Y-81880952D02*
X207452380Y-81976190D01*
X207452380Y-82166666D01*
X207404761Y-82261904D01*
X207357142Y-82309523D01*
X207261904Y-82357142D01*
X206976190Y-82357142D01*
X206880952Y-82309523D01*
X206833333Y-82261904D01*
X206785714Y-82166666D01*
X206785714Y-81976190D01*
X206833333Y-81880952D01*
X206547619Y-81452380D02*
X206500000Y-81404761D01*
X206452380Y-81309523D01*
X206452380Y-81071428D01*
X206500000Y-80976190D01*
X206547619Y-80928571D01*
X206642857Y-80880952D01*
X206738095Y-80880952D01*
X206880952Y-80928571D01*
X207452380Y-81500000D01*
X207452380Y-80880952D01*
X202452380Y-129500000D02*
X201976190Y-129833333D01*
X202452380Y-130071428D02*
X201452380Y-130071428D01*
X201452380Y-129690476D01*
X201500000Y-129595238D01*
X201547619Y-129547619D01*
X201642857Y-129500000D01*
X201785714Y-129500000D01*
X201880952Y-129547619D01*
X201928571Y-129595238D01*
X201976190Y-129690476D01*
X201976190Y-130071428D01*
X202547619Y-129309523D02*
X202547619Y-128547619D01*
X201785714Y-127880952D02*
X202595238Y-127880952D01*
X202690476Y-127928571D01*
X202738095Y-127976190D01*
X202785714Y-128071428D01*
X202785714Y-128214285D01*
X202738095Y-128309523D01*
X202404761Y-127880952D02*
X202452380Y-127976190D01*
X202452380Y-128166666D01*
X202404761Y-128261904D01*
X202357142Y-128309523D01*
X202261904Y-128357142D01*
X201976190Y-128357142D01*
X201880952Y-128309523D01*
X201833333Y-128261904D01*
X201785714Y-128166666D01*
X201785714Y-127976190D01*
X201833333Y-127880952D01*
X202452380Y-126880952D02*
X202452380Y-127452380D01*
X202452380Y-127166666D02*
X201452380Y-127166666D01*
X201595238Y-127261904D01*
X201690476Y-127357142D01*
X201738095Y-127452380D01*
X200000000Y-111000000D02*
X201000000Y-112000000D01*
X200000000Y-100000000D02*
X201500000Y-98500000D01*
X196602380Y-109166666D02*
X197316666Y-109166666D01*
X197459523Y-109214285D01*
X197554761Y-109309523D01*
X197602380Y-109452380D01*
X197602380Y-109547619D01*
X196935714Y-108261904D02*
X197602380Y-108261904D01*
X196935714Y-108690476D02*
X197459523Y-108690476D01*
X197554761Y-108642857D01*
X197602380Y-108547619D01*
X197602380Y-108404761D01*
X197554761Y-108309523D01*
X197507142Y-108261904D01*
X197602380Y-107785714D02*
X196935714Y-107785714D01*
X197030952Y-107785714D02*
X196983333Y-107738095D01*
X196935714Y-107642857D01*
X196935714Y-107500000D01*
X196983333Y-107404761D01*
X197078571Y-107357142D01*
X197602380Y-107357142D01*
X197078571Y-107357142D02*
X196983333Y-107309523D01*
X196935714Y-107214285D01*
X196935714Y-107071428D01*
X196983333Y-106976190D01*
X197078571Y-106928571D01*
X197602380Y-106928571D01*
X196935714Y-106452380D02*
X197935714Y-106452380D01*
X196983333Y-106452380D02*
X196935714Y-106357142D01*
X196935714Y-106166666D01*
X196983333Y-106071428D01*
X197030952Y-106023809D01*
X197126190Y-105976190D01*
X197411904Y-105976190D01*
X197507142Y-106023809D01*
X197554761Y-106071428D01*
X197602380Y-106166666D01*
X197602380Y-106357142D01*
X197554761Y-106452380D01*
X197554761Y-105166666D02*
X197602380Y-105261904D01*
X197602380Y-105452380D01*
X197554761Y-105547619D01*
X197459523Y-105595238D01*
X197078571Y-105595238D01*
X196983333Y-105547619D01*
X196935714Y-105452380D01*
X196935714Y-105261904D01*
X196983333Y-105166666D01*
X197078571Y-105119047D01*
X197173809Y-105119047D01*
X197269047Y-105595238D01*
X197602380Y-104690476D02*
X196935714Y-104690476D01*
X197126190Y-104690476D02*
X197030952Y-104642857D01*
X196983333Y-104595238D01*
X196935714Y-104500000D01*
X196935714Y-104404761D01*
X196935714Y-103452380D02*
X196935714Y-103071428D01*
X196602380Y-103309523D02*
X197459523Y-103309523D01*
X197554761Y-103261904D01*
X197602380Y-103166666D01*
X197602380Y-103071428D01*
X197602380Y-102595238D02*
X197554761Y-102690476D01*
X197507142Y-102738095D01*
X197411904Y-102785714D01*
X197126190Y-102785714D01*
X197030952Y-102738095D01*
X196983333Y-102690476D01*
X196935714Y-102595238D01*
X196935714Y-102452380D01*
X196983333Y-102357142D01*
X197030952Y-102309523D01*
X197126190Y-102261904D01*
X197411904Y-102261904D01*
X197507142Y-102309523D01*
X197554761Y-102357142D01*
X197602380Y-102452380D01*
X197602380Y-102595238D01*
X198635714Y-110809523D02*
X199635714Y-110809523D01*
X198683333Y-110809523D02*
X198635714Y-110714285D01*
X198635714Y-110523809D01*
X198683333Y-110428571D01*
X198730952Y-110380952D01*
X198826190Y-110333333D01*
X199111904Y-110333333D01*
X199207142Y-110380952D01*
X199254761Y-110428571D01*
X199302380Y-110523809D01*
X199302380Y-110714285D01*
X199254761Y-110809523D01*
X199302380Y-109476190D02*
X198778571Y-109476190D01*
X198683333Y-109523809D01*
X198635714Y-109619047D01*
X198635714Y-109809523D01*
X198683333Y-109904761D01*
X199254761Y-109476190D02*
X199302380Y-109571428D01*
X199302380Y-109809523D01*
X199254761Y-109904761D01*
X199159523Y-109952380D01*
X199064285Y-109952380D01*
X198969047Y-109904761D01*
X198921428Y-109809523D01*
X198921428Y-109571428D01*
X198873809Y-109476190D01*
X199302380Y-109000000D02*
X198635714Y-109000000D01*
X198826190Y-109000000D02*
X198730952Y-108952380D01*
X198683333Y-108904761D01*
X198635714Y-108809523D01*
X198635714Y-108714285D01*
X199302380Y-107952380D02*
X198778571Y-107952380D01*
X198683333Y-108000000D01*
X198635714Y-108095238D01*
X198635714Y-108285714D01*
X198683333Y-108380952D01*
X199254761Y-107952380D02*
X199302380Y-108047619D01*
X199302380Y-108285714D01*
X199254761Y-108380952D01*
X199159523Y-108428571D01*
X199064285Y-108428571D01*
X198969047Y-108380952D01*
X198921428Y-108285714D01*
X198921428Y-108047619D01*
X198873809Y-107952380D01*
X199302380Y-107333333D02*
X199254761Y-107428571D01*
X199159523Y-107476190D01*
X198302380Y-107476190D01*
X199302380Y-106809523D02*
X199254761Y-106904761D01*
X199159523Y-106952380D01*
X198302380Y-106952380D01*
X199254761Y-106047619D02*
X199302380Y-106142857D01*
X199302380Y-106333333D01*
X199254761Y-106428571D01*
X199159523Y-106476190D01*
X198778571Y-106476190D01*
X198683333Y-106428571D01*
X198635714Y-106333333D01*
X198635714Y-106142857D01*
X198683333Y-106047619D01*
X198778571Y-106000000D01*
X198873809Y-106000000D01*
X198969047Y-106476190D01*
X199302380Y-105428571D02*
X199254761Y-105523809D01*
X199159523Y-105571428D01*
X198302380Y-105571428D01*
X199302380Y-104285714D02*
X198635714Y-104285714D01*
X198302380Y-104285714D02*
X198350000Y-104333333D01*
X198397619Y-104285714D01*
X198350000Y-104238095D01*
X198302380Y-104285714D01*
X198397619Y-104285714D01*
X198635714Y-103809523D02*
X199302380Y-103809523D01*
X198730952Y-103809523D02*
X198683333Y-103761904D01*
X198635714Y-103666666D01*
X198635714Y-103523809D01*
X198683333Y-103428571D01*
X198778571Y-103380952D01*
X199302380Y-103380952D01*
X198635714Y-102904761D02*
X199635714Y-102904761D01*
X198683333Y-102904761D02*
X198635714Y-102809523D01*
X198635714Y-102619047D01*
X198683333Y-102523809D01*
X198730952Y-102476190D01*
X198826190Y-102428571D01*
X199111904Y-102428571D01*
X199207142Y-102476190D01*
X199254761Y-102523809D01*
X199302380Y-102619047D01*
X199302380Y-102809523D01*
X199254761Y-102904761D01*
X198635714Y-101571428D02*
X199302380Y-101571428D01*
X198635714Y-102000000D02*
X199159523Y-102000000D01*
X199254761Y-101952380D01*
X199302380Y-101857142D01*
X199302380Y-101714285D01*
X199254761Y-101619047D01*
X199207142Y-101571428D01*
X198635714Y-101238095D02*
X198635714Y-100857142D01*
X198302380Y-101095238D02*
X199159523Y-101095238D01*
X199254761Y-101047619D01*
X199302380Y-100952380D01*
X199302380Y-100857142D01*
X199254761Y-100571428D02*
X199302380Y-100476190D01*
X199302380Y-100285714D01*
X199254761Y-100190476D01*
X199159523Y-100142857D01*
X199111904Y-100142857D01*
X199016666Y-100190476D01*
X198969047Y-100285714D01*
X198969047Y-100428571D01*
X198921428Y-100523809D01*
X198826190Y-100571428D01*
X198778571Y-100571428D01*
X198683333Y-100523809D01*
X198635714Y-100428571D01*
X198635714Y-100285714D01*
X198683333Y-100190476D01*
X226238095Y-80500000D02*
X226142857Y-80452380D01*
X226000000Y-80452380D01*
X225857142Y-80500000D01*
X225761904Y-80595238D01*
X225714285Y-80690476D01*
X225666666Y-80880952D01*
X225666666Y-81023809D01*
X225714285Y-81214285D01*
X225761904Y-81309523D01*
X225857142Y-81404761D01*
X226000000Y-81452380D01*
X226095238Y-81452380D01*
X226238095Y-81404761D01*
X226285714Y-81357142D01*
X226285714Y-81023809D01*
X226095238Y-81023809D01*
X226714285Y-81452380D02*
X226714285Y-80452380D01*
X227285714Y-81452380D01*
X227285714Y-80452380D01*
X227761904Y-81452380D02*
X227761904Y-80452380D01*
X228000000Y-80452380D01*
X228142857Y-80500000D01*
X228238095Y-80595238D01*
X228285714Y-80690476D01*
X228333333Y-80880952D01*
X228333333Y-81023809D01*
X228285714Y-81214285D01*
X228238095Y-81309523D01*
X228142857Y-81404761D01*
X228000000Y-81452380D01*
X227761904Y-81452380D01*
X226023809Y-94357142D02*
X225976190Y-94404761D01*
X225833333Y-94452380D01*
X225738095Y-94452380D01*
X225595238Y-94404761D01*
X225500000Y-94309523D01*
X225452380Y-94214285D01*
X225404761Y-94023809D01*
X225404761Y-93880952D01*
X225452380Y-93690476D01*
X225500000Y-93595238D01*
X225595238Y-93500000D01*
X225738095Y-93452380D01*
X225833333Y-93452380D01*
X225976190Y-93500000D01*
X226023809Y-93547619D01*
X226785714Y-93928571D02*
X226452380Y-93928571D01*
X226452380Y-94452380D02*
X226452380Y-93452380D01*
X226928571Y-93452380D01*
X227071428Y-94547619D02*
X227833333Y-94547619D01*
X228023809Y-93547619D02*
X228071428Y-93500000D01*
X228166666Y-93452380D01*
X228404761Y-93452380D01*
X228500000Y-93500000D01*
X228547619Y-93547619D01*
X228595238Y-93642857D01*
X228595238Y-93738095D01*
X228547619Y-93880952D01*
X227976190Y-94452380D01*
X228595238Y-94452380D01*
X224904761Y-99952380D02*
X224904761Y-98952380D01*
X224904761Y-99428571D02*
X225476190Y-99428571D01*
X225476190Y-99952380D02*
X225476190Y-98952380D01*
X226333333Y-99904761D02*
X226238095Y-99952380D01*
X226047619Y-99952380D01*
X225952380Y-99904761D01*
X225904761Y-99809523D01*
X225904761Y-99428571D01*
X225952380Y-99333333D01*
X226047619Y-99285714D01*
X226238095Y-99285714D01*
X226333333Y-99333333D01*
X226380952Y-99428571D01*
X226380952Y-99523809D01*
X225904761Y-99619047D01*
X227238095Y-99952380D02*
X227238095Y-99428571D01*
X227190476Y-99333333D01*
X227095238Y-99285714D01*
X226904761Y-99285714D01*
X226809523Y-99333333D01*
X227238095Y-99904761D02*
X227142857Y-99952380D01*
X226904761Y-99952380D01*
X226809523Y-99904761D01*
X226761904Y-99809523D01*
X226761904Y-99714285D01*
X226809523Y-99619047D01*
X226904761Y-99571428D01*
X227142857Y-99571428D01*
X227238095Y-99523809D01*
X227571428Y-99285714D02*
X227952380Y-99285714D01*
X227714285Y-98952380D02*
X227714285Y-99809523D01*
X227761904Y-99904761D01*
X227857142Y-99952380D01*
X227952380Y-99952380D01*
X228666666Y-99904761D02*
X228571428Y-99952380D01*
X228380952Y-99952380D01*
X228285714Y-99904761D01*
X228238095Y-99809523D01*
X228238095Y-99428571D01*
X228285714Y-99333333D01*
X228380952Y-99285714D01*
X228571428Y-99285714D01*
X228666666Y-99333333D01*
X228714285Y-99428571D01*
X228714285Y-99523809D01*
X228238095Y-99619047D01*
X229142857Y-99952380D02*
X229142857Y-99285714D01*
X229142857Y-99476190D02*
X229190476Y-99380952D01*
X229238095Y-99333333D01*
X229333333Y-99285714D01*
X229428571Y-99285714D01*
X229714285Y-99904761D02*
X229809523Y-99952380D01*
X230000000Y-99952380D01*
X230095238Y-99904761D01*
X230142857Y-99809523D01*
X230142857Y-99761904D01*
X230095238Y-99666666D01*
X230000000Y-99619047D01*
X229857142Y-99619047D01*
X229761904Y-99571428D01*
X229714285Y-99476190D01*
X229714285Y-99428571D01*
X229761904Y-99333333D01*
X229857142Y-99285714D01*
X230000000Y-99285714D01*
X230095238Y-99333333D01*
X175404761Y-99952380D02*
X175404761Y-98952380D01*
X175404761Y-99428571D02*
X175976190Y-99428571D01*
X175976190Y-99952380D02*
X175976190Y-98952380D01*
X176833333Y-99904761D02*
X176738095Y-99952380D01*
X176547619Y-99952380D01*
X176452380Y-99904761D01*
X176404761Y-99809523D01*
X176404761Y-99428571D01*
X176452380Y-99333333D01*
X176547619Y-99285714D01*
X176738095Y-99285714D01*
X176833333Y-99333333D01*
X176880952Y-99428571D01*
X176880952Y-99523809D01*
X176404761Y-99619047D01*
X177738095Y-99952380D02*
X177738095Y-99428571D01*
X177690476Y-99333333D01*
X177595238Y-99285714D01*
X177404761Y-99285714D01*
X177309523Y-99333333D01*
X177738095Y-99904761D02*
X177642857Y-99952380D01*
X177404761Y-99952380D01*
X177309523Y-99904761D01*
X177261904Y-99809523D01*
X177261904Y-99714285D01*
X177309523Y-99619047D01*
X177404761Y-99571428D01*
X177642857Y-99571428D01*
X177738095Y-99523809D01*
X178071428Y-99285714D02*
X178452380Y-99285714D01*
X178214285Y-98952380D02*
X178214285Y-99809523D01*
X178261904Y-99904761D01*
X178357142Y-99952380D01*
X178452380Y-99952380D01*
X179166666Y-99904761D02*
X179071428Y-99952380D01*
X178880952Y-99952380D01*
X178785714Y-99904761D01*
X178738095Y-99809523D01*
X178738095Y-99428571D01*
X178785714Y-99333333D01*
X178880952Y-99285714D01*
X179071428Y-99285714D01*
X179166666Y-99333333D01*
X179214285Y-99428571D01*
X179214285Y-99523809D01*
X178738095Y-99619047D01*
X179642857Y-99952380D02*
X179642857Y-99285714D01*
X179642857Y-99476190D02*
X179690476Y-99380952D01*
X179738095Y-99333333D01*
X179833333Y-99285714D01*
X179928571Y-99285714D01*
X180214285Y-99904761D02*
X180309523Y-99952380D01*
X180500000Y-99952380D01*
X180595238Y-99904761D01*
X180642857Y-99809523D01*
X180642857Y-99761904D01*
X180595238Y-99666666D01*
X180500000Y-99619047D01*
X180357142Y-99619047D01*
X180261904Y-99571428D01*
X180214285Y-99476190D01*
X180214285Y-99428571D01*
X180261904Y-99333333D01*
X180357142Y-99285714D01*
X180500000Y-99285714D01*
X180595238Y-99333333D01*
X215738095Y-58500000D02*
X215642857Y-58452380D01*
X215500000Y-58452380D01*
X215357142Y-58500000D01*
X215261904Y-58595238D01*
X215214285Y-58690476D01*
X215166666Y-58880952D01*
X215166666Y-59023809D01*
X215214285Y-59214285D01*
X215261904Y-59309523D01*
X215357142Y-59404761D01*
X215500000Y-59452380D01*
X215595238Y-59452380D01*
X215738095Y-59404761D01*
X215785714Y-59357142D01*
X215785714Y-59023809D01*
X215595238Y-59023809D01*
X216214285Y-59452380D02*
X216214285Y-58452380D01*
X216785714Y-59452380D01*
X216785714Y-58452380D01*
X217261904Y-59452380D02*
X217261904Y-58452380D01*
X217500000Y-58452380D01*
X217642857Y-58500000D01*
X217738095Y-58595238D01*
X217785714Y-58690476D01*
X217833333Y-58880952D01*
X217833333Y-59023809D01*
X217785714Y-59214285D01*
X217738095Y-59309523D01*
X217642857Y-59404761D01*
X217500000Y-59452380D01*
X217261904Y-59452380D01*
X180142857Y-59452380D02*
X180142857Y-58452380D01*
X180142857Y-58928571D02*
X180714285Y-58928571D01*
X180714285Y-59452380D02*
X180714285Y-58452380D01*
X181047619Y-58452380D02*
X181619047Y-58452380D01*
X181333333Y-59452380D02*
X181333333Y-58452380D01*
X182095238Y-59452380D02*
X182000000Y-59404761D01*
X181952380Y-59357142D01*
X181904761Y-59261904D01*
X181904761Y-58976190D01*
X181952380Y-58880952D01*
X182000000Y-58833333D01*
X182095238Y-58785714D01*
X182238095Y-58785714D01*
X182333333Y-58833333D01*
X182380952Y-58880952D01*
X182428571Y-58976190D01*
X182428571Y-59261904D01*
X182380952Y-59357142D01*
X182333333Y-59404761D01*
X182238095Y-59452380D01*
X182095238Y-59452380D01*
X183285714Y-58785714D02*
X183285714Y-59452380D01*
X182857142Y-58785714D02*
X182857142Y-59309523D01*
X182904761Y-59404761D01*
X183000000Y-59452380D01*
X183142857Y-59452380D01*
X183238095Y-59404761D01*
X183285714Y-59357142D01*
X183619047Y-58785714D02*
X184000000Y-58785714D01*
X183761904Y-58452380D02*
X183761904Y-59309523D01*
X183809523Y-59404761D01*
X183904761Y-59452380D01*
X184000000Y-59452380D01*
X201142857Y-58547619D02*
X201190476Y-58500000D01*
X201285714Y-58452380D01*
X201523809Y-58452380D01*
X201619047Y-58500000D01*
X201666666Y-58547619D01*
X201714285Y-58642857D01*
X201714285Y-58738095D01*
X201666666Y-58880952D01*
X201095238Y-59452380D01*
X201714285Y-59452380D01*
X201904761Y-59547619D02*
X202666666Y-59547619D01*
X202904761Y-59452380D02*
X202904761Y-58452380D01*
X203380952Y-58785714D02*
X203380952Y-59452380D01*
X203380952Y-58880952D02*
X203428571Y-58833333D01*
X203523809Y-58785714D01*
X203666666Y-58785714D01*
X203761904Y-58833333D01*
X203809523Y-58928571D01*
X203809523Y-59452380D01*
X219142857Y-142952380D02*
X218571428Y-142952380D01*
X218857142Y-142952380D02*
X218857142Y-141952380D01*
X218761904Y-142095238D01*
X218666666Y-142190476D01*
X218571428Y-142238095D01*
X219333333Y-143047619D02*
X220095238Y-143047619D01*
X220523809Y-141952380D02*
X220714285Y-141952380D01*
X220809523Y-142000000D01*
X220904761Y-142095238D01*
X220952380Y-142285714D01*
X220952380Y-142619047D01*
X220904761Y-142809523D01*
X220809523Y-142904761D01*
X220714285Y-142952380D01*
X220523809Y-142952380D01*
X220428571Y-142904761D01*
X220333333Y-142809523D01*
X220285714Y-142619047D01*
X220285714Y-142285714D01*
X220333333Y-142095238D01*
X220428571Y-142000000D01*
X220523809Y-141952380D01*
X221809523Y-142285714D02*
X221809523Y-142952380D01*
X221380952Y-142285714D02*
X221380952Y-142809523D01*
X221428571Y-142904761D01*
X221523809Y-142952380D01*
X221666666Y-142952380D01*
X221761904Y-142904761D01*
X221809523Y-142857142D01*
X222142857Y-142285714D02*
X222523809Y-142285714D01*
X222285714Y-141952380D02*
X222285714Y-142809523D01*
X222333333Y-142904761D01*
X222428571Y-142952380D01*
X222523809Y-142952380D01*
X213738095Y-151666666D02*
X214214285Y-151666666D01*
X213642857Y-151952380D02*
X213976190Y-150952380D01*
X214309523Y-151952380D01*
X215166666Y-151000000D02*
X215071428Y-150952380D01*
X214928571Y-150952380D01*
X214785714Y-151000000D01*
X214690476Y-151095238D01*
X214642857Y-151190476D01*
X214595238Y-151380952D01*
X214595238Y-151523809D01*
X214642857Y-151714285D01*
X214690476Y-151809523D01*
X214785714Y-151904761D01*
X214928571Y-151952380D01*
X215023809Y-151952380D01*
X215166666Y-151904761D01*
X215214285Y-151857142D01*
X215214285Y-151523809D01*
X215023809Y-151523809D01*
X215642857Y-151952380D02*
X215642857Y-150952380D01*
X216214285Y-151952380D01*
X216214285Y-150952380D01*
X216690476Y-151952380D02*
X216690476Y-150952380D01*
X216928571Y-150952380D01*
X217071428Y-151000000D01*
X217166666Y-151095238D01*
X217214285Y-151190476D01*
X217261904Y-151380952D01*
X217261904Y-151523809D01*
X217214285Y-151714285D01*
X217166666Y-151809523D01*
X217071428Y-151904761D01*
X216928571Y-151952380D01*
X216690476Y-151952380D01*
X209738095Y-142000000D02*
X209642857Y-141952380D01*
X209500000Y-141952380D01*
X209357142Y-142000000D01*
X209261904Y-142095238D01*
X209214285Y-142190476D01*
X209166666Y-142380952D01*
X209166666Y-142523809D01*
X209214285Y-142714285D01*
X209261904Y-142809523D01*
X209357142Y-142904761D01*
X209500000Y-142952380D01*
X209595238Y-142952380D01*
X209738095Y-142904761D01*
X209785714Y-142857142D01*
X209785714Y-142523809D01*
X209595238Y-142523809D01*
X210214285Y-142952380D02*
X210214285Y-141952380D01*
X210785714Y-142952380D01*
X210785714Y-141952380D01*
X211261904Y-142952380D02*
X211261904Y-141952380D01*
X211500000Y-141952380D01*
X211642857Y-142000000D01*
X211738095Y-142095238D01*
X211785714Y-142190476D01*
X211833333Y-142380952D01*
X211833333Y-142523809D01*
X211785714Y-142714285D01*
X211738095Y-142809523D01*
X211642857Y-142904761D01*
X211500000Y-142952380D01*
X211261904Y-142952380D01*
X204714285Y-151952380D02*
X204142857Y-151952380D01*
X204428571Y-151952380D02*
X204428571Y-150952380D01*
X204333333Y-151095238D01*
X204238095Y-151190476D01*
X204142857Y-151238095D01*
X204904761Y-152047619D02*
X205666666Y-152047619D01*
X205904761Y-151952380D02*
X205904761Y-150952380D01*
X206380952Y-151285714D02*
X206380952Y-151952380D01*
X206380952Y-151380952D02*
X206428571Y-151333333D01*
X206523809Y-151285714D01*
X206666666Y-151285714D01*
X206761904Y-151333333D01*
X206809523Y-151428571D01*
X206809523Y-151952380D01*
X198738095Y-142666666D02*
X199214285Y-142666666D01*
X198642857Y-142952380D02*
X198976190Y-141952380D01*
X199309523Y-142952380D01*
X200166666Y-142000000D02*
X200071428Y-141952380D01*
X199928571Y-141952380D01*
X199785714Y-142000000D01*
X199690476Y-142095238D01*
X199642857Y-142190476D01*
X199595238Y-142380952D01*
X199595238Y-142523809D01*
X199642857Y-142714285D01*
X199690476Y-142809523D01*
X199785714Y-142904761D01*
X199928571Y-142952380D01*
X200023809Y-142952380D01*
X200166666Y-142904761D01*
X200214285Y-142857142D01*
X200214285Y-142523809D01*
X200023809Y-142523809D01*
X200642857Y-142952380D02*
X200642857Y-141952380D01*
X201214285Y-142952380D01*
X201214285Y-141952380D01*
X201690476Y-142952380D02*
X201690476Y-141952380D01*
X201928571Y-141952380D01*
X202071428Y-142000000D01*
X202166666Y-142095238D01*
X202214285Y-142190476D01*
X202261904Y-142380952D01*
X202261904Y-142523809D01*
X202214285Y-142714285D01*
X202166666Y-142809523D01*
X202071428Y-142904761D01*
X201928571Y-142952380D01*
X201690476Y-142952380D01*
X189238095Y-142000000D02*
X189142857Y-141952380D01*
X189000000Y-141952380D01*
X188857142Y-142000000D01*
X188761904Y-142095238D01*
X188714285Y-142190476D01*
X188666666Y-142380952D01*
X188666666Y-142523809D01*
X188714285Y-142714285D01*
X188761904Y-142809523D01*
X188857142Y-142904761D01*
X189000000Y-142952380D01*
X189095238Y-142952380D01*
X189238095Y-142904761D01*
X189285714Y-142857142D01*
X189285714Y-142523809D01*
X189095238Y-142523809D01*
X189714285Y-142952380D02*
X189714285Y-141952380D01*
X190285714Y-142952380D01*
X190285714Y-141952380D01*
X190761904Y-142952380D02*
X190761904Y-141952380D01*
X191000000Y-141952380D01*
X191142857Y-142000000D01*
X191238095Y-142095238D01*
X191285714Y-142190476D01*
X191333333Y-142380952D01*
X191333333Y-142523809D01*
X191285714Y-142714285D01*
X191238095Y-142809523D01*
X191142857Y-142904761D01*
X191000000Y-142952380D01*
X190761904Y-142952380D01*
X193071428Y-151047619D02*
X193119047Y-151000000D01*
X193214285Y-150952380D01*
X193452380Y-150952380D01*
X193547619Y-151000000D01*
X193595238Y-151047619D01*
X193642857Y-151142857D01*
X193642857Y-151238095D01*
X193595238Y-151380952D01*
X193023809Y-151952380D01*
X193642857Y-151952380D01*
X193833333Y-152047619D02*
X194595238Y-152047619D01*
X195023809Y-150952380D02*
X195214285Y-150952380D01*
X195309523Y-151000000D01*
X195404761Y-151095238D01*
X195452380Y-151285714D01*
X195452380Y-151619047D01*
X195404761Y-151809523D01*
X195309523Y-151904761D01*
X195214285Y-151952380D01*
X195023809Y-151952380D01*
X194928571Y-151904761D01*
X194833333Y-151809523D01*
X194785714Y-151619047D01*
X194785714Y-151285714D01*
X194833333Y-151095238D01*
X194928571Y-151000000D01*
X195023809Y-150952380D01*
X196309523Y-151285714D02*
X196309523Y-151952380D01*
X195880952Y-151285714D02*
X195880952Y-151809523D01*
X195928571Y-151904761D01*
X196023809Y-151952380D01*
X196166666Y-151952380D01*
X196261904Y-151904761D01*
X196309523Y-151857142D01*
X196642857Y-151285714D02*
X197023809Y-151285714D01*
X196785714Y-150952380D02*
X196785714Y-151809523D01*
X196833333Y-151904761D01*
X196928571Y-151952380D01*
X197023809Y-151952380D01*
X184023809Y-151857142D02*
X183976190Y-151904761D01*
X183833333Y-151952380D01*
X183738095Y-151952380D01*
X183595238Y-151904761D01*
X183500000Y-151809523D01*
X183452380Y-151714285D01*
X183404761Y-151523809D01*
X183404761Y-151380952D01*
X183452380Y-151190476D01*
X183500000Y-151095238D01*
X183595238Y-151000000D01*
X183738095Y-150952380D01*
X183833333Y-150952380D01*
X183976190Y-151000000D01*
X184023809Y-151047619D01*
X184785714Y-151428571D02*
X184452380Y-151428571D01*
X184452380Y-151952380D02*
X184452380Y-150952380D01*
X184928571Y-150952380D01*
X185071428Y-152047619D02*
X185833333Y-152047619D01*
X186595238Y-151952380D02*
X186023809Y-151952380D01*
X186309523Y-151952380D02*
X186309523Y-150952380D01*
X186214285Y-151095238D01*
X186119047Y-151190476D01*
X186023809Y-151238095D01*
D11*
X205628571Y-116690476D02*
X204128571Y-116690476D01*
X204128571Y-116214285D01*
X204200000Y-116095238D01*
X204271428Y-116035714D01*
X204414285Y-115976190D01*
X204628571Y-115976190D01*
X204771428Y-116035714D01*
X204842857Y-116095238D01*
X204914285Y-116214285D01*
X204914285Y-116690476D01*
X205628571Y-115440476D02*
X204628571Y-115440476D01*
X204914285Y-115440476D02*
X204771428Y-115380952D01*
X204700000Y-115321428D01*
X204628571Y-115202380D01*
X204628571Y-115083333D01*
X205557142Y-114190476D02*
X205628571Y-114309523D01*
X205628571Y-114547619D01*
X205557142Y-114666666D01*
X205414285Y-114726190D01*
X204842857Y-114726190D01*
X204700000Y-114666666D01*
X204628571Y-114547619D01*
X204628571Y-114309523D01*
X204700000Y-114190476D01*
X204842857Y-114130952D01*
X204985714Y-114130952D01*
X205128571Y-114726190D01*
X205628571Y-113059523D02*
X204842857Y-113059523D01*
X204700000Y-113119047D01*
X204628571Y-113238095D01*
X204628571Y-113476190D01*
X204700000Y-113595238D01*
X205557142Y-113059523D02*
X205628571Y-113178571D01*
X205628571Y-113476190D01*
X205557142Y-113595238D01*
X205414285Y-113654761D01*
X205271428Y-113654761D01*
X205128571Y-113595238D01*
X205057142Y-113476190D01*
X205057142Y-113178571D01*
X204985714Y-113059523D01*
X205628571Y-112464285D02*
X204628571Y-112464285D01*
X204771428Y-112464285D02*
X204700000Y-112404761D01*
X204628571Y-112285714D01*
X204628571Y-112107142D01*
X204700000Y-111988095D01*
X204842857Y-111928571D01*
X205628571Y-111928571D01*
X204842857Y-111928571D02*
X204700000Y-111869047D01*
X204628571Y-111750000D01*
X204628571Y-111571428D01*
X204700000Y-111452380D01*
X204842857Y-111392857D01*
X205628571Y-111392857D01*
X204628571Y-110797619D02*
X206128571Y-110797619D01*
X204700000Y-110797619D02*
X204628571Y-110678571D01*
X204628571Y-110440476D01*
X204700000Y-110321428D01*
X204771428Y-110261904D01*
X204914285Y-110202380D01*
X205342857Y-110202380D01*
X205485714Y-110261904D01*
X205557142Y-110321428D01*
X205628571Y-110440476D01*
X205628571Y-110678571D01*
X205557142Y-110797619D01*
X204628571Y-108892857D02*
X204628571Y-108416666D01*
X204128571Y-108714285D02*
X205414285Y-108714285D01*
X205557142Y-108654761D01*
X205628571Y-108535714D01*
X205628571Y-108416666D01*
X205557142Y-107523809D02*
X205628571Y-107642857D01*
X205628571Y-107880952D01*
X205557142Y-108000000D01*
X205414285Y-108059523D01*
X204842857Y-108059523D01*
X204700000Y-108000000D01*
X204628571Y-107880952D01*
X204628571Y-107642857D01*
X204700000Y-107523809D01*
X204842857Y-107464285D01*
X204985714Y-107464285D01*
X205128571Y-108059523D01*
X205628571Y-106928571D02*
X204628571Y-106928571D01*
X204771428Y-106928571D02*
X204700000Y-106869047D01*
X204628571Y-106750000D01*
X204628571Y-106571428D01*
X204700000Y-106452380D01*
X204842857Y-106392857D01*
X205628571Y-106392857D01*
X204842857Y-106392857D02*
X204700000Y-106333333D01*
X204628571Y-106214285D01*
X204628571Y-106035714D01*
X204700000Y-105916666D01*
X204842857Y-105857142D01*
X205628571Y-105857142D01*
X204628571Y-105261904D02*
X206128571Y-105261904D01*
X204700000Y-105261904D02*
X204628571Y-105142857D01*
X204628571Y-104904761D01*
X204700000Y-104785714D01*
X204771428Y-104726190D01*
X204914285Y-104666666D01*
X205342857Y-104666666D01*
X205485714Y-104726190D01*
X205557142Y-104785714D01*
X205628571Y-104904761D01*
X205628571Y-105142857D01*
X205557142Y-105261904D01*
X205628571Y-103952380D02*
X205557142Y-104071428D01*
X205414285Y-104130952D01*
X204128571Y-104130952D01*
X205628571Y-102940476D02*
X204842857Y-102940476D01*
X204700000Y-103000000D01*
X204628571Y-103119047D01*
X204628571Y-103357142D01*
X204700000Y-103476190D01*
X205557142Y-102940476D02*
X205628571Y-103059523D01*
X205628571Y-103357142D01*
X205557142Y-103476190D01*
X205414285Y-103535714D01*
X205271428Y-103535714D01*
X205128571Y-103476190D01*
X205057142Y-103357142D01*
X205057142Y-103059523D01*
X204985714Y-102940476D01*
X204628571Y-102523809D02*
X204628571Y-102047619D01*
X204128571Y-102345238D02*
X205414285Y-102345238D01*
X205557142Y-102285714D01*
X205628571Y-102166666D01*
X205628571Y-102047619D01*
X205557142Y-101154761D02*
X205628571Y-101273809D01*
X205628571Y-101511904D01*
X205557142Y-101630952D01*
X205414285Y-101690476D01*
X204842857Y-101690476D01*
X204700000Y-101630952D01*
X204628571Y-101511904D01*
X204628571Y-101273809D01*
X204700000Y-101154761D01*
X204842857Y-101095238D01*
X204985714Y-101095238D01*
X205128571Y-101690476D01*
X205628571Y-99607142D02*
X204128571Y-99607142D01*
X204128571Y-99130952D01*
X204200000Y-99011904D01*
X204271428Y-98952380D01*
X204414285Y-98892857D01*
X204628571Y-98892857D01*
X204771428Y-98952380D01*
X204842857Y-99011904D01*
X204914285Y-99130952D01*
X204914285Y-99607142D01*
X205485714Y-97642857D02*
X205557142Y-97702380D01*
X205628571Y-97880952D01*
X205628571Y-98000000D01*
X205557142Y-98178571D01*
X205414285Y-98297619D01*
X205271428Y-98357142D01*
X204985714Y-98416666D01*
X204771428Y-98416666D01*
X204485714Y-98357142D01*
X204342857Y-98297619D01*
X204200000Y-98178571D01*
X204128571Y-98000000D01*
X204128571Y-97880952D01*
X204200000Y-97702380D01*
X204271428Y-97642857D01*
X204842857Y-96690476D02*
X204914285Y-96511904D01*
X204985714Y-96452380D01*
X205128571Y-96392857D01*
X205342857Y-96392857D01*
X205485714Y-96452380D01*
X205557142Y-96511904D01*
X205628571Y-96630952D01*
X205628571Y-97107142D01*
X204128571Y-97107142D01*
X204128571Y-96690476D01*
X204200000Y-96571428D01*
X204271428Y-96511904D01*
X204414285Y-96452380D01*
X204557142Y-96452380D01*
X204700000Y-96511904D01*
X204771428Y-96571428D01*
X204842857Y-96690476D01*
X204842857Y-97107142D01*
X204628571Y-95976190D02*
X205628571Y-95678571D01*
X204628571Y-95380952D01*
X205628571Y-94250000D02*
X205628571Y-94964285D01*
X205628571Y-94607142D02*
X204128571Y-94607142D01*
X204342857Y-94726190D01*
X204485714Y-94845238D01*
X204557142Y-94964285D01*
X206678571Y-112226190D02*
X206678571Y-111511904D01*
X208178571Y-111869047D02*
X206678571Y-111869047D01*
X208178571Y-111095238D02*
X207178571Y-111095238D01*
X207464285Y-111095238D02*
X207321428Y-111035714D01*
X207250000Y-110976190D01*
X207178571Y-110857142D01*
X207178571Y-110738095D01*
X208178571Y-110321428D02*
X207178571Y-110321428D01*
X206678571Y-110321428D02*
X206750000Y-110380952D01*
X206821428Y-110321428D01*
X206750000Y-110261904D01*
X206678571Y-110321428D01*
X206821428Y-110321428D01*
X208107142Y-109785714D02*
X208178571Y-109666666D01*
X208178571Y-109428571D01*
X208107142Y-109309523D01*
X207964285Y-109250000D01*
X207892857Y-109250000D01*
X207750000Y-109309523D01*
X207678571Y-109428571D01*
X207678571Y-109607142D01*
X207607142Y-109726190D01*
X207464285Y-109785714D01*
X207392857Y-109785714D01*
X207250000Y-109726190D01*
X207178571Y-109607142D01*
X207178571Y-109428571D01*
X207250000Y-109309523D01*
X207178571Y-108892857D02*
X207178571Y-108416666D01*
X206678571Y-108714285D02*
X207964285Y-108714285D01*
X208107142Y-108654761D01*
X208178571Y-108535714D01*
X208178571Y-108416666D01*
X208178571Y-107464285D02*
X207392857Y-107464285D01*
X207250000Y-107523809D01*
X207178571Y-107642857D01*
X207178571Y-107880952D01*
X207250000Y-108000000D01*
X208107142Y-107464285D02*
X208178571Y-107583333D01*
X208178571Y-107880952D01*
X208107142Y-108000000D01*
X207964285Y-108059523D01*
X207821428Y-108059523D01*
X207678571Y-108000000D01*
X207607142Y-107880952D01*
X207607142Y-107583333D01*
X207535714Y-107464285D01*
X207178571Y-106869047D02*
X208178571Y-106869047D01*
X207321428Y-106869047D02*
X207250000Y-106809523D01*
X207178571Y-106690476D01*
X207178571Y-106511904D01*
X207250000Y-106392857D01*
X207392857Y-106333333D01*
X208178571Y-106333333D01*
X208035714Y-104071428D02*
X208107142Y-104130952D01*
X208178571Y-104309523D01*
X208178571Y-104428571D01*
X208107142Y-104607142D01*
X207964285Y-104726190D01*
X207821428Y-104785714D01*
X207535714Y-104845238D01*
X207321428Y-104845238D01*
X207035714Y-104785714D01*
X206892857Y-104726190D01*
X206750000Y-104607142D01*
X206678571Y-104428571D01*
X206678571Y-104309523D01*
X206750000Y-104130952D01*
X206821428Y-104071428D01*
X208178571Y-103357142D02*
X208107142Y-103476190D01*
X208035714Y-103535714D01*
X207892857Y-103595238D01*
X207464285Y-103595238D01*
X207321428Y-103535714D01*
X207250000Y-103476190D01*
X207178571Y-103357142D01*
X207178571Y-103178571D01*
X207250000Y-103059523D01*
X207321428Y-103000000D01*
X207464285Y-102940476D01*
X207892857Y-102940476D01*
X208035714Y-103000000D01*
X208107142Y-103059523D01*
X208178571Y-103178571D01*
X208178571Y-103357142D01*
X208178571Y-102226190D02*
X208107142Y-102345238D01*
X207964285Y-102404761D01*
X206678571Y-102404761D01*
X208178571Y-101571428D02*
X208107142Y-101690476D01*
X207964285Y-101750000D01*
X206678571Y-101750000D01*
X208178571Y-101095238D02*
X207178571Y-101095238D01*
X206678571Y-101095238D02*
X206750000Y-101154761D01*
X206821428Y-101095238D01*
X206750000Y-101035714D01*
X206678571Y-101095238D01*
X206821428Y-101095238D01*
X207178571Y-100500000D02*
X208178571Y-100500000D01*
X207321428Y-100500000D02*
X207250000Y-100440476D01*
X207178571Y-100321428D01*
X207178571Y-100142857D01*
X207250000Y-100023809D01*
X207392857Y-99964285D01*
X208178571Y-99964285D01*
X208107142Y-99428571D02*
X208178571Y-99309523D01*
X208178571Y-99071428D01*
X208107142Y-98952380D01*
X207964285Y-98892857D01*
X207892857Y-98892857D01*
X207750000Y-98952380D01*
X207678571Y-99071428D01*
X207678571Y-99250000D01*
X207607142Y-99369047D01*
X207464285Y-99428571D01*
X207392857Y-99428571D01*
X207250000Y-99369047D01*
X207178571Y-99250000D01*
X207178571Y-99071428D01*
X207250000Y-98952380D01*
X209228571Y-109547619D02*
X210300000Y-109547619D01*
X210514285Y-109607142D01*
X210657142Y-109726190D01*
X210728571Y-109904761D01*
X210728571Y-110023809D01*
X209728571Y-108416666D02*
X210728571Y-108416666D01*
X209728571Y-108952380D02*
X210514285Y-108952380D01*
X210657142Y-108892857D01*
X210728571Y-108773809D01*
X210728571Y-108595238D01*
X210657142Y-108476190D01*
X210585714Y-108416666D01*
X210728571Y-107642857D02*
X210657142Y-107761904D01*
X210514285Y-107821428D01*
X209228571Y-107821428D01*
X209728571Y-107285714D02*
X210728571Y-106988095D01*
X209728571Y-106690476D02*
X210728571Y-106988095D01*
X211085714Y-107107142D01*
X211157142Y-107166666D01*
X211228571Y-107285714D01*
X209371428Y-105321428D02*
X209300000Y-105261904D01*
X209228571Y-105142857D01*
X209228571Y-104845238D01*
X209300000Y-104726190D01*
X209371428Y-104666666D01*
X209514285Y-104607142D01*
X209657142Y-104607142D01*
X209871428Y-104666666D01*
X210728571Y-105380952D01*
X210728571Y-104607142D01*
X209228571Y-103833333D02*
X209228571Y-103714285D01*
X209300000Y-103595238D01*
X209371428Y-103535714D01*
X209514285Y-103476190D01*
X209800000Y-103416666D01*
X210157142Y-103416666D01*
X210442857Y-103476190D01*
X210585714Y-103535714D01*
X210657142Y-103595238D01*
X210728571Y-103714285D01*
X210728571Y-103833333D01*
X210657142Y-103952380D01*
X210585714Y-104011904D01*
X210442857Y-104071428D01*
X210157142Y-104130952D01*
X209800000Y-104130952D01*
X209514285Y-104071428D01*
X209371428Y-104011904D01*
X209300000Y-103952380D01*
X209228571Y-103833333D01*
X210728571Y-102226190D02*
X210728571Y-102940476D01*
X210728571Y-102583333D02*
X209228571Y-102583333D01*
X209442857Y-102702380D01*
X209585714Y-102821428D01*
X209657142Y-102940476D01*
X209228571Y-101809523D02*
X209228571Y-100976190D01*
X210728571Y-101511904D01*
D12*
X198440000Y-90060000D02*
X198440000Y-82440000D01*
X203560000Y-90060000D02*
X203560000Y-82440000D01*
X198440000Y-90060000D02*
X199805000Y-90060000D01*
X202195000Y-90060000D02*
X203560000Y-90060000D01*
X198440000Y-82440000D02*
X199805000Y-82440000D01*
X202195000Y-82440000D02*
X203560000Y-82440000D01*
X191550000Y-82750000D02*
X173450000Y-82750000D01*
X191550000Y-82790000D02*
X173450000Y-82790000D01*
X191550000Y-82830000D02*
X173450000Y-82830000D01*
X191550000Y-82870000D02*
X173450000Y-82870000D01*
X191549000Y-82910000D02*
X173451000Y-82910000D01*
X191548000Y-82950000D02*
X173452000Y-82950000D01*
X191547000Y-82990000D02*
X173453000Y-82990000D01*
X191546000Y-83030000D02*
X173454000Y-83030000D01*
X191545000Y-83070000D02*
X173455000Y-83070000D01*
X191543000Y-83110000D02*
X173457000Y-83110000D01*
X191542000Y-83150000D02*
X173458000Y-83150000D01*
X191540000Y-83190000D02*
X173460000Y-83190000D01*
X191538000Y-83230000D02*
X173462000Y-83230000D01*
X191536000Y-83270000D02*
X173464000Y-83270000D01*
X191533000Y-83310000D02*
X173467000Y-83310000D01*
X191531000Y-83350000D02*
X173469000Y-83350000D01*
X191528000Y-83390000D02*
X173472000Y-83390000D01*
X191525000Y-83430000D02*
X173475000Y-83430000D01*
X191522000Y-83471000D02*
X173478000Y-83471000D01*
X191519000Y-83511000D02*
X173481000Y-83511000D01*
X191515000Y-83551000D02*
X173485000Y-83551000D01*
X191512000Y-83591000D02*
X173488000Y-83591000D01*
X191508000Y-83631000D02*
X173492000Y-83631000D01*
X191504000Y-83671000D02*
X173496000Y-83671000D01*
X191500000Y-83711000D02*
X173500000Y-83711000D01*
X191495000Y-83751000D02*
X173505000Y-83751000D01*
X191491000Y-83791000D02*
X173509000Y-83791000D01*
X191486000Y-83831000D02*
X173514000Y-83831000D01*
X191481000Y-83871000D02*
X173519000Y-83871000D01*
X191476000Y-83911000D02*
X173524000Y-83911000D01*
X191471000Y-83951000D02*
X173529000Y-83951000D01*
X191466000Y-83991000D02*
X173534000Y-83991000D01*
X191460000Y-84031000D02*
X173540000Y-84031000D01*
X191454000Y-84071000D02*
X173546000Y-84071000D01*
X191448000Y-84111000D02*
X173552000Y-84111000D01*
X191442000Y-84151000D02*
X173558000Y-84151000D01*
X191436000Y-84191000D02*
X173564000Y-84191000D01*
X191429000Y-84231000D02*
X173571000Y-84231000D01*
X191423000Y-84271000D02*
X173577000Y-84271000D01*
X191416000Y-84311000D02*
X173584000Y-84311000D01*
X191409000Y-84351000D02*
X173591000Y-84351000D01*
X191401000Y-84391000D02*
X173599000Y-84391000D01*
X191394000Y-84431000D02*
X173606000Y-84431000D01*
X191386000Y-84471000D02*
X173614000Y-84471000D01*
X191378000Y-84511000D02*
X173622000Y-84511000D01*
X191370000Y-84551000D02*
X173630000Y-84551000D01*
X191362000Y-84591000D02*
X173638000Y-84591000D01*
X191354000Y-84631000D02*
X173646000Y-84631000D01*
X191345000Y-84671000D02*
X173655000Y-84671000D01*
X191337000Y-84711000D02*
X173663000Y-84711000D01*
X191328000Y-84751000D02*
X173672000Y-84751000D01*
X191319000Y-84791000D02*
X173681000Y-84791000D01*
X191309000Y-84831000D02*
X173691000Y-84831000D01*
X191300000Y-84871000D02*
X173700000Y-84871000D01*
X191290000Y-84911000D02*
X173710000Y-84911000D01*
X191280000Y-84951000D02*
X173720000Y-84951000D01*
X191270000Y-84991000D02*
X173730000Y-84991000D01*
X191260000Y-85031000D02*
X173740000Y-85031000D01*
X191249000Y-85071000D02*
X173751000Y-85071000D01*
X191239000Y-85111000D02*
X173761000Y-85111000D01*
X191228000Y-85151000D02*
X183880000Y-85151000D01*
X181120000Y-85151000D02*
X173772000Y-85151000D01*
X191217000Y-85191000D02*
X183880000Y-85191000D01*
X181120000Y-85191000D02*
X173783000Y-85191000D01*
X191206000Y-85231000D02*
X183880000Y-85231000D01*
X181120000Y-85231000D02*
X173794000Y-85231000D01*
X191194000Y-85271000D02*
X183880000Y-85271000D01*
X181120000Y-85271000D02*
X173806000Y-85271000D01*
X191183000Y-85311000D02*
X183880000Y-85311000D01*
X181120000Y-85311000D02*
X173817000Y-85311000D01*
X191171000Y-85351000D02*
X183880000Y-85351000D01*
X181120000Y-85351000D02*
X173829000Y-85351000D01*
X191159000Y-85391000D02*
X183880000Y-85391000D01*
X181120000Y-85391000D02*
X173841000Y-85391000D01*
X191146000Y-85431000D02*
X183880000Y-85431000D01*
X181120000Y-85431000D02*
X173854000Y-85431000D01*
X191134000Y-85471000D02*
X183880000Y-85471000D01*
X181120000Y-85471000D02*
X173866000Y-85471000D01*
X191121000Y-85511000D02*
X183880000Y-85511000D01*
X181120000Y-85511000D02*
X173879000Y-85511000D01*
X191109000Y-85551000D02*
X183880000Y-85551000D01*
X181120000Y-85551000D02*
X173891000Y-85551000D01*
X191095000Y-85591000D02*
X183880000Y-85591000D01*
X181120000Y-85591000D02*
X173905000Y-85591000D01*
X191082000Y-85631000D02*
X183880000Y-85631000D01*
X181120000Y-85631000D02*
X173918000Y-85631000D01*
X191069000Y-85671000D02*
X183880000Y-85671000D01*
X181120000Y-85671000D02*
X173931000Y-85671000D01*
X191055000Y-85711000D02*
X183880000Y-85711000D01*
X181120000Y-85711000D02*
X173945000Y-85711000D01*
X191041000Y-85751000D02*
X183880000Y-85751000D01*
X181120000Y-85751000D02*
X173959000Y-85751000D01*
X191027000Y-85791000D02*
X183880000Y-85791000D01*
X181120000Y-85791000D02*
X173973000Y-85791000D01*
X191013000Y-85831000D02*
X183880000Y-85831000D01*
X181120000Y-85831000D02*
X173987000Y-85831000D01*
X190998000Y-85871000D02*
X183880000Y-85871000D01*
X181120000Y-85871000D02*
X174002000Y-85871000D01*
X190984000Y-85911000D02*
X183880000Y-85911000D01*
X181120000Y-85911000D02*
X174016000Y-85911000D01*
X190969000Y-85951000D02*
X183880000Y-85951000D01*
X181120000Y-85951000D02*
X174031000Y-85951000D01*
X190953000Y-85991000D02*
X183880000Y-85991000D01*
X181120000Y-85991000D02*
X174047000Y-85991000D01*
X190938000Y-86031000D02*
X183880000Y-86031000D01*
X181120000Y-86031000D02*
X174062000Y-86031000D01*
X190923000Y-86071000D02*
X183880000Y-86071000D01*
X181120000Y-86071000D02*
X174077000Y-86071000D01*
X190907000Y-86111000D02*
X183880000Y-86111000D01*
X181120000Y-86111000D02*
X174093000Y-86111000D01*
X190891000Y-86151000D02*
X183880000Y-86151000D01*
X181120000Y-86151000D02*
X174109000Y-86151000D01*
X190874000Y-86191000D02*
X183880000Y-86191000D01*
X181120000Y-86191000D02*
X174126000Y-86191000D01*
X190858000Y-86231000D02*
X183880000Y-86231000D01*
X181120000Y-86231000D02*
X174142000Y-86231000D01*
X190841000Y-86271000D02*
X183880000Y-86271000D01*
X181120000Y-86271000D02*
X174159000Y-86271000D01*
X190824000Y-86311000D02*
X183880000Y-86311000D01*
X181120000Y-86311000D02*
X174176000Y-86311000D01*
X190807000Y-86351000D02*
X183880000Y-86351000D01*
X181120000Y-86351000D02*
X174193000Y-86351000D01*
X190790000Y-86391000D02*
X183880000Y-86391000D01*
X181120000Y-86391000D02*
X174210000Y-86391000D01*
X190772000Y-86431000D02*
X183880000Y-86431000D01*
X181120000Y-86431000D02*
X174228000Y-86431000D01*
X190754000Y-86471000D02*
X183880000Y-86471000D01*
X181120000Y-86471000D02*
X174246000Y-86471000D01*
X190736000Y-86511000D02*
X183880000Y-86511000D01*
X181120000Y-86511000D02*
X174264000Y-86511000D01*
X190718000Y-86551000D02*
X183880000Y-86551000D01*
X181120000Y-86551000D02*
X174282000Y-86551000D01*
X190700000Y-86591000D02*
X183880000Y-86591000D01*
X181120000Y-86591000D02*
X174300000Y-86591000D01*
X190681000Y-86631000D02*
X183880000Y-86631000D01*
X181120000Y-86631000D02*
X174319000Y-86631000D01*
X190662000Y-86671000D02*
X183880000Y-86671000D01*
X181120000Y-86671000D02*
X174338000Y-86671000D01*
X190643000Y-86711000D02*
X183880000Y-86711000D01*
X181120000Y-86711000D02*
X174357000Y-86711000D01*
X190623000Y-86751000D02*
X183880000Y-86751000D01*
X181120000Y-86751000D02*
X174377000Y-86751000D01*
X190603000Y-86791000D02*
X183880000Y-86791000D01*
X181120000Y-86791000D02*
X174397000Y-86791000D01*
X190583000Y-86831000D02*
X183880000Y-86831000D01*
X181120000Y-86831000D02*
X174417000Y-86831000D01*
X190563000Y-86871000D02*
X183880000Y-86871000D01*
X181120000Y-86871000D02*
X174437000Y-86871000D01*
X190543000Y-86911000D02*
X183880000Y-86911000D01*
X181120000Y-86911000D02*
X174457000Y-86911000D01*
X190522000Y-86951000D02*
X183880000Y-86951000D01*
X181120000Y-86951000D02*
X174478000Y-86951000D01*
X190501000Y-86991000D02*
X183880000Y-86991000D01*
X181120000Y-86991000D02*
X174499000Y-86991000D01*
X190480000Y-87031000D02*
X183880000Y-87031000D01*
X181120000Y-87031000D02*
X174520000Y-87031000D01*
X190458000Y-87071000D02*
X183880000Y-87071000D01*
X181120000Y-87071000D02*
X174542000Y-87071000D01*
X190437000Y-87111000D02*
X183880000Y-87111000D01*
X181120000Y-87111000D02*
X174563000Y-87111000D01*
X190415000Y-87151000D02*
X183880000Y-87151000D01*
X181120000Y-87151000D02*
X174585000Y-87151000D01*
X190392000Y-87191000D02*
X183880000Y-87191000D01*
X181120000Y-87191000D02*
X174608000Y-87191000D01*
X190370000Y-87231000D02*
X183880000Y-87231000D01*
X181120000Y-87231000D02*
X174630000Y-87231000D01*
X190347000Y-87271000D02*
X183880000Y-87271000D01*
X181120000Y-87271000D02*
X174653000Y-87271000D01*
X190324000Y-87311000D02*
X183880000Y-87311000D01*
X181120000Y-87311000D02*
X174676000Y-87311000D01*
X190301000Y-87351000D02*
X183880000Y-87351000D01*
X181120000Y-87351000D02*
X174699000Y-87351000D01*
X190277000Y-87391000D02*
X183880000Y-87391000D01*
X181120000Y-87391000D02*
X174723000Y-87391000D01*
X190253000Y-87431000D02*
X183880000Y-87431000D01*
X181120000Y-87431000D02*
X174747000Y-87431000D01*
X190229000Y-87471000D02*
X183880000Y-87471000D01*
X181120000Y-87471000D02*
X174771000Y-87471000D01*
X190205000Y-87511000D02*
X183880000Y-87511000D01*
X181120000Y-87511000D02*
X174795000Y-87511000D01*
X190180000Y-87551000D02*
X183880000Y-87551000D01*
X181120000Y-87551000D02*
X174820000Y-87551000D01*
X190155000Y-87591000D02*
X183880000Y-87591000D01*
X181120000Y-87591000D02*
X174845000Y-87591000D01*
X190130000Y-87631000D02*
X183880000Y-87631000D01*
X181120000Y-87631000D02*
X174870000Y-87631000D01*
X190104000Y-87671000D02*
X183880000Y-87671000D01*
X181120000Y-87671000D02*
X174896000Y-87671000D01*
X190078000Y-87711000D02*
X183880000Y-87711000D01*
X181120000Y-87711000D02*
X174922000Y-87711000D01*
X190052000Y-87751000D02*
X183880000Y-87751000D01*
X181120000Y-87751000D02*
X174948000Y-87751000D01*
X190025000Y-87791000D02*
X183880000Y-87791000D01*
X181120000Y-87791000D02*
X174975000Y-87791000D01*
X189999000Y-87831000D02*
X183880000Y-87831000D01*
X181120000Y-87831000D02*
X175001000Y-87831000D01*
X189971000Y-87871000D02*
X183880000Y-87871000D01*
X181120000Y-87871000D02*
X175029000Y-87871000D01*
X189944000Y-87911000D02*
X175056000Y-87911000D01*
X189916000Y-87951000D02*
X175084000Y-87951000D01*
X189888000Y-87991000D02*
X175112000Y-87991000D01*
X189860000Y-88031000D02*
X175140000Y-88031000D01*
X189831000Y-88071000D02*
X175169000Y-88071000D01*
X189802000Y-88111000D02*
X175198000Y-88111000D01*
X189773000Y-88151000D02*
X175227000Y-88151000D01*
X189743000Y-88191000D02*
X175257000Y-88191000D01*
X189713000Y-88231000D02*
X175287000Y-88231000D01*
X189683000Y-88271000D02*
X175317000Y-88271000D01*
X189652000Y-88311000D02*
X175348000Y-88311000D01*
X189621000Y-88351000D02*
X175379000Y-88351000D01*
X189589000Y-88391000D02*
X175411000Y-88391000D01*
X189557000Y-88431000D02*
X175443000Y-88431000D01*
X189525000Y-88471000D02*
X175475000Y-88471000D01*
X189493000Y-88511000D02*
X175507000Y-88511000D01*
X189460000Y-88551000D02*
X175540000Y-88551000D01*
X189426000Y-88591000D02*
X175574000Y-88591000D01*
X189393000Y-88631000D02*
X175607000Y-88631000D01*
X189358000Y-88671000D02*
X175642000Y-88671000D01*
X189324000Y-88711000D02*
X175676000Y-88711000D01*
X189289000Y-88751000D02*
X175711000Y-88751000D01*
X189254000Y-88791000D02*
X175746000Y-88791000D01*
X189218000Y-88831000D02*
X175782000Y-88831000D01*
X189182000Y-88871000D02*
X175818000Y-88871000D01*
X189145000Y-88911000D02*
X175855000Y-88911000D01*
X189108000Y-88951000D02*
X175892000Y-88951000D01*
X189070000Y-88991000D02*
X175930000Y-88991000D01*
X189032000Y-89031000D02*
X175968000Y-89031000D01*
X188994000Y-89071000D02*
X176006000Y-89071000D01*
X188955000Y-89111000D02*
X176045000Y-89111000D01*
X188916000Y-89151000D02*
X176084000Y-89151000D01*
X188876000Y-89191000D02*
X176124000Y-89191000D01*
X188835000Y-89231000D02*
X176165000Y-89231000D01*
X188794000Y-89271000D02*
X176206000Y-89271000D01*
X188753000Y-89311000D02*
X176247000Y-89311000D01*
X188711000Y-89351000D02*
X176289000Y-89351000D01*
X188668000Y-89391000D02*
X176332000Y-89391000D01*
X188625000Y-89431000D02*
X176375000Y-89431000D01*
X188582000Y-89471000D02*
X176418000Y-89471000D01*
X188538000Y-89511000D02*
X176462000Y-89511000D01*
X188493000Y-89551000D02*
X176507000Y-89551000D01*
X188447000Y-89591000D02*
X176553000Y-89591000D01*
X188401000Y-89631000D02*
X176599000Y-89631000D01*
X188355000Y-89671000D02*
X176645000Y-89671000D01*
X188307000Y-89711000D02*
X176693000Y-89711000D01*
X188259000Y-89751000D02*
X176741000Y-89751000D01*
X188211000Y-89791000D02*
X176789000Y-89791000D01*
X188162000Y-89831000D02*
X176838000Y-89831000D01*
X188111000Y-89871000D02*
X176889000Y-89871000D01*
X188061000Y-89911000D02*
X176939000Y-89911000D01*
X188009000Y-89951000D02*
X176991000Y-89951000D01*
X187957000Y-89991000D02*
X177043000Y-89991000D01*
X187904000Y-90031000D02*
X177096000Y-90031000D01*
X187850000Y-90071000D02*
X177150000Y-90071000D01*
X187795000Y-90111000D02*
X177205000Y-90111000D01*
X187740000Y-90151000D02*
X177260000Y-90151000D01*
X187683000Y-90191000D02*
X177317000Y-90191000D01*
X187626000Y-90231000D02*
X177374000Y-90231000D01*
X187567000Y-90271000D02*
X177433000Y-90271000D01*
X187508000Y-90311000D02*
X177492000Y-90311000D01*
X187447000Y-90351000D02*
X177553000Y-90351000D01*
X187386000Y-90391000D02*
X177614000Y-90391000D01*
X187323000Y-90431000D02*
X177677000Y-90431000D01*
X187259000Y-90471000D02*
X177741000Y-90471000D01*
X187194000Y-90511000D02*
X177806000Y-90511000D01*
X187128000Y-90551000D02*
X177872000Y-90551000D01*
X187061000Y-90591000D02*
X177939000Y-90591000D01*
X186992000Y-90631000D02*
X178008000Y-90631000D01*
X186922000Y-90671000D02*
X178078000Y-90671000D01*
X186850000Y-90711000D02*
X178150000Y-90711000D01*
X186777000Y-90751000D02*
X178223000Y-90751000D01*
X186702000Y-90791000D02*
X178298000Y-90791000D01*
X186625000Y-90831000D02*
X178375000Y-90831000D01*
X186546000Y-90871000D02*
X178454000Y-90871000D01*
X186466000Y-90911000D02*
X178534000Y-90911000D01*
X186383000Y-90950000D02*
X178617000Y-90950000D01*
X186299000Y-90990000D02*
X178701000Y-90990000D01*
X186211000Y-91030000D02*
X178789000Y-91030000D01*
X186122000Y-91070000D02*
X178878000Y-91070000D01*
X186030000Y-91110000D02*
X178970000Y-91110000D01*
X185934000Y-91150000D02*
X179066000Y-91150000D01*
X185836000Y-91190000D02*
X179164000Y-91190000D01*
X185734000Y-91230000D02*
X179266000Y-91230000D01*
X185629000Y-91270000D02*
X179371000Y-91270000D01*
X185519000Y-91310000D02*
X179481000Y-91310000D01*
X185405000Y-91350000D02*
X179595000Y-91350000D01*
X185285000Y-91390000D02*
X179715000Y-91390000D01*
X185160000Y-91430000D02*
X179840000Y-91430000D01*
X185028000Y-91470000D02*
X179972000Y-91470000D01*
X184888000Y-91510000D02*
X180112000Y-91510000D01*
X184738000Y-91550000D02*
X180262000Y-91550000D01*
X184578000Y-91590000D02*
X180422000Y-91590000D01*
X184403000Y-91630000D02*
X180597000Y-91630000D01*
X184210000Y-91670000D02*
X180790000Y-91670000D01*
X183992000Y-91710000D02*
X181008000Y-91710000D01*
X183736000Y-91750000D02*
X181264000Y-91750000D01*
X183413000Y-91790000D02*
X181587000Y-91790000D01*
X182887000Y-91830000D02*
X182113000Y-91830000D01*
X182500000Y-75800000D02*
X182500000Y-77600000D01*
X183400000Y-76700000D02*
X181600000Y-76700000D01*
X191590000Y-82750000D02*
G75*
G03X191590000Y-82750000I-9090000J0D01*
G01*
X226360000Y-132790000D02*
X223640000Y-132790000D01*
X223640000Y-132790000D02*
X223640000Y-136710000D01*
X223640000Y-136710000D02*
X226360000Y-136710000D01*
X226360000Y-136710000D02*
X226360000Y-132790000D01*
X225000000Y-129480000D02*
X225000000Y-132790000D01*
X225000000Y-140020000D02*
X225000000Y-136710000D01*
X182690000Y-113560000D02*
X189310000Y-113560000D01*
X189310000Y-113560000D02*
X189310000Y-96440000D01*
X189310000Y-96440000D02*
X182690000Y-96440000D01*
X182690000Y-96440000D02*
X182690000Y-113560000D01*
X186000000Y-114020000D02*
X186000000Y-113560000D01*
X186000000Y-95980000D02*
X186000000Y-96440000D01*
X181860000Y-124290000D02*
X179140000Y-124290000D01*
X179140000Y-124290000D02*
X179140000Y-128210000D01*
X179140000Y-128210000D02*
X181860000Y-128210000D01*
X181860000Y-128210000D02*
X181860000Y-124290000D01*
X180500000Y-120980000D02*
X180500000Y-124290000D01*
X180500000Y-131520000D02*
X180500000Y-128210000D01*
X210560000Y-118940000D02*
X210560000Y-126560000D01*
X205440000Y-118940000D02*
X205440000Y-126560000D01*
X210560000Y-118940000D02*
X209195000Y-118940000D01*
X206805000Y-118940000D02*
X205440000Y-118940000D01*
X210560000Y-126560000D02*
X209195000Y-126560000D01*
X206805000Y-126560000D02*
X205440000Y-126560000D01*
X211690000Y-133560000D02*
X218310000Y-133560000D01*
X218310000Y-133560000D02*
X218310000Y-116440000D01*
X218310000Y-116440000D02*
X211690000Y-116440000D01*
X211690000Y-116440000D02*
X211690000Y-133560000D01*
X215000000Y-134020000D02*
X215000000Y-133560000D01*
X215000000Y-115980000D02*
X215000000Y-116440000D01*
X203560000Y-70940000D02*
X203560000Y-78560000D01*
X198440000Y-70940000D02*
X198440000Y-78560000D01*
X203560000Y-70940000D02*
X202195000Y-70940000D01*
X199805000Y-70940000D02*
X198440000Y-70940000D01*
X203560000Y-78560000D02*
X202195000Y-78560000D01*
X199805000Y-78560000D02*
X198440000Y-78560000D01*
X210560000Y-130940000D02*
X210560000Y-138560000D01*
X205440000Y-130940000D02*
X205440000Y-138560000D01*
X210560000Y-130940000D02*
X209195000Y-130940000D01*
X206805000Y-130940000D02*
X205440000Y-130940000D01*
X210560000Y-138560000D02*
X209195000Y-138560000D01*
X206805000Y-138560000D02*
X205440000Y-138560000D01*
X218690000Y-88130000D02*
X221310000Y-88130000D01*
X221310000Y-88130000D02*
X221310000Y-81710000D01*
X221310000Y-81710000D02*
X218690000Y-81710000D01*
X218690000Y-81710000D02*
X218690000Y-88130000D01*
X220000000Y-89020000D02*
X220000000Y-88130000D01*
X220000000Y-80820000D02*
X220000000Y-81710000D01*
X185810000Y-123370000D02*
X183190000Y-123370000D01*
X183190000Y-123370000D02*
X183190000Y-129790000D01*
X183190000Y-129790000D02*
X185810000Y-129790000D01*
X185810000Y-129790000D02*
X185810000Y-123370000D01*
X184500000Y-122480000D02*
X184500000Y-123370000D01*
X184500000Y-130680000D02*
X184500000Y-129790000D01*
X191810000Y-118370000D02*
X189190000Y-118370000D01*
X189190000Y-118370000D02*
X189190000Y-124790000D01*
X189190000Y-124790000D02*
X191810000Y-124790000D01*
X191810000Y-124790000D02*
X191810000Y-118370000D01*
X190500000Y-117480000D02*
X190500000Y-118370000D01*
X190500000Y-125680000D02*
X190500000Y-124790000D01*
X222310000Y-132370000D02*
X219690000Y-132370000D01*
X219690000Y-132370000D02*
X219690000Y-138790000D01*
X219690000Y-138790000D02*
X222310000Y-138790000D01*
X222310000Y-138790000D02*
X222310000Y-132370000D01*
X221000000Y-131480000D02*
X221000000Y-132370000D01*
X221000000Y-139680000D02*
X221000000Y-138790000D01*
X217870000Y-77460000D02*
G75*
G03X217870000Y-77460000I-3870000J0D01*
G01*
X198910000Y-131500000D02*
G75*
G03X198910000Y-131500000I-3870000J0D01*
G01*
D13*
X228750000Y-76000000D02*
G75*
G03X228750000Y-76000000I-1750000J0D01*
G01*
X181250000Y-115500000D02*
G75*
G03X181250000Y-115500000I-1750000J0D01*
G01*
X230750000Y-118000000D02*
G75*
G03X230750000Y-118000000I-1750000J0D01*
G01*
X207749647Y-66149845D02*
G75*
G03X206250000Y-66150000I-749647J-1700155D01*
G01*
X212829647Y-66149845D02*
G75*
G03X211330000Y-66150000I-749647J-1700155D01*
G01*
X204380000Y-59570000D02*
X204380000Y-66980000D01*
X204380000Y-66980000D02*
X214700000Y-66980000D01*
X214700000Y-66980000D02*
X214700000Y-59570000D01*
X214700000Y-59570000D02*
X204380000Y-59570000D01*
X206250000Y-66150000D02*
X205500000Y-66150000D01*
X205500000Y-66150000D02*
X205500000Y-61850000D01*
X205500000Y-61850000D02*
X206250000Y-61850000D01*
X206250000Y-61850000D02*
X206250000Y-61500000D01*
X206250000Y-61500000D02*
X205750000Y-61500000D01*
X205750000Y-61500000D02*
X205500000Y-60500000D01*
X205500000Y-60500000D02*
X208500000Y-60500000D01*
X208500000Y-60500000D02*
X208250000Y-61500000D01*
X208250000Y-61500000D02*
X207750000Y-61500000D01*
X207750000Y-61500000D02*
X207750000Y-61850000D01*
X207750000Y-61850000D02*
X207750000Y-61850000D01*
X207750000Y-61850000D02*
X208500000Y-61850000D01*
X208500000Y-61850000D02*
X208500000Y-66150000D01*
X208500000Y-66150000D02*
X207750000Y-66150000D01*
X211330000Y-66150000D02*
X210580000Y-66150000D01*
X210580000Y-66150000D02*
X210580000Y-61850000D01*
X210580000Y-61850000D02*
X211330000Y-61850000D01*
X211330000Y-61850000D02*
X211330000Y-61500000D01*
X211330000Y-61500000D02*
X210830000Y-61500000D01*
X210830000Y-61500000D02*
X210580000Y-60500000D01*
X210580000Y-60500000D02*
X213580000Y-60500000D01*
X213580000Y-60500000D02*
X213330000Y-61500000D01*
X213330000Y-61500000D02*
X212830000Y-61500000D01*
X212830000Y-61500000D02*
X212830000Y-61850000D01*
X212830000Y-61850000D02*
X212830000Y-61850000D01*
X212830000Y-61850000D02*
X213580000Y-61850000D01*
X213580000Y-61850000D02*
X213580000Y-66150000D01*
X213580000Y-66150000D02*
X212830000Y-66150000D01*
X207000000Y-59150000D02*
X207300000Y-58550000D01*
X207300000Y-58550000D02*
X206700000Y-58550000D01*
X206700000Y-58550000D02*
X207000000Y-59150000D01*
X224350155Y-104249647D02*
G75*
G03X224350000Y-102750000I-1700155J749647D01*
G01*
X224350155Y-109329647D02*
G75*
G03X224350000Y-107830000I-1700155J749647D01*
G01*
X230930000Y-100880000D02*
X223520000Y-100880000D01*
X223520000Y-100880000D02*
X223520000Y-111200000D01*
X223520000Y-111200000D02*
X230930000Y-111200000D01*
X230930000Y-111200000D02*
X230930000Y-100880000D01*
X224350000Y-102750000D02*
X224350000Y-102000000D01*
X224350000Y-102000000D02*
X228650000Y-102000000D01*
X228650000Y-102000000D02*
X228650000Y-102750000D01*
X228650000Y-102750000D02*
X229000000Y-102750000D01*
X229000000Y-102750000D02*
X229000000Y-102250000D01*
X229000000Y-102250000D02*
X230000000Y-102000000D01*
X230000000Y-102000000D02*
X230000000Y-105000000D01*
X230000000Y-105000000D02*
X229000000Y-104750000D01*
X229000000Y-104750000D02*
X229000000Y-104250000D01*
X229000000Y-104250000D02*
X228650000Y-104250000D01*
X228650000Y-104250000D02*
X228650000Y-104250000D01*
X228650000Y-104250000D02*
X228650000Y-105000000D01*
X228650000Y-105000000D02*
X224350000Y-105000000D01*
X224350000Y-105000000D02*
X224350000Y-104250000D01*
X224350000Y-107830000D02*
X224350000Y-107080000D01*
X224350000Y-107080000D02*
X228650000Y-107080000D01*
X228650000Y-107080000D02*
X228650000Y-107830000D01*
X228650000Y-107830000D02*
X229000000Y-107830000D01*
X229000000Y-107830000D02*
X229000000Y-107330000D01*
X229000000Y-107330000D02*
X230000000Y-107080000D01*
X230000000Y-107080000D02*
X230000000Y-110080000D01*
X230000000Y-110080000D02*
X229000000Y-109830000D01*
X229000000Y-109830000D02*
X229000000Y-109330000D01*
X229000000Y-109330000D02*
X228650000Y-109330000D01*
X228650000Y-109330000D02*
X228650000Y-109330000D01*
X228650000Y-109330000D02*
X228650000Y-110080000D01*
X228650000Y-110080000D02*
X224350000Y-110080000D01*
X224350000Y-110080000D02*
X224350000Y-109330000D01*
X231350000Y-103500000D02*
X231950000Y-103800000D01*
X231950000Y-103800000D02*
X231950000Y-103200000D01*
X231950000Y-103200000D02*
X231350000Y-103500000D01*
X224350155Y-85749647D02*
G75*
G03X224350000Y-84250000I-1700155J749647D01*
G01*
X224350155Y-90829647D02*
G75*
G03X224350000Y-89330000I-1700155J749647D01*
G01*
X230930000Y-82380000D02*
X223520000Y-82380000D01*
X223520000Y-82380000D02*
X223520000Y-92700000D01*
X223520000Y-92700000D02*
X230930000Y-92700000D01*
X230930000Y-92700000D02*
X230930000Y-82380000D01*
X224350000Y-84250000D02*
X224350000Y-83500000D01*
X224350000Y-83500000D02*
X228650000Y-83500000D01*
X228650000Y-83500000D02*
X228650000Y-84250000D01*
X228650000Y-84250000D02*
X229000000Y-84250000D01*
X229000000Y-84250000D02*
X229000000Y-83750000D01*
X229000000Y-83750000D02*
X230000000Y-83500000D01*
X230000000Y-83500000D02*
X230000000Y-86500000D01*
X230000000Y-86500000D02*
X229000000Y-86250000D01*
X229000000Y-86250000D02*
X229000000Y-85750000D01*
X229000000Y-85750000D02*
X228650000Y-85750000D01*
X228650000Y-85750000D02*
X228650000Y-85750000D01*
X228650000Y-85750000D02*
X228650000Y-86500000D01*
X228650000Y-86500000D02*
X224350000Y-86500000D01*
X224350000Y-86500000D02*
X224350000Y-85750000D01*
X224350000Y-89330000D02*
X224350000Y-88580000D01*
X224350000Y-88580000D02*
X228650000Y-88580000D01*
X228650000Y-88580000D02*
X228650000Y-89330000D01*
X228650000Y-89330000D02*
X229000000Y-89330000D01*
X229000000Y-89330000D02*
X229000000Y-88830000D01*
X229000000Y-88830000D02*
X230000000Y-88580000D01*
X230000000Y-88580000D02*
X230000000Y-91580000D01*
X230000000Y-91580000D02*
X229000000Y-91330000D01*
X229000000Y-91330000D02*
X229000000Y-90830000D01*
X229000000Y-90830000D02*
X228650000Y-90830000D01*
X228650000Y-90830000D02*
X228650000Y-90830000D01*
X228650000Y-90830000D02*
X228650000Y-91580000D01*
X228650000Y-91580000D02*
X224350000Y-91580000D01*
X224350000Y-91580000D02*
X224350000Y-90830000D01*
X231350000Y-85000000D02*
X231950000Y-85300000D01*
X231950000Y-85300000D02*
X231950000Y-84700000D01*
X231950000Y-84700000D02*
X231350000Y-85000000D01*
X180649845Y-107750353D02*
G75*
G03X180650000Y-109250000I1700155J-749647D01*
G01*
X180649845Y-102670353D02*
G75*
G03X180650000Y-104170000I1700155J-749647D01*
G01*
X174070000Y-111120000D02*
X181480000Y-111120000D01*
X181480000Y-111120000D02*
X181480000Y-100800000D01*
X181480000Y-100800000D02*
X174070000Y-100800000D01*
X174070000Y-100800000D02*
X174070000Y-111120000D01*
X180650000Y-109250000D02*
X180650000Y-110000000D01*
X180650000Y-110000000D02*
X176350000Y-110000000D01*
X176350000Y-110000000D02*
X176350000Y-109250000D01*
X176350000Y-109250000D02*
X176000000Y-109250000D01*
X176000000Y-109250000D02*
X176000000Y-109750000D01*
X176000000Y-109750000D02*
X175000000Y-110000000D01*
X175000000Y-110000000D02*
X175000000Y-107000000D01*
X175000000Y-107000000D02*
X176000000Y-107250000D01*
X176000000Y-107250000D02*
X176000000Y-107750000D01*
X176000000Y-107750000D02*
X176350000Y-107750000D01*
X176350000Y-107750000D02*
X176350000Y-107750000D01*
X176350000Y-107750000D02*
X176350000Y-107000000D01*
X176350000Y-107000000D02*
X180650000Y-107000000D01*
X180650000Y-107000000D02*
X180650000Y-107750000D01*
X180650000Y-104170000D02*
X180650000Y-104920000D01*
X180650000Y-104920000D02*
X176350000Y-104920000D01*
X176350000Y-104920000D02*
X176350000Y-104170000D01*
X176350000Y-104170000D02*
X176000000Y-104170000D01*
X176000000Y-104170000D02*
X176000000Y-104670000D01*
X176000000Y-104670000D02*
X175000000Y-104920000D01*
X175000000Y-104920000D02*
X175000000Y-101920000D01*
X175000000Y-101920000D02*
X176000000Y-102170000D01*
X176000000Y-102170000D02*
X176000000Y-102670000D01*
X176000000Y-102670000D02*
X176350000Y-102670000D01*
X176350000Y-102670000D02*
X176350000Y-102670000D01*
X176350000Y-102670000D02*
X176350000Y-101920000D01*
X176350000Y-101920000D02*
X180650000Y-101920000D01*
X180650000Y-101920000D02*
X180650000Y-102670000D01*
X173650000Y-108500000D02*
X173050000Y-108200000D01*
X173050000Y-108200000D02*
X173050000Y-108800000D01*
X173050000Y-108800000D02*
X173650000Y-108500000D01*
X187749647Y-66149845D02*
G75*
G03X186250000Y-66150000I-749647J-1700155D01*
G01*
X192829647Y-66149845D02*
G75*
G03X191330000Y-66150000I-749647J-1700155D01*
G01*
X184380000Y-59570000D02*
X184380000Y-66980000D01*
X184380000Y-66980000D02*
X194700000Y-66980000D01*
X194700000Y-66980000D02*
X194700000Y-59570000D01*
X194700000Y-59570000D02*
X184380000Y-59570000D01*
X186250000Y-66150000D02*
X185500000Y-66150000D01*
X185500000Y-66150000D02*
X185500000Y-61850000D01*
X185500000Y-61850000D02*
X186250000Y-61850000D01*
X186250000Y-61850000D02*
X186250000Y-61500000D01*
X186250000Y-61500000D02*
X185750000Y-61500000D01*
X185750000Y-61500000D02*
X185500000Y-60500000D01*
X185500000Y-60500000D02*
X188500000Y-60500000D01*
X188500000Y-60500000D02*
X188250000Y-61500000D01*
X188250000Y-61500000D02*
X187750000Y-61500000D01*
X187750000Y-61500000D02*
X187750000Y-61850000D01*
X187750000Y-61850000D02*
X187750000Y-61850000D01*
X187750000Y-61850000D02*
X188500000Y-61850000D01*
X188500000Y-61850000D02*
X188500000Y-66150000D01*
X188500000Y-66150000D02*
X187750000Y-66150000D01*
X191330000Y-66150000D02*
X190580000Y-66150000D01*
X190580000Y-66150000D02*
X190580000Y-61850000D01*
X190580000Y-61850000D02*
X191330000Y-61850000D01*
X191330000Y-61850000D02*
X191330000Y-61500000D01*
X191330000Y-61500000D02*
X190830000Y-61500000D01*
X190830000Y-61500000D02*
X190580000Y-60500000D01*
X190580000Y-60500000D02*
X193580000Y-60500000D01*
X193580000Y-60500000D02*
X193330000Y-61500000D01*
X193330000Y-61500000D02*
X192830000Y-61500000D01*
X192830000Y-61500000D02*
X192830000Y-61850000D01*
X192830000Y-61850000D02*
X192830000Y-61850000D01*
X192830000Y-61850000D02*
X193580000Y-61850000D01*
X193580000Y-61850000D02*
X193580000Y-66150000D01*
X193580000Y-66150000D02*
X192830000Y-66150000D01*
X187000000Y-59150000D02*
X187300000Y-58550000D01*
X187300000Y-58550000D02*
X186700000Y-58550000D01*
X186700000Y-58550000D02*
X187000000Y-59150000D01*
X219750353Y-144350155D02*
G75*
G03X221250000Y-144350000I749647J1700155D01*
G01*
X214670353Y-144350155D02*
G75*
G03X216170000Y-144350000I749647J1700155D01*
G01*
X209590353Y-144350155D02*
G75*
G03X211090000Y-144350000I749647J1700155D01*
G01*
X204510353Y-144350155D02*
G75*
G03X206010000Y-144350000I749647J1700155D01*
G01*
X199430353Y-144350155D02*
G75*
G03X200930000Y-144350000I749647J1700155D01*
G01*
X194350353Y-144350155D02*
G75*
G03X195850000Y-144350000I749647J1700155D01*
G01*
X189270353Y-144350155D02*
G75*
G03X190770000Y-144350000I749647J1700155D01*
G01*
X184190353Y-144350155D02*
G75*
G03X185690000Y-144350000I749647J1700155D01*
G01*
X223120000Y-150930000D02*
X223120000Y-143520000D01*
X223120000Y-143520000D02*
X182320000Y-143520000D01*
X182320000Y-143520000D02*
X182320000Y-150930000D01*
X182320000Y-150930000D02*
X223120000Y-150930000D01*
X221250000Y-144350000D02*
X222000000Y-144350000D01*
X222000000Y-144350000D02*
X222000000Y-148650000D01*
X222000000Y-148650000D02*
X221250000Y-148650000D01*
X221250000Y-148650000D02*
X221250000Y-149000000D01*
X221250000Y-149000000D02*
X221750000Y-149000000D01*
X221750000Y-149000000D02*
X222000000Y-150000000D01*
X222000000Y-150000000D02*
X219000000Y-150000000D01*
X219000000Y-150000000D02*
X219250000Y-149000000D01*
X219250000Y-149000000D02*
X219750000Y-149000000D01*
X219750000Y-149000000D02*
X219750000Y-148650000D01*
X219750000Y-148650000D02*
X219750000Y-148650000D01*
X219750000Y-148650000D02*
X219000000Y-148650000D01*
X219000000Y-148650000D02*
X219000000Y-144350000D01*
X219000000Y-144350000D02*
X219750000Y-144350000D01*
X216170000Y-144350000D02*
X216920000Y-144350000D01*
X216920000Y-144350000D02*
X216920000Y-148650000D01*
X216920000Y-148650000D02*
X216170000Y-148650000D01*
X216170000Y-148650000D02*
X216170000Y-149000000D01*
X216170000Y-149000000D02*
X216670000Y-149000000D01*
X216670000Y-149000000D02*
X216920000Y-150000000D01*
X216920000Y-150000000D02*
X213920000Y-150000000D01*
X213920000Y-150000000D02*
X214170000Y-149000000D01*
X214170000Y-149000000D02*
X214670000Y-149000000D01*
X214670000Y-149000000D02*
X214670000Y-148650000D01*
X214670000Y-148650000D02*
X214670000Y-148650000D01*
X214670000Y-148650000D02*
X213920000Y-148650000D01*
X213920000Y-148650000D02*
X213920000Y-144350000D01*
X213920000Y-144350000D02*
X214670000Y-144350000D01*
X211090000Y-144350000D02*
X211840000Y-144350000D01*
X211840000Y-144350000D02*
X211840000Y-148650000D01*
X211840000Y-148650000D02*
X211090000Y-148650000D01*
X211090000Y-148650000D02*
X211090000Y-149000000D01*
X211090000Y-149000000D02*
X211590000Y-149000000D01*
X211590000Y-149000000D02*
X211840000Y-150000000D01*
X211840000Y-150000000D02*
X208840000Y-150000000D01*
X208840000Y-150000000D02*
X209090000Y-149000000D01*
X209090000Y-149000000D02*
X209590000Y-149000000D01*
X209590000Y-149000000D02*
X209590000Y-148650000D01*
X209590000Y-148650000D02*
X209590000Y-148650000D01*
X209590000Y-148650000D02*
X208840000Y-148650000D01*
X208840000Y-148650000D02*
X208840000Y-144350000D01*
X208840000Y-144350000D02*
X209590000Y-144350000D01*
X206010000Y-144350000D02*
X206760000Y-144350000D01*
X206760000Y-144350000D02*
X206760000Y-148650000D01*
X206760000Y-148650000D02*
X206010000Y-148650000D01*
X206010000Y-148650000D02*
X206010000Y-149000000D01*
X206010000Y-149000000D02*
X206510000Y-149000000D01*
X206510000Y-149000000D02*
X206760000Y-150000000D01*
X206760000Y-150000000D02*
X203760000Y-150000000D01*
X203760000Y-150000000D02*
X204010000Y-149000000D01*
X204010000Y-149000000D02*
X204510000Y-149000000D01*
X204510000Y-149000000D02*
X204510000Y-148650000D01*
X204510000Y-148650000D02*
X204510000Y-148650000D01*
X204510000Y-148650000D02*
X203760000Y-148650000D01*
X203760000Y-148650000D02*
X203760000Y-144350000D01*
X203760000Y-144350000D02*
X204510000Y-144350000D01*
X200930000Y-144350000D02*
X201680000Y-144350000D01*
X201680000Y-144350000D02*
X201680000Y-148650000D01*
X201680000Y-148650000D02*
X200930000Y-148650000D01*
X200930000Y-148650000D02*
X200930000Y-149000000D01*
X200930000Y-149000000D02*
X201430000Y-149000000D01*
X201430000Y-149000000D02*
X201680000Y-150000000D01*
X201680000Y-150000000D02*
X198680000Y-150000000D01*
X198680000Y-150000000D02*
X198930000Y-149000000D01*
X198930000Y-149000000D02*
X199430000Y-149000000D01*
X199430000Y-149000000D02*
X199430000Y-148650000D01*
X199430000Y-148650000D02*
X199430000Y-148650000D01*
X199430000Y-148650000D02*
X198680000Y-148650000D01*
X198680000Y-148650000D02*
X198680000Y-144350000D01*
X198680000Y-144350000D02*
X199430000Y-144350000D01*
X195850000Y-144350000D02*
X196600000Y-144350000D01*
X196600000Y-144350000D02*
X196600000Y-148650000D01*
X196600000Y-148650000D02*
X195850000Y-148650000D01*
X195850000Y-148650000D02*
X195850000Y-149000000D01*
X195850000Y-149000000D02*
X196350000Y-149000000D01*
X196350000Y-149000000D02*
X196600000Y-150000000D01*
X196600000Y-150000000D02*
X193600000Y-150000000D01*
X193600000Y-150000000D02*
X193850000Y-149000000D01*
X193850000Y-149000000D02*
X194350000Y-149000000D01*
X194350000Y-149000000D02*
X194350000Y-148650000D01*
X194350000Y-148650000D02*
X194350000Y-148650000D01*
X194350000Y-148650000D02*
X193600000Y-148650000D01*
X193600000Y-148650000D02*
X193600000Y-144350000D01*
X193600000Y-144350000D02*
X194350000Y-144350000D01*
X190770000Y-144350000D02*
X191520000Y-144350000D01*
X191520000Y-144350000D02*
X191520000Y-148650000D01*
X191520000Y-148650000D02*
X190770000Y-148650000D01*
X190770000Y-148650000D02*
X190770000Y-149000000D01*
X190770000Y-149000000D02*
X191270000Y-149000000D01*
X191270000Y-149000000D02*
X191520000Y-150000000D01*
X191520000Y-150000000D02*
X188520000Y-150000000D01*
X188520000Y-150000000D02*
X188770000Y-149000000D01*
X188770000Y-149000000D02*
X189270000Y-149000000D01*
X189270000Y-149000000D02*
X189270000Y-148650000D01*
X189270000Y-148650000D02*
X189270000Y-148650000D01*
X189270000Y-148650000D02*
X188520000Y-148650000D01*
X188520000Y-148650000D02*
X188520000Y-144350000D01*
X188520000Y-144350000D02*
X189270000Y-144350000D01*
X185690000Y-144350000D02*
X186440000Y-144350000D01*
X186440000Y-144350000D02*
X186440000Y-148650000D01*
X186440000Y-148650000D02*
X185690000Y-148650000D01*
X185690000Y-148650000D02*
X185690000Y-149000000D01*
X185690000Y-149000000D02*
X186190000Y-149000000D01*
X186190000Y-149000000D02*
X186440000Y-150000000D01*
X186440000Y-150000000D02*
X183440000Y-150000000D01*
X183440000Y-150000000D02*
X183690000Y-149000000D01*
X183690000Y-149000000D02*
X184190000Y-149000000D01*
X184190000Y-149000000D02*
X184190000Y-148650000D01*
X184190000Y-148650000D02*
X184190000Y-148650000D01*
X184190000Y-148650000D02*
X183440000Y-148650000D01*
X183440000Y-148650000D02*
X183440000Y-144350000D01*
X183440000Y-144350000D02*
X184190000Y-144350000D01*
X220500000Y-151350000D02*
X220200000Y-151950000D01*
X220200000Y-151950000D02*
X220800000Y-151950000D01*
X220800000Y-151950000D02*
X220500000Y-151350000D01*
D12*
X212518600Y-84103137D02*
G75*
G03X212520000Y-88897436I981400J-2396863D01*
G01*
X214481400Y-84103137D02*
G75*
G02X214480000Y-88897436I-981400J-2396863D01*
G01*
X214481400Y-84103137D02*
G75*
G03X212520000Y-84102564I-981400J-2396863D01*
G01*
X210950000Y-86500000D02*
X216050000Y-86500000D01*
X210950000Y-86460000D02*
X212520000Y-86460000D01*
X214480000Y-86460000D02*
X216050000Y-86460000D01*
X210951000Y-86420000D02*
X212520000Y-86420000D01*
X214480000Y-86420000D02*
X216049000Y-86420000D01*
X210952000Y-86380000D02*
X212520000Y-86380000D01*
X214480000Y-86380000D02*
X216048000Y-86380000D01*
X210954000Y-86340000D02*
X212520000Y-86340000D01*
X214480000Y-86340000D02*
X216046000Y-86340000D01*
X210957000Y-86300000D02*
X212520000Y-86300000D01*
X214480000Y-86300000D02*
X216043000Y-86300000D01*
X210961000Y-86260000D02*
X212520000Y-86260000D01*
X214480000Y-86260000D02*
X216039000Y-86260000D01*
X210965000Y-86220000D02*
X212520000Y-86220000D01*
X214480000Y-86220000D02*
X216035000Y-86220000D01*
X210969000Y-86180000D02*
X212520000Y-86180000D01*
X214480000Y-86180000D02*
X216031000Y-86180000D01*
X210975000Y-86140000D02*
X212520000Y-86140000D01*
X214480000Y-86140000D02*
X216025000Y-86140000D01*
X210981000Y-86100000D02*
X212520000Y-86100000D01*
X214480000Y-86100000D02*
X216019000Y-86100000D01*
X210987000Y-86060000D02*
X212520000Y-86060000D01*
X214480000Y-86060000D02*
X216013000Y-86060000D01*
X210994000Y-86020000D02*
X212520000Y-86020000D01*
X214480000Y-86020000D02*
X216006000Y-86020000D01*
X211002000Y-85980000D02*
X212520000Y-85980000D01*
X214480000Y-85980000D02*
X215998000Y-85980000D01*
X211011000Y-85940000D02*
X212520000Y-85940000D01*
X214480000Y-85940000D02*
X215989000Y-85940000D01*
X211020000Y-85900000D02*
X212520000Y-85900000D01*
X214480000Y-85900000D02*
X215980000Y-85900000D01*
X211030000Y-85860000D02*
X212520000Y-85860000D01*
X214480000Y-85860000D02*
X215970000Y-85860000D01*
X211040000Y-85820000D02*
X212520000Y-85820000D01*
X214480000Y-85820000D02*
X215960000Y-85820000D01*
X211052000Y-85779000D02*
X212520000Y-85779000D01*
X214480000Y-85779000D02*
X215948000Y-85779000D01*
X211064000Y-85739000D02*
X212520000Y-85739000D01*
X214480000Y-85739000D02*
X215936000Y-85739000D01*
X211076000Y-85699000D02*
X212520000Y-85699000D01*
X214480000Y-85699000D02*
X215924000Y-85699000D01*
X211090000Y-85659000D02*
X212520000Y-85659000D01*
X214480000Y-85659000D02*
X215910000Y-85659000D01*
X211104000Y-85619000D02*
X212520000Y-85619000D01*
X214480000Y-85619000D02*
X215896000Y-85619000D01*
X211118000Y-85579000D02*
X212520000Y-85579000D01*
X214480000Y-85579000D02*
X215882000Y-85579000D01*
X211134000Y-85539000D02*
X212520000Y-85539000D01*
X214480000Y-85539000D02*
X215866000Y-85539000D01*
X211150000Y-85499000D02*
X212520000Y-85499000D01*
X214480000Y-85499000D02*
X215850000Y-85499000D01*
X211167000Y-85459000D02*
X212520000Y-85459000D01*
X214480000Y-85459000D02*
X215833000Y-85459000D01*
X211185000Y-85419000D02*
X212520000Y-85419000D01*
X214480000Y-85419000D02*
X215815000Y-85419000D01*
X211204000Y-85379000D02*
X212520000Y-85379000D01*
X214480000Y-85379000D02*
X215796000Y-85379000D01*
X211224000Y-85339000D02*
X212520000Y-85339000D01*
X214480000Y-85339000D02*
X215776000Y-85339000D01*
X211244000Y-85299000D02*
X212520000Y-85299000D01*
X214480000Y-85299000D02*
X215756000Y-85299000D01*
X211266000Y-85259000D02*
X212520000Y-85259000D01*
X214480000Y-85259000D02*
X215734000Y-85259000D01*
X211288000Y-85219000D02*
X212520000Y-85219000D01*
X214480000Y-85219000D02*
X215712000Y-85219000D01*
X211311000Y-85179000D02*
X212520000Y-85179000D01*
X214480000Y-85179000D02*
X215689000Y-85179000D01*
X211335000Y-85139000D02*
X212520000Y-85139000D01*
X214480000Y-85139000D02*
X215665000Y-85139000D01*
X211360000Y-85099000D02*
X212520000Y-85099000D01*
X214480000Y-85099000D02*
X215640000Y-85099000D01*
X211387000Y-85059000D02*
X212520000Y-85059000D01*
X214480000Y-85059000D02*
X215613000Y-85059000D01*
X211414000Y-85019000D02*
X212520000Y-85019000D01*
X214480000Y-85019000D02*
X215586000Y-85019000D01*
X211442000Y-84979000D02*
X212520000Y-84979000D01*
X214480000Y-84979000D02*
X215558000Y-84979000D01*
X211472000Y-84939000D02*
X212520000Y-84939000D01*
X214480000Y-84939000D02*
X215528000Y-84939000D01*
X211503000Y-84899000D02*
X212520000Y-84899000D01*
X214480000Y-84899000D02*
X215497000Y-84899000D01*
X211535000Y-84859000D02*
X212520000Y-84859000D01*
X214480000Y-84859000D02*
X215465000Y-84859000D01*
X211568000Y-84819000D02*
X212520000Y-84819000D01*
X214480000Y-84819000D02*
X215432000Y-84819000D01*
X211603000Y-84779000D02*
X212520000Y-84779000D01*
X214480000Y-84779000D02*
X215397000Y-84779000D01*
X211639000Y-84739000D02*
X212520000Y-84739000D01*
X214480000Y-84739000D02*
X215361000Y-84739000D01*
X211677000Y-84699000D02*
X212520000Y-84699000D01*
X214480000Y-84699000D02*
X215323000Y-84699000D01*
X211717000Y-84659000D02*
X212520000Y-84659000D01*
X214480000Y-84659000D02*
X215283000Y-84659000D01*
X211758000Y-84619000D02*
X212520000Y-84619000D01*
X214480000Y-84619000D02*
X215242000Y-84619000D01*
X211801000Y-84579000D02*
X212520000Y-84579000D01*
X214480000Y-84579000D02*
X215199000Y-84579000D01*
X211846000Y-84539000D02*
X212520000Y-84539000D01*
X214480000Y-84539000D02*
X215154000Y-84539000D01*
X211894000Y-84499000D02*
X215106000Y-84499000D01*
X211944000Y-84459000D02*
X215056000Y-84459000D01*
X211996000Y-84419000D02*
X215004000Y-84419000D01*
X212052000Y-84379000D02*
X214948000Y-84379000D01*
X212110000Y-84339000D02*
X214890000Y-84339000D01*
X212173000Y-84299000D02*
X214827000Y-84299000D01*
X212239000Y-84259000D02*
X214761000Y-84259000D01*
X212311000Y-84219000D02*
X214689000Y-84219000D01*
X212388000Y-84179000D02*
X214612000Y-84179000D01*
X212472000Y-84139000D02*
X214528000Y-84139000D01*
X212566000Y-84099000D02*
X214434000Y-84099000D01*
X212671000Y-84059000D02*
X214329000Y-84059000D01*
X212793000Y-84019000D02*
X214207000Y-84019000D01*
X212941000Y-83979000D02*
X214059000Y-83979000D01*
X213146000Y-83939000D02*
X213854000Y-83939000D01*
X213500000Y-89700000D02*
X213500000Y-88500000D01*
X212850000Y-89100000D02*
X214150000Y-89100000D01*
X196481400Y-123396863D02*
G75*
G03X196480000Y-118602564I-981400J2396863D01*
G01*
X194518600Y-123396863D02*
G75*
G02X194520000Y-118602564I981400J2396863D01*
G01*
X194518600Y-123396863D02*
G75*
G03X196480000Y-123397436I981400J2396863D01*
G01*
X198050000Y-121000000D02*
X192950000Y-121000000D01*
X198050000Y-121040000D02*
X196480000Y-121040000D01*
X194520000Y-121040000D02*
X192950000Y-121040000D01*
X198049000Y-121080000D02*
X196480000Y-121080000D01*
X194520000Y-121080000D02*
X192951000Y-121080000D01*
X198048000Y-121120000D02*
X196480000Y-121120000D01*
X194520000Y-121120000D02*
X192952000Y-121120000D01*
X198046000Y-121160000D02*
X196480000Y-121160000D01*
X194520000Y-121160000D02*
X192954000Y-121160000D01*
X198043000Y-121200000D02*
X196480000Y-121200000D01*
X194520000Y-121200000D02*
X192957000Y-121200000D01*
X198039000Y-121240000D02*
X196480000Y-121240000D01*
X194520000Y-121240000D02*
X192961000Y-121240000D01*
X198035000Y-121280000D02*
X196480000Y-121280000D01*
X194520000Y-121280000D02*
X192965000Y-121280000D01*
X198031000Y-121320000D02*
X196480000Y-121320000D01*
X194520000Y-121320000D02*
X192969000Y-121320000D01*
X198025000Y-121360000D02*
X196480000Y-121360000D01*
X194520000Y-121360000D02*
X192975000Y-121360000D01*
X198019000Y-121400000D02*
X196480000Y-121400000D01*
X194520000Y-121400000D02*
X192981000Y-121400000D01*
X198013000Y-121440000D02*
X196480000Y-121440000D01*
X194520000Y-121440000D02*
X192987000Y-121440000D01*
X198006000Y-121480000D02*
X196480000Y-121480000D01*
X194520000Y-121480000D02*
X192994000Y-121480000D01*
X197998000Y-121520000D02*
X196480000Y-121520000D01*
X194520000Y-121520000D02*
X193002000Y-121520000D01*
X197989000Y-121560000D02*
X196480000Y-121560000D01*
X194520000Y-121560000D02*
X193011000Y-121560000D01*
X197980000Y-121600000D02*
X196480000Y-121600000D01*
X194520000Y-121600000D02*
X193020000Y-121600000D01*
X197970000Y-121640000D02*
X196480000Y-121640000D01*
X194520000Y-121640000D02*
X193030000Y-121640000D01*
X197960000Y-121680000D02*
X196480000Y-121680000D01*
X194520000Y-121680000D02*
X193040000Y-121680000D01*
X197948000Y-121721000D02*
X196480000Y-121721000D01*
X194520000Y-121721000D02*
X193052000Y-121721000D01*
X197936000Y-121761000D02*
X196480000Y-121761000D01*
X194520000Y-121761000D02*
X193064000Y-121761000D01*
X197924000Y-121801000D02*
X196480000Y-121801000D01*
X194520000Y-121801000D02*
X193076000Y-121801000D01*
X197910000Y-121841000D02*
X196480000Y-121841000D01*
X194520000Y-121841000D02*
X193090000Y-121841000D01*
X197896000Y-121881000D02*
X196480000Y-121881000D01*
X194520000Y-121881000D02*
X193104000Y-121881000D01*
X197882000Y-121921000D02*
X196480000Y-121921000D01*
X194520000Y-121921000D02*
X193118000Y-121921000D01*
X197866000Y-121961000D02*
X196480000Y-121961000D01*
X194520000Y-121961000D02*
X193134000Y-121961000D01*
X197850000Y-122001000D02*
X196480000Y-122001000D01*
X194520000Y-122001000D02*
X193150000Y-122001000D01*
X197833000Y-122041000D02*
X196480000Y-122041000D01*
X194520000Y-122041000D02*
X193167000Y-122041000D01*
X197815000Y-122081000D02*
X196480000Y-122081000D01*
X194520000Y-122081000D02*
X193185000Y-122081000D01*
X197796000Y-122121000D02*
X196480000Y-122121000D01*
X194520000Y-122121000D02*
X193204000Y-122121000D01*
X197776000Y-122161000D02*
X196480000Y-122161000D01*
X194520000Y-122161000D02*
X193224000Y-122161000D01*
X197756000Y-122201000D02*
X196480000Y-122201000D01*
X194520000Y-122201000D02*
X193244000Y-122201000D01*
X197734000Y-122241000D02*
X196480000Y-122241000D01*
X194520000Y-122241000D02*
X193266000Y-122241000D01*
X197712000Y-122281000D02*
X196480000Y-122281000D01*
X194520000Y-122281000D02*
X193288000Y-122281000D01*
X197689000Y-122321000D02*
X196480000Y-122321000D01*
X194520000Y-122321000D02*
X193311000Y-122321000D01*
X197665000Y-122361000D02*
X196480000Y-122361000D01*
X194520000Y-122361000D02*
X193335000Y-122361000D01*
X197640000Y-122401000D02*
X196480000Y-122401000D01*
X194520000Y-122401000D02*
X193360000Y-122401000D01*
X197613000Y-122441000D02*
X196480000Y-122441000D01*
X194520000Y-122441000D02*
X193387000Y-122441000D01*
X197586000Y-122481000D02*
X196480000Y-122481000D01*
X194520000Y-122481000D02*
X193414000Y-122481000D01*
X197558000Y-122521000D02*
X196480000Y-122521000D01*
X194520000Y-122521000D02*
X193442000Y-122521000D01*
X197528000Y-122561000D02*
X196480000Y-122561000D01*
X194520000Y-122561000D02*
X193472000Y-122561000D01*
X197497000Y-122601000D02*
X196480000Y-122601000D01*
X194520000Y-122601000D02*
X193503000Y-122601000D01*
X197465000Y-122641000D02*
X196480000Y-122641000D01*
X194520000Y-122641000D02*
X193535000Y-122641000D01*
X197432000Y-122681000D02*
X196480000Y-122681000D01*
X194520000Y-122681000D02*
X193568000Y-122681000D01*
X197397000Y-122721000D02*
X196480000Y-122721000D01*
X194520000Y-122721000D02*
X193603000Y-122721000D01*
X197361000Y-122761000D02*
X196480000Y-122761000D01*
X194520000Y-122761000D02*
X193639000Y-122761000D01*
X197323000Y-122801000D02*
X196480000Y-122801000D01*
X194520000Y-122801000D02*
X193677000Y-122801000D01*
X197283000Y-122841000D02*
X196480000Y-122841000D01*
X194520000Y-122841000D02*
X193717000Y-122841000D01*
X197242000Y-122881000D02*
X196480000Y-122881000D01*
X194520000Y-122881000D02*
X193758000Y-122881000D01*
X197199000Y-122921000D02*
X196480000Y-122921000D01*
X194520000Y-122921000D02*
X193801000Y-122921000D01*
X197154000Y-122961000D02*
X196480000Y-122961000D01*
X194520000Y-122961000D02*
X193846000Y-122961000D01*
X197106000Y-123001000D02*
X193894000Y-123001000D01*
X197056000Y-123041000D02*
X193944000Y-123041000D01*
X197004000Y-123081000D02*
X193996000Y-123081000D01*
X196948000Y-123121000D02*
X194052000Y-123121000D01*
X196890000Y-123161000D02*
X194110000Y-123161000D01*
X196827000Y-123201000D02*
X194173000Y-123201000D01*
X196761000Y-123241000D02*
X194239000Y-123241000D01*
X196689000Y-123281000D02*
X194311000Y-123281000D01*
X196612000Y-123321000D02*
X194388000Y-123321000D01*
X196528000Y-123361000D02*
X194472000Y-123361000D01*
X196434000Y-123401000D02*
X194566000Y-123401000D01*
X196329000Y-123441000D02*
X194671000Y-123441000D01*
X196207000Y-123481000D02*
X194793000Y-123481000D01*
X196059000Y-123521000D02*
X194941000Y-123521000D01*
X195854000Y-123561000D02*
X195146000Y-123561000D01*
X195500000Y-117800000D02*
X195500000Y-119000000D01*
X196150000Y-118400000D02*
X194850000Y-118400000D01*
X204690000Y-88390000D02*
X209310000Y-88390000D01*
X209310000Y-88390000D02*
X209310000Y-76370000D01*
X209310000Y-76370000D02*
X204690000Y-76370000D01*
X204690000Y-76370000D02*
X204690000Y-88390000D01*
X207000000Y-88620000D02*
X207000000Y-88390000D01*
X207000000Y-76140000D02*
X207000000Y-76370000D01*
X197310000Y-77610000D02*
X192690000Y-77610000D01*
X192690000Y-77610000D02*
X192690000Y-89630000D01*
X192690000Y-89630000D02*
X197310000Y-89630000D01*
X197310000Y-89630000D02*
X197310000Y-77610000D01*
X195000000Y-77380000D02*
X195000000Y-77610000D01*
X195000000Y-89860000D02*
X195000000Y-89630000D01*
X204310000Y-122110000D02*
X199690000Y-122110000D01*
X199690000Y-122110000D02*
X199690000Y-134130000D01*
X199690000Y-134130000D02*
X204310000Y-134130000D01*
X204310000Y-134130000D02*
X204310000Y-122110000D01*
X202000000Y-121880000D02*
X202000000Y-122110000D01*
X202000000Y-134360000D02*
X202000000Y-134130000D01*
X221310000Y-99610000D02*
X216690000Y-99610000D01*
X216690000Y-99610000D02*
X216690000Y-111630000D01*
X216690000Y-111630000D02*
X221310000Y-111630000D01*
X221310000Y-111630000D02*
X221310000Y-99610000D01*
X219000000Y-99380000D02*
X219000000Y-99610000D01*
X219000000Y-111860000D02*
X219000000Y-111630000D01*
X191390000Y-72310000D02*
X191390000Y-67690000D01*
X191390000Y-67690000D02*
X179370000Y-67690000D01*
X179370000Y-67690000D02*
X179370000Y-72310000D01*
X179370000Y-72310000D02*
X191390000Y-72310000D01*
X191620000Y-70000000D02*
X191390000Y-70000000D01*
X179140000Y-70000000D02*
X179370000Y-70000000D01*
M02*
