%TF.GenerationSoftware,KiCad,Pcbnew,(5.1.5-0-10_14)*%
%TF.CreationDate,2020-09-13T21:20:46+01:00*%
%TF.ProjectId,PrePCB,50726550-4342-42e6-9b69-6361645f7063,rev?*%
%TF.SameCoordinates,Original*%
%TF.FileFunction,Soldermask,Bot*%
%TF.FilePolarity,Negative*%
%FSLAX46Y46*%
G04 Gerber Fmt 4.6, Leading zero omitted, Abs format (unit mm)*
G04 Created by KiCad (PCBNEW (5.1.5-0-10_14)) date 2020-09-13 21:20:46*
%MOMM*%
%LPD*%
G04 APERTURE LIST*
%ADD10C,3.600000*%
%ADD11C,3.400000*%
%ADD12C,2.900000*%
%ADD13C,2.400000*%
%ADD14R,2.800000X2.800000*%
%ADD15C,2.800000*%
%ADD16C,2.000000*%
%ADD17O,2.000000X2.000000*%
%ADD18C,6.800000*%
%ADD19C,1.660000*%
%ADD20C,3.200000*%
%ADD21R,2.200000X4.000000*%
%ADD22O,2.200000X4.000000*%
%ADD23R,4.000000X2.200000*%
%ADD24O,4.000000X2.200000*%
%ADD25R,2.000000X2.000000*%
%ADD26O,2.800000X2.800000*%
G04 APERTURE END LIST*
D10*
X227500000Y-62500000D03*
D11*
X208989435Y-113931484D03*
X202500041Y-116040367D03*
X196010602Y-113931820D03*
X192000019Y-108411708D03*
X191999956Y-101588329D03*
X196010688Y-96068136D03*
X202499959Y-93959633D03*
X208989398Y-96068180D03*
X212999981Y-101588292D03*
D12*
X202500000Y-105000000D03*
X202498210Y-113095678D03*
X202532691Y-96809217D03*
D13*
X201000000Y-90000000D03*
X201000000Y-82500000D03*
D14*
X182500000Y-79000000D03*
D15*
X182500000Y-86500000D03*
D16*
X225000000Y-128500000D03*
D17*
X225000000Y-141000000D03*
D10*
X227500000Y-147500000D03*
X177500000Y-62500000D03*
D16*
X186000000Y-115000000D03*
D17*
X186000000Y-95000000D03*
D16*
X180500000Y-120000000D03*
D17*
X180500000Y-132500000D03*
D13*
X208000000Y-119000000D03*
X208000000Y-126500000D03*
D16*
X215000000Y-135000000D03*
D17*
X215000000Y-115000000D03*
D18*
X177500000Y-147500000D03*
D13*
X201000000Y-71000000D03*
X201000000Y-78500000D03*
X208000000Y-131000000D03*
X208000000Y-138500000D03*
D16*
X220000000Y-90000000D03*
D17*
X220000000Y-79840000D03*
D16*
X184500000Y-121500000D03*
D17*
X184500000Y-131660000D03*
D16*
X190500000Y-116500000D03*
D17*
X190500000Y-126660000D03*
D16*
X221000000Y-130500000D03*
D17*
X221000000Y-140660000D03*
D19*
X214000000Y-74920000D03*
X211460000Y-77460000D03*
X214000000Y-80000000D03*
X197580000Y-131500000D03*
X195040000Y-128960000D03*
X192500000Y-131500000D03*
D20*
X227000000Y-76000000D03*
X179500000Y-115500000D03*
X229000000Y-118000000D03*
D21*
X207000000Y-64000000D03*
D22*
X212080000Y-64000000D03*
D23*
X226500000Y-103500000D03*
D24*
X226500000Y-108580000D03*
D23*
X226500000Y-85000000D03*
D24*
X226500000Y-90080000D03*
D23*
X178500000Y-108500000D03*
D24*
X178500000Y-103420000D03*
D21*
X187000000Y-64000000D03*
D22*
X192080000Y-64000000D03*
D21*
X220500000Y-146500000D03*
D22*
X215420000Y-146500000D03*
X210340000Y-146500000D03*
X205260000Y-146500000D03*
X200180000Y-146500000D03*
X195100000Y-146500000D03*
X190020000Y-146500000D03*
X184940000Y-146500000D03*
D25*
X213500000Y-87500000D03*
D16*
X213500000Y-85500000D03*
D25*
X195500000Y-120000000D03*
D16*
X195500000Y-122000000D03*
D15*
X207000000Y-90000000D03*
D26*
X207000000Y-74760000D03*
D15*
X195000000Y-76000000D03*
D26*
X195000000Y-91240000D03*
D15*
X202000000Y-120500000D03*
D26*
X202000000Y-135740000D03*
D15*
X219000000Y-98000000D03*
D26*
X219000000Y-113240000D03*
D15*
X193000000Y-70000000D03*
D26*
X177760000Y-70000000D03*
M02*
