G04 #@! TF.FileFunction,Legend,Top*
%FSLAX46Y46*%
G04 Gerber Fmt 4.6, Leading zero omitted, Abs format (unit mm)*
G04 Created by KiCad (PCBNEW 4.0.6) date Friday, 28 July 2017 'PMt' 19:46:46*
%MOMM*%
%LPD*%
G01*
G04 APERTURE LIST*
%ADD10C,0.100000*%
%ADD11C,0.200000*%
%ADD12C,0.300000*%
%ADD13C,0.120000*%
%ADD14C,0.150000*%
G04 APERTURE END LIST*
D10*
D11*
X196976191Y-77452381D02*
X196642857Y-76976190D01*
X196404762Y-77452381D02*
X196404762Y-76452381D01*
X196785715Y-76452381D01*
X196880953Y-76500000D01*
X196928572Y-76547619D01*
X196976191Y-76642857D01*
X196976191Y-76785714D01*
X196928572Y-76880952D01*
X196880953Y-76928571D01*
X196785715Y-76976190D01*
X196404762Y-76976190D01*
X197166667Y-77547619D02*
X197928572Y-77547619D01*
X198595239Y-76785714D02*
X198595239Y-77595238D01*
X198547620Y-77690476D01*
X198500001Y-77738095D01*
X198404762Y-77785714D01*
X198261905Y-77785714D01*
X198166667Y-77738095D01*
X198595239Y-77404762D02*
X198500001Y-77452381D01*
X198309524Y-77452381D01*
X198214286Y-77404762D01*
X198166667Y-77357143D01*
X198119048Y-77261905D01*
X198119048Y-76976190D01*
X198166667Y-76880952D01*
X198214286Y-76833333D01*
X198309524Y-76785714D01*
X198500001Y-76785714D01*
X198595239Y-76833333D01*
X223361905Y-130695238D02*
X223552381Y-130695238D01*
X223476190Y-130885714D02*
X223552381Y-130695238D01*
X223476190Y-130504762D01*
X223704762Y-130809524D02*
X223552381Y-130695238D01*
X223704762Y-130580952D01*
X223933333Y-130238095D02*
X223933333Y-129857143D01*
X224161905Y-130314286D02*
X223361905Y-130047619D01*
X224161905Y-129780952D01*
X224161905Y-129171429D02*
X223361905Y-129171429D01*
X224123810Y-129171429D02*
X224161905Y-129247619D01*
X224161905Y-129400000D01*
X224123810Y-129476191D01*
X224085714Y-129514286D01*
X224009524Y-129552381D01*
X223780952Y-129552381D01*
X223704762Y-129514286D01*
X223666667Y-129476191D01*
X223628571Y-129400000D01*
X223628571Y-129247619D01*
X223666667Y-129171429D01*
X223628571Y-128790476D02*
X224314286Y-128790476D01*
X224390476Y-128828571D01*
X224428571Y-128904762D01*
X224428571Y-128942857D01*
X223361905Y-128790476D02*
X223400000Y-128828571D01*
X223438095Y-128790476D01*
X223400000Y-128752381D01*
X223361905Y-128790476D01*
X223438095Y-128790476D01*
X223628571Y-128066667D02*
X224161905Y-128066667D01*
X223628571Y-128409524D02*
X224047619Y-128409524D01*
X224123810Y-128371429D01*
X224161905Y-128295238D01*
X224161905Y-128180952D01*
X224123810Y-128104762D01*
X224085714Y-128066667D01*
X224123810Y-127723809D02*
X224161905Y-127647619D01*
X224161905Y-127495238D01*
X224123810Y-127419047D01*
X224047619Y-127380952D01*
X224009524Y-127380952D01*
X223933333Y-127419047D01*
X223895238Y-127495238D01*
X223895238Y-127609523D01*
X223857143Y-127685714D01*
X223780952Y-127723809D01*
X223742857Y-127723809D01*
X223666667Y-127685714D01*
X223628571Y-127609523D01*
X223628571Y-127495238D01*
X223666667Y-127419047D01*
X223628571Y-127152381D02*
X223628571Y-126847619D01*
X223361905Y-127038095D02*
X224047619Y-127038095D01*
X224123810Y-127000000D01*
X224161905Y-126923809D01*
X224161905Y-126847619D01*
X223361905Y-126085714D02*
X224161905Y-125819047D01*
X223361905Y-125552380D01*
X224161905Y-124828571D02*
X223780952Y-125095238D01*
X224161905Y-125285714D02*
X223361905Y-125285714D01*
X223361905Y-124980952D01*
X223400000Y-124904761D01*
X223438095Y-124866666D01*
X223514286Y-124828571D01*
X223628571Y-124828571D01*
X223704762Y-124866666D01*
X223742857Y-124904761D01*
X223780952Y-124980952D01*
X223780952Y-125285714D01*
X224238095Y-124676190D02*
X224238095Y-124066666D01*
X224161905Y-123876190D02*
X223628571Y-123876190D01*
X223361905Y-123876190D02*
X223400000Y-123914285D01*
X223438095Y-123876190D01*
X223400000Y-123838095D01*
X223361905Y-123876190D01*
X223438095Y-123876190D01*
X223628571Y-123495238D02*
X224161905Y-123495238D01*
X223704762Y-123495238D02*
X223666667Y-123457143D01*
X223628571Y-123380952D01*
X223628571Y-123266666D01*
X223666667Y-123190476D01*
X223742857Y-123152381D01*
X224161905Y-123152381D01*
X223628571Y-122771428D02*
X224428571Y-122771428D01*
X223666667Y-122771428D02*
X223628571Y-122695237D01*
X223628571Y-122542856D01*
X223666667Y-122466666D01*
X223704762Y-122428571D01*
X223780952Y-122390475D01*
X224009524Y-122390475D01*
X224085714Y-122428571D01*
X224123810Y-122466666D01*
X224161905Y-122542856D01*
X224161905Y-122695237D01*
X224123810Y-122771428D01*
X224238095Y-122238094D02*
X224238095Y-121628570D01*
X224161905Y-121323808D02*
X224123810Y-121399999D01*
X224047619Y-121438094D01*
X223361905Y-121438094D01*
X224123810Y-120714284D02*
X224161905Y-120790474D01*
X224161905Y-120942855D01*
X224123810Y-121019046D01*
X224047619Y-121057141D01*
X223742857Y-121057141D01*
X223666667Y-121019046D01*
X223628571Y-120942855D01*
X223628571Y-120790474D01*
X223666667Y-120714284D01*
X223742857Y-120676189D01*
X223819048Y-120676189D01*
X223895238Y-121057141D01*
X223628571Y-120409522D02*
X224161905Y-120219046D01*
X223628571Y-120028570D01*
X224123810Y-119419046D02*
X224161905Y-119495236D01*
X224161905Y-119647617D01*
X224123810Y-119723808D01*
X224047619Y-119761903D01*
X223742857Y-119761903D01*
X223666667Y-119723808D01*
X223628571Y-119647617D01*
X223628571Y-119495236D01*
X223666667Y-119419046D01*
X223742857Y-119380951D01*
X223819048Y-119380951D01*
X223895238Y-119761903D01*
X224161905Y-118923808D02*
X224123810Y-118999999D01*
X224047619Y-119038094D01*
X223361905Y-119038094D01*
X223628571Y-118123808D02*
X223628571Y-117819046D01*
X223361905Y-118009522D02*
X224047619Y-118009522D01*
X224123810Y-117971427D01*
X224161905Y-117895236D01*
X224161905Y-117819046D01*
X224161905Y-117438093D02*
X224123810Y-117514284D01*
X224085714Y-117552379D01*
X224009524Y-117590474D01*
X223780952Y-117590474D01*
X223704762Y-117552379D01*
X223666667Y-117514284D01*
X223628571Y-117438093D01*
X223628571Y-117323807D01*
X223666667Y-117247617D01*
X223704762Y-117209522D01*
X223780952Y-117171426D01*
X224009524Y-117171426D01*
X224085714Y-117209522D01*
X224123810Y-117247617D01*
X224161905Y-117323807D01*
X224161905Y-117438093D01*
X223628571Y-115876188D02*
X224276190Y-115876188D01*
X224352381Y-115914283D01*
X224390476Y-115952378D01*
X224428571Y-116028569D01*
X224428571Y-116142854D01*
X224390476Y-116219045D01*
X224123810Y-115876188D02*
X224161905Y-115952378D01*
X224161905Y-116104759D01*
X224123810Y-116180950D01*
X224085714Y-116219045D01*
X224009524Y-116257140D01*
X223780952Y-116257140D01*
X223704762Y-116219045D01*
X223666667Y-116180950D01*
X223628571Y-116104759D01*
X223628571Y-115952378D01*
X223666667Y-115876188D01*
X224123810Y-115190473D02*
X224161905Y-115266663D01*
X224161905Y-115419044D01*
X224123810Y-115495235D01*
X224047619Y-115533330D01*
X223742857Y-115533330D01*
X223666667Y-115495235D01*
X223628571Y-115419044D01*
X223628571Y-115266663D01*
X223666667Y-115190473D01*
X223742857Y-115152378D01*
X223819048Y-115152378D01*
X223895238Y-115533330D01*
X223628571Y-114923807D02*
X223628571Y-114619045D01*
X223361905Y-114809521D02*
X224047619Y-114809521D01*
X224123810Y-114771426D01*
X224161905Y-114695235D01*
X224161905Y-114619045D01*
X225028571Y-130466667D02*
X225561905Y-130466667D01*
X225028571Y-130809524D02*
X225447619Y-130809524D01*
X225523810Y-130771429D01*
X225561905Y-130695238D01*
X225561905Y-130580952D01*
X225523810Y-130504762D01*
X225485714Y-130466667D01*
X225028571Y-130085714D02*
X225561905Y-130085714D01*
X225104762Y-130085714D02*
X225066667Y-130047619D01*
X225028571Y-129971428D01*
X225028571Y-129857142D01*
X225066667Y-129780952D01*
X225142857Y-129742857D01*
X225561905Y-129742857D01*
X225561905Y-129361904D02*
X225028571Y-129361904D01*
X224761905Y-129361904D02*
X224800000Y-129399999D01*
X224838095Y-129361904D01*
X224800000Y-129323809D01*
X224761905Y-129361904D01*
X224838095Y-129361904D01*
X225028571Y-129095238D02*
X225028571Y-128790476D01*
X224761905Y-128980952D02*
X225447619Y-128980952D01*
X225523810Y-128942857D01*
X225561905Y-128866666D01*
X225561905Y-128790476D01*
X225028571Y-128599999D02*
X225561905Y-128409523D01*
X225028571Y-128219047D02*
X225561905Y-128409523D01*
X225752381Y-128485714D01*
X225790476Y-128523809D01*
X225828571Y-128599999D01*
X225028571Y-126961904D02*
X225676190Y-126961904D01*
X225752381Y-126999999D01*
X225790476Y-127038094D01*
X225828571Y-127114285D01*
X225828571Y-127228570D01*
X225790476Y-127304761D01*
X225523810Y-126961904D02*
X225561905Y-127038094D01*
X225561905Y-127190475D01*
X225523810Y-127266666D01*
X225485714Y-127304761D01*
X225409524Y-127342856D01*
X225180952Y-127342856D01*
X225104762Y-127304761D01*
X225066667Y-127266666D01*
X225028571Y-127190475D01*
X225028571Y-127038094D01*
X225066667Y-126961904D01*
X225561905Y-126238094D02*
X225142857Y-126238094D01*
X225066667Y-126276189D01*
X225028571Y-126352379D01*
X225028571Y-126504760D01*
X225066667Y-126580951D01*
X225523810Y-126238094D02*
X225561905Y-126314284D01*
X225561905Y-126504760D01*
X225523810Y-126580951D01*
X225447619Y-126619046D01*
X225371429Y-126619046D01*
X225295238Y-126580951D01*
X225257143Y-126504760D01*
X225257143Y-126314284D01*
X225219048Y-126238094D01*
X225561905Y-125857141D02*
X225028571Y-125857141D01*
X224761905Y-125857141D02*
X224800000Y-125895236D01*
X224838095Y-125857141D01*
X224800000Y-125819046D01*
X224761905Y-125857141D01*
X224838095Y-125857141D01*
X225028571Y-125476189D02*
X225561905Y-125476189D01*
X225104762Y-125476189D02*
X225066667Y-125438094D01*
X225028571Y-125361903D01*
X225028571Y-125247617D01*
X225066667Y-125171427D01*
X225142857Y-125133332D01*
X225561905Y-125133332D01*
X225561905Y-123799998D02*
X225142857Y-123799998D01*
X225066667Y-123838093D01*
X225028571Y-123914283D01*
X225028571Y-124066664D01*
X225066667Y-124142855D01*
X225523810Y-123799998D02*
X225561905Y-123876188D01*
X225561905Y-124066664D01*
X225523810Y-124142855D01*
X225447619Y-124180950D01*
X225371429Y-124180950D01*
X225295238Y-124142855D01*
X225257143Y-124066664D01*
X225257143Y-123876188D01*
X225219048Y-123799998D01*
X225523810Y-123076188D02*
X225561905Y-123152378D01*
X225561905Y-123304759D01*
X225523810Y-123380950D01*
X225485714Y-123419045D01*
X225409524Y-123457140D01*
X225180952Y-123457140D01*
X225104762Y-123419045D01*
X225066667Y-123380950D01*
X225028571Y-123304759D01*
X225028571Y-123152378D01*
X225066667Y-123076188D01*
X225561905Y-122733331D02*
X225028571Y-122733331D01*
X225180952Y-122733331D02*
X225104762Y-122695236D01*
X225066667Y-122657140D01*
X225028571Y-122580950D01*
X225028571Y-122504759D01*
X225561905Y-122123807D02*
X225523810Y-122199998D01*
X225485714Y-122238093D01*
X225409524Y-122276188D01*
X225180952Y-122276188D01*
X225104762Y-122238093D01*
X225066667Y-122199998D01*
X225028571Y-122123807D01*
X225028571Y-122009521D01*
X225066667Y-121933331D01*
X225104762Y-121895236D01*
X225180952Y-121857140D01*
X225409524Y-121857140D01*
X225485714Y-121895236D01*
X225523810Y-121933331D01*
X225561905Y-122009521D01*
X225561905Y-122123807D01*
X225523810Y-121552378D02*
X225561905Y-121476188D01*
X225561905Y-121323807D01*
X225523810Y-121247616D01*
X225447619Y-121209521D01*
X225409524Y-121209521D01*
X225333333Y-121247616D01*
X225295238Y-121323807D01*
X225295238Y-121438092D01*
X225257143Y-121514283D01*
X225180952Y-121552378D01*
X225142857Y-121552378D01*
X225066667Y-121514283D01*
X225028571Y-121438092D01*
X225028571Y-121323807D01*
X225066667Y-121247616D01*
X225523810Y-120904759D02*
X225561905Y-120828569D01*
X225561905Y-120676188D01*
X225523810Y-120599997D01*
X225447619Y-120561902D01*
X225409524Y-120561902D01*
X225333333Y-120599997D01*
X225295238Y-120676188D01*
X225295238Y-120790473D01*
X225257143Y-120866664D01*
X225180952Y-120904759D01*
X225142857Y-120904759D01*
X225066667Y-120866664D01*
X225028571Y-120790473D01*
X225028571Y-120676188D01*
X225066667Y-120599997D01*
X225561905Y-119495235D02*
X225523810Y-119571426D01*
X225447619Y-119609521D01*
X224761905Y-119609521D01*
X225561905Y-119076187D02*
X225523810Y-119152378D01*
X225485714Y-119190473D01*
X225409524Y-119228568D01*
X225180952Y-119228568D01*
X225104762Y-119190473D01*
X225066667Y-119152378D01*
X225028571Y-119076187D01*
X225028571Y-118961901D01*
X225066667Y-118885711D01*
X225104762Y-118847616D01*
X225180952Y-118809520D01*
X225409524Y-118809520D01*
X225485714Y-118847616D01*
X225523810Y-118885711D01*
X225561905Y-118961901D01*
X225561905Y-119076187D01*
X225561905Y-118352377D02*
X225523810Y-118428568D01*
X225485714Y-118466663D01*
X225409524Y-118504758D01*
X225180952Y-118504758D01*
X225104762Y-118466663D01*
X225066667Y-118428568D01*
X225028571Y-118352377D01*
X225028571Y-118238091D01*
X225066667Y-118161901D01*
X225104762Y-118123806D01*
X225180952Y-118085710D01*
X225409524Y-118085710D01*
X225485714Y-118123806D01*
X225523810Y-118161901D01*
X225561905Y-118238091D01*
X225561905Y-118352377D01*
X225028571Y-117742853D02*
X225828571Y-117742853D01*
X225066667Y-117742853D02*
X225028571Y-117666662D01*
X225028571Y-117514281D01*
X225066667Y-117438091D01*
X225104762Y-117399996D01*
X225180952Y-117361900D01*
X225409524Y-117361900D01*
X225485714Y-117399996D01*
X225523810Y-117438091D01*
X225561905Y-117514281D01*
X225561905Y-117666662D01*
X225523810Y-117742853D01*
X197452381Y-87000000D02*
X196976190Y-87333334D01*
X197452381Y-87571429D02*
X196452381Y-87571429D01*
X196452381Y-87190476D01*
X196500000Y-87095238D01*
X196547619Y-87047619D01*
X196642857Y-87000000D01*
X196785714Y-87000000D01*
X196880952Y-87047619D01*
X196928571Y-87095238D01*
X196976190Y-87190476D01*
X196976190Y-87571429D01*
X197547619Y-86809524D02*
X197547619Y-86047619D01*
X197452381Y-85380952D02*
X196928571Y-85380952D01*
X196833333Y-85428571D01*
X196785714Y-85523809D01*
X196785714Y-85714286D01*
X196833333Y-85809524D01*
X197404762Y-85380952D02*
X197452381Y-85476190D01*
X197452381Y-85714286D01*
X197404762Y-85809524D01*
X197309524Y-85857143D01*
X197214286Y-85857143D01*
X197119048Y-85809524D01*
X197071429Y-85714286D01*
X197071429Y-85476190D01*
X197023810Y-85380952D01*
X197452381Y-84380952D02*
X197452381Y-84952381D01*
X197452381Y-84666667D02*
X196452381Y-84666667D01*
X196595238Y-84761905D01*
X196690476Y-84857143D01*
X196738095Y-84952381D01*
X207952381Y-85952381D02*
X207476190Y-86285715D01*
X207952381Y-86523810D02*
X206952381Y-86523810D01*
X206952381Y-86142857D01*
X207000000Y-86047619D01*
X207047619Y-86000000D01*
X207142857Y-85952381D01*
X207285714Y-85952381D01*
X207380952Y-86000000D01*
X207428571Y-86047619D01*
X207476190Y-86142857D01*
X207476190Y-86523810D01*
X208047619Y-85761905D02*
X208047619Y-85000000D01*
X207952381Y-84761905D02*
X206952381Y-84761905D01*
X207571429Y-84666667D02*
X207952381Y-84380952D01*
X207285714Y-84380952D02*
X207666667Y-84761905D01*
X207952381Y-83428571D02*
X207952381Y-84000000D01*
X207952381Y-83714286D02*
X206952381Y-83714286D01*
X207095238Y-83809524D01*
X207190476Y-83904762D01*
X207238095Y-84000000D01*
X213023809Y-131952381D02*
X213595238Y-131952381D01*
X213309523Y-132952381D02*
X213309523Y-131952381D01*
X214071428Y-132952381D02*
X213976190Y-132904762D01*
X213928571Y-132857143D01*
X213880952Y-132761905D01*
X213880952Y-132476190D01*
X213928571Y-132380952D01*
X213976190Y-132333333D01*
X214071428Y-132285714D01*
X214214286Y-132285714D01*
X214309524Y-132333333D01*
X214357143Y-132380952D01*
X214404762Y-132476190D01*
X214404762Y-132761905D01*
X214357143Y-132857143D01*
X214309524Y-132904762D01*
X214214286Y-132952381D01*
X214071428Y-132952381D01*
X214833333Y-132952381D02*
X214833333Y-131952381D01*
X215404762Y-132952381D01*
X215404762Y-131952381D01*
X216261905Y-132904762D02*
X216166667Y-132952381D01*
X215976190Y-132952381D01*
X215880952Y-132904762D01*
X215833333Y-132809524D01*
X215833333Y-132428571D01*
X215880952Y-132333333D01*
X215976190Y-132285714D01*
X216166667Y-132285714D01*
X216261905Y-132333333D01*
X216309524Y-132428571D01*
X216309524Y-132523810D01*
X215833333Y-132619048D01*
X216642857Y-132952381D02*
X217166667Y-132285714D01*
X216642857Y-132285714D02*
X217166667Y-132952381D01*
X217404762Y-132285714D02*
X217785714Y-132285714D01*
X217547619Y-131952381D02*
X217547619Y-132809524D01*
X217595238Y-132904762D01*
X217690476Y-132952381D01*
X217785714Y-132952381D01*
X218071429Y-132904762D02*
X218214286Y-132952381D01*
X218452382Y-132952381D01*
X218547620Y-132904762D01*
X218595239Y-132857143D01*
X218642858Y-132761905D01*
X218642858Y-132666667D01*
X218595239Y-132571429D01*
X218547620Y-132523810D01*
X218452382Y-132476190D01*
X218261905Y-132428571D01*
X218166667Y-132380952D01*
X218119048Y-132333333D01*
X218071429Y-132238095D01*
X218071429Y-132142857D01*
X218119048Y-132047619D01*
X218166667Y-132000000D01*
X218261905Y-131952381D01*
X218500001Y-131952381D01*
X218642858Y-132000000D01*
X218928572Y-132285714D02*
X219309524Y-132285714D01*
X219071429Y-131952381D02*
X219071429Y-132809524D01*
X219119048Y-132904762D01*
X219214286Y-132952381D01*
X219309524Y-132952381D01*
X220071430Y-132952381D02*
X220071430Y-132428571D01*
X220023811Y-132333333D01*
X219928573Y-132285714D01*
X219738096Y-132285714D01*
X219642858Y-132333333D01*
X220071430Y-132904762D02*
X219976192Y-132952381D01*
X219738096Y-132952381D01*
X219642858Y-132904762D01*
X219595239Y-132809524D01*
X219595239Y-132714286D01*
X219642858Y-132619048D01*
X219738096Y-132571429D01*
X219976192Y-132571429D01*
X220071430Y-132523810D01*
X220976192Y-132285714D02*
X220976192Y-133095238D01*
X220928573Y-133190476D01*
X220880954Y-133238095D01*
X220785715Y-133285714D01*
X220642858Y-133285714D01*
X220547620Y-133238095D01*
X220976192Y-132904762D02*
X220880954Y-132952381D01*
X220690477Y-132952381D01*
X220595239Y-132904762D01*
X220547620Y-132857143D01*
X220500001Y-132761905D01*
X220500001Y-132476190D01*
X220547620Y-132380952D01*
X220595239Y-132333333D01*
X220690477Y-132285714D01*
X220880954Y-132285714D01*
X220976192Y-132333333D01*
X221833335Y-132904762D02*
X221738097Y-132952381D01*
X221547620Y-132952381D01*
X221452382Y-132904762D01*
X221404763Y-132809524D01*
X221404763Y-132428571D01*
X221452382Y-132333333D01*
X221547620Y-132285714D01*
X221738097Y-132285714D01*
X221833335Y-132333333D01*
X221880954Y-132428571D01*
X221880954Y-132523810D01*
X221404763Y-132619048D01*
X209738096Y-141000000D02*
X209642858Y-140952381D01*
X209500001Y-140952381D01*
X209357143Y-141000000D01*
X209261905Y-141095238D01*
X209214286Y-141190476D01*
X209166667Y-141380952D01*
X209166667Y-141523810D01*
X209214286Y-141714286D01*
X209261905Y-141809524D01*
X209357143Y-141904762D01*
X209500001Y-141952381D01*
X209595239Y-141952381D01*
X209738096Y-141904762D01*
X209785715Y-141857143D01*
X209785715Y-141523810D01*
X209595239Y-141523810D01*
X210214286Y-141952381D02*
X210214286Y-140952381D01*
X210785715Y-141952381D01*
X210785715Y-140952381D01*
X211261905Y-141952381D02*
X211261905Y-140952381D01*
X211500000Y-140952381D01*
X211642858Y-141000000D01*
X211738096Y-141095238D01*
X211785715Y-141190476D01*
X211833334Y-141380952D01*
X211833334Y-141523810D01*
X211785715Y-141714286D01*
X211738096Y-141809524D01*
X211642858Y-141904762D01*
X211500000Y-141952381D01*
X211261905Y-141952381D01*
X203309524Y-132428571D02*
X202976190Y-132428571D01*
X202976190Y-132952381D02*
X202976190Y-131952381D01*
X203452381Y-131952381D01*
X203833333Y-132952381D02*
X203833333Y-132285714D01*
X203833333Y-132476190D02*
X203880952Y-132380952D01*
X203928571Y-132333333D01*
X204023809Y-132285714D01*
X204119048Y-132285714D01*
X204595238Y-132952381D02*
X204500000Y-132904762D01*
X204452381Y-132857143D01*
X204404762Y-132761905D01*
X204404762Y-132476190D01*
X204452381Y-132380952D01*
X204500000Y-132333333D01*
X204595238Y-132285714D01*
X204738096Y-132285714D01*
X204833334Y-132333333D01*
X204880953Y-132380952D01*
X204928572Y-132476190D01*
X204928572Y-132761905D01*
X204880953Y-132857143D01*
X204833334Y-132904762D01*
X204738096Y-132952381D01*
X204595238Y-132952381D01*
X205357143Y-132952381D02*
X205357143Y-132285714D01*
X205357143Y-132380952D02*
X205404762Y-132333333D01*
X205500000Y-132285714D01*
X205642858Y-132285714D01*
X205738096Y-132333333D01*
X205785715Y-132428571D01*
X205785715Y-132952381D01*
X205785715Y-132428571D02*
X205833334Y-132333333D01*
X205928572Y-132285714D01*
X206071429Y-132285714D01*
X206166667Y-132333333D01*
X206214286Y-132428571D01*
X206214286Y-132952381D01*
X207023810Y-132428571D02*
X206690476Y-132428571D01*
X206690476Y-132952381D02*
X206690476Y-131952381D01*
X207166667Y-131952381D01*
X207452381Y-131952381D02*
X208119048Y-132952381D01*
X208119048Y-131952381D02*
X207452381Y-132952381D01*
X193238095Y-132666667D02*
X193714286Y-132666667D01*
X193142857Y-132952381D02*
X193476190Y-131952381D01*
X193809524Y-132952381D01*
X194666667Y-132000000D02*
X194571429Y-131952381D01*
X194428572Y-131952381D01*
X194285714Y-132000000D01*
X194190476Y-132095238D01*
X194142857Y-132190476D01*
X194095238Y-132380952D01*
X194095238Y-132523810D01*
X194142857Y-132714286D01*
X194190476Y-132809524D01*
X194285714Y-132904762D01*
X194428572Y-132952381D01*
X194523810Y-132952381D01*
X194666667Y-132904762D01*
X194714286Y-132857143D01*
X194714286Y-132523810D01*
X194523810Y-132523810D01*
X195142857Y-132952381D02*
X195142857Y-131952381D01*
X195714286Y-132952381D01*
X195714286Y-131952381D01*
X196190476Y-132952381D02*
X196190476Y-131952381D01*
X196428571Y-131952381D01*
X196571429Y-132000000D01*
X196666667Y-132095238D01*
X196714286Y-132190476D01*
X196761905Y-132380952D01*
X196761905Y-132523810D01*
X196714286Y-132714286D01*
X196666667Y-132809524D01*
X196571429Y-132904762D01*
X196428571Y-132952381D01*
X196190476Y-132952381D01*
X219500000Y-96261904D02*
X219452381Y-96357142D01*
X219452381Y-96499999D01*
X219500000Y-96642857D01*
X219595238Y-96738095D01*
X219690476Y-96785714D01*
X219880952Y-96833333D01*
X220023810Y-96833333D01*
X220214286Y-96785714D01*
X220309524Y-96738095D01*
X220404762Y-96642857D01*
X220452381Y-96499999D01*
X220452381Y-96404761D01*
X220404762Y-96261904D01*
X220357143Y-96214285D01*
X220023810Y-96214285D01*
X220023810Y-96404761D01*
X220452381Y-95785714D02*
X219452381Y-95785714D01*
X220452381Y-95214285D01*
X219452381Y-95214285D01*
X220452381Y-94738095D02*
X219452381Y-94738095D01*
X219452381Y-94500000D01*
X219500000Y-94357142D01*
X219595238Y-94261904D01*
X219690476Y-94214285D01*
X219880952Y-94166666D01*
X220023810Y-94166666D01*
X220214286Y-94214285D01*
X220309524Y-94261904D01*
X220404762Y-94357142D01*
X220452381Y-94500000D01*
X220452381Y-94738095D01*
X228452381Y-93595239D02*
X228452381Y-93023810D01*
X229452381Y-93309525D02*
X228452381Y-93309525D01*
X229452381Y-92547620D02*
X229404762Y-92642858D01*
X229357143Y-92690477D01*
X229261905Y-92738096D01*
X228976190Y-92738096D01*
X228880952Y-92690477D01*
X228833333Y-92642858D01*
X228785714Y-92547620D01*
X228785714Y-92404762D01*
X228833333Y-92309524D01*
X228880952Y-92261905D01*
X228976190Y-92214286D01*
X229261905Y-92214286D01*
X229357143Y-92261905D01*
X229404762Y-92309524D01*
X229452381Y-92404762D01*
X229452381Y-92547620D01*
X229404762Y-91833334D02*
X229452381Y-91690477D01*
X229452381Y-91452381D01*
X229404762Y-91357143D01*
X229357143Y-91309524D01*
X229261905Y-91261905D01*
X229166667Y-91261905D01*
X229071429Y-91309524D01*
X229023810Y-91357143D01*
X228976190Y-91452381D01*
X228928571Y-91642858D01*
X228880952Y-91738096D01*
X228833333Y-91785715D01*
X228738095Y-91833334D01*
X228642857Y-91833334D01*
X228547619Y-91785715D01*
X228500000Y-91738096D01*
X228452381Y-91642858D01*
X228452381Y-91404762D01*
X228500000Y-91261905D01*
X229404762Y-90452381D02*
X229452381Y-90547619D01*
X229452381Y-90738096D01*
X229404762Y-90833334D01*
X229309524Y-90880953D01*
X228928571Y-90880953D01*
X228833333Y-90833334D01*
X228785714Y-90738096D01*
X228785714Y-90547619D01*
X228833333Y-90452381D01*
X228928571Y-90404762D01*
X229023810Y-90404762D01*
X229119048Y-90880953D01*
X228785714Y-89976191D02*
X229452381Y-89976191D01*
X228880952Y-89976191D02*
X228833333Y-89928572D01*
X228785714Y-89833334D01*
X228785714Y-89690476D01*
X228833333Y-89595238D01*
X228928571Y-89547619D01*
X229452381Y-89547619D01*
X229452381Y-88642857D02*
X228452381Y-88642857D01*
X229404762Y-88642857D02*
X229452381Y-88738095D01*
X229452381Y-88928572D01*
X229404762Y-89023810D01*
X229357143Y-89071429D01*
X229261905Y-89119048D01*
X228976190Y-89119048D01*
X228880952Y-89071429D01*
X228833333Y-89023810D01*
X228785714Y-88928572D01*
X228785714Y-88738095D01*
X228833333Y-88642857D01*
X229452381Y-87690476D02*
X229452381Y-88166667D01*
X228452381Y-88166667D01*
X228785714Y-87452381D02*
X229452381Y-87214286D01*
X228785714Y-86976190D01*
X229452381Y-86452381D02*
X229404762Y-86547619D01*
X229309524Y-86595238D01*
X228452381Y-86595238D01*
X219500000Y-85761904D02*
X219452381Y-85857142D01*
X219452381Y-85999999D01*
X219500000Y-86142857D01*
X219595238Y-86238095D01*
X219690476Y-86285714D01*
X219880952Y-86333333D01*
X220023810Y-86333333D01*
X220214286Y-86285714D01*
X220309524Y-86238095D01*
X220404762Y-86142857D01*
X220452381Y-85999999D01*
X220452381Y-85904761D01*
X220404762Y-85761904D01*
X220357143Y-85714285D01*
X220023810Y-85714285D01*
X220023810Y-85904761D01*
X220452381Y-85285714D02*
X219452381Y-85285714D01*
X220452381Y-84714285D01*
X219452381Y-84714285D01*
X220452381Y-84238095D02*
X219452381Y-84238095D01*
X219452381Y-84000000D01*
X219500000Y-83857142D01*
X219595238Y-83761904D01*
X219690476Y-83714285D01*
X219880952Y-83666666D01*
X220023810Y-83666666D01*
X220214286Y-83714285D01*
X220309524Y-83761904D01*
X220404762Y-83857142D01*
X220452381Y-84000000D01*
X220452381Y-84238095D01*
X219561905Y-130695238D02*
X219752381Y-130695238D01*
X219676190Y-130885714D02*
X219752381Y-130695238D01*
X219676190Y-130504762D01*
X219904762Y-130809524D02*
X219752381Y-130695238D01*
X219904762Y-130580952D01*
X219561905Y-130200000D02*
X220209524Y-130200000D01*
X220285714Y-130161905D01*
X220323810Y-130123809D01*
X220361905Y-130047619D01*
X220361905Y-129895238D01*
X220323810Y-129819047D01*
X220285714Y-129780952D01*
X220209524Y-129742857D01*
X219561905Y-129742857D01*
X220323810Y-129400000D02*
X220361905Y-129323810D01*
X220361905Y-129171429D01*
X220323810Y-129095238D01*
X220247619Y-129057143D01*
X220209524Y-129057143D01*
X220133333Y-129095238D01*
X220095238Y-129171429D01*
X220095238Y-129285714D01*
X220057143Y-129361905D01*
X219980952Y-129400000D01*
X219942857Y-129400000D01*
X219866667Y-129361905D01*
X219828571Y-129285714D01*
X219828571Y-129171429D01*
X219866667Y-129095238D01*
X220323810Y-128409524D02*
X220361905Y-128485714D01*
X220361905Y-128638095D01*
X220323810Y-128714286D01*
X220247619Y-128752381D01*
X219942857Y-128752381D01*
X219866667Y-128714286D01*
X219828571Y-128638095D01*
X219828571Y-128485714D01*
X219866667Y-128409524D01*
X219942857Y-128371429D01*
X220019048Y-128371429D01*
X220095238Y-128752381D01*
X220133333Y-127457143D02*
X220133333Y-127076191D01*
X220361905Y-127533334D02*
X219561905Y-127266667D01*
X220361905Y-127000000D01*
X219600000Y-126314286D02*
X219561905Y-126390477D01*
X219561905Y-126504762D01*
X219600000Y-126619048D01*
X219676190Y-126695239D01*
X219752381Y-126733334D01*
X219904762Y-126771429D01*
X220019048Y-126771429D01*
X220171429Y-126733334D01*
X220247619Y-126695239D01*
X220323810Y-126619048D01*
X220361905Y-126504762D01*
X220361905Y-126428572D01*
X220323810Y-126314286D01*
X220285714Y-126276191D01*
X220019048Y-126276191D01*
X220019048Y-126428572D01*
X220361905Y-125933334D02*
X219561905Y-125933334D01*
X220361905Y-125476191D01*
X219561905Y-125476191D01*
X220361905Y-125095239D02*
X219561905Y-125095239D01*
X219561905Y-124904763D01*
X219600000Y-124790477D01*
X219676190Y-124714286D01*
X219752381Y-124676191D01*
X219904762Y-124638096D01*
X220019048Y-124638096D01*
X220171429Y-124676191D01*
X220247619Y-124714286D01*
X220323810Y-124790477D01*
X220361905Y-124904763D01*
X220361905Y-125095239D01*
X220361905Y-123342858D02*
X219942857Y-123342858D01*
X219866667Y-123380953D01*
X219828571Y-123457143D01*
X219828571Y-123609524D01*
X219866667Y-123685715D01*
X220323810Y-123342858D02*
X220361905Y-123419048D01*
X220361905Y-123609524D01*
X220323810Y-123685715D01*
X220247619Y-123723810D01*
X220171429Y-123723810D01*
X220095238Y-123685715D01*
X220057143Y-123609524D01*
X220057143Y-123419048D01*
X220019048Y-123342858D01*
X220323810Y-123000000D02*
X220361905Y-122923810D01*
X220361905Y-122771429D01*
X220323810Y-122695238D01*
X220247619Y-122657143D01*
X220209524Y-122657143D01*
X220133333Y-122695238D01*
X220095238Y-122771429D01*
X220095238Y-122885714D01*
X220057143Y-122961905D01*
X219980952Y-123000000D01*
X219942857Y-123000000D01*
X219866667Y-122961905D01*
X219828571Y-122885714D01*
X219828571Y-122771429D01*
X219866667Y-122695238D01*
X220361905Y-121704762D02*
X219828571Y-121704762D01*
X219980952Y-121704762D02*
X219904762Y-121666667D01*
X219866667Y-121628571D01*
X219828571Y-121552381D01*
X219828571Y-121476190D01*
X220323810Y-120904762D02*
X220361905Y-120980952D01*
X220361905Y-121133333D01*
X220323810Y-121209524D01*
X220247619Y-121247619D01*
X219942857Y-121247619D01*
X219866667Y-121209524D01*
X219828571Y-121133333D01*
X219828571Y-120980952D01*
X219866667Y-120904762D01*
X219942857Y-120866667D01*
X220019048Y-120866667D01*
X220095238Y-121247619D01*
X219828571Y-120638096D02*
X219828571Y-120333334D01*
X219561905Y-120523810D02*
X220247619Y-120523810D01*
X220323810Y-120485715D01*
X220361905Y-120409524D01*
X220361905Y-120333334D01*
X219828571Y-119723810D02*
X220361905Y-119723810D01*
X219828571Y-120066667D02*
X220247619Y-120066667D01*
X220323810Y-120028572D01*
X220361905Y-119952381D01*
X220361905Y-119838095D01*
X220323810Y-119761905D01*
X220285714Y-119723810D01*
X220361905Y-119342857D02*
X219828571Y-119342857D01*
X219980952Y-119342857D02*
X219904762Y-119304762D01*
X219866667Y-119266666D01*
X219828571Y-119190476D01*
X219828571Y-119114285D01*
X219828571Y-118847619D02*
X220361905Y-118847619D01*
X219904762Y-118847619D02*
X219866667Y-118809524D01*
X219828571Y-118733333D01*
X219828571Y-118619047D01*
X219866667Y-118542857D01*
X219942857Y-118504762D01*
X220361905Y-118504762D01*
X219828571Y-117628571D02*
X219828571Y-117323809D01*
X220361905Y-117514285D02*
X219676190Y-117514285D01*
X219600000Y-117476190D01*
X219561905Y-117399999D01*
X219561905Y-117323809D01*
X220361905Y-117057142D02*
X219828571Y-117057142D01*
X219980952Y-117057142D02*
X219904762Y-117019047D01*
X219866667Y-116980951D01*
X219828571Y-116904761D01*
X219828571Y-116828570D01*
X220361905Y-116447618D02*
X220323810Y-116523809D01*
X220285714Y-116561904D01*
X220209524Y-116599999D01*
X219980952Y-116599999D01*
X219904762Y-116561904D01*
X219866667Y-116523809D01*
X219828571Y-116447618D01*
X219828571Y-116333332D01*
X219866667Y-116257142D01*
X219904762Y-116219047D01*
X219980952Y-116180951D01*
X220209524Y-116180951D01*
X220285714Y-116219047D01*
X220323810Y-116257142D01*
X220361905Y-116333332D01*
X220361905Y-116447618D01*
X220361905Y-115838094D02*
X219828571Y-115838094D01*
X219904762Y-115838094D02*
X219866667Y-115799999D01*
X219828571Y-115723808D01*
X219828571Y-115609522D01*
X219866667Y-115533332D01*
X219942857Y-115495237D01*
X220361905Y-115495237D01*
X219942857Y-115495237D02*
X219866667Y-115457141D01*
X219828571Y-115380951D01*
X219828571Y-115266665D01*
X219866667Y-115190475D01*
X219942857Y-115152380D01*
X220361905Y-115152380D01*
X219828571Y-114161903D02*
X220628571Y-114161903D01*
X219866667Y-114161903D02*
X219828571Y-114085712D01*
X219828571Y-113933331D01*
X219866667Y-113857141D01*
X219904762Y-113819046D01*
X219980952Y-113780950D01*
X220209524Y-113780950D01*
X220285714Y-113819046D01*
X220323810Y-113857141D01*
X220361905Y-113933331D01*
X220361905Y-114085712D01*
X220323810Y-114161903D01*
X220361905Y-113323807D02*
X220323810Y-113399998D01*
X220285714Y-113438093D01*
X220209524Y-113476188D01*
X219980952Y-113476188D01*
X219904762Y-113438093D01*
X219866667Y-113399998D01*
X219828571Y-113323807D01*
X219828571Y-113209521D01*
X219866667Y-113133331D01*
X219904762Y-113095236D01*
X219980952Y-113057140D01*
X220209524Y-113057140D01*
X220285714Y-113095236D01*
X220323810Y-113133331D01*
X220361905Y-113209521D01*
X220361905Y-113323807D01*
X219828571Y-112828569D02*
X219828571Y-112523807D01*
X219561905Y-112714283D02*
X220247619Y-112714283D01*
X220323810Y-112676188D01*
X220361905Y-112599997D01*
X220361905Y-112523807D01*
X220323810Y-112295235D02*
X220361905Y-112219045D01*
X220361905Y-112066664D01*
X220323810Y-111990473D01*
X220247619Y-111952378D01*
X220209524Y-111952378D01*
X220133333Y-111990473D01*
X220095238Y-112066664D01*
X220095238Y-112180949D01*
X220057143Y-112257140D01*
X219980952Y-112295235D01*
X219942857Y-112295235D01*
X219866667Y-112257140D01*
X219828571Y-112180949D01*
X219828571Y-112066664D01*
X219866667Y-111990473D01*
X218142857Y-69452381D02*
X218142857Y-68452381D01*
X218142857Y-68928571D02*
X218714286Y-68928571D01*
X218714286Y-69452381D02*
X218714286Y-68452381D01*
X219047619Y-68452381D02*
X219619048Y-68452381D01*
X219333333Y-69452381D02*
X219333333Y-68452381D01*
X219952381Y-69452381D02*
X219952381Y-68785714D01*
X219952381Y-68452381D02*
X219904762Y-68500000D01*
X219952381Y-68547619D01*
X220000000Y-68500000D01*
X219952381Y-68452381D01*
X219952381Y-68547619D01*
X220428571Y-68785714D02*
X220428571Y-69452381D01*
X220428571Y-68880952D02*
X220476190Y-68833333D01*
X220571428Y-68785714D01*
X220714286Y-68785714D01*
X220809524Y-68833333D01*
X220857143Y-68928571D01*
X220857143Y-69452381D01*
X221061905Y-130695238D02*
X221252381Y-130695238D01*
X221176190Y-130885714D02*
X221252381Y-130695238D01*
X221176190Y-130504762D01*
X221404762Y-130809524D02*
X221252381Y-130695238D01*
X221404762Y-130580952D01*
X221061905Y-130200000D02*
X221709524Y-130200000D01*
X221785714Y-130161905D01*
X221823810Y-130123809D01*
X221861905Y-130047619D01*
X221861905Y-129895238D01*
X221823810Y-129819047D01*
X221785714Y-129780952D01*
X221709524Y-129742857D01*
X221061905Y-129742857D01*
X221823810Y-129400000D02*
X221861905Y-129323810D01*
X221861905Y-129171429D01*
X221823810Y-129095238D01*
X221747619Y-129057143D01*
X221709524Y-129057143D01*
X221633333Y-129095238D01*
X221595238Y-129171429D01*
X221595238Y-129285714D01*
X221557143Y-129361905D01*
X221480952Y-129400000D01*
X221442857Y-129400000D01*
X221366667Y-129361905D01*
X221328571Y-129285714D01*
X221328571Y-129171429D01*
X221366667Y-129095238D01*
X221823810Y-128409524D02*
X221861905Y-128485714D01*
X221861905Y-128638095D01*
X221823810Y-128714286D01*
X221747619Y-128752381D01*
X221442857Y-128752381D01*
X221366667Y-128714286D01*
X221328571Y-128638095D01*
X221328571Y-128485714D01*
X221366667Y-128409524D01*
X221442857Y-128371429D01*
X221519048Y-128371429D01*
X221595238Y-128752381D01*
X221100000Y-127000000D02*
X221061905Y-127076191D01*
X221061905Y-127190476D01*
X221100000Y-127304762D01*
X221176190Y-127380953D01*
X221252381Y-127419048D01*
X221404762Y-127457143D01*
X221519048Y-127457143D01*
X221671429Y-127419048D01*
X221747619Y-127380953D01*
X221823810Y-127304762D01*
X221861905Y-127190476D01*
X221861905Y-127114286D01*
X221823810Y-127000000D01*
X221785714Y-126961905D01*
X221519048Y-126961905D01*
X221519048Y-127114286D01*
X221861905Y-126619048D02*
X221061905Y-126619048D01*
X221861905Y-126161905D01*
X221061905Y-126161905D01*
X221861905Y-125780953D02*
X221061905Y-125780953D01*
X221061905Y-125590477D01*
X221100000Y-125476191D01*
X221176190Y-125400000D01*
X221252381Y-125361905D01*
X221404762Y-125323810D01*
X221519048Y-125323810D01*
X221671429Y-125361905D01*
X221747619Y-125400000D01*
X221823810Y-125476191D01*
X221861905Y-125590477D01*
X221861905Y-125780953D01*
X221328571Y-124485715D02*
X221328571Y-124180953D01*
X221861905Y-124371429D02*
X221176190Y-124371429D01*
X221100000Y-124333334D01*
X221061905Y-124257143D01*
X221061905Y-124180953D01*
X221861905Y-123800000D02*
X221823810Y-123876191D01*
X221785714Y-123914286D01*
X221709524Y-123952381D01*
X221480952Y-123952381D01*
X221404762Y-123914286D01*
X221366667Y-123876191D01*
X221328571Y-123800000D01*
X221328571Y-123685714D01*
X221366667Y-123609524D01*
X221404762Y-123571429D01*
X221480952Y-123533333D01*
X221709524Y-123533333D01*
X221785714Y-123571429D01*
X221823810Y-123609524D01*
X221861905Y-123685714D01*
X221861905Y-123800000D01*
X221861905Y-123190476D02*
X221328571Y-123190476D01*
X221480952Y-123190476D02*
X221404762Y-123152381D01*
X221366667Y-123114285D01*
X221328571Y-123038095D01*
X221328571Y-122961904D01*
X221328571Y-122161904D02*
X221861905Y-122009523D01*
X221480952Y-121857142D01*
X221861905Y-121704761D01*
X221328571Y-121552380D01*
X221861905Y-121247619D02*
X221328571Y-121247619D01*
X221061905Y-121247619D02*
X221100000Y-121285714D01*
X221138095Y-121247619D01*
X221100000Y-121209524D01*
X221061905Y-121247619D01*
X221138095Y-121247619D01*
X221861905Y-120866667D02*
X221328571Y-120866667D01*
X221480952Y-120866667D02*
X221404762Y-120828572D01*
X221366667Y-120790476D01*
X221328571Y-120714286D01*
X221328571Y-120638095D01*
X221823810Y-120066667D02*
X221861905Y-120142857D01*
X221861905Y-120295238D01*
X221823810Y-120371429D01*
X221747619Y-120409524D01*
X221442857Y-120409524D01*
X221366667Y-120371429D01*
X221328571Y-120295238D01*
X221328571Y-120142857D01*
X221366667Y-120066667D01*
X221442857Y-120028572D01*
X221519048Y-120028572D01*
X221595238Y-120409524D01*
X221823810Y-119114286D02*
X221861905Y-119038096D01*
X221861905Y-118885715D01*
X221823810Y-118809524D01*
X221747619Y-118771429D01*
X221709524Y-118771429D01*
X221633333Y-118809524D01*
X221595238Y-118885715D01*
X221595238Y-119000000D01*
X221557143Y-119076191D01*
X221480952Y-119114286D01*
X221442857Y-119114286D01*
X221366667Y-119076191D01*
X221328571Y-119000000D01*
X221328571Y-118885715D01*
X221366667Y-118809524D01*
X221861905Y-118428572D02*
X221061905Y-118428572D01*
X221861905Y-118085715D02*
X221442857Y-118085715D01*
X221366667Y-118123810D01*
X221328571Y-118200000D01*
X221328571Y-118314286D01*
X221366667Y-118390477D01*
X221404762Y-118428572D01*
X221861905Y-117704762D02*
X221328571Y-117704762D01*
X221061905Y-117704762D02*
X221100000Y-117742857D01*
X221138095Y-117704762D01*
X221100000Y-117666667D01*
X221061905Y-117704762D01*
X221138095Y-117704762D01*
X221823810Y-117019048D02*
X221861905Y-117095238D01*
X221861905Y-117247619D01*
X221823810Y-117323810D01*
X221747619Y-117361905D01*
X221442857Y-117361905D01*
X221366667Y-117323810D01*
X221328571Y-117247619D01*
X221328571Y-117095238D01*
X221366667Y-117019048D01*
X221442857Y-116980953D01*
X221519048Y-116980953D01*
X221595238Y-117361905D01*
X221861905Y-116523810D02*
X221823810Y-116600001D01*
X221747619Y-116638096D01*
X221061905Y-116638096D01*
X221861905Y-115876191D02*
X221061905Y-115876191D01*
X221823810Y-115876191D02*
X221861905Y-115952381D01*
X221861905Y-116104762D01*
X221823810Y-116180953D01*
X221785714Y-116219048D01*
X221709524Y-116257143D01*
X221480952Y-116257143D01*
X221404762Y-116219048D01*
X221366667Y-116180953D01*
X221328571Y-116104762D01*
X221328571Y-115952381D01*
X221366667Y-115876191D01*
X221861905Y-115495238D02*
X221328571Y-115495238D01*
X221061905Y-115495238D02*
X221100000Y-115533333D01*
X221138095Y-115495238D01*
X221100000Y-115457143D01*
X221061905Y-115495238D01*
X221138095Y-115495238D01*
X221328571Y-115114286D02*
X221861905Y-115114286D01*
X221404762Y-115114286D02*
X221366667Y-115076191D01*
X221328571Y-115000000D01*
X221328571Y-114885714D01*
X221366667Y-114809524D01*
X221442857Y-114771429D01*
X221861905Y-114771429D01*
X221328571Y-114047619D02*
X221976190Y-114047619D01*
X222052381Y-114085714D01*
X222090476Y-114123809D01*
X222128571Y-114200000D01*
X222128571Y-114314285D01*
X222090476Y-114390476D01*
X221823810Y-114047619D02*
X221861905Y-114123809D01*
X221861905Y-114276190D01*
X221823810Y-114352381D01*
X221785714Y-114390476D01*
X221709524Y-114428571D01*
X221480952Y-114428571D01*
X221404762Y-114390476D01*
X221366667Y-114352381D01*
X221328571Y-114276190D01*
X221328571Y-114123809D01*
X221366667Y-114047619D01*
X217452381Y-108000000D02*
X216976190Y-108333334D01*
X217452381Y-108571429D02*
X216452381Y-108571429D01*
X216452381Y-108190476D01*
X216500000Y-108095238D01*
X216547619Y-108047619D01*
X216642857Y-108000000D01*
X216785714Y-108000000D01*
X216880952Y-108047619D01*
X216928571Y-108095238D01*
X216976190Y-108190476D01*
X216976190Y-108571429D01*
X217547619Y-107809524D02*
X217547619Y-107047619D01*
X217452381Y-106380952D02*
X216928571Y-106380952D01*
X216833333Y-106428571D01*
X216785714Y-106523809D01*
X216785714Y-106714286D01*
X216833333Y-106809524D01*
X217404762Y-106380952D02*
X217452381Y-106476190D01*
X217452381Y-106714286D01*
X217404762Y-106809524D01*
X217309524Y-106857143D01*
X217214286Y-106857143D01*
X217119048Y-106809524D01*
X217071429Y-106714286D01*
X217071429Y-106476190D01*
X217023810Y-106380952D01*
X216547619Y-105952381D02*
X216500000Y-105904762D01*
X216452381Y-105809524D01*
X216452381Y-105571428D01*
X216500000Y-105476190D01*
X216547619Y-105428571D01*
X216642857Y-105380952D01*
X216738095Y-105380952D01*
X216880952Y-105428571D01*
X217452381Y-106000000D01*
X217452381Y-105380952D01*
X177952381Y-133357143D02*
X177904762Y-133404762D01*
X177761905Y-133452381D01*
X177666667Y-133452381D01*
X177523809Y-133404762D01*
X177428571Y-133309524D01*
X177380952Y-133214286D01*
X177333333Y-133023810D01*
X177333333Y-132880952D01*
X177380952Y-132690476D01*
X177428571Y-132595238D01*
X177523809Y-132500000D01*
X177666667Y-132452381D01*
X177761905Y-132452381D01*
X177904762Y-132500000D01*
X177952381Y-132547619D01*
X178380952Y-133452381D02*
X178380952Y-132452381D01*
X178809524Y-133452381D02*
X178809524Y-132928571D01*
X178761905Y-132833333D01*
X178666667Y-132785714D01*
X178523809Y-132785714D01*
X178428571Y-132833333D01*
X178380952Y-132880952D01*
X179714286Y-133452381D02*
X179714286Y-132928571D01*
X179666667Y-132833333D01*
X179571429Y-132785714D01*
X179380952Y-132785714D01*
X179285714Y-132833333D01*
X179714286Y-133404762D02*
X179619048Y-133452381D01*
X179380952Y-133452381D01*
X179285714Y-133404762D01*
X179238095Y-133309524D01*
X179238095Y-133214286D01*
X179285714Y-133119048D01*
X179380952Y-133071429D01*
X179619048Y-133071429D01*
X179714286Y-133023810D01*
X180142857Y-133404762D02*
X180238095Y-133452381D01*
X180428571Y-133452381D01*
X180523810Y-133404762D01*
X180571429Y-133309524D01*
X180571429Y-133261905D01*
X180523810Y-133166667D01*
X180428571Y-133119048D01*
X180285714Y-133119048D01*
X180190476Y-133071429D01*
X180142857Y-132976190D01*
X180142857Y-132928571D01*
X180190476Y-132833333D01*
X180285714Y-132785714D01*
X180428571Y-132785714D01*
X180523810Y-132833333D01*
X180952381Y-133404762D02*
X181047619Y-133452381D01*
X181238095Y-133452381D01*
X181333334Y-133404762D01*
X181380953Y-133309524D01*
X181380953Y-133261905D01*
X181333334Y-133166667D01*
X181238095Y-133119048D01*
X181095238Y-133119048D01*
X181000000Y-133071429D01*
X180952381Y-132976190D01*
X180952381Y-132928571D01*
X181000000Y-132833333D01*
X181095238Y-132785714D01*
X181238095Y-132785714D01*
X181333334Y-132833333D01*
X181809524Y-133452381D02*
X181809524Y-132785714D01*
X181809524Y-132452381D02*
X181761905Y-132500000D01*
X181809524Y-132547619D01*
X181857143Y-132500000D01*
X181809524Y-132452381D01*
X181809524Y-132547619D01*
X182238095Y-133404762D02*
X182333333Y-133452381D01*
X182523809Y-133452381D01*
X182619048Y-133404762D01*
X182666667Y-133309524D01*
X182666667Y-133261905D01*
X182619048Y-133166667D01*
X182523809Y-133119048D01*
X182380952Y-133119048D01*
X182285714Y-133071429D01*
X182238095Y-132976190D01*
X182238095Y-132928571D01*
X182285714Y-132833333D01*
X182380952Y-132785714D01*
X182523809Y-132785714D01*
X182619048Y-132833333D01*
X195142857Y-71952381D02*
X194809523Y-71476190D01*
X194571428Y-71952381D02*
X194571428Y-70952381D01*
X194952381Y-70952381D01*
X195047619Y-71000000D01*
X195095238Y-71047619D01*
X195142857Y-71142857D01*
X195142857Y-71285714D01*
X195095238Y-71380952D01*
X195047619Y-71428571D01*
X194952381Y-71476190D01*
X194571428Y-71476190D01*
X195333333Y-72047619D02*
X196095238Y-72047619D01*
X196190476Y-71285714D02*
X196571428Y-71285714D01*
X196333333Y-71952381D02*
X196333333Y-71095238D01*
X196380952Y-71000000D01*
X196476190Y-70952381D01*
X196571428Y-70952381D01*
X178642857Y-96857143D02*
X178595238Y-96904762D01*
X178452381Y-96952381D01*
X178357143Y-96952381D01*
X178214285Y-96904762D01*
X178119047Y-96809524D01*
X178071428Y-96714286D01*
X178023809Y-96523810D01*
X178023809Y-96380952D01*
X178071428Y-96190476D01*
X178119047Y-96095238D01*
X178214285Y-96000000D01*
X178357143Y-95952381D01*
X178452381Y-95952381D01*
X178595238Y-96000000D01*
X178642857Y-96047619D01*
X178833333Y-97047619D02*
X179595238Y-97047619D01*
X179690476Y-96285714D02*
X180071428Y-96285714D01*
X179833333Y-96952381D02*
X179833333Y-96095238D01*
X179880952Y-96000000D01*
X179976190Y-95952381D01*
X180071428Y-95952381D01*
X203999999Y-76952381D02*
X204333332Y-77952381D01*
X204666666Y-76952381D01*
X205571428Y-77952381D02*
X205238094Y-77476190D01*
X204999999Y-77952381D02*
X204999999Y-76952381D01*
X205380952Y-76952381D01*
X205476190Y-77000000D01*
X205523809Y-77047619D01*
X205571428Y-77142857D01*
X205571428Y-77285714D01*
X205523809Y-77380952D01*
X205476190Y-77428571D01*
X205380952Y-77476190D01*
X204999999Y-77476190D01*
X205761904Y-78047619D02*
X206523809Y-78047619D01*
X206761904Y-77952381D02*
X206761904Y-77285714D01*
X206761904Y-76952381D02*
X206714285Y-77000000D01*
X206761904Y-77047619D01*
X206809523Y-77000000D01*
X206761904Y-76952381D01*
X206761904Y-77047619D01*
X207238094Y-77285714D02*
X207238094Y-77952381D01*
X207238094Y-77380952D02*
X207285713Y-77333333D01*
X207380951Y-77285714D01*
X207523809Y-77285714D01*
X207619047Y-77333333D01*
X207666666Y-77428571D01*
X207666666Y-77952381D01*
X208142856Y-77285714D02*
X208142856Y-78285714D01*
X208142856Y-77333333D02*
X208238094Y-77285714D01*
X208428571Y-77285714D01*
X208523809Y-77333333D01*
X208571428Y-77380952D01*
X208619047Y-77476190D01*
X208619047Y-77761905D01*
X208571428Y-77857143D01*
X208523809Y-77904762D01*
X208428571Y-77952381D01*
X208238094Y-77952381D01*
X208142856Y-77904762D01*
X208809523Y-78047619D02*
X209571428Y-78047619D01*
X209952380Y-77952381D02*
X209857142Y-77904762D01*
X209809523Y-77809524D01*
X209809523Y-76952381D01*
X210714286Y-77904762D02*
X210619048Y-77952381D01*
X210428571Y-77952381D01*
X210333333Y-77904762D01*
X210285714Y-77809524D01*
X210285714Y-77428571D01*
X210333333Y-77333333D01*
X210428571Y-77285714D01*
X210619048Y-77285714D01*
X210714286Y-77333333D01*
X210761905Y-77428571D01*
X210761905Y-77523810D01*
X210285714Y-77619048D01*
X211095238Y-77285714D02*
X211333333Y-77952381D01*
X211571429Y-77285714D01*
X212333334Y-77904762D02*
X212238096Y-77952381D01*
X212047619Y-77952381D01*
X211952381Y-77904762D01*
X211904762Y-77809524D01*
X211904762Y-77428571D01*
X211952381Y-77333333D01*
X212047619Y-77285714D01*
X212238096Y-77285714D01*
X212333334Y-77333333D01*
X212380953Y-77428571D01*
X212380953Y-77523810D01*
X211904762Y-77619048D01*
X212952381Y-77952381D02*
X212857143Y-77904762D01*
X212809524Y-77809524D01*
X212809524Y-76952381D01*
X212357143Y-125000000D02*
X212404762Y-125047619D01*
X212452381Y-125190476D01*
X212452381Y-125285714D01*
X212404762Y-125428572D01*
X212309524Y-125523810D01*
X212214286Y-125571429D01*
X212023810Y-125619048D01*
X211880952Y-125619048D01*
X211690476Y-125571429D01*
X211595238Y-125523810D01*
X211500000Y-125428572D01*
X211452381Y-125285714D01*
X211452381Y-125190476D01*
X211500000Y-125047619D01*
X211547619Y-125000000D01*
X212547619Y-124809524D02*
X212547619Y-124047619D01*
X212452381Y-123666667D02*
X212404762Y-123761905D01*
X212357143Y-123809524D01*
X212261905Y-123857143D01*
X211976190Y-123857143D01*
X211880952Y-123809524D01*
X211833333Y-123761905D01*
X211785714Y-123666667D01*
X211785714Y-123523809D01*
X211833333Y-123428571D01*
X211880952Y-123380952D01*
X211976190Y-123333333D01*
X212261905Y-123333333D01*
X212357143Y-123380952D01*
X212404762Y-123428571D01*
X212452381Y-123523809D01*
X212452381Y-123666667D01*
X211547619Y-122952381D02*
X211500000Y-122904762D01*
X211452381Y-122809524D01*
X211452381Y-122571428D01*
X211500000Y-122476190D01*
X211547619Y-122428571D01*
X211642857Y-122380952D01*
X211738095Y-122380952D01*
X211880952Y-122428571D01*
X212452381Y-123000000D01*
X212452381Y-122380952D01*
X200452381Y-125452381D02*
X199976190Y-125785715D01*
X200452381Y-126023810D02*
X199452381Y-126023810D01*
X199452381Y-125642857D01*
X199500000Y-125547619D01*
X199547619Y-125500000D01*
X199642857Y-125452381D01*
X199785714Y-125452381D01*
X199880952Y-125500000D01*
X199928571Y-125547619D01*
X199976190Y-125642857D01*
X199976190Y-126023810D01*
X200547619Y-125261905D02*
X200547619Y-124500000D01*
X200452381Y-124261905D02*
X199452381Y-124261905D01*
X200071429Y-124166667D02*
X200452381Y-123880952D01*
X199785714Y-123880952D02*
X200166667Y-124261905D01*
X199547619Y-123500000D02*
X199500000Y-123452381D01*
X199452381Y-123357143D01*
X199452381Y-123119047D01*
X199500000Y-123023809D01*
X199547619Y-122976190D01*
X199642857Y-122928571D01*
X199738095Y-122928571D01*
X199880952Y-122976190D01*
X200452381Y-123547619D01*
X200452381Y-122928571D01*
X212904762Y-97357143D02*
X212857143Y-97404762D01*
X212714286Y-97452381D01*
X212619048Y-97452381D01*
X212476190Y-97404762D01*
X212380952Y-97309524D01*
X212333333Y-97214286D01*
X212285714Y-97023810D01*
X212285714Y-96880952D01*
X212333333Y-96690476D01*
X212380952Y-96595238D01*
X212476190Y-96500000D01*
X212619048Y-96452381D01*
X212714286Y-96452381D01*
X212857143Y-96500000D01*
X212904762Y-96547619D01*
X213095238Y-97547619D02*
X213857143Y-97547619D01*
X214095238Y-97452381D02*
X214095238Y-96452381D01*
X214190476Y-97071429D02*
X214476191Y-97452381D01*
X214476191Y-96785714D02*
X214095238Y-97166667D01*
X214666667Y-97547619D02*
X215428572Y-97547619D01*
X215619048Y-97404762D02*
X215714286Y-97452381D01*
X215904762Y-97452381D01*
X216000001Y-97404762D01*
X216047620Y-97309524D01*
X216047620Y-97261905D01*
X216000001Y-97166667D01*
X215904762Y-97119048D01*
X215761905Y-97119048D01*
X215666667Y-97071429D01*
X215619048Y-96976190D01*
X215619048Y-96928571D01*
X215666667Y-96833333D01*
X215761905Y-96785714D01*
X215904762Y-96785714D01*
X216000001Y-96833333D01*
X216857144Y-97404762D02*
X216761906Y-97452381D01*
X216571429Y-97452381D01*
X216476191Y-97404762D01*
X216428572Y-97309524D01*
X216428572Y-96928571D01*
X216476191Y-96833333D01*
X216571429Y-96785714D01*
X216761906Y-96785714D01*
X216857144Y-96833333D01*
X216904763Y-96928571D01*
X216904763Y-97023810D01*
X216428572Y-97119048D01*
X217333334Y-96785714D02*
X217333334Y-97452381D01*
X217333334Y-96880952D02*
X217380953Y-96833333D01*
X217476191Y-96785714D01*
X217619049Y-96785714D01*
X217714287Y-96833333D01*
X217761906Y-96928571D01*
X217761906Y-97452381D01*
X218666668Y-97452381D02*
X218666668Y-96452381D01*
X218666668Y-97404762D02*
X218571430Y-97452381D01*
X218380953Y-97452381D01*
X218285715Y-97404762D01*
X218238096Y-97357143D01*
X218190477Y-97261905D01*
X218190477Y-96976190D01*
X218238096Y-96880952D01*
X218285715Y-96833333D01*
X218380953Y-96785714D01*
X218571430Y-96785714D01*
X218666668Y-96833333D01*
X187047619Y-116857143D02*
X187000000Y-116904762D01*
X186857143Y-116952381D01*
X186761905Y-116952381D01*
X186619047Y-116904762D01*
X186523809Y-116809524D01*
X186476190Y-116714286D01*
X186428571Y-116523810D01*
X186428571Y-116380952D01*
X186476190Y-116190476D01*
X186523809Y-116095238D01*
X186619047Y-116000000D01*
X186761905Y-115952381D01*
X186857143Y-115952381D01*
X187000000Y-116000000D01*
X187047619Y-116047619D01*
X187238095Y-117047619D02*
X188000000Y-117047619D01*
X188238095Y-116952381D02*
X188238095Y-115952381D01*
X188333333Y-116571429D02*
X188619048Y-116952381D01*
X188619048Y-116285714D02*
X188238095Y-116666667D01*
X189000000Y-116047619D02*
X189047619Y-116000000D01*
X189142857Y-115952381D01*
X189380953Y-115952381D01*
X189476191Y-116000000D01*
X189523810Y-116047619D01*
X189571429Y-116142857D01*
X189571429Y-116238095D01*
X189523810Y-116380952D01*
X188952381Y-116952381D01*
X189571429Y-116952381D01*
X204452381Y-125500000D02*
X203976190Y-125833334D01*
X204452381Y-126071429D02*
X203452381Y-126071429D01*
X203452381Y-125690476D01*
X203500000Y-125595238D01*
X203547619Y-125547619D01*
X203642857Y-125500000D01*
X203785714Y-125500000D01*
X203880952Y-125547619D01*
X203928571Y-125595238D01*
X203976190Y-125690476D01*
X203976190Y-126071429D01*
X204547619Y-125309524D02*
X204547619Y-124547619D01*
X203785714Y-123880952D02*
X204595238Y-123880952D01*
X204690476Y-123928571D01*
X204738095Y-123976190D01*
X204785714Y-124071429D01*
X204785714Y-124214286D01*
X204738095Y-124309524D01*
X204404762Y-123880952D02*
X204452381Y-123976190D01*
X204452381Y-124166667D01*
X204404762Y-124261905D01*
X204357143Y-124309524D01*
X204261905Y-124357143D01*
X203976190Y-124357143D01*
X203880952Y-124309524D01*
X203833333Y-124261905D01*
X203785714Y-124166667D01*
X203785714Y-123976190D01*
X203833333Y-123880952D01*
X203547619Y-123452381D02*
X203500000Y-123404762D01*
X203452381Y-123309524D01*
X203452381Y-123071428D01*
X203500000Y-122976190D01*
X203547619Y-122928571D01*
X203642857Y-122880952D01*
X203738095Y-122880952D01*
X203880952Y-122928571D01*
X204452381Y-123500000D01*
X204452381Y-122880952D01*
X202952381Y-86500000D02*
X202476190Y-86833334D01*
X202952381Y-87071429D02*
X201952381Y-87071429D01*
X201952381Y-86690476D01*
X202000000Y-86595238D01*
X202047619Y-86547619D01*
X202142857Y-86500000D01*
X202285714Y-86500000D01*
X202380952Y-86547619D01*
X202428571Y-86595238D01*
X202476190Y-86690476D01*
X202476190Y-87071429D01*
X203047619Y-86309524D02*
X203047619Y-85547619D01*
X202285714Y-84880952D02*
X203095238Y-84880952D01*
X203190476Y-84928571D01*
X203238095Y-84976190D01*
X203285714Y-85071429D01*
X203285714Y-85214286D01*
X203238095Y-85309524D01*
X202904762Y-84880952D02*
X202952381Y-84976190D01*
X202952381Y-85166667D01*
X202904762Y-85261905D01*
X202857143Y-85309524D01*
X202761905Y-85357143D01*
X202476190Y-85357143D01*
X202380952Y-85309524D01*
X202333333Y-85261905D01*
X202285714Y-85166667D01*
X202285714Y-84976190D01*
X202333333Y-84880952D01*
X202952381Y-83880952D02*
X202952381Y-84452381D01*
X202952381Y-84166667D02*
X201952381Y-84166667D01*
X202095238Y-84261905D01*
X202190476Y-84357143D01*
X202238095Y-84452381D01*
X222904761Y-99952381D02*
X222904761Y-98952381D01*
X222904761Y-99428571D02*
X223476190Y-99428571D01*
X223476190Y-99952381D02*
X223476190Y-98952381D01*
X224333333Y-99904762D02*
X224238095Y-99952381D01*
X224047618Y-99952381D01*
X223952380Y-99904762D01*
X223904761Y-99809524D01*
X223904761Y-99428571D01*
X223952380Y-99333333D01*
X224047618Y-99285714D01*
X224238095Y-99285714D01*
X224333333Y-99333333D01*
X224380952Y-99428571D01*
X224380952Y-99523810D01*
X223904761Y-99619048D01*
X225238095Y-99952381D02*
X225238095Y-99428571D01*
X225190476Y-99333333D01*
X225095238Y-99285714D01*
X224904761Y-99285714D01*
X224809523Y-99333333D01*
X225238095Y-99904762D02*
X225142857Y-99952381D01*
X224904761Y-99952381D01*
X224809523Y-99904762D01*
X224761904Y-99809524D01*
X224761904Y-99714286D01*
X224809523Y-99619048D01*
X224904761Y-99571429D01*
X225142857Y-99571429D01*
X225238095Y-99523810D01*
X225571428Y-99285714D02*
X225952380Y-99285714D01*
X225714285Y-98952381D02*
X225714285Y-99809524D01*
X225761904Y-99904762D01*
X225857142Y-99952381D01*
X225952380Y-99952381D01*
X226666667Y-99904762D02*
X226571429Y-99952381D01*
X226380952Y-99952381D01*
X226285714Y-99904762D01*
X226238095Y-99809524D01*
X226238095Y-99428571D01*
X226285714Y-99333333D01*
X226380952Y-99285714D01*
X226571429Y-99285714D01*
X226666667Y-99333333D01*
X226714286Y-99428571D01*
X226714286Y-99523810D01*
X226238095Y-99619048D01*
X227142857Y-99952381D02*
X227142857Y-99285714D01*
X227142857Y-99476190D02*
X227190476Y-99380952D01*
X227238095Y-99333333D01*
X227333333Y-99285714D01*
X227428572Y-99285714D01*
X227714286Y-99904762D02*
X227809524Y-99952381D01*
X228000000Y-99952381D01*
X228095239Y-99904762D01*
X228142858Y-99809524D01*
X228142858Y-99761905D01*
X228095239Y-99666667D01*
X228000000Y-99619048D01*
X227857143Y-99619048D01*
X227761905Y-99571429D01*
X227714286Y-99476190D01*
X227714286Y-99428571D01*
X227761905Y-99333333D01*
X227857143Y-99285714D01*
X228000000Y-99285714D01*
X228095239Y-99333333D01*
X176904761Y-99952381D02*
X176904761Y-98952381D01*
X176904761Y-99428571D02*
X177476190Y-99428571D01*
X177476190Y-99952381D02*
X177476190Y-98952381D01*
X178333333Y-99904762D02*
X178238095Y-99952381D01*
X178047618Y-99952381D01*
X177952380Y-99904762D01*
X177904761Y-99809524D01*
X177904761Y-99428571D01*
X177952380Y-99333333D01*
X178047618Y-99285714D01*
X178238095Y-99285714D01*
X178333333Y-99333333D01*
X178380952Y-99428571D01*
X178380952Y-99523810D01*
X177904761Y-99619048D01*
X179238095Y-99952381D02*
X179238095Y-99428571D01*
X179190476Y-99333333D01*
X179095238Y-99285714D01*
X178904761Y-99285714D01*
X178809523Y-99333333D01*
X179238095Y-99904762D02*
X179142857Y-99952381D01*
X178904761Y-99952381D01*
X178809523Y-99904762D01*
X178761904Y-99809524D01*
X178761904Y-99714286D01*
X178809523Y-99619048D01*
X178904761Y-99571429D01*
X179142857Y-99571429D01*
X179238095Y-99523810D01*
X179571428Y-99285714D02*
X179952380Y-99285714D01*
X179714285Y-98952381D02*
X179714285Y-99809524D01*
X179761904Y-99904762D01*
X179857142Y-99952381D01*
X179952380Y-99952381D01*
X180666667Y-99904762D02*
X180571429Y-99952381D01*
X180380952Y-99952381D01*
X180285714Y-99904762D01*
X180238095Y-99809524D01*
X180238095Y-99428571D01*
X180285714Y-99333333D01*
X180380952Y-99285714D01*
X180571429Y-99285714D01*
X180666667Y-99333333D01*
X180714286Y-99428571D01*
X180714286Y-99523810D01*
X180238095Y-99619048D01*
X181142857Y-99952381D02*
X181142857Y-99285714D01*
X181142857Y-99476190D02*
X181190476Y-99380952D01*
X181238095Y-99333333D01*
X181333333Y-99285714D01*
X181428572Y-99285714D01*
X181714286Y-99904762D02*
X181809524Y-99952381D01*
X182000000Y-99952381D01*
X182095239Y-99904762D01*
X182142858Y-99809524D01*
X182142858Y-99761905D01*
X182095239Y-99666667D01*
X182000000Y-99619048D01*
X181857143Y-99619048D01*
X181761905Y-99571429D01*
X181714286Y-99476190D01*
X181714286Y-99428571D01*
X181761905Y-99333333D01*
X181857143Y-99285714D01*
X182000000Y-99285714D01*
X182095239Y-99333333D01*
X202642857Y-69452381D02*
X202642857Y-68452381D01*
X202642857Y-68928571D02*
X203214286Y-68928571D01*
X203214286Y-69452381D02*
X203214286Y-68452381D01*
X203547619Y-68452381D02*
X204119048Y-68452381D01*
X203833333Y-69452381D02*
X203833333Y-68452381D01*
X204595238Y-69452381D02*
X204500000Y-69404762D01*
X204452381Y-69357143D01*
X204404762Y-69261905D01*
X204404762Y-68976190D01*
X204452381Y-68880952D01*
X204500000Y-68833333D01*
X204595238Y-68785714D01*
X204738096Y-68785714D01*
X204833334Y-68833333D01*
X204880953Y-68880952D01*
X204928572Y-68976190D01*
X204928572Y-69261905D01*
X204880953Y-69357143D01*
X204833334Y-69404762D01*
X204738096Y-69452381D01*
X204595238Y-69452381D01*
X205785715Y-68785714D02*
X205785715Y-69452381D01*
X205357143Y-68785714D02*
X205357143Y-69309524D01*
X205404762Y-69404762D01*
X205500000Y-69452381D01*
X205642858Y-69452381D01*
X205738096Y-69404762D01*
X205785715Y-69357143D01*
X206119048Y-68785714D02*
X206500000Y-68785714D01*
X206261905Y-68452381D02*
X206261905Y-69309524D01*
X206309524Y-69404762D01*
X206404762Y-69452381D01*
X206500000Y-69452381D01*
X188238095Y-132666667D02*
X188714286Y-132666667D01*
X188142857Y-132952381D02*
X188476190Y-131952381D01*
X188809524Y-132952381D01*
X189666667Y-132000000D02*
X189571429Y-131952381D01*
X189428572Y-131952381D01*
X189285714Y-132000000D01*
X189190476Y-132095238D01*
X189142857Y-132190476D01*
X189095238Y-132380952D01*
X189095238Y-132523810D01*
X189142857Y-132714286D01*
X189190476Y-132809524D01*
X189285714Y-132904762D01*
X189428572Y-132952381D01*
X189523810Y-132952381D01*
X189666667Y-132904762D01*
X189714286Y-132857143D01*
X189714286Y-132523810D01*
X189523810Y-132523810D01*
X190142857Y-132952381D02*
X190142857Y-131952381D01*
X190714286Y-132952381D01*
X190714286Y-131952381D01*
X191190476Y-132952381D02*
X191190476Y-131952381D01*
X191428571Y-131952381D01*
X191571429Y-132000000D01*
X191666667Y-132095238D01*
X191714286Y-132190476D01*
X191761905Y-132380952D01*
X191761905Y-132523810D01*
X191714286Y-132714286D01*
X191666667Y-132809524D01*
X191571429Y-132904762D01*
X191428571Y-132952381D01*
X191190476Y-132952381D01*
X221904762Y-77214286D02*
X221952381Y-77071429D01*
X221952381Y-76833333D01*
X221904762Y-76738095D01*
X221857143Y-76690476D01*
X221761905Y-76642857D01*
X221666667Y-76642857D01*
X221571429Y-76690476D01*
X221523810Y-76738095D01*
X221476190Y-76833333D01*
X221428571Y-77023810D01*
X221380952Y-77119048D01*
X221333333Y-77166667D01*
X221238095Y-77214286D01*
X221142857Y-77214286D01*
X221047619Y-77166667D01*
X221000000Y-77119048D01*
X220952381Y-77023810D01*
X220952381Y-76785714D01*
X221000000Y-76642857D01*
X221952381Y-76214286D02*
X221285714Y-76214286D01*
X220952381Y-76214286D02*
X221000000Y-76261905D01*
X221047619Y-76214286D01*
X221000000Y-76166667D01*
X220952381Y-76214286D01*
X221047619Y-76214286D01*
X221285714Y-75309524D02*
X222095238Y-75309524D01*
X222190476Y-75357143D01*
X222238095Y-75404762D01*
X222285714Y-75500001D01*
X222285714Y-75642858D01*
X222238095Y-75738096D01*
X221904762Y-75309524D02*
X221952381Y-75404762D01*
X221952381Y-75595239D01*
X221904762Y-75690477D01*
X221857143Y-75738096D01*
X221761905Y-75785715D01*
X221476190Y-75785715D01*
X221380952Y-75738096D01*
X221333333Y-75690477D01*
X221285714Y-75595239D01*
X221285714Y-75404762D01*
X221333333Y-75309524D01*
X221285714Y-74833334D02*
X221952381Y-74833334D01*
X221380952Y-74833334D02*
X221333333Y-74785715D01*
X221285714Y-74690477D01*
X221285714Y-74547619D01*
X221333333Y-74452381D01*
X221428571Y-74404762D01*
X221952381Y-74404762D01*
X221952381Y-73500000D02*
X221428571Y-73500000D01*
X221333333Y-73547619D01*
X221285714Y-73642857D01*
X221285714Y-73833334D01*
X221333333Y-73928572D01*
X221904762Y-73500000D02*
X221952381Y-73595238D01*
X221952381Y-73833334D01*
X221904762Y-73928572D01*
X221809524Y-73976191D01*
X221714286Y-73976191D01*
X221619048Y-73928572D01*
X221571429Y-73833334D01*
X221571429Y-73595238D01*
X221523810Y-73500000D01*
X221952381Y-72880953D02*
X221904762Y-72976191D01*
X221809524Y-73023810D01*
X220952381Y-73023810D01*
X222047619Y-72738095D02*
X222047619Y-71976190D01*
X221952381Y-71738095D02*
X220952381Y-71738095D01*
X221285714Y-71261905D02*
X221952381Y-71261905D01*
X221380952Y-71261905D02*
X221333333Y-71214286D01*
X221285714Y-71119048D01*
X221285714Y-70976190D01*
X221333333Y-70880952D01*
X221428571Y-70833333D01*
X221952381Y-70833333D01*
X199738096Y-141000000D02*
X199642858Y-140952381D01*
X199500001Y-140952381D01*
X199357143Y-141000000D01*
X199261905Y-141095238D01*
X199214286Y-141190476D01*
X199166667Y-141380952D01*
X199166667Y-141523810D01*
X199214286Y-141714286D01*
X199261905Y-141809524D01*
X199357143Y-141904762D01*
X199500001Y-141952381D01*
X199595239Y-141952381D01*
X199738096Y-141904762D01*
X199785715Y-141857143D01*
X199785715Y-141523810D01*
X199595239Y-141523810D01*
X200214286Y-141952381D02*
X200214286Y-140952381D01*
X200785715Y-141952381D01*
X200785715Y-140952381D01*
X201261905Y-141952381D02*
X201261905Y-140952381D01*
X201500000Y-140952381D01*
X201642858Y-141000000D01*
X201738096Y-141095238D01*
X201785715Y-141190476D01*
X201833334Y-141380952D01*
X201833334Y-141523810D01*
X201785715Y-141714286D01*
X201738096Y-141809524D01*
X201642858Y-141904762D01*
X201500000Y-141952381D01*
X201261905Y-141952381D01*
D12*
X204842857Y-111517856D02*
X204842857Y-111934523D01*
X205628571Y-111934523D02*
X204128571Y-111934523D01*
X204128571Y-111339285D01*
X204128571Y-110982142D02*
X205628571Y-110148808D01*
X204128571Y-110148808D02*
X205628571Y-110982142D01*
X205628571Y-108124999D02*
X205628571Y-108720237D01*
X204128571Y-108720237D01*
X205628571Y-107529761D02*
X205557143Y-107648808D01*
X205485714Y-107708332D01*
X205342857Y-107767856D01*
X204914286Y-107767856D01*
X204771429Y-107708332D01*
X204700000Y-107648808D01*
X204628571Y-107529761D01*
X204628571Y-107351189D01*
X204700000Y-107232141D01*
X204771429Y-107172618D01*
X204914286Y-107113094D01*
X205342857Y-107113094D01*
X205485714Y-107172618D01*
X205557143Y-107232141D01*
X205628571Y-107351189D01*
X205628571Y-107529761D01*
X205628571Y-106398809D02*
X205557143Y-106517856D01*
X205485714Y-106577380D01*
X205342857Y-106636904D01*
X204914286Y-106636904D01*
X204771429Y-106577380D01*
X204700000Y-106517856D01*
X204628571Y-106398809D01*
X204628571Y-106220237D01*
X204700000Y-106101189D01*
X204771429Y-106041666D01*
X204914286Y-105982142D01*
X205342857Y-105982142D01*
X205485714Y-106041666D01*
X205557143Y-106101189D01*
X205628571Y-106220237D01*
X205628571Y-106398809D01*
X204628571Y-105446428D02*
X206128571Y-105446428D01*
X204700000Y-105446428D02*
X204628571Y-105327380D01*
X204628571Y-105089285D01*
X204700000Y-104970237D01*
X204771429Y-104910714D01*
X204914286Y-104851190D01*
X205342857Y-104851190D01*
X205485714Y-104910714D01*
X205557143Y-104970237D01*
X205628571Y-105089285D01*
X205628571Y-105327380D01*
X205557143Y-105446428D01*
X205628571Y-103363095D02*
X204128571Y-103363095D01*
X204128571Y-102886904D01*
X204200000Y-102767857D01*
X204271429Y-102708333D01*
X204414286Y-102648809D01*
X204628571Y-102648809D01*
X204771429Y-102708333D01*
X204842857Y-102767857D01*
X204914286Y-102886904D01*
X204914286Y-103363095D01*
X205485714Y-101398809D02*
X205557143Y-101458333D01*
X205628571Y-101636904D01*
X205628571Y-101755952D01*
X205557143Y-101934524D01*
X205414286Y-102053571D01*
X205271429Y-102113095D01*
X204985714Y-102172619D01*
X204771429Y-102172619D01*
X204485714Y-102113095D01*
X204342857Y-102053571D01*
X204200000Y-101934524D01*
X204128571Y-101755952D01*
X204128571Y-101636904D01*
X204200000Y-101458333D01*
X204271429Y-101398809D01*
X204842857Y-100446428D02*
X204914286Y-100267857D01*
X204985714Y-100208333D01*
X205128571Y-100148809D01*
X205342857Y-100148809D01*
X205485714Y-100208333D01*
X205557143Y-100267857D01*
X205628571Y-100386904D01*
X205628571Y-100863095D01*
X204128571Y-100863095D01*
X204128571Y-100446428D01*
X204200000Y-100327381D01*
X204271429Y-100267857D01*
X204414286Y-100208333D01*
X204557143Y-100208333D01*
X204700000Y-100267857D01*
X204771429Y-100327381D01*
X204842857Y-100446428D01*
X204842857Y-100863095D01*
X204628571Y-99732143D02*
X205628571Y-99434524D01*
X204628571Y-99136904D01*
X205628571Y-98005952D02*
X205628571Y-98720238D01*
X205628571Y-98363095D02*
X204128571Y-98363095D01*
X204342857Y-98482143D01*
X204485714Y-98601190D01*
X204557143Y-98720238D01*
X206678571Y-111726190D02*
X206678571Y-111011905D01*
X208178571Y-111369048D02*
X206678571Y-111369048D01*
X208178571Y-110595238D02*
X207178571Y-110595238D01*
X207464286Y-110595238D02*
X207321429Y-110535714D01*
X207250000Y-110476190D01*
X207178571Y-110357143D01*
X207178571Y-110238095D01*
X208178571Y-109821428D02*
X207178571Y-109821428D01*
X206678571Y-109821428D02*
X206750000Y-109880952D01*
X206821429Y-109821428D01*
X206750000Y-109761904D01*
X206678571Y-109821428D01*
X206821429Y-109821428D01*
X208107143Y-109285714D02*
X208178571Y-109166666D01*
X208178571Y-108928571D01*
X208107143Y-108809523D01*
X207964286Y-108749999D01*
X207892857Y-108749999D01*
X207750000Y-108809523D01*
X207678571Y-108928571D01*
X207678571Y-109107142D01*
X207607143Y-109226190D01*
X207464286Y-109285714D01*
X207392857Y-109285714D01*
X207250000Y-109226190D01*
X207178571Y-109107142D01*
X207178571Y-108928571D01*
X207250000Y-108809523D01*
X207178571Y-108392856D02*
X207178571Y-107916666D01*
X206678571Y-108214285D02*
X207964286Y-108214285D01*
X208107143Y-108154761D01*
X208178571Y-108035714D01*
X208178571Y-107916666D01*
X208178571Y-106964285D02*
X207392857Y-106964285D01*
X207250000Y-107023808D01*
X207178571Y-107142856D01*
X207178571Y-107380951D01*
X207250000Y-107499999D01*
X208107143Y-106964285D02*
X208178571Y-107083332D01*
X208178571Y-107380951D01*
X208107143Y-107499999D01*
X207964286Y-107559523D01*
X207821429Y-107559523D01*
X207678571Y-107499999D01*
X207607143Y-107380951D01*
X207607143Y-107083332D01*
X207535714Y-106964285D01*
X207178571Y-106369047D02*
X208178571Y-106369047D01*
X207321429Y-106369047D02*
X207250000Y-106309523D01*
X207178571Y-106190476D01*
X207178571Y-106011904D01*
X207250000Y-105892856D01*
X207392857Y-105833333D01*
X208178571Y-105833333D01*
X208035714Y-103571428D02*
X208107143Y-103630952D01*
X208178571Y-103809523D01*
X208178571Y-103928571D01*
X208107143Y-104107143D01*
X207964286Y-104226190D01*
X207821429Y-104285714D01*
X207535714Y-104345238D01*
X207321429Y-104345238D01*
X207035714Y-104285714D01*
X206892857Y-104226190D01*
X206750000Y-104107143D01*
X206678571Y-103928571D01*
X206678571Y-103809523D01*
X206750000Y-103630952D01*
X206821429Y-103571428D01*
X208178571Y-102857143D02*
X208107143Y-102976190D01*
X208035714Y-103035714D01*
X207892857Y-103095238D01*
X207464286Y-103095238D01*
X207321429Y-103035714D01*
X207250000Y-102976190D01*
X207178571Y-102857143D01*
X207178571Y-102678571D01*
X207250000Y-102559523D01*
X207321429Y-102500000D01*
X207464286Y-102440476D01*
X207892857Y-102440476D01*
X208035714Y-102500000D01*
X208107143Y-102559523D01*
X208178571Y-102678571D01*
X208178571Y-102857143D01*
X208178571Y-101726191D02*
X208107143Y-101845238D01*
X207964286Y-101904762D01*
X206678571Y-101904762D01*
X208178571Y-101071429D02*
X208107143Y-101190476D01*
X207964286Y-101250000D01*
X206678571Y-101250000D01*
X208178571Y-100595238D02*
X207178571Y-100595238D01*
X206678571Y-100595238D02*
X206750000Y-100654762D01*
X206821429Y-100595238D01*
X206750000Y-100535714D01*
X206678571Y-100595238D01*
X206821429Y-100595238D01*
X207178571Y-100000000D02*
X208178571Y-100000000D01*
X207321429Y-100000000D02*
X207250000Y-99940476D01*
X207178571Y-99821429D01*
X207178571Y-99642857D01*
X207250000Y-99523809D01*
X207392857Y-99464286D01*
X208178571Y-99464286D01*
X208107143Y-98928572D02*
X208178571Y-98809524D01*
X208178571Y-98571429D01*
X208107143Y-98452381D01*
X207964286Y-98392857D01*
X207892857Y-98392857D01*
X207750000Y-98452381D01*
X207678571Y-98571429D01*
X207678571Y-98750000D01*
X207607143Y-98869048D01*
X207464286Y-98928572D01*
X207392857Y-98928572D01*
X207250000Y-98869048D01*
X207178571Y-98750000D01*
X207178571Y-98571429D01*
X207250000Y-98452381D01*
X209228571Y-109047618D02*
X210300000Y-109047618D01*
X210514286Y-109107142D01*
X210657143Y-109226190D01*
X210728571Y-109404761D01*
X210728571Y-109523809D01*
X209728571Y-107916666D02*
X210728571Y-107916666D01*
X209728571Y-108452380D02*
X210514286Y-108452380D01*
X210657143Y-108392856D01*
X210728571Y-108273809D01*
X210728571Y-108095237D01*
X210657143Y-107976189D01*
X210585714Y-107916666D01*
X210728571Y-107142857D02*
X210657143Y-107261904D01*
X210514286Y-107321428D01*
X209228571Y-107321428D01*
X209728571Y-106785714D02*
X210728571Y-106488095D01*
X209728571Y-106190475D02*
X210728571Y-106488095D01*
X211085714Y-106607142D01*
X211157143Y-106666666D01*
X211228571Y-106785714D01*
X209371429Y-104821428D02*
X209300000Y-104761904D01*
X209228571Y-104642856D01*
X209228571Y-104345237D01*
X209300000Y-104226190D01*
X209371429Y-104166666D01*
X209514286Y-104107142D01*
X209657143Y-104107142D01*
X209871429Y-104166666D01*
X210728571Y-104880952D01*
X210728571Y-104107142D01*
X209228571Y-103333333D02*
X209228571Y-103214285D01*
X209300000Y-103095237D01*
X209371429Y-103035714D01*
X209514286Y-102976190D01*
X209800000Y-102916666D01*
X210157143Y-102916666D01*
X210442857Y-102976190D01*
X210585714Y-103035714D01*
X210657143Y-103095237D01*
X210728571Y-103214285D01*
X210728571Y-103333333D01*
X210657143Y-103452380D01*
X210585714Y-103511904D01*
X210442857Y-103571428D01*
X210157143Y-103630952D01*
X209800000Y-103630952D01*
X209514286Y-103571428D01*
X209371429Y-103511904D01*
X209300000Y-103452380D01*
X209228571Y-103333333D01*
X210728571Y-101726190D02*
X210728571Y-102440476D01*
X210728571Y-102083333D02*
X209228571Y-102083333D01*
X209442857Y-102202381D01*
X209585714Y-102321428D01*
X209657143Y-102440476D01*
X209228571Y-101309524D02*
X209228571Y-100476190D01*
X210728571Y-101011905D01*
D13*
X195550000Y-88750000D02*
X177450000Y-88750000D01*
X195550000Y-88790000D02*
X177450000Y-88790000D01*
X195550000Y-88830000D02*
X177450000Y-88830000D01*
X195550000Y-88870000D02*
X177450000Y-88870000D01*
X195549000Y-88910000D02*
X177451000Y-88910000D01*
X195548000Y-88950000D02*
X177452000Y-88950000D01*
X195547000Y-88990000D02*
X177453000Y-88990000D01*
X195546000Y-89030000D02*
X177454000Y-89030000D01*
X195545000Y-89070000D02*
X177455000Y-89070000D01*
X195543000Y-89110000D02*
X177457000Y-89110000D01*
X195542000Y-89150000D02*
X177458000Y-89150000D01*
X195540000Y-89190000D02*
X177460000Y-89190000D01*
X195538000Y-89230000D02*
X177462000Y-89230000D01*
X195536000Y-89270000D02*
X177464000Y-89270000D01*
X195533000Y-89310000D02*
X177467000Y-89310000D01*
X195531000Y-89350000D02*
X177469000Y-89350000D01*
X195528000Y-89390000D02*
X177472000Y-89390000D01*
X195525000Y-89430000D02*
X177475000Y-89430000D01*
X195522000Y-89471000D02*
X177478000Y-89471000D01*
X195519000Y-89511000D02*
X177481000Y-89511000D01*
X195515000Y-89551000D02*
X177485000Y-89551000D01*
X195512000Y-89591000D02*
X177488000Y-89591000D01*
X195508000Y-89631000D02*
X177492000Y-89631000D01*
X195504000Y-89671000D02*
X177496000Y-89671000D01*
X195500000Y-89711000D02*
X177500000Y-89711000D01*
X195495000Y-89751000D02*
X177505000Y-89751000D01*
X195491000Y-89791000D02*
X177509000Y-89791000D01*
X195486000Y-89831000D02*
X177514000Y-89831000D01*
X195481000Y-89871000D02*
X177519000Y-89871000D01*
X195476000Y-89911000D02*
X177524000Y-89911000D01*
X195471000Y-89951000D02*
X177529000Y-89951000D01*
X195466000Y-89991000D02*
X177534000Y-89991000D01*
X195460000Y-90031000D02*
X177540000Y-90031000D01*
X195454000Y-90071000D02*
X177546000Y-90071000D01*
X195448000Y-90111000D02*
X177552000Y-90111000D01*
X195442000Y-90151000D02*
X177558000Y-90151000D01*
X195436000Y-90191000D02*
X177564000Y-90191000D01*
X195429000Y-90231000D02*
X177571000Y-90231000D01*
X195423000Y-90271000D02*
X177577000Y-90271000D01*
X195416000Y-90311000D02*
X177584000Y-90311000D01*
X195409000Y-90351000D02*
X177591000Y-90351000D01*
X195401000Y-90391000D02*
X177599000Y-90391000D01*
X195394000Y-90431000D02*
X177606000Y-90431000D01*
X195386000Y-90471000D02*
X177614000Y-90471000D01*
X195378000Y-90511000D02*
X177622000Y-90511000D01*
X195370000Y-90551000D02*
X177630000Y-90551000D01*
X195362000Y-90591000D02*
X177638000Y-90591000D01*
X195354000Y-90631000D02*
X177646000Y-90631000D01*
X195345000Y-90671000D02*
X177655000Y-90671000D01*
X195337000Y-90711000D02*
X177663000Y-90711000D01*
X195328000Y-90751000D02*
X177672000Y-90751000D01*
X195319000Y-90791000D02*
X177681000Y-90791000D01*
X195309000Y-90831000D02*
X177691000Y-90831000D01*
X195300000Y-90871000D02*
X177700000Y-90871000D01*
X195290000Y-90911000D02*
X177710000Y-90911000D01*
X195280000Y-90951000D02*
X177720000Y-90951000D01*
X195270000Y-90991000D02*
X177730000Y-90991000D01*
X195260000Y-91031000D02*
X177740000Y-91031000D01*
X195249000Y-91071000D02*
X177751000Y-91071000D01*
X195239000Y-91111000D02*
X177761000Y-91111000D01*
X195228000Y-91151000D02*
X187880000Y-91151000D01*
X185120000Y-91151000D02*
X177772000Y-91151000D01*
X195217000Y-91191000D02*
X187880000Y-91191000D01*
X185120000Y-91191000D02*
X177783000Y-91191000D01*
X195206000Y-91231000D02*
X187880000Y-91231000D01*
X185120000Y-91231000D02*
X177794000Y-91231000D01*
X195194000Y-91271000D02*
X187880000Y-91271000D01*
X185120000Y-91271000D02*
X177806000Y-91271000D01*
X195183000Y-91311000D02*
X187880000Y-91311000D01*
X185120000Y-91311000D02*
X177817000Y-91311000D01*
X195171000Y-91351000D02*
X187880000Y-91351000D01*
X185120000Y-91351000D02*
X177829000Y-91351000D01*
X195159000Y-91391000D02*
X187880000Y-91391000D01*
X185120000Y-91391000D02*
X177841000Y-91391000D01*
X195146000Y-91431000D02*
X187880000Y-91431000D01*
X185120000Y-91431000D02*
X177854000Y-91431000D01*
X195134000Y-91471000D02*
X187880000Y-91471000D01*
X185120000Y-91471000D02*
X177866000Y-91471000D01*
X195121000Y-91511000D02*
X187880000Y-91511000D01*
X185120000Y-91511000D02*
X177879000Y-91511000D01*
X195109000Y-91551000D02*
X187880000Y-91551000D01*
X185120000Y-91551000D02*
X177891000Y-91551000D01*
X195095000Y-91591000D02*
X187880000Y-91591000D01*
X185120000Y-91591000D02*
X177905000Y-91591000D01*
X195082000Y-91631000D02*
X187880000Y-91631000D01*
X185120000Y-91631000D02*
X177918000Y-91631000D01*
X195069000Y-91671000D02*
X187880000Y-91671000D01*
X185120000Y-91671000D02*
X177931000Y-91671000D01*
X195055000Y-91711000D02*
X187880000Y-91711000D01*
X185120000Y-91711000D02*
X177945000Y-91711000D01*
X195041000Y-91751000D02*
X187880000Y-91751000D01*
X185120000Y-91751000D02*
X177959000Y-91751000D01*
X195027000Y-91791000D02*
X187880000Y-91791000D01*
X185120000Y-91791000D02*
X177973000Y-91791000D01*
X195013000Y-91831000D02*
X187880000Y-91831000D01*
X185120000Y-91831000D02*
X177987000Y-91831000D01*
X194998000Y-91871000D02*
X187880000Y-91871000D01*
X185120000Y-91871000D02*
X178002000Y-91871000D01*
X194984000Y-91911000D02*
X187880000Y-91911000D01*
X185120000Y-91911000D02*
X178016000Y-91911000D01*
X194969000Y-91951000D02*
X187880000Y-91951000D01*
X185120000Y-91951000D02*
X178031000Y-91951000D01*
X194953000Y-91991000D02*
X187880000Y-91991000D01*
X185120000Y-91991000D02*
X178047000Y-91991000D01*
X194938000Y-92031000D02*
X187880000Y-92031000D01*
X185120000Y-92031000D02*
X178062000Y-92031000D01*
X194923000Y-92071000D02*
X187880000Y-92071000D01*
X185120000Y-92071000D02*
X178077000Y-92071000D01*
X194907000Y-92111000D02*
X187880000Y-92111000D01*
X185120000Y-92111000D02*
X178093000Y-92111000D01*
X194891000Y-92151000D02*
X187880000Y-92151000D01*
X185120000Y-92151000D02*
X178109000Y-92151000D01*
X194874000Y-92191000D02*
X187880000Y-92191000D01*
X185120000Y-92191000D02*
X178126000Y-92191000D01*
X194858000Y-92231000D02*
X187880000Y-92231000D01*
X185120000Y-92231000D02*
X178142000Y-92231000D01*
X194841000Y-92271000D02*
X187880000Y-92271000D01*
X185120000Y-92271000D02*
X178159000Y-92271000D01*
X194824000Y-92311000D02*
X187880000Y-92311000D01*
X185120000Y-92311000D02*
X178176000Y-92311000D01*
X194807000Y-92351000D02*
X187880000Y-92351000D01*
X185120000Y-92351000D02*
X178193000Y-92351000D01*
X194790000Y-92391000D02*
X187880000Y-92391000D01*
X185120000Y-92391000D02*
X178210000Y-92391000D01*
X194772000Y-92431000D02*
X187880000Y-92431000D01*
X185120000Y-92431000D02*
X178228000Y-92431000D01*
X194754000Y-92471000D02*
X187880000Y-92471000D01*
X185120000Y-92471000D02*
X178246000Y-92471000D01*
X194736000Y-92511000D02*
X187880000Y-92511000D01*
X185120000Y-92511000D02*
X178264000Y-92511000D01*
X194718000Y-92551000D02*
X187880000Y-92551000D01*
X185120000Y-92551000D02*
X178282000Y-92551000D01*
X194700000Y-92591000D02*
X187880000Y-92591000D01*
X185120000Y-92591000D02*
X178300000Y-92591000D01*
X194681000Y-92631000D02*
X187880000Y-92631000D01*
X185120000Y-92631000D02*
X178319000Y-92631000D01*
X194662000Y-92671000D02*
X187880000Y-92671000D01*
X185120000Y-92671000D02*
X178338000Y-92671000D01*
X194643000Y-92711000D02*
X187880000Y-92711000D01*
X185120000Y-92711000D02*
X178357000Y-92711000D01*
X194623000Y-92751000D02*
X187880000Y-92751000D01*
X185120000Y-92751000D02*
X178377000Y-92751000D01*
X194603000Y-92791000D02*
X187880000Y-92791000D01*
X185120000Y-92791000D02*
X178397000Y-92791000D01*
X194583000Y-92831000D02*
X187880000Y-92831000D01*
X185120000Y-92831000D02*
X178417000Y-92831000D01*
X194563000Y-92871000D02*
X187880000Y-92871000D01*
X185120000Y-92871000D02*
X178437000Y-92871000D01*
X194543000Y-92911000D02*
X187880000Y-92911000D01*
X185120000Y-92911000D02*
X178457000Y-92911000D01*
X194522000Y-92951000D02*
X187880000Y-92951000D01*
X185120000Y-92951000D02*
X178478000Y-92951000D01*
X194501000Y-92991000D02*
X187880000Y-92991000D01*
X185120000Y-92991000D02*
X178499000Y-92991000D01*
X194480000Y-93031000D02*
X187880000Y-93031000D01*
X185120000Y-93031000D02*
X178520000Y-93031000D01*
X194458000Y-93071000D02*
X187880000Y-93071000D01*
X185120000Y-93071000D02*
X178542000Y-93071000D01*
X194437000Y-93111000D02*
X187880000Y-93111000D01*
X185120000Y-93111000D02*
X178563000Y-93111000D01*
X194415000Y-93151000D02*
X187880000Y-93151000D01*
X185120000Y-93151000D02*
X178585000Y-93151000D01*
X194392000Y-93191000D02*
X187880000Y-93191000D01*
X185120000Y-93191000D02*
X178608000Y-93191000D01*
X194370000Y-93231000D02*
X187880000Y-93231000D01*
X185120000Y-93231000D02*
X178630000Y-93231000D01*
X194347000Y-93271000D02*
X187880000Y-93271000D01*
X185120000Y-93271000D02*
X178653000Y-93271000D01*
X194324000Y-93311000D02*
X187880000Y-93311000D01*
X185120000Y-93311000D02*
X178676000Y-93311000D01*
X194301000Y-93351000D02*
X187880000Y-93351000D01*
X185120000Y-93351000D02*
X178699000Y-93351000D01*
X194277000Y-93391000D02*
X187880000Y-93391000D01*
X185120000Y-93391000D02*
X178723000Y-93391000D01*
X194253000Y-93431000D02*
X187880000Y-93431000D01*
X185120000Y-93431000D02*
X178747000Y-93431000D01*
X194229000Y-93471000D02*
X187880000Y-93471000D01*
X185120000Y-93471000D02*
X178771000Y-93471000D01*
X194205000Y-93511000D02*
X187880000Y-93511000D01*
X185120000Y-93511000D02*
X178795000Y-93511000D01*
X194180000Y-93551000D02*
X187880000Y-93551000D01*
X185120000Y-93551000D02*
X178820000Y-93551000D01*
X194155000Y-93591000D02*
X187880000Y-93591000D01*
X185120000Y-93591000D02*
X178845000Y-93591000D01*
X194130000Y-93631000D02*
X187880000Y-93631000D01*
X185120000Y-93631000D02*
X178870000Y-93631000D01*
X194104000Y-93671000D02*
X187880000Y-93671000D01*
X185120000Y-93671000D02*
X178896000Y-93671000D01*
X194078000Y-93711000D02*
X187880000Y-93711000D01*
X185120000Y-93711000D02*
X178922000Y-93711000D01*
X194052000Y-93751000D02*
X187880000Y-93751000D01*
X185120000Y-93751000D02*
X178948000Y-93751000D01*
X194025000Y-93791000D02*
X187880000Y-93791000D01*
X185120000Y-93791000D02*
X178975000Y-93791000D01*
X193999000Y-93831000D02*
X187880000Y-93831000D01*
X185120000Y-93831000D02*
X179001000Y-93831000D01*
X193971000Y-93871000D02*
X187880000Y-93871000D01*
X185120000Y-93871000D02*
X179029000Y-93871000D01*
X193944000Y-93911000D02*
X179056000Y-93911000D01*
X193916000Y-93951000D02*
X179084000Y-93951000D01*
X193888000Y-93991000D02*
X179112000Y-93991000D01*
X193860000Y-94031000D02*
X179140000Y-94031000D01*
X193831000Y-94071000D02*
X179169000Y-94071000D01*
X193802000Y-94111000D02*
X179198000Y-94111000D01*
X193773000Y-94151000D02*
X179227000Y-94151000D01*
X193743000Y-94191000D02*
X179257000Y-94191000D01*
X193713000Y-94231000D02*
X179287000Y-94231000D01*
X193683000Y-94271000D02*
X179317000Y-94271000D01*
X193652000Y-94311000D02*
X179348000Y-94311000D01*
X193621000Y-94351000D02*
X179379000Y-94351000D01*
X193589000Y-94391000D02*
X179411000Y-94391000D01*
X193557000Y-94431000D02*
X179443000Y-94431000D01*
X193525000Y-94471000D02*
X179475000Y-94471000D01*
X193493000Y-94511000D02*
X179507000Y-94511000D01*
X193460000Y-94551000D02*
X179540000Y-94551000D01*
X193426000Y-94591000D02*
X179574000Y-94591000D01*
X193393000Y-94631000D02*
X179607000Y-94631000D01*
X193358000Y-94671000D02*
X179642000Y-94671000D01*
X193324000Y-94711000D02*
X179676000Y-94711000D01*
X193289000Y-94751000D02*
X179711000Y-94751000D01*
X193254000Y-94791000D02*
X179746000Y-94791000D01*
X193218000Y-94831000D02*
X179782000Y-94831000D01*
X193182000Y-94871000D02*
X179818000Y-94871000D01*
X193145000Y-94911000D02*
X179855000Y-94911000D01*
X193108000Y-94951000D02*
X179892000Y-94951000D01*
X193070000Y-94991000D02*
X179930000Y-94991000D01*
X193032000Y-95031000D02*
X179968000Y-95031000D01*
X192994000Y-95071000D02*
X180006000Y-95071000D01*
X192955000Y-95111000D02*
X180045000Y-95111000D01*
X192916000Y-95151000D02*
X180084000Y-95151000D01*
X192876000Y-95191000D02*
X180124000Y-95191000D01*
X192835000Y-95231000D02*
X180165000Y-95231000D01*
X192794000Y-95271000D02*
X180206000Y-95271000D01*
X192753000Y-95311000D02*
X180247000Y-95311000D01*
X192711000Y-95351000D02*
X180289000Y-95351000D01*
X192668000Y-95391000D02*
X180332000Y-95391000D01*
X192625000Y-95431000D02*
X180375000Y-95431000D01*
X192582000Y-95471000D02*
X180418000Y-95471000D01*
X192538000Y-95511000D02*
X180462000Y-95511000D01*
X192493000Y-95551000D02*
X180507000Y-95551000D01*
X192447000Y-95591000D02*
X180553000Y-95591000D01*
X192401000Y-95631000D02*
X180599000Y-95631000D01*
X192355000Y-95671000D02*
X180645000Y-95671000D01*
X192307000Y-95711000D02*
X180693000Y-95711000D01*
X192259000Y-95751000D02*
X180741000Y-95751000D01*
X192211000Y-95791000D02*
X180789000Y-95791000D01*
X192162000Y-95831000D02*
X180838000Y-95831000D01*
X192111000Y-95871000D02*
X180889000Y-95871000D01*
X192061000Y-95911000D02*
X180939000Y-95911000D01*
X192009000Y-95951000D02*
X180991000Y-95951000D01*
X191957000Y-95991000D02*
X181043000Y-95991000D01*
X191904000Y-96031000D02*
X181096000Y-96031000D01*
X191850000Y-96071000D02*
X181150000Y-96071000D01*
X191795000Y-96111000D02*
X181205000Y-96111000D01*
X191740000Y-96151000D02*
X181260000Y-96151000D01*
X191683000Y-96191000D02*
X181317000Y-96191000D01*
X191626000Y-96231000D02*
X181374000Y-96231000D01*
X191567000Y-96271000D02*
X181433000Y-96271000D01*
X191508000Y-96311000D02*
X181492000Y-96311000D01*
X191447000Y-96351000D02*
X181553000Y-96351000D01*
X191386000Y-96391000D02*
X181614000Y-96391000D01*
X191323000Y-96431000D02*
X181677000Y-96431000D01*
X191259000Y-96471000D02*
X181741000Y-96471000D01*
X191194000Y-96511000D02*
X181806000Y-96511000D01*
X191128000Y-96551000D02*
X181872000Y-96551000D01*
X191061000Y-96591000D02*
X181939000Y-96591000D01*
X190992000Y-96631000D02*
X182008000Y-96631000D01*
X190922000Y-96671000D02*
X182078000Y-96671000D01*
X190850000Y-96711000D02*
X182150000Y-96711000D01*
X190777000Y-96751000D02*
X182223000Y-96751000D01*
X190702000Y-96791000D02*
X182298000Y-96791000D01*
X190625000Y-96831000D02*
X182375000Y-96831000D01*
X190546000Y-96871000D02*
X182454000Y-96871000D01*
X190466000Y-96911000D02*
X182534000Y-96911000D01*
X190383000Y-96950000D02*
X182617000Y-96950000D01*
X190299000Y-96990000D02*
X182701000Y-96990000D01*
X190211000Y-97030000D02*
X182789000Y-97030000D01*
X190122000Y-97070000D02*
X182878000Y-97070000D01*
X190030000Y-97110000D02*
X182970000Y-97110000D01*
X189934000Y-97150000D02*
X183066000Y-97150000D01*
X189836000Y-97190000D02*
X183164000Y-97190000D01*
X189734000Y-97230000D02*
X183266000Y-97230000D01*
X189629000Y-97270000D02*
X183371000Y-97270000D01*
X189519000Y-97310000D02*
X183481000Y-97310000D01*
X189405000Y-97350000D02*
X183595000Y-97350000D01*
X189285000Y-97390000D02*
X183715000Y-97390000D01*
X189160000Y-97430000D02*
X183840000Y-97430000D01*
X189028000Y-97470000D02*
X183972000Y-97470000D01*
X188888000Y-97510000D02*
X184112000Y-97510000D01*
X188738000Y-97550000D02*
X184262000Y-97550000D01*
X188578000Y-97590000D02*
X184422000Y-97590000D01*
X188403000Y-97630000D02*
X184597000Y-97630000D01*
X188210000Y-97670000D02*
X184790000Y-97670000D01*
X187992000Y-97710000D02*
X185008000Y-97710000D01*
X187736000Y-97750000D02*
X185264000Y-97750000D01*
X187413000Y-97790000D02*
X185587000Y-97790000D01*
X186887000Y-97830000D02*
X186113000Y-97830000D01*
X186500000Y-81800000D02*
X186500000Y-83600000D01*
X187400000Y-82700000D02*
X185600000Y-82700000D01*
X195590000Y-88750000D02*
G75*
G03X195590000Y-88750000I-9090000J0D01*
G01*
X206190000Y-88130000D02*
X208810000Y-88130000D01*
X208810000Y-88130000D02*
X208810000Y-81710000D01*
X208810000Y-81710000D02*
X206190000Y-81710000D01*
X206190000Y-81710000D02*
X206190000Y-88130000D01*
X207500000Y-89020000D02*
X207500000Y-88130000D01*
X207500000Y-80820000D02*
X207500000Y-81710000D01*
X201310000Y-121370000D02*
X198690000Y-121370000D01*
X198690000Y-121370000D02*
X198690000Y-127790000D01*
X198690000Y-127790000D02*
X201310000Y-127790000D01*
X201310000Y-127790000D02*
X201310000Y-121370000D01*
X200000000Y-120480000D02*
X200000000Y-121370000D01*
X200000000Y-128680000D02*
X200000000Y-127790000D01*
X218870000Y-81540000D02*
G75*
G03X218870000Y-81540000I-3870000J0D01*
G01*
D14*
X221850155Y-104249647D02*
G75*
G03X221850000Y-102750000I-1700155J749647D01*
G01*
X221850155Y-109329647D02*
G75*
G03X221850000Y-107830000I-1700155J749647D01*
G01*
X228430000Y-100880000D02*
X221020000Y-100880000D01*
X221020000Y-100880000D02*
X221020000Y-111200000D01*
X221020000Y-111200000D02*
X228430000Y-111200000D01*
X228430000Y-111200000D02*
X228430000Y-100880000D01*
X221850000Y-102750000D02*
X221850000Y-102000000D01*
X221850000Y-102000000D02*
X226150000Y-102000000D01*
X226150000Y-102000000D02*
X226150000Y-102750000D01*
X226150000Y-102750000D02*
X226500000Y-102750000D01*
X226500000Y-102750000D02*
X226500000Y-102250000D01*
X226500000Y-102250000D02*
X227500000Y-102000000D01*
X227500000Y-102000000D02*
X227500000Y-105000000D01*
X227500000Y-105000000D02*
X226500000Y-104750000D01*
X226500000Y-104750000D02*
X226500000Y-104250000D01*
X226500000Y-104250000D02*
X226150000Y-104250000D01*
X226150000Y-104250000D02*
X226150000Y-104250000D01*
X226150000Y-104250000D02*
X226150000Y-105000000D01*
X226150000Y-105000000D02*
X221850000Y-105000000D01*
X221850000Y-105000000D02*
X221850000Y-104250000D01*
X221850000Y-107830000D02*
X221850000Y-107080000D01*
X221850000Y-107080000D02*
X226150000Y-107080000D01*
X226150000Y-107080000D02*
X226150000Y-107830000D01*
X226150000Y-107830000D02*
X226500000Y-107830000D01*
X226500000Y-107830000D02*
X226500000Y-107330000D01*
X226500000Y-107330000D02*
X227500000Y-107080000D01*
X227500000Y-107080000D02*
X227500000Y-110080000D01*
X227500000Y-110080000D02*
X226500000Y-109830000D01*
X226500000Y-109830000D02*
X226500000Y-109330000D01*
X226500000Y-109330000D02*
X226150000Y-109330000D01*
X226150000Y-109330000D02*
X226150000Y-109330000D01*
X226150000Y-109330000D02*
X226150000Y-110080000D01*
X226150000Y-110080000D02*
X221850000Y-110080000D01*
X221850000Y-110080000D02*
X221850000Y-109330000D01*
X228850000Y-103500000D02*
X229450000Y-103800000D01*
X229450000Y-103800000D02*
X229450000Y-103200000D01*
X229450000Y-103200000D02*
X228850000Y-103500000D01*
X183149845Y-107750353D02*
G75*
G03X183150000Y-109250000I1700155J-749647D01*
G01*
X183149845Y-102670353D02*
G75*
G03X183150000Y-104170000I1700155J-749647D01*
G01*
X176570000Y-111120000D02*
X183980000Y-111120000D01*
X183980000Y-111120000D02*
X183980000Y-100800000D01*
X183980000Y-100800000D02*
X176570000Y-100800000D01*
X176570000Y-100800000D02*
X176570000Y-111120000D01*
X183150000Y-109250000D02*
X183150000Y-110000000D01*
X183150000Y-110000000D02*
X178850000Y-110000000D01*
X178850000Y-110000000D02*
X178850000Y-109250000D01*
X178850000Y-109250000D02*
X178500000Y-109250000D01*
X178500000Y-109250000D02*
X178500000Y-109750000D01*
X178500000Y-109750000D02*
X177500000Y-110000000D01*
X177500000Y-110000000D02*
X177500000Y-107000000D01*
X177500000Y-107000000D02*
X178500000Y-107250000D01*
X178500000Y-107250000D02*
X178500000Y-107750000D01*
X178500000Y-107750000D02*
X178850000Y-107750000D01*
X178850000Y-107750000D02*
X178850000Y-107750000D01*
X178850000Y-107750000D02*
X178850000Y-107000000D01*
X178850000Y-107000000D02*
X183150000Y-107000000D01*
X183150000Y-107000000D02*
X183150000Y-107750000D01*
X183150000Y-104170000D02*
X183150000Y-104920000D01*
X183150000Y-104920000D02*
X178850000Y-104920000D01*
X178850000Y-104920000D02*
X178850000Y-104170000D01*
X178850000Y-104170000D02*
X178500000Y-104170000D01*
X178500000Y-104170000D02*
X178500000Y-104670000D01*
X178500000Y-104670000D02*
X177500000Y-104920000D01*
X177500000Y-104920000D02*
X177500000Y-101920000D01*
X177500000Y-101920000D02*
X178500000Y-102170000D01*
X178500000Y-102170000D02*
X178500000Y-102670000D01*
X178500000Y-102670000D02*
X178850000Y-102670000D01*
X178850000Y-102670000D02*
X178850000Y-102670000D01*
X178850000Y-102670000D02*
X178850000Y-101920000D01*
X178850000Y-101920000D02*
X183150000Y-101920000D01*
X183150000Y-101920000D02*
X183150000Y-102670000D01*
X176150000Y-108500000D02*
X175550000Y-108200000D01*
X175550000Y-108200000D02*
X175550000Y-108800000D01*
X175550000Y-108800000D02*
X176150000Y-108500000D01*
X210249647Y-75649845D02*
G75*
G03X208750000Y-75650000I-749647J-1700155D01*
G01*
X215329647Y-75649845D02*
G75*
G03X213830000Y-75650000I-749647J-1700155D01*
G01*
X206880000Y-69070000D02*
X206880000Y-76480000D01*
X206880000Y-76480000D02*
X217200000Y-76480000D01*
X217200000Y-76480000D02*
X217200000Y-69070000D01*
X217200000Y-69070000D02*
X206880000Y-69070000D01*
X208750000Y-75650000D02*
X208000000Y-75650000D01*
X208000000Y-75650000D02*
X208000000Y-71350000D01*
X208000000Y-71350000D02*
X208750000Y-71350000D01*
X208750000Y-71350000D02*
X208750000Y-71000000D01*
X208750000Y-71000000D02*
X208250000Y-71000000D01*
X208250000Y-71000000D02*
X208000000Y-70000000D01*
X208000000Y-70000000D02*
X211000000Y-70000000D01*
X211000000Y-70000000D02*
X210750000Y-71000000D01*
X210750000Y-71000000D02*
X210250000Y-71000000D01*
X210250000Y-71000000D02*
X210250000Y-71350000D01*
X210250000Y-71350000D02*
X210250000Y-71350000D01*
X210250000Y-71350000D02*
X211000000Y-71350000D01*
X211000000Y-71350000D02*
X211000000Y-75650000D01*
X211000000Y-75650000D02*
X210250000Y-75650000D01*
X213830000Y-75650000D02*
X213080000Y-75650000D01*
X213080000Y-75650000D02*
X213080000Y-71350000D01*
X213080000Y-71350000D02*
X213830000Y-71350000D01*
X213830000Y-71350000D02*
X213830000Y-71000000D01*
X213830000Y-71000000D02*
X213330000Y-71000000D01*
X213330000Y-71000000D02*
X213080000Y-70000000D01*
X213080000Y-70000000D02*
X216080000Y-70000000D01*
X216080000Y-70000000D02*
X215830000Y-71000000D01*
X215830000Y-71000000D02*
X215330000Y-71000000D01*
X215330000Y-71000000D02*
X215330000Y-71350000D01*
X215330000Y-71350000D02*
X215330000Y-71350000D01*
X215330000Y-71350000D02*
X216080000Y-71350000D01*
X216080000Y-71350000D02*
X216080000Y-75650000D01*
X216080000Y-75650000D02*
X215330000Y-75650000D01*
X209500000Y-68650000D02*
X209800000Y-68050000D01*
X209800000Y-68050000D02*
X209200000Y-68050000D01*
X209200000Y-68050000D02*
X209500000Y-68650000D01*
D13*
X201190000Y-88630000D02*
X203810000Y-88630000D01*
X203810000Y-88630000D02*
X203810000Y-82210000D01*
X203810000Y-82210000D02*
X201190000Y-82210000D01*
X201190000Y-82210000D02*
X201190000Y-88630000D01*
X202500000Y-89520000D02*
X202500000Y-88630000D01*
X202500000Y-81320000D02*
X202500000Y-82210000D01*
X205310000Y-121370000D02*
X202690000Y-121370000D01*
X202690000Y-121370000D02*
X202690000Y-127790000D01*
X202690000Y-127790000D02*
X205310000Y-127790000D01*
X205310000Y-127790000D02*
X205310000Y-121370000D01*
X204000000Y-120480000D02*
X204000000Y-121370000D01*
X204000000Y-128680000D02*
X204000000Y-127790000D01*
X219951525Y-89820806D02*
G75*
G03X210048667Y-89820000I-4951525J-1179194D01*
G01*
X219951525Y-92179194D02*
G75*
G02X210048667Y-92180000I-4951525J1179194D01*
G01*
X219951525Y-92179194D02*
G75*
G03X219951333Y-89820000I-4951525J1179194D01*
G01*
X215000000Y-85950000D02*
X215000000Y-96050000D01*
X215040000Y-85950000D02*
X215040000Y-96050000D01*
X215080000Y-85950000D02*
X215080000Y-96050000D01*
X215120000Y-85951000D02*
X215120000Y-96049000D01*
X215160000Y-85952000D02*
X215160000Y-96048000D01*
X215200000Y-85953000D02*
X215200000Y-96047000D01*
X215240000Y-85955000D02*
X215240000Y-96045000D01*
X215280000Y-85957000D02*
X215280000Y-96043000D01*
X215320000Y-85960000D02*
X215320000Y-96040000D01*
X215360000Y-85962000D02*
X215360000Y-96038000D01*
X215400000Y-85965000D02*
X215400000Y-96035000D01*
X215440000Y-85969000D02*
X215440000Y-96031000D01*
X215480000Y-85972000D02*
X215480000Y-96028000D01*
X215520000Y-85976000D02*
X215520000Y-96024000D01*
X215560000Y-85980000D02*
X215560000Y-96020000D01*
X215600000Y-85985000D02*
X215600000Y-96015000D01*
X215640000Y-85990000D02*
X215640000Y-96010000D01*
X215680000Y-85995000D02*
X215680000Y-96005000D01*
X215721000Y-86001000D02*
X215721000Y-95999000D01*
X215761000Y-86007000D02*
X215761000Y-95993000D01*
X215801000Y-86013000D02*
X215801000Y-95987000D01*
X215841000Y-86019000D02*
X215841000Y-95981000D01*
X215881000Y-86026000D02*
X215881000Y-95974000D01*
X215921000Y-86033000D02*
X215921000Y-95967000D01*
X215961000Y-86041000D02*
X215961000Y-95959000D01*
X216001000Y-86049000D02*
X216001000Y-95951000D01*
X216041000Y-86057000D02*
X216041000Y-95943000D01*
X216081000Y-86065000D02*
X216081000Y-95935000D01*
X216121000Y-86074000D02*
X216121000Y-95926000D01*
X216161000Y-86083000D02*
X216161000Y-95917000D01*
X216201000Y-86093000D02*
X216201000Y-95907000D01*
X216241000Y-86103000D02*
X216241000Y-95897000D01*
X216281000Y-86113000D02*
X216281000Y-95887000D01*
X216321000Y-86124000D02*
X216321000Y-89819000D01*
X216321000Y-92181000D02*
X216321000Y-95876000D01*
X216361000Y-86135000D02*
X216361000Y-89819000D01*
X216361000Y-92181000D02*
X216361000Y-95865000D01*
X216401000Y-86146000D02*
X216401000Y-89819000D01*
X216401000Y-92181000D02*
X216401000Y-95854000D01*
X216441000Y-86157000D02*
X216441000Y-89819000D01*
X216441000Y-92181000D02*
X216441000Y-95843000D01*
X216481000Y-86169000D02*
X216481000Y-89819000D01*
X216481000Y-92181000D02*
X216481000Y-95831000D01*
X216521000Y-86182000D02*
X216521000Y-89819000D01*
X216521000Y-92181000D02*
X216521000Y-95818000D01*
X216561000Y-86194000D02*
X216561000Y-89819000D01*
X216561000Y-92181000D02*
X216561000Y-95806000D01*
X216601000Y-86208000D02*
X216601000Y-89819000D01*
X216601000Y-92181000D02*
X216601000Y-95792000D01*
X216641000Y-86221000D02*
X216641000Y-89819000D01*
X216641000Y-92181000D02*
X216641000Y-95779000D01*
X216681000Y-86235000D02*
X216681000Y-89819000D01*
X216681000Y-92181000D02*
X216681000Y-95765000D01*
X216721000Y-86249000D02*
X216721000Y-89819000D01*
X216721000Y-92181000D02*
X216721000Y-95751000D01*
X216761000Y-86263000D02*
X216761000Y-89819000D01*
X216761000Y-92181000D02*
X216761000Y-95737000D01*
X216801000Y-86278000D02*
X216801000Y-89819000D01*
X216801000Y-92181000D02*
X216801000Y-95722000D01*
X216841000Y-86294000D02*
X216841000Y-89819000D01*
X216841000Y-92181000D02*
X216841000Y-95706000D01*
X216881000Y-86309000D02*
X216881000Y-89819000D01*
X216881000Y-92181000D02*
X216881000Y-95691000D01*
X216921000Y-86326000D02*
X216921000Y-89819000D01*
X216921000Y-92181000D02*
X216921000Y-95674000D01*
X216961000Y-86342000D02*
X216961000Y-89819000D01*
X216961000Y-92181000D02*
X216961000Y-95658000D01*
X217001000Y-86359000D02*
X217001000Y-89819000D01*
X217001000Y-92181000D02*
X217001000Y-95641000D01*
X217041000Y-86376000D02*
X217041000Y-89819000D01*
X217041000Y-92181000D02*
X217041000Y-95624000D01*
X217081000Y-86394000D02*
X217081000Y-89819000D01*
X217081000Y-92181000D02*
X217081000Y-95606000D01*
X217121000Y-86412000D02*
X217121000Y-89819000D01*
X217121000Y-92181000D02*
X217121000Y-95588000D01*
X217161000Y-86431000D02*
X217161000Y-89819000D01*
X217161000Y-92181000D02*
X217161000Y-95569000D01*
X217201000Y-86450000D02*
X217201000Y-89819000D01*
X217201000Y-92181000D02*
X217201000Y-95550000D01*
X217241000Y-86469000D02*
X217241000Y-89819000D01*
X217241000Y-92181000D02*
X217241000Y-95531000D01*
X217281000Y-86489000D02*
X217281000Y-89819000D01*
X217281000Y-92181000D02*
X217281000Y-95511000D01*
X217321000Y-86509000D02*
X217321000Y-89819000D01*
X217321000Y-92181000D02*
X217321000Y-95491000D01*
X217361000Y-86530000D02*
X217361000Y-89819000D01*
X217361000Y-92181000D02*
X217361000Y-95470000D01*
X217401000Y-86551000D02*
X217401000Y-89819000D01*
X217401000Y-92181000D02*
X217401000Y-95449000D01*
X217441000Y-86572000D02*
X217441000Y-89819000D01*
X217441000Y-92181000D02*
X217441000Y-95428000D01*
X217481000Y-86595000D02*
X217481000Y-89819000D01*
X217481000Y-92181000D02*
X217481000Y-95405000D01*
X217521000Y-86617000D02*
X217521000Y-89819000D01*
X217521000Y-92181000D02*
X217521000Y-95383000D01*
X217561000Y-86640000D02*
X217561000Y-89819000D01*
X217561000Y-92181000D02*
X217561000Y-95360000D01*
X217601000Y-86664000D02*
X217601000Y-89819000D01*
X217601000Y-92181000D02*
X217601000Y-95336000D01*
X217641000Y-86688000D02*
X217641000Y-89819000D01*
X217641000Y-92181000D02*
X217641000Y-95312000D01*
X217681000Y-86712000D02*
X217681000Y-89819000D01*
X217681000Y-92181000D02*
X217681000Y-95288000D01*
X217721000Y-86737000D02*
X217721000Y-89819000D01*
X217721000Y-92181000D02*
X217721000Y-95263000D01*
X217761000Y-86763000D02*
X217761000Y-89819000D01*
X217761000Y-92181000D02*
X217761000Y-95237000D01*
X217801000Y-86789000D02*
X217801000Y-89819000D01*
X217801000Y-92181000D02*
X217801000Y-95211000D01*
X217841000Y-86815000D02*
X217841000Y-89819000D01*
X217841000Y-92181000D02*
X217841000Y-95185000D01*
X217881000Y-86843000D02*
X217881000Y-89819000D01*
X217881000Y-92181000D02*
X217881000Y-95157000D01*
X217921000Y-86870000D02*
X217921000Y-89819000D01*
X217921000Y-92181000D02*
X217921000Y-95130000D01*
X217961000Y-86899000D02*
X217961000Y-89819000D01*
X217961000Y-92181000D02*
X217961000Y-95101000D01*
X218001000Y-86928000D02*
X218001000Y-89819000D01*
X218001000Y-92181000D02*
X218001000Y-95072000D01*
X218041000Y-86957000D02*
X218041000Y-89819000D01*
X218041000Y-92181000D02*
X218041000Y-95043000D01*
X218081000Y-86987000D02*
X218081000Y-89819000D01*
X218081000Y-92181000D02*
X218081000Y-95013000D01*
X218121000Y-87018000D02*
X218121000Y-89819000D01*
X218121000Y-92181000D02*
X218121000Y-94982000D01*
X218161000Y-87049000D02*
X218161000Y-89819000D01*
X218161000Y-92181000D02*
X218161000Y-94951000D01*
X218201000Y-87081000D02*
X218201000Y-89819000D01*
X218201000Y-92181000D02*
X218201000Y-94919000D01*
X218241000Y-87114000D02*
X218241000Y-89819000D01*
X218241000Y-92181000D02*
X218241000Y-94886000D01*
X218281000Y-87147000D02*
X218281000Y-89819000D01*
X218281000Y-92181000D02*
X218281000Y-94853000D01*
X218321000Y-87181000D02*
X218321000Y-89819000D01*
X218321000Y-92181000D02*
X218321000Y-94819000D01*
X218361000Y-87216000D02*
X218361000Y-89819000D01*
X218361000Y-92181000D02*
X218361000Y-94784000D01*
X218401000Y-87252000D02*
X218401000Y-89819000D01*
X218401000Y-92181000D02*
X218401000Y-94748000D01*
X218441000Y-87288000D02*
X218441000Y-89819000D01*
X218441000Y-92181000D02*
X218441000Y-94712000D01*
X218481000Y-87325000D02*
X218481000Y-89819000D01*
X218481000Y-92181000D02*
X218481000Y-94675000D01*
X218521000Y-87363000D02*
X218521000Y-89819000D01*
X218521000Y-92181000D02*
X218521000Y-94637000D01*
X218561000Y-87402000D02*
X218561000Y-89819000D01*
X218561000Y-92181000D02*
X218561000Y-94598000D01*
X218601000Y-87441000D02*
X218601000Y-89819000D01*
X218601000Y-92181000D02*
X218601000Y-94559000D01*
X218641000Y-87482000D02*
X218641000Y-89819000D01*
X218641000Y-92181000D02*
X218641000Y-94518000D01*
X218681000Y-87523000D02*
X218681000Y-94477000D01*
X218721000Y-87565000D02*
X218721000Y-94435000D01*
X218761000Y-87609000D02*
X218761000Y-94391000D01*
X218801000Y-87653000D02*
X218801000Y-94347000D01*
X218841000Y-87698000D02*
X218841000Y-94302000D01*
X218881000Y-87745000D02*
X218881000Y-94255000D01*
X218921000Y-87793000D02*
X218921000Y-94207000D01*
X218961000Y-87842000D02*
X218961000Y-94158000D01*
X219001000Y-87892000D02*
X219001000Y-94108000D01*
X219041000Y-87943000D02*
X219041000Y-94057000D01*
X219081000Y-87996000D02*
X219081000Y-94004000D01*
X219121000Y-88051000D02*
X219121000Y-93949000D01*
X219161000Y-88106000D02*
X219161000Y-93894000D01*
X219201000Y-88164000D02*
X219201000Y-93836000D01*
X219241000Y-88223000D02*
X219241000Y-93777000D01*
X219281000Y-88285000D02*
X219281000Y-93715000D01*
X219321000Y-88348000D02*
X219321000Y-93652000D01*
X219361000Y-88413000D02*
X219361000Y-93587000D01*
X219401000Y-88481000D02*
X219401000Y-93519000D01*
X219441000Y-88551000D02*
X219441000Y-93449000D01*
X219481000Y-88623000D02*
X219481000Y-93377000D01*
X219521000Y-88699000D02*
X219521000Y-93301000D01*
X219561000Y-88778000D02*
X219561000Y-93222000D01*
X219601000Y-88860000D02*
X219601000Y-93140000D01*
X219641000Y-88947000D02*
X219641000Y-93053000D01*
X219681000Y-89038000D02*
X219681000Y-92962000D01*
X219721000Y-89134000D02*
X219721000Y-92866000D01*
X219761000Y-89237000D02*
X219761000Y-92763000D01*
X219801000Y-89346000D02*
X219801000Y-92654000D01*
X219841000Y-89464000D02*
X219841000Y-92536000D01*
X219881000Y-89593000D02*
X219881000Y-92407000D01*
X219921000Y-89735000D02*
X219921000Y-92265000D01*
X219961000Y-89896000D02*
X219961000Y-92104000D01*
X220001000Y-90087000D02*
X220001000Y-91913000D01*
X220041000Y-90328000D02*
X220041000Y-91672000D01*
X220081000Y-90721000D02*
X220081000Y-91279000D01*
X209800000Y-91000000D02*
X211300000Y-91000000D01*
X210550000Y-90250000D02*
X210550000Y-91750000D01*
X193179194Y-126951525D02*
G75*
G03X193180000Y-117048667I-1179194J4951525D01*
G01*
X190820806Y-126951525D02*
G75*
G02X190820000Y-117048667I1179194J4951525D01*
G01*
X190820806Y-126951525D02*
G75*
G03X193180000Y-126951333I1179194J4951525D01*
G01*
X197050000Y-122000000D02*
X186950000Y-122000000D01*
X197050000Y-122040000D02*
X186950000Y-122040000D01*
X197050000Y-122080000D02*
X186950000Y-122080000D01*
X197049000Y-122120000D02*
X186951000Y-122120000D01*
X197048000Y-122160000D02*
X186952000Y-122160000D01*
X197047000Y-122200000D02*
X186953000Y-122200000D01*
X197045000Y-122240000D02*
X186955000Y-122240000D01*
X197043000Y-122280000D02*
X186957000Y-122280000D01*
X197040000Y-122320000D02*
X186960000Y-122320000D01*
X197038000Y-122360000D02*
X186962000Y-122360000D01*
X197035000Y-122400000D02*
X186965000Y-122400000D01*
X197031000Y-122440000D02*
X186969000Y-122440000D01*
X197028000Y-122480000D02*
X186972000Y-122480000D01*
X197024000Y-122520000D02*
X186976000Y-122520000D01*
X197020000Y-122560000D02*
X186980000Y-122560000D01*
X197015000Y-122600000D02*
X186985000Y-122600000D01*
X197010000Y-122640000D02*
X186990000Y-122640000D01*
X197005000Y-122680000D02*
X186995000Y-122680000D01*
X196999000Y-122721000D02*
X187001000Y-122721000D01*
X196993000Y-122761000D02*
X187007000Y-122761000D01*
X196987000Y-122801000D02*
X187013000Y-122801000D01*
X196981000Y-122841000D02*
X187019000Y-122841000D01*
X196974000Y-122881000D02*
X187026000Y-122881000D01*
X196967000Y-122921000D02*
X187033000Y-122921000D01*
X196959000Y-122961000D02*
X187041000Y-122961000D01*
X196951000Y-123001000D02*
X187049000Y-123001000D01*
X196943000Y-123041000D02*
X187057000Y-123041000D01*
X196935000Y-123081000D02*
X187065000Y-123081000D01*
X196926000Y-123121000D02*
X187074000Y-123121000D01*
X196917000Y-123161000D02*
X187083000Y-123161000D01*
X196907000Y-123201000D02*
X187093000Y-123201000D01*
X196897000Y-123241000D02*
X187103000Y-123241000D01*
X196887000Y-123281000D02*
X187113000Y-123281000D01*
X196876000Y-123321000D02*
X193181000Y-123321000D01*
X190819000Y-123321000D02*
X187124000Y-123321000D01*
X196865000Y-123361000D02*
X193181000Y-123361000D01*
X190819000Y-123361000D02*
X187135000Y-123361000D01*
X196854000Y-123401000D02*
X193181000Y-123401000D01*
X190819000Y-123401000D02*
X187146000Y-123401000D01*
X196843000Y-123441000D02*
X193181000Y-123441000D01*
X190819000Y-123441000D02*
X187157000Y-123441000D01*
X196831000Y-123481000D02*
X193181000Y-123481000D01*
X190819000Y-123481000D02*
X187169000Y-123481000D01*
X196818000Y-123521000D02*
X193181000Y-123521000D01*
X190819000Y-123521000D02*
X187182000Y-123521000D01*
X196806000Y-123561000D02*
X193181000Y-123561000D01*
X190819000Y-123561000D02*
X187194000Y-123561000D01*
X196792000Y-123601000D02*
X193181000Y-123601000D01*
X190819000Y-123601000D02*
X187208000Y-123601000D01*
X196779000Y-123641000D02*
X193181000Y-123641000D01*
X190819000Y-123641000D02*
X187221000Y-123641000D01*
X196765000Y-123681000D02*
X193181000Y-123681000D01*
X190819000Y-123681000D02*
X187235000Y-123681000D01*
X196751000Y-123721000D02*
X193181000Y-123721000D01*
X190819000Y-123721000D02*
X187249000Y-123721000D01*
X196737000Y-123761000D02*
X193181000Y-123761000D01*
X190819000Y-123761000D02*
X187263000Y-123761000D01*
X196722000Y-123801000D02*
X193181000Y-123801000D01*
X190819000Y-123801000D02*
X187278000Y-123801000D01*
X196706000Y-123841000D02*
X193181000Y-123841000D01*
X190819000Y-123841000D02*
X187294000Y-123841000D01*
X196691000Y-123881000D02*
X193181000Y-123881000D01*
X190819000Y-123881000D02*
X187309000Y-123881000D01*
X196674000Y-123921000D02*
X193181000Y-123921000D01*
X190819000Y-123921000D02*
X187326000Y-123921000D01*
X196658000Y-123961000D02*
X193181000Y-123961000D01*
X190819000Y-123961000D02*
X187342000Y-123961000D01*
X196641000Y-124001000D02*
X193181000Y-124001000D01*
X190819000Y-124001000D02*
X187359000Y-124001000D01*
X196624000Y-124041000D02*
X193181000Y-124041000D01*
X190819000Y-124041000D02*
X187376000Y-124041000D01*
X196606000Y-124081000D02*
X193181000Y-124081000D01*
X190819000Y-124081000D02*
X187394000Y-124081000D01*
X196588000Y-124121000D02*
X193181000Y-124121000D01*
X190819000Y-124121000D02*
X187412000Y-124121000D01*
X196569000Y-124161000D02*
X193181000Y-124161000D01*
X190819000Y-124161000D02*
X187431000Y-124161000D01*
X196550000Y-124201000D02*
X193181000Y-124201000D01*
X190819000Y-124201000D02*
X187450000Y-124201000D01*
X196531000Y-124241000D02*
X193181000Y-124241000D01*
X190819000Y-124241000D02*
X187469000Y-124241000D01*
X196511000Y-124281000D02*
X193181000Y-124281000D01*
X190819000Y-124281000D02*
X187489000Y-124281000D01*
X196491000Y-124321000D02*
X193181000Y-124321000D01*
X190819000Y-124321000D02*
X187509000Y-124321000D01*
X196470000Y-124361000D02*
X193181000Y-124361000D01*
X190819000Y-124361000D02*
X187530000Y-124361000D01*
X196449000Y-124401000D02*
X193181000Y-124401000D01*
X190819000Y-124401000D02*
X187551000Y-124401000D01*
X196428000Y-124441000D02*
X193181000Y-124441000D01*
X190819000Y-124441000D02*
X187572000Y-124441000D01*
X196405000Y-124481000D02*
X193181000Y-124481000D01*
X190819000Y-124481000D02*
X187595000Y-124481000D01*
X196383000Y-124521000D02*
X193181000Y-124521000D01*
X190819000Y-124521000D02*
X187617000Y-124521000D01*
X196360000Y-124561000D02*
X193181000Y-124561000D01*
X190819000Y-124561000D02*
X187640000Y-124561000D01*
X196336000Y-124601000D02*
X193181000Y-124601000D01*
X190819000Y-124601000D02*
X187664000Y-124601000D01*
X196312000Y-124641000D02*
X193181000Y-124641000D01*
X190819000Y-124641000D02*
X187688000Y-124641000D01*
X196288000Y-124681000D02*
X193181000Y-124681000D01*
X190819000Y-124681000D02*
X187712000Y-124681000D01*
X196263000Y-124721000D02*
X193181000Y-124721000D01*
X190819000Y-124721000D02*
X187737000Y-124721000D01*
X196237000Y-124761000D02*
X193181000Y-124761000D01*
X190819000Y-124761000D02*
X187763000Y-124761000D01*
X196211000Y-124801000D02*
X193181000Y-124801000D01*
X190819000Y-124801000D02*
X187789000Y-124801000D01*
X196185000Y-124841000D02*
X193181000Y-124841000D01*
X190819000Y-124841000D02*
X187815000Y-124841000D01*
X196157000Y-124881000D02*
X193181000Y-124881000D01*
X190819000Y-124881000D02*
X187843000Y-124881000D01*
X196130000Y-124921000D02*
X193181000Y-124921000D01*
X190819000Y-124921000D02*
X187870000Y-124921000D01*
X196101000Y-124961000D02*
X193181000Y-124961000D01*
X190819000Y-124961000D02*
X187899000Y-124961000D01*
X196072000Y-125001000D02*
X193181000Y-125001000D01*
X190819000Y-125001000D02*
X187928000Y-125001000D01*
X196043000Y-125041000D02*
X193181000Y-125041000D01*
X190819000Y-125041000D02*
X187957000Y-125041000D01*
X196013000Y-125081000D02*
X193181000Y-125081000D01*
X190819000Y-125081000D02*
X187987000Y-125081000D01*
X195982000Y-125121000D02*
X193181000Y-125121000D01*
X190819000Y-125121000D02*
X188018000Y-125121000D01*
X195951000Y-125161000D02*
X193181000Y-125161000D01*
X190819000Y-125161000D02*
X188049000Y-125161000D01*
X195919000Y-125201000D02*
X193181000Y-125201000D01*
X190819000Y-125201000D02*
X188081000Y-125201000D01*
X195886000Y-125241000D02*
X193181000Y-125241000D01*
X190819000Y-125241000D02*
X188114000Y-125241000D01*
X195853000Y-125281000D02*
X193181000Y-125281000D01*
X190819000Y-125281000D02*
X188147000Y-125281000D01*
X195819000Y-125321000D02*
X193181000Y-125321000D01*
X190819000Y-125321000D02*
X188181000Y-125321000D01*
X195784000Y-125361000D02*
X193181000Y-125361000D01*
X190819000Y-125361000D02*
X188216000Y-125361000D01*
X195748000Y-125401000D02*
X193181000Y-125401000D01*
X190819000Y-125401000D02*
X188252000Y-125401000D01*
X195712000Y-125441000D02*
X193181000Y-125441000D01*
X190819000Y-125441000D02*
X188288000Y-125441000D01*
X195675000Y-125481000D02*
X193181000Y-125481000D01*
X190819000Y-125481000D02*
X188325000Y-125481000D01*
X195637000Y-125521000D02*
X193181000Y-125521000D01*
X190819000Y-125521000D02*
X188363000Y-125521000D01*
X195598000Y-125561000D02*
X193181000Y-125561000D01*
X190819000Y-125561000D02*
X188402000Y-125561000D01*
X195559000Y-125601000D02*
X193181000Y-125601000D01*
X190819000Y-125601000D02*
X188441000Y-125601000D01*
X195518000Y-125641000D02*
X193181000Y-125641000D01*
X190819000Y-125641000D02*
X188482000Y-125641000D01*
X195477000Y-125681000D02*
X188523000Y-125681000D01*
X195435000Y-125721000D02*
X188565000Y-125721000D01*
X195391000Y-125761000D02*
X188609000Y-125761000D01*
X195347000Y-125801000D02*
X188653000Y-125801000D01*
X195302000Y-125841000D02*
X188698000Y-125841000D01*
X195255000Y-125881000D02*
X188745000Y-125881000D01*
X195207000Y-125921000D02*
X188793000Y-125921000D01*
X195158000Y-125961000D02*
X188842000Y-125961000D01*
X195108000Y-126001000D02*
X188892000Y-126001000D01*
X195057000Y-126041000D02*
X188943000Y-126041000D01*
X195004000Y-126081000D02*
X188996000Y-126081000D01*
X194949000Y-126121000D02*
X189051000Y-126121000D01*
X194894000Y-126161000D02*
X189106000Y-126161000D01*
X194836000Y-126201000D02*
X189164000Y-126201000D01*
X194777000Y-126241000D02*
X189223000Y-126241000D01*
X194715000Y-126281000D02*
X189285000Y-126281000D01*
X194652000Y-126321000D02*
X189348000Y-126321000D01*
X194587000Y-126361000D02*
X189413000Y-126361000D01*
X194519000Y-126401000D02*
X189481000Y-126401000D01*
X194449000Y-126441000D02*
X189551000Y-126441000D01*
X194377000Y-126481000D02*
X189623000Y-126481000D01*
X194301000Y-126521000D02*
X189699000Y-126521000D01*
X194222000Y-126561000D02*
X189778000Y-126561000D01*
X194140000Y-126601000D02*
X189860000Y-126601000D01*
X194053000Y-126641000D02*
X189947000Y-126641000D01*
X193962000Y-126681000D02*
X190038000Y-126681000D01*
X193866000Y-126721000D02*
X190134000Y-126721000D01*
X193763000Y-126761000D02*
X190237000Y-126761000D01*
X193654000Y-126801000D02*
X190346000Y-126801000D01*
X193536000Y-126841000D02*
X190464000Y-126841000D01*
X193407000Y-126881000D02*
X190593000Y-126881000D01*
X193265000Y-126921000D02*
X190735000Y-126921000D01*
X193104000Y-126961000D02*
X190896000Y-126961000D01*
X192913000Y-127001000D02*
X191087000Y-127001000D01*
X192672000Y-127041000D02*
X191328000Y-127041000D01*
X192279000Y-127081000D02*
X191721000Y-127081000D01*
X192000000Y-116800000D02*
X192000000Y-118300000D01*
X192750000Y-117550000D02*
X191250000Y-117550000D01*
X200630000Y-78310000D02*
X200630000Y-75690000D01*
X200630000Y-75690000D02*
X194210000Y-75690000D01*
X194210000Y-75690000D02*
X194210000Y-78310000D01*
X194210000Y-78310000D02*
X200630000Y-78310000D01*
X201520000Y-77000000D02*
X200630000Y-77000000D01*
X193320000Y-77000000D02*
X194210000Y-77000000D01*
X208690000Y-130060000D02*
X215310000Y-130060000D01*
X215310000Y-130060000D02*
X215310000Y-117940000D01*
X215310000Y-117940000D02*
X208690000Y-117940000D01*
X208690000Y-117940000D02*
X208690000Y-130060000D01*
X212000000Y-130520000D02*
X212000000Y-130060000D01*
X212000000Y-117480000D02*
X212000000Y-117940000D01*
X198310000Y-82870000D02*
X195690000Y-82870000D01*
X195690000Y-82870000D02*
X195690000Y-89290000D01*
X195690000Y-89290000D02*
X198310000Y-89290000D01*
X198310000Y-89290000D02*
X198310000Y-82870000D01*
X197000000Y-81980000D02*
X197000000Y-82870000D01*
X197000000Y-90180000D02*
X197000000Y-89290000D01*
X218310000Y-103870000D02*
X215690000Y-103870000D01*
X215690000Y-103870000D02*
X215690000Y-110290000D01*
X215690000Y-110290000D02*
X218310000Y-110290000D01*
X218310000Y-110290000D02*
X218310000Y-103870000D01*
X217000000Y-102980000D02*
X217000000Y-103870000D01*
X217000000Y-111180000D02*
X217000000Y-110290000D01*
X201390000Y-73810000D02*
X201390000Y-69190000D01*
X201390000Y-69190000D02*
X189370000Y-69190000D01*
X189370000Y-69190000D02*
X189370000Y-73810000D01*
X189370000Y-73810000D02*
X201390000Y-73810000D01*
X201620000Y-71500000D02*
X201390000Y-71500000D01*
X189140000Y-71500000D02*
X189370000Y-71500000D01*
D14*
X221850155Y-80749647D02*
G75*
G03X221850000Y-79250000I-1700155J749647D01*
G01*
X221850155Y-85829647D02*
G75*
G03X221850000Y-84330000I-1700155J749647D01*
G01*
X221850155Y-90909647D02*
G75*
G03X221850000Y-89410000I-1700155J749647D01*
G01*
X221850155Y-95989647D02*
G75*
G03X221850000Y-94490000I-1700155J749647D01*
G01*
X228430000Y-77380000D02*
X221020000Y-77380000D01*
X221020000Y-77380000D02*
X221020000Y-97860000D01*
X221020000Y-97860000D02*
X228430000Y-97860000D01*
X228430000Y-97860000D02*
X228430000Y-77380000D01*
X221850000Y-79250000D02*
X221850000Y-78500000D01*
X221850000Y-78500000D02*
X226150000Y-78500000D01*
X226150000Y-78500000D02*
X226150000Y-79250000D01*
X226150000Y-79250000D02*
X226500000Y-79250000D01*
X226500000Y-79250000D02*
X226500000Y-78750000D01*
X226500000Y-78750000D02*
X227500000Y-78500000D01*
X227500000Y-78500000D02*
X227500000Y-81500000D01*
X227500000Y-81500000D02*
X226500000Y-81250000D01*
X226500000Y-81250000D02*
X226500000Y-80750000D01*
X226500000Y-80750000D02*
X226150000Y-80750000D01*
X226150000Y-80750000D02*
X226150000Y-80750000D01*
X226150000Y-80750000D02*
X226150000Y-81500000D01*
X226150000Y-81500000D02*
X221850000Y-81500000D01*
X221850000Y-81500000D02*
X221850000Y-80750000D01*
X221850000Y-84330000D02*
X221850000Y-83580000D01*
X221850000Y-83580000D02*
X226150000Y-83580000D01*
X226150000Y-83580000D02*
X226150000Y-84330000D01*
X226150000Y-84330000D02*
X226500000Y-84330000D01*
X226500000Y-84330000D02*
X226500000Y-83830000D01*
X226500000Y-83830000D02*
X227500000Y-83580000D01*
X227500000Y-83580000D02*
X227500000Y-86580000D01*
X227500000Y-86580000D02*
X226500000Y-86330000D01*
X226500000Y-86330000D02*
X226500000Y-85830000D01*
X226500000Y-85830000D02*
X226150000Y-85830000D01*
X226150000Y-85830000D02*
X226150000Y-85830000D01*
X226150000Y-85830000D02*
X226150000Y-86580000D01*
X226150000Y-86580000D02*
X221850000Y-86580000D01*
X221850000Y-86580000D02*
X221850000Y-85830000D01*
X221850000Y-89410000D02*
X221850000Y-88660000D01*
X221850000Y-88660000D02*
X226150000Y-88660000D01*
X226150000Y-88660000D02*
X226150000Y-89410000D01*
X226150000Y-89410000D02*
X226500000Y-89410000D01*
X226500000Y-89410000D02*
X226500000Y-88910000D01*
X226500000Y-88910000D02*
X227500000Y-88660000D01*
X227500000Y-88660000D02*
X227500000Y-91660000D01*
X227500000Y-91660000D02*
X226500000Y-91410000D01*
X226500000Y-91410000D02*
X226500000Y-90910000D01*
X226500000Y-90910000D02*
X226150000Y-90910000D01*
X226150000Y-90910000D02*
X226150000Y-90910000D01*
X226150000Y-90910000D02*
X226150000Y-91660000D01*
X226150000Y-91660000D02*
X221850000Y-91660000D01*
X221850000Y-91660000D02*
X221850000Y-90910000D01*
X221850000Y-94490000D02*
X221850000Y-93740000D01*
X221850000Y-93740000D02*
X226150000Y-93740000D01*
X226150000Y-93740000D02*
X226150000Y-94490000D01*
X226150000Y-94490000D02*
X226500000Y-94490000D01*
X226500000Y-94490000D02*
X226500000Y-93990000D01*
X226500000Y-93990000D02*
X227500000Y-93740000D01*
X227500000Y-93740000D02*
X227500000Y-96740000D01*
X227500000Y-96740000D02*
X226500000Y-96490000D01*
X226500000Y-96490000D02*
X226500000Y-95990000D01*
X226500000Y-95990000D02*
X226150000Y-95990000D01*
X226150000Y-95990000D02*
X226150000Y-95990000D01*
X226150000Y-95990000D02*
X226150000Y-96740000D01*
X226150000Y-96740000D02*
X221850000Y-96740000D01*
X221850000Y-96740000D02*
X221850000Y-95990000D01*
X228850000Y-80000000D02*
X229450000Y-80300000D01*
X229450000Y-80300000D02*
X229450000Y-79700000D01*
X229450000Y-79700000D02*
X228850000Y-80000000D01*
X214750353Y-134350155D02*
G75*
G03X216250000Y-134350000I749647J1700155D01*
G01*
X209670353Y-134350155D02*
G75*
G03X211170000Y-134350000I749647J1700155D01*
G01*
X204590353Y-134350155D02*
G75*
G03X206090000Y-134350000I749647J1700155D01*
G01*
X199510353Y-134350155D02*
G75*
G03X201010000Y-134350000I749647J1700155D01*
G01*
X194430353Y-134350155D02*
G75*
G03X195930000Y-134350000I749647J1700155D01*
G01*
X189350353Y-134350155D02*
G75*
G03X190850000Y-134350000I749647J1700155D01*
G01*
X218120000Y-140930000D02*
X218120000Y-133520000D01*
X218120000Y-133520000D02*
X187480000Y-133520000D01*
X187480000Y-133520000D02*
X187480000Y-140930000D01*
X187480000Y-140930000D02*
X218120000Y-140930000D01*
X216250000Y-134350000D02*
X217000000Y-134350000D01*
X217000000Y-134350000D02*
X217000000Y-138650000D01*
X217000000Y-138650000D02*
X216250000Y-138650000D01*
X216250000Y-138650000D02*
X216250000Y-139000000D01*
X216250000Y-139000000D02*
X216750000Y-139000000D01*
X216750000Y-139000000D02*
X217000000Y-140000000D01*
X217000000Y-140000000D02*
X214000000Y-140000000D01*
X214000000Y-140000000D02*
X214250000Y-139000000D01*
X214250000Y-139000000D02*
X214750000Y-139000000D01*
X214750000Y-139000000D02*
X214750000Y-138650000D01*
X214750000Y-138650000D02*
X214750000Y-138650000D01*
X214750000Y-138650000D02*
X214000000Y-138650000D01*
X214000000Y-138650000D02*
X214000000Y-134350000D01*
X214000000Y-134350000D02*
X214750000Y-134350000D01*
X211170000Y-134350000D02*
X211920000Y-134350000D01*
X211920000Y-134350000D02*
X211920000Y-138650000D01*
X211920000Y-138650000D02*
X211170000Y-138650000D01*
X211170000Y-138650000D02*
X211170000Y-139000000D01*
X211170000Y-139000000D02*
X211670000Y-139000000D01*
X211670000Y-139000000D02*
X211920000Y-140000000D01*
X211920000Y-140000000D02*
X208920000Y-140000000D01*
X208920000Y-140000000D02*
X209170000Y-139000000D01*
X209170000Y-139000000D02*
X209670000Y-139000000D01*
X209670000Y-139000000D02*
X209670000Y-138650000D01*
X209670000Y-138650000D02*
X209670000Y-138650000D01*
X209670000Y-138650000D02*
X208920000Y-138650000D01*
X208920000Y-138650000D02*
X208920000Y-134350000D01*
X208920000Y-134350000D02*
X209670000Y-134350000D01*
X206090000Y-134350000D02*
X206840000Y-134350000D01*
X206840000Y-134350000D02*
X206840000Y-138650000D01*
X206840000Y-138650000D02*
X206090000Y-138650000D01*
X206090000Y-138650000D02*
X206090000Y-139000000D01*
X206090000Y-139000000D02*
X206590000Y-139000000D01*
X206590000Y-139000000D02*
X206840000Y-140000000D01*
X206840000Y-140000000D02*
X203840000Y-140000000D01*
X203840000Y-140000000D02*
X204090000Y-139000000D01*
X204090000Y-139000000D02*
X204590000Y-139000000D01*
X204590000Y-139000000D02*
X204590000Y-138650000D01*
X204590000Y-138650000D02*
X204590000Y-138650000D01*
X204590000Y-138650000D02*
X203840000Y-138650000D01*
X203840000Y-138650000D02*
X203840000Y-134350000D01*
X203840000Y-134350000D02*
X204590000Y-134350000D01*
X201010000Y-134350000D02*
X201760000Y-134350000D01*
X201760000Y-134350000D02*
X201760000Y-138650000D01*
X201760000Y-138650000D02*
X201010000Y-138650000D01*
X201010000Y-138650000D02*
X201010000Y-139000000D01*
X201010000Y-139000000D02*
X201510000Y-139000000D01*
X201510000Y-139000000D02*
X201760000Y-140000000D01*
X201760000Y-140000000D02*
X198760000Y-140000000D01*
X198760000Y-140000000D02*
X199010000Y-139000000D01*
X199010000Y-139000000D02*
X199510000Y-139000000D01*
X199510000Y-139000000D02*
X199510000Y-138650000D01*
X199510000Y-138650000D02*
X199510000Y-138650000D01*
X199510000Y-138650000D02*
X198760000Y-138650000D01*
X198760000Y-138650000D02*
X198760000Y-134350000D01*
X198760000Y-134350000D02*
X199510000Y-134350000D01*
X195930000Y-134350000D02*
X196680000Y-134350000D01*
X196680000Y-134350000D02*
X196680000Y-138650000D01*
X196680000Y-138650000D02*
X195930000Y-138650000D01*
X195930000Y-138650000D02*
X195930000Y-139000000D01*
X195930000Y-139000000D02*
X196430000Y-139000000D01*
X196430000Y-139000000D02*
X196680000Y-140000000D01*
X196680000Y-140000000D02*
X193680000Y-140000000D01*
X193680000Y-140000000D02*
X193930000Y-139000000D01*
X193930000Y-139000000D02*
X194430000Y-139000000D01*
X194430000Y-139000000D02*
X194430000Y-138650000D01*
X194430000Y-138650000D02*
X194430000Y-138650000D01*
X194430000Y-138650000D02*
X193680000Y-138650000D01*
X193680000Y-138650000D02*
X193680000Y-134350000D01*
X193680000Y-134350000D02*
X194430000Y-134350000D01*
X190850000Y-134350000D02*
X191600000Y-134350000D01*
X191600000Y-134350000D02*
X191600000Y-138650000D01*
X191600000Y-138650000D02*
X190850000Y-138650000D01*
X190850000Y-138650000D02*
X190850000Y-139000000D01*
X190850000Y-139000000D02*
X191350000Y-139000000D01*
X191350000Y-139000000D02*
X191600000Y-140000000D01*
X191600000Y-140000000D02*
X188600000Y-140000000D01*
X188600000Y-140000000D02*
X188850000Y-139000000D01*
X188850000Y-139000000D02*
X189350000Y-139000000D01*
X189350000Y-139000000D02*
X189350000Y-138650000D01*
X189350000Y-138650000D02*
X189350000Y-138650000D01*
X189350000Y-138650000D02*
X188600000Y-138650000D01*
X188600000Y-138650000D02*
X188600000Y-134350000D01*
X188600000Y-134350000D02*
X189350000Y-134350000D01*
X215500000Y-141350000D02*
X215200000Y-141950000D01*
X215200000Y-141950000D02*
X215800000Y-141950000D01*
X215800000Y-141950000D02*
X215500000Y-141350000D01*
M02*
