M48
;DRILL file {KiCad 4.0.6} date Friday, 28 July 2017 'PMt' 19:46:50
;FORMAT={-:-/ absolute / metric / decimal}
FMAT,2
METRIC,TZ
T1C0.700
T2C0.800
T3C1.000
T4C1.200
T5C2.000
T6C3.200
T7C2.500
T8C3.200
%
G90
G05
M71
T1
X215.Y-79.
X215.Y-84.08
X217.54Y-81.54
T2
X192.34Y-77.
X197.Y-81.
X197.Y-91.16
X200.Y-119.5
X200.Y-129.66
X202.5Y-77.
X202.5Y-80.34
X202.5Y-90.5
X204.Y-119.5
X204.Y-129.66
X207.5Y-79.84
X207.5Y-90.
X212.Y-116.5
X212.Y-131.5
X217.Y-102.
X217.Y-112.16
T3
X192.Y-119.5
X192.Y-124.5
X212.5Y-91.
X217.5Y-91.
T4
X181.Y-103.42
X181.Y-108.5
X186.5Y-85.
X186.5Y-92.5
X187.76Y-71.5
X190.1Y-136.5
X195.18Y-136.5
X200.26Y-136.5
X203.Y-71.5
X205.34Y-136.5
X209.5Y-73.5
X210.42Y-136.5
X214.58Y-73.5
X215.5Y-136.5
X224.Y-80.
X224.Y-85.08
X224.Y-90.16
X224.Y-95.24
X224.Y-103.5
X224.Y-108.58
T5
X192.Y-101.588
X192.Y-108.412
X196.011Y-113.932
X196.011Y-96.068
X202.5Y-93.96
X202.5Y-116.04
X208.989Y-96.068
X208.989Y-113.931
X213.Y-101.588
T6
X180.Y-137.5
T7
X202.5Y-105.
T8
X180.Y-72.5
X225.Y-72.5
X225.Y-137.5
T0
M30
