G04 #@! TF.FileFunction,Copper,L2,Bot,Signal*
%FSLAX46Y46*%
G04 Gerber Fmt 4.6, Leading zero omitted, Abs format (unit mm)*
G04 Created by KiCad (PCBNEW 4.0.6) date Friday, 28 July 2017 'PMt' 19:46:46*
%MOMM*%
%LPD*%
G01*
G04 APERTURE LIST*
%ADD10C,0.100000*%
%ADD11R,2.400000X2.400000*%
%ADD12C,2.400000*%
%ADD13C,1.600000*%
%ADD14O,1.600000X1.600000*%
%ADD15C,6.400000*%
%ADD16C,1.260000*%
%ADD17R,3.600000X1.800000*%
%ADD18O,3.600000X1.800000*%
%ADD19R,1.800000X3.600000*%
%ADD20O,1.800000X3.600000*%
%ADD21R,2.000000X2.000000*%
%ADD22C,2.000000*%
%ADD23C,3.000000*%
%ADD24O,2.400000X2.400000*%
%ADD25C,1.000000*%
%ADD26C,2.000000*%
%ADD27C,0.800000*%
G04 APERTURE END LIST*
D10*
D11*
X186500000Y-85000000D03*
D12*
X186500000Y-92500000D03*
D13*
X207500000Y-90000000D03*
D14*
X207500000Y-79840000D03*
D15*
X180000000Y-137500000D03*
D13*
X200000000Y-119500000D03*
D14*
X200000000Y-129660000D03*
D16*
X215000000Y-84080000D03*
X217540000Y-81540000D03*
X215000000Y-79000000D03*
D17*
X224000000Y-103500000D03*
D18*
X224000000Y-108580000D03*
D17*
X181000000Y-108500000D03*
D18*
X181000000Y-103420000D03*
D19*
X209500000Y-73500000D03*
D20*
X214580000Y-73500000D03*
D13*
X202500000Y-90500000D03*
D14*
X202500000Y-80340000D03*
D13*
X204000000Y-119500000D03*
D14*
X204000000Y-129660000D03*
D21*
X212500000Y-91000000D03*
D22*
X217500000Y-91000000D03*
D21*
X192000000Y-119500000D03*
D22*
X192000000Y-124500000D03*
D23*
X208989435Y-113931484D03*
X202500041Y-116040367D03*
X196010602Y-113931820D03*
X192000019Y-108411708D03*
X191999956Y-101588329D03*
X196010688Y-96068136D03*
X202499959Y-93959633D03*
X208989398Y-96068180D03*
X212999981Y-101588292D03*
D13*
X202500000Y-77000000D03*
D14*
X192340000Y-77000000D03*
D13*
X212000000Y-131500000D03*
D14*
X212000000Y-116500000D03*
D13*
X197000000Y-81000000D03*
D14*
X197000000Y-91160000D03*
D13*
X217000000Y-102000000D03*
D14*
X217000000Y-112160000D03*
D12*
X203000000Y-71500000D03*
D24*
X187760000Y-71500000D03*
D17*
X224000000Y-80000000D03*
D18*
X224000000Y-85080000D03*
X224000000Y-90160000D03*
X224000000Y-95240000D03*
D19*
X215500000Y-136500000D03*
D20*
X210420000Y-136500000D03*
X205340000Y-136500000D03*
X200260000Y-136500000D03*
X195180000Y-136500000D03*
X190100000Y-136500000D03*
D25*
X212500000Y-91000000D02*
X208500000Y-91000000D01*
X208500000Y-91000000D02*
X207500000Y-90000000D01*
X207500000Y-90000000D02*
X207500000Y-94578782D01*
X207500000Y-94578782D02*
X208989398Y-96068180D01*
X190100000Y-136500000D02*
X195180000Y-136500000D01*
X195180000Y-136500000D02*
X195180000Y-134480000D01*
X195180000Y-134480000D02*
X200000000Y-129660000D01*
X186500000Y-92500000D02*
X186500000Y-119000000D01*
X186500000Y-119000000D02*
X192000000Y-124500000D01*
X192000000Y-124500000D02*
X194840000Y-124500000D01*
X194840000Y-124500000D02*
X200000000Y-129660000D01*
X197000000Y-81000000D02*
X190500000Y-81000000D01*
X190500000Y-81000000D02*
X186500000Y-85000000D01*
X187760000Y-71500000D02*
X187760000Y-83740000D01*
D26*
X187760000Y-83740000D02*
X186500000Y-85000000D01*
X187760000Y-71500000D02*
X196500000Y-71500000D01*
X208500000Y-74500000D02*
X209500000Y-73500000D01*
X199500000Y-74500000D02*
X208500000Y-74500000D01*
X196500000Y-71500000D02*
X199500000Y-74500000D01*
D25*
X192000000Y-119500000D02*
X200000000Y-119500000D01*
X196010602Y-113931820D02*
X196010602Y-115510602D01*
X196010602Y-115510602D02*
X200000000Y-119500000D01*
X215500000Y-136500000D02*
X215500000Y-135000000D01*
X215500000Y-135000000D02*
X212000000Y-131500000D01*
X205340000Y-136500000D02*
X205340000Y-131000000D01*
X205340000Y-131000000D02*
X204000000Y-129660000D01*
X217500000Y-91000000D02*
X223160000Y-91000000D01*
X223160000Y-91000000D02*
X224000000Y-90160000D01*
X215000000Y-79000000D02*
X223000000Y-79000000D01*
X223000000Y-79000000D02*
X224000000Y-80000000D01*
X202500000Y-90500000D02*
X202500000Y-93959592D01*
D26*
X202500000Y-93959592D02*
X202499959Y-93959633D01*
D25*
X202500000Y-93921122D02*
X202461421Y-93959701D01*
D26*
X202500000Y-80340000D02*
X202840000Y-80340000D01*
D25*
X202840000Y-80340000D02*
X205000000Y-82500000D01*
X212460000Y-81540000D02*
X217540000Y-81540000D01*
X211500000Y-82500000D02*
X212460000Y-81540000D01*
X205000000Y-82500000D02*
X211500000Y-82500000D01*
X202500000Y-77000000D02*
X202500000Y-80340000D01*
X202500000Y-79840000D02*
X202660000Y-79840000D01*
X197000000Y-91160000D02*
X197000000Y-95078824D01*
X197000000Y-95078824D02*
X196010688Y-96068136D01*
X212000000Y-116500000D02*
X212660000Y-116500000D01*
X212660000Y-116500000D02*
X217000000Y-112160000D01*
X212000000Y-116500000D02*
X211557951Y-116500000D01*
X211557951Y-116500000D02*
X208989435Y-113931484D01*
D26*
X192000019Y-108411708D02*
X192000019Y-101588392D01*
X192000019Y-101588392D02*
X191999956Y-101588329D01*
D25*
X204000000Y-119500000D02*
X204000000Y-117540326D01*
X204000000Y-117540326D02*
X202500041Y-116040367D01*
X202500000Y-116040408D02*
X202500041Y-116040367D01*
D26*
X214580000Y-73500000D02*
X214580000Y-70580000D01*
X205000000Y-69500000D02*
X203000000Y-71500000D01*
X213500000Y-69500000D02*
X205000000Y-69500000D01*
X214580000Y-70580000D02*
X213500000Y-69500000D01*
D27*
G36*
X202123281Y-69265449D02*
X201642285Y-69464192D01*
X200966565Y-70138734D01*
X200600417Y-71020516D01*
X200599584Y-71975295D01*
X200733749Y-72300000D01*
X200411270Y-72300000D01*
X198055635Y-69944365D01*
X198033246Y-69929405D01*
X197341904Y-69467465D01*
X196500000Y-69300000D01*
X188751367Y-69300000D01*
X188725459Y-69282689D01*
X187807019Y-69100000D01*
X187712981Y-69100000D01*
X186794541Y-69282689D01*
X186015925Y-69802944D01*
X185495670Y-70581560D01*
X185312981Y-71500000D01*
X185495670Y-72418440D01*
X186015925Y-73197056D01*
X186060000Y-73226506D01*
X186060000Y-82328730D01*
X185812239Y-82576491D01*
X185300000Y-82576491D01*
X184855307Y-82660166D01*
X184446883Y-82922979D01*
X184172886Y-83323986D01*
X184076491Y-83800000D01*
X184076491Y-86200000D01*
X184160166Y-86644693D01*
X184422979Y-87053117D01*
X184823986Y-87327114D01*
X185300000Y-87423509D01*
X187700000Y-87423509D01*
X188144693Y-87339834D01*
X188553117Y-87077021D01*
X188827114Y-86676014D01*
X188923509Y-86200000D01*
X188923509Y-85687761D01*
X189315635Y-85295635D01*
X189792535Y-84581903D01*
X189909306Y-83994858D01*
X191204163Y-82700000D01*
X195878788Y-82700000D01*
X196600430Y-82999652D01*
X197396079Y-83000346D01*
X198131429Y-82696506D01*
X198694529Y-82134388D01*
X198999652Y-81399570D01*
X199000346Y-80603921D01*
X198696506Y-79868571D01*
X198134388Y-79305471D01*
X197399570Y-79000348D01*
X196603921Y-78999654D01*
X195877027Y-79300000D01*
X190500000Y-79300000D01*
X189849438Y-79429405D01*
X189460000Y-79689619D01*
X189460000Y-77000000D01*
X190300818Y-77000000D01*
X190453059Y-77765367D01*
X190886604Y-78414214D01*
X191535451Y-78847759D01*
X192300818Y-79000000D01*
X192379182Y-79000000D01*
X193144549Y-78847759D01*
X193793396Y-78414214D01*
X194226941Y-77765367D01*
X194379182Y-77000000D01*
X194226941Y-76234633D01*
X193793396Y-75585786D01*
X193144549Y-75152241D01*
X192379182Y-75000000D01*
X192300818Y-75000000D01*
X191535451Y-75152241D01*
X190886604Y-75585786D01*
X190453059Y-76234633D01*
X190300818Y-77000000D01*
X189460000Y-77000000D01*
X189460000Y-73700000D01*
X195588730Y-73700000D01*
X197944365Y-76055635D01*
X198658097Y-76532536D01*
X199500000Y-76700000D01*
X200500261Y-76700000D01*
X200499654Y-77396079D01*
X200800000Y-78122973D01*
X200800000Y-79000422D01*
X200467465Y-79498096D01*
X200300000Y-80340000D01*
X200467465Y-81181904D01*
X200944365Y-81895635D01*
X201658096Y-82372535D01*
X202500000Y-82540000D01*
X202635836Y-82540000D01*
X203797916Y-83702079D01*
X203797918Y-83702082D01*
X204349438Y-84070595D01*
X205000000Y-84200000D01*
X211499995Y-84200000D01*
X211500000Y-84200001D01*
X212150562Y-84070595D01*
X212702082Y-83702082D01*
X213164164Y-83240000D01*
X213367304Y-83240000D01*
X213170318Y-83714393D01*
X213169683Y-84442413D01*
X213447697Y-85115258D01*
X213962035Y-85630494D01*
X214634393Y-85909682D01*
X215362413Y-85910317D01*
X216035258Y-85632303D01*
X216129497Y-85538228D01*
X220846108Y-85538228D01*
X220936808Y-85867784D01*
X221402943Y-86635635D01*
X222127440Y-87166655D01*
X223000000Y-87380000D01*
X223900000Y-87380000D01*
X223900000Y-85180000D01*
X224100000Y-85180000D01*
X224100000Y-87380000D01*
X225000000Y-87380000D01*
X225872560Y-87166655D01*
X226597057Y-86635635D01*
X227063192Y-85867784D01*
X227153892Y-85538228D01*
X226847434Y-85180000D01*
X224100000Y-85180000D01*
X223900000Y-85180000D01*
X221152566Y-85180000D01*
X220846108Y-85538228D01*
X216129497Y-85538228D01*
X216550494Y-85117965D01*
X216756531Y-84621772D01*
X220846108Y-84621772D01*
X221152566Y-84980000D01*
X223900000Y-84980000D01*
X223900000Y-82780000D01*
X224100000Y-82780000D01*
X224100000Y-84980000D01*
X226847434Y-84980000D01*
X227153892Y-84621772D01*
X227063192Y-84292216D01*
X226597057Y-83524365D01*
X225872560Y-82993345D01*
X225000000Y-82780000D01*
X224100000Y-82780000D01*
X223900000Y-82780000D01*
X223000000Y-82780000D01*
X222127440Y-82993345D01*
X221402943Y-83524365D01*
X220936808Y-84292216D01*
X220846108Y-84621772D01*
X216756531Y-84621772D01*
X216829682Y-84445607D01*
X216830317Y-83717587D01*
X216632982Y-83240000D01*
X216862085Y-83240000D01*
X217174393Y-83369682D01*
X217902413Y-83370317D01*
X218575258Y-83092303D01*
X219090494Y-82577965D01*
X219369682Y-81905607D01*
X219370317Y-81177587D01*
X219172982Y-80700000D01*
X220976491Y-80700000D01*
X220976491Y-80900000D01*
X221060166Y-81344693D01*
X221322979Y-81753117D01*
X221723986Y-82027114D01*
X222200000Y-82123509D01*
X225800000Y-82123509D01*
X226244693Y-82039834D01*
X226653117Y-81777021D01*
X226927114Y-81376014D01*
X227023509Y-80900000D01*
X227023509Y-79100000D01*
X226939834Y-78655307D01*
X226677021Y-78246883D01*
X226276014Y-77972886D01*
X225800000Y-77876491D01*
X224280655Y-77876491D01*
X224202082Y-77797918D01*
X223650562Y-77429405D01*
X223000000Y-77299999D01*
X222999995Y-77300000D01*
X215677915Y-77300000D01*
X215365607Y-77170318D01*
X214637587Y-77169683D01*
X213964742Y-77447697D01*
X213449506Y-77962035D01*
X213170318Y-78634393D01*
X213169683Y-79362413D01*
X213367018Y-79840000D01*
X212460005Y-79840000D01*
X212460000Y-79839999D01*
X211809438Y-79969405D01*
X211257918Y-80337918D01*
X210795836Y-80800000D01*
X209243890Y-80800000D01*
X209347759Y-80644549D01*
X209500000Y-79879182D01*
X209500000Y-79800818D01*
X209347759Y-79035451D01*
X208914214Y-78386604D01*
X208265367Y-77953059D01*
X207500000Y-77800818D01*
X206734633Y-77953059D01*
X206085786Y-78386604D01*
X205652241Y-79035451D01*
X205500000Y-79800818D01*
X205500000Y-79879182D01*
X205652241Y-80644549D01*
X205756110Y-80800000D01*
X205704163Y-80800000D01*
X204989306Y-80085142D01*
X204872535Y-79498096D01*
X204395635Y-78784365D01*
X204200000Y-78653646D01*
X204200000Y-78121212D01*
X204499652Y-77399570D01*
X204500262Y-76700000D01*
X208500000Y-76700000D01*
X209341904Y-76532535D01*
X209355412Y-76523509D01*
X210400000Y-76523509D01*
X210844693Y-76439834D01*
X211253117Y-76177021D01*
X211527114Y-75776014D01*
X211623509Y-75300000D01*
X211623509Y-73884548D01*
X211700000Y-73500000D01*
X211623509Y-73115451D01*
X211623509Y-71700000D01*
X212380000Y-71700000D01*
X212380000Y-73500000D01*
X212480000Y-74002734D01*
X212480000Y-74458773D01*
X212639853Y-75262408D01*
X213095076Y-75943697D01*
X213776365Y-76398920D01*
X214580000Y-76558773D01*
X215383635Y-76398920D01*
X216064924Y-75943697D01*
X216520147Y-75262408D01*
X216680000Y-74458773D01*
X216680000Y-74002734D01*
X216780000Y-73500000D01*
X216780000Y-73054511D01*
X222199515Y-73054511D01*
X222624892Y-74084000D01*
X223411857Y-74872340D01*
X224440602Y-75299513D01*
X225554511Y-75300485D01*
X226584000Y-74875108D01*
X227372340Y-74088143D01*
X227799513Y-73059398D01*
X227800485Y-71945489D01*
X227375108Y-70916000D01*
X226588143Y-70127660D01*
X225559398Y-69700487D01*
X224445489Y-69699515D01*
X223416000Y-70124892D01*
X222627660Y-70911857D01*
X222200487Y-71940602D01*
X222199515Y-73054511D01*
X216780000Y-73054511D01*
X216780000Y-70580000D01*
X216732640Y-70341903D01*
X216612536Y-69738097D01*
X216135635Y-69024365D01*
X215886270Y-68775000D01*
X228725000Y-68775000D01*
X228725000Y-141225000D01*
X182732734Y-141225000D01*
X182997402Y-140638824D01*
X180000000Y-137641421D01*
X177002598Y-140638824D01*
X177267266Y-141225000D01*
X176275000Y-141225000D01*
X176275000Y-140232734D01*
X176861176Y-140497402D01*
X179858579Y-137500000D01*
X180141421Y-137500000D01*
X183138824Y-140497402D01*
X183852302Y-140175255D01*
X184582839Y-138497402D01*
X184615681Y-136667703D01*
X183945826Y-134964713D01*
X183852302Y-134824745D01*
X183138824Y-134502598D01*
X180141421Y-137500000D01*
X179858579Y-137500000D01*
X176861176Y-134502598D01*
X176275000Y-134767266D01*
X176275000Y-134361176D01*
X177002598Y-134361176D01*
X180000000Y-137358579D01*
X182997402Y-134361176D01*
X182675255Y-133647698D01*
X180997402Y-132917161D01*
X179167703Y-132884319D01*
X177464713Y-133554174D01*
X177324745Y-133647698D01*
X177002598Y-134361176D01*
X176275000Y-134361176D01*
X176275000Y-107600000D01*
X177976491Y-107600000D01*
X177976491Y-109400000D01*
X178060166Y-109844693D01*
X178322979Y-110253117D01*
X178723986Y-110527114D01*
X179200000Y-110623509D01*
X182800000Y-110623509D01*
X183244693Y-110539834D01*
X183653117Y-110277021D01*
X183927114Y-109876014D01*
X184023509Y-109400000D01*
X184023509Y-107600000D01*
X183939834Y-107155307D01*
X183677021Y-106746883D01*
X183276014Y-106472886D01*
X182800000Y-106376491D01*
X179200000Y-106376491D01*
X178755307Y-106460166D01*
X178346883Y-106722979D01*
X178072886Y-107123986D01*
X177976491Y-107600000D01*
X176275000Y-107600000D01*
X176275000Y-103420000D01*
X177941227Y-103420000D01*
X178101080Y-104223635D01*
X178556303Y-104904924D01*
X179237592Y-105360147D01*
X180041227Y-105520000D01*
X181958773Y-105520000D01*
X182762408Y-105360147D01*
X183443697Y-104904924D01*
X183898920Y-104223635D01*
X184058773Y-103420000D01*
X183898920Y-102616365D01*
X183443697Y-101935076D01*
X182762408Y-101479853D01*
X181958773Y-101320000D01*
X180041227Y-101320000D01*
X179237592Y-101479853D01*
X178556303Y-101935076D01*
X178101080Y-102616365D01*
X177941227Y-103420000D01*
X176275000Y-103420000D01*
X176275000Y-92975295D01*
X184099584Y-92975295D01*
X184464192Y-93857715D01*
X184800000Y-94194109D01*
X184800000Y-118999995D01*
X184799999Y-119000000D01*
X184929405Y-119650562D01*
X185297918Y-120202082D01*
X189799821Y-124703984D01*
X189799619Y-124935687D01*
X190133843Y-125744572D01*
X190752173Y-126363982D01*
X191560473Y-126699618D01*
X192435687Y-126700381D01*
X193244572Y-126366157D01*
X193411019Y-126200000D01*
X194135836Y-126200000D01*
X197595836Y-129660000D01*
X193977918Y-133277918D01*
X193609405Y-133829438D01*
X193508835Y-134335032D01*
X193239853Y-134737592D01*
X193227439Y-134800000D01*
X192052561Y-134800000D01*
X192040147Y-134737592D01*
X191584924Y-134056303D01*
X190903635Y-133601080D01*
X190100000Y-133441227D01*
X189296365Y-133601080D01*
X188615076Y-134056303D01*
X188159853Y-134737592D01*
X188000000Y-135541227D01*
X188000000Y-137458773D01*
X188159853Y-138262408D01*
X188615076Y-138943697D01*
X189296365Y-139398920D01*
X190100000Y-139558773D01*
X190903635Y-139398920D01*
X191584924Y-138943697D01*
X192040147Y-138262408D01*
X192052561Y-138200000D01*
X193227439Y-138200000D01*
X193239853Y-138262408D01*
X193695076Y-138943697D01*
X194376365Y-139398920D01*
X195180000Y-139558773D01*
X195983635Y-139398920D01*
X196664924Y-138943697D01*
X197120147Y-138262408D01*
X197280000Y-137458773D01*
X197280000Y-136600000D01*
X197960000Y-136600000D01*
X197960000Y-137500000D01*
X198173345Y-138372560D01*
X198704365Y-139097057D01*
X199472216Y-139563192D01*
X199801772Y-139653892D01*
X200160000Y-139347434D01*
X200160000Y-136600000D01*
X200360000Y-136600000D01*
X200360000Y-139347434D01*
X200718228Y-139653892D01*
X201047784Y-139563192D01*
X201815635Y-139097057D01*
X202346655Y-138372560D01*
X202560000Y-137500000D01*
X202560000Y-136600000D01*
X200360000Y-136600000D01*
X200160000Y-136600000D01*
X197960000Y-136600000D01*
X197280000Y-136600000D01*
X197280000Y-135541227D01*
X197271800Y-135500000D01*
X197960000Y-135500000D01*
X197960000Y-136400000D01*
X200160000Y-136400000D01*
X200160000Y-133652566D01*
X200360000Y-133652566D01*
X200360000Y-136400000D01*
X202560000Y-136400000D01*
X202560000Y-135500000D01*
X202346655Y-134627440D01*
X201815635Y-133902943D01*
X201047784Y-133436808D01*
X200718228Y-133346108D01*
X200360000Y-133652566D01*
X200160000Y-133652566D01*
X199801772Y-133346108D01*
X199472216Y-133436808D01*
X198704365Y-133902943D01*
X198173345Y-134627440D01*
X197960000Y-135500000D01*
X197271800Y-135500000D01*
X197154395Y-134909769D01*
X200455607Y-131608556D01*
X200765367Y-131546941D01*
X201414214Y-131113396D01*
X201847759Y-130464549D01*
X202000000Y-129699182D01*
X202152241Y-130464549D01*
X202585786Y-131113396D01*
X203234633Y-131546941D01*
X203544393Y-131608556D01*
X203640000Y-131704163D01*
X203640000Y-134378187D01*
X203399853Y-134737592D01*
X203240000Y-135541227D01*
X203240000Y-137458773D01*
X203399853Y-138262408D01*
X203855076Y-138943697D01*
X204536365Y-139398920D01*
X205340000Y-139558773D01*
X206143635Y-139398920D01*
X206824924Y-138943697D01*
X207280147Y-138262408D01*
X207440000Y-137458773D01*
X207440000Y-136600000D01*
X208120000Y-136600000D01*
X208120000Y-137500000D01*
X208333345Y-138372560D01*
X208864365Y-139097057D01*
X209632216Y-139563192D01*
X209961772Y-139653892D01*
X210320000Y-139347434D01*
X210320000Y-136600000D01*
X210520000Y-136600000D01*
X210520000Y-139347434D01*
X210878228Y-139653892D01*
X211207784Y-139563192D01*
X211975635Y-139097057D01*
X212506655Y-138372560D01*
X212720000Y-137500000D01*
X212720000Y-136600000D01*
X210520000Y-136600000D01*
X210320000Y-136600000D01*
X208120000Y-136600000D01*
X207440000Y-136600000D01*
X207440000Y-135541227D01*
X207431800Y-135500000D01*
X208120000Y-135500000D01*
X208120000Y-136400000D01*
X210320000Y-136400000D01*
X210320000Y-133652566D01*
X210520000Y-133652566D01*
X210520000Y-136400000D01*
X212720000Y-136400000D01*
X212720000Y-135500000D01*
X212506655Y-134627440D01*
X211975635Y-133902943D01*
X211207784Y-133436808D01*
X210878228Y-133346108D01*
X210520000Y-133652566D01*
X210320000Y-133652566D01*
X209961772Y-133346108D01*
X209632216Y-133436808D01*
X208864365Y-133902943D01*
X208333345Y-134627440D01*
X208120000Y-135500000D01*
X207431800Y-135500000D01*
X207280147Y-134737592D01*
X207040000Y-134378187D01*
X207040000Y-131896079D01*
X209999654Y-131896079D01*
X210303494Y-132631429D01*
X210865612Y-133194529D01*
X211591979Y-133496143D01*
X213376491Y-135280654D01*
X213376491Y-138300000D01*
X213460166Y-138744693D01*
X213722979Y-139153117D01*
X214123986Y-139427114D01*
X214600000Y-139523509D01*
X216400000Y-139523509D01*
X216844693Y-139439834D01*
X217253117Y-139177021D01*
X217527114Y-138776014D01*
X217623509Y-138300000D01*
X217623509Y-138054511D01*
X222199515Y-138054511D01*
X222624892Y-139084000D01*
X223411857Y-139872340D01*
X224440602Y-140299513D01*
X225554511Y-140300485D01*
X226584000Y-139875108D01*
X227372340Y-139088143D01*
X227799513Y-138059398D01*
X227800485Y-136945489D01*
X227375108Y-135916000D01*
X226588143Y-135127660D01*
X225559398Y-134700487D01*
X224445489Y-134699515D01*
X223416000Y-135124892D01*
X222627660Y-135911857D01*
X222200487Y-136940602D01*
X222199515Y-138054511D01*
X217623509Y-138054511D01*
X217623509Y-134700000D01*
X217539834Y-134255307D01*
X217277021Y-133846883D01*
X216876014Y-133572886D01*
X216400000Y-133476491D01*
X216380654Y-133476491D01*
X213994897Y-131090733D01*
X213696506Y-130368571D01*
X213134388Y-129805471D01*
X212399570Y-129500348D01*
X211603921Y-129499654D01*
X210868571Y-129803494D01*
X210305471Y-130365612D01*
X210000348Y-131100430D01*
X209999654Y-131896079D01*
X207040000Y-131896079D01*
X207040000Y-131000005D01*
X207040001Y-131000000D01*
X206910595Y-130349438D01*
X206884619Y-130310562D01*
X206542082Y-129797918D01*
X206542079Y-129797916D01*
X205909374Y-129165211D01*
X205847759Y-128855451D01*
X205414214Y-128206604D01*
X204765367Y-127773059D01*
X204000000Y-127620818D01*
X203234633Y-127773059D01*
X202585786Y-128206604D01*
X202152241Y-128855451D01*
X202000000Y-129620818D01*
X201847759Y-128855451D01*
X201414214Y-128206604D01*
X200765367Y-127773059D01*
X200455608Y-127711444D01*
X196042082Y-123297918D01*
X195490562Y-122929405D01*
X194840000Y-122799999D01*
X194839995Y-122800000D01*
X193411523Y-122800000D01*
X193247827Y-122636018D01*
X192439527Y-122300382D01*
X192204340Y-122300177D01*
X191627672Y-121723509D01*
X193000000Y-121723509D01*
X193444693Y-121639834D01*
X193853117Y-121377021D01*
X193974071Y-121200000D01*
X198878788Y-121200000D01*
X199600430Y-121499652D01*
X200396079Y-121500346D01*
X201131429Y-121196506D01*
X201694529Y-120634388D01*
X201999652Y-119899570D01*
X201999655Y-119896082D01*
X202303494Y-120631429D01*
X202865612Y-121194529D01*
X203600430Y-121499652D01*
X204396079Y-121500346D01*
X205131429Y-121196506D01*
X205694529Y-120634388D01*
X205999652Y-119899570D01*
X206000346Y-119103921D01*
X205700000Y-118377027D01*
X205700000Y-117540326D01*
X205570595Y-116889764D01*
X205202082Y-116338244D01*
X205202079Y-116338242D01*
X205199784Y-116335947D01*
X205200509Y-115505660D01*
X204790324Y-114512938D01*
X204743659Y-114466191D01*
X206288967Y-114466191D01*
X206699152Y-115458913D01*
X207458011Y-116219098D01*
X208450016Y-116631014D01*
X209285531Y-116631744D01*
X210355867Y-117702079D01*
X210355869Y-117702082D01*
X210467866Y-117776916D01*
X210585786Y-117953396D01*
X211234633Y-118386941D01*
X212000000Y-118539182D01*
X212765367Y-118386941D01*
X213208400Y-118090917D01*
X213310562Y-118070595D01*
X213862082Y-117702082D01*
X217455607Y-114108556D01*
X217765367Y-114046941D01*
X218414214Y-113613396D01*
X218847759Y-112964549D01*
X219000000Y-112199182D01*
X219000000Y-112120818D01*
X218847759Y-111355451D01*
X218414214Y-110706604D01*
X217765367Y-110273059D01*
X217000000Y-110120818D01*
X216234633Y-110273059D01*
X215585786Y-110706604D01*
X215152241Y-111355451D01*
X215090626Y-111665211D01*
X212246072Y-114509765D01*
X212000000Y-114460818D01*
X211935719Y-114473604D01*
X211689178Y-114227064D01*
X211689903Y-113396777D01*
X211279718Y-112404055D01*
X210520859Y-111643870D01*
X209528854Y-111231954D01*
X208454728Y-111231016D01*
X207462006Y-111641201D01*
X206701821Y-112400060D01*
X206289905Y-113392065D01*
X206288967Y-114466191D01*
X204743659Y-114466191D01*
X204031465Y-113752753D01*
X203039460Y-113340837D01*
X201965334Y-113339899D01*
X200972612Y-113750084D01*
X200212427Y-114508943D01*
X199800511Y-115500948D01*
X199799573Y-116575074D01*
X200025133Y-117120969D01*
X198318517Y-115414353D01*
X198710132Y-114471239D01*
X198711070Y-113397113D01*
X198300885Y-112404391D01*
X197542026Y-111644206D01*
X196550021Y-111232290D01*
X195475895Y-111231352D01*
X194483173Y-111641537D01*
X193722988Y-112400396D01*
X193311072Y-113392401D01*
X193310134Y-114466527D01*
X193720319Y-115459249D01*
X194478463Y-116218718D01*
X194808520Y-116712684D01*
X195895836Y-117800000D01*
X193975549Y-117800000D01*
X193877021Y-117646883D01*
X193476014Y-117372886D01*
X193000000Y-117276491D01*
X191000000Y-117276491D01*
X190555307Y-117360166D01*
X190146883Y-117622979D01*
X189872886Y-118023986D01*
X189776491Y-118500000D01*
X189776491Y-119872327D01*
X188200000Y-118295836D01*
X188200000Y-102123036D01*
X189299488Y-102123036D01*
X189709673Y-103115758D01*
X189800019Y-103206262D01*
X189800019Y-106792823D01*
X189712405Y-106880284D01*
X189300489Y-107872289D01*
X189299551Y-108946415D01*
X189709736Y-109939137D01*
X190468595Y-110699322D01*
X191460600Y-111111238D01*
X192534726Y-111112176D01*
X193527448Y-110701991D01*
X194287633Y-109943132D01*
X194699549Y-108951127D01*
X194699873Y-108580000D01*
X220941227Y-108580000D01*
X221101080Y-109383635D01*
X221556303Y-110064924D01*
X222237592Y-110520147D01*
X223041227Y-110680000D01*
X224958773Y-110680000D01*
X225762408Y-110520147D01*
X226443697Y-110064924D01*
X226898920Y-109383635D01*
X227058773Y-108580000D01*
X226898920Y-107776365D01*
X226443697Y-107095076D01*
X225762408Y-106639853D01*
X224958773Y-106480000D01*
X223041227Y-106480000D01*
X222237592Y-106639853D01*
X221556303Y-107095076D01*
X221101080Y-107776365D01*
X220941227Y-108580000D01*
X194699873Y-108580000D01*
X194700487Y-107877001D01*
X194290302Y-106884279D01*
X194200019Y-106793838D01*
X194200019Y-105485197D01*
X200049576Y-105485197D01*
X200421780Y-106386000D01*
X201110375Y-107075798D01*
X202010527Y-107449573D01*
X202985197Y-107450424D01*
X203886000Y-107078220D01*
X204575798Y-106389625D01*
X204949573Y-105489473D01*
X204950424Y-104514803D01*
X204578220Y-103614000D01*
X203889625Y-102924202D01*
X202989473Y-102550427D01*
X202014803Y-102549576D01*
X201114000Y-102921780D01*
X200424202Y-103610375D01*
X200050427Y-104510527D01*
X200049576Y-105485197D01*
X194200019Y-105485197D01*
X194200019Y-103207151D01*
X194287570Y-103119753D01*
X194699486Y-102127748D01*
X194699490Y-102122999D01*
X210299513Y-102122999D01*
X210709698Y-103115721D01*
X211468557Y-103875906D01*
X212460562Y-104287822D01*
X213534688Y-104288760D01*
X214527410Y-103878575D01*
X215287595Y-103119716D01*
X215293138Y-103106366D01*
X215303494Y-103131429D01*
X215865612Y-103694529D01*
X216600430Y-103999652D01*
X217396079Y-104000346D01*
X218131429Y-103696506D01*
X218694529Y-103134388D01*
X218916426Y-102600000D01*
X220976491Y-102600000D01*
X220976491Y-104400000D01*
X221060166Y-104844693D01*
X221322979Y-105253117D01*
X221723986Y-105527114D01*
X222200000Y-105623509D01*
X225800000Y-105623509D01*
X226244693Y-105539834D01*
X226653117Y-105277021D01*
X226927114Y-104876014D01*
X227023509Y-104400000D01*
X227023509Y-102600000D01*
X226939834Y-102155307D01*
X226677021Y-101746883D01*
X226276014Y-101472886D01*
X225800000Y-101376491D01*
X222200000Y-101376491D01*
X221755307Y-101460166D01*
X221346883Y-101722979D01*
X221072886Y-102123986D01*
X220976491Y-102600000D01*
X218916426Y-102600000D01*
X218999652Y-102399570D01*
X219000346Y-101603921D01*
X218696506Y-100868571D01*
X218134388Y-100305471D01*
X217399570Y-100000348D01*
X216603921Y-99999654D01*
X215868571Y-100303494D01*
X215530119Y-100641356D01*
X215290264Y-100060863D01*
X214531405Y-99300678D01*
X213539400Y-98888762D01*
X212465274Y-98887824D01*
X211472552Y-99298009D01*
X210712367Y-100056868D01*
X210300451Y-101048873D01*
X210299513Y-102122999D01*
X194699490Y-102122999D01*
X194700424Y-101053622D01*
X194290239Y-100060900D01*
X193531380Y-99300715D01*
X192539375Y-98888799D01*
X191465249Y-98887861D01*
X190472527Y-99298046D01*
X189712342Y-100056905D01*
X189300426Y-101048910D01*
X189299488Y-102123036D01*
X188200000Y-102123036D01*
X188200000Y-96602843D01*
X193310220Y-96602843D01*
X193720405Y-97595565D01*
X194479264Y-98355750D01*
X195471269Y-98767666D01*
X196545395Y-98768604D01*
X197538117Y-98358419D01*
X198298302Y-97599560D01*
X198710218Y-96607555D01*
X198711156Y-95533429D01*
X198642584Y-95367473D01*
X198700000Y-95078824D01*
X198700000Y-94494340D01*
X199799491Y-94494340D01*
X200209676Y-95487062D01*
X200968535Y-96247247D01*
X201960540Y-96659163D01*
X203034666Y-96660101D01*
X204027388Y-96249916D01*
X204787573Y-95491057D01*
X205199489Y-94499052D01*
X205200427Y-93424926D01*
X204790242Y-92432204D01*
X204200000Y-91840931D01*
X204200000Y-91621212D01*
X204499652Y-90899570D01*
X204500091Y-90396079D01*
X205499654Y-90396079D01*
X205800000Y-91122973D01*
X205800000Y-94578777D01*
X205799999Y-94578782D01*
X205929405Y-95229344D01*
X206289659Y-95768503D01*
X206288930Y-96602887D01*
X206699115Y-97595609D01*
X207457974Y-98355794D01*
X208449979Y-98767710D01*
X209524105Y-98768648D01*
X210516827Y-98358463D01*
X211277012Y-97599604D01*
X211688928Y-96607599D01*
X211689722Y-95698228D01*
X220846108Y-95698228D01*
X220936808Y-96027784D01*
X221402943Y-96795635D01*
X222127440Y-97326655D01*
X223000000Y-97540000D01*
X223900000Y-97540000D01*
X223900000Y-95340000D01*
X224100000Y-95340000D01*
X224100000Y-97540000D01*
X225000000Y-97540000D01*
X225872560Y-97326655D01*
X226597057Y-96795635D01*
X227063192Y-96027784D01*
X227153892Y-95698228D01*
X226847434Y-95340000D01*
X224100000Y-95340000D01*
X223900000Y-95340000D01*
X221152566Y-95340000D01*
X220846108Y-95698228D01*
X211689722Y-95698228D01*
X211689866Y-95533473D01*
X211379270Y-94781772D01*
X220846108Y-94781772D01*
X221152566Y-95140000D01*
X223900000Y-95140000D01*
X223900000Y-92940000D01*
X224100000Y-92940000D01*
X224100000Y-95140000D01*
X226847434Y-95140000D01*
X227153892Y-94781772D01*
X227063192Y-94452216D01*
X226597057Y-93684365D01*
X225872560Y-93153345D01*
X225000000Y-92940000D01*
X224100000Y-92940000D01*
X223900000Y-92940000D01*
X223000000Y-92940000D01*
X222127440Y-93153345D01*
X221402943Y-93684365D01*
X220936808Y-94452216D01*
X220846108Y-94781772D01*
X211379270Y-94781772D01*
X211279681Y-94540751D01*
X210520822Y-93780566D01*
X209528817Y-93368650D01*
X209200000Y-93368363D01*
X209200000Y-92700000D01*
X210524451Y-92700000D01*
X210622979Y-92853117D01*
X211023986Y-93127114D01*
X211500000Y-93223509D01*
X213500000Y-93223509D01*
X213944693Y-93139834D01*
X214353117Y-92877021D01*
X214627114Y-92476014D01*
X214723509Y-92000000D01*
X214723509Y-91435687D01*
X215299619Y-91435687D01*
X215633843Y-92244572D01*
X216252173Y-92863982D01*
X217060473Y-93199618D01*
X217935687Y-93200381D01*
X218744572Y-92866157D01*
X218911019Y-92700000D01*
X223159995Y-92700000D01*
X223160000Y-92700001D01*
X223810562Y-92570595D01*
X224275401Y-92260000D01*
X224958773Y-92260000D01*
X225762408Y-92100147D01*
X226443697Y-91644924D01*
X226898920Y-90963635D01*
X227058773Y-90160000D01*
X226898920Y-89356365D01*
X226443697Y-88675076D01*
X225762408Y-88219853D01*
X224958773Y-88060000D01*
X223041227Y-88060000D01*
X222237592Y-88219853D01*
X221556303Y-88675076D01*
X221138742Y-89300000D01*
X218911523Y-89300000D01*
X218747827Y-89136018D01*
X217939527Y-88800382D01*
X217064313Y-88799619D01*
X216255428Y-89133843D01*
X215636018Y-89752173D01*
X215300382Y-90560473D01*
X215299619Y-91435687D01*
X214723509Y-91435687D01*
X214723509Y-90000000D01*
X214639834Y-89555307D01*
X214377021Y-89146883D01*
X213976014Y-88872886D01*
X213500000Y-88776491D01*
X211500000Y-88776491D01*
X211055307Y-88860166D01*
X210646883Y-89122979D01*
X210525929Y-89300000D01*
X209374769Y-89300000D01*
X209196506Y-88868571D01*
X208634388Y-88305471D01*
X207899570Y-88000348D01*
X207103921Y-87999654D01*
X206368571Y-88303494D01*
X205805471Y-88865612D01*
X205500348Y-89600430D01*
X205499654Y-90396079D01*
X204500091Y-90396079D01*
X204500346Y-90103921D01*
X204196506Y-89368571D01*
X203634388Y-88805471D01*
X202899570Y-88500348D01*
X202103921Y-88499654D01*
X201368571Y-88803494D01*
X200805471Y-89365612D01*
X200500348Y-90100430D01*
X200499654Y-90896079D01*
X200800000Y-91622973D01*
X200800000Y-91841579D01*
X200212345Y-92428209D01*
X199800429Y-93420214D01*
X199799491Y-94494340D01*
X198700000Y-94494340D01*
X198700000Y-92185686D01*
X198847759Y-91964549D01*
X199000000Y-91199182D01*
X199000000Y-91120818D01*
X198847759Y-90355451D01*
X198414214Y-89706604D01*
X197765367Y-89273059D01*
X197000000Y-89120818D01*
X196234633Y-89273059D01*
X195585786Y-89706604D01*
X195152241Y-90355451D01*
X195000000Y-91120818D01*
X195000000Y-91199182D01*
X195152241Y-91964549D01*
X195300000Y-92185686D01*
X195300000Y-93440382D01*
X194483259Y-93777853D01*
X193723074Y-94536712D01*
X193311158Y-95528717D01*
X193310220Y-96602843D01*
X188200000Y-96602843D01*
X188200000Y-94194120D01*
X188533435Y-93861266D01*
X188899583Y-92979484D01*
X188900416Y-92024705D01*
X188535808Y-91142285D01*
X187861266Y-90466565D01*
X186979484Y-90100417D01*
X186024705Y-90099584D01*
X185142285Y-90464192D01*
X184466565Y-91138734D01*
X184100417Y-92020516D01*
X184099584Y-92975295D01*
X176275000Y-92975295D01*
X176275000Y-73054511D01*
X177199515Y-73054511D01*
X177624892Y-74084000D01*
X178411857Y-74872340D01*
X179440602Y-75299513D01*
X180554511Y-75300485D01*
X181584000Y-74875108D01*
X182372340Y-74088143D01*
X182799513Y-73059398D01*
X182800485Y-71945489D01*
X182375108Y-70916000D01*
X181588143Y-70127660D01*
X180559398Y-69700487D01*
X179445489Y-69699515D01*
X178416000Y-70124892D01*
X177627660Y-70911857D01*
X177200487Y-71940602D01*
X177199515Y-73054511D01*
X176275000Y-73054511D01*
X176275000Y-68775000D01*
X202613730Y-68775000D01*
X202123281Y-69265449D01*
X202123281Y-69265449D01*
G37*
X202123281Y-69265449D02*
X201642285Y-69464192D01*
X200966565Y-70138734D01*
X200600417Y-71020516D01*
X200599584Y-71975295D01*
X200733749Y-72300000D01*
X200411270Y-72300000D01*
X198055635Y-69944365D01*
X198033246Y-69929405D01*
X197341904Y-69467465D01*
X196500000Y-69300000D01*
X188751367Y-69300000D01*
X188725459Y-69282689D01*
X187807019Y-69100000D01*
X187712981Y-69100000D01*
X186794541Y-69282689D01*
X186015925Y-69802944D01*
X185495670Y-70581560D01*
X185312981Y-71500000D01*
X185495670Y-72418440D01*
X186015925Y-73197056D01*
X186060000Y-73226506D01*
X186060000Y-82328730D01*
X185812239Y-82576491D01*
X185300000Y-82576491D01*
X184855307Y-82660166D01*
X184446883Y-82922979D01*
X184172886Y-83323986D01*
X184076491Y-83800000D01*
X184076491Y-86200000D01*
X184160166Y-86644693D01*
X184422979Y-87053117D01*
X184823986Y-87327114D01*
X185300000Y-87423509D01*
X187700000Y-87423509D01*
X188144693Y-87339834D01*
X188553117Y-87077021D01*
X188827114Y-86676014D01*
X188923509Y-86200000D01*
X188923509Y-85687761D01*
X189315635Y-85295635D01*
X189792535Y-84581903D01*
X189909306Y-83994858D01*
X191204163Y-82700000D01*
X195878788Y-82700000D01*
X196600430Y-82999652D01*
X197396079Y-83000346D01*
X198131429Y-82696506D01*
X198694529Y-82134388D01*
X198999652Y-81399570D01*
X199000346Y-80603921D01*
X198696506Y-79868571D01*
X198134388Y-79305471D01*
X197399570Y-79000348D01*
X196603921Y-78999654D01*
X195877027Y-79300000D01*
X190500000Y-79300000D01*
X189849438Y-79429405D01*
X189460000Y-79689619D01*
X189460000Y-77000000D01*
X190300818Y-77000000D01*
X190453059Y-77765367D01*
X190886604Y-78414214D01*
X191535451Y-78847759D01*
X192300818Y-79000000D01*
X192379182Y-79000000D01*
X193144549Y-78847759D01*
X193793396Y-78414214D01*
X194226941Y-77765367D01*
X194379182Y-77000000D01*
X194226941Y-76234633D01*
X193793396Y-75585786D01*
X193144549Y-75152241D01*
X192379182Y-75000000D01*
X192300818Y-75000000D01*
X191535451Y-75152241D01*
X190886604Y-75585786D01*
X190453059Y-76234633D01*
X190300818Y-77000000D01*
X189460000Y-77000000D01*
X189460000Y-73700000D01*
X195588730Y-73700000D01*
X197944365Y-76055635D01*
X198658097Y-76532536D01*
X199500000Y-76700000D01*
X200500261Y-76700000D01*
X200499654Y-77396079D01*
X200800000Y-78122973D01*
X200800000Y-79000422D01*
X200467465Y-79498096D01*
X200300000Y-80340000D01*
X200467465Y-81181904D01*
X200944365Y-81895635D01*
X201658096Y-82372535D01*
X202500000Y-82540000D01*
X202635836Y-82540000D01*
X203797916Y-83702079D01*
X203797918Y-83702082D01*
X204349438Y-84070595D01*
X205000000Y-84200000D01*
X211499995Y-84200000D01*
X211500000Y-84200001D01*
X212150562Y-84070595D01*
X212702082Y-83702082D01*
X213164164Y-83240000D01*
X213367304Y-83240000D01*
X213170318Y-83714393D01*
X213169683Y-84442413D01*
X213447697Y-85115258D01*
X213962035Y-85630494D01*
X214634393Y-85909682D01*
X215362413Y-85910317D01*
X216035258Y-85632303D01*
X216129497Y-85538228D01*
X220846108Y-85538228D01*
X220936808Y-85867784D01*
X221402943Y-86635635D01*
X222127440Y-87166655D01*
X223000000Y-87380000D01*
X223900000Y-87380000D01*
X223900000Y-85180000D01*
X224100000Y-85180000D01*
X224100000Y-87380000D01*
X225000000Y-87380000D01*
X225872560Y-87166655D01*
X226597057Y-86635635D01*
X227063192Y-85867784D01*
X227153892Y-85538228D01*
X226847434Y-85180000D01*
X224100000Y-85180000D01*
X223900000Y-85180000D01*
X221152566Y-85180000D01*
X220846108Y-85538228D01*
X216129497Y-85538228D01*
X216550494Y-85117965D01*
X216756531Y-84621772D01*
X220846108Y-84621772D01*
X221152566Y-84980000D01*
X223900000Y-84980000D01*
X223900000Y-82780000D01*
X224100000Y-82780000D01*
X224100000Y-84980000D01*
X226847434Y-84980000D01*
X227153892Y-84621772D01*
X227063192Y-84292216D01*
X226597057Y-83524365D01*
X225872560Y-82993345D01*
X225000000Y-82780000D01*
X224100000Y-82780000D01*
X223900000Y-82780000D01*
X223000000Y-82780000D01*
X222127440Y-82993345D01*
X221402943Y-83524365D01*
X220936808Y-84292216D01*
X220846108Y-84621772D01*
X216756531Y-84621772D01*
X216829682Y-84445607D01*
X216830317Y-83717587D01*
X216632982Y-83240000D01*
X216862085Y-83240000D01*
X217174393Y-83369682D01*
X217902413Y-83370317D01*
X218575258Y-83092303D01*
X219090494Y-82577965D01*
X219369682Y-81905607D01*
X219370317Y-81177587D01*
X219172982Y-80700000D01*
X220976491Y-80700000D01*
X220976491Y-80900000D01*
X221060166Y-81344693D01*
X221322979Y-81753117D01*
X221723986Y-82027114D01*
X222200000Y-82123509D01*
X225800000Y-82123509D01*
X226244693Y-82039834D01*
X226653117Y-81777021D01*
X226927114Y-81376014D01*
X227023509Y-80900000D01*
X227023509Y-79100000D01*
X226939834Y-78655307D01*
X226677021Y-78246883D01*
X226276014Y-77972886D01*
X225800000Y-77876491D01*
X224280655Y-77876491D01*
X224202082Y-77797918D01*
X223650562Y-77429405D01*
X223000000Y-77299999D01*
X222999995Y-77300000D01*
X215677915Y-77300000D01*
X215365607Y-77170318D01*
X214637587Y-77169683D01*
X213964742Y-77447697D01*
X213449506Y-77962035D01*
X213170318Y-78634393D01*
X213169683Y-79362413D01*
X213367018Y-79840000D01*
X212460005Y-79840000D01*
X212460000Y-79839999D01*
X211809438Y-79969405D01*
X211257918Y-80337918D01*
X210795836Y-80800000D01*
X209243890Y-80800000D01*
X209347759Y-80644549D01*
X209500000Y-79879182D01*
X209500000Y-79800818D01*
X209347759Y-79035451D01*
X208914214Y-78386604D01*
X208265367Y-77953059D01*
X207500000Y-77800818D01*
X206734633Y-77953059D01*
X206085786Y-78386604D01*
X205652241Y-79035451D01*
X205500000Y-79800818D01*
X205500000Y-79879182D01*
X205652241Y-80644549D01*
X205756110Y-80800000D01*
X205704163Y-80800000D01*
X204989306Y-80085142D01*
X204872535Y-79498096D01*
X204395635Y-78784365D01*
X204200000Y-78653646D01*
X204200000Y-78121212D01*
X204499652Y-77399570D01*
X204500262Y-76700000D01*
X208500000Y-76700000D01*
X209341904Y-76532535D01*
X209355412Y-76523509D01*
X210400000Y-76523509D01*
X210844693Y-76439834D01*
X211253117Y-76177021D01*
X211527114Y-75776014D01*
X211623509Y-75300000D01*
X211623509Y-73884548D01*
X211700000Y-73500000D01*
X211623509Y-73115451D01*
X211623509Y-71700000D01*
X212380000Y-71700000D01*
X212380000Y-73500000D01*
X212480000Y-74002734D01*
X212480000Y-74458773D01*
X212639853Y-75262408D01*
X213095076Y-75943697D01*
X213776365Y-76398920D01*
X214580000Y-76558773D01*
X215383635Y-76398920D01*
X216064924Y-75943697D01*
X216520147Y-75262408D01*
X216680000Y-74458773D01*
X216680000Y-74002734D01*
X216780000Y-73500000D01*
X216780000Y-73054511D01*
X222199515Y-73054511D01*
X222624892Y-74084000D01*
X223411857Y-74872340D01*
X224440602Y-75299513D01*
X225554511Y-75300485D01*
X226584000Y-74875108D01*
X227372340Y-74088143D01*
X227799513Y-73059398D01*
X227800485Y-71945489D01*
X227375108Y-70916000D01*
X226588143Y-70127660D01*
X225559398Y-69700487D01*
X224445489Y-69699515D01*
X223416000Y-70124892D01*
X222627660Y-70911857D01*
X222200487Y-71940602D01*
X222199515Y-73054511D01*
X216780000Y-73054511D01*
X216780000Y-70580000D01*
X216732640Y-70341903D01*
X216612536Y-69738097D01*
X216135635Y-69024365D01*
X215886270Y-68775000D01*
X228725000Y-68775000D01*
X228725000Y-141225000D01*
X182732734Y-141225000D01*
X182997402Y-140638824D01*
X180000000Y-137641421D01*
X177002598Y-140638824D01*
X177267266Y-141225000D01*
X176275000Y-141225000D01*
X176275000Y-140232734D01*
X176861176Y-140497402D01*
X179858579Y-137500000D01*
X180141421Y-137500000D01*
X183138824Y-140497402D01*
X183852302Y-140175255D01*
X184582839Y-138497402D01*
X184615681Y-136667703D01*
X183945826Y-134964713D01*
X183852302Y-134824745D01*
X183138824Y-134502598D01*
X180141421Y-137500000D01*
X179858579Y-137500000D01*
X176861176Y-134502598D01*
X176275000Y-134767266D01*
X176275000Y-134361176D01*
X177002598Y-134361176D01*
X180000000Y-137358579D01*
X182997402Y-134361176D01*
X182675255Y-133647698D01*
X180997402Y-132917161D01*
X179167703Y-132884319D01*
X177464713Y-133554174D01*
X177324745Y-133647698D01*
X177002598Y-134361176D01*
X176275000Y-134361176D01*
X176275000Y-107600000D01*
X177976491Y-107600000D01*
X177976491Y-109400000D01*
X178060166Y-109844693D01*
X178322979Y-110253117D01*
X178723986Y-110527114D01*
X179200000Y-110623509D01*
X182800000Y-110623509D01*
X183244693Y-110539834D01*
X183653117Y-110277021D01*
X183927114Y-109876014D01*
X184023509Y-109400000D01*
X184023509Y-107600000D01*
X183939834Y-107155307D01*
X183677021Y-106746883D01*
X183276014Y-106472886D01*
X182800000Y-106376491D01*
X179200000Y-106376491D01*
X178755307Y-106460166D01*
X178346883Y-106722979D01*
X178072886Y-107123986D01*
X177976491Y-107600000D01*
X176275000Y-107600000D01*
X176275000Y-103420000D01*
X177941227Y-103420000D01*
X178101080Y-104223635D01*
X178556303Y-104904924D01*
X179237592Y-105360147D01*
X180041227Y-105520000D01*
X181958773Y-105520000D01*
X182762408Y-105360147D01*
X183443697Y-104904924D01*
X183898920Y-104223635D01*
X184058773Y-103420000D01*
X183898920Y-102616365D01*
X183443697Y-101935076D01*
X182762408Y-101479853D01*
X181958773Y-101320000D01*
X180041227Y-101320000D01*
X179237592Y-101479853D01*
X178556303Y-101935076D01*
X178101080Y-102616365D01*
X177941227Y-103420000D01*
X176275000Y-103420000D01*
X176275000Y-92975295D01*
X184099584Y-92975295D01*
X184464192Y-93857715D01*
X184800000Y-94194109D01*
X184800000Y-118999995D01*
X184799999Y-119000000D01*
X184929405Y-119650562D01*
X185297918Y-120202082D01*
X189799821Y-124703984D01*
X189799619Y-124935687D01*
X190133843Y-125744572D01*
X190752173Y-126363982D01*
X191560473Y-126699618D01*
X192435687Y-126700381D01*
X193244572Y-126366157D01*
X193411019Y-126200000D01*
X194135836Y-126200000D01*
X197595836Y-129660000D01*
X193977918Y-133277918D01*
X193609405Y-133829438D01*
X193508835Y-134335032D01*
X193239853Y-134737592D01*
X193227439Y-134800000D01*
X192052561Y-134800000D01*
X192040147Y-134737592D01*
X191584924Y-134056303D01*
X190903635Y-133601080D01*
X190100000Y-133441227D01*
X189296365Y-133601080D01*
X188615076Y-134056303D01*
X188159853Y-134737592D01*
X188000000Y-135541227D01*
X188000000Y-137458773D01*
X188159853Y-138262408D01*
X188615076Y-138943697D01*
X189296365Y-139398920D01*
X190100000Y-139558773D01*
X190903635Y-139398920D01*
X191584924Y-138943697D01*
X192040147Y-138262408D01*
X192052561Y-138200000D01*
X193227439Y-138200000D01*
X193239853Y-138262408D01*
X193695076Y-138943697D01*
X194376365Y-139398920D01*
X195180000Y-139558773D01*
X195983635Y-139398920D01*
X196664924Y-138943697D01*
X197120147Y-138262408D01*
X197280000Y-137458773D01*
X197280000Y-136600000D01*
X197960000Y-136600000D01*
X197960000Y-137500000D01*
X198173345Y-138372560D01*
X198704365Y-139097057D01*
X199472216Y-139563192D01*
X199801772Y-139653892D01*
X200160000Y-139347434D01*
X200160000Y-136600000D01*
X200360000Y-136600000D01*
X200360000Y-139347434D01*
X200718228Y-139653892D01*
X201047784Y-139563192D01*
X201815635Y-139097057D01*
X202346655Y-138372560D01*
X202560000Y-137500000D01*
X202560000Y-136600000D01*
X200360000Y-136600000D01*
X200160000Y-136600000D01*
X197960000Y-136600000D01*
X197280000Y-136600000D01*
X197280000Y-135541227D01*
X197271800Y-135500000D01*
X197960000Y-135500000D01*
X197960000Y-136400000D01*
X200160000Y-136400000D01*
X200160000Y-133652566D01*
X200360000Y-133652566D01*
X200360000Y-136400000D01*
X202560000Y-136400000D01*
X202560000Y-135500000D01*
X202346655Y-134627440D01*
X201815635Y-133902943D01*
X201047784Y-133436808D01*
X200718228Y-133346108D01*
X200360000Y-133652566D01*
X200160000Y-133652566D01*
X199801772Y-133346108D01*
X199472216Y-133436808D01*
X198704365Y-133902943D01*
X198173345Y-134627440D01*
X197960000Y-135500000D01*
X197271800Y-135500000D01*
X197154395Y-134909769D01*
X200455607Y-131608556D01*
X200765367Y-131546941D01*
X201414214Y-131113396D01*
X201847759Y-130464549D01*
X202000000Y-129699182D01*
X202152241Y-130464549D01*
X202585786Y-131113396D01*
X203234633Y-131546941D01*
X203544393Y-131608556D01*
X203640000Y-131704163D01*
X203640000Y-134378187D01*
X203399853Y-134737592D01*
X203240000Y-135541227D01*
X203240000Y-137458773D01*
X203399853Y-138262408D01*
X203855076Y-138943697D01*
X204536365Y-139398920D01*
X205340000Y-139558773D01*
X206143635Y-139398920D01*
X206824924Y-138943697D01*
X207280147Y-138262408D01*
X207440000Y-137458773D01*
X207440000Y-136600000D01*
X208120000Y-136600000D01*
X208120000Y-137500000D01*
X208333345Y-138372560D01*
X208864365Y-139097057D01*
X209632216Y-139563192D01*
X209961772Y-139653892D01*
X210320000Y-139347434D01*
X210320000Y-136600000D01*
X210520000Y-136600000D01*
X210520000Y-139347434D01*
X210878228Y-139653892D01*
X211207784Y-139563192D01*
X211975635Y-139097057D01*
X212506655Y-138372560D01*
X212720000Y-137500000D01*
X212720000Y-136600000D01*
X210520000Y-136600000D01*
X210320000Y-136600000D01*
X208120000Y-136600000D01*
X207440000Y-136600000D01*
X207440000Y-135541227D01*
X207431800Y-135500000D01*
X208120000Y-135500000D01*
X208120000Y-136400000D01*
X210320000Y-136400000D01*
X210320000Y-133652566D01*
X210520000Y-133652566D01*
X210520000Y-136400000D01*
X212720000Y-136400000D01*
X212720000Y-135500000D01*
X212506655Y-134627440D01*
X211975635Y-133902943D01*
X211207784Y-133436808D01*
X210878228Y-133346108D01*
X210520000Y-133652566D01*
X210320000Y-133652566D01*
X209961772Y-133346108D01*
X209632216Y-133436808D01*
X208864365Y-133902943D01*
X208333345Y-134627440D01*
X208120000Y-135500000D01*
X207431800Y-135500000D01*
X207280147Y-134737592D01*
X207040000Y-134378187D01*
X207040000Y-131896079D01*
X209999654Y-131896079D01*
X210303494Y-132631429D01*
X210865612Y-133194529D01*
X211591979Y-133496143D01*
X213376491Y-135280654D01*
X213376491Y-138300000D01*
X213460166Y-138744693D01*
X213722979Y-139153117D01*
X214123986Y-139427114D01*
X214600000Y-139523509D01*
X216400000Y-139523509D01*
X216844693Y-139439834D01*
X217253117Y-139177021D01*
X217527114Y-138776014D01*
X217623509Y-138300000D01*
X217623509Y-138054511D01*
X222199515Y-138054511D01*
X222624892Y-139084000D01*
X223411857Y-139872340D01*
X224440602Y-140299513D01*
X225554511Y-140300485D01*
X226584000Y-139875108D01*
X227372340Y-139088143D01*
X227799513Y-138059398D01*
X227800485Y-136945489D01*
X227375108Y-135916000D01*
X226588143Y-135127660D01*
X225559398Y-134700487D01*
X224445489Y-134699515D01*
X223416000Y-135124892D01*
X222627660Y-135911857D01*
X222200487Y-136940602D01*
X222199515Y-138054511D01*
X217623509Y-138054511D01*
X217623509Y-134700000D01*
X217539834Y-134255307D01*
X217277021Y-133846883D01*
X216876014Y-133572886D01*
X216400000Y-133476491D01*
X216380654Y-133476491D01*
X213994897Y-131090733D01*
X213696506Y-130368571D01*
X213134388Y-129805471D01*
X212399570Y-129500348D01*
X211603921Y-129499654D01*
X210868571Y-129803494D01*
X210305471Y-130365612D01*
X210000348Y-131100430D01*
X209999654Y-131896079D01*
X207040000Y-131896079D01*
X207040000Y-131000005D01*
X207040001Y-131000000D01*
X206910595Y-130349438D01*
X206884619Y-130310562D01*
X206542082Y-129797918D01*
X206542079Y-129797916D01*
X205909374Y-129165211D01*
X205847759Y-128855451D01*
X205414214Y-128206604D01*
X204765367Y-127773059D01*
X204000000Y-127620818D01*
X203234633Y-127773059D01*
X202585786Y-128206604D01*
X202152241Y-128855451D01*
X202000000Y-129620818D01*
X201847759Y-128855451D01*
X201414214Y-128206604D01*
X200765367Y-127773059D01*
X200455608Y-127711444D01*
X196042082Y-123297918D01*
X195490562Y-122929405D01*
X194840000Y-122799999D01*
X194839995Y-122800000D01*
X193411523Y-122800000D01*
X193247827Y-122636018D01*
X192439527Y-122300382D01*
X192204340Y-122300177D01*
X191627672Y-121723509D01*
X193000000Y-121723509D01*
X193444693Y-121639834D01*
X193853117Y-121377021D01*
X193974071Y-121200000D01*
X198878788Y-121200000D01*
X199600430Y-121499652D01*
X200396079Y-121500346D01*
X201131429Y-121196506D01*
X201694529Y-120634388D01*
X201999652Y-119899570D01*
X201999655Y-119896082D01*
X202303494Y-120631429D01*
X202865612Y-121194529D01*
X203600430Y-121499652D01*
X204396079Y-121500346D01*
X205131429Y-121196506D01*
X205694529Y-120634388D01*
X205999652Y-119899570D01*
X206000346Y-119103921D01*
X205700000Y-118377027D01*
X205700000Y-117540326D01*
X205570595Y-116889764D01*
X205202082Y-116338244D01*
X205202079Y-116338242D01*
X205199784Y-116335947D01*
X205200509Y-115505660D01*
X204790324Y-114512938D01*
X204743659Y-114466191D01*
X206288967Y-114466191D01*
X206699152Y-115458913D01*
X207458011Y-116219098D01*
X208450016Y-116631014D01*
X209285531Y-116631744D01*
X210355867Y-117702079D01*
X210355869Y-117702082D01*
X210467866Y-117776916D01*
X210585786Y-117953396D01*
X211234633Y-118386941D01*
X212000000Y-118539182D01*
X212765367Y-118386941D01*
X213208400Y-118090917D01*
X213310562Y-118070595D01*
X213862082Y-117702082D01*
X217455607Y-114108556D01*
X217765367Y-114046941D01*
X218414214Y-113613396D01*
X218847759Y-112964549D01*
X219000000Y-112199182D01*
X219000000Y-112120818D01*
X218847759Y-111355451D01*
X218414214Y-110706604D01*
X217765367Y-110273059D01*
X217000000Y-110120818D01*
X216234633Y-110273059D01*
X215585786Y-110706604D01*
X215152241Y-111355451D01*
X215090626Y-111665211D01*
X212246072Y-114509765D01*
X212000000Y-114460818D01*
X211935719Y-114473604D01*
X211689178Y-114227064D01*
X211689903Y-113396777D01*
X211279718Y-112404055D01*
X210520859Y-111643870D01*
X209528854Y-111231954D01*
X208454728Y-111231016D01*
X207462006Y-111641201D01*
X206701821Y-112400060D01*
X206289905Y-113392065D01*
X206288967Y-114466191D01*
X204743659Y-114466191D01*
X204031465Y-113752753D01*
X203039460Y-113340837D01*
X201965334Y-113339899D01*
X200972612Y-113750084D01*
X200212427Y-114508943D01*
X199800511Y-115500948D01*
X199799573Y-116575074D01*
X200025133Y-117120969D01*
X198318517Y-115414353D01*
X198710132Y-114471239D01*
X198711070Y-113397113D01*
X198300885Y-112404391D01*
X197542026Y-111644206D01*
X196550021Y-111232290D01*
X195475895Y-111231352D01*
X194483173Y-111641537D01*
X193722988Y-112400396D01*
X193311072Y-113392401D01*
X193310134Y-114466527D01*
X193720319Y-115459249D01*
X194478463Y-116218718D01*
X194808520Y-116712684D01*
X195895836Y-117800000D01*
X193975549Y-117800000D01*
X193877021Y-117646883D01*
X193476014Y-117372886D01*
X193000000Y-117276491D01*
X191000000Y-117276491D01*
X190555307Y-117360166D01*
X190146883Y-117622979D01*
X189872886Y-118023986D01*
X189776491Y-118500000D01*
X189776491Y-119872327D01*
X188200000Y-118295836D01*
X188200000Y-102123036D01*
X189299488Y-102123036D01*
X189709673Y-103115758D01*
X189800019Y-103206262D01*
X189800019Y-106792823D01*
X189712405Y-106880284D01*
X189300489Y-107872289D01*
X189299551Y-108946415D01*
X189709736Y-109939137D01*
X190468595Y-110699322D01*
X191460600Y-111111238D01*
X192534726Y-111112176D01*
X193527448Y-110701991D01*
X194287633Y-109943132D01*
X194699549Y-108951127D01*
X194699873Y-108580000D01*
X220941227Y-108580000D01*
X221101080Y-109383635D01*
X221556303Y-110064924D01*
X222237592Y-110520147D01*
X223041227Y-110680000D01*
X224958773Y-110680000D01*
X225762408Y-110520147D01*
X226443697Y-110064924D01*
X226898920Y-109383635D01*
X227058773Y-108580000D01*
X226898920Y-107776365D01*
X226443697Y-107095076D01*
X225762408Y-106639853D01*
X224958773Y-106480000D01*
X223041227Y-106480000D01*
X222237592Y-106639853D01*
X221556303Y-107095076D01*
X221101080Y-107776365D01*
X220941227Y-108580000D01*
X194699873Y-108580000D01*
X194700487Y-107877001D01*
X194290302Y-106884279D01*
X194200019Y-106793838D01*
X194200019Y-105485197D01*
X200049576Y-105485197D01*
X200421780Y-106386000D01*
X201110375Y-107075798D01*
X202010527Y-107449573D01*
X202985197Y-107450424D01*
X203886000Y-107078220D01*
X204575798Y-106389625D01*
X204949573Y-105489473D01*
X204950424Y-104514803D01*
X204578220Y-103614000D01*
X203889625Y-102924202D01*
X202989473Y-102550427D01*
X202014803Y-102549576D01*
X201114000Y-102921780D01*
X200424202Y-103610375D01*
X200050427Y-104510527D01*
X200049576Y-105485197D01*
X194200019Y-105485197D01*
X194200019Y-103207151D01*
X194287570Y-103119753D01*
X194699486Y-102127748D01*
X194699490Y-102122999D01*
X210299513Y-102122999D01*
X210709698Y-103115721D01*
X211468557Y-103875906D01*
X212460562Y-104287822D01*
X213534688Y-104288760D01*
X214527410Y-103878575D01*
X215287595Y-103119716D01*
X215293138Y-103106366D01*
X215303494Y-103131429D01*
X215865612Y-103694529D01*
X216600430Y-103999652D01*
X217396079Y-104000346D01*
X218131429Y-103696506D01*
X218694529Y-103134388D01*
X218916426Y-102600000D01*
X220976491Y-102600000D01*
X220976491Y-104400000D01*
X221060166Y-104844693D01*
X221322979Y-105253117D01*
X221723986Y-105527114D01*
X222200000Y-105623509D01*
X225800000Y-105623509D01*
X226244693Y-105539834D01*
X226653117Y-105277021D01*
X226927114Y-104876014D01*
X227023509Y-104400000D01*
X227023509Y-102600000D01*
X226939834Y-102155307D01*
X226677021Y-101746883D01*
X226276014Y-101472886D01*
X225800000Y-101376491D01*
X222200000Y-101376491D01*
X221755307Y-101460166D01*
X221346883Y-101722979D01*
X221072886Y-102123986D01*
X220976491Y-102600000D01*
X218916426Y-102600000D01*
X218999652Y-102399570D01*
X219000346Y-101603921D01*
X218696506Y-100868571D01*
X218134388Y-100305471D01*
X217399570Y-100000348D01*
X216603921Y-99999654D01*
X215868571Y-100303494D01*
X215530119Y-100641356D01*
X215290264Y-100060863D01*
X214531405Y-99300678D01*
X213539400Y-98888762D01*
X212465274Y-98887824D01*
X211472552Y-99298009D01*
X210712367Y-100056868D01*
X210300451Y-101048873D01*
X210299513Y-102122999D01*
X194699490Y-102122999D01*
X194700424Y-101053622D01*
X194290239Y-100060900D01*
X193531380Y-99300715D01*
X192539375Y-98888799D01*
X191465249Y-98887861D01*
X190472527Y-99298046D01*
X189712342Y-100056905D01*
X189300426Y-101048910D01*
X189299488Y-102123036D01*
X188200000Y-102123036D01*
X188200000Y-96602843D01*
X193310220Y-96602843D01*
X193720405Y-97595565D01*
X194479264Y-98355750D01*
X195471269Y-98767666D01*
X196545395Y-98768604D01*
X197538117Y-98358419D01*
X198298302Y-97599560D01*
X198710218Y-96607555D01*
X198711156Y-95533429D01*
X198642584Y-95367473D01*
X198700000Y-95078824D01*
X198700000Y-94494340D01*
X199799491Y-94494340D01*
X200209676Y-95487062D01*
X200968535Y-96247247D01*
X201960540Y-96659163D01*
X203034666Y-96660101D01*
X204027388Y-96249916D01*
X204787573Y-95491057D01*
X205199489Y-94499052D01*
X205200427Y-93424926D01*
X204790242Y-92432204D01*
X204200000Y-91840931D01*
X204200000Y-91621212D01*
X204499652Y-90899570D01*
X204500091Y-90396079D01*
X205499654Y-90396079D01*
X205800000Y-91122973D01*
X205800000Y-94578777D01*
X205799999Y-94578782D01*
X205929405Y-95229344D01*
X206289659Y-95768503D01*
X206288930Y-96602887D01*
X206699115Y-97595609D01*
X207457974Y-98355794D01*
X208449979Y-98767710D01*
X209524105Y-98768648D01*
X210516827Y-98358463D01*
X211277012Y-97599604D01*
X211688928Y-96607599D01*
X211689722Y-95698228D01*
X220846108Y-95698228D01*
X220936808Y-96027784D01*
X221402943Y-96795635D01*
X222127440Y-97326655D01*
X223000000Y-97540000D01*
X223900000Y-97540000D01*
X223900000Y-95340000D01*
X224100000Y-95340000D01*
X224100000Y-97540000D01*
X225000000Y-97540000D01*
X225872560Y-97326655D01*
X226597057Y-96795635D01*
X227063192Y-96027784D01*
X227153892Y-95698228D01*
X226847434Y-95340000D01*
X224100000Y-95340000D01*
X223900000Y-95340000D01*
X221152566Y-95340000D01*
X220846108Y-95698228D01*
X211689722Y-95698228D01*
X211689866Y-95533473D01*
X211379270Y-94781772D01*
X220846108Y-94781772D01*
X221152566Y-95140000D01*
X223900000Y-95140000D01*
X223900000Y-92940000D01*
X224100000Y-92940000D01*
X224100000Y-95140000D01*
X226847434Y-95140000D01*
X227153892Y-94781772D01*
X227063192Y-94452216D01*
X226597057Y-93684365D01*
X225872560Y-93153345D01*
X225000000Y-92940000D01*
X224100000Y-92940000D01*
X223900000Y-92940000D01*
X223000000Y-92940000D01*
X222127440Y-93153345D01*
X221402943Y-93684365D01*
X220936808Y-94452216D01*
X220846108Y-94781772D01*
X211379270Y-94781772D01*
X211279681Y-94540751D01*
X210520822Y-93780566D01*
X209528817Y-93368650D01*
X209200000Y-93368363D01*
X209200000Y-92700000D01*
X210524451Y-92700000D01*
X210622979Y-92853117D01*
X211023986Y-93127114D01*
X211500000Y-93223509D01*
X213500000Y-93223509D01*
X213944693Y-93139834D01*
X214353117Y-92877021D01*
X214627114Y-92476014D01*
X214723509Y-92000000D01*
X214723509Y-91435687D01*
X215299619Y-91435687D01*
X215633843Y-92244572D01*
X216252173Y-92863982D01*
X217060473Y-93199618D01*
X217935687Y-93200381D01*
X218744572Y-92866157D01*
X218911019Y-92700000D01*
X223159995Y-92700000D01*
X223160000Y-92700001D01*
X223810562Y-92570595D01*
X224275401Y-92260000D01*
X224958773Y-92260000D01*
X225762408Y-92100147D01*
X226443697Y-91644924D01*
X226898920Y-90963635D01*
X227058773Y-90160000D01*
X226898920Y-89356365D01*
X226443697Y-88675076D01*
X225762408Y-88219853D01*
X224958773Y-88060000D01*
X223041227Y-88060000D01*
X222237592Y-88219853D01*
X221556303Y-88675076D01*
X221138742Y-89300000D01*
X218911523Y-89300000D01*
X218747827Y-89136018D01*
X217939527Y-88800382D01*
X217064313Y-88799619D01*
X216255428Y-89133843D01*
X215636018Y-89752173D01*
X215300382Y-90560473D01*
X215299619Y-91435687D01*
X214723509Y-91435687D01*
X214723509Y-90000000D01*
X214639834Y-89555307D01*
X214377021Y-89146883D01*
X213976014Y-88872886D01*
X213500000Y-88776491D01*
X211500000Y-88776491D01*
X211055307Y-88860166D01*
X210646883Y-89122979D01*
X210525929Y-89300000D01*
X209374769Y-89300000D01*
X209196506Y-88868571D01*
X208634388Y-88305471D01*
X207899570Y-88000348D01*
X207103921Y-87999654D01*
X206368571Y-88303494D01*
X205805471Y-88865612D01*
X205500348Y-89600430D01*
X205499654Y-90396079D01*
X204500091Y-90396079D01*
X204500346Y-90103921D01*
X204196506Y-89368571D01*
X203634388Y-88805471D01*
X202899570Y-88500348D01*
X202103921Y-88499654D01*
X201368571Y-88803494D01*
X200805471Y-89365612D01*
X200500348Y-90100430D01*
X200499654Y-90896079D01*
X200800000Y-91622973D01*
X200800000Y-91841579D01*
X200212345Y-92428209D01*
X199800429Y-93420214D01*
X199799491Y-94494340D01*
X198700000Y-94494340D01*
X198700000Y-92185686D01*
X198847759Y-91964549D01*
X199000000Y-91199182D01*
X199000000Y-91120818D01*
X198847759Y-90355451D01*
X198414214Y-89706604D01*
X197765367Y-89273059D01*
X197000000Y-89120818D01*
X196234633Y-89273059D01*
X195585786Y-89706604D01*
X195152241Y-90355451D01*
X195000000Y-91120818D01*
X195000000Y-91199182D01*
X195152241Y-91964549D01*
X195300000Y-92185686D01*
X195300000Y-93440382D01*
X194483259Y-93777853D01*
X193723074Y-94536712D01*
X193311158Y-95528717D01*
X193310220Y-96602843D01*
X188200000Y-96602843D01*
X188200000Y-94194120D01*
X188533435Y-93861266D01*
X188899583Y-92979484D01*
X188900416Y-92024705D01*
X188535808Y-91142285D01*
X187861266Y-90466565D01*
X186979484Y-90100417D01*
X186024705Y-90099584D01*
X185142285Y-90464192D01*
X184466565Y-91138734D01*
X184100417Y-92020516D01*
X184099584Y-92975295D01*
X176275000Y-92975295D01*
X176275000Y-73054511D01*
X177199515Y-73054511D01*
X177624892Y-74084000D01*
X178411857Y-74872340D01*
X179440602Y-75299513D01*
X180554511Y-75300485D01*
X181584000Y-74875108D01*
X182372340Y-74088143D01*
X182799513Y-73059398D01*
X182800485Y-71945489D01*
X182375108Y-70916000D01*
X181588143Y-70127660D01*
X180559398Y-69700487D01*
X179445489Y-69699515D01*
X178416000Y-70124892D01*
X177627660Y-70911857D01*
X177200487Y-71940602D01*
X177199515Y-73054511D01*
X176275000Y-73054511D01*
X176275000Y-68775000D01*
X202613730Y-68775000D01*
X202123281Y-69265449D01*
M02*
