G04 #@! TF.FileFunction,Soldermask,Bot*
%FSLAX46Y46*%
G04 Gerber Fmt 4.6, Leading zero omitted, Abs format (unit mm)*
G04 Created by KiCad (PCBNEW 4.0.6) date Friday, 28 July 2017 'PMt' 19:46:46*
%MOMM*%
%LPD*%
G01*
G04 APERTURE LIST*
%ADD10C,0.100000*%
%ADD11C,3.600000*%
%ADD12R,2.800000X2.800000*%
%ADD13C,2.800000*%
%ADD14C,2.000000*%
%ADD15O,2.000000X2.000000*%
%ADD16C,6.800000*%
%ADD17C,1.660000*%
%ADD18R,4.000000X2.200000*%
%ADD19O,4.000000X2.200000*%
%ADD20R,2.200000X4.000000*%
%ADD21O,2.200000X4.000000*%
%ADD22R,2.400000X2.400000*%
%ADD23C,2.400000*%
%ADD24C,3.400000*%
%ADD25C,2.900000*%
%ADD26O,2.800000X2.800000*%
G04 APERTURE END LIST*
D10*
D11*
X225000000Y-72500000D03*
D12*
X186500000Y-85000000D03*
D13*
X186500000Y-92500000D03*
D11*
X180000000Y-72500000D03*
D14*
X207500000Y-90000000D03*
D15*
X207500000Y-79840000D03*
D11*
X225000000Y-137500000D03*
D16*
X180000000Y-137500000D03*
D14*
X200000000Y-119500000D03*
D15*
X200000000Y-129660000D03*
D17*
X215000000Y-84080000D03*
X217540000Y-81540000D03*
X215000000Y-79000000D03*
D18*
X224000000Y-103500000D03*
D19*
X224000000Y-108580000D03*
D18*
X181000000Y-108500000D03*
D19*
X181000000Y-103420000D03*
D20*
X209500000Y-73500000D03*
D21*
X214580000Y-73500000D03*
D14*
X202500000Y-90500000D03*
D15*
X202500000Y-80340000D03*
D14*
X204000000Y-119500000D03*
D15*
X204000000Y-129660000D03*
D22*
X212500000Y-91000000D03*
D23*
X217500000Y-91000000D03*
D22*
X192000000Y-119500000D03*
D23*
X192000000Y-124500000D03*
D24*
X208989435Y-113931484D03*
X202500041Y-116040367D03*
X196010602Y-113931820D03*
X192000019Y-108411708D03*
X191999956Y-101588329D03*
X196010688Y-96068136D03*
X202499959Y-93959633D03*
X208989398Y-96068180D03*
X212999981Y-101588292D03*
D25*
X202500000Y-105000000D03*
D14*
X202500000Y-77000000D03*
D15*
X192340000Y-77000000D03*
D14*
X212000000Y-131500000D03*
D15*
X212000000Y-116500000D03*
D14*
X197000000Y-81000000D03*
D15*
X197000000Y-91160000D03*
D14*
X217000000Y-102000000D03*
D15*
X217000000Y-112160000D03*
D13*
X203000000Y-71500000D03*
D26*
X187760000Y-71500000D03*
D18*
X224000000Y-80000000D03*
D19*
X224000000Y-85080000D03*
X224000000Y-90160000D03*
X224000000Y-95240000D03*
D20*
X215500000Y-136500000D03*
D21*
X210420000Y-136500000D03*
X205340000Y-136500000D03*
X200260000Y-136500000D03*
X195180000Y-136500000D03*
X190100000Y-136500000D03*
M02*
