G04 #@! TF.FileFunction,Copper,L2,Bot,Signal*
%FSLAX46Y46*%
G04 Gerber Fmt 4.6, Leading zero omitted, Abs format (unit mm)*
G04 Created by KiCad (PCBNEW 4.0.6) date Friday, 28 July 2017 'PMt' 20:00:50*
%MOMM*%
%LPD*%
G01*
G04 APERTURE LIST*
%ADD10C,0.100000*%
%ADD11C,3.000000*%
%ADD12C,2.500000*%
%ADD13C,2.000000*%
%ADD14R,2.400000X2.400000*%
%ADD15C,2.400000*%
%ADD16C,1.600000*%
%ADD17O,1.600000X1.600000*%
%ADD18C,6.400000*%
%ADD19C,1.260000*%
%ADD20C,2.800000*%
%ADD21R,1.800000X3.600000*%
%ADD22O,1.800000X3.600000*%
%ADD23R,3.600000X1.800000*%
%ADD24O,3.600000X1.800000*%
%ADD25R,1.600000X1.600000*%
%ADD26O,2.400000X2.400000*%
%ADD27C,1.000000*%
%ADD28C,2.000000*%
%ADD29C,0.800000*%
G04 APERTURE END LIST*
D10*
D11*
X208989435Y-113931484D03*
X202500041Y-116040367D03*
X196010602Y-113931820D03*
X192000019Y-108411708D03*
X191999956Y-101588329D03*
X196010688Y-96068136D03*
X202499959Y-93959633D03*
X208989398Y-96068180D03*
X212999981Y-101588292D03*
D12*
X202498210Y-113095678D03*
X202532691Y-96809217D03*
D13*
X201000000Y-90000000D03*
X201000000Y-82500000D03*
D14*
X182500000Y-79000000D03*
D15*
X182500000Y-86500000D03*
D16*
X225000000Y-128500000D03*
D17*
X225000000Y-141000000D03*
D16*
X186000000Y-115000000D03*
D17*
X186000000Y-95000000D03*
D16*
X180500000Y-120000000D03*
D17*
X180500000Y-132500000D03*
D13*
X208000000Y-119000000D03*
X208000000Y-126500000D03*
D16*
X215000000Y-135000000D03*
D17*
X215000000Y-115000000D03*
D18*
X177500000Y-147500000D03*
D13*
X201000000Y-71000000D03*
X201000000Y-78500000D03*
X208000000Y-131000000D03*
X208000000Y-138500000D03*
D16*
X220000000Y-90000000D03*
D17*
X220000000Y-79840000D03*
D16*
X184500000Y-121500000D03*
D17*
X184500000Y-131660000D03*
D16*
X190500000Y-116500000D03*
D17*
X190500000Y-126660000D03*
D16*
X221000000Y-130500000D03*
D17*
X221000000Y-140660000D03*
D19*
X214000000Y-74920000D03*
X211460000Y-77460000D03*
X214000000Y-80000000D03*
X197580000Y-131500000D03*
X195040000Y-128960000D03*
X192500000Y-131500000D03*
D20*
X227000000Y-76000000D03*
X179500000Y-115500000D03*
X229000000Y-118000000D03*
D21*
X207000000Y-64000000D03*
D22*
X212080000Y-64000000D03*
D23*
X226500000Y-103500000D03*
D24*
X226500000Y-108580000D03*
D23*
X226500000Y-85000000D03*
D24*
X226500000Y-90080000D03*
D23*
X178500000Y-108500000D03*
D24*
X178500000Y-103420000D03*
D21*
X187000000Y-64000000D03*
D22*
X192080000Y-64000000D03*
D21*
X220500000Y-146500000D03*
D22*
X215420000Y-146500000D03*
X210340000Y-146500000D03*
X205260000Y-146500000D03*
X200180000Y-146500000D03*
X195100000Y-146500000D03*
X190020000Y-146500000D03*
X184940000Y-146500000D03*
D25*
X213500000Y-87500000D03*
D16*
X213500000Y-85500000D03*
D25*
X195500000Y-120000000D03*
D16*
X195500000Y-122000000D03*
D15*
X207000000Y-90000000D03*
D26*
X207000000Y-74760000D03*
D15*
X195000000Y-76000000D03*
D26*
X195000000Y-91240000D03*
D15*
X202000000Y-120500000D03*
D26*
X202000000Y-135740000D03*
D15*
X219000000Y-98000000D03*
D26*
X219000000Y-113240000D03*
D15*
X193000000Y-70000000D03*
D26*
X177760000Y-70000000D03*
D27*
X220000000Y-90000000D02*
X220000000Y-85000000D01*
X227000000Y-78000000D02*
X227000000Y-76000000D01*
X220000000Y-85000000D02*
X227000000Y-78000000D01*
X201000000Y-71000000D02*
X201000000Y-74000000D01*
X207000000Y-80000000D02*
X214000000Y-80000000D01*
X201000000Y-74000000D02*
X207000000Y-80000000D01*
X213500000Y-87500000D02*
X215000000Y-87500000D01*
X216000000Y-82000000D02*
X214000000Y-80000000D01*
X216000000Y-86500000D02*
X216000000Y-82000000D01*
X215000000Y-87500000D02*
X216000000Y-86500000D01*
X220000000Y-90000000D02*
X215057578Y-90000000D01*
X215057578Y-90000000D02*
X213500000Y-91557578D01*
X213500000Y-87500000D02*
X213500000Y-91557578D01*
X213500000Y-91557578D02*
X208989398Y-96068180D01*
X226500000Y-90080000D02*
X220080000Y-90080000D01*
D28*
X220080000Y-90080000D02*
X220000000Y-90000000D01*
D27*
X200180000Y-146500000D02*
X200180000Y-147680000D01*
X200180000Y-147680000D02*
X202500000Y-150000000D01*
X215420000Y-148580000D02*
X215420000Y-146500000D01*
X214000000Y-150000000D02*
X215420000Y-148580000D01*
X202500000Y-150000000D02*
X214000000Y-150000000D01*
X190500000Y-126660000D02*
X180160000Y-126660000D01*
X174500000Y-94500000D02*
X182500000Y-86500000D01*
X174500000Y-121000000D02*
X174500000Y-94500000D01*
X180160000Y-126660000D02*
X174500000Y-121000000D01*
X195040000Y-128960000D02*
X197580000Y-131500000D01*
X195500000Y-122000000D02*
X195500000Y-128500000D01*
X195500000Y-128500000D02*
X195040000Y-128960000D01*
X201000000Y-82500000D02*
X186500000Y-82500000D01*
X186500000Y-82500000D02*
X182500000Y-86500000D01*
X190500000Y-126660000D02*
X192740000Y-126660000D01*
X192740000Y-126660000D02*
X195040000Y-128960000D01*
X197580000Y-131500000D02*
X197580000Y-143900000D01*
X197580000Y-143900000D02*
X200180000Y-146500000D01*
X195000000Y-91240000D02*
X199760000Y-91240000D01*
X199760000Y-91240000D02*
X201000000Y-90000000D01*
X195000000Y-91240000D02*
X195000000Y-95057448D01*
X195000000Y-95057448D02*
X196010688Y-96068136D01*
X186000000Y-95000000D02*
X194942552Y-95000000D01*
X194942552Y-95000000D02*
X196010688Y-96068136D01*
X184500000Y-121500000D02*
X184500000Y-116500000D01*
X184500000Y-116500000D02*
X186000000Y-115000000D01*
X184500000Y-121500000D02*
X182000000Y-121500000D01*
X182000000Y-121500000D02*
X180500000Y-120000000D01*
X195000000Y-76000000D02*
X182500000Y-76000000D01*
D28*
X177760000Y-70000000D02*
X181000000Y-70000000D01*
X181000000Y-70000000D02*
X187000000Y-64000000D01*
D27*
X182500000Y-79000000D02*
X182500000Y-76000000D01*
X182500000Y-76000000D02*
X182500000Y-74740000D01*
X182500000Y-74740000D02*
X177760000Y-70000000D01*
X215000000Y-115000000D02*
X217240000Y-115000000D01*
X217240000Y-115000000D02*
X219000000Y-113240000D01*
X208989435Y-113931484D02*
X213931484Y-113931484D01*
X213931484Y-113931484D02*
X215000000Y-115000000D01*
X208000000Y-119000000D02*
X208000000Y-114920919D01*
X208000000Y-114920919D02*
X208989435Y-113931484D01*
X225000000Y-128500000D02*
X223000000Y-128500000D01*
X223000000Y-128500000D02*
X221000000Y-130500000D01*
X221000000Y-130500000D02*
X219500000Y-130500000D01*
X219500000Y-130500000D02*
X215000000Y-135000000D01*
X207000000Y-64000000D02*
X207000000Y-74760000D01*
X207000000Y-90000000D02*
X207000000Y-84500000D01*
X207000000Y-84500000D02*
X201000000Y-78500000D01*
D28*
X202499959Y-93959633D02*
X203040367Y-93959633D01*
D27*
X203040367Y-93959633D02*
X207000000Y-90000000D01*
D28*
X202499959Y-93959633D02*
X202499959Y-96776485D01*
D27*
X202499959Y-96776485D02*
X202532691Y-96809217D01*
X202000000Y-120500000D02*
X202000000Y-125000000D01*
X202000000Y-125000000D02*
X208000000Y-131000000D01*
X202000000Y-120500000D02*
X202000000Y-116540408D01*
D28*
X202000000Y-116540408D02*
X202500041Y-116040367D01*
X202500041Y-116040367D02*
X202500041Y-113097509D01*
D27*
X202500041Y-113097509D02*
X202498210Y-113095678D01*
X202000000Y-116540408D02*
X202500041Y-116040367D01*
D28*
X192000019Y-108411708D02*
X192000019Y-101588392D01*
X192000019Y-101588392D02*
X191999956Y-101588329D01*
D27*
X184500000Y-131660000D02*
X184500000Y-133500000D01*
X195100000Y-144100000D02*
X195100000Y-146500000D01*
X184500000Y-133500000D02*
X195100000Y-144100000D01*
X184500000Y-131660000D02*
X181340000Y-131660000D01*
X181340000Y-131660000D02*
X180500000Y-132500000D01*
X195500000Y-120000000D02*
X195500000Y-114442422D01*
X195500000Y-114442422D02*
X196010602Y-113931820D01*
X190500000Y-116500000D02*
X193442422Y-116500000D01*
X193442422Y-116500000D02*
X196010602Y-113931820D01*
X220500000Y-146500000D02*
X220500000Y-141160000D01*
X220500000Y-141160000D02*
X221000000Y-140660000D01*
X225000000Y-141000000D02*
X221340000Y-141000000D01*
X221340000Y-141000000D02*
X221000000Y-140660000D01*
X202000000Y-135740000D02*
X202000000Y-139000000D01*
X205260000Y-142260000D02*
X205260000Y-146500000D01*
X202000000Y-139000000D02*
X205260000Y-142260000D01*
D28*
X192080000Y-64000000D02*
X192080000Y-69080000D01*
X192080000Y-69080000D02*
X193000000Y-70000000D01*
D29*
G36*
X231225000Y-116376121D02*
X230840499Y-116300923D01*
X229141421Y-118000000D01*
X230840499Y-119699077D01*
X231225000Y-119623879D01*
X231225000Y-151225000D01*
X215167783Y-151225000D01*
X215202082Y-151202082D01*
X216622079Y-149782084D01*
X216622082Y-149782082D01*
X216990595Y-149230562D01*
X217108157Y-148639537D01*
X217360147Y-148262408D01*
X217520000Y-147458773D01*
X217520000Y-145541227D01*
X217360147Y-144737592D01*
X217335029Y-144700000D01*
X218376491Y-144700000D01*
X218376491Y-148300000D01*
X218460166Y-148744693D01*
X218722979Y-149153117D01*
X219123986Y-149427114D01*
X219600000Y-149523509D01*
X221400000Y-149523509D01*
X221844693Y-149439834D01*
X222253117Y-149177021D01*
X222527114Y-148776014D01*
X222623509Y-148300000D01*
X222623509Y-148054511D01*
X224699515Y-148054511D01*
X225124892Y-149084000D01*
X225911857Y-149872340D01*
X226940602Y-150299513D01*
X228054511Y-150300485D01*
X229084000Y-149875108D01*
X229872340Y-149088143D01*
X230299513Y-148059398D01*
X230300485Y-146945489D01*
X229875108Y-145916000D01*
X229088143Y-145127660D01*
X228059398Y-144700487D01*
X226945489Y-144699515D01*
X225916000Y-145124892D01*
X225127660Y-145911857D01*
X224700487Y-146940602D01*
X224699515Y-148054511D01*
X222623509Y-148054511D01*
X222623509Y-144700000D01*
X222539834Y-144255307D01*
X222277021Y-143846883D01*
X222200000Y-143794257D01*
X222200000Y-142700000D01*
X223954856Y-142700000D01*
X224234633Y-142886941D01*
X225000000Y-143039182D01*
X225765367Y-142886941D01*
X226414214Y-142453396D01*
X226847759Y-141804549D01*
X227000000Y-141039182D01*
X227000000Y-140960818D01*
X226847759Y-140195451D01*
X226414214Y-139546604D01*
X225765367Y-139113059D01*
X225000000Y-138960818D01*
X224234633Y-139113059D01*
X223954856Y-139300000D01*
X222476619Y-139300000D01*
X222414214Y-139206604D01*
X221765367Y-138773059D01*
X221000000Y-138620818D01*
X220234633Y-138773059D01*
X219585786Y-139206604D01*
X219152241Y-139855451D01*
X219061470Y-140311789D01*
X218929405Y-140509438D01*
X218799999Y-141160000D01*
X218800000Y-141160005D01*
X218800000Y-143788799D01*
X218746883Y-143822979D01*
X218472886Y-144223986D01*
X218376491Y-144700000D01*
X217335029Y-144700000D01*
X216904924Y-144056303D01*
X216223635Y-143601080D01*
X215420000Y-143441227D01*
X214616365Y-143601080D01*
X213935076Y-144056303D01*
X213479853Y-144737592D01*
X213320000Y-145541227D01*
X213320000Y-147458773D01*
X213455560Y-148140277D01*
X213295836Y-148300000D01*
X212444396Y-148300000D01*
X212640000Y-147500000D01*
X212640000Y-146600000D01*
X210440000Y-146600000D01*
X210440000Y-146620000D01*
X210240000Y-146620000D01*
X210240000Y-146600000D01*
X208040000Y-146600000D01*
X208040000Y-147500000D01*
X208235604Y-148300000D01*
X207175029Y-148300000D01*
X207200147Y-148262408D01*
X207360000Y-147458773D01*
X207360000Y-145541227D01*
X207351800Y-145500000D01*
X208040000Y-145500000D01*
X208040000Y-146400000D01*
X210240000Y-146400000D01*
X210240000Y-143652566D01*
X210440000Y-143652566D01*
X210440000Y-146400000D01*
X212640000Y-146400000D01*
X212640000Y-145500000D01*
X212426655Y-144627440D01*
X211895635Y-143902943D01*
X211127784Y-143436808D01*
X210798228Y-143346108D01*
X210440000Y-143652566D01*
X210240000Y-143652566D01*
X209881772Y-143346108D01*
X209552216Y-143436808D01*
X208784365Y-143902943D01*
X208253345Y-144627440D01*
X208040000Y-145500000D01*
X207351800Y-145500000D01*
X207200147Y-144737592D01*
X206960000Y-144378187D01*
X206960000Y-142260005D01*
X206960001Y-142260000D01*
X206830595Y-141609438D01*
X206733783Y-141464549D01*
X206462082Y-141057918D01*
X206462079Y-141057916D01*
X204339851Y-138935687D01*
X205799619Y-138935687D01*
X206133843Y-139744572D01*
X206752173Y-140363982D01*
X207560473Y-140699618D01*
X208435687Y-140700381D01*
X209244572Y-140366157D01*
X209863982Y-139747827D01*
X210199618Y-138939527D01*
X210200381Y-138064313D01*
X209866157Y-137255428D01*
X209247827Y-136636018D01*
X208439527Y-136300382D01*
X207564313Y-136299619D01*
X206755428Y-136633843D01*
X206136018Y-137252173D01*
X205800382Y-138060473D01*
X205799619Y-138935687D01*
X204339851Y-138935687D01*
X203700000Y-138295836D01*
X203700000Y-137479669D01*
X204217311Y-136705459D01*
X204400000Y-135787019D01*
X204400000Y-135692981D01*
X204340943Y-135396079D01*
X212999654Y-135396079D01*
X213303494Y-136131429D01*
X213865612Y-136694529D01*
X214600430Y-136999652D01*
X215396079Y-137000346D01*
X216131429Y-136696506D01*
X216694529Y-136134388D01*
X216996143Y-135408021D01*
X220108697Y-132295467D01*
X220600430Y-132499652D01*
X221396079Y-132500346D01*
X222131429Y-132196506D01*
X222694529Y-131634388D01*
X222996143Y-130908021D01*
X223704163Y-130200000D01*
X223878788Y-130200000D01*
X224600430Y-130499652D01*
X225396079Y-130500346D01*
X226131429Y-130196506D01*
X226694529Y-129634388D01*
X226999652Y-128899570D01*
X227000346Y-128103921D01*
X226696506Y-127368571D01*
X226134388Y-126805471D01*
X225399570Y-126500348D01*
X224603921Y-126499654D01*
X223877027Y-126800000D01*
X223000005Y-126800000D01*
X223000000Y-126799999D01*
X222349438Y-126929405D01*
X221797918Y-127297918D01*
X221797916Y-127297921D01*
X220590733Y-128505103D01*
X219877027Y-128800000D01*
X219500005Y-128800000D01*
X219500000Y-128799999D01*
X218849438Y-128929405D01*
X218297918Y-129297918D01*
X214590733Y-133005103D01*
X213868571Y-133303494D01*
X213305471Y-133865612D01*
X213000348Y-134600430D01*
X212999654Y-135396079D01*
X204340943Y-135396079D01*
X204217311Y-134774541D01*
X203697056Y-133995925D01*
X202918440Y-133475670D01*
X202000000Y-133292981D01*
X201081560Y-133475670D01*
X200302944Y-133995925D01*
X199782689Y-134774541D01*
X199600000Y-135692981D01*
X199600000Y-135787019D01*
X199782689Y-136705459D01*
X200300000Y-137479669D01*
X200300000Y-138999995D01*
X200299999Y-139000000D01*
X200429405Y-139650562D01*
X200797918Y-140202082D01*
X203560000Y-142964163D01*
X203560000Y-144378187D01*
X203319853Y-144737592D01*
X203160000Y-145541227D01*
X203160000Y-147458773D01*
X203319853Y-148262408D01*
X203344971Y-148300000D01*
X203204163Y-148300000D01*
X202280000Y-147375836D01*
X202280000Y-145541227D01*
X202120147Y-144737592D01*
X201664924Y-144056303D01*
X200983635Y-143601080D01*
X200180000Y-143441227D01*
X199633997Y-143549834D01*
X199280000Y-143195836D01*
X199280000Y-132177915D01*
X199409682Y-131865607D01*
X199410317Y-131137587D01*
X199132303Y-130464742D01*
X198617965Y-129949506D01*
X198302802Y-129818638D01*
X197164190Y-128680027D01*
X197200000Y-128500000D01*
X197200000Y-123121212D01*
X197499652Y-122399570D01*
X197500346Y-121603921D01*
X197388318Y-121332793D01*
X197427114Y-121276014D01*
X197488010Y-120975295D01*
X199599584Y-120975295D01*
X199964192Y-121857715D01*
X200300000Y-122194109D01*
X200300000Y-124999995D01*
X200299999Y-125000000D01*
X200429405Y-125650562D01*
X200797918Y-126202082D01*
X205799821Y-131203984D01*
X205799619Y-131435687D01*
X206133843Y-132244572D01*
X206752173Y-132863982D01*
X207560473Y-133199618D01*
X208435687Y-133200381D01*
X209244572Y-132866157D01*
X209863982Y-132247827D01*
X210199618Y-131439527D01*
X210200381Y-130564313D01*
X209866157Y-129755428D01*
X209247827Y-129136018D01*
X208439527Y-128800382D01*
X208204340Y-128800177D01*
X208104255Y-128700092D01*
X208435687Y-128700381D01*
X209244572Y-128366157D01*
X209863982Y-127747827D01*
X210199618Y-126939527D01*
X210200381Y-126064313D01*
X209866157Y-125255428D01*
X209247827Y-124636018D01*
X208439527Y-124300382D01*
X207564313Y-124299619D01*
X206755428Y-124633843D01*
X206136018Y-125252173D01*
X205800382Y-126060473D01*
X205800090Y-126395926D01*
X203700000Y-124295836D01*
X203700000Y-122194120D01*
X204033435Y-121861266D01*
X204399583Y-120979484D01*
X204400416Y-120024705D01*
X204157040Y-119435687D01*
X205799619Y-119435687D01*
X206133843Y-120244572D01*
X206752173Y-120863982D01*
X207560473Y-121199618D01*
X208435687Y-121200381D01*
X209244572Y-120866157D01*
X209863982Y-120247827D01*
X210033119Y-119840499D01*
X227300923Y-119840499D01*
X227403890Y-120366987D01*
X228431193Y-120797616D01*
X229545092Y-120802333D01*
X230576006Y-120380421D01*
X230596110Y-120366987D01*
X230699077Y-119840499D01*
X229000000Y-118141421D01*
X227300923Y-119840499D01*
X210033119Y-119840499D01*
X210199618Y-119439527D01*
X210200381Y-118564313D01*
X210192440Y-118545092D01*
X226197667Y-118545092D01*
X226619579Y-119576006D01*
X226633013Y-119596110D01*
X227159501Y-119699077D01*
X228858579Y-118000000D01*
X227159501Y-116300923D01*
X226633013Y-116403890D01*
X226202384Y-117431193D01*
X226197667Y-118545092D01*
X210192440Y-118545092D01*
X209866157Y-117755428D01*
X209700000Y-117588981D01*
X209700000Y-116559289D01*
X210516864Y-116221767D01*
X211108178Y-115631484D01*
X213117816Y-115631484D01*
X213152241Y-115804549D01*
X213585786Y-116453396D01*
X214234633Y-116886941D01*
X215000000Y-117039182D01*
X215765367Y-116886941D01*
X216045144Y-116700000D01*
X217239995Y-116700000D01*
X217240000Y-116700001D01*
X217890562Y-116570595D01*
X218442082Y-116202082D01*
X218484663Y-116159501D01*
X227300923Y-116159501D01*
X229000000Y-117858579D01*
X230699077Y-116159501D01*
X230596110Y-115633013D01*
X229568807Y-115202384D01*
X228454908Y-115197667D01*
X227423994Y-115619579D01*
X227403890Y-115633013D01*
X227300923Y-116159501D01*
X218484663Y-116159501D01*
X218964255Y-115679909D01*
X219000000Y-115687019D01*
X219918440Y-115504330D01*
X220697056Y-114984075D01*
X221217311Y-114205459D01*
X221400000Y-113287019D01*
X221400000Y-113192981D01*
X221217311Y-112274541D01*
X220697056Y-111495925D01*
X219918440Y-110975670D01*
X219000000Y-110792981D01*
X218081560Y-110975670D01*
X217302944Y-111495925D01*
X216782689Y-112274541D01*
X216600000Y-113192981D01*
X216600000Y-113235836D01*
X216535836Y-113300000D01*
X216045144Y-113300000D01*
X215765367Y-113113059D01*
X215455608Y-113051444D01*
X215133566Y-112729402D01*
X214582046Y-112360889D01*
X213931484Y-112231483D01*
X213931479Y-112231484D01*
X211107448Y-112231484D01*
X210520859Y-111643870D01*
X209528854Y-111231954D01*
X208454728Y-111231016D01*
X207462006Y-111641201D01*
X206701821Y-112400060D01*
X206289905Y-113392065D01*
X206288967Y-114466191D01*
X206357472Y-114631985D01*
X206299999Y-114920919D01*
X206300000Y-114920924D01*
X206300000Y-117588477D01*
X206136018Y-117752173D01*
X205800382Y-118560473D01*
X205799619Y-119435687D01*
X204157040Y-119435687D01*
X204035808Y-119142285D01*
X203700000Y-118805891D01*
X203700000Y-118465958D01*
X204027470Y-118330650D01*
X204787655Y-117571791D01*
X205199571Y-116579786D01*
X205200509Y-115505660D01*
X204790324Y-114512938D01*
X204700041Y-114422497D01*
X204700041Y-114181781D01*
X204947783Y-113585151D01*
X204948634Y-112610481D01*
X204576430Y-111709678D01*
X203887835Y-111019880D01*
X202987683Y-110646105D01*
X202013013Y-110645254D01*
X201112210Y-111017458D01*
X200422412Y-111706053D01*
X200048637Y-112606205D01*
X200047786Y-113580875D01*
X200300041Y-114191379D01*
X200300041Y-114421482D01*
X200212427Y-114508943D01*
X199800511Y-115500948D01*
X199799573Y-116575074D01*
X199813693Y-116609247D01*
X199967465Y-117382311D01*
X200300000Y-117879985D01*
X200300000Y-118805880D01*
X199966565Y-119138734D01*
X199600417Y-120020516D01*
X199599584Y-120975295D01*
X197488010Y-120975295D01*
X197523509Y-120800000D01*
X197523509Y-119200000D01*
X197439834Y-118755307D01*
X197200000Y-118382593D01*
X197200000Y-116361775D01*
X197538031Y-116222103D01*
X198298216Y-115463244D01*
X198710132Y-114471239D01*
X198711070Y-113397113D01*
X198300885Y-112404391D01*
X197542026Y-111644206D01*
X196550021Y-111232290D01*
X195475895Y-111231352D01*
X194483173Y-111641537D01*
X193722988Y-112400396D01*
X193311072Y-113392401D01*
X193310342Y-114227916D01*
X192738258Y-114800000D01*
X191621212Y-114800000D01*
X190899570Y-114500348D01*
X190103921Y-114499654D01*
X189368571Y-114803494D01*
X188805471Y-115365612D01*
X188500348Y-116100430D01*
X188499654Y-116896079D01*
X188803494Y-117631429D01*
X189365612Y-118194529D01*
X190100430Y-118499652D01*
X190896079Y-118500346D01*
X191622973Y-118200000D01*
X193442417Y-118200000D01*
X193442422Y-118200001D01*
X193800000Y-118128874D01*
X193800000Y-118391594D01*
X193572886Y-118723986D01*
X193476491Y-119200000D01*
X193476491Y-120800000D01*
X193560166Y-121244693D01*
X193613589Y-121327715D01*
X193500348Y-121600430D01*
X193499654Y-122396079D01*
X193800000Y-123122973D01*
X193800000Y-125362982D01*
X193390562Y-125089405D01*
X192740000Y-124959999D01*
X192739995Y-124960000D01*
X191545144Y-124960000D01*
X191265367Y-124773059D01*
X190500000Y-124620818D01*
X189734633Y-124773059D01*
X189454856Y-124960000D01*
X180864163Y-124960000D01*
X176200000Y-120295836D01*
X176200000Y-116014903D01*
X176899550Y-116014903D01*
X177294542Y-116970858D01*
X178025295Y-117702887D01*
X178980559Y-118099548D01*
X179860302Y-118100315D01*
X179368571Y-118303494D01*
X178805471Y-118865612D01*
X178500348Y-119600430D01*
X178499654Y-120396079D01*
X178803494Y-121131429D01*
X179365612Y-121694529D01*
X180091980Y-121996143D01*
X180797916Y-122702079D01*
X180797918Y-122702082D01*
X181094747Y-122900416D01*
X181349438Y-123070595D01*
X182000000Y-123200000D01*
X183378788Y-123200000D01*
X184100430Y-123499652D01*
X184896079Y-123500346D01*
X185631429Y-123196506D01*
X186194529Y-122634388D01*
X186499652Y-121899570D01*
X186500346Y-121103921D01*
X186200000Y-120377027D01*
X186200000Y-117204164D01*
X186409266Y-116994897D01*
X187131429Y-116696506D01*
X187694529Y-116134388D01*
X187999652Y-115399570D01*
X188000346Y-114603921D01*
X187696506Y-113868571D01*
X187134388Y-113305471D01*
X186399570Y-113000348D01*
X185603921Y-112999654D01*
X184868571Y-113303494D01*
X184305471Y-113865612D01*
X184003857Y-114591980D01*
X183297918Y-115297918D01*
X182929405Y-115849438D01*
X182799999Y-116500000D01*
X182800000Y-116500005D01*
X182800000Y-119800000D01*
X182704163Y-119800000D01*
X182494897Y-119590734D01*
X182196506Y-118868571D01*
X181634388Y-118305471D01*
X180899570Y-118000348D01*
X180258522Y-117999789D01*
X180970858Y-117705458D01*
X181702887Y-116974705D01*
X182099548Y-116019441D01*
X182100450Y-114985097D01*
X181705458Y-114029142D01*
X180974705Y-113297113D01*
X180019441Y-112900452D01*
X178985097Y-112899550D01*
X178029142Y-113294542D01*
X177297113Y-114025295D01*
X176900452Y-114980559D01*
X176899550Y-116014903D01*
X176200000Y-116014903D01*
X176200000Y-110510725D01*
X176223986Y-110527114D01*
X176700000Y-110623509D01*
X180300000Y-110623509D01*
X180744693Y-110539834D01*
X181153117Y-110277021D01*
X181427114Y-109876014D01*
X181523509Y-109400000D01*
X181523509Y-107600000D01*
X181439834Y-107155307D01*
X181177021Y-106746883D01*
X180776014Y-106472886D01*
X180300000Y-106376491D01*
X176700000Y-106376491D01*
X176255307Y-106460166D01*
X176200000Y-106495755D01*
X176200000Y-105000939D01*
X176737592Y-105360147D01*
X177541227Y-105520000D01*
X179458773Y-105520000D01*
X180262408Y-105360147D01*
X180943697Y-104904924D01*
X181398920Y-104223635D01*
X181558773Y-103420000D01*
X181398920Y-102616365D01*
X181069288Y-102123036D01*
X189299488Y-102123036D01*
X189709673Y-103115758D01*
X189800019Y-103206262D01*
X189800019Y-106792823D01*
X189712405Y-106880284D01*
X189300489Y-107872289D01*
X189299551Y-108946415D01*
X189709736Y-109939137D01*
X190468595Y-110699322D01*
X191460600Y-111111238D01*
X192534726Y-111112176D01*
X193527448Y-110701991D01*
X194287633Y-109943132D01*
X194699549Y-108951127D01*
X194699873Y-108580000D01*
X223441227Y-108580000D01*
X223601080Y-109383635D01*
X224056303Y-110064924D01*
X224737592Y-110520147D01*
X225541227Y-110680000D01*
X227458773Y-110680000D01*
X228262408Y-110520147D01*
X228943697Y-110064924D01*
X229398920Y-109383635D01*
X229558773Y-108580000D01*
X229398920Y-107776365D01*
X228943697Y-107095076D01*
X228262408Y-106639853D01*
X227458773Y-106480000D01*
X225541227Y-106480000D01*
X224737592Y-106639853D01*
X224056303Y-107095076D01*
X223601080Y-107776365D01*
X223441227Y-108580000D01*
X194699873Y-108580000D01*
X194700487Y-107877001D01*
X194290302Y-106884279D01*
X194200019Y-106793838D01*
X194200019Y-105485197D01*
X200049576Y-105485197D01*
X200421780Y-106386000D01*
X201110375Y-107075798D01*
X202010527Y-107449573D01*
X202985197Y-107450424D01*
X203886000Y-107078220D01*
X204575798Y-106389625D01*
X204949573Y-105489473D01*
X204950424Y-104514803D01*
X204578220Y-103614000D01*
X203889625Y-102924202D01*
X202989473Y-102550427D01*
X202014803Y-102549576D01*
X201114000Y-102921780D01*
X200424202Y-103610375D01*
X200050427Y-104510527D01*
X200049576Y-105485197D01*
X194200019Y-105485197D01*
X194200019Y-103207151D01*
X194287570Y-103119753D01*
X194699486Y-102127748D01*
X194699490Y-102122999D01*
X210299513Y-102122999D01*
X210709698Y-103115721D01*
X211468557Y-103875906D01*
X212460562Y-104287822D01*
X213534688Y-104288760D01*
X214527410Y-103878575D01*
X215287595Y-103119716D01*
X215503399Y-102600000D01*
X223476491Y-102600000D01*
X223476491Y-104400000D01*
X223560166Y-104844693D01*
X223822979Y-105253117D01*
X224223986Y-105527114D01*
X224700000Y-105623509D01*
X228300000Y-105623509D01*
X228744693Y-105539834D01*
X229153117Y-105277021D01*
X229427114Y-104876014D01*
X229523509Y-104400000D01*
X229523509Y-102600000D01*
X229439834Y-102155307D01*
X229177021Y-101746883D01*
X228776014Y-101472886D01*
X228300000Y-101376491D01*
X224700000Y-101376491D01*
X224255307Y-101460166D01*
X223846883Y-101722979D01*
X223572886Y-102123986D01*
X223476491Y-102600000D01*
X215503399Y-102600000D01*
X215699511Y-102127711D01*
X215700449Y-101053585D01*
X215290264Y-100060863D01*
X214531405Y-99300678D01*
X213539400Y-98888762D01*
X212465274Y-98887824D01*
X211472552Y-99298009D01*
X210712367Y-100056868D01*
X210300451Y-101048873D01*
X210299513Y-102122999D01*
X194699490Y-102122999D01*
X194700424Y-101053622D01*
X194290239Y-100060900D01*
X193531380Y-99300715D01*
X192539375Y-98888799D01*
X191465249Y-98887861D01*
X190472527Y-99298046D01*
X189712342Y-100056905D01*
X189300426Y-101048910D01*
X189299488Y-102123036D01*
X181069288Y-102123036D01*
X180943697Y-101935076D01*
X180262408Y-101479853D01*
X179458773Y-101320000D01*
X177541227Y-101320000D01*
X176737592Y-101479853D01*
X176200000Y-101839061D01*
X176200000Y-95204164D01*
X182504158Y-88900005D01*
X182975295Y-88900416D01*
X183857715Y-88535808D01*
X184533435Y-87861266D01*
X184899583Y-86979484D01*
X184899998Y-86504166D01*
X187204163Y-84200000D01*
X199588477Y-84200000D01*
X199752173Y-84363982D01*
X200560473Y-84699618D01*
X201435687Y-84700381D01*
X202244572Y-84366157D01*
X202863982Y-83747827D01*
X203151425Y-83055588D01*
X205300000Y-85204163D01*
X205300000Y-88305880D01*
X204966565Y-88638734D01*
X204600417Y-89520516D01*
X204600002Y-89995834D01*
X203248782Y-91347055D01*
X203039378Y-91260103D01*
X202851849Y-91259939D01*
X202863982Y-91247827D01*
X203199618Y-90439527D01*
X203200381Y-89564313D01*
X202866157Y-88755428D01*
X202247827Y-88136018D01*
X201439527Y-87800382D01*
X200564313Y-87799619D01*
X199755428Y-88133843D01*
X199136018Y-88752173D01*
X198808883Y-89540000D01*
X196726506Y-89540000D01*
X196697056Y-89495925D01*
X195918440Y-88975670D01*
X195000000Y-88792981D01*
X194081560Y-88975670D01*
X193302944Y-89495925D01*
X192782689Y-90274541D01*
X192600000Y-91192981D01*
X192600000Y-91287019D01*
X192782689Y-92205459D01*
X193300000Y-92979669D01*
X193300000Y-93300000D01*
X187045144Y-93300000D01*
X186765367Y-93113059D01*
X186000000Y-92960818D01*
X185234633Y-93113059D01*
X184585786Y-93546604D01*
X184152241Y-94195451D01*
X184000000Y-94960818D01*
X184000000Y-95039182D01*
X184152241Y-95804549D01*
X184585786Y-96453396D01*
X185234633Y-96886941D01*
X186000000Y-97039182D01*
X186765367Y-96886941D01*
X187045144Y-96700000D01*
X193350365Y-96700000D01*
X193720405Y-97595565D01*
X194479264Y-98355750D01*
X195471269Y-98767666D01*
X196545395Y-98768604D01*
X197538117Y-98358419D01*
X198298302Y-97599560D01*
X198710218Y-96607555D01*
X198711156Y-95533429D01*
X198300971Y-94540707D01*
X197542112Y-93780522D01*
X196700000Y-93430847D01*
X196700000Y-92979669D01*
X196726506Y-92940000D01*
X199759995Y-92940000D01*
X199760000Y-92940001D01*
X200021423Y-92888000D01*
X199800429Y-93420214D01*
X199799491Y-94494340D01*
X200209676Y-95487062D01*
X200299959Y-95577503D01*
X200299959Y-95797532D01*
X200083118Y-96319744D01*
X200082267Y-97294414D01*
X200454471Y-98195217D01*
X201143066Y-98885015D01*
X202043218Y-99258790D01*
X203017888Y-99259641D01*
X203918691Y-98887437D01*
X204608489Y-98198842D01*
X204982264Y-97298690D01*
X204983115Y-96324020D01*
X204699959Y-95638730D01*
X204699959Y-95578518D01*
X204787573Y-95491057D01*
X205199489Y-94499052D01*
X205199746Y-94204417D01*
X207004158Y-92400005D01*
X207475295Y-92400416D01*
X208357715Y-92035808D01*
X209033435Y-91361266D01*
X209399583Y-90479484D01*
X209400416Y-89524705D01*
X209035808Y-88642285D01*
X208700000Y-88305891D01*
X208700000Y-84500000D01*
X208570595Y-83849438D01*
X208202082Y-83297918D01*
X208202079Y-83297916D01*
X206505876Y-81601712D01*
X207000000Y-81700000D01*
X213295836Y-81700000D01*
X214300000Y-82704163D01*
X214300000Y-83666621D01*
X213899570Y-83500348D01*
X213103921Y-83499654D01*
X212368571Y-83803494D01*
X211805471Y-84365612D01*
X211500348Y-85100430D01*
X211499654Y-85896079D01*
X211611682Y-86167207D01*
X211572886Y-86223986D01*
X211476491Y-86700000D01*
X211476491Y-88300000D01*
X211560166Y-88744693D01*
X211800000Y-89117407D01*
X211800000Y-90853415D01*
X209284977Y-93368437D01*
X208454691Y-93367712D01*
X207461969Y-93777897D01*
X206701784Y-94536756D01*
X206289868Y-95528761D01*
X206288930Y-96602887D01*
X206699115Y-97595609D01*
X207457974Y-98355794D01*
X208449979Y-98767710D01*
X209524105Y-98768648D01*
X210234072Y-98475295D01*
X216599584Y-98475295D01*
X216964192Y-99357715D01*
X217638734Y-100033435D01*
X218520516Y-100399583D01*
X219475295Y-100400416D01*
X220357715Y-100035808D01*
X221033435Y-99361266D01*
X221399583Y-98479484D01*
X221400416Y-97524705D01*
X221035808Y-96642285D01*
X220361266Y-95966565D01*
X219479484Y-95600417D01*
X218524705Y-95599584D01*
X217642285Y-95964192D01*
X216966565Y-96638734D01*
X216600417Y-97520516D01*
X216599584Y-98475295D01*
X210234072Y-98475295D01*
X210516827Y-98358463D01*
X211277012Y-97599604D01*
X211688928Y-96607599D01*
X211689658Y-95772084D01*
X214702079Y-92759662D01*
X214702082Y-92759660D01*
X215761741Y-91700000D01*
X218620694Y-91700000D01*
X219238097Y-92112535D01*
X220080000Y-92280000D01*
X220921903Y-92112535D01*
X221419577Y-91780000D01*
X224378187Y-91780000D01*
X224737592Y-92020147D01*
X225541227Y-92180000D01*
X227458773Y-92180000D01*
X228262408Y-92020147D01*
X228943697Y-91564924D01*
X229398920Y-90883635D01*
X229558773Y-90080000D01*
X229398920Y-89276365D01*
X228943697Y-88595076D01*
X228262408Y-88139853D01*
X227458773Y-87980000D01*
X225541227Y-87980000D01*
X224737592Y-88139853D01*
X224378187Y-88380000D01*
X221700000Y-88380000D01*
X221700000Y-85704164D01*
X221954164Y-85450000D01*
X223300000Y-85450000D01*
X223300000Y-86178477D01*
X223513137Y-86693036D01*
X223906963Y-87086862D01*
X224421522Y-87300000D01*
X226050000Y-87300000D01*
X226400000Y-86950000D01*
X226400000Y-85100000D01*
X226600000Y-85100000D01*
X226600000Y-86950000D01*
X226950000Y-87300000D01*
X228578478Y-87300000D01*
X229093037Y-87086862D01*
X229486863Y-86693036D01*
X229700000Y-86178477D01*
X229700000Y-85450000D01*
X229350000Y-85100000D01*
X226600000Y-85100000D01*
X226400000Y-85100000D01*
X223650000Y-85100000D01*
X223300000Y-85450000D01*
X221954164Y-85450000D01*
X223300000Y-84104164D01*
X223300000Y-84550000D01*
X223650000Y-84900000D01*
X226400000Y-84900000D01*
X226400000Y-83050000D01*
X226600000Y-83050000D01*
X226600000Y-84900000D01*
X229350000Y-84900000D01*
X229700000Y-84550000D01*
X229700000Y-83821523D01*
X229486863Y-83306964D01*
X229093037Y-82913138D01*
X228578478Y-82700000D01*
X226950000Y-82700000D01*
X226600000Y-83050000D01*
X226400000Y-83050000D01*
X226050000Y-82700000D01*
X224704163Y-82700000D01*
X228202079Y-79202084D01*
X228202082Y-79202082D01*
X228570595Y-78650562D01*
X228600544Y-78500000D01*
X228700001Y-78000000D01*
X228700000Y-77999995D01*
X228700000Y-77976715D01*
X229202887Y-77474705D01*
X229599548Y-76519441D01*
X229600450Y-75485097D01*
X229205458Y-74529142D01*
X228474705Y-73797113D01*
X227519441Y-73400452D01*
X226485097Y-73399550D01*
X225529142Y-73794542D01*
X224797113Y-74525295D01*
X224400452Y-75480559D01*
X224399550Y-76514903D01*
X224794542Y-77470858D01*
X224959616Y-77636221D01*
X221639288Y-80956548D01*
X221847759Y-80644549D01*
X222000000Y-79879182D01*
X222000000Y-79800818D01*
X221847759Y-79035451D01*
X221414214Y-78386604D01*
X220765367Y-77953059D01*
X220000000Y-77800818D01*
X219234633Y-77953059D01*
X218585786Y-78386604D01*
X218152241Y-79035451D01*
X218000000Y-79800818D01*
X218000000Y-79879182D01*
X218152241Y-80644549D01*
X218585786Y-81293396D01*
X219234633Y-81726941D01*
X220000000Y-81879182D01*
X220765367Y-81726941D01*
X221077366Y-81518470D01*
X218797918Y-83797918D01*
X218429405Y-84349438D01*
X218299999Y-85000000D01*
X218300000Y-85000005D01*
X218300000Y-88300000D01*
X216604164Y-88300000D01*
X217202079Y-87702084D01*
X217202082Y-87702082D01*
X217570595Y-87150562D01*
X217610489Y-86950000D01*
X217700001Y-86500000D01*
X217700000Y-86499995D01*
X217700000Y-82000005D01*
X217700001Y-82000000D01*
X217570595Y-81349438D01*
X217536171Y-81297919D01*
X217202082Y-80797918D01*
X217202079Y-80797916D01*
X215681439Y-79277276D01*
X215552303Y-78964742D01*
X215037965Y-78449506D01*
X214365607Y-78170318D01*
X213637587Y-78169683D01*
X213322196Y-78300000D01*
X213092696Y-78300000D01*
X213289682Y-77825607D01*
X213290317Y-77097587D01*
X213045533Y-76505166D01*
X213634393Y-76749682D01*
X214362413Y-76750317D01*
X215035258Y-76472303D01*
X215550494Y-75957965D01*
X215829682Y-75285607D01*
X215830317Y-74557587D01*
X215552303Y-73884742D01*
X215037965Y-73369506D01*
X214365607Y-73090318D01*
X213637587Y-73089683D01*
X212964742Y-73367697D01*
X212449506Y-73882035D01*
X212170318Y-74554393D01*
X212169683Y-75282413D01*
X212414467Y-75874834D01*
X211825607Y-75630318D01*
X211097587Y-75629683D01*
X210424742Y-75907697D01*
X209909506Y-76422035D01*
X209630318Y-77094393D01*
X209629683Y-77822413D01*
X209827018Y-78300000D01*
X207704163Y-78300000D01*
X206514638Y-77110474D01*
X207000000Y-77207019D01*
X207918440Y-77024330D01*
X208697056Y-76504075D01*
X209217311Y-75725459D01*
X209400000Y-74807019D01*
X209400000Y-74712981D01*
X209217311Y-73794541D01*
X208700000Y-73020331D01*
X208700000Y-66711201D01*
X208753117Y-66677021D01*
X209027114Y-66276014D01*
X209123509Y-65800000D01*
X209123509Y-64100000D01*
X209780000Y-64100000D01*
X209780000Y-65000000D01*
X209993345Y-65872560D01*
X210524365Y-66597057D01*
X211292216Y-67063192D01*
X211621772Y-67153892D01*
X211980000Y-66847434D01*
X211980000Y-64100000D01*
X212180000Y-64100000D01*
X212180000Y-66847434D01*
X212538228Y-67153892D01*
X212867784Y-67063192D01*
X213635635Y-66597057D01*
X214166655Y-65872560D01*
X214380000Y-65000000D01*
X214380000Y-64100000D01*
X212180000Y-64100000D01*
X211980000Y-64100000D01*
X209780000Y-64100000D01*
X209123509Y-64100000D01*
X209123509Y-63000000D01*
X209780000Y-63000000D01*
X209780000Y-63900000D01*
X211980000Y-63900000D01*
X211980000Y-61152566D01*
X212180000Y-61152566D01*
X212180000Y-63900000D01*
X214380000Y-63900000D01*
X214380000Y-63054511D01*
X224699515Y-63054511D01*
X225124892Y-64084000D01*
X225911857Y-64872340D01*
X226940602Y-65299513D01*
X228054511Y-65300485D01*
X229084000Y-64875108D01*
X229872340Y-64088143D01*
X230299513Y-63059398D01*
X230300485Y-61945489D01*
X229875108Y-60916000D01*
X229088143Y-60127660D01*
X228059398Y-59700487D01*
X226945489Y-59699515D01*
X225916000Y-60124892D01*
X225127660Y-60911857D01*
X224700487Y-61940602D01*
X224699515Y-63054511D01*
X214380000Y-63054511D01*
X214380000Y-63000000D01*
X214166655Y-62127440D01*
X213635635Y-61402943D01*
X212867784Y-60936808D01*
X212538228Y-60846108D01*
X212180000Y-61152566D01*
X211980000Y-61152566D01*
X211621772Y-60846108D01*
X211292216Y-60936808D01*
X210524365Y-61402943D01*
X209993345Y-62127440D01*
X209780000Y-63000000D01*
X209123509Y-63000000D01*
X209123509Y-62200000D01*
X209039834Y-61755307D01*
X208777021Y-61346883D01*
X208376014Y-61072886D01*
X207900000Y-60976491D01*
X206100000Y-60976491D01*
X205655307Y-61060166D01*
X205246883Y-61322979D01*
X204972886Y-61723986D01*
X204876491Y-62200000D01*
X204876491Y-65800000D01*
X204960166Y-66244693D01*
X205222979Y-66653117D01*
X205300000Y-66705743D01*
X205300000Y-73020331D01*
X204782689Y-73794541D01*
X204600000Y-74712981D01*
X204600000Y-74807019D01*
X204696544Y-75292381D01*
X202700000Y-73295836D01*
X202700000Y-72411523D01*
X202863982Y-72247827D01*
X203199618Y-71439527D01*
X203200381Y-70564313D01*
X202866157Y-69755428D01*
X202247827Y-69136018D01*
X201439527Y-68800382D01*
X200564313Y-68799619D01*
X199755428Y-69133843D01*
X199136018Y-69752173D01*
X198800382Y-70560473D01*
X198799619Y-71435687D01*
X199133843Y-72244572D01*
X199300000Y-72411019D01*
X199300000Y-73999995D01*
X199299999Y-74000000D01*
X199429405Y-74650562D01*
X199797918Y-75202082D01*
X200895744Y-76299908D01*
X200564313Y-76299619D01*
X199755428Y-76633843D01*
X199136018Y-77252173D01*
X198800382Y-78060473D01*
X198799619Y-78935687D01*
X199133843Y-79744572D01*
X199752173Y-80363982D01*
X200079547Y-80499920D01*
X199755428Y-80633843D01*
X199588981Y-80800000D01*
X186500000Y-80800000D01*
X185849438Y-80929405D01*
X185297918Y-81297918D01*
X185297916Y-81297921D01*
X182495841Y-84099995D01*
X182024705Y-84099584D01*
X181142285Y-84464192D01*
X180466565Y-85138734D01*
X180100417Y-86020516D01*
X180100002Y-86495835D01*
X173775000Y-92820836D01*
X173775000Y-70000000D01*
X175312981Y-70000000D01*
X175495670Y-70918440D01*
X176015925Y-71697056D01*
X176794541Y-72217311D01*
X177712981Y-72400000D01*
X177755836Y-72400000D01*
X180800000Y-75444163D01*
X180800000Y-76695755D01*
X180446883Y-76922979D01*
X180172886Y-77323986D01*
X180076491Y-77800000D01*
X180076491Y-80200000D01*
X180160166Y-80644693D01*
X180422979Y-81053117D01*
X180823986Y-81327114D01*
X181300000Y-81423509D01*
X183700000Y-81423509D01*
X184144693Y-81339834D01*
X184553117Y-81077021D01*
X184827114Y-80676014D01*
X184923509Y-80200000D01*
X184923509Y-77800000D01*
X184904693Y-77700000D01*
X193305880Y-77700000D01*
X193638734Y-78033435D01*
X194520516Y-78399583D01*
X195475295Y-78400416D01*
X196357715Y-78035808D01*
X197033435Y-77361266D01*
X197399583Y-76479484D01*
X197400416Y-75524705D01*
X197035808Y-74642285D01*
X196361266Y-73966565D01*
X195479484Y-73600417D01*
X194524705Y-73599584D01*
X193642285Y-73964192D01*
X193305891Y-74300000D01*
X184112478Y-74300000D01*
X184070595Y-74089438D01*
X183702082Y-73537918D01*
X183702079Y-73537916D01*
X182054588Y-71890424D01*
X182555635Y-71555635D01*
X187087761Y-67023509D01*
X187900000Y-67023509D01*
X188344693Y-66939834D01*
X188753117Y-66677021D01*
X189027114Y-66276014D01*
X189123509Y-65800000D01*
X189123509Y-64384546D01*
X189200000Y-64000000D01*
X189880000Y-64000000D01*
X189880000Y-69080000D01*
X190047465Y-69921904D01*
X190333134Y-70349438D01*
X190524365Y-70635635D01*
X190765449Y-70876719D01*
X190964192Y-71357715D01*
X191638734Y-72033435D01*
X192520516Y-72399583D01*
X193475295Y-72400416D01*
X194357715Y-72035808D01*
X195033435Y-71361266D01*
X195399583Y-70479484D01*
X195400416Y-69524705D01*
X195035808Y-68642285D01*
X194361266Y-67966565D01*
X194280000Y-67932820D01*
X194280000Y-64000000D01*
X194180000Y-63497266D01*
X194180000Y-63041227D01*
X194020147Y-62237592D01*
X193564924Y-61556303D01*
X192883635Y-61101080D01*
X192080000Y-60941227D01*
X191276365Y-61101080D01*
X190595076Y-61556303D01*
X190139853Y-62237592D01*
X189980000Y-63041227D01*
X189980000Y-63497266D01*
X189880000Y-64000000D01*
X189200000Y-64000000D01*
X189123509Y-63615454D01*
X189123509Y-62200000D01*
X189039834Y-61755307D01*
X188777021Y-61346883D01*
X188376014Y-61072886D01*
X187900000Y-60976491D01*
X186100000Y-60976491D01*
X185655307Y-61060166D01*
X185246883Y-61322979D01*
X184972886Y-61723986D01*
X184876491Y-62200000D01*
X184876491Y-63012239D01*
X180088730Y-67800000D01*
X178751367Y-67800000D01*
X178725459Y-67782689D01*
X177807019Y-67600000D01*
X177712981Y-67600000D01*
X176794541Y-67782689D01*
X176015925Y-68302944D01*
X175495670Y-69081560D01*
X175312981Y-70000000D01*
X173775000Y-70000000D01*
X173775000Y-63054511D01*
X174699515Y-63054511D01*
X175124892Y-64084000D01*
X175911857Y-64872340D01*
X176940602Y-65299513D01*
X178054511Y-65300485D01*
X179084000Y-64875108D01*
X179872340Y-64088143D01*
X180299513Y-63059398D01*
X180300485Y-61945489D01*
X179875108Y-60916000D01*
X179088143Y-60127660D01*
X178059398Y-59700487D01*
X176945489Y-59699515D01*
X175916000Y-60124892D01*
X175127660Y-60911857D01*
X174700487Y-61940602D01*
X174699515Y-63054511D01*
X173775000Y-63054511D01*
X173775000Y-58775000D01*
X231225000Y-58775000D01*
X231225000Y-116376121D01*
X231225000Y-116376121D01*
G37*
X231225000Y-116376121D02*
X230840499Y-116300923D01*
X229141421Y-118000000D01*
X230840499Y-119699077D01*
X231225000Y-119623879D01*
X231225000Y-151225000D01*
X215167783Y-151225000D01*
X215202082Y-151202082D01*
X216622079Y-149782084D01*
X216622082Y-149782082D01*
X216990595Y-149230562D01*
X217108157Y-148639537D01*
X217360147Y-148262408D01*
X217520000Y-147458773D01*
X217520000Y-145541227D01*
X217360147Y-144737592D01*
X217335029Y-144700000D01*
X218376491Y-144700000D01*
X218376491Y-148300000D01*
X218460166Y-148744693D01*
X218722979Y-149153117D01*
X219123986Y-149427114D01*
X219600000Y-149523509D01*
X221400000Y-149523509D01*
X221844693Y-149439834D01*
X222253117Y-149177021D01*
X222527114Y-148776014D01*
X222623509Y-148300000D01*
X222623509Y-148054511D01*
X224699515Y-148054511D01*
X225124892Y-149084000D01*
X225911857Y-149872340D01*
X226940602Y-150299513D01*
X228054511Y-150300485D01*
X229084000Y-149875108D01*
X229872340Y-149088143D01*
X230299513Y-148059398D01*
X230300485Y-146945489D01*
X229875108Y-145916000D01*
X229088143Y-145127660D01*
X228059398Y-144700487D01*
X226945489Y-144699515D01*
X225916000Y-145124892D01*
X225127660Y-145911857D01*
X224700487Y-146940602D01*
X224699515Y-148054511D01*
X222623509Y-148054511D01*
X222623509Y-144700000D01*
X222539834Y-144255307D01*
X222277021Y-143846883D01*
X222200000Y-143794257D01*
X222200000Y-142700000D01*
X223954856Y-142700000D01*
X224234633Y-142886941D01*
X225000000Y-143039182D01*
X225765367Y-142886941D01*
X226414214Y-142453396D01*
X226847759Y-141804549D01*
X227000000Y-141039182D01*
X227000000Y-140960818D01*
X226847759Y-140195451D01*
X226414214Y-139546604D01*
X225765367Y-139113059D01*
X225000000Y-138960818D01*
X224234633Y-139113059D01*
X223954856Y-139300000D01*
X222476619Y-139300000D01*
X222414214Y-139206604D01*
X221765367Y-138773059D01*
X221000000Y-138620818D01*
X220234633Y-138773059D01*
X219585786Y-139206604D01*
X219152241Y-139855451D01*
X219061470Y-140311789D01*
X218929405Y-140509438D01*
X218799999Y-141160000D01*
X218800000Y-141160005D01*
X218800000Y-143788799D01*
X218746883Y-143822979D01*
X218472886Y-144223986D01*
X218376491Y-144700000D01*
X217335029Y-144700000D01*
X216904924Y-144056303D01*
X216223635Y-143601080D01*
X215420000Y-143441227D01*
X214616365Y-143601080D01*
X213935076Y-144056303D01*
X213479853Y-144737592D01*
X213320000Y-145541227D01*
X213320000Y-147458773D01*
X213455560Y-148140277D01*
X213295836Y-148300000D01*
X212444396Y-148300000D01*
X212640000Y-147500000D01*
X212640000Y-146600000D01*
X210440000Y-146600000D01*
X210440000Y-146620000D01*
X210240000Y-146620000D01*
X210240000Y-146600000D01*
X208040000Y-146600000D01*
X208040000Y-147500000D01*
X208235604Y-148300000D01*
X207175029Y-148300000D01*
X207200147Y-148262408D01*
X207360000Y-147458773D01*
X207360000Y-145541227D01*
X207351800Y-145500000D01*
X208040000Y-145500000D01*
X208040000Y-146400000D01*
X210240000Y-146400000D01*
X210240000Y-143652566D01*
X210440000Y-143652566D01*
X210440000Y-146400000D01*
X212640000Y-146400000D01*
X212640000Y-145500000D01*
X212426655Y-144627440D01*
X211895635Y-143902943D01*
X211127784Y-143436808D01*
X210798228Y-143346108D01*
X210440000Y-143652566D01*
X210240000Y-143652566D01*
X209881772Y-143346108D01*
X209552216Y-143436808D01*
X208784365Y-143902943D01*
X208253345Y-144627440D01*
X208040000Y-145500000D01*
X207351800Y-145500000D01*
X207200147Y-144737592D01*
X206960000Y-144378187D01*
X206960000Y-142260005D01*
X206960001Y-142260000D01*
X206830595Y-141609438D01*
X206733783Y-141464549D01*
X206462082Y-141057918D01*
X206462079Y-141057916D01*
X204339851Y-138935687D01*
X205799619Y-138935687D01*
X206133843Y-139744572D01*
X206752173Y-140363982D01*
X207560473Y-140699618D01*
X208435687Y-140700381D01*
X209244572Y-140366157D01*
X209863982Y-139747827D01*
X210199618Y-138939527D01*
X210200381Y-138064313D01*
X209866157Y-137255428D01*
X209247827Y-136636018D01*
X208439527Y-136300382D01*
X207564313Y-136299619D01*
X206755428Y-136633843D01*
X206136018Y-137252173D01*
X205800382Y-138060473D01*
X205799619Y-138935687D01*
X204339851Y-138935687D01*
X203700000Y-138295836D01*
X203700000Y-137479669D01*
X204217311Y-136705459D01*
X204400000Y-135787019D01*
X204400000Y-135692981D01*
X204340943Y-135396079D01*
X212999654Y-135396079D01*
X213303494Y-136131429D01*
X213865612Y-136694529D01*
X214600430Y-136999652D01*
X215396079Y-137000346D01*
X216131429Y-136696506D01*
X216694529Y-136134388D01*
X216996143Y-135408021D01*
X220108697Y-132295467D01*
X220600430Y-132499652D01*
X221396079Y-132500346D01*
X222131429Y-132196506D01*
X222694529Y-131634388D01*
X222996143Y-130908021D01*
X223704163Y-130200000D01*
X223878788Y-130200000D01*
X224600430Y-130499652D01*
X225396079Y-130500346D01*
X226131429Y-130196506D01*
X226694529Y-129634388D01*
X226999652Y-128899570D01*
X227000346Y-128103921D01*
X226696506Y-127368571D01*
X226134388Y-126805471D01*
X225399570Y-126500348D01*
X224603921Y-126499654D01*
X223877027Y-126800000D01*
X223000005Y-126800000D01*
X223000000Y-126799999D01*
X222349438Y-126929405D01*
X221797918Y-127297918D01*
X221797916Y-127297921D01*
X220590733Y-128505103D01*
X219877027Y-128800000D01*
X219500005Y-128800000D01*
X219500000Y-128799999D01*
X218849438Y-128929405D01*
X218297918Y-129297918D01*
X214590733Y-133005103D01*
X213868571Y-133303494D01*
X213305471Y-133865612D01*
X213000348Y-134600430D01*
X212999654Y-135396079D01*
X204340943Y-135396079D01*
X204217311Y-134774541D01*
X203697056Y-133995925D01*
X202918440Y-133475670D01*
X202000000Y-133292981D01*
X201081560Y-133475670D01*
X200302944Y-133995925D01*
X199782689Y-134774541D01*
X199600000Y-135692981D01*
X199600000Y-135787019D01*
X199782689Y-136705459D01*
X200300000Y-137479669D01*
X200300000Y-138999995D01*
X200299999Y-139000000D01*
X200429405Y-139650562D01*
X200797918Y-140202082D01*
X203560000Y-142964163D01*
X203560000Y-144378187D01*
X203319853Y-144737592D01*
X203160000Y-145541227D01*
X203160000Y-147458773D01*
X203319853Y-148262408D01*
X203344971Y-148300000D01*
X203204163Y-148300000D01*
X202280000Y-147375836D01*
X202280000Y-145541227D01*
X202120147Y-144737592D01*
X201664924Y-144056303D01*
X200983635Y-143601080D01*
X200180000Y-143441227D01*
X199633997Y-143549834D01*
X199280000Y-143195836D01*
X199280000Y-132177915D01*
X199409682Y-131865607D01*
X199410317Y-131137587D01*
X199132303Y-130464742D01*
X198617965Y-129949506D01*
X198302802Y-129818638D01*
X197164190Y-128680027D01*
X197200000Y-128500000D01*
X197200000Y-123121212D01*
X197499652Y-122399570D01*
X197500346Y-121603921D01*
X197388318Y-121332793D01*
X197427114Y-121276014D01*
X197488010Y-120975295D01*
X199599584Y-120975295D01*
X199964192Y-121857715D01*
X200300000Y-122194109D01*
X200300000Y-124999995D01*
X200299999Y-125000000D01*
X200429405Y-125650562D01*
X200797918Y-126202082D01*
X205799821Y-131203984D01*
X205799619Y-131435687D01*
X206133843Y-132244572D01*
X206752173Y-132863982D01*
X207560473Y-133199618D01*
X208435687Y-133200381D01*
X209244572Y-132866157D01*
X209863982Y-132247827D01*
X210199618Y-131439527D01*
X210200381Y-130564313D01*
X209866157Y-129755428D01*
X209247827Y-129136018D01*
X208439527Y-128800382D01*
X208204340Y-128800177D01*
X208104255Y-128700092D01*
X208435687Y-128700381D01*
X209244572Y-128366157D01*
X209863982Y-127747827D01*
X210199618Y-126939527D01*
X210200381Y-126064313D01*
X209866157Y-125255428D01*
X209247827Y-124636018D01*
X208439527Y-124300382D01*
X207564313Y-124299619D01*
X206755428Y-124633843D01*
X206136018Y-125252173D01*
X205800382Y-126060473D01*
X205800090Y-126395926D01*
X203700000Y-124295836D01*
X203700000Y-122194120D01*
X204033435Y-121861266D01*
X204399583Y-120979484D01*
X204400416Y-120024705D01*
X204157040Y-119435687D01*
X205799619Y-119435687D01*
X206133843Y-120244572D01*
X206752173Y-120863982D01*
X207560473Y-121199618D01*
X208435687Y-121200381D01*
X209244572Y-120866157D01*
X209863982Y-120247827D01*
X210033119Y-119840499D01*
X227300923Y-119840499D01*
X227403890Y-120366987D01*
X228431193Y-120797616D01*
X229545092Y-120802333D01*
X230576006Y-120380421D01*
X230596110Y-120366987D01*
X230699077Y-119840499D01*
X229000000Y-118141421D01*
X227300923Y-119840499D01*
X210033119Y-119840499D01*
X210199618Y-119439527D01*
X210200381Y-118564313D01*
X210192440Y-118545092D01*
X226197667Y-118545092D01*
X226619579Y-119576006D01*
X226633013Y-119596110D01*
X227159501Y-119699077D01*
X228858579Y-118000000D01*
X227159501Y-116300923D01*
X226633013Y-116403890D01*
X226202384Y-117431193D01*
X226197667Y-118545092D01*
X210192440Y-118545092D01*
X209866157Y-117755428D01*
X209700000Y-117588981D01*
X209700000Y-116559289D01*
X210516864Y-116221767D01*
X211108178Y-115631484D01*
X213117816Y-115631484D01*
X213152241Y-115804549D01*
X213585786Y-116453396D01*
X214234633Y-116886941D01*
X215000000Y-117039182D01*
X215765367Y-116886941D01*
X216045144Y-116700000D01*
X217239995Y-116700000D01*
X217240000Y-116700001D01*
X217890562Y-116570595D01*
X218442082Y-116202082D01*
X218484663Y-116159501D01*
X227300923Y-116159501D01*
X229000000Y-117858579D01*
X230699077Y-116159501D01*
X230596110Y-115633013D01*
X229568807Y-115202384D01*
X228454908Y-115197667D01*
X227423994Y-115619579D01*
X227403890Y-115633013D01*
X227300923Y-116159501D01*
X218484663Y-116159501D01*
X218964255Y-115679909D01*
X219000000Y-115687019D01*
X219918440Y-115504330D01*
X220697056Y-114984075D01*
X221217311Y-114205459D01*
X221400000Y-113287019D01*
X221400000Y-113192981D01*
X221217311Y-112274541D01*
X220697056Y-111495925D01*
X219918440Y-110975670D01*
X219000000Y-110792981D01*
X218081560Y-110975670D01*
X217302944Y-111495925D01*
X216782689Y-112274541D01*
X216600000Y-113192981D01*
X216600000Y-113235836D01*
X216535836Y-113300000D01*
X216045144Y-113300000D01*
X215765367Y-113113059D01*
X215455608Y-113051444D01*
X215133566Y-112729402D01*
X214582046Y-112360889D01*
X213931484Y-112231483D01*
X213931479Y-112231484D01*
X211107448Y-112231484D01*
X210520859Y-111643870D01*
X209528854Y-111231954D01*
X208454728Y-111231016D01*
X207462006Y-111641201D01*
X206701821Y-112400060D01*
X206289905Y-113392065D01*
X206288967Y-114466191D01*
X206357472Y-114631985D01*
X206299999Y-114920919D01*
X206300000Y-114920924D01*
X206300000Y-117588477D01*
X206136018Y-117752173D01*
X205800382Y-118560473D01*
X205799619Y-119435687D01*
X204157040Y-119435687D01*
X204035808Y-119142285D01*
X203700000Y-118805891D01*
X203700000Y-118465958D01*
X204027470Y-118330650D01*
X204787655Y-117571791D01*
X205199571Y-116579786D01*
X205200509Y-115505660D01*
X204790324Y-114512938D01*
X204700041Y-114422497D01*
X204700041Y-114181781D01*
X204947783Y-113585151D01*
X204948634Y-112610481D01*
X204576430Y-111709678D01*
X203887835Y-111019880D01*
X202987683Y-110646105D01*
X202013013Y-110645254D01*
X201112210Y-111017458D01*
X200422412Y-111706053D01*
X200048637Y-112606205D01*
X200047786Y-113580875D01*
X200300041Y-114191379D01*
X200300041Y-114421482D01*
X200212427Y-114508943D01*
X199800511Y-115500948D01*
X199799573Y-116575074D01*
X199813693Y-116609247D01*
X199967465Y-117382311D01*
X200300000Y-117879985D01*
X200300000Y-118805880D01*
X199966565Y-119138734D01*
X199600417Y-120020516D01*
X199599584Y-120975295D01*
X197488010Y-120975295D01*
X197523509Y-120800000D01*
X197523509Y-119200000D01*
X197439834Y-118755307D01*
X197200000Y-118382593D01*
X197200000Y-116361775D01*
X197538031Y-116222103D01*
X198298216Y-115463244D01*
X198710132Y-114471239D01*
X198711070Y-113397113D01*
X198300885Y-112404391D01*
X197542026Y-111644206D01*
X196550021Y-111232290D01*
X195475895Y-111231352D01*
X194483173Y-111641537D01*
X193722988Y-112400396D01*
X193311072Y-113392401D01*
X193310342Y-114227916D01*
X192738258Y-114800000D01*
X191621212Y-114800000D01*
X190899570Y-114500348D01*
X190103921Y-114499654D01*
X189368571Y-114803494D01*
X188805471Y-115365612D01*
X188500348Y-116100430D01*
X188499654Y-116896079D01*
X188803494Y-117631429D01*
X189365612Y-118194529D01*
X190100430Y-118499652D01*
X190896079Y-118500346D01*
X191622973Y-118200000D01*
X193442417Y-118200000D01*
X193442422Y-118200001D01*
X193800000Y-118128874D01*
X193800000Y-118391594D01*
X193572886Y-118723986D01*
X193476491Y-119200000D01*
X193476491Y-120800000D01*
X193560166Y-121244693D01*
X193613589Y-121327715D01*
X193500348Y-121600430D01*
X193499654Y-122396079D01*
X193800000Y-123122973D01*
X193800000Y-125362982D01*
X193390562Y-125089405D01*
X192740000Y-124959999D01*
X192739995Y-124960000D01*
X191545144Y-124960000D01*
X191265367Y-124773059D01*
X190500000Y-124620818D01*
X189734633Y-124773059D01*
X189454856Y-124960000D01*
X180864163Y-124960000D01*
X176200000Y-120295836D01*
X176200000Y-116014903D01*
X176899550Y-116014903D01*
X177294542Y-116970858D01*
X178025295Y-117702887D01*
X178980559Y-118099548D01*
X179860302Y-118100315D01*
X179368571Y-118303494D01*
X178805471Y-118865612D01*
X178500348Y-119600430D01*
X178499654Y-120396079D01*
X178803494Y-121131429D01*
X179365612Y-121694529D01*
X180091980Y-121996143D01*
X180797916Y-122702079D01*
X180797918Y-122702082D01*
X181094747Y-122900416D01*
X181349438Y-123070595D01*
X182000000Y-123200000D01*
X183378788Y-123200000D01*
X184100430Y-123499652D01*
X184896079Y-123500346D01*
X185631429Y-123196506D01*
X186194529Y-122634388D01*
X186499652Y-121899570D01*
X186500346Y-121103921D01*
X186200000Y-120377027D01*
X186200000Y-117204164D01*
X186409266Y-116994897D01*
X187131429Y-116696506D01*
X187694529Y-116134388D01*
X187999652Y-115399570D01*
X188000346Y-114603921D01*
X187696506Y-113868571D01*
X187134388Y-113305471D01*
X186399570Y-113000348D01*
X185603921Y-112999654D01*
X184868571Y-113303494D01*
X184305471Y-113865612D01*
X184003857Y-114591980D01*
X183297918Y-115297918D01*
X182929405Y-115849438D01*
X182799999Y-116500000D01*
X182800000Y-116500005D01*
X182800000Y-119800000D01*
X182704163Y-119800000D01*
X182494897Y-119590734D01*
X182196506Y-118868571D01*
X181634388Y-118305471D01*
X180899570Y-118000348D01*
X180258522Y-117999789D01*
X180970858Y-117705458D01*
X181702887Y-116974705D01*
X182099548Y-116019441D01*
X182100450Y-114985097D01*
X181705458Y-114029142D01*
X180974705Y-113297113D01*
X180019441Y-112900452D01*
X178985097Y-112899550D01*
X178029142Y-113294542D01*
X177297113Y-114025295D01*
X176900452Y-114980559D01*
X176899550Y-116014903D01*
X176200000Y-116014903D01*
X176200000Y-110510725D01*
X176223986Y-110527114D01*
X176700000Y-110623509D01*
X180300000Y-110623509D01*
X180744693Y-110539834D01*
X181153117Y-110277021D01*
X181427114Y-109876014D01*
X181523509Y-109400000D01*
X181523509Y-107600000D01*
X181439834Y-107155307D01*
X181177021Y-106746883D01*
X180776014Y-106472886D01*
X180300000Y-106376491D01*
X176700000Y-106376491D01*
X176255307Y-106460166D01*
X176200000Y-106495755D01*
X176200000Y-105000939D01*
X176737592Y-105360147D01*
X177541227Y-105520000D01*
X179458773Y-105520000D01*
X180262408Y-105360147D01*
X180943697Y-104904924D01*
X181398920Y-104223635D01*
X181558773Y-103420000D01*
X181398920Y-102616365D01*
X181069288Y-102123036D01*
X189299488Y-102123036D01*
X189709673Y-103115758D01*
X189800019Y-103206262D01*
X189800019Y-106792823D01*
X189712405Y-106880284D01*
X189300489Y-107872289D01*
X189299551Y-108946415D01*
X189709736Y-109939137D01*
X190468595Y-110699322D01*
X191460600Y-111111238D01*
X192534726Y-111112176D01*
X193527448Y-110701991D01*
X194287633Y-109943132D01*
X194699549Y-108951127D01*
X194699873Y-108580000D01*
X223441227Y-108580000D01*
X223601080Y-109383635D01*
X224056303Y-110064924D01*
X224737592Y-110520147D01*
X225541227Y-110680000D01*
X227458773Y-110680000D01*
X228262408Y-110520147D01*
X228943697Y-110064924D01*
X229398920Y-109383635D01*
X229558773Y-108580000D01*
X229398920Y-107776365D01*
X228943697Y-107095076D01*
X228262408Y-106639853D01*
X227458773Y-106480000D01*
X225541227Y-106480000D01*
X224737592Y-106639853D01*
X224056303Y-107095076D01*
X223601080Y-107776365D01*
X223441227Y-108580000D01*
X194699873Y-108580000D01*
X194700487Y-107877001D01*
X194290302Y-106884279D01*
X194200019Y-106793838D01*
X194200019Y-105485197D01*
X200049576Y-105485197D01*
X200421780Y-106386000D01*
X201110375Y-107075798D01*
X202010527Y-107449573D01*
X202985197Y-107450424D01*
X203886000Y-107078220D01*
X204575798Y-106389625D01*
X204949573Y-105489473D01*
X204950424Y-104514803D01*
X204578220Y-103614000D01*
X203889625Y-102924202D01*
X202989473Y-102550427D01*
X202014803Y-102549576D01*
X201114000Y-102921780D01*
X200424202Y-103610375D01*
X200050427Y-104510527D01*
X200049576Y-105485197D01*
X194200019Y-105485197D01*
X194200019Y-103207151D01*
X194287570Y-103119753D01*
X194699486Y-102127748D01*
X194699490Y-102122999D01*
X210299513Y-102122999D01*
X210709698Y-103115721D01*
X211468557Y-103875906D01*
X212460562Y-104287822D01*
X213534688Y-104288760D01*
X214527410Y-103878575D01*
X215287595Y-103119716D01*
X215503399Y-102600000D01*
X223476491Y-102600000D01*
X223476491Y-104400000D01*
X223560166Y-104844693D01*
X223822979Y-105253117D01*
X224223986Y-105527114D01*
X224700000Y-105623509D01*
X228300000Y-105623509D01*
X228744693Y-105539834D01*
X229153117Y-105277021D01*
X229427114Y-104876014D01*
X229523509Y-104400000D01*
X229523509Y-102600000D01*
X229439834Y-102155307D01*
X229177021Y-101746883D01*
X228776014Y-101472886D01*
X228300000Y-101376491D01*
X224700000Y-101376491D01*
X224255307Y-101460166D01*
X223846883Y-101722979D01*
X223572886Y-102123986D01*
X223476491Y-102600000D01*
X215503399Y-102600000D01*
X215699511Y-102127711D01*
X215700449Y-101053585D01*
X215290264Y-100060863D01*
X214531405Y-99300678D01*
X213539400Y-98888762D01*
X212465274Y-98887824D01*
X211472552Y-99298009D01*
X210712367Y-100056868D01*
X210300451Y-101048873D01*
X210299513Y-102122999D01*
X194699490Y-102122999D01*
X194700424Y-101053622D01*
X194290239Y-100060900D01*
X193531380Y-99300715D01*
X192539375Y-98888799D01*
X191465249Y-98887861D01*
X190472527Y-99298046D01*
X189712342Y-100056905D01*
X189300426Y-101048910D01*
X189299488Y-102123036D01*
X181069288Y-102123036D01*
X180943697Y-101935076D01*
X180262408Y-101479853D01*
X179458773Y-101320000D01*
X177541227Y-101320000D01*
X176737592Y-101479853D01*
X176200000Y-101839061D01*
X176200000Y-95204164D01*
X182504158Y-88900005D01*
X182975295Y-88900416D01*
X183857715Y-88535808D01*
X184533435Y-87861266D01*
X184899583Y-86979484D01*
X184899998Y-86504166D01*
X187204163Y-84200000D01*
X199588477Y-84200000D01*
X199752173Y-84363982D01*
X200560473Y-84699618D01*
X201435687Y-84700381D01*
X202244572Y-84366157D01*
X202863982Y-83747827D01*
X203151425Y-83055588D01*
X205300000Y-85204163D01*
X205300000Y-88305880D01*
X204966565Y-88638734D01*
X204600417Y-89520516D01*
X204600002Y-89995834D01*
X203248782Y-91347055D01*
X203039378Y-91260103D01*
X202851849Y-91259939D01*
X202863982Y-91247827D01*
X203199618Y-90439527D01*
X203200381Y-89564313D01*
X202866157Y-88755428D01*
X202247827Y-88136018D01*
X201439527Y-87800382D01*
X200564313Y-87799619D01*
X199755428Y-88133843D01*
X199136018Y-88752173D01*
X198808883Y-89540000D01*
X196726506Y-89540000D01*
X196697056Y-89495925D01*
X195918440Y-88975670D01*
X195000000Y-88792981D01*
X194081560Y-88975670D01*
X193302944Y-89495925D01*
X192782689Y-90274541D01*
X192600000Y-91192981D01*
X192600000Y-91287019D01*
X192782689Y-92205459D01*
X193300000Y-92979669D01*
X193300000Y-93300000D01*
X187045144Y-93300000D01*
X186765367Y-93113059D01*
X186000000Y-92960818D01*
X185234633Y-93113059D01*
X184585786Y-93546604D01*
X184152241Y-94195451D01*
X184000000Y-94960818D01*
X184000000Y-95039182D01*
X184152241Y-95804549D01*
X184585786Y-96453396D01*
X185234633Y-96886941D01*
X186000000Y-97039182D01*
X186765367Y-96886941D01*
X187045144Y-96700000D01*
X193350365Y-96700000D01*
X193720405Y-97595565D01*
X194479264Y-98355750D01*
X195471269Y-98767666D01*
X196545395Y-98768604D01*
X197538117Y-98358419D01*
X198298302Y-97599560D01*
X198710218Y-96607555D01*
X198711156Y-95533429D01*
X198300971Y-94540707D01*
X197542112Y-93780522D01*
X196700000Y-93430847D01*
X196700000Y-92979669D01*
X196726506Y-92940000D01*
X199759995Y-92940000D01*
X199760000Y-92940001D01*
X200021423Y-92888000D01*
X199800429Y-93420214D01*
X199799491Y-94494340D01*
X200209676Y-95487062D01*
X200299959Y-95577503D01*
X200299959Y-95797532D01*
X200083118Y-96319744D01*
X200082267Y-97294414D01*
X200454471Y-98195217D01*
X201143066Y-98885015D01*
X202043218Y-99258790D01*
X203017888Y-99259641D01*
X203918691Y-98887437D01*
X204608489Y-98198842D01*
X204982264Y-97298690D01*
X204983115Y-96324020D01*
X204699959Y-95638730D01*
X204699959Y-95578518D01*
X204787573Y-95491057D01*
X205199489Y-94499052D01*
X205199746Y-94204417D01*
X207004158Y-92400005D01*
X207475295Y-92400416D01*
X208357715Y-92035808D01*
X209033435Y-91361266D01*
X209399583Y-90479484D01*
X209400416Y-89524705D01*
X209035808Y-88642285D01*
X208700000Y-88305891D01*
X208700000Y-84500000D01*
X208570595Y-83849438D01*
X208202082Y-83297918D01*
X208202079Y-83297916D01*
X206505876Y-81601712D01*
X207000000Y-81700000D01*
X213295836Y-81700000D01*
X214300000Y-82704163D01*
X214300000Y-83666621D01*
X213899570Y-83500348D01*
X213103921Y-83499654D01*
X212368571Y-83803494D01*
X211805471Y-84365612D01*
X211500348Y-85100430D01*
X211499654Y-85896079D01*
X211611682Y-86167207D01*
X211572886Y-86223986D01*
X211476491Y-86700000D01*
X211476491Y-88300000D01*
X211560166Y-88744693D01*
X211800000Y-89117407D01*
X211800000Y-90853415D01*
X209284977Y-93368437D01*
X208454691Y-93367712D01*
X207461969Y-93777897D01*
X206701784Y-94536756D01*
X206289868Y-95528761D01*
X206288930Y-96602887D01*
X206699115Y-97595609D01*
X207457974Y-98355794D01*
X208449979Y-98767710D01*
X209524105Y-98768648D01*
X210234072Y-98475295D01*
X216599584Y-98475295D01*
X216964192Y-99357715D01*
X217638734Y-100033435D01*
X218520516Y-100399583D01*
X219475295Y-100400416D01*
X220357715Y-100035808D01*
X221033435Y-99361266D01*
X221399583Y-98479484D01*
X221400416Y-97524705D01*
X221035808Y-96642285D01*
X220361266Y-95966565D01*
X219479484Y-95600417D01*
X218524705Y-95599584D01*
X217642285Y-95964192D01*
X216966565Y-96638734D01*
X216600417Y-97520516D01*
X216599584Y-98475295D01*
X210234072Y-98475295D01*
X210516827Y-98358463D01*
X211277012Y-97599604D01*
X211688928Y-96607599D01*
X211689658Y-95772084D01*
X214702079Y-92759662D01*
X214702082Y-92759660D01*
X215761741Y-91700000D01*
X218620694Y-91700000D01*
X219238097Y-92112535D01*
X220080000Y-92280000D01*
X220921903Y-92112535D01*
X221419577Y-91780000D01*
X224378187Y-91780000D01*
X224737592Y-92020147D01*
X225541227Y-92180000D01*
X227458773Y-92180000D01*
X228262408Y-92020147D01*
X228943697Y-91564924D01*
X229398920Y-90883635D01*
X229558773Y-90080000D01*
X229398920Y-89276365D01*
X228943697Y-88595076D01*
X228262408Y-88139853D01*
X227458773Y-87980000D01*
X225541227Y-87980000D01*
X224737592Y-88139853D01*
X224378187Y-88380000D01*
X221700000Y-88380000D01*
X221700000Y-85704164D01*
X221954164Y-85450000D01*
X223300000Y-85450000D01*
X223300000Y-86178477D01*
X223513137Y-86693036D01*
X223906963Y-87086862D01*
X224421522Y-87300000D01*
X226050000Y-87300000D01*
X226400000Y-86950000D01*
X226400000Y-85100000D01*
X226600000Y-85100000D01*
X226600000Y-86950000D01*
X226950000Y-87300000D01*
X228578478Y-87300000D01*
X229093037Y-87086862D01*
X229486863Y-86693036D01*
X229700000Y-86178477D01*
X229700000Y-85450000D01*
X229350000Y-85100000D01*
X226600000Y-85100000D01*
X226400000Y-85100000D01*
X223650000Y-85100000D01*
X223300000Y-85450000D01*
X221954164Y-85450000D01*
X223300000Y-84104164D01*
X223300000Y-84550000D01*
X223650000Y-84900000D01*
X226400000Y-84900000D01*
X226400000Y-83050000D01*
X226600000Y-83050000D01*
X226600000Y-84900000D01*
X229350000Y-84900000D01*
X229700000Y-84550000D01*
X229700000Y-83821523D01*
X229486863Y-83306964D01*
X229093037Y-82913138D01*
X228578478Y-82700000D01*
X226950000Y-82700000D01*
X226600000Y-83050000D01*
X226400000Y-83050000D01*
X226050000Y-82700000D01*
X224704163Y-82700000D01*
X228202079Y-79202084D01*
X228202082Y-79202082D01*
X228570595Y-78650562D01*
X228600544Y-78500000D01*
X228700001Y-78000000D01*
X228700000Y-77999995D01*
X228700000Y-77976715D01*
X229202887Y-77474705D01*
X229599548Y-76519441D01*
X229600450Y-75485097D01*
X229205458Y-74529142D01*
X228474705Y-73797113D01*
X227519441Y-73400452D01*
X226485097Y-73399550D01*
X225529142Y-73794542D01*
X224797113Y-74525295D01*
X224400452Y-75480559D01*
X224399550Y-76514903D01*
X224794542Y-77470858D01*
X224959616Y-77636221D01*
X221639288Y-80956548D01*
X221847759Y-80644549D01*
X222000000Y-79879182D01*
X222000000Y-79800818D01*
X221847759Y-79035451D01*
X221414214Y-78386604D01*
X220765367Y-77953059D01*
X220000000Y-77800818D01*
X219234633Y-77953059D01*
X218585786Y-78386604D01*
X218152241Y-79035451D01*
X218000000Y-79800818D01*
X218000000Y-79879182D01*
X218152241Y-80644549D01*
X218585786Y-81293396D01*
X219234633Y-81726941D01*
X220000000Y-81879182D01*
X220765367Y-81726941D01*
X221077366Y-81518470D01*
X218797918Y-83797918D01*
X218429405Y-84349438D01*
X218299999Y-85000000D01*
X218300000Y-85000005D01*
X218300000Y-88300000D01*
X216604164Y-88300000D01*
X217202079Y-87702084D01*
X217202082Y-87702082D01*
X217570595Y-87150562D01*
X217610489Y-86950000D01*
X217700001Y-86500000D01*
X217700000Y-86499995D01*
X217700000Y-82000005D01*
X217700001Y-82000000D01*
X217570595Y-81349438D01*
X217536171Y-81297919D01*
X217202082Y-80797918D01*
X217202079Y-80797916D01*
X215681439Y-79277276D01*
X215552303Y-78964742D01*
X215037965Y-78449506D01*
X214365607Y-78170318D01*
X213637587Y-78169683D01*
X213322196Y-78300000D01*
X213092696Y-78300000D01*
X213289682Y-77825607D01*
X213290317Y-77097587D01*
X213045533Y-76505166D01*
X213634393Y-76749682D01*
X214362413Y-76750317D01*
X215035258Y-76472303D01*
X215550494Y-75957965D01*
X215829682Y-75285607D01*
X215830317Y-74557587D01*
X215552303Y-73884742D01*
X215037965Y-73369506D01*
X214365607Y-73090318D01*
X213637587Y-73089683D01*
X212964742Y-73367697D01*
X212449506Y-73882035D01*
X212170318Y-74554393D01*
X212169683Y-75282413D01*
X212414467Y-75874834D01*
X211825607Y-75630318D01*
X211097587Y-75629683D01*
X210424742Y-75907697D01*
X209909506Y-76422035D01*
X209630318Y-77094393D01*
X209629683Y-77822413D01*
X209827018Y-78300000D01*
X207704163Y-78300000D01*
X206514638Y-77110474D01*
X207000000Y-77207019D01*
X207918440Y-77024330D01*
X208697056Y-76504075D01*
X209217311Y-75725459D01*
X209400000Y-74807019D01*
X209400000Y-74712981D01*
X209217311Y-73794541D01*
X208700000Y-73020331D01*
X208700000Y-66711201D01*
X208753117Y-66677021D01*
X209027114Y-66276014D01*
X209123509Y-65800000D01*
X209123509Y-64100000D01*
X209780000Y-64100000D01*
X209780000Y-65000000D01*
X209993345Y-65872560D01*
X210524365Y-66597057D01*
X211292216Y-67063192D01*
X211621772Y-67153892D01*
X211980000Y-66847434D01*
X211980000Y-64100000D01*
X212180000Y-64100000D01*
X212180000Y-66847434D01*
X212538228Y-67153892D01*
X212867784Y-67063192D01*
X213635635Y-66597057D01*
X214166655Y-65872560D01*
X214380000Y-65000000D01*
X214380000Y-64100000D01*
X212180000Y-64100000D01*
X211980000Y-64100000D01*
X209780000Y-64100000D01*
X209123509Y-64100000D01*
X209123509Y-63000000D01*
X209780000Y-63000000D01*
X209780000Y-63900000D01*
X211980000Y-63900000D01*
X211980000Y-61152566D01*
X212180000Y-61152566D01*
X212180000Y-63900000D01*
X214380000Y-63900000D01*
X214380000Y-63054511D01*
X224699515Y-63054511D01*
X225124892Y-64084000D01*
X225911857Y-64872340D01*
X226940602Y-65299513D01*
X228054511Y-65300485D01*
X229084000Y-64875108D01*
X229872340Y-64088143D01*
X230299513Y-63059398D01*
X230300485Y-61945489D01*
X229875108Y-60916000D01*
X229088143Y-60127660D01*
X228059398Y-59700487D01*
X226945489Y-59699515D01*
X225916000Y-60124892D01*
X225127660Y-60911857D01*
X224700487Y-61940602D01*
X224699515Y-63054511D01*
X214380000Y-63054511D01*
X214380000Y-63000000D01*
X214166655Y-62127440D01*
X213635635Y-61402943D01*
X212867784Y-60936808D01*
X212538228Y-60846108D01*
X212180000Y-61152566D01*
X211980000Y-61152566D01*
X211621772Y-60846108D01*
X211292216Y-60936808D01*
X210524365Y-61402943D01*
X209993345Y-62127440D01*
X209780000Y-63000000D01*
X209123509Y-63000000D01*
X209123509Y-62200000D01*
X209039834Y-61755307D01*
X208777021Y-61346883D01*
X208376014Y-61072886D01*
X207900000Y-60976491D01*
X206100000Y-60976491D01*
X205655307Y-61060166D01*
X205246883Y-61322979D01*
X204972886Y-61723986D01*
X204876491Y-62200000D01*
X204876491Y-65800000D01*
X204960166Y-66244693D01*
X205222979Y-66653117D01*
X205300000Y-66705743D01*
X205300000Y-73020331D01*
X204782689Y-73794541D01*
X204600000Y-74712981D01*
X204600000Y-74807019D01*
X204696544Y-75292381D01*
X202700000Y-73295836D01*
X202700000Y-72411523D01*
X202863982Y-72247827D01*
X203199618Y-71439527D01*
X203200381Y-70564313D01*
X202866157Y-69755428D01*
X202247827Y-69136018D01*
X201439527Y-68800382D01*
X200564313Y-68799619D01*
X199755428Y-69133843D01*
X199136018Y-69752173D01*
X198800382Y-70560473D01*
X198799619Y-71435687D01*
X199133843Y-72244572D01*
X199300000Y-72411019D01*
X199300000Y-73999995D01*
X199299999Y-74000000D01*
X199429405Y-74650562D01*
X199797918Y-75202082D01*
X200895744Y-76299908D01*
X200564313Y-76299619D01*
X199755428Y-76633843D01*
X199136018Y-77252173D01*
X198800382Y-78060473D01*
X198799619Y-78935687D01*
X199133843Y-79744572D01*
X199752173Y-80363982D01*
X200079547Y-80499920D01*
X199755428Y-80633843D01*
X199588981Y-80800000D01*
X186500000Y-80800000D01*
X185849438Y-80929405D01*
X185297918Y-81297918D01*
X185297916Y-81297921D01*
X182495841Y-84099995D01*
X182024705Y-84099584D01*
X181142285Y-84464192D01*
X180466565Y-85138734D01*
X180100417Y-86020516D01*
X180100002Y-86495835D01*
X173775000Y-92820836D01*
X173775000Y-70000000D01*
X175312981Y-70000000D01*
X175495670Y-70918440D01*
X176015925Y-71697056D01*
X176794541Y-72217311D01*
X177712981Y-72400000D01*
X177755836Y-72400000D01*
X180800000Y-75444163D01*
X180800000Y-76695755D01*
X180446883Y-76922979D01*
X180172886Y-77323986D01*
X180076491Y-77800000D01*
X180076491Y-80200000D01*
X180160166Y-80644693D01*
X180422979Y-81053117D01*
X180823986Y-81327114D01*
X181300000Y-81423509D01*
X183700000Y-81423509D01*
X184144693Y-81339834D01*
X184553117Y-81077021D01*
X184827114Y-80676014D01*
X184923509Y-80200000D01*
X184923509Y-77800000D01*
X184904693Y-77700000D01*
X193305880Y-77700000D01*
X193638734Y-78033435D01*
X194520516Y-78399583D01*
X195475295Y-78400416D01*
X196357715Y-78035808D01*
X197033435Y-77361266D01*
X197399583Y-76479484D01*
X197400416Y-75524705D01*
X197035808Y-74642285D01*
X196361266Y-73966565D01*
X195479484Y-73600417D01*
X194524705Y-73599584D01*
X193642285Y-73964192D01*
X193305891Y-74300000D01*
X184112478Y-74300000D01*
X184070595Y-74089438D01*
X183702082Y-73537918D01*
X183702079Y-73537916D01*
X182054588Y-71890424D01*
X182555635Y-71555635D01*
X187087761Y-67023509D01*
X187900000Y-67023509D01*
X188344693Y-66939834D01*
X188753117Y-66677021D01*
X189027114Y-66276014D01*
X189123509Y-65800000D01*
X189123509Y-64384546D01*
X189200000Y-64000000D01*
X189880000Y-64000000D01*
X189880000Y-69080000D01*
X190047465Y-69921904D01*
X190333134Y-70349438D01*
X190524365Y-70635635D01*
X190765449Y-70876719D01*
X190964192Y-71357715D01*
X191638734Y-72033435D01*
X192520516Y-72399583D01*
X193475295Y-72400416D01*
X194357715Y-72035808D01*
X195033435Y-71361266D01*
X195399583Y-70479484D01*
X195400416Y-69524705D01*
X195035808Y-68642285D01*
X194361266Y-67966565D01*
X194280000Y-67932820D01*
X194280000Y-64000000D01*
X194180000Y-63497266D01*
X194180000Y-63041227D01*
X194020147Y-62237592D01*
X193564924Y-61556303D01*
X192883635Y-61101080D01*
X192080000Y-60941227D01*
X191276365Y-61101080D01*
X190595076Y-61556303D01*
X190139853Y-62237592D01*
X189980000Y-63041227D01*
X189980000Y-63497266D01*
X189880000Y-64000000D01*
X189200000Y-64000000D01*
X189123509Y-63615454D01*
X189123509Y-62200000D01*
X189039834Y-61755307D01*
X188777021Y-61346883D01*
X188376014Y-61072886D01*
X187900000Y-60976491D01*
X186100000Y-60976491D01*
X185655307Y-61060166D01*
X185246883Y-61322979D01*
X184972886Y-61723986D01*
X184876491Y-62200000D01*
X184876491Y-63012239D01*
X180088730Y-67800000D01*
X178751367Y-67800000D01*
X178725459Y-67782689D01*
X177807019Y-67600000D01*
X177712981Y-67600000D01*
X176794541Y-67782689D01*
X176015925Y-68302944D01*
X175495670Y-69081560D01*
X175312981Y-70000000D01*
X173775000Y-70000000D01*
X173775000Y-63054511D01*
X174699515Y-63054511D01*
X175124892Y-64084000D01*
X175911857Y-64872340D01*
X176940602Y-65299513D01*
X178054511Y-65300485D01*
X179084000Y-64875108D01*
X179872340Y-64088143D01*
X180299513Y-63059398D01*
X180300485Y-61945489D01*
X179875108Y-60916000D01*
X179088143Y-60127660D01*
X178059398Y-59700487D01*
X176945489Y-59699515D01*
X175916000Y-60124892D01*
X175127660Y-60911857D01*
X174700487Y-61940602D01*
X174699515Y-63054511D01*
X173775000Y-63054511D01*
X173775000Y-58775000D01*
X231225000Y-58775000D01*
X231225000Y-116376121D01*
G36*
X178957916Y-127862079D02*
X178957918Y-127862082D01*
X179509438Y-128230595D01*
X179617374Y-128252065D01*
X180160000Y-128360001D01*
X180160005Y-128360000D01*
X189454856Y-128360000D01*
X189734633Y-128546941D01*
X190500000Y-128699182D01*
X191265367Y-128546941D01*
X191545144Y-128360000D01*
X192035836Y-128360000D01*
X193358560Y-129682724D01*
X193454467Y-129914834D01*
X192865607Y-129670318D01*
X192137587Y-129669683D01*
X191464742Y-129947697D01*
X190949506Y-130462035D01*
X190670318Y-131134393D01*
X190669683Y-131862413D01*
X190947697Y-132535258D01*
X191462035Y-133050494D01*
X192134393Y-133329682D01*
X192862413Y-133330317D01*
X193535258Y-133052303D01*
X194050494Y-132537965D01*
X194329682Y-131865607D01*
X194330317Y-131137587D01*
X194085533Y-130545166D01*
X194317197Y-130641361D01*
X195880000Y-132204163D01*
X195880000Y-142475837D01*
X186200000Y-132795836D01*
X186200000Y-132685686D01*
X186347759Y-132464549D01*
X186500000Y-131699182D01*
X186500000Y-131620818D01*
X186347759Y-130855451D01*
X185914214Y-130206604D01*
X185265367Y-129773059D01*
X184500000Y-129620818D01*
X183734633Y-129773059D01*
X183454856Y-129960000D01*
X181340000Y-129960000D01*
X180689438Y-130089405D01*
X180137918Y-130457918D01*
X180137916Y-130457921D01*
X180044393Y-130551444D01*
X179734633Y-130613059D01*
X179085786Y-131046604D01*
X178652241Y-131695451D01*
X178500000Y-132460818D01*
X178500000Y-132539182D01*
X178652241Y-133304549D01*
X179085786Y-133953396D01*
X179734633Y-134386941D01*
X180500000Y-134539182D01*
X181265367Y-134386941D01*
X181914214Y-133953396D01*
X182310708Y-133360000D01*
X182800000Y-133360000D01*
X182800000Y-133499995D01*
X182799999Y-133500000D01*
X182929405Y-134150562D01*
X183297918Y-134702082D01*
X193229378Y-144633541D01*
X193159853Y-144737592D01*
X193000000Y-145541227D01*
X193000000Y-147458773D01*
X193159853Y-148262408D01*
X193615076Y-148943697D01*
X194296365Y-149398920D01*
X195100000Y-149558773D01*
X195903635Y-149398920D01*
X196584924Y-148943697D01*
X197040147Y-148262408D01*
X197200000Y-147458773D01*
X197200000Y-145924164D01*
X198080000Y-146804163D01*
X198080000Y-147458773D01*
X198239853Y-148262408D01*
X198695076Y-148943697D01*
X199376365Y-149398920D01*
X199524153Y-149428317D01*
X201297916Y-151202079D01*
X201297918Y-151202082D01*
X201332217Y-151225000D01*
X180232734Y-151225000D01*
X180497402Y-150638824D01*
X177500000Y-147641421D01*
X174502598Y-150638824D01*
X174767266Y-151225000D01*
X173775000Y-151225000D01*
X173775000Y-150232734D01*
X174361176Y-150497402D01*
X177358579Y-147500000D01*
X177641421Y-147500000D01*
X180638824Y-150497402D01*
X181352302Y-150175255D01*
X182082839Y-148497402D01*
X182115681Y-146667703D01*
X181672593Y-145541227D01*
X182840000Y-145541227D01*
X182840000Y-147458773D01*
X182999853Y-148262408D01*
X183455076Y-148943697D01*
X184136365Y-149398920D01*
X184940000Y-149558773D01*
X185743635Y-149398920D01*
X186424924Y-148943697D01*
X186880147Y-148262408D01*
X187040000Y-147458773D01*
X187040000Y-146600000D01*
X187720000Y-146600000D01*
X187720000Y-147500000D01*
X187933345Y-148372560D01*
X188464365Y-149097057D01*
X189232216Y-149563192D01*
X189561772Y-149653892D01*
X189920000Y-149347434D01*
X189920000Y-146600000D01*
X190120000Y-146600000D01*
X190120000Y-149347434D01*
X190478228Y-149653892D01*
X190807784Y-149563192D01*
X191575635Y-149097057D01*
X192106655Y-148372560D01*
X192320000Y-147500000D01*
X192320000Y-146600000D01*
X190120000Y-146600000D01*
X189920000Y-146600000D01*
X187720000Y-146600000D01*
X187040000Y-146600000D01*
X187040000Y-145541227D01*
X187031800Y-145500000D01*
X187720000Y-145500000D01*
X187720000Y-146400000D01*
X189920000Y-146400000D01*
X189920000Y-143652566D01*
X190120000Y-143652566D01*
X190120000Y-146400000D01*
X192320000Y-146400000D01*
X192320000Y-145500000D01*
X192106655Y-144627440D01*
X191575635Y-143902943D01*
X190807784Y-143436808D01*
X190478228Y-143346108D01*
X190120000Y-143652566D01*
X189920000Y-143652566D01*
X189561772Y-143346108D01*
X189232216Y-143436808D01*
X188464365Y-143902943D01*
X187933345Y-144627440D01*
X187720000Y-145500000D01*
X187031800Y-145500000D01*
X186880147Y-144737592D01*
X186424924Y-144056303D01*
X185743635Y-143601080D01*
X184940000Y-143441227D01*
X184136365Y-143601080D01*
X183455076Y-144056303D01*
X182999853Y-144737592D01*
X182840000Y-145541227D01*
X181672593Y-145541227D01*
X181445826Y-144964713D01*
X181352302Y-144824745D01*
X180638824Y-144502598D01*
X177641421Y-147500000D01*
X177358579Y-147500000D01*
X174361176Y-144502598D01*
X173775000Y-144767266D01*
X173775000Y-144361176D01*
X174502598Y-144361176D01*
X177500000Y-147358579D01*
X180497402Y-144361176D01*
X180175255Y-143647698D01*
X178497402Y-142917161D01*
X176667703Y-142884319D01*
X174964713Y-143554174D01*
X174824745Y-143647698D01*
X174502598Y-144361176D01*
X173775000Y-144361176D01*
X173775000Y-122679164D01*
X178957916Y-127862079D01*
X178957916Y-127862079D01*
G37*
X178957916Y-127862079D02*
X178957918Y-127862082D01*
X179509438Y-128230595D01*
X179617374Y-128252065D01*
X180160000Y-128360001D01*
X180160005Y-128360000D01*
X189454856Y-128360000D01*
X189734633Y-128546941D01*
X190500000Y-128699182D01*
X191265367Y-128546941D01*
X191545144Y-128360000D01*
X192035836Y-128360000D01*
X193358560Y-129682724D01*
X193454467Y-129914834D01*
X192865607Y-129670318D01*
X192137587Y-129669683D01*
X191464742Y-129947697D01*
X190949506Y-130462035D01*
X190670318Y-131134393D01*
X190669683Y-131862413D01*
X190947697Y-132535258D01*
X191462035Y-133050494D01*
X192134393Y-133329682D01*
X192862413Y-133330317D01*
X193535258Y-133052303D01*
X194050494Y-132537965D01*
X194329682Y-131865607D01*
X194330317Y-131137587D01*
X194085533Y-130545166D01*
X194317197Y-130641361D01*
X195880000Y-132204163D01*
X195880000Y-142475837D01*
X186200000Y-132795836D01*
X186200000Y-132685686D01*
X186347759Y-132464549D01*
X186500000Y-131699182D01*
X186500000Y-131620818D01*
X186347759Y-130855451D01*
X185914214Y-130206604D01*
X185265367Y-129773059D01*
X184500000Y-129620818D01*
X183734633Y-129773059D01*
X183454856Y-129960000D01*
X181340000Y-129960000D01*
X180689438Y-130089405D01*
X180137918Y-130457918D01*
X180137916Y-130457921D01*
X180044393Y-130551444D01*
X179734633Y-130613059D01*
X179085786Y-131046604D01*
X178652241Y-131695451D01*
X178500000Y-132460818D01*
X178500000Y-132539182D01*
X178652241Y-133304549D01*
X179085786Y-133953396D01*
X179734633Y-134386941D01*
X180500000Y-134539182D01*
X181265367Y-134386941D01*
X181914214Y-133953396D01*
X182310708Y-133360000D01*
X182800000Y-133360000D01*
X182800000Y-133499995D01*
X182799999Y-133500000D01*
X182929405Y-134150562D01*
X183297918Y-134702082D01*
X193229378Y-144633541D01*
X193159853Y-144737592D01*
X193000000Y-145541227D01*
X193000000Y-147458773D01*
X193159853Y-148262408D01*
X193615076Y-148943697D01*
X194296365Y-149398920D01*
X195100000Y-149558773D01*
X195903635Y-149398920D01*
X196584924Y-148943697D01*
X197040147Y-148262408D01*
X197200000Y-147458773D01*
X197200000Y-145924164D01*
X198080000Y-146804163D01*
X198080000Y-147458773D01*
X198239853Y-148262408D01*
X198695076Y-148943697D01*
X199376365Y-149398920D01*
X199524153Y-149428317D01*
X201297916Y-151202079D01*
X201297918Y-151202082D01*
X201332217Y-151225000D01*
X180232734Y-151225000D01*
X180497402Y-150638824D01*
X177500000Y-147641421D01*
X174502598Y-150638824D01*
X174767266Y-151225000D01*
X173775000Y-151225000D01*
X173775000Y-150232734D01*
X174361176Y-150497402D01*
X177358579Y-147500000D01*
X177641421Y-147500000D01*
X180638824Y-150497402D01*
X181352302Y-150175255D01*
X182082839Y-148497402D01*
X182115681Y-146667703D01*
X181672593Y-145541227D01*
X182840000Y-145541227D01*
X182840000Y-147458773D01*
X182999853Y-148262408D01*
X183455076Y-148943697D01*
X184136365Y-149398920D01*
X184940000Y-149558773D01*
X185743635Y-149398920D01*
X186424924Y-148943697D01*
X186880147Y-148262408D01*
X187040000Y-147458773D01*
X187040000Y-146600000D01*
X187720000Y-146600000D01*
X187720000Y-147500000D01*
X187933345Y-148372560D01*
X188464365Y-149097057D01*
X189232216Y-149563192D01*
X189561772Y-149653892D01*
X189920000Y-149347434D01*
X189920000Y-146600000D01*
X190120000Y-146600000D01*
X190120000Y-149347434D01*
X190478228Y-149653892D01*
X190807784Y-149563192D01*
X191575635Y-149097057D01*
X192106655Y-148372560D01*
X192320000Y-147500000D01*
X192320000Y-146600000D01*
X190120000Y-146600000D01*
X189920000Y-146600000D01*
X187720000Y-146600000D01*
X187040000Y-146600000D01*
X187040000Y-145541227D01*
X187031800Y-145500000D01*
X187720000Y-145500000D01*
X187720000Y-146400000D01*
X189920000Y-146400000D01*
X189920000Y-143652566D01*
X190120000Y-143652566D01*
X190120000Y-146400000D01*
X192320000Y-146400000D01*
X192320000Y-145500000D01*
X192106655Y-144627440D01*
X191575635Y-143902943D01*
X190807784Y-143436808D01*
X190478228Y-143346108D01*
X190120000Y-143652566D01*
X189920000Y-143652566D01*
X189561772Y-143346108D01*
X189232216Y-143436808D01*
X188464365Y-143902943D01*
X187933345Y-144627440D01*
X187720000Y-145500000D01*
X187031800Y-145500000D01*
X186880147Y-144737592D01*
X186424924Y-144056303D01*
X185743635Y-143601080D01*
X184940000Y-143441227D01*
X184136365Y-143601080D01*
X183455076Y-144056303D01*
X182999853Y-144737592D01*
X182840000Y-145541227D01*
X181672593Y-145541227D01*
X181445826Y-144964713D01*
X181352302Y-144824745D01*
X180638824Y-144502598D01*
X177641421Y-147500000D01*
X177358579Y-147500000D01*
X174361176Y-144502598D01*
X173775000Y-144767266D01*
X173775000Y-144361176D01*
X174502598Y-144361176D01*
X177500000Y-147358579D01*
X180497402Y-144361176D01*
X180175255Y-143647698D01*
X178497402Y-142917161D01*
X176667703Y-142884319D01*
X174964713Y-143554174D01*
X174824745Y-143647698D01*
X174502598Y-144361176D01*
X173775000Y-144361176D01*
X173775000Y-122679164D01*
X178957916Y-127862079D01*
M02*
