M48
;DRILL file {KiCad 4.0.6} date Friday, 28 July 2017 'PMt' 20:00:54
;FORMAT={-:-/ absolute / metric / decimal}
FMAT,2
METRIC,TZ
T1C0.700
T2C0.800
T3C1.000
T4C1.200
T5C1.500
T6C1.600
T7C2.000
T8C3.200
T9C2.500
T10C3.200
%
G90
G05
M71
T1
X192.5Y-131.5
X195.04Y-128.96
X197.58Y-131.5
X211.46Y-77.46
X214.Y-74.92
X214.Y-80.
T2
X180.5Y-120.
X180.5Y-132.5
X184.5Y-121.5
X184.5Y-131.66
X186.Y-95.
X186.Y-115.
X190.5Y-116.5
X190.5Y-126.66
X195.5Y-120.
X195.5Y-122.
X213.5Y-85.5
X213.5Y-87.5
X215.Y-115.
X215.Y-135.
X220.Y-79.84
X220.Y-90.
X221.Y-130.5
X221.Y-140.66
X225.Y-128.5
X225.Y-141.
T3
X201.Y-71.
X201.Y-78.5
X201.Y-82.5
X201.Y-90.
X208.Y-119.
X208.Y-126.5
X208.Y-131.
X208.Y-138.5
T4
X177.76Y-70.
X178.5Y-103.42
X178.5Y-108.5
X182.5Y-79.
X182.5Y-86.5
X184.94Y-146.5
X187.Y-64.
X190.02Y-146.5
X192.08Y-64.
X193.Y-70.
X195.Y-76.
X195.Y-91.24
X195.1Y-146.5
X200.18Y-146.5
X202.Y-120.5
X202.Y-135.74
X205.26Y-146.5
X207.Y-64.
X207.Y-74.76
X207.Y-90.
X210.34Y-146.5
X212.08Y-64.
X215.42Y-146.5
X219.Y-98.
X219.Y-113.24
X220.5Y-146.5
X226.5Y-85.
X226.5Y-90.08
X226.5Y-103.5
X226.5Y-108.58
T5
X202.498Y-113.096
X202.533Y-96.809
T6
X179.5Y-115.5
X227.Y-76.
X229.Y-118.
T7
X192.Y-101.588
X192.Y-108.412
X196.011Y-113.932
X196.011Y-96.068
X202.5Y-93.96
X202.5Y-116.04
X208.989Y-96.068
X208.989Y-113.931
X213.Y-101.588
T8
X177.5Y-147.5
T9
X202.5Y-105.
T10
X177.5Y-62.5
X227.5Y-62.5
X227.5Y-147.5
T0
M30
