G04 #@! TF.FileFunction,Legend,Top*
%FSLAX46Y46*%
G04 Gerber Fmt 4.6, Leading zero omitted, Abs format (unit mm)*
G04 Created by KiCad (PCBNEW 4.0.6) date Friday, 28 July 2017 'PMt' 20:00:50*
%MOMM*%
%LPD*%
G01*
G04 APERTURE LIST*
%ADD10C,0.100000*%
%ADD11C,0.200000*%
%ADD12C,0.300000*%
%ADD13C,0.120000*%
%ADD14C,0.150000*%
G04 APERTURE END LIST*
D10*
D11*
X195142857Y-59452381D02*
X195142857Y-58452381D01*
X195142857Y-58928571D02*
X195714286Y-58928571D01*
X195714286Y-59452381D02*
X195714286Y-58452381D01*
X196047619Y-58452381D02*
X196619048Y-58452381D01*
X196333333Y-59452381D02*
X196333333Y-58452381D01*
X196952381Y-59452381D02*
X196952381Y-58785714D01*
X196952381Y-58452381D02*
X196904762Y-58500000D01*
X196952381Y-58547619D01*
X197000000Y-58500000D01*
X196952381Y-58452381D01*
X196952381Y-58547619D01*
X197428571Y-58785714D02*
X197428571Y-59452381D01*
X197428571Y-58880952D02*
X197476190Y-58833333D01*
X197571428Y-58785714D01*
X197714286Y-58785714D01*
X197809524Y-58833333D01*
X197857143Y-58928571D01*
X197857143Y-59452381D01*
X174804762Y-138361905D02*
X174804762Y-138552381D01*
X174614286Y-138476190D02*
X174804762Y-138552381D01*
X174995238Y-138476190D01*
X174690476Y-138704762D02*
X174804762Y-138552381D01*
X174919048Y-138704762D01*
X175300000Y-138361905D02*
X175300000Y-139009524D01*
X175338095Y-139085714D01*
X175376191Y-139123810D01*
X175452381Y-139161905D01*
X175604762Y-139161905D01*
X175680953Y-139123810D01*
X175719048Y-139085714D01*
X175757143Y-139009524D01*
X175757143Y-138361905D01*
X176100000Y-139123810D02*
X176176190Y-139161905D01*
X176328571Y-139161905D01*
X176404762Y-139123810D01*
X176442857Y-139047619D01*
X176442857Y-139009524D01*
X176404762Y-138933333D01*
X176328571Y-138895238D01*
X176214286Y-138895238D01*
X176138095Y-138857143D01*
X176100000Y-138780952D01*
X176100000Y-138742857D01*
X176138095Y-138666667D01*
X176214286Y-138628571D01*
X176328571Y-138628571D01*
X176404762Y-138666667D01*
X177090476Y-139123810D02*
X177014286Y-139161905D01*
X176861905Y-139161905D01*
X176785714Y-139123810D01*
X176747619Y-139047619D01*
X176747619Y-138742857D01*
X176785714Y-138666667D01*
X176861905Y-138628571D01*
X177014286Y-138628571D01*
X177090476Y-138666667D01*
X177128571Y-138742857D01*
X177128571Y-138819048D01*
X176747619Y-138895238D01*
X178042857Y-138933333D02*
X178423809Y-138933333D01*
X177966666Y-139161905D02*
X178233333Y-138361905D01*
X178500000Y-139161905D01*
X179185714Y-138400000D02*
X179109523Y-138361905D01*
X178995238Y-138361905D01*
X178880952Y-138400000D01*
X178804761Y-138476190D01*
X178766666Y-138552381D01*
X178728571Y-138704762D01*
X178728571Y-138819048D01*
X178766666Y-138971429D01*
X178804761Y-139047619D01*
X178880952Y-139123810D01*
X178995238Y-139161905D01*
X179071428Y-139161905D01*
X179185714Y-139123810D01*
X179223809Y-139085714D01*
X179223809Y-138819048D01*
X179071428Y-138819048D01*
X179566666Y-139161905D02*
X179566666Y-138361905D01*
X180023809Y-139161905D01*
X180023809Y-138361905D01*
X180404761Y-139161905D02*
X180404761Y-138361905D01*
X180595237Y-138361905D01*
X180709523Y-138400000D01*
X180785714Y-138476190D01*
X180823809Y-138552381D01*
X180861904Y-138704762D01*
X180861904Y-138819048D01*
X180823809Y-138971429D01*
X180785714Y-139047619D01*
X180709523Y-139123810D01*
X180595237Y-139161905D01*
X180404761Y-139161905D01*
X182157142Y-139161905D02*
X182157142Y-138742857D01*
X182119047Y-138666667D01*
X182042857Y-138628571D01*
X181890476Y-138628571D01*
X181814285Y-138666667D01*
X182157142Y-139123810D02*
X182080952Y-139161905D01*
X181890476Y-139161905D01*
X181814285Y-139123810D01*
X181776190Y-139047619D01*
X181776190Y-138971429D01*
X181814285Y-138895238D01*
X181890476Y-138857143D01*
X182080952Y-138857143D01*
X182157142Y-138819048D01*
X182500000Y-139123810D02*
X182576190Y-139161905D01*
X182728571Y-139161905D01*
X182804762Y-139123810D01*
X182842857Y-139047619D01*
X182842857Y-139009524D01*
X182804762Y-138933333D01*
X182728571Y-138895238D01*
X182614286Y-138895238D01*
X182538095Y-138857143D01*
X182500000Y-138780952D01*
X182500000Y-138742857D01*
X182538095Y-138666667D01*
X182614286Y-138628571D01*
X182728571Y-138628571D01*
X182804762Y-138666667D01*
X174690476Y-140561905D02*
X174690476Y-140028571D01*
X174690476Y-140180952D02*
X174728571Y-140104762D01*
X174766667Y-140066667D01*
X174842857Y-140028571D01*
X174919048Y-140028571D01*
X175490476Y-140523810D02*
X175414286Y-140561905D01*
X175261905Y-140561905D01*
X175185714Y-140523810D01*
X175147619Y-140447619D01*
X175147619Y-140142857D01*
X175185714Y-140066667D01*
X175261905Y-140028571D01*
X175414286Y-140028571D01*
X175490476Y-140066667D01*
X175528571Y-140142857D01*
X175528571Y-140219048D01*
X175147619Y-140295238D01*
X175757142Y-140028571D02*
X176061904Y-140028571D01*
X175871428Y-139761905D02*
X175871428Y-140447619D01*
X175909523Y-140523810D01*
X175985714Y-140561905D01*
X176061904Y-140561905D01*
X176671428Y-140028571D02*
X176671428Y-140561905D01*
X176328571Y-140028571D02*
X176328571Y-140447619D01*
X176366666Y-140523810D01*
X176442857Y-140561905D01*
X176557143Y-140561905D01*
X176633333Y-140523810D01*
X176671428Y-140485714D01*
X177052381Y-140561905D02*
X177052381Y-140028571D01*
X177052381Y-140180952D02*
X177090476Y-140104762D01*
X177128572Y-140066667D01*
X177204762Y-140028571D01*
X177280953Y-140028571D01*
X177547619Y-140028571D02*
X177547619Y-140561905D01*
X177547619Y-140104762D02*
X177585714Y-140066667D01*
X177661905Y-140028571D01*
X177776191Y-140028571D01*
X177852381Y-140066667D01*
X177890476Y-140142857D01*
X177890476Y-140561905D01*
X178766667Y-140028571D02*
X179071429Y-140028571D01*
X178880953Y-140561905D02*
X178880953Y-139876190D01*
X178919048Y-139800000D01*
X178995239Y-139761905D01*
X179071429Y-139761905D01*
X179338096Y-140561905D02*
X179338096Y-140028571D01*
X179338096Y-140180952D02*
X179376191Y-140104762D01*
X179414287Y-140066667D01*
X179490477Y-140028571D01*
X179566668Y-140028571D01*
X179947620Y-140561905D02*
X179871429Y-140523810D01*
X179833334Y-140485714D01*
X179795239Y-140409524D01*
X179795239Y-140180952D01*
X179833334Y-140104762D01*
X179871429Y-140066667D01*
X179947620Y-140028571D01*
X180061906Y-140028571D01*
X180138096Y-140066667D01*
X180176191Y-140104762D01*
X180214287Y-140180952D01*
X180214287Y-140409524D01*
X180176191Y-140485714D01*
X180138096Y-140523810D01*
X180061906Y-140561905D01*
X179947620Y-140561905D01*
X180557144Y-140561905D02*
X180557144Y-140028571D01*
X180557144Y-140104762D02*
X180595239Y-140066667D01*
X180671430Y-140028571D01*
X180785716Y-140028571D01*
X180861906Y-140066667D01*
X180900001Y-140142857D01*
X180900001Y-140561905D01*
X180900001Y-140142857D02*
X180938097Y-140066667D01*
X181014287Y-140028571D01*
X181128573Y-140028571D01*
X181204763Y-140066667D01*
X181242858Y-140142857D01*
X181242858Y-140561905D01*
X182233335Y-140028571D02*
X182233335Y-140828571D01*
X182233335Y-140066667D02*
X182309526Y-140028571D01*
X182461907Y-140028571D01*
X182538097Y-140066667D01*
X182576192Y-140104762D01*
X182614288Y-140180952D01*
X182614288Y-140409524D01*
X182576192Y-140485714D01*
X182538097Y-140523810D01*
X182461907Y-140561905D01*
X182309526Y-140561905D01*
X182233335Y-140523810D01*
X183071431Y-140561905D02*
X182995240Y-140523810D01*
X182957145Y-140485714D01*
X182919050Y-140409524D01*
X182919050Y-140180952D01*
X182957145Y-140104762D01*
X182995240Y-140066667D01*
X183071431Y-140028571D01*
X183185717Y-140028571D01*
X183261907Y-140066667D01*
X183300002Y-140104762D01*
X183338098Y-140180952D01*
X183338098Y-140409524D01*
X183300002Y-140485714D01*
X183261907Y-140523810D01*
X183185717Y-140561905D01*
X183071431Y-140561905D01*
X183566669Y-140028571D02*
X183871431Y-140028571D01*
X183680955Y-139761905D02*
X183680955Y-140447619D01*
X183719050Y-140523810D01*
X183795241Y-140561905D01*
X183871431Y-140561905D01*
X184100003Y-140523810D02*
X184176193Y-140561905D01*
X184328574Y-140561905D01*
X184404765Y-140523810D01*
X184442860Y-140447619D01*
X184442860Y-140409524D01*
X184404765Y-140333333D01*
X184328574Y-140295238D01*
X184214289Y-140295238D01*
X184138098Y-140257143D01*
X184100003Y-140180952D01*
X184100003Y-140142857D01*
X184138098Y-140066667D01*
X184214289Y-140028571D01*
X184328574Y-140028571D01*
X184404765Y-140066667D01*
X210804762Y-68861905D02*
X210804762Y-69052381D01*
X210614286Y-68976190D02*
X210804762Y-69052381D01*
X210995238Y-68976190D01*
X210690476Y-69204762D02*
X210804762Y-69052381D01*
X210919048Y-69204762D01*
X211757143Y-69585714D02*
X211719048Y-69623810D01*
X211604762Y-69661905D01*
X211528572Y-69661905D01*
X211414286Y-69623810D01*
X211338095Y-69547619D01*
X211300000Y-69471429D01*
X211261905Y-69319048D01*
X211261905Y-69204762D01*
X211300000Y-69052381D01*
X211338095Y-68976190D01*
X211414286Y-68900000D01*
X211528572Y-68861905D01*
X211604762Y-68861905D01*
X211719048Y-68900000D01*
X211757143Y-68938095D01*
X212214286Y-69661905D02*
X212138095Y-69623810D01*
X212100000Y-69585714D01*
X212061905Y-69509524D01*
X212061905Y-69280952D01*
X212100000Y-69204762D01*
X212138095Y-69166667D01*
X212214286Y-69128571D01*
X212328572Y-69128571D01*
X212404762Y-69166667D01*
X212442857Y-69204762D01*
X212480953Y-69280952D01*
X212480953Y-69509524D01*
X212442857Y-69585714D01*
X212404762Y-69623810D01*
X212328572Y-69661905D01*
X212214286Y-69661905D01*
X212823810Y-69128571D02*
X212823810Y-69661905D01*
X212823810Y-69204762D02*
X212861905Y-69166667D01*
X212938096Y-69128571D01*
X213052382Y-69128571D01*
X213128572Y-69166667D01*
X213166667Y-69242857D01*
X213166667Y-69661905D01*
X213547620Y-69128571D02*
X213547620Y-69661905D01*
X213547620Y-69204762D02*
X213585715Y-69166667D01*
X213661906Y-69128571D01*
X213776192Y-69128571D01*
X213852382Y-69166667D01*
X213890477Y-69242857D01*
X213890477Y-69661905D01*
X214576192Y-69623810D02*
X214500002Y-69661905D01*
X214347621Y-69661905D01*
X214271430Y-69623810D01*
X214233335Y-69547619D01*
X214233335Y-69242857D01*
X214271430Y-69166667D01*
X214347621Y-69128571D01*
X214500002Y-69128571D01*
X214576192Y-69166667D01*
X214614287Y-69242857D01*
X214614287Y-69319048D01*
X214233335Y-69395238D01*
X215300001Y-69623810D02*
X215223811Y-69661905D01*
X215071430Y-69661905D01*
X214995239Y-69623810D01*
X214957144Y-69585714D01*
X214919049Y-69509524D01*
X214919049Y-69280952D01*
X214957144Y-69204762D01*
X214995239Y-69166667D01*
X215071430Y-69128571D01*
X215223811Y-69128571D01*
X215300001Y-69166667D01*
X215528572Y-69128571D02*
X215833334Y-69128571D01*
X215642858Y-68861905D02*
X215642858Y-69547619D01*
X215680953Y-69623810D01*
X215757144Y-69661905D01*
X215833334Y-69661905D01*
X216404763Y-69623810D02*
X216328573Y-69661905D01*
X216176192Y-69661905D01*
X216100001Y-69623810D01*
X216061906Y-69547619D01*
X216061906Y-69242857D01*
X216100001Y-69166667D01*
X216176192Y-69128571D01*
X216328573Y-69128571D01*
X216404763Y-69166667D01*
X216442858Y-69242857D01*
X216442858Y-69319048D01*
X216061906Y-69395238D01*
X217128572Y-69661905D02*
X217128572Y-68861905D01*
X217128572Y-69623810D02*
X217052382Y-69661905D01*
X216900001Y-69661905D01*
X216823810Y-69623810D01*
X216785715Y-69585714D01*
X216747620Y-69509524D01*
X216747620Y-69280952D01*
X216785715Y-69204762D01*
X216823810Y-69166667D01*
X216900001Y-69128571D01*
X217052382Y-69128571D01*
X217128572Y-69166667D01*
X218119049Y-69661905D02*
X218119049Y-69128571D01*
X218119049Y-68861905D02*
X218080954Y-68900000D01*
X218119049Y-68938095D01*
X218157144Y-68900000D01*
X218119049Y-68861905D01*
X218119049Y-68938095D01*
X218500001Y-69128571D02*
X218500001Y-69661905D01*
X218500001Y-69204762D02*
X218538096Y-69166667D01*
X218614287Y-69128571D01*
X218728573Y-69128571D01*
X218804763Y-69166667D01*
X218842858Y-69242857D01*
X218842858Y-69661905D01*
X220404764Y-68823810D02*
X219719049Y-69852381D01*
X221242859Y-68823810D02*
X220557144Y-69852381D01*
X210614286Y-70528571D02*
X210766667Y-71061905D01*
X210919048Y-70680952D01*
X211071429Y-71061905D01*
X211223810Y-70528571D01*
X211528571Y-71061905D02*
X211528571Y-70528571D01*
X211528571Y-70261905D02*
X211490476Y-70300000D01*
X211528571Y-70338095D01*
X211566666Y-70300000D01*
X211528571Y-70261905D01*
X211528571Y-70338095D01*
X211795237Y-70528571D02*
X212099999Y-70528571D01*
X211909523Y-70261905D02*
X211909523Y-70947619D01*
X211947618Y-71023810D01*
X212023809Y-71061905D01*
X212099999Y-71061905D01*
X212366666Y-71061905D02*
X212366666Y-70261905D01*
X212709523Y-71061905D02*
X212709523Y-70642857D01*
X212671428Y-70566667D01*
X212595238Y-70528571D01*
X212480952Y-70528571D01*
X212404761Y-70566667D01*
X212366666Y-70604762D01*
X214157143Y-71061905D02*
X213890476Y-70680952D01*
X213700000Y-71061905D02*
X213700000Y-70261905D01*
X214004762Y-70261905D01*
X214080953Y-70300000D01*
X214119048Y-70338095D01*
X214157143Y-70414286D01*
X214157143Y-70528571D01*
X214119048Y-70604762D01*
X214080953Y-70642857D01*
X214004762Y-70680952D01*
X213700000Y-70680952D01*
X214309524Y-71138095D02*
X214919048Y-71138095D01*
X215109524Y-71061905D02*
X215109524Y-70261905D01*
X215185715Y-70757143D02*
X215414286Y-71061905D01*
X215414286Y-70528571D02*
X215109524Y-70833333D01*
X215719048Y-70338095D02*
X215757143Y-70300000D01*
X215833334Y-70261905D01*
X216023810Y-70261905D01*
X216100000Y-70300000D01*
X216138096Y-70338095D01*
X216176191Y-70414286D01*
X216176191Y-70490476D01*
X216138096Y-70604762D01*
X215680953Y-71061905D01*
X216176191Y-71061905D01*
X191304762Y-137861905D02*
X191304762Y-138052381D01*
X191114286Y-137976190D02*
X191304762Y-138052381D01*
X191495238Y-137976190D01*
X191190476Y-138204762D02*
X191304762Y-138052381D01*
X191419048Y-138204762D01*
X192257143Y-138585714D02*
X192219048Y-138623810D01*
X192104762Y-138661905D01*
X192028572Y-138661905D01*
X191914286Y-138623810D01*
X191838095Y-138547619D01*
X191800000Y-138471429D01*
X191761905Y-138319048D01*
X191761905Y-138204762D01*
X191800000Y-138052381D01*
X191838095Y-137976190D01*
X191914286Y-137900000D01*
X192028572Y-137861905D01*
X192104762Y-137861905D01*
X192219048Y-137900000D01*
X192257143Y-137938095D01*
X192714286Y-138661905D02*
X192638095Y-138623810D01*
X192600000Y-138585714D01*
X192561905Y-138509524D01*
X192561905Y-138280952D01*
X192600000Y-138204762D01*
X192638095Y-138166667D01*
X192714286Y-138128571D01*
X192828572Y-138128571D01*
X192904762Y-138166667D01*
X192942857Y-138204762D01*
X192980953Y-138280952D01*
X192980953Y-138509524D01*
X192942857Y-138585714D01*
X192904762Y-138623810D01*
X192828572Y-138661905D01*
X192714286Y-138661905D01*
X193323810Y-138128571D02*
X193323810Y-138661905D01*
X193323810Y-138204762D02*
X193361905Y-138166667D01*
X193438096Y-138128571D01*
X193552382Y-138128571D01*
X193628572Y-138166667D01*
X193666667Y-138242857D01*
X193666667Y-138661905D01*
X194047620Y-138128571D02*
X194047620Y-138661905D01*
X194047620Y-138204762D02*
X194085715Y-138166667D01*
X194161906Y-138128571D01*
X194276192Y-138128571D01*
X194352382Y-138166667D01*
X194390477Y-138242857D01*
X194390477Y-138661905D01*
X195076192Y-138623810D02*
X195000002Y-138661905D01*
X194847621Y-138661905D01*
X194771430Y-138623810D01*
X194733335Y-138547619D01*
X194733335Y-138242857D01*
X194771430Y-138166667D01*
X194847621Y-138128571D01*
X195000002Y-138128571D01*
X195076192Y-138166667D01*
X195114287Y-138242857D01*
X195114287Y-138319048D01*
X194733335Y-138395238D01*
X195800001Y-138623810D02*
X195723811Y-138661905D01*
X195571430Y-138661905D01*
X195495239Y-138623810D01*
X195457144Y-138585714D01*
X195419049Y-138509524D01*
X195419049Y-138280952D01*
X195457144Y-138204762D01*
X195495239Y-138166667D01*
X195571430Y-138128571D01*
X195723811Y-138128571D01*
X195800001Y-138166667D01*
X196028572Y-138128571D02*
X196333334Y-138128571D01*
X196142858Y-137861905D02*
X196142858Y-138547619D01*
X196180953Y-138623810D01*
X196257144Y-138661905D01*
X196333334Y-138661905D01*
X196904763Y-138623810D02*
X196828573Y-138661905D01*
X196676192Y-138661905D01*
X196600001Y-138623810D01*
X196561906Y-138547619D01*
X196561906Y-138242857D01*
X196600001Y-138166667D01*
X196676192Y-138128571D01*
X196828573Y-138128571D01*
X196904763Y-138166667D01*
X196942858Y-138242857D01*
X196942858Y-138319048D01*
X196561906Y-138395238D01*
X197628572Y-138661905D02*
X197628572Y-137861905D01*
X197628572Y-138623810D02*
X197552382Y-138661905D01*
X197400001Y-138661905D01*
X197323810Y-138623810D01*
X197285715Y-138585714D01*
X197247620Y-138509524D01*
X197247620Y-138280952D01*
X197285715Y-138204762D01*
X197323810Y-138166667D01*
X197400001Y-138128571D01*
X197552382Y-138128571D01*
X197628572Y-138166667D01*
X198619049Y-138661905D02*
X198619049Y-138128571D01*
X198619049Y-137861905D02*
X198580954Y-137900000D01*
X198619049Y-137938095D01*
X198657144Y-137900000D01*
X198619049Y-137861905D01*
X198619049Y-137938095D01*
X199000001Y-138128571D02*
X199000001Y-138661905D01*
X199000001Y-138204762D02*
X199038096Y-138166667D01*
X199114287Y-138128571D01*
X199228573Y-138128571D01*
X199304763Y-138166667D01*
X199342858Y-138242857D01*
X199342858Y-138661905D01*
X200904764Y-137823810D02*
X200219049Y-138852381D01*
X201742859Y-137823810D02*
X201057144Y-138852381D01*
X191114286Y-139528571D02*
X191266667Y-140061905D01*
X191419048Y-139680952D01*
X191571429Y-140061905D01*
X191723810Y-139528571D01*
X192028571Y-140061905D02*
X192028571Y-139528571D01*
X192028571Y-139261905D02*
X191990476Y-139300000D01*
X192028571Y-139338095D01*
X192066666Y-139300000D01*
X192028571Y-139261905D01*
X192028571Y-139338095D01*
X192295237Y-139528571D02*
X192599999Y-139528571D01*
X192409523Y-139261905D02*
X192409523Y-139947619D01*
X192447618Y-140023810D01*
X192523809Y-140061905D01*
X192599999Y-140061905D01*
X192866666Y-140061905D02*
X192866666Y-139261905D01*
X193209523Y-140061905D02*
X193209523Y-139642857D01*
X193171428Y-139566667D01*
X193095238Y-139528571D01*
X192980952Y-139528571D01*
X192904761Y-139566667D01*
X192866666Y-139604762D01*
X194657143Y-140061905D02*
X194390476Y-139680952D01*
X194200000Y-140061905D02*
X194200000Y-139261905D01*
X194504762Y-139261905D01*
X194580953Y-139300000D01*
X194619048Y-139338095D01*
X194657143Y-139414286D01*
X194657143Y-139528571D01*
X194619048Y-139604762D01*
X194580953Y-139642857D01*
X194504762Y-139680952D01*
X194200000Y-139680952D01*
X194809524Y-140138095D02*
X195419048Y-140138095D01*
X195609524Y-140061905D02*
X195609524Y-139261905D01*
X195685715Y-139757143D02*
X195914286Y-140061905D01*
X195914286Y-139528571D02*
X195609524Y-139833333D01*
X196676191Y-140061905D02*
X196219048Y-140061905D01*
X196447619Y-140061905D02*
X196447619Y-139261905D01*
X196371429Y-139376190D01*
X196295238Y-139452381D01*
X196219048Y-139490476D01*
X174804762Y-135361905D02*
X174804762Y-135552381D01*
X174614286Y-135476190D02*
X174804762Y-135552381D01*
X174995238Y-135476190D01*
X174690476Y-135704762D02*
X174804762Y-135552381D01*
X174919048Y-135704762D01*
X175300000Y-135361905D02*
X175300000Y-136009524D01*
X175338095Y-136085714D01*
X175376191Y-136123810D01*
X175452381Y-136161905D01*
X175604762Y-136161905D01*
X175680953Y-136123810D01*
X175719048Y-136085714D01*
X175757143Y-136009524D01*
X175757143Y-135361905D01*
X176100000Y-136123810D02*
X176176190Y-136161905D01*
X176328571Y-136161905D01*
X176404762Y-136123810D01*
X176442857Y-136047619D01*
X176442857Y-136009524D01*
X176404762Y-135933333D01*
X176328571Y-135895238D01*
X176214286Y-135895238D01*
X176138095Y-135857143D01*
X176100000Y-135780952D01*
X176100000Y-135742857D01*
X176138095Y-135666667D01*
X176214286Y-135628571D01*
X176328571Y-135628571D01*
X176404762Y-135666667D01*
X177090476Y-136123810D02*
X177014286Y-136161905D01*
X176861905Y-136161905D01*
X176785714Y-136123810D01*
X176747619Y-136047619D01*
X176747619Y-135742857D01*
X176785714Y-135666667D01*
X176861905Y-135628571D01*
X177014286Y-135628571D01*
X177090476Y-135666667D01*
X177128571Y-135742857D01*
X177128571Y-135819048D01*
X176747619Y-135895238D01*
X178500000Y-135400000D02*
X178423809Y-135361905D01*
X178309524Y-135361905D01*
X178195238Y-135400000D01*
X178119047Y-135476190D01*
X178080952Y-135552381D01*
X178042857Y-135704762D01*
X178042857Y-135819048D01*
X178080952Y-135971429D01*
X178119047Y-136047619D01*
X178195238Y-136123810D01*
X178309524Y-136161905D01*
X178385714Y-136161905D01*
X178500000Y-136123810D01*
X178538095Y-136085714D01*
X178538095Y-135819048D01*
X178385714Y-135819048D01*
X178880952Y-136161905D02*
X178880952Y-135361905D01*
X179338095Y-136161905D01*
X179338095Y-135361905D01*
X179719047Y-136161905D02*
X179719047Y-135361905D01*
X179909523Y-135361905D01*
X180023809Y-135400000D01*
X180100000Y-135476190D01*
X180138095Y-135552381D01*
X180176190Y-135704762D01*
X180176190Y-135819048D01*
X180138095Y-135971429D01*
X180100000Y-136047619D01*
X180023809Y-136123810D01*
X179909523Y-136161905D01*
X179719047Y-136161905D01*
X181014285Y-135628571D02*
X181319047Y-135628571D01*
X181128571Y-136161905D02*
X181128571Y-135476190D01*
X181166666Y-135400000D01*
X181242857Y-135361905D01*
X181319047Y-135361905D01*
X181700000Y-136161905D02*
X181623809Y-136123810D01*
X181585714Y-136085714D01*
X181547619Y-136009524D01*
X181547619Y-135780952D01*
X181585714Y-135704762D01*
X181623809Y-135666667D01*
X181700000Y-135628571D01*
X181814286Y-135628571D01*
X181890476Y-135666667D01*
X181928571Y-135704762D01*
X181966667Y-135780952D01*
X181966667Y-136009524D01*
X181928571Y-136085714D01*
X181890476Y-136123810D01*
X181814286Y-136161905D01*
X181700000Y-136161905D01*
X182309524Y-136161905D02*
X182309524Y-135628571D01*
X182309524Y-135780952D02*
X182347619Y-135704762D01*
X182385715Y-135666667D01*
X182461905Y-135628571D01*
X182538096Y-135628571D01*
X174614286Y-137028571D02*
X174766667Y-137561905D01*
X174919048Y-137180952D01*
X175071429Y-137561905D01*
X175223810Y-137028571D01*
X175528571Y-137561905D02*
X175528571Y-137028571D01*
X175528571Y-136761905D02*
X175490476Y-136800000D01*
X175528571Y-136838095D01*
X175566666Y-136800000D01*
X175528571Y-136761905D01*
X175528571Y-136838095D01*
X175909523Y-137561905D02*
X175909523Y-137028571D01*
X175909523Y-137180952D02*
X175947618Y-137104762D01*
X175985714Y-137066667D01*
X176061904Y-137028571D01*
X176138095Y-137028571D01*
X176709523Y-137523810D02*
X176633333Y-137561905D01*
X176480952Y-137561905D01*
X176404761Y-137523810D01*
X176366666Y-137447619D01*
X176366666Y-137142857D01*
X176404761Y-137066667D01*
X176480952Y-137028571D01*
X176633333Y-137028571D01*
X176709523Y-137066667D01*
X176747618Y-137142857D01*
X176747618Y-137219048D01*
X176366666Y-137295238D01*
X177661904Y-137523810D02*
X177738094Y-137561905D01*
X177890475Y-137561905D01*
X177966666Y-137523810D01*
X178004761Y-137447619D01*
X178004761Y-137409524D01*
X177966666Y-137333333D01*
X177890475Y-137295238D01*
X177776190Y-137295238D01*
X177699999Y-137257143D01*
X177661904Y-137180952D01*
X177661904Y-137142857D01*
X177699999Y-137066667D01*
X177776190Y-137028571D01*
X177890475Y-137028571D01*
X177966666Y-137066667D01*
X178347618Y-137561905D02*
X178347618Y-136761905D01*
X178690475Y-137561905D02*
X178690475Y-137142857D01*
X178652380Y-137066667D01*
X178576190Y-137028571D01*
X178461904Y-137028571D01*
X178385713Y-137066667D01*
X178347618Y-137104762D01*
X179071428Y-137561905D02*
X179071428Y-137028571D01*
X179071428Y-136761905D02*
X179033333Y-136800000D01*
X179071428Y-136838095D01*
X179109523Y-136800000D01*
X179071428Y-136761905D01*
X179071428Y-136838095D01*
X179757142Y-137523810D02*
X179680952Y-137561905D01*
X179528571Y-137561905D01*
X179452380Y-137523810D01*
X179414285Y-137447619D01*
X179414285Y-137142857D01*
X179452380Y-137066667D01*
X179528571Y-137028571D01*
X179680952Y-137028571D01*
X179757142Y-137066667D01*
X179795237Y-137142857D01*
X179795237Y-137219048D01*
X179414285Y-137295238D01*
X180252380Y-137561905D02*
X180176189Y-137523810D01*
X180138094Y-137447619D01*
X180138094Y-136761905D01*
X180899999Y-137561905D02*
X180899999Y-136761905D01*
X180899999Y-137523810D02*
X180823809Y-137561905D01*
X180671428Y-137561905D01*
X180595237Y-137523810D01*
X180557142Y-137485714D01*
X180519047Y-137409524D01*
X180519047Y-137180952D01*
X180557142Y-137104762D01*
X180595237Y-137066667D01*
X180671428Y-137028571D01*
X180823809Y-137028571D01*
X180899999Y-137066667D01*
X181280952Y-137561905D02*
X181280952Y-137028571D01*
X181280952Y-136761905D02*
X181242857Y-136800000D01*
X181280952Y-136838095D01*
X181319047Y-136800000D01*
X181280952Y-136761905D01*
X181280952Y-136838095D01*
X181661904Y-137028571D02*
X181661904Y-137561905D01*
X181661904Y-137104762D02*
X181699999Y-137066667D01*
X181776190Y-137028571D01*
X181890476Y-137028571D01*
X181966666Y-137066667D01*
X182004761Y-137142857D01*
X182004761Y-137561905D01*
X182728571Y-137028571D02*
X182728571Y-137676190D01*
X182690476Y-137752381D01*
X182652381Y-137790476D01*
X182576190Y-137828571D01*
X182461905Y-137828571D01*
X182385714Y-137790476D01*
X182728571Y-137523810D02*
X182652381Y-137561905D01*
X182500000Y-137561905D01*
X182423809Y-137523810D01*
X182385714Y-137485714D01*
X182347619Y-137409524D01*
X182347619Y-137180952D01*
X182385714Y-137104762D01*
X182423809Y-137066667D01*
X182500000Y-137028571D01*
X182652381Y-137028571D01*
X182728571Y-137066667D01*
X220800000Y-126390476D02*
X220761905Y-126466667D01*
X220761905Y-126580952D01*
X220800000Y-126695238D01*
X220876190Y-126771429D01*
X220952381Y-126809524D01*
X221104762Y-126847619D01*
X221219048Y-126847619D01*
X221371429Y-126809524D01*
X221447619Y-126771429D01*
X221523810Y-126695238D01*
X221561905Y-126580952D01*
X221561905Y-126504762D01*
X221523810Y-126390476D01*
X221485714Y-126352381D01*
X221219048Y-126352381D01*
X221219048Y-126504762D01*
X221561905Y-126009524D02*
X220761905Y-126009524D01*
X221561905Y-125552381D01*
X220761905Y-125552381D01*
X221561905Y-125171429D02*
X220761905Y-125171429D01*
X220761905Y-124980953D01*
X220800000Y-124866667D01*
X220876190Y-124790476D01*
X220952381Y-124752381D01*
X221104762Y-124714286D01*
X221219048Y-124714286D01*
X221371429Y-124752381D01*
X221447619Y-124790476D01*
X221523810Y-124866667D01*
X221561905Y-124980953D01*
X221561905Y-125171429D01*
X221142857Y-123761905D02*
X221142857Y-123152381D01*
X221371429Y-123152381D02*
X221371429Y-123761905D01*
X221523810Y-121819048D02*
X221561905Y-121895238D01*
X221561905Y-122047619D01*
X221523810Y-122123810D01*
X221485714Y-122161905D01*
X221409524Y-122200000D01*
X221180952Y-122200000D01*
X221104762Y-122161905D01*
X221066667Y-122123810D01*
X221028571Y-122047619D01*
X221028571Y-121895238D01*
X221066667Y-121819048D01*
X221561905Y-121476191D02*
X220761905Y-121476191D01*
X221561905Y-121133334D02*
X221142857Y-121133334D01*
X221066667Y-121171429D01*
X221028571Y-121247619D01*
X221028571Y-121361905D01*
X221066667Y-121438096D01*
X221104762Y-121476191D01*
X221561905Y-120409524D02*
X221142857Y-120409524D01*
X221066667Y-120447619D01*
X221028571Y-120523809D01*
X221028571Y-120676190D01*
X221066667Y-120752381D01*
X221523810Y-120409524D02*
X221561905Y-120485714D01*
X221561905Y-120676190D01*
X221523810Y-120752381D01*
X221447619Y-120790476D01*
X221371429Y-120790476D01*
X221295238Y-120752381D01*
X221257143Y-120676190D01*
X221257143Y-120485714D01*
X221219048Y-120409524D01*
X221523810Y-120066666D02*
X221561905Y-119990476D01*
X221561905Y-119838095D01*
X221523810Y-119761904D01*
X221447619Y-119723809D01*
X221409524Y-119723809D01*
X221333333Y-119761904D01*
X221295238Y-119838095D01*
X221295238Y-119952380D01*
X221257143Y-120028571D01*
X221180952Y-120066666D01*
X221142857Y-120066666D01*
X221066667Y-120028571D01*
X221028571Y-119952380D01*
X221028571Y-119838095D01*
X221066667Y-119761904D01*
X221523810Y-119419047D02*
X221561905Y-119342857D01*
X221561905Y-119190476D01*
X221523810Y-119114285D01*
X221447619Y-119076190D01*
X221409524Y-119076190D01*
X221333333Y-119114285D01*
X221295238Y-119190476D01*
X221295238Y-119304761D01*
X221257143Y-119380952D01*
X221180952Y-119419047D01*
X221142857Y-119419047D01*
X221066667Y-119380952D01*
X221028571Y-119304761D01*
X221028571Y-119190476D01*
X221066667Y-119114285D01*
X221561905Y-118733333D02*
X221028571Y-118733333D01*
X220761905Y-118733333D02*
X220800000Y-118771428D01*
X220838095Y-118733333D01*
X220800000Y-118695238D01*
X220761905Y-118733333D01*
X220838095Y-118733333D01*
X221523810Y-118390476D02*
X221561905Y-118314286D01*
X221561905Y-118161905D01*
X221523810Y-118085714D01*
X221447619Y-118047619D01*
X221409524Y-118047619D01*
X221333333Y-118085714D01*
X221295238Y-118161905D01*
X221295238Y-118276190D01*
X221257143Y-118352381D01*
X221180952Y-118390476D01*
X221142857Y-118390476D01*
X221066667Y-118352381D01*
X221028571Y-118276190D01*
X221028571Y-118161905D01*
X221066667Y-118085714D01*
X221028571Y-116752381D02*
X221676190Y-116752381D01*
X221752381Y-116790476D01*
X221790476Y-116828571D01*
X221828571Y-116904762D01*
X221828571Y-117019047D01*
X221790476Y-117095238D01*
X221523810Y-116752381D02*
X221561905Y-116828571D01*
X221561905Y-116980952D01*
X221523810Y-117057143D01*
X221485714Y-117095238D01*
X221409524Y-117133333D01*
X221180952Y-117133333D01*
X221104762Y-117095238D01*
X221066667Y-117057143D01*
X221028571Y-116980952D01*
X221028571Y-116828571D01*
X221066667Y-116752381D01*
X221561905Y-116371428D02*
X221028571Y-116371428D01*
X221180952Y-116371428D02*
X221104762Y-116333333D01*
X221066667Y-116295237D01*
X221028571Y-116219047D01*
X221028571Y-116142856D01*
X221561905Y-115761904D02*
X221523810Y-115838095D01*
X221485714Y-115876190D01*
X221409524Y-115914285D01*
X221180952Y-115914285D01*
X221104762Y-115876190D01*
X221066667Y-115838095D01*
X221028571Y-115761904D01*
X221028571Y-115647618D01*
X221066667Y-115571428D01*
X221104762Y-115533333D01*
X221180952Y-115495237D01*
X221409524Y-115495237D01*
X221485714Y-115533333D01*
X221523810Y-115571428D01*
X221561905Y-115647618D01*
X221561905Y-115761904D01*
X221028571Y-114809523D02*
X221561905Y-114809523D01*
X221028571Y-115152380D02*
X221447619Y-115152380D01*
X221523810Y-115114285D01*
X221561905Y-115038094D01*
X221561905Y-114923808D01*
X221523810Y-114847618D01*
X221485714Y-114809523D01*
X221028571Y-114428570D02*
X221561905Y-114428570D01*
X221104762Y-114428570D02*
X221066667Y-114390475D01*
X221028571Y-114314284D01*
X221028571Y-114199998D01*
X221066667Y-114123808D01*
X221142857Y-114085713D01*
X221561905Y-114085713D01*
X221561905Y-113361903D02*
X220761905Y-113361903D01*
X221523810Y-113361903D02*
X221561905Y-113438093D01*
X221561905Y-113590474D01*
X221523810Y-113666665D01*
X221485714Y-113704760D01*
X221409524Y-113742855D01*
X221180952Y-113742855D01*
X221104762Y-113704760D01*
X221066667Y-113666665D01*
X221028571Y-113590474D01*
X221028571Y-113438093D01*
X221066667Y-113361903D01*
X222733333Y-126847619D02*
X222733333Y-126466667D01*
X222961905Y-126923810D02*
X222161905Y-126657143D01*
X222961905Y-126390476D01*
X222200000Y-125704762D02*
X222161905Y-125780953D01*
X222161905Y-125895238D01*
X222200000Y-126009524D01*
X222276190Y-126085715D01*
X222352381Y-126123810D01*
X222504762Y-126161905D01*
X222619048Y-126161905D01*
X222771429Y-126123810D01*
X222847619Y-126085715D01*
X222923810Y-126009524D01*
X222961905Y-125895238D01*
X222961905Y-125819048D01*
X222923810Y-125704762D01*
X222885714Y-125666667D01*
X222619048Y-125666667D01*
X222619048Y-125819048D01*
X222961905Y-125323810D02*
X222161905Y-125323810D01*
X222961905Y-124866667D01*
X222161905Y-124866667D01*
X222961905Y-124485715D02*
X222161905Y-124485715D01*
X222161905Y-124295239D01*
X222200000Y-124180953D01*
X222276190Y-124104762D01*
X222352381Y-124066667D01*
X222504762Y-124028572D01*
X222619048Y-124028572D01*
X222771429Y-124066667D01*
X222847619Y-124104762D01*
X222923810Y-124180953D01*
X222961905Y-124295239D01*
X222961905Y-124485715D01*
X222542857Y-123076191D02*
X222542857Y-122466667D01*
X222771429Y-122466667D02*
X222771429Y-123076191D01*
X222961905Y-121133334D02*
X222542857Y-121133334D01*
X222466667Y-121171429D01*
X222428571Y-121247619D01*
X222428571Y-121400000D01*
X222466667Y-121476191D01*
X222923810Y-121133334D02*
X222961905Y-121209524D01*
X222961905Y-121400000D01*
X222923810Y-121476191D01*
X222847619Y-121514286D01*
X222771429Y-121514286D01*
X222695238Y-121476191D01*
X222657143Y-121400000D01*
X222657143Y-121209524D01*
X222619048Y-121133334D01*
X222428571Y-120409524D02*
X222961905Y-120409524D01*
X222428571Y-120752381D02*
X222847619Y-120752381D01*
X222923810Y-120714286D01*
X222961905Y-120638095D01*
X222961905Y-120523809D01*
X222923810Y-120447619D01*
X222885714Y-120409524D01*
X222961905Y-119685714D02*
X222161905Y-119685714D01*
X222923810Y-119685714D02*
X222961905Y-119761904D01*
X222961905Y-119914285D01*
X222923810Y-119990476D01*
X222885714Y-120028571D01*
X222809524Y-120066666D01*
X222580952Y-120066666D01*
X222504762Y-120028571D01*
X222466667Y-119990476D01*
X222428571Y-119914285D01*
X222428571Y-119761904D01*
X222466667Y-119685714D01*
X222961905Y-119304761D02*
X222428571Y-119304761D01*
X222161905Y-119304761D02*
X222200000Y-119342856D01*
X222238095Y-119304761D01*
X222200000Y-119266666D01*
X222161905Y-119304761D01*
X222238095Y-119304761D01*
X222961905Y-118809523D02*
X222923810Y-118885714D01*
X222885714Y-118923809D01*
X222809524Y-118961904D01*
X222580952Y-118961904D01*
X222504762Y-118923809D01*
X222466667Y-118885714D01*
X222428571Y-118809523D01*
X222428571Y-118695237D01*
X222466667Y-118619047D01*
X222504762Y-118580952D01*
X222580952Y-118542856D01*
X222809524Y-118542856D01*
X222885714Y-118580952D01*
X222923810Y-118619047D01*
X222961905Y-118695237D01*
X222961905Y-118809523D01*
X222428571Y-117247618D02*
X223076190Y-117247618D01*
X223152381Y-117285713D01*
X223190476Y-117323808D01*
X223228571Y-117399999D01*
X223228571Y-117514284D01*
X223190476Y-117590475D01*
X222923810Y-117247618D02*
X222961905Y-117323808D01*
X222961905Y-117476189D01*
X222923810Y-117552380D01*
X222885714Y-117590475D01*
X222809524Y-117628570D01*
X222580952Y-117628570D01*
X222504762Y-117590475D01*
X222466667Y-117552380D01*
X222428571Y-117476189D01*
X222428571Y-117323808D01*
X222466667Y-117247618D01*
X222961905Y-116866665D02*
X222428571Y-116866665D01*
X222580952Y-116866665D02*
X222504762Y-116828570D01*
X222466667Y-116790474D01*
X222428571Y-116714284D01*
X222428571Y-116638093D01*
X222961905Y-116257141D02*
X222923810Y-116333332D01*
X222885714Y-116371427D01*
X222809524Y-116409522D01*
X222580952Y-116409522D01*
X222504762Y-116371427D01*
X222466667Y-116333332D01*
X222428571Y-116257141D01*
X222428571Y-116142855D01*
X222466667Y-116066665D01*
X222504762Y-116028570D01*
X222580952Y-115990474D01*
X222809524Y-115990474D01*
X222885714Y-116028570D01*
X222923810Y-116066665D01*
X222961905Y-116142855D01*
X222961905Y-116257141D01*
X222428571Y-115304760D02*
X222961905Y-115304760D01*
X222428571Y-115647617D02*
X222847619Y-115647617D01*
X222923810Y-115609522D01*
X222961905Y-115533331D01*
X222961905Y-115419045D01*
X222923810Y-115342855D01*
X222885714Y-115304760D01*
X222428571Y-114923807D02*
X222961905Y-114923807D01*
X222504762Y-114923807D02*
X222466667Y-114885712D01*
X222428571Y-114809521D01*
X222428571Y-114695235D01*
X222466667Y-114619045D01*
X222542857Y-114580950D01*
X222961905Y-114580950D01*
X222961905Y-113857140D02*
X222161905Y-113857140D01*
X222923810Y-113857140D02*
X222961905Y-113933330D01*
X222961905Y-114085711D01*
X222923810Y-114161902D01*
X222885714Y-114199997D01*
X222809524Y-114238092D01*
X222580952Y-114238092D01*
X222504762Y-114199997D01*
X222466667Y-114161902D01*
X222428571Y-114085711D01*
X222428571Y-113933330D01*
X222466667Y-113857140D01*
X223561905Y-126809524D02*
X224209524Y-126809524D01*
X224285714Y-126771429D01*
X224323810Y-126733333D01*
X224361905Y-126657143D01*
X224361905Y-126504762D01*
X224323810Y-126428571D01*
X224285714Y-126390476D01*
X224209524Y-126352381D01*
X223561905Y-126352381D01*
X224323810Y-126009524D02*
X224361905Y-125933334D01*
X224361905Y-125780953D01*
X224323810Y-125704762D01*
X224247619Y-125666667D01*
X224209524Y-125666667D01*
X224133333Y-125704762D01*
X224095238Y-125780953D01*
X224095238Y-125895238D01*
X224057143Y-125971429D01*
X223980952Y-126009524D01*
X223942857Y-126009524D01*
X223866667Y-125971429D01*
X223828571Y-125895238D01*
X223828571Y-125780953D01*
X223866667Y-125704762D01*
X224323810Y-125019048D02*
X224361905Y-125095238D01*
X224361905Y-125247619D01*
X224323810Y-125323810D01*
X224247619Y-125361905D01*
X223942857Y-125361905D01*
X223866667Y-125323810D01*
X223828571Y-125247619D01*
X223828571Y-125095238D01*
X223866667Y-125019048D01*
X223942857Y-124980953D01*
X224019048Y-124980953D01*
X224095238Y-125361905D01*
X223828571Y-124028572D02*
X224514286Y-124028572D01*
X224590476Y-124066667D01*
X224628571Y-124142858D01*
X224628571Y-124180953D01*
X223561905Y-124028572D02*
X223600000Y-124066667D01*
X223638095Y-124028572D01*
X223600000Y-123990477D01*
X223561905Y-124028572D01*
X223638095Y-124028572D01*
X223828571Y-123304763D02*
X224361905Y-123304763D01*
X223828571Y-123647620D02*
X224247619Y-123647620D01*
X224323810Y-123609525D01*
X224361905Y-123533334D01*
X224361905Y-123419048D01*
X224323810Y-123342858D01*
X224285714Y-123304763D01*
X224361905Y-122923810D02*
X223828571Y-122923810D01*
X223904762Y-122923810D02*
X223866667Y-122885715D01*
X223828571Y-122809524D01*
X223828571Y-122695238D01*
X223866667Y-122619048D01*
X223942857Y-122580953D01*
X224361905Y-122580953D01*
X223942857Y-122580953D02*
X223866667Y-122542857D01*
X223828571Y-122466667D01*
X223828571Y-122352381D01*
X223866667Y-122276191D01*
X223942857Y-122238096D01*
X224361905Y-122238096D01*
X223828571Y-121857143D02*
X224628571Y-121857143D01*
X223866667Y-121857143D02*
X223828571Y-121780952D01*
X223828571Y-121628571D01*
X223866667Y-121552381D01*
X223904762Y-121514286D01*
X223980952Y-121476190D01*
X224209524Y-121476190D01*
X224285714Y-121514286D01*
X224323810Y-121552381D01*
X224361905Y-121628571D01*
X224361905Y-121780952D01*
X224323810Y-121857143D01*
X224323810Y-120828571D02*
X224361905Y-120904761D01*
X224361905Y-121057142D01*
X224323810Y-121133333D01*
X224247619Y-121171428D01*
X223942857Y-121171428D01*
X223866667Y-121133333D01*
X223828571Y-121057142D01*
X223828571Y-120904761D01*
X223866667Y-120828571D01*
X223942857Y-120790476D01*
X224019048Y-120790476D01*
X224095238Y-121171428D01*
X224361905Y-120447619D02*
X223828571Y-120447619D01*
X223980952Y-120447619D02*
X223904762Y-120409524D01*
X223866667Y-120371428D01*
X223828571Y-120295238D01*
X223828571Y-120219047D01*
X223828571Y-119419047D02*
X224361905Y-119266666D01*
X223980952Y-119114285D01*
X224361905Y-118961904D01*
X223828571Y-118809523D01*
X224361905Y-118504762D02*
X223828571Y-118504762D01*
X223561905Y-118504762D02*
X223600000Y-118542857D01*
X223638095Y-118504762D01*
X223600000Y-118466667D01*
X223561905Y-118504762D01*
X223638095Y-118504762D01*
X224361905Y-118123810D02*
X223828571Y-118123810D01*
X223980952Y-118123810D02*
X223904762Y-118085715D01*
X223866667Y-118047619D01*
X223828571Y-117971429D01*
X223828571Y-117895238D01*
X224323810Y-117323810D02*
X224361905Y-117400000D01*
X224361905Y-117552381D01*
X224323810Y-117628572D01*
X224247619Y-117666667D01*
X223942857Y-117666667D01*
X223866667Y-117628572D01*
X223828571Y-117552381D01*
X223828571Y-117400000D01*
X223866667Y-117323810D01*
X223942857Y-117285715D01*
X224019048Y-117285715D01*
X224095238Y-117666667D01*
X224323810Y-116980953D02*
X224361905Y-116904763D01*
X224361905Y-116752382D01*
X224323810Y-116676191D01*
X224247619Y-116638096D01*
X224209524Y-116638096D01*
X224133333Y-116676191D01*
X224095238Y-116752382D01*
X224095238Y-116866667D01*
X224057143Y-116942858D01*
X223980952Y-116980953D01*
X223942857Y-116980953D01*
X223866667Y-116942858D01*
X223828571Y-116866667D01*
X223828571Y-116752382D01*
X223866667Y-116676191D01*
X225228571Y-126885714D02*
X225761905Y-126733333D01*
X225380952Y-126580952D01*
X225761905Y-126428571D01*
X225228571Y-126276190D01*
X225761905Y-125971429D02*
X224961905Y-125971429D01*
X225761905Y-125628572D02*
X225342857Y-125628572D01*
X225266667Y-125666667D01*
X225228571Y-125742857D01*
X225228571Y-125857143D01*
X225266667Y-125933334D01*
X225304762Y-125971429D01*
X225723810Y-124942857D02*
X225761905Y-125019047D01*
X225761905Y-125171428D01*
X225723810Y-125247619D01*
X225647619Y-125285714D01*
X225342857Y-125285714D01*
X225266667Y-125247619D01*
X225228571Y-125171428D01*
X225228571Y-125019047D01*
X225266667Y-124942857D01*
X225342857Y-124904762D01*
X225419048Y-124904762D01*
X225495238Y-125285714D01*
X225761905Y-124561905D02*
X225228571Y-124561905D01*
X225380952Y-124561905D02*
X225304762Y-124523810D01*
X225266667Y-124485714D01*
X225228571Y-124409524D01*
X225228571Y-124333333D01*
X225723810Y-123761905D02*
X225761905Y-123838095D01*
X225761905Y-123990476D01*
X225723810Y-124066667D01*
X225647619Y-124104762D01*
X225342857Y-124104762D01*
X225266667Y-124066667D01*
X225228571Y-123990476D01*
X225228571Y-123838095D01*
X225266667Y-123761905D01*
X225342857Y-123723810D01*
X225419048Y-123723810D01*
X225495238Y-124104762D01*
X225228571Y-122771429D02*
X225761905Y-122771429D01*
X225304762Y-122771429D02*
X225266667Y-122733334D01*
X225228571Y-122657143D01*
X225228571Y-122542857D01*
X225266667Y-122466667D01*
X225342857Y-122428572D01*
X225761905Y-122428572D01*
X225723810Y-121742857D02*
X225761905Y-121819047D01*
X225761905Y-121971428D01*
X225723810Y-122047619D01*
X225647619Y-122085714D01*
X225342857Y-122085714D01*
X225266667Y-122047619D01*
X225228571Y-121971428D01*
X225228571Y-121819047D01*
X225266667Y-121742857D01*
X225342857Y-121704762D01*
X225419048Y-121704762D01*
X225495238Y-122085714D01*
X225723810Y-121019048D02*
X225761905Y-121095238D01*
X225761905Y-121247619D01*
X225723810Y-121323810D01*
X225685714Y-121361905D01*
X225609524Y-121400000D01*
X225380952Y-121400000D01*
X225304762Y-121361905D01*
X225266667Y-121323810D01*
X225228571Y-121247619D01*
X225228571Y-121095238D01*
X225266667Y-121019048D01*
X225723810Y-120371429D02*
X225761905Y-120447619D01*
X225761905Y-120600000D01*
X225723810Y-120676191D01*
X225647619Y-120714286D01*
X225342857Y-120714286D01*
X225266667Y-120676191D01*
X225228571Y-120600000D01*
X225228571Y-120447619D01*
X225266667Y-120371429D01*
X225342857Y-120333334D01*
X225419048Y-120333334D01*
X225495238Y-120714286D01*
X225723810Y-120028572D02*
X225761905Y-119952382D01*
X225761905Y-119800001D01*
X225723810Y-119723810D01*
X225647619Y-119685715D01*
X225609524Y-119685715D01*
X225533333Y-119723810D01*
X225495238Y-119800001D01*
X225495238Y-119914286D01*
X225457143Y-119990477D01*
X225380952Y-120028572D01*
X225342857Y-120028572D01*
X225266667Y-119990477D01*
X225228571Y-119914286D01*
X225228571Y-119800001D01*
X225266667Y-119723810D01*
X225723810Y-119380953D02*
X225761905Y-119304763D01*
X225761905Y-119152382D01*
X225723810Y-119076191D01*
X225647619Y-119038096D01*
X225609524Y-119038096D01*
X225533333Y-119076191D01*
X225495238Y-119152382D01*
X225495238Y-119266667D01*
X225457143Y-119342858D01*
X225380952Y-119380953D01*
X225342857Y-119380953D01*
X225266667Y-119342858D01*
X225228571Y-119266667D01*
X225228571Y-119152382D01*
X225266667Y-119076191D01*
X225761905Y-118352382D02*
X225342857Y-118352382D01*
X225266667Y-118390477D01*
X225228571Y-118466667D01*
X225228571Y-118619048D01*
X225266667Y-118695239D01*
X225723810Y-118352382D02*
X225761905Y-118428572D01*
X225761905Y-118619048D01*
X225723810Y-118695239D01*
X225647619Y-118733334D01*
X225571429Y-118733334D01*
X225495238Y-118695239D01*
X225457143Y-118619048D01*
X225457143Y-118428572D01*
X225419048Y-118352382D01*
X225761905Y-117971429D02*
X225228571Y-117971429D01*
X225380952Y-117971429D02*
X225304762Y-117933334D01*
X225266667Y-117895238D01*
X225228571Y-117819048D01*
X225228571Y-117742857D01*
X225228571Y-117552381D02*
X225761905Y-117361905D01*
X225228571Y-117171429D02*
X225761905Y-117361905D01*
X225952381Y-117438096D01*
X225990476Y-117476191D01*
X226028571Y-117552381D01*
X225761905Y-116142857D02*
X225723810Y-116219048D01*
X225685714Y-116257143D01*
X225609524Y-116295238D01*
X225380952Y-116295238D01*
X225304762Y-116257143D01*
X225266667Y-116219048D01*
X225228571Y-116142857D01*
X225228571Y-116028571D01*
X225266667Y-115952381D01*
X225304762Y-115914286D01*
X225380952Y-115876190D01*
X225609524Y-115876190D01*
X225685714Y-115914286D01*
X225723810Y-115952381D01*
X225761905Y-116028571D01*
X225761905Y-116142857D01*
X225761905Y-115533333D02*
X225228571Y-115533333D01*
X225380952Y-115533333D02*
X225304762Y-115495238D01*
X225266667Y-115457142D01*
X225228571Y-115380952D01*
X225228571Y-115304761D01*
X225761905Y-114428571D02*
X224961905Y-114428571D01*
X224961905Y-114238095D01*
X225000000Y-114123809D01*
X225076190Y-114047618D01*
X225152381Y-114009523D01*
X225304762Y-113971428D01*
X225419048Y-113971428D01*
X225571429Y-114009523D01*
X225647619Y-114047618D01*
X225723810Y-114123809D01*
X225761905Y-114238095D01*
X225761905Y-114428571D01*
X225761905Y-113628571D02*
X224961905Y-113628571D01*
X225761905Y-113171428D01*
X224961905Y-113171428D01*
X225761905Y-112790476D02*
X224961905Y-112790476D01*
X224961905Y-112485714D01*
X225000000Y-112409523D01*
X225038095Y-112371428D01*
X225114286Y-112333333D01*
X225228571Y-112333333D01*
X225304762Y-112371428D01*
X225342857Y-112409523D01*
X225380952Y-112485714D01*
X225380952Y-112790476D01*
X227123810Y-126466667D02*
X227161905Y-126542857D01*
X227161905Y-126695238D01*
X227123810Y-126771429D01*
X227085714Y-126809524D01*
X227009524Y-126847619D01*
X226780952Y-126847619D01*
X226704762Y-126809524D01*
X226666667Y-126771429D01*
X226628571Y-126695238D01*
X226628571Y-126542857D01*
X226666667Y-126466667D01*
X227161905Y-126009524D02*
X227123810Y-126085715D01*
X227085714Y-126123810D01*
X227009524Y-126161905D01*
X226780952Y-126161905D01*
X226704762Y-126123810D01*
X226666667Y-126085715D01*
X226628571Y-126009524D01*
X226628571Y-125895238D01*
X226666667Y-125819048D01*
X226704762Y-125780953D01*
X226780952Y-125742857D01*
X227009524Y-125742857D01*
X227085714Y-125780953D01*
X227123810Y-125819048D01*
X227161905Y-125895238D01*
X227161905Y-126009524D01*
X227161905Y-125400000D02*
X226628571Y-125400000D01*
X226704762Y-125400000D02*
X226666667Y-125361905D01*
X226628571Y-125285714D01*
X226628571Y-125171428D01*
X226666667Y-125095238D01*
X226742857Y-125057143D01*
X227161905Y-125057143D01*
X226742857Y-125057143D02*
X226666667Y-125019047D01*
X226628571Y-124942857D01*
X226628571Y-124828571D01*
X226666667Y-124752381D01*
X226742857Y-124714286D01*
X227161905Y-124714286D01*
X226628571Y-124333333D02*
X227428571Y-124333333D01*
X226666667Y-124333333D02*
X226628571Y-124257142D01*
X226628571Y-124104761D01*
X226666667Y-124028571D01*
X226704762Y-123990476D01*
X226780952Y-123952380D01*
X227009524Y-123952380D01*
X227085714Y-123990476D01*
X227123810Y-124028571D01*
X227161905Y-124104761D01*
X227161905Y-124257142D01*
X227123810Y-124333333D01*
X227161905Y-123495237D02*
X227123810Y-123571428D01*
X227085714Y-123609523D01*
X227009524Y-123647618D01*
X226780952Y-123647618D01*
X226704762Y-123609523D01*
X226666667Y-123571428D01*
X226628571Y-123495237D01*
X226628571Y-123380951D01*
X226666667Y-123304761D01*
X226704762Y-123266666D01*
X226780952Y-123228570D01*
X227009524Y-123228570D01*
X227085714Y-123266666D01*
X227123810Y-123304761D01*
X227161905Y-123380951D01*
X227161905Y-123495237D01*
X226628571Y-122885713D02*
X227161905Y-122885713D01*
X226704762Y-122885713D02*
X226666667Y-122847618D01*
X226628571Y-122771427D01*
X226628571Y-122657141D01*
X226666667Y-122580951D01*
X226742857Y-122542856D01*
X227161905Y-122542856D01*
X227123810Y-121857141D02*
X227161905Y-121933331D01*
X227161905Y-122085712D01*
X227123810Y-122161903D01*
X227047619Y-122199998D01*
X226742857Y-122199998D01*
X226666667Y-122161903D01*
X226628571Y-122085712D01*
X226628571Y-121933331D01*
X226666667Y-121857141D01*
X226742857Y-121819046D01*
X226819048Y-121819046D01*
X226895238Y-122199998D01*
X226628571Y-121476189D02*
X227161905Y-121476189D01*
X226704762Y-121476189D02*
X226666667Y-121438094D01*
X226628571Y-121361903D01*
X226628571Y-121247617D01*
X226666667Y-121171427D01*
X226742857Y-121133332D01*
X227161905Y-121133332D01*
X226628571Y-120866665D02*
X226628571Y-120561903D01*
X226361905Y-120752379D02*
X227047619Y-120752379D01*
X227123810Y-120714284D01*
X227161905Y-120638093D01*
X227161905Y-120561903D01*
X228214286Y-113102381D02*
X228785715Y-113102381D01*
X228500000Y-114102381D02*
X228500000Y-113102381D01*
X229119048Y-114102381D02*
X229119048Y-113102381D01*
X229500001Y-113102381D01*
X229595239Y-113150000D01*
X229642858Y-113197619D01*
X229690477Y-113292857D01*
X229690477Y-113435714D01*
X229642858Y-113530952D01*
X229595239Y-113578571D01*
X229500001Y-113626190D01*
X229119048Y-113626190D01*
X228238096Y-114850000D02*
X228142858Y-114802381D01*
X228000001Y-114802381D01*
X227857143Y-114850000D01*
X227761905Y-114945238D01*
X227714286Y-115040476D01*
X227666667Y-115230952D01*
X227666667Y-115373810D01*
X227714286Y-115564286D01*
X227761905Y-115659524D01*
X227857143Y-115754762D01*
X228000001Y-115802381D01*
X228095239Y-115802381D01*
X228238096Y-115754762D01*
X228285715Y-115707143D01*
X228285715Y-115373810D01*
X228095239Y-115373810D01*
X228714286Y-115802381D02*
X228714286Y-114802381D01*
X229285715Y-115802381D01*
X229285715Y-114802381D01*
X229761905Y-115802381D02*
X229761905Y-114802381D01*
X230000000Y-114802381D01*
X230142858Y-114850000D01*
X230238096Y-114945238D01*
X230285715Y-115040476D01*
X230333334Y-115230952D01*
X230333334Y-115373810D01*
X230285715Y-115564286D01*
X230238096Y-115659524D01*
X230142858Y-115754762D01*
X230000000Y-115802381D01*
X229761905Y-115802381D01*
X175214286Y-115602381D02*
X175785715Y-115602381D01*
X175500000Y-116602381D02*
X175500000Y-115602381D01*
X176119048Y-116602381D02*
X176119048Y-115602381D01*
X176500001Y-115602381D01*
X176595239Y-115650000D01*
X176642858Y-115697619D01*
X176690477Y-115792857D01*
X176690477Y-115935714D01*
X176642858Y-116030952D01*
X176595239Y-116078571D01*
X176500001Y-116126190D01*
X176119048Y-116126190D01*
X173261905Y-117302381D02*
X173595238Y-118302381D01*
X173928572Y-117302381D01*
X174023810Y-118397619D02*
X174785715Y-118397619D01*
X175023810Y-118302381D02*
X175023810Y-117302381D01*
X175023810Y-117683333D02*
X175119048Y-117635714D01*
X175309525Y-117635714D01*
X175404763Y-117683333D01*
X175452382Y-117730952D01*
X175500001Y-117826190D01*
X175500001Y-118111905D01*
X175452382Y-118207143D01*
X175404763Y-118254762D01*
X175309525Y-118302381D01*
X175119048Y-118302381D01*
X175023810Y-118254762D01*
X175928572Y-118302381D02*
X175928572Y-117635714D01*
X175928572Y-117302381D02*
X175880953Y-117350000D01*
X175928572Y-117397619D01*
X175976191Y-117350000D01*
X175928572Y-117302381D01*
X175928572Y-117397619D01*
X176833334Y-118302381D02*
X176833334Y-117778571D01*
X176785715Y-117683333D01*
X176690477Y-117635714D01*
X176500000Y-117635714D01*
X176404762Y-117683333D01*
X176833334Y-118254762D02*
X176738096Y-118302381D01*
X176500000Y-118302381D01*
X176404762Y-118254762D01*
X176357143Y-118159524D01*
X176357143Y-118064286D01*
X176404762Y-117969048D01*
X176500000Y-117921429D01*
X176738096Y-117921429D01*
X176833334Y-117873810D01*
X177261905Y-118254762D02*
X177357143Y-118302381D01*
X177547619Y-118302381D01*
X177642858Y-118254762D01*
X177690477Y-118159524D01*
X177690477Y-118111905D01*
X177642858Y-118016667D01*
X177547619Y-117969048D01*
X177404762Y-117969048D01*
X177309524Y-117921429D01*
X177261905Y-117826190D01*
X177261905Y-117778571D01*
X177309524Y-117683333D01*
X177404762Y-117635714D01*
X177547619Y-117635714D01*
X177642858Y-117683333D01*
X178642858Y-118302381D02*
X178071429Y-118302381D01*
X178357143Y-118302381D02*
X178357143Y-117302381D01*
X178261905Y-117445238D01*
X178166667Y-117540476D01*
X178071429Y-117588095D01*
X226214286Y-70602381D02*
X226785715Y-70602381D01*
X226500000Y-71602381D02*
X226500000Y-70602381D01*
X227119048Y-71602381D02*
X227119048Y-70602381D01*
X227500001Y-70602381D01*
X227595239Y-70650000D01*
X227642858Y-70697619D01*
X227690477Y-70792857D01*
X227690477Y-70935714D01*
X227642858Y-71030952D01*
X227595239Y-71078571D01*
X227500001Y-71126190D01*
X227119048Y-71126190D01*
X224261905Y-72302381D02*
X224595238Y-73302381D01*
X224928572Y-72302381D01*
X225023810Y-73397619D02*
X225785715Y-73397619D01*
X226023810Y-73302381D02*
X226023810Y-72302381D01*
X226023810Y-72683333D02*
X226119048Y-72635714D01*
X226309525Y-72635714D01*
X226404763Y-72683333D01*
X226452382Y-72730952D01*
X226500001Y-72826190D01*
X226500001Y-73111905D01*
X226452382Y-73207143D01*
X226404763Y-73254762D01*
X226309525Y-73302381D01*
X226119048Y-73302381D01*
X226023810Y-73254762D01*
X226928572Y-73302381D02*
X226928572Y-72635714D01*
X226928572Y-72302381D02*
X226880953Y-72350000D01*
X226928572Y-72397619D01*
X226976191Y-72350000D01*
X226928572Y-72302381D01*
X226928572Y-72397619D01*
X227833334Y-73302381D02*
X227833334Y-72778571D01*
X227785715Y-72683333D01*
X227690477Y-72635714D01*
X227500000Y-72635714D01*
X227404762Y-72683333D01*
X227833334Y-73254762D02*
X227738096Y-73302381D01*
X227500000Y-73302381D01*
X227404762Y-73254762D01*
X227357143Y-73159524D01*
X227357143Y-73064286D01*
X227404762Y-72969048D01*
X227500000Y-72921429D01*
X227738096Y-72921429D01*
X227833334Y-72873810D01*
X228261905Y-73254762D02*
X228357143Y-73302381D01*
X228547619Y-73302381D01*
X228642858Y-73254762D01*
X228690477Y-73159524D01*
X228690477Y-73111905D01*
X228642858Y-73016667D01*
X228547619Y-72969048D01*
X228404762Y-72969048D01*
X228309524Y-72921429D01*
X228261905Y-72826190D01*
X228261905Y-72778571D01*
X228309524Y-72683333D01*
X228404762Y-72635714D01*
X228547619Y-72635714D01*
X228642858Y-72683333D01*
X229071429Y-72397619D02*
X229119048Y-72350000D01*
X229214286Y-72302381D01*
X229452382Y-72302381D01*
X229547620Y-72350000D01*
X229595239Y-72397619D01*
X229642858Y-72492857D01*
X229642858Y-72588095D01*
X229595239Y-72730952D01*
X229023810Y-73302381D01*
X229642858Y-73302381D01*
X177857143Y-128666667D02*
X177904762Y-128714286D01*
X177952381Y-128857143D01*
X177952381Y-128952381D01*
X177904762Y-129095239D01*
X177809524Y-129190477D01*
X177714286Y-129238096D01*
X177523810Y-129285715D01*
X177380952Y-129285715D01*
X177190476Y-129238096D01*
X177095238Y-129190477D01*
X177000000Y-129095239D01*
X176952381Y-128952381D01*
X176952381Y-128857143D01*
X177000000Y-128714286D01*
X177047619Y-128666667D01*
X178047619Y-128476191D02*
X178047619Y-127714286D01*
X177952381Y-127476191D02*
X177285714Y-127476191D01*
X176952381Y-127476191D02*
X177000000Y-127523810D01*
X177047619Y-127476191D01*
X177000000Y-127428572D01*
X176952381Y-127476191D01*
X177047619Y-127476191D01*
X177285714Y-127000001D02*
X177952381Y-127000001D01*
X177380952Y-127000001D02*
X177333333Y-126952382D01*
X177285714Y-126857144D01*
X177285714Y-126714286D01*
X177333333Y-126619048D01*
X177428571Y-126571429D01*
X177952381Y-126571429D01*
X177285714Y-126238096D02*
X177285714Y-125857144D01*
X176952381Y-126095239D02*
X177809524Y-126095239D01*
X177904762Y-126047620D01*
X177952381Y-125952382D01*
X177952381Y-125857144D01*
X177904762Y-125571429D02*
X177952381Y-125476191D01*
X177952381Y-125285715D01*
X177904762Y-125190476D01*
X177809524Y-125142857D01*
X177761905Y-125142857D01*
X177666667Y-125190476D01*
X177619048Y-125285715D01*
X177619048Y-125428572D01*
X177571429Y-125523810D01*
X177476190Y-125571429D01*
X177428571Y-125571429D01*
X177333333Y-125523810D01*
X177285714Y-125428572D01*
X177285714Y-125285715D01*
X177333333Y-125190476D01*
X177285714Y-124857143D02*
X177285714Y-124476191D01*
X176952381Y-124714286D02*
X177809524Y-124714286D01*
X177904762Y-124666667D01*
X177952381Y-124571429D01*
X177952381Y-124476191D01*
X177285714Y-123714285D02*
X178095238Y-123714285D01*
X178190476Y-123761904D01*
X178238095Y-123809523D01*
X178285714Y-123904762D01*
X178285714Y-124047619D01*
X178238095Y-124142857D01*
X177904762Y-123714285D02*
X177952381Y-123809523D01*
X177952381Y-124000000D01*
X177904762Y-124095238D01*
X177857143Y-124142857D01*
X177761905Y-124190476D01*
X177476190Y-124190476D01*
X177380952Y-124142857D01*
X177333333Y-124095238D01*
X177285714Y-124000000D01*
X177285714Y-123809523D01*
X177333333Y-123714285D01*
X177047619Y-123285714D02*
X177000000Y-123238095D01*
X176952381Y-123142857D01*
X176952381Y-122904761D01*
X177000000Y-122809523D01*
X177047619Y-122761904D01*
X177142857Y-122714285D01*
X177238095Y-122714285D01*
X177380952Y-122761904D01*
X177952381Y-123333333D01*
X177952381Y-122714285D01*
X227857143Y-137666667D02*
X227904762Y-137714286D01*
X227952381Y-137857143D01*
X227952381Y-137952381D01*
X227904762Y-138095239D01*
X227809524Y-138190477D01*
X227714286Y-138238096D01*
X227523810Y-138285715D01*
X227380952Y-138285715D01*
X227190476Y-138238096D01*
X227095238Y-138190477D01*
X227000000Y-138095239D01*
X226952381Y-137952381D01*
X226952381Y-137857143D01*
X227000000Y-137714286D01*
X227047619Y-137666667D01*
X228047619Y-137476191D02*
X228047619Y-136714286D01*
X227952381Y-136476191D02*
X227285714Y-136476191D01*
X226952381Y-136476191D02*
X227000000Y-136523810D01*
X227047619Y-136476191D01*
X227000000Y-136428572D01*
X226952381Y-136476191D01*
X227047619Y-136476191D01*
X227285714Y-136000001D02*
X227952381Y-136000001D01*
X227380952Y-136000001D02*
X227333333Y-135952382D01*
X227285714Y-135857144D01*
X227285714Y-135714286D01*
X227333333Y-135619048D01*
X227428571Y-135571429D01*
X227952381Y-135571429D01*
X227285714Y-135238096D02*
X227285714Y-134857144D01*
X226952381Y-135095239D02*
X227809524Y-135095239D01*
X227904762Y-135047620D01*
X227952381Y-134952382D01*
X227952381Y-134857144D01*
X227904762Y-134571429D02*
X227952381Y-134476191D01*
X227952381Y-134285715D01*
X227904762Y-134190476D01*
X227809524Y-134142857D01*
X227761905Y-134142857D01*
X227666667Y-134190476D01*
X227619048Y-134285715D01*
X227619048Y-134428572D01*
X227571429Y-134523810D01*
X227476190Y-134571429D01*
X227428571Y-134571429D01*
X227333333Y-134523810D01*
X227285714Y-134428572D01*
X227285714Y-134285715D01*
X227333333Y-134190476D01*
X227285714Y-133857143D02*
X227285714Y-133476191D01*
X226952381Y-133714286D02*
X227809524Y-133714286D01*
X227904762Y-133666667D01*
X227952381Y-133571429D01*
X227952381Y-133476191D01*
X227285714Y-132714285D02*
X228095238Y-132714285D01*
X228190476Y-132761904D01*
X228238095Y-132809523D01*
X228285714Y-132904762D01*
X228285714Y-133047619D01*
X228238095Y-133142857D01*
X227904762Y-132714285D02*
X227952381Y-132809523D01*
X227952381Y-133000000D01*
X227904762Y-133095238D01*
X227857143Y-133142857D01*
X227761905Y-133190476D01*
X227476190Y-133190476D01*
X227380952Y-133142857D01*
X227333333Y-133095238D01*
X227285714Y-133000000D01*
X227285714Y-132809523D01*
X227333333Y-132714285D01*
X227952381Y-131714285D02*
X227952381Y-132285714D01*
X227952381Y-132000000D02*
X226952381Y-132000000D01*
X227095238Y-132095238D01*
X227190476Y-132190476D01*
X227238095Y-132285714D01*
X218952381Y-139666667D02*
X218476190Y-140000001D01*
X218952381Y-140238096D02*
X217952381Y-140238096D01*
X217952381Y-139857143D01*
X218000000Y-139761905D01*
X218047619Y-139714286D01*
X218142857Y-139666667D01*
X218285714Y-139666667D01*
X218380952Y-139714286D01*
X218428571Y-139761905D01*
X218476190Y-139857143D01*
X218476190Y-140238096D01*
X219047619Y-139476191D02*
X219047619Y-138714286D01*
X218952381Y-138476191D02*
X218285714Y-138476191D01*
X217952381Y-138476191D02*
X218000000Y-138523810D01*
X218047619Y-138476191D01*
X218000000Y-138428572D01*
X217952381Y-138476191D01*
X218047619Y-138476191D01*
X218285714Y-138000001D02*
X218952381Y-138000001D01*
X218380952Y-138000001D02*
X218333333Y-137952382D01*
X218285714Y-137857144D01*
X218285714Y-137714286D01*
X218333333Y-137619048D01*
X218428571Y-137571429D01*
X218952381Y-137571429D01*
X218285714Y-137238096D02*
X218285714Y-136857144D01*
X217952381Y-137095239D02*
X218809524Y-137095239D01*
X218904762Y-137047620D01*
X218952381Y-136952382D01*
X218952381Y-136857144D01*
X218904762Y-136571429D02*
X218952381Y-136476191D01*
X218952381Y-136285715D01*
X218904762Y-136190476D01*
X218809524Y-136142857D01*
X218761905Y-136142857D01*
X218666667Y-136190476D01*
X218619048Y-136285715D01*
X218619048Y-136428572D01*
X218571429Y-136523810D01*
X218476190Y-136571429D01*
X218428571Y-136571429D01*
X218333333Y-136523810D01*
X218285714Y-136428572D01*
X218285714Y-136285715D01*
X218333333Y-136190476D01*
X218285714Y-135857143D02*
X218285714Y-135476191D01*
X217952381Y-135714286D02*
X218809524Y-135714286D01*
X218904762Y-135666667D01*
X218952381Y-135571429D01*
X218952381Y-135476191D01*
X218285714Y-134714285D02*
X219095238Y-134714285D01*
X219190476Y-134761904D01*
X219238095Y-134809523D01*
X219285714Y-134904762D01*
X219285714Y-135047619D01*
X219238095Y-135142857D01*
X218904762Y-134714285D02*
X218952381Y-134809523D01*
X218952381Y-135000000D01*
X218904762Y-135095238D01*
X218857143Y-135142857D01*
X218761905Y-135190476D01*
X218476190Y-135190476D01*
X218380952Y-135142857D01*
X218333333Y-135095238D01*
X218285714Y-135000000D01*
X218285714Y-134809523D01*
X218333333Y-134714285D01*
X218952381Y-133714285D02*
X218952381Y-134285714D01*
X218952381Y-134000000D02*
X217952381Y-134000000D01*
X218095238Y-134095238D01*
X218190476Y-134190476D01*
X218238095Y-134285714D01*
X187452381Y-128666667D02*
X186976190Y-129000001D01*
X187452381Y-129238096D02*
X186452381Y-129238096D01*
X186452381Y-128857143D01*
X186500000Y-128761905D01*
X186547619Y-128714286D01*
X186642857Y-128666667D01*
X186785714Y-128666667D01*
X186880952Y-128714286D01*
X186928571Y-128761905D01*
X186976190Y-128857143D01*
X186976190Y-129238096D01*
X187547619Y-128476191D02*
X187547619Y-127714286D01*
X187452381Y-127476191D02*
X186785714Y-127476191D01*
X186452381Y-127476191D02*
X186500000Y-127523810D01*
X186547619Y-127476191D01*
X186500000Y-127428572D01*
X186452381Y-127476191D01*
X186547619Y-127476191D01*
X186785714Y-127000001D02*
X187452381Y-127000001D01*
X186880952Y-127000001D02*
X186833333Y-126952382D01*
X186785714Y-126857144D01*
X186785714Y-126714286D01*
X186833333Y-126619048D01*
X186928571Y-126571429D01*
X187452381Y-126571429D01*
X186785714Y-126238096D02*
X186785714Y-125857144D01*
X186452381Y-126095239D02*
X187309524Y-126095239D01*
X187404762Y-126047620D01*
X187452381Y-125952382D01*
X187452381Y-125857144D01*
X187404762Y-125571429D02*
X187452381Y-125476191D01*
X187452381Y-125285715D01*
X187404762Y-125190476D01*
X187309524Y-125142857D01*
X187261905Y-125142857D01*
X187166667Y-125190476D01*
X187119048Y-125285715D01*
X187119048Y-125428572D01*
X187071429Y-125523810D01*
X186976190Y-125571429D01*
X186928571Y-125571429D01*
X186833333Y-125523810D01*
X186785714Y-125428572D01*
X186785714Y-125285715D01*
X186833333Y-125190476D01*
X186785714Y-124857143D02*
X186785714Y-124476191D01*
X186452381Y-124714286D02*
X187309524Y-124714286D01*
X187404762Y-124666667D01*
X187452381Y-124571429D01*
X187452381Y-124476191D01*
X186785714Y-123714285D02*
X187595238Y-123714285D01*
X187690476Y-123761904D01*
X187738095Y-123809523D01*
X187785714Y-123904762D01*
X187785714Y-124047619D01*
X187738095Y-124142857D01*
X187404762Y-123714285D02*
X187452381Y-123809523D01*
X187452381Y-124000000D01*
X187404762Y-124095238D01*
X187357143Y-124142857D01*
X187261905Y-124190476D01*
X186976190Y-124190476D01*
X186880952Y-124142857D01*
X186833333Y-124095238D01*
X186785714Y-124000000D01*
X186785714Y-123809523D01*
X186833333Y-123714285D01*
X186547619Y-123285714D02*
X186500000Y-123238095D01*
X186452381Y-123142857D01*
X186452381Y-122904761D01*
X186500000Y-122809523D01*
X186547619Y-122761904D01*
X186642857Y-122714285D01*
X186738095Y-122714285D01*
X186880952Y-122761904D01*
X187452381Y-123333333D01*
X187452381Y-122714285D01*
X209952381Y-137309524D02*
X209904762Y-137404762D01*
X209857143Y-137452381D01*
X209761905Y-137500000D01*
X209476190Y-137500000D01*
X209380952Y-137452381D01*
X209333333Y-137404762D01*
X209285714Y-137309524D01*
X209285714Y-137166666D01*
X209333333Y-137071428D01*
X209380952Y-137023809D01*
X209476190Y-136976190D01*
X209761905Y-136976190D01*
X209857143Y-137023809D01*
X209904762Y-137071428D01*
X209952381Y-137166666D01*
X209952381Y-137309524D01*
X209952381Y-136547619D02*
X209285714Y-136547619D01*
X209476190Y-136547619D02*
X209380952Y-136500000D01*
X209333333Y-136452381D01*
X209285714Y-136357143D01*
X209285714Y-136261904D01*
X209857143Y-134595237D02*
X209904762Y-134642856D01*
X209952381Y-134785713D01*
X209952381Y-134880951D01*
X209904762Y-135023809D01*
X209809524Y-135119047D01*
X209714286Y-135166666D01*
X209523810Y-135214285D01*
X209380952Y-135214285D01*
X209190476Y-135166666D01*
X209095238Y-135119047D01*
X209000000Y-135023809D01*
X208952381Y-134880951D01*
X208952381Y-134785713D01*
X209000000Y-134642856D01*
X209047619Y-134595237D01*
X210047619Y-134404761D02*
X210047619Y-133642856D01*
X209952381Y-133404761D02*
X209285714Y-133404761D01*
X208952381Y-133404761D02*
X209000000Y-133452380D01*
X209047619Y-133404761D01*
X209000000Y-133357142D01*
X208952381Y-133404761D01*
X209047619Y-133404761D01*
X209285714Y-132928571D02*
X209952381Y-132928571D01*
X209380952Y-132928571D02*
X209333333Y-132880952D01*
X209285714Y-132785714D01*
X209285714Y-132642856D01*
X209333333Y-132547618D01*
X209428571Y-132499999D01*
X209952381Y-132499999D01*
X209952381Y-131499999D02*
X209952381Y-132071428D01*
X209952381Y-131785714D02*
X208952381Y-131785714D01*
X209095238Y-131880952D01*
X209190476Y-131976190D01*
X209238095Y-132071428D01*
X202952381Y-77809524D02*
X202904762Y-77904762D01*
X202857143Y-77952381D01*
X202761905Y-78000000D01*
X202476190Y-78000000D01*
X202380952Y-77952381D01*
X202333333Y-77904762D01*
X202285714Y-77809524D01*
X202285714Y-77666666D01*
X202333333Y-77571428D01*
X202380952Y-77523809D01*
X202476190Y-77476190D01*
X202761905Y-77476190D01*
X202857143Y-77523809D01*
X202904762Y-77571428D01*
X202952381Y-77666666D01*
X202952381Y-77809524D01*
X202952381Y-77047619D02*
X202285714Y-77047619D01*
X202476190Y-77047619D02*
X202380952Y-77000000D01*
X202333333Y-76952381D01*
X202285714Y-76857143D01*
X202285714Y-76761904D01*
X202857143Y-75095237D02*
X202904762Y-75142856D01*
X202952381Y-75285713D01*
X202952381Y-75380951D01*
X202904762Y-75523809D01*
X202809524Y-75619047D01*
X202714286Y-75666666D01*
X202523810Y-75714285D01*
X202380952Y-75714285D01*
X202190476Y-75666666D01*
X202095238Y-75619047D01*
X202000000Y-75523809D01*
X201952381Y-75380951D01*
X201952381Y-75285713D01*
X202000000Y-75142856D01*
X202047619Y-75095237D01*
X203047619Y-74904761D02*
X203047619Y-74142856D01*
X202952381Y-73904761D02*
X202285714Y-73904761D01*
X201952381Y-73904761D02*
X202000000Y-73952380D01*
X202047619Y-73904761D01*
X202000000Y-73857142D01*
X201952381Y-73904761D01*
X202047619Y-73904761D01*
X202285714Y-73428571D02*
X202952381Y-73428571D01*
X202380952Y-73428571D02*
X202333333Y-73380952D01*
X202285714Y-73285714D01*
X202285714Y-73142856D01*
X202333333Y-73047618D01*
X202428571Y-72999999D01*
X202952381Y-72999999D01*
X202047619Y-72571428D02*
X202000000Y-72523809D01*
X201952381Y-72428571D01*
X201952381Y-72190475D01*
X202000000Y-72095237D01*
X202047619Y-72047618D01*
X202142857Y-71999999D01*
X202238095Y-71999999D01*
X202380952Y-72047618D01*
X202952381Y-72619047D01*
X202952381Y-71999999D01*
X199952381Y-76595238D02*
X198952381Y-76595238D01*
X199952381Y-76023809D01*
X198952381Y-76023809D01*
X199904762Y-75166666D02*
X199952381Y-75261904D01*
X199952381Y-75452381D01*
X199904762Y-75547619D01*
X199809524Y-75595238D01*
X199428571Y-75595238D01*
X199333333Y-75547619D01*
X199285714Y-75452381D01*
X199285714Y-75261904D01*
X199333333Y-75166666D01*
X199428571Y-75119047D01*
X199523810Y-75119047D01*
X199619048Y-75595238D01*
X199952381Y-74547619D02*
X199904762Y-74642857D01*
X199857143Y-74690476D01*
X199761905Y-74738095D01*
X199476190Y-74738095D01*
X199380952Y-74690476D01*
X199333333Y-74642857D01*
X199285714Y-74547619D01*
X199285714Y-74404761D01*
X199333333Y-74309523D01*
X199380952Y-74261904D01*
X199476190Y-74214285D01*
X199761905Y-74214285D01*
X199857143Y-74261904D01*
X199904762Y-74309523D01*
X199952381Y-74404761D01*
X199952381Y-74547619D01*
X199285714Y-73785714D02*
X199952381Y-73785714D01*
X199380952Y-73785714D02*
X199333333Y-73738095D01*
X199285714Y-73642857D01*
X199285714Y-73499999D01*
X199333333Y-73404761D01*
X199428571Y-73357142D01*
X199952381Y-73357142D01*
X199047619Y-72928571D02*
X199000000Y-72880952D01*
X198952381Y-72785714D01*
X198952381Y-72547618D01*
X199000000Y-72452380D01*
X199047619Y-72404761D01*
X199142857Y-72357142D01*
X199238095Y-72357142D01*
X199380952Y-72404761D01*
X199952381Y-72976190D01*
X199952381Y-72357142D01*
X206952381Y-136595238D02*
X205952381Y-136595238D01*
X206952381Y-136023809D01*
X205952381Y-136023809D01*
X206904762Y-135166666D02*
X206952381Y-135261904D01*
X206952381Y-135452381D01*
X206904762Y-135547619D01*
X206809524Y-135595238D01*
X206428571Y-135595238D01*
X206333333Y-135547619D01*
X206285714Y-135452381D01*
X206285714Y-135261904D01*
X206333333Y-135166666D01*
X206428571Y-135119047D01*
X206523810Y-135119047D01*
X206619048Y-135595238D01*
X206952381Y-134547619D02*
X206904762Y-134642857D01*
X206857143Y-134690476D01*
X206761905Y-134738095D01*
X206476190Y-134738095D01*
X206380952Y-134690476D01*
X206333333Y-134642857D01*
X206285714Y-134547619D01*
X206285714Y-134404761D01*
X206333333Y-134309523D01*
X206380952Y-134261904D01*
X206476190Y-134214285D01*
X206761905Y-134214285D01*
X206857143Y-134261904D01*
X206904762Y-134309523D01*
X206952381Y-134404761D01*
X206952381Y-134547619D01*
X206285714Y-133785714D02*
X206952381Y-133785714D01*
X206380952Y-133785714D02*
X206333333Y-133738095D01*
X206285714Y-133642857D01*
X206285714Y-133499999D01*
X206333333Y-133404761D01*
X206428571Y-133357142D01*
X206952381Y-133357142D01*
X206952381Y-132357142D02*
X206952381Y-132928571D01*
X206952381Y-132642857D02*
X205952381Y-132642857D01*
X206095238Y-132738095D01*
X206190476Y-132833333D01*
X206238095Y-132928571D01*
X208357143Y-124000000D02*
X208404762Y-124047619D01*
X208452381Y-124190476D01*
X208452381Y-124285714D01*
X208404762Y-124428572D01*
X208309524Y-124523810D01*
X208214286Y-124571429D01*
X208023810Y-124619048D01*
X207880952Y-124619048D01*
X207690476Y-124571429D01*
X207595238Y-124523810D01*
X207500000Y-124428572D01*
X207452381Y-124285714D01*
X207452381Y-124190476D01*
X207500000Y-124047619D01*
X207547619Y-124000000D01*
X208547619Y-123809524D02*
X208547619Y-123047619D01*
X208452381Y-122380952D02*
X207928571Y-122380952D01*
X207833333Y-122428571D01*
X207785714Y-122523809D01*
X207785714Y-122714286D01*
X207833333Y-122809524D01*
X208404762Y-122380952D02*
X208452381Y-122476190D01*
X208452381Y-122714286D01*
X208404762Y-122809524D01*
X208309524Y-122857143D01*
X208214286Y-122857143D01*
X208119048Y-122809524D01*
X208071429Y-122714286D01*
X208071429Y-122476190D01*
X208023810Y-122380952D01*
X208452381Y-121380952D02*
X208452381Y-121952381D01*
X208452381Y-121666667D02*
X207452381Y-121666667D01*
X207595238Y-121761905D01*
X207690476Y-121857143D01*
X207738095Y-121952381D01*
X201357143Y-87000000D02*
X201404762Y-87047619D01*
X201452381Y-87190476D01*
X201452381Y-87285714D01*
X201404762Y-87428572D01*
X201309524Y-87523810D01*
X201214286Y-87571429D01*
X201023810Y-87619048D01*
X200880952Y-87619048D01*
X200690476Y-87571429D01*
X200595238Y-87523810D01*
X200500000Y-87428572D01*
X200452381Y-87285714D01*
X200452381Y-87190476D01*
X200500000Y-87047619D01*
X200547619Y-87000000D01*
X201547619Y-86809524D02*
X201547619Y-86047619D01*
X201452381Y-85380952D02*
X200928571Y-85380952D01*
X200833333Y-85428571D01*
X200785714Y-85523809D01*
X200785714Y-85714286D01*
X200833333Y-85809524D01*
X201404762Y-85380952D02*
X201452381Y-85476190D01*
X201452381Y-85714286D01*
X201404762Y-85809524D01*
X201309524Y-85857143D01*
X201214286Y-85857143D01*
X201119048Y-85809524D01*
X201071429Y-85714286D01*
X201071429Y-85476190D01*
X201023810Y-85380952D01*
X200547619Y-84952381D02*
X200500000Y-84904762D01*
X200452381Y-84809524D01*
X200452381Y-84571428D01*
X200500000Y-84476190D01*
X200547619Y-84428571D01*
X200642857Y-84380952D01*
X200738095Y-84380952D01*
X200880952Y-84428571D01*
X201452381Y-85000000D01*
X201452381Y-84380952D01*
X195452381Y-85000000D02*
X194976190Y-85333334D01*
X195452381Y-85571429D02*
X194452381Y-85571429D01*
X194452381Y-85190476D01*
X194500000Y-85095238D01*
X194547619Y-85047619D01*
X194642857Y-85000000D01*
X194785714Y-85000000D01*
X194880952Y-85047619D01*
X194928571Y-85095238D01*
X194976190Y-85190476D01*
X194976190Y-85571429D01*
X195547619Y-84809524D02*
X195547619Y-84047619D01*
X195452381Y-83380952D02*
X194928571Y-83380952D01*
X194833333Y-83428571D01*
X194785714Y-83523809D01*
X194785714Y-83714286D01*
X194833333Y-83809524D01*
X195404762Y-83380952D02*
X195452381Y-83476190D01*
X195452381Y-83714286D01*
X195404762Y-83809524D01*
X195309524Y-83857143D01*
X195214286Y-83857143D01*
X195119048Y-83809524D01*
X195071429Y-83714286D01*
X195071429Y-83476190D01*
X195023810Y-83380952D01*
X194547619Y-82952381D02*
X194500000Y-82904762D01*
X194452381Y-82809524D01*
X194452381Y-82571428D01*
X194500000Y-82476190D01*
X194547619Y-82428571D01*
X194642857Y-82380952D01*
X194738095Y-82380952D01*
X194880952Y-82428571D01*
X195452381Y-83000000D01*
X195452381Y-82380952D01*
X219452381Y-106000000D02*
X218976190Y-106333334D01*
X219452381Y-106571429D02*
X218452381Y-106571429D01*
X218452381Y-106190476D01*
X218500000Y-106095238D01*
X218547619Y-106047619D01*
X218642857Y-106000000D01*
X218785714Y-106000000D01*
X218880952Y-106047619D01*
X218928571Y-106095238D01*
X218976190Y-106190476D01*
X218976190Y-106571429D01*
X219547619Y-105809524D02*
X219547619Y-105047619D01*
X219452381Y-104380952D02*
X218928571Y-104380952D01*
X218833333Y-104428571D01*
X218785714Y-104523809D01*
X218785714Y-104714286D01*
X218833333Y-104809524D01*
X219404762Y-104380952D02*
X219452381Y-104476190D01*
X219452381Y-104714286D01*
X219404762Y-104809524D01*
X219309524Y-104857143D01*
X219214286Y-104857143D01*
X219119048Y-104809524D01*
X219071429Y-104714286D01*
X219071429Y-104476190D01*
X219023810Y-104380952D01*
X219452381Y-103380952D02*
X219452381Y-103952381D01*
X219452381Y-103666667D02*
X218452381Y-103666667D01*
X218595238Y-103761905D01*
X218690476Y-103857143D01*
X218738095Y-103952381D01*
X174952381Y-143357143D02*
X174904762Y-143404762D01*
X174761905Y-143452381D01*
X174666667Y-143452381D01*
X174523809Y-143404762D01*
X174428571Y-143309524D01*
X174380952Y-143214286D01*
X174333333Y-143023810D01*
X174333333Y-142880952D01*
X174380952Y-142690476D01*
X174428571Y-142595238D01*
X174523809Y-142500000D01*
X174666667Y-142452381D01*
X174761905Y-142452381D01*
X174904762Y-142500000D01*
X174952381Y-142547619D01*
X175380952Y-143452381D02*
X175380952Y-142452381D01*
X175809524Y-143452381D02*
X175809524Y-142928571D01*
X175761905Y-142833333D01*
X175666667Y-142785714D01*
X175523809Y-142785714D01*
X175428571Y-142833333D01*
X175380952Y-142880952D01*
X176714286Y-143452381D02*
X176714286Y-142928571D01*
X176666667Y-142833333D01*
X176571429Y-142785714D01*
X176380952Y-142785714D01*
X176285714Y-142833333D01*
X176714286Y-143404762D02*
X176619048Y-143452381D01*
X176380952Y-143452381D01*
X176285714Y-143404762D01*
X176238095Y-143309524D01*
X176238095Y-143214286D01*
X176285714Y-143119048D01*
X176380952Y-143071429D01*
X176619048Y-143071429D01*
X176714286Y-143023810D01*
X177142857Y-143404762D02*
X177238095Y-143452381D01*
X177428571Y-143452381D01*
X177523810Y-143404762D01*
X177571429Y-143309524D01*
X177571429Y-143261905D01*
X177523810Y-143166667D01*
X177428571Y-143119048D01*
X177285714Y-143119048D01*
X177190476Y-143071429D01*
X177142857Y-142976190D01*
X177142857Y-142928571D01*
X177190476Y-142833333D01*
X177285714Y-142785714D01*
X177428571Y-142785714D01*
X177523810Y-142833333D01*
X177952381Y-143404762D02*
X178047619Y-143452381D01*
X178238095Y-143452381D01*
X178333334Y-143404762D01*
X178380953Y-143309524D01*
X178380953Y-143261905D01*
X178333334Y-143166667D01*
X178238095Y-143119048D01*
X178095238Y-143119048D01*
X178000000Y-143071429D01*
X177952381Y-142976190D01*
X177952381Y-142928571D01*
X178000000Y-142833333D01*
X178095238Y-142785714D01*
X178238095Y-142785714D01*
X178333334Y-142833333D01*
X178809524Y-143452381D02*
X178809524Y-142785714D01*
X178809524Y-142452381D02*
X178761905Y-142500000D01*
X178809524Y-142547619D01*
X178857143Y-142500000D01*
X178809524Y-142452381D01*
X178809524Y-142547619D01*
X179238095Y-143404762D02*
X179333333Y-143452381D01*
X179523809Y-143452381D01*
X179619048Y-143404762D01*
X179666667Y-143309524D01*
X179666667Y-143261905D01*
X179619048Y-143166667D01*
X179523809Y-143119048D01*
X179380952Y-143119048D01*
X179285714Y-143071429D01*
X179238095Y-142976190D01*
X179238095Y-142928571D01*
X179285714Y-142833333D01*
X179380952Y-142785714D01*
X179523809Y-142785714D01*
X179619048Y-142833333D01*
X185142857Y-70452381D02*
X184809523Y-69976190D01*
X184571428Y-70452381D02*
X184571428Y-69452381D01*
X184952381Y-69452381D01*
X185047619Y-69500000D01*
X185095238Y-69547619D01*
X185142857Y-69642857D01*
X185142857Y-69785714D01*
X185095238Y-69880952D01*
X185047619Y-69928571D01*
X184952381Y-69976190D01*
X184571428Y-69976190D01*
X185333333Y-70547619D02*
X186095238Y-70547619D01*
X186190476Y-69785714D02*
X186571428Y-69785714D01*
X186333333Y-70452381D02*
X186333333Y-69595238D01*
X186380952Y-69500000D01*
X186476190Y-69452381D01*
X186571428Y-69452381D01*
X175142857Y-74857143D02*
X175095238Y-74904762D01*
X174952381Y-74952381D01*
X174857143Y-74952381D01*
X174714285Y-74904762D01*
X174619047Y-74809524D01*
X174571428Y-74714286D01*
X174523809Y-74523810D01*
X174523809Y-74380952D01*
X174571428Y-74190476D01*
X174619047Y-74095238D01*
X174714285Y-74000000D01*
X174857143Y-73952381D01*
X174952381Y-73952381D01*
X175095238Y-74000000D01*
X175142857Y-74047619D01*
X175333333Y-75047619D02*
X176095238Y-75047619D01*
X176190476Y-74285714D02*
X176571428Y-74285714D01*
X176333333Y-74952381D02*
X176333333Y-74095238D01*
X176380952Y-74000000D01*
X176476190Y-73952381D01*
X176571428Y-73952381D01*
X210595238Y-71952381D02*
X210928571Y-72952381D01*
X211261905Y-71952381D01*
X212166667Y-72952381D02*
X211833333Y-72476190D01*
X211595238Y-72952381D02*
X211595238Y-71952381D01*
X211976191Y-71952381D01*
X212071429Y-72000000D01*
X212119048Y-72047619D01*
X212166667Y-72142857D01*
X212166667Y-72285714D01*
X212119048Y-72380952D01*
X212071429Y-72428571D01*
X211976191Y-72476190D01*
X211595238Y-72476190D01*
X212357143Y-73047619D02*
X213119048Y-73047619D01*
X213357143Y-72952381D02*
X213357143Y-71952381D01*
X213452381Y-72571429D02*
X213738096Y-72952381D01*
X213738096Y-72285714D02*
X213357143Y-72666667D01*
X214119048Y-72047619D02*
X214166667Y-72000000D01*
X214261905Y-71952381D01*
X214500001Y-71952381D01*
X214595239Y-72000000D01*
X214642858Y-72047619D01*
X214690477Y-72142857D01*
X214690477Y-72238095D01*
X214642858Y-72380952D01*
X214071429Y-72952381D01*
X214690477Y-72952381D01*
X190904762Y-135952381D02*
X191238095Y-136952381D01*
X191571429Y-135952381D01*
X192476191Y-136952381D02*
X192142857Y-136476190D01*
X191904762Y-136952381D02*
X191904762Y-135952381D01*
X192285715Y-135952381D01*
X192380953Y-136000000D01*
X192428572Y-136047619D01*
X192476191Y-136142857D01*
X192476191Y-136285714D01*
X192428572Y-136380952D01*
X192380953Y-136428571D01*
X192285715Y-136476190D01*
X191904762Y-136476190D01*
X192666667Y-137047619D02*
X193428572Y-137047619D01*
X193666667Y-136952381D02*
X193666667Y-135952381D01*
X193761905Y-136571429D02*
X194047620Y-136952381D01*
X194047620Y-136285714D02*
X193666667Y-136666667D01*
X195000001Y-136952381D02*
X194428572Y-136952381D01*
X194714286Y-136952381D02*
X194714286Y-135952381D01*
X194619048Y-136095238D01*
X194523810Y-136190476D01*
X194428572Y-136238095D01*
X215357143Y-126500000D02*
X215404762Y-126547619D01*
X215452381Y-126690476D01*
X215452381Y-126785714D01*
X215404762Y-126928572D01*
X215309524Y-127023810D01*
X215214286Y-127071429D01*
X215023810Y-127119048D01*
X214880952Y-127119048D01*
X214690476Y-127071429D01*
X214595238Y-127023810D01*
X214500000Y-126928572D01*
X214452381Y-126785714D01*
X214452381Y-126690476D01*
X214500000Y-126547619D01*
X214547619Y-126500000D01*
X215547619Y-126309524D02*
X215547619Y-125547619D01*
X215452381Y-125166667D02*
X215404762Y-125261905D01*
X215357143Y-125309524D01*
X215261905Y-125357143D01*
X214976190Y-125357143D01*
X214880952Y-125309524D01*
X214833333Y-125261905D01*
X214785714Y-125166667D01*
X214785714Y-125023809D01*
X214833333Y-124928571D01*
X214880952Y-124880952D01*
X214976190Y-124833333D01*
X215261905Y-124833333D01*
X215357143Y-124880952D01*
X215404762Y-124928571D01*
X215452381Y-125023809D01*
X215452381Y-125166667D01*
X215452381Y-123880952D02*
X215452381Y-124452381D01*
X215452381Y-124166667D02*
X214452381Y-124166667D01*
X214595238Y-124261905D01*
X214690476Y-124357143D01*
X214738095Y-124452381D01*
X186357143Y-106000000D02*
X186404762Y-106047619D01*
X186452381Y-106190476D01*
X186452381Y-106285714D01*
X186404762Y-106428572D01*
X186309524Y-106523810D01*
X186214286Y-106571429D01*
X186023810Y-106619048D01*
X185880952Y-106619048D01*
X185690476Y-106571429D01*
X185595238Y-106523810D01*
X185500000Y-106428572D01*
X185452381Y-106285714D01*
X185452381Y-106190476D01*
X185500000Y-106047619D01*
X185547619Y-106000000D01*
X186547619Y-105809524D02*
X186547619Y-105047619D01*
X186452381Y-104666667D02*
X186404762Y-104761905D01*
X186357143Y-104809524D01*
X186261905Y-104857143D01*
X185976190Y-104857143D01*
X185880952Y-104809524D01*
X185833333Y-104761905D01*
X185785714Y-104666667D01*
X185785714Y-104523809D01*
X185833333Y-104428571D01*
X185880952Y-104380952D01*
X185976190Y-104333333D01*
X186261905Y-104333333D01*
X186357143Y-104380952D01*
X186404762Y-104428571D01*
X186452381Y-104523809D01*
X186452381Y-104666667D01*
X185547619Y-103952381D02*
X185500000Y-103904762D01*
X185452381Y-103809524D01*
X185452381Y-103571428D01*
X185500000Y-103476190D01*
X185547619Y-103428571D01*
X185642857Y-103380952D01*
X185738095Y-103380952D01*
X185880952Y-103428571D01*
X186452381Y-104000000D01*
X186452381Y-103380952D01*
X220452381Y-85952381D02*
X219976190Y-86285715D01*
X220452381Y-86523810D02*
X219452381Y-86523810D01*
X219452381Y-86142857D01*
X219500000Y-86047619D01*
X219547619Y-86000000D01*
X219642857Y-85952381D01*
X219785714Y-85952381D01*
X219880952Y-86000000D01*
X219928571Y-86047619D01*
X219976190Y-86142857D01*
X219976190Y-86523810D01*
X220547619Y-85761905D02*
X220547619Y-85000000D01*
X220452381Y-84761905D02*
X219452381Y-84761905D01*
X220071429Y-84666667D02*
X220452381Y-84380952D01*
X219785714Y-84380952D02*
X220166667Y-84761905D01*
X219547619Y-84000000D02*
X219500000Y-83952381D01*
X219452381Y-83857143D01*
X219452381Y-83619047D01*
X219500000Y-83523809D01*
X219547619Y-83476190D01*
X219642857Y-83428571D01*
X219738095Y-83428571D01*
X219880952Y-83476190D01*
X220452381Y-84047619D01*
X220452381Y-83428571D01*
X217357143Y-89952381D02*
X217404762Y-90000000D01*
X217452381Y-90142857D01*
X217452381Y-90238095D01*
X217404762Y-90380953D01*
X217309524Y-90476191D01*
X217214286Y-90523810D01*
X217023810Y-90571429D01*
X216880952Y-90571429D01*
X216690476Y-90523810D01*
X216595238Y-90476191D01*
X216500000Y-90380953D01*
X216452381Y-90238095D01*
X216452381Y-90142857D01*
X216500000Y-90000000D01*
X216547619Y-89952381D01*
X217547619Y-89761905D02*
X217547619Y-89000000D01*
X217452381Y-88761905D02*
X216452381Y-88761905D01*
X217071429Y-88666667D02*
X217452381Y-88380952D01*
X216785714Y-88380952D02*
X217166667Y-88761905D01*
X216547619Y-88000000D02*
X216500000Y-87952381D01*
X216452381Y-87857143D01*
X216452381Y-87619047D01*
X216500000Y-87523809D01*
X216547619Y-87476190D01*
X216642857Y-87428571D01*
X216738095Y-87428571D01*
X216880952Y-87476190D01*
X217452381Y-88047619D01*
X217452381Y-87428571D01*
X190952381Y-122452381D02*
X190476190Y-122785715D01*
X190952381Y-123023810D02*
X189952381Y-123023810D01*
X189952381Y-122642857D01*
X190000000Y-122547619D01*
X190047619Y-122500000D01*
X190142857Y-122452381D01*
X190285714Y-122452381D01*
X190380952Y-122500000D01*
X190428571Y-122547619D01*
X190476190Y-122642857D01*
X190476190Y-123023810D01*
X191047619Y-122261905D02*
X191047619Y-121500000D01*
X190952381Y-121261905D02*
X189952381Y-121261905D01*
X190571429Y-121166667D02*
X190952381Y-120880952D01*
X190285714Y-120880952D02*
X190666667Y-121261905D01*
X190952381Y-119928571D02*
X190952381Y-120500000D01*
X190952381Y-120214286D02*
X189952381Y-120214286D01*
X190095238Y-120309524D01*
X190190476Y-120404762D01*
X190238095Y-120500000D01*
X198357143Y-125452381D02*
X198404762Y-125500000D01*
X198452381Y-125642857D01*
X198452381Y-125738095D01*
X198404762Y-125880953D01*
X198309524Y-125976191D01*
X198214286Y-126023810D01*
X198023810Y-126071429D01*
X197880952Y-126071429D01*
X197690476Y-126023810D01*
X197595238Y-125976191D01*
X197500000Y-125880953D01*
X197452381Y-125738095D01*
X197452381Y-125642857D01*
X197500000Y-125500000D01*
X197547619Y-125452381D01*
X198547619Y-125261905D02*
X198547619Y-124500000D01*
X198452381Y-124261905D02*
X197452381Y-124261905D01*
X198071429Y-124166667D02*
X198452381Y-123880952D01*
X197785714Y-123880952D02*
X198166667Y-124261905D01*
X198452381Y-122928571D02*
X198452381Y-123500000D01*
X198452381Y-123214286D02*
X197452381Y-123214286D01*
X197595238Y-123309524D01*
X197690476Y-123404762D01*
X197738095Y-123500000D01*
X207452381Y-83500000D02*
X206976190Y-83833334D01*
X207452381Y-84071429D02*
X206452381Y-84071429D01*
X206452381Y-83690476D01*
X206500000Y-83595238D01*
X206547619Y-83547619D01*
X206642857Y-83500000D01*
X206785714Y-83500000D01*
X206880952Y-83547619D01*
X206928571Y-83595238D01*
X206976190Y-83690476D01*
X206976190Y-84071429D01*
X207547619Y-83309524D02*
X207547619Y-82547619D01*
X206785714Y-81880952D02*
X207595238Y-81880952D01*
X207690476Y-81928571D01*
X207738095Y-81976190D01*
X207785714Y-82071429D01*
X207785714Y-82214286D01*
X207738095Y-82309524D01*
X207404762Y-81880952D02*
X207452381Y-81976190D01*
X207452381Y-82166667D01*
X207404762Y-82261905D01*
X207357143Y-82309524D01*
X207261905Y-82357143D01*
X206976190Y-82357143D01*
X206880952Y-82309524D01*
X206833333Y-82261905D01*
X206785714Y-82166667D01*
X206785714Y-81976190D01*
X206833333Y-81880952D01*
X206547619Y-81452381D02*
X206500000Y-81404762D01*
X206452381Y-81309524D01*
X206452381Y-81071428D01*
X206500000Y-80976190D01*
X206547619Y-80928571D01*
X206642857Y-80880952D01*
X206738095Y-80880952D01*
X206880952Y-80928571D01*
X207452381Y-81500000D01*
X207452381Y-80880952D01*
X202452381Y-129500000D02*
X201976190Y-129833334D01*
X202452381Y-130071429D02*
X201452381Y-130071429D01*
X201452381Y-129690476D01*
X201500000Y-129595238D01*
X201547619Y-129547619D01*
X201642857Y-129500000D01*
X201785714Y-129500000D01*
X201880952Y-129547619D01*
X201928571Y-129595238D01*
X201976190Y-129690476D01*
X201976190Y-130071429D01*
X202547619Y-129309524D02*
X202547619Y-128547619D01*
X201785714Y-127880952D02*
X202595238Y-127880952D01*
X202690476Y-127928571D01*
X202738095Y-127976190D01*
X202785714Y-128071429D01*
X202785714Y-128214286D01*
X202738095Y-128309524D01*
X202404762Y-127880952D02*
X202452381Y-127976190D01*
X202452381Y-128166667D01*
X202404762Y-128261905D01*
X202357143Y-128309524D01*
X202261905Y-128357143D01*
X201976190Y-128357143D01*
X201880952Y-128309524D01*
X201833333Y-128261905D01*
X201785714Y-128166667D01*
X201785714Y-127976190D01*
X201833333Y-127880952D01*
X202452381Y-126880952D02*
X202452381Y-127452381D01*
X202452381Y-127166667D02*
X201452381Y-127166667D01*
X201595238Y-127261905D01*
X201690476Y-127357143D01*
X201738095Y-127452381D01*
X200000000Y-111000000D02*
X201000000Y-112000000D01*
X200000000Y-100000000D02*
X201500000Y-98500000D01*
X196602381Y-109166667D02*
X197316667Y-109166667D01*
X197459524Y-109214287D01*
X197554762Y-109309525D01*
X197602381Y-109452382D01*
X197602381Y-109547620D01*
X196935714Y-108261905D02*
X197602381Y-108261905D01*
X196935714Y-108690477D02*
X197459524Y-108690477D01*
X197554762Y-108642858D01*
X197602381Y-108547620D01*
X197602381Y-108404762D01*
X197554762Y-108309524D01*
X197507143Y-108261905D01*
X197602381Y-107785715D02*
X196935714Y-107785715D01*
X197030952Y-107785715D02*
X196983333Y-107738096D01*
X196935714Y-107642858D01*
X196935714Y-107500000D01*
X196983333Y-107404762D01*
X197078571Y-107357143D01*
X197602381Y-107357143D01*
X197078571Y-107357143D02*
X196983333Y-107309524D01*
X196935714Y-107214286D01*
X196935714Y-107071429D01*
X196983333Y-106976191D01*
X197078571Y-106928572D01*
X197602381Y-106928572D01*
X196935714Y-106452382D02*
X197935714Y-106452382D01*
X196983333Y-106452382D02*
X196935714Y-106357144D01*
X196935714Y-106166667D01*
X196983333Y-106071429D01*
X197030952Y-106023810D01*
X197126190Y-105976191D01*
X197411905Y-105976191D01*
X197507143Y-106023810D01*
X197554762Y-106071429D01*
X197602381Y-106166667D01*
X197602381Y-106357144D01*
X197554762Y-106452382D01*
X197554762Y-105166667D02*
X197602381Y-105261905D01*
X197602381Y-105452382D01*
X197554762Y-105547620D01*
X197459524Y-105595239D01*
X197078571Y-105595239D01*
X196983333Y-105547620D01*
X196935714Y-105452382D01*
X196935714Y-105261905D01*
X196983333Y-105166667D01*
X197078571Y-105119048D01*
X197173810Y-105119048D01*
X197269048Y-105595239D01*
X197602381Y-104690477D02*
X196935714Y-104690477D01*
X197126190Y-104690477D02*
X197030952Y-104642858D01*
X196983333Y-104595239D01*
X196935714Y-104500001D01*
X196935714Y-104404762D01*
X196935714Y-103452381D02*
X196935714Y-103071429D01*
X196602381Y-103309524D02*
X197459524Y-103309524D01*
X197554762Y-103261905D01*
X197602381Y-103166667D01*
X197602381Y-103071429D01*
X197602381Y-102595238D02*
X197554762Y-102690476D01*
X197507143Y-102738095D01*
X197411905Y-102785714D01*
X197126190Y-102785714D01*
X197030952Y-102738095D01*
X196983333Y-102690476D01*
X196935714Y-102595238D01*
X196935714Y-102452380D01*
X196983333Y-102357142D01*
X197030952Y-102309523D01*
X197126190Y-102261904D01*
X197411905Y-102261904D01*
X197507143Y-102309523D01*
X197554762Y-102357142D01*
X197602381Y-102452380D01*
X197602381Y-102595238D01*
X198635714Y-110809525D02*
X199635714Y-110809525D01*
X198683333Y-110809525D02*
X198635714Y-110714287D01*
X198635714Y-110523810D01*
X198683333Y-110428572D01*
X198730952Y-110380953D01*
X198826190Y-110333334D01*
X199111905Y-110333334D01*
X199207143Y-110380953D01*
X199254762Y-110428572D01*
X199302381Y-110523810D01*
X199302381Y-110714287D01*
X199254762Y-110809525D01*
X199302381Y-109476191D02*
X198778571Y-109476191D01*
X198683333Y-109523810D01*
X198635714Y-109619048D01*
X198635714Y-109809525D01*
X198683333Y-109904763D01*
X199254762Y-109476191D02*
X199302381Y-109571429D01*
X199302381Y-109809525D01*
X199254762Y-109904763D01*
X199159524Y-109952382D01*
X199064286Y-109952382D01*
X198969048Y-109904763D01*
X198921429Y-109809525D01*
X198921429Y-109571429D01*
X198873810Y-109476191D01*
X199302381Y-109000001D02*
X198635714Y-109000001D01*
X198826190Y-109000001D02*
X198730952Y-108952382D01*
X198683333Y-108904763D01*
X198635714Y-108809525D01*
X198635714Y-108714286D01*
X199302381Y-107952381D02*
X198778571Y-107952381D01*
X198683333Y-108000000D01*
X198635714Y-108095238D01*
X198635714Y-108285715D01*
X198683333Y-108380953D01*
X199254762Y-107952381D02*
X199302381Y-108047619D01*
X199302381Y-108285715D01*
X199254762Y-108380953D01*
X199159524Y-108428572D01*
X199064286Y-108428572D01*
X198969048Y-108380953D01*
X198921429Y-108285715D01*
X198921429Y-108047619D01*
X198873810Y-107952381D01*
X199302381Y-107333334D02*
X199254762Y-107428572D01*
X199159524Y-107476191D01*
X198302381Y-107476191D01*
X199302381Y-106809524D02*
X199254762Y-106904762D01*
X199159524Y-106952381D01*
X198302381Y-106952381D01*
X199254762Y-106047618D02*
X199302381Y-106142856D01*
X199302381Y-106333333D01*
X199254762Y-106428571D01*
X199159524Y-106476190D01*
X198778571Y-106476190D01*
X198683333Y-106428571D01*
X198635714Y-106333333D01*
X198635714Y-106142856D01*
X198683333Y-106047618D01*
X198778571Y-105999999D01*
X198873810Y-105999999D01*
X198969048Y-106476190D01*
X199302381Y-105428571D02*
X199254762Y-105523809D01*
X199159524Y-105571428D01*
X198302381Y-105571428D01*
X199302381Y-104285713D02*
X198635714Y-104285713D01*
X198302381Y-104285713D02*
X198350000Y-104333332D01*
X198397619Y-104285713D01*
X198350000Y-104238094D01*
X198302381Y-104285713D01*
X198397619Y-104285713D01*
X198635714Y-103809523D02*
X199302381Y-103809523D01*
X198730952Y-103809523D02*
X198683333Y-103761904D01*
X198635714Y-103666666D01*
X198635714Y-103523808D01*
X198683333Y-103428570D01*
X198778571Y-103380951D01*
X199302381Y-103380951D01*
X198635714Y-102904761D02*
X199635714Y-102904761D01*
X198683333Y-102904761D02*
X198635714Y-102809523D01*
X198635714Y-102619046D01*
X198683333Y-102523808D01*
X198730952Y-102476189D01*
X198826190Y-102428570D01*
X199111905Y-102428570D01*
X199207143Y-102476189D01*
X199254762Y-102523808D01*
X199302381Y-102619046D01*
X199302381Y-102809523D01*
X199254762Y-102904761D01*
X198635714Y-101571427D02*
X199302381Y-101571427D01*
X198635714Y-101999999D02*
X199159524Y-101999999D01*
X199254762Y-101952380D01*
X199302381Y-101857142D01*
X199302381Y-101714284D01*
X199254762Y-101619046D01*
X199207143Y-101571427D01*
X198635714Y-101238094D02*
X198635714Y-100857142D01*
X198302381Y-101095237D02*
X199159524Y-101095237D01*
X199254762Y-101047618D01*
X199302381Y-100952380D01*
X199302381Y-100857142D01*
X199254762Y-100571427D02*
X199302381Y-100476189D01*
X199302381Y-100285713D01*
X199254762Y-100190474D01*
X199159524Y-100142855D01*
X199111905Y-100142855D01*
X199016667Y-100190474D01*
X198969048Y-100285713D01*
X198969048Y-100428570D01*
X198921429Y-100523808D01*
X198826190Y-100571427D01*
X198778571Y-100571427D01*
X198683333Y-100523808D01*
X198635714Y-100428570D01*
X198635714Y-100285713D01*
X198683333Y-100190474D01*
X226238096Y-80500000D02*
X226142858Y-80452381D01*
X226000001Y-80452381D01*
X225857143Y-80500000D01*
X225761905Y-80595238D01*
X225714286Y-80690476D01*
X225666667Y-80880952D01*
X225666667Y-81023810D01*
X225714286Y-81214286D01*
X225761905Y-81309524D01*
X225857143Y-81404762D01*
X226000001Y-81452381D01*
X226095239Y-81452381D01*
X226238096Y-81404762D01*
X226285715Y-81357143D01*
X226285715Y-81023810D01*
X226095239Y-81023810D01*
X226714286Y-81452381D02*
X226714286Y-80452381D01*
X227285715Y-81452381D01*
X227285715Y-80452381D01*
X227761905Y-81452381D02*
X227761905Y-80452381D01*
X228000000Y-80452381D01*
X228142858Y-80500000D01*
X228238096Y-80595238D01*
X228285715Y-80690476D01*
X228333334Y-80880952D01*
X228333334Y-81023810D01*
X228285715Y-81214286D01*
X228238096Y-81309524D01*
X228142858Y-81404762D01*
X228000000Y-81452381D01*
X227761905Y-81452381D01*
X226023810Y-94357143D02*
X225976191Y-94404762D01*
X225833334Y-94452381D01*
X225738096Y-94452381D01*
X225595238Y-94404762D01*
X225500000Y-94309524D01*
X225452381Y-94214286D01*
X225404762Y-94023810D01*
X225404762Y-93880952D01*
X225452381Y-93690476D01*
X225500000Y-93595238D01*
X225595238Y-93500000D01*
X225738096Y-93452381D01*
X225833334Y-93452381D01*
X225976191Y-93500000D01*
X226023810Y-93547619D01*
X226785715Y-93928571D02*
X226452381Y-93928571D01*
X226452381Y-94452381D02*
X226452381Y-93452381D01*
X226928572Y-93452381D01*
X227071429Y-94547619D02*
X227833334Y-94547619D01*
X228023810Y-93547619D02*
X228071429Y-93500000D01*
X228166667Y-93452381D01*
X228404763Y-93452381D01*
X228500001Y-93500000D01*
X228547620Y-93547619D01*
X228595239Y-93642857D01*
X228595239Y-93738095D01*
X228547620Y-93880952D01*
X227976191Y-94452381D01*
X228595239Y-94452381D01*
X224904761Y-99952381D02*
X224904761Y-98952381D01*
X224904761Y-99428571D02*
X225476190Y-99428571D01*
X225476190Y-99952381D02*
X225476190Y-98952381D01*
X226333333Y-99904762D02*
X226238095Y-99952381D01*
X226047618Y-99952381D01*
X225952380Y-99904762D01*
X225904761Y-99809524D01*
X225904761Y-99428571D01*
X225952380Y-99333333D01*
X226047618Y-99285714D01*
X226238095Y-99285714D01*
X226333333Y-99333333D01*
X226380952Y-99428571D01*
X226380952Y-99523810D01*
X225904761Y-99619048D01*
X227238095Y-99952381D02*
X227238095Y-99428571D01*
X227190476Y-99333333D01*
X227095238Y-99285714D01*
X226904761Y-99285714D01*
X226809523Y-99333333D01*
X227238095Y-99904762D02*
X227142857Y-99952381D01*
X226904761Y-99952381D01*
X226809523Y-99904762D01*
X226761904Y-99809524D01*
X226761904Y-99714286D01*
X226809523Y-99619048D01*
X226904761Y-99571429D01*
X227142857Y-99571429D01*
X227238095Y-99523810D01*
X227571428Y-99285714D02*
X227952380Y-99285714D01*
X227714285Y-98952381D02*
X227714285Y-99809524D01*
X227761904Y-99904762D01*
X227857142Y-99952381D01*
X227952380Y-99952381D01*
X228666667Y-99904762D02*
X228571429Y-99952381D01*
X228380952Y-99952381D01*
X228285714Y-99904762D01*
X228238095Y-99809524D01*
X228238095Y-99428571D01*
X228285714Y-99333333D01*
X228380952Y-99285714D01*
X228571429Y-99285714D01*
X228666667Y-99333333D01*
X228714286Y-99428571D01*
X228714286Y-99523810D01*
X228238095Y-99619048D01*
X229142857Y-99952381D02*
X229142857Y-99285714D01*
X229142857Y-99476190D02*
X229190476Y-99380952D01*
X229238095Y-99333333D01*
X229333333Y-99285714D01*
X229428572Y-99285714D01*
X229714286Y-99904762D02*
X229809524Y-99952381D01*
X230000000Y-99952381D01*
X230095239Y-99904762D01*
X230142858Y-99809524D01*
X230142858Y-99761905D01*
X230095239Y-99666667D01*
X230000000Y-99619048D01*
X229857143Y-99619048D01*
X229761905Y-99571429D01*
X229714286Y-99476190D01*
X229714286Y-99428571D01*
X229761905Y-99333333D01*
X229857143Y-99285714D01*
X230000000Y-99285714D01*
X230095239Y-99333333D01*
X175404761Y-99952381D02*
X175404761Y-98952381D01*
X175404761Y-99428571D02*
X175976190Y-99428571D01*
X175976190Y-99952381D02*
X175976190Y-98952381D01*
X176833333Y-99904762D02*
X176738095Y-99952381D01*
X176547618Y-99952381D01*
X176452380Y-99904762D01*
X176404761Y-99809524D01*
X176404761Y-99428571D01*
X176452380Y-99333333D01*
X176547618Y-99285714D01*
X176738095Y-99285714D01*
X176833333Y-99333333D01*
X176880952Y-99428571D01*
X176880952Y-99523810D01*
X176404761Y-99619048D01*
X177738095Y-99952381D02*
X177738095Y-99428571D01*
X177690476Y-99333333D01*
X177595238Y-99285714D01*
X177404761Y-99285714D01*
X177309523Y-99333333D01*
X177738095Y-99904762D02*
X177642857Y-99952381D01*
X177404761Y-99952381D01*
X177309523Y-99904762D01*
X177261904Y-99809524D01*
X177261904Y-99714286D01*
X177309523Y-99619048D01*
X177404761Y-99571429D01*
X177642857Y-99571429D01*
X177738095Y-99523810D01*
X178071428Y-99285714D02*
X178452380Y-99285714D01*
X178214285Y-98952381D02*
X178214285Y-99809524D01*
X178261904Y-99904762D01*
X178357142Y-99952381D01*
X178452380Y-99952381D01*
X179166667Y-99904762D02*
X179071429Y-99952381D01*
X178880952Y-99952381D01*
X178785714Y-99904762D01*
X178738095Y-99809524D01*
X178738095Y-99428571D01*
X178785714Y-99333333D01*
X178880952Y-99285714D01*
X179071429Y-99285714D01*
X179166667Y-99333333D01*
X179214286Y-99428571D01*
X179214286Y-99523810D01*
X178738095Y-99619048D01*
X179642857Y-99952381D02*
X179642857Y-99285714D01*
X179642857Y-99476190D02*
X179690476Y-99380952D01*
X179738095Y-99333333D01*
X179833333Y-99285714D01*
X179928572Y-99285714D01*
X180214286Y-99904762D02*
X180309524Y-99952381D01*
X180500000Y-99952381D01*
X180595239Y-99904762D01*
X180642858Y-99809524D01*
X180642858Y-99761905D01*
X180595239Y-99666667D01*
X180500000Y-99619048D01*
X180357143Y-99619048D01*
X180261905Y-99571429D01*
X180214286Y-99476190D01*
X180214286Y-99428571D01*
X180261905Y-99333333D01*
X180357143Y-99285714D01*
X180500000Y-99285714D01*
X180595239Y-99333333D01*
X215738096Y-58500000D02*
X215642858Y-58452381D01*
X215500001Y-58452381D01*
X215357143Y-58500000D01*
X215261905Y-58595238D01*
X215214286Y-58690476D01*
X215166667Y-58880952D01*
X215166667Y-59023810D01*
X215214286Y-59214286D01*
X215261905Y-59309524D01*
X215357143Y-59404762D01*
X215500001Y-59452381D01*
X215595239Y-59452381D01*
X215738096Y-59404762D01*
X215785715Y-59357143D01*
X215785715Y-59023810D01*
X215595239Y-59023810D01*
X216214286Y-59452381D02*
X216214286Y-58452381D01*
X216785715Y-59452381D01*
X216785715Y-58452381D01*
X217261905Y-59452381D02*
X217261905Y-58452381D01*
X217500000Y-58452381D01*
X217642858Y-58500000D01*
X217738096Y-58595238D01*
X217785715Y-58690476D01*
X217833334Y-58880952D01*
X217833334Y-59023810D01*
X217785715Y-59214286D01*
X217738096Y-59309524D01*
X217642858Y-59404762D01*
X217500000Y-59452381D01*
X217261905Y-59452381D01*
X180142857Y-59452381D02*
X180142857Y-58452381D01*
X180142857Y-58928571D02*
X180714286Y-58928571D01*
X180714286Y-59452381D02*
X180714286Y-58452381D01*
X181047619Y-58452381D02*
X181619048Y-58452381D01*
X181333333Y-59452381D02*
X181333333Y-58452381D01*
X182095238Y-59452381D02*
X182000000Y-59404762D01*
X181952381Y-59357143D01*
X181904762Y-59261905D01*
X181904762Y-58976190D01*
X181952381Y-58880952D01*
X182000000Y-58833333D01*
X182095238Y-58785714D01*
X182238096Y-58785714D01*
X182333334Y-58833333D01*
X182380953Y-58880952D01*
X182428572Y-58976190D01*
X182428572Y-59261905D01*
X182380953Y-59357143D01*
X182333334Y-59404762D01*
X182238096Y-59452381D01*
X182095238Y-59452381D01*
X183285715Y-58785714D02*
X183285715Y-59452381D01*
X182857143Y-58785714D02*
X182857143Y-59309524D01*
X182904762Y-59404762D01*
X183000000Y-59452381D01*
X183142858Y-59452381D01*
X183238096Y-59404762D01*
X183285715Y-59357143D01*
X183619048Y-58785714D02*
X184000000Y-58785714D01*
X183761905Y-58452381D02*
X183761905Y-59309524D01*
X183809524Y-59404762D01*
X183904762Y-59452381D01*
X184000000Y-59452381D01*
X201142857Y-58547619D02*
X201190476Y-58500000D01*
X201285714Y-58452381D01*
X201523810Y-58452381D01*
X201619048Y-58500000D01*
X201666667Y-58547619D01*
X201714286Y-58642857D01*
X201714286Y-58738095D01*
X201666667Y-58880952D01*
X201095238Y-59452381D01*
X201714286Y-59452381D01*
X201904762Y-59547619D02*
X202666667Y-59547619D01*
X202904762Y-59452381D02*
X202904762Y-58452381D01*
X203380952Y-58785714D02*
X203380952Y-59452381D01*
X203380952Y-58880952D02*
X203428571Y-58833333D01*
X203523809Y-58785714D01*
X203666667Y-58785714D01*
X203761905Y-58833333D01*
X203809524Y-58928571D01*
X203809524Y-59452381D01*
X219142857Y-142952381D02*
X218571428Y-142952381D01*
X218857142Y-142952381D02*
X218857142Y-141952381D01*
X218761904Y-142095238D01*
X218666666Y-142190476D01*
X218571428Y-142238095D01*
X219333333Y-143047619D02*
X220095238Y-143047619D01*
X220523809Y-141952381D02*
X220714286Y-141952381D01*
X220809524Y-142000000D01*
X220904762Y-142095238D01*
X220952381Y-142285714D01*
X220952381Y-142619048D01*
X220904762Y-142809524D01*
X220809524Y-142904762D01*
X220714286Y-142952381D01*
X220523809Y-142952381D01*
X220428571Y-142904762D01*
X220333333Y-142809524D01*
X220285714Y-142619048D01*
X220285714Y-142285714D01*
X220333333Y-142095238D01*
X220428571Y-142000000D01*
X220523809Y-141952381D01*
X221809524Y-142285714D02*
X221809524Y-142952381D01*
X221380952Y-142285714D02*
X221380952Y-142809524D01*
X221428571Y-142904762D01*
X221523809Y-142952381D01*
X221666667Y-142952381D01*
X221761905Y-142904762D01*
X221809524Y-142857143D01*
X222142857Y-142285714D02*
X222523809Y-142285714D01*
X222285714Y-141952381D02*
X222285714Y-142809524D01*
X222333333Y-142904762D01*
X222428571Y-142952381D01*
X222523809Y-142952381D01*
X213738095Y-151666667D02*
X214214286Y-151666667D01*
X213642857Y-151952381D02*
X213976190Y-150952381D01*
X214309524Y-151952381D01*
X215166667Y-151000000D02*
X215071429Y-150952381D01*
X214928572Y-150952381D01*
X214785714Y-151000000D01*
X214690476Y-151095238D01*
X214642857Y-151190476D01*
X214595238Y-151380952D01*
X214595238Y-151523810D01*
X214642857Y-151714286D01*
X214690476Y-151809524D01*
X214785714Y-151904762D01*
X214928572Y-151952381D01*
X215023810Y-151952381D01*
X215166667Y-151904762D01*
X215214286Y-151857143D01*
X215214286Y-151523810D01*
X215023810Y-151523810D01*
X215642857Y-151952381D02*
X215642857Y-150952381D01*
X216214286Y-151952381D01*
X216214286Y-150952381D01*
X216690476Y-151952381D02*
X216690476Y-150952381D01*
X216928571Y-150952381D01*
X217071429Y-151000000D01*
X217166667Y-151095238D01*
X217214286Y-151190476D01*
X217261905Y-151380952D01*
X217261905Y-151523810D01*
X217214286Y-151714286D01*
X217166667Y-151809524D01*
X217071429Y-151904762D01*
X216928571Y-151952381D01*
X216690476Y-151952381D01*
X209738096Y-142000000D02*
X209642858Y-141952381D01*
X209500001Y-141952381D01*
X209357143Y-142000000D01*
X209261905Y-142095238D01*
X209214286Y-142190476D01*
X209166667Y-142380952D01*
X209166667Y-142523810D01*
X209214286Y-142714286D01*
X209261905Y-142809524D01*
X209357143Y-142904762D01*
X209500001Y-142952381D01*
X209595239Y-142952381D01*
X209738096Y-142904762D01*
X209785715Y-142857143D01*
X209785715Y-142523810D01*
X209595239Y-142523810D01*
X210214286Y-142952381D02*
X210214286Y-141952381D01*
X210785715Y-142952381D01*
X210785715Y-141952381D01*
X211261905Y-142952381D02*
X211261905Y-141952381D01*
X211500000Y-141952381D01*
X211642858Y-142000000D01*
X211738096Y-142095238D01*
X211785715Y-142190476D01*
X211833334Y-142380952D01*
X211833334Y-142523810D01*
X211785715Y-142714286D01*
X211738096Y-142809524D01*
X211642858Y-142904762D01*
X211500000Y-142952381D01*
X211261905Y-142952381D01*
X204714286Y-151952381D02*
X204142857Y-151952381D01*
X204428571Y-151952381D02*
X204428571Y-150952381D01*
X204333333Y-151095238D01*
X204238095Y-151190476D01*
X204142857Y-151238095D01*
X204904762Y-152047619D02*
X205666667Y-152047619D01*
X205904762Y-151952381D02*
X205904762Y-150952381D01*
X206380952Y-151285714D02*
X206380952Y-151952381D01*
X206380952Y-151380952D02*
X206428571Y-151333333D01*
X206523809Y-151285714D01*
X206666667Y-151285714D01*
X206761905Y-151333333D01*
X206809524Y-151428571D01*
X206809524Y-151952381D01*
X198738095Y-142666667D02*
X199214286Y-142666667D01*
X198642857Y-142952381D02*
X198976190Y-141952381D01*
X199309524Y-142952381D01*
X200166667Y-142000000D02*
X200071429Y-141952381D01*
X199928572Y-141952381D01*
X199785714Y-142000000D01*
X199690476Y-142095238D01*
X199642857Y-142190476D01*
X199595238Y-142380952D01*
X199595238Y-142523810D01*
X199642857Y-142714286D01*
X199690476Y-142809524D01*
X199785714Y-142904762D01*
X199928572Y-142952381D01*
X200023810Y-142952381D01*
X200166667Y-142904762D01*
X200214286Y-142857143D01*
X200214286Y-142523810D01*
X200023810Y-142523810D01*
X200642857Y-142952381D02*
X200642857Y-141952381D01*
X201214286Y-142952381D01*
X201214286Y-141952381D01*
X201690476Y-142952381D02*
X201690476Y-141952381D01*
X201928571Y-141952381D01*
X202071429Y-142000000D01*
X202166667Y-142095238D01*
X202214286Y-142190476D01*
X202261905Y-142380952D01*
X202261905Y-142523810D01*
X202214286Y-142714286D01*
X202166667Y-142809524D01*
X202071429Y-142904762D01*
X201928571Y-142952381D01*
X201690476Y-142952381D01*
X189238096Y-142000000D02*
X189142858Y-141952381D01*
X189000001Y-141952381D01*
X188857143Y-142000000D01*
X188761905Y-142095238D01*
X188714286Y-142190476D01*
X188666667Y-142380952D01*
X188666667Y-142523810D01*
X188714286Y-142714286D01*
X188761905Y-142809524D01*
X188857143Y-142904762D01*
X189000001Y-142952381D01*
X189095239Y-142952381D01*
X189238096Y-142904762D01*
X189285715Y-142857143D01*
X189285715Y-142523810D01*
X189095239Y-142523810D01*
X189714286Y-142952381D02*
X189714286Y-141952381D01*
X190285715Y-142952381D01*
X190285715Y-141952381D01*
X190761905Y-142952381D02*
X190761905Y-141952381D01*
X191000000Y-141952381D01*
X191142858Y-142000000D01*
X191238096Y-142095238D01*
X191285715Y-142190476D01*
X191333334Y-142380952D01*
X191333334Y-142523810D01*
X191285715Y-142714286D01*
X191238096Y-142809524D01*
X191142858Y-142904762D01*
X191000000Y-142952381D01*
X190761905Y-142952381D01*
X193071428Y-151047619D02*
X193119047Y-151000000D01*
X193214285Y-150952381D01*
X193452381Y-150952381D01*
X193547619Y-151000000D01*
X193595238Y-151047619D01*
X193642857Y-151142857D01*
X193642857Y-151238095D01*
X193595238Y-151380952D01*
X193023809Y-151952381D01*
X193642857Y-151952381D01*
X193833333Y-152047619D02*
X194595238Y-152047619D01*
X195023809Y-150952381D02*
X195214286Y-150952381D01*
X195309524Y-151000000D01*
X195404762Y-151095238D01*
X195452381Y-151285714D01*
X195452381Y-151619048D01*
X195404762Y-151809524D01*
X195309524Y-151904762D01*
X195214286Y-151952381D01*
X195023809Y-151952381D01*
X194928571Y-151904762D01*
X194833333Y-151809524D01*
X194785714Y-151619048D01*
X194785714Y-151285714D01*
X194833333Y-151095238D01*
X194928571Y-151000000D01*
X195023809Y-150952381D01*
X196309524Y-151285714D02*
X196309524Y-151952381D01*
X195880952Y-151285714D02*
X195880952Y-151809524D01*
X195928571Y-151904762D01*
X196023809Y-151952381D01*
X196166667Y-151952381D01*
X196261905Y-151904762D01*
X196309524Y-151857143D01*
X196642857Y-151285714D02*
X197023809Y-151285714D01*
X196785714Y-150952381D02*
X196785714Y-151809524D01*
X196833333Y-151904762D01*
X196928571Y-151952381D01*
X197023809Y-151952381D01*
X184023810Y-151857143D02*
X183976191Y-151904762D01*
X183833334Y-151952381D01*
X183738096Y-151952381D01*
X183595238Y-151904762D01*
X183500000Y-151809524D01*
X183452381Y-151714286D01*
X183404762Y-151523810D01*
X183404762Y-151380952D01*
X183452381Y-151190476D01*
X183500000Y-151095238D01*
X183595238Y-151000000D01*
X183738096Y-150952381D01*
X183833334Y-150952381D01*
X183976191Y-151000000D01*
X184023810Y-151047619D01*
X184785715Y-151428571D02*
X184452381Y-151428571D01*
X184452381Y-151952381D02*
X184452381Y-150952381D01*
X184928572Y-150952381D01*
X185071429Y-152047619D02*
X185833334Y-152047619D01*
X186595239Y-151952381D02*
X186023810Y-151952381D01*
X186309524Y-151952381D02*
X186309524Y-150952381D01*
X186214286Y-151095238D01*
X186119048Y-151190476D01*
X186023810Y-151238095D01*
D12*
X205628571Y-116690477D02*
X204128571Y-116690477D01*
X204128571Y-116214286D01*
X204200000Y-116095239D01*
X204271429Y-116035715D01*
X204414286Y-115976191D01*
X204628571Y-115976191D01*
X204771429Y-116035715D01*
X204842857Y-116095239D01*
X204914286Y-116214286D01*
X204914286Y-116690477D01*
X205628571Y-115440477D02*
X204628571Y-115440477D01*
X204914286Y-115440477D02*
X204771429Y-115380953D01*
X204700000Y-115321429D01*
X204628571Y-115202382D01*
X204628571Y-115083334D01*
X205557143Y-114190476D02*
X205628571Y-114309524D01*
X205628571Y-114547619D01*
X205557143Y-114666667D01*
X205414286Y-114726191D01*
X204842857Y-114726191D01*
X204700000Y-114666667D01*
X204628571Y-114547619D01*
X204628571Y-114309524D01*
X204700000Y-114190476D01*
X204842857Y-114130953D01*
X204985714Y-114130953D01*
X205128571Y-114726191D01*
X205628571Y-113059524D02*
X204842857Y-113059524D01*
X204700000Y-113119047D01*
X204628571Y-113238095D01*
X204628571Y-113476190D01*
X204700000Y-113595238D01*
X205557143Y-113059524D02*
X205628571Y-113178571D01*
X205628571Y-113476190D01*
X205557143Y-113595238D01*
X205414286Y-113654762D01*
X205271429Y-113654762D01*
X205128571Y-113595238D01*
X205057143Y-113476190D01*
X205057143Y-113178571D01*
X204985714Y-113059524D01*
X205628571Y-112464286D02*
X204628571Y-112464286D01*
X204771429Y-112464286D02*
X204700000Y-112404762D01*
X204628571Y-112285715D01*
X204628571Y-112107143D01*
X204700000Y-111988095D01*
X204842857Y-111928572D01*
X205628571Y-111928572D01*
X204842857Y-111928572D02*
X204700000Y-111869048D01*
X204628571Y-111750000D01*
X204628571Y-111571429D01*
X204700000Y-111452381D01*
X204842857Y-111392857D01*
X205628571Y-111392857D01*
X204628571Y-110797619D02*
X206128571Y-110797619D01*
X204700000Y-110797619D02*
X204628571Y-110678571D01*
X204628571Y-110440476D01*
X204700000Y-110321428D01*
X204771429Y-110261905D01*
X204914286Y-110202381D01*
X205342857Y-110202381D01*
X205485714Y-110261905D01*
X205557143Y-110321428D01*
X205628571Y-110440476D01*
X205628571Y-110678571D01*
X205557143Y-110797619D01*
X204628571Y-108892857D02*
X204628571Y-108416667D01*
X204128571Y-108714286D02*
X205414286Y-108714286D01*
X205557143Y-108654762D01*
X205628571Y-108535715D01*
X205628571Y-108416667D01*
X205557143Y-107523809D02*
X205628571Y-107642857D01*
X205628571Y-107880952D01*
X205557143Y-108000000D01*
X205414286Y-108059524D01*
X204842857Y-108059524D01*
X204700000Y-108000000D01*
X204628571Y-107880952D01*
X204628571Y-107642857D01*
X204700000Y-107523809D01*
X204842857Y-107464286D01*
X204985714Y-107464286D01*
X205128571Y-108059524D01*
X205628571Y-106928571D02*
X204628571Y-106928571D01*
X204771429Y-106928571D02*
X204700000Y-106869047D01*
X204628571Y-106750000D01*
X204628571Y-106571428D01*
X204700000Y-106452380D01*
X204842857Y-106392857D01*
X205628571Y-106392857D01*
X204842857Y-106392857D02*
X204700000Y-106333333D01*
X204628571Y-106214285D01*
X204628571Y-106035714D01*
X204700000Y-105916666D01*
X204842857Y-105857142D01*
X205628571Y-105857142D01*
X204628571Y-105261904D02*
X206128571Y-105261904D01*
X204700000Y-105261904D02*
X204628571Y-105142856D01*
X204628571Y-104904761D01*
X204700000Y-104785713D01*
X204771429Y-104726190D01*
X204914286Y-104666666D01*
X205342857Y-104666666D01*
X205485714Y-104726190D01*
X205557143Y-104785713D01*
X205628571Y-104904761D01*
X205628571Y-105142856D01*
X205557143Y-105261904D01*
X205628571Y-103952381D02*
X205557143Y-104071428D01*
X205414286Y-104130952D01*
X204128571Y-104130952D01*
X205628571Y-102940476D02*
X204842857Y-102940476D01*
X204700000Y-102999999D01*
X204628571Y-103119047D01*
X204628571Y-103357142D01*
X204700000Y-103476190D01*
X205557143Y-102940476D02*
X205628571Y-103059523D01*
X205628571Y-103357142D01*
X205557143Y-103476190D01*
X205414286Y-103535714D01*
X205271429Y-103535714D01*
X205128571Y-103476190D01*
X205057143Y-103357142D01*
X205057143Y-103059523D01*
X204985714Y-102940476D01*
X204628571Y-102523809D02*
X204628571Y-102047619D01*
X204128571Y-102345238D02*
X205414286Y-102345238D01*
X205557143Y-102285714D01*
X205628571Y-102166667D01*
X205628571Y-102047619D01*
X205557143Y-101154761D02*
X205628571Y-101273809D01*
X205628571Y-101511904D01*
X205557143Y-101630952D01*
X205414286Y-101690476D01*
X204842857Y-101690476D01*
X204700000Y-101630952D01*
X204628571Y-101511904D01*
X204628571Y-101273809D01*
X204700000Y-101154761D01*
X204842857Y-101095238D01*
X204985714Y-101095238D01*
X205128571Y-101690476D01*
X205628571Y-99607142D02*
X204128571Y-99607142D01*
X204128571Y-99130951D01*
X204200000Y-99011904D01*
X204271429Y-98952380D01*
X204414286Y-98892856D01*
X204628571Y-98892856D01*
X204771429Y-98952380D01*
X204842857Y-99011904D01*
X204914286Y-99130951D01*
X204914286Y-99607142D01*
X205485714Y-97642856D02*
X205557143Y-97702380D01*
X205628571Y-97880951D01*
X205628571Y-97999999D01*
X205557143Y-98178571D01*
X205414286Y-98297618D01*
X205271429Y-98357142D01*
X204985714Y-98416666D01*
X204771429Y-98416666D01*
X204485714Y-98357142D01*
X204342857Y-98297618D01*
X204200000Y-98178571D01*
X204128571Y-97999999D01*
X204128571Y-97880951D01*
X204200000Y-97702380D01*
X204271429Y-97642856D01*
X204842857Y-96690475D02*
X204914286Y-96511904D01*
X204985714Y-96452380D01*
X205128571Y-96392856D01*
X205342857Y-96392856D01*
X205485714Y-96452380D01*
X205557143Y-96511904D01*
X205628571Y-96630951D01*
X205628571Y-97107142D01*
X204128571Y-97107142D01*
X204128571Y-96690475D01*
X204200000Y-96571428D01*
X204271429Y-96511904D01*
X204414286Y-96452380D01*
X204557143Y-96452380D01*
X204700000Y-96511904D01*
X204771429Y-96571428D01*
X204842857Y-96690475D01*
X204842857Y-97107142D01*
X204628571Y-95976190D02*
X205628571Y-95678571D01*
X204628571Y-95380951D01*
X205628571Y-94249999D02*
X205628571Y-94964285D01*
X205628571Y-94607142D02*
X204128571Y-94607142D01*
X204342857Y-94726190D01*
X204485714Y-94845237D01*
X204557143Y-94964285D01*
X206678571Y-112226190D02*
X206678571Y-111511905D01*
X208178571Y-111869048D02*
X206678571Y-111869048D01*
X208178571Y-111095238D02*
X207178571Y-111095238D01*
X207464286Y-111095238D02*
X207321429Y-111035714D01*
X207250000Y-110976190D01*
X207178571Y-110857143D01*
X207178571Y-110738095D01*
X208178571Y-110321428D02*
X207178571Y-110321428D01*
X206678571Y-110321428D02*
X206750000Y-110380952D01*
X206821429Y-110321428D01*
X206750000Y-110261904D01*
X206678571Y-110321428D01*
X206821429Y-110321428D01*
X208107143Y-109785714D02*
X208178571Y-109666666D01*
X208178571Y-109428571D01*
X208107143Y-109309523D01*
X207964286Y-109249999D01*
X207892857Y-109249999D01*
X207750000Y-109309523D01*
X207678571Y-109428571D01*
X207678571Y-109607142D01*
X207607143Y-109726190D01*
X207464286Y-109785714D01*
X207392857Y-109785714D01*
X207250000Y-109726190D01*
X207178571Y-109607142D01*
X207178571Y-109428571D01*
X207250000Y-109309523D01*
X207178571Y-108892856D02*
X207178571Y-108416666D01*
X206678571Y-108714285D02*
X207964286Y-108714285D01*
X208107143Y-108654761D01*
X208178571Y-108535714D01*
X208178571Y-108416666D01*
X208178571Y-107464285D02*
X207392857Y-107464285D01*
X207250000Y-107523808D01*
X207178571Y-107642856D01*
X207178571Y-107880951D01*
X207250000Y-107999999D01*
X208107143Y-107464285D02*
X208178571Y-107583332D01*
X208178571Y-107880951D01*
X208107143Y-107999999D01*
X207964286Y-108059523D01*
X207821429Y-108059523D01*
X207678571Y-107999999D01*
X207607143Y-107880951D01*
X207607143Y-107583332D01*
X207535714Y-107464285D01*
X207178571Y-106869047D02*
X208178571Y-106869047D01*
X207321429Y-106869047D02*
X207250000Y-106809523D01*
X207178571Y-106690476D01*
X207178571Y-106511904D01*
X207250000Y-106392856D01*
X207392857Y-106333333D01*
X208178571Y-106333333D01*
X208035714Y-104071428D02*
X208107143Y-104130952D01*
X208178571Y-104309523D01*
X208178571Y-104428571D01*
X208107143Y-104607143D01*
X207964286Y-104726190D01*
X207821429Y-104785714D01*
X207535714Y-104845238D01*
X207321429Y-104845238D01*
X207035714Y-104785714D01*
X206892857Y-104726190D01*
X206750000Y-104607143D01*
X206678571Y-104428571D01*
X206678571Y-104309523D01*
X206750000Y-104130952D01*
X206821429Y-104071428D01*
X208178571Y-103357143D02*
X208107143Y-103476190D01*
X208035714Y-103535714D01*
X207892857Y-103595238D01*
X207464286Y-103595238D01*
X207321429Y-103535714D01*
X207250000Y-103476190D01*
X207178571Y-103357143D01*
X207178571Y-103178571D01*
X207250000Y-103059523D01*
X207321429Y-103000000D01*
X207464286Y-102940476D01*
X207892857Y-102940476D01*
X208035714Y-103000000D01*
X208107143Y-103059523D01*
X208178571Y-103178571D01*
X208178571Y-103357143D01*
X208178571Y-102226191D02*
X208107143Y-102345238D01*
X207964286Y-102404762D01*
X206678571Y-102404762D01*
X208178571Y-101571429D02*
X208107143Y-101690476D01*
X207964286Y-101750000D01*
X206678571Y-101750000D01*
X208178571Y-101095238D02*
X207178571Y-101095238D01*
X206678571Y-101095238D02*
X206750000Y-101154762D01*
X206821429Y-101095238D01*
X206750000Y-101035714D01*
X206678571Y-101095238D01*
X206821429Y-101095238D01*
X207178571Y-100500000D02*
X208178571Y-100500000D01*
X207321429Y-100500000D02*
X207250000Y-100440476D01*
X207178571Y-100321429D01*
X207178571Y-100142857D01*
X207250000Y-100023809D01*
X207392857Y-99964286D01*
X208178571Y-99964286D01*
X208107143Y-99428572D02*
X208178571Y-99309524D01*
X208178571Y-99071429D01*
X208107143Y-98952381D01*
X207964286Y-98892857D01*
X207892857Y-98892857D01*
X207750000Y-98952381D01*
X207678571Y-99071429D01*
X207678571Y-99250000D01*
X207607143Y-99369048D01*
X207464286Y-99428572D01*
X207392857Y-99428572D01*
X207250000Y-99369048D01*
X207178571Y-99250000D01*
X207178571Y-99071429D01*
X207250000Y-98952381D01*
X209228571Y-109547618D02*
X210300000Y-109547618D01*
X210514286Y-109607142D01*
X210657143Y-109726190D01*
X210728571Y-109904761D01*
X210728571Y-110023809D01*
X209728571Y-108416666D02*
X210728571Y-108416666D01*
X209728571Y-108952380D02*
X210514286Y-108952380D01*
X210657143Y-108892856D01*
X210728571Y-108773809D01*
X210728571Y-108595237D01*
X210657143Y-108476189D01*
X210585714Y-108416666D01*
X210728571Y-107642857D02*
X210657143Y-107761904D01*
X210514286Y-107821428D01*
X209228571Y-107821428D01*
X209728571Y-107285714D02*
X210728571Y-106988095D01*
X209728571Y-106690475D02*
X210728571Y-106988095D01*
X211085714Y-107107142D01*
X211157143Y-107166666D01*
X211228571Y-107285714D01*
X209371429Y-105321428D02*
X209300000Y-105261904D01*
X209228571Y-105142856D01*
X209228571Y-104845237D01*
X209300000Y-104726190D01*
X209371429Y-104666666D01*
X209514286Y-104607142D01*
X209657143Y-104607142D01*
X209871429Y-104666666D01*
X210728571Y-105380952D01*
X210728571Y-104607142D01*
X209228571Y-103833333D02*
X209228571Y-103714285D01*
X209300000Y-103595237D01*
X209371429Y-103535714D01*
X209514286Y-103476190D01*
X209800000Y-103416666D01*
X210157143Y-103416666D01*
X210442857Y-103476190D01*
X210585714Y-103535714D01*
X210657143Y-103595237D01*
X210728571Y-103714285D01*
X210728571Y-103833333D01*
X210657143Y-103952380D01*
X210585714Y-104011904D01*
X210442857Y-104071428D01*
X210157143Y-104130952D01*
X209800000Y-104130952D01*
X209514286Y-104071428D01*
X209371429Y-104011904D01*
X209300000Y-103952380D01*
X209228571Y-103833333D01*
X210728571Y-102226190D02*
X210728571Y-102940476D01*
X210728571Y-102583333D02*
X209228571Y-102583333D01*
X209442857Y-102702381D01*
X209585714Y-102821428D01*
X209657143Y-102940476D01*
X209228571Y-101809524D02*
X209228571Y-100976190D01*
X210728571Y-101511905D01*
D13*
X198440000Y-90060000D02*
X198440000Y-82440000D01*
X203560000Y-90060000D02*
X203560000Y-82440000D01*
X198440000Y-90060000D02*
X199805000Y-90060000D01*
X202195000Y-90060000D02*
X203560000Y-90060000D01*
X198440000Y-82440000D02*
X199805000Y-82440000D01*
X202195000Y-82440000D02*
X203560000Y-82440000D01*
X191550000Y-82750000D02*
X173450000Y-82750000D01*
X191550000Y-82790000D02*
X173450000Y-82790000D01*
X191550000Y-82830000D02*
X173450000Y-82830000D01*
X191550000Y-82870000D02*
X173450000Y-82870000D01*
X191549000Y-82910000D02*
X173451000Y-82910000D01*
X191548000Y-82950000D02*
X173452000Y-82950000D01*
X191547000Y-82990000D02*
X173453000Y-82990000D01*
X191546000Y-83030000D02*
X173454000Y-83030000D01*
X191545000Y-83070000D02*
X173455000Y-83070000D01*
X191543000Y-83110000D02*
X173457000Y-83110000D01*
X191542000Y-83150000D02*
X173458000Y-83150000D01*
X191540000Y-83190000D02*
X173460000Y-83190000D01*
X191538000Y-83230000D02*
X173462000Y-83230000D01*
X191536000Y-83270000D02*
X173464000Y-83270000D01*
X191533000Y-83310000D02*
X173467000Y-83310000D01*
X191531000Y-83350000D02*
X173469000Y-83350000D01*
X191528000Y-83390000D02*
X173472000Y-83390000D01*
X191525000Y-83430000D02*
X173475000Y-83430000D01*
X191522000Y-83471000D02*
X173478000Y-83471000D01*
X191519000Y-83511000D02*
X173481000Y-83511000D01*
X191515000Y-83551000D02*
X173485000Y-83551000D01*
X191512000Y-83591000D02*
X173488000Y-83591000D01*
X191508000Y-83631000D02*
X173492000Y-83631000D01*
X191504000Y-83671000D02*
X173496000Y-83671000D01*
X191500000Y-83711000D02*
X173500000Y-83711000D01*
X191495000Y-83751000D02*
X173505000Y-83751000D01*
X191491000Y-83791000D02*
X173509000Y-83791000D01*
X191486000Y-83831000D02*
X173514000Y-83831000D01*
X191481000Y-83871000D02*
X173519000Y-83871000D01*
X191476000Y-83911000D02*
X173524000Y-83911000D01*
X191471000Y-83951000D02*
X173529000Y-83951000D01*
X191466000Y-83991000D02*
X173534000Y-83991000D01*
X191460000Y-84031000D02*
X173540000Y-84031000D01*
X191454000Y-84071000D02*
X173546000Y-84071000D01*
X191448000Y-84111000D02*
X173552000Y-84111000D01*
X191442000Y-84151000D02*
X173558000Y-84151000D01*
X191436000Y-84191000D02*
X173564000Y-84191000D01*
X191429000Y-84231000D02*
X173571000Y-84231000D01*
X191423000Y-84271000D02*
X173577000Y-84271000D01*
X191416000Y-84311000D02*
X173584000Y-84311000D01*
X191409000Y-84351000D02*
X173591000Y-84351000D01*
X191401000Y-84391000D02*
X173599000Y-84391000D01*
X191394000Y-84431000D02*
X173606000Y-84431000D01*
X191386000Y-84471000D02*
X173614000Y-84471000D01*
X191378000Y-84511000D02*
X173622000Y-84511000D01*
X191370000Y-84551000D02*
X173630000Y-84551000D01*
X191362000Y-84591000D02*
X173638000Y-84591000D01*
X191354000Y-84631000D02*
X173646000Y-84631000D01*
X191345000Y-84671000D02*
X173655000Y-84671000D01*
X191337000Y-84711000D02*
X173663000Y-84711000D01*
X191328000Y-84751000D02*
X173672000Y-84751000D01*
X191319000Y-84791000D02*
X173681000Y-84791000D01*
X191309000Y-84831000D02*
X173691000Y-84831000D01*
X191300000Y-84871000D02*
X173700000Y-84871000D01*
X191290000Y-84911000D02*
X173710000Y-84911000D01*
X191280000Y-84951000D02*
X173720000Y-84951000D01*
X191270000Y-84991000D02*
X173730000Y-84991000D01*
X191260000Y-85031000D02*
X173740000Y-85031000D01*
X191249000Y-85071000D02*
X173751000Y-85071000D01*
X191239000Y-85111000D02*
X173761000Y-85111000D01*
X191228000Y-85151000D02*
X183880000Y-85151000D01*
X181120000Y-85151000D02*
X173772000Y-85151000D01*
X191217000Y-85191000D02*
X183880000Y-85191000D01*
X181120000Y-85191000D02*
X173783000Y-85191000D01*
X191206000Y-85231000D02*
X183880000Y-85231000D01*
X181120000Y-85231000D02*
X173794000Y-85231000D01*
X191194000Y-85271000D02*
X183880000Y-85271000D01*
X181120000Y-85271000D02*
X173806000Y-85271000D01*
X191183000Y-85311000D02*
X183880000Y-85311000D01*
X181120000Y-85311000D02*
X173817000Y-85311000D01*
X191171000Y-85351000D02*
X183880000Y-85351000D01*
X181120000Y-85351000D02*
X173829000Y-85351000D01*
X191159000Y-85391000D02*
X183880000Y-85391000D01*
X181120000Y-85391000D02*
X173841000Y-85391000D01*
X191146000Y-85431000D02*
X183880000Y-85431000D01*
X181120000Y-85431000D02*
X173854000Y-85431000D01*
X191134000Y-85471000D02*
X183880000Y-85471000D01*
X181120000Y-85471000D02*
X173866000Y-85471000D01*
X191121000Y-85511000D02*
X183880000Y-85511000D01*
X181120000Y-85511000D02*
X173879000Y-85511000D01*
X191109000Y-85551000D02*
X183880000Y-85551000D01*
X181120000Y-85551000D02*
X173891000Y-85551000D01*
X191095000Y-85591000D02*
X183880000Y-85591000D01*
X181120000Y-85591000D02*
X173905000Y-85591000D01*
X191082000Y-85631000D02*
X183880000Y-85631000D01*
X181120000Y-85631000D02*
X173918000Y-85631000D01*
X191069000Y-85671000D02*
X183880000Y-85671000D01*
X181120000Y-85671000D02*
X173931000Y-85671000D01*
X191055000Y-85711000D02*
X183880000Y-85711000D01*
X181120000Y-85711000D02*
X173945000Y-85711000D01*
X191041000Y-85751000D02*
X183880000Y-85751000D01*
X181120000Y-85751000D02*
X173959000Y-85751000D01*
X191027000Y-85791000D02*
X183880000Y-85791000D01*
X181120000Y-85791000D02*
X173973000Y-85791000D01*
X191013000Y-85831000D02*
X183880000Y-85831000D01*
X181120000Y-85831000D02*
X173987000Y-85831000D01*
X190998000Y-85871000D02*
X183880000Y-85871000D01*
X181120000Y-85871000D02*
X174002000Y-85871000D01*
X190984000Y-85911000D02*
X183880000Y-85911000D01*
X181120000Y-85911000D02*
X174016000Y-85911000D01*
X190969000Y-85951000D02*
X183880000Y-85951000D01*
X181120000Y-85951000D02*
X174031000Y-85951000D01*
X190953000Y-85991000D02*
X183880000Y-85991000D01*
X181120000Y-85991000D02*
X174047000Y-85991000D01*
X190938000Y-86031000D02*
X183880000Y-86031000D01*
X181120000Y-86031000D02*
X174062000Y-86031000D01*
X190923000Y-86071000D02*
X183880000Y-86071000D01*
X181120000Y-86071000D02*
X174077000Y-86071000D01*
X190907000Y-86111000D02*
X183880000Y-86111000D01*
X181120000Y-86111000D02*
X174093000Y-86111000D01*
X190891000Y-86151000D02*
X183880000Y-86151000D01*
X181120000Y-86151000D02*
X174109000Y-86151000D01*
X190874000Y-86191000D02*
X183880000Y-86191000D01*
X181120000Y-86191000D02*
X174126000Y-86191000D01*
X190858000Y-86231000D02*
X183880000Y-86231000D01*
X181120000Y-86231000D02*
X174142000Y-86231000D01*
X190841000Y-86271000D02*
X183880000Y-86271000D01*
X181120000Y-86271000D02*
X174159000Y-86271000D01*
X190824000Y-86311000D02*
X183880000Y-86311000D01*
X181120000Y-86311000D02*
X174176000Y-86311000D01*
X190807000Y-86351000D02*
X183880000Y-86351000D01*
X181120000Y-86351000D02*
X174193000Y-86351000D01*
X190790000Y-86391000D02*
X183880000Y-86391000D01*
X181120000Y-86391000D02*
X174210000Y-86391000D01*
X190772000Y-86431000D02*
X183880000Y-86431000D01*
X181120000Y-86431000D02*
X174228000Y-86431000D01*
X190754000Y-86471000D02*
X183880000Y-86471000D01*
X181120000Y-86471000D02*
X174246000Y-86471000D01*
X190736000Y-86511000D02*
X183880000Y-86511000D01*
X181120000Y-86511000D02*
X174264000Y-86511000D01*
X190718000Y-86551000D02*
X183880000Y-86551000D01*
X181120000Y-86551000D02*
X174282000Y-86551000D01*
X190700000Y-86591000D02*
X183880000Y-86591000D01*
X181120000Y-86591000D02*
X174300000Y-86591000D01*
X190681000Y-86631000D02*
X183880000Y-86631000D01*
X181120000Y-86631000D02*
X174319000Y-86631000D01*
X190662000Y-86671000D02*
X183880000Y-86671000D01*
X181120000Y-86671000D02*
X174338000Y-86671000D01*
X190643000Y-86711000D02*
X183880000Y-86711000D01*
X181120000Y-86711000D02*
X174357000Y-86711000D01*
X190623000Y-86751000D02*
X183880000Y-86751000D01*
X181120000Y-86751000D02*
X174377000Y-86751000D01*
X190603000Y-86791000D02*
X183880000Y-86791000D01*
X181120000Y-86791000D02*
X174397000Y-86791000D01*
X190583000Y-86831000D02*
X183880000Y-86831000D01*
X181120000Y-86831000D02*
X174417000Y-86831000D01*
X190563000Y-86871000D02*
X183880000Y-86871000D01*
X181120000Y-86871000D02*
X174437000Y-86871000D01*
X190543000Y-86911000D02*
X183880000Y-86911000D01*
X181120000Y-86911000D02*
X174457000Y-86911000D01*
X190522000Y-86951000D02*
X183880000Y-86951000D01*
X181120000Y-86951000D02*
X174478000Y-86951000D01*
X190501000Y-86991000D02*
X183880000Y-86991000D01*
X181120000Y-86991000D02*
X174499000Y-86991000D01*
X190480000Y-87031000D02*
X183880000Y-87031000D01*
X181120000Y-87031000D02*
X174520000Y-87031000D01*
X190458000Y-87071000D02*
X183880000Y-87071000D01*
X181120000Y-87071000D02*
X174542000Y-87071000D01*
X190437000Y-87111000D02*
X183880000Y-87111000D01*
X181120000Y-87111000D02*
X174563000Y-87111000D01*
X190415000Y-87151000D02*
X183880000Y-87151000D01*
X181120000Y-87151000D02*
X174585000Y-87151000D01*
X190392000Y-87191000D02*
X183880000Y-87191000D01*
X181120000Y-87191000D02*
X174608000Y-87191000D01*
X190370000Y-87231000D02*
X183880000Y-87231000D01*
X181120000Y-87231000D02*
X174630000Y-87231000D01*
X190347000Y-87271000D02*
X183880000Y-87271000D01*
X181120000Y-87271000D02*
X174653000Y-87271000D01*
X190324000Y-87311000D02*
X183880000Y-87311000D01*
X181120000Y-87311000D02*
X174676000Y-87311000D01*
X190301000Y-87351000D02*
X183880000Y-87351000D01*
X181120000Y-87351000D02*
X174699000Y-87351000D01*
X190277000Y-87391000D02*
X183880000Y-87391000D01*
X181120000Y-87391000D02*
X174723000Y-87391000D01*
X190253000Y-87431000D02*
X183880000Y-87431000D01*
X181120000Y-87431000D02*
X174747000Y-87431000D01*
X190229000Y-87471000D02*
X183880000Y-87471000D01*
X181120000Y-87471000D02*
X174771000Y-87471000D01*
X190205000Y-87511000D02*
X183880000Y-87511000D01*
X181120000Y-87511000D02*
X174795000Y-87511000D01*
X190180000Y-87551000D02*
X183880000Y-87551000D01*
X181120000Y-87551000D02*
X174820000Y-87551000D01*
X190155000Y-87591000D02*
X183880000Y-87591000D01*
X181120000Y-87591000D02*
X174845000Y-87591000D01*
X190130000Y-87631000D02*
X183880000Y-87631000D01*
X181120000Y-87631000D02*
X174870000Y-87631000D01*
X190104000Y-87671000D02*
X183880000Y-87671000D01*
X181120000Y-87671000D02*
X174896000Y-87671000D01*
X190078000Y-87711000D02*
X183880000Y-87711000D01*
X181120000Y-87711000D02*
X174922000Y-87711000D01*
X190052000Y-87751000D02*
X183880000Y-87751000D01*
X181120000Y-87751000D02*
X174948000Y-87751000D01*
X190025000Y-87791000D02*
X183880000Y-87791000D01*
X181120000Y-87791000D02*
X174975000Y-87791000D01*
X189999000Y-87831000D02*
X183880000Y-87831000D01*
X181120000Y-87831000D02*
X175001000Y-87831000D01*
X189971000Y-87871000D02*
X183880000Y-87871000D01*
X181120000Y-87871000D02*
X175029000Y-87871000D01*
X189944000Y-87911000D02*
X175056000Y-87911000D01*
X189916000Y-87951000D02*
X175084000Y-87951000D01*
X189888000Y-87991000D02*
X175112000Y-87991000D01*
X189860000Y-88031000D02*
X175140000Y-88031000D01*
X189831000Y-88071000D02*
X175169000Y-88071000D01*
X189802000Y-88111000D02*
X175198000Y-88111000D01*
X189773000Y-88151000D02*
X175227000Y-88151000D01*
X189743000Y-88191000D02*
X175257000Y-88191000D01*
X189713000Y-88231000D02*
X175287000Y-88231000D01*
X189683000Y-88271000D02*
X175317000Y-88271000D01*
X189652000Y-88311000D02*
X175348000Y-88311000D01*
X189621000Y-88351000D02*
X175379000Y-88351000D01*
X189589000Y-88391000D02*
X175411000Y-88391000D01*
X189557000Y-88431000D02*
X175443000Y-88431000D01*
X189525000Y-88471000D02*
X175475000Y-88471000D01*
X189493000Y-88511000D02*
X175507000Y-88511000D01*
X189460000Y-88551000D02*
X175540000Y-88551000D01*
X189426000Y-88591000D02*
X175574000Y-88591000D01*
X189393000Y-88631000D02*
X175607000Y-88631000D01*
X189358000Y-88671000D02*
X175642000Y-88671000D01*
X189324000Y-88711000D02*
X175676000Y-88711000D01*
X189289000Y-88751000D02*
X175711000Y-88751000D01*
X189254000Y-88791000D02*
X175746000Y-88791000D01*
X189218000Y-88831000D02*
X175782000Y-88831000D01*
X189182000Y-88871000D02*
X175818000Y-88871000D01*
X189145000Y-88911000D02*
X175855000Y-88911000D01*
X189108000Y-88951000D02*
X175892000Y-88951000D01*
X189070000Y-88991000D02*
X175930000Y-88991000D01*
X189032000Y-89031000D02*
X175968000Y-89031000D01*
X188994000Y-89071000D02*
X176006000Y-89071000D01*
X188955000Y-89111000D02*
X176045000Y-89111000D01*
X188916000Y-89151000D02*
X176084000Y-89151000D01*
X188876000Y-89191000D02*
X176124000Y-89191000D01*
X188835000Y-89231000D02*
X176165000Y-89231000D01*
X188794000Y-89271000D02*
X176206000Y-89271000D01*
X188753000Y-89311000D02*
X176247000Y-89311000D01*
X188711000Y-89351000D02*
X176289000Y-89351000D01*
X188668000Y-89391000D02*
X176332000Y-89391000D01*
X188625000Y-89431000D02*
X176375000Y-89431000D01*
X188582000Y-89471000D02*
X176418000Y-89471000D01*
X188538000Y-89511000D02*
X176462000Y-89511000D01*
X188493000Y-89551000D02*
X176507000Y-89551000D01*
X188447000Y-89591000D02*
X176553000Y-89591000D01*
X188401000Y-89631000D02*
X176599000Y-89631000D01*
X188355000Y-89671000D02*
X176645000Y-89671000D01*
X188307000Y-89711000D02*
X176693000Y-89711000D01*
X188259000Y-89751000D02*
X176741000Y-89751000D01*
X188211000Y-89791000D02*
X176789000Y-89791000D01*
X188162000Y-89831000D02*
X176838000Y-89831000D01*
X188111000Y-89871000D02*
X176889000Y-89871000D01*
X188061000Y-89911000D02*
X176939000Y-89911000D01*
X188009000Y-89951000D02*
X176991000Y-89951000D01*
X187957000Y-89991000D02*
X177043000Y-89991000D01*
X187904000Y-90031000D02*
X177096000Y-90031000D01*
X187850000Y-90071000D02*
X177150000Y-90071000D01*
X187795000Y-90111000D02*
X177205000Y-90111000D01*
X187740000Y-90151000D02*
X177260000Y-90151000D01*
X187683000Y-90191000D02*
X177317000Y-90191000D01*
X187626000Y-90231000D02*
X177374000Y-90231000D01*
X187567000Y-90271000D02*
X177433000Y-90271000D01*
X187508000Y-90311000D02*
X177492000Y-90311000D01*
X187447000Y-90351000D02*
X177553000Y-90351000D01*
X187386000Y-90391000D02*
X177614000Y-90391000D01*
X187323000Y-90431000D02*
X177677000Y-90431000D01*
X187259000Y-90471000D02*
X177741000Y-90471000D01*
X187194000Y-90511000D02*
X177806000Y-90511000D01*
X187128000Y-90551000D02*
X177872000Y-90551000D01*
X187061000Y-90591000D02*
X177939000Y-90591000D01*
X186992000Y-90631000D02*
X178008000Y-90631000D01*
X186922000Y-90671000D02*
X178078000Y-90671000D01*
X186850000Y-90711000D02*
X178150000Y-90711000D01*
X186777000Y-90751000D02*
X178223000Y-90751000D01*
X186702000Y-90791000D02*
X178298000Y-90791000D01*
X186625000Y-90831000D02*
X178375000Y-90831000D01*
X186546000Y-90871000D02*
X178454000Y-90871000D01*
X186466000Y-90911000D02*
X178534000Y-90911000D01*
X186383000Y-90950000D02*
X178617000Y-90950000D01*
X186299000Y-90990000D02*
X178701000Y-90990000D01*
X186211000Y-91030000D02*
X178789000Y-91030000D01*
X186122000Y-91070000D02*
X178878000Y-91070000D01*
X186030000Y-91110000D02*
X178970000Y-91110000D01*
X185934000Y-91150000D02*
X179066000Y-91150000D01*
X185836000Y-91190000D02*
X179164000Y-91190000D01*
X185734000Y-91230000D02*
X179266000Y-91230000D01*
X185629000Y-91270000D02*
X179371000Y-91270000D01*
X185519000Y-91310000D02*
X179481000Y-91310000D01*
X185405000Y-91350000D02*
X179595000Y-91350000D01*
X185285000Y-91390000D02*
X179715000Y-91390000D01*
X185160000Y-91430000D02*
X179840000Y-91430000D01*
X185028000Y-91470000D02*
X179972000Y-91470000D01*
X184888000Y-91510000D02*
X180112000Y-91510000D01*
X184738000Y-91550000D02*
X180262000Y-91550000D01*
X184578000Y-91590000D02*
X180422000Y-91590000D01*
X184403000Y-91630000D02*
X180597000Y-91630000D01*
X184210000Y-91670000D02*
X180790000Y-91670000D01*
X183992000Y-91710000D02*
X181008000Y-91710000D01*
X183736000Y-91750000D02*
X181264000Y-91750000D01*
X183413000Y-91790000D02*
X181587000Y-91790000D01*
X182887000Y-91830000D02*
X182113000Y-91830000D01*
X182500000Y-75800000D02*
X182500000Y-77600000D01*
X183400000Y-76700000D02*
X181600000Y-76700000D01*
X191590000Y-82750000D02*
G75*
G03X191590000Y-82750000I-9090000J0D01*
G01*
X226360000Y-132790000D02*
X223640000Y-132790000D01*
X223640000Y-132790000D02*
X223640000Y-136710000D01*
X223640000Y-136710000D02*
X226360000Y-136710000D01*
X226360000Y-136710000D02*
X226360000Y-132790000D01*
X225000000Y-129480000D02*
X225000000Y-132790000D01*
X225000000Y-140020000D02*
X225000000Y-136710000D01*
X182690000Y-113560000D02*
X189310000Y-113560000D01*
X189310000Y-113560000D02*
X189310000Y-96440000D01*
X189310000Y-96440000D02*
X182690000Y-96440000D01*
X182690000Y-96440000D02*
X182690000Y-113560000D01*
X186000000Y-114020000D02*
X186000000Y-113560000D01*
X186000000Y-95980000D02*
X186000000Y-96440000D01*
X181860000Y-124290000D02*
X179140000Y-124290000D01*
X179140000Y-124290000D02*
X179140000Y-128210000D01*
X179140000Y-128210000D02*
X181860000Y-128210000D01*
X181860000Y-128210000D02*
X181860000Y-124290000D01*
X180500000Y-120980000D02*
X180500000Y-124290000D01*
X180500000Y-131520000D02*
X180500000Y-128210000D01*
X210560000Y-118940000D02*
X210560000Y-126560000D01*
X205440000Y-118940000D02*
X205440000Y-126560000D01*
X210560000Y-118940000D02*
X209195000Y-118940000D01*
X206805000Y-118940000D02*
X205440000Y-118940000D01*
X210560000Y-126560000D02*
X209195000Y-126560000D01*
X206805000Y-126560000D02*
X205440000Y-126560000D01*
X211690000Y-133560000D02*
X218310000Y-133560000D01*
X218310000Y-133560000D02*
X218310000Y-116440000D01*
X218310000Y-116440000D02*
X211690000Y-116440000D01*
X211690000Y-116440000D02*
X211690000Y-133560000D01*
X215000000Y-134020000D02*
X215000000Y-133560000D01*
X215000000Y-115980000D02*
X215000000Y-116440000D01*
X203560000Y-70940000D02*
X203560000Y-78560000D01*
X198440000Y-70940000D02*
X198440000Y-78560000D01*
X203560000Y-70940000D02*
X202195000Y-70940000D01*
X199805000Y-70940000D02*
X198440000Y-70940000D01*
X203560000Y-78560000D02*
X202195000Y-78560000D01*
X199805000Y-78560000D02*
X198440000Y-78560000D01*
X210560000Y-130940000D02*
X210560000Y-138560000D01*
X205440000Y-130940000D02*
X205440000Y-138560000D01*
X210560000Y-130940000D02*
X209195000Y-130940000D01*
X206805000Y-130940000D02*
X205440000Y-130940000D01*
X210560000Y-138560000D02*
X209195000Y-138560000D01*
X206805000Y-138560000D02*
X205440000Y-138560000D01*
X218690000Y-88130000D02*
X221310000Y-88130000D01*
X221310000Y-88130000D02*
X221310000Y-81710000D01*
X221310000Y-81710000D02*
X218690000Y-81710000D01*
X218690000Y-81710000D02*
X218690000Y-88130000D01*
X220000000Y-89020000D02*
X220000000Y-88130000D01*
X220000000Y-80820000D02*
X220000000Y-81710000D01*
X185810000Y-123370000D02*
X183190000Y-123370000D01*
X183190000Y-123370000D02*
X183190000Y-129790000D01*
X183190000Y-129790000D02*
X185810000Y-129790000D01*
X185810000Y-129790000D02*
X185810000Y-123370000D01*
X184500000Y-122480000D02*
X184500000Y-123370000D01*
X184500000Y-130680000D02*
X184500000Y-129790000D01*
X191810000Y-118370000D02*
X189190000Y-118370000D01*
X189190000Y-118370000D02*
X189190000Y-124790000D01*
X189190000Y-124790000D02*
X191810000Y-124790000D01*
X191810000Y-124790000D02*
X191810000Y-118370000D01*
X190500000Y-117480000D02*
X190500000Y-118370000D01*
X190500000Y-125680000D02*
X190500000Y-124790000D01*
X222310000Y-132370000D02*
X219690000Y-132370000D01*
X219690000Y-132370000D02*
X219690000Y-138790000D01*
X219690000Y-138790000D02*
X222310000Y-138790000D01*
X222310000Y-138790000D02*
X222310000Y-132370000D01*
X221000000Y-131480000D02*
X221000000Y-132370000D01*
X221000000Y-139680000D02*
X221000000Y-138790000D01*
X217870000Y-77460000D02*
G75*
G03X217870000Y-77460000I-3870000J0D01*
G01*
X198910000Y-131500000D02*
G75*
G03X198910000Y-131500000I-3870000J0D01*
G01*
D14*
X228750000Y-76000000D02*
G75*
G03X228750000Y-76000000I-1750000J0D01*
G01*
X181250000Y-115500000D02*
G75*
G03X181250000Y-115500000I-1750000J0D01*
G01*
X230750000Y-118000000D02*
G75*
G03X230750000Y-118000000I-1750000J0D01*
G01*
X207749647Y-66149845D02*
G75*
G03X206250000Y-66150000I-749647J-1700155D01*
G01*
X212829647Y-66149845D02*
G75*
G03X211330000Y-66150000I-749647J-1700155D01*
G01*
X204380000Y-59570000D02*
X204380000Y-66980000D01*
X204380000Y-66980000D02*
X214700000Y-66980000D01*
X214700000Y-66980000D02*
X214700000Y-59570000D01*
X214700000Y-59570000D02*
X204380000Y-59570000D01*
X206250000Y-66150000D02*
X205500000Y-66150000D01*
X205500000Y-66150000D02*
X205500000Y-61850000D01*
X205500000Y-61850000D02*
X206250000Y-61850000D01*
X206250000Y-61850000D02*
X206250000Y-61500000D01*
X206250000Y-61500000D02*
X205750000Y-61500000D01*
X205750000Y-61500000D02*
X205500000Y-60500000D01*
X205500000Y-60500000D02*
X208500000Y-60500000D01*
X208500000Y-60500000D02*
X208250000Y-61500000D01*
X208250000Y-61500000D02*
X207750000Y-61500000D01*
X207750000Y-61500000D02*
X207750000Y-61850000D01*
X207750000Y-61850000D02*
X207750000Y-61850000D01*
X207750000Y-61850000D02*
X208500000Y-61850000D01*
X208500000Y-61850000D02*
X208500000Y-66150000D01*
X208500000Y-66150000D02*
X207750000Y-66150000D01*
X211330000Y-66150000D02*
X210580000Y-66150000D01*
X210580000Y-66150000D02*
X210580000Y-61850000D01*
X210580000Y-61850000D02*
X211330000Y-61850000D01*
X211330000Y-61850000D02*
X211330000Y-61500000D01*
X211330000Y-61500000D02*
X210830000Y-61500000D01*
X210830000Y-61500000D02*
X210580000Y-60500000D01*
X210580000Y-60500000D02*
X213580000Y-60500000D01*
X213580000Y-60500000D02*
X213330000Y-61500000D01*
X213330000Y-61500000D02*
X212830000Y-61500000D01*
X212830000Y-61500000D02*
X212830000Y-61850000D01*
X212830000Y-61850000D02*
X212830000Y-61850000D01*
X212830000Y-61850000D02*
X213580000Y-61850000D01*
X213580000Y-61850000D02*
X213580000Y-66150000D01*
X213580000Y-66150000D02*
X212830000Y-66150000D01*
X207000000Y-59150000D02*
X207300000Y-58550000D01*
X207300000Y-58550000D02*
X206700000Y-58550000D01*
X206700000Y-58550000D02*
X207000000Y-59150000D01*
X224350155Y-104249647D02*
G75*
G03X224350000Y-102750000I-1700155J749647D01*
G01*
X224350155Y-109329647D02*
G75*
G03X224350000Y-107830000I-1700155J749647D01*
G01*
X230930000Y-100880000D02*
X223520000Y-100880000D01*
X223520000Y-100880000D02*
X223520000Y-111200000D01*
X223520000Y-111200000D02*
X230930000Y-111200000D01*
X230930000Y-111200000D02*
X230930000Y-100880000D01*
X224350000Y-102750000D02*
X224350000Y-102000000D01*
X224350000Y-102000000D02*
X228650000Y-102000000D01*
X228650000Y-102000000D02*
X228650000Y-102750000D01*
X228650000Y-102750000D02*
X229000000Y-102750000D01*
X229000000Y-102750000D02*
X229000000Y-102250000D01*
X229000000Y-102250000D02*
X230000000Y-102000000D01*
X230000000Y-102000000D02*
X230000000Y-105000000D01*
X230000000Y-105000000D02*
X229000000Y-104750000D01*
X229000000Y-104750000D02*
X229000000Y-104250000D01*
X229000000Y-104250000D02*
X228650000Y-104250000D01*
X228650000Y-104250000D02*
X228650000Y-104250000D01*
X228650000Y-104250000D02*
X228650000Y-105000000D01*
X228650000Y-105000000D02*
X224350000Y-105000000D01*
X224350000Y-105000000D02*
X224350000Y-104250000D01*
X224350000Y-107830000D02*
X224350000Y-107080000D01*
X224350000Y-107080000D02*
X228650000Y-107080000D01*
X228650000Y-107080000D02*
X228650000Y-107830000D01*
X228650000Y-107830000D02*
X229000000Y-107830000D01*
X229000000Y-107830000D02*
X229000000Y-107330000D01*
X229000000Y-107330000D02*
X230000000Y-107080000D01*
X230000000Y-107080000D02*
X230000000Y-110080000D01*
X230000000Y-110080000D02*
X229000000Y-109830000D01*
X229000000Y-109830000D02*
X229000000Y-109330000D01*
X229000000Y-109330000D02*
X228650000Y-109330000D01*
X228650000Y-109330000D02*
X228650000Y-109330000D01*
X228650000Y-109330000D02*
X228650000Y-110080000D01*
X228650000Y-110080000D02*
X224350000Y-110080000D01*
X224350000Y-110080000D02*
X224350000Y-109330000D01*
X231350000Y-103500000D02*
X231950000Y-103800000D01*
X231950000Y-103800000D02*
X231950000Y-103200000D01*
X231950000Y-103200000D02*
X231350000Y-103500000D01*
X224350155Y-85749647D02*
G75*
G03X224350000Y-84250000I-1700155J749647D01*
G01*
X224350155Y-90829647D02*
G75*
G03X224350000Y-89330000I-1700155J749647D01*
G01*
X230930000Y-82380000D02*
X223520000Y-82380000D01*
X223520000Y-82380000D02*
X223520000Y-92700000D01*
X223520000Y-92700000D02*
X230930000Y-92700000D01*
X230930000Y-92700000D02*
X230930000Y-82380000D01*
X224350000Y-84250000D02*
X224350000Y-83500000D01*
X224350000Y-83500000D02*
X228650000Y-83500000D01*
X228650000Y-83500000D02*
X228650000Y-84250000D01*
X228650000Y-84250000D02*
X229000000Y-84250000D01*
X229000000Y-84250000D02*
X229000000Y-83750000D01*
X229000000Y-83750000D02*
X230000000Y-83500000D01*
X230000000Y-83500000D02*
X230000000Y-86500000D01*
X230000000Y-86500000D02*
X229000000Y-86250000D01*
X229000000Y-86250000D02*
X229000000Y-85750000D01*
X229000000Y-85750000D02*
X228650000Y-85750000D01*
X228650000Y-85750000D02*
X228650000Y-85750000D01*
X228650000Y-85750000D02*
X228650000Y-86500000D01*
X228650000Y-86500000D02*
X224350000Y-86500000D01*
X224350000Y-86500000D02*
X224350000Y-85750000D01*
X224350000Y-89330000D02*
X224350000Y-88580000D01*
X224350000Y-88580000D02*
X228650000Y-88580000D01*
X228650000Y-88580000D02*
X228650000Y-89330000D01*
X228650000Y-89330000D02*
X229000000Y-89330000D01*
X229000000Y-89330000D02*
X229000000Y-88830000D01*
X229000000Y-88830000D02*
X230000000Y-88580000D01*
X230000000Y-88580000D02*
X230000000Y-91580000D01*
X230000000Y-91580000D02*
X229000000Y-91330000D01*
X229000000Y-91330000D02*
X229000000Y-90830000D01*
X229000000Y-90830000D02*
X228650000Y-90830000D01*
X228650000Y-90830000D02*
X228650000Y-90830000D01*
X228650000Y-90830000D02*
X228650000Y-91580000D01*
X228650000Y-91580000D02*
X224350000Y-91580000D01*
X224350000Y-91580000D02*
X224350000Y-90830000D01*
X231350000Y-85000000D02*
X231950000Y-85300000D01*
X231950000Y-85300000D02*
X231950000Y-84700000D01*
X231950000Y-84700000D02*
X231350000Y-85000000D01*
X180649845Y-107750353D02*
G75*
G03X180650000Y-109250000I1700155J-749647D01*
G01*
X180649845Y-102670353D02*
G75*
G03X180650000Y-104170000I1700155J-749647D01*
G01*
X174070000Y-111120000D02*
X181480000Y-111120000D01*
X181480000Y-111120000D02*
X181480000Y-100800000D01*
X181480000Y-100800000D02*
X174070000Y-100800000D01*
X174070000Y-100800000D02*
X174070000Y-111120000D01*
X180650000Y-109250000D02*
X180650000Y-110000000D01*
X180650000Y-110000000D02*
X176350000Y-110000000D01*
X176350000Y-110000000D02*
X176350000Y-109250000D01*
X176350000Y-109250000D02*
X176000000Y-109250000D01*
X176000000Y-109250000D02*
X176000000Y-109750000D01*
X176000000Y-109750000D02*
X175000000Y-110000000D01*
X175000000Y-110000000D02*
X175000000Y-107000000D01*
X175000000Y-107000000D02*
X176000000Y-107250000D01*
X176000000Y-107250000D02*
X176000000Y-107750000D01*
X176000000Y-107750000D02*
X176350000Y-107750000D01*
X176350000Y-107750000D02*
X176350000Y-107750000D01*
X176350000Y-107750000D02*
X176350000Y-107000000D01*
X176350000Y-107000000D02*
X180650000Y-107000000D01*
X180650000Y-107000000D02*
X180650000Y-107750000D01*
X180650000Y-104170000D02*
X180650000Y-104920000D01*
X180650000Y-104920000D02*
X176350000Y-104920000D01*
X176350000Y-104920000D02*
X176350000Y-104170000D01*
X176350000Y-104170000D02*
X176000000Y-104170000D01*
X176000000Y-104170000D02*
X176000000Y-104670000D01*
X176000000Y-104670000D02*
X175000000Y-104920000D01*
X175000000Y-104920000D02*
X175000000Y-101920000D01*
X175000000Y-101920000D02*
X176000000Y-102170000D01*
X176000000Y-102170000D02*
X176000000Y-102670000D01*
X176000000Y-102670000D02*
X176350000Y-102670000D01*
X176350000Y-102670000D02*
X176350000Y-102670000D01*
X176350000Y-102670000D02*
X176350000Y-101920000D01*
X176350000Y-101920000D02*
X180650000Y-101920000D01*
X180650000Y-101920000D02*
X180650000Y-102670000D01*
X173650000Y-108500000D02*
X173050000Y-108200000D01*
X173050000Y-108200000D02*
X173050000Y-108800000D01*
X173050000Y-108800000D02*
X173650000Y-108500000D01*
X187749647Y-66149845D02*
G75*
G03X186250000Y-66150000I-749647J-1700155D01*
G01*
X192829647Y-66149845D02*
G75*
G03X191330000Y-66150000I-749647J-1700155D01*
G01*
X184380000Y-59570000D02*
X184380000Y-66980000D01*
X184380000Y-66980000D02*
X194700000Y-66980000D01*
X194700000Y-66980000D02*
X194700000Y-59570000D01*
X194700000Y-59570000D02*
X184380000Y-59570000D01*
X186250000Y-66150000D02*
X185500000Y-66150000D01*
X185500000Y-66150000D02*
X185500000Y-61850000D01*
X185500000Y-61850000D02*
X186250000Y-61850000D01*
X186250000Y-61850000D02*
X186250000Y-61500000D01*
X186250000Y-61500000D02*
X185750000Y-61500000D01*
X185750000Y-61500000D02*
X185500000Y-60500000D01*
X185500000Y-60500000D02*
X188500000Y-60500000D01*
X188500000Y-60500000D02*
X188250000Y-61500000D01*
X188250000Y-61500000D02*
X187750000Y-61500000D01*
X187750000Y-61500000D02*
X187750000Y-61850000D01*
X187750000Y-61850000D02*
X187750000Y-61850000D01*
X187750000Y-61850000D02*
X188500000Y-61850000D01*
X188500000Y-61850000D02*
X188500000Y-66150000D01*
X188500000Y-66150000D02*
X187750000Y-66150000D01*
X191330000Y-66150000D02*
X190580000Y-66150000D01*
X190580000Y-66150000D02*
X190580000Y-61850000D01*
X190580000Y-61850000D02*
X191330000Y-61850000D01*
X191330000Y-61850000D02*
X191330000Y-61500000D01*
X191330000Y-61500000D02*
X190830000Y-61500000D01*
X190830000Y-61500000D02*
X190580000Y-60500000D01*
X190580000Y-60500000D02*
X193580000Y-60500000D01*
X193580000Y-60500000D02*
X193330000Y-61500000D01*
X193330000Y-61500000D02*
X192830000Y-61500000D01*
X192830000Y-61500000D02*
X192830000Y-61850000D01*
X192830000Y-61850000D02*
X192830000Y-61850000D01*
X192830000Y-61850000D02*
X193580000Y-61850000D01*
X193580000Y-61850000D02*
X193580000Y-66150000D01*
X193580000Y-66150000D02*
X192830000Y-66150000D01*
X187000000Y-59150000D02*
X187300000Y-58550000D01*
X187300000Y-58550000D02*
X186700000Y-58550000D01*
X186700000Y-58550000D02*
X187000000Y-59150000D01*
X219750353Y-144350155D02*
G75*
G03X221250000Y-144350000I749647J1700155D01*
G01*
X214670353Y-144350155D02*
G75*
G03X216170000Y-144350000I749647J1700155D01*
G01*
X209590353Y-144350155D02*
G75*
G03X211090000Y-144350000I749647J1700155D01*
G01*
X204510353Y-144350155D02*
G75*
G03X206010000Y-144350000I749647J1700155D01*
G01*
X199430353Y-144350155D02*
G75*
G03X200930000Y-144350000I749647J1700155D01*
G01*
X194350353Y-144350155D02*
G75*
G03X195850000Y-144350000I749647J1700155D01*
G01*
X189270353Y-144350155D02*
G75*
G03X190770000Y-144350000I749647J1700155D01*
G01*
X184190353Y-144350155D02*
G75*
G03X185690000Y-144350000I749647J1700155D01*
G01*
X223120000Y-150930000D02*
X223120000Y-143520000D01*
X223120000Y-143520000D02*
X182320000Y-143520000D01*
X182320000Y-143520000D02*
X182320000Y-150930000D01*
X182320000Y-150930000D02*
X223120000Y-150930000D01*
X221250000Y-144350000D02*
X222000000Y-144350000D01*
X222000000Y-144350000D02*
X222000000Y-148650000D01*
X222000000Y-148650000D02*
X221250000Y-148650000D01*
X221250000Y-148650000D02*
X221250000Y-149000000D01*
X221250000Y-149000000D02*
X221750000Y-149000000D01*
X221750000Y-149000000D02*
X222000000Y-150000000D01*
X222000000Y-150000000D02*
X219000000Y-150000000D01*
X219000000Y-150000000D02*
X219250000Y-149000000D01*
X219250000Y-149000000D02*
X219750000Y-149000000D01*
X219750000Y-149000000D02*
X219750000Y-148650000D01*
X219750000Y-148650000D02*
X219750000Y-148650000D01*
X219750000Y-148650000D02*
X219000000Y-148650000D01*
X219000000Y-148650000D02*
X219000000Y-144350000D01*
X219000000Y-144350000D02*
X219750000Y-144350000D01*
X216170000Y-144350000D02*
X216920000Y-144350000D01*
X216920000Y-144350000D02*
X216920000Y-148650000D01*
X216920000Y-148650000D02*
X216170000Y-148650000D01*
X216170000Y-148650000D02*
X216170000Y-149000000D01*
X216170000Y-149000000D02*
X216670000Y-149000000D01*
X216670000Y-149000000D02*
X216920000Y-150000000D01*
X216920000Y-150000000D02*
X213920000Y-150000000D01*
X213920000Y-150000000D02*
X214170000Y-149000000D01*
X214170000Y-149000000D02*
X214670000Y-149000000D01*
X214670000Y-149000000D02*
X214670000Y-148650000D01*
X214670000Y-148650000D02*
X214670000Y-148650000D01*
X214670000Y-148650000D02*
X213920000Y-148650000D01*
X213920000Y-148650000D02*
X213920000Y-144350000D01*
X213920000Y-144350000D02*
X214670000Y-144350000D01*
X211090000Y-144350000D02*
X211840000Y-144350000D01*
X211840000Y-144350000D02*
X211840000Y-148650000D01*
X211840000Y-148650000D02*
X211090000Y-148650000D01*
X211090000Y-148650000D02*
X211090000Y-149000000D01*
X211090000Y-149000000D02*
X211590000Y-149000000D01*
X211590000Y-149000000D02*
X211840000Y-150000000D01*
X211840000Y-150000000D02*
X208840000Y-150000000D01*
X208840000Y-150000000D02*
X209090000Y-149000000D01*
X209090000Y-149000000D02*
X209590000Y-149000000D01*
X209590000Y-149000000D02*
X209590000Y-148650000D01*
X209590000Y-148650000D02*
X209590000Y-148650000D01*
X209590000Y-148650000D02*
X208840000Y-148650000D01*
X208840000Y-148650000D02*
X208840000Y-144350000D01*
X208840000Y-144350000D02*
X209590000Y-144350000D01*
X206010000Y-144350000D02*
X206760000Y-144350000D01*
X206760000Y-144350000D02*
X206760000Y-148650000D01*
X206760000Y-148650000D02*
X206010000Y-148650000D01*
X206010000Y-148650000D02*
X206010000Y-149000000D01*
X206010000Y-149000000D02*
X206510000Y-149000000D01*
X206510000Y-149000000D02*
X206760000Y-150000000D01*
X206760000Y-150000000D02*
X203760000Y-150000000D01*
X203760000Y-150000000D02*
X204010000Y-149000000D01*
X204010000Y-149000000D02*
X204510000Y-149000000D01*
X204510000Y-149000000D02*
X204510000Y-148650000D01*
X204510000Y-148650000D02*
X204510000Y-148650000D01*
X204510000Y-148650000D02*
X203760000Y-148650000D01*
X203760000Y-148650000D02*
X203760000Y-144350000D01*
X203760000Y-144350000D02*
X204510000Y-144350000D01*
X200930000Y-144350000D02*
X201680000Y-144350000D01*
X201680000Y-144350000D02*
X201680000Y-148650000D01*
X201680000Y-148650000D02*
X200930000Y-148650000D01*
X200930000Y-148650000D02*
X200930000Y-149000000D01*
X200930000Y-149000000D02*
X201430000Y-149000000D01*
X201430000Y-149000000D02*
X201680000Y-150000000D01*
X201680000Y-150000000D02*
X198680000Y-150000000D01*
X198680000Y-150000000D02*
X198930000Y-149000000D01*
X198930000Y-149000000D02*
X199430000Y-149000000D01*
X199430000Y-149000000D02*
X199430000Y-148650000D01*
X199430000Y-148650000D02*
X199430000Y-148650000D01*
X199430000Y-148650000D02*
X198680000Y-148650000D01*
X198680000Y-148650000D02*
X198680000Y-144350000D01*
X198680000Y-144350000D02*
X199430000Y-144350000D01*
X195850000Y-144350000D02*
X196600000Y-144350000D01*
X196600000Y-144350000D02*
X196600000Y-148650000D01*
X196600000Y-148650000D02*
X195850000Y-148650000D01*
X195850000Y-148650000D02*
X195850000Y-149000000D01*
X195850000Y-149000000D02*
X196350000Y-149000000D01*
X196350000Y-149000000D02*
X196600000Y-150000000D01*
X196600000Y-150000000D02*
X193600000Y-150000000D01*
X193600000Y-150000000D02*
X193850000Y-149000000D01*
X193850000Y-149000000D02*
X194350000Y-149000000D01*
X194350000Y-149000000D02*
X194350000Y-148650000D01*
X194350000Y-148650000D02*
X194350000Y-148650000D01*
X194350000Y-148650000D02*
X193600000Y-148650000D01*
X193600000Y-148650000D02*
X193600000Y-144350000D01*
X193600000Y-144350000D02*
X194350000Y-144350000D01*
X190770000Y-144350000D02*
X191520000Y-144350000D01*
X191520000Y-144350000D02*
X191520000Y-148650000D01*
X191520000Y-148650000D02*
X190770000Y-148650000D01*
X190770000Y-148650000D02*
X190770000Y-149000000D01*
X190770000Y-149000000D02*
X191270000Y-149000000D01*
X191270000Y-149000000D02*
X191520000Y-150000000D01*
X191520000Y-150000000D02*
X188520000Y-150000000D01*
X188520000Y-150000000D02*
X188770000Y-149000000D01*
X188770000Y-149000000D02*
X189270000Y-149000000D01*
X189270000Y-149000000D02*
X189270000Y-148650000D01*
X189270000Y-148650000D02*
X189270000Y-148650000D01*
X189270000Y-148650000D02*
X188520000Y-148650000D01*
X188520000Y-148650000D02*
X188520000Y-144350000D01*
X188520000Y-144350000D02*
X189270000Y-144350000D01*
X185690000Y-144350000D02*
X186440000Y-144350000D01*
X186440000Y-144350000D02*
X186440000Y-148650000D01*
X186440000Y-148650000D02*
X185690000Y-148650000D01*
X185690000Y-148650000D02*
X185690000Y-149000000D01*
X185690000Y-149000000D02*
X186190000Y-149000000D01*
X186190000Y-149000000D02*
X186440000Y-150000000D01*
X186440000Y-150000000D02*
X183440000Y-150000000D01*
X183440000Y-150000000D02*
X183690000Y-149000000D01*
X183690000Y-149000000D02*
X184190000Y-149000000D01*
X184190000Y-149000000D02*
X184190000Y-148650000D01*
X184190000Y-148650000D02*
X184190000Y-148650000D01*
X184190000Y-148650000D02*
X183440000Y-148650000D01*
X183440000Y-148650000D02*
X183440000Y-144350000D01*
X183440000Y-144350000D02*
X184190000Y-144350000D01*
X220500000Y-151350000D02*
X220200000Y-151950000D01*
X220200000Y-151950000D02*
X220800000Y-151950000D01*
X220800000Y-151950000D02*
X220500000Y-151350000D01*
D13*
X212518600Y-84103137D02*
G75*
G03X212520000Y-88897436I981400J-2396863D01*
G01*
X214481400Y-84103137D02*
G75*
G02X214480000Y-88897436I-981400J-2396863D01*
G01*
X214481400Y-84103137D02*
G75*
G03X212520000Y-84102564I-981400J-2396863D01*
G01*
X210950000Y-86500000D02*
X216050000Y-86500000D01*
X210950000Y-86460000D02*
X212520000Y-86460000D01*
X214480000Y-86460000D02*
X216050000Y-86460000D01*
X210951000Y-86420000D02*
X212520000Y-86420000D01*
X214480000Y-86420000D02*
X216049000Y-86420000D01*
X210952000Y-86380000D02*
X212520000Y-86380000D01*
X214480000Y-86380000D02*
X216048000Y-86380000D01*
X210954000Y-86340000D02*
X212520000Y-86340000D01*
X214480000Y-86340000D02*
X216046000Y-86340000D01*
X210957000Y-86300000D02*
X212520000Y-86300000D01*
X214480000Y-86300000D02*
X216043000Y-86300000D01*
X210961000Y-86260000D02*
X212520000Y-86260000D01*
X214480000Y-86260000D02*
X216039000Y-86260000D01*
X210965000Y-86220000D02*
X212520000Y-86220000D01*
X214480000Y-86220000D02*
X216035000Y-86220000D01*
X210969000Y-86180000D02*
X212520000Y-86180000D01*
X214480000Y-86180000D02*
X216031000Y-86180000D01*
X210975000Y-86140000D02*
X212520000Y-86140000D01*
X214480000Y-86140000D02*
X216025000Y-86140000D01*
X210981000Y-86100000D02*
X212520000Y-86100000D01*
X214480000Y-86100000D02*
X216019000Y-86100000D01*
X210987000Y-86060000D02*
X212520000Y-86060000D01*
X214480000Y-86060000D02*
X216013000Y-86060000D01*
X210994000Y-86020000D02*
X212520000Y-86020000D01*
X214480000Y-86020000D02*
X216006000Y-86020000D01*
X211002000Y-85980000D02*
X212520000Y-85980000D01*
X214480000Y-85980000D02*
X215998000Y-85980000D01*
X211011000Y-85940000D02*
X212520000Y-85940000D01*
X214480000Y-85940000D02*
X215989000Y-85940000D01*
X211020000Y-85900000D02*
X212520000Y-85900000D01*
X214480000Y-85900000D02*
X215980000Y-85900000D01*
X211030000Y-85860000D02*
X212520000Y-85860000D01*
X214480000Y-85860000D02*
X215970000Y-85860000D01*
X211040000Y-85820000D02*
X212520000Y-85820000D01*
X214480000Y-85820000D02*
X215960000Y-85820000D01*
X211052000Y-85779000D02*
X212520000Y-85779000D01*
X214480000Y-85779000D02*
X215948000Y-85779000D01*
X211064000Y-85739000D02*
X212520000Y-85739000D01*
X214480000Y-85739000D02*
X215936000Y-85739000D01*
X211076000Y-85699000D02*
X212520000Y-85699000D01*
X214480000Y-85699000D02*
X215924000Y-85699000D01*
X211090000Y-85659000D02*
X212520000Y-85659000D01*
X214480000Y-85659000D02*
X215910000Y-85659000D01*
X211104000Y-85619000D02*
X212520000Y-85619000D01*
X214480000Y-85619000D02*
X215896000Y-85619000D01*
X211118000Y-85579000D02*
X212520000Y-85579000D01*
X214480000Y-85579000D02*
X215882000Y-85579000D01*
X211134000Y-85539000D02*
X212520000Y-85539000D01*
X214480000Y-85539000D02*
X215866000Y-85539000D01*
X211150000Y-85499000D02*
X212520000Y-85499000D01*
X214480000Y-85499000D02*
X215850000Y-85499000D01*
X211167000Y-85459000D02*
X212520000Y-85459000D01*
X214480000Y-85459000D02*
X215833000Y-85459000D01*
X211185000Y-85419000D02*
X212520000Y-85419000D01*
X214480000Y-85419000D02*
X215815000Y-85419000D01*
X211204000Y-85379000D02*
X212520000Y-85379000D01*
X214480000Y-85379000D02*
X215796000Y-85379000D01*
X211224000Y-85339000D02*
X212520000Y-85339000D01*
X214480000Y-85339000D02*
X215776000Y-85339000D01*
X211244000Y-85299000D02*
X212520000Y-85299000D01*
X214480000Y-85299000D02*
X215756000Y-85299000D01*
X211266000Y-85259000D02*
X212520000Y-85259000D01*
X214480000Y-85259000D02*
X215734000Y-85259000D01*
X211288000Y-85219000D02*
X212520000Y-85219000D01*
X214480000Y-85219000D02*
X215712000Y-85219000D01*
X211311000Y-85179000D02*
X212520000Y-85179000D01*
X214480000Y-85179000D02*
X215689000Y-85179000D01*
X211335000Y-85139000D02*
X212520000Y-85139000D01*
X214480000Y-85139000D02*
X215665000Y-85139000D01*
X211360000Y-85099000D02*
X212520000Y-85099000D01*
X214480000Y-85099000D02*
X215640000Y-85099000D01*
X211387000Y-85059000D02*
X212520000Y-85059000D01*
X214480000Y-85059000D02*
X215613000Y-85059000D01*
X211414000Y-85019000D02*
X212520000Y-85019000D01*
X214480000Y-85019000D02*
X215586000Y-85019000D01*
X211442000Y-84979000D02*
X212520000Y-84979000D01*
X214480000Y-84979000D02*
X215558000Y-84979000D01*
X211472000Y-84939000D02*
X212520000Y-84939000D01*
X214480000Y-84939000D02*
X215528000Y-84939000D01*
X211503000Y-84899000D02*
X212520000Y-84899000D01*
X214480000Y-84899000D02*
X215497000Y-84899000D01*
X211535000Y-84859000D02*
X212520000Y-84859000D01*
X214480000Y-84859000D02*
X215465000Y-84859000D01*
X211568000Y-84819000D02*
X212520000Y-84819000D01*
X214480000Y-84819000D02*
X215432000Y-84819000D01*
X211603000Y-84779000D02*
X212520000Y-84779000D01*
X214480000Y-84779000D02*
X215397000Y-84779000D01*
X211639000Y-84739000D02*
X212520000Y-84739000D01*
X214480000Y-84739000D02*
X215361000Y-84739000D01*
X211677000Y-84699000D02*
X212520000Y-84699000D01*
X214480000Y-84699000D02*
X215323000Y-84699000D01*
X211717000Y-84659000D02*
X212520000Y-84659000D01*
X214480000Y-84659000D02*
X215283000Y-84659000D01*
X211758000Y-84619000D02*
X212520000Y-84619000D01*
X214480000Y-84619000D02*
X215242000Y-84619000D01*
X211801000Y-84579000D02*
X212520000Y-84579000D01*
X214480000Y-84579000D02*
X215199000Y-84579000D01*
X211846000Y-84539000D02*
X212520000Y-84539000D01*
X214480000Y-84539000D02*
X215154000Y-84539000D01*
X211894000Y-84499000D02*
X215106000Y-84499000D01*
X211944000Y-84459000D02*
X215056000Y-84459000D01*
X211996000Y-84419000D02*
X215004000Y-84419000D01*
X212052000Y-84379000D02*
X214948000Y-84379000D01*
X212110000Y-84339000D02*
X214890000Y-84339000D01*
X212173000Y-84299000D02*
X214827000Y-84299000D01*
X212239000Y-84259000D02*
X214761000Y-84259000D01*
X212311000Y-84219000D02*
X214689000Y-84219000D01*
X212388000Y-84179000D02*
X214612000Y-84179000D01*
X212472000Y-84139000D02*
X214528000Y-84139000D01*
X212566000Y-84099000D02*
X214434000Y-84099000D01*
X212671000Y-84059000D02*
X214329000Y-84059000D01*
X212793000Y-84019000D02*
X214207000Y-84019000D01*
X212941000Y-83979000D02*
X214059000Y-83979000D01*
X213146000Y-83939000D02*
X213854000Y-83939000D01*
X213500000Y-89700000D02*
X213500000Y-88500000D01*
X212850000Y-89100000D02*
X214150000Y-89100000D01*
X196481400Y-123396863D02*
G75*
G03X196480000Y-118602564I-981400J2396863D01*
G01*
X194518600Y-123396863D02*
G75*
G02X194520000Y-118602564I981400J2396863D01*
G01*
X194518600Y-123396863D02*
G75*
G03X196480000Y-123397436I981400J2396863D01*
G01*
X198050000Y-121000000D02*
X192950000Y-121000000D01*
X198050000Y-121040000D02*
X196480000Y-121040000D01*
X194520000Y-121040000D02*
X192950000Y-121040000D01*
X198049000Y-121080000D02*
X196480000Y-121080000D01*
X194520000Y-121080000D02*
X192951000Y-121080000D01*
X198048000Y-121120000D02*
X196480000Y-121120000D01*
X194520000Y-121120000D02*
X192952000Y-121120000D01*
X198046000Y-121160000D02*
X196480000Y-121160000D01*
X194520000Y-121160000D02*
X192954000Y-121160000D01*
X198043000Y-121200000D02*
X196480000Y-121200000D01*
X194520000Y-121200000D02*
X192957000Y-121200000D01*
X198039000Y-121240000D02*
X196480000Y-121240000D01*
X194520000Y-121240000D02*
X192961000Y-121240000D01*
X198035000Y-121280000D02*
X196480000Y-121280000D01*
X194520000Y-121280000D02*
X192965000Y-121280000D01*
X198031000Y-121320000D02*
X196480000Y-121320000D01*
X194520000Y-121320000D02*
X192969000Y-121320000D01*
X198025000Y-121360000D02*
X196480000Y-121360000D01*
X194520000Y-121360000D02*
X192975000Y-121360000D01*
X198019000Y-121400000D02*
X196480000Y-121400000D01*
X194520000Y-121400000D02*
X192981000Y-121400000D01*
X198013000Y-121440000D02*
X196480000Y-121440000D01*
X194520000Y-121440000D02*
X192987000Y-121440000D01*
X198006000Y-121480000D02*
X196480000Y-121480000D01*
X194520000Y-121480000D02*
X192994000Y-121480000D01*
X197998000Y-121520000D02*
X196480000Y-121520000D01*
X194520000Y-121520000D02*
X193002000Y-121520000D01*
X197989000Y-121560000D02*
X196480000Y-121560000D01*
X194520000Y-121560000D02*
X193011000Y-121560000D01*
X197980000Y-121600000D02*
X196480000Y-121600000D01*
X194520000Y-121600000D02*
X193020000Y-121600000D01*
X197970000Y-121640000D02*
X196480000Y-121640000D01*
X194520000Y-121640000D02*
X193030000Y-121640000D01*
X197960000Y-121680000D02*
X196480000Y-121680000D01*
X194520000Y-121680000D02*
X193040000Y-121680000D01*
X197948000Y-121721000D02*
X196480000Y-121721000D01*
X194520000Y-121721000D02*
X193052000Y-121721000D01*
X197936000Y-121761000D02*
X196480000Y-121761000D01*
X194520000Y-121761000D02*
X193064000Y-121761000D01*
X197924000Y-121801000D02*
X196480000Y-121801000D01*
X194520000Y-121801000D02*
X193076000Y-121801000D01*
X197910000Y-121841000D02*
X196480000Y-121841000D01*
X194520000Y-121841000D02*
X193090000Y-121841000D01*
X197896000Y-121881000D02*
X196480000Y-121881000D01*
X194520000Y-121881000D02*
X193104000Y-121881000D01*
X197882000Y-121921000D02*
X196480000Y-121921000D01*
X194520000Y-121921000D02*
X193118000Y-121921000D01*
X197866000Y-121961000D02*
X196480000Y-121961000D01*
X194520000Y-121961000D02*
X193134000Y-121961000D01*
X197850000Y-122001000D02*
X196480000Y-122001000D01*
X194520000Y-122001000D02*
X193150000Y-122001000D01*
X197833000Y-122041000D02*
X196480000Y-122041000D01*
X194520000Y-122041000D02*
X193167000Y-122041000D01*
X197815000Y-122081000D02*
X196480000Y-122081000D01*
X194520000Y-122081000D02*
X193185000Y-122081000D01*
X197796000Y-122121000D02*
X196480000Y-122121000D01*
X194520000Y-122121000D02*
X193204000Y-122121000D01*
X197776000Y-122161000D02*
X196480000Y-122161000D01*
X194520000Y-122161000D02*
X193224000Y-122161000D01*
X197756000Y-122201000D02*
X196480000Y-122201000D01*
X194520000Y-122201000D02*
X193244000Y-122201000D01*
X197734000Y-122241000D02*
X196480000Y-122241000D01*
X194520000Y-122241000D02*
X193266000Y-122241000D01*
X197712000Y-122281000D02*
X196480000Y-122281000D01*
X194520000Y-122281000D02*
X193288000Y-122281000D01*
X197689000Y-122321000D02*
X196480000Y-122321000D01*
X194520000Y-122321000D02*
X193311000Y-122321000D01*
X197665000Y-122361000D02*
X196480000Y-122361000D01*
X194520000Y-122361000D02*
X193335000Y-122361000D01*
X197640000Y-122401000D02*
X196480000Y-122401000D01*
X194520000Y-122401000D02*
X193360000Y-122401000D01*
X197613000Y-122441000D02*
X196480000Y-122441000D01*
X194520000Y-122441000D02*
X193387000Y-122441000D01*
X197586000Y-122481000D02*
X196480000Y-122481000D01*
X194520000Y-122481000D02*
X193414000Y-122481000D01*
X197558000Y-122521000D02*
X196480000Y-122521000D01*
X194520000Y-122521000D02*
X193442000Y-122521000D01*
X197528000Y-122561000D02*
X196480000Y-122561000D01*
X194520000Y-122561000D02*
X193472000Y-122561000D01*
X197497000Y-122601000D02*
X196480000Y-122601000D01*
X194520000Y-122601000D02*
X193503000Y-122601000D01*
X197465000Y-122641000D02*
X196480000Y-122641000D01*
X194520000Y-122641000D02*
X193535000Y-122641000D01*
X197432000Y-122681000D02*
X196480000Y-122681000D01*
X194520000Y-122681000D02*
X193568000Y-122681000D01*
X197397000Y-122721000D02*
X196480000Y-122721000D01*
X194520000Y-122721000D02*
X193603000Y-122721000D01*
X197361000Y-122761000D02*
X196480000Y-122761000D01*
X194520000Y-122761000D02*
X193639000Y-122761000D01*
X197323000Y-122801000D02*
X196480000Y-122801000D01*
X194520000Y-122801000D02*
X193677000Y-122801000D01*
X197283000Y-122841000D02*
X196480000Y-122841000D01*
X194520000Y-122841000D02*
X193717000Y-122841000D01*
X197242000Y-122881000D02*
X196480000Y-122881000D01*
X194520000Y-122881000D02*
X193758000Y-122881000D01*
X197199000Y-122921000D02*
X196480000Y-122921000D01*
X194520000Y-122921000D02*
X193801000Y-122921000D01*
X197154000Y-122961000D02*
X196480000Y-122961000D01*
X194520000Y-122961000D02*
X193846000Y-122961000D01*
X197106000Y-123001000D02*
X193894000Y-123001000D01*
X197056000Y-123041000D02*
X193944000Y-123041000D01*
X197004000Y-123081000D02*
X193996000Y-123081000D01*
X196948000Y-123121000D02*
X194052000Y-123121000D01*
X196890000Y-123161000D02*
X194110000Y-123161000D01*
X196827000Y-123201000D02*
X194173000Y-123201000D01*
X196761000Y-123241000D02*
X194239000Y-123241000D01*
X196689000Y-123281000D02*
X194311000Y-123281000D01*
X196612000Y-123321000D02*
X194388000Y-123321000D01*
X196528000Y-123361000D02*
X194472000Y-123361000D01*
X196434000Y-123401000D02*
X194566000Y-123401000D01*
X196329000Y-123441000D02*
X194671000Y-123441000D01*
X196207000Y-123481000D02*
X194793000Y-123481000D01*
X196059000Y-123521000D02*
X194941000Y-123521000D01*
X195854000Y-123561000D02*
X195146000Y-123561000D01*
X195500000Y-117800000D02*
X195500000Y-119000000D01*
X196150000Y-118400000D02*
X194850000Y-118400000D01*
X204690000Y-88390000D02*
X209310000Y-88390000D01*
X209310000Y-88390000D02*
X209310000Y-76370000D01*
X209310000Y-76370000D02*
X204690000Y-76370000D01*
X204690000Y-76370000D02*
X204690000Y-88390000D01*
X207000000Y-88620000D02*
X207000000Y-88390000D01*
X207000000Y-76140000D02*
X207000000Y-76370000D01*
X197310000Y-77610000D02*
X192690000Y-77610000D01*
X192690000Y-77610000D02*
X192690000Y-89630000D01*
X192690000Y-89630000D02*
X197310000Y-89630000D01*
X197310000Y-89630000D02*
X197310000Y-77610000D01*
X195000000Y-77380000D02*
X195000000Y-77610000D01*
X195000000Y-89860000D02*
X195000000Y-89630000D01*
X204310000Y-122110000D02*
X199690000Y-122110000D01*
X199690000Y-122110000D02*
X199690000Y-134130000D01*
X199690000Y-134130000D02*
X204310000Y-134130000D01*
X204310000Y-134130000D02*
X204310000Y-122110000D01*
X202000000Y-121880000D02*
X202000000Y-122110000D01*
X202000000Y-134360000D02*
X202000000Y-134130000D01*
X221310000Y-99610000D02*
X216690000Y-99610000D01*
X216690000Y-99610000D02*
X216690000Y-111630000D01*
X216690000Y-111630000D02*
X221310000Y-111630000D01*
X221310000Y-111630000D02*
X221310000Y-99610000D01*
X219000000Y-99380000D02*
X219000000Y-99610000D01*
X219000000Y-111860000D02*
X219000000Y-111630000D01*
X191390000Y-72310000D02*
X191390000Y-67690000D01*
X191390000Y-67690000D02*
X179370000Y-67690000D01*
X179370000Y-67690000D02*
X179370000Y-72310000D01*
X179370000Y-72310000D02*
X191390000Y-72310000D01*
X191620000Y-70000000D02*
X191390000Y-70000000D01*
X179140000Y-70000000D02*
X179370000Y-70000000D01*
M02*
