G04 #@! TF.FileFunction,Copper,L1,Top,Signal*
%FSLAX46Y46*%
G04 Gerber Fmt 4.6, Leading zero omitted, Abs format (unit mm)*
G04 Created by KiCad (PCBNEW 4.0.6) date Friday, 28 July 2017 'PMt' 20:00:50*
%MOMM*%
%LPD*%
G01*
G04 APERTURE LIST*
%ADD10C,0.100000*%
%ADD11C,3.000000*%
%ADD12C,2.500000*%
%ADD13C,2.000000*%
%ADD14R,2.400000X2.400000*%
%ADD15C,2.400000*%
%ADD16C,1.600000*%
%ADD17O,1.600000X1.600000*%
%ADD18C,6.400000*%
%ADD19C,1.260000*%
%ADD20C,2.800000*%
%ADD21R,1.800000X3.600000*%
%ADD22O,1.800000X3.600000*%
%ADD23R,3.600000X1.800000*%
%ADD24O,3.600000X1.800000*%
%ADD25R,1.600000X1.600000*%
%ADD26O,2.400000X2.400000*%
%ADD27C,1.000000*%
%ADD28C,2.000000*%
%ADD29C,0.800000*%
G04 APERTURE END LIST*
D10*
D11*
X208989435Y-113931484D03*
X202500041Y-116040367D03*
X196010602Y-113931820D03*
X192000019Y-108411708D03*
X191999956Y-101588329D03*
X196010688Y-96068136D03*
X202499959Y-93959633D03*
X208989398Y-96068180D03*
X212999981Y-101588292D03*
D12*
X202498210Y-113095678D03*
X202532691Y-96809217D03*
D13*
X201000000Y-90000000D03*
X201000000Y-82500000D03*
D14*
X182500000Y-79000000D03*
D15*
X182500000Y-86500000D03*
D16*
X225000000Y-128500000D03*
D17*
X225000000Y-141000000D03*
D16*
X186000000Y-115000000D03*
D17*
X186000000Y-95000000D03*
D16*
X180500000Y-120000000D03*
D17*
X180500000Y-132500000D03*
D13*
X208000000Y-119000000D03*
X208000000Y-126500000D03*
D16*
X215000000Y-135000000D03*
D17*
X215000000Y-115000000D03*
D18*
X177500000Y-147500000D03*
D13*
X201000000Y-71000000D03*
X201000000Y-78500000D03*
X208000000Y-131000000D03*
X208000000Y-138500000D03*
D16*
X220000000Y-90000000D03*
D17*
X220000000Y-79840000D03*
D16*
X184500000Y-121500000D03*
D17*
X184500000Y-131660000D03*
D16*
X190500000Y-116500000D03*
D17*
X190500000Y-126660000D03*
D16*
X221000000Y-130500000D03*
D17*
X221000000Y-140660000D03*
D19*
X214000000Y-74920000D03*
X211460000Y-77460000D03*
X214000000Y-80000000D03*
X197580000Y-131500000D03*
X195040000Y-128960000D03*
X192500000Y-131500000D03*
D20*
X227000000Y-76000000D03*
X179500000Y-115500000D03*
X229000000Y-118000000D03*
D21*
X207000000Y-64000000D03*
D22*
X212080000Y-64000000D03*
D23*
X226500000Y-103500000D03*
D24*
X226500000Y-108580000D03*
D23*
X226500000Y-85000000D03*
D24*
X226500000Y-90080000D03*
D23*
X178500000Y-108500000D03*
D24*
X178500000Y-103420000D03*
D21*
X187000000Y-64000000D03*
D22*
X192080000Y-64000000D03*
D21*
X220500000Y-146500000D03*
D22*
X215420000Y-146500000D03*
X210340000Y-146500000D03*
X205260000Y-146500000D03*
X200180000Y-146500000D03*
X195100000Y-146500000D03*
X190020000Y-146500000D03*
X184940000Y-146500000D03*
D25*
X213500000Y-87500000D03*
D16*
X213500000Y-85500000D03*
D25*
X195500000Y-120000000D03*
D16*
X195500000Y-122000000D03*
D15*
X207000000Y-90000000D03*
D26*
X207000000Y-74760000D03*
D15*
X195000000Y-76000000D03*
D26*
X195000000Y-91240000D03*
D15*
X202000000Y-120500000D03*
D26*
X202000000Y-135740000D03*
D15*
X219000000Y-98000000D03*
D26*
X219000000Y-113240000D03*
D15*
X193000000Y-70000000D03*
D26*
X177760000Y-70000000D03*
D27*
X220000000Y-79840000D02*
X218920000Y-79840000D01*
X218920000Y-79840000D02*
X214000000Y-74920000D01*
X211460000Y-77460000D02*
X214000000Y-74920000D01*
X201000000Y-82500000D02*
X206420000Y-82500000D01*
X206420000Y-82500000D02*
X211460000Y-77460000D01*
X213500000Y-85500000D02*
X213500000Y-83500000D01*
X213500000Y-83500000D02*
X211460000Y-81460000D01*
X211460000Y-81460000D02*
X211460000Y-77460000D01*
X208000000Y-126500000D02*
X197500000Y-126500000D01*
X197500000Y-126500000D02*
X195040000Y-128960000D01*
X219000000Y-98000000D02*
X217500000Y-98000000D01*
X195000000Y-83000000D02*
X198500000Y-86500000D01*
X198500000Y-86500000D02*
X208500000Y-86500000D01*
X208500000Y-86500000D02*
X210500000Y-88500000D01*
X210500000Y-88500000D02*
X210500000Y-91000000D01*
X195000000Y-83000000D02*
X195000000Y-76000000D01*
X217500000Y-98000000D02*
X210500000Y-91000000D01*
D28*
X212999981Y-101588292D02*
X213088292Y-101588292D01*
X213088292Y-101588292D02*
X215000000Y-103500000D01*
X215000000Y-103500000D02*
X226500000Y-103500000D01*
X178500000Y-103420000D02*
X179920000Y-103420000D01*
X179920000Y-103420000D02*
X181500000Y-105000000D01*
X181500000Y-105000000D02*
X196500000Y-105000000D01*
X196500000Y-105000000D02*
X199911708Y-101588292D01*
X199911708Y-101588292D02*
X212999981Y-101588292D01*
X212999981Y-101588292D02*
X212999981Y-101611687D01*
X192000019Y-108411708D02*
X226331708Y-108411708D01*
X226331708Y-108411708D02*
X226500000Y-108580000D01*
X178500000Y-108500000D02*
X191911727Y-108500000D01*
X191911727Y-108500000D02*
X192000019Y-108411708D01*
X191911727Y-108500000D02*
X192000019Y-108411708D01*
D27*
X179500000Y-115500000D02*
X181500000Y-117500000D01*
X189500000Y-117500000D02*
X190500000Y-116500000D01*
X181500000Y-117500000D02*
X189500000Y-117500000D01*
X208000000Y-138500000D02*
X199500000Y-138500000D01*
X199500000Y-138500000D02*
X192500000Y-131500000D01*
X195500000Y-120000000D02*
X194500000Y-120000000D01*
X192500000Y-122000000D02*
X192500000Y-131500000D01*
X194500000Y-120000000D02*
X192500000Y-122000000D01*
X184940000Y-146500000D02*
X184940000Y-139060000D01*
X184940000Y-139060000D02*
X192500000Y-131500000D01*
D29*
G36*
X231225000Y-116376121D02*
X230840499Y-116300923D01*
X229141421Y-118000000D01*
X230840499Y-119699077D01*
X231225000Y-119623879D01*
X231225000Y-151225000D01*
X180232734Y-151225000D01*
X180497402Y-150638824D01*
X177500000Y-147641421D01*
X174502598Y-150638824D01*
X174767266Y-151225000D01*
X173775000Y-151225000D01*
X173775000Y-150232734D01*
X174361176Y-150497402D01*
X177358579Y-147500000D01*
X177641421Y-147500000D01*
X180638824Y-150497402D01*
X181352302Y-150175255D01*
X182082839Y-148497402D01*
X182115681Y-146667703D01*
X181672593Y-145541227D01*
X182840000Y-145541227D01*
X182840000Y-147458773D01*
X182999853Y-148262408D01*
X183455076Y-148943697D01*
X184136365Y-149398920D01*
X184940000Y-149558773D01*
X185743635Y-149398920D01*
X186424924Y-148943697D01*
X186880147Y-148262408D01*
X187040000Y-147458773D01*
X187040000Y-146600000D01*
X187720000Y-146600000D01*
X187720000Y-147500000D01*
X187933345Y-148372560D01*
X188464365Y-149097057D01*
X189232216Y-149563192D01*
X189561772Y-149653892D01*
X189920000Y-149347434D01*
X189920000Y-146600000D01*
X190120000Y-146600000D01*
X190120000Y-149347434D01*
X190478228Y-149653892D01*
X190807784Y-149563192D01*
X191575635Y-149097057D01*
X192106655Y-148372560D01*
X192320000Y-147500000D01*
X192320000Y-146600000D01*
X190120000Y-146600000D01*
X189920000Y-146600000D01*
X187720000Y-146600000D01*
X187040000Y-146600000D01*
X187040000Y-145541227D01*
X187031800Y-145500000D01*
X187720000Y-145500000D01*
X187720000Y-146400000D01*
X189920000Y-146400000D01*
X189920000Y-143652566D01*
X190120000Y-143652566D01*
X190120000Y-146400000D01*
X192320000Y-146400000D01*
X192320000Y-145541227D01*
X193000000Y-145541227D01*
X193000000Y-147458773D01*
X193159853Y-148262408D01*
X193615076Y-148943697D01*
X194296365Y-149398920D01*
X195100000Y-149558773D01*
X195903635Y-149398920D01*
X196584924Y-148943697D01*
X197040147Y-148262408D01*
X197200000Y-147458773D01*
X197200000Y-145541227D01*
X198080000Y-145541227D01*
X198080000Y-147458773D01*
X198239853Y-148262408D01*
X198695076Y-148943697D01*
X199376365Y-149398920D01*
X200180000Y-149558773D01*
X200983635Y-149398920D01*
X201664924Y-148943697D01*
X202120147Y-148262408D01*
X202280000Y-147458773D01*
X202280000Y-145541227D01*
X203160000Y-145541227D01*
X203160000Y-147458773D01*
X203319853Y-148262408D01*
X203775076Y-148943697D01*
X204456365Y-149398920D01*
X205260000Y-149558773D01*
X206063635Y-149398920D01*
X206744924Y-148943697D01*
X207200147Y-148262408D01*
X207360000Y-147458773D01*
X207360000Y-146600000D01*
X208040000Y-146600000D01*
X208040000Y-147500000D01*
X208253345Y-148372560D01*
X208784365Y-149097057D01*
X209552216Y-149563192D01*
X209881772Y-149653892D01*
X210240000Y-149347434D01*
X210240000Y-146600000D01*
X210440000Y-146600000D01*
X210440000Y-149347434D01*
X210798228Y-149653892D01*
X211127784Y-149563192D01*
X211895635Y-149097057D01*
X212426655Y-148372560D01*
X212640000Y-147500000D01*
X212640000Y-146600000D01*
X210440000Y-146600000D01*
X210240000Y-146600000D01*
X208040000Y-146600000D01*
X207360000Y-146600000D01*
X207360000Y-145541227D01*
X207351800Y-145500000D01*
X208040000Y-145500000D01*
X208040000Y-146400000D01*
X210240000Y-146400000D01*
X210240000Y-143652566D01*
X210440000Y-143652566D01*
X210440000Y-146400000D01*
X212640000Y-146400000D01*
X212640000Y-145541227D01*
X213320000Y-145541227D01*
X213320000Y-147458773D01*
X213479853Y-148262408D01*
X213935076Y-148943697D01*
X214616365Y-149398920D01*
X215420000Y-149558773D01*
X216223635Y-149398920D01*
X216904924Y-148943697D01*
X217360147Y-148262408D01*
X217520000Y-147458773D01*
X217520000Y-145541227D01*
X217360147Y-144737592D01*
X217335029Y-144700000D01*
X218376491Y-144700000D01*
X218376491Y-148300000D01*
X218460166Y-148744693D01*
X218722979Y-149153117D01*
X219123986Y-149427114D01*
X219600000Y-149523509D01*
X221400000Y-149523509D01*
X221844693Y-149439834D01*
X222253117Y-149177021D01*
X222527114Y-148776014D01*
X222623509Y-148300000D01*
X222623509Y-148054511D01*
X224699515Y-148054511D01*
X225124892Y-149084000D01*
X225911857Y-149872340D01*
X226940602Y-150299513D01*
X228054511Y-150300485D01*
X229084000Y-149875108D01*
X229872340Y-149088143D01*
X230299513Y-148059398D01*
X230300485Y-146945489D01*
X229875108Y-145916000D01*
X229088143Y-145127660D01*
X228059398Y-144700487D01*
X226945489Y-144699515D01*
X225916000Y-145124892D01*
X225127660Y-145911857D01*
X224700487Y-146940602D01*
X224699515Y-148054511D01*
X222623509Y-148054511D01*
X222623509Y-144700000D01*
X222539834Y-144255307D01*
X222277021Y-143846883D01*
X221876014Y-143572886D01*
X221400000Y-143476491D01*
X219600000Y-143476491D01*
X219155307Y-143560166D01*
X218746883Y-143822979D01*
X218472886Y-144223986D01*
X218376491Y-144700000D01*
X217335029Y-144700000D01*
X216904924Y-144056303D01*
X216223635Y-143601080D01*
X215420000Y-143441227D01*
X214616365Y-143601080D01*
X213935076Y-144056303D01*
X213479853Y-144737592D01*
X213320000Y-145541227D01*
X212640000Y-145541227D01*
X212640000Y-145500000D01*
X212426655Y-144627440D01*
X211895635Y-143902943D01*
X211127784Y-143436808D01*
X210798228Y-143346108D01*
X210440000Y-143652566D01*
X210240000Y-143652566D01*
X209881772Y-143346108D01*
X209552216Y-143436808D01*
X208784365Y-143902943D01*
X208253345Y-144627440D01*
X208040000Y-145500000D01*
X207351800Y-145500000D01*
X207200147Y-144737592D01*
X206744924Y-144056303D01*
X206063635Y-143601080D01*
X205260000Y-143441227D01*
X204456365Y-143601080D01*
X203775076Y-144056303D01*
X203319853Y-144737592D01*
X203160000Y-145541227D01*
X202280000Y-145541227D01*
X202120147Y-144737592D01*
X201664924Y-144056303D01*
X200983635Y-143601080D01*
X200180000Y-143441227D01*
X199376365Y-143601080D01*
X198695076Y-144056303D01*
X198239853Y-144737592D01*
X198080000Y-145541227D01*
X197200000Y-145541227D01*
X197040147Y-144737592D01*
X196584924Y-144056303D01*
X195903635Y-143601080D01*
X195100000Y-143441227D01*
X194296365Y-143601080D01*
X193615076Y-144056303D01*
X193159853Y-144737592D01*
X193000000Y-145541227D01*
X192320000Y-145541227D01*
X192320000Y-145500000D01*
X192106655Y-144627440D01*
X191575635Y-143902943D01*
X190807784Y-143436808D01*
X190478228Y-143346108D01*
X190120000Y-143652566D01*
X189920000Y-143652566D01*
X189561772Y-143346108D01*
X189232216Y-143436808D01*
X188464365Y-143902943D01*
X187933345Y-144627440D01*
X187720000Y-145500000D01*
X187031800Y-145500000D01*
X186880147Y-144737592D01*
X186640000Y-144378187D01*
X186640000Y-139764164D01*
X192500000Y-133904163D01*
X198297916Y-139702079D01*
X198297918Y-139702082D01*
X198849438Y-140070595D01*
X199500000Y-140200001D01*
X199500005Y-140200000D01*
X206588477Y-140200000D01*
X206752173Y-140363982D01*
X207560473Y-140699618D01*
X208435687Y-140700381D01*
X208628244Y-140620818D01*
X219000000Y-140620818D01*
X219000000Y-140699182D01*
X219152241Y-141464549D01*
X219585786Y-142113396D01*
X220234633Y-142546941D01*
X221000000Y-142699182D01*
X221765367Y-142546941D01*
X222414214Y-142113396D01*
X222847759Y-141464549D01*
X222947957Y-140960818D01*
X223000000Y-140960818D01*
X223000000Y-141039182D01*
X223152241Y-141804549D01*
X223585786Y-142453396D01*
X224234633Y-142886941D01*
X225000000Y-143039182D01*
X225765367Y-142886941D01*
X226414214Y-142453396D01*
X226847759Y-141804549D01*
X227000000Y-141039182D01*
X227000000Y-140960818D01*
X226847759Y-140195451D01*
X226414214Y-139546604D01*
X225765367Y-139113059D01*
X225000000Y-138960818D01*
X224234633Y-139113059D01*
X223585786Y-139546604D01*
X223152241Y-140195451D01*
X223000000Y-140960818D01*
X222947957Y-140960818D01*
X223000000Y-140699182D01*
X223000000Y-140620818D01*
X222847759Y-139855451D01*
X222414214Y-139206604D01*
X221765367Y-138773059D01*
X221000000Y-138620818D01*
X220234633Y-138773059D01*
X219585786Y-139206604D01*
X219152241Y-139855451D01*
X219000000Y-140620818D01*
X208628244Y-140620818D01*
X209244572Y-140366157D01*
X209863982Y-139747827D01*
X210199618Y-138939527D01*
X210200381Y-138064313D01*
X209866157Y-137255428D01*
X209247827Y-136636018D01*
X208439527Y-136300382D01*
X207564313Y-136299619D01*
X206755428Y-136633843D01*
X206588981Y-136800000D01*
X204154141Y-136800000D01*
X204217311Y-136705459D01*
X204400000Y-135787019D01*
X204400000Y-135692981D01*
X204340943Y-135396079D01*
X212999654Y-135396079D01*
X213303494Y-136131429D01*
X213865612Y-136694529D01*
X214600430Y-136999652D01*
X215396079Y-137000346D01*
X216131429Y-136696506D01*
X216694529Y-136134388D01*
X216999652Y-135399570D01*
X217000346Y-134603921D01*
X216696506Y-133868571D01*
X216134388Y-133305471D01*
X215399570Y-133000348D01*
X214603921Y-132999654D01*
X213868571Y-133303494D01*
X213305471Y-133865612D01*
X213000348Y-134600430D01*
X212999654Y-135396079D01*
X204340943Y-135396079D01*
X204217311Y-134774541D01*
X203697056Y-133995925D01*
X202918440Y-133475670D01*
X202000000Y-133292981D01*
X201081560Y-133475670D01*
X200302944Y-133995925D01*
X199782689Y-134774541D01*
X199600000Y-135692981D01*
X199600000Y-135787019D01*
X199701511Y-136297347D01*
X194200000Y-130795836D01*
X194200000Y-130592696D01*
X194674393Y-130789682D01*
X195402413Y-130790317D01*
X195994834Y-130545533D01*
X195750318Y-131134393D01*
X195749683Y-131862413D01*
X196027697Y-132535258D01*
X196542035Y-133050494D01*
X197214393Y-133329682D01*
X197942413Y-133330317D01*
X198615258Y-133052303D01*
X199130494Y-132537965D01*
X199409682Y-131865607D01*
X199410056Y-131435687D01*
X205799619Y-131435687D01*
X206133843Y-132244572D01*
X206752173Y-132863982D01*
X207560473Y-133199618D01*
X208435687Y-133200381D01*
X209244572Y-132866157D01*
X209863982Y-132247827D01*
X210199618Y-131439527D01*
X210200091Y-130896079D01*
X218999654Y-130896079D01*
X219303494Y-131631429D01*
X219865612Y-132194529D01*
X220600430Y-132499652D01*
X221396079Y-132500346D01*
X222131429Y-132196506D01*
X222694529Y-131634388D01*
X222999652Y-130899570D01*
X223000346Y-130103921D01*
X222696506Y-129368571D01*
X222224838Y-128896079D01*
X222999654Y-128896079D01*
X223303494Y-129631429D01*
X223865612Y-130194529D01*
X224600430Y-130499652D01*
X225396079Y-130500346D01*
X226131429Y-130196506D01*
X226694529Y-129634388D01*
X226999652Y-128899570D01*
X227000346Y-128103921D01*
X226696506Y-127368571D01*
X226134388Y-126805471D01*
X225399570Y-126500348D01*
X224603921Y-126499654D01*
X223868571Y-126803494D01*
X223305471Y-127365612D01*
X223000348Y-128100430D01*
X222999654Y-128896079D01*
X222224838Y-128896079D01*
X222134388Y-128805471D01*
X221399570Y-128500348D01*
X220603921Y-128499654D01*
X219868571Y-128803494D01*
X219305471Y-129365612D01*
X219000348Y-130100430D01*
X218999654Y-130896079D01*
X210200091Y-130896079D01*
X210200381Y-130564313D01*
X209866157Y-129755428D01*
X209247827Y-129136018D01*
X208439527Y-128800382D01*
X207564313Y-128799619D01*
X206755428Y-129133843D01*
X206136018Y-129752173D01*
X205800382Y-130560473D01*
X205799619Y-131435687D01*
X199410056Y-131435687D01*
X199410317Y-131137587D01*
X199132303Y-130464742D01*
X198617965Y-129949506D01*
X197945607Y-129670318D01*
X197217587Y-129669683D01*
X196625166Y-129914467D01*
X196721361Y-129682803D01*
X198204163Y-128200000D01*
X206588477Y-128200000D01*
X206752173Y-128363982D01*
X207560473Y-128699618D01*
X208435687Y-128700381D01*
X209244572Y-128366157D01*
X209863982Y-127747827D01*
X210199618Y-126939527D01*
X210200381Y-126064313D01*
X209866157Y-125255428D01*
X209247827Y-124636018D01*
X208439527Y-124300382D01*
X207564313Y-124299619D01*
X206755428Y-124633843D01*
X206588981Y-124800000D01*
X197500000Y-124800000D01*
X196849438Y-124929405D01*
X196297918Y-125297918D01*
X196297916Y-125297921D01*
X194317275Y-127278561D01*
X194200000Y-127327018D01*
X194200000Y-123528628D01*
X194365612Y-123694529D01*
X195100430Y-123999652D01*
X195896079Y-124000346D01*
X196631429Y-123696506D01*
X197194529Y-123134388D01*
X197499652Y-122399570D01*
X197500346Y-121603921D01*
X197388318Y-121332793D01*
X197427114Y-121276014D01*
X197488010Y-120975295D01*
X199599584Y-120975295D01*
X199964192Y-121857715D01*
X200638734Y-122533435D01*
X201520516Y-122899583D01*
X202475295Y-122900416D01*
X203357715Y-122535808D01*
X204033435Y-121861266D01*
X204399583Y-120979484D01*
X204400416Y-120024705D01*
X204157040Y-119435687D01*
X205799619Y-119435687D01*
X206133843Y-120244572D01*
X206752173Y-120863982D01*
X207560473Y-121199618D01*
X208435687Y-121200381D01*
X209244572Y-120866157D01*
X209863982Y-120247827D01*
X210033119Y-119840499D01*
X227300923Y-119840499D01*
X227403890Y-120366987D01*
X228431193Y-120797616D01*
X229545092Y-120802333D01*
X230576006Y-120380421D01*
X230596110Y-120366987D01*
X230699077Y-119840499D01*
X229000000Y-118141421D01*
X227300923Y-119840499D01*
X210033119Y-119840499D01*
X210199618Y-119439527D01*
X210200381Y-118564313D01*
X210192440Y-118545092D01*
X226197667Y-118545092D01*
X226619579Y-119576006D01*
X226633013Y-119596110D01*
X227159501Y-119699077D01*
X228858579Y-118000000D01*
X227159501Y-116300923D01*
X226633013Y-116403890D01*
X226202384Y-117431193D01*
X226197667Y-118545092D01*
X210192440Y-118545092D01*
X209866157Y-117755428D01*
X209247827Y-117136018D01*
X208439527Y-116800382D01*
X207564313Y-116799619D01*
X206755428Y-117133843D01*
X206136018Y-117752173D01*
X205800382Y-118560473D01*
X205799619Y-119435687D01*
X204157040Y-119435687D01*
X204035808Y-119142285D01*
X203459755Y-118565226D01*
X204027470Y-118330650D01*
X204787655Y-117571791D01*
X205199571Y-116579786D01*
X205200509Y-115505660D01*
X204790324Y-114512938D01*
X204743659Y-114466191D01*
X206288967Y-114466191D01*
X206699152Y-115458913D01*
X207458011Y-116219098D01*
X208450016Y-116631014D01*
X209524142Y-116631952D01*
X210516864Y-116221767D01*
X211277049Y-115462908D01*
X211485534Y-114960818D01*
X213000000Y-114960818D01*
X213000000Y-115039182D01*
X213152241Y-115804549D01*
X213585786Y-116453396D01*
X214234633Y-116886941D01*
X215000000Y-117039182D01*
X215765367Y-116886941D01*
X216414214Y-116453396D01*
X216610588Y-116159501D01*
X227300923Y-116159501D01*
X229000000Y-117858579D01*
X230699077Y-116159501D01*
X230596110Y-115633013D01*
X229568807Y-115202384D01*
X228454908Y-115197667D01*
X227423994Y-115619579D01*
X227403890Y-115633013D01*
X227300923Y-116159501D01*
X216610588Y-116159501D01*
X216847759Y-115804549D01*
X217000000Y-115039182D01*
X217000000Y-114960818D01*
X216878175Y-114348364D01*
X217302944Y-114984075D01*
X218081560Y-115504330D01*
X219000000Y-115687019D01*
X219918440Y-115504330D01*
X220697056Y-114984075D01*
X221217311Y-114205459D01*
X221400000Y-113287019D01*
X221400000Y-113192981D01*
X221217311Y-112274541D01*
X220697056Y-111495925D01*
X219918440Y-110975670D01*
X219000000Y-110792981D01*
X218081560Y-110975670D01*
X217302944Y-111495925D01*
X216782689Y-112274541D01*
X216600000Y-113192981D01*
X216600000Y-113287019D01*
X216752273Y-114052545D01*
X216414214Y-113546604D01*
X215765367Y-113113059D01*
X215000000Y-112960818D01*
X214234633Y-113113059D01*
X213585786Y-113546604D01*
X213152241Y-114195451D01*
X213000000Y-114960818D01*
X211485534Y-114960818D01*
X211688965Y-114470903D01*
X211689903Y-113396777D01*
X211279718Y-112404055D01*
X210520859Y-111643870D01*
X209528854Y-111231954D01*
X208454728Y-111231016D01*
X207462006Y-111641201D01*
X206701821Y-112400060D01*
X206289905Y-113392065D01*
X206288967Y-114466191D01*
X204743659Y-114466191D01*
X204629450Y-114351783D01*
X204947783Y-113585151D01*
X204948634Y-112610481D01*
X204576430Y-111709678D01*
X203887835Y-111019880D01*
X202987683Y-110646105D01*
X202013013Y-110645254D01*
X201112210Y-111017458D01*
X200422412Y-111706053D01*
X200048637Y-112606205D01*
X200047786Y-113580875D01*
X200367353Y-114354287D01*
X200212427Y-114508943D01*
X199800511Y-115500948D01*
X199799573Y-116575074D01*
X200209758Y-117567796D01*
X200968617Y-118327981D01*
X200970275Y-118328669D01*
X200642285Y-118464192D01*
X199966565Y-119138734D01*
X199600417Y-120020516D01*
X199599584Y-120975295D01*
X197488010Y-120975295D01*
X197523509Y-120800000D01*
X197523509Y-119200000D01*
X197439834Y-118755307D01*
X197177021Y-118346883D01*
X196776014Y-118072886D01*
X196300000Y-117976491D01*
X194700000Y-117976491D01*
X194255307Y-118060166D01*
X193846883Y-118322979D01*
X193710929Y-118521953D01*
X193297918Y-118797918D01*
X193297916Y-118797921D01*
X191297918Y-120797918D01*
X190929405Y-121349438D01*
X190799999Y-122000000D01*
X190800000Y-122000005D01*
X190800000Y-124680492D01*
X190500000Y-124620818D01*
X189734633Y-124773059D01*
X189085786Y-125206604D01*
X188652241Y-125855451D01*
X188500000Y-126620818D01*
X188500000Y-126699182D01*
X188652241Y-127464549D01*
X189085786Y-128113396D01*
X189734633Y-128546941D01*
X190500000Y-128699182D01*
X190800000Y-128639508D01*
X190800000Y-130795837D01*
X183737918Y-137857918D01*
X183369405Y-138409438D01*
X183239999Y-139060000D01*
X183240000Y-139060005D01*
X183240000Y-144378187D01*
X182999853Y-144737592D01*
X182840000Y-145541227D01*
X181672593Y-145541227D01*
X181445826Y-144964713D01*
X181352302Y-144824745D01*
X180638824Y-144502598D01*
X177641421Y-147500000D01*
X177358579Y-147500000D01*
X174361176Y-144502598D01*
X173775000Y-144767266D01*
X173775000Y-144361176D01*
X174502598Y-144361176D01*
X177500000Y-147358579D01*
X180497402Y-144361176D01*
X180175255Y-143647698D01*
X178497402Y-142917161D01*
X176667703Y-142884319D01*
X174964713Y-143554174D01*
X174824745Y-143647698D01*
X174502598Y-144361176D01*
X173775000Y-144361176D01*
X173775000Y-132460818D01*
X178500000Y-132460818D01*
X178500000Y-132539182D01*
X178652241Y-133304549D01*
X179085786Y-133953396D01*
X179734633Y-134386941D01*
X180500000Y-134539182D01*
X181265367Y-134386941D01*
X181914214Y-133953396D01*
X182347759Y-133304549D01*
X182500000Y-132539182D01*
X182500000Y-132460818D01*
X182347759Y-131695451D01*
X182297891Y-131620818D01*
X182500000Y-131620818D01*
X182500000Y-131699182D01*
X182652241Y-132464549D01*
X183085786Y-133113396D01*
X183734633Y-133546941D01*
X184500000Y-133699182D01*
X185265367Y-133546941D01*
X185914214Y-133113396D01*
X186347759Y-132464549D01*
X186500000Y-131699182D01*
X186500000Y-131620818D01*
X186347759Y-130855451D01*
X185914214Y-130206604D01*
X185265367Y-129773059D01*
X184500000Y-129620818D01*
X183734633Y-129773059D01*
X183085786Y-130206604D01*
X182652241Y-130855451D01*
X182500000Y-131620818D01*
X182297891Y-131620818D01*
X181914214Y-131046604D01*
X181265367Y-130613059D01*
X180500000Y-130460818D01*
X179734633Y-130613059D01*
X179085786Y-131046604D01*
X178652241Y-131695451D01*
X178500000Y-132460818D01*
X173775000Y-132460818D01*
X173775000Y-116014903D01*
X176899550Y-116014903D01*
X177294542Y-116970858D01*
X178025295Y-117702887D01*
X178980559Y-118099548D01*
X179696009Y-118100172D01*
X179744146Y-118148310D01*
X179368571Y-118303494D01*
X178805471Y-118865612D01*
X178500348Y-119600430D01*
X178499654Y-120396079D01*
X178803494Y-121131429D01*
X179365612Y-121694529D01*
X180100430Y-121999652D01*
X180896079Y-122000346D01*
X181148424Y-121896079D01*
X182499654Y-121896079D01*
X182803494Y-122631429D01*
X183365612Y-123194529D01*
X184100430Y-123499652D01*
X184896079Y-123500346D01*
X185631429Y-123196506D01*
X186194529Y-122634388D01*
X186499652Y-121899570D01*
X186500346Y-121103921D01*
X186196506Y-120368571D01*
X185634388Y-119805471D01*
X184899570Y-119500348D01*
X184103921Y-119499654D01*
X183368571Y-119803494D01*
X182805471Y-120365612D01*
X182500348Y-121100430D01*
X182499654Y-121896079D01*
X181148424Y-121896079D01*
X181631429Y-121696506D01*
X182194529Y-121134388D01*
X182499652Y-120399570D01*
X182500346Y-119603921D01*
X182333449Y-119200000D01*
X189499995Y-119200000D01*
X189500000Y-119200001D01*
X190150562Y-119070595D01*
X190702082Y-118702082D01*
X190909267Y-118494897D01*
X191631429Y-118196506D01*
X192194529Y-117634388D01*
X192499652Y-116899570D01*
X192500346Y-116103921D01*
X192196506Y-115368571D01*
X191634388Y-114805471D01*
X190899570Y-114500348D01*
X190103921Y-114499654D01*
X189368571Y-114803494D01*
X188805471Y-115365612D01*
X188625097Y-115800000D01*
X187833379Y-115800000D01*
X187999652Y-115399570D01*
X188000346Y-114603921D01*
X187943577Y-114466527D01*
X193310134Y-114466527D01*
X193720319Y-115459249D01*
X194479178Y-116219434D01*
X195471183Y-116631350D01*
X196545309Y-116632288D01*
X197538031Y-116222103D01*
X198298216Y-115463244D01*
X198710132Y-114471239D01*
X198711070Y-113397113D01*
X198300885Y-112404391D01*
X197542026Y-111644206D01*
X196550021Y-111232290D01*
X195475895Y-111231352D01*
X194483173Y-111641537D01*
X193722988Y-112400396D01*
X193311072Y-113392401D01*
X193310134Y-114466527D01*
X187943577Y-114466527D01*
X187696506Y-113868571D01*
X187134388Y-113305471D01*
X186399570Y-113000348D01*
X185603921Y-112999654D01*
X184868571Y-113303494D01*
X184305471Y-113865612D01*
X184000348Y-114600430D01*
X183999654Y-115396079D01*
X184166551Y-115800000D01*
X182204163Y-115800000D01*
X182099830Y-115695667D01*
X182100450Y-114985097D01*
X181705458Y-114029142D01*
X180974705Y-113297113D01*
X180019441Y-112900452D01*
X178985097Y-112899550D01*
X178029142Y-113294542D01*
X177297113Y-114025295D01*
X176900452Y-114980559D01*
X176899550Y-116014903D01*
X173775000Y-116014903D01*
X173775000Y-103420000D01*
X175441227Y-103420000D01*
X175601080Y-104223635D01*
X176056303Y-104904924D01*
X176737592Y-105360147D01*
X177541227Y-105520000D01*
X177997266Y-105520000D01*
X178500000Y-105620000D01*
X179008730Y-105620000D01*
X179688730Y-106300000D01*
X178500000Y-106300000D01*
X178115454Y-106376491D01*
X176700000Y-106376491D01*
X176255307Y-106460166D01*
X175846883Y-106722979D01*
X175572886Y-107123986D01*
X175476491Y-107600000D01*
X175476491Y-109400000D01*
X175560166Y-109844693D01*
X175822979Y-110253117D01*
X176223986Y-110527114D01*
X176700000Y-110623509D01*
X178115454Y-110623509D01*
X178500000Y-110700000D01*
X190470228Y-110700000D01*
X191460600Y-111111238D01*
X192534726Y-111112176D01*
X193527448Y-110701991D01*
X193617889Y-110611708D01*
X225197900Y-110611708D01*
X225541227Y-110680000D01*
X225997266Y-110680000D01*
X226500000Y-110780000D01*
X227002734Y-110680000D01*
X227458773Y-110680000D01*
X228262408Y-110520147D01*
X228943697Y-110064924D01*
X229398920Y-109383635D01*
X229558773Y-108580000D01*
X229398920Y-107776365D01*
X228943697Y-107095076D01*
X228262408Y-106639853D01*
X227458773Y-106480000D01*
X227324510Y-106480000D01*
X227173612Y-106379173D01*
X226331708Y-106211708D01*
X204649675Y-106211708D01*
X204949573Y-105489473D01*
X204950424Y-104514803D01*
X204650236Y-103788292D01*
X211381096Y-103788292D01*
X211468557Y-103875906D01*
X212460562Y-104287822D01*
X212676741Y-104288011D01*
X213444365Y-105055635D01*
X214158096Y-105532535D01*
X215000000Y-105700000D01*
X226500000Y-105700000D01*
X226884546Y-105623509D01*
X228300000Y-105623509D01*
X228744693Y-105539834D01*
X229153117Y-105277021D01*
X229427114Y-104876014D01*
X229523509Y-104400000D01*
X229523509Y-102600000D01*
X229439834Y-102155307D01*
X229177021Y-101746883D01*
X228776014Y-101472886D01*
X228300000Y-101376491D01*
X226884546Y-101376491D01*
X226500000Y-101300000D01*
X215911270Y-101300000D01*
X215700418Y-101089148D01*
X215700449Y-101053585D01*
X215290264Y-100060863D01*
X214531405Y-99300678D01*
X213539400Y-98888762D01*
X212465274Y-98887824D01*
X211472552Y-99298009D01*
X211382111Y-99388292D01*
X199911708Y-99388292D01*
X199069805Y-99555756D01*
X198356073Y-100032657D01*
X195588730Y-102800000D01*
X194420343Y-102800000D01*
X194699486Y-102127748D01*
X194700424Y-101053622D01*
X194290239Y-100060900D01*
X193531380Y-99300715D01*
X192539375Y-98888799D01*
X191465249Y-98887861D01*
X190472527Y-99298046D01*
X189712342Y-100056905D01*
X189300426Y-101048910D01*
X189299488Y-102123036D01*
X189579204Y-102800000D01*
X182411270Y-102800000D01*
X181475635Y-101864365D01*
X181264036Y-101722979D01*
X180761904Y-101387465D01*
X179920000Y-101220000D01*
X178500000Y-101220000D01*
X177997266Y-101320000D01*
X177541227Y-101320000D01*
X176737592Y-101479853D01*
X176056303Y-101935076D01*
X175601080Y-102616365D01*
X175441227Y-103420000D01*
X173775000Y-103420000D01*
X173775000Y-94960818D01*
X184000000Y-94960818D01*
X184000000Y-95039182D01*
X184152241Y-95804549D01*
X184585786Y-96453396D01*
X185234633Y-96886941D01*
X186000000Y-97039182D01*
X186765367Y-96886941D01*
X187414214Y-96453396D01*
X187847759Y-95804549D01*
X188000000Y-95039182D01*
X188000000Y-94960818D01*
X187847759Y-94195451D01*
X187414214Y-93546604D01*
X186765367Y-93113059D01*
X186000000Y-92960818D01*
X185234633Y-93113059D01*
X184585786Y-93546604D01*
X184152241Y-94195451D01*
X184000000Y-94960818D01*
X173775000Y-94960818D01*
X173775000Y-91192981D01*
X192600000Y-91192981D01*
X192600000Y-91287019D01*
X192782689Y-92205459D01*
X193302944Y-92984075D01*
X194081560Y-93504330D01*
X194799578Y-93647153D01*
X194483259Y-93777853D01*
X193723074Y-94536712D01*
X193311158Y-95528717D01*
X193310220Y-96602843D01*
X193720405Y-97595565D01*
X194479264Y-98355750D01*
X195471269Y-98767666D01*
X196545395Y-98768604D01*
X197538117Y-98358419D01*
X198298302Y-97599560D01*
X198710218Y-96607555D01*
X198711156Y-95533429D01*
X198300971Y-94540707D01*
X197542112Y-93780522D01*
X196550107Y-93368606D01*
X196122125Y-93368232D01*
X196697056Y-92984075D01*
X197217311Y-92205459D01*
X197400000Y-91287019D01*
X197400000Y-91192981D01*
X197217311Y-90274541D01*
X196697056Y-89495925D01*
X195918440Y-88975670D01*
X195000000Y-88792981D01*
X194081560Y-88975670D01*
X193302944Y-89495925D01*
X192782689Y-90274541D01*
X192600000Y-91192981D01*
X173775000Y-91192981D01*
X173775000Y-86975295D01*
X180099584Y-86975295D01*
X180464192Y-87857715D01*
X181138734Y-88533435D01*
X182020516Y-88899583D01*
X182975295Y-88900416D01*
X183857715Y-88535808D01*
X184533435Y-87861266D01*
X184899583Y-86979484D01*
X184900416Y-86024705D01*
X184535808Y-85142285D01*
X183861266Y-84466565D01*
X182979484Y-84100417D01*
X182024705Y-84099584D01*
X181142285Y-84464192D01*
X180466565Y-85138734D01*
X180100417Y-86020516D01*
X180099584Y-86975295D01*
X173775000Y-86975295D01*
X173775000Y-77800000D01*
X180076491Y-77800000D01*
X180076491Y-80200000D01*
X180160166Y-80644693D01*
X180422979Y-81053117D01*
X180823986Y-81327114D01*
X181300000Y-81423509D01*
X183700000Y-81423509D01*
X184144693Y-81339834D01*
X184553117Y-81077021D01*
X184827114Y-80676014D01*
X184923509Y-80200000D01*
X184923509Y-77800000D01*
X184839834Y-77355307D01*
X184577021Y-76946883D01*
X184176014Y-76672886D01*
X183700000Y-76576491D01*
X181300000Y-76576491D01*
X180855307Y-76660166D01*
X180446883Y-76922979D01*
X180172886Y-77323986D01*
X180076491Y-77800000D01*
X173775000Y-77800000D01*
X173775000Y-76475295D01*
X192599584Y-76475295D01*
X192964192Y-77357715D01*
X193300000Y-77694109D01*
X193300000Y-82999995D01*
X193299999Y-83000000D01*
X193429405Y-83650562D01*
X193797918Y-84202082D01*
X197297916Y-87702079D01*
X197297918Y-87702082D01*
X197849438Y-88070595D01*
X198500000Y-88200000D01*
X199689155Y-88200000D01*
X199136018Y-88752173D01*
X198800382Y-89560473D01*
X198799619Y-90435687D01*
X199133843Y-91244572D01*
X199752173Y-91863982D01*
X200476334Y-92164680D01*
X200212345Y-92428209D01*
X199800429Y-93420214D01*
X199799491Y-94494340D01*
X200209676Y-95487062D01*
X200364483Y-95642140D01*
X200083118Y-96319744D01*
X200082267Y-97294414D01*
X200454471Y-98195217D01*
X201143066Y-98885015D01*
X202043218Y-99258790D01*
X203017888Y-99259641D01*
X203918691Y-98887437D01*
X204608489Y-98198842D01*
X204982264Y-97298690D01*
X204982871Y-96602887D01*
X206288930Y-96602887D01*
X206699115Y-97595609D01*
X207457974Y-98355794D01*
X208449979Y-98767710D01*
X209524105Y-98768648D01*
X210516827Y-98358463D01*
X211277012Y-97599604D01*
X211688928Y-96607599D01*
X211689866Y-95533473D01*
X211279681Y-94540751D01*
X210520822Y-93780566D01*
X209528817Y-93368650D01*
X208454691Y-93367712D01*
X207461969Y-93777897D01*
X206701784Y-94536756D01*
X206289868Y-95528761D01*
X206288930Y-96602887D01*
X204982871Y-96602887D01*
X204983115Y-96324020D01*
X204682345Y-95596101D01*
X204787573Y-95491057D01*
X205199489Y-94499052D01*
X205200427Y-93424926D01*
X204790242Y-92432204D01*
X204031383Y-91672019D01*
X203039378Y-91260103D01*
X202851849Y-91259939D01*
X202863982Y-91247827D01*
X203199618Y-90439527D01*
X203200381Y-89564313D01*
X202866157Y-88755428D01*
X202311697Y-88200000D01*
X205406065Y-88200000D01*
X204966565Y-88638734D01*
X204600417Y-89520516D01*
X204599584Y-90475295D01*
X204964192Y-91357715D01*
X205638734Y-92033435D01*
X206520516Y-92399583D01*
X207475295Y-92400416D01*
X208357715Y-92035808D01*
X208898628Y-91495838D01*
X208929405Y-91650562D01*
X209297918Y-92202082D01*
X216297916Y-99202079D01*
X216297918Y-99202082D01*
X216576602Y-99388292D01*
X216849438Y-99570595D01*
X217257785Y-99651821D01*
X217638734Y-100033435D01*
X218520516Y-100399583D01*
X219475295Y-100400416D01*
X220357715Y-100035808D01*
X221033435Y-99361266D01*
X221399583Y-98479484D01*
X221400416Y-97524705D01*
X221035808Y-96642285D01*
X220361266Y-95966565D01*
X219479484Y-95600417D01*
X218524705Y-95599584D01*
X217802256Y-95898093D01*
X212300243Y-90396079D01*
X217999654Y-90396079D01*
X218303494Y-91131429D01*
X218865612Y-91694529D01*
X219600430Y-91999652D01*
X220396079Y-92000346D01*
X221131429Y-91696506D01*
X221694529Y-91134388D01*
X221999652Y-90399570D01*
X221999930Y-90080000D01*
X223441227Y-90080000D01*
X223601080Y-90883635D01*
X224056303Y-91564924D01*
X224737592Y-92020147D01*
X225541227Y-92180000D01*
X227458773Y-92180000D01*
X228262408Y-92020147D01*
X228943697Y-91564924D01*
X229398920Y-90883635D01*
X229558773Y-90080000D01*
X229398920Y-89276365D01*
X228943697Y-88595076D01*
X228262408Y-88139853D01*
X227458773Y-87980000D01*
X225541227Y-87980000D01*
X224737592Y-88139853D01*
X224056303Y-88595076D01*
X223601080Y-89276365D01*
X223441227Y-90080000D01*
X221999930Y-90080000D01*
X222000346Y-89603921D01*
X221696506Y-88868571D01*
X221134388Y-88305471D01*
X220399570Y-88000348D01*
X219603921Y-87999654D01*
X218868571Y-88303494D01*
X218305471Y-88865612D01*
X218000348Y-89600430D01*
X217999654Y-90396079D01*
X212300243Y-90396079D01*
X212200000Y-90295836D01*
X212200000Y-89410725D01*
X212223986Y-89427114D01*
X212700000Y-89523509D01*
X214300000Y-89523509D01*
X214744693Y-89439834D01*
X215153117Y-89177021D01*
X215427114Y-88776014D01*
X215523509Y-88300000D01*
X215523509Y-86700000D01*
X215439834Y-86255307D01*
X215386411Y-86172285D01*
X215499652Y-85899570D01*
X215500044Y-85450000D01*
X223300000Y-85450000D01*
X223300000Y-86178477D01*
X223513137Y-86693036D01*
X223906963Y-87086862D01*
X224421522Y-87300000D01*
X226050000Y-87300000D01*
X226400000Y-86950000D01*
X226400000Y-85100000D01*
X226600000Y-85100000D01*
X226600000Y-86950000D01*
X226950000Y-87300000D01*
X228578478Y-87300000D01*
X229093037Y-87086862D01*
X229486863Y-86693036D01*
X229700000Y-86178477D01*
X229700000Y-85450000D01*
X229350000Y-85100000D01*
X226600000Y-85100000D01*
X226400000Y-85100000D01*
X223650000Y-85100000D01*
X223300000Y-85450000D01*
X215500044Y-85450000D01*
X215500346Y-85103921D01*
X215200000Y-84377027D01*
X215200000Y-83821523D01*
X223300000Y-83821523D01*
X223300000Y-84550000D01*
X223650000Y-84900000D01*
X226400000Y-84900000D01*
X226400000Y-83050000D01*
X226600000Y-83050000D01*
X226600000Y-84900000D01*
X229350000Y-84900000D01*
X229700000Y-84550000D01*
X229700000Y-83821523D01*
X229486863Y-83306964D01*
X229093037Y-82913138D01*
X228578478Y-82700000D01*
X226950000Y-82700000D01*
X226600000Y-83050000D01*
X226400000Y-83050000D01*
X226050000Y-82700000D01*
X224421522Y-82700000D01*
X223906963Y-82913138D01*
X223513137Y-83306964D01*
X223300000Y-83821523D01*
X215200000Y-83821523D01*
X215200000Y-83500005D01*
X215200001Y-83500000D01*
X215070595Y-82849439D01*
X215070595Y-82849438D01*
X214702082Y-82297918D01*
X214702079Y-82297916D01*
X214234369Y-81830205D01*
X214362413Y-81830317D01*
X215035258Y-81552303D01*
X215550494Y-81037965D01*
X215829682Y-80365607D01*
X215830317Y-79637587D01*
X215552303Y-78964742D01*
X215037965Y-78449506D01*
X214365607Y-78170318D01*
X213637587Y-78169683D01*
X213160000Y-78367018D01*
X213160000Y-78164164D01*
X214000000Y-77324164D01*
X217717916Y-81042079D01*
X217717918Y-81042082D01*
X218269438Y-81410595D01*
X218334361Y-81423509D01*
X218920000Y-81540001D01*
X218920005Y-81540000D01*
X218954856Y-81540000D01*
X219234633Y-81726941D01*
X220000000Y-81879182D01*
X220765367Y-81726941D01*
X221414214Y-81293396D01*
X221847759Y-80644549D01*
X222000000Y-79879182D01*
X222000000Y-79800818D01*
X221847759Y-79035451D01*
X221414214Y-78386604D01*
X220765367Y-77953059D01*
X220000000Y-77800818D01*
X219403610Y-77919447D01*
X217999067Y-76514903D01*
X224399550Y-76514903D01*
X224794542Y-77470858D01*
X225525295Y-78202887D01*
X226480559Y-78599548D01*
X227514903Y-78600450D01*
X228470858Y-78205458D01*
X229202887Y-77474705D01*
X229599548Y-76519441D01*
X229600450Y-75485097D01*
X229205458Y-74529142D01*
X228474705Y-73797113D01*
X227519441Y-73400452D01*
X226485097Y-73399550D01*
X225529142Y-73794542D01*
X224797113Y-74525295D01*
X224400452Y-75480559D01*
X224399550Y-76514903D01*
X217999067Y-76514903D01*
X215681439Y-74197275D01*
X215552303Y-73884742D01*
X215037965Y-73369506D01*
X214365607Y-73090318D01*
X213637587Y-73089683D01*
X212964742Y-73367697D01*
X212449506Y-73882035D01*
X212318638Y-74197198D01*
X210737275Y-75778561D01*
X210424742Y-75907697D01*
X209909506Y-76422035D01*
X209778638Y-76737198D01*
X205715836Y-80800000D01*
X202411523Y-80800000D01*
X202247827Y-80636018D01*
X201920453Y-80500080D01*
X202244572Y-80366157D01*
X202863982Y-79747827D01*
X203199618Y-78939527D01*
X203200381Y-78064313D01*
X202866157Y-77255428D01*
X202247827Y-76636018D01*
X201439527Y-76300382D01*
X200564313Y-76299619D01*
X199755428Y-76633843D01*
X199136018Y-77252173D01*
X198800382Y-78060473D01*
X198799619Y-78935687D01*
X199133843Y-79744572D01*
X199752173Y-80363982D01*
X200079547Y-80499920D01*
X199755428Y-80633843D01*
X199136018Y-81252173D01*
X198800382Y-82060473D01*
X198799619Y-82935687D01*
X199133843Y-83744572D01*
X199752173Y-84363982D01*
X200560473Y-84699618D01*
X201435687Y-84700381D01*
X202244572Y-84366157D01*
X202411019Y-84200000D01*
X206419995Y-84200000D01*
X206420000Y-84200001D01*
X207070562Y-84070595D01*
X207622082Y-83702082D01*
X209777281Y-81546882D01*
X209889405Y-82110562D01*
X210257918Y-82662082D01*
X211800000Y-84204163D01*
X211800000Y-84378788D01*
X211500348Y-85100430D01*
X211499654Y-85896079D01*
X211611682Y-86167207D01*
X211572886Y-86223986D01*
X211476491Y-86700000D01*
X211476491Y-87072328D01*
X209702082Y-85297918D01*
X209150562Y-84929405D01*
X208500000Y-84799999D01*
X208499995Y-84800000D01*
X199204163Y-84800000D01*
X196700000Y-82295836D01*
X196700000Y-77694120D01*
X197033435Y-77361266D01*
X197399583Y-76479484D01*
X197400416Y-75524705D01*
X197065019Y-74712981D01*
X204600000Y-74712981D01*
X204600000Y-74807019D01*
X204782689Y-75725459D01*
X205302944Y-76504075D01*
X206081560Y-77024330D01*
X207000000Y-77207019D01*
X207918440Y-77024330D01*
X208697056Y-76504075D01*
X209217311Y-75725459D01*
X209400000Y-74807019D01*
X209400000Y-74712981D01*
X209217311Y-73794541D01*
X208697056Y-73015925D01*
X207918440Y-72495670D01*
X207000000Y-72312981D01*
X206081560Y-72495670D01*
X205302944Y-73015925D01*
X204782689Y-73794541D01*
X204600000Y-74712981D01*
X197065019Y-74712981D01*
X197035808Y-74642285D01*
X196361266Y-73966565D01*
X195479484Y-73600417D01*
X194524705Y-73599584D01*
X193642285Y-73964192D01*
X192966565Y-74638734D01*
X192600417Y-75520516D01*
X192599584Y-76475295D01*
X173775000Y-76475295D01*
X173775000Y-70000000D01*
X175312981Y-70000000D01*
X175495670Y-70918440D01*
X176015925Y-71697056D01*
X176794541Y-72217311D01*
X177712981Y-72400000D01*
X177807019Y-72400000D01*
X178725459Y-72217311D01*
X179504075Y-71697056D01*
X180024330Y-70918440D01*
X180112476Y-70475295D01*
X190599584Y-70475295D01*
X190964192Y-71357715D01*
X191638734Y-72033435D01*
X192520516Y-72399583D01*
X193475295Y-72400416D01*
X194357715Y-72035808D01*
X194958884Y-71435687D01*
X198799619Y-71435687D01*
X199133843Y-72244572D01*
X199752173Y-72863982D01*
X200560473Y-73199618D01*
X201435687Y-73200381D01*
X202244572Y-72866157D01*
X202863982Y-72247827D01*
X203199618Y-71439527D01*
X203200381Y-70564313D01*
X202866157Y-69755428D01*
X202247827Y-69136018D01*
X201439527Y-68800382D01*
X200564313Y-68799619D01*
X199755428Y-69133843D01*
X199136018Y-69752173D01*
X198800382Y-70560473D01*
X198799619Y-71435687D01*
X194958884Y-71435687D01*
X195033435Y-71361266D01*
X195399583Y-70479484D01*
X195400416Y-69524705D01*
X195035808Y-68642285D01*
X194361266Y-67966565D01*
X193479484Y-67600417D01*
X192524705Y-67599584D01*
X191642285Y-67964192D01*
X190966565Y-68638734D01*
X190600417Y-69520516D01*
X190599584Y-70475295D01*
X180112476Y-70475295D01*
X180207019Y-70000000D01*
X180024330Y-69081560D01*
X179504075Y-68302944D01*
X178725459Y-67782689D01*
X177807019Y-67600000D01*
X177712981Y-67600000D01*
X176794541Y-67782689D01*
X176015925Y-68302944D01*
X175495670Y-69081560D01*
X175312981Y-70000000D01*
X173775000Y-70000000D01*
X173775000Y-63054511D01*
X174699515Y-63054511D01*
X175124892Y-64084000D01*
X175911857Y-64872340D01*
X176940602Y-65299513D01*
X178054511Y-65300485D01*
X179084000Y-64875108D01*
X179872340Y-64088143D01*
X180299513Y-63059398D01*
X180300262Y-62200000D01*
X184876491Y-62200000D01*
X184876491Y-65800000D01*
X184960166Y-66244693D01*
X185222979Y-66653117D01*
X185623986Y-66927114D01*
X186100000Y-67023509D01*
X187900000Y-67023509D01*
X188344693Y-66939834D01*
X188753117Y-66677021D01*
X189027114Y-66276014D01*
X189123509Y-65800000D01*
X189123509Y-63041227D01*
X189980000Y-63041227D01*
X189980000Y-64958773D01*
X190139853Y-65762408D01*
X190595076Y-66443697D01*
X191276365Y-66898920D01*
X192080000Y-67058773D01*
X192883635Y-66898920D01*
X193564924Y-66443697D01*
X194020147Y-65762408D01*
X194180000Y-64958773D01*
X194180000Y-63041227D01*
X194020147Y-62237592D01*
X193995029Y-62200000D01*
X204876491Y-62200000D01*
X204876491Y-65800000D01*
X204960166Y-66244693D01*
X205222979Y-66653117D01*
X205623986Y-66927114D01*
X206100000Y-67023509D01*
X207900000Y-67023509D01*
X208344693Y-66939834D01*
X208753117Y-66677021D01*
X209027114Y-66276014D01*
X209123509Y-65800000D01*
X209123509Y-64100000D01*
X209780000Y-64100000D01*
X209780000Y-65000000D01*
X209993345Y-65872560D01*
X210524365Y-66597057D01*
X211292216Y-67063192D01*
X211621772Y-67153892D01*
X211980000Y-66847434D01*
X211980000Y-64100000D01*
X212180000Y-64100000D01*
X212180000Y-66847434D01*
X212538228Y-67153892D01*
X212867784Y-67063192D01*
X213635635Y-66597057D01*
X214166655Y-65872560D01*
X214380000Y-65000000D01*
X214380000Y-64100000D01*
X212180000Y-64100000D01*
X211980000Y-64100000D01*
X209780000Y-64100000D01*
X209123509Y-64100000D01*
X209123509Y-63000000D01*
X209780000Y-63000000D01*
X209780000Y-63900000D01*
X211980000Y-63900000D01*
X211980000Y-61152566D01*
X212180000Y-61152566D01*
X212180000Y-63900000D01*
X214380000Y-63900000D01*
X214380000Y-63054511D01*
X224699515Y-63054511D01*
X225124892Y-64084000D01*
X225911857Y-64872340D01*
X226940602Y-65299513D01*
X228054511Y-65300485D01*
X229084000Y-64875108D01*
X229872340Y-64088143D01*
X230299513Y-63059398D01*
X230300485Y-61945489D01*
X229875108Y-60916000D01*
X229088143Y-60127660D01*
X228059398Y-59700487D01*
X226945489Y-59699515D01*
X225916000Y-60124892D01*
X225127660Y-60911857D01*
X224700487Y-61940602D01*
X224699515Y-63054511D01*
X214380000Y-63054511D01*
X214380000Y-63000000D01*
X214166655Y-62127440D01*
X213635635Y-61402943D01*
X212867784Y-60936808D01*
X212538228Y-60846108D01*
X212180000Y-61152566D01*
X211980000Y-61152566D01*
X211621772Y-60846108D01*
X211292216Y-60936808D01*
X210524365Y-61402943D01*
X209993345Y-62127440D01*
X209780000Y-63000000D01*
X209123509Y-63000000D01*
X209123509Y-62200000D01*
X209039834Y-61755307D01*
X208777021Y-61346883D01*
X208376014Y-61072886D01*
X207900000Y-60976491D01*
X206100000Y-60976491D01*
X205655307Y-61060166D01*
X205246883Y-61322979D01*
X204972886Y-61723986D01*
X204876491Y-62200000D01*
X193995029Y-62200000D01*
X193564924Y-61556303D01*
X192883635Y-61101080D01*
X192080000Y-60941227D01*
X191276365Y-61101080D01*
X190595076Y-61556303D01*
X190139853Y-62237592D01*
X189980000Y-63041227D01*
X189123509Y-63041227D01*
X189123509Y-62200000D01*
X189039834Y-61755307D01*
X188777021Y-61346883D01*
X188376014Y-61072886D01*
X187900000Y-60976491D01*
X186100000Y-60976491D01*
X185655307Y-61060166D01*
X185246883Y-61322979D01*
X184972886Y-61723986D01*
X184876491Y-62200000D01*
X180300262Y-62200000D01*
X180300485Y-61945489D01*
X179875108Y-60916000D01*
X179088143Y-60127660D01*
X178059398Y-59700487D01*
X176945489Y-59699515D01*
X175916000Y-60124892D01*
X175127660Y-60911857D01*
X174700487Y-61940602D01*
X174699515Y-63054511D01*
X173775000Y-63054511D01*
X173775000Y-58775000D01*
X231225000Y-58775000D01*
X231225000Y-116376121D01*
X231225000Y-116376121D01*
G37*
X231225000Y-116376121D02*
X230840499Y-116300923D01*
X229141421Y-118000000D01*
X230840499Y-119699077D01*
X231225000Y-119623879D01*
X231225000Y-151225000D01*
X180232734Y-151225000D01*
X180497402Y-150638824D01*
X177500000Y-147641421D01*
X174502598Y-150638824D01*
X174767266Y-151225000D01*
X173775000Y-151225000D01*
X173775000Y-150232734D01*
X174361176Y-150497402D01*
X177358579Y-147500000D01*
X177641421Y-147500000D01*
X180638824Y-150497402D01*
X181352302Y-150175255D01*
X182082839Y-148497402D01*
X182115681Y-146667703D01*
X181672593Y-145541227D01*
X182840000Y-145541227D01*
X182840000Y-147458773D01*
X182999853Y-148262408D01*
X183455076Y-148943697D01*
X184136365Y-149398920D01*
X184940000Y-149558773D01*
X185743635Y-149398920D01*
X186424924Y-148943697D01*
X186880147Y-148262408D01*
X187040000Y-147458773D01*
X187040000Y-146600000D01*
X187720000Y-146600000D01*
X187720000Y-147500000D01*
X187933345Y-148372560D01*
X188464365Y-149097057D01*
X189232216Y-149563192D01*
X189561772Y-149653892D01*
X189920000Y-149347434D01*
X189920000Y-146600000D01*
X190120000Y-146600000D01*
X190120000Y-149347434D01*
X190478228Y-149653892D01*
X190807784Y-149563192D01*
X191575635Y-149097057D01*
X192106655Y-148372560D01*
X192320000Y-147500000D01*
X192320000Y-146600000D01*
X190120000Y-146600000D01*
X189920000Y-146600000D01*
X187720000Y-146600000D01*
X187040000Y-146600000D01*
X187040000Y-145541227D01*
X187031800Y-145500000D01*
X187720000Y-145500000D01*
X187720000Y-146400000D01*
X189920000Y-146400000D01*
X189920000Y-143652566D01*
X190120000Y-143652566D01*
X190120000Y-146400000D01*
X192320000Y-146400000D01*
X192320000Y-145541227D01*
X193000000Y-145541227D01*
X193000000Y-147458773D01*
X193159853Y-148262408D01*
X193615076Y-148943697D01*
X194296365Y-149398920D01*
X195100000Y-149558773D01*
X195903635Y-149398920D01*
X196584924Y-148943697D01*
X197040147Y-148262408D01*
X197200000Y-147458773D01*
X197200000Y-145541227D01*
X198080000Y-145541227D01*
X198080000Y-147458773D01*
X198239853Y-148262408D01*
X198695076Y-148943697D01*
X199376365Y-149398920D01*
X200180000Y-149558773D01*
X200983635Y-149398920D01*
X201664924Y-148943697D01*
X202120147Y-148262408D01*
X202280000Y-147458773D01*
X202280000Y-145541227D01*
X203160000Y-145541227D01*
X203160000Y-147458773D01*
X203319853Y-148262408D01*
X203775076Y-148943697D01*
X204456365Y-149398920D01*
X205260000Y-149558773D01*
X206063635Y-149398920D01*
X206744924Y-148943697D01*
X207200147Y-148262408D01*
X207360000Y-147458773D01*
X207360000Y-146600000D01*
X208040000Y-146600000D01*
X208040000Y-147500000D01*
X208253345Y-148372560D01*
X208784365Y-149097057D01*
X209552216Y-149563192D01*
X209881772Y-149653892D01*
X210240000Y-149347434D01*
X210240000Y-146600000D01*
X210440000Y-146600000D01*
X210440000Y-149347434D01*
X210798228Y-149653892D01*
X211127784Y-149563192D01*
X211895635Y-149097057D01*
X212426655Y-148372560D01*
X212640000Y-147500000D01*
X212640000Y-146600000D01*
X210440000Y-146600000D01*
X210240000Y-146600000D01*
X208040000Y-146600000D01*
X207360000Y-146600000D01*
X207360000Y-145541227D01*
X207351800Y-145500000D01*
X208040000Y-145500000D01*
X208040000Y-146400000D01*
X210240000Y-146400000D01*
X210240000Y-143652566D01*
X210440000Y-143652566D01*
X210440000Y-146400000D01*
X212640000Y-146400000D01*
X212640000Y-145541227D01*
X213320000Y-145541227D01*
X213320000Y-147458773D01*
X213479853Y-148262408D01*
X213935076Y-148943697D01*
X214616365Y-149398920D01*
X215420000Y-149558773D01*
X216223635Y-149398920D01*
X216904924Y-148943697D01*
X217360147Y-148262408D01*
X217520000Y-147458773D01*
X217520000Y-145541227D01*
X217360147Y-144737592D01*
X217335029Y-144700000D01*
X218376491Y-144700000D01*
X218376491Y-148300000D01*
X218460166Y-148744693D01*
X218722979Y-149153117D01*
X219123986Y-149427114D01*
X219600000Y-149523509D01*
X221400000Y-149523509D01*
X221844693Y-149439834D01*
X222253117Y-149177021D01*
X222527114Y-148776014D01*
X222623509Y-148300000D01*
X222623509Y-148054511D01*
X224699515Y-148054511D01*
X225124892Y-149084000D01*
X225911857Y-149872340D01*
X226940602Y-150299513D01*
X228054511Y-150300485D01*
X229084000Y-149875108D01*
X229872340Y-149088143D01*
X230299513Y-148059398D01*
X230300485Y-146945489D01*
X229875108Y-145916000D01*
X229088143Y-145127660D01*
X228059398Y-144700487D01*
X226945489Y-144699515D01*
X225916000Y-145124892D01*
X225127660Y-145911857D01*
X224700487Y-146940602D01*
X224699515Y-148054511D01*
X222623509Y-148054511D01*
X222623509Y-144700000D01*
X222539834Y-144255307D01*
X222277021Y-143846883D01*
X221876014Y-143572886D01*
X221400000Y-143476491D01*
X219600000Y-143476491D01*
X219155307Y-143560166D01*
X218746883Y-143822979D01*
X218472886Y-144223986D01*
X218376491Y-144700000D01*
X217335029Y-144700000D01*
X216904924Y-144056303D01*
X216223635Y-143601080D01*
X215420000Y-143441227D01*
X214616365Y-143601080D01*
X213935076Y-144056303D01*
X213479853Y-144737592D01*
X213320000Y-145541227D01*
X212640000Y-145541227D01*
X212640000Y-145500000D01*
X212426655Y-144627440D01*
X211895635Y-143902943D01*
X211127784Y-143436808D01*
X210798228Y-143346108D01*
X210440000Y-143652566D01*
X210240000Y-143652566D01*
X209881772Y-143346108D01*
X209552216Y-143436808D01*
X208784365Y-143902943D01*
X208253345Y-144627440D01*
X208040000Y-145500000D01*
X207351800Y-145500000D01*
X207200147Y-144737592D01*
X206744924Y-144056303D01*
X206063635Y-143601080D01*
X205260000Y-143441227D01*
X204456365Y-143601080D01*
X203775076Y-144056303D01*
X203319853Y-144737592D01*
X203160000Y-145541227D01*
X202280000Y-145541227D01*
X202120147Y-144737592D01*
X201664924Y-144056303D01*
X200983635Y-143601080D01*
X200180000Y-143441227D01*
X199376365Y-143601080D01*
X198695076Y-144056303D01*
X198239853Y-144737592D01*
X198080000Y-145541227D01*
X197200000Y-145541227D01*
X197040147Y-144737592D01*
X196584924Y-144056303D01*
X195903635Y-143601080D01*
X195100000Y-143441227D01*
X194296365Y-143601080D01*
X193615076Y-144056303D01*
X193159853Y-144737592D01*
X193000000Y-145541227D01*
X192320000Y-145541227D01*
X192320000Y-145500000D01*
X192106655Y-144627440D01*
X191575635Y-143902943D01*
X190807784Y-143436808D01*
X190478228Y-143346108D01*
X190120000Y-143652566D01*
X189920000Y-143652566D01*
X189561772Y-143346108D01*
X189232216Y-143436808D01*
X188464365Y-143902943D01*
X187933345Y-144627440D01*
X187720000Y-145500000D01*
X187031800Y-145500000D01*
X186880147Y-144737592D01*
X186640000Y-144378187D01*
X186640000Y-139764164D01*
X192500000Y-133904163D01*
X198297916Y-139702079D01*
X198297918Y-139702082D01*
X198849438Y-140070595D01*
X199500000Y-140200001D01*
X199500005Y-140200000D01*
X206588477Y-140200000D01*
X206752173Y-140363982D01*
X207560473Y-140699618D01*
X208435687Y-140700381D01*
X208628244Y-140620818D01*
X219000000Y-140620818D01*
X219000000Y-140699182D01*
X219152241Y-141464549D01*
X219585786Y-142113396D01*
X220234633Y-142546941D01*
X221000000Y-142699182D01*
X221765367Y-142546941D01*
X222414214Y-142113396D01*
X222847759Y-141464549D01*
X222947957Y-140960818D01*
X223000000Y-140960818D01*
X223000000Y-141039182D01*
X223152241Y-141804549D01*
X223585786Y-142453396D01*
X224234633Y-142886941D01*
X225000000Y-143039182D01*
X225765367Y-142886941D01*
X226414214Y-142453396D01*
X226847759Y-141804549D01*
X227000000Y-141039182D01*
X227000000Y-140960818D01*
X226847759Y-140195451D01*
X226414214Y-139546604D01*
X225765367Y-139113059D01*
X225000000Y-138960818D01*
X224234633Y-139113059D01*
X223585786Y-139546604D01*
X223152241Y-140195451D01*
X223000000Y-140960818D01*
X222947957Y-140960818D01*
X223000000Y-140699182D01*
X223000000Y-140620818D01*
X222847759Y-139855451D01*
X222414214Y-139206604D01*
X221765367Y-138773059D01*
X221000000Y-138620818D01*
X220234633Y-138773059D01*
X219585786Y-139206604D01*
X219152241Y-139855451D01*
X219000000Y-140620818D01*
X208628244Y-140620818D01*
X209244572Y-140366157D01*
X209863982Y-139747827D01*
X210199618Y-138939527D01*
X210200381Y-138064313D01*
X209866157Y-137255428D01*
X209247827Y-136636018D01*
X208439527Y-136300382D01*
X207564313Y-136299619D01*
X206755428Y-136633843D01*
X206588981Y-136800000D01*
X204154141Y-136800000D01*
X204217311Y-136705459D01*
X204400000Y-135787019D01*
X204400000Y-135692981D01*
X204340943Y-135396079D01*
X212999654Y-135396079D01*
X213303494Y-136131429D01*
X213865612Y-136694529D01*
X214600430Y-136999652D01*
X215396079Y-137000346D01*
X216131429Y-136696506D01*
X216694529Y-136134388D01*
X216999652Y-135399570D01*
X217000346Y-134603921D01*
X216696506Y-133868571D01*
X216134388Y-133305471D01*
X215399570Y-133000348D01*
X214603921Y-132999654D01*
X213868571Y-133303494D01*
X213305471Y-133865612D01*
X213000348Y-134600430D01*
X212999654Y-135396079D01*
X204340943Y-135396079D01*
X204217311Y-134774541D01*
X203697056Y-133995925D01*
X202918440Y-133475670D01*
X202000000Y-133292981D01*
X201081560Y-133475670D01*
X200302944Y-133995925D01*
X199782689Y-134774541D01*
X199600000Y-135692981D01*
X199600000Y-135787019D01*
X199701511Y-136297347D01*
X194200000Y-130795836D01*
X194200000Y-130592696D01*
X194674393Y-130789682D01*
X195402413Y-130790317D01*
X195994834Y-130545533D01*
X195750318Y-131134393D01*
X195749683Y-131862413D01*
X196027697Y-132535258D01*
X196542035Y-133050494D01*
X197214393Y-133329682D01*
X197942413Y-133330317D01*
X198615258Y-133052303D01*
X199130494Y-132537965D01*
X199409682Y-131865607D01*
X199410056Y-131435687D01*
X205799619Y-131435687D01*
X206133843Y-132244572D01*
X206752173Y-132863982D01*
X207560473Y-133199618D01*
X208435687Y-133200381D01*
X209244572Y-132866157D01*
X209863982Y-132247827D01*
X210199618Y-131439527D01*
X210200091Y-130896079D01*
X218999654Y-130896079D01*
X219303494Y-131631429D01*
X219865612Y-132194529D01*
X220600430Y-132499652D01*
X221396079Y-132500346D01*
X222131429Y-132196506D01*
X222694529Y-131634388D01*
X222999652Y-130899570D01*
X223000346Y-130103921D01*
X222696506Y-129368571D01*
X222224838Y-128896079D01*
X222999654Y-128896079D01*
X223303494Y-129631429D01*
X223865612Y-130194529D01*
X224600430Y-130499652D01*
X225396079Y-130500346D01*
X226131429Y-130196506D01*
X226694529Y-129634388D01*
X226999652Y-128899570D01*
X227000346Y-128103921D01*
X226696506Y-127368571D01*
X226134388Y-126805471D01*
X225399570Y-126500348D01*
X224603921Y-126499654D01*
X223868571Y-126803494D01*
X223305471Y-127365612D01*
X223000348Y-128100430D01*
X222999654Y-128896079D01*
X222224838Y-128896079D01*
X222134388Y-128805471D01*
X221399570Y-128500348D01*
X220603921Y-128499654D01*
X219868571Y-128803494D01*
X219305471Y-129365612D01*
X219000348Y-130100430D01*
X218999654Y-130896079D01*
X210200091Y-130896079D01*
X210200381Y-130564313D01*
X209866157Y-129755428D01*
X209247827Y-129136018D01*
X208439527Y-128800382D01*
X207564313Y-128799619D01*
X206755428Y-129133843D01*
X206136018Y-129752173D01*
X205800382Y-130560473D01*
X205799619Y-131435687D01*
X199410056Y-131435687D01*
X199410317Y-131137587D01*
X199132303Y-130464742D01*
X198617965Y-129949506D01*
X197945607Y-129670318D01*
X197217587Y-129669683D01*
X196625166Y-129914467D01*
X196721361Y-129682803D01*
X198204163Y-128200000D01*
X206588477Y-128200000D01*
X206752173Y-128363982D01*
X207560473Y-128699618D01*
X208435687Y-128700381D01*
X209244572Y-128366157D01*
X209863982Y-127747827D01*
X210199618Y-126939527D01*
X210200381Y-126064313D01*
X209866157Y-125255428D01*
X209247827Y-124636018D01*
X208439527Y-124300382D01*
X207564313Y-124299619D01*
X206755428Y-124633843D01*
X206588981Y-124800000D01*
X197500000Y-124800000D01*
X196849438Y-124929405D01*
X196297918Y-125297918D01*
X196297916Y-125297921D01*
X194317275Y-127278561D01*
X194200000Y-127327018D01*
X194200000Y-123528628D01*
X194365612Y-123694529D01*
X195100430Y-123999652D01*
X195896079Y-124000346D01*
X196631429Y-123696506D01*
X197194529Y-123134388D01*
X197499652Y-122399570D01*
X197500346Y-121603921D01*
X197388318Y-121332793D01*
X197427114Y-121276014D01*
X197488010Y-120975295D01*
X199599584Y-120975295D01*
X199964192Y-121857715D01*
X200638734Y-122533435D01*
X201520516Y-122899583D01*
X202475295Y-122900416D01*
X203357715Y-122535808D01*
X204033435Y-121861266D01*
X204399583Y-120979484D01*
X204400416Y-120024705D01*
X204157040Y-119435687D01*
X205799619Y-119435687D01*
X206133843Y-120244572D01*
X206752173Y-120863982D01*
X207560473Y-121199618D01*
X208435687Y-121200381D01*
X209244572Y-120866157D01*
X209863982Y-120247827D01*
X210033119Y-119840499D01*
X227300923Y-119840499D01*
X227403890Y-120366987D01*
X228431193Y-120797616D01*
X229545092Y-120802333D01*
X230576006Y-120380421D01*
X230596110Y-120366987D01*
X230699077Y-119840499D01*
X229000000Y-118141421D01*
X227300923Y-119840499D01*
X210033119Y-119840499D01*
X210199618Y-119439527D01*
X210200381Y-118564313D01*
X210192440Y-118545092D01*
X226197667Y-118545092D01*
X226619579Y-119576006D01*
X226633013Y-119596110D01*
X227159501Y-119699077D01*
X228858579Y-118000000D01*
X227159501Y-116300923D01*
X226633013Y-116403890D01*
X226202384Y-117431193D01*
X226197667Y-118545092D01*
X210192440Y-118545092D01*
X209866157Y-117755428D01*
X209247827Y-117136018D01*
X208439527Y-116800382D01*
X207564313Y-116799619D01*
X206755428Y-117133843D01*
X206136018Y-117752173D01*
X205800382Y-118560473D01*
X205799619Y-119435687D01*
X204157040Y-119435687D01*
X204035808Y-119142285D01*
X203459755Y-118565226D01*
X204027470Y-118330650D01*
X204787655Y-117571791D01*
X205199571Y-116579786D01*
X205200509Y-115505660D01*
X204790324Y-114512938D01*
X204743659Y-114466191D01*
X206288967Y-114466191D01*
X206699152Y-115458913D01*
X207458011Y-116219098D01*
X208450016Y-116631014D01*
X209524142Y-116631952D01*
X210516864Y-116221767D01*
X211277049Y-115462908D01*
X211485534Y-114960818D01*
X213000000Y-114960818D01*
X213000000Y-115039182D01*
X213152241Y-115804549D01*
X213585786Y-116453396D01*
X214234633Y-116886941D01*
X215000000Y-117039182D01*
X215765367Y-116886941D01*
X216414214Y-116453396D01*
X216610588Y-116159501D01*
X227300923Y-116159501D01*
X229000000Y-117858579D01*
X230699077Y-116159501D01*
X230596110Y-115633013D01*
X229568807Y-115202384D01*
X228454908Y-115197667D01*
X227423994Y-115619579D01*
X227403890Y-115633013D01*
X227300923Y-116159501D01*
X216610588Y-116159501D01*
X216847759Y-115804549D01*
X217000000Y-115039182D01*
X217000000Y-114960818D01*
X216878175Y-114348364D01*
X217302944Y-114984075D01*
X218081560Y-115504330D01*
X219000000Y-115687019D01*
X219918440Y-115504330D01*
X220697056Y-114984075D01*
X221217311Y-114205459D01*
X221400000Y-113287019D01*
X221400000Y-113192981D01*
X221217311Y-112274541D01*
X220697056Y-111495925D01*
X219918440Y-110975670D01*
X219000000Y-110792981D01*
X218081560Y-110975670D01*
X217302944Y-111495925D01*
X216782689Y-112274541D01*
X216600000Y-113192981D01*
X216600000Y-113287019D01*
X216752273Y-114052545D01*
X216414214Y-113546604D01*
X215765367Y-113113059D01*
X215000000Y-112960818D01*
X214234633Y-113113059D01*
X213585786Y-113546604D01*
X213152241Y-114195451D01*
X213000000Y-114960818D01*
X211485534Y-114960818D01*
X211688965Y-114470903D01*
X211689903Y-113396777D01*
X211279718Y-112404055D01*
X210520859Y-111643870D01*
X209528854Y-111231954D01*
X208454728Y-111231016D01*
X207462006Y-111641201D01*
X206701821Y-112400060D01*
X206289905Y-113392065D01*
X206288967Y-114466191D01*
X204743659Y-114466191D01*
X204629450Y-114351783D01*
X204947783Y-113585151D01*
X204948634Y-112610481D01*
X204576430Y-111709678D01*
X203887835Y-111019880D01*
X202987683Y-110646105D01*
X202013013Y-110645254D01*
X201112210Y-111017458D01*
X200422412Y-111706053D01*
X200048637Y-112606205D01*
X200047786Y-113580875D01*
X200367353Y-114354287D01*
X200212427Y-114508943D01*
X199800511Y-115500948D01*
X199799573Y-116575074D01*
X200209758Y-117567796D01*
X200968617Y-118327981D01*
X200970275Y-118328669D01*
X200642285Y-118464192D01*
X199966565Y-119138734D01*
X199600417Y-120020516D01*
X199599584Y-120975295D01*
X197488010Y-120975295D01*
X197523509Y-120800000D01*
X197523509Y-119200000D01*
X197439834Y-118755307D01*
X197177021Y-118346883D01*
X196776014Y-118072886D01*
X196300000Y-117976491D01*
X194700000Y-117976491D01*
X194255307Y-118060166D01*
X193846883Y-118322979D01*
X193710929Y-118521953D01*
X193297918Y-118797918D01*
X193297916Y-118797921D01*
X191297918Y-120797918D01*
X190929405Y-121349438D01*
X190799999Y-122000000D01*
X190800000Y-122000005D01*
X190800000Y-124680492D01*
X190500000Y-124620818D01*
X189734633Y-124773059D01*
X189085786Y-125206604D01*
X188652241Y-125855451D01*
X188500000Y-126620818D01*
X188500000Y-126699182D01*
X188652241Y-127464549D01*
X189085786Y-128113396D01*
X189734633Y-128546941D01*
X190500000Y-128699182D01*
X190800000Y-128639508D01*
X190800000Y-130795837D01*
X183737918Y-137857918D01*
X183369405Y-138409438D01*
X183239999Y-139060000D01*
X183240000Y-139060005D01*
X183240000Y-144378187D01*
X182999853Y-144737592D01*
X182840000Y-145541227D01*
X181672593Y-145541227D01*
X181445826Y-144964713D01*
X181352302Y-144824745D01*
X180638824Y-144502598D01*
X177641421Y-147500000D01*
X177358579Y-147500000D01*
X174361176Y-144502598D01*
X173775000Y-144767266D01*
X173775000Y-144361176D01*
X174502598Y-144361176D01*
X177500000Y-147358579D01*
X180497402Y-144361176D01*
X180175255Y-143647698D01*
X178497402Y-142917161D01*
X176667703Y-142884319D01*
X174964713Y-143554174D01*
X174824745Y-143647698D01*
X174502598Y-144361176D01*
X173775000Y-144361176D01*
X173775000Y-132460818D01*
X178500000Y-132460818D01*
X178500000Y-132539182D01*
X178652241Y-133304549D01*
X179085786Y-133953396D01*
X179734633Y-134386941D01*
X180500000Y-134539182D01*
X181265367Y-134386941D01*
X181914214Y-133953396D01*
X182347759Y-133304549D01*
X182500000Y-132539182D01*
X182500000Y-132460818D01*
X182347759Y-131695451D01*
X182297891Y-131620818D01*
X182500000Y-131620818D01*
X182500000Y-131699182D01*
X182652241Y-132464549D01*
X183085786Y-133113396D01*
X183734633Y-133546941D01*
X184500000Y-133699182D01*
X185265367Y-133546941D01*
X185914214Y-133113396D01*
X186347759Y-132464549D01*
X186500000Y-131699182D01*
X186500000Y-131620818D01*
X186347759Y-130855451D01*
X185914214Y-130206604D01*
X185265367Y-129773059D01*
X184500000Y-129620818D01*
X183734633Y-129773059D01*
X183085786Y-130206604D01*
X182652241Y-130855451D01*
X182500000Y-131620818D01*
X182297891Y-131620818D01*
X181914214Y-131046604D01*
X181265367Y-130613059D01*
X180500000Y-130460818D01*
X179734633Y-130613059D01*
X179085786Y-131046604D01*
X178652241Y-131695451D01*
X178500000Y-132460818D01*
X173775000Y-132460818D01*
X173775000Y-116014903D01*
X176899550Y-116014903D01*
X177294542Y-116970858D01*
X178025295Y-117702887D01*
X178980559Y-118099548D01*
X179696009Y-118100172D01*
X179744146Y-118148310D01*
X179368571Y-118303494D01*
X178805471Y-118865612D01*
X178500348Y-119600430D01*
X178499654Y-120396079D01*
X178803494Y-121131429D01*
X179365612Y-121694529D01*
X180100430Y-121999652D01*
X180896079Y-122000346D01*
X181148424Y-121896079D01*
X182499654Y-121896079D01*
X182803494Y-122631429D01*
X183365612Y-123194529D01*
X184100430Y-123499652D01*
X184896079Y-123500346D01*
X185631429Y-123196506D01*
X186194529Y-122634388D01*
X186499652Y-121899570D01*
X186500346Y-121103921D01*
X186196506Y-120368571D01*
X185634388Y-119805471D01*
X184899570Y-119500348D01*
X184103921Y-119499654D01*
X183368571Y-119803494D01*
X182805471Y-120365612D01*
X182500348Y-121100430D01*
X182499654Y-121896079D01*
X181148424Y-121896079D01*
X181631429Y-121696506D01*
X182194529Y-121134388D01*
X182499652Y-120399570D01*
X182500346Y-119603921D01*
X182333449Y-119200000D01*
X189499995Y-119200000D01*
X189500000Y-119200001D01*
X190150562Y-119070595D01*
X190702082Y-118702082D01*
X190909267Y-118494897D01*
X191631429Y-118196506D01*
X192194529Y-117634388D01*
X192499652Y-116899570D01*
X192500346Y-116103921D01*
X192196506Y-115368571D01*
X191634388Y-114805471D01*
X190899570Y-114500348D01*
X190103921Y-114499654D01*
X189368571Y-114803494D01*
X188805471Y-115365612D01*
X188625097Y-115800000D01*
X187833379Y-115800000D01*
X187999652Y-115399570D01*
X188000346Y-114603921D01*
X187943577Y-114466527D01*
X193310134Y-114466527D01*
X193720319Y-115459249D01*
X194479178Y-116219434D01*
X195471183Y-116631350D01*
X196545309Y-116632288D01*
X197538031Y-116222103D01*
X198298216Y-115463244D01*
X198710132Y-114471239D01*
X198711070Y-113397113D01*
X198300885Y-112404391D01*
X197542026Y-111644206D01*
X196550021Y-111232290D01*
X195475895Y-111231352D01*
X194483173Y-111641537D01*
X193722988Y-112400396D01*
X193311072Y-113392401D01*
X193310134Y-114466527D01*
X187943577Y-114466527D01*
X187696506Y-113868571D01*
X187134388Y-113305471D01*
X186399570Y-113000348D01*
X185603921Y-112999654D01*
X184868571Y-113303494D01*
X184305471Y-113865612D01*
X184000348Y-114600430D01*
X183999654Y-115396079D01*
X184166551Y-115800000D01*
X182204163Y-115800000D01*
X182099830Y-115695667D01*
X182100450Y-114985097D01*
X181705458Y-114029142D01*
X180974705Y-113297113D01*
X180019441Y-112900452D01*
X178985097Y-112899550D01*
X178029142Y-113294542D01*
X177297113Y-114025295D01*
X176900452Y-114980559D01*
X176899550Y-116014903D01*
X173775000Y-116014903D01*
X173775000Y-103420000D01*
X175441227Y-103420000D01*
X175601080Y-104223635D01*
X176056303Y-104904924D01*
X176737592Y-105360147D01*
X177541227Y-105520000D01*
X177997266Y-105520000D01*
X178500000Y-105620000D01*
X179008730Y-105620000D01*
X179688730Y-106300000D01*
X178500000Y-106300000D01*
X178115454Y-106376491D01*
X176700000Y-106376491D01*
X176255307Y-106460166D01*
X175846883Y-106722979D01*
X175572886Y-107123986D01*
X175476491Y-107600000D01*
X175476491Y-109400000D01*
X175560166Y-109844693D01*
X175822979Y-110253117D01*
X176223986Y-110527114D01*
X176700000Y-110623509D01*
X178115454Y-110623509D01*
X178500000Y-110700000D01*
X190470228Y-110700000D01*
X191460600Y-111111238D01*
X192534726Y-111112176D01*
X193527448Y-110701991D01*
X193617889Y-110611708D01*
X225197900Y-110611708D01*
X225541227Y-110680000D01*
X225997266Y-110680000D01*
X226500000Y-110780000D01*
X227002734Y-110680000D01*
X227458773Y-110680000D01*
X228262408Y-110520147D01*
X228943697Y-110064924D01*
X229398920Y-109383635D01*
X229558773Y-108580000D01*
X229398920Y-107776365D01*
X228943697Y-107095076D01*
X228262408Y-106639853D01*
X227458773Y-106480000D01*
X227324510Y-106480000D01*
X227173612Y-106379173D01*
X226331708Y-106211708D01*
X204649675Y-106211708D01*
X204949573Y-105489473D01*
X204950424Y-104514803D01*
X204650236Y-103788292D01*
X211381096Y-103788292D01*
X211468557Y-103875906D01*
X212460562Y-104287822D01*
X212676741Y-104288011D01*
X213444365Y-105055635D01*
X214158096Y-105532535D01*
X215000000Y-105700000D01*
X226500000Y-105700000D01*
X226884546Y-105623509D01*
X228300000Y-105623509D01*
X228744693Y-105539834D01*
X229153117Y-105277021D01*
X229427114Y-104876014D01*
X229523509Y-104400000D01*
X229523509Y-102600000D01*
X229439834Y-102155307D01*
X229177021Y-101746883D01*
X228776014Y-101472886D01*
X228300000Y-101376491D01*
X226884546Y-101376491D01*
X226500000Y-101300000D01*
X215911270Y-101300000D01*
X215700418Y-101089148D01*
X215700449Y-101053585D01*
X215290264Y-100060863D01*
X214531405Y-99300678D01*
X213539400Y-98888762D01*
X212465274Y-98887824D01*
X211472552Y-99298009D01*
X211382111Y-99388292D01*
X199911708Y-99388292D01*
X199069805Y-99555756D01*
X198356073Y-100032657D01*
X195588730Y-102800000D01*
X194420343Y-102800000D01*
X194699486Y-102127748D01*
X194700424Y-101053622D01*
X194290239Y-100060900D01*
X193531380Y-99300715D01*
X192539375Y-98888799D01*
X191465249Y-98887861D01*
X190472527Y-99298046D01*
X189712342Y-100056905D01*
X189300426Y-101048910D01*
X189299488Y-102123036D01*
X189579204Y-102800000D01*
X182411270Y-102800000D01*
X181475635Y-101864365D01*
X181264036Y-101722979D01*
X180761904Y-101387465D01*
X179920000Y-101220000D01*
X178500000Y-101220000D01*
X177997266Y-101320000D01*
X177541227Y-101320000D01*
X176737592Y-101479853D01*
X176056303Y-101935076D01*
X175601080Y-102616365D01*
X175441227Y-103420000D01*
X173775000Y-103420000D01*
X173775000Y-94960818D01*
X184000000Y-94960818D01*
X184000000Y-95039182D01*
X184152241Y-95804549D01*
X184585786Y-96453396D01*
X185234633Y-96886941D01*
X186000000Y-97039182D01*
X186765367Y-96886941D01*
X187414214Y-96453396D01*
X187847759Y-95804549D01*
X188000000Y-95039182D01*
X188000000Y-94960818D01*
X187847759Y-94195451D01*
X187414214Y-93546604D01*
X186765367Y-93113059D01*
X186000000Y-92960818D01*
X185234633Y-93113059D01*
X184585786Y-93546604D01*
X184152241Y-94195451D01*
X184000000Y-94960818D01*
X173775000Y-94960818D01*
X173775000Y-91192981D01*
X192600000Y-91192981D01*
X192600000Y-91287019D01*
X192782689Y-92205459D01*
X193302944Y-92984075D01*
X194081560Y-93504330D01*
X194799578Y-93647153D01*
X194483259Y-93777853D01*
X193723074Y-94536712D01*
X193311158Y-95528717D01*
X193310220Y-96602843D01*
X193720405Y-97595565D01*
X194479264Y-98355750D01*
X195471269Y-98767666D01*
X196545395Y-98768604D01*
X197538117Y-98358419D01*
X198298302Y-97599560D01*
X198710218Y-96607555D01*
X198711156Y-95533429D01*
X198300971Y-94540707D01*
X197542112Y-93780522D01*
X196550107Y-93368606D01*
X196122125Y-93368232D01*
X196697056Y-92984075D01*
X197217311Y-92205459D01*
X197400000Y-91287019D01*
X197400000Y-91192981D01*
X197217311Y-90274541D01*
X196697056Y-89495925D01*
X195918440Y-88975670D01*
X195000000Y-88792981D01*
X194081560Y-88975670D01*
X193302944Y-89495925D01*
X192782689Y-90274541D01*
X192600000Y-91192981D01*
X173775000Y-91192981D01*
X173775000Y-86975295D01*
X180099584Y-86975295D01*
X180464192Y-87857715D01*
X181138734Y-88533435D01*
X182020516Y-88899583D01*
X182975295Y-88900416D01*
X183857715Y-88535808D01*
X184533435Y-87861266D01*
X184899583Y-86979484D01*
X184900416Y-86024705D01*
X184535808Y-85142285D01*
X183861266Y-84466565D01*
X182979484Y-84100417D01*
X182024705Y-84099584D01*
X181142285Y-84464192D01*
X180466565Y-85138734D01*
X180100417Y-86020516D01*
X180099584Y-86975295D01*
X173775000Y-86975295D01*
X173775000Y-77800000D01*
X180076491Y-77800000D01*
X180076491Y-80200000D01*
X180160166Y-80644693D01*
X180422979Y-81053117D01*
X180823986Y-81327114D01*
X181300000Y-81423509D01*
X183700000Y-81423509D01*
X184144693Y-81339834D01*
X184553117Y-81077021D01*
X184827114Y-80676014D01*
X184923509Y-80200000D01*
X184923509Y-77800000D01*
X184839834Y-77355307D01*
X184577021Y-76946883D01*
X184176014Y-76672886D01*
X183700000Y-76576491D01*
X181300000Y-76576491D01*
X180855307Y-76660166D01*
X180446883Y-76922979D01*
X180172886Y-77323986D01*
X180076491Y-77800000D01*
X173775000Y-77800000D01*
X173775000Y-76475295D01*
X192599584Y-76475295D01*
X192964192Y-77357715D01*
X193300000Y-77694109D01*
X193300000Y-82999995D01*
X193299999Y-83000000D01*
X193429405Y-83650562D01*
X193797918Y-84202082D01*
X197297916Y-87702079D01*
X197297918Y-87702082D01*
X197849438Y-88070595D01*
X198500000Y-88200000D01*
X199689155Y-88200000D01*
X199136018Y-88752173D01*
X198800382Y-89560473D01*
X198799619Y-90435687D01*
X199133843Y-91244572D01*
X199752173Y-91863982D01*
X200476334Y-92164680D01*
X200212345Y-92428209D01*
X199800429Y-93420214D01*
X199799491Y-94494340D01*
X200209676Y-95487062D01*
X200364483Y-95642140D01*
X200083118Y-96319744D01*
X200082267Y-97294414D01*
X200454471Y-98195217D01*
X201143066Y-98885015D01*
X202043218Y-99258790D01*
X203017888Y-99259641D01*
X203918691Y-98887437D01*
X204608489Y-98198842D01*
X204982264Y-97298690D01*
X204982871Y-96602887D01*
X206288930Y-96602887D01*
X206699115Y-97595609D01*
X207457974Y-98355794D01*
X208449979Y-98767710D01*
X209524105Y-98768648D01*
X210516827Y-98358463D01*
X211277012Y-97599604D01*
X211688928Y-96607599D01*
X211689866Y-95533473D01*
X211279681Y-94540751D01*
X210520822Y-93780566D01*
X209528817Y-93368650D01*
X208454691Y-93367712D01*
X207461969Y-93777897D01*
X206701784Y-94536756D01*
X206289868Y-95528761D01*
X206288930Y-96602887D01*
X204982871Y-96602887D01*
X204983115Y-96324020D01*
X204682345Y-95596101D01*
X204787573Y-95491057D01*
X205199489Y-94499052D01*
X205200427Y-93424926D01*
X204790242Y-92432204D01*
X204031383Y-91672019D01*
X203039378Y-91260103D01*
X202851849Y-91259939D01*
X202863982Y-91247827D01*
X203199618Y-90439527D01*
X203200381Y-89564313D01*
X202866157Y-88755428D01*
X202311697Y-88200000D01*
X205406065Y-88200000D01*
X204966565Y-88638734D01*
X204600417Y-89520516D01*
X204599584Y-90475295D01*
X204964192Y-91357715D01*
X205638734Y-92033435D01*
X206520516Y-92399583D01*
X207475295Y-92400416D01*
X208357715Y-92035808D01*
X208898628Y-91495838D01*
X208929405Y-91650562D01*
X209297918Y-92202082D01*
X216297916Y-99202079D01*
X216297918Y-99202082D01*
X216576602Y-99388292D01*
X216849438Y-99570595D01*
X217257785Y-99651821D01*
X217638734Y-100033435D01*
X218520516Y-100399583D01*
X219475295Y-100400416D01*
X220357715Y-100035808D01*
X221033435Y-99361266D01*
X221399583Y-98479484D01*
X221400416Y-97524705D01*
X221035808Y-96642285D01*
X220361266Y-95966565D01*
X219479484Y-95600417D01*
X218524705Y-95599584D01*
X217802256Y-95898093D01*
X212300243Y-90396079D01*
X217999654Y-90396079D01*
X218303494Y-91131429D01*
X218865612Y-91694529D01*
X219600430Y-91999652D01*
X220396079Y-92000346D01*
X221131429Y-91696506D01*
X221694529Y-91134388D01*
X221999652Y-90399570D01*
X221999930Y-90080000D01*
X223441227Y-90080000D01*
X223601080Y-90883635D01*
X224056303Y-91564924D01*
X224737592Y-92020147D01*
X225541227Y-92180000D01*
X227458773Y-92180000D01*
X228262408Y-92020147D01*
X228943697Y-91564924D01*
X229398920Y-90883635D01*
X229558773Y-90080000D01*
X229398920Y-89276365D01*
X228943697Y-88595076D01*
X228262408Y-88139853D01*
X227458773Y-87980000D01*
X225541227Y-87980000D01*
X224737592Y-88139853D01*
X224056303Y-88595076D01*
X223601080Y-89276365D01*
X223441227Y-90080000D01*
X221999930Y-90080000D01*
X222000346Y-89603921D01*
X221696506Y-88868571D01*
X221134388Y-88305471D01*
X220399570Y-88000348D01*
X219603921Y-87999654D01*
X218868571Y-88303494D01*
X218305471Y-88865612D01*
X218000348Y-89600430D01*
X217999654Y-90396079D01*
X212300243Y-90396079D01*
X212200000Y-90295836D01*
X212200000Y-89410725D01*
X212223986Y-89427114D01*
X212700000Y-89523509D01*
X214300000Y-89523509D01*
X214744693Y-89439834D01*
X215153117Y-89177021D01*
X215427114Y-88776014D01*
X215523509Y-88300000D01*
X215523509Y-86700000D01*
X215439834Y-86255307D01*
X215386411Y-86172285D01*
X215499652Y-85899570D01*
X215500044Y-85450000D01*
X223300000Y-85450000D01*
X223300000Y-86178477D01*
X223513137Y-86693036D01*
X223906963Y-87086862D01*
X224421522Y-87300000D01*
X226050000Y-87300000D01*
X226400000Y-86950000D01*
X226400000Y-85100000D01*
X226600000Y-85100000D01*
X226600000Y-86950000D01*
X226950000Y-87300000D01*
X228578478Y-87300000D01*
X229093037Y-87086862D01*
X229486863Y-86693036D01*
X229700000Y-86178477D01*
X229700000Y-85450000D01*
X229350000Y-85100000D01*
X226600000Y-85100000D01*
X226400000Y-85100000D01*
X223650000Y-85100000D01*
X223300000Y-85450000D01*
X215500044Y-85450000D01*
X215500346Y-85103921D01*
X215200000Y-84377027D01*
X215200000Y-83821523D01*
X223300000Y-83821523D01*
X223300000Y-84550000D01*
X223650000Y-84900000D01*
X226400000Y-84900000D01*
X226400000Y-83050000D01*
X226600000Y-83050000D01*
X226600000Y-84900000D01*
X229350000Y-84900000D01*
X229700000Y-84550000D01*
X229700000Y-83821523D01*
X229486863Y-83306964D01*
X229093037Y-82913138D01*
X228578478Y-82700000D01*
X226950000Y-82700000D01*
X226600000Y-83050000D01*
X226400000Y-83050000D01*
X226050000Y-82700000D01*
X224421522Y-82700000D01*
X223906963Y-82913138D01*
X223513137Y-83306964D01*
X223300000Y-83821523D01*
X215200000Y-83821523D01*
X215200000Y-83500005D01*
X215200001Y-83500000D01*
X215070595Y-82849439D01*
X215070595Y-82849438D01*
X214702082Y-82297918D01*
X214702079Y-82297916D01*
X214234369Y-81830205D01*
X214362413Y-81830317D01*
X215035258Y-81552303D01*
X215550494Y-81037965D01*
X215829682Y-80365607D01*
X215830317Y-79637587D01*
X215552303Y-78964742D01*
X215037965Y-78449506D01*
X214365607Y-78170318D01*
X213637587Y-78169683D01*
X213160000Y-78367018D01*
X213160000Y-78164164D01*
X214000000Y-77324164D01*
X217717916Y-81042079D01*
X217717918Y-81042082D01*
X218269438Y-81410595D01*
X218334361Y-81423509D01*
X218920000Y-81540001D01*
X218920005Y-81540000D01*
X218954856Y-81540000D01*
X219234633Y-81726941D01*
X220000000Y-81879182D01*
X220765367Y-81726941D01*
X221414214Y-81293396D01*
X221847759Y-80644549D01*
X222000000Y-79879182D01*
X222000000Y-79800818D01*
X221847759Y-79035451D01*
X221414214Y-78386604D01*
X220765367Y-77953059D01*
X220000000Y-77800818D01*
X219403610Y-77919447D01*
X217999067Y-76514903D01*
X224399550Y-76514903D01*
X224794542Y-77470858D01*
X225525295Y-78202887D01*
X226480559Y-78599548D01*
X227514903Y-78600450D01*
X228470858Y-78205458D01*
X229202887Y-77474705D01*
X229599548Y-76519441D01*
X229600450Y-75485097D01*
X229205458Y-74529142D01*
X228474705Y-73797113D01*
X227519441Y-73400452D01*
X226485097Y-73399550D01*
X225529142Y-73794542D01*
X224797113Y-74525295D01*
X224400452Y-75480559D01*
X224399550Y-76514903D01*
X217999067Y-76514903D01*
X215681439Y-74197275D01*
X215552303Y-73884742D01*
X215037965Y-73369506D01*
X214365607Y-73090318D01*
X213637587Y-73089683D01*
X212964742Y-73367697D01*
X212449506Y-73882035D01*
X212318638Y-74197198D01*
X210737275Y-75778561D01*
X210424742Y-75907697D01*
X209909506Y-76422035D01*
X209778638Y-76737198D01*
X205715836Y-80800000D01*
X202411523Y-80800000D01*
X202247827Y-80636018D01*
X201920453Y-80500080D01*
X202244572Y-80366157D01*
X202863982Y-79747827D01*
X203199618Y-78939527D01*
X203200381Y-78064313D01*
X202866157Y-77255428D01*
X202247827Y-76636018D01*
X201439527Y-76300382D01*
X200564313Y-76299619D01*
X199755428Y-76633843D01*
X199136018Y-77252173D01*
X198800382Y-78060473D01*
X198799619Y-78935687D01*
X199133843Y-79744572D01*
X199752173Y-80363982D01*
X200079547Y-80499920D01*
X199755428Y-80633843D01*
X199136018Y-81252173D01*
X198800382Y-82060473D01*
X198799619Y-82935687D01*
X199133843Y-83744572D01*
X199752173Y-84363982D01*
X200560473Y-84699618D01*
X201435687Y-84700381D01*
X202244572Y-84366157D01*
X202411019Y-84200000D01*
X206419995Y-84200000D01*
X206420000Y-84200001D01*
X207070562Y-84070595D01*
X207622082Y-83702082D01*
X209777281Y-81546882D01*
X209889405Y-82110562D01*
X210257918Y-82662082D01*
X211800000Y-84204163D01*
X211800000Y-84378788D01*
X211500348Y-85100430D01*
X211499654Y-85896079D01*
X211611682Y-86167207D01*
X211572886Y-86223986D01*
X211476491Y-86700000D01*
X211476491Y-87072328D01*
X209702082Y-85297918D01*
X209150562Y-84929405D01*
X208500000Y-84799999D01*
X208499995Y-84800000D01*
X199204163Y-84800000D01*
X196700000Y-82295836D01*
X196700000Y-77694120D01*
X197033435Y-77361266D01*
X197399583Y-76479484D01*
X197400416Y-75524705D01*
X197065019Y-74712981D01*
X204600000Y-74712981D01*
X204600000Y-74807019D01*
X204782689Y-75725459D01*
X205302944Y-76504075D01*
X206081560Y-77024330D01*
X207000000Y-77207019D01*
X207918440Y-77024330D01*
X208697056Y-76504075D01*
X209217311Y-75725459D01*
X209400000Y-74807019D01*
X209400000Y-74712981D01*
X209217311Y-73794541D01*
X208697056Y-73015925D01*
X207918440Y-72495670D01*
X207000000Y-72312981D01*
X206081560Y-72495670D01*
X205302944Y-73015925D01*
X204782689Y-73794541D01*
X204600000Y-74712981D01*
X197065019Y-74712981D01*
X197035808Y-74642285D01*
X196361266Y-73966565D01*
X195479484Y-73600417D01*
X194524705Y-73599584D01*
X193642285Y-73964192D01*
X192966565Y-74638734D01*
X192600417Y-75520516D01*
X192599584Y-76475295D01*
X173775000Y-76475295D01*
X173775000Y-70000000D01*
X175312981Y-70000000D01*
X175495670Y-70918440D01*
X176015925Y-71697056D01*
X176794541Y-72217311D01*
X177712981Y-72400000D01*
X177807019Y-72400000D01*
X178725459Y-72217311D01*
X179504075Y-71697056D01*
X180024330Y-70918440D01*
X180112476Y-70475295D01*
X190599584Y-70475295D01*
X190964192Y-71357715D01*
X191638734Y-72033435D01*
X192520516Y-72399583D01*
X193475295Y-72400416D01*
X194357715Y-72035808D01*
X194958884Y-71435687D01*
X198799619Y-71435687D01*
X199133843Y-72244572D01*
X199752173Y-72863982D01*
X200560473Y-73199618D01*
X201435687Y-73200381D01*
X202244572Y-72866157D01*
X202863982Y-72247827D01*
X203199618Y-71439527D01*
X203200381Y-70564313D01*
X202866157Y-69755428D01*
X202247827Y-69136018D01*
X201439527Y-68800382D01*
X200564313Y-68799619D01*
X199755428Y-69133843D01*
X199136018Y-69752173D01*
X198800382Y-70560473D01*
X198799619Y-71435687D01*
X194958884Y-71435687D01*
X195033435Y-71361266D01*
X195399583Y-70479484D01*
X195400416Y-69524705D01*
X195035808Y-68642285D01*
X194361266Y-67966565D01*
X193479484Y-67600417D01*
X192524705Y-67599584D01*
X191642285Y-67964192D01*
X190966565Y-68638734D01*
X190600417Y-69520516D01*
X190599584Y-70475295D01*
X180112476Y-70475295D01*
X180207019Y-70000000D01*
X180024330Y-69081560D01*
X179504075Y-68302944D01*
X178725459Y-67782689D01*
X177807019Y-67600000D01*
X177712981Y-67600000D01*
X176794541Y-67782689D01*
X176015925Y-68302944D01*
X175495670Y-69081560D01*
X175312981Y-70000000D01*
X173775000Y-70000000D01*
X173775000Y-63054511D01*
X174699515Y-63054511D01*
X175124892Y-64084000D01*
X175911857Y-64872340D01*
X176940602Y-65299513D01*
X178054511Y-65300485D01*
X179084000Y-64875108D01*
X179872340Y-64088143D01*
X180299513Y-63059398D01*
X180300262Y-62200000D01*
X184876491Y-62200000D01*
X184876491Y-65800000D01*
X184960166Y-66244693D01*
X185222979Y-66653117D01*
X185623986Y-66927114D01*
X186100000Y-67023509D01*
X187900000Y-67023509D01*
X188344693Y-66939834D01*
X188753117Y-66677021D01*
X189027114Y-66276014D01*
X189123509Y-65800000D01*
X189123509Y-63041227D01*
X189980000Y-63041227D01*
X189980000Y-64958773D01*
X190139853Y-65762408D01*
X190595076Y-66443697D01*
X191276365Y-66898920D01*
X192080000Y-67058773D01*
X192883635Y-66898920D01*
X193564924Y-66443697D01*
X194020147Y-65762408D01*
X194180000Y-64958773D01*
X194180000Y-63041227D01*
X194020147Y-62237592D01*
X193995029Y-62200000D01*
X204876491Y-62200000D01*
X204876491Y-65800000D01*
X204960166Y-66244693D01*
X205222979Y-66653117D01*
X205623986Y-66927114D01*
X206100000Y-67023509D01*
X207900000Y-67023509D01*
X208344693Y-66939834D01*
X208753117Y-66677021D01*
X209027114Y-66276014D01*
X209123509Y-65800000D01*
X209123509Y-64100000D01*
X209780000Y-64100000D01*
X209780000Y-65000000D01*
X209993345Y-65872560D01*
X210524365Y-66597057D01*
X211292216Y-67063192D01*
X211621772Y-67153892D01*
X211980000Y-66847434D01*
X211980000Y-64100000D01*
X212180000Y-64100000D01*
X212180000Y-66847434D01*
X212538228Y-67153892D01*
X212867784Y-67063192D01*
X213635635Y-66597057D01*
X214166655Y-65872560D01*
X214380000Y-65000000D01*
X214380000Y-64100000D01*
X212180000Y-64100000D01*
X211980000Y-64100000D01*
X209780000Y-64100000D01*
X209123509Y-64100000D01*
X209123509Y-63000000D01*
X209780000Y-63000000D01*
X209780000Y-63900000D01*
X211980000Y-63900000D01*
X211980000Y-61152566D01*
X212180000Y-61152566D01*
X212180000Y-63900000D01*
X214380000Y-63900000D01*
X214380000Y-63054511D01*
X224699515Y-63054511D01*
X225124892Y-64084000D01*
X225911857Y-64872340D01*
X226940602Y-65299513D01*
X228054511Y-65300485D01*
X229084000Y-64875108D01*
X229872340Y-64088143D01*
X230299513Y-63059398D01*
X230300485Y-61945489D01*
X229875108Y-60916000D01*
X229088143Y-60127660D01*
X228059398Y-59700487D01*
X226945489Y-59699515D01*
X225916000Y-60124892D01*
X225127660Y-60911857D01*
X224700487Y-61940602D01*
X224699515Y-63054511D01*
X214380000Y-63054511D01*
X214380000Y-63000000D01*
X214166655Y-62127440D01*
X213635635Y-61402943D01*
X212867784Y-60936808D01*
X212538228Y-60846108D01*
X212180000Y-61152566D01*
X211980000Y-61152566D01*
X211621772Y-60846108D01*
X211292216Y-60936808D01*
X210524365Y-61402943D01*
X209993345Y-62127440D01*
X209780000Y-63000000D01*
X209123509Y-63000000D01*
X209123509Y-62200000D01*
X209039834Y-61755307D01*
X208777021Y-61346883D01*
X208376014Y-61072886D01*
X207900000Y-60976491D01*
X206100000Y-60976491D01*
X205655307Y-61060166D01*
X205246883Y-61322979D01*
X204972886Y-61723986D01*
X204876491Y-62200000D01*
X193995029Y-62200000D01*
X193564924Y-61556303D01*
X192883635Y-61101080D01*
X192080000Y-60941227D01*
X191276365Y-61101080D01*
X190595076Y-61556303D01*
X190139853Y-62237592D01*
X189980000Y-63041227D01*
X189123509Y-63041227D01*
X189123509Y-62200000D01*
X189039834Y-61755307D01*
X188777021Y-61346883D01*
X188376014Y-61072886D01*
X187900000Y-60976491D01*
X186100000Y-60976491D01*
X185655307Y-61060166D01*
X185246883Y-61322979D01*
X184972886Y-61723986D01*
X184876491Y-62200000D01*
X180300262Y-62200000D01*
X180300485Y-61945489D01*
X179875108Y-60916000D01*
X179088143Y-60127660D01*
X178059398Y-59700487D01*
X176945489Y-59699515D01*
X175916000Y-60124892D01*
X175127660Y-60911857D01*
X174700487Y-61940602D01*
X174699515Y-63054511D01*
X173775000Y-63054511D01*
X173775000Y-58775000D01*
X231225000Y-58775000D01*
X231225000Y-116376121D01*
M02*
