G04 #@! TF.FileFunction,Legend,Bot*
%FSLAX46Y46*%
G04 Gerber Fmt 4.6, Leading zero omitted, Abs format (unit mm)*
G04 Created by KiCad (PCBNEW 4.0.6) date Friday, 28 July 2017 'PMt' 20:00:50*
%MOMM*%
%LPD*%
G01*
G04 APERTURE LIST*
%ADD10C,0.100000*%
%ADD11C,0.200000*%
G04 APERTURE END LIST*
D10*
D11*
X205102381Y-100857142D02*
X206102381Y-101190475D01*
X205102381Y-101523809D01*
X206102381Y-102285714D02*
X205578571Y-102285714D01*
X205483333Y-102238095D01*
X205435714Y-102142857D01*
X205435714Y-101952380D01*
X205483333Y-101857142D01*
X206054762Y-102285714D02*
X206102381Y-102190476D01*
X206102381Y-101952380D01*
X206054762Y-101857142D01*
X205959524Y-101809523D01*
X205864286Y-101809523D01*
X205769048Y-101857142D01*
X205721429Y-101952380D01*
X205721429Y-102190476D01*
X205673810Y-102285714D01*
X206102381Y-102904761D02*
X206054762Y-102809523D01*
X205959524Y-102761904D01*
X205102381Y-102761904D01*
X205435714Y-103190476D02*
X206102381Y-103428571D01*
X205435714Y-103666667D01*
X206054762Y-104428572D02*
X206102381Y-104333334D01*
X206102381Y-104142857D01*
X206054762Y-104047619D01*
X205959524Y-104000000D01*
X205578571Y-104000000D01*
X205483333Y-104047619D01*
X205435714Y-104142857D01*
X205435714Y-104333334D01*
X205483333Y-104428572D01*
X205578571Y-104476191D01*
X205673810Y-104476191D01*
X205769048Y-104000000D01*
X206054762Y-105619048D02*
X206102381Y-105714286D01*
X206102381Y-105904762D01*
X206054762Y-106000001D01*
X205959524Y-106047620D01*
X205911905Y-106047620D01*
X205816667Y-106000001D01*
X205769048Y-105904762D01*
X205769048Y-105761905D01*
X205721429Y-105666667D01*
X205626190Y-105619048D01*
X205578571Y-105619048D01*
X205483333Y-105666667D01*
X205435714Y-105761905D01*
X205435714Y-105904762D01*
X205483333Y-106000001D01*
X206102381Y-106619048D02*
X206054762Y-106523810D01*
X206007143Y-106476191D01*
X205911905Y-106428572D01*
X205626190Y-106428572D01*
X205530952Y-106476191D01*
X205483333Y-106523810D01*
X205435714Y-106619048D01*
X205435714Y-106761906D01*
X205483333Y-106857144D01*
X205530952Y-106904763D01*
X205626190Y-106952382D01*
X205911905Y-106952382D01*
X206007143Y-106904763D01*
X206054762Y-106857144D01*
X206102381Y-106761906D01*
X206102381Y-106619048D01*
X206054762Y-107809525D02*
X206102381Y-107714287D01*
X206102381Y-107523810D01*
X206054762Y-107428572D01*
X206007143Y-107380953D01*
X205911905Y-107333334D01*
X205626190Y-107333334D01*
X205530952Y-107380953D01*
X205483333Y-107428572D01*
X205435714Y-107523810D01*
X205435714Y-107714287D01*
X205483333Y-107809525D01*
X206102381Y-108238096D02*
X205102381Y-108238096D01*
X205721429Y-108333334D02*
X206102381Y-108619049D01*
X205435714Y-108619049D02*
X205816667Y-108238096D01*
X206054762Y-109428573D02*
X206102381Y-109333335D01*
X206102381Y-109142858D01*
X206054762Y-109047620D01*
X205959524Y-109000001D01*
X205578571Y-109000001D01*
X205483333Y-109047620D01*
X205435714Y-109142858D01*
X205435714Y-109333335D01*
X205483333Y-109428573D01*
X205578571Y-109476192D01*
X205673810Y-109476192D01*
X205769048Y-109000001D01*
X205435714Y-109761906D02*
X205435714Y-110142858D01*
X205102381Y-109904763D02*
X205959524Y-109904763D01*
X206054762Y-109952382D01*
X206102381Y-110047620D01*
X206102381Y-110142858D01*
X207135714Y-102309524D02*
X207135714Y-102690476D01*
X206802381Y-102452381D02*
X207659524Y-102452381D01*
X207754762Y-102500000D01*
X207802381Y-102595238D01*
X207802381Y-102690476D01*
X207802381Y-103023810D02*
X206802381Y-103023810D01*
X207802381Y-103452382D02*
X207278571Y-103452382D01*
X207183333Y-103404763D01*
X207135714Y-103309525D01*
X207135714Y-103166667D01*
X207183333Y-103071429D01*
X207230952Y-103023810D01*
X207802381Y-103928572D02*
X207135714Y-103928572D01*
X206802381Y-103928572D02*
X206850000Y-103880953D01*
X206897619Y-103928572D01*
X206850000Y-103976191D01*
X206802381Y-103928572D01*
X206897619Y-103928572D01*
X207754762Y-104357143D02*
X207802381Y-104452381D01*
X207802381Y-104642857D01*
X207754762Y-104738096D01*
X207659524Y-104785715D01*
X207611905Y-104785715D01*
X207516667Y-104738096D01*
X207469048Y-104642857D01*
X207469048Y-104500000D01*
X207421429Y-104404762D01*
X207326190Y-104357143D01*
X207278571Y-104357143D01*
X207183333Y-104404762D01*
X207135714Y-104500000D01*
X207135714Y-104642857D01*
X207183333Y-104738096D01*
X207754762Y-105928572D02*
X207802381Y-106023810D01*
X207802381Y-106214286D01*
X207754762Y-106309525D01*
X207659524Y-106357144D01*
X207611905Y-106357144D01*
X207516667Y-106309525D01*
X207469048Y-106214286D01*
X207469048Y-106071429D01*
X207421429Y-105976191D01*
X207326190Y-105928572D01*
X207278571Y-105928572D01*
X207183333Y-105976191D01*
X207135714Y-106071429D01*
X207135714Y-106214286D01*
X207183333Y-106309525D01*
X207802381Y-106785715D02*
X207135714Y-106785715D01*
X206802381Y-106785715D02*
X206850000Y-106738096D01*
X206897619Y-106785715D01*
X206850000Y-106833334D01*
X206802381Y-106785715D01*
X206897619Y-106785715D01*
X207802381Y-107690477D02*
X206802381Y-107690477D01*
X207754762Y-107690477D02*
X207802381Y-107595239D01*
X207802381Y-107404762D01*
X207754762Y-107309524D01*
X207707143Y-107261905D01*
X207611905Y-107214286D01*
X207326190Y-107214286D01*
X207230952Y-107261905D01*
X207183333Y-107309524D01*
X207135714Y-107404762D01*
X207135714Y-107595239D01*
X207183333Y-107690477D01*
X207754762Y-108547620D02*
X207802381Y-108452382D01*
X207802381Y-108261905D01*
X207754762Y-108166667D01*
X207659524Y-108119048D01*
X207278571Y-108119048D01*
X207183333Y-108166667D01*
X207135714Y-108261905D01*
X207135714Y-108452382D01*
X207183333Y-108547620D01*
X207278571Y-108595239D01*
X207373810Y-108595239D01*
X207469048Y-108119048D01*
M02*
