%TF.GenerationSoftware,KiCad,Pcbnew,(5.1.5-0-10_14)*%
%TF.CreationDate,2020-09-13T21:23:24+01:00*%
%TF.ProjectId,EffectsPCB,45666665-6374-4735-9043-422e6b696361,rev?*%
%TF.SameCoordinates,Original*%
%TF.FileFunction,Copper,L2,Bot*%
%TF.FilePolarity,Positive*%
%FSLAX46Y46*%
G04 Gerber Fmt 4.6, Leading zero omitted, Abs format (unit mm)*
G04 Created by KiCad (PCBNEW (5.1.5-0-10_14)) date 2020-09-13 21:23:24*
%MOMM*%
%LPD*%
G04 APERTURE LIST*
%ADD10R,2.400000X2.400000*%
%ADD11C,2.400000*%
%ADD12C,1.600000*%
%ADD13O,1.600000X1.600000*%
%ADD14C,6.400000*%
%ADD15C,1.260000*%
%ADD16R,3.600000X1.800000*%
%ADD17O,3.600000X1.800000*%
%ADD18R,1.800000X3.600000*%
%ADD19O,1.800000X3.600000*%
%ADD20R,2.000000X2.000000*%
%ADD21C,2.000000*%
%ADD22C,3.000000*%
%ADD23O,2.400000X2.400000*%
%ADD24C,1.000000*%
%ADD25C,2.000000*%
%ADD26C,0.800000*%
G04 APERTURE END LIST*
D10*
X186500000Y-85000000D03*
D11*
X186500000Y-92500000D03*
D12*
X207500000Y-90000000D03*
D13*
X207500000Y-79840000D03*
D14*
X180000000Y-137500000D03*
D12*
X200000000Y-119500000D03*
D13*
X200000000Y-129660000D03*
D15*
X215000000Y-84080000D03*
X217540000Y-81540000D03*
X215000000Y-79000000D03*
D16*
X224000000Y-103500000D03*
D17*
X224000000Y-108580000D03*
D16*
X181000000Y-108500000D03*
D17*
X181000000Y-103420000D03*
D18*
X209500000Y-73500000D03*
D19*
X214580000Y-73500000D03*
D12*
X202500000Y-90500000D03*
D13*
X202500000Y-80340000D03*
D12*
X204000000Y-119500000D03*
D13*
X204000000Y-129660000D03*
D20*
X212500000Y-91000000D03*
D21*
X217500000Y-91000000D03*
D20*
X192000000Y-119500000D03*
D21*
X192000000Y-124500000D03*
D22*
X208989435Y-113931484D03*
X202500041Y-116040367D03*
X196010602Y-113931820D03*
X192000019Y-108411708D03*
X191999956Y-101588329D03*
X196010688Y-96068136D03*
X202499959Y-93959633D03*
X208989398Y-96068180D03*
X212999981Y-101588292D03*
D12*
X202500000Y-77000000D03*
D13*
X192340000Y-77000000D03*
D12*
X212000000Y-131500000D03*
D13*
X212000000Y-116500000D03*
D12*
X197000000Y-81000000D03*
D13*
X197000000Y-91160000D03*
D12*
X217000000Y-102000000D03*
D13*
X217000000Y-112160000D03*
D11*
X203000000Y-71500000D03*
D23*
X187760000Y-71500000D03*
D16*
X224000000Y-80000000D03*
D17*
X224000000Y-85080000D03*
X224000000Y-90160000D03*
X224000000Y-95240000D03*
D18*
X215500000Y-136500000D03*
D19*
X210420000Y-136500000D03*
X205340000Y-136500000D03*
X200260000Y-136500000D03*
X195180000Y-136500000D03*
X190100000Y-136500000D03*
D24*
X212500000Y-91000000D02*
X208500000Y-91000000D01*
X208500000Y-91000000D02*
X207500000Y-90000000D01*
X207500000Y-90000000D02*
X207500000Y-94578782D01*
X207500000Y-94578782D02*
X208989398Y-96068180D01*
X190100000Y-136500000D02*
X195180000Y-136500000D01*
X195180000Y-136500000D02*
X195180000Y-134480000D01*
X195180000Y-134480000D02*
X200000000Y-129660000D01*
X186500000Y-92500000D02*
X186500000Y-119000000D01*
X186500000Y-119000000D02*
X192000000Y-124500000D01*
X192000000Y-124500000D02*
X194840000Y-124500000D01*
X194840000Y-124500000D02*
X200000000Y-129660000D01*
X197000000Y-81000000D02*
X190500000Y-81000000D01*
X190500000Y-81000000D02*
X186500000Y-85000000D01*
X187760000Y-71500000D02*
X187760000Y-83740000D01*
X187760000Y-83740000D02*
X186500000Y-85000000D01*
D25*
X187760000Y-71500000D02*
X196500000Y-71500000D01*
X208500000Y-74500000D02*
X209500000Y-73500000D01*
X199500000Y-74500000D02*
X208500000Y-74500000D01*
X196500000Y-71500000D02*
X199500000Y-74500000D01*
D24*
X192000000Y-119500000D02*
X200000000Y-119500000D01*
X196010602Y-113931820D02*
X196010602Y-115510602D01*
X196010602Y-115510602D02*
X200000000Y-119500000D01*
X215500000Y-136500000D02*
X215500000Y-135000000D01*
X215500000Y-135000000D02*
X212000000Y-131500000D01*
X205340000Y-136500000D02*
X205340000Y-131000000D01*
X205340000Y-131000000D02*
X204000000Y-129660000D01*
X217500000Y-91000000D02*
X223160000Y-91000000D01*
X223160000Y-91000000D02*
X224000000Y-90160000D01*
X215000000Y-79000000D02*
X223000000Y-79000000D01*
X223000000Y-79000000D02*
X224000000Y-80000000D01*
X202500000Y-90500000D02*
X202500000Y-93959592D01*
D25*
X202500000Y-93959592D02*
X202499959Y-93959633D01*
D24*
X202500000Y-93921122D02*
X202461421Y-93959701D01*
X202500000Y-80340000D02*
X202840000Y-80340000D01*
X202840000Y-80340000D02*
X205000000Y-82500000D01*
X212460000Y-81540000D02*
X217540000Y-81540000D01*
X211500000Y-82500000D02*
X212460000Y-81540000D01*
X205000000Y-82500000D02*
X211500000Y-82500000D01*
X202500000Y-77000000D02*
X202500000Y-80340000D01*
X202500000Y-79840000D02*
X202660000Y-79840000D01*
X197000000Y-91160000D02*
X197000000Y-95078824D01*
X197000000Y-95078824D02*
X196010688Y-96068136D01*
X212000000Y-116500000D02*
X212660000Y-116500000D01*
X212660000Y-116500000D02*
X217000000Y-112160000D01*
X212000000Y-116500000D02*
X211557951Y-116500000D01*
X211557951Y-116500000D02*
X208989435Y-113931484D01*
D25*
X192000019Y-108411708D02*
X192000019Y-101588392D01*
X192000019Y-101588392D02*
X191999956Y-101588329D01*
D24*
X204000000Y-119500000D02*
X204000000Y-117540326D01*
X204000000Y-117540326D02*
X202500041Y-116040367D01*
X202500000Y-116040408D02*
X202500041Y-116040367D01*
D25*
X214580000Y-73500000D02*
X214580000Y-70580000D01*
X205000000Y-69500000D02*
X203000000Y-71500000D01*
X213500000Y-69500000D02*
X205000000Y-69500000D01*
X214580000Y-70580000D02*
X213500000Y-69500000D01*
D26*
G36*
X202123355Y-69265376D02*
G01*
X201863174Y-69373147D01*
X201470089Y-69635798D01*
X201135798Y-69970089D01*
X200873147Y-70363174D01*
X200692230Y-70799946D01*
X200600000Y-71263621D01*
X200600000Y-71736379D01*
X200692230Y-72200054D01*
X200733629Y-72300000D01*
X200411270Y-72300000D01*
X198132057Y-70020789D01*
X198063161Y-69936839D01*
X197728168Y-69661917D01*
X197345977Y-69457631D01*
X196931275Y-69331833D01*
X196608070Y-69300000D01*
X196608060Y-69300000D01*
X196500000Y-69289357D01*
X196391940Y-69300000D01*
X188720234Y-69300000D01*
X188460054Y-69192230D01*
X187996379Y-69100000D01*
X187523621Y-69100000D01*
X187059946Y-69192230D01*
X186623174Y-69373147D01*
X186230089Y-69635798D01*
X185895798Y-69970089D01*
X185633147Y-70363174D01*
X185452230Y-70799946D01*
X185360000Y-71263621D01*
X185360000Y-71736379D01*
X185452230Y-72200054D01*
X185633147Y-72636826D01*
X185895798Y-73029911D01*
X186060000Y-73194113D01*
X186060001Y-82594194D01*
X185300000Y-82594194D01*
X185064759Y-82617363D01*
X184838558Y-82685981D01*
X184630090Y-82797409D01*
X184447366Y-82947366D01*
X184297409Y-83130090D01*
X184185981Y-83338558D01*
X184117363Y-83564759D01*
X184094194Y-83800000D01*
X184094194Y-86200000D01*
X184117363Y-86435241D01*
X184185981Y-86661442D01*
X184297409Y-86869910D01*
X184447366Y-87052634D01*
X184630090Y-87202591D01*
X184838558Y-87314019D01*
X185064759Y-87382637D01*
X185300000Y-87405806D01*
X187700000Y-87405806D01*
X187935241Y-87382637D01*
X188161442Y-87314019D01*
X188369910Y-87202591D01*
X188552634Y-87052634D01*
X188702591Y-86869910D01*
X188814019Y-86661442D01*
X188882637Y-86435241D01*
X188905806Y-86200000D01*
X188905806Y-84998854D01*
X188967897Y-84947897D01*
X189021131Y-84883032D01*
X191204163Y-82700000D01*
X195944325Y-82700000D01*
X196052645Y-82772377D01*
X196416622Y-82923141D01*
X196803017Y-83000000D01*
X197196983Y-83000000D01*
X197583378Y-82923141D01*
X197947355Y-82772377D01*
X198274926Y-82553501D01*
X198553501Y-82274926D01*
X198772377Y-81947355D01*
X198923141Y-81583378D01*
X199000000Y-81196983D01*
X199000000Y-80803017D01*
X198923141Y-80416622D01*
X198772377Y-80052645D01*
X198553501Y-79725074D01*
X198274926Y-79446499D01*
X197947355Y-79227623D01*
X197583378Y-79076859D01*
X197196983Y-79000000D01*
X196803017Y-79000000D01*
X196416622Y-79076859D01*
X196052645Y-79227623D01*
X195944325Y-79300000D01*
X190583499Y-79300000D01*
X190499999Y-79291776D01*
X190416499Y-79300000D01*
X190416490Y-79300000D01*
X190166742Y-79324598D01*
X189846291Y-79421806D01*
X189550961Y-79579663D01*
X189550959Y-79579664D01*
X189550960Y-79579664D01*
X189460000Y-79654313D01*
X189460000Y-76803017D01*
X190340000Y-76803017D01*
X190340000Y-77196983D01*
X190416859Y-77583378D01*
X190567623Y-77947355D01*
X190786499Y-78274926D01*
X191065074Y-78553501D01*
X191392645Y-78772377D01*
X191756622Y-78923141D01*
X192143017Y-79000000D01*
X192536983Y-79000000D01*
X192923378Y-78923141D01*
X193287355Y-78772377D01*
X193614926Y-78553501D01*
X193893501Y-78274926D01*
X194112377Y-77947355D01*
X194263141Y-77583378D01*
X194340000Y-77196983D01*
X194340000Y-76803017D01*
X194263141Y-76416622D01*
X194112377Y-76052645D01*
X193893501Y-75725074D01*
X193614926Y-75446499D01*
X193287355Y-75227623D01*
X192923378Y-75076859D01*
X192536983Y-75000000D01*
X192143017Y-75000000D01*
X191756622Y-75076859D01*
X191392645Y-75227623D01*
X191065074Y-75446499D01*
X190786499Y-75725074D01*
X190567623Y-76052645D01*
X190416859Y-76416622D01*
X190340000Y-76803017D01*
X189460000Y-76803017D01*
X189460000Y-73700000D01*
X195588732Y-73700000D01*
X197867951Y-75979221D01*
X197936839Y-76063161D01*
X198020778Y-76132048D01*
X198020782Y-76132052D01*
X198048178Y-76154535D01*
X198271832Y-76338083D01*
X198654023Y-76542369D01*
X199068725Y-76668167D01*
X199391930Y-76700000D01*
X199391938Y-76700000D01*
X199500000Y-76710643D01*
X199608062Y-76700000D01*
X200520491Y-76700000D01*
X200500000Y-76803017D01*
X200500000Y-77196983D01*
X200576859Y-77583378D01*
X200727623Y-77947355D01*
X200800000Y-78055675D01*
X200800001Y-79284324D01*
X200727623Y-79392645D01*
X200576859Y-79756622D01*
X200500000Y-80143017D01*
X200500000Y-80536983D01*
X200576859Y-80923378D01*
X200727623Y-81287355D01*
X200946499Y-81614926D01*
X201225074Y-81893501D01*
X201552645Y-82112377D01*
X201916622Y-82263141D01*
X202303017Y-82340000D01*
X202435837Y-82340000D01*
X203738872Y-83643035D01*
X203792103Y-83707897D01*
X203856965Y-83761128D01*
X203856968Y-83761131D01*
X203904330Y-83800000D01*
X204050961Y-83920337D01*
X204346291Y-84078194D01*
X204666742Y-84175402D01*
X204916490Y-84200000D01*
X204916499Y-84200000D01*
X204999999Y-84208224D01*
X205083499Y-84200000D01*
X211416500Y-84200000D01*
X211500000Y-84208224D01*
X211583500Y-84200000D01*
X211583510Y-84200000D01*
X211833258Y-84175402D01*
X212153709Y-84078194D01*
X212449039Y-83920337D01*
X212595670Y-83800000D01*
X212643031Y-83761132D01*
X212643035Y-83761128D01*
X212707897Y-83707897D01*
X212761128Y-83643035D01*
X213164163Y-83240000D01*
X213367162Y-83240000D01*
X213240325Y-83546209D01*
X213170000Y-83899761D01*
X213170000Y-84260239D01*
X213240325Y-84613791D01*
X213378275Y-84946830D01*
X213578546Y-85246557D01*
X213833443Y-85501454D01*
X214133170Y-85701725D01*
X214466209Y-85839675D01*
X214819761Y-85910000D01*
X215180239Y-85910000D01*
X215533791Y-85839675D01*
X215866830Y-85701725D01*
X216111520Y-85538228D01*
X220846108Y-85538228D01*
X220936808Y-85867784D01*
X221132062Y-86274665D01*
X221402943Y-86635635D01*
X221739041Y-86936823D01*
X222127440Y-87166655D01*
X222553214Y-87316297D01*
X223000000Y-87380000D01*
X223900000Y-87380000D01*
X223900000Y-85180000D01*
X224100000Y-85180000D01*
X224100000Y-87380000D01*
X225000000Y-87380000D01*
X225446786Y-87316297D01*
X225872560Y-87166655D01*
X226260959Y-86936823D01*
X226597057Y-86635635D01*
X226867938Y-86274665D01*
X227063192Y-85867784D01*
X227153892Y-85538228D01*
X226847434Y-85180000D01*
X224100000Y-85180000D01*
X223900000Y-85180000D01*
X221152566Y-85180000D01*
X220846108Y-85538228D01*
X216111520Y-85538228D01*
X216166557Y-85501454D01*
X216421454Y-85246557D01*
X216621725Y-84946830D01*
X216756369Y-84621772D01*
X220846108Y-84621772D01*
X221152566Y-84980000D01*
X223900000Y-84980000D01*
X223900000Y-82780000D01*
X224100000Y-82780000D01*
X224100000Y-84980000D01*
X226847434Y-84980000D01*
X227153892Y-84621772D01*
X227063192Y-84292216D01*
X226867938Y-83885335D01*
X226597057Y-83524365D01*
X226260959Y-83223177D01*
X225872560Y-82993345D01*
X225446786Y-82843703D01*
X225000000Y-82780000D01*
X224100000Y-82780000D01*
X223900000Y-82780000D01*
X223000000Y-82780000D01*
X222553214Y-82843703D01*
X222127440Y-82993345D01*
X221739041Y-83223177D01*
X221402943Y-83524365D01*
X221132062Y-83885335D01*
X220936808Y-84292216D01*
X220846108Y-84621772D01*
X216756369Y-84621772D01*
X216759675Y-84613791D01*
X216830000Y-84260239D01*
X216830000Y-83899761D01*
X216759675Y-83546209D01*
X216632838Y-83240000D01*
X216862142Y-83240000D01*
X217006209Y-83299675D01*
X217359761Y-83370000D01*
X217720239Y-83370000D01*
X218073791Y-83299675D01*
X218406830Y-83161725D01*
X218706557Y-82961454D01*
X218961454Y-82706557D01*
X219161725Y-82406830D01*
X219299675Y-82073791D01*
X219370000Y-81720239D01*
X219370000Y-81359761D01*
X219299675Y-81006209D01*
X219172838Y-80700000D01*
X220994194Y-80700000D01*
X220994194Y-80900000D01*
X221017363Y-81135241D01*
X221085981Y-81361442D01*
X221197409Y-81569910D01*
X221347366Y-81752634D01*
X221530090Y-81902591D01*
X221738558Y-82014019D01*
X221964759Y-82082637D01*
X222200000Y-82105806D01*
X225800000Y-82105806D01*
X226035241Y-82082637D01*
X226261442Y-82014019D01*
X226469910Y-81902591D01*
X226652634Y-81752634D01*
X226802591Y-81569910D01*
X226914019Y-81361442D01*
X226982637Y-81135241D01*
X227005806Y-80900000D01*
X227005806Y-79100000D01*
X226982637Y-78864759D01*
X226914019Y-78638558D01*
X226802591Y-78430090D01*
X226652634Y-78247366D01*
X226469910Y-78097409D01*
X226261442Y-77985981D01*
X226035241Y-77917363D01*
X225800000Y-77894194D01*
X224298357Y-77894194D01*
X224261129Y-77856966D01*
X224207897Y-77792103D01*
X224143035Y-77738872D01*
X224143031Y-77738868D01*
X223949039Y-77579663D01*
X223946949Y-77578546D01*
X223653709Y-77421806D01*
X223333258Y-77324598D01*
X223083510Y-77300000D01*
X223083500Y-77300000D01*
X223000000Y-77291776D01*
X222916500Y-77300000D01*
X215677858Y-77300000D01*
X215533791Y-77240325D01*
X215180239Y-77170000D01*
X214819761Y-77170000D01*
X214466209Y-77240325D01*
X214133170Y-77378275D01*
X213833443Y-77578546D01*
X213578546Y-77833443D01*
X213378275Y-78133170D01*
X213240325Y-78466209D01*
X213170000Y-78819761D01*
X213170000Y-79180239D01*
X213240325Y-79533791D01*
X213367162Y-79840000D01*
X212543499Y-79840000D01*
X212459999Y-79831776D01*
X212376499Y-79840000D01*
X212376490Y-79840000D01*
X212126742Y-79864598D01*
X211806291Y-79961806D01*
X211734835Y-80000000D01*
X211510960Y-80119663D01*
X211316969Y-80278868D01*
X211316965Y-80278872D01*
X211252103Y-80332103D01*
X211198872Y-80396965D01*
X210795837Y-80800000D01*
X209263928Y-80800000D01*
X209272377Y-80787355D01*
X209423141Y-80423378D01*
X209500000Y-80036983D01*
X209500000Y-79643017D01*
X209423141Y-79256622D01*
X209272377Y-78892645D01*
X209053501Y-78565074D01*
X208774926Y-78286499D01*
X208447355Y-78067623D01*
X208083378Y-77916859D01*
X207696983Y-77840000D01*
X207303017Y-77840000D01*
X206916622Y-77916859D01*
X206552645Y-78067623D01*
X206225074Y-78286499D01*
X205946499Y-78565074D01*
X205727623Y-78892645D01*
X205576859Y-79256622D01*
X205500000Y-79643017D01*
X205500000Y-80036983D01*
X205576859Y-80423378D01*
X205727623Y-80787355D01*
X205736072Y-80800000D01*
X205704163Y-80800000D01*
X204302525Y-79398362D01*
X204238194Y-79186291D01*
X204200000Y-79114835D01*
X204200000Y-78055675D01*
X204272377Y-77947355D01*
X204423141Y-77583378D01*
X204500000Y-77196983D01*
X204500000Y-76803017D01*
X204479509Y-76700000D01*
X208391940Y-76700000D01*
X208500000Y-76710643D01*
X208608060Y-76700000D01*
X208608070Y-76700000D01*
X208931275Y-76668167D01*
X209345977Y-76542369D01*
X209414381Y-76505806D01*
X210400000Y-76505806D01*
X210635241Y-76482637D01*
X210861442Y-76414019D01*
X211069910Y-76302591D01*
X211252634Y-76152634D01*
X211402591Y-75969910D01*
X211514019Y-75761442D01*
X211582637Y-75535241D01*
X211605806Y-75300000D01*
X211605806Y-74136852D01*
X211668167Y-73931275D01*
X211710643Y-73500000D01*
X211668167Y-73068725D01*
X211605806Y-72863148D01*
X211605806Y-71700000D01*
X212380000Y-71700000D01*
X212380000Y-73608069D01*
X212411833Y-73931274D01*
X212480000Y-74155991D01*
X212480000Y-74503167D01*
X212510386Y-74811672D01*
X212630466Y-75207524D01*
X212825466Y-75572343D01*
X213087892Y-75892109D01*
X213407658Y-76154535D01*
X213772477Y-76349535D01*
X214168329Y-76469615D01*
X214580000Y-76510161D01*
X214991672Y-76469615D01*
X215387524Y-76349535D01*
X215752343Y-76154535D01*
X216072109Y-75892109D01*
X216334535Y-75572343D01*
X216529535Y-75207524D01*
X216649615Y-74811672D01*
X216680000Y-74503166D01*
X216680000Y-74155992D01*
X216748167Y-73931275D01*
X216780000Y-73608070D01*
X216780000Y-72224224D01*
X222200000Y-72224224D01*
X222200000Y-72775776D01*
X222307602Y-73316730D01*
X222518672Y-73826297D01*
X222825098Y-74284896D01*
X223215104Y-74674902D01*
X223673703Y-74981328D01*
X224183270Y-75192398D01*
X224724224Y-75300000D01*
X225275776Y-75300000D01*
X225816730Y-75192398D01*
X226326297Y-74981328D01*
X226784896Y-74674902D01*
X227174902Y-74284896D01*
X227481328Y-73826297D01*
X227692398Y-73316730D01*
X227800000Y-72775776D01*
X227800000Y-72224224D01*
X227692398Y-71683270D01*
X227481328Y-71173703D01*
X227174902Y-70715104D01*
X226784896Y-70325098D01*
X226326297Y-70018672D01*
X225816730Y-69807602D01*
X225275776Y-69700000D01*
X224724224Y-69700000D01*
X224183270Y-69807602D01*
X223673703Y-70018672D01*
X223215104Y-70325098D01*
X222825098Y-70715104D01*
X222518672Y-71173703D01*
X222307602Y-71683270D01*
X222200000Y-72224224D01*
X216780000Y-72224224D01*
X216780000Y-70688062D01*
X216790643Y-70580000D01*
X216780000Y-70471938D01*
X216780000Y-70471930D01*
X216748167Y-70148725D01*
X216622369Y-69734023D01*
X216418083Y-69351832D01*
X216143161Y-69016839D01*
X216059215Y-68947947D01*
X215886269Y-68775000D01*
X228725000Y-68775000D01*
X228725001Y-141225000D01*
X182667531Y-141225000D01*
X182949403Y-140590825D01*
X180000000Y-137641421D01*
X177050597Y-140590825D01*
X177332469Y-141225000D01*
X176275000Y-141225000D01*
X176275000Y-140167531D01*
X176909175Y-140449403D01*
X179858579Y-137500000D01*
X180141421Y-137500000D01*
X183090825Y-140449403D01*
X183797388Y-140135357D01*
X184238554Y-139343885D01*
X184516836Y-138481554D01*
X184621538Y-137581503D01*
X184548637Y-136678319D01*
X184300935Y-135806713D01*
X183887949Y-135000178D01*
X183797388Y-134864643D01*
X183090825Y-134550597D01*
X180141421Y-137500000D01*
X179858579Y-137500000D01*
X176909175Y-134550597D01*
X176275000Y-134832469D01*
X176275000Y-134409175D01*
X177050597Y-134409175D01*
X180000000Y-137358579D01*
X182949403Y-134409175D01*
X182635357Y-133702612D01*
X181843885Y-133261446D01*
X180981554Y-132983164D01*
X180081503Y-132878462D01*
X179178319Y-132951363D01*
X178306713Y-133199065D01*
X177500178Y-133612051D01*
X177364643Y-133702612D01*
X177050597Y-134409175D01*
X176275000Y-134409175D01*
X176275000Y-107600000D01*
X177994194Y-107600000D01*
X177994194Y-109400000D01*
X178017363Y-109635241D01*
X178085981Y-109861442D01*
X178197409Y-110069910D01*
X178347366Y-110252634D01*
X178530090Y-110402591D01*
X178738558Y-110514019D01*
X178964759Y-110582637D01*
X179200000Y-110605806D01*
X182800000Y-110605806D01*
X183035241Y-110582637D01*
X183261442Y-110514019D01*
X183469910Y-110402591D01*
X183652634Y-110252634D01*
X183802591Y-110069910D01*
X183914019Y-109861442D01*
X183982637Y-109635241D01*
X184005806Y-109400000D01*
X184005806Y-107600000D01*
X183982637Y-107364759D01*
X183914019Y-107138558D01*
X183802591Y-106930090D01*
X183652634Y-106747366D01*
X183469910Y-106597409D01*
X183261442Y-106485981D01*
X183035241Y-106417363D01*
X182800000Y-106394194D01*
X179200000Y-106394194D01*
X178964759Y-106417363D01*
X178738558Y-106485981D01*
X178530090Y-106597409D01*
X178347366Y-106747366D01*
X178197409Y-106930090D01*
X178085981Y-107138558D01*
X178017363Y-107364759D01*
X177994194Y-107600000D01*
X176275000Y-107600000D01*
X176275000Y-103420000D01*
X177989839Y-103420000D01*
X178030385Y-103831672D01*
X178150465Y-104227524D01*
X178345465Y-104592343D01*
X178607891Y-104912109D01*
X178927657Y-105174535D01*
X179292476Y-105369535D01*
X179688328Y-105489615D01*
X179996833Y-105520000D01*
X182003167Y-105520000D01*
X182311672Y-105489615D01*
X182707524Y-105369535D01*
X183072343Y-105174535D01*
X183392109Y-104912109D01*
X183654535Y-104592343D01*
X183849535Y-104227524D01*
X183969615Y-103831672D01*
X184010161Y-103420000D01*
X183969615Y-103008328D01*
X183849535Y-102612476D01*
X183654535Y-102247657D01*
X183392109Y-101927891D01*
X183072343Y-101665465D01*
X182707524Y-101470465D01*
X182311672Y-101350385D01*
X182003167Y-101320000D01*
X179996833Y-101320000D01*
X179688328Y-101350385D01*
X179292476Y-101470465D01*
X178927657Y-101665465D01*
X178607891Y-101927891D01*
X178345465Y-102247657D01*
X178150465Y-102612476D01*
X178030385Y-103008328D01*
X177989839Y-103420000D01*
X176275000Y-103420000D01*
X176275000Y-92263621D01*
X184100000Y-92263621D01*
X184100000Y-92736379D01*
X184192230Y-93200054D01*
X184373147Y-93636826D01*
X184635798Y-94029911D01*
X184800000Y-94194113D01*
X184800001Y-118916490D01*
X184791776Y-119000000D01*
X184824599Y-119333258D01*
X184921807Y-119653709D01*
X185079663Y-119949039D01*
X185238868Y-120143031D01*
X185238877Y-120143040D01*
X185292104Y-120207897D01*
X185356961Y-120261124D01*
X189800000Y-124704163D01*
X189800000Y-124716681D01*
X189884545Y-125141716D01*
X190050385Y-125542091D01*
X190291148Y-125902418D01*
X190597582Y-126208852D01*
X190957909Y-126449615D01*
X191358284Y-126615455D01*
X191783319Y-126700000D01*
X192216681Y-126700000D01*
X192641716Y-126615455D01*
X193042091Y-126449615D01*
X193402418Y-126208852D01*
X193411270Y-126200000D01*
X194135837Y-126200000D01*
X197595837Y-129660000D01*
X194036961Y-133218876D01*
X193972104Y-133272103D01*
X193918877Y-133336960D01*
X193918868Y-133336969D01*
X193759663Y-133530961D01*
X193601807Y-133826291D01*
X193504599Y-134146742D01*
X193483950Y-134356394D01*
X193425466Y-134427657D01*
X193230466Y-134792476D01*
X193228184Y-134800000D01*
X192051817Y-134800000D01*
X192049535Y-134792476D01*
X191854535Y-134427657D01*
X191592109Y-134107891D01*
X191272343Y-133845465D01*
X190907524Y-133650465D01*
X190511672Y-133530385D01*
X190100000Y-133489839D01*
X189688329Y-133530385D01*
X189292477Y-133650465D01*
X188927658Y-133845465D01*
X188607892Y-134107891D01*
X188345466Y-134427657D01*
X188150466Y-134792476D01*
X188030386Y-135188328D01*
X188000000Y-135496833D01*
X188000000Y-137503166D01*
X188030385Y-137811671D01*
X188150465Y-138207523D01*
X188345465Y-138572343D01*
X188607891Y-138892109D01*
X188927657Y-139154535D01*
X189292476Y-139349535D01*
X189688328Y-139469615D01*
X190100000Y-139510161D01*
X190511671Y-139469615D01*
X190907523Y-139349535D01*
X191272343Y-139154535D01*
X191592109Y-138892109D01*
X191854535Y-138572343D01*
X192049535Y-138207524D01*
X192051817Y-138200000D01*
X193228183Y-138200000D01*
X193230465Y-138207523D01*
X193425465Y-138572343D01*
X193687891Y-138892109D01*
X194007657Y-139154535D01*
X194372476Y-139349535D01*
X194768328Y-139469615D01*
X195180000Y-139510161D01*
X195591671Y-139469615D01*
X195987523Y-139349535D01*
X196352343Y-139154535D01*
X196672109Y-138892109D01*
X196934535Y-138572343D01*
X197129535Y-138207524D01*
X197249615Y-137811672D01*
X197280000Y-137503167D01*
X197280000Y-136600000D01*
X197960000Y-136600000D01*
X197960000Y-137500000D01*
X198023703Y-137946786D01*
X198173345Y-138372560D01*
X198403177Y-138760959D01*
X198704365Y-139097057D01*
X199065335Y-139367938D01*
X199472216Y-139563192D01*
X199801772Y-139653892D01*
X200160000Y-139347434D01*
X200160000Y-136600000D01*
X200360000Y-136600000D01*
X200360000Y-139347434D01*
X200718228Y-139653892D01*
X201047784Y-139563192D01*
X201454665Y-139367938D01*
X201815635Y-139097057D01*
X202116823Y-138760959D01*
X202346655Y-138372560D01*
X202496297Y-137946786D01*
X202560000Y-137500000D01*
X202560000Y-136600000D01*
X200360000Y-136600000D01*
X200160000Y-136600000D01*
X197960000Y-136600000D01*
X197280000Y-136600000D01*
X197280000Y-135500000D01*
X197960000Y-135500000D01*
X197960000Y-136400000D01*
X200160000Y-136400000D01*
X200160000Y-133652566D01*
X200360000Y-133652566D01*
X200360000Y-136400000D01*
X202560000Y-136400000D01*
X202560000Y-135500000D01*
X202496297Y-135053214D01*
X202346655Y-134627440D01*
X202116823Y-134239041D01*
X201815635Y-133902943D01*
X201454665Y-133632062D01*
X201047784Y-133436808D01*
X200718228Y-133346108D01*
X200360000Y-133652566D01*
X200160000Y-133652566D01*
X199801772Y-133346108D01*
X199472216Y-133436808D01*
X199065335Y-133632062D01*
X198704365Y-133902943D01*
X198403177Y-134239041D01*
X198173345Y-134627440D01*
X198023703Y-135053214D01*
X197960000Y-135500000D01*
X197280000Y-135500000D01*
X197280000Y-135496834D01*
X197249615Y-135188328D01*
X197162620Y-134901543D01*
X200455607Y-131608556D01*
X200583378Y-131583141D01*
X200947355Y-131432377D01*
X201274926Y-131213501D01*
X201553501Y-130934926D01*
X201772377Y-130607355D01*
X201923141Y-130243378D01*
X202000000Y-129856983D01*
X202076859Y-130243378D01*
X202227623Y-130607355D01*
X202446499Y-130934926D01*
X202725074Y-131213501D01*
X203052645Y-131432377D01*
X203416622Y-131583141D01*
X203544393Y-131608556D01*
X203640001Y-131704164D01*
X203640000Y-134361207D01*
X203585466Y-134427657D01*
X203390466Y-134792476D01*
X203270386Y-135188328D01*
X203240000Y-135496833D01*
X203240000Y-137503166D01*
X203270385Y-137811671D01*
X203390465Y-138207523D01*
X203585465Y-138572343D01*
X203847891Y-138892109D01*
X204167657Y-139154535D01*
X204532476Y-139349535D01*
X204928328Y-139469615D01*
X205340000Y-139510161D01*
X205751671Y-139469615D01*
X206147523Y-139349535D01*
X206512343Y-139154535D01*
X206832109Y-138892109D01*
X207094535Y-138572343D01*
X207289535Y-138207524D01*
X207409615Y-137811672D01*
X207440000Y-137503167D01*
X207440000Y-136600000D01*
X208120000Y-136600000D01*
X208120000Y-137500000D01*
X208183703Y-137946786D01*
X208333345Y-138372560D01*
X208563177Y-138760959D01*
X208864365Y-139097057D01*
X209225335Y-139367938D01*
X209632216Y-139563192D01*
X209961772Y-139653892D01*
X210320000Y-139347434D01*
X210320000Y-136600000D01*
X210520000Y-136600000D01*
X210520000Y-139347434D01*
X210878228Y-139653892D01*
X211207784Y-139563192D01*
X211614665Y-139367938D01*
X211975635Y-139097057D01*
X212276823Y-138760959D01*
X212506655Y-138372560D01*
X212656297Y-137946786D01*
X212720000Y-137500000D01*
X212720000Y-136600000D01*
X210520000Y-136600000D01*
X210320000Y-136600000D01*
X208120000Y-136600000D01*
X207440000Y-136600000D01*
X207440000Y-135500000D01*
X208120000Y-135500000D01*
X208120000Y-136400000D01*
X210320000Y-136400000D01*
X210320000Y-133652566D01*
X210520000Y-133652566D01*
X210520000Y-136400000D01*
X212720000Y-136400000D01*
X212720000Y-135500000D01*
X212656297Y-135053214D01*
X212506655Y-134627440D01*
X212276823Y-134239041D01*
X211975635Y-133902943D01*
X211614665Y-133632062D01*
X211207784Y-133436808D01*
X210878228Y-133346108D01*
X210520000Y-133652566D01*
X210320000Y-133652566D01*
X209961772Y-133346108D01*
X209632216Y-133436808D01*
X209225335Y-133632062D01*
X208864365Y-133902943D01*
X208563177Y-134239041D01*
X208333345Y-134627440D01*
X208183703Y-135053214D01*
X208120000Y-135500000D01*
X207440000Y-135500000D01*
X207440000Y-135496834D01*
X207409615Y-135188328D01*
X207289535Y-134792476D01*
X207094535Y-134427657D01*
X207040000Y-134361206D01*
X207040000Y-131303017D01*
X210000000Y-131303017D01*
X210000000Y-131696983D01*
X210076859Y-132083378D01*
X210227623Y-132447355D01*
X210446499Y-132774926D01*
X210725074Y-133053501D01*
X211052645Y-133272377D01*
X211416622Y-133423141D01*
X211544393Y-133448556D01*
X213394194Y-135298357D01*
X213394194Y-138300000D01*
X213417363Y-138535241D01*
X213485981Y-138761442D01*
X213597409Y-138969910D01*
X213747366Y-139152634D01*
X213930090Y-139302591D01*
X214138558Y-139414019D01*
X214364759Y-139482637D01*
X214600000Y-139505806D01*
X216400000Y-139505806D01*
X216635241Y-139482637D01*
X216861442Y-139414019D01*
X217069910Y-139302591D01*
X217252634Y-139152634D01*
X217402591Y-138969910D01*
X217514019Y-138761442D01*
X217582637Y-138535241D01*
X217605806Y-138300000D01*
X217605806Y-137224224D01*
X222200000Y-137224224D01*
X222200000Y-137775776D01*
X222307602Y-138316730D01*
X222518672Y-138826297D01*
X222825098Y-139284896D01*
X223215104Y-139674902D01*
X223673703Y-139981328D01*
X224183270Y-140192398D01*
X224724224Y-140300000D01*
X225275776Y-140300000D01*
X225816730Y-140192398D01*
X226326297Y-139981328D01*
X226784896Y-139674902D01*
X227174902Y-139284896D01*
X227481328Y-138826297D01*
X227692398Y-138316730D01*
X227800000Y-137775776D01*
X227800000Y-137224224D01*
X227692398Y-136683270D01*
X227481328Y-136173703D01*
X227174902Y-135715104D01*
X226784896Y-135325098D01*
X226326297Y-135018672D01*
X225816730Y-134807602D01*
X225275776Y-134700000D01*
X224724224Y-134700000D01*
X224183270Y-134807602D01*
X223673703Y-135018672D01*
X223215104Y-135325098D01*
X222825098Y-135715104D01*
X222518672Y-136173703D01*
X222307602Y-136683270D01*
X222200000Y-137224224D01*
X217605806Y-137224224D01*
X217605806Y-134700000D01*
X217582637Y-134464759D01*
X217514019Y-134238558D01*
X217402591Y-134030090D01*
X217252634Y-133847366D01*
X217069910Y-133697409D01*
X216861442Y-133585981D01*
X216635241Y-133517363D01*
X216400000Y-133494194D01*
X216398357Y-133494194D01*
X213948556Y-131044393D01*
X213923141Y-130916622D01*
X213772377Y-130552645D01*
X213553501Y-130225074D01*
X213274926Y-129946499D01*
X212947355Y-129727623D01*
X212583378Y-129576859D01*
X212196983Y-129500000D01*
X211803017Y-129500000D01*
X211416622Y-129576859D01*
X211052645Y-129727623D01*
X210725074Y-129946499D01*
X210446499Y-130225074D01*
X210227623Y-130552645D01*
X210076859Y-130916622D01*
X210000000Y-131303017D01*
X207040000Y-131303017D01*
X207040000Y-131083499D01*
X207048224Y-130999999D01*
X207040000Y-130916499D01*
X207040000Y-130916490D01*
X207015402Y-130666742D01*
X206918194Y-130346291D01*
X206760337Y-130050961D01*
X206547897Y-129792103D01*
X206483035Y-129738872D01*
X205948556Y-129204393D01*
X205923141Y-129076622D01*
X205772377Y-128712645D01*
X205553501Y-128385074D01*
X205274926Y-128106499D01*
X204947355Y-127887623D01*
X204583378Y-127736859D01*
X204196983Y-127660000D01*
X203803017Y-127660000D01*
X203416622Y-127736859D01*
X203052645Y-127887623D01*
X202725074Y-128106499D01*
X202446499Y-128385074D01*
X202227623Y-128712645D01*
X202076859Y-129076622D01*
X202000000Y-129463017D01*
X201923141Y-129076622D01*
X201772377Y-128712645D01*
X201553501Y-128385074D01*
X201274926Y-128106499D01*
X200947355Y-127887623D01*
X200583378Y-127736859D01*
X200455608Y-127711444D01*
X196101128Y-123356965D01*
X196047897Y-123292103D01*
X195983035Y-123238872D01*
X195983031Y-123238868D01*
X195789039Y-123079663D01*
X195493709Y-122921806D01*
X195173258Y-122824598D01*
X194923510Y-122800000D01*
X194923500Y-122800000D01*
X194840000Y-122791776D01*
X194756500Y-122800000D01*
X193411270Y-122800000D01*
X193402418Y-122791148D01*
X193042091Y-122550385D01*
X192641716Y-122384545D01*
X192216681Y-122300000D01*
X192204163Y-122300000D01*
X191609969Y-121705806D01*
X193000000Y-121705806D01*
X193235241Y-121682637D01*
X193461442Y-121614019D01*
X193669910Y-121502591D01*
X193852634Y-121352634D01*
X193977897Y-121200000D01*
X198944325Y-121200000D01*
X199052645Y-121272377D01*
X199416622Y-121423141D01*
X199803017Y-121500000D01*
X200196983Y-121500000D01*
X200583378Y-121423141D01*
X200947355Y-121272377D01*
X201274926Y-121053501D01*
X201553501Y-120774926D01*
X201772377Y-120447355D01*
X201923141Y-120083378D01*
X202000000Y-119696983D01*
X202076859Y-120083378D01*
X202227623Y-120447355D01*
X202446499Y-120774926D01*
X202725074Y-121053501D01*
X203052645Y-121272377D01*
X203416622Y-121423141D01*
X203803017Y-121500000D01*
X204196983Y-121500000D01*
X204583378Y-121423141D01*
X204947355Y-121272377D01*
X205274926Y-121053501D01*
X205553501Y-120774926D01*
X205772377Y-120447355D01*
X205923141Y-120083378D01*
X206000000Y-119696983D01*
X206000000Y-119303017D01*
X205923141Y-118916622D01*
X205772377Y-118552645D01*
X205700000Y-118444325D01*
X205700000Y-117623825D01*
X205708224Y-117540325D01*
X205700000Y-117456825D01*
X205700000Y-117456816D01*
X205675402Y-117207068D01*
X205578194Y-116886617D01*
X205420337Y-116591287D01*
X205368172Y-116527724D01*
X205261131Y-116397294D01*
X205261128Y-116397291D01*
X205207897Y-116332429D01*
X205196674Y-116323219D01*
X205200041Y-116306294D01*
X205200041Y-115774440D01*
X205096281Y-115252806D01*
X204892750Y-114761437D01*
X204597268Y-114319217D01*
X204221191Y-113943140D01*
X203805759Y-113665557D01*
X206289435Y-113665557D01*
X206289435Y-114197411D01*
X206393195Y-114719045D01*
X206596726Y-115210414D01*
X206892208Y-115652634D01*
X207268285Y-116028711D01*
X207710505Y-116324193D01*
X208201874Y-116527724D01*
X208723508Y-116631484D01*
X209255362Y-116631484D01*
X209280310Y-116626522D01*
X210296823Y-117643035D01*
X210350054Y-117707897D01*
X210414916Y-117761128D01*
X210414919Y-117761131D01*
X210452659Y-117792103D01*
X210514097Y-117842524D01*
X210725074Y-118053501D01*
X211052645Y-118272377D01*
X211416622Y-118423141D01*
X211803017Y-118500000D01*
X212196983Y-118500000D01*
X212583378Y-118423141D01*
X212947355Y-118272377D01*
X213174996Y-118120272D01*
X213313709Y-118078194D01*
X213609039Y-117920337D01*
X213755670Y-117800000D01*
X213803031Y-117761132D01*
X213803035Y-117761128D01*
X213867897Y-117707897D01*
X213921128Y-117643035D01*
X217455607Y-114108556D01*
X217583378Y-114083141D01*
X217947355Y-113932377D01*
X218274926Y-113713501D01*
X218553501Y-113434926D01*
X218772377Y-113107355D01*
X218923141Y-112743378D01*
X219000000Y-112356983D01*
X219000000Y-111963017D01*
X218923141Y-111576622D01*
X218772377Y-111212645D01*
X218553501Y-110885074D01*
X218274926Y-110606499D01*
X217947355Y-110387623D01*
X217583378Y-110236859D01*
X217196983Y-110160000D01*
X216803017Y-110160000D01*
X216416622Y-110236859D01*
X216052645Y-110387623D01*
X215725074Y-110606499D01*
X215446499Y-110885074D01*
X215227623Y-111212645D01*
X215076859Y-111576622D01*
X215051444Y-111704393D01*
X212246072Y-114509765D01*
X212196983Y-114500000D01*
X211962114Y-114500000D01*
X211684473Y-114222359D01*
X211689435Y-114197411D01*
X211689435Y-113665557D01*
X211585675Y-113143923D01*
X211382144Y-112652554D01*
X211086662Y-112210334D01*
X210710585Y-111834257D01*
X210268365Y-111538775D01*
X209776996Y-111335244D01*
X209255362Y-111231484D01*
X208723508Y-111231484D01*
X208201874Y-111335244D01*
X207710505Y-111538775D01*
X207268285Y-111834257D01*
X206892208Y-112210334D01*
X206596726Y-112652554D01*
X206393195Y-113143923D01*
X206289435Y-113665557D01*
X203805759Y-113665557D01*
X203778971Y-113647658D01*
X203287602Y-113444127D01*
X202765968Y-113340367D01*
X202234114Y-113340367D01*
X201712480Y-113444127D01*
X201221111Y-113647658D01*
X200778891Y-113943140D01*
X200402814Y-114319217D01*
X200107332Y-114761437D01*
X199903801Y-115252806D01*
X199800041Y-115774440D01*
X199800041Y-116306294D01*
X199903801Y-116827928D01*
X200025218Y-117121055D01*
X198287795Y-115383632D01*
X198403311Y-115210750D01*
X198606842Y-114719381D01*
X198710602Y-114197747D01*
X198710602Y-113665893D01*
X198606842Y-113144259D01*
X198403311Y-112652890D01*
X198107829Y-112210670D01*
X197731752Y-111834593D01*
X197289532Y-111539111D01*
X196798163Y-111335580D01*
X196276529Y-111231820D01*
X195744675Y-111231820D01*
X195223041Y-111335580D01*
X194731672Y-111539111D01*
X194289452Y-111834593D01*
X193913375Y-112210670D01*
X193617893Y-112652890D01*
X193414362Y-113144259D01*
X193310602Y-113665893D01*
X193310602Y-114197747D01*
X193414362Y-114719381D01*
X193617893Y-115210750D01*
X193913375Y-115652970D01*
X194289452Y-116029047D01*
X194417288Y-116114464D01*
X194432409Y-116164311D01*
X194590265Y-116459641D01*
X194749470Y-116653633D01*
X194749479Y-116653642D01*
X194802706Y-116718499D01*
X194867563Y-116771726D01*
X195895837Y-117800000D01*
X193977897Y-117800000D01*
X193852634Y-117647366D01*
X193669910Y-117497409D01*
X193461442Y-117385981D01*
X193235241Y-117317363D01*
X193000000Y-117294194D01*
X191000000Y-117294194D01*
X190764759Y-117317363D01*
X190538558Y-117385981D01*
X190330090Y-117497409D01*
X190147366Y-117647366D01*
X189997409Y-117830090D01*
X189885981Y-118038558D01*
X189817363Y-118264759D01*
X189794194Y-118500000D01*
X189794194Y-119890031D01*
X188200000Y-118295837D01*
X188200000Y-101322402D01*
X189299956Y-101322402D01*
X189299956Y-101854256D01*
X189403716Y-102375890D01*
X189607247Y-102867259D01*
X189800020Y-103155764D01*
X189800019Y-106844368D01*
X189607310Y-107132778D01*
X189403779Y-107624147D01*
X189300019Y-108145781D01*
X189300019Y-108677635D01*
X189403779Y-109199269D01*
X189607310Y-109690638D01*
X189902792Y-110132858D01*
X190278869Y-110508935D01*
X190721089Y-110804417D01*
X191212458Y-111007948D01*
X191734092Y-111111708D01*
X192265946Y-111111708D01*
X192787580Y-111007948D01*
X193278949Y-110804417D01*
X193721169Y-110508935D01*
X194097246Y-110132858D01*
X194392728Y-109690638D01*
X194596259Y-109199269D01*
X194700019Y-108677635D01*
X194700019Y-108580000D01*
X220989839Y-108580000D01*
X221030385Y-108991672D01*
X221150465Y-109387524D01*
X221345465Y-109752343D01*
X221607891Y-110072109D01*
X221927657Y-110334535D01*
X222292476Y-110529535D01*
X222688328Y-110649615D01*
X222996833Y-110680000D01*
X225003167Y-110680000D01*
X225311672Y-110649615D01*
X225707524Y-110529535D01*
X226072343Y-110334535D01*
X226392109Y-110072109D01*
X226654535Y-109752343D01*
X226849535Y-109387524D01*
X226969615Y-108991672D01*
X227010161Y-108580000D01*
X226969615Y-108168328D01*
X226849535Y-107772476D01*
X226654535Y-107407657D01*
X226392109Y-107087891D01*
X226072343Y-106825465D01*
X225707524Y-106630465D01*
X225311672Y-106510385D01*
X225003167Y-106480000D01*
X222996833Y-106480000D01*
X222688328Y-106510385D01*
X222292476Y-106630465D01*
X221927657Y-106825465D01*
X221607891Y-107087891D01*
X221345465Y-107407657D01*
X221150465Y-107772476D01*
X221030385Y-108168328D01*
X220989839Y-108580000D01*
X194700019Y-108580000D01*
X194700019Y-108145781D01*
X194596259Y-107624147D01*
X194392728Y-107132778D01*
X194200019Y-106844369D01*
X194200019Y-104758696D01*
X200050000Y-104758696D01*
X200050000Y-105241304D01*
X200144152Y-105714639D01*
X200328838Y-106160510D01*
X200596960Y-106561784D01*
X200938216Y-106903040D01*
X201339490Y-107171162D01*
X201785361Y-107355848D01*
X202258696Y-107450000D01*
X202741304Y-107450000D01*
X203214639Y-107355848D01*
X203660510Y-107171162D01*
X204061784Y-106903040D01*
X204403040Y-106561784D01*
X204671162Y-106160510D01*
X204855848Y-105714639D01*
X204950000Y-105241304D01*
X204950000Y-104758696D01*
X204855848Y-104285361D01*
X204671162Y-103839490D01*
X204403040Y-103438216D01*
X204061784Y-103096960D01*
X203660510Y-102828838D01*
X203214639Y-102644152D01*
X202741304Y-102550000D01*
X202258696Y-102550000D01*
X201785361Y-102644152D01*
X201339490Y-102828838D01*
X200938216Y-103096960D01*
X200596960Y-103438216D01*
X200328838Y-103839490D01*
X200144152Y-104285361D01*
X200050000Y-104758696D01*
X194200019Y-104758696D01*
X194200019Y-103155574D01*
X194392665Y-102867259D01*
X194596196Y-102375890D01*
X194699956Y-101854256D01*
X194699956Y-101322402D01*
X194699949Y-101322365D01*
X210299981Y-101322365D01*
X210299981Y-101854219D01*
X210403741Y-102375853D01*
X210607272Y-102867222D01*
X210902754Y-103309442D01*
X211278831Y-103685519D01*
X211721051Y-103981001D01*
X212212420Y-104184532D01*
X212734054Y-104288292D01*
X213265908Y-104288292D01*
X213787542Y-104184532D01*
X214278911Y-103981001D01*
X214721131Y-103685519D01*
X215097208Y-103309442D01*
X215283385Y-103030809D01*
X215446499Y-103274926D01*
X215725074Y-103553501D01*
X216052645Y-103772377D01*
X216416622Y-103923141D01*
X216803017Y-104000000D01*
X217196983Y-104000000D01*
X217583378Y-103923141D01*
X217947355Y-103772377D01*
X218274926Y-103553501D01*
X218553501Y-103274926D01*
X218772377Y-102947355D01*
X218916255Y-102600000D01*
X220994194Y-102600000D01*
X220994194Y-104400000D01*
X221017363Y-104635241D01*
X221085981Y-104861442D01*
X221197409Y-105069910D01*
X221347366Y-105252634D01*
X221530090Y-105402591D01*
X221738558Y-105514019D01*
X221964759Y-105582637D01*
X222200000Y-105605806D01*
X225800000Y-105605806D01*
X226035241Y-105582637D01*
X226261442Y-105514019D01*
X226469910Y-105402591D01*
X226652634Y-105252634D01*
X226802591Y-105069910D01*
X226914019Y-104861442D01*
X226982637Y-104635241D01*
X227005806Y-104400000D01*
X227005806Y-102600000D01*
X226982637Y-102364759D01*
X226914019Y-102138558D01*
X226802591Y-101930090D01*
X226652634Y-101747366D01*
X226469910Y-101597409D01*
X226261442Y-101485981D01*
X226035241Y-101417363D01*
X225800000Y-101394194D01*
X222200000Y-101394194D01*
X221964759Y-101417363D01*
X221738558Y-101485981D01*
X221530090Y-101597409D01*
X221347366Y-101747366D01*
X221197409Y-101930090D01*
X221085981Y-102138558D01*
X221017363Y-102364759D01*
X220994194Y-102600000D01*
X218916255Y-102600000D01*
X218923141Y-102583378D01*
X219000000Y-102196983D01*
X219000000Y-101803017D01*
X218923141Y-101416622D01*
X218772377Y-101052645D01*
X218553501Y-100725074D01*
X218274926Y-100446499D01*
X217947355Y-100227623D01*
X217583378Y-100076859D01*
X217196983Y-100000000D01*
X216803017Y-100000000D01*
X216416622Y-100076859D01*
X216052645Y-100227623D01*
X215725074Y-100446499D01*
X215530209Y-100641364D01*
X215392690Y-100309362D01*
X215097208Y-99867142D01*
X214721131Y-99491065D01*
X214278911Y-99195583D01*
X213787542Y-98992052D01*
X213265908Y-98888292D01*
X212734054Y-98888292D01*
X212212420Y-98992052D01*
X211721051Y-99195583D01*
X211278831Y-99491065D01*
X210902754Y-99867142D01*
X210607272Y-100309362D01*
X210403741Y-100800731D01*
X210299981Y-101322365D01*
X194699949Y-101322365D01*
X194596196Y-100800768D01*
X194392665Y-100309399D01*
X194097183Y-99867179D01*
X193721106Y-99491102D01*
X193278886Y-99195620D01*
X192787517Y-98992089D01*
X192265883Y-98888329D01*
X191734029Y-98888329D01*
X191212395Y-98992089D01*
X190721026Y-99195620D01*
X190278806Y-99491102D01*
X189902729Y-99867179D01*
X189607247Y-100309399D01*
X189403716Y-100800768D01*
X189299956Y-101322402D01*
X188200000Y-101322402D01*
X188200000Y-95802209D01*
X193310688Y-95802209D01*
X193310688Y-96334063D01*
X193414448Y-96855697D01*
X193617979Y-97347066D01*
X193913461Y-97789286D01*
X194289538Y-98165363D01*
X194731758Y-98460845D01*
X195223127Y-98664376D01*
X195744761Y-98768136D01*
X196276615Y-98768136D01*
X196798249Y-98664376D01*
X197289618Y-98460845D01*
X197731838Y-98165363D01*
X198107915Y-97789286D01*
X198403397Y-97347066D01*
X198606928Y-96855697D01*
X198710688Y-96334063D01*
X198710688Y-95802209D01*
X198649845Y-95496332D01*
X198675402Y-95412082D01*
X198700000Y-95162334D01*
X198700000Y-95162325D01*
X198708224Y-95078825D01*
X198700000Y-94995325D01*
X198700000Y-93693706D01*
X199799959Y-93693706D01*
X199799959Y-94225560D01*
X199903719Y-94747194D01*
X200107250Y-95238563D01*
X200402732Y-95680783D01*
X200778809Y-96056860D01*
X201221029Y-96352342D01*
X201712398Y-96555873D01*
X202234032Y-96659633D01*
X202765886Y-96659633D01*
X203287520Y-96555873D01*
X203778889Y-96352342D01*
X204221109Y-96056860D01*
X204597186Y-95680783D01*
X204892668Y-95238563D01*
X205096199Y-94747194D01*
X205199959Y-94225560D01*
X205199959Y-93693706D01*
X205096199Y-93172072D01*
X204892668Y-92680703D01*
X204597186Y-92238483D01*
X204221109Y-91862406D01*
X204200000Y-91848301D01*
X204200000Y-91555675D01*
X204272377Y-91447355D01*
X204423141Y-91083378D01*
X204500000Y-90696983D01*
X204500000Y-90303017D01*
X204423141Y-89916622D01*
X204376085Y-89803017D01*
X205500000Y-89803017D01*
X205500000Y-90196983D01*
X205576859Y-90583378D01*
X205727623Y-90947355D01*
X205800000Y-91055675D01*
X205800001Y-94495272D01*
X205791776Y-94578782D01*
X205824599Y-94912040D01*
X205921807Y-95232491D01*
X206079663Y-95527821D01*
X206238868Y-95721813D01*
X206238877Y-95721822D01*
X206292104Y-95786679D01*
X206292441Y-95786955D01*
X206289398Y-95802253D01*
X206289398Y-96334107D01*
X206393158Y-96855741D01*
X206596689Y-97347110D01*
X206892171Y-97789330D01*
X207268248Y-98165407D01*
X207710468Y-98460889D01*
X208201837Y-98664420D01*
X208723471Y-98768180D01*
X209255325Y-98768180D01*
X209776959Y-98664420D01*
X210268328Y-98460889D01*
X210710548Y-98165407D01*
X211086625Y-97789330D01*
X211382107Y-97347110D01*
X211585638Y-96855741D01*
X211689398Y-96334107D01*
X211689398Y-95802253D01*
X211668707Y-95698228D01*
X220846108Y-95698228D01*
X220936808Y-96027784D01*
X221132062Y-96434665D01*
X221402943Y-96795635D01*
X221739041Y-97096823D01*
X222127440Y-97326655D01*
X222553214Y-97476297D01*
X223000000Y-97540000D01*
X223900000Y-97540000D01*
X223900000Y-95340000D01*
X224100000Y-95340000D01*
X224100000Y-97540000D01*
X225000000Y-97540000D01*
X225446786Y-97476297D01*
X225872560Y-97326655D01*
X226260959Y-97096823D01*
X226597057Y-96795635D01*
X226867938Y-96434665D01*
X227063192Y-96027784D01*
X227153892Y-95698228D01*
X226847434Y-95340000D01*
X224100000Y-95340000D01*
X223900000Y-95340000D01*
X221152566Y-95340000D01*
X220846108Y-95698228D01*
X211668707Y-95698228D01*
X211585638Y-95280619D01*
X211382107Y-94789250D01*
X211377111Y-94781772D01*
X220846108Y-94781772D01*
X221152566Y-95140000D01*
X223900000Y-95140000D01*
X223900000Y-92940000D01*
X224100000Y-92940000D01*
X224100000Y-95140000D01*
X226847434Y-95140000D01*
X227153892Y-94781772D01*
X227063192Y-94452216D01*
X226867938Y-94045335D01*
X226597057Y-93684365D01*
X226260959Y-93383177D01*
X225872560Y-93153345D01*
X225446786Y-93003703D01*
X225000000Y-92940000D01*
X224100000Y-92940000D01*
X223900000Y-92940000D01*
X223000000Y-92940000D01*
X222553214Y-93003703D01*
X222127440Y-93153345D01*
X221739041Y-93383177D01*
X221402943Y-93684365D01*
X221132062Y-94045335D01*
X220936808Y-94452216D01*
X220846108Y-94781772D01*
X211377111Y-94781772D01*
X211086625Y-94347030D01*
X210710548Y-93970953D01*
X210268328Y-93675471D01*
X209776959Y-93471940D01*
X209255325Y-93368180D01*
X209200000Y-93368180D01*
X209200000Y-92700000D01*
X210522103Y-92700000D01*
X210647366Y-92852634D01*
X210830090Y-93002591D01*
X211038558Y-93114019D01*
X211264759Y-93182637D01*
X211500000Y-93205806D01*
X213500000Y-93205806D01*
X213735241Y-93182637D01*
X213961442Y-93114019D01*
X214169910Y-93002591D01*
X214352634Y-92852634D01*
X214502591Y-92669910D01*
X214614019Y-92461442D01*
X214682637Y-92235241D01*
X214705806Y-92000000D01*
X214705806Y-90783319D01*
X215300000Y-90783319D01*
X215300000Y-91216681D01*
X215384545Y-91641716D01*
X215550385Y-92042091D01*
X215791148Y-92402418D01*
X216097582Y-92708852D01*
X216457909Y-92949615D01*
X216858284Y-93115455D01*
X217283319Y-93200000D01*
X217716681Y-93200000D01*
X218141716Y-93115455D01*
X218542091Y-92949615D01*
X218902418Y-92708852D01*
X218911270Y-92700000D01*
X223076500Y-92700000D01*
X223160000Y-92708224D01*
X223243500Y-92700000D01*
X223243510Y-92700000D01*
X223493258Y-92675402D01*
X223813709Y-92578194D01*
X224109039Y-92420337D01*
X224130873Y-92402418D01*
X224303031Y-92261132D01*
X224303035Y-92261128D01*
X224304410Y-92260000D01*
X225003167Y-92260000D01*
X225311672Y-92229615D01*
X225707524Y-92109535D01*
X226072343Y-91914535D01*
X226392109Y-91652109D01*
X226654535Y-91332343D01*
X226849535Y-90967524D01*
X226969615Y-90571672D01*
X227010161Y-90160000D01*
X226969615Y-89748328D01*
X226849535Y-89352476D01*
X226654535Y-88987657D01*
X226392109Y-88667891D01*
X226072343Y-88405465D01*
X225707524Y-88210465D01*
X225311672Y-88090385D01*
X225003167Y-88060000D01*
X222996833Y-88060000D01*
X222688328Y-88090385D01*
X222292476Y-88210465D01*
X221927657Y-88405465D01*
X221607891Y-88667891D01*
X221345465Y-88987657D01*
X221178514Y-89300000D01*
X218911270Y-89300000D01*
X218902418Y-89291148D01*
X218542091Y-89050385D01*
X218141716Y-88884545D01*
X217716681Y-88800000D01*
X217283319Y-88800000D01*
X216858284Y-88884545D01*
X216457909Y-89050385D01*
X216097582Y-89291148D01*
X215791148Y-89597582D01*
X215550385Y-89957909D01*
X215384545Y-90358284D01*
X215300000Y-90783319D01*
X214705806Y-90783319D01*
X214705806Y-90000000D01*
X214682637Y-89764759D01*
X214614019Y-89538558D01*
X214502591Y-89330090D01*
X214352634Y-89147366D01*
X214169910Y-88997409D01*
X213961442Y-88885981D01*
X213735241Y-88817363D01*
X213500000Y-88794194D01*
X211500000Y-88794194D01*
X211264759Y-88817363D01*
X211038558Y-88885981D01*
X210830090Y-88997409D01*
X210647366Y-89147366D01*
X210522103Y-89300000D01*
X209374835Y-89300000D01*
X209272377Y-89052645D01*
X209053501Y-88725074D01*
X208774926Y-88446499D01*
X208447355Y-88227623D01*
X208083378Y-88076859D01*
X207696983Y-88000000D01*
X207303017Y-88000000D01*
X206916622Y-88076859D01*
X206552645Y-88227623D01*
X206225074Y-88446499D01*
X205946499Y-88725074D01*
X205727623Y-89052645D01*
X205576859Y-89416622D01*
X205500000Y-89803017D01*
X204376085Y-89803017D01*
X204272377Y-89552645D01*
X204053501Y-89225074D01*
X203774926Y-88946499D01*
X203447355Y-88727623D01*
X203083378Y-88576859D01*
X202696983Y-88500000D01*
X202303017Y-88500000D01*
X201916622Y-88576859D01*
X201552645Y-88727623D01*
X201225074Y-88946499D01*
X200946499Y-89225074D01*
X200727623Y-89552645D01*
X200576859Y-89916622D01*
X200500000Y-90303017D01*
X200500000Y-90696983D01*
X200576859Y-91083378D01*
X200727623Y-91447355D01*
X200800000Y-91555675D01*
X200800000Y-91848246D01*
X200778809Y-91862406D01*
X200402732Y-92238483D01*
X200107250Y-92680703D01*
X199903719Y-93172072D01*
X199799959Y-93693706D01*
X198700000Y-93693706D01*
X198700000Y-92215675D01*
X198772377Y-92107355D01*
X198923141Y-91743378D01*
X199000000Y-91356983D01*
X199000000Y-90963017D01*
X198923141Y-90576622D01*
X198772377Y-90212645D01*
X198553501Y-89885074D01*
X198274926Y-89606499D01*
X197947355Y-89387623D01*
X197583378Y-89236859D01*
X197196983Y-89160000D01*
X196803017Y-89160000D01*
X196416622Y-89236859D01*
X196052645Y-89387623D01*
X195725074Y-89606499D01*
X195446499Y-89885074D01*
X195227623Y-90212645D01*
X195076859Y-90576622D01*
X195000000Y-90963017D01*
X195000000Y-91356983D01*
X195076859Y-91743378D01*
X195227623Y-92107355D01*
X195300000Y-92215675D01*
X195300001Y-93456605D01*
X195223127Y-93471896D01*
X194731758Y-93675427D01*
X194289538Y-93970909D01*
X193913461Y-94346986D01*
X193617979Y-94789206D01*
X193414448Y-95280575D01*
X193310688Y-95802209D01*
X188200000Y-95802209D01*
X188200000Y-94194113D01*
X188364202Y-94029911D01*
X188626853Y-93636826D01*
X188807770Y-93200054D01*
X188900000Y-92736379D01*
X188900000Y-92263621D01*
X188807770Y-91799946D01*
X188626853Y-91363174D01*
X188364202Y-90970089D01*
X188029911Y-90635798D01*
X187636826Y-90373147D01*
X187200054Y-90192230D01*
X186736379Y-90100000D01*
X186263621Y-90100000D01*
X185799946Y-90192230D01*
X185363174Y-90373147D01*
X184970089Y-90635798D01*
X184635798Y-90970089D01*
X184373147Y-91363174D01*
X184192230Y-91799946D01*
X184100000Y-92263621D01*
X176275000Y-92263621D01*
X176275000Y-72224224D01*
X177200000Y-72224224D01*
X177200000Y-72775776D01*
X177307602Y-73316730D01*
X177518672Y-73826297D01*
X177825098Y-74284896D01*
X178215104Y-74674902D01*
X178673703Y-74981328D01*
X179183270Y-75192398D01*
X179724224Y-75300000D01*
X180275776Y-75300000D01*
X180816730Y-75192398D01*
X181326297Y-74981328D01*
X181784896Y-74674902D01*
X182174902Y-74284896D01*
X182481328Y-73826297D01*
X182692398Y-73316730D01*
X182800000Y-72775776D01*
X182800000Y-72224224D01*
X182692398Y-71683270D01*
X182481328Y-71173703D01*
X182174902Y-70715104D01*
X181784896Y-70325098D01*
X181326297Y-70018672D01*
X180816730Y-69807602D01*
X180275776Y-69700000D01*
X179724224Y-69700000D01*
X179183270Y-69807602D01*
X178673703Y-70018672D01*
X178215104Y-70325098D01*
X177825098Y-70715104D01*
X177518672Y-71173703D01*
X177307602Y-71683270D01*
X177200000Y-72224224D01*
X176275000Y-72224224D01*
X176275000Y-68775000D01*
X202613731Y-68775000D01*
X202123355Y-69265376D01*
G37*
X202123355Y-69265376D02*
X201863174Y-69373147D01*
X201470089Y-69635798D01*
X201135798Y-69970089D01*
X200873147Y-70363174D01*
X200692230Y-70799946D01*
X200600000Y-71263621D01*
X200600000Y-71736379D01*
X200692230Y-72200054D01*
X200733629Y-72300000D01*
X200411270Y-72300000D01*
X198132057Y-70020789D01*
X198063161Y-69936839D01*
X197728168Y-69661917D01*
X197345977Y-69457631D01*
X196931275Y-69331833D01*
X196608070Y-69300000D01*
X196608060Y-69300000D01*
X196500000Y-69289357D01*
X196391940Y-69300000D01*
X188720234Y-69300000D01*
X188460054Y-69192230D01*
X187996379Y-69100000D01*
X187523621Y-69100000D01*
X187059946Y-69192230D01*
X186623174Y-69373147D01*
X186230089Y-69635798D01*
X185895798Y-69970089D01*
X185633147Y-70363174D01*
X185452230Y-70799946D01*
X185360000Y-71263621D01*
X185360000Y-71736379D01*
X185452230Y-72200054D01*
X185633147Y-72636826D01*
X185895798Y-73029911D01*
X186060000Y-73194113D01*
X186060001Y-82594194D01*
X185300000Y-82594194D01*
X185064759Y-82617363D01*
X184838558Y-82685981D01*
X184630090Y-82797409D01*
X184447366Y-82947366D01*
X184297409Y-83130090D01*
X184185981Y-83338558D01*
X184117363Y-83564759D01*
X184094194Y-83800000D01*
X184094194Y-86200000D01*
X184117363Y-86435241D01*
X184185981Y-86661442D01*
X184297409Y-86869910D01*
X184447366Y-87052634D01*
X184630090Y-87202591D01*
X184838558Y-87314019D01*
X185064759Y-87382637D01*
X185300000Y-87405806D01*
X187700000Y-87405806D01*
X187935241Y-87382637D01*
X188161442Y-87314019D01*
X188369910Y-87202591D01*
X188552634Y-87052634D01*
X188702591Y-86869910D01*
X188814019Y-86661442D01*
X188882637Y-86435241D01*
X188905806Y-86200000D01*
X188905806Y-84998854D01*
X188967897Y-84947897D01*
X189021131Y-84883032D01*
X191204163Y-82700000D01*
X195944325Y-82700000D01*
X196052645Y-82772377D01*
X196416622Y-82923141D01*
X196803017Y-83000000D01*
X197196983Y-83000000D01*
X197583378Y-82923141D01*
X197947355Y-82772377D01*
X198274926Y-82553501D01*
X198553501Y-82274926D01*
X198772377Y-81947355D01*
X198923141Y-81583378D01*
X199000000Y-81196983D01*
X199000000Y-80803017D01*
X198923141Y-80416622D01*
X198772377Y-80052645D01*
X198553501Y-79725074D01*
X198274926Y-79446499D01*
X197947355Y-79227623D01*
X197583378Y-79076859D01*
X197196983Y-79000000D01*
X196803017Y-79000000D01*
X196416622Y-79076859D01*
X196052645Y-79227623D01*
X195944325Y-79300000D01*
X190583499Y-79300000D01*
X190499999Y-79291776D01*
X190416499Y-79300000D01*
X190416490Y-79300000D01*
X190166742Y-79324598D01*
X189846291Y-79421806D01*
X189550961Y-79579663D01*
X189550959Y-79579664D01*
X189550960Y-79579664D01*
X189460000Y-79654313D01*
X189460000Y-76803017D01*
X190340000Y-76803017D01*
X190340000Y-77196983D01*
X190416859Y-77583378D01*
X190567623Y-77947355D01*
X190786499Y-78274926D01*
X191065074Y-78553501D01*
X191392645Y-78772377D01*
X191756622Y-78923141D01*
X192143017Y-79000000D01*
X192536983Y-79000000D01*
X192923378Y-78923141D01*
X193287355Y-78772377D01*
X193614926Y-78553501D01*
X193893501Y-78274926D01*
X194112377Y-77947355D01*
X194263141Y-77583378D01*
X194340000Y-77196983D01*
X194340000Y-76803017D01*
X194263141Y-76416622D01*
X194112377Y-76052645D01*
X193893501Y-75725074D01*
X193614926Y-75446499D01*
X193287355Y-75227623D01*
X192923378Y-75076859D01*
X192536983Y-75000000D01*
X192143017Y-75000000D01*
X191756622Y-75076859D01*
X191392645Y-75227623D01*
X191065074Y-75446499D01*
X190786499Y-75725074D01*
X190567623Y-76052645D01*
X190416859Y-76416622D01*
X190340000Y-76803017D01*
X189460000Y-76803017D01*
X189460000Y-73700000D01*
X195588732Y-73700000D01*
X197867951Y-75979221D01*
X197936839Y-76063161D01*
X198020778Y-76132048D01*
X198020782Y-76132052D01*
X198048178Y-76154535D01*
X198271832Y-76338083D01*
X198654023Y-76542369D01*
X199068725Y-76668167D01*
X199391930Y-76700000D01*
X199391938Y-76700000D01*
X199500000Y-76710643D01*
X199608062Y-76700000D01*
X200520491Y-76700000D01*
X200500000Y-76803017D01*
X200500000Y-77196983D01*
X200576859Y-77583378D01*
X200727623Y-77947355D01*
X200800000Y-78055675D01*
X200800001Y-79284324D01*
X200727623Y-79392645D01*
X200576859Y-79756622D01*
X200500000Y-80143017D01*
X200500000Y-80536983D01*
X200576859Y-80923378D01*
X200727623Y-81287355D01*
X200946499Y-81614926D01*
X201225074Y-81893501D01*
X201552645Y-82112377D01*
X201916622Y-82263141D01*
X202303017Y-82340000D01*
X202435837Y-82340000D01*
X203738872Y-83643035D01*
X203792103Y-83707897D01*
X203856965Y-83761128D01*
X203856968Y-83761131D01*
X203904330Y-83800000D01*
X204050961Y-83920337D01*
X204346291Y-84078194D01*
X204666742Y-84175402D01*
X204916490Y-84200000D01*
X204916499Y-84200000D01*
X204999999Y-84208224D01*
X205083499Y-84200000D01*
X211416500Y-84200000D01*
X211500000Y-84208224D01*
X211583500Y-84200000D01*
X211583510Y-84200000D01*
X211833258Y-84175402D01*
X212153709Y-84078194D01*
X212449039Y-83920337D01*
X212595670Y-83800000D01*
X212643031Y-83761132D01*
X212643035Y-83761128D01*
X212707897Y-83707897D01*
X212761128Y-83643035D01*
X213164163Y-83240000D01*
X213367162Y-83240000D01*
X213240325Y-83546209D01*
X213170000Y-83899761D01*
X213170000Y-84260239D01*
X213240325Y-84613791D01*
X213378275Y-84946830D01*
X213578546Y-85246557D01*
X213833443Y-85501454D01*
X214133170Y-85701725D01*
X214466209Y-85839675D01*
X214819761Y-85910000D01*
X215180239Y-85910000D01*
X215533791Y-85839675D01*
X215866830Y-85701725D01*
X216111520Y-85538228D01*
X220846108Y-85538228D01*
X220936808Y-85867784D01*
X221132062Y-86274665D01*
X221402943Y-86635635D01*
X221739041Y-86936823D01*
X222127440Y-87166655D01*
X222553214Y-87316297D01*
X223000000Y-87380000D01*
X223900000Y-87380000D01*
X223900000Y-85180000D01*
X224100000Y-85180000D01*
X224100000Y-87380000D01*
X225000000Y-87380000D01*
X225446786Y-87316297D01*
X225872560Y-87166655D01*
X226260959Y-86936823D01*
X226597057Y-86635635D01*
X226867938Y-86274665D01*
X227063192Y-85867784D01*
X227153892Y-85538228D01*
X226847434Y-85180000D01*
X224100000Y-85180000D01*
X223900000Y-85180000D01*
X221152566Y-85180000D01*
X220846108Y-85538228D01*
X216111520Y-85538228D01*
X216166557Y-85501454D01*
X216421454Y-85246557D01*
X216621725Y-84946830D01*
X216756369Y-84621772D01*
X220846108Y-84621772D01*
X221152566Y-84980000D01*
X223900000Y-84980000D01*
X223900000Y-82780000D01*
X224100000Y-82780000D01*
X224100000Y-84980000D01*
X226847434Y-84980000D01*
X227153892Y-84621772D01*
X227063192Y-84292216D01*
X226867938Y-83885335D01*
X226597057Y-83524365D01*
X226260959Y-83223177D01*
X225872560Y-82993345D01*
X225446786Y-82843703D01*
X225000000Y-82780000D01*
X224100000Y-82780000D01*
X223900000Y-82780000D01*
X223000000Y-82780000D01*
X222553214Y-82843703D01*
X222127440Y-82993345D01*
X221739041Y-83223177D01*
X221402943Y-83524365D01*
X221132062Y-83885335D01*
X220936808Y-84292216D01*
X220846108Y-84621772D01*
X216756369Y-84621772D01*
X216759675Y-84613791D01*
X216830000Y-84260239D01*
X216830000Y-83899761D01*
X216759675Y-83546209D01*
X216632838Y-83240000D01*
X216862142Y-83240000D01*
X217006209Y-83299675D01*
X217359761Y-83370000D01*
X217720239Y-83370000D01*
X218073791Y-83299675D01*
X218406830Y-83161725D01*
X218706557Y-82961454D01*
X218961454Y-82706557D01*
X219161725Y-82406830D01*
X219299675Y-82073791D01*
X219370000Y-81720239D01*
X219370000Y-81359761D01*
X219299675Y-81006209D01*
X219172838Y-80700000D01*
X220994194Y-80700000D01*
X220994194Y-80900000D01*
X221017363Y-81135241D01*
X221085981Y-81361442D01*
X221197409Y-81569910D01*
X221347366Y-81752634D01*
X221530090Y-81902591D01*
X221738558Y-82014019D01*
X221964759Y-82082637D01*
X222200000Y-82105806D01*
X225800000Y-82105806D01*
X226035241Y-82082637D01*
X226261442Y-82014019D01*
X226469910Y-81902591D01*
X226652634Y-81752634D01*
X226802591Y-81569910D01*
X226914019Y-81361442D01*
X226982637Y-81135241D01*
X227005806Y-80900000D01*
X227005806Y-79100000D01*
X226982637Y-78864759D01*
X226914019Y-78638558D01*
X226802591Y-78430090D01*
X226652634Y-78247366D01*
X226469910Y-78097409D01*
X226261442Y-77985981D01*
X226035241Y-77917363D01*
X225800000Y-77894194D01*
X224298357Y-77894194D01*
X224261129Y-77856966D01*
X224207897Y-77792103D01*
X224143035Y-77738872D01*
X224143031Y-77738868D01*
X223949039Y-77579663D01*
X223946949Y-77578546D01*
X223653709Y-77421806D01*
X223333258Y-77324598D01*
X223083510Y-77300000D01*
X223083500Y-77300000D01*
X223000000Y-77291776D01*
X222916500Y-77300000D01*
X215677858Y-77300000D01*
X215533791Y-77240325D01*
X215180239Y-77170000D01*
X214819761Y-77170000D01*
X214466209Y-77240325D01*
X214133170Y-77378275D01*
X213833443Y-77578546D01*
X213578546Y-77833443D01*
X213378275Y-78133170D01*
X213240325Y-78466209D01*
X213170000Y-78819761D01*
X213170000Y-79180239D01*
X213240325Y-79533791D01*
X213367162Y-79840000D01*
X212543499Y-79840000D01*
X212459999Y-79831776D01*
X212376499Y-79840000D01*
X212376490Y-79840000D01*
X212126742Y-79864598D01*
X211806291Y-79961806D01*
X211734835Y-80000000D01*
X211510960Y-80119663D01*
X211316969Y-80278868D01*
X211316965Y-80278872D01*
X211252103Y-80332103D01*
X211198872Y-80396965D01*
X210795837Y-80800000D01*
X209263928Y-80800000D01*
X209272377Y-80787355D01*
X209423141Y-80423378D01*
X209500000Y-80036983D01*
X209500000Y-79643017D01*
X209423141Y-79256622D01*
X209272377Y-78892645D01*
X209053501Y-78565074D01*
X208774926Y-78286499D01*
X208447355Y-78067623D01*
X208083378Y-77916859D01*
X207696983Y-77840000D01*
X207303017Y-77840000D01*
X206916622Y-77916859D01*
X206552645Y-78067623D01*
X206225074Y-78286499D01*
X205946499Y-78565074D01*
X205727623Y-78892645D01*
X205576859Y-79256622D01*
X205500000Y-79643017D01*
X205500000Y-80036983D01*
X205576859Y-80423378D01*
X205727623Y-80787355D01*
X205736072Y-80800000D01*
X205704163Y-80800000D01*
X204302525Y-79398362D01*
X204238194Y-79186291D01*
X204200000Y-79114835D01*
X204200000Y-78055675D01*
X204272377Y-77947355D01*
X204423141Y-77583378D01*
X204500000Y-77196983D01*
X204500000Y-76803017D01*
X204479509Y-76700000D01*
X208391940Y-76700000D01*
X208500000Y-76710643D01*
X208608060Y-76700000D01*
X208608070Y-76700000D01*
X208931275Y-76668167D01*
X209345977Y-76542369D01*
X209414381Y-76505806D01*
X210400000Y-76505806D01*
X210635241Y-76482637D01*
X210861442Y-76414019D01*
X211069910Y-76302591D01*
X211252634Y-76152634D01*
X211402591Y-75969910D01*
X211514019Y-75761442D01*
X211582637Y-75535241D01*
X211605806Y-75300000D01*
X211605806Y-74136852D01*
X211668167Y-73931275D01*
X211710643Y-73500000D01*
X211668167Y-73068725D01*
X211605806Y-72863148D01*
X211605806Y-71700000D01*
X212380000Y-71700000D01*
X212380000Y-73608069D01*
X212411833Y-73931274D01*
X212480000Y-74155991D01*
X212480000Y-74503167D01*
X212510386Y-74811672D01*
X212630466Y-75207524D01*
X212825466Y-75572343D01*
X213087892Y-75892109D01*
X213407658Y-76154535D01*
X213772477Y-76349535D01*
X214168329Y-76469615D01*
X214580000Y-76510161D01*
X214991672Y-76469615D01*
X215387524Y-76349535D01*
X215752343Y-76154535D01*
X216072109Y-75892109D01*
X216334535Y-75572343D01*
X216529535Y-75207524D01*
X216649615Y-74811672D01*
X216680000Y-74503166D01*
X216680000Y-74155992D01*
X216748167Y-73931275D01*
X216780000Y-73608070D01*
X216780000Y-72224224D01*
X222200000Y-72224224D01*
X222200000Y-72775776D01*
X222307602Y-73316730D01*
X222518672Y-73826297D01*
X222825098Y-74284896D01*
X223215104Y-74674902D01*
X223673703Y-74981328D01*
X224183270Y-75192398D01*
X224724224Y-75300000D01*
X225275776Y-75300000D01*
X225816730Y-75192398D01*
X226326297Y-74981328D01*
X226784896Y-74674902D01*
X227174902Y-74284896D01*
X227481328Y-73826297D01*
X227692398Y-73316730D01*
X227800000Y-72775776D01*
X227800000Y-72224224D01*
X227692398Y-71683270D01*
X227481328Y-71173703D01*
X227174902Y-70715104D01*
X226784896Y-70325098D01*
X226326297Y-70018672D01*
X225816730Y-69807602D01*
X225275776Y-69700000D01*
X224724224Y-69700000D01*
X224183270Y-69807602D01*
X223673703Y-70018672D01*
X223215104Y-70325098D01*
X222825098Y-70715104D01*
X222518672Y-71173703D01*
X222307602Y-71683270D01*
X222200000Y-72224224D01*
X216780000Y-72224224D01*
X216780000Y-70688062D01*
X216790643Y-70580000D01*
X216780000Y-70471938D01*
X216780000Y-70471930D01*
X216748167Y-70148725D01*
X216622369Y-69734023D01*
X216418083Y-69351832D01*
X216143161Y-69016839D01*
X216059215Y-68947947D01*
X215886269Y-68775000D01*
X228725000Y-68775000D01*
X228725001Y-141225000D01*
X182667531Y-141225000D01*
X182949403Y-140590825D01*
X180000000Y-137641421D01*
X177050597Y-140590825D01*
X177332469Y-141225000D01*
X176275000Y-141225000D01*
X176275000Y-140167531D01*
X176909175Y-140449403D01*
X179858579Y-137500000D01*
X180141421Y-137500000D01*
X183090825Y-140449403D01*
X183797388Y-140135357D01*
X184238554Y-139343885D01*
X184516836Y-138481554D01*
X184621538Y-137581503D01*
X184548637Y-136678319D01*
X184300935Y-135806713D01*
X183887949Y-135000178D01*
X183797388Y-134864643D01*
X183090825Y-134550597D01*
X180141421Y-137500000D01*
X179858579Y-137500000D01*
X176909175Y-134550597D01*
X176275000Y-134832469D01*
X176275000Y-134409175D01*
X177050597Y-134409175D01*
X180000000Y-137358579D01*
X182949403Y-134409175D01*
X182635357Y-133702612D01*
X181843885Y-133261446D01*
X180981554Y-132983164D01*
X180081503Y-132878462D01*
X179178319Y-132951363D01*
X178306713Y-133199065D01*
X177500178Y-133612051D01*
X177364643Y-133702612D01*
X177050597Y-134409175D01*
X176275000Y-134409175D01*
X176275000Y-107600000D01*
X177994194Y-107600000D01*
X177994194Y-109400000D01*
X178017363Y-109635241D01*
X178085981Y-109861442D01*
X178197409Y-110069910D01*
X178347366Y-110252634D01*
X178530090Y-110402591D01*
X178738558Y-110514019D01*
X178964759Y-110582637D01*
X179200000Y-110605806D01*
X182800000Y-110605806D01*
X183035241Y-110582637D01*
X183261442Y-110514019D01*
X183469910Y-110402591D01*
X183652634Y-110252634D01*
X183802591Y-110069910D01*
X183914019Y-109861442D01*
X183982637Y-109635241D01*
X184005806Y-109400000D01*
X184005806Y-107600000D01*
X183982637Y-107364759D01*
X183914019Y-107138558D01*
X183802591Y-106930090D01*
X183652634Y-106747366D01*
X183469910Y-106597409D01*
X183261442Y-106485981D01*
X183035241Y-106417363D01*
X182800000Y-106394194D01*
X179200000Y-106394194D01*
X178964759Y-106417363D01*
X178738558Y-106485981D01*
X178530090Y-106597409D01*
X178347366Y-106747366D01*
X178197409Y-106930090D01*
X178085981Y-107138558D01*
X178017363Y-107364759D01*
X177994194Y-107600000D01*
X176275000Y-107600000D01*
X176275000Y-103420000D01*
X177989839Y-103420000D01*
X178030385Y-103831672D01*
X178150465Y-104227524D01*
X178345465Y-104592343D01*
X178607891Y-104912109D01*
X178927657Y-105174535D01*
X179292476Y-105369535D01*
X179688328Y-105489615D01*
X179996833Y-105520000D01*
X182003167Y-105520000D01*
X182311672Y-105489615D01*
X182707524Y-105369535D01*
X183072343Y-105174535D01*
X183392109Y-104912109D01*
X183654535Y-104592343D01*
X183849535Y-104227524D01*
X183969615Y-103831672D01*
X184010161Y-103420000D01*
X183969615Y-103008328D01*
X183849535Y-102612476D01*
X183654535Y-102247657D01*
X183392109Y-101927891D01*
X183072343Y-101665465D01*
X182707524Y-101470465D01*
X182311672Y-101350385D01*
X182003167Y-101320000D01*
X179996833Y-101320000D01*
X179688328Y-101350385D01*
X179292476Y-101470465D01*
X178927657Y-101665465D01*
X178607891Y-101927891D01*
X178345465Y-102247657D01*
X178150465Y-102612476D01*
X178030385Y-103008328D01*
X177989839Y-103420000D01*
X176275000Y-103420000D01*
X176275000Y-92263621D01*
X184100000Y-92263621D01*
X184100000Y-92736379D01*
X184192230Y-93200054D01*
X184373147Y-93636826D01*
X184635798Y-94029911D01*
X184800000Y-94194113D01*
X184800001Y-118916490D01*
X184791776Y-119000000D01*
X184824599Y-119333258D01*
X184921807Y-119653709D01*
X185079663Y-119949039D01*
X185238868Y-120143031D01*
X185238877Y-120143040D01*
X185292104Y-120207897D01*
X185356961Y-120261124D01*
X189800000Y-124704163D01*
X189800000Y-124716681D01*
X189884545Y-125141716D01*
X190050385Y-125542091D01*
X190291148Y-125902418D01*
X190597582Y-126208852D01*
X190957909Y-126449615D01*
X191358284Y-126615455D01*
X191783319Y-126700000D01*
X192216681Y-126700000D01*
X192641716Y-126615455D01*
X193042091Y-126449615D01*
X193402418Y-126208852D01*
X193411270Y-126200000D01*
X194135837Y-126200000D01*
X197595837Y-129660000D01*
X194036961Y-133218876D01*
X193972104Y-133272103D01*
X193918877Y-133336960D01*
X193918868Y-133336969D01*
X193759663Y-133530961D01*
X193601807Y-133826291D01*
X193504599Y-134146742D01*
X193483950Y-134356394D01*
X193425466Y-134427657D01*
X193230466Y-134792476D01*
X193228184Y-134800000D01*
X192051817Y-134800000D01*
X192049535Y-134792476D01*
X191854535Y-134427657D01*
X191592109Y-134107891D01*
X191272343Y-133845465D01*
X190907524Y-133650465D01*
X190511672Y-133530385D01*
X190100000Y-133489839D01*
X189688329Y-133530385D01*
X189292477Y-133650465D01*
X188927658Y-133845465D01*
X188607892Y-134107891D01*
X188345466Y-134427657D01*
X188150466Y-134792476D01*
X188030386Y-135188328D01*
X188000000Y-135496833D01*
X188000000Y-137503166D01*
X188030385Y-137811671D01*
X188150465Y-138207523D01*
X188345465Y-138572343D01*
X188607891Y-138892109D01*
X188927657Y-139154535D01*
X189292476Y-139349535D01*
X189688328Y-139469615D01*
X190100000Y-139510161D01*
X190511671Y-139469615D01*
X190907523Y-139349535D01*
X191272343Y-139154535D01*
X191592109Y-138892109D01*
X191854535Y-138572343D01*
X192049535Y-138207524D01*
X192051817Y-138200000D01*
X193228183Y-138200000D01*
X193230465Y-138207523D01*
X193425465Y-138572343D01*
X193687891Y-138892109D01*
X194007657Y-139154535D01*
X194372476Y-139349535D01*
X194768328Y-139469615D01*
X195180000Y-139510161D01*
X195591671Y-139469615D01*
X195987523Y-139349535D01*
X196352343Y-139154535D01*
X196672109Y-138892109D01*
X196934535Y-138572343D01*
X197129535Y-138207524D01*
X197249615Y-137811672D01*
X197280000Y-137503167D01*
X197280000Y-136600000D01*
X197960000Y-136600000D01*
X197960000Y-137500000D01*
X198023703Y-137946786D01*
X198173345Y-138372560D01*
X198403177Y-138760959D01*
X198704365Y-139097057D01*
X199065335Y-139367938D01*
X199472216Y-139563192D01*
X199801772Y-139653892D01*
X200160000Y-139347434D01*
X200160000Y-136600000D01*
X200360000Y-136600000D01*
X200360000Y-139347434D01*
X200718228Y-139653892D01*
X201047784Y-139563192D01*
X201454665Y-139367938D01*
X201815635Y-139097057D01*
X202116823Y-138760959D01*
X202346655Y-138372560D01*
X202496297Y-137946786D01*
X202560000Y-137500000D01*
X202560000Y-136600000D01*
X200360000Y-136600000D01*
X200160000Y-136600000D01*
X197960000Y-136600000D01*
X197280000Y-136600000D01*
X197280000Y-135500000D01*
X197960000Y-135500000D01*
X197960000Y-136400000D01*
X200160000Y-136400000D01*
X200160000Y-133652566D01*
X200360000Y-133652566D01*
X200360000Y-136400000D01*
X202560000Y-136400000D01*
X202560000Y-135500000D01*
X202496297Y-135053214D01*
X202346655Y-134627440D01*
X202116823Y-134239041D01*
X201815635Y-133902943D01*
X201454665Y-133632062D01*
X201047784Y-133436808D01*
X200718228Y-133346108D01*
X200360000Y-133652566D01*
X200160000Y-133652566D01*
X199801772Y-133346108D01*
X199472216Y-133436808D01*
X199065335Y-133632062D01*
X198704365Y-133902943D01*
X198403177Y-134239041D01*
X198173345Y-134627440D01*
X198023703Y-135053214D01*
X197960000Y-135500000D01*
X197280000Y-135500000D01*
X197280000Y-135496834D01*
X197249615Y-135188328D01*
X197162620Y-134901543D01*
X200455607Y-131608556D01*
X200583378Y-131583141D01*
X200947355Y-131432377D01*
X201274926Y-131213501D01*
X201553501Y-130934926D01*
X201772377Y-130607355D01*
X201923141Y-130243378D01*
X202000000Y-129856983D01*
X202076859Y-130243378D01*
X202227623Y-130607355D01*
X202446499Y-130934926D01*
X202725074Y-131213501D01*
X203052645Y-131432377D01*
X203416622Y-131583141D01*
X203544393Y-131608556D01*
X203640001Y-131704164D01*
X203640000Y-134361207D01*
X203585466Y-134427657D01*
X203390466Y-134792476D01*
X203270386Y-135188328D01*
X203240000Y-135496833D01*
X203240000Y-137503166D01*
X203270385Y-137811671D01*
X203390465Y-138207523D01*
X203585465Y-138572343D01*
X203847891Y-138892109D01*
X204167657Y-139154535D01*
X204532476Y-139349535D01*
X204928328Y-139469615D01*
X205340000Y-139510161D01*
X205751671Y-139469615D01*
X206147523Y-139349535D01*
X206512343Y-139154535D01*
X206832109Y-138892109D01*
X207094535Y-138572343D01*
X207289535Y-138207524D01*
X207409615Y-137811672D01*
X207440000Y-137503167D01*
X207440000Y-136600000D01*
X208120000Y-136600000D01*
X208120000Y-137500000D01*
X208183703Y-137946786D01*
X208333345Y-138372560D01*
X208563177Y-138760959D01*
X208864365Y-139097057D01*
X209225335Y-139367938D01*
X209632216Y-139563192D01*
X209961772Y-139653892D01*
X210320000Y-139347434D01*
X210320000Y-136600000D01*
X210520000Y-136600000D01*
X210520000Y-139347434D01*
X210878228Y-139653892D01*
X211207784Y-139563192D01*
X211614665Y-139367938D01*
X211975635Y-139097057D01*
X212276823Y-138760959D01*
X212506655Y-138372560D01*
X212656297Y-137946786D01*
X212720000Y-137500000D01*
X212720000Y-136600000D01*
X210520000Y-136600000D01*
X210320000Y-136600000D01*
X208120000Y-136600000D01*
X207440000Y-136600000D01*
X207440000Y-135500000D01*
X208120000Y-135500000D01*
X208120000Y-136400000D01*
X210320000Y-136400000D01*
X210320000Y-133652566D01*
X210520000Y-133652566D01*
X210520000Y-136400000D01*
X212720000Y-136400000D01*
X212720000Y-135500000D01*
X212656297Y-135053214D01*
X212506655Y-134627440D01*
X212276823Y-134239041D01*
X211975635Y-133902943D01*
X211614665Y-133632062D01*
X211207784Y-133436808D01*
X210878228Y-133346108D01*
X210520000Y-133652566D01*
X210320000Y-133652566D01*
X209961772Y-133346108D01*
X209632216Y-133436808D01*
X209225335Y-133632062D01*
X208864365Y-133902943D01*
X208563177Y-134239041D01*
X208333345Y-134627440D01*
X208183703Y-135053214D01*
X208120000Y-135500000D01*
X207440000Y-135500000D01*
X207440000Y-135496834D01*
X207409615Y-135188328D01*
X207289535Y-134792476D01*
X207094535Y-134427657D01*
X207040000Y-134361206D01*
X207040000Y-131303017D01*
X210000000Y-131303017D01*
X210000000Y-131696983D01*
X210076859Y-132083378D01*
X210227623Y-132447355D01*
X210446499Y-132774926D01*
X210725074Y-133053501D01*
X211052645Y-133272377D01*
X211416622Y-133423141D01*
X211544393Y-133448556D01*
X213394194Y-135298357D01*
X213394194Y-138300000D01*
X213417363Y-138535241D01*
X213485981Y-138761442D01*
X213597409Y-138969910D01*
X213747366Y-139152634D01*
X213930090Y-139302591D01*
X214138558Y-139414019D01*
X214364759Y-139482637D01*
X214600000Y-139505806D01*
X216400000Y-139505806D01*
X216635241Y-139482637D01*
X216861442Y-139414019D01*
X217069910Y-139302591D01*
X217252634Y-139152634D01*
X217402591Y-138969910D01*
X217514019Y-138761442D01*
X217582637Y-138535241D01*
X217605806Y-138300000D01*
X217605806Y-137224224D01*
X222200000Y-137224224D01*
X222200000Y-137775776D01*
X222307602Y-138316730D01*
X222518672Y-138826297D01*
X222825098Y-139284896D01*
X223215104Y-139674902D01*
X223673703Y-139981328D01*
X224183270Y-140192398D01*
X224724224Y-140300000D01*
X225275776Y-140300000D01*
X225816730Y-140192398D01*
X226326297Y-139981328D01*
X226784896Y-139674902D01*
X227174902Y-139284896D01*
X227481328Y-138826297D01*
X227692398Y-138316730D01*
X227800000Y-137775776D01*
X227800000Y-137224224D01*
X227692398Y-136683270D01*
X227481328Y-136173703D01*
X227174902Y-135715104D01*
X226784896Y-135325098D01*
X226326297Y-135018672D01*
X225816730Y-134807602D01*
X225275776Y-134700000D01*
X224724224Y-134700000D01*
X224183270Y-134807602D01*
X223673703Y-135018672D01*
X223215104Y-135325098D01*
X222825098Y-135715104D01*
X222518672Y-136173703D01*
X222307602Y-136683270D01*
X222200000Y-137224224D01*
X217605806Y-137224224D01*
X217605806Y-134700000D01*
X217582637Y-134464759D01*
X217514019Y-134238558D01*
X217402591Y-134030090D01*
X217252634Y-133847366D01*
X217069910Y-133697409D01*
X216861442Y-133585981D01*
X216635241Y-133517363D01*
X216400000Y-133494194D01*
X216398357Y-133494194D01*
X213948556Y-131044393D01*
X213923141Y-130916622D01*
X213772377Y-130552645D01*
X213553501Y-130225074D01*
X213274926Y-129946499D01*
X212947355Y-129727623D01*
X212583378Y-129576859D01*
X212196983Y-129500000D01*
X211803017Y-129500000D01*
X211416622Y-129576859D01*
X211052645Y-129727623D01*
X210725074Y-129946499D01*
X210446499Y-130225074D01*
X210227623Y-130552645D01*
X210076859Y-130916622D01*
X210000000Y-131303017D01*
X207040000Y-131303017D01*
X207040000Y-131083499D01*
X207048224Y-130999999D01*
X207040000Y-130916499D01*
X207040000Y-130916490D01*
X207015402Y-130666742D01*
X206918194Y-130346291D01*
X206760337Y-130050961D01*
X206547897Y-129792103D01*
X206483035Y-129738872D01*
X205948556Y-129204393D01*
X205923141Y-129076622D01*
X205772377Y-128712645D01*
X205553501Y-128385074D01*
X205274926Y-128106499D01*
X204947355Y-127887623D01*
X204583378Y-127736859D01*
X204196983Y-127660000D01*
X203803017Y-127660000D01*
X203416622Y-127736859D01*
X203052645Y-127887623D01*
X202725074Y-128106499D01*
X202446499Y-128385074D01*
X202227623Y-128712645D01*
X202076859Y-129076622D01*
X202000000Y-129463017D01*
X201923141Y-129076622D01*
X201772377Y-128712645D01*
X201553501Y-128385074D01*
X201274926Y-128106499D01*
X200947355Y-127887623D01*
X200583378Y-127736859D01*
X200455608Y-127711444D01*
X196101128Y-123356965D01*
X196047897Y-123292103D01*
X195983035Y-123238872D01*
X195983031Y-123238868D01*
X195789039Y-123079663D01*
X195493709Y-122921806D01*
X195173258Y-122824598D01*
X194923510Y-122800000D01*
X194923500Y-122800000D01*
X194840000Y-122791776D01*
X194756500Y-122800000D01*
X193411270Y-122800000D01*
X193402418Y-122791148D01*
X193042091Y-122550385D01*
X192641716Y-122384545D01*
X192216681Y-122300000D01*
X192204163Y-122300000D01*
X191609969Y-121705806D01*
X193000000Y-121705806D01*
X193235241Y-121682637D01*
X193461442Y-121614019D01*
X193669910Y-121502591D01*
X193852634Y-121352634D01*
X193977897Y-121200000D01*
X198944325Y-121200000D01*
X199052645Y-121272377D01*
X199416622Y-121423141D01*
X199803017Y-121500000D01*
X200196983Y-121500000D01*
X200583378Y-121423141D01*
X200947355Y-121272377D01*
X201274926Y-121053501D01*
X201553501Y-120774926D01*
X201772377Y-120447355D01*
X201923141Y-120083378D01*
X202000000Y-119696983D01*
X202076859Y-120083378D01*
X202227623Y-120447355D01*
X202446499Y-120774926D01*
X202725074Y-121053501D01*
X203052645Y-121272377D01*
X203416622Y-121423141D01*
X203803017Y-121500000D01*
X204196983Y-121500000D01*
X204583378Y-121423141D01*
X204947355Y-121272377D01*
X205274926Y-121053501D01*
X205553501Y-120774926D01*
X205772377Y-120447355D01*
X205923141Y-120083378D01*
X206000000Y-119696983D01*
X206000000Y-119303017D01*
X205923141Y-118916622D01*
X205772377Y-118552645D01*
X205700000Y-118444325D01*
X205700000Y-117623825D01*
X205708224Y-117540325D01*
X205700000Y-117456825D01*
X205700000Y-117456816D01*
X205675402Y-117207068D01*
X205578194Y-116886617D01*
X205420337Y-116591287D01*
X205368172Y-116527724D01*
X205261131Y-116397294D01*
X205261128Y-116397291D01*
X205207897Y-116332429D01*
X205196674Y-116323219D01*
X205200041Y-116306294D01*
X205200041Y-115774440D01*
X205096281Y-115252806D01*
X204892750Y-114761437D01*
X204597268Y-114319217D01*
X204221191Y-113943140D01*
X203805759Y-113665557D01*
X206289435Y-113665557D01*
X206289435Y-114197411D01*
X206393195Y-114719045D01*
X206596726Y-115210414D01*
X206892208Y-115652634D01*
X207268285Y-116028711D01*
X207710505Y-116324193D01*
X208201874Y-116527724D01*
X208723508Y-116631484D01*
X209255362Y-116631484D01*
X209280310Y-116626522D01*
X210296823Y-117643035D01*
X210350054Y-117707897D01*
X210414916Y-117761128D01*
X210414919Y-117761131D01*
X210452659Y-117792103D01*
X210514097Y-117842524D01*
X210725074Y-118053501D01*
X211052645Y-118272377D01*
X211416622Y-118423141D01*
X211803017Y-118500000D01*
X212196983Y-118500000D01*
X212583378Y-118423141D01*
X212947355Y-118272377D01*
X213174996Y-118120272D01*
X213313709Y-118078194D01*
X213609039Y-117920337D01*
X213755670Y-117800000D01*
X213803031Y-117761132D01*
X213803035Y-117761128D01*
X213867897Y-117707897D01*
X213921128Y-117643035D01*
X217455607Y-114108556D01*
X217583378Y-114083141D01*
X217947355Y-113932377D01*
X218274926Y-113713501D01*
X218553501Y-113434926D01*
X218772377Y-113107355D01*
X218923141Y-112743378D01*
X219000000Y-112356983D01*
X219000000Y-111963017D01*
X218923141Y-111576622D01*
X218772377Y-111212645D01*
X218553501Y-110885074D01*
X218274926Y-110606499D01*
X217947355Y-110387623D01*
X217583378Y-110236859D01*
X217196983Y-110160000D01*
X216803017Y-110160000D01*
X216416622Y-110236859D01*
X216052645Y-110387623D01*
X215725074Y-110606499D01*
X215446499Y-110885074D01*
X215227623Y-111212645D01*
X215076859Y-111576622D01*
X215051444Y-111704393D01*
X212246072Y-114509765D01*
X212196983Y-114500000D01*
X211962114Y-114500000D01*
X211684473Y-114222359D01*
X211689435Y-114197411D01*
X211689435Y-113665557D01*
X211585675Y-113143923D01*
X211382144Y-112652554D01*
X211086662Y-112210334D01*
X210710585Y-111834257D01*
X210268365Y-111538775D01*
X209776996Y-111335244D01*
X209255362Y-111231484D01*
X208723508Y-111231484D01*
X208201874Y-111335244D01*
X207710505Y-111538775D01*
X207268285Y-111834257D01*
X206892208Y-112210334D01*
X206596726Y-112652554D01*
X206393195Y-113143923D01*
X206289435Y-113665557D01*
X203805759Y-113665557D01*
X203778971Y-113647658D01*
X203287602Y-113444127D01*
X202765968Y-113340367D01*
X202234114Y-113340367D01*
X201712480Y-113444127D01*
X201221111Y-113647658D01*
X200778891Y-113943140D01*
X200402814Y-114319217D01*
X200107332Y-114761437D01*
X199903801Y-115252806D01*
X199800041Y-115774440D01*
X199800041Y-116306294D01*
X199903801Y-116827928D01*
X200025218Y-117121055D01*
X198287795Y-115383632D01*
X198403311Y-115210750D01*
X198606842Y-114719381D01*
X198710602Y-114197747D01*
X198710602Y-113665893D01*
X198606842Y-113144259D01*
X198403311Y-112652890D01*
X198107829Y-112210670D01*
X197731752Y-111834593D01*
X197289532Y-111539111D01*
X196798163Y-111335580D01*
X196276529Y-111231820D01*
X195744675Y-111231820D01*
X195223041Y-111335580D01*
X194731672Y-111539111D01*
X194289452Y-111834593D01*
X193913375Y-112210670D01*
X193617893Y-112652890D01*
X193414362Y-113144259D01*
X193310602Y-113665893D01*
X193310602Y-114197747D01*
X193414362Y-114719381D01*
X193617893Y-115210750D01*
X193913375Y-115652970D01*
X194289452Y-116029047D01*
X194417288Y-116114464D01*
X194432409Y-116164311D01*
X194590265Y-116459641D01*
X194749470Y-116653633D01*
X194749479Y-116653642D01*
X194802706Y-116718499D01*
X194867563Y-116771726D01*
X195895837Y-117800000D01*
X193977897Y-117800000D01*
X193852634Y-117647366D01*
X193669910Y-117497409D01*
X193461442Y-117385981D01*
X193235241Y-117317363D01*
X193000000Y-117294194D01*
X191000000Y-117294194D01*
X190764759Y-117317363D01*
X190538558Y-117385981D01*
X190330090Y-117497409D01*
X190147366Y-117647366D01*
X189997409Y-117830090D01*
X189885981Y-118038558D01*
X189817363Y-118264759D01*
X189794194Y-118500000D01*
X189794194Y-119890031D01*
X188200000Y-118295837D01*
X188200000Y-101322402D01*
X189299956Y-101322402D01*
X189299956Y-101854256D01*
X189403716Y-102375890D01*
X189607247Y-102867259D01*
X189800020Y-103155764D01*
X189800019Y-106844368D01*
X189607310Y-107132778D01*
X189403779Y-107624147D01*
X189300019Y-108145781D01*
X189300019Y-108677635D01*
X189403779Y-109199269D01*
X189607310Y-109690638D01*
X189902792Y-110132858D01*
X190278869Y-110508935D01*
X190721089Y-110804417D01*
X191212458Y-111007948D01*
X191734092Y-111111708D01*
X192265946Y-111111708D01*
X192787580Y-111007948D01*
X193278949Y-110804417D01*
X193721169Y-110508935D01*
X194097246Y-110132858D01*
X194392728Y-109690638D01*
X194596259Y-109199269D01*
X194700019Y-108677635D01*
X194700019Y-108580000D01*
X220989839Y-108580000D01*
X221030385Y-108991672D01*
X221150465Y-109387524D01*
X221345465Y-109752343D01*
X221607891Y-110072109D01*
X221927657Y-110334535D01*
X222292476Y-110529535D01*
X222688328Y-110649615D01*
X222996833Y-110680000D01*
X225003167Y-110680000D01*
X225311672Y-110649615D01*
X225707524Y-110529535D01*
X226072343Y-110334535D01*
X226392109Y-110072109D01*
X226654535Y-109752343D01*
X226849535Y-109387524D01*
X226969615Y-108991672D01*
X227010161Y-108580000D01*
X226969615Y-108168328D01*
X226849535Y-107772476D01*
X226654535Y-107407657D01*
X226392109Y-107087891D01*
X226072343Y-106825465D01*
X225707524Y-106630465D01*
X225311672Y-106510385D01*
X225003167Y-106480000D01*
X222996833Y-106480000D01*
X222688328Y-106510385D01*
X222292476Y-106630465D01*
X221927657Y-106825465D01*
X221607891Y-107087891D01*
X221345465Y-107407657D01*
X221150465Y-107772476D01*
X221030385Y-108168328D01*
X220989839Y-108580000D01*
X194700019Y-108580000D01*
X194700019Y-108145781D01*
X194596259Y-107624147D01*
X194392728Y-107132778D01*
X194200019Y-106844369D01*
X194200019Y-104758696D01*
X200050000Y-104758696D01*
X200050000Y-105241304D01*
X200144152Y-105714639D01*
X200328838Y-106160510D01*
X200596960Y-106561784D01*
X200938216Y-106903040D01*
X201339490Y-107171162D01*
X201785361Y-107355848D01*
X202258696Y-107450000D01*
X202741304Y-107450000D01*
X203214639Y-107355848D01*
X203660510Y-107171162D01*
X204061784Y-106903040D01*
X204403040Y-106561784D01*
X204671162Y-106160510D01*
X204855848Y-105714639D01*
X204950000Y-105241304D01*
X204950000Y-104758696D01*
X204855848Y-104285361D01*
X204671162Y-103839490D01*
X204403040Y-103438216D01*
X204061784Y-103096960D01*
X203660510Y-102828838D01*
X203214639Y-102644152D01*
X202741304Y-102550000D01*
X202258696Y-102550000D01*
X201785361Y-102644152D01*
X201339490Y-102828838D01*
X200938216Y-103096960D01*
X200596960Y-103438216D01*
X200328838Y-103839490D01*
X200144152Y-104285361D01*
X200050000Y-104758696D01*
X194200019Y-104758696D01*
X194200019Y-103155574D01*
X194392665Y-102867259D01*
X194596196Y-102375890D01*
X194699956Y-101854256D01*
X194699956Y-101322402D01*
X194699949Y-101322365D01*
X210299981Y-101322365D01*
X210299981Y-101854219D01*
X210403741Y-102375853D01*
X210607272Y-102867222D01*
X210902754Y-103309442D01*
X211278831Y-103685519D01*
X211721051Y-103981001D01*
X212212420Y-104184532D01*
X212734054Y-104288292D01*
X213265908Y-104288292D01*
X213787542Y-104184532D01*
X214278911Y-103981001D01*
X214721131Y-103685519D01*
X215097208Y-103309442D01*
X215283385Y-103030809D01*
X215446499Y-103274926D01*
X215725074Y-103553501D01*
X216052645Y-103772377D01*
X216416622Y-103923141D01*
X216803017Y-104000000D01*
X217196983Y-104000000D01*
X217583378Y-103923141D01*
X217947355Y-103772377D01*
X218274926Y-103553501D01*
X218553501Y-103274926D01*
X218772377Y-102947355D01*
X218916255Y-102600000D01*
X220994194Y-102600000D01*
X220994194Y-104400000D01*
X221017363Y-104635241D01*
X221085981Y-104861442D01*
X221197409Y-105069910D01*
X221347366Y-105252634D01*
X221530090Y-105402591D01*
X221738558Y-105514019D01*
X221964759Y-105582637D01*
X222200000Y-105605806D01*
X225800000Y-105605806D01*
X226035241Y-105582637D01*
X226261442Y-105514019D01*
X226469910Y-105402591D01*
X226652634Y-105252634D01*
X226802591Y-105069910D01*
X226914019Y-104861442D01*
X226982637Y-104635241D01*
X227005806Y-104400000D01*
X227005806Y-102600000D01*
X226982637Y-102364759D01*
X226914019Y-102138558D01*
X226802591Y-101930090D01*
X226652634Y-101747366D01*
X226469910Y-101597409D01*
X226261442Y-101485981D01*
X226035241Y-101417363D01*
X225800000Y-101394194D01*
X222200000Y-101394194D01*
X221964759Y-101417363D01*
X221738558Y-101485981D01*
X221530090Y-101597409D01*
X221347366Y-101747366D01*
X221197409Y-101930090D01*
X221085981Y-102138558D01*
X221017363Y-102364759D01*
X220994194Y-102600000D01*
X218916255Y-102600000D01*
X218923141Y-102583378D01*
X219000000Y-102196983D01*
X219000000Y-101803017D01*
X218923141Y-101416622D01*
X218772377Y-101052645D01*
X218553501Y-100725074D01*
X218274926Y-100446499D01*
X217947355Y-100227623D01*
X217583378Y-100076859D01*
X217196983Y-100000000D01*
X216803017Y-100000000D01*
X216416622Y-100076859D01*
X216052645Y-100227623D01*
X215725074Y-100446499D01*
X215530209Y-100641364D01*
X215392690Y-100309362D01*
X215097208Y-99867142D01*
X214721131Y-99491065D01*
X214278911Y-99195583D01*
X213787542Y-98992052D01*
X213265908Y-98888292D01*
X212734054Y-98888292D01*
X212212420Y-98992052D01*
X211721051Y-99195583D01*
X211278831Y-99491065D01*
X210902754Y-99867142D01*
X210607272Y-100309362D01*
X210403741Y-100800731D01*
X210299981Y-101322365D01*
X194699949Y-101322365D01*
X194596196Y-100800768D01*
X194392665Y-100309399D01*
X194097183Y-99867179D01*
X193721106Y-99491102D01*
X193278886Y-99195620D01*
X192787517Y-98992089D01*
X192265883Y-98888329D01*
X191734029Y-98888329D01*
X191212395Y-98992089D01*
X190721026Y-99195620D01*
X190278806Y-99491102D01*
X189902729Y-99867179D01*
X189607247Y-100309399D01*
X189403716Y-100800768D01*
X189299956Y-101322402D01*
X188200000Y-101322402D01*
X188200000Y-95802209D01*
X193310688Y-95802209D01*
X193310688Y-96334063D01*
X193414448Y-96855697D01*
X193617979Y-97347066D01*
X193913461Y-97789286D01*
X194289538Y-98165363D01*
X194731758Y-98460845D01*
X195223127Y-98664376D01*
X195744761Y-98768136D01*
X196276615Y-98768136D01*
X196798249Y-98664376D01*
X197289618Y-98460845D01*
X197731838Y-98165363D01*
X198107915Y-97789286D01*
X198403397Y-97347066D01*
X198606928Y-96855697D01*
X198710688Y-96334063D01*
X198710688Y-95802209D01*
X198649845Y-95496332D01*
X198675402Y-95412082D01*
X198700000Y-95162334D01*
X198700000Y-95162325D01*
X198708224Y-95078825D01*
X198700000Y-94995325D01*
X198700000Y-93693706D01*
X199799959Y-93693706D01*
X199799959Y-94225560D01*
X199903719Y-94747194D01*
X200107250Y-95238563D01*
X200402732Y-95680783D01*
X200778809Y-96056860D01*
X201221029Y-96352342D01*
X201712398Y-96555873D01*
X202234032Y-96659633D01*
X202765886Y-96659633D01*
X203287520Y-96555873D01*
X203778889Y-96352342D01*
X204221109Y-96056860D01*
X204597186Y-95680783D01*
X204892668Y-95238563D01*
X205096199Y-94747194D01*
X205199959Y-94225560D01*
X205199959Y-93693706D01*
X205096199Y-93172072D01*
X204892668Y-92680703D01*
X204597186Y-92238483D01*
X204221109Y-91862406D01*
X204200000Y-91848301D01*
X204200000Y-91555675D01*
X204272377Y-91447355D01*
X204423141Y-91083378D01*
X204500000Y-90696983D01*
X204500000Y-90303017D01*
X204423141Y-89916622D01*
X204376085Y-89803017D01*
X205500000Y-89803017D01*
X205500000Y-90196983D01*
X205576859Y-90583378D01*
X205727623Y-90947355D01*
X205800000Y-91055675D01*
X205800001Y-94495272D01*
X205791776Y-94578782D01*
X205824599Y-94912040D01*
X205921807Y-95232491D01*
X206079663Y-95527821D01*
X206238868Y-95721813D01*
X206238877Y-95721822D01*
X206292104Y-95786679D01*
X206292441Y-95786955D01*
X206289398Y-95802253D01*
X206289398Y-96334107D01*
X206393158Y-96855741D01*
X206596689Y-97347110D01*
X206892171Y-97789330D01*
X207268248Y-98165407D01*
X207710468Y-98460889D01*
X208201837Y-98664420D01*
X208723471Y-98768180D01*
X209255325Y-98768180D01*
X209776959Y-98664420D01*
X210268328Y-98460889D01*
X210710548Y-98165407D01*
X211086625Y-97789330D01*
X211382107Y-97347110D01*
X211585638Y-96855741D01*
X211689398Y-96334107D01*
X211689398Y-95802253D01*
X211668707Y-95698228D01*
X220846108Y-95698228D01*
X220936808Y-96027784D01*
X221132062Y-96434665D01*
X221402943Y-96795635D01*
X221739041Y-97096823D01*
X222127440Y-97326655D01*
X222553214Y-97476297D01*
X223000000Y-97540000D01*
X223900000Y-97540000D01*
X223900000Y-95340000D01*
X224100000Y-95340000D01*
X224100000Y-97540000D01*
X225000000Y-97540000D01*
X225446786Y-97476297D01*
X225872560Y-97326655D01*
X226260959Y-97096823D01*
X226597057Y-96795635D01*
X226867938Y-96434665D01*
X227063192Y-96027784D01*
X227153892Y-95698228D01*
X226847434Y-95340000D01*
X224100000Y-95340000D01*
X223900000Y-95340000D01*
X221152566Y-95340000D01*
X220846108Y-95698228D01*
X211668707Y-95698228D01*
X211585638Y-95280619D01*
X211382107Y-94789250D01*
X211377111Y-94781772D01*
X220846108Y-94781772D01*
X221152566Y-95140000D01*
X223900000Y-95140000D01*
X223900000Y-92940000D01*
X224100000Y-92940000D01*
X224100000Y-95140000D01*
X226847434Y-95140000D01*
X227153892Y-94781772D01*
X227063192Y-94452216D01*
X226867938Y-94045335D01*
X226597057Y-93684365D01*
X226260959Y-93383177D01*
X225872560Y-93153345D01*
X225446786Y-93003703D01*
X225000000Y-92940000D01*
X224100000Y-92940000D01*
X223900000Y-92940000D01*
X223000000Y-92940000D01*
X222553214Y-93003703D01*
X222127440Y-93153345D01*
X221739041Y-93383177D01*
X221402943Y-93684365D01*
X221132062Y-94045335D01*
X220936808Y-94452216D01*
X220846108Y-94781772D01*
X211377111Y-94781772D01*
X211086625Y-94347030D01*
X210710548Y-93970953D01*
X210268328Y-93675471D01*
X209776959Y-93471940D01*
X209255325Y-93368180D01*
X209200000Y-93368180D01*
X209200000Y-92700000D01*
X210522103Y-92700000D01*
X210647366Y-92852634D01*
X210830090Y-93002591D01*
X211038558Y-93114019D01*
X211264759Y-93182637D01*
X211500000Y-93205806D01*
X213500000Y-93205806D01*
X213735241Y-93182637D01*
X213961442Y-93114019D01*
X214169910Y-93002591D01*
X214352634Y-92852634D01*
X214502591Y-92669910D01*
X214614019Y-92461442D01*
X214682637Y-92235241D01*
X214705806Y-92000000D01*
X214705806Y-90783319D01*
X215300000Y-90783319D01*
X215300000Y-91216681D01*
X215384545Y-91641716D01*
X215550385Y-92042091D01*
X215791148Y-92402418D01*
X216097582Y-92708852D01*
X216457909Y-92949615D01*
X216858284Y-93115455D01*
X217283319Y-93200000D01*
X217716681Y-93200000D01*
X218141716Y-93115455D01*
X218542091Y-92949615D01*
X218902418Y-92708852D01*
X218911270Y-92700000D01*
X223076500Y-92700000D01*
X223160000Y-92708224D01*
X223243500Y-92700000D01*
X223243510Y-92700000D01*
X223493258Y-92675402D01*
X223813709Y-92578194D01*
X224109039Y-92420337D01*
X224130873Y-92402418D01*
X224303031Y-92261132D01*
X224303035Y-92261128D01*
X224304410Y-92260000D01*
X225003167Y-92260000D01*
X225311672Y-92229615D01*
X225707524Y-92109535D01*
X226072343Y-91914535D01*
X226392109Y-91652109D01*
X226654535Y-91332343D01*
X226849535Y-90967524D01*
X226969615Y-90571672D01*
X227010161Y-90160000D01*
X226969615Y-89748328D01*
X226849535Y-89352476D01*
X226654535Y-88987657D01*
X226392109Y-88667891D01*
X226072343Y-88405465D01*
X225707524Y-88210465D01*
X225311672Y-88090385D01*
X225003167Y-88060000D01*
X222996833Y-88060000D01*
X222688328Y-88090385D01*
X222292476Y-88210465D01*
X221927657Y-88405465D01*
X221607891Y-88667891D01*
X221345465Y-88987657D01*
X221178514Y-89300000D01*
X218911270Y-89300000D01*
X218902418Y-89291148D01*
X218542091Y-89050385D01*
X218141716Y-88884545D01*
X217716681Y-88800000D01*
X217283319Y-88800000D01*
X216858284Y-88884545D01*
X216457909Y-89050385D01*
X216097582Y-89291148D01*
X215791148Y-89597582D01*
X215550385Y-89957909D01*
X215384545Y-90358284D01*
X215300000Y-90783319D01*
X214705806Y-90783319D01*
X214705806Y-90000000D01*
X214682637Y-89764759D01*
X214614019Y-89538558D01*
X214502591Y-89330090D01*
X214352634Y-89147366D01*
X214169910Y-88997409D01*
X213961442Y-88885981D01*
X213735241Y-88817363D01*
X213500000Y-88794194D01*
X211500000Y-88794194D01*
X211264759Y-88817363D01*
X211038558Y-88885981D01*
X210830090Y-88997409D01*
X210647366Y-89147366D01*
X210522103Y-89300000D01*
X209374835Y-89300000D01*
X209272377Y-89052645D01*
X209053501Y-88725074D01*
X208774926Y-88446499D01*
X208447355Y-88227623D01*
X208083378Y-88076859D01*
X207696983Y-88000000D01*
X207303017Y-88000000D01*
X206916622Y-88076859D01*
X206552645Y-88227623D01*
X206225074Y-88446499D01*
X205946499Y-88725074D01*
X205727623Y-89052645D01*
X205576859Y-89416622D01*
X205500000Y-89803017D01*
X204376085Y-89803017D01*
X204272377Y-89552645D01*
X204053501Y-89225074D01*
X203774926Y-88946499D01*
X203447355Y-88727623D01*
X203083378Y-88576859D01*
X202696983Y-88500000D01*
X202303017Y-88500000D01*
X201916622Y-88576859D01*
X201552645Y-88727623D01*
X201225074Y-88946499D01*
X200946499Y-89225074D01*
X200727623Y-89552645D01*
X200576859Y-89916622D01*
X200500000Y-90303017D01*
X200500000Y-90696983D01*
X200576859Y-91083378D01*
X200727623Y-91447355D01*
X200800000Y-91555675D01*
X200800000Y-91848246D01*
X200778809Y-91862406D01*
X200402732Y-92238483D01*
X200107250Y-92680703D01*
X199903719Y-93172072D01*
X199799959Y-93693706D01*
X198700000Y-93693706D01*
X198700000Y-92215675D01*
X198772377Y-92107355D01*
X198923141Y-91743378D01*
X199000000Y-91356983D01*
X199000000Y-90963017D01*
X198923141Y-90576622D01*
X198772377Y-90212645D01*
X198553501Y-89885074D01*
X198274926Y-89606499D01*
X197947355Y-89387623D01*
X197583378Y-89236859D01*
X197196983Y-89160000D01*
X196803017Y-89160000D01*
X196416622Y-89236859D01*
X196052645Y-89387623D01*
X195725074Y-89606499D01*
X195446499Y-89885074D01*
X195227623Y-90212645D01*
X195076859Y-90576622D01*
X195000000Y-90963017D01*
X195000000Y-91356983D01*
X195076859Y-91743378D01*
X195227623Y-92107355D01*
X195300000Y-92215675D01*
X195300001Y-93456605D01*
X195223127Y-93471896D01*
X194731758Y-93675427D01*
X194289538Y-93970909D01*
X193913461Y-94346986D01*
X193617979Y-94789206D01*
X193414448Y-95280575D01*
X193310688Y-95802209D01*
X188200000Y-95802209D01*
X188200000Y-94194113D01*
X188364202Y-94029911D01*
X188626853Y-93636826D01*
X188807770Y-93200054D01*
X188900000Y-92736379D01*
X188900000Y-92263621D01*
X188807770Y-91799946D01*
X188626853Y-91363174D01*
X188364202Y-90970089D01*
X188029911Y-90635798D01*
X187636826Y-90373147D01*
X187200054Y-90192230D01*
X186736379Y-90100000D01*
X186263621Y-90100000D01*
X185799946Y-90192230D01*
X185363174Y-90373147D01*
X184970089Y-90635798D01*
X184635798Y-90970089D01*
X184373147Y-91363174D01*
X184192230Y-91799946D01*
X184100000Y-92263621D01*
X176275000Y-92263621D01*
X176275000Y-72224224D01*
X177200000Y-72224224D01*
X177200000Y-72775776D01*
X177307602Y-73316730D01*
X177518672Y-73826297D01*
X177825098Y-74284896D01*
X178215104Y-74674902D01*
X178673703Y-74981328D01*
X179183270Y-75192398D01*
X179724224Y-75300000D01*
X180275776Y-75300000D01*
X180816730Y-75192398D01*
X181326297Y-74981328D01*
X181784896Y-74674902D01*
X182174902Y-74284896D01*
X182481328Y-73826297D01*
X182692398Y-73316730D01*
X182800000Y-72775776D01*
X182800000Y-72224224D01*
X182692398Y-71683270D01*
X182481328Y-71173703D01*
X182174902Y-70715104D01*
X181784896Y-70325098D01*
X181326297Y-70018672D01*
X180816730Y-69807602D01*
X180275776Y-69700000D01*
X179724224Y-69700000D01*
X179183270Y-69807602D01*
X178673703Y-70018672D01*
X178215104Y-70325098D01*
X177825098Y-70715104D01*
X177518672Y-71173703D01*
X177307602Y-71683270D01*
X177200000Y-72224224D01*
X176275000Y-72224224D01*
X176275000Y-68775000D01*
X202613731Y-68775000D01*
X202123355Y-69265376D01*
M02*
