%TF.GenerationSoftware,KiCad,Pcbnew,(5.1.5-0-10_14)*%
%TF.CreationDate,2020-09-13T21:23:24+01:00*%
%TF.ProjectId,EffectsPCB,45666665-6374-4735-9043-422e6b696361,rev?*%
%TF.SameCoordinates,Original*%
%TF.FileFunction,Legend,Top*%
%TF.FilePolarity,Positive*%
%FSLAX46Y46*%
G04 Gerber Fmt 4.6, Leading zero omitted, Abs format (unit mm)*
G04 Created by KiCad (PCBNEW (5.1.5-0-10_14)) date 2020-09-13 21:23:24*
%MOMM*%
%LPD*%
G04 APERTURE LIST*
%ADD10C,0.200000*%
%ADD11C,0.300000*%
%ADD12C,0.120000*%
%ADD13C,0.150000*%
G04 APERTURE END LIST*
D10*
X196976190Y-77452380D02*
X196642857Y-76976190D01*
X196404761Y-77452380D02*
X196404761Y-76452380D01*
X196785714Y-76452380D01*
X196880952Y-76500000D01*
X196928571Y-76547619D01*
X196976190Y-76642857D01*
X196976190Y-76785714D01*
X196928571Y-76880952D01*
X196880952Y-76928571D01*
X196785714Y-76976190D01*
X196404761Y-76976190D01*
X197166666Y-77547619D02*
X197928571Y-77547619D01*
X198595238Y-76785714D02*
X198595238Y-77595238D01*
X198547619Y-77690476D01*
X198500000Y-77738095D01*
X198404761Y-77785714D01*
X198261904Y-77785714D01*
X198166666Y-77738095D01*
X198595238Y-77404761D02*
X198500000Y-77452380D01*
X198309523Y-77452380D01*
X198214285Y-77404761D01*
X198166666Y-77357142D01*
X198119047Y-77261904D01*
X198119047Y-76976190D01*
X198166666Y-76880952D01*
X198214285Y-76833333D01*
X198309523Y-76785714D01*
X198500000Y-76785714D01*
X198595238Y-76833333D01*
X223361904Y-130565238D02*
X223552380Y-130565238D01*
X223476190Y-130755714D02*
X223552380Y-130565238D01*
X223476190Y-130374761D01*
X223704761Y-130679523D02*
X223552380Y-130565238D01*
X223704761Y-130450952D01*
X223933333Y-130108095D02*
X223933333Y-129727142D01*
X224161904Y-130184285D02*
X223361904Y-129917619D01*
X224161904Y-129650952D01*
X224161904Y-129041428D02*
X223361904Y-129041428D01*
X224123809Y-129041428D02*
X224161904Y-129117619D01*
X224161904Y-129270000D01*
X224123809Y-129346190D01*
X224085714Y-129384285D01*
X224009523Y-129422380D01*
X223780952Y-129422380D01*
X223704761Y-129384285D01*
X223666666Y-129346190D01*
X223628571Y-129270000D01*
X223628571Y-129117619D01*
X223666666Y-129041428D01*
X223628571Y-128660476D02*
X224314285Y-128660476D01*
X224390476Y-128698571D01*
X224428571Y-128774761D01*
X224428571Y-128812857D01*
X223361904Y-128660476D02*
X223400000Y-128698571D01*
X223438095Y-128660476D01*
X223400000Y-128622380D01*
X223361904Y-128660476D01*
X223438095Y-128660476D01*
X223628571Y-127936666D02*
X224161904Y-127936666D01*
X223628571Y-128279523D02*
X224047619Y-128279523D01*
X224123809Y-128241428D01*
X224161904Y-128165238D01*
X224161904Y-128050952D01*
X224123809Y-127974761D01*
X224085714Y-127936666D01*
X224123809Y-127593809D02*
X224161904Y-127517619D01*
X224161904Y-127365238D01*
X224123809Y-127289047D01*
X224047619Y-127250952D01*
X224009523Y-127250952D01*
X223933333Y-127289047D01*
X223895238Y-127365238D01*
X223895238Y-127479523D01*
X223857142Y-127555714D01*
X223780952Y-127593809D01*
X223742857Y-127593809D01*
X223666666Y-127555714D01*
X223628571Y-127479523D01*
X223628571Y-127365238D01*
X223666666Y-127289047D01*
X223628571Y-127022380D02*
X223628571Y-126717619D01*
X223361904Y-126908095D02*
X224047619Y-126908095D01*
X224123809Y-126870000D01*
X224161904Y-126793809D01*
X224161904Y-126717619D01*
X223361904Y-125955714D02*
X224161904Y-125689047D01*
X223361904Y-125422380D01*
X224161904Y-124698571D02*
X223780952Y-124965238D01*
X224161904Y-125155714D02*
X223361904Y-125155714D01*
X223361904Y-124850952D01*
X223400000Y-124774761D01*
X223438095Y-124736666D01*
X223514285Y-124698571D01*
X223628571Y-124698571D01*
X223704761Y-124736666D01*
X223742857Y-124774761D01*
X223780952Y-124850952D01*
X223780952Y-125155714D01*
X224238095Y-124546190D02*
X224238095Y-123936666D01*
X224161904Y-123746190D02*
X223628571Y-123746190D01*
X223361904Y-123746190D02*
X223400000Y-123784285D01*
X223438095Y-123746190D01*
X223400000Y-123708095D01*
X223361904Y-123746190D01*
X223438095Y-123746190D01*
X223628571Y-123365238D02*
X224161904Y-123365238D01*
X223704761Y-123365238D02*
X223666666Y-123327142D01*
X223628571Y-123250952D01*
X223628571Y-123136666D01*
X223666666Y-123060476D01*
X223742857Y-123022380D01*
X224161904Y-123022380D01*
X223628571Y-122641428D02*
X224428571Y-122641428D01*
X223666666Y-122641428D02*
X223628571Y-122565238D01*
X223628571Y-122412857D01*
X223666666Y-122336666D01*
X223704761Y-122298571D01*
X223780952Y-122260476D01*
X224009523Y-122260476D01*
X224085714Y-122298571D01*
X224123809Y-122336666D01*
X224161904Y-122412857D01*
X224161904Y-122565238D01*
X224123809Y-122641428D01*
X224238095Y-122108095D02*
X224238095Y-121498571D01*
X224161904Y-121193809D02*
X224123809Y-121270000D01*
X224047619Y-121308095D01*
X223361904Y-121308095D01*
X224123809Y-120584285D02*
X224161904Y-120660476D01*
X224161904Y-120812857D01*
X224123809Y-120889047D01*
X224047619Y-120927142D01*
X223742857Y-120927142D01*
X223666666Y-120889047D01*
X223628571Y-120812857D01*
X223628571Y-120660476D01*
X223666666Y-120584285D01*
X223742857Y-120546190D01*
X223819047Y-120546190D01*
X223895238Y-120927142D01*
X223628571Y-120279523D02*
X224161904Y-120089047D01*
X223628571Y-119898571D01*
X224123809Y-119289047D02*
X224161904Y-119365238D01*
X224161904Y-119517619D01*
X224123809Y-119593809D01*
X224047619Y-119631904D01*
X223742857Y-119631904D01*
X223666666Y-119593809D01*
X223628571Y-119517619D01*
X223628571Y-119365238D01*
X223666666Y-119289047D01*
X223742857Y-119250952D01*
X223819047Y-119250952D01*
X223895238Y-119631904D01*
X224161904Y-118793809D02*
X224123809Y-118870000D01*
X224047619Y-118908095D01*
X223361904Y-118908095D01*
X223628571Y-117993809D02*
X223628571Y-117689047D01*
X223361904Y-117879523D02*
X224047619Y-117879523D01*
X224123809Y-117841428D01*
X224161904Y-117765238D01*
X224161904Y-117689047D01*
X224161904Y-117308095D02*
X224123809Y-117384285D01*
X224085714Y-117422380D01*
X224009523Y-117460476D01*
X223780952Y-117460476D01*
X223704761Y-117422380D01*
X223666666Y-117384285D01*
X223628571Y-117308095D01*
X223628571Y-117193809D01*
X223666666Y-117117619D01*
X223704761Y-117079523D01*
X223780952Y-117041428D01*
X224009523Y-117041428D01*
X224085714Y-117079523D01*
X224123809Y-117117619D01*
X224161904Y-117193809D01*
X224161904Y-117308095D01*
X223628571Y-115746190D02*
X224276190Y-115746190D01*
X224352380Y-115784285D01*
X224390476Y-115822380D01*
X224428571Y-115898571D01*
X224428571Y-116012857D01*
X224390476Y-116089047D01*
X224123809Y-115746190D02*
X224161904Y-115822380D01*
X224161904Y-115974761D01*
X224123809Y-116050952D01*
X224085714Y-116089047D01*
X224009523Y-116127142D01*
X223780952Y-116127142D01*
X223704761Y-116089047D01*
X223666666Y-116050952D01*
X223628571Y-115974761D01*
X223628571Y-115822380D01*
X223666666Y-115746190D01*
X224123809Y-115060476D02*
X224161904Y-115136666D01*
X224161904Y-115289047D01*
X224123809Y-115365238D01*
X224047619Y-115403333D01*
X223742857Y-115403333D01*
X223666666Y-115365238D01*
X223628571Y-115289047D01*
X223628571Y-115136666D01*
X223666666Y-115060476D01*
X223742857Y-115022380D01*
X223819047Y-115022380D01*
X223895238Y-115403333D01*
X223628571Y-114793809D02*
X223628571Y-114489047D01*
X223361904Y-114679523D02*
X224047619Y-114679523D01*
X224123809Y-114641428D01*
X224161904Y-114565238D01*
X224161904Y-114489047D01*
X225028571Y-130336666D02*
X225561904Y-130336666D01*
X225028571Y-130679523D02*
X225447619Y-130679523D01*
X225523809Y-130641428D01*
X225561904Y-130565238D01*
X225561904Y-130450952D01*
X225523809Y-130374761D01*
X225485714Y-130336666D01*
X225028571Y-129955714D02*
X225561904Y-129955714D01*
X225104761Y-129955714D02*
X225066666Y-129917619D01*
X225028571Y-129841428D01*
X225028571Y-129727142D01*
X225066666Y-129650952D01*
X225142857Y-129612857D01*
X225561904Y-129612857D01*
X225561904Y-129231904D02*
X225028571Y-129231904D01*
X224761904Y-129231904D02*
X224800000Y-129270000D01*
X224838095Y-129231904D01*
X224800000Y-129193809D01*
X224761904Y-129231904D01*
X224838095Y-129231904D01*
X225028571Y-128965238D02*
X225028571Y-128660476D01*
X224761904Y-128850952D02*
X225447619Y-128850952D01*
X225523809Y-128812857D01*
X225561904Y-128736666D01*
X225561904Y-128660476D01*
X225028571Y-128470000D02*
X225561904Y-128279523D01*
X225028571Y-128089047D02*
X225561904Y-128279523D01*
X225752380Y-128355714D01*
X225790476Y-128393809D01*
X225828571Y-128470000D01*
X225028571Y-126831904D02*
X225676190Y-126831904D01*
X225752380Y-126870000D01*
X225790476Y-126908095D01*
X225828571Y-126984285D01*
X225828571Y-127098571D01*
X225790476Y-127174761D01*
X225523809Y-126831904D02*
X225561904Y-126908095D01*
X225561904Y-127060476D01*
X225523809Y-127136666D01*
X225485714Y-127174761D01*
X225409523Y-127212857D01*
X225180952Y-127212857D01*
X225104761Y-127174761D01*
X225066666Y-127136666D01*
X225028571Y-127060476D01*
X225028571Y-126908095D01*
X225066666Y-126831904D01*
X225561904Y-126108095D02*
X225142857Y-126108095D01*
X225066666Y-126146190D01*
X225028571Y-126222380D01*
X225028571Y-126374761D01*
X225066666Y-126450952D01*
X225523809Y-126108095D02*
X225561904Y-126184285D01*
X225561904Y-126374761D01*
X225523809Y-126450952D01*
X225447619Y-126489047D01*
X225371428Y-126489047D01*
X225295238Y-126450952D01*
X225257142Y-126374761D01*
X225257142Y-126184285D01*
X225219047Y-126108095D01*
X225561904Y-125727142D02*
X225028571Y-125727142D01*
X224761904Y-125727142D02*
X224800000Y-125765238D01*
X224838095Y-125727142D01*
X224800000Y-125689047D01*
X224761904Y-125727142D01*
X224838095Y-125727142D01*
X225028571Y-125346190D02*
X225561904Y-125346190D01*
X225104761Y-125346190D02*
X225066666Y-125308095D01*
X225028571Y-125231904D01*
X225028571Y-125117619D01*
X225066666Y-125041428D01*
X225142857Y-125003333D01*
X225561904Y-125003333D01*
X225561904Y-123670000D02*
X225142857Y-123670000D01*
X225066666Y-123708095D01*
X225028571Y-123784285D01*
X225028571Y-123936666D01*
X225066666Y-124012857D01*
X225523809Y-123670000D02*
X225561904Y-123746190D01*
X225561904Y-123936666D01*
X225523809Y-124012857D01*
X225447619Y-124050952D01*
X225371428Y-124050952D01*
X225295238Y-124012857D01*
X225257142Y-123936666D01*
X225257142Y-123746190D01*
X225219047Y-123670000D01*
X225523809Y-122946190D02*
X225561904Y-123022380D01*
X225561904Y-123174761D01*
X225523809Y-123250952D01*
X225485714Y-123289047D01*
X225409523Y-123327142D01*
X225180952Y-123327142D01*
X225104761Y-123289047D01*
X225066666Y-123250952D01*
X225028571Y-123174761D01*
X225028571Y-123022380D01*
X225066666Y-122946190D01*
X225561904Y-122603333D02*
X225028571Y-122603333D01*
X225180952Y-122603333D02*
X225104761Y-122565238D01*
X225066666Y-122527142D01*
X225028571Y-122450952D01*
X225028571Y-122374761D01*
X225561904Y-121993809D02*
X225523809Y-122070000D01*
X225485714Y-122108095D01*
X225409523Y-122146190D01*
X225180952Y-122146190D01*
X225104761Y-122108095D01*
X225066666Y-122070000D01*
X225028571Y-121993809D01*
X225028571Y-121879523D01*
X225066666Y-121803333D01*
X225104761Y-121765238D01*
X225180952Y-121727142D01*
X225409523Y-121727142D01*
X225485714Y-121765238D01*
X225523809Y-121803333D01*
X225561904Y-121879523D01*
X225561904Y-121993809D01*
X225523809Y-121422380D02*
X225561904Y-121346190D01*
X225561904Y-121193809D01*
X225523809Y-121117619D01*
X225447619Y-121079523D01*
X225409523Y-121079523D01*
X225333333Y-121117619D01*
X225295238Y-121193809D01*
X225295238Y-121308095D01*
X225257142Y-121384285D01*
X225180952Y-121422380D01*
X225142857Y-121422380D01*
X225066666Y-121384285D01*
X225028571Y-121308095D01*
X225028571Y-121193809D01*
X225066666Y-121117619D01*
X225523809Y-120774761D02*
X225561904Y-120698571D01*
X225561904Y-120546190D01*
X225523809Y-120470000D01*
X225447619Y-120431904D01*
X225409523Y-120431904D01*
X225333333Y-120470000D01*
X225295238Y-120546190D01*
X225295238Y-120660476D01*
X225257142Y-120736666D01*
X225180952Y-120774761D01*
X225142857Y-120774761D01*
X225066666Y-120736666D01*
X225028571Y-120660476D01*
X225028571Y-120546190D01*
X225066666Y-120470000D01*
X225561904Y-119365238D02*
X225523809Y-119441428D01*
X225447619Y-119479523D01*
X224761904Y-119479523D01*
X225561904Y-118946190D02*
X225523809Y-119022380D01*
X225485714Y-119060476D01*
X225409523Y-119098571D01*
X225180952Y-119098571D01*
X225104761Y-119060476D01*
X225066666Y-119022380D01*
X225028571Y-118946190D01*
X225028571Y-118831904D01*
X225066666Y-118755714D01*
X225104761Y-118717619D01*
X225180952Y-118679523D01*
X225409523Y-118679523D01*
X225485714Y-118717619D01*
X225523809Y-118755714D01*
X225561904Y-118831904D01*
X225561904Y-118946190D01*
X225561904Y-118222380D02*
X225523809Y-118298571D01*
X225485714Y-118336666D01*
X225409523Y-118374761D01*
X225180952Y-118374761D01*
X225104761Y-118336666D01*
X225066666Y-118298571D01*
X225028571Y-118222380D01*
X225028571Y-118108095D01*
X225066666Y-118031904D01*
X225104761Y-117993809D01*
X225180952Y-117955714D01*
X225409523Y-117955714D01*
X225485714Y-117993809D01*
X225523809Y-118031904D01*
X225561904Y-118108095D01*
X225561904Y-118222380D01*
X225028571Y-117612857D02*
X225828571Y-117612857D01*
X225066666Y-117612857D02*
X225028571Y-117536666D01*
X225028571Y-117384285D01*
X225066666Y-117308095D01*
X225104761Y-117270000D01*
X225180952Y-117231904D01*
X225409523Y-117231904D01*
X225485714Y-117270000D01*
X225523809Y-117308095D01*
X225561904Y-117384285D01*
X225561904Y-117536666D01*
X225523809Y-117612857D01*
X197452380Y-87000000D02*
X196976190Y-87333333D01*
X197452380Y-87571428D02*
X196452380Y-87571428D01*
X196452380Y-87190476D01*
X196500000Y-87095238D01*
X196547619Y-87047619D01*
X196642857Y-87000000D01*
X196785714Y-87000000D01*
X196880952Y-87047619D01*
X196928571Y-87095238D01*
X196976190Y-87190476D01*
X196976190Y-87571428D01*
X197547619Y-86809523D02*
X197547619Y-86047619D01*
X197452380Y-85380952D02*
X196928571Y-85380952D01*
X196833333Y-85428571D01*
X196785714Y-85523809D01*
X196785714Y-85714285D01*
X196833333Y-85809523D01*
X197404761Y-85380952D02*
X197452380Y-85476190D01*
X197452380Y-85714285D01*
X197404761Y-85809523D01*
X197309523Y-85857142D01*
X197214285Y-85857142D01*
X197119047Y-85809523D01*
X197071428Y-85714285D01*
X197071428Y-85476190D01*
X197023809Y-85380952D01*
X197452380Y-84380952D02*
X197452380Y-84952380D01*
X197452380Y-84666666D02*
X196452380Y-84666666D01*
X196595238Y-84761904D01*
X196690476Y-84857142D01*
X196738095Y-84952380D01*
X207952380Y-85952380D02*
X207476190Y-86285714D01*
X207952380Y-86523809D02*
X206952380Y-86523809D01*
X206952380Y-86142857D01*
X207000000Y-86047619D01*
X207047619Y-86000000D01*
X207142857Y-85952380D01*
X207285714Y-85952380D01*
X207380952Y-86000000D01*
X207428571Y-86047619D01*
X207476190Y-86142857D01*
X207476190Y-86523809D01*
X208047619Y-85761904D02*
X208047619Y-85000000D01*
X207952380Y-84761904D02*
X206952380Y-84761904D01*
X207571428Y-84666666D02*
X207952380Y-84380952D01*
X207285714Y-84380952D02*
X207666666Y-84761904D01*
X207952380Y-83428571D02*
X207952380Y-84000000D01*
X207952380Y-83714285D02*
X206952380Y-83714285D01*
X207095238Y-83809523D01*
X207190476Y-83904761D01*
X207238095Y-84000000D01*
X213023809Y-131952380D02*
X213595238Y-131952380D01*
X213309523Y-132952380D02*
X213309523Y-131952380D01*
X214071428Y-132952380D02*
X213976190Y-132904761D01*
X213928571Y-132857142D01*
X213880952Y-132761904D01*
X213880952Y-132476190D01*
X213928571Y-132380952D01*
X213976190Y-132333333D01*
X214071428Y-132285714D01*
X214214285Y-132285714D01*
X214309523Y-132333333D01*
X214357142Y-132380952D01*
X214404761Y-132476190D01*
X214404761Y-132761904D01*
X214357142Y-132857142D01*
X214309523Y-132904761D01*
X214214285Y-132952380D01*
X214071428Y-132952380D01*
X214833333Y-132952380D02*
X214833333Y-131952380D01*
X215404761Y-132952380D01*
X215404761Y-131952380D01*
X216261904Y-132904761D02*
X216166666Y-132952380D01*
X215976190Y-132952380D01*
X215880952Y-132904761D01*
X215833333Y-132809523D01*
X215833333Y-132428571D01*
X215880952Y-132333333D01*
X215976190Y-132285714D01*
X216166666Y-132285714D01*
X216261904Y-132333333D01*
X216309523Y-132428571D01*
X216309523Y-132523809D01*
X215833333Y-132619047D01*
X216642857Y-132952380D02*
X217166666Y-132285714D01*
X216642857Y-132285714D02*
X217166666Y-132952380D01*
X217404761Y-132285714D02*
X217785714Y-132285714D01*
X217547619Y-131952380D02*
X217547619Y-132809523D01*
X217595238Y-132904761D01*
X217690476Y-132952380D01*
X217785714Y-132952380D01*
X218071428Y-132904761D02*
X218214285Y-132952380D01*
X218452380Y-132952380D01*
X218547619Y-132904761D01*
X218595238Y-132857142D01*
X218642857Y-132761904D01*
X218642857Y-132666666D01*
X218595238Y-132571428D01*
X218547619Y-132523809D01*
X218452380Y-132476190D01*
X218261904Y-132428571D01*
X218166666Y-132380952D01*
X218119047Y-132333333D01*
X218071428Y-132238095D01*
X218071428Y-132142857D01*
X218119047Y-132047619D01*
X218166666Y-132000000D01*
X218261904Y-131952380D01*
X218500000Y-131952380D01*
X218642857Y-132000000D01*
X218928571Y-132285714D02*
X219309523Y-132285714D01*
X219071428Y-131952380D02*
X219071428Y-132809523D01*
X219119047Y-132904761D01*
X219214285Y-132952380D01*
X219309523Y-132952380D01*
X220071428Y-132952380D02*
X220071428Y-132428571D01*
X220023809Y-132333333D01*
X219928571Y-132285714D01*
X219738095Y-132285714D01*
X219642857Y-132333333D01*
X220071428Y-132904761D02*
X219976190Y-132952380D01*
X219738095Y-132952380D01*
X219642857Y-132904761D01*
X219595238Y-132809523D01*
X219595238Y-132714285D01*
X219642857Y-132619047D01*
X219738095Y-132571428D01*
X219976190Y-132571428D01*
X220071428Y-132523809D01*
X220976190Y-132285714D02*
X220976190Y-133095238D01*
X220928571Y-133190476D01*
X220880952Y-133238095D01*
X220785714Y-133285714D01*
X220642857Y-133285714D01*
X220547619Y-133238095D01*
X220976190Y-132904761D02*
X220880952Y-132952380D01*
X220690476Y-132952380D01*
X220595238Y-132904761D01*
X220547619Y-132857142D01*
X220500000Y-132761904D01*
X220500000Y-132476190D01*
X220547619Y-132380952D01*
X220595238Y-132333333D01*
X220690476Y-132285714D01*
X220880952Y-132285714D01*
X220976190Y-132333333D01*
X221833333Y-132904761D02*
X221738095Y-132952380D01*
X221547619Y-132952380D01*
X221452380Y-132904761D01*
X221404761Y-132809523D01*
X221404761Y-132428571D01*
X221452380Y-132333333D01*
X221547619Y-132285714D01*
X221738095Y-132285714D01*
X221833333Y-132333333D01*
X221880952Y-132428571D01*
X221880952Y-132523809D01*
X221404761Y-132619047D01*
X209738095Y-141000000D02*
X209642857Y-140952380D01*
X209500000Y-140952380D01*
X209357142Y-141000000D01*
X209261904Y-141095238D01*
X209214285Y-141190476D01*
X209166666Y-141380952D01*
X209166666Y-141523809D01*
X209214285Y-141714285D01*
X209261904Y-141809523D01*
X209357142Y-141904761D01*
X209500000Y-141952380D01*
X209595238Y-141952380D01*
X209738095Y-141904761D01*
X209785714Y-141857142D01*
X209785714Y-141523809D01*
X209595238Y-141523809D01*
X210214285Y-141952380D02*
X210214285Y-140952380D01*
X210785714Y-141952380D01*
X210785714Y-140952380D01*
X211261904Y-141952380D02*
X211261904Y-140952380D01*
X211500000Y-140952380D01*
X211642857Y-141000000D01*
X211738095Y-141095238D01*
X211785714Y-141190476D01*
X211833333Y-141380952D01*
X211833333Y-141523809D01*
X211785714Y-141714285D01*
X211738095Y-141809523D01*
X211642857Y-141904761D01*
X211500000Y-141952380D01*
X211261904Y-141952380D01*
X203309523Y-132428571D02*
X202976190Y-132428571D01*
X202976190Y-132952380D02*
X202976190Y-131952380D01*
X203452380Y-131952380D01*
X203833333Y-132952380D02*
X203833333Y-132285714D01*
X203833333Y-132476190D02*
X203880952Y-132380952D01*
X203928571Y-132333333D01*
X204023809Y-132285714D01*
X204119047Y-132285714D01*
X204595238Y-132952380D02*
X204500000Y-132904761D01*
X204452380Y-132857142D01*
X204404761Y-132761904D01*
X204404761Y-132476190D01*
X204452380Y-132380952D01*
X204500000Y-132333333D01*
X204595238Y-132285714D01*
X204738095Y-132285714D01*
X204833333Y-132333333D01*
X204880952Y-132380952D01*
X204928571Y-132476190D01*
X204928571Y-132761904D01*
X204880952Y-132857142D01*
X204833333Y-132904761D01*
X204738095Y-132952380D01*
X204595238Y-132952380D01*
X205357142Y-132952380D02*
X205357142Y-132285714D01*
X205357142Y-132380952D02*
X205404761Y-132333333D01*
X205500000Y-132285714D01*
X205642857Y-132285714D01*
X205738095Y-132333333D01*
X205785714Y-132428571D01*
X205785714Y-132952380D01*
X205785714Y-132428571D02*
X205833333Y-132333333D01*
X205928571Y-132285714D01*
X206071428Y-132285714D01*
X206166666Y-132333333D01*
X206214285Y-132428571D01*
X206214285Y-132952380D01*
X207023809Y-132428571D02*
X206690476Y-132428571D01*
X206690476Y-132952380D02*
X206690476Y-131952380D01*
X207166666Y-131952380D01*
X207452380Y-131952380D02*
X208119047Y-132952380D01*
X208119047Y-131952380D02*
X207452380Y-132952380D01*
X193238095Y-132666666D02*
X193714285Y-132666666D01*
X193142857Y-132952380D02*
X193476190Y-131952380D01*
X193809523Y-132952380D01*
X194666666Y-132000000D02*
X194571428Y-131952380D01*
X194428571Y-131952380D01*
X194285714Y-132000000D01*
X194190476Y-132095238D01*
X194142857Y-132190476D01*
X194095238Y-132380952D01*
X194095238Y-132523809D01*
X194142857Y-132714285D01*
X194190476Y-132809523D01*
X194285714Y-132904761D01*
X194428571Y-132952380D01*
X194523809Y-132952380D01*
X194666666Y-132904761D01*
X194714285Y-132857142D01*
X194714285Y-132523809D01*
X194523809Y-132523809D01*
X195142857Y-132952380D02*
X195142857Y-131952380D01*
X195714285Y-132952380D01*
X195714285Y-131952380D01*
X196190476Y-132952380D02*
X196190476Y-131952380D01*
X196428571Y-131952380D01*
X196571428Y-132000000D01*
X196666666Y-132095238D01*
X196714285Y-132190476D01*
X196761904Y-132380952D01*
X196761904Y-132523809D01*
X196714285Y-132714285D01*
X196666666Y-132809523D01*
X196571428Y-132904761D01*
X196428571Y-132952380D01*
X196190476Y-132952380D01*
X219500000Y-96261904D02*
X219452380Y-96357142D01*
X219452380Y-96500000D01*
X219500000Y-96642857D01*
X219595238Y-96738095D01*
X219690476Y-96785714D01*
X219880952Y-96833333D01*
X220023809Y-96833333D01*
X220214285Y-96785714D01*
X220309523Y-96738095D01*
X220404761Y-96642857D01*
X220452380Y-96500000D01*
X220452380Y-96404761D01*
X220404761Y-96261904D01*
X220357142Y-96214285D01*
X220023809Y-96214285D01*
X220023809Y-96404761D01*
X220452380Y-95785714D02*
X219452380Y-95785714D01*
X220452380Y-95214285D01*
X219452380Y-95214285D01*
X220452380Y-94738095D02*
X219452380Y-94738095D01*
X219452380Y-94500000D01*
X219500000Y-94357142D01*
X219595238Y-94261904D01*
X219690476Y-94214285D01*
X219880952Y-94166666D01*
X220023809Y-94166666D01*
X220214285Y-94214285D01*
X220309523Y-94261904D01*
X220404761Y-94357142D01*
X220452380Y-94500000D01*
X220452380Y-94738095D01*
X228452380Y-93595238D02*
X228452380Y-93023809D01*
X229452380Y-93309523D02*
X228452380Y-93309523D01*
X229452380Y-92547619D02*
X229404761Y-92642857D01*
X229357142Y-92690476D01*
X229261904Y-92738095D01*
X228976190Y-92738095D01*
X228880952Y-92690476D01*
X228833333Y-92642857D01*
X228785714Y-92547619D01*
X228785714Y-92404761D01*
X228833333Y-92309523D01*
X228880952Y-92261904D01*
X228976190Y-92214285D01*
X229261904Y-92214285D01*
X229357142Y-92261904D01*
X229404761Y-92309523D01*
X229452380Y-92404761D01*
X229452380Y-92547619D01*
X229404761Y-91833333D02*
X229452380Y-91690476D01*
X229452380Y-91452380D01*
X229404761Y-91357142D01*
X229357142Y-91309523D01*
X229261904Y-91261904D01*
X229166666Y-91261904D01*
X229071428Y-91309523D01*
X229023809Y-91357142D01*
X228976190Y-91452380D01*
X228928571Y-91642857D01*
X228880952Y-91738095D01*
X228833333Y-91785714D01*
X228738095Y-91833333D01*
X228642857Y-91833333D01*
X228547619Y-91785714D01*
X228500000Y-91738095D01*
X228452380Y-91642857D01*
X228452380Y-91404761D01*
X228500000Y-91261904D01*
X229404761Y-90452380D02*
X229452380Y-90547619D01*
X229452380Y-90738095D01*
X229404761Y-90833333D01*
X229309523Y-90880952D01*
X228928571Y-90880952D01*
X228833333Y-90833333D01*
X228785714Y-90738095D01*
X228785714Y-90547619D01*
X228833333Y-90452380D01*
X228928571Y-90404761D01*
X229023809Y-90404761D01*
X229119047Y-90880952D01*
X228785714Y-89976190D02*
X229452380Y-89976190D01*
X228880952Y-89976190D02*
X228833333Y-89928571D01*
X228785714Y-89833333D01*
X228785714Y-89690476D01*
X228833333Y-89595238D01*
X228928571Y-89547619D01*
X229452380Y-89547619D01*
X229452380Y-88642857D02*
X228452380Y-88642857D01*
X229404761Y-88642857D02*
X229452380Y-88738095D01*
X229452380Y-88928571D01*
X229404761Y-89023809D01*
X229357142Y-89071428D01*
X229261904Y-89119047D01*
X228976190Y-89119047D01*
X228880952Y-89071428D01*
X228833333Y-89023809D01*
X228785714Y-88928571D01*
X228785714Y-88738095D01*
X228833333Y-88642857D01*
X229452380Y-87690476D02*
X229452380Y-88166666D01*
X228452380Y-88166666D01*
X228785714Y-87452380D02*
X229452380Y-87214285D01*
X228785714Y-86976190D01*
X229452380Y-86452380D02*
X229404761Y-86547619D01*
X229309523Y-86595238D01*
X228452380Y-86595238D01*
X219500000Y-85761904D02*
X219452380Y-85857142D01*
X219452380Y-86000000D01*
X219500000Y-86142857D01*
X219595238Y-86238095D01*
X219690476Y-86285714D01*
X219880952Y-86333333D01*
X220023809Y-86333333D01*
X220214285Y-86285714D01*
X220309523Y-86238095D01*
X220404761Y-86142857D01*
X220452380Y-86000000D01*
X220452380Y-85904761D01*
X220404761Y-85761904D01*
X220357142Y-85714285D01*
X220023809Y-85714285D01*
X220023809Y-85904761D01*
X220452380Y-85285714D02*
X219452380Y-85285714D01*
X220452380Y-84714285D01*
X219452380Y-84714285D01*
X220452380Y-84238095D02*
X219452380Y-84238095D01*
X219452380Y-84000000D01*
X219500000Y-83857142D01*
X219595238Y-83761904D01*
X219690476Y-83714285D01*
X219880952Y-83666666D01*
X220023809Y-83666666D01*
X220214285Y-83714285D01*
X220309523Y-83761904D01*
X220404761Y-83857142D01*
X220452380Y-84000000D01*
X220452380Y-84238095D01*
X219561904Y-130565238D02*
X219752380Y-130565238D01*
X219676190Y-130755714D02*
X219752380Y-130565238D01*
X219676190Y-130374761D01*
X219904761Y-130679523D02*
X219752380Y-130565238D01*
X219904761Y-130450952D01*
X219561904Y-130070000D02*
X220209523Y-130070000D01*
X220285714Y-130031904D01*
X220323809Y-129993809D01*
X220361904Y-129917619D01*
X220361904Y-129765238D01*
X220323809Y-129689047D01*
X220285714Y-129650952D01*
X220209523Y-129612857D01*
X219561904Y-129612857D01*
X220323809Y-129270000D02*
X220361904Y-129193809D01*
X220361904Y-129041428D01*
X220323809Y-128965238D01*
X220247619Y-128927142D01*
X220209523Y-128927142D01*
X220133333Y-128965238D01*
X220095238Y-129041428D01*
X220095238Y-129155714D01*
X220057142Y-129231904D01*
X219980952Y-129270000D01*
X219942857Y-129270000D01*
X219866666Y-129231904D01*
X219828571Y-129155714D01*
X219828571Y-129041428D01*
X219866666Y-128965238D01*
X220323809Y-128279523D02*
X220361904Y-128355714D01*
X220361904Y-128508095D01*
X220323809Y-128584285D01*
X220247619Y-128622380D01*
X219942857Y-128622380D01*
X219866666Y-128584285D01*
X219828571Y-128508095D01*
X219828571Y-128355714D01*
X219866666Y-128279523D01*
X219942857Y-128241428D01*
X220019047Y-128241428D01*
X220095238Y-128622380D01*
X220133333Y-127327142D02*
X220133333Y-126946190D01*
X220361904Y-127403333D02*
X219561904Y-127136666D01*
X220361904Y-126870000D01*
X219600000Y-126184285D02*
X219561904Y-126260476D01*
X219561904Y-126374761D01*
X219600000Y-126489047D01*
X219676190Y-126565238D01*
X219752380Y-126603333D01*
X219904761Y-126641428D01*
X220019047Y-126641428D01*
X220171428Y-126603333D01*
X220247619Y-126565238D01*
X220323809Y-126489047D01*
X220361904Y-126374761D01*
X220361904Y-126298571D01*
X220323809Y-126184285D01*
X220285714Y-126146190D01*
X220019047Y-126146190D01*
X220019047Y-126298571D01*
X220361904Y-125803333D02*
X219561904Y-125803333D01*
X220361904Y-125346190D01*
X219561904Y-125346190D01*
X220361904Y-124965238D02*
X219561904Y-124965238D01*
X219561904Y-124774761D01*
X219600000Y-124660476D01*
X219676190Y-124584285D01*
X219752380Y-124546190D01*
X219904761Y-124508095D01*
X220019047Y-124508095D01*
X220171428Y-124546190D01*
X220247619Y-124584285D01*
X220323809Y-124660476D01*
X220361904Y-124774761D01*
X220361904Y-124965238D01*
X220361904Y-123212857D02*
X219942857Y-123212857D01*
X219866666Y-123250952D01*
X219828571Y-123327142D01*
X219828571Y-123479523D01*
X219866666Y-123555714D01*
X220323809Y-123212857D02*
X220361904Y-123289047D01*
X220361904Y-123479523D01*
X220323809Y-123555714D01*
X220247619Y-123593809D01*
X220171428Y-123593809D01*
X220095238Y-123555714D01*
X220057142Y-123479523D01*
X220057142Y-123289047D01*
X220019047Y-123212857D01*
X220323809Y-122870000D02*
X220361904Y-122793809D01*
X220361904Y-122641428D01*
X220323809Y-122565238D01*
X220247619Y-122527142D01*
X220209523Y-122527142D01*
X220133333Y-122565238D01*
X220095238Y-122641428D01*
X220095238Y-122755714D01*
X220057142Y-122831904D01*
X219980952Y-122870000D01*
X219942857Y-122870000D01*
X219866666Y-122831904D01*
X219828571Y-122755714D01*
X219828571Y-122641428D01*
X219866666Y-122565238D01*
X220361904Y-121574761D02*
X219828571Y-121574761D01*
X219980952Y-121574761D02*
X219904761Y-121536666D01*
X219866666Y-121498571D01*
X219828571Y-121422380D01*
X219828571Y-121346190D01*
X220323809Y-120774761D02*
X220361904Y-120850952D01*
X220361904Y-121003333D01*
X220323809Y-121079523D01*
X220247619Y-121117619D01*
X219942857Y-121117619D01*
X219866666Y-121079523D01*
X219828571Y-121003333D01*
X219828571Y-120850952D01*
X219866666Y-120774761D01*
X219942857Y-120736666D01*
X220019047Y-120736666D01*
X220095238Y-121117619D01*
X219828571Y-120508095D02*
X219828571Y-120203333D01*
X219561904Y-120393809D02*
X220247619Y-120393809D01*
X220323809Y-120355714D01*
X220361904Y-120279523D01*
X220361904Y-120203333D01*
X219828571Y-119593809D02*
X220361904Y-119593809D01*
X219828571Y-119936666D02*
X220247619Y-119936666D01*
X220323809Y-119898571D01*
X220361904Y-119822380D01*
X220361904Y-119708095D01*
X220323809Y-119631904D01*
X220285714Y-119593809D01*
X220361904Y-119212857D02*
X219828571Y-119212857D01*
X219980952Y-119212857D02*
X219904761Y-119174761D01*
X219866666Y-119136666D01*
X219828571Y-119060476D01*
X219828571Y-118984285D01*
X219828571Y-118717619D02*
X220361904Y-118717619D01*
X219904761Y-118717619D02*
X219866666Y-118679523D01*
X219828571Y-118603333D01*
X219828571Y-118489047D01*
X219866666Y-118412857D01*
X219942857Y-118374761D01*
X220361904Y-118374761D01*
X219828571Y-117498571D02*
X219828571Y-117193809D01*
X220361904Y-117384285D02*
X219676190Y-117384285D01*
X219600000Y-117346190D01*
X219561904Y-117270000D01*
X219561904Y-117193809D01*
X220361904Y-116927142D02*
X219828571Y-116927142D01*
X219980952Y-116927142D02*
X219904761Y-116889047D01*
X219866666Y-116850952D01*
X219828571Y-116774761D01*
X219828571Y-116698571D01*
X220361904Y-116317619D02*
X220323809Y-116393809D01*
X220285714Y-116431904D01*
X220209523Y-116470000D01*
X219980952Y-116470000D01*
X219904761Y-116431904D01*
X219866666Y-116393809D01*
X219828571Y-116317619D01*
X219828571Y-116203333D01*
X219866666Y-116127142D01*
X219904761Y-116089047D01*
X219980952Y-116050952D01*
X220209523Y-116050952D01*
X220285714Y-116089047D01*
X220323809Y-116127142D01*
X220361904Y-116203333D01*
X220361904Y-116317619D01*
X220361904Y-115708095D02*
X219828571Y-115708095D01*
X219904761Y-115708095D02*
X219866666Y-115670000D01*
X219828571Y-115593809D01*
X219828571Y-115479523D01*
X219866666Y-115403333D01*
X219942857Y-115365238D01*
X220361904Y-115365238D01*
X219942857Y-115365238D02*
X219866666Y-115327142D01*
X219828571Y-115250952D01*
X219828571Y-115136666D01*
X219866666Y-115060476D01*
X219942857Y-115022380D01*
X220361904Y-115022380D01*
X219828571Y-114031904D02*
X220628571Y-114031904D01*
X219866666Y-114031904D02*
X219828571Y-113955714D01*
X219828571Y-113803333D01*
X219866666Y-113727142D01*
X219904761Y-113689047D01*
X219980952Y-113650952D01*
X220209523Y-113650952D01*
X220285714Y-113689047D01*
X220323809Y-113727142D01*
X220361904Y-113803333D01*
X220361904Y-113955714D01*
X220323809Y-114031904D01*
X220361904Y-113193809D02*
X220323809Y-113270000D01*
X220285714Y-113308095D01*
X220209523Y-113346190D01*
X219980952Y-113346190D01*
X219904761Y-113308095D01*
X219866666Y-113270000D01*
X219828571Y-113193809D01*
X219828571Y-113079523D01*
X219866666Y-113003333D01*
X219904761Y-112965238D01*
X219980952Y-112927142D01*
X220209523Y-112927142D01*
X220285714Y-112965238D01*
X220323809Y-113003333D01*
X220361904Y-113079523D01*
X220361904Y-113193809D01*
X219828571Y-112698571D02*
X219828571Y-112393809D01*
X219561904Y-112584285D02*
X220247619Y-112584285D01*
X220323809Y-112546190D01*
X220361904Y-112470000D01*
X220361904Y-112393809D01*
X220323809Y-112165238D02*
X220361904Y-112089047D01*
X220361904Y-111936666D01*
X220323809Y-111860476D01*
X220247619Y-111822380D01*
X220209523Y-111822380D01*
X220133333Y-111860476D01*
X220095238Y-111936666D01*
X220095238Y-112050952D01*
X220057142Y-112127142D01*
X219980952Y-112165238D01*
X219942857Y-112165238D01*
X219866666Y-112127142D01*
X219828571Y-112050952D01*
X219828571Y-111936666D01*
X219866666Y-111860476D01*
X218142857Y-69452380D02*
X218142857Y-68452380D01*
X218142857Y-68928571D02*
X218714285Y-68928571D01*
X218714285Y-69452380D02*
X218714285Y-68452380D01*
X219047619Y-68452380D02*
X219619047Y-68452380D01*
X219333333Y-69452380D02*
X219333333Y-68452380D01*
X219952380Y-69452380D02*
X219952380Y-68785714D01*
X219952380Y-68452380D02*
X219904761Y-68500000D01*
X219952380Y-68547619D01*
X220000000Y-68500000D01*
X219952380Y-68452380D01*
X219952380Y-68547619D01*
X220428571Y-68785714D02*
X220428571Y-69452380D01*
X220428571Y-68880952D02*
X220476190Y-68833333D01*
X220571428Y-68785714D01*
X220714285Y-68785714D01*
X220809523Y-68833333D01*
X220857142Y-68928571D01*
X220857142Y-69452380D01*
X221061904Y-130565238D02*
X221252380Y-130565238D01*
X221176190Y-130755714D02*
X221252380Y-130565238D01*
X221176190Y-130374761D01*
X221404761Y-130679523D02*
X221252380Y-130565238D01*
X221404761Y-130450952D01*
X221061904Y-130070000D02*
X221709523Y-130070000D01*
X221785714Y-130031904D01*
X221823809Y-129993809D01*
X221861904Y-129917619D01*
X221861904Y-129765238D01*
X221823809Y-129689047D01*
X221785714Y-129650952D01*
X221709523Y-129612857D01*
X221061904Y-129612857D01*
X221823809Y-129270000D02*
X221861904Y-129193809D01*
X221861904Y-129041428D01*
X221823809Y-128965238D01*
X221747619Y-128927142D01*
X221709523Y-128927142D01*
X221633333Y-128965238D01*
X221595238Y-129041428D01*
X221595238Y-129155714D01*
X221557142Y-129231904D01*
X221480952Y-129270000D01*
X221442857Y-129270000D01*
X221366666Y-129231904D01*
X221328571Y-129155714D01*
X221328571Y-129041428D01*
X221366666Y-128965238D01*
X221823809Y-128279523D02*
X221861904Y-128355714D01*
X221861904Y-128508095D01*
X221823809Y-128584285D01*
X221747619Y-128622380D01*
X221442857Y-128622380D01*
X221366666Y-128584285D01*
X221328571Y-128508095D01*
X221328571Y-128355714D01*
X221366666Y-128279523D01*
X221442857Y-128241428D01*
X221519047Y-128241428D01*
X221595238Y-128622380D01*
X221100000Y-126870000D02*
X221061904Y-126946190D01*
X221061904Y-127060476D01*
X221100000Y-127174761D01*
X221176190Y-127250952D01*
X221252380Y-127289047D01*
X221404761Y-127327142D01*
X221519047Y-127327142D01*
X221671428Y-127289047D01*
X221747619Y-127250952D01*
X221823809Y-127174761D01*
X221861904Y-127060476D01*
X221861904Y-126984285D01*
X221823809Y-126870000D01*
X221785714Y-126831904D01*
X221519047Y-126831904D01*
X221519047Y-126984285D01*
X221861904Y-126489047D02*
X221061904Y-126489047D01*
X221861904Y-126031904D01*
X221061904Y-126031904D01*
X221861904Y-125650952D02*
X221061904Y-125650952D01*
X221061904Y-125460476D01*
X221100000Y-125346190D01*
X221176190Y-125270000D01*
X221252380Y-125231904D01*
X221404761Y-125193809D01*
X221519047Y-125193809D01*
X221671428Y-125231904D01*
X221747619Y-125270000D01*
X221823809Y-125346190D01*
X221861904Y-125460476D01*
X221861904Y-125650952D01*
X221328571Y-124355714D02*
X221328571Y-124050952D01*
X221861904Y-124241428D02*
X221176190Y-124241428D01*
X221100000Y-124203333D01*
X221061904Y-124127142D01*
X221061904Y-124050952D01*
X221861904Y-123670000D02*
X221823809Y-123746190D01*
X221785714Y-123784285D01*
X221709523Y-123822380D01*
X221480952Y-123822380D01*
X221404761Y-123784285D01*
X221366666Y-123746190D01*
X221328571Y-123670000D01*
X221328571Y-123555714D01*
X221366666Y-123479523D01*
X221404761Y-123441428D01*
X221480952Y-123403333D01*
X221709523Y-123403333D01*
X221785714Y-123441428D01*
X221823809Y-123479523D01*
X221861904Y-123555714D01*
X221861904Y-123670000D01*
X221861904Y-123060476D02*
X221328571Y-123060476D01*
X221480952Y-123060476D02*
X221404761Y-123022380D01*
X221366666Y-122984285D01*
X221328571Y-122908095D01*
X221328571Y-122831904D01*
X221328571Y-122031904D02*
X221861904Y-121879523D01*
X221480952Y-121727142D01*
X221861904Y-121574761D01*
X221328571Y-121422380D01*
X221861904Y-121117619D02*
X221328571Y-121117619D01*
X221061904Y-121117619D02*
X221100000Y-121155714D01*
X221138095Y-121117619D01*
X221100000Y-121079523D01*
X221061904Y-121117619D01*
X221138095Y-121117619D01*
X221861904Y-120736666D02*
X221328571Y-120736666D01*
X221480952Y-120736666D02*
X221404761Y-120698571D01*
X221366666Y-120660476D01*
X221328571Y-120584285D01*
X221328571Y-120508095D01*
X221823809Y-119936666D02*
X221861904Y-120012857D01*
X221861904Y-120165238D01*
X221823809Y-120241428D01*
X221747619Y-120279523D01*
X221442857Y-120279523D01*
X221366666Y-120241428D01*
X221328571Y-120165238D01*
X221328571Y-120012857D01*
X221366666Y-119936666D01*
X221442857Y-119898571D01*
X221519047Y-119898571D01*
X221595238Y-120279523D01*
X221823809Y-118984285D02*
X221861904Y-118908095D01*
X221861904Y-118755714D01*
X221823809Y-118679523D01*
X221747619Y-118641428D01*
X221709523Y-118641428D01*
X221633333Y-118679523D01*
X221595238Y-118755714D01*
X221595238Y-118870000D01*
X221557142Y-118946190D01*
X221480952Y-118984285D01*
X221442857Y-118984285D01*
X221366666Y-118946190D01*
X221328571Y-118870000D01*
X221328571Y-118755714D01*
X221366666Y-118679523D01*
X221861904Y-118298571D02*
X221061904Y-118298571D01*
X221861904Y-117955714D02*
X221442857Y-117955714D01*
X221366666Y-117993809D01*
X221328571Y-118070000D01*
X221328571Y-118184285D01*
X221366666Y-118260476D01*
X221404761Y-118298571D01*
X221861904Y-117574761D02*
X221328571Y-117574761D01*
X221061904Y-117574761D02*
X221100000Y-117612857D01*
X221138095Y-117574761D01*
X221100000Y-117536666D01*
X221061904Y-117574761D01*
X221138095Y-117574761D01*
X221823809Y-116889047D02*
X221861904Y-116965238D01*
X221861904Y-117117619D01*
X221823809Y-117193809D01*
X221747619Y-117231904D01*
X221442857Y-117231904D01*
X221366666Y-117193809D01*
X221328571Y-117117619D01*
X221328571Y-116965238D01*
X221366666Y-116889047D01*
X221442857Y-116850952D01*
X221519047Y-116850952D01*
X221595238Y-117231904D01*
X221861904Y-116393809D02*
X221823809Y-116470000D01*
X221747619Y-116508095D01*
X221061904Y-116508095D01*
X221861904Y-115746190D02*
X221061904Y-115746190D01*
X221823809Y-115746190D02*
X221861904Y-115822380D01*
X221861904Y-115974761D01*
X221823809Y-116050952D01*
X221785714Y-116089047D01*
X221709523Y-116127142D01*
X221480952Y-116127142D01*
X221404761Y-116089047D01*
X221366666Y-116050952D01*
X221328571Y-115974761D01*
X221328571Y-115822380D01*
X221366666Y-115746190D01*
X221861904Y-115365238D02*
X221328571Y-115365238D01*
X221061904Y-115365238D02*
X221100000Y-115403333D01*
X221138095Y-115365238D01*
X221100000Y-115327142D01*
X221061904Y-115365238D01*
X221138095Y-115365238D01*
X221328571Y-114984285D02*
X221861904Y-114984285D01*
X221404761Y-114984285D02*
X221366666Y-114946190D01*
X221328571Y-114870000D01*
X221328571Y-114755714D01*
X221366666Y-114679523D01*
X221442857Y-114641428D01*
X221861904Y-114641428D01*
X221328571Y-113917619D02*
X221976190Y-113917619D01*
X222052380Y-113955714D01*
X222090476Y-113993809D01*
X222128571Y-114070000D01*
X222128571Y-114184285D01*
X222090476Y-114260476D01*
X221823809Y-113917619D02*
X221861904Y-113993809D01*
X221861904Y-114146190D01*
X221823809Y-114222380D01*
X221785714Y-114260476D01*
X221709523Y-114298571D01*
X221480952Y-114298571D01*
X221404761Y-114260476D01*
X221366666Y-114222380D01*
X221328571Y-114146190D01*
X221328571Y-113993809D01*
X221366666Y-113917619D01*
X217452380Y-108000000D02*
X216976190Y-108333333D01*
X217452380Y-108571428D02*
X216452380Y-108571428D01*
X216452380Y-108190476D01*
X216500000Y-108095238D01*
X216547619Y-108047619D01*
X216642857Y-108000000D01*
X216785714Y-108000000D01*
X216880952Y-108047619D01*
X216928571Y-108095238D01*
X216976190Y-108190476D01*
X216976190Y-108571428D01*
X217547619Y-107809523D02*
X217547619Y-107047619D01*
X217452380Y-106380952D02*
X216928571Y-106380952D01*
X216833333Y-106428571D01*
X216785714Y-106523809D01*
X216785714Y-106714285D01*
X216833333Y-106809523D01*
X217404761Y-106380952D02*
X217452380Y-106476190D01*
X217452380Y-106714285D01*
X217404761Y-106809523D01*
X217309523Y-106857142D01*
X217214285Y-106857142D01*
X217119047Y-106809523D01*
X217071428Y-106714285D01*
X217071428Y-106476190D01*
X217023809Y-106380952D01*
X216547619Y-105952380D02*
X216500000Y-105904761D01*
X216452380Y-105809523D01*
X216452380Y-105571428D01*
X216500000Y-105476190D01*
X216547619Y-105428571D01*
X216642857Y-105380952D01*
X216738095Y-105380952D01*
X216880952Y-105428571D01*
X217452380Y-106000000D01*
X217452380Y-105380952D01*
X177952380Y-133357142D02*
X177904761Y-133404761D01*
X177761904Y-133452380D01*
X177666666Y-133452380D01*
X177523809Y-133404761D01*
X177428571Y-133309523D01*
X177380952Y-133214285D01*
X177333333Y-133023809D01*
X177333333Y-132880952D01*
X177380952Y-132690476D01*
X177428571Y-132595238D01*
X177523809Y-132500000D01*
X177666666Y-132452380D01*
X177761904Y-132452380D01*
X177904761Y-132500000D01*
X177952380Y-132547619D01*
X178380952Y-133452380D02*
X178380952Y-132452380D01*
X178809523Y-133452380D02*
X178809523Y-132928571D01*
X178761904Y-132833333D01*
X178666666Y-132785714D01*
X178523809Y-132785714D01*
X178428571Y-132833333D01*
X178380952Y-132880952D01*
X179714285Y-133452380D02*
X179714285Y-132928571D01*
X179666666Y-132833333D01*
X179571428Y-132785714D01*
X179380952Y-132785714D01*
X179285714Y-132833333D01*
X179714285Y-133404761D02*
X179619047Y-133452380D01*
X179380952Y-133452380D01*
X179285714Y-133404761D01*
X179238095Y-133309523D01*
X179238095Y-133214285D01*
X179285714Y-133119047D01*
X179380952Y-133071428D01*
X179619047Y-133071428D01*
X179714285Y-133023809D01*
X180142857Y-133404761D02*
X180238095Y-133452380D01*
X180428571Y-133452380D01*
X180523809Y-133404761D01*
X180571428Y-133309523D01*
X180571428Y-133261904D01*
X180523809Y-133166666D01*
X180428571Y-133119047D01*
X180285714Y-133119047D01*
X180190476Y-133071428D01*
X180142857Y-132976190D01*
X180142857Y-132928571D01*
X180190476Y-132833333D01*
X180285714Y-132785714D01*
X180428571Y-132785714D01*
X180523809Y-132833333D01*
X180952380Y-133404761D02*
X181047619Y-133452380D01*
X181238095Y-133452380D01*
X181333333Y-133404761D01*
X181380952Y-133309523D01*
X181380952Y-133261904D01*
X181333333Y-133166666D01*
X181238095Y-133119047D01*
X181095238Y-133119047D01*
X181000000Y-133071428D01*
X180952380Y-132976190D01*
X180952380Y-132928571D01*
X181000000Y-132833333D01*
X181095238Y-132785714D01*
X181238095Y-132785714D01*
X181333333Y-132833333D01*
X181809523Y-133452380D02*
X181809523Y-132785714D01*
X181809523Y-132452380D02*
X181761904Y-132500000D01*
X181809523Y-132547619D01*
X181857142Y-132500000D01*
X181809523Y-132452380D01*
X181809523Y-132547619D01*
X182238095Y-133404761D02*
X182333333Y-133452380D01*
X182523809Y-133452380D01*
X182619047Y-133404761D01*
X182666666Y-133309523D01*
X182666666Y-133261904D01*
X182619047Y-133166666D01*
X182523809Y-133119047D01*
X182380952Y-133119047D01*
X182285714Y-133071428D01*
X182238095Y-132976190D01*
X182238095Y-132928571D01*
X182285714Y-132833333D01*
X182380952Y-132785714D01*
X182523809Y-132785714D01*
X182619047Y-132833333D01*
X195142857Y-71952380D02*
X194809523Y-71476190D01*
X194571428Y-71952380D02*
X194571428Y-70952380D01*
X194952380Y-70952380D01*
X195047619Y-71000000D01*
X195095238Y-71047619D01*
X195142857Y-71142857D01*
X195142857Y-71285714D01*
X195095238Y-71380952D01*
X195047619Y-71428571D01*
X194952380Y-71476190D01*
X194571428Y-71476190D01*
X195333333Y-72047619D02*
X196095238Y-72047619D01*
X196190476Y-71285714D02*
X196571428Y-71285714D01*
X196333333Y-71952380D02*
X196333333Y-71095238D01*
X196380952Y-71000000D01*
X196476190Y-70952380D01*
X196571428Y-70952380D01*
X178642857Y-96857142D02*
X178595238Y-96904761D01*
X178452380Y-96952380D01*
X178357142Y-96952380D01*
X178214285Y-96904761D01*
X178119047Y-96809523D01*
X178071428Y-96714285D01*
X178023809Y-96523809D01*
X178023809Y-96380952D01*
X178071428Y-96190476D01*
X178119047Y-96095238D01*
X178214285Y-96000000D01*
X178357142Y-95952380D01*
X178452380Y-95952380D01*
X178595238Y-96000000D01*
X178642857Y-96047619D01*
X178833333Y-97047619D02*
X179595238Y-97047619D01*
X179690476Y-96285714D02*
X180071428Y-96285714D01*
X179833333Y-96952380D02*
X179833333Y-96095238D01*
X179880952Y-96000000D01*
X179976190Y-95952380D01*
X180071428Y-95952380D01*
X204000000Y-76952380D02*
X204333333Y-77952380D01*
X204666666Y-76952380D01*
X205571428Y-77952380D02*
X205238095Y-77476190D01*
X205000000Y-77952380D02*
X205000000Y-76952380D01*
X205380952Y-76952380D01*
X205476190Y-77000000D01*
X205523809Y-77047619D01*
X205571428Y-77142857D01*
X205571428Y-77285714D01*
X205523809Y-77380952D01*
X205476190Y-77428571D01*
X205380952Y-77476190D01*
X205000000Y-77476190D01*
X205761904Y-78047619D02*
X206523809Y-78047619D01*
X206761904Y-77952380D02*
X206761904Y-77285714D01*
X206761904Y-76952380D02*
X206714285Y-77000000D01*
X206761904Y-77047619D01*
X206809523Y-77000000D01*
X206761904Y-76952380D01*
X206761904Y-77047619D01*
X207238095Y-77285714D02*
X207238095Y-77952380D01*
X207238095Y-77380952D02*
X207285714Y-77333333D01*
X207380952Y-77285714D01*
X207523809Y-77285714D01*
X207619047Y-77333333D01*
X207666666Y-77428571D01*
X207666666Y-77952380D01*
X208142857Y-77285714D02*
X208142857Y-78285714D01*
X208142857Y-77333333D02*
X208238095Y-77285714D01*
X208428571Y-77285714D01*
X208523809Y-77333333D01*
X208571428Y-77380952D01*
X208619047Y-77476190D01*
X208619047Y-77761904D01*
X208571428Y-77857142D01*
X208523809Y-77904761D01*
X208428571Y-77952380D01*
X208238095Y-77952380D01*
X208142857Y-77904761D01*
X208809523Y-78047619D02*
X209571428Y-78047619D01*
X209952380Y-77952380D02*
X209857142Y-77904761D01*
X209809523Y-77809523D01*
X209809523Y-76952380D01*
X210714285Y-77904761D02*
X210619047Y-77952380D01*
X210428571Y-77952380D01*
X210333333Y-77904761D01*
X210285714Y-77809523D01*
X210285714Y-77428571D01*
X210333333Y-77333333D01*
X210428571Y-77285714D01*
X210619047Y-77285714D01*
X210714285Y-77333333D01*
X210761904Y-77428571D01*
X210761904Y-77523809D01*
X210285714Y-77619047D01*
X211095238Y-77285714D02*
X211333333Y-77952380D01*
X211571428Y-77285714D01*
X212333333Y-77904761D02*
X212238095Y-77952380D01*
X212047619Y-77952380D01*
X211952380Y-77904761D01*
X211904761Y-77809523D01*
X211904761Y-77428571D01*
X211952380Y-77333333D01*
X212047619Y-77285714D01*
X212238095Y-77285714D01*
X212333333Y-77333333D01*
X212380952Y-77428571D01*
X212380952Y-77523809D01*
X211904761Y-77619047D01*
X212952380Y-77952380D02*
X212857142Y-77904761D01*
X212809523Y-77809523D01*
X212809523Y-76952380D01*
X212357142Y-125000000D02*
X212404761Y-125047619D01*
X212452380Y-125190476D01*
X212452380Y-125285714D01*
X212404761Y-125428571D01*
X212309523Y-125523809D01*
X212214285Y-125571428D01*
X212023809Y-125619047D01*
X211880952Y-125619047D01*
X211690476Y-125571428D01*
X211595238Y-125523809D01*
X211500000Y-125428571D01*
X211452380Y-125285714D01*
X211452380Y-125190476D01*
X211500000Y-125047619D01*
X211547619Y-125000000D01*
X212547619Y-124809523D02*
X212547619Y-124047619D01*
X212452380Y-123666666D02*
X212404761Y-123761904D01*
X212357142Y-123809523D01*
X212261904Y-123857142D01*
X211976190Y-123857142D01*
X211880952Y-123809523D01*
X211833333Y-123761904D01*
X211785714Y-123666666D01*
X211785714Y-123523809D01*
X211833333Y-123428571D01*
X211880952Y-123380952D01*
X211976190Y-123333333D01*
X212261904Y-123333333D01*
X212357142Y-123380952D01*
X212404761Y-123428571D01*
X212452380Y-123523809D01*
X212452380Y-123666666D01*
X211547619Y-122952380D02*
X211500000Y-122904761D01*
X211452380Y-122809523D01*
X211452380Y-122571428D01*
X211500000Y-122476190D01*
X211547619Y-122428571D01*
X211642857Y-122380952D01*
X211738095Y-122380952D01*
X211880952Y-122428571D01*
X212452380Y-123000000D01*
X212452380Y-122380952D01*
X200452380Y-125452380D02*
X199976190Y-125785714D01*
X200452380Y-126023809D02*
X199452380Y-126023809D01*
X199452380Y-125642857D01*
X199500000Y-125547619D01*
X199547619Y-125500000D01*
X199642857Y-125452380D01*
X199785714Y-125452380D01*
X199880952Y-125500000D01*
X199928571Y-125547619D01*
X199976190Y-125642857D01*
X199976190Y-126023809D01*
X200547619Y-125261904D02*
X200547619Y-124500000D01*
X200452380Y-124261904D02*
X199452380Y-124261904D01*
X200071428Y-124166666D02*
X200452380Y-123880952D01*
X199785714Y-123880952D02*
X200166666Y-124261904D01*
X199547619Y-123500000D02*
X199500000Y-123452380D01*
X199452380Y-123357142D01*
X199452380Y-123119047D01*
X199500000Y-123023809D01*
X199547619Y-122976190D01*
X199642857Y-122928571D01*
X199738095Y-122928571D01*
X199880952Y-122976190D01*
X200452380Y-123547619D01*
X200452380Y-122928571D01*
X212904761Y-97357142D02*
X212857142Y-97404761D01*
X212714285Y-97452380D01*
X212619047Y-97452380D01*
X212476190Y-97404761D01*
X212380952Y-97309523D01*
X212333333Y-97214285D01*
X212285714Y-97023809D01*
X212285714Y-96880952D01*
X212333333Y-96690476D01*
X212380952Y-96595238D01*
X212476190Y-96500000D01*
X212619047Y-96452380D01*
X212714285Y-96452380D01*
X212857142Y-96500000D01*
X212904761Y-96547619D01*
X213095238Y-97547619D02*
X213857142Y-97547619D01*
X214095238Y-97452380D02*
X214095238Y-96452380D01*
X214190476Y-97071428D02*
X214476190Y-97452380D01*
X214476190Y-96785714D02*
X214095238Y-97166666D01*
X214666666Y-97547619D02*
X215428571Y-97547619D01*
X215619047Y-97404761D02*
X215714285Y-97452380D01*
X215904761Y-97452380D01*
X216000000Y-97404761D01*
X216047619Y-97309523D01*
X216047619Y-97261904D01*
X216000000Y-97166666D01*
X215904761Y-97119047D01*
X215761904Y-97119047D01*
X215666666Y-97071428D01*
X215619047Y-96976190D01*
X215619047Y-96928571D01*
X215666666Y-96833333D01*
X215761904Y-96785714D01*
X215904761Y-96785714D01*
X216000000Y-96833333D01*
X216857142Y-97404761D02*
X216761904Y-97452380D01*
X216571428Y-97452380D01*
X216476190Y-97404761D01*
X216428571Y-97309523D01*
X216428571Y-96928571D01*
X216476190Y-96833333D01*
X216571428Y-96785714D01*
X216761904Y-96785714D01*
X216857142Y-96833333D01*
X216904761Y-96928571D01*
X216904761Y-97023809D01*
X216428571Y-97119047D01*
X217333333Y-96785714D02*
X217333333Y-97452380D01*
X217333333Y-96880952D02*
X217380952Y-96833333D01*
X217476190Y-96785714D01*
X217619047Y-96785714D01*
X217714285Y-96833333D01*
X217761904Y-96928571D01*
X217761904Y-97452380D01*
X218666666Y-97452380D02*
X218666666Y-96452380D01*
X218666666Y-97404761D02*
X218571428Y-97452380D01*
X218380952Y-97452380D01*
X218285714Y-97404761D01*
X218238095Y-97357142D01*
X218190476Y-97261904D01*
X218190476Y-96976190D01*
X218238095Y-96880952D01*
X218285714Y-96833333D01*
X218380952Y-96785714D01*
X218571428Y-96785714D01*
X218666666Y-96833333D01*
X187047619Y-116857142D02*
X187000000Y-116904761D01*
X186857142Y-116952380D01*
X186761904Y-116952380D01*
X186619047Y-116904761D01*
X186523809Y-116809523D01*
X186476190Y-116714285D01*
X186428571Y-116523809D01*
X186428571Y-116380952D01*
X186476190Y-116190476D01*
X186523809Y-116095238D01*
X186619047Y-116000000D01*
X186761904Y-115952380D01*
X186857142Y-115952380D01*
X187000000Y-116000000D01*
X187047619Y-116047619D01*
X187238095Y-117047619D02*
X188000000Y-117047619D01*
X188238095Y-116952380D02*
X188238095Y-115952380D01*
X188333333Y-116571428D02*
X188619047Y-116952380D01*
X188619047Y-116285714D02*
X188238095Y-116666666D01*
X189000000Y-116047619D02*
X189047619Y-116000000D01*
X189142857Y-115952380D01*
X189380952Y-115952380D01*
X189476190Y-116000000D01*
X189523809Y-116047619D01*
X189571428Y-116142857D01*
X189571428Y-116238095D01*
X189523809Y-116380952D01*
X188952380Y-116952380D01*
X189571428Y-116952380D01*
X204452380Y-125500000D02*
X203976190Y-125833333D01*
X204452380Y-126071428D02*
X203452380Y-126071428D01*
X203452380Y-125690476D01*
X203500000Y-125595238D01*
X203547619Y-125547619D01*
X203642857Y-125500000D01*
X203785714Y-125500000D01*
X203880952Y-125547619D01*
X203928571Y-125595238D01*
X203976190Y-125690476D01*
X203976190Y-126071428D01*
X204547619Y-125309523D02*
X204547619Y-124547619D01*
X203785714Y-123880952D02*
X204595238Y-123880952D01*
X204690476Y-123928571D01*
X204738095Y-123976190D01*
X204785714Y-124071428D01*
X204785714Y-124214285D01*
X204738095Y-124309523D01*
X204404761Y-123880952D02*
X204452380Y-123976190D01*
X204452380Y-124166666D01*
X204404761Y-124261904D01*
X204357142Y-124309523D01*
X204261904Y-124357142D01*
X203976190Y-124357142D01*
X203880952Y-124309523D01*
X203833333Y-124261904D01*
X203785714Y-124166666D01*
X203785714Y-123976190D01*
X203833333Y-123880952D01*
X203547619Y-123452380D02*
X203500000Y-123404761D01*
X203452380Y-123309523D01*
X203452380Y-123071428D01*
X203500000Y-122976190D01*
X203547619Y-122928571D01*
X203642857Y-122880952D01*
X203738095Y-122880952D01*
X203880952Y-122928571D01*
X204452380Y-123500000D01*
X204452380Y-122880952D01*
X202952380Y-86500000D02*
X202476190Y-86833333D01*
X202952380Y-87071428D02*
X201952380Y-87071428D01*
X201952380Y-86690476D01*
X202000000Y-86595238D01*
X202047619Y-86547619D01*
X202142857Y-86500000D01*
X202285714Y-86500000D01*
X202380952Y-86547619D01*
X202428571Y-86595238D01*
X202476190Y-86690476D01*
X202476190Y-87071428D01*
X203047619Y-86309523D02*
X203047619Y-85547619D01*
X202285714Y-84880952D02*
X203095238Y-84880952D01*
X203190476Y-84928571D01*
X203238095Y-84976190D01*
X203285714Y-85071428D01*
X203285714Y-85214285D01*
X203238095Y-85309523D01*
X202904761Y-84880952D02*
X202952380Y-84976190D01*
X202952380Y-85166666D01*
X202904761Y-85261904D01*
X202857142Y-85309523D01*
X202761904Y-85357142D01*
X202476190Y-85357142D01*
X202380952Y-85309523D01*
X202333333Y-85261904D01*
X202285714Y-85166666D01*
X202285714Y-84976190D01*
X202333333Y-84880952D01*
X202952380Y-83880952D02*
X202952380Y-84452380D01*
X202952380Y-84166666D02*
X201952380Y-84166666D01*
X202095238Y-84261904D01*
X202190476Y-84357142D01*
X202238095Y-84452380D01*
X222904761Y-99952380D02*
X222904761Y-98952380D01*
X222904761Y-99428571D02*
X223476190Y-99428571D01*
X223476190Y-99952380D02*
X223476190Y-98952380D01*
X224333333Y-99904761D02*
X224238095Y-99952380D01*
X224047619Y-99952380D01*
X223952380Y-99904761D01*
X223904761Y-99809523D01*
X223904761Y-99428571D01*
X223952380Y-99333333D01*
X224047619Y-99285714D01*
X224238095Y-99285714D01*
X224333333Y-99333333D01*
X224380952Y-99428571D01*
X224380952Y-99523809D01*
X223904761Y-99619047D01*
X225238095Y-99952380D02*
X225238095Y-99428571D01*
X225190476Y-99333333D01*
X225095238Y-99285714D01*
X224904761Y-99285714D01*
X224809523Y-99333333D01*
X225238095Y-99904761D02*
X225142857Y-99952380D01*
X224904761Y-99952380D01*
X224809523Y-99904761D01*
X224761904Y-99809523D01*
X224761904Y-99714285D01*
X224809523Y-99619047D01*
X224904761Y-99571428D01*
X225142857Y-99571428D01*
X225238095Y-99523809D01*
X225571428Y-99285714D02*
X225952380Y-99285714D01*
X225714285Y-98952380D02*
X225714285Y-99809523D01*
X225761904Y-99904761D01*
X225857142Y-99952380D01*
X225952380Y-99952380D01*
X226666666Y-99904761D02*
X226571428Y-99952380D01*
X226380952Y-99952380D01*
X226285714Y-99904761D01*
X226238095Y-99809523D01*
X226238095Y-99428571D01*
X226285714Y-99333333D01*
X226380952Y-99285714D01*
X226571428Y-99285714D01*
X226666666Y-99333333D01*
X226714285Y-99428571D01*
X226714285Y-99523809D01*
X226238095Y-99619047D01*
X227142857Y-99952380D02*
X227142857Y-99285714D01*
X227142857Y-99476190D02*
X227190476Y-99380952D01*
X227238095Y-99333333D01*
X227333333Y-99285714D01*
X227428571Y-99285714D01*
X227714285Y-99904761D02*
X227809523Y-99952380D01*
X228000000Y-99952380D01*
X228095238Y-99904761D01*
X228142857Y-99809523D01*
X228142857Y-99761904D01*
X228095238Y-99666666D01*
X228000000Y-99619047D01*
X227857142Y-99619047D01*
X227761904Y-99571428D01*
X227714285Y-99476190D01*
X227714285Y-99428571D01*
X227761904Y-99333333D01*
X227857142Y-99285714D01*
X228000000Y-99285714D01*
X228095238Y-99333333D01*
X176904761Y-99952380D02*
X176904761Y-98952380D01*
X176904761Y-99428571D02*
X177476190Y-99428571D01*
X177476190Y-99952380D02*
X177476190Y-98952380D01*
X178333333Y-99904761D02*
X178238095Y-99952380D01*
X178047619Y-99952380D01*
X177952380Y-99904761D01*
X177904761Y-99809523D01*
X177904761Y-99428571D01*
X177952380Y-99333333D01*
X178047619Y-99285714D01*
X178238095Y-99285714D01*
X178333333Y-99333333D01*
X178380952Y-99428571D01*
X178380952Y-99523809D01*
X177904761Y-99619047D01*
X179238095Y-99952380D02*
X179238095Y-99428571D01*
X179190476Y-99333333D01*
X179095238Y-99285714D01*
X178904761Y-99285714D01*
X178809523Y-99333333D01*
X179238095Y-99904761D02*
X179142857Y-99952380D01*
X178904761Y-99952380D01*
X178809523Y-99904761D01*
X178761904Y-99809523D01*
X178761904Y-99714285D01*
X178809523Y-99619047D01*
X178904761Y-99571428D01*
X179142857Y-99571428D01*
X179238095Y-99523809D01*
X179571428Y-99285714D02*
X179952380Y-99285714D01*
X179714285Y-98952380D02*
X179714285Y-99809523D01*
X179761904Y-99904761D01*
X179857142Y-99952380D01*
X179952380Y-99952380D01*
X180666666Y-99904761D02*
X180571428Y-99952380D01*
X180380952Y-99952380D01*
X180285714Y-99904761D01*
X180238095Y-99809523D01*
X180238095Y-99428571D01*
X180285714Y-99333333D01*
X180380952Y-99285714D01*
X180571428Y-99285714D01*
X180666666Y-99333333D01*
X180714285Y-99428571D01*
X180714285Y-99523809D01*
X180238095Y-99619047D01*
X181142857Y-99952380D02*
X181142857Y-99285714D01*
X181142857Y-99476190D02*
X181190476Y-99380952D01*
X181238095Y-99333333D01*
X181333333Y-99285714D01*
X181428571Y-99285714D01*
X181714285Y-99904761D02*
X181809523Y-99952380D01*
X182000000Y-99952380D01*
X182095238Y-99904761D01*
X182142857Y-99809523D01*
X182142857Y-99761904D01*
X182095238Y-99666666D01*
X182000000Y-99619047D01*
X181857142Y-99619047D01*
X181761904Y-99571428D01*
X181714285Y-99476190D01*
X181714285Y-99428571D01*
X181761904Y-99333333D01*
X181857142Y-99285714D01*
X182000000Y-99285714D01*
X182095238Y-99333333D01*
X202642857Y-69452380D02*
X202642857Y-68452380D01*
X202642857Y-68928571D02*
X203214285Y-68928571D01*
X203214285Y-69452380D02*
X203214285Y-68452380D01*
X203547619Y-68452380D02*
X204119047Y-68452380D01*
X203833333Y-69452380D02*
X203833333Y-68452380D01*
X204595238Y-69452380D02*
X204500000Y-69404761D01*
X204452380Y-69357142D01*
X204404761Y-69261904D01*
X204404761Y-68976190D01*
X204452380Y-68880952D01*
X204500000Y-68833333D01*
X204595238Y-68785714D01*
X204738095Y-68785714D01*
X204833333Y-68833333D01*
X204880952Y-68880952D01*
X204928571Y-68976190D01*
X204928571Y-69261904D01*
X204880952Y-69357142D01*
X204833333Y-69404761D01*
X204738095Y-69452380D01*
X204595238Y-69452380D01*
X205785714Y-68785714D02*
X205785714Y-69452380D01*
X205357142Y-68785714D02*
X205357142Y-69309523D01*
X205404761Y-69404761D01*
X205500000Y-69452380D01*
X205642857Y-69452380D01*
X205738095Y-69404761D01*
X205785714Y-69357142D01*
X206119047Y-68785714D02*
X206500000Y-68785714D01*
X206261904Y-68452380D02*
X206261904Y-69309523D01*
X206309523Y-69404761D01*
X206404761Y-69452380D01*
X206500000Y-69452380D01*
X188238095Y-132666666D02*
X188714285Y-132666666D01*
X188142857Y-132952380D02*
X188476190Y-131952380D01*
X188809523Y-132952380D01*
X189666666Y-132000000D02*
X189571428Y-131952380D01*
X189428571Y-131952380D01*
X189285714Y-132000000D01*
X189190476Y-132095238D01*
X189142857Y-132190476D01*
X189095238Y-132380952D01*
X189095238Y-132523809D01*
X189142857Y-132714285D01*
X189190476Y-132809523D01*
X189285714Y-132904761D01*
X189428571Y-132952380D01*
X189523809Y-132952380D01*
X189666666Y-132904761D01*
X189714285Y-132857142D01*
X189714285Y-132523809D01*
X189523809Y-132523809D01*
X190142857Y-132952380D02*
X190142857Y-131952380D01*
X190714285Y-132952380D01*
X190714285Y-131952380D01*
X191190476Y-132952380D02*
X191190476Y-131952380D01*
X191428571Y-131952380D01*
X191571428Y-132000000D01*
X191666666Y-132095238D01*
X191714285Y-132190476D01*
X191761904Y-132380952D01*
X191761904Y-132523809D01*
X191714285Y-132714285D01*
X191666666Y-132809523D01*
X191571428Y-132904761D01*
X191428571Y-132952380D01*
X191190476Y-132952380D01*
X221904761Y-77214285D02*
X221952380Y-77071428D01*
X221952380Y-76833333D01*
X221904761Y-76738095D01*
X221857142Y-76690476D01*
X221761904Y-76642857D01*
X221666666Y-76642857D01*
X221571428Y-76690476D01*
X221523809Y-76738095D01*
X221476190Y-76833333D01*
X221428571Y-77023809D01*
X221380952Y-77119047D01*
X221333333Y-77166666D01*
X221238095Y-77214285D01*
X221142857Y-77214285D01*
X221047619Y-77166666D01*
X221000000Y-77119047D01*
X220952380Y-77023809D01*
X220952380Y-76785714D01*
X221000000Y-76642857D01*
X221952380Y-76214285D02*
X221285714Y-76214285D01*
X220952380Y-76214285D02*
X221000000Y-76261904D01*
X221047619Y-76214285D01*
X221000000Y-76166666D01*
X220952380Y-76214285D01*
X221047619Y-76214285D01*
X221285714Y-75309523D02*
X222095238Y-75309523D01*
X222190476Y-75357142D01*
X222238095Y-75404761D01*
X222285714Y-75500000D01*
X222285714Y-75642857D01*
X222238095Y-75738095D01*
X221904761Y-75309523D02*
X221952380Y-75404761D01*
X221952380Y-75595238D01*
X221904761Y-75690476D01*
X221857142Y-75738095D01*
X221761904Y-75785714D01*
X221476190Y-75785714D01*
X221380952Y-75738095D01*
X221333333Y-75690476D01*
X221285714Y-75595238D01*
X221285714Y-75404761D01*
X221333333Y-75309523D01*
X221285714Y-74833333D02*
X221952380Y-74833333D01*
X221380952Y-74833333D02*
X221333333Y-74785714D01*
X221285714Y-74690476D01*
X221285714Y-74547619D01*
X221333333Y-74452380D01*
X221428571Y-74404761D01*
X221952380Y-74404761D01*
X221952380Y-73500000D02*
X221428571Y-73500000D01*
X221333333Y-73547619D01*
X221285714Y-73642857D01*
X221285714Y-73833333D01*
X221333333Y-73928571D01*
X221904761Y-73500000D02*
X221952380Y-73595238D01*
X221952380Y-73833333D01*
X221904761Y-73928571D01*
X221809523Y-73976190D01*
X221714285Y-73976190D01*
X221619047Y-73928571D01*
X221571428Y-73833333D01*
X221571428Y-73595238D01*
X221523809Y-73500000D01*
X221952380Y-72880952D02*
X221904761Y-72976190D01*
X221809523Y-73023809D01*
X220952380Y-73023809D01*
X222047619Y-72738095D02*
X222047619Y-71976190D01*
X221952380Y-71738095D02*
X220952380Y-71738095D01*
X221285714Y-71261904D02*
X221952380Y-71261904D01*
X221380952Y-71261904D02*
X221333333Y-71214285D01*
X221285714Y-71119047D01*
X221285714Y-70976190D01*
X221333333Y-70880952D01*
X221428571Y-70833333D01*
X221952380Y-70833333D01*
X199738095Y-141000000D02*
X199642857Y-140952380D01*
X199500000Y-140952380D01*
X199357142Y-141000000D01*
X199261904Y-141095238D01*
X199214285Y-141190476D01*
X199166666Y-141380952D01*
X199166666Y-141523809D01*
X199214285Y-141714285D01*
X199261904Y-141809523D01*
X199357142Y-141904761D01*
X199500000Y-141952380D01*
X199595238Y-141952380D01*
X199738095Y-141904761D01*
X199785714Y-141857142D01*
X199785714Y-141523809D01*
X199595238Y-141523809D01*
X200214285Y-141952380D02*
X200214285Y-140952380D01*
X200785714Y-141952380D01*
X200785714Y-140952380D01*
X201261904Y-141952380D02*
X201261904Y-140952380D01*
X201500000Y-140952380D01*
X201642857Y-141000000D01*
X201738095Y-141095238D01*
X201785714Y-141190476D01*
X201833333Y-141380952D01*
X201833333Y-141523809D01*
X201785714Y-141714285D01*
X201738095Y-141809523D01*
X201642857Y-141904761D01*
X201500000Y-141952380D01*
X201261904Y-141952380D01*
D11*
X204842857Y-111517857D02*
X204842857Y-111934523D01*
X205628571Y-111934523D02*
X204128571Y-111934523D01*
X204128571Y-111339285D01*
X204128571Y-110982142D02*
X205628571Y-110148809D01*
X204128571Y-110148809D02*
X205628571Y-110982142D01*
X205628571Y-108125000D02*
X205628571Y-108720238D01*
X204128571Y-108720238D01*
X205628571Y-107529761D02*
X205557142Y-107648809D01*
X205485714Y-107708333D01*
X205342857Y-107767857D01*
X204914285Y-107767857D01*
X204771428Y-107708333D01*
X204700000Y-107648809D01*
X204628571Y-107529761D01*
X204628571Y-107351190D01*
X204700000Y-107232142D01*
X204771428Y-107172619D01*
X204914285Y-107113095D01*
X205342857Y-107113095D01*
X205485714Y-107172619D01*
X205557142Y-107232142D01*
X205628571Y-107351190D01*
X205628571Y-107529761D01*
X205628571Y-106398809D02*
X205557142Y-106517857D01*
X205485714Y-106577380D01*
X205342857Y-106636904D01*
X204914285Y-106636904D01*
X204771428Y-106577380D01*
X204700000Y-106517857D01*
X204628571Y-106398809D01*
X204628571Y-106220238D01*
X204700000Y-106101190D01*
X204771428Y-106041666D01*
X204914285Y-105982142D01*
X205342857Y-105982142D01*
X205485714Y-106041666D01*
X205557142Y-106101190D01*
X205628571Y-106220238D01*
X205628571Y-106398809D01*
X204628571Y-105446428D02*
X206128571Y-105446428D01*
X204700000Y-105446428D02*
X204628571Y-105327380D01*
X204628571Y-105089285D01*
X204700000Y-104970238D01*
X204771428Y-104910714D01*
X204914285Y-104851190D01*
X205342857Y-104851190D01*
X205485714Y-104910714D01*
X205557142Y-104970238D01*
X205628571Y-105089285D01*
X205628571Y-105327380D01*
X205557142Y-105446428D01*
X205628571Y-103363095D02*
X204128571Y-103363095D01*
X204128571Y-102886904D01*
X204200000Y-102767857D01*
X204271428Y-102708333D01*
X204414285Y-102648809D01*
X204628571Y-102648809D01*
X204771428Y-102708333D01*
X204842857Y-102767857D01*
X204914285Y-102886904D01*
X204914285Y-103363095D01*
X205485714Y-101398809D02*
X205557142Y-101458333D01*
X205628571Y-101636904D01*
X205628571Y-101755952D01*
X205557142Y-101934523D01*
X205414285Y-102053571D01*
X205271428Y-102113095D01*
X204985714Y-102172619D01*
X204771428Y-102172619D01*
X204485714Y-102113095D01*
X204342857Y-102053571D01*
X204200000Y-101934523D01*
X204128571Y-101755952D01*
X204128571Y-101636904D01*
X204200000Y-101458333D01*
X204271428Y-101398809D01*
X204842857Y-100446428D02*
X204914285Y-100267857D01*
X204985714Y-100208333D01*
X205128571Y-100148809D01*
X205342857Y-100148809D01*
X205485714Y-100208333D01*
X205557142Y-100267857D01*
X205628571Y-100386904D01*
X205628571Y-100863095D01*
X204128571Y-100863095D01*
X204128571Y-100446428D01*
X204200000Y-100327380D01*
X204271428Y-100267857D01*
X204414285Y-100208333D01*
X204557142Y-100208333D01*
X204700000Y-100267857D01*
X204771428Y-100327380D01*
X204842857Y-100446428D01*
X204842857Y-100863095D01*
X204628571Y-99732142D02*
X205628571Y-99434523D01*
X204628571Y-99136904D01*
X205628571Y-98005952D02*
X205628571Y-98720238D01*
X205628571Y-98363095D02*
X204128571Y-98363095D01*
X204342857Y-98482142D01*
X204485714Y-98601190D01*
X204557142Y-98720238D01*
X206678571Y-111726190D02*
X206678571Y-111011904D01*
X208178571Y-111369047D02*
X206678571Y-111369047D01*
X208178571Y-110595238D02*
X207178571Y-110595238D01*
X207464285Y-110595238D02*
X207321428Y-110535714D01*
X207250000Y-110476190D01*
X207178571Y-110357142D01*
X207178571Y-110238095D01*
X208178571Y-109821428D02*
X207178571Y-109821428D01*
X206678571Y-109821428D02*
X206750000Y-109880952D01*
X206821428Y-109821428D01*
X206750000Y-109761904D01*
X206678571Y-109821428D01*
X206821428Y-109821428D01*
X208107142Y-109285714D02*
X208178571Y-109166666D01*
X208178571Y-108928571D01*
X208107142Y-108809523D01*
X207964285Y-108750000D01*
X207892857Y-108750000D01*
X207750000Y-108809523D01*
X207678571Y-108928571D01*
X207678571Y-109107142D01*
X207607142Y-109226190D01*
X207464285Y-109285714D01*
X207392857Y-109285714D01*
X207250000Y-109226190D01*
X207178571Y-109107142D01*
X207178571Y-108928571D01*
X207250000Y-108809523D01*
X207178571Y-108392857D02*
X207178571Y-107916666D01*
X206678571Y-108214285D02*
X207964285Y-108214285D01*
X208107142Y-108154761D01*
X208178571Y-108035714D01*
X208178571Y-107916666D01*
X208178571Y-106964285D02*
X207392857Y-106964285D01*
X207250000Y-107023809D01*
X207178571Y-107142857D01*
X207178571Y-107380952D01*
X207250000Y-107500000D01*
X208107142Y-106964285D02*
X208178571Y-107083333D01*
X208178571Y-107380952D01*
X208107142Y-107500000D01*
X207964285Y-107559523D01*
X207821428Y-107559523D01*
X207678571Y-107500000D01*
X207607142Y-107380952D01*
X207607142Y-107083333D01*
X207535714Y-106964285D01*
X207178571Y-106369047D02*
X208178571Y-106369047D01*
X207321428Y-106369047D02*
X207250000Y-106309523D01*
X207178571Y-106190476D01*
X207178571Y-106011904D01*
X207250000Y-105892857D01*
X207392857Y-105833333D01*
X208178571Y-105833333D01*
X208035714Y-103571428D02*
X208107142Y-103630952D01*
X208178571Y-103809523D01*
X208178571Y-103928571D01*
X208107142Y-104107142D01*
X207964285Y-104226190D01*
X207821428Y-104285714D01*
X207535714Y-104345238D01*
X207321428Y-104345238D01*
X207035714Y-104285714D01*
X206892857Y-104226190D01*
X206750000Y-104107142D01*
X206678571Y-103928571D01*
X206678571Y-103809523D01*
X206750000Y-103630952D01*
X206821428Y-103571428D01*
X208178571Y-102857142D02*
X208107142Y-102976190D01*
X208035714Y-103035714D01*
X207892857Y-103095238D01*
X207464285Y-103095238D01*
X207321428Y-103035714D01*
X207250000Y-102976190D01*
X207178571Y-102857142D01*
X207178571Y-102678571D01*
X207250000Y-102559523D01*
X207321428Y-102500000D01*
X207464285Y-102440476D01*
X207892857Y-102440476D01*
X208035714Y-102500000D01*
X208107142Y-102559523D01*
X208178571Y-102678571D01*
X208178571Y-102857142D01*
X208178571Y-101726190D02*
X208107142Y-101845238D01*
X207964285Y-101904761D01*
X206678571Y-101904761D01*
X208178571Y-101071428D02*
X208107142Y-101190476D01*
X207964285Y-101250000D01*
X206678571Y-101250000D01*
X208178571Y-100595238D02*
X207178571Y-100595238D01*
X206678571Y-100595238D02*
X206750000Y-100654761D01*
X206821428Y-100595238D01*
X206750000Y-100535714D01*
X206678571Y-100595238D01*
X206821428Y-100595238D01*
X207178571Y-100000000D02*
X208178571Y-100000000D01*
X207321428Y-100000000D02*
X207250000Y-99940476D01*
X207178571Y-99821428D01*
X207178571Y-99642857D01*
X207250000Y-99523809D01*
X207392857Y-99464285D01*
X208178571Y-99464285D01*
X208107142Y-98928571D02*
X208178571Y-98809523D01*
X208178571Y-98571428D01*
X208107142Y-98452380D01*
X207964285Y-98392857D01*
X207892857Y-98392857D01*
X207750000Y-98452380D01*
X207678571Y-98571428D01*
X207678571Y-98750000D01*
X207607142Y-98869047D01*
X207464285Y-98928571D01*
X207392857Y-98928571D01*
X207250000Y-98869047D01*
X207178571Y-98750000D01*
X207178571Y-98571428D01*
X207250000Y-98452380D01*
X209228571Y-109047619D02*
X210300000Y-109047619D01*
X210514285Y-109107142D01*
X210657142Y-109226190D01*
X210728571Y-109404761D01*
X210728571Y-109523809D01*
X209728571Y-107916666D02*
X210728571Y-107916666D01*
X209728571Y-108452380D02*
X210514285Y-108452380D01*
X210657142Y-108392857D01*
X210728571Y-108273809D01*
X210728571Y-108095238D01*
X210657142Y-107976190D01*
X210585714Y-107916666D01*
X210728571Y-107142857D02*
X210657142Y-107261904D01*
X210514285Y-107321428D01*
X209228571Y-107321428D01*
X209728571Y-106785714D02*
X210728571Y-106488095D01*
X209728571Y-106190476D02*
X210728571Y-106488095D01*
X211085714Y-106607142D01*
X211157142Y-106666666D01*
X211228571Y-106785714D01*
X209371428Y-104821428D02*
X209300000Y-104761904D01*
X209228571Y-104642857D01*
X209228571Y-104345238D01*
X209300000Y-104226190D01*
X209371428Y-104166666D01*
X209514285Y-104107142D01*
X209657142Y-104107142D01*
X209871428Y-104166666D01*
X210728571Y-104880952D01*
X210728571Y-104107142D01*
X209228571Y-103333333D02*
X209228571Y-103214285D01*
X209300000Y-103095238D01*
X209371428Y-103035714D01*
X209514285Y-102976190D01*
X209800000Y-102916666D01*
X210157142Y-102916666D01*
X210442857Y-102976190D01*
X210585714Y-103035714D01*
X210657142Y-103095238D01*
X210728571Y-103214285D01*
X210728571Y-103333333D01*
X210657142Y-103452380D01*
X210585714Y-103511904D01*
X210442857Y-103571428D01*
X210157142Y-103630952D01*
X209800000Y-103630952D01*
X209514285Y-103571428D01*
X209371428Y-103511904D01*
X209300000Y-103452380D01*
X209228571Y-103333333D01*
X210728571Y-101726190D02*
X210728571Y-102440476D01*
X210728571Y-102083333D02*
X209228571Y-102083333D01*
X209442857Y-102202380D01*
X209585714Y-102321428D01*
X209657142Y-102440476D01*
X209228571Y-101309523D02*
X209228571Y-100476190D01*
X210728571Y-101011904D01*
D12*
X195550000Y-88750000D02*
X177450000Y-88750000D01*
X195550000Y-88790000D02*
X177450000Y-88790000D01*
X195550000Y-88830000D02*
X177450000Y-88830000D01*
X195550000Y-88870000D02*
X177450000Y-88870000D01*
X195549000Y-88910000D02*
X177451000Y-88910000D01*
X195548000Y-88950000D02*
X177452000Y-88950000D01*
X195547000Y-88990000D02*
X177453000Y-88990000D01*
X195546000Y-89030000D02*
X177454000Y-89030000D01*
X195545000Y-89070000D02*
X177455000Y-89070000D01*
X195543000Y-89110000D02*
X177457000Y-89110000D01*
X195542000Y-89150000D02*
X177458000Y-89150000D01*
X195540000Y-89190000D02*
X177460000Y-89190000D01*
X195538000Y-89230000D02*
X177462000Y-89230000D01*
X195536000Y-89270000D02*
X177464000Y-89270000D01*
X195533000Y-89310000D02*
X177467000Y-89310000D01*
X195531000Y-89350000D02*
X177469000Y-89350000D01*
X195528000Y-89390000D02*
X177472000Y-89390000D01*
X195525000Y-89430000D02*
X177475000Y-89430000D01*
X195522000Y-89471000D02*
X177478000Y-89471000D01*
X195519000Y-89511000D02*
X177481000Y-89511000D01*
X195515000Y-89551000D02*
X177485000Y-89551000D01*
X195512000Y-89591000D02*
X177488000Y-89591000D01*
X195508000Y-89631000D02*
X177492000Y-89631000D01*
X195504000Y-89671000D02*
X177496000Y-89671000D01*
X195500000Y-89711000D02*
X177500000Y-89711000D01*
X195495000Y-89751000D02*
X177505000Y-89751000D01*
X195491000Y-89791000D02*
X177509000Y-89791000D01*
X195486000Y-89831000D02*
X177514000Y-89831000D01*
X195481000Y-89871000D02*
X177519000Y-89871000D01*
X195476000Y-89911000D02*
X177524000Y-89911000D01*
X195471000Y-89951000D02*
X177529000Y-89951000D01*
X195466000Y-89991000D02*
X177534000Y-89991000D01*
X195460000Y-90031000D02*
X177540000Y-90031000D01*
X195454000Y-90071000D02*
X177546000Y-90071000D01*
X195448000Y-90111000D02*
X177552000Y-90111000D01*
X195442000Y-90151000D02*
X177558000Y-90151000D01*
X195436000Y-90191000D02*
X177564000Y-90191000D01*
X195429000Y-90231000D02*
X177571000Y-90231000D01*
X195423000Y-90271000D02*
X177577000Y-90271000D01*
X195416000Y-90311000D02*
X177584000Y-90311000D01*
X195409000Y-90351000D02*
X177591000Y-90351000D01*
X195401000Y-90391000D02*
X177599000Y-90391000D01*
X195394000Y-90431000D02*
X177606000Y-90431000D01*
X195386000Y-90471000D02*
X177614000Y-90471000D01*
X195378000Y-90511000D02*
X177622000Y-90511000D01*
X195370000Y-90551000D02*
X177630000Y-90551000D01*
X195362000Y-90591000D02*
X177638000Y-90591000D01*
X195354000Y-90631000D02*
X177646000Y-90631000D01*
X195345000Y-90671000D02*
X177655000Y-90671000D01*
X195337000Y-90711000D02*
X177663000Y-90711000D01*
X195328000Y-90751000D02*
X177672000Y-90751000D01*
X195319000Y-90791000D02*
X177681000Y-90791000D01*
X195309000Y-90831000D02*
X177691000Y-90831000D01*
X195300000Y-90871000D02*
X177700000Y-90871000D01*
X195290000Y-90911000D02*
X177710000Y-90911000D01*
X195280000Y-90951000D02*
X177720000Y-90951000D01*
X195270000Y-90991000D02*
X177730000Y-90991000D01*
X195260000Y-91031000D02*
X177740000Y-91031000D01*
X195249000Y-91071000D02*
X177751000Y-91071000D01*
X195239000Y-91111000D02*
X177761000Y-91111000D01*
X195228000Y-91151000D02*
X187880000Y-91151000D01*
X185120000Y-91151000D02*
X177772000Y-91151000D01*
X195217000Y-91191000D02*
X187880000Y-91191000D01*
X185120000Y-91191000D02*
X177783000Y-91191000D01*
X195206000Y-91231000D02*
X187880000Y-91231000D01*
X185120000Y-91231000D02*
X177794000Y-91231000D01*
X195194000Y-91271000D02*
X187880000Y-91271000D01*
X185120000Y-91271000D02*
X177806000Y-91271000D01*
X195183000Y-91311000D02*
X187880000Y-91311000D01*
X185120000Y-91311000D02*
X177817000Y-91311000D01*
X195171000Y-91351000D02*
X187880000Y-91351000D01*
X185120000Y-91351000D02*
X177829000Y-91351000D01*
X195159000Y-91391000D02*
X187880000Y-91391000D01*
X185120000Y-91391000D02*
X177841000Y-91391000D01*
X195146000Y-91431000D02*
X187880000Y-91431000D01*
X185120000Y-91431000D02*
X177854000Y-91431000D01*
X195134000Y-91471000D02*
X187880000Y-91471000D01*
X185120000Y-91471000D02*
X177866000Y-91471000D01*
X195121000Y-91511000D02*
X187880000Y-91511000D01*
X185120000Y-91511000D02*
X177879000Y-91511000D01*
X195109000Y-91551000D02*
X187880000Y-91551000D01*
X185120000Y-91551000D02*
X177891000Y-91551000D01*
X195095000Y-91591000D02*
X187880000Y-91591000D01*
X185120000Y-91591000D02*
X177905000Y-91591000D01*
X195082000Y-91631000D02*
X187880000Y-91631000D01*
X185120000Y-91631000D02*
X177918000Y-91631000D01*
X195069000Y-91671000D02*
X187880000Y-91671000D01*
X185120000Y-91671000D02*
X177931000Y-91671000D01*
X195055000Y-91711000D02*
X187880000Y-91711000D01*
X185120000Y-91711000D02*
X177945000Y-91711000D01*
X195041000Y-91751000D02*
X187880000Y-91751000D01*
X185120000Y-91751000D02*
X177959000Y-91751000D01*
X195027000Y-91791000D02*
X187880000Y-91791000D01*
X185120000Y-91791000D02*
X177973000Y-91791000D01*
X195013000Y-91831000D02*
X187880000Y-91831000D01*
X185120000Y-91831000D02*
X177987000Y-91831000D01*
X194998000Y-91871000D02*
X187880000Y-91871000D01*
X185120000Y-91871000D02*
X178002000Y-91871000D01*
X194984000Y-91911000D02*
X187880000Y-91911000D01*
X185120000Y-91911000D02*
X178016000Y-91911000D01*
X194969000Y-91951000D02*
X187880000Y-91951000D01*
X185120000Y-91951000D02*
X178031000Y-91951000D01*
X194953000Y-91991000D02*
X187880000Y-91991000D01*
X185120000Y-91991000D02*
X178047000Y-91991000D01*
X194938000Y-92031000D02*
X187880000Y-92031000D01*
X185120000Y-92031000D02*
X178062000Y-92031000D01*
X194923000Y-92071000D02*
X187880000Y-92071000D01*
X185120000Y-92071000D02*
X178077000Y-92071000D01*
X194907000Y-92111000D02*
X187880000Y-92111000D01*
X185120000Y-92111000D02*
X178093000Y-92111000D01*
X194891000Y-92151000D02*
X187880000Y-92151000D01*
X185120000Y-92151000D02*
X178109000Y-92151000D01*
X194874000Y-92191000D02*
X187880000Y-92191000D01*
X185120000Y-92191000D02*
X178126000Y-92191000D01*
X194858000Y-92231000D02*
X187880000Y-92231000D01*
X185120000Y-92231000D02*
X178142000Y-92231000D01*
X194841000Y-92271000D02*
X187880000Y-92271000D01*
X185120000Y-92271000D02*
X178159000Y-92271000D01*
X194824000Y-92311000D02*
X187880000Y-92311000D01*
X185120000Y-92311000D02*
X178176000Y-92311000D01*
X194807000Y-92351000D02*
X187880000Y-92351000D01*
X185120000Y-92351000D02*
X178193000Y-92351000D01*
X194790000Y-92391000D02*
X187880000Y-92391000D01*
X185120000Y-92391000D02*
X178210000Y-92391000D01*
X194772000Y-92431000D02*
X187880000Y-92431000D01*
X185120000Y-92431000D02*
X178228000Y-92431000D01*
X194754000Y-92471000D02*
X187880000Y-92471000D01*
X185120000Y-92471000D02*
X178246000Y-92471000D01*
X194736000Y-92511000D02*
X187880000Y-92511000D01*
X185120000Y-92511000D02*
X178264000Y-92511000D01*
X194718000Y-92551000D02*
X187880000Y-92551000D01*
X185120000Y-92551000D02*
X178282000Y-92551000D01*
X194700000Y-92591000D02*
X187880000Y-92591000D01*
X185120000Y-92591000D02*
X178300000Y-92591000D01*
X194681000Y-92631000D02*
X187880000Y-92631000D01*
X185120000Y-92631000D02*
X178319000Y-92631000D01*
X194662000Y-92671000D02*
X187880000Y-92671000D01*
X185120000Y-92671000D02*
X178338000Y-92671000D01*
X194643000Y-92711000D02*
X187880000Y-92711000D01*
X185120000Y-92711000D02*
X178357000Y-92711000D01*
X194623000Y-92751000D02*
X187880000Y-92751000D01*
X185120000Y-92751000D02*
X178377000Y-92751000D01*
X194603000Y-92791000D02*
X187880000Y-92791000D01*
X185120000Y-92791000D02*
X178397000Y-92791000D01*
X194583000Y-92831000D02*
X187880000Y-92831000D01*
X185120000Y-92831000D02*
X178417000Y-92831000D01*
X194563000Y-92871000D02*
X187880000Y-92871000D01*
X185120000Y-92871000D02*
X178437000Y-92871000D01*
X194543000Y-92911000D02*
X187880000Y-92911000D01*
X185120000Y-92911000D02*
X178457000Y-92911000D01*
X194522000Y-92951000D02*
X187880000Y-92951000D01*
X185120000Y-92951000D02*
X178478000Y-92951000D01*
X194501000Y-92991000D02*
X187880000Y-92991000D01*
X185120000Y-92991000D02*
X178499000Y-92991000D01*
X194480000Y-93031000D02*
X187880000Y-93031000D01*
X185120000Y-93031000D02*
X178520000Y-93031000D01*
X194458000Y-93071000D02*
X187880000Y-93071000D01*
X185120000Y-93071000D02*
X178542000Y-93071000D01*
X194437000Y-93111000D02*
X187880000Y-93111000D01*
X185120000Y-93111000D02*
X178563000Y-93111000D01*
X194415000Y-93151000D02*
X187880000Y-93151000D01*
X185120000Y-93151000D02*
X178585000Y-93151000D01*
X194392000Y-93191000D02*
X187880000Y-93191000D01*
X185120000Y-93191000D02*
X178608000Y-93191000D01*
X194370000Y-93231000D02*
X187880000Y-93231000D01*
X185120000Y-93231000D02*
X178630000Y-93231000D01*
X194347000Y-93271000D02*
X187880000Y-93271000D01*
X185120000Y-93271000D02*
X178653000Y-93271000D01*
X194324000Y-93311000D02*
X187880000Y-93311000D01*
X185120000Y-93311000D02*
X178676000Y-93311000D01*
X194301000Y-93351000D02*
X187880000Y-93351000D01*
X185120000Y-93351000D02*
X178699000Y-93351000D01*
X194277000Y-93391000D02*
X187880000Y-93391000D01*
X185120000Y-93391000D02*
X178723000Y-93391000D01*
X194253000Y-93431000D02*
X187880000Y-93431000D01*
X185120000Y-93431000D02*
X178747000Y-93431000D01*
X194229000Y-93471000D02*
X187880000Y-93471000D01*
X185120000Y-93471000D02*
X178771000Y-93471000D01*
X194205000Y-93511000D02*
X187880000Y-93511000D01*
X185120000Y-93511000D02*
X178795000Y-93511000D01*
X194180000Y-93551000D02*
X187880000Y-93551000D01*
X185120000Y-93551000D02*
X178820000Y-93551000D01*
X194155000Y-93591000D02*
X187880000Y-93591000D01*
X185120000Y-93591000D02*
X178845000Y-93591000D01*
X194130000Y-93631000D02*
X187880000Y-93631000D01*
X185120000Y-93631000D02*
X178870000Y-93631000D01*
X194104000Y-93671000D02*
X187880000Y-93671000D01*
X185120000Y-93671000D02*
X178896000Y-93671000D01*
X194078000Y-93711000D02*
X187880000Y-93711000D01*
X185120000Y-93711000D02*
X178922000Y-93711000D01*
X194052000Y-93751000D02*
X187880000Y-93751000D01*
X185120000Y-93751000D02*
X178948000Y-93751000D01*
X194025000Y-93791000D02*
X187880000Y-93791000D01*
X185120000Y-93791000D02*
X178975000Y-93791000D01*
X193999000Y-93831000D02*
X187880000Y-93831000D01*
X185120000Y-93831000D02*
X179001000Y-93831000D01*
X193971000Y-93871000D02*
X187880000Y-93871000D01*
X185120000Y-93871000D02*
X179029000Y-93871000D01*
X193944000Y-93911000D02*
X179056000Y-93911000D01*
X193916000Y-93951000D02*
X179084000Y-93951000D01*
X193888000Y-93991000D02*
X179112000Y-93991000D01*
X193860000Y-94031000D02*
X179140000Y-94031000D01*
X193831000Y-94071000D02*
X179169000Y-94071000D01*
X193802000Y-94111000D02*
X179198000Y-94111000D01*
X193773000Y-94151000D02*
X179227000Y-94151000D01*
X193743000Y-94191000D02*
X179257000Y-94191000D01*
X193713000Y-94231000D02*
X179287000Y-94231000D01*
X193683000Y-94271000D02*
X179317000Y-94271000D01*
X193652000Y-94311000D02*
X179348000Y-94311000D01*
X193621000Y-94351000D02*
X179379000Y-94351000D01*
X193589000Y-94391000D02*
X179411000Y-94391000D01*
X193557000Y-94431000D02*
X179443000Y-94431000D01*
X193525000Y-94471000D02*
X179475000Y-94471000D01*
X193493000Y-94511000D02*
X179507000Y-94511000D01*
X193460000Y-94551000D02*
X179540000Y-94551000D01*
X193426000Y-94591000D02*
X179574000Y-94591000D01*
X193393000Y-94631000D02*
X179607000Y-94631000D01*
X193358000Y-94671000D02*
X179642000Y-94671000D01*
X193324000Y-94711000D02*
X179676000Y-94711000D01*
X193289000Y-94751000D02*
X179711000Y-94751000D01*
X193254000Y-94791000D02*
X179746000Y-94791000D01*
X193218000Y-94831000D02*
X179782000Y-94831000D01*
X193182000Y-94871000D02*
X179818000Y-94871000D01*
X193145000Y-94911000D02*
X179855000Y-94911000D01*
X193108000Y-94951000D02*
X179892000Y-94951000D01*
X193070000Y-94991000D02*
X179930000Y-94991000D01*
X193032000Y-95031000D02*
X179968000Y-95031000D01*
X192994000Y-95071000D02*
X180006000Y-95071000D01*
X192955000Y-95111000D02*
X180045000Y-95111000D01*
X192916000Y-95151000D02*
X180084000Y-95151000D01*
X192876000Y-95191000D02*
X180124000Y-95191000D01*
X192835000Y-95231000D02*
X180165000Y-95231000D01*
X192794000Y-95271000D02*
X180206000Y-95271000D01*
X192753000Y-95311000D02*
X180247000Y-95311000D01*
X192711000Y-95351000D02*
X180289000Y-95351000D01*
X192668000Y-95391000D02*
X180332000Y-95391000D01*
X192625000Y-95431000D02*
X180375000Y-95431000D01*
X192582000Y-95471000D02*
X180418000Y-95471000D01*
X192538000Y-95511000D02*
X180462000Y-95511000D01*
X192493000Y-95551000D02*
X180507000Y-95551000D01*
X192447000Y-95591000D02*
X180553000Y-95591000D01*
X192401000Y-95631000D02*
X180599000Y-95631000D01*
X192355000Y-95671000D02*
X180645000Y-95671000D01*
X192307000Y-95711000D02*
X180693000Y-95711000D01*
X192259000Y-95751000D02*
X180741000Y-95751000D01*
X192211000Y-95791000D02*
X180789000Y-95791000D01*
X192162000Y-95831000D02*
X180838000Y-95831000D01*
X192111000Y-95871000D02*
X180889000Y-95871000D01*
X192061000Y-95911000D02*
X180939000Y-95911000D01*
X192009000Y-95951000D02*
X180991000Y-95951000D01*
X191957000Y-95991000D02*
X181043000Y-95991000D01*
X191904000Y-96031000D02*
X181096000Y-96031000D01*
X191850000Y-96071000D02*
X181150000Y-96071000D01*
X191795000Y-96111000D02*
X181205000Y-96111000D01*
X191740000Y-96151000D02*
X181260000Y-96151000D01*
X191683000Y-96191000D02*
X181317000Y-96191000D01*
X191626000Y-96231000D02*
X181374000Y-96231000D01*
X191567000Y-96271000D02*
X181433000Y-96271000D01*
X191508000Y-96311000D02*
X181492000Y-96311000D01*
X191447000Y-96351000D02*
X181553000Y-96351000D01*
X191386000Y-96391000D02*
X181614000Y-96391000D01*
X191323000Y-96431000D02*
X181677000Y-96431000D01*
X191259000Y-96471000D02*
X181741000Y-96471000D01*
X191194000Y-96511000D02*
X181806000Y-96511000D01*
X191128000Y-96551000D02*
X181872000Y-96551000D01*
X191061000Y-96591000D02*
X181939000Y-96591000D01*
X190992000Y-96631000D02*
X182008000Y-96631000D01*
X190922000Y-96671000D02*
X182078000Y-96671000D01*
X190850000Y-96711000D02*
X182150000Y-96711000D01*
X190777000Y-96751000D02*
X182223000Y-96751000D01*
X190702000Y-96791000D02*
X182298000Y-96791000D01*
X190625000Y-96831000D02*
X182375000Y-96831000D01*
X190546000Y-96871000D02*
X182454000Y-96871000D01*
X190466000Y-96911000D02*
X182534000Y-96911000D01*
X190383000Y-96950000D02*
X182617000Y-96950000D01*
X190299000Y-96990000D02*
X182701000Y-96990000D01*
X190211000Y-97030000D02*
X182789000Y-97030000D01*
X190122000Y-97070000D02*
X182878000Y-97070000D01*
X190030000Y-97110000D02*
X182970000Y-97110000D01*
X189934000Y-97150000D02*
X183066000Y-97150000D01*
X189836000Y-97190000D02*
X183164000Y-97190000D01*
X189734000Y-97230000D02*
X183266000Y-97230000D01*
X189629000Y-97270000D02*
X183371000Y-97270000D01*
X189519000Y-97310000D02*
X183481000Y-97310000D01*
X189405000Y-97350000D02*
X183595000Y-97350000D01*
X189285000Y-97390000D02*
X183715000Y-97390000D01*
X189160000Y-97430000D02*
X183840000Y-97430000D01*
X189028000Y-97470000D02*
X183972000Y-97470000D01*
X188888000Y-97510000D02*
X184112000Y-97510000D01*
X188738000Y-97550000D02*
X184262000Y-97550000D01*
X188578000Y-97590000D02*
X184422000Y-97590000D01*
X188403000Y-97630000D02*
X184597000Y-97630000D01*
X188210000Y-97670000D02*
X184790000Y-97670000D01*
X187992000Y-97710000D02*
X185008000Y-97710000D01*
X187736000Y-97750000D02*
X185264000Y-97750000D01*
X187413000Y-97790000D02*
X185587000Y-97790000D01*
X186887000Y-97830000D02*
X186113000Y-97830000D01*
X186500000Y-81800000D02*
X186500000Y-83600000D01*
X187400000Y-82700000D02*
X185600000Y-82700000D01*
X195590000Y-88750000D02*
G75*
G03X195590000Y-88750000I-9090000J0D01*
G01*
X206190000Y-88130000D02*
X208810000Y-88130000D01*
X208810000Y-88130000D02*
X208810000Y-81710000D01*
X208810000Y-81710000D02*
X206190000Y-81710000D01*
X206190000Y-81710000D02*
X206190000Y-88130000D01*
X207500000Y-89020000D02*
X207500000Y-88130000D01*
X207500000Y-80820000D02*
X207500000Y-81710000D01*
X201310000Y-121370000D02*
X198690000Y-121370000D01*
X198690000Y-121370000D02*
X198690000Y-127790000D01*
X198690000Y-127790000D02*
X201310000Y-127790000D01*
X201310000Y-127790000D02*
X201310000Y-121370000D01*
X200000000Y-120480000D02*
X200000000Y-121370000D01*
X200000000Y-128680000D02*
X200000000Y-127790000D01*
X218870000Y-81540000D02*
G75*
G03X218870000Y-81540000I-3870000J0D01*
G01*
D13*
X221850155Y-104249647D02*
G75*
G03X221850000Y-102750000I-1700155J749647D01*
G01*
X221850155Y-109329647D02*
G75*
G03X221850000Y-107830000I-1700155J749647D01*
G01*
X228430000Y-100880000D02*
X221020000Y-100880000D01*
X221020000Y-100880000D02*
X221020000Y-111200000D01*
X221020000Y-111200000D02*
X228430000Y-111200000D01*
X228430000Y-111200000D02*
X228430000Y-100880000D01*
X221850000Y-102750000D02*
X221850000Y-102000000D01*
X221850000Y-102000000D02*
X226150000Y-102000000D01*
X226150000Y-102000000D02*
X226150000Y-102750000D01*
X226150000Y-102750000D02*
X226500000Y-102750000D01*
X226500000Y-102750000D02*
X226500000Y-102250000D01*
X226500000Y-102250000D02*
X227500000Y-102000000D01*
X227500000Y-102000000D02*
X227500000Y-105000000D01*
X227500000Y-105000000D02*
X226500000Y-104750000D01*
X226500000Y-104750000D02*
X226500000Y-104250000D01*
X226500000Y-104250000D02*
X226150000Y-104250000D01*
X226150000Y-104250000D02*
X226150000Y-104250000D01*
X226150000Y-104250000D02*
X226150000Y-105000000D01*
X226150000Y-105000000D02*
X221850000Y-105000000D01*
X221850000Y-105000000D02*
X221850000Y-104250000D01*
X221850000Y-107830000D02*
X221850000Y-107080000D01*
X221850000Y-107080000D02*
X226150000Y-107080000D01*
X226150000Y-107080000D02*
X226150000Y-107830000D01*
X226150000Y-107830000D02*
X226500000Y-107830000D01*
X226500000Y-107830000D02*
X226500000Y-107330000D01*
X226500000Y-107330000D02*
X227500000Y-107080000D01*
X227500000Y-107080000D02*
X227500000Y-110080000D01*
X227500000Y-110080000D02*
X226500000Y-109830000D01*
X226500000Y-109830000D02*
X226500000Y-109330000D01*
X226500000Y-109330000D02*
X226150000Y-109330000D01*
X226150000Y-109330000D02*
X226150000Y-109330000D01*
X226150000Y-109330000D02*
X226150000Y-110080000D01*
X226150000Y-110080000D02*
X221850000Y-110080000D01*
X221850000Y-110080000D02*
X221850000Y-109330000D01*
X228850000Y-103500000D02*
X229450000Y-103800000D01*
X229450000Y-103800000D02*
X229450000Y-103200000D01*
X229450000Y-103200000D02*
X228850000Y-103500000D01*
X183149845Y-107750353D02*
G75*
G03X183150000Y-109250000I1700155J-749647D01*
G01*
X183149845Y-102670353D02*
G75*
G03X183150000Y-104170000I1700155J-749647D01*
G01*
X176570000Y-111120000D02*
X183980000Y-111120000D01*
X183980000Y-111120000D02*
X183980000Y-100800000D01*
X183980000Y-100800000D02*
X176570000Y-100800000D01*
X176570000Y-100800000D02*
X176570000Y-111120000D01*
X183150000Y-109250000D02*
X183150000Y-110000000D01*
X183150000Y-110000000D02*
X178850000Y-110000000D01*
X178850000Y-110000000D02*
X178850000Y-109250000D01*
X178850000Y-109250000D02*
X178500000Y-109250000D01*
X178500000Y-109250000D02*
X178500000Y-109750000D01*
X178500000Y-109750000D02*
X177500000Y-110000000D01*
X177500000Y-110000000D02*
X177500000Y-107000000D01*
X177500000Y-107000000D02*
X178500000Y-107250000D01*
X178500000Y-107250000D02*
X178500000Y-107750000D01*
X178500000Y-107750000D02*
X178850000Y-107750000D01*
X178850000Y-107750000D02*
X178850000Y-107750000D01*
X178850000Y-107750000D02*
X178850000Y-107000000D01*
X178850000Y-107000000D02*
X183150000Y-107000000D01*
X183150000Y-107000000D02*
X183150000Y-107750000D01*
X183150000Y-104170000D02*
X183150000Y-104920000D01*
X183150000Y-104920000D02*
X178850000Y-104920000D01*
X178850000Y-104920000D02*
X178850000Y-104170000D01*
X178850000Y-104170000D02*
X178500000Y-104170000D01*
X178500000Y-104170000D02*
X178500000Y-104670000D01*
X178500000Y-104670000D02*
X177500000Y-104920000D01*
X177500000Y-104920000D02*
X177500000Y-101920000D01*
X177500000Y-101920000D02*
X178500000Y-102170000D01*
X178500000Y-102170000D02*
X178500000Y-102670000D01*
X178500000Y-102670000D02*
X178850000Y-102670000D01*
X178850000Y-102670000D02*
X178850000Y-102670000D01*
X178850000Y-102670000D02*
X178850000Y-101920000D01*
X178850000Y-101920000D02*
X183150000Y-101920000D01*
X183150000Y-101920000D02*
X183150000Y-102670000D01*
X176150000Y-108500000D02*
X175550000Y-108200000D01*
X175550000Y-108200000D02*
X175550000Y-108800000D01*
X175550000Y-108800000D02*
X176150000Y-108500000D01*
X210249647Y-75649845D02*
G75*
G03X208750000Y-75650000I-749647J-1700155D01*
G01*
X215329647Y-75649845D02*
G75*
G03X213830000Y-75650000I-749647J-1700155D01*
G01*
X206880000Y-69070000D02*
X206880000Y-76480000D01*
X206880000Y-76480000D02*
X217200000Y-76480000D01*
X217200000Y-76480000D02*
X217200000Y-69070000D01*
X217200000Y-69070000D02*
X206880000Y-69070000D01*
X208750000Y-75650000D02*
X208000000Y-75650000D01*
X208000000Y-75650000D02*
X208000000Y-71350000D01*
X208000000Y-71350000D02*
X208750000Y-71350000D01*
X208750000Y-71350000D02*
X208750000Y-71000000D01*
X208750000Y-71000000D02*
X208250000Y-71000000D01*
X208250000Y-71000000D02*
X208000000Y-70000000D01*
X208000000Y-70000000D02*
X211000000Y-70000000D01*
X211000000Y-70000000D02*
X210750000Y-71000000D01*
X210750000Y-71000000D02*
X210250000Y-71000000D01*
X210250000Y-71000000D02*
X210250000Y-71350000D01*
X210250000Y-71350000D02*
X210250000Y-71350000D01*
X210250000Y-71350000D02*
X211000000Y-71350000D01*
X211000000Y-71350000D02*
X211000000Y-75650000D01*
X211000000Y-75650000D02*
X210250000Y-75650000D01*
X213830000Y-75650000D02*
X213080000Y-75650000D01*
X213080000Y-75650000D02*
X213080000Y-71350000D01*
X213080000Y-71350000D02*
X213830000Y-71350000D01*
X213830000Y-71350000D02*
X213830000Y-71000000D01*
X213830000Y-71000000D02*
X213330000Y-71000000D01*
X213330000Y-71000000D02*
X213080000Y-70000000D01*
X213080000Y-70000000D02*
X216080000Y-70000000D01*
X216080000Y-70000000D02*
X215830000Y-71000000D01*
X215830000Y-71000000D02*
X215330000Y-71000000D01*
X215330000Y-71000000D02*
X215330000Y-71350000D01*
X215330000Y-71350000D02*
X215330000Y-71350000D01*
X215330000Y-71350000D02*
X216080000Y-71350000D01*
X216080000Y-71350000D02*
X216080000Y-75650000D01*
X216080000Y-75650000D02*
X215330000Y-75650000D01*
X209500000Y-68650000D02*
X209800000Y-68050000D01*
X209800000Y-68050000D02*
X209200000Y-68050000D01*
X209200000Y-68050000D02*
X209500000Y-68650000D01*
D12*
X201190000Y-88630000D02*
X203810000Y-88630000D01*
X203810000Y-88630000D02*
X203810000Y-82210000D01*
X203810000Y-82210000D02*
X201190000Y-82210000D01*
X201190000Y-82210000D02*
X201190000Y-88630000D01*
X202500000Y-89520000D02*
X202500000Y-88630000D01*
X202500000Y-81320000D02*
X202500000Y-82210000D01*
X205310000Y-121370000D02*
X202690000Y-121370000D01*
X202690000Y-121370000D02*
X202690000Y-127790000D01*
X202690000Y-127790000D02*
X205310000Y-127790000D01*
X205310000Y-127790000D02*
X205310000Y-121370000D01*
X204000000Y-120480000D02*
X204000000Y-121370000D01*
X204000000Y-128680000D02*
X204000000Y-127790000D01*
X219951525Y-89820806D02*
G75*
G03X210048667Y-89820000I-4951525J-1179194D01*
G01*
X219951525Y-92179194D02*
G75*
G02X210048667Y-92180000I-4951525J1179194D01*
G01*
X219951525Y-92179194D02*
G75*
G03X219951333Y-89820000I-4951525J1179194D01*
G01*
X215000000Y-85950000D02*
X215000000Y-96050000D01*
X215040000Y-85950000D02*
X215040000Y-96050000D01*
X215080000Y-85950000D02*
X215080000Y-96050000D01*
X215120000Y-85951000D02*
X215120000Y-96049000D01*
X215160000Y-85952000D02*
X215160000Y-96048000D01*
X215200000Y-85953000D02*
X215200000Y-96047000D01*
X215240000Y-85955000D02*
X215240000Y-96045000D01*
X215280000Y-85957000D02*
X215280000Y-96043000D01*
X215320000Y-85960000D02*
X215320000Y-96040000D01*
X215360000Y-85962000D02*
X215360000Y-96038000D01*
X215400000Y-85965000D02*
X215400000Y-96035000D01*
X215440000Y-85969000D02*
X215440000Y-96031000D01*
X215480000Y-85972000D02*
X215480000Y-96028000D01*
X215520000Y-85976000D02*
X215520000Y-96024000D01*
X215560000Y-85980000D02*
X215560000Y-96020000D01*
X215600000Y-85985000D02*
X215600000Y-96015000D01*
X215640000Y-85990000D02*
X215640000Y-96010000D01*
X215680000Y-85995000D02*
X215680000Y-96005000D01*
X215721000Y-86001000D02*
X215721000Y-95999000D01*
X215761000Y-86007000D02*
X215761000Y-95993000D01*
X215801000Y-86013000D02*
X215801000Y-95987000D01*
X215841000Y-86019000D02*
X215841000Y-95981000D01*
X215881000Y-86026000D02*
X215881000Y-95974000D01*
X215921000Y-86033000D02*
X215921000Y-95967000D01*
X215961000Y-86041000D02*
X215961000Y-95959000D01*
X216001000Y-86049000D02*
X216001000Y-95951000D01*
X216041000Y-86057000D02*
X216041000Y-95943000D01*
X216081000Y-86065000D02*
X216081000Y-95935000D01*
X216121000Y-86074000D02*
X216121000Y-95926000D01*
X216161000Y-86083000D02*
X216161000Y-95917000D01*
X216201000Y-86093000D02*
X216201000Y-95907000D01*
X216241000Y-86103000D02*
X216241000Y-95897000D01*
X216281000Y-86113000D02*
X216281000Y-95887000D01*
X216321000Y-86124000D02*
X216321000Y-89819000D01*
X216321000Y-92181000D02*
X216321000Y-95876000D01*
X216361000Y-86135000D02*
X216361000Y-89819000D01*
X216361000Y-92181000D02*
X216361000Y-95865000D01*
X216401000Y-86146000D02*
X216401000Y-89819000D01*
X216401000Y-92181000D02*
X216401000Y-95854000D01*
X216441000Y-86157000D02*
X216441000Y-89819000D01*
X216441000Y-92181000D02*
X216441000Y-95843000D01*
X216481000Y-86169000D02*
X216481000Y-89819000D01*
X216481000Y-92181000D02*
X216481000Y-95831000D01*
X216521000Y-86182000D02*
X216521000Y-89819000D01*
X216521000Y-92181000D02*
X216521000Y-95818000D01*
X216561000Y-86194000D02*
X216561000Y-89819000D01*
X216561000Y-92181000D02*
X216561000Y-95806000D01*
X216601000Y-86208000D02*
X216601000Y-89819000D01*
X216601000Y-92181000D02*
X216601000Y-95792000D01*
X216641000Y-86221000D02*
X216641000Y-89819000D01*
X216641000Y-92181000D02*
X216641000Y-95779000D01*
X216681000Y-86235000D02*
X216681000Y-89819000D01*
X216681000Y-92181000D02*
X216681000Y-95765000D01*
X216721000Y-86249000D02*
X216721000Y-89819000D01*
X216721000Y-92181000D02*
X216721000Y-95751000D01*
X216761000Y-86263000D02*
X216761000Y-89819000D01*
X216761000Y-92181000D02*
X216761000Y-95737000D01*
X216801000Y-86278000D02*
X216801000Y-89819000D01*
X216801000Y-92181000D02*
X216801000Y-95722000D01*
X216841000Y-86294000D02*
X216841000Y-89819000D01*
X216841000Y-92181000D02*
X216841000Y-95706000D01*
X216881000Y-86309000D02*
X216881000Y-89819000D01*
X216881000Y-92181000D02*
X216881000Y-95691000D01*
X216921000Y-86326000D02*
X216921000Y-89819000D01*
X216921000Y-92181000D02*
X216921000Y-95674000D01*
X216961000Y-86342000D02*
X216961000Y-89819000D01*
X216961000Y-92181000D02*
X216961000Y-95658000D01*
X217001000Y-86359000D02*
X217001000Y-89819000D01*
X217001000Y-92181000D02*
X217001000Y-95641000D01*
X217041000Y-86376000D02*
X217041000Y-89819000D01*
X217041000Y-92181000D02*
X217041000Y-95624000D01*
X217081000Y-86394000D02*
X217081000Y-89819000D01*
X217081000Y-92181000D02*
X217081000Y-95606000D01*
X217121000Y-86412000D02*
X217121000Y-89819000D01*
X217121000Y-92181000D02*
X217121000Y-95588000D01*
X217161000Y-86431000D02*
X217161000Y-89819000D01*
X217161000Y-92181000D02*
X217161000Y-95569000D01*
X217201000Y-86450000D02*
X217201000Y-89819000D01*
X217201000Y-92181000D02*
X217201000Y-95550000D01*
X217241000Y-86469000D02*
X217241000Y-89819000D01*
X217241000Y-92181000D02*
X217241000Y-95531000D01*
X217281000Y-86489000D02*
X217281000Y-89819000D01*
X217281000Y-92181000D02*
X217281000Y-95511000D01*
X217321000Y-86509000D02*
X217321000Y-89819000D01*
X217321000Y-92181000D02*
X217321000Y-95491000D01*
X217361000Y-86530000D02*
X217361000Y-89819000D01*
X217361000Y-92181000D02*
X217361000Y-95470000D01*
X217401000Y-86551000D02*
X217401000Y-89819000D01*
X217401000Y-92181000D02*
X217401000Y-95449000D01*
X217441000Y-86572000D02*
X217441000Y-89819000D01*
X217441000Y-92181000D02*
X217441000Y-95428000D01*
X217481000Y-86595000D02*
X217481000Y-89819000D01*
X217481000Y-92181000D02*
X217481000Y-95405000D01*
X217521000Y-86617000D02*
X217521000Y-89819000D01*
X217521000Y-92181000D02*
X217521000Y-95383000D01*
X217561000Y-86640000D02*
X217561000Y-89819000D01*
X217561000Y-92181000D02*
X217561000Y-95360000D01*
X217601000Y-86664000D02*
X217601000Y-89819000D01*
X217601000Y-92181000D02*
X217601000Y-95336000D01*
X217641000Y-86688000D02*
X217641000Y-89819000D01*
X217641000Y-92181000D02*
X217641000Y-95312000D01*
X217681000Y-86712000D02*
X217681000Y-89819000D01*
X217681000Y-92181000D02*
X217681000Y-95288000D01*
X217721000Y-86737000D02*
X217721000Y-89819000D01*
X217721000Y-92181000D02*
X217721000Y-95263000D01*
X217761000Y-86763000D02*
X217761000Y-89819000D01*
X217761000Y-92181000D02*
X217761000Y-95237000D01*
X217801000Y-86789000D02*
X217801000Y-89819000D01*
X217801000Y-92181000D02*
X217801000Y-95211000D01*
X217841000Y-86815000D02*
X217841000Y-89819000D01*
X217841000Y-92181000D02*
X217841000Y-95185000D01*
X217881000Y-86843000D02*
X217881000Y-89819000D01*
X217881000Y-92181000D02*
X217881000Y-95157000D01*
X217921000Y-86870000D02*
X217921000Y-89819000D01*
X217921000Y-92181000D02*
X217921000Y-95130000D01*
X217961000Y-86899000D02*
X217961000Y-89819000D01*
X217961000Y-92181000D02*
X217961000Y-95101000D01*
X218001000Y-86928000D02*
X218001000Y-89819000D01*
X218001000Y-92181000D02*
X218001000Y-95072000D01*
X218041000Y-86957000D02*
X218041000Y-89819000D01*
X218041000Y-92181000D02*
X218041000Y-95043000D01*
X218081000Y-86987000D02*
X218081000Y-89819000D01*
X218081000Y-92181000D02*
X218081000Y-95013000D01*
X218121000Y-87018000D02*
X218121000Y-89819000D01*
X218121000Y-92181000D02*
X218121000Y-94982000D01*
X218161000Y-87049000D02*
X218161000Y-89819000D01*
X218161000Y-92181000D02*
X218161000Y-94951000D01*
X218201000Y-87081000D02*
X218201000Y-89819000D01*
X218201000Y-92181000D02*
X218201000Y-94919000D01*
X218241000Y-87114000D02*
X218241000Y-89819000D01*
X218241000Y-92181000D02*
X218241000Y-94886000D01*
X218281000Y-87147000D02*
X218281000Y-89819000D01*
X218281000Y-92181000D02*
X218281000Y-94853000D01*
X218321000Y-87181000D02*
X218321000Y-89819000D01*
X218321000Y-92181000D02*
X218321000Y-94819000D01*
X218361000Y-87216000D02*
X218361000Y-89819000D01*
X218361000Y-92181000D02*
X218361000Y-94784000D01*
X218401000Y-87252000D02*
X218401000Y-89819000D01*
X218401000Y-92181000D02*
X218401000Y-94748000D01*
X218441000Y-87288000D02*
X218441000Y-89819000D01*
X218441000Y-92181000D02*
X218441000Y-94712000D01*
X218481000Y-87325000D02*
X218481000Y-89819000D01*
X218481000Y-92181000D02*
X218481000Y-94675000D01*
X218521000Y-87363000D02*
X218521000Y-89819000D01*
X218521000Y-92181000D02*
X218521000Y-94637000D01*
X218561000Y-87402000D02*
X218561000Y-89819000D01*
X218561000Y-92181000D02*
X218561000Y-94598000D01*
X218601000Y-87441000D02*
X218601000Y-89819000D01*
X218601000Y-92181000D02*
X218601000Y-94559000D01*
X218641000Y-87482000D02*
X218641000Y-89819000D01*
X218641000Y-92181000D02*
X218641000Y-94518000D01*
X218681000Y-87523000D02*
X218681000Y-94477000D01*
X218721000Y-87565000D02*
X218721000Y-94435000D01*
X218761000Y-87609000D02*
X218761000Y-94391000D01*
X218801000Y-87653000D02*
X218801000Y-94347000D01*
X218841000Y-87698000D02*
X218841000Y-94302000D01*
X218881000Y-87745000D02*
X218881000Y-94255000D01*
X218921000Y-87793000D02*
X218921000Y-94207000D01*
X218961000Y-87842000D02*
X218961000Y-94158000D01*
X219001000Y-87892000D02*
X219001000Y-94108000D01*
X219041000Y-87943000D02*
X219041000Y-94057000D01*
X219081000Y-87996000D02*
X219081000Y-94004000D01*
X219121000Y-88051000D02*
X219121000Y-93949000D01*
X219161000Y-88106000D02*
X219161000Y-93894000D01*
X219201000Y-88164000D02*
X219201000Y-93836000D01*
X219241000Y-88223000D02*
X219241000Y-93777000D01*
X219281000Y-88285000D02*
X219281000Y-93715000D01*
X219321000Y-88348000D02*
X219321000Y-93652000D01*
X219361000Y-88413000D02*
X219361000Y-93587000D01*
X219401000Y-88481000D02*
X219401000Y-93519000D01*
X219441000Y-88551000D02*
X219441000Y-93449000D01*
X219481000Y-88623000D02*
X219481000Y-93377000D01*
X219521000Y-88699000D02*
X219521000Y-93301000D01*
X219561000Y-88778000D02*
X219561000Y-93222000D01*
X219601000Y-88860000D02*
X219601000Y-93140000D01*
X219641000Y-88947000D02*
X219641000Y-93053000D01*
X219681000Y-89038000D02*
X219681000Y-92962000D01*
X219721000Y-89134000D02*
X219721000Y-92866000D01*
X219761000Y-89237000D02*
X219761000Y-92763000D01*
X219801000Y-89346000D02*
X219801000Y-92654000D01*
X219841000Y-89464000D02*
X219841000Y-92536000D01*
X219881000Y-89593000D02*
X219881000Y-92407000D01*
X219921000Y-89735000D02*
X219921000Y-92265000D01*
X219961000Y-89896000D02*
X219961000Y-92104000D01*
X220001000Y-90087000D02*
X220001000Y-91913000D01*
X220041000Y-90328000D02*
X220041000Y-91672000D01*
X220081000Y-90721000D02*
X220081000Y-91279000D01*
X209800000Y-91000000D02*
X211300000Y-91000000D01*
X210550000Y-90250000D02*
X210550000Y-91750000D01*
X193179194Y-126951525D02*
G75*
G03X193180000Y-117048667I-1179194J4951525D01*
G01*
X190820806Y-126951525D02*
G75*
G02X190820000Y-117048667I1179194J4951525D01*
G01*
X190820806Y-126951525D02*
G75*
G03X193180000Y-126951333I1179194J4951525D01*
G01*
X197050000Y-122000000D02*
X186950000Y-122000000D01*
X197050000Y-122040000D02*
X186950000Y-122040000D01*
X197050000Y-122080000D02*
X186950000Y-122080000D01*
X197049000Y-122120000D02*
X186951000Y-122120000D01*
X197048000Y-122160000D02*
X186952000Y-122160000D01*
X197047000Y-122200000D02*
X186953000Y-122200000D01*
X197045000Y-122240000D02*
X186955000Y-122240000D01*
X197043000Y-122280000D02*
X186957000Y-122280000D01*
X197040000Y-122320000D02*
X186960000Y-122320000D01*
X197038000Y-122360000D02*
X186962000Y-122360000D01*
X197035000Y-122400000D02*
X186965000Y-122400000D01*
X197031000Y-122440000D02*
X186969000Y-122440000D01*
X197028000Y-122480000D02*
X186972000Y-122480000D01*
X197024000Y-122520000D02*
X186976000Y-122520000D01*
X197020000Y-122560000D02*
X186980000Y-122560000D01*
X197015000Y-122600000D02*
X186985000Y-122600000D01*
X197010000Y-122640000D02*
X186990000Y-122640000D01*
X197005000Y-122680000D02*
X186995000Y-122680000D01*
X196999000Y-122721000D02*
X187001000Y-122721000D01*
X196993000Y-122761000D02*
X187007000Y-122761000D01*
X196987000Y-122801000D02*
X187013000Y-122801000D01*
X196981000Y-122841000D02*
X187019000Y-122841000D01*
X196974000Y-122881000D02*
X187026000Y-122881000D01*
X196967000Y-122921000D02*
X187033000Y-122921000D01*
X196959000Y-122961000D02*
X187041000Y-122961000D01*
X196951000Y-123001000D02*
X187049000Y-123001000D01*
X196943000Y-123041000D02*
X187057000Y-123041000D01*
X196935000Y-123081000D02*
X187065000Y-123081000D01*
X196926000Y-123121000D02*
X187074000Y-123121000D01*
X196917000Y-123161000D02*
X187083000Y-123161000D01*
X196907000Y-123201000D02*
X187093000Y-123201000D01*
X196897000Y-123241000D02*
X187103000Y-123241000D01*
X196887000Y-123281000D02*
X187113000Y-123281000D01*
X196876000Y-123321000D02*
X193181000Y-123321000D01*
X190819000Y-123321000D02*
X187124000Y-123321000D01*
X196865000Y-123361000D02*
X193181000Y-123361000D01*
X190819000Y-123361000D02*
X187135000Y-123361000D01*
X196854000Y-123401000D02*
X193181000Y-123401000D01*
X190819000Y-123401000D02*
X187146000Y-123401000D01*
X196843000Y-123441000D02*
X193181000Y-123441000D01*
X190819000Y-123441000D02*
X187157000Y-123441000D01*
X196831000Y-123481000D02*
X193181000Y-123481000D01*
X190819000Y-123481000D02*
X187169000Y-123481000D01*
X196818000Y-123521000D02*
X193181000Y-123521000D01*
X190819000Y-123521000D02*
X187182000Y-123521000D01*
X196806000Y-123561000D02*
X193181000Y-123561000D01*
X190819000Y-123561000D02*
X187194000Y-123561000D01*
X196792000Y-123601000D02*
X193181000Y-123601000D01*
X190819000Y-123601000D02*
X187208000Y-123601000D01*
X196779000Y-123641000D02*
X193181000Y-123641000D01*
X190819000Y-123641000D02*
X187221000Y-123641000D01*
X196765000Y-123681000D02*
X193181000Y-123681000D01*
X190819000Y-123681000D02*
X187235000Y-123681000D01*
X196751000Y-123721000D02*
X193181000Y-123721000D01*
X190819000Y-123721000D02*
X187249000Y-123721000D01*
X196737000Y-123761000D02*
X193181000Y-123761000D01*
X190819000Y-123761000D02*
X187263000Y-123761000D01*
X196722000Y-123801000D02*
X193181000Y-123801000D01*
X190819000Y-123801000D02*
X187278000Y-123801000D01*
X196706000Y-123841000D02*
X193181000Y-123841000D01*
X190819000Y-123841000D02*
X187294000Y-123841000D01*
X196691000Y-123881000D02*
X193181000Y-123881000D01*
X190819000Y-123881000D02*
X187309000Y-123881000D01*
X196674000Y-123921000D02*
X193181000Y-123921000D01*
X190819000Y-123921000D02*
X187326000Y-123921000D01*
X196658000Y-123961000D02*
X193181000Y-123961000D01*
X190819000Y-123961000D02*
X187342000Y-123961000D01*
X196641000Y-124001000D02*
X193181000Y-124001000D01*
X190819000Y-124001000D02*
X187359000Y-124001000D01*
X196624000Y-124041000D02*
X193181000Y-124041000D01*
X190819000Y-124041000D02*
X187376000Y-124041000D01*
X196606000Y-124081000D02*
X193181000Y-124081000D01*
X190819000Y-124081000D02*
X187394000Y-124081000D01*
X196588000Y-124121000D02*
X193181000Y-124121000D01*
X190819000Y-124121000D02*
X187412000Y-124121000D01*
X196569000Y-124161000D02*
X193181000Y-124161000D01*
X190819000Y-124161000D02*
X187431000Y-124161000D01*
X196550000Y-124201000D02*
X193181000Y-124201000D01*
X190819000Y-124201000D02*
X187450000Y-124201000D01*
X196531000Y-124241000D02*
X193181000Y-124241000D01*
X190819000Y-124241000D02*
X187469000Y-124241000D01*
X196511000Y-124281000D02*
X193181000Y-124281000D01*
X190819000Y-124281000D02*
X187489000Y-124281000D01*
X196491000Y-124321000D02*
X193181000Y-124321000D01*
X190819000Y-124321000D02*
X187509000Y-124321000D01*
X196470000Y-124361000D02*
X193181000Y-124361000D01*
X190819000Y-124361000D02*
X187530000Y-124361000D01*
X196449000Y-124401000D02*
X193181000Y-124401000D01*
X190819000Y-124401000D02*
X187551000Y-124401000D01*
X196428000Y-124441000D02*
X193181000Y-124441000D01*
X190819000Y-124441000D02*
X187572000Y-124441000D01*
X196405000Y-124481000D02*
X193181000Y-124481000D01*
X190819000Y-124481000D02*
X187595000Y-124481000D01*
X196383000Y-124521000D02*
X193181000Y-124521000D01*
X190819000Y-124521000D02*
X187617000Y-124521000D01*
X196360000Y-124561000D02*
X193181000Y-124561000D01*
X190819000Y-124561000D02*
X187640000Y-124561000D01*
X196336000Y-124601000D02*
X193181000Y-124601000D01*
X190819000Y-124601000D02*
X187664000Y-124601000D01*
X196312000Y-124641000D02*
X193181000Y-124641000D01*
X190819000Y-124641000D02*
X187688000Y-124641000D01*
X196288000Y-124681000D02*
X193181000Y-124681000D01*
X190819000Y-124681000D02*
X187712000Y-124681000D01*
X196263000Y-124721000D02*
X193181000Y-124721000D01*
X190819000Y-124721000D02*
X187737000Y-124721000D01*
X196237000Y-124761000D02*
X193181000Y-124761000D01*
X190819000Y-124761000D02*
X187763000Y-124761000D01*
X196211000Y-124801000D02*
X193181000Y-124801000D01*
X190819000Y-124801000D02*
X187789000Y-124801000D01*
X196185000Y-124841000D02*
X193181000Y-124841000D01*
X190819000Y-124841000D02*
X187815000Y-124841000D01*
X196157000Y-124881000D02*
X193181000Y-124881000D01*
X190819000Y-124881000D02*
X187843000Y-124881000D01*
X196130000Y-124921000D02*
X193181000Y-124921000D01*
X190819000Y-124921000D02*
X187870000Y-124921000D01*
X196101000Y-124961000D02*
X193181000Y-124961000D01*
X190819000Y-124961000D02*
X187899000Y-124961000D01*
X196072000Y-125001000D02*
X193181000Y-125001000D01*
X190819000Y-125001000D02*
X187928000Y-125001000D01*
X196043000Y-125041000D02*
X193181000Y-125041000D01*
X190819000Y-125041000D02*
X187957000Y-125041000D01*
X196013000Y-125081000D02*
X193181000Y-125081000D01*
X190819000Y-125081000D02*
X187987000Y-125081000D01*
X195982000Y-125121000D02*
X193181000Y-125121000D01*
X190819000Y-125121000D02*
X188018000Y-125121000D01*
X195951000Y-125161000D02*
X193181000Y-125161000D01*
X190819000Y-125161000D02*
X188049000Y-125161000D01*
X195919000Y-125201000D02*
X193181000Y-125201000D01*
X190819000Y-125201000D02*
X188081000Y-125201000D01*
X195886000Y-125241000D02*
X193181000Y-125241000D01*
X190819000Y-125241000D02*
X188114000Y-125241000D01*
X195853000Y-125281000D02*
X193181000Y-125281000D01*
X190819000Y-125281000D02*
X188147000Y-125281000D01*
X195819000Y-125321000D02*
X193181000Y-125321000D01*
X190819000Y-125321000D02*
X188181000Y-125321000D01*
X195784000Y-125361000D02*
X193181000Y-125361000D01*
X190819000Y-125361000D02*
X188216000Y-125361000D01*
X195748000Y-125401000D02*
X193181000Y-125401000D01*
X190819000Y-125401000D02*
X188252000Y-125401000D01*
X195712000Y-125441000D02*
X193181000Y-125441000D01*
X190819000Y-125441000D02*
X188288000Y-125441000D01*
X195675000Y-125481000D02*
X193181000Y-125481000D01*
X190819000Y-125481000D02*
X188325000Y-125481000D01*
X195637000Y-125521000D02*
X193181000Y-125521000D01*
X190819000Y-125521000D02*
X188363000Y-125521000D01*
X195598000Y-125561000D02*
X193181000Y-125561000D01*
X190819000Y-125561000D02*
X188402000Y-125561000D01*
X195559000Y-125601000D02*
X193181000Y-125601000D01*
X190819000Y-125601000D02*
X188441000Y-125601000D01*
X195518000Y-125641000D02*
X193181000Y-125641000D01*
X190819000Y-125641000D02*
X188482000Y-125641000D01*
X195477000Y-125681000D02*
X188523000Y-125681000D01*
X195435000Y-125721000D02*
X188565000Y-125721000D01*
X195391000Y-125761000D02*
X188609000Y-125761000D01*
X195347000Y-125801000D02*
X188653000Y-125801000D01*
X195302000Y-125841000D02*
X188698000Y-125841000D01*
X195255000Y-125881000D02*
X188745000Y-125881000D01*
X195207000Y-125921000D02*
X188793000Y-125921000D01*
X195158000Y-125961000D02*
X188842000Y-125961000D01*
X195108000Y-126001000D02*
X188892000Y-126001000D01*
X195057000Y-126041000D02*
X188943000Y-126041000D01*
X195004000Y-126081000D02*
X188996000Y-126081000D01*
X194949000Y-126121000D02*
X189051000Y-126121000D01*
X194894000Y-126161000D02*
X189106000Y-126161000D01*
X194836000Y-126201000D02*
X189164000Y-126201000D01*
X194777000Y-126241000D02*
X189223000Y-126241000D01*
X194715000Y-126281000D02*
X189285000Y-126281000D01*
X194652000Y-126321000D02*
X189348000Y-126321000D01*
X194587000Y-126361000D02*
X189413000Y-126361000D01*
X194519000Y-126401000D02*
X189481000Y-126401000D01*
X194449000Y-126441000D02*
X189551000Y-126441000D01*
X194377000Y-126481000D02*
X189623000Y-126481000D01*
X194301000Y-126521000D02*
X189699000Y-126521000D01*
X194222000Y-126561000D02*
X189778000Y-126561000D01*
X194140000Y-126601000D02*
X189860000Y-126601000D01*
X194053000Y-126641000D02*
X189947000Y-126641000D01*
X193962000Y-126681000D02*
X190038000Y-126681000D01*
X193866000Y-126721000D02*
X190134000Y-126721000D01*
X193763000Y-126761000D02*
X190237000Y-126761000D01*
X193654000Y-126801000D02*
X190346000Y-126801000D01*
X193536000Y-126841000D02*
X190464000Y-126841000D01*
X193407000Y-126881000D02*
X190593000Y-126881000D01*
X193265000Y-126921000D02*
X190735000Y-126921000D01*
X193104000Y-126961000D02*
X190896000Y-126961000D01*
X192913000Y-127001000D02*
X191087000Y-127001000D01*
X192672000Y-127041000D02*
X191328000Y-127041000D01*
X192279000Y-127081000D02*
X191721000Y-127081000D01*
X192000000Y-116800000D02*
X192000000Y-118300000D01*
X192750000Y-117550000D02*
X191250000Y-117550000D01*
X200630000Y-78310000D02*
X200630000Y-75690000D01*
X200630000Y-75690000D02*
X194210000Y-75690000D01*
X194210000Y-75690000D02*
X194210000Y-78310000D01*
X194210000Y-78310000D02*
X200630000Y-78310000D01*
X201520000Y-77000000D02*
X200630000Y-77000000D01*
X193320000Y-77000000D02*
X194210000Y-77000000D01*
X208690000Y-130060000D02*
X215310000Y-130060000D01*
X215310000Y-130060000D02*
X215310000Y-117940000D01*
X215310000Y-117940000D02*
X208690000Y-117940000D01*
X208690000Y-117940000D02*
X208690000Y-130060000D01*
X212000000Y-130520000D02*
X212000000Y-130060000D01*
X212000000Y-117480000D02*
X212000000Y-117940000D01*
X198310000Y-82870000D02*
X195690000Y-82870000D01*
X195690000Y-82870000D02*
X195690000Y-89290000D01*
X195690000Y-89290000D02*
X198310000Y-89290000D01*
X198310000Y-89290000D02*
X198310000Y-82870000D01*
X197000000Y-81980000D02*
X197000000Y-82870000D01*
X197000000Y-90180000D02*
X197000000Y-89290000D01*
X218310000Y-103870000D02*
X215690000Y-103870000D01*
X215690000Y-103870000D02*
X215690000Y-110290000D01*
X215690000Y-110290000D02*
X218310000Y-110290000D01*
X218310000Y-110290000D02*
X218310000Y-103870000D01*
X217000000Y-102980000D02*
X217000000Y-103870000D01*
X217000000Y-111180000D02*
X217000000Y-110290000D01*
X201390000Y-73810000D02*
X201390000Y-69190000D01*
X201390000Y-69190000D02*
X189370000Y-69190000D01*
X189370000Y-69190000D02*
X189370000Y-73810000D01*
X189370000Y-73810000D02*
X201390000Y-73810000D01*
X201620000Y-71500000D02*
X201390000Y-71500000D01*
X189140000Y-71500000D02*
X189370000Y-71500000D01*
D13*
X221850155Y-80749647D02*
G75*
G03X221850000Y-79250000I-1700155J749647D01*
G01*
X221850155Y-85829647D02*
G75*
G03X221850000Y-84330000I-1700155J749647D01*
G01*
X221850155Y-90909647D02*
G75*
G03X221850000Y-89410000I-1700155J749647D01*
G01*
X221850155Y-95989647D02*
G75*
G03X221850000Y-94490000I-1700155J749647D01*
G01*
X228430000Y-77380000D02*
X221020000Y-77380000D01*
X221020000Y-77380000D02*
X221020000Y-97860000D01*
X221020000Y-97860000D02*
X228430000Y-97860000D01*
X228430000Y-97860000D02*
X228430000Y-77380000D01*
X221850000Y-79250000D02*
X221850000Y-78500000D01*
X221850000Y-78500000D02*
X226150000Y-78500000D01*
X226150000Y-78500000D02*
X226150000Y-79250000D01*
X226150000Y-79250000D02*
X226500000Y-79250000D01*
X226500000Y-79250000D02*
X226500000Y-78750000D01*
X226500000Y-78750000D02*
X227500000Y-78500000D01*
X227500000Y-78500000D02*
X227500000Y-81500000D01*
X227500000Y-81500000D02*
X226500000Y-81250000D01*
X226500000Y-81250000D02*
X226500000Y-80750000D01*
X226500000Y-80750000D02*
X226150000Y-80750000D01*
X226150000Y-80750000D02*
X226150000Y-80750000D01*
X226150000Y-80750000D02*
X226150000Y-81500000D01*
X226150000Y-81500000D02*
X221850000Y-81500000D01*
X221850000Y-81500000D02*
X221850000Y-80750000D01*
X221850000Y-84330000D02*
X221850000Y-83580000D01*
X221850000Y-83580000D02*
X226150000Y-83580000D01*
X226150000Y-83580000D02*
X226150000Y-84330000D01*
X226150000Y-84330000D02*
X226500000Y-84330000D01*
X226500000Y-84330000D02*
X226500000Y-83830000D01*
X226500000Y-83830000D02*
X227500000Y-83580000D01*
X227500000Y-83580000D02*
X227500000Y-86580000D01*
X227500000Y-86580000D02*
X226500000Y-86330000D01*
X226500000Y-86330000D02*
X226500000Y-85830000D01*
X226500000Y-85830000D02*
X226150000Y-85830000D01*
X226150000Y-85830000D02*
X226150000Y-85830000D01*
X226150000Y-85830000D02*
X226150000Y-86580000D01*
X226150000Y-86580000D02*
X221850000Y-86580000D01*
X221850000Y-86580000D02*
X221850000Y-85830000D01*
X221850000Y-89410000D02*
X221850000Y-88660000D01*
X221850000Y-88660000D02*
X226150000Y-88660000D01*
X226150000Y-88660000D02*
X226150000Y-89410000D01*
X226150000Y-89410000D02*
X226500000Y-89410000D01*
X226500000Y-89410000D02*
X226500000Y-88910000D01*
X226500000Y-88910000D02*
X227500000Y-88660000D01*
X227500000Y-88660000D02*
X227500000Y-91660000D01*
X227500000Y-91660000D02*
X226500000Y-91410000D01*
X226500000Y-91410000D02*
X226500000Y-90910000D01*
X226500000Y-90910000D02*
X226150000Y-90910000D01*
X226150000Y-90910000D02*
X226150000Y-90910000D01*
X226150000Y-90910000D02*
X226150000Y-91660000D01*
X226150000Y-91660000D02*
X221850000Y-91660000D01*
X221850000Y-91660000D02*
X221850000Y-90910000D01*
X221850000Y-94490000D02*
X221850000Y-93740000D01*
X221850000Y-93740000D02*
X226150000Y-93740000D01*
X226150000Y-93740000D02*
X226150000Y-94490000D01*
X226150000Y-94490000D02*
X226500000Y-94490000D01*
X226500000Y-94490000D02*
X226500000Y-93990000D01*
X226500000Y-93990000D02*
X227500000Y-93740000D01*
X227500000Y-93740000D02*
X227500000Y-96740000D01*
X227500000Y-96740000D02*
X226500000Y-96490000D01*
X226500000Y-96490000D02*
X226500000Y-95990000D01*
X226500000Y-95990000D02*
X226150000Y-95990000D01*
X226150000Y-95990000D02*
X226150000Y-95990000D01*
X226150000Y-95990000D02*
X226150000Y-96740000D01*
X226150000Y-96740000D02*
X221850000Y-96740000D01*
X221850000Y-96740000D02*
X221850000Y-95990000D01*
X228850000Y-80000000D02*
X229450000Y-80300000D01*
X229450000Y-80300000D02*
X229450000Y-79700000D01*
X229450000Y-79700000D02*
X228850000Y-80000000D01*
X214750353Y-134350155D02*
G75*
G03X216250000Y-134350000I749647J1700155D01*
G01*
X209670353Y-134350155D02*
G75*
G03X211170000Y-134350000I749647J1700155D01*
G01*
X204590353Y-134350155D02*
G75*
G03X206090000Y-134350000I749647J1700155D01*
G01*
X199510353Y-134350155D02*
G75*
G03X201010000Y-134350000I749647J1700155D01*
G01*
X194430353Y-134350155D02*
G75*
G03X195930000Y-134350000I749647J1700155D01*
G01*
X189350353Y-134350155D02*
G75*
G03X190850000Y-134350000I749647J1700155D01*
G01*
X218120000Y-140930000D02*
X218120000Y-133520000D01*
X218120000Y-133520000D02*
X187480000Y-133520000D01*
X187480000Y-133520000D02*
X187480000Y-140930000D01*
X187480000Y-140930000D02*
X218120000Y-140930000D01*
X216250000Y-134350000D02*
X217000000Y-134350000D01*
X217000000Y-134350000D02*
X217000000Y-138650000D01*
X217000000Y-138650000D02*
X216250000Y-138650000D01*
X216250000Y-138650000D02*
X216250000Y-139000000D01*
X216250000Y-139000000D02*
X216750000Y-139000000D01*
X216750000Y-139000000D02*
X217000000Y-140000000D01*
X217000000Y-140000000D02*
X214000000Y-140000000D01*
X214000000Y-140000000D02*
X214250000Y-139000000D01*
X214250000Y-139000000D02*
X214750000Y-139000000D01*
X214750000Y-139000000D02*
X214750000Y-138650000D01*
X214750000Y-138650000D02*
X214750000Y-138650000D01*
X214750000Y-138650000D02*
X214000000Y-138650000D01*
X214000000Y-138650000D02*
X214000000Y-134350000D01*
X214000000Y-134350000D02*
X214750000Y-134350000D01*
X211170000Y-134350000D02*
X211920000Y-134350000D01*
X211920000Y-134350000D02*
X211920000Y-138650000D01*
X211920000Y-138650000D02*
X211170000Y-138650000D01*
X211170000Y-138650000D02*
X211170000Y-139000000D01*
X211170000Y-139000000D02*
X211670000Y-139000000D01*
X211670000Y-139000000D02*
X211920000Y-140000000D01*
X211920000Y-140000000D02*
X208920000Y-140000000D01*
X208920000Y-140000000D02*
X209170000Y-139000000D01*
X209170000Y-139000000D02*
X209670000Y-139000000D01*
X209670000Y-139000000D02*
X209670000Y-138650000D01*
X209670000Y-138650000D02*
X209670000Y-138650000D01*
X209670000Y-138650000D02*
X208920000Y-138650000D01*
X208920000Y-138650000D02*
X208920000Y-134350000D01*
X208920000Y-134350000D02*
X209670000Y-134350000D01*
X206090000Y-134350000D02*
X206840000Y-134350000D01*
X206840000Y-134350000D02*
X206840000Y-138650000D01*
X206840000Y-138650000D02*
X206090000Y-138650000D01*
X206090000Y-138650000D02*
X206090000Y-139000000D01*
X206090000Y-139000000D02*
X206590000Y-139000000D01*
X206590000Y-139000000D02*
X206840000Y-140000000D01*
X206840000Y-140000000D02*
X203840000Y-140000000D01*
X203840000Y-140000000D02*
X204090000Y-139000000D01*
X204090000Y-139000000D02*
X204590000Y-139000000D01*
X204590000Y-139000000D02*
X204590000Y-138650000D01*
X204590000Y-138650000D02*
X204590000Y-138650000D01*
X204590000Y-138650000D02*
X203840000Y-138650000D01*
X203840000Y-138650000D02*
X203840000Y-134350000D01*
X203840000Y-134350000D02*
X204590000Y-134350000D01*
X201010000Y-134350000D02*
X201760000Y-134350000D01*
X201760000Y-134350000D02*
X201760000Y-138650000D01*
X201760000Y-138650000D02*
X201010000Y-138650000D01*
X201010000Y-138650000D02*
X201010000Y-139000000D01*
X201010000Y-139000000D02*
X201510000Y-139000000D01*
X201510000Y-139000000D02*
X201760000Y-140000000D01*
X201760000Y-140000000D02*
X198760000Y-140000000D01*
X198760000Y-140000000D02*
X199010000Y-139000000D01*
X199010000Y-139000000D02*
X199510000Y-139000000D01*
X199510000Y-139000000D02*
X199510000Y-138650000D01*
X199510000Y-138650000D02*
X199510000Y-138650000D01*
X199510000Y-138650000D02*
X198760000Y-138650000D01*
X198760000Y-138650000D02*
X198760000Y-134350000D01*
X198760000Y-134350000D02*
X199510000Y-134350000D01*
X195930000Y-134350000D02*
X196680000Y-134350000D01*
X196680000Y-134350000D02*
X196680000Y-138650000D01*
X196680000Y-138650000D02*
X195930000Y-138650000D01*
X195930000Y-138650000D02*
X195930000Y-139000000D01*
X195930000Y-139000000D02*
X196430000Y-139000000D01*
X196430000Y-139000000D02*
X196680000Y-140000000D01*
X196680000Y-140000000D02*
X193680000Y-140000000D01*
X193680000Y-140000000D02*
X193930000Y-139000000D01*
X193930000Y-139000000D02*
X194430000Y-139000000D01*
X194430000Y-139000000D02*
X194430000Y-138650000D01*
X194430000Y-138650000D02*
X194430000Y-138650000D01*
X194430000Y-138650000D02*
X193680000Y-138650000D01*
X193680000Y-138650000D02*
X193680000Y-134350000D01*
X193680000Y-134350000D02*
X194430000Y-134350000D01*
X190850000Y-134350000D02*
X191600000Y-134350000D01*
X191600000Y-134350000D02*
X191600000Y-138650000D01*
X191600000Y-138650000D02*
X190850000Y-138650000D01*
X190850000Y-138650000D02*
X190850000Y-139000000D01*
X190850000Y-139000000D02*
X191350000Y-139000000D01*
X191350000Y-139000000D02*
X191600000Y-140000000D01*
X191600000Y-140000000D02*
X188600000Y-140000000D01*
X188600000Y-140000000D02*
X188850000Y-139000000D01*
X188850000Y-139000000D02*
X189350000Y-139000000D01*
X189350000Y-139000000D02*
X189350000Y-138650000D01*
X189350000Y-138650000D02*
X189350000Y-138650000D01*
X189350000Y-138650000D02*
X188600000Y-138650000D01*
X188600000Y-138650000D02*
X188600000Y-134350000D01*
X188600000Y-134350000D02*
X189350000Y-134350000D01*
X215500000Y-141350000D02*
X215200000Y-141950000D01*
X215200000Y-141950000D02*
X215800000Y-141950000D01*
X215800000Y-141950000D02*
X215500000Y-141350000D01*
M02*
