%TF.GenerationSoftware,KiCad,Pcbnew,(5.1.5-0-10_14)*%
%TF.CreationDate,2020-09-13T21:23:24+01:00*%
%TF.ProjectId,EffectsPCB,45666665-6374-4735-9043-422e6b696361,rev?*%
%TF.SameCoordinates,Original*%
%TF.FileFunction,Legend,Bot*%
%TF.FilePolarity,Positive*%
%FSLAX46Y46*%
G04 Gerber Fmt 4.6, Leading zero omitted, Abs format (unit mm)*
G04 Created by KiCad (PCBNEW (5.1.5-0-10_14)) date 2020-09-13 21:23:24*
%MOMM*%
%LPD*%
G04 APERTURE LIST*
%ADD10C,0.200000*%
G04 APERTURE END LIST*
D10*
X197102380Y-100357142D02*
X198102380Y-100690476D01*
X197102380Y-101023809D01*
X198102380Y-101785714D02*
X197578571Y-101785714D01*
X197483333Y-101738095D01*
X197435714Y-101642857D01*
X197435714Y-101452380D01*
X197483333Y-101357142D01*
X198054761Y-101785714D02*
X198102380Y-101690476D01*
X198102380Y-101452380D01*
X198054761Y-101357142D01*
X197959523Y-101309523D01*
X197864285Y-101309523D01*
X197769047Y-101357142D01*
X197721428Y-101452380D01*
X197721428Y-101690476D01*
X197673809Y-101785714D01*
X198102380Y-102404761D02*
X198054761Y-102309523D01*
X197959523Y-102261904D01*
X197102380Y-102261904D01*
X197435714Y-102690476D02*
X198102380Y-102928571D01*
X197435714Y-103166666D01*
X198054761Y-103928571D02*
X198102380Y-103833333D01*
X198102380Y-103642857D01*
X198054761Y-103547619D01*
X197959523Y-103500000D01*
X197578571Y-103500000D01*
X197483333Y-103547619D01*
X197435714Y-103642857D01*
X197435714Y-103833333D01*
X197483333Y-103928571D01*
X197578571Y-103976190D01*
X197673809Y-103976190D01*
X197769047Y-103500000D01*
X198054761Y-105119047D02*
X198102380Y-105214285D01*
X198102380Y-105404761D01*
X198054761Y-105500000D01*
X197959523Y-105547619D01*
X197911904Y-105547619D01*
X197816666Y-105500000D01*
X197769047Y-105404761D01*
X197769047Y-105261904D01*
X197721428Y-105166666D01*
X197626190Y-105119047D01*
X197578571Y-105119047D01*
X197483333Y-105166666D01*
X197435714Y-105261904D01*
X197435714Y-105404761D01*
X197483333Y-105500000D01*
X198102380Y-106119047D02*
X198054761Y-106023809D01*
X198007142Y-105976190D01*
X197911904Y-105928571D01*
X197626190Y-105928571D01*
X197530952Y-105976190D01*
X197483333Y-106023809D01*
X197435714Y-106119047D01*
X197435714Y-106261904D01*
X197483333Y-106357142D01*
X197530952Y-106404761D01*
X197626190Y-106452380D01*
X197911904Y-106452380D01*
X198007142Y-106404761D01*
X198054761Y-106357142D01*
X198102380Y-106261904D01*
X198102380Y-106119047D01*
X198054761Y-107309523D02*
X198102380Y-107214285D01*
X198102380Y-107023809D01*
X198054761Y-106928571D01*
X198007142Y-106880952D01*
X197911904Y-106833333D01*
X197626190Y-106833333D01*
X197530952Y-106880952D01*
X197483333Y-106928571D01*
X197435714Y-107023809D01*
X197435714Y-107214285D01*
X197483333Y-107309523D01*
X198102380Y-107738095D02*
X197102380Y-107738095D01*
X197721428Y-107833333D02*
X198102380Y-108119047D01*
X197435714Y-108119047D02*
X197816666Y-107738095D01*
X198054761Y-108928571D02*
X198102380Y-108833333D01*
X198102380Y-108642857D01*
X198054761Y-108547619D01*
X197959523Y-108500000D01*
X197578571Y-108500000D01*
X197483333Y-108547619D01*
X197435714Y-108642857D01*
X197435714Y-108833333D01*
X197483333Y-108928571D01*
X197578571Y-108976190D01*
X197673809Y-108976190D01*
X197769047Y-108500000D01*
X197435714Y-109261904D02*
X197435714Y-109642857D01*
X197102380Y-109404761D02*
X197959523Y-109404761D01*
X198054761Y-109452380D01*
X198102380Y-109547619D01*
X198102380Y-109642857D01*
X199802380Y-100809523D02*
X199754761Y-100714285D01*
X199707142Y-100666666D01*
X199611904Y-100619047D01*
X199326190Y-100619047D01*
X199230952Y-100666666D01*
X199183333Y-100714285D01*
X199135714Y-100809523D01*
X199135714Y-100952380D01*
X199183333Y-101047619D01*
X199230952Y-101095238D01*
X199326190Y-101142857D01*
X199611904Y-101142857D01*
X199707142Y-101095238D01*
X199754761Y-101047619D01*
X199802380Y-100952380D01*
X199802380Y-100809523D01*
X199135714Y-101571428D02*
X199802380Y-101571428D01*
X199230952Y-101571428D02*
X199183333Y-101619047D01*
X199135714Y-101714285D01*
X199135714Y-101857142D01*
X199183333Y-101952380D01*
X199278571Y-102000000D01*
X199802380Y-102000000D01*
X199135714Y-103095238D02*
X199135714Y-103476190D01*
X198802380Y-103238095D02*
X199659523Y-103238095D01*
X199754761Y-103285714D01*
X199802380Y-103380952D01*
X199802380Y-103476190D01*
X199802380Y-103809523D02*
X198802380Y-103809523D01*
X199802380Y-104238095D02*
X199278571Y-104238095D01*
X199183333Y-104190476D01*
X199135714Y-104095238D01*
X199135714Y-103952380D01*
X199183333Y-103857142D01*
X199230952Y-103809523D01*
X199802380Y-104714285D02*
X199135714Y-104714285D01*
X198802380Y-104714285D02*
X198850000Y-104666666D01*
X198897619Y-104714285D01*
X198850000Y-104761904D01*
X198802380Y-104714285D01*
X198897619Y-104714285D01*
X199754761Y-105142857D02*
X199802380Y-105238095D01*
X199802380Y-105428571D01*
X199754761Y-105523809D01*
X199659523Y-105571428D01*
X199611904Y-105571428D01*
X199516666Y-105523809D01*
X199469047Y-105428571D01*
X199469047Y-105285714D01*
X199421428Y-105190476D01*
X199326190Y-105142857D01*
X199278571Y-105142857D01*
X199183333Y-105190476D01*
X199135714Y-105285714D01*
X199135714Y-105428571D01*
X199183333Y-105523809D01*
X199754761Y-106714285D02*
X199802380Y-106809523D01*
X199802380Y-107000000D01*
X199754761Y-107095238D01*
X199659523Y-107142857D01*
X199611904Y-107142857D01*
X199516666Y-107095238D01*
X199469047Y-107000000D01*
X199469047Y-106857142D01*
X199421428Y-106761904D01*
X199326190Y-106714285D01*
X199278571Y-106714285D01*
X199183333Y-106761904D01*
X199135714Y-106857142D01*
X199135714Y-107000000D01*
X199183333Y-107095238D01*
X199802380Y-107571428D02*
X199135714Y-107571428D01*
X198802380Y-107571428D02*
X198850000Y-107523809D01*
X198897619Y-107571428D01*
X198850000Y-107619047D01*
X198802380Y-107571428D01*
X198897619Y-107571428D01*
X199802380Y-108476190D02*
X198802380Y-108476190D01*
X199754761Y-108476190D02*
X199802380Y-108380952D01*
X199802380Y-108190476D01*
X199754761Y-108095238D01*
X199707142Y-108047619D01*
X199611904Y-108000000D01*
X199326190Y-108000000D01*
X199230952Y-108047619D01*
X199183333Y-108095238D01*
X199135714Y-108190476D01*
X199135714Y-108380952D01*
X199183333Y-108476190D01*
X199754761Y-109333333D02*
X199802380Y-109238095D01*
X199802380Y-109047619D01*
X199754761Y-108952380D01*
X199659523Y-108904761D01*
X199278571Y-108904761D01*
X199183333Y-108952380D01*
X199135714Y-109047619D01*
X199135714Y-109238095D01*
X199183333Y-109333333D01*
X199278571Y-109380952D01*
X199373809Y-109380952D01*
X199469047Y-108904761D01*
M02*
