M48
; DRILL file {KiCad (5.1.5-0-10_14)} date Sunday, 13 September 2020 at 21:23:29
; FORMAT={-:-/ absolute / metric / decimal}
; #@! TF.CreationDate,2020-09-13T21:23:29+01:00
; #@! TF.GenerationSoftware,Kicad,Pcbnew,(5.1.5-0-10_14)
FMAT,2
METRIC
T1C0.700
T2C0.800
T3C1.000
T4C1.200
T5C2.000
T6C3.200
T7C2.500
T8C3.200
%
G90
G05
T1
X215.0Y-79.0
X215.0Y-84.08
X217.54Y-81.54
T2
X197.0Y-81.0
X197.0Y-91.16
X217.0Y-102.0
X217.0Y-112.16
X204.0Y-119.5
X204.0Y-129.66
X200.0Y-119.5
X200.0Y-129.66
X192.34Y-77.0
X202.5Y-77.0
X212.0Y-116.5
X212.0Y-131.5
X202.5Y-80.34
X202.5Y-90.5
X207.5Y-79.84
X207.5Y-90.0
T3
X212.5Y-91.0
X217.5Y-91.0
X192.0Y-119.5
X192.0Y-124.5
T4
X224.0Y-103.5
X224.0Y-108.58
X186.5Y-85.0
X186.5Y-92.5
X187.76Y-71.5
X203.0Y-71.5
X209.5Y-73.5
X214.58Y-73.5
X224.0Y-80.0
X224.0Y-85.08
X224.0Y-90.16
X224.0Y-95.24
X190.1Y-136.5
X195.18Y-136.5
X200.26Y-136.5
X205.34Y-136.5
X210.42Y-136.5
X215.5Y-136.5
X181.0Y-103.42
X181.0Y-108.5
T5
X192.0Y-101.588
X192.0Y-108.412
X196.011Y-113.932
X196.011Y-96.068
X202.5Y-93.96
X202.5Y-116.04
X208.989Y-96.068
X208.989Y-113.931
X213.0Y-101.588
T6
X180.0Y-137.5
T7
X202.5Y-105.0
T8
X225.0Y-72.5
X180.0Y-72.5
X225.0Y-137.5
T0
M30
