M48
;DRILL file {KiCad (5.0.0-3-g5ebb6b6)} date Thursday, 29 November 2018 at 16:19:09
;FORMAT={-:-/ absolute / metric / decimal}
FMAT,2
METRIC,TZ
T1C0.600
T2C0.750
T3C0.760
T4C0.800
T5C0.900
T6C1.100
T7C1.200
T8C1.300
T9C1.350
T10C1.500
T11C2.200
T12C3.200
%
G90
G05
M71
T1
X116.88Y-114.22
X119.38Y-109.22
T2
X158.Y-123.
X158.Y-125.54
X159.27Y-124.27
T3
X134.5Y-120.5
X134.5Y-128.12
T4
X159.004Y-115.824
X161.504Y-115.824
X150.46Y-124.
X153.Y-124.
X150.46Y-127.
X153.Y-127.
X151.892Y-115.824
X154.392Y-115.824
T5
X142.46Y-125.5
X145.Y-125.5
T6
X140.Y-119.
X147.62Y-119.
X166.Y-120.92
X166.Y-126.
T7
X173.5Y-113.5
X173.5Y-117.31
X173.5Y-99.
X173.5Y-102.81
X101.5Y-103.76
X101.5Y-108.84
X101.5Y-113.92
X101.5Y-119.
X110.236Y-112.268
X110.236Y-127.268
T8
X116.72Y-120.5
X124.34Y-120.5
T9
X115.Y-87.92
X115.Y-98.08
X102.Y-87.92
X102.Y-98.08
T10
X126.492Y-97.536
X126.492Y-108.286
X164.992Y-100.286
X164.992Y-108.286
T11
X110.Y-88.
X110.Y-98.
X120.Y-88.
X120.Y-98.
X97.Y-88.
X97.Y-98.
X107.Y-88.
X107.Y-98.
T12
X175.Y-91.
X175.Y-126.
X100.Y-126.
T0
M30
