G04 #@! TF.GenerationSoftware,KiCad,Pcbnew,(5.0.0-3-g5ebb6b6)*
G04 #@! TF.CreationDate,2018-11-29T16:19:06+00:00*
G04 #@! TF.ProjectId,PowerSupply,506F776572537570706C792E6B696361,rev?*
G04 #@! TF.SameCoordinates,Original*
G04 #@! TF.FileFunction,Copper,L2,Bot,Signal*
G04 #@! TF.FilePolarity,Positive*
%FSLAX46Y46*%
G04 Gerber Fmt 4.6, Leading zero omitted, Abs format (unit mm)*
G04 Created by KiCad (PCBNEW (5.0.0-3-g5ebb6b6)) date Thursday, 29 November 2018 at 16:19:06*
%MOMM*%
%LPD*%
G01*
G04 APERTURE LIST*
G04 #@! TA.AperFunction,ComponentPad*
%ADD10C,2.400000*%
G04 #@! TD*
G04 #@! TA.AperFunction,ComponentPad*
%ADD11R,1.600000X1.600000*%
G04 #@! TD*
G04 #@! TA.AperFunction,ComponentPad*
%ADD12C,1.600000*%
G04 #@! TD*
G04 #@! TA.AperFunction,ComponentPad*
%ADD13R,2.200000X2.200000*%
G04 #@! TD*
G04 #@! TA.AperFunction,ComponentPad*
%ADD14O,2.200000X2.200000*%
G04 #@! TD*
G04 #@! TA.AperFunction,ComponentPad*
%ADD15R,1.800000X1.800000*%
G04 #@! TD*
G04 #@! TA.AperFunction,ComponentPad*
%ADD16C,1.800000*%
G04 #@! TD*
G04 #@! TA.AperFunction,ComponentPad*
%ADD17O,3.600000X1.800000*%
G04 #@! TD*
G04 #@! TA.AperFunction,ComponentPad*
%ADD18R,3.600000X1.800000*%
G04 #@! TD*
G04 #@! TA.AperFunction,ComponentPad*
%ADD19C,2.200000*%
G04 #@! TD*
G04 #@! TA.AperFunction,ComponentPad*
%ADD20C,3.000000*%
G04 #@! TD*
G04 #@! TA.AperFunction,ComponentPad*
%ADD21R,3.000000X3.000000*%
G04 #@! TD*
G04 #@! TA.AperFunction,Conductor*
%ADD22C,0.100000*%
G04 #@! TD*
G04 #@! TA.AperFunction,ComponentPad*
%ADD23C,1.100000*%
G04 #@! TD*
G04 #@! TA.AperFunction,ComponentPad*
%ADD24R,1.800000X1.100000*%
G04 #@! TD*
G04 #@! TA.AperFunction,ComponentPad*
%ADD25R,1.520000X1.520000*%
G04 #@! TD*
G04 #@! TA.AperFunction,ComponentPad*
%ADD26C,2.000000*%
G04 #@! TD*
G04 #@! TA.AperFunction,ComponentPad*
%ADD27C,1.520000*%
G04 #@! TD*
G04 #@! TA.AperFunction,ComponentPad*
%ADD28O,1.600000X1.600000*%
G04 #@! TD*
G04 #@! TA.AperFunction,Conductor*
%ADD29C,2.000000*%
G04 #@! TD*
G04 #@! TA.AperFunction,Conductor*
%ADD30C,1.000000*%
G04 #@! TD*
G04 #@! TA.AperFunction,Conductor*
%ADD31C,0.400000*%
G04 #@! TD*
G04 APERTURE END LIST*
D10*
G04 #@! TO.P,C1,1*
G04 #@! TO.N,Net-(C1-Pad1)*
X110236000Y-112268000D03*
G04 #@! TO.P,C1,2*
G04 #@! TO.N,Net-(C1-Pad2)*
X110236000Y-127268000D03*
G04 #@! TD*
D11*
G04 #@! TO.P,C2,1*
G04 #@! TO.N,Net-(C2-Pad1)*
X159004000Y-115824000D03*
D12*
G04 #@! TO.P,C2,2*
G04 #@! TO.N,GNDD*
X161504000Y-115824000D03*
G04 #@! TD*
G04 #@! TO.P,C3,2*
G04 #@! TO.N,GNDD*
X154392000Y-115824000D03*
D11*
G04 #@! TO.P,C3,1*
G04 #@! TO.N,5V*
X151892000Y-115824000D03*
G04 #@! TD*
D13*
G04 #@! TO.P,D1,1*
G04 #@! TO.N,5V*
X140000000Y-119000000D03*
D14*
G04 #@! TO.P,D1,2*
G04 #@! TO.N,Net-(D1-Pad2)*
X147620000Y-119000000D03*
G04 #@! TD*
D15*
G04 #@! TO.P,D2,1*
G04 #@! TO.N,Net-(D2-Pad1)*
X145000000Y-125500000D03*
D16*
G04 #@! TO.P,D2,2*
G04 #@! TO.N,5V*
X142460000Y-125500000D03*
G04 #@! TD*
D17*
G04 #@! TO.P,J2,2*
G04 #@! TO.N,GNDD*
X173500000Y-117310000D03*
D18*
G04 #@! TO.P,J2,1*
G04 #@! TO.N,Net-(J2-Pad1)*
X173500000Y-113500000D03*
G04 #@! TD*
G04 #@! TO.P,J3,1*
G04 #@! TO.N,GNDD*
X173500000Y-99000000D03*
D17*
G04 #@! TO.P,J3,2*
G04 #@! TO.N,5V*
X173500000Y-102810000D03*
G04 #@! TD*
D19*
G04 #@! TO.P,L1,1*
G04 #@! TO.N,Net-(C2-Pad1)*
X166000000Y-126000000D03*
D14*
G04 #@! TO.P,L1,2*
G04 #@! TO.N,5V*
X166000000Y-120920000D03*
G04 #@! TD*
D20*
G04 #@! TO.P,PS1,3*
G04 #@! TO.N,GNDD*
X164992000Y-108286000D03*
G04 #@! TO.P,PS1,2*
G04 #@! TO.N,Net-(F1-Pad1)*
X126492000Y-108286000D03*
G04 #@! TO.P,PS1,4*
G04 #@! TO.N,Net-(C2-Pad1)*
X164992000Y-100286000D03*
D21*
G04 #@! TO.P,PS1,1*
G04 #@! TO.N,Net-(C1-Pad1)*
X126492000Y-97536000D03*
G04 #@! TD*
D22*
G04 #@! TO.N,Net-(J2-Pad1)*
G04 #@! TO.C,Q1*
G36*
X160321955Y-123721324D02*
X160348650Y-123725284D01*
X160374828Y-123731841D01*
X160400238Y-123740933D01*
X160424634Y-123752472D01*
X160447782Y-123766346D01*
X160469458Y-123782422D01*
X160489454Y-123800546D01*
X160507578Y-123820542D01*
X160523654Y-123842218D01*
X160537528Y-123865366D01*
X160549067Y-123889762D01*
X160558159Y-123915172D01*
X160564716Y-123941350D01*
X160568676Y-123968045D01*
X160570000Y-123995000D01*
X160570000Y-124545000D01*
X160568676Y-124571955D01*
X160564716Y-124598650D01*
X160558159Y-124624828D01*
X160549067Y-124650238D01*
X160537528Y-124674634D01*
X160523654Y-124697782D01*
X160507578Y-124719458D01*
X160489454Y-124739454D01*
X160469458Y-124757578D01*
X160447782Y-124773654D01*
X160424634Y-124787528D01*
X160400238Y-124799067D01*
X160374828Y-124808159D01*
X160348650Y-124814716D01*
X160321955Y-124818676D01*
X160295000Y-124820000D01*
X159045000Y-124820000D01*
X159018045Y-124818676D01*
X158991350Y-124814716D01*
X158965172Y-124808159D01*
X158939762Y-124799067D01*
X158915366Y-124787528D01*
X158892218Y-124773654D01*
X158870542Y-124757578D01*
X158850546Y-124739454D01*
X158832422Y-124719458D01*
X158816346Y-124697782D01*
X158802472Y-124674634D01*
X158790933Y-124650238D01*
X158781841Y-124624828D01*
X158775284Y-124598650D01*
X158771324Y-124571955D01*
X158770000Y-124545000D01*
X158770000Y-123995000D01*
X158771324Y-123968045D01*
X158775284Y-123941350D01*
X158781841Y-123915172D01*
X158790933Y-123889762D01*
X158802472Y-123865366D01*
X158816346Y-123842218D01*
X158832422Y-123820542D01*
X158850546Y-123800546D01*
X158870542Y-123782422D01*
X158892218Y-123766346D01*
X158915366Y-123752472D01*
X158939762Y-123740933D01*
X158965172Y-123731841D01*
X158991350Y-123725284D01*
X159018045Y-123721324D01*
X159045000Y-123720000D01*
X160295000Y-123720000D01*
X160321955Y-123721324D01*
X160321955Y-123721324D01*
G37*
D23*
G04 #@! TD*
G04 #@! TO.P,Q1,2*
G04 #@! TO.N,Net-(J2-Pad1)*
X159670000Y-124270000D03*
D22*
G04 #@! TO.N,Net-(D1-Pad2)*
G04 #@! TO.C,Q1*
G36*
X158251955Y-124991324D02*
X158278650Y-124995284D01*
X158304828Y-125001841D01*
X158330238Y-125010933D01*
X158354634Y-125022472D01*
X158377782Y-125036346D01*
X158399458Y-125052422D01*
X158419454Y-125070546D01*
X158437578Y-125090542D01*
X158453654Y-125112218D01*
X158467528Y-125135366D01*
X158479067Y-125159762D01*
X158488159Y-125185172D01*
X158494716Y-125211350D01*
X158498676Y-125238045D01*
X158500000Y-125265000D01*
X158500000Y-125815000D01*
X158498676Y-125841955D01*
X158494716Y-125868650D01*
X158488159Y-125894828D01*
X158479067Y-125920238D01*
X158467528Y-125944634D01*
X158453654Y-125967782D01*
X158437578Y-125989458D01*
X158419454Y-126009454D01*
X158399458Y-126027578D01*
X158377782Y-126043654D01*
X158354634Y-126057528D01*
X158330238Y-126069067D01*
X158304828Y-126078159D01*
X158278650Y-126084716D01*
X158251955Y-126088676D01*
X158225000Y-126090000D01*
X156975000Y-126090000D01*
X156948045Y-126088676D01*
X156921350Y-126084716D01*
X156895172Y-126078159D01*
X156869762Y-126069067D01*
X156845366Y-126057528D01*
X156822218Y-126043654D01*
X156800542Y-126027578D01*
X156780546Y-126009454D01*
X156762422Y-125989458D01*
X156746346Y-125967782D01*
X156732472Y-125944634D01*
X156720933Y-125920238D01*
X156711841Y-125894828D01*
X156705284Y-125868650D01*
X156701324Y-125841955D01*
X156700000Y-125815000D01*
X156700000Y-125265000D01*
X156701324Y-125238045D01*
X156705284Y-125211350D01*
X156711841Y-125185172D01*
X156720933Y-125159762D01*
X156732472Y-125135366D01*
X156746346Y-125112218D01*
X156762422Y-125090542D01*
X156780546Y-125070546D01*
X156800542Y-125052422D01*
X156822218Y-125036346D01*
X156845366Y-125022472D01*
X156869762Y-125010933D01*
X156895172Y-125001841D01*
X156921350Y-124995284D01*
X156948045Y-124991324D01*
X156975000Y-124990000D01*
X158225000Y-124990000D01*
X158251955Y-124991324D01*
X158251955Y-124991324D01*
G37*
D23*
G04 #@! TD*
G04 #@! TO.P,Q1,3*
G04 #@! TO.N,Net-(D1-Pad2)*
X157600000Y-125540000D03*
D24*
G04 #@! TO.P,Q1,1*
G04 #@! TO.N,GNDD*
X157600000Y-123000000D03*
G04 #@! TD*
D25*
G04 #@! TO.P,RL1,1*
G04 #@! TO.N,5V*
X134500000Y-120500000D03*
D26*
G04 #@! TO.P,RL1,2*
G04 #@! TO.N,Net-(F2-Pad2)*
X124340000Y-120500000D03*
G04 #@! TO.P,RL1,3*
G04 #@! TO.N,Net-(C1-Pad2)*
X116720000Y-120500000D03*
D27*
G04 #@! TO.P,RL1,5*
G04 #@! TO.N,Net-(D1-Pad2)*
X134500000Y-128120000D03*
G04 #@! TD*
D12*
G04 #@! TO.P,RV1,1*
G04 #@! TO.N,Net-(C1-Pad1)*
X119380000Y-109220000D03*
G04 #@! TO.P,RV1,2*
G04 #@! TO.N,Net-(C1-Pad2)*
X116880000Y-114220000D03*
G04 #@! TD*
D20*
G04 #@! TO.P,F1,2*
G04 #@! TO.N,Net-(F1-Pad2)*
X102000000Y-98080000D03*
G04 #@! TO.P,F1,1*
G04 #@! TO.N,Net-(F1-Pad1)*
X102000000Y-87920000D03*
G04 #@! TD*
G04 #@! TO.P,F2,1*
G04 #@! TO.N,Net-(F1-Pad2)*
X115000000Y-87920000D03*
G04 #@! TO.P,F2,2*
G04 #@! TO.N,Net-(F2-Pad2)*
X115000000Y-98080000D03*
G04 #@! TD*
D28*
G04 #@! TO.P,R1,2*
G04 #@! TO.N,GNDD*
X150460000Y-127000000D03*
D12*
G04 #@! TO.P,R1,1*
G04 #@! TO.N,Net-(J2-Pad1)*
X153000000Y-127000000D03*
G04 #@! TD*
G04 #@! TO.P,R2,1*
G04 #@! TO.N,Net-(D1-Pad2)*
X153000000Y-124000000D03*
D28*
G04 #@! TO.P,R2,2*
G04 #@! TO.N,Net-(D2-Pad1)*
X150460000Y-124000000D03*
G04 #@! TD*
D18*
G04 #@! TO.P,J1,1*
G04 #@! TO.N,Net-(F1-Pad2)*
X101500000Y-119000000D03*
D17*
G04 #@! TO.P,J1,2*
G04 #@! TO.N,Net-(C1-Pad1)*
X101500000Y-113920000D03*
G04 #@! TO.P,J1,3*
X101500000Y-108840000D03*
G04 #@! TO.P,J1,4*
G04 #@! TO.N,Net-(C1-Pad2)*
X101500000Y-103760000D03*
G04 #@! TD*
D29*
G04 #@! TO.N,Net-(C1-Pad1)*
X113284000Y-109220000D02*
X110236000Y-112268000D01*
X119380000Y-109220000D02*
X113284000Y-109220000D01*
X101500000Y-113920000D02*
X101500000Y-108840000D01*
D30*
G04 #@! TO.N,Net-(C2-Pad1)*
X161270010Y-121270010D02*
X166000000Y-126000000D01*
X161270010Y-118090010D02*
X161270010Y-121270010D01*
X159004000Y-115824000D02*
X161270010Y-118090010D01*
G04 #@! TO.N,Net-(D1-Pad2)*
X146500000Y-119000000D02*
X147500000Y-119000000D01*
X139008000Y-126492000D02*
X146500000Y-119000000D01*
X136008000Y-126492000D02*
X139008000Y-126492000D01*
X134500000Y-128000000D02*
X136008000Y-126492000D01*
D29*
G04 #@! TO.N,Net-(F1-Pad2)*
X106000000Y-102080000D02*
X103499999Y-99579999D01*
X103499999Y-99579999D02*
X102000000Y-98080000D01*
X102400000Y-119000000D02*
X106000000Y-115400000D01*
X106000000Y-115400000D02*
X106000000Y-102080000D01*
X101500000Y-119000000D02*
X102400000Y-119000000D01*
X109920000Y-93000000D02*
X115000000Y-87920000D01*
X107080000Y-93000000D02*
X109920000Y-93000000D01*
X102000000Y-98080000D02*
X107080000Y-93000000D01*
G04 #@! TO.N,Net-(F2-Pad2)*
X122920000Y-118920000D02*
X124500000Y-120500000D01*
X122920000Y-106000000D02*
X122920000Y-118920000D01*
X115000000Y-98080000D02*
X122920000Y-106000000D01*
G04 #@! TD*
D31*
G04 #@! TO.N,GNDD*
G36*
X179325001Y-130325000D02*
X132700000Y-130325000D01*
X132700000Y-127849479D01*
X133140000Y-127849479D01*
X133140000Y-128390521D01*
X133347048Y-128890378D01*
X133729622Y-129272952D01*
X134229479Y-129480000D01*
X134770521Y-129480000D01*
X135270378Y-129272952D01*
X135652952Y-128890378D01*
X135860000Y-128390521D01*
X135860000Y-128195634D01*
X136463635Y-127592000D01*
X138899661Y-127592000D01*
X139008000Y-127613550D01*
X139116339Y-127592000D01*
X139437199Y-127528177D01*
X139685667Y-127362156D01*
X148493062Y-127362156D01*
X148504193Y-127418127D01*
X148813080Y-128134754D01*
X149372696Y-128678625D01*
X150097844Y-128966941D01*
X150410000Y-128699378D01*
X150410000Y-127050000D01*
X148760735Y-127050000D01*
X148493062Y-127362156D01*
X139685667Y-127362156D01*
X139801056Y-127285056D01*
X139862428Y-127193206D01*
X141047067Y-126008567D01*
X141188361Y-126349682D01*
X141610318Y-126771639D01*
X142161631Y-127000000D01*
X142758369Y-127000000D01*
X143309682Y-126771639D01*
X143520279Y-126561042D01*
X143534813Y-126634108D01*
X143667425Y-126832575D01*
X143865892Y-126965187D01*
X144100000Y-127011754D01*
X145900000Y-127011754D01*
X146134108Y-126965187D01*
X146332575Y-126832575D01*
X146462690Y-126637844D01*
X148493062Y-126637844D01*
X148760735Y-126950000D01*
X150410000Y-126950000D01*
X150410000Y-126930000D01*
X150510000Y-126930000D01*
X150510000Y-126950000D01*
X150530000Y-126950000D01*
X150530000Y-127050000D01*
X150510000Y-127050000D01*
X150510000Y-128699378D01*
X150822156Y-128966941D01*
X151547304Y-128678625D01*
X152106920Y-128134754D01*
X152121358Y-128101258D01*
X152206963Y-128186863D01*
X152721523Y-128400000D01*
X153278477Y-128400000D01*
X153793037Y-128186863D01*
X154186863Y-127793037D01*
X154400000Y-127278477D01*
X154400000Y-126721523D01*
X154186863Y-126206963D01*
X153793037Y-125813137D01*
X153278477Y-125600000D01*
X152721523Y-125600000D01*
X152206963Y-125813137D01*
X152121358Y-125898742D01*
X152106920Y-125865246D01*
X151547304Y-125321375D01*
X151205653Y-125185536D01*
X151469343Y-125009343D01*
X151736883Y-124608943D01*
X151813137Y-124793037D01*
X152206963Y-125186863D01*
X152721523Y-125400000D01*
X153278477Y-125400000D01*
X153793037Y-125186863D01*
X154186863Y-124793037D01*
X154400000Y-124278477D01*
X154400000Y-123721523D01*
X154246111Y-123350000D01*
X155500000Y-123350000D01*
X155500000Y-123788695D01*
X155682689Y-124229746D01*
X156020255Y-124567311D01*
X156313909Y-124688946D01*
X156155746Y-124925654D01*
X156088246Y-125265000D01*
X156088246Y-125815000D01*
X156155746Y-126154346D01*
X156347970Y-126442030D01*
X156635654Y-126634254D01*
X156975000Y-126701754D01*
X158225000Y-126701754D01*
X158564346Y-126634254D01*
X158852030Y-126442030D01*
X159044254Y-126154346D01*
X159111754Y-125815000D01*
X159111754Y-125431754D01*
X160295000Y-125431754D01*
X160634346Y-125364254D01*
X160922030Y-125172030D01*
X161114254Y-124884346D01*
X161181754Y-124545000D01*
X161181754Y-123995000D01*
X161114254Y-123655654D01*
X160922030Y-123367970D01*
X160634346Y-123175746D01*
X160295000Y-123108246D01*
X159458246Y-123108246D01*
X159400000Y-123050000D01*
X157650000Y-123050000D01*
X157650000Y-123070000D01*
X157550000Y-123070000D01*
X157550000Y-123050000D01*
X155800000Y-123050000D01*
X155500000Y-123350000D01*
X154246111Y-123350000D01*
X154186863Y-123206963D01*
X153793037Y-122813137D01*
X153278477Y-122600000D01*
X152721523Y-122600000D01*
X152206963Y-122813137D01*
X151813137Y-123206963D01*
X151736883Y-123391057D01*
X151469343Y-122990657D01*
X151006253Y-122681229D01*
X150597885Y-122600000D01*
X150322115Y-122600000D01*
X149913747Y-122681229D01*
X149450657Y-122990657D01*
X149141229Y-123453747D01*
X149032573Y-124000000D01*
X149141229Y-124546253D01*
X149450657Y-125009343D01*
X149714347Y-125185536D01*
X149372696Y-125321375D01*
X148813080Y-125865246D01*
X148504193Y-126581873D01*
X148493062Y-126637844D01*
X146462690Y-126637844D01*
X146465187Y-126634108D01*
X146511754Y-126400000D01*
X146511754Y-124600000D01*
X146465187Y-124365892D01*
X146332575Y-124167425D01*
X146134108Y-124034813D01*
X145900000Y-123988246D01*
X144100000Y-123988246D01*
X143865892Y-124034813D01*
X143667425Y-124167425D01*
X143534813Y-124365892D01*
X143520279Y-124438958D01*
X143309682Y-124228361D01*
X142968567Y-124087067D01*
X144844329Y-122211305D01*
X155500000Y-122211305D01*
X155500000Y-122650000D01*
X155800000Y-122950000D01*
X157550000Y-122950000D01*
X157550000Y-121550000D01*
X157650000Y-121550000D01*
X157650000Y-122950000D01*
X159400000Y-122950000D01*
X159700000Y-122650000D01*
X159700000Y-122211305D01*
X159517311Y-121770254D01*
X159179745Y-121432689D01*
X158738695Y-121250000D01*
X157950000Y-121250000D01*
X157650000Y-121550000D01*
X157550000Y-121550000D01*
X157250000Y-121250000D01*
X156461305Y-121250000D01*
X156020255Y-121432689D01*
X155682689Y-121770254D01*
X155500000Y-122211305D01*
X144844329Y-122211305D01*
X146655513Y-120400122D01*
X146956693Y-120601364D01*
X147452570Y-120700000D01*
X147787430Y-120700000D01*
X148283307Y-120601364D01*
X148845631Y-120225631D01*
X149221364Y-119663307D01*
X149353304Y-119000000D01*
X149221364Y-118336693D01*
X148845631Y-117774369D01*
X148283307Y-117398636D01*
X147787430Y-117300000D01*
X147452570Y-117300000D01*
X146956693Y-117398636D01*
X146394369Y-117774369D01*
X146297973Y-117918636D01*
X146070801Y-117963823D01*
X145706944Y-118206944D01*
X145645574Y-118298791D01*
X138552366Y-125392000D01*
X136116338Y-125392000D01*
X136007999Y-125370450D01*
X135699804Y-125431754D01*
X135578801Y-125455823D01*
X135214944Y-125698944D01*
X135153575Y-125790790D01*
X134152466Y-126791900D01*
X133729622Y-126967048D01*
X133347048Y-127349622D01*
X133140000Y-127849479D01*
X132700000Y-127849479D01*
X132700000Y-119740000D01*
X133128246Y-119740000D01*
X133128246Y-121260000D01*
X133174813Y-121494108D01*
X133307425Y-121692575D01*
X133505892Y-121825187D01*
X133740000Y-121871754D01*
X135260000Y-121871754D01*
X135494108Y-121825187D01*
X135692575Y-121692575D01*
X135825187Y-121494108D01*
X135871754Y-121260000D01*
X135871754Y-119740000D01*
X135825187Y-119505892D01*
X135692575Y-119307425D01*
X135494108Y-119174813D01*
X135260000Y-119128246D01*
X133740000Y-119128246D01*
X133505892Y-119174813D01*
X133307425Y-119307425D01*
X133174813Y-119505892D01*
X133128246Y-119740000D01*
X132700000Y-119740000D01*
X132700000Y-117900000D01*
X138288246Y-117900000D01*
X138288246Y-120100000D01*
X138334813Y-120334108D01*
X138467425Y-120532575D01*
X138665892Y-120665187D01*
X138900000Y-120711754D01*
X141100000Y-120711754D01*
X141334108Y-120665187D01*
X141532575Y-120532575D01*
X141665187Y-120334108D01*
X141711754Y-120100000D01*
X141711754Y-117900000D01*
X141665187Y-117665892D01*
X141532575Y-117467425D01*
X141334108Y-117334813D01*
X141100000Y-117288246D01*
X138900000Y-117288246D01*
X138665892Y-117334813D01*
X138467425Y-117467425D01*
X138334813Y-117665892D01*
X138288246Y-117900000D01*
X132700000Y-117900000D01*
X132700000Y-115024000D01*
X150480246Y-115024000D01*
X150480246Y-116624000D01*
X150526813Y-116858108D01*
X150659425Y-117056575D01*
X150857892Y-117189187D01*
X151092000Y-117235754D01*
X152692000Y-117235754D01*
X152926108Y-117189187D01*
X153076595Y-117088634D01*
X153198076Y-117088634D01*
X153234210Y-117502626D01*
X153964724Y-117817915D01*
X154760287Y-117829649D01*
X155499781Y-117536041D01*
X155549790Y-117502626D01*
X155585924Y-117088634D01*
X154392000Y-115894711D01*
X153198076Y-117088634D01*
X153076595Y-117088634D01*
X153124575Y-117056575D01*
X153196786Y-116948504D01*
X154321289Y-115824000D01*
X154462711Y-115824000D01*
X155656634Y-117017924D01*
X156070626Y-116981790D01*
X156385915Y-116251276D01*
X156397649Y-115455713D01*
X156226243Y-115024000D01*
X157592246Y-115024000D01*
X157592246Y-116624000D01*
X157638813Y-116858108D01*
X157771425Y-117056575D01*
X157969892Y-117189187D01*
X158204000Y-117235754D01*
X158860120Y-117235754D01*
X160170010Y-118545645D01*
X160170011Y-121161666D01*
X160148460Y-121270010D01*
X160233833Y-121699208D01*
X160281305Y-121770254D01*
X160476955Y-122063066D01*
X160568802Y-122124436D01*
X164300000Y-125855635D01*
X164300000Y-126338151D01*
X164558810Y-126962973D01*
X165037027Y-127441190D01*
X165661849Y-127700000D01*
X166338151Y-127700000D01*
X166962973Y-127441190D01*
X167441190Y-126962973D01*
X167700000Y-126338151D01*
X167700000Y-125661849D01*
X167658804Y-125562393D01*
X172800000Y-125562393D01*
X172800000Y-126437607D01*
X173134930Y-127246200D01*
X173753800Y-127865070D01*
X174562393Y-128200000D01*
X175437607Y-128200000D01*
X176246200Y-127865070D01*
X176865070Y-127246200D01*
X177200000Y-126437607D01*
X177200000Y-125562393D01*
X176865070Y-124753800D01*
X176246200Y-124134930D01*
X175437607Y-123800000D01*
X174562393Y-123800000D01*
X173753800Y-124134930D01*
X173134930Y-124753800D01*
X172800000Y-125562393D01*
X167658804Y-125562393D01*
X167441190Y-125037027D01*
X166962973Y-124558810D01*
X166338151Y-124300000D01*
X165855635Y-124300000D01*
X162475635Y-120920000D01*
X164266696Y-120920000D01*
X164398636Y-121583307D01*
X164774369Y-122145631D01*
X165336693Y-122521364D01*
X165832570Y-122620000D01*
X166167430Y-122620000D01*
X166663307Y-122521364D01*
X167225631Y-122145631D01*
X167601364Y-121583307D01*
X167733304Y-120920000D01*
X167601364Y-120256693D01*
X167225631Y-119694369D01*
X166663307Y-119318636D01*
X166167430Y-119220000D01*
X165832570Y-119220000D01*
X165336693Y-119318636D01*
X164774369Y-119694369D01*
X164398636Y-120256693D01*
X164266696Y-120920000D01*
X162475635Y-120920000D01*
X162370010Y-120814376D01*
X162370010Y-118198348D01*
X162391560Y-118090009D01*
X162311557Y-117687804D01*
X170534264Y-117687804D01*
X170640719Y-118067442D01*
X171079721Y-118759569D01*
X171750171Y-119231013D01*
X172550000Y-119410000D01*
X173450000Y-119410000D01*
X173450000Y-117360000D01*
X173550000Y-117360000D01*
X173550000Y-119410000D01*
X174450000Y-119410000D01*
X175249829Y-119231013D01*
X175920279Y-118759569D01*
X176359281Y-118067442D01*
X176465736Y-117687804D01*
X176199305Y-117360000D01*
X173550000Y-117360000D01*
X173450000Y-117360000D01*
X170800695Y-117360000D01*
X170534264Y-117687804D01*
X162311557Y-117687804D01*
X162306187Y-117660811D01*
X162304372Y-117658094D01*
X162611781Y-117536041D01*
X162661790Y-117502626D01*
X162697924Y-117088634D01*
X161504000Y-115894711D01*
X161489858Y-115908853D01*
X161419147Y-115838142D01*
X161433289Y-115824000D01*
X161574711Y-115824000D01*
X162768634Y-117017924D01*
X163182626Y-116981790D01*
X163204030Y-116932196D01*
X170534264Y-116932196D01*
X170800695Y-117260000D01*
X173450000Y-117260000D01*
X173450000Y-115210000D01*
X173550000Y-115210000D01*
X173550000Y-117260000D01*
X176199305Y-117260000D01*
X176465736Y-116932196D01*
X176359281Y-116552558D01*
X175920279Y-115860431D01*
X175249829Y-115388987D01*
X174450000Y-115210000D01*
X173550000Y-115210000D01*
X173450000Y-115210000D01*
X172550000Y-115210000D01*
X171750171Y-115388987D01*
X171079721Y-115860431D01*
X170640719Y-116552558D01*
X170534264Y-116932196D01*
X163204030Y-116932196D01*
X163497915Y-116251276D01*
X163509649Y-115455713D01*
X163216041Y-114716219D01*
X163182626Y-114666210D01*
X162768634Y-114630076D01*
X161574711Y-115824000D01*
X161433289Y-115824000D01*
X160308786Y-114699496D01*
X160236575Y-114591425D01*
X160188596Y-114559366D01*
X160310076Y-114559366D01*
X161504000Y-115753289D01*
X162697924Y-114559366D01*
X162661790Y-114145374D01*
X161931276Y-113830085D01*
X161135713Y-113818351D01*
X160396219Y-114111959D01*
X160346210Y-114145374D01*
X160310076Y-114559366D01*
X160188596Y-114559366D01*
X160038108Y-114458813D01*
X159804000Y-114412246D01*
X158204000Y-114412246D01*
X157969892Y-114458813D01*
X157771425Y-114591425D01*
X157638813Y-114789892D01*
X157592246Y-115024000D01*
X156226243Y-115024000D01*
X156104041Y-114716219D01*
X156070626Y-114666210D01*
X155656634Y-114630076D01*
X154462711Y-115824000D01*
X154321289Y-115824000D01*
X153196786Y-114699496D01*
X153124575Y-114591425D01*
X153076596Y-114559366D01*
X153198076Y-114559366D01*
X154392000Y-115753289D01*
X155585924Y-114559366D01*
X155549790Y-114145374D01*
X154819276Y-113830085D01*
X154023713Y-113818351D01*
X153284219Y-114111959D01*
X153234210Y-114145374D01*
X153198076Y-114559366D01*
X153076596Y-114559366D01*
X152926108Y-114458813D01*
X152692000Y-114412246D01*
X151092000Y-114412246D01*
X150857892Y-114458813D01*
X150659425Y-114591425D01*
X150526813Y-114789892D01*
X150480246Y-115024000D01*
X132700000Y-115024000D01*
X132700000Y-112600000D01*
X171088246Y-112600000D01*
X171088246Y-114400000D01*
X171134813Y-114634108D01*
X171267425Y-114832575D01*
X171465892Y-114965187D01*
X171700000Y-115011754D01*
X175300000Y-115011754D01*
X175534108Y-114965187D01*
X175732575Y-114832575D01*
X175865187Y-114634108D01*
X175911754Y-114400000D01*
X175911754Y-112600000D01*
X175865187Y-112365892D01*
X175732575Y-112167425D01*
X175534108Y-112034813D01*
X175300000Y-111988246D01*
X171700000Y-111988246D01*
X171465892Y-112034813D01*
X171267425Y-112167425D01*
X171134813Y-112365892D01*
X171088246Y-112600000D01*
X132700000Y-112600000D01*
X132700000Y-110055454D01*
X163293257Y-110055454D01*
X163414606Y-110542161D01*
X164398073Y-110974064D01*
X165471961Y-110996733D01*
X166472779Y-110606717D01*
X166569394Y-110542161D01*
X166690743Y-110055454D01*
X164992000Y-108356711D01*
X163293257Y-110055454D01*
X132700000Y-110055454D01*
X132700000Y-108765961D01*
X162281267Y-108765961D01*
X162671283Y-109766779D01*
X162735839Y-109863394D01*
X163222546Y-109984743D01*
X164921289Y-108286000D01*
X165062711Y-108286000D01*
X166761454Y-109984743D01*
X167248161Y-109863394D01*
X167680064Y-108879927D01*
X167702733Y-107806039D01*
X167312717Y-106805221D01*
X167248161Y-106708606D01*
X166761454Y-106587257D01*
X165062711Y-108286000D01*
X164921289Y-108286000D01*
X163222546Y-106587257D01*
X162735839Y-106708606D01*
X162303936Y-107692073D01*
X162281267Y-108765961D01*
X132700000Y-108765961D01*
X132700000Y-106516546D01*
X163293257Y-106516546D01*
X164992000Y-108215289D01*
X166690743Y-106516546D01*
X166569394Y-106029839D01*
X165585927Y-105597936D01*
X164512039Y-105575267D01*
X163511221Y-105965283D01*
X163414606Y-106029839D01*
X163293257Y-106516546D01*
X132700000Y-106516546D01*
X132700000Y-102810000D01*
X171070614Y-102810000D01*
X171187032Y-103395271D01*
X171518561Y-103891439D01*
X172014729Y-104222968D01*
X172452267Y-104310000D01*
X174547733Y-104310000D01*
X174985271Y-104222968D01*
X175481439Y-103891439D01*
X175812968Y-103395271D01*
X175929386Y-102810000D01*
X175812968Y-102224729D01*
X175481439Y-101728561D01*
X174985271Y-101397032D01*
X174547733Y-101310000D01*
X172452267Y-101310000D01*
X172014729Y-101397032D01*
X171518561Y-101728561D01*
X171187032Y-102224729D01*
X171070614Y-102810000D01*
X132700000Y-102810000D01*
X132700000Y-99868284D01*
X162892000Y-99868284D01*
X162892000Y-100703716D01*
X163211706Y-101475554D01*
X163802446Y-102066294D01*
X164574284Y-102386000D01*
X165409716Y-102386000D01*
X166181554Y-102066294D01*
X166772294Y-101475554D01*
X167092000Y-100703716D01*
X167092000Y-99868284D01*
X166877320Y-99350000D01*
X170500000Y-99350000D01*
X170500000Y-100138695D01*
X170682689Y-100579746D01*
X171020255Y-100917311D01*
X171461305Y-101100000D01*
X173150000Y-101100000D01*
X173450000Y-100800000D01*
X173450000Y-99050000D01*
X173550000Y-99050000D01*
X173550000Y-100800000D01*
X173850000Y-101100000D01*
X175538695Y-101100000D01*
X175979745Y-100917311D01*
X176317311Y-100579746D01*
X176500000Y-100138695D01*
X176500000Y-99350000D01*
X176200000Y-99050000D01*
X173550000Y-99050000D01*
X173450000Y-99050000D01*
X170800000Y-99050000D01*
X170500000Y-99350000D01*
X166877320Y-99350000D01*
X166772294Y-99096446D01*
X166181554Y-98505706D01*
X165409716Y-98186000D01*
X164574284Y-98186000D01*
X163802446Y-98505706D01*
X163211706Y-99096446D01*
X162892000Y-99868284D01*
X132700000Y-99868284D01*
X132700000Y-97861305D01*
X170500000Y-97861305D01*
X170500000Y-98650000D01*
X170800000Y-98950000D01*
X173450000Y-98950000D01*
X173450000Y-97200000D01*
X173550000Y-97200000D01*
X173550000Y-98950000D01*
X176200000Y-98950000D01*
X176500000Y-98650000D01*
X176500000Y-97861305D01*
X176317311Y-97420254D01*
X175979745Y-97082689D01*
X175538695Y-96900000D01*
X173850000Y-96900000D01*
X173550000Y-97200000D01*
X173450000Y-97200000D01*
X173150000Y-96900000D01*
X171461305Y-96900000D01*
X171020255Y-97082689D01*
X170682689Y-97420254D01*
X170500000Y-97861305D01*
X132700000Y-97861305D01*
X132700000Y-90562393D01*
X172800000Y-90562393D01*
X172800000Y-91437607D01*
X173134930Y-92246200D01*
X173753800Y-92865070D01*
X174562393Y-93200000D01*
X175437607Y-93200000D01*
X176246200Y-92865070D01*
X176865070Y-92246200D01*
X177200000Y-91437607D01*
X177200000Y-90562393D01*
X176865070Y-89753800D01*
X176246200Y-89134930D01*
X175437607Y-88800000D01*
X174562393Y-88800000D01*
X173753800Y-89134930D01*
X173134930Y-89753800D01*
X172800000Y-90562393D01*
X132700000Y-90562393D01*
X132700000Y-86675000D01*
X179325000Y-86675000D01*
X179325001Y-130325000D01*
X179325001Y-130325000D01*
G37*
X179325001Y-130325000D02*
X132700000Y-130325000D01*
X132700000Y-127849479D01*
X133140000Y-127849479D01*
X133140000Y-128390521D01*
X133347048Y-128890378D01*
X133729622Y-129272952D01*
X134229479Y-129480000D01*
X134770521Y-129480000D01*
X135270378Y-129272952D01*
X135652952Y-128890378D01*
X135860000Y-128390521D01*
X135860000Y-128195634D01*
X136463635Y-127592000D01*
X138899661Y-127592000D01*
X139008000Y-127613550D01*
X139116339Y-127592000D01*
X139437199Y-127528177D01*
X139685667Y-127362156D01*
X148493062Y-127362156D01*
X148504193Y-127418127D01*
X148813080Y-128134754D01*
X149372696Y-128678625D01*
X150097844Y-128966941D01*
X150410000Y-128699378D01*
X150410000Y-127050000D01*
X148760735Y-127050000D01*
X148493062Y-127362156D01*
X139685667Y-127362156D01*
X139801056Y-127285056D01*
X139862428Y-127193206D01*
X141047067Y-126008567D01*
X141188361Y-126349682D01*
X141610318Y-126771639D01*
X142161631Y-127000000D01*
X142758369Y-127000000D01*
X143309682Y-126771639D01*
X143520279Y-126561042D01*
X143534813Y-126634108D01*
X143667425Y-126832575D01*
X143865892Y-126965187D01*
X144100000Y-127011754D01*
X145900000Y-127011754D01*
X146134108Y-126965187D01*
X146332575Y-126832575D01*
X146462690Y-126637844D01*
X148493062Y-126637844D01*
X148760735Y-126950000D01*
X150410000Y-126950000D01*
X150410000Y-126930000D01*
X150510000Y-126930000D01*
X150510000Y-126950000D01*
X150530000Y-126950000D01*
X150530000Y-127050000D01*
X150510000Y-127050000D01*
X150510000Y-128699378D01*
X150822156Y-128966941D01*
X151547304Y-128678625D01*
X152106920Y-128134754D01*
X152121358Y-128101258D01*
X152206963Y-128186863D01*
X152721523Y-128400000D01*
X153278477Y-128400000D01*
X153793037Y-128186863D01*
X154186863Y-127793037D01*
X154400000Y-127278477D01*
X154400000Y-126721523D01*
X154186863Y-126206963D01*
X153793037Y-125813137D01*
X153278477Y-125600000D01*
X152721523Y-125600000D01*
X152206963Y-125813137D01*
X152121358Y-125898742D01*
X152106920Y-125865246D01*
X151547304Y-125321375D01*
X151205653Y-125185536D01*
X151469343Y-125009343D01*
X151736883Y-124608943D01*
X151813137Y-124793037D01*
X152206963Y-125186863D01*
X152721523Y-125400000D01*
X153278477Y-125400000D01*
X153793037Y-125186863D01*
X154186863Y-124793037D01*
X154400000Y-124278477D01*
X154400000Y-123721523D01*
X154246111Y-123350000D01*
X155500000Y-123350000D01*
X155500000Y-123788695D01*
X155682689Y-124229746D01*
X156020255Y-124567311D01*
X156313909Y-124688946D01*
X156155746Y-124925654D01*
X156088246Y-125265000D01*
X156088246Y-125815000D01*
X156155746Y-126154346D01*
X156347970Y-126442030D01*
X156635654Y-126634254D01*
X156975000Y-126701754D01*
X158225000Y-126701754D01*
X158564346Y-126634254D01*
X158852030Y-126442030D01*
X159044254Y-126154346D01*
X159111754Y-125815000D01*
X159111754Y-125431754D01*
X160295000Y-125431754D01*
X160634346Y-125364254D01*
X160922030Y-125172030D01*
X161114254Y-124884346D01*
X161181754Y-124545000D01*
X161181754Y-123995000D01*
X161114254Y-123655654D01*
X160922030Y-123367970D01*
X160634346Y-123175746D01*
X160295000Y-123108246D01*
X159458246Y-123108246D01*
X159400000Y-123050000D01*
X157650000Y-123050000D01*
X157650000Y-123070000D01*
X157550000Y-123070000D01*
X157550000Y-123050000D01*
X155800000Y-123050000D01*
X155500000Y-123350000D01*
X154246111Y-123350000D01*
X154186863Y-123206963D01*
X153793037Y-122813137D01*
X153278477Y-122600000D01*
X152721523Y-122600000D01*
X152206963Y-122813137D01*
X151813137Y-123206963D01*
X151736883Y-123391057D01*
X151469343Y-122990657D01*
X151006253Y-122681229D01*
X150597885Y-122600000D01*
X150322115Y-122600000D01*
X149913747Y-122681229D01*
X149450657Y-122990657D01*
X149141229Y-123453747D01*
X149032573Y-124000000D01*
X149141229Y-124546253D01*
X149450657Y-125009343D01*
X149714347Y-125185536D01*
X149372696Y-125321375D01*
X148813080Y-125865246D01*
X148504193Y-126581873D01*
X148493062Y-126637844D01*
X146462690Y-126637844D01*
X146465187Y-126634108D01*
X146511754Y-126400000D01*
X146511754Y-124600000D01*
X146465187Y-124365892D01*
X146332575Y-124167425D01*
X146134108Y-124034813D01*
X145900000Y-123988246D01*
X144100000Y-123988246D01*
X143865892Y-124034813D01*
X143667425Y-124167425D01*
X143534813Y-124365892D01*
X143520279Y-124438958D01*
X143309682Y-124228361D01*
X142968567Y-124087067D01*
X144844329Y-122211305D01*
X155500000Y-122211305D01*
X155500000Y-122650000D01*
X155800000Y-122950000D01*
X157550000Y-122950000D01*
X157550000Y-121550000D01*
X157650000Y-121550000D01*
X157650000Y-122950000D01*
X159400000Y-122950000D01*
X159700000Y-122650000D01*
X159700000Y-122211305D01*
X159517311Y-121770254D01*
X159179745Y-121432689D01*
X158738695Y-121250000D01*
X157950000Y-121250000D01*
X157650000Y-121550000D01*
X157550000Y-121550000D01*
X157250000Y-121250000D01*
X156461305Y-121250000D01*
X156020255Y-121432689D01*
X155682689Y-121770254D01*
X155500000Y-122211305D01*
X144844329Y-122211305D01*
X146655513Y-120400122D01*
X146956693Y-120601364D01*
X147452570Y-120700000D01*
X147787430Y-120700000D01*
X148283307Y-120601364D01*
X148845631Y-120225631D01*
X149221364Y-119663307D01*
X149353304Y-119000000D01*
X149221364Y-118336693D01*
X148845631Y-117774369D01*
X148283307Y-117398636D01*
X147787430Y-117300000D01*
X147452570Y-117300000D01*
X146956693Y-117398636D01*
X146394369Y-117774369D01*
X146297973Y-117918636D01*
X146070801Y-117963823D01*
X145706944Y-118206944D01*
X145645574Y-118298791D01*
X138552366Y-125392000D01*
X136116338Y-125392000D01*
X136007999Y-125370450D01*
X135699804Y-125431754D01*
X135578801Y-125455823D01*
X135214944Y-125698944D01*
X135153575Y-125790790D01*
X134152466Y-126791900D01*
X133729622Y-126967048D01*
X133347048Y-127349622D01*
X133140000Y-127849479D01*
X132700000Y-127849479D01*
X132700000Y-119740000D01*
X133128246Y-119740000D01*
X133128246Y-121260000D01*
X133174813Y-121494108D01*
X133307425Y-121692575D01*
X133505892Y-121825187D01*
X133740000Y-121871754D01*
X135260000Y-121871754D01*
X135494108Y-121825187D01*
X135692575Y-121692575D01*
X135825187Y-121494108D01*
X135871754Y-121260000D01*
X135871754Y-119740000D01*
X135825187Y-119505892D01*
X135692575Y-119307425D01*
X135494108Y-119174813D01*
X135260000Y-119128246D01*
X133740000Y-119128246D01*
X133505892Y-119174813D01*
X133307425Y-119307425D01*
X133174813Y-119505892D01*
X133128246Y-119740000D01*
X132700000Y-119740000D01*
X132700000Y-117900000D01*
X138288246Y-117900000D01*
X138288246Y-120100000D01*
X138334813Y-120334108D01*
X138467425Y-120532575D01*
X138665892Y-120665187D01*
X138900000Y-120711754D01*
X141100000Y-120711754D01*
X141334108Y-120665187D01*
X141532575Y-120532575D01*
X141665187Y-120334108D01*
X141711754Y-120100000D01*
X141711754Y-117900000D01*
X141665187Y-117665892D01*
X141532575Y-117467425D01*
X141334108Y-117334813D01*
X141100000Y-117288246D01*
X138900000Y-117288246D01*
X138665892Y-117334813D01*
X138467425Y-117467425D01*
X138334813Y-117665892D01*
X138288246Y-117900000D01*
X132700000Y-117900000D01*
X132700000Y-115024000D01*
X150480246Y-115024000D01*
X150480246Y-116624000D01*
X150526813Y-116858108D01*
X150659425Y-117056575D01*
X150857892Y-117189187D01*
X151092000Y-117235754D01*
X152692000Y-117235754D01*
X152926108Y-117189187D01*
X153076595Y-117088634D01*
X153198076Y-117088634D01*
X153234210Y-117502626D01*
X153964724Y-117817915D01*
X154760287Y-117829649D01*
X155499781Y-117536041D01*
X155549790Y-117502626D01*
X155585924Y-117088634D01*
X154392000Y-115894711D01*
X153198076Y-117088634D01*
X153076595Y-117088634D01*
X153124575Y-117056575D01*
X153196786Y-116948504D01*
X154321289Y-115824000D01*
X154462711Y-115824000D01*
X155656634Y-117017924D01*
X156070626Y-116981790D01*
X156385915Y-116251276D01*
X156397649Y-115455713D01*
X156226243Y-115024000D01*
X157592246Y-115024000D01*
X157592246Y-116624000D01*
X157638813Y-116858108D01*
X157771425Y-117056575D01*
X157969892Y-117189187D01*
X158204000Y-117235754D01*
X158860120Y-117235754D01*
X160170010Y-118545645D01*
X160170011Y-121161666D01*
X160148460Y-121270010D01*
X160233833Y-121699208D01*
X160281305Y-121770254D01*
X160476955Y-122063066D01*
X160568802Y-122124436D01*
X164300000Y-125855635D01*
X164300000Y-126338151D01*
X164558810Y-126962973D01*
X165037027Y-127441190D01*
X165661849Y-127700000D01*
X166338151Y-127700000D01*
X166962973Y-127441190D01*
X167441190Y-126962973D01*
X167700000Y-126338151D01*
X167700000Y-125661849D01*
X167658804Y-125562393D01*
X172800000Y-125562393D01*
X172800000Y-126437607D01*
X173134930Y-127246200D01*
X173753800Y-127865070D01*
X174562393Y-128200000D01*
X175437607Y-128200000D01*
X176246200Y-127865070D01*
X176865070Y-127246200D01*
X177200000Y-126437607D01*
X177200000Y-125562393D01*
X176865070Y-124753800D01*
X176246200Y-124134930D01*
X175437607Y-123800000D01*
X174562393Y-123800000D01*
X173753800Y-124134930D01*
X173134930Y-124753800D01*
X172800000Y-125562393D01*
X167658804Y-125562393D01*
X167441190Y-125037027D01*
X166962973Y-124558810D01*
X166338151Y-124300000D01*
X165855635Y-124300000D01*
X162475635Y-120920000D01*
X164266696Y-120920000D01*
X164398636Y-121583307D01*
X164774369Y-122145631D01*
X165336693Y-122521364D01*
X165832570Y-122620000D01*
X166167430Y-122620000D01*
X166663307Y-122521364D01*
X167225631Y-122145631D01*
X167601364Y-121583307D01*
X167733304Y-120920000D01*
X167601364Y-120256693D01*
X167225631Y-119694369D01*
X166663307Y-119318636D01*
X166167430Y-119220000D01*
X165832570Y-119220000D01*
X165336693Y-119318636D01*
X164774369Y-119694369D01*
X164398636Y-120256693D01*
X164266696Y-120920000D01*
X162475635Y-120920000D01*
X162370010Y-120814376D01*
X162370010Y-118198348D01*
X162391560Y-118090009D01*
X162311557Y-117687804D01*
X170534264Y-117687804D01*
X170640719Y-118067442D01*
X171079721Y-118759569D01*
X171750171Y-119231013D01*
X172550000Y-119410000D01*
X173450000Y-119410000D01*
X173450000Y-117360000D01*
X173550000Y-117360000D01*
X173550000Y-119410000D01*
X174450000Y-119410000D01*
X175249829Y-119231013D01*
X175920279Y-118759569D01*
X176359281Y-118067442D01*
X176465736Y-117687804D01*
X176199305Y-117360000D01*
X173550000Y-117360000D01*
X173450000Y-117360000D01*
X170800695Y-117360000D01*
X170534264Y-117687804D01*
X162311557Y-117687804D01*
X162306187Y-117660811D01*
X162304372Y-117658094D01*
X162611781Y-117536041D01*
X162661790Y-117502626D01*
X162697924Y-117088634D01*
X161504000Y-115894711D01*
X161489858Y-115908853D01*
X161419147Y-115838142D01*
X161433289Y-115824000D01*
X161574711Y-115824000D01*
X162768634Y-117017924D01*
X163182626Y-116981790D01*
X163204030Y-116932196D01*
X170534264Y-116932196D01*
X170800695Y-117260000D01*
X173450000Y-117260000D01*
X173450000Y-115210000D01*
X173550000Y-115210000D01*
X173550000Y-117260000D01*
X176199305Y-117260000D01*
X176465736Y-116932196D01*
X176359281Y-116552558D01*
X175920279Y-115860431D01*
X175249829Y-115388987D01*
X174450000Y-115210000D01*
X173550000Y-115210000D01*
X173450000Y-115210000D01*
X172550000Y-115210000D01*
X171750171Y-115388987D01*
X171079721Y-115860431D01*
X170640719Y-116552558D01*
X170534264Y-116932196D01*
X163204030Y-116932196D01*
X163497915Y-116251276D01*
X163509649Y-115455713D01*
X163216041Y-114716219D01*
X163182626Y-114666210D01*
X162768634Y-114630076D01*
X161574711Y-115824000D01*
X161433289Y-115824000D01*
X160308786Y-114699496D01*
X160236575Y-114591425D01*
X160188596Y-114559366D01*
X160310076Y-114559366D01*
X161504000Y-115753289D01*
X162697924Y-114559366D01*
X162661790Y-114145374D01*
X161931276Y-113830085D01*
X161135713Y-113818351D01*
X160396219Y-114111959D01*
X160346210Y-114145374D01*
X160310076Y-114559366D01*
X160188596Y-114559366D01*
X160038108Y-114458813D01*
X159804000Y-114412246D01*
X158204000Y-114412246D01*
X157969892Y-114458813D01*
X157771425Y-114591425D01*
X157638813Y-114789892D01*
X157592246Y-115024000D01*
X156226243Y-115024000D01*
X156104041Y-114716219D01*
X156070626Y-114666210D01*
X155656634Y-114630076D01*
X154462711Y-115824000D01*
X154321289Y-115824000D01*
X153196786Y-114699496D01*
X153124575Y-114591425D01*
X153076596Y-114559366D01*
X153198076Y-114559366D01*
X154392000Y-115753289D01*
X155585924Y-114559366D01*
X155549790Y-114145374D01*
X154819276Y-113830085D01*
X154023713Y-113818351D01*
X153284219Y-114111959D01*
X153234210Y-114145374D01*
X153198076Y-114559366D01*
X153076596Y-114559366D01*
X152926108Y-114458813D01*
X152692000Y-114412246D01*
X151092000Y-114412246D01*
X150857892Y-114458813D01*
X150659425Y-114591425D01*
X150526813Y-114789892D01*
X150480246Y-115024000D01*
X132700000Y-115024000D01*
X132700000Y-112600000D01*
X171088246Y-112600000D01*
X171088246Y-114400000D01*
X171134813Y-114634108D01*
X171267425Y-114832575D01*
X171465892Y-114965187D01*
X171700000Y-115011754D01*
X175300000Y-115011754D01*
X175534108Y-114965187D01*
X175732575Y-114832575D01*
X175865187Y-114634108D01*
X175911754Y-114400000D01*
X175911754Y-112600000D01*
X175865187Y-112365892D01*
X175732575Y-112167425D01*
X175534108Y-112034813D01*
X175300000Y-111988246D01*
X171700000Y-111988246D01*
X171465892Y-112034813D01*
X171267425Y-112167425D01*
X171134813Y-112365892D01*
X171088246Y-112600000D01*
X132700000Y-112600000D01*
X132700000Y-110055454D01*
X163293257Y-110055454D01*
X163414606Y-110542161D01*
X164398073Y-110974064D01*
X165471961Y-110996733D01*
X166472779Y-110606717D01*
X166569394Y-110542161D01*
X166690743Y-110055454D01*
X164992000Y-108356711D01*
X163293257Y-110055454D01*
X132700000Y-110055454D01*
X132700000Y-108765961D01*
X162281267Y-108765961D01*
X162671283Y-109766779D01*
X162735839Y-109863394D01*
X163222546Y-109984743D01*
X164921289Y-108286000D01*
X165062711Y-108286000D01*
X166761454Y-109984743D01*
X167248161Y-109863394D01*
X167680064Y-108879927D01*
X167702733Y-107806039D01*
X167312717Y-106805221D01*
X167248161Y-106708606D01*
X166761454Y-106587257D01*
X165062711Y-108286000D01*
X164921289Y-108286000D01*
X163222546Y-106587257D01*
X162735839Y-106708606D01*
X162303936Y-107692073D01*
X162281267Y-108765961D01*
X132700000Y-108765961D01*
X132700000Y-106516546D01*
X163293257Y-106516546D01*
X164992000Y-108215289D01*
X166690743Y-106516546D01*
X166569394Y-106029839D01*
X165585927Y-105597936D01*
X164512039Y-105575267D01*
X163511221Y-105965283D01*
X163414606Y-106029839D01*
X163293257Y-106516546D01*
X132700000Y-106516546D01*
X132700000Y-102810000D01*
X171070614Y-102810000D01*
X171187032Y-103395271D01*
X171518561Y-103891439D01*
X172014729Y-104222968D01*
X172452267Y-104310000D01*
X174547733Y-104310000D01*
X174985271Y-104222968D01*
X175481439Y-103891439D01*
X175812968Y-103395271D01*
X175929386Y-102810000D01*
X175812968Y-102224729D01*
X175481439Y-101728561D01*
X174985271Y-101397032D01*
X174547733Y-101310000D01*
X172452267Y-101310000D01*
X172014729Y-101397032D01*
X171518561Y-101728561D01*
X171187032Y-102224729D01*
X171070614Y-102810000D01*
X132700000Y-102810000D01*
X132700000Y-99868284D01*
X162892000Y-99868284D01*
X162892000Y-100703716D01*
X163211706Y-101475554D01*
X163802446Y-102066294D01*
X164574284Y-102386000D01*
X165409716Y-102386000D01*
X166181554Y-102066294D01*
X166772294Y-101475554D01*
X167092000Y-100703716D01*
X167092000Y-99868284D01*
X166877320Y-99350000D01*
X170500000Y-99350000D01*
X170500000Y-100138695D01*
X170682689Y-100579746D01*
X171020255Y-100917311D01*
X171461305Y-101100000D01*
X173150000Y-101100000D01*
X173450000Y-100800000D01*
X173450000Y-99050000D01*
X173550000Y-99050000D01*
X173550000Y-100800000D01*
X173850000Y-101100000D01*
X175538695Y-101100000D01*
X175979745Y-100917311D01*
X176317311Y-100579746D01*
X176500000Y-100138695D01*
X176500000Y-99350000D01*
X176200000Y-99050000D01*
X173550000Y-99050000D01*
X173450000Y-99050000D01*
X170800000Y-99050000D01*
X170500000Y-99350000D01*
X166877320Y-99350000D01*
X166772294Y-99096446D01*
X166181554Y-98505706D01*
X165409716Y-98186000D01*
X164574284Y-98186000D01*
X163802446Y-98505706D01*
X163211706Y-99096446D01*
X162892000Y-99868284D01*
X132700000Y-99868284D01*
X132700000Y-97861305D01*
X170500000Y-97861305D01*
X170500000Y-98650000D01*
X170800000Y-98950000D01*
X173450000Y-98950000D01*
X173450000Y-97200000D01*
X173550000Y-97200000D01*
X173550000Y-98950000D01*
X176200000Y-98950000D01*
X176500000Y-98650000D01*
X176500000Y-97861305D01*
X176317311Y-97420254D01*
X175979745Y-97082689D01*
X175538695Y-96900000D01*
X173850000Y-96900000D01*
X173550000Y-97200000D01*
X173450000Y-97200000D01*
X173150000Y-96900000D01*
X171461305Y-96900000D01*
X171020255Y-97082689D01*
X170682689Y-97420254D01*
X170500000Y-97861305D01*
X132700000Y-97861305D01*
X132700000Y-90562393D01*
X172800000Y-90562393D01*
X172800000Y-91437607D01*
X173134930Y-92246200D01*
X173753800Y-92865070D01*
X174562393Y-93200000D01*
X175437607Y-93200000D01*
X176246200Y-92865070D01*
X176865070Y-92246200D01*
X177200000Y-91437607D01*
X177200000Y-90562393D01*
X176865070Y-89753800D01*
X176246200Y-89134930D01*
X175437607Y-88800000D01*
X174562393Y-88800000D01*
X173753800Y-89134930D01*
X173134930Y-89753800D01*
X172800000Y-90562393D01*
X132700000Y-90562393D01*
X132700000Y-86675000D01*
X179325000Y-86675000D01*
X179325001Y-130325000D01*
G04 #@! TD*
M02*
