G04 #@! TF.GenerationSoftware,KiCad,Pcbnew,(5.0.0-3-g5ebb6b6)*
G04 #@! TF.CreationDate,2018-11-29T16:19:06+00:00*
G04 #@! TF.ProjectId,PowerSupply,506F776572537570706C792E6B696361,rev?*
G04 #@! TF.SameCoordinates,Original*
G04 #@! TF.FileFunction,Legend,Top*
G04 #@! TF.FilePolarity,Positive*
%FSLAX46Y46*%
G04 Gerber Fmt 4.6, Leading zero omitted, Abs format (unit mm)*
G04 Created by KiCad (PCBNEW (5.0.0-3-g5ebb6b6)) date Thursday, 29 November 2018 at 16:19:06*
%MOMM*%
%LPD*%
G01*
G04 APERTURE LIST*
%ADD10C,0.200000*%
%ADD11C,0.250000*%
%ADD12C,0.120000*%
%ADD13C,0.150000*%
G04 APERTURE END LIST*
D10*
X105714285Y-114452380D02*
X105714285Y-113452380D01*
X106285714Y-114452380D01*
X106285714Y-113452380D01*
X105759285Y-109037380D02*
X105759285Y-108037380D01*
X106330714Y-109037380D01*
X106330714Y-108037380D01*
X106309523Y-104452380D02*
X105833333Y-104452380D01*
X105833333Y-103452380D01*
X106354523Y-119452380D02*
X105878333Y-119452380D01*
X105878333Y-118452380D01*
D11*
X123928571Y-113940476D02*
X123928571Y-112690476D01*
X124261904Y-113583333D01*
X124595238Y-112690476D01*
X124595238Y-113940476D01*
X125500000Y-113940476D02*
X125500000Y-113285714D01*
X125452380Y-113166666D01*
X125357142Y-113107142D01*
X125166666Y-113107142D01*
X125071428Y-113166666D01*
X125500000Y-113880952D02*
X125404761Y-113940476D01*
X125166666Y-113940476D01*
X125071428Y-113880952D01*
X125023809Y-113761904D01*
X125023809Y-113642857D01*
X125071428Y-113523809D01*
X125166666Y-113464285D01*
X125404761Y-113464285D01*
X125500000Y-113404761D01*
X125976190Y-113940476D02*
X125976190Y-113107142D01*
X125976190Y-112690476D02*
X125928571Y-112750000D01*
X125976190Y-112809523D01*
X126023809Y-112750000D01*
X125976190Y-112690476D01*
X125976190Y-112809523D01*
X126452380Y-113107142D02*
X126452380Y-113940476D01*
X126452380Y-113226190D02*
X126500000Y-113166666D01*
X126595238Y-113107142D01*
X126738095Y-113107142D01*
X126833333Y-113166666D01*
X126880952Y-113285714D01*
X126880952Y-113940476D01*
X127309523Y-113880952D02*
X127404761Y-113940476D01*
X127595238Y-113940476D01*
X127690476Y-113880952D01*
X127738095Y-113761904D01*
X127738095Y-113702380D01*
X127690476Y-113583333D01*
X127595238Y-113523809D01*
X127452380Y-113523809D01*
X127357142Y-113464285D01*
X127309523Y-113345238D01*
X127309523Y-113285714D01*
X127357142Y-113166666D01*
X127452380Y-113107142D01*
X127595238Y-113107142D01*
X127690476Y-113166666D01*
X129500000Y-113940476D02*
X129166666Y-113345238D01*
X128928571Y-113940476D02*
X128928571Y-112690476D01*
X129309523Y-112690476D01*
X129404761Y-112750000D01*
X129452380Y-112809523D01*
X129500000Y-112928571D01*
X129500000Y-113107142D01*
X129452380Y-113226190D01*
X129404761Y-113285714D01*
X129309523Y-113345238D01*
X128928571Y-113345238D01*
X130309523Y-113880952D02*
X130214285Y-113940476D01*
X130023809Y-113940476D01*
X129928571Y-113880952D01*
X129880952Y-113761904D01*
X129880952Y-113285714D01*
X129928571Y-113166666D01*
X130023809Y-113107142D01*
X130214285Y-113107142D01*
X130309523Y-113166666D01*
X130357142Y-113285714D01*
X130357142Y-113404761D01*
X129880952Y-113523809D01*
X130928571Y-113940476D02*
X130833333Y-113880952D01*
X130785714Y-113761904D01*
X130785714Y-112690476D01*
X131738095Y-113940476D02*
X131738095Y-113285714D01*
X131690476Y-113166666D01*
X131595238Y-113107142D01*
X131404761Y-113107142D01*
X131309523Y-113166666D01*
X131738095Y-113880952D02*
X131642857Y-113940476D01*
X131404761Y-113940476D01*
X131309523Y-113880952D01*
X131261904Y-113761904D01*
X131261904Y-113642857D01*
X131309523Y-113523809D01*
X131404761Y-113464285D01*
X131642857Y-113464285D01*
X131738095Y-113404761D01*
X132119047Y-113107142D02*
X132357142Y-113940476D01*
X132595238Y-113107142D02*
X132357142Y-113940476D01*
X132261904Y-114238095D01*
X132214285Y-114297619D01*
X132119047Y-114357142D01*
X134071428Y-113285714D02*
X134214285Y-113345238D01*
X134261904Y-113404761D01*
X134309523Y-113523809D01*
X134309523Y-113702380D01*
X134261904Y-113821428D01*
X134214285Y-113880952D01*
X134119047Y-113940476D01*
X133738095Y-113940476D01*
X133738095Y-112690476D01*
X134071428Y-112690476D01*
X134166666Y-112750000D01*
X134214285Y-112809523D01*
X134261904Y-112928571D01*
X134261904Y-113047619D01*
X134214285Y-113166666D01*
X134166666Y-113226190D01*
X134071428Y-113285714D01*
X133738095Y-113285714D01*
X134880952Y-113940476D02*
X134785714Y-113880952D01*
X134738095Y-113821428D01*
X134690476Y-113702380D01*
X134690476Y-113345238D01*
X134738095Y-113226190D01*
X134785714Y-113166666D01*
X134880952Y-113107142D01*
X135023809Y-113107142D01*
X135119047Y-113166666D01*
X135166666Y-113226190D01*
X135214285Y-113345238D01*
X135214285Y-113702380D01*
X135166666Y-113821428D01*
X135119047Y-113880952D01*
X135023809Y-113940476D01*
X134880952Y-113940476D01*
X136071428Y-113940476D02*
X136071428Y-113285714D01*
X136023809Y-113166666D01*
X135928571Y-113107142D01*
X135738095Y-113107142D01*
X135642857Y-113166666D01*
X136071428Y-113880952D02*
X135976190Y-113940476D01*
X135738095Y-113940476D01*
X135642857Y-113880952D01*
X135595238Y-113761904D01*
X135595238Y-113642857D01*
X135642857Y-113523809D01*
X135738095Y-113464285D01*
X135976190Y-113464285D01*
X136071428Y-113404761D01*
X136547619Y-113940476D02*
X136547619Y-113107142D01*
X136547619Y-113345238D02*
X136595238Y-113226190D01*
X136642857Y-113166666D01*
X136738095Y-113107142D01*
X136833333Y-113107142D01*
X137595238Y-113940476D02*
X137595238Y-112690476D01*
X137595238Y-113880952D02*
X137500000Y-113940476D01*
X137309523Y-113940476D01*
X137214285Y-113880952D01*
X137166666Y-113821428D01*
X137119047Y-113702380D01*
X137119047Y-113345238D01*
X137166666Y-113226190D01*
X137214285Y-113166666D01*
X137309523Y-113107142D01*
X137500000Y-113107142D01*
X137595238Y-113166666D01*
X138738095Y-113107142D02*
X138976190Y-113940476D01*
X139214285Y-113107142D01*
X139500000Y-112690476D02*
X140119047Y-112690476D01*
X139785714Y-113166666D01*
X139928571Y-113166666D01*
X140023809Y-113226190D01*
X140071428Y-113285714D01*
X140119047Y-113404761D01*
X140119047Y-113702380D01*
X140071428Y-113821428D01*
X140023809Y-113880952D01*
X139928571Y-113940476D01*
X139642857Y-113940476D01*
X139547619Y-113880952D01*
X139500000Y-113821428D01*
X126619047Y-114815476D02*
X127190476Y-114815476D01*
X126904761Y-116065476D02*
X126904761Y-114815476D01*
X127523809Y-116065476D02*
X127523809Y-115232142D01*
X127523809Y-115470238D02*
X127571428Y-115351190D01*
X127619047Y-115291666D01*
X127714285Y-115232142D01*
X127809523Y-115232142D01*
X128142857Y-116065476D02*
X128142857Y-115232142D01*
X128142857Y-114815476D02*
X128095238Y-114875000D01*
X128142857Y-114934523D01*
X128190476Y-114875000D01*
X128142857Y-114815476D01*
X128142857Y-114934523D01*
X128571428Y-116005952D02*
X128666666Y-116065476D01*
X128857142Y-116065476D01*
X128952380Y-116005952D01*
X129000000Y-115886904D01*
X129000000Y-115827380D01*
X128952380Y-115708333D01*
X128857142Y-115648809D01*
X128714285Y-115648809D01*
X128619047Y-115589285D01*
X128571428Y-115470238D01*
X128571428Y-115410714D01*
X128619047Y-115291666D01*
X128714285Y-115232142D01*
X128857142Y-115232142D01*
X128952380Y-115291666D01*
X129285714Y-115232142D02*
X129666666Y-115232142D01*
X129428571Y-114815476D02*
X129428571Y-115886904D01*
X129476190Y-116005952D01*
X129571428Y-116065476D01*
X129666666Y-116065476D01*
X130428571Y-116065476D02*
X130428571Y-115410714D01*
X130380952Y-115291666D01*
X130285714Y-115232142D01*
X130095238Y-115232142D01*
X130000000Y-115291666D01*
X130428571Y-116005952D02*
X130333333Y-116065476D01*
X130095238Y-116065476D01*
X130000000Y-116005952D01*
X129952380Y-115886904D01*
X129952380Y-115767857D01*
X130000000Y-115648809D01*
X130095238Y-115589285D01*
X130333333Y-115589285D01*
X130428571Y-115529761D01*
X130904761Y-115232142D02*
X130904761Y-116065476D01*
X130904761Y-115351190D02*
X130952380Y-115291666D01*
X131047619Y-115232142D01*
X131190476Y-115232142D01*
X131285714Y-115291666D01*
X131333333Y-115410714D01*
X131333333Y-116065476D01*
X133142857Y-115946428D02*
X133095238Y-116005952D01*
X132952380Y-116065476D01*
X132857142Y-116065476D01*
X132714285Y-116005952D01*
X132619047Y-115886904D01*
X132571428Y-115767857D01*
X132523809Y-115529761D01*
X132523809Y-115351190D01*
X132571428Y-115113095D01*
X132619047Y-114994047D01*
X132714285Y-114875000D01*
X132857142Y-114815476D01*
X132952380Y-114815476D01*
X133095238Y-114875000D01*
X133142857Y-114934523D01*
X133714285Y-116065476D02*
X133619047Y-116005952D01*
X133571428Y-115946428D01*
X133523809Y-115827380D01*
X133523809Y-115470238D01*
X133571428Y-115351190D01*
X133619047Y-115291666D01*
X133714285Y-115232142D01*
X133857142Y-115232142D01*
X133952380Y-115291666D01*
X134000000Y-115351190D01*
X134047619Y-115470238D01*
X134047619Y-115827380D01*
X134000000Y-115946428D01*
X133952380Y-116005952D01*
X133857142Y-116065476D01*
X133714285Y-116065476D01*
X134619047Y-116065476D02*
X134523809Y-116005952D01*
X134476190Y-115886904D01*
X134476190Y-114815476D01*
X135142857Y-116065476D02*
X135047619Y-116005952D01*
X135000000Y-115886904D01*
X135000000Y-114815476D01*
X135523809Y-116065476D02*
X135523809Y-115232142D01*
X135523809Y-114815476D02*
X135476190Y-114875000D01*
X135523809Y-114934523D01*
X135571428Y-114875000D01*
X135523809Y-114815476D01*
X135523809Y-114934523D01*
X136000000Y-115232142D02*
X136000000Y-116065476D01*
X136000000Y-115351190D02*
X136047619Y-115291666D01*
X136142857Y-115232142D01*
X136285714Y-115232142D01*
X136380952Y-115291666D01*
X136428571Y-115410714D01*
X136428571Y-116065476D01*
X136857142Y-116005952D02*
X136952380Y-116065476D01*
X137142857Y-116065476D01*
X137238095Y-116005952D01*
X137285714Y-115886904D01*
X137285714Y-115827380D01*
X137238095Y-115708333D01*
X137142857Y-115648809D01*
X137000000Y-115648809D01*
X136904761Y-115589285D01*
X136857142Y-115470238D01*
X136857142Y-115410714D01*
X136904761Y-115291666D01*
X137000000Y-115232142D01*
X137142857Y-115232142D01*
X137238095Y-115291666D01*
X126309523Y-118190476D02*
X126309523Y-116940476D01*
X126547619Y-116940476D01*
X126690476Y-117000000D01*
X126785714Y-117119047D01*
X126833333Y-117238095D01*
X126880952Y-117476190D01*
X126880952Y-117654761D01*
X126833333Y-117892857D01*
X126785714Y-118011904D01*
X126690476Y-118130952D01*
X126547619Y-118190476D01*
X126309523Y-118190476D01*
X127690476Y-118130952D02*
X127595238Y-118190476D01*
X127404761Y-118190476D01*
X127309523Y-118130952D01*
X127261904Y-118011904D01*
X127261904Y-117535714D01*
X127309523Y-117416666D01*
X127404761Y-117357142D01*
X127595238Y-117357142D01*
X127690476Y-117416666D01*
X127738095Y-117535714D01*
X127738095Y-117654761D01*
X127261904Y-117773809D01*
X128595238Y-118130952D02*
X128500000Y-118190476D01*
X128309523Y-118190476D01*
X128214285Y-118130952D01*
X128166666Y-118071428D01*
X128119047Y-117952380D01*
X128119047Y-117595238D01*
X128166666Y-117476190D01*
X128214285Y-117416666D01*
X128309523Y-117357142D01*
X128500000Y-117357142D01*
X128595238Y-117416666D01*
X129404761Y-118130952D02*
X129309523Y-118190476D01*
X129119047Y-118190476D01*
X129023809Y-118130952D01*
X128976190Y-118011904D01*
X128976190Y-117535714D01*
X129023809Y-117416666D01*
X129119047Y-117357142D01*
X129309523Y-117357142D01*
X129404761Y-117416666D01*
X129452380Y-117535714D01*
X129452380Y-117654761D01*
X128976190Y-117773809D01*
X129880952Y-118190476D02*
X129880952Y-117357142D01*
X129880952Y-117476190D02*
X129928571Y-117416666D01*
X130023809Y-117357142D01*
X130166666Y-117357142D01*
X130261904Y-117416666D01*
X130309523Y-117535714D01*
X130309523Y-118190476D01*
X130309523Y-117535714D02*
X130357142Y-117416666D01*
X130452380Y-117357142D01*
X130595238Y-117357142D01*
X130690476Y-117416666D01*
X130738095Y-117535714D01*
X130738095Y-118190476D01*
X131214285Y-118190476D02*
X131214285Y-116940476D01*
X131214285Y-117416666D02*
X131309523Y-117357142D01*
X131500000Y-117357142D01*
X131595238Y-117416666D01*
X131642857Y-117476190D01*
X131690476Y-117595238D01*
X131690476Y-117952380D01*
X131642857Y-118071428D01*
X131595238Y-118130952D01*
X131500000Y-118190476D01*
X131309523Y-118190476D01*
X131214285Y-118130952D01*
X132500000Y-118130952D02*
X132404761Y-118190476D01*
X132214285Y-118190476D01*
X132119047Y-118130952D01*
X132071428Y-118011904D01*
X132071428Y-117535714D01*
X132119047Y-117416666D01*
X132214285Y-117357142D01*
X132404761Y-117357142D01*
X132500000Y-117416666D01*
X132547619Y-117535714D01*
X132547619Y-117654761D01*
X132071428Y-117773809D01*
X132976190Y-118190476D02*
X132976190Y-117357142D01*
X132976190Y-117595238D02*
X133023809Y-117476190D01*
X133071428Y-117416666D01*
X133166666Y-117357142D01*
X133261904Y-117357142D01*
X134309523Y-117059523D02*
X134357142Y-117000000D01*
X134452380Y-116940476D01*
X134690476Y-116940476D01*
X134785714Y-117000000D01*
X134833333Y-117059523D01*
X134880952Y-117178571D01*
X134880952Y-117297619D01*
X134833333Y-117476190D01*
X134261904Y-118190476D01*
X134880952Y-118190476D01*
X135500000Y-116940476D02*
X135595238Y-116940476D01*
X135690476Y-117000000D01*
X135738095Y-117059523D01*
X135785714Y-117178571D01*
X135833333Y-117416666D01*
X135833333Y-117714285D01*
X135785714Y-117952380D01*
X135738095Y-118071428D01*
X135690476Y-118130952D01*
X135595238Y-118190476D01*
X135500000Y-118190476D01*
X135404761Y-118130952D01*
X135357142Y-118071428D01*
X135309523Y-117952380D01*
X135261904Y-117714285D01*
X135261904Y-117416666D01*
X135309523Y-117178571D01*
X135357142Y-117059523D01*
X135404761Y-117000000D01*
X135500000Y-116940476D01*
X136785714Y-118190476D02*
X136214285Y-118190476D01*
X136500000Y-118190476D02*
X136500000Y-116940476D01*
X136404761Y-117119047D01*
X136309523Y-117238095D01*
X136214285Y-117297619D01*
X137357142Y-117476190D02*
X137261904Y-117416666D01*
X137214285Y-117357142D01*
X137166666Y-117238095D01*
X137166666Y-117178571D01*
X137214285Y-117059523D01*
X137261904Y-117000000D01*
X137357142Y-116940476D01*
X137547619Y-116940476D01*
X137642857Y-117000000D01*
X137690476Y-117059523D01*
X137738095Y-117178571D01*
X137738095Y-117238095D01*
X137690476Y-117357142D01*
X137642857Y-117416666D01*
X137547619Y-117476190D01*
X137357142Y-117476190D01*
X137261904Y-117535714D01*
X137214285Y-117595238D01*
X137166666Y-117714285D01*
X137166666Y-117952380D01*
X137214285Y-118071428D01*
X137261904Y-118130952D01*
X137357142Y-118190476D01*
X137547619Y-118190476D01*
X137642857Y-118130952D01*
X137690476Y-118071428D01*
X137738095Y-117952380D01*
X137738095Y-117714285D01*
X137690476Y-117595238D01*
X137642857Y-117535714D01*
X137547619Y-117476190D01*
D10*
X139666666Y-129452380D02*
X139190476Y-129452380D01*
X139190476Y-128452380D01*
X140000000Y-128928571D02*
X140333333Y-128928571D01*
X140476190Y-129452380D02*
X140000000Y-129452380D01*
X140000000Y-128452380D01*
X140476190Y-128452380D01*
X140904761Y-129452380D02*
X140904761Y-128452380D01*
X141142857Y-128452380D01*
X141285714Y-128500000D01*
X141380952Y-128595238D01*
X141428571Y-128690476D01*
X141476190Y-128880952D01*
X141476190Y-129023809D01*
X141428571Y-129214285D01*
X141380952Y-129309523D01*
X141285714Y-129404761D01*
X141142857Y-129452380D01*
X140904761Y-129452380D01*
X142666666Y-129452380D02*
X142666666Y-128452380D01*
X143142857Y-128785714D02*
X143142857Y-129452380D01*
X143142857Y-128880952D02*
X143190476Y-128833333D01*
X143285714Y-128785714D01*
X143428571Y-128785714D01*
X143523809Y-128833333D01*
X143571428Y-128928571D01*
X143571428Y-129452380D01*
X144476190Y-129452380D02*
X144476190Y-128452380D01*
X144476190Y-129404761D02*
X144380952Y-129452380D01*
X144190476Y-129452380D01*
X144095238Y-129404761D01*
X144047619Y-129357142D01*
X144000000Y-129261904D01*
X144000000Y-128976190D01*
X144047619Y-128880952D01*
X144095238Y-128833333D01*
X144190476Y-128785714D01*
X144380952Y-128785714D01*
X144476190Y-128833333D01*
X144952380Y-129452380D02*
X144952380Y-128785714D01*
X144952380Y-128452380D02*
X144904761Y-128500000D01*
X144952380Y-128547619D01*
X145000000Y-128500000D01*
X144952380Y-128452380D01*
X144952380Y-128547619D01*
X145857142Y-129404761D02*
X145761904Y-129452380D01*
X145571428Y-129452380D01*
X145476190Y-129404761D01*
X145428571Y-129357142D01*
X145380952Y-129261904D01*
X145380952Y-128976190D01*
X145428571Y-128880952D01*
X145476190Y-128833333D01*
X145571428Y-128785714D01*
X145761904Y-128785714D01*
X145857142Y-128833333D01*
X146714285Y-129452380D02*
X146714285Y-128928571D01*
X146666666Y-128833333D01*
X146571428Y-128785714D01*
X146380952Y-128785714D01*
X146285714Y-128833333D01*
X146714285Y-129404761D02*
X146619047Y-129452380D01*
X146380952Y-129452380D01*
X146285714Y-129404761D01*
X146238095Y-129309523D01*
X146238095Y-129214285D01*
X146285714Y-129119047D01*
X146380952Y-129071428D01*
X146619047Y-129071428D01*
X146714285Y-129023809D01*
X147047619Y-128785714D02*
X147428571Y-128785714D01*
X147190476Y-128452380D02*
X147190476Y-129309523D01*
X147238095Y-129404761D01*
X147333333Y-129452380D01*
X147428571Y-129452380D01*
X147904761Y-129452380D02*
X147809523Y-129404761D01*
X147761904Y-129357142D01*
X147714285Y-129261904D01*
X147714285Y-128976190D01*
X147761904Y-128880952D01*
X147809523Y-128833333D01*
X147904761Y-128785714D01*
X148047619Y-128785714D01*
X148142857Y-128833333D01*
X148190476Y-128880952D01*
X148238095Y-128976190D01*
X148238095Y-129261904D01*
X148190476Y-129357142D01*
X148142857Y-129404761D01*
X148047619Y-129452380D01*
X147904761Y-129452380D01*
X148666666Y-129452380D02*
X148666666Y-128785714D01*
X148666666Y-128976190D02*
X148714285Y-128880952D01*
X148761904Y-128833333D01*
X148857142Y-128785714D01*
X148952380Y-128785714D01*
X172214285Y-95952380D02*
X172214285Y-94952380D01*
X172452380Y-94952380D01*
X172595238Y-95000000D01*
X172690476Y-95095238D01*
X172738095Y-95190476D01*
X172785714Y-95380952D01*
X172785714Y-95523809D01*
X172738095Y-95714285D01*
X172690476Y-95809523D01*
X172595238Y-95904761D01*
X172452380Y-95952380D01*
X172214285Y-95952380D01*
X173738095Y-95000000D02*
X173642857Y-94952380D01*
X173500000Y-94952380D01*
X173357142Y-95000000D01*
X173261904Y-95095238D01*
X173214285Y-95190476D01*
X173166666Y-95380952D01*
X173166666Y-95523809D01*
X173214285Y-95714285D01*
X173261904Y-95809523D01*
X173357142Y-95904761D01*
X173500000Y-95952380D01*
X173595238Y-95952380D01*
X173738095Y-95904761D01*
X173785714Y-95857142D01*
X173785714Y-95523809D01*
X173595238Y-95523809D01*
X174214285Y-95952380D02*
X174214285Y-94952380D01*
X174785714Y-95952380D01*
X174785714Y-94952380D01*
X175261904Y-95952380D02*
X175261904Y-94952380D01*
X175500000Y-94952380D01*
X175642857Y-95000000D01*
X175738095Y-95095238D01*
X175785714Y-95190476D01*
X175833333Y-95380952D01*
X175833333Y-95523809D01*
X175785714Y-95714285D01*
X175738095Y-95809523D01*
X175642857Y-95904761D01*
X175500000Y-95952380D01*
X175261904Y-95952380D01*
X172214285Y-121952380D02*
X172214285Y-120952380D01*
X172452380Y-120952380D01*
X172595238Y-121000000D01*
X172690476Y-121095238D01*
X172738095Y-121190476D01*
X172785714Y-121380952D01*
X172785714Y-121523809D01*
X172738095Y-121714285D01*
X172690476Y-121809523D01*
X172595238Y-121904761D01*
X172452380Y-121952380D01*
X172214285Y-121952380D01*
X173738095Y-121000000D02*
X173642857Y-120952380D01*
X173500000Y-120952380D01*
X173357142Y-121000000D01*
X173261904Y-121095238D01*
X173214285Y-121190476D01*
X173166666Y-121380952D01*
X173166666Y-121523809D01*
X173214285Y-121714285D01*
X173261904Y-121809523D01*
X173357142Y-121904761D01*
X173500000Y-121952380D01*
X173595238Y-121952380D01*
X173738095Y-121904761D01*
X173785714Y-121857142D01*
X173785714Y-121523809D01*
X173595238Y-121523809D01*
X174214285Y-121952380D02*
X174214285Y-120952380D01*
X174785714Y-121952380D01*
X174785714Y-120952380D01*
X175261904Y-121952380D02*
X175261904Y-120952380D01*
X175500000Y-120952380D01*
X175642857Y-121000000D01*
X175738095Y-121095238D01*
X175785714Y-121190476D01*
X175833333Y-121380952D01*
X175833333Y-121523809D01*
X175785714Y-121714285D01*
X175738095Y-121809523D01*
X175642857Y-121904761D01*
X175500000Y-121952380D01*
X175261904Y-121952380D01*
X172238095Y-105952380D02*
X171761904Y-105952380D01*
X171714285Y-106428571D01*
X171761904Y-106380952D01*
X171857142Y-106333333D01*
X172095238Y-106333333D01*
X172190476Y-106380952D01*
X172238095Y-106428571D01*
X172285714Y-106523809D01*
X172285714Y-106761904D01*
X172238095Y-106857142D01*
X172190476Y-106904761D01*
X172095238Y-106952380D01*
X171857142Y-106952380D01*
X171761904Y-106904761D01*
X171714285Y-106857142D01*
X172571428Y-105952380D02*
X172904761Y-106952380D01*
X173238095Y-105952380D01*
X174476190Y-106952380D02*
X174380952Y-106904761D01*
X174333333Y-106857142D01*
X174285714Y-106761904D01*
X174285714Y-106476190D01*
X174333333Y-106380952D01*
X174380952Y-106333333D01*
X174476190Y-106285714D01*
X174619047Y-106285714D01*
X174714285Y-106333333D01*
X174761904Y-106380952D01*
X174809523Y-106476190D01*
X174809523Y-106761904D01*
X174761904Y-106857142D01*
X174714285Y-106904761D01*
X174619047Y-106952380D01*
X174476190Y-106952380D01*
X175666666Y-106285714D02*
X175666666Y-106952380D01*
X175238095Y-106285714D02*
X175238095Y-106809523D01*
X175285714Y-106904761D01*
X175380952Y-106952380D01*
X175523809Y-106952380D01*
X175619047Y-106904761D01*
X175666666Y-106857142D01*
X176000000Y-106285714D02*
X176380952Y-106285714D01*
X176142857Y-105952380D02*
X176142857Y-106809523D01*
X176190476Y-106904761D01*
X176285714Y-106952380D01*
X176380952Y-106952380D01*
X172404761Y-109952380D02*
X172404761Y-108952380D01*
X173071428Y-108952380D02*
X173261904Y-108952380D01*
X173357142Y-109000000D01*
X173452380Y-109095238D01*
X173500000Y-109285714D01*
X173500000Y-109619047D01*
X173452380Y-109809523D01*
X173357142Y-109904761D01*
X173261904Y-109952380D01*
X173071428Y-109952380D01*
X172976190Y-109904761D01*
X172880952Y-109809523D01*
X172833333Y-109619047D01*
X172833333Y-109285714D01*
X172880952Y-109095238D01*
X172976190Y-109000000D01*
X173071428Y-108952380D01*
X174690476Y-109952380D02*
X174690476Y-109285714D01*
X174690476Y-108952380D02*
X174642857Y-109000000D01*
X174690476Y-109047619D01*
X174738095Y-109000000D01*
X174690476Y-108952380D01*
X174690476Y-109047619D01*
X175166666Y-109285714D02*
X175166666Y-109952380D01*
X175166666Y-109380952D02*
X175214285Y-109333333D01*
X175309523Y-109285714D01*
X175452380Y-109285714D01*
X175547619Y-109333333D01*
X175595238Y-109428571D01*
X175595238Y-109952380D01*
X108054761Y-108095238D02*
X108102380Y-107952380D01*
X108102380Y-107714285D01*
X108054761Y-107619047D01*
X108007142Y-107571428D01*
X107911904Y-107523809D01*
X107816666Y-107523809D01*
X107721428Y-107571428D01*
X107673809Y-107619047D01*
X107626190Y-107714285D01*
X107578571Y-107904761D01*
X107530952Y-108000000D01*
X107483333Y-108047619D01*
X107388095Y-108095238D01*
X107292857Y-108095238D01*
X107197619Y-108047619D01*
X107150000Y-108000000D01*
X107102380Y-107904761D01*
X107102380Y-107666666D01*
X107150000Y-107523809D01*
X107435714Y-107190476D02*
X108102380Y-107000000D01*
X107626190Y-106809523D01*
X108102380Y-106619047D01*
X107435714Y-106428571D01*
X108102380Y-106047619D02*
X107435714Y-106047619D01*
X107102380Y-106047619D02*
X107150000Y-106095238D01*
X107197619Y-106047619D01*
X107150000Y-106000000D01*
X107102380Y-106047619D01*
X107197619Y-106047619D01*
X107435714Y-105714285D02*
X107435714Y-105333333D01*
X107102380Y-105571428D02*
X107959523Y-105571428D01*
X108054761Y-105523809D01*
X108102380Y-105428571D01*
X108102380Y-105333333D01*
X108054761Y-104571428D02*
X108102380Y-104666666D01*
X108102380Y-104857142D01*
X108054761Y-104952380D01*
X108007142Y-105000000D01*
X107911904Y-105047619D01*
X107626190Y-105047619D01*
X107530952Y-105000000D01*
X107483333Y-104952380D01*
X107435714Y-104857142D01*
X107435714Y-104666666D01*
X107483333Y-104571428D01*
X108102380Y-104142857D02*
X107102380Y-104142857D01*
X108102380Y-103714285D02*
X107578571Y-103714285D01*
X107483333Y-103761904D01*
X107435714Y-103857142D01*
X107435714Y-104000000D01*
X107483333Y-104095238D01*
X107530952Y-104142857D01*
X108054761Y-102857142D02*
X108102380Y-102952380D01*
X108102380Y-103142857D01*
X108054761Y-103238095D01*
X107959523Y-103285714D01*
X107578571Y-103285714D01*
X107483333Y-103238095D01*
X107435714Y-103142857D01*
X107435714Y-102952380D01*
X107483333Y-102857142D01*
X107578571Y-102809523D01*
X107673809Y-102809523D01*
X107769047Y-103285714D01*
X108102380Y-101952380D02*
X107102380Y-101952380D01*
X108054761Y-101952380D02*
X108102380Y-102047619D01*
X108102380Y-102238095D01*
X108054761Y-102333333D01*
X108007142Y-102380952D01*
X107911904Y-102428571D01*
X107626190Y-102428571D01*
X107530952Y-102380952D01*
X107483333Y-102333333D01*
X107435714Y-102238095D01*
X107435714Y-102047619D01*
X107483333Y-101952380D01*
X109516666Y-107309523D02*
X109516666Y-106833333D01*
X109802380Y-107404761D02*
X108802380Y-107071428D01*
X109802380Y-106738095D01*
X109707142Y-105833333D02*
X109754761Y-105880952D01*
X109802380Y-106023809D01*
X109802380Y-106119047D01*
X109754761Y-106261904D01*
X109659523Y-106357142D01*
X109564285Y-106404761D01*
X109373809Y-106452380D01*
X109230952Y-106452380D01*
X109040476Y-106404761D01*
X108945238Y-106357142D01*
X108850000Y-106261904D01*
X108802380Y-106119047D01*
X108802380Y-106023809D01*
X108850000Y-105880952D01*
X108897619Y-105833333D01*
X109802380Y-104500000D02*
X109754761Y-104595238D01*
X109707142Y-104642857D01*
X109611904Y-104690476D01*
X109326190Y-104690476D01*
X109230952Y-104642857D01*
X109183333Y-104595238D01*
X109135714Y-104500000D01*
X109135714Y-104357142D01*
X109183333Y-104261904D01*
X109230952Y-104214285D01*
X109326190Y-104166666D01*
X109611904Y-104166666D01*
X109707142Y-104214285D01*
X109754761Y-104261904D01*
X109802380Y-104357142D01*
X109802380Y-104500000D01*
X109135714Y-103309523D02*
X109802380Y-103309523D01*
X109135714Y-103738095D02*
X109659523Y-103738095D01*
X109754761Y-103690476D01*
X109802380Y-103595238D01*
X109802380Y-103452380D01*
X109754761Y-103357142D01*
X109707142Y-103309523D01*
X109135714Y-102976190D02*
X109135714Y-102595238D01*
X108802380Y-102833333D02*
X109659523Y-102833333D01*
X109754761Y-102785714D01*
X109802380Y-102690476D01*
X109802380Y-102595238D01*
X106166666Y-124809523D02*
X106166666Y-124333333D01*
X106452380Y-124904761D02*
X105452380Y-124571428D01*
X106452380Y-124238095D01*
X106357142Y-123333333D02*
X106404761Y-123380952D01*
X106452380Y-123523809D01*
X106452380Y-123619047D01*
X106404761Y-123761904D01*
X106309523Y-123857142D01*
X106214285Y-123904761D01*
X106023809Y-123952380D01*
X105880952Y-123952380D01*
X105690476Y-123904761D01*
X105595238Y-123857142D01*
X105500000Y-123761904D01*
X105452380Y-123619047D01*
X105452380Y-123523809D01*
X105500000Y-123380952D01*
X105547619Y-123333333D01*
X106452380Y-122142857D02*
X105785714Y-122142857D01*
X105452380Y-122142857D02*
X105500000Y-122190476D01*
X105547619Y-122142857D01*
X105500000Y-122095238D01*
X105452380Y-122142857D01*
X105547619Y-122142857D01*
X105785714Y-121666666D02*
X106452380Y-121666666D01*
X105880952Y-121666666D02*
X105833333Y-121619047D01*
X105785714Y-121523809D01*
X105785714Y-121380952D01*
X105833333Y-121285714D01*
X105928571Y-121238095D01*
X106452380Y-121238095D01*
D12*
G04 #@! TO.C,C1*
X112856000Y-110648000D02*
X112856000Y-128888000D01*
X107616000Y-110648000D02*
X107616000Y-128888000D01*
X112856000Y-110648000D02*
X107616000Y-110648000D01*
X112856000Y-128888000D02*
X107616000Y-128888000D01*
G04 #@! TO.C,C2*
X163524000Y-115824000D02*
G75*
G03X163524000Y-115824000I-3270000J0D01*
G01*
X160254000Y-112594000D02*
X160254000Y-119054000D01*
X160294000Y-112594000D02*
X160294000Y-119054000D01*
X160334000Y-112594000D02*
X160334000Y-119054000D01*
X160374000Y-112596000D02*
X160374000Y-119052000D01*
X160414000Y-112597000D02*
X160414000Y-119051000D01*
X160454000Y-112600000D02*
X160454000Y-119048000D01*
X160494000Y-112602000D02*
X160494000Y-114784000D01*
X160494000Y-116864000D02*
X160494000Y-119046000D01*
X160534000Y-112606000D02*
X160534000Y-114784000D01*
X160534000Y-116864000D02*
X160534000Y-119042000D01*
X160574000Y-112609000D02*
X160574000Y-114784000D01*
X160574000Y-116864000D02*
X160574000Y-119039000D01*
X160614000Y-112613000D02*
X160614000Y-114784000D01*
X160614000Y-116864000D02*
X160614000Y-119035000D01*
X160654000Y-112618000D02*
X160654000Y-114784000D01*
X160654000Y-116864000D02*
X160654000Y-119030000D01*
X160694000Y-112623000D02*
X160694000Y-114784000D01*
X160694000Y-116864000D02*
X160694000Y-119025000D01*
X160734000Y-112629000D02*
X160734000Y-114784000D01*
X160734000Y-116864000D02*
X160734000Y-119019000D01*
X160774000Y-112635000D02*
X160774000Y-114784000D01*
X160774000Y-116864000D02*
X160774000Y-119013000D01*
X160814000Y-112642000D02*
X160814000Y-114784000D01*
X160814000Y-116864000D02*
X160814000Y-119006000D01*
X160854000Y-112649000D02*
X160854000Y-114784000D01*
X160854000Y-116864000D02*
X160854000Y-118999000D01*
X160894000Y-112657000D02*
X160894000Y-114784000D01*
X160894000Y-116864000D02*
X160894000Y-118991000D01*
X160934000Y-112665000D02*
X160934000Y-114784000D01*
X160934000Y-116864000D02*
X160934000Y-118983000D01*
X160975000Y-112674000D02*
X160975000Y-114784000D01*
X160975000Y-116864000D02*
X160975000Y-118974000D01*
X161015000Y-112683000D02*
X161015000Y-114784000D01*
X161015000Y-116864000D02*
X161015000Y-118965000D01*
X161055000Y-112693000D02*
X161055000Y-114784000D01*
X161055000Y-116864000D02*
X161055000Y-118955000D01*
X161095000Y-112703000D02*
X161095000Y-114784000D01*
X161095000Y-116864000D02*
X161095000Y-118945000D01*
X161135000Y-112714000D02*
X161135000Y-114784000D01*
X161135000Y-116864000D02*
X161135000Y-118934000D01*
X161175000Y-112726000D02*
X161175000Y-114784000D01*
X161175000Y-116864000D02*
X161175000Y-118922000D01*
X161215000Y-112738000D02*
X161215000Y-114784000D01*
X161215000Y-116864000D02*
X161215000Y-118910000D01*
X161255000Y-112750000D02*
X161255000Y-114784000D01*
X161255000Y-116864000D02*
X161255000Y-118898000D01*
X161295000Y-112763000D02*
X161295000Y-114784000D01*
X161295000Y-116864000D02*
X161295000Y-118885000D01*
X161335000Y-112777000D02*
X161335000Y-114784000D01*
X161335000Y-116864000D02*
X161335000Y-118871000D01*
X161375000Y-112791000D02*
X161375000Y-114784000D01*
X161375000Y-116864000D02*
X161375000Y-118857000D01*
X161415000Y-112806000D02*
X161415000Y-114784000D01*
X161415000Y-116864000D02*
X161415000Y-118842000D01*
X161455000Y-112822000D02*
X161455000Y-114784000D01*
X161455000Y-116864000D02*
X161455000Y-118826000D01*
X161495000Y-112838000D02*
X161495000Y-114784000D01*
X161495000Y-116864000D02*
X161495000Y-118810000D01*
X161535000Y-112854000D02*
X161535000Y-114784000D01*
X161535000Y-116864000D02*
X161535000Y-118794000D01*
X161575000Y-112872000D02*
X161575000Y-114784000D01*
X161575000Y-116864000D02*
X161575000Y-118776000D01*
X161615000Y-112890000D02*
X161615000Y-114784000D01*
X161615000Y-116864000D02*
X161615000Y-118758000D01*
X161655000Y-112908000D02*
X161655000Y-114784000D01*
X161655000Y-116864000D02*
X161655000Y-118740000D01*
X161695000Y-112928000D02*
X161695000Y-114784000D01*
X161695000Y-116864000D02*
X161695000Y-118720000D01*
X161735000Y-112948000D02*
X161735000Y-114784000D01*
X161735000Y-116864000D02*
X161735000Y-118700000D01*
X161775000Y-112968000D02*
X161775000Y-114784000D01*
X161775000Y-116864000D02*
X161775000Y-118680000D01*
X161815000Y-112990000D02*
X161815000Y-114784000D01*
X161815000Y-116864000D02*
X161815000Y-118658000D01*
X161855000Y-113012000D02*
X161855000Y-114784000D01*
X161855000Y-116864000D02*
X161855000Y-118636000D01*
X161895000Y-113034000D02*
X161895000Y-114784000D01*
X161895000Y-116864000D02*
X161895000Y-118614000D01*
X161935000Y-113058000D02*
X161935000Y-114784000D01*
X161935000Y-116864000D02*
X161935000Y-118590000D01*
X161975000Y-113082000D02*
X161975000Y-114784000D01*
X161975000Y-116864000D02*
X161975000Y-118566000D01*
X162015000Y-113108000D02*
X162015000Y-114784000D01*
X162015000Y-116864000D02*
X162015000Y-118540000D01*
X162055000Y-113134000D02*
X162055000Y-114784000D01*
X162055000Y-116864000D02*
X162055000Y-118514000D01*
X162095000Y-113160000D02*
X162095000Y-114784000D01*
X162095000Y-116864000D02*
X162095000Y-118488000D01*
X162135000Y-113188000D02*
X162135000Y-114784000D01*
X162135000Y-116864000D02*
X162135000Y-118460000D01*
X162175000Y-113217000D02*
X162175000Y-114784000D01*
X162175000Y-116864000D02*
X162175000Y-118431000D01*
X162215000Y-113246000D02*
X162215000Y-114784000D01*
X162215000Y-116864000D02*
X162215000Y-118402000D01*
X162255000Y-113276000D02*
X162255000Y-114784000D01*
X162255000Y-116864000D02*
X162255000Y-118372000D01*
X162295000Y-113308000D02*
X162295000Y-114784000D01*
X162295000Y-116864000D02*
X162295000Y-118340000D01*
X162335000Y-113340000D02*
X162335000Y-114784000D01*
X162335000Y-116864000D02*
X162335000Y-118308000D01*
X162375000Y-113374000D02*
X162375000Y-114784000D01*
X162375000Y-116864000D02*
X162375000Y-118274000D01*
X162415000Y-113408000D02*
X162415000Y-114784000D01*
X162415000Y-116864000D02*
X162415000Y-118240000D01*
X162455000Y-113444000D02*
X162455000Y-114784000D01*
X162455000Y-116864000D02*
X162455000Y-118204000D01*
X162495000Y-113481000D02*
X162495000Y-114784000D01*
X162495000Y-116864000D02*
X162495000Y-118167000D01*
X162535000Y-113519000D02*
X162535000Y-114784000D01*
X162535000Y-116864000D02*
X162535000Y-118129000D01*
X162575000Y-113559000D02*
X162575000Y-118089000D01*
X162615000Y-113600000D02*
X162615000Y-118048000D01*
X162655000Y-113642000D02*
X162655000Y-118006000D01*
X162695000Y-113687000D02*
X162695000Y-117961000D01*
X162735000Y-113732000D02*
X162735000Y-117916000D01*
X162775000Y-113780000D02*
X162775000Y-117868000D01*
X162815000Y-113829000D02*
X162815000Y-117819000D01*
X162855000Y-113880000D02*
X162855000Y-117768000D01*
X162895000Y-113934000D02*
X162895000Y-117714000D01*
X162935000Y-113990000D02*
X162935000Y-117658000D01*
X162975000Y-114048000D02*
X162975000Y-117600000D01*
X163015000Y-114110000D02*
X163015000Y-117538000D01*
X163055000Y-114174000D02*
X163055000Y-117474000D01*
X163095000Y-114243000D02*
X163095000Y-117405000D01*
X163135000Y-114315000D02*
X163135000Y-117333000D01*
X163175000Y-114392000D02*
X163175000Y-117256000D01*
X163215000Y-114474000D02*
X163215000Y-117174000D01*
X163255000Y-114562000D02*
X163255000Y-117086000D01*
X163295000Y-114659000D02*
X163295000Y-116989000D01*
X163335000Y-114765000D02*
X163335000Y-116883000D01*
X163375000Y-114884000D02*
X163375000Y-116764000D01*
X163415000Y-115022000D02*
X163415000Y-116626000D01*
X163455000Y-115191000D02*
X163455000Y-116457000D01*
X163495000Y-115422000D02*
X163495000Y-116226000D01*
X156753759Y-113985000D02*
X157383759Y-113985000D01*
X157068759Y-113670000D02*
X157068759Y-114300000D01*
G04 #@! TO.C,C3*
X149956759Y-113670000D02*
X149956759Y-114300000D01*
X149641759Y-113985000D02*
X150271759Y-113985000D01*
X156383000Y-115422000D02*
X156383000Y-116226000D01*
X156343000Y-115191000D02*
X156343000Y-116457000D01*
X156303000Y-115022000D02*
X156303000Y-116626000D01*
X156263000Y-114884000D02*
X156263000Y-116764000D01*
X156223000Y-114765000D02*
X156223000Y-116883000D01*
X156183000Y-114659000D02*
X156183000Y-116989000D01*
X156143000Y-114562000D02*
X156143000Y-117086000D01*
X156103000Y-114474000D02*
X156103000Y-117174000D01*
X156063000Y-114392000D02*
X156063000Y-117256000D01*
X156023000Y-114315000D02*
X156023000Y-117333000D01*
X155983000Y-114243000D02*
X155983000Y-117405000D01*
X155943000Y-114174000D02*
X155943000Y-117474000D01*
X155903000Y-114110000D02*
X155903000Y-117538000D01*
X155863000Y-114048000D02*
X155863000Y-117600000D01*
X155823000Y-113990000D02*
X155823000Y-117658000D01*
X155783000Y-113934000D02*
X155783000Y-117714000D01*
X155743000Y-113880000D02*
X155743000Y-117768000D01*
X155703000Y-113829000D02*
X155703000Y-117819000D01*
X155663000Y-113780000D02*
X155663000Y-117868000D01*
X155623000Y-113732000D02*
X155623000Y-117916000D01*
X155583000Y-113687000D02*
X155583000Y-117961000D01*
X155543000Y-113642000D02*
X155543000Y-118006000D01*
X155503000Y-113600000D02*
X155503000Y-118048000D01*
X155463000Y-113559000D02*
X155463000Y-118089000D01*
X155423000Y-116864000D02*
X155423000Y-118129000D01*
X155423000Y-113519000D02*
X155423000Y-114784000D01*
X155383000Y-116864000D02*
X155383000Y-118167000D01*
X155383000Y-113481000D02*
X155383000Y-114784000D01*
X155343000Y-116864000D02*
X155343000Y-118204000D01*
X155343000Y-113444000D02*
X155343000Y-114784000D01*
X155303000Y-116864000D02*
X155303000Y-118240000D01*
X155303000Y-113408000D02*
X155303000Y-114784000D01*
X155263000Y-116864000D02*
X155263000Y-118274000D01*
X155263000Y-113374000D02*
X155263000Y-114784000D01*
X155223000Y-116864000D02*
X155223000Y-118308000D01*
X155223000Y-113340000D02*
X155223000Y-114784000D01*
X155183000Y-116864000D02*
X155183000Y-118340000D01*
X155183000Y-113308000D02*
X155183000Y-114784000D01*
X155143000Y-116864000D02*
X155143000Y-118372000D01*
X155143000Y-113276000D02*
X155143000Y-114784000D01*
X155103000Y-116864000D02*
X155103000Y-118402000D01*
X155103000Y-113246000D02*
X155103000Y-114784000D01*
X155063000Y-116864000D02*
X155063000Y-118431000D01*
X155063000Y-113217000D02*
X155063000Y-114784000D01*
X155023000Y-116864000D02*
X155023000Y-118460000D01*
X155023000Y-113188000D02*
X155023000Y-114784000D01*
X154983000Y-116864000D02*
X154983000Y-118488000D01*
X154983000Y-113160000D02*
X154983000Y-114784000D01*
X154943000Y-116864000D02*
X154943000Y-118514000D01*
X154943000Y-113134000D02*
X154943000Y-114784000D01*
X154903000Y-116864000D02*
X154903000Y-118540000D01*
X154903000Y-113108000D02*
X154903000Y-114784000D01*
X154863000Y-116864000D02*
X154863000Y-118566000D01*
X154863000Y-113082000D02*
X154863000Y-114784000D01*
X154823000Y-116864000D02*
X154823000Y-118590000D01*
X154823000Y-113058000D02*
X154823000Y-114784000D01*
X154783000Y-116864000D02*
X154783000Y-118614000D01*
X154783000Y-113034000D02*
X154783000Y-114784000D01*
X154743000Y-116864000D02*
X154743000Y-118636000D01*
X154743000Y-113012000D02*
X154743000Y-114784000D01*
X154703000Y-116864000D02*
X154703000Y-118658000D01*
X154703000Y-112990000D02*
X154703000Y-114784000D01*
X154663000Y-116864000D02*
X154663000Y-118680000D01*
X154663000Y-112968000D02*
X154663000Y-114784000D01*
X154623000Y-116864000D02*
X154623000Y-118700000D01*
X154623000Y-112948000D02*
X154623000Y-114784000D01*
X154583000Y-116864000D02*
X154583000Y-118720000D01*
X154583000Y-112928000D02*
X154583000Y-114784000D01*
X154543000Y-116864000D02*
X154543000Y-118740000D01*
X154543000Y-112908000D02*
X154543000Y-114784000D01*
X154503000Y-116864000D02*
X154503000Y-118758000D01*
X154503000Y-112890000D02*
X154503000Y-114784000D01*
X154463000Y-116864000D02*
X154463000Y-118776000D01*
X154463000Y-112872000D02*
X154463000Y-114784000D01*
X154423000Y-116864000D02*
X154423000Y-118794000D01*
X154423000Y-112854000D02*
X154423000Y-114784000D01*
X154383000Y-116864000D02*
X154383000Y-118810000D01*
X154383000Y-112838000D02*
X154383000Y-114784000D01*
X154343000Y-116864000D02*
X154343000Y-118826000D01*
X154343000Y-112822000D02*
X154343000Y-114784000D01*
X154303000Y-116864000D02*
X154303000Y-118842000D01*
X154303000Y-112806000D02*
X154303000Y-114784000D01*
X154263000Y-116864000D02*
X154263000Y-118857000D01*
X154263000Y-112791000D02*
X154263000Y-114784000D01*
X154223000Y-116864000D02*
X154223000Y-118871000D01*
X154223000Y-112777000D02*
X154223000Y-114784000D01*
X154183000Y-116864000D02*
X154183000Y-118885000D01*
X154183000Y-112763000D02*
X154183000Y-114784000D01*
X154143000Y-116864000D02*
X154143000Y-118898000D01*
X154143000Y-112750000D02*
X154143000Y-114784000D01*
X154103000Y-116864000D02*
X154103000Y-118910000D01*
X154103000Y-112738000D02*
X154103000Y-114784000D01*
X154063000Y-116864000D02*
X154063000Y-118922000D01*
X154063000Y-112726000D02*
X154063000Y-114784000D01*
X154023000Y-116864000D02*
X154023000Y-118934000D01*
X154023000Y-112714000D02*
X154023000Y-114784000D01*
X153983000Y-116864000D02*
X153983000Y-118945000D01*
X153983000Y-112703000D02*
X153983000Y-114784000D01*
X153943000Y-116864000D02*
X153943000Y-118955000D01*
X153943000Y-112693000D02*
X153943000Y-114784000D01*
X153903000Y-116864000D02*
X153903000Y-118965000D01*
X153903000Y-112683000D02*
X153903000Y-114784000D01*
X153863000Y-116864000D02*
X153863000Y-118974000D01*
X153863000Y-112674000D02*
X153863000Y-114784000D01*
X153822000Y-116864000D02*
X153822000Y-118983000D01*
X153822000Y-112665000D02*
X153822000Y-114784000D01*
X153782000Y-116864000D02*
X153782000Y-118991000D01*
X153782000Y-112657000D02*
X153782000Y-114784000D01*
X153742000Y-116864000D02*
X153742000Y-118999000D01*
X153742000Y-112649000D02*
X153742000Y-114784000D01*
X153702000Y-116864000D02*
X153702000Y-119006000D01*
X153702000Y-112642000D02*
X153702000Y-114784000D01*
X153662000Y-116864000D02*
X153662000Y-119013000D01*
X153662000Y-112635000D02*
X153662000Y-114784000D01*
X153622000Y-116864000D02*
X153622000Y-119019000D01*
X153622000Y-112629000D02*
X153622000Y-114784000D01*
X153582000Y-116864000D02*
X153582000Y-119025000D01*
X153582000Y-112623000D02*
X153582000Y-114784000D01*
X153542000Y-116864000D02*
X153542000Y-119030000D01*
X153542000Y-112618000D02*
X153542000Y-114784000D01*
X153502000Y-116864000D02*
X153502000Y-119035000D01*
X153502000Y-112613000D02*
X153502000Y-114784000D01*
X153462000Y-116864000D02*
X153462000Y-119039000D01*
X153462000Y-112609000D02*
X153462000Y-114784000D01*
X153422000Y-116864000D02*
X153422000Y-119042000D01*
X153422000Y-112606000D02*
X153422000Y-114784000D01*
X153382000Y-116864000D02*
X153382000Y-119046000D01*
X153382000Y-112602000D02*
X153382000Y-114784000D01*
X153342000Y-112600000D02*
X153342000Y-119048000D01*
X153302000Y-112597000D02*
X153302000Y-119051000D01*
X153262000Y-112596000D02*
X153262000Y-119052000D01*
X153222000Y-112594000D02*
X153222000Y-119054000D01*
X153182000Y-112594000D02*
X153182000Y-119054000D01*
X153142000Y-112594000D02*
X153142000Y-119054000D01*
X156412000Y-115824000D02*
G75*
G03X156412000Y-115824000I-3270000J0D01*
G01*
G04 #@! TO.C,D1*
X141090000Y-117660000D02*
X141090000Y-117530000D01*
X141090000Y-117530000D02*
X146530000Y-117530000D01*
X146530000Y-117530000D02*
X146530000Y-117660000D01*
X141090000Y-120340000D02*
X141090000Y-120470000D01*
X141090000Y-120470000D02*
X146530000Y-120470000D01*
X146530000Y-120470000D02*
X146530000Y-120340000D01*
X141990000Y-117530000D02*
X141990000Y-120470000D01*
X142110000Y-117530000D02*
X142110000Y-120470000D01*
X141870000Y-117530000D02*
X141870000Y-120470000D01*
G04 #@! TO.C,D2*
X142057665Y-126578608D02*
G75*
G03X145290000Y-126735516I1672335J1078608D01*
G01*
X142057665Y-124421392D02*
G75*
G02X145290000Y-124264484I1672335J-1078608D01*
G01*
X142688870Y-126579837D02*
G75*
G03X144770961Y-126580000I1041130J1079837D01*
G01*
X142688870Y-124420163D02*
G75*
G02X144770961Y-124420000I1041130J-1079837D01*
G01*
X145290000Y-126736000D02*
X145290000Y-126580000D01*
X145290000Y-124420000D02*
X145290000Y-124264000D01*
G04 #@! TO.C,J2*
X178250000Y-110400000D02*
X178250000Y-112400000D01*
X177000000Y-110400000D02*
X178250000Y-110400000D01*
X171250000Y-118810000D02*
X171250000Y-118060000D01*
X175550000Y-118810000D02*
X171250000Y-118810000D01*
X175550000Y-118060000D02*
X175550000Y-118810000D01*
X175900000Y-118060000D02*
X175550000Y-118060000D01*
X175900000Y-118560000D02*
X175900000Y-118060000D01*
X176900000Y-118810000D02*
X175900000Y-118560000D01*
X176900000Y-115810000D02*
X176900000Y-118810000D01*
X175900000Y-116060000D02*
X176900000Y-115810000D01*
X175900000Y-116560000D02*
X175900000Y-116060000D01*
X175550000Y-116560000D02*
X175900000Y-116560000D01*
X175550000Y-115810000D02*
X175550000Y-116560000D01*
X171250000Y-115810000D02*
X175550000Y-115810000D01*
X171250000Y-116560000D02*
X171250000Y-115810000D01*
X171250000Y-115000000D02*
X171250000Y-114250000D01*
X175550000Y-115000000D02*
X171250000Y-115000000D01*
X175550000Y-114250000D02*
X175550000Y-115000000D01*
X175900000Y-114250000D02*
X175550000Y-114250000D01*
X175900000Y-114750000D02*
X175900000Y-114250000D01*
X176900000Y-115000000D02*
X175900000Y-114750000D01*
X176900000Y-112000000D02*
X176900000Y-115000000D01*
X175900000Y-112250000D02*
X176900000Y-112000000D01*
X175900000Y-112750000D02*
X175900000Y-112250000D01*
X175550000Y-112750000D02*
X175900000Y-112750000D01*
X175550000Y-112000000D02*
X175550000Y-112750000D01*
X171250000Y-112000000D02*
X175550000Y-112000000D01*
X171250000Y-112750000D02*
X171250000Y-112000000D01*
X177830000Y-119990000D02*
X177830000Y-110820000D01*
X170420000Y-119990000D02*
X177830000Y-119990000D01*
X170420000Y-110820000D02*
X170420000Y-119990000D01*
X177830000Y-110820000D02*
X170420000Y-110820000D01*
X171250155Y-118059647D02*
G75*
G03X171250000Y-116560000I-1700155J749647D01*
G01*
X171250155Y-114249647D02*
G75*
G03X171250000Y-112750000I-1700155J749647D01*
G01*
G04 #@! TO.C,J3*
X171250155Y-99749647D02*
G75*
G03X171250000Y-98250000I-1700155J749647D01*
G01*
X171250155Y-103559647D02*
G75*
G03X171250000Y-102060000I-1700155J749647D01*
G01*
X177830000Y-96320000D02*
X170420000Y-96320000D01*
X170420000Y-96320000D02*
X170420000Y-105490000D01*
X170420000Y-105490000D02*
X177830000Y-105490000D01*
X177830000Y-105490000D02*
X177830000Y-96320000D01*
X171250000Y-98250000D02*
X171250000Y-97500000D01*
X171250000Y-97500000D02*
X175550000Y-97500000D01*
X175550000Y-97500000D02*
X175550000Y-98250000D01*
X175550000Y-98250000D02*
X175900000Y-98250000D01*
X175900000Y-98250000D02*
X175900000Y-97750000D01*
X175900000Y-97750000D02*
X176900000Y-97500000D01*
X176900000Y-97500000D02*
X176900000Y-100500000D01*
X176900000Y-100500000D02*
X175900000Y-100250000D01*
X175900000Y-100250000D02*
X175900000Y-99750000D01*
X175900000Y-99750000D02*
X175550000Y-99750000D01*
X175550000Y-99750000D02*
X175550000Y-100500000D01*
X175550000Y-100500000D02*
X171250000Y-100500000D01*
X171250000Y-100500000D02*
X171250000Y-99750000D01*
X171250000Y-102060000D02*
X171250000Y-101310000D01*
X171250000Y-101310000D02*
X175550000Y-101310000D01*
X175550000Y-101310000D02*
X175550000Y-102060000D01*
X175550000Y-102060000D02*
X175900000Y-102060000D01*
X175900000Y-102060000D02*
X175900000Y-101560000D01*
X175900000Y-101560000D02*
X176900000Y-101310000D01*
X176900000Y-101310000D02*
X176900000Y-104310000D01*
X176900000Y-104310000D02*
X175900000Y-104060000D01*
X175900000Y-104060000D02*
X175900000Y-103560000D01*
X175900000Y-103560000D02*
X175550000Y-103560000D01*
X175550000Y-103560000D02*
X175550000Y-104310000D01*
X175550000Y-104310000D02*
X171250000Y-104310000D01*
X171250000Y-104310000D02*
X171250000Y-103560000D01*
X177000000Y-95900000D02*
X178250000Y-95900000D01*
X178250000Y-95900000D02*
X178250000Y-97900000D01*
G04 #@! TO.C,L1*
X167316217Y-122399157D02*
G75*
G02X164900000Y-122327331I-1316217J-3600843D01*
G01*
G04 #@! TO.C,PS1*
X122492000Y-96536000D02*
X122492000Y-98536000D01*
X168692000Y-86236000D02*
X168692000Y-111836000D01*
X122792000Y-86236000D02*
X168692000Y-86236000D01*
X122792000Y-111836000D02*
X168692000Y-111836000D01*
X122792000Y-86236000D02*
X122792000Y-111836000D01*
G04 #@! TO.C,Q1*
X156150000Y-122470000D02*
X156150000Y-126070000D01*
X156158259Y-122458125D02*
G75*
G02X160450000Y-123450000I1841741J-1811875D01*
G01*
X156172316Y-126078445D02*
G75*
G03X160450000Y-125050000I1827684J1808445D01*
G01*
G04 #@! TO.C,RL1*
X119260000Y-124310000D02*
X116470000Y-125710000D01*
X116720000Y-121770000D02*
X116720000Y-123040000D01*
X124340000Y-121770000D02*
X124340000Y-124310000D01*
X124340000Y-124310000D02*
X119260000Y-124310000D01*
X132470000Y-123550000D02*
X131450000Y-124560000D01*
X131960000Y-128120000D02*
X133230000Y-128120000D01*
X131960000Y-125330000D02*
X131960000Y-128120000D01*
X131960000Y-120500000D02*
X131960000Y-122790000D01*
X133230000Y-120500000D02*
X131960000Y-120500000D01*
X131960000Y-122790000D02*
X132470000Y-122790000D01*
X132470000Y-122790000D02*
X132470000Y-125330000D01*
X132470000Y-125330000D02*
X131960000Y-125330000D01*
X131960000Y-125330000D02*
X131450000Y-125330000D01*
X131450000Y-125330000D02*
X131450000Y-122790000D01*
X131450000Y-122790000D02*
X131960000Y-122790000D01*
X136180000Y-118810000D02*
X115040000Y-118810000D01*
X115040000Y-118810000D02*
X115040000Y-129810000D01*
X136180000Y-118810000D02*
X136180000Y-129810000D01*
X136180000Y-129810000D02*
X115040000Y-129810000D01*
X119390000Y-124310000D02*
G75*
G03X119390000Y-124310000I-130000J0D01*
G01*
D13*
G04 #@! TO.C,RV1*
X115580000Y-108220000D02*
X115580000Y-115220000D01*
X120680000Y-108220000D02*
X120680000Y-115220000D01*
X120680000Y-115220000D02*
X115580000Y-115220000D01*
X120680000Y-108220000D02*
X115580000Y-108220000D01*
D12*
G04 #@! TO.C,F1*
X106700000Y-95790000D02*
X96920000Y-90970000D01*
X107210000Y-94780000D02*
X97430000Y-90080000D01*
X108350000Y-86650000D02*
X103650000Y-86650000D01*
X95650000Y-86650000D02*
X100350000Y-86650000D01*
X95650000Y-99350000D02*
X100480000Y-99350000D01*
X108350000Y-99350000D02*
X103520000Y-99350000D01*
X103520000Y-99350000D02*
X103650000Y-99350000D01*
X108350000Y-99350000D02*
X108350000Y-86650000D01*
X95650000Y-86650000D02*
X95650000Y-99350000D01*
G04 #@! TO.C,F2*
X108650000Y-86650000D02*
X108650000Y-99350000D01*
X121350000Y-99350000D02*
X121350000Y-86650000D01*
X116520000Y-99350000D02*
X116650000Y-99350000D01*
X121350000Y-99350000D02*
X116520000Y-99350000D01*
X108650000Y-99350000D02*
X113480000Y-99350000D01*
X108650000Y-86650000D02*
X113350000Y-86650000D01*
X121350000Y-86650000D02*
X116650000Y-86650000D01*
X120210000Y-94780000D02*
X110430000Y-90080000D01*
X119700000Y-95790000D02*
X109920000Y-90970000D01*
G04 #@! TO.C,R1*
X151630000Y-127000000D02*
X151560000Y-127000000D01*
X154370000Y-127000000D02*
G75*
G03X154370000Y-127000000I-1370000J0D01*
G01*
G04 #@! TO.C,R2*
X154370000Y-124000000D02*
G75*
G03X154370000Y-124000000I-1370000J0D01*
G01*
X151630000Y-124000000D02*
X151560000Y-124000000D01*
G04 #@! TO.C,J1*
X103649845Y-118250353D02*
G75*
G03X103650000Y-119750000I1700155J-749647D01*
G01*
X103649845Y-113170353D02*
G75*
G03X103650000Y-114670000I1700155J-749647D01*
G01*
X103649845Y-108090353D02*
G75*
G03X103650000Y-109590000I1700155J-749647D01*
G01*
X103649845Y-103010353D02*
G75*
G03X103650000Y-104510000I1700155J-749647D01*
G01*
X97070000Y-121620000D02*
X104480000Y-121620000D01*
X104480000Y-121620000D02*
X104480000Y-101140000D01*
X104480000Y-101140000D02*
X97070000Y-101140000D01*
X97070000Y-101140000D02*
X97070000Y-121620000D01*
X103650000Y-119750000D02*
X103650000Y-120500000D01*
X103650000Y-120500000D02*
X99350000Y-120500000D01*
X99350000Y-120500000D02*
X99350000Y-119750000D01*
X99350000Y-119750000D02*
X99000000Y-119750000D01*
X99000000Y-119750000D02*
X99000000Y-120250000D01*
X99000000Y-120250000D02*
X98000000Y-120500000D01*
X98000000Y-120500000D02*
X98000000Y-117500000D01*
X98000000Y-117500000D02*
X99000000Y-117750000D01*
X99000000Y-117750000D02*
X99000000Y-118250000D01*
X99000000Y-118250000D02*
X99350000Y-118250000D01*
X99350000Y-118250000D02*
X99350000Y-117500000D01*
X99350000Y-117500000D02*
X103650000Y-117500000D01*
X103650000Y-117500000D02*
X103650000Y-118250000D01*
X103650000Y-114670000D02*
X103650000Y-115420000D01*
X103650000Y-115420000D02*
X99350000Y-115420000D01*
X99350000Y-115420000D02*
X99350000Y-114670000D01*
X99350000Y-114670000D02*
X99000000Y-114670000D01*
X99000000Y-114670000D02*
X99000000Y-115170000D01*
X99000000Y-115170000D02*
X98000000Y-115420000D01*
X98000000Y-115420000D02*
X98000000Y-112420000D01*
X98000000Y-112420000D02*
X99000000Y-112670000D01*
X99000000Y-112670000D02*
X99000000Y-113170000D01*
X99000000Y-113170000D02*
X99350000Y-113170000D01*
X99350000Y-113170000D02*
X99350000Y-112420000D01*
X99350000Y-112420000D02*
X103650000Y-112420000D01*
X103650000Y-112420000D02*
X103650000Y-113170000D01*
X103650000Y-109590000D02*
X103650000Y-110340000D01*
X103650000Y-110340000D02*
X99350000Y-110340000D01*
X99350000Y-110340000D02*
X99350000Y-109590000D01*
X99350000Y-109590000D02*
X99000000Y-109590000D01*
X99000000Y-109590000D02*
X99000000Y-110090000D01*
X99000000Y-110090000D02*
X98000000Y-110340000D01*
X98000000Y-110340000D02*
X98000000Y-107340000D01*
X98000000Y-107340000D02*
X99000000Y-107590000D01*
X99000000Y-107590000D02*
X99000000Y-108090000D01*
X99000000Y-108090000D02*
X99350000Y-108090000D01*
X99350000Y-108090000D02*
X99350000Y-107340000D01*
X99350000Y-107340000D02*
X103650000Y-107340000D01*
X103650000Y-107340000D02*
X103650000Y-108090000D01*
X103650000Y-104510000D02*
X103650000Y-105260000D01*
X103650000Y-105260000D02*
X99350000Y-105260000D01*
X99350000Y-105260000D02*
X99350000Y-104510000D01*
X99350000Y-104510000D02*
X99000000Y-104510000D01*
X99000000Y-104510000D02*
X99000000Y-105010000D01*
X99000000Y-105010000D02*
X98000000Y-105260000D01*
X98000000Y-105260000D02*
X98000000Y-102260000D01*
X98000000Y-102260000D02*
X99000000Y-102510000D01*
X99000000Y-102510000D02*
X99000000Y-103010000D01*
X99000000Y-103010000D02*
X99350000Y-103010000D01*
X99350000Y-103010000D02*
X99350000Y-102260000D01*
X99350000Y-102260000D02*
X103650000Y-102260000D01*
X103650000Y-102260000D02*
X103650000Y-103010000D01*
X97900000Y-122040000D02*
X96650000Y-122040000D01*
X96650000Y-122040000D02*
X96650000Y-120040000D01*
G04 #@! TO.C,C1*
D13*
X114093142Y-119934666D02*
X114140761Y-119982285D01*
X114188380Y-120125142D01*
X114188380Y-120220380D01*
X114140761Y-120363238D01*
X114045523Y-120458476D01*
X113950285Y-120506095D01*
X113759809Y-120553714D01*
X113616952Y-120553714D01*
X113426476Y-120506095D01*
X113331238Y-120458476D01*
X113236000Y-120363238D01*
X113188380Y-120220380D01*
X113188380Y-120125142D01*
X113236000Y-119982285D01*
X113283619Y-119934666D01*
X114188380Y-118982285D02*
X114188380Y-119553714D01*
X114188380Y-119268000D02*
X113188380Y-119268000D01*
X113331238Y-119363238D01*
X113426476Y-119458476D01*
X113474095Y-119553714D01*
G04 #@! TO.C,C2*
X156833333Y-113357142D02*
X156785714Y-113404761D01*
X156642857Y-113452380D01*
X156547619Y-113452380D01*
X156404761Y-113404761D01*
X156309523Y-113309523D01*
X156261904Y-113214285D01*
X156214285Y-113023809D01*
X156214285Y-112880952D01*
X156261904Y-112690476D01*
X156309523Y-112595238D01*
X156404761Y-112500000D01*
X156547619Y-112452380D01*
X156642857Y-112452380D01*
X156785714Y-112500000D01*
X156833333Y-112547619D01*
X157214285Y-112547619D02*
X157261904Y-112500000D01*
X157357142Y-112452380D01*
X157595238Y-112452380D01*
X157690476Y-112500000D01*
X157738095Y-112547619D01*
X157785714Y-112642857D01*
X157785714Y-112738095D01*
X157738095Y-112880952D01*
X157166666Y-113452380D01*
X157785714Y-113452380D01*
G04 #@! TO.C,C3*
X149333333Y-113357142D02*
X149285714Y-113404761D01*
X149142857Y-113452380D01*
X149047619Y-113452380D01*
X148904761Y-113404761D01*
X148809523Y-113309523D01*
X148761904Y-113214285D01*
X148714285Y-113023809D01*
X148714285Y-112880952D01*
X148761904Y-112690476D01*
X148809523Y-112595238D01*
X148904761Y-112500000D01*
X149047619Y-112452380D01*
X149142857Y-112452380D01*
X149285714Y-112500000D01*
X149333333Y-112547619D01*
X149666666Y-112452380D02*
X150285714Y-112452380D01*
X149952380Y-112833333D01*
X150095238Y-112833333D01*
X150190476Y-112880952D01*
X150238095Y-112928571D01*
X150285714Y-113023809D01*
X150285714Y-113261904D01*
X150238095Y-113357142D01*
X150190476Y-113404761D01*
X150095238Y-113452380D01*
X149809523Y-113452380D01*
X149714285Y-113404761D01*
X149666666Y-113357142D01*
G04 #@! TO.C,D1*
X143071904Y-117042380D02*
X143071904Y-116042380D01*
X143310000Y-116042380D01*
X143452857Y-116090000D01*
X143548095Y-116185238D01*
X143595714Y-116280476D01*
X143643333Y-116470952D01*
X143643333Y-116613809D01*
X143595714Y-116804285D01*
X143548095Y-116899523D01*
X143452857Y-116994761D01*
X143310000Y-117042380D01*
X143071904Y-117042380D01*
X144595714Y-117042380D02*
X144024285Y-117042380D01*
X144310000Y-117042380D02*
X144310000Y-116042380D01*
X144214761Y-116185238D01*
X144119523Y-116280476D01*
X144024285Y-116328095D01*
X139738095Y-117352380D02*
X139738095Y-116352380D01*
X140309523Y-117352380D02*
X139880952Y-116780952D01*
X140309523Y-116352380D02*
X139738095Y-116923809D01*
G04 #@! TO.C,D2*
X140261904Y-123452380D02*
X140261904Y-122452380D01*
X140500000Y-122452380D01*
X140642857Y-122500000D01*
X140738095Y-122595238D01*
X140785714Y-122690476D01*
X140833333Y-122880952D01*
X140833333Y-123023809D01*
X140785714Y-123214285D01*
X140738095Y-123309523D01*
X140642857Y-123404761D01*
X140500000Y-123452380D01*
X140261904Y-123452380D01*
X141214285Y-122547619D02*
X141261904Y-122500000D01*
X141357142Y-122452380D01*
X141595238Y-122452380D01*
X141690476Y-122500000D01*
X141738095Y-122547619D01*
X141785714Y-122642857D01*
X141785714Y-122738095D01*
X141738095Y-122880952D01*
X141166666Y-123452380D01*
X141785714Y-123452380D01*
G04 #@! TO.C,J2*
X178202380Y-116738333D02*
X178916666Y-116738333D01*
X179059523Y-116785952D01*
X179154761Y-116881190D01*
X179202380Y-117024047D01*
X179202380Y-117119285D01*
X178297619Y-116309761D02*
X178250000Y-116262142D01*
X178202380Y-116166904D01*
X178202380Y-115928809D01*
X178250000Y-115833571D01*
X178297619Y-115785952D01*
X178392857Y-115738333D01*
X178488095Y-115738333D01*
X178630952Y-115785952D01*
X179202380Y-116357380D01*
X179202380Y-115738333D01*
G04 #@! TO.C,J3*
X178202380Y-102238333D02*
X178916666Y-102238333D01*
X179059523Y-102285952D01*
X179154761Y-102381190D01*
X179202380Y-102524047D01*
X179202380Y-102619285D01*
X178202380Y-101857380D02*
X178202380Y-101238333D01*
X178583333Y-101571666D01*
X178583333Y-101428809D01*
X178630952Y-101333571D01*
X178678571Y-101285952D01*
X178773809Y-101238333D01*
X179011904Y-101238333D01*
X179107142Y-101285952D01*
X179154761Y-101333571D01*
X179202380Y-101428809D01*
X179202380Y-101714523D01*
X179154761Y-101809761D01*
X179107142Y-101857380D01*
G04 #@! TO.C,L1*
X163952380Y-121166666D02*
X163952380Y-121642857D01*
X162952380Y-121642857D01*
X163952380Y-120309523D02*
X163952380Y-120880952D01*
X163952380Y-120595238D02*
X162952380Y-120595238D01*
X163095238Y-120690476D01*
X163190476Y-120785714D01*
X163238095Y-120880952D01*
G04 #@! TO.C,PS1*
X169285714Y-87452380D02*
X169285714Y-86452380D01*
X169666666Y-86452380D01*
X169761904Y-86500000D01*
X169809523Y-86547619D01*
X169857142Y-86642857D01*
X169857142Y-86785714D01*
X169809523Y-86880952D01*
X169761904Y-86928571D01*
X169666666Y-86976190D01*
X169285714Y-86976190D01*
X170238095Y-87404761D02*
X170380952Y-87452380D01*
X170619047Y-87452380D01*
X170714285Y-87404761D01*
X170761904Y-87357142D01*
X170809523Y-87261904D01*
X170809523Y-87166666D01*
X170761904Y-87071428D01*
X170714285Y-87023809D01*
X170619047Y-86976190D01*
X170428571Y-86928571D01*
X170333333Y-86880952D01*
X170285714Y-86833333D01*
X170238095Y-86738095D01*
X170238095Y-86642857D01*
X170285714Y-86547619D01*
X170333333Y-86500000D01*
X170428571Y-86452380D01*
X170666666Y-86452380D01*
X170809523Y-86500000D01*
X171761904Y-87452380D02*
X171190476Y-87452380D01*
X171476190Y-87452380D02*
X171476190Y-86452380D01*
X171380952Y-86595238D01*
X171285714Y-86690476D01*
X171190476Y-86738095D01*
G04 #@! TO.C,Q1*
X161047619Y-127095238D02*
X161000000Y-127190476D01*
X160904761Y-127285714D01*
X160761904Y-127428571D01*
X160714285Y-127523809D01*
X160714285Y-127619047D01*
X160952380Y-127571428D02*
X160904761Y-127666666D01*
X160809523Y-127761904D01*
X160619047Y-127809523D01*
X160285714Y-127809523D01*
X160095238Y-127761904D01*
X160000000Y-127666666D01*
X159952380Y-127571428D01*
X159952380Y-127380952D01*
X160000000Y-127285714D01*
X160095238Y-127190476D01*
X160285714Y-127142857D01*
X160619047Y-127142857D01*
X160809523Y-127190476D01*
X160904761Y-127285714D01*
X160952380Y-127380952D01*
X160952380Y-127571428D01*
X160952380Y-126190476D02*
X160952380Y-126761904D01*
X160952380Y-126476190D02*
X159952380Y-126476190D01*
X160095238Y-126571428D01*
X160190476Y-126666666D01*
X160238095Y-126761904D01*
G04 #@! TO.C,RL1*
X112928571Y-130452380D02*
X112595238Y-129976190D01*
X112357142Y-130452380D02*
X112357142Y-129452380D01*
X112738095Y-129452380D01*
X112833333Y-129500000D01*
X112880952Y-129547619D01*
X112928571Y-129642857D01*
X112928571Y-129785714D01*
X112880952Y-129880952D01*
X112833333Y-129928571D01*
X112738095Y-129976190D01*
X112357142Y-129976190D01*
X113833333Y-130452380D02*
X113357142Y-130452380D01*
X113357142Y-129452380D01*
X114690476Y-130452380D02*
X114119047Y-130452380D01*
X114404761Y-130452380D02*
X114404761Y-129452380D01*
X114309523Y-129595238D01*
X114214285Y-129690476D01*
X114119047Y-129738095D01*
G04 #@! TO.C,RV1*
X115032380Y-112315238D02*
X114556190Y-112648571D01*
X115032380Y-112886666D02*
X114032380Y-112886666D01*
X114032380Y-112505714D01*
X114080000Y-112410476D01*
X114127619Y-112362857D01*
X114222857Y-112315238D01*
X114365714Y-112315238D01*
X114460952Y-112362857D01*
X114508571Y-112410476D01*
X114556190Y-112505714D01*
X114556190Y-112886666D01*
X114032380Y-112029523D02*
X115032380Y-111696190D01*
X114032380Y-111362857D01*
X115032380Y-110505714D02*
X115032380Y-111077142D01*
X115032380Y-110791428D02*
X114032380Y-110791428D01*
X114175238Y-110886666D01*
X114270476Y-110981904D01*
X114318095Y-111077142D01*
G04 #@! TO.C,F1*
X107166666Y-100428571D02*
X106833333Y-100428571D01*
X106833333Y-100952380D02*
X106833333Y-99952380D01*
X107309523Y-99952380D01*
X108214285Y-100952380D02*
X107642857Y-100952380D01*
X107928571Y-100952380D02*
X107928571Y-99952380D01*
X107833333Y-100095238D01*
X107738095Y-100190476D01*
X107642857Y-100238095D01*
G04 #@! TO.C,F2*
X120166666Y-100428571D02*
X119833333Y-100428571D01*
X119833333Y-100952380D02*
X119833333Y-99952380D01*
X120309523Y-99952380D01*
X120642857Y-100047619D02*
X120690476Y-100000000D01*
X120785714Y-99952380D01*
X121023809Y-99952380D01*
X121119047Y-100000000D01*
X121166666Y-100047619D01*
X121214285Y-100142857D01*
X121214285Y-100238095D01*
X121166666Y-100380952D01*
X120595238Y-100952380D01*
X121214285Y-100952380D01*
G04 #@! TO.C,R1*
X147833333Y-127452380D02*
X147500000Y-126976190D01*
X147261904Y-127452380D02*
X147261904Y-126452380D01*
X147642857Y-126452380D01*
X147738095Y-126500000D01*
X147785714Y-126547619D01*
X147833333Y-126642857D01*
X147833333Y-126785714D01*
X147785714Y-126880952D01*
X147738095Y-126928571D01*
X147642857Y-126976190D01*
X147261904Y-126976190D01*
X148785714Y-127452380D02*
X148214285Y-127452380D01*
X148500000Y-127452380D02*
X148500000Y-126452380D01*
X148404761Y-126595238D01*
X148309523Y-126690476D01*
X148214285Y-126738095D01*
G04 #@! TO.C,R2*
X147833333Y-124452380D02*
X147500000Y-123976190D01*
X147261904Y-124452380D02*
X147261904Y-123452380D01*
X147642857Y-123452380D01*
X147738095Y-123500000D01*
X147785714Y-123547619D01*
X147833333Y-123642857D01*
X147833333Y-123785714D01*
X147785714Y-123880952D01*
X147738095Y-123928571D01*
X147642857Y-123976190D01*
X147261904Y-123976190D01*
X148214285Y-123547619D02*
X148261904Y-123500000D01*
X148357142Y-123452380D01*
X148595238Y-123452380D01*
X148690476Y-123500000D01*
X148738095Y-123547619D01*
X148785714Y-123642857D01*
X148785714Y-123738095D01*
X148738095Y-123880952D01*
X148166666Y-124452380D01*
X148785714Y-124452380D01*
G04 #@! TO.C,J1*
X95602380Y-111713333D02*
X96316666Y-111713333D01*
X96459523Y-111760952D01*
X96554761Y-111856190D01*
X96602380Y-111999047D01*
X96602380Y-112094285D01*
X96602380Y-110713333D02*
X96602380Y-111284761D01*
X96602380Y-110999047D02*
X95602380Y-110999047D01*
X95745238Y-111094285D01*
X95840476Y-111189523D01*
X95888095Y-111284761D01*
G04 #@! TD*
M02*
