G04 #@! TF.FileFunction,Copper,L1,Top,Signal*
%FSLAX46Y46*%
G04 Gerber Fmt 4.6, Leading zero omitted, Abs format (unit mm)*
G04 Created by KiCad (PCBNEW 4.0.7) date Monday, 04 June 2018 'PMt' 21:28:53*
%MOMM*%
%LPD*%
G01*
G04 APERTURE LIST*
%ADD10C,0.100000*%
%ADD11R,3.600000X1.800000*%
%ADD12O,3.600000X1.800000*%
%ADD13R,1.600000X1.600000*%
%ADD14C,1.600000*%
%ADD15O,1.600000X1.600000*%
%ADD16C,1.998980*%
%ADD17R,1.998980X1.998980*%
%ADD18C,1.440000*%
%ADD19C,6.400000*%
%ADD20R,2.800000X2.800000*%
%ADD21O,2.800000X2.800000*%
%ADD22C,2.800000*%
%ADD23C,2.400000*%
%ADD24O,2.400000X2.400000*%
%ADD25C,1.000000*%
%ADD26C,2.000000*%
%ADD27C,0.800000*%
G04 APERTURE END LIST*
D10*
D11*
X129000000Y-70000000D03*
D12*
X129000000Y-75080000D03*
X129000000Y-80160000D03*
D13*
X61000000Y-87000000D03*
D14*
X63500000Y-87000000D03*
D13*
X60329063Y-85400000D03*
D14*
X64170937Y-88600000D03*
X72000000Y-95000000D03*
D15*
X59300000Y-95000000D03*
D13*
X94000000Y-79000000D03*
D14*
X96500000Y-79000000D03*
D13*
X93329063Y-77400000D03*
D14*
X97170937Y-80600000D03*
D13*
X111000000Y-104000000D03*
D14*
X111000000Y-101500000D03*
D13*
X109400000Y-104670937D03*
D14*
X112600000Y-100829063D03*
D16*
X82160000Y-99997460D03*
D17*
X72000000Y-99997460D03*
D16*
X67840000Y-105002540D03*
D17*
X78000000Y-105002540D03*
D11*
X56000000Y-79000000D03*
D12*
X56000000Y-73920000D03*
X56000000Y-68840000D03*
D18*
X101080000Y-108500000D03*
X98540000Y-105960000D03*
X96000000Y-108500000D03*
X89080000Y-108500000D03*
X86540000Y-105960000D03*
X84000000Y-108500000D03*
D19*
X55000000Y-40000000D03*
D11*
X129000000Y-53000000D03*
D12*
X129000000Y-58080000D03*
X129000000Y-63160000D03*
D11*
X129000000Y-87000000D03*
D12*
X129000000Y-92080000D03*
X129000000Y-97160000D03*
D20*
X78000000Y-39000000D03*
D21*
X78000000Y-91000000D03*
D20*
X112000000Y-39000000D03*
D21*
X112000000Y-91000000D03*
D14*
X63500000Y-80000000D03*
D15*
X63500000Y-67300000D03*
D14*
X91000000Y-95000000D03*
D15*
X78300000Y-95000000D03*
D14*
X119000000Y-111000000D03*
D15*
X106300000Y-111000000D03*
D14*
X68000000Y-100000000D03*
D15*
X55300000Y-100000000D03*
D14*
X66000000Y-110000000D03*
D15*
X78700000Y-110000000D03*
D16*
X65002540Y-60160000D03*
D17*
X65002540Y-50000000D03*
D16*
X54497460Y-49840000D03*
D17*
X54497460Y-60000000D03*
D16*
X61502540Y-60160000D03*
D17*
X61502540Y-50000000D03*
D16*
X57997460Y-49840000D03*
D17*
X57997460Y-60000000D03*
D22*
X129000000Y-47000000D03*
X120000000Y-39000000D03*
X98500000Y-85500000D03*
X123000000Y-109000000D03*
D23*
X95000000Y-39000000D03*
D24*
X95000000Y-69480000D03*
D14*
X106500000Y-95000000D03*
D15*
X93800000Y-95000000D03*
D14*
X103500000Y-98500000D03*
D15*
X90800000Y-98500000D03*
D25*
X55300000Y-100000000D02*
X60500000Y-100000000D01*
X84000000Y-106000000D02*
X84000000Y-108500000D01*
X75500000Y-97500000D02*
X84000000Y-106000000D01*
X63000000Y-97500000D02*
X75500000Y-97500000D01*
X60500000Y-100000000D02*
X63000000Y-97500000D01*
X84000000Y-108500000D02*
X87000000Y-111500000D01*
X87000000Y-111500000D02*
X93000000Y-111500000D01*
X93000000Y-111500000D02*
X96000000Y-108500000D01*
X78300000Y-95000000D02*
X85000000Y-95000000D01*
X92960000Y-105960000D02*
X98540000Y-105960000D01*
X88000000Y-101000000D02*
X92960000Y-105960000D01*
X88000000Y-98000000D02*
X88000000Y-101000000D01*
X85000000Y-95000000D02*
X88000000Y-98000000D01*
X78000000Y-105002540D02*
X78000000Y-109300000D01*
X78000000Y-109300000D02*
X78700000Y-110000000D01*
X68000000Y-100000000D02*
X68000000Y-100500000D01*
X68000000Y-100500000D02*
X72502540Y-105002540D01*
X72502540Y-105002540D02*
X78000000Y-105002540D01*
D26*
X61502540Y-60160000D02*
X61502540Y-55497460D01*
X65002540Y-51997460D02*
X65002540Y-50000000D01*
X61502540Y-55497460D02*
X65002540Y-51997460D01*
X56000000Y-79000000D02*
X59000000Y-79000000D01*
X61502540Y-62497460D02*
X61502540Y-60160000D01*
X60000000Y-64000000D02*
X61502540Y-62497460D01*
X60000000Y-78000000D02*
X60000000Y-64000000D01*
X59000000Y-79000000D02*
X60000000Y-78000000D01*
X57997460Y-60000000D02*
X57997460Y-53505080D01*
X57997460Y-53505080D02*
X61502540Y-50000000D01*
X112000000Y-39000000D02*
X112000000Y-53000000D01*
X112000000Y-53000000D02*
X129000000Y-70000000D01*
D25*
X129000000Y-87000000D02*
X119000000Y-87000000D01*
X94000000Y-79000000D02*
X94000000Y-78070937D01*
D26*
X94000000Y-78070937D02*
X93329063Y-77400000D01*
D25*
X91500000Y-89000000D02*
X91500000Y-81500000D01*
X91500000Y-81500000D02*
X94000000Y-79000000D01*
X109400000Y-104670937D02*
X110329063Y-104670937D01*
D26*
X110329063Y-104670937D02*
X111000000Y-104000000D01*
D25*
X111000000Y-104000000D02*
X112000000Y-104000000D01*
X112000000Y-104000000D02*
X119000000Y-111000000D01*
X119000000Y-111000000D02*
X119000000Y-87000000D01*
X60329063Y-85400000D02*
X61600000Y-85400000D01*
X107000000Y-87000000D02*
X105000000Y-89000000D01*
X61600000Y-85400000D02*
X63000000Y-84000000D01*
X63000000Y-84000000D02*
X80000000Y-84000000D01*
X80000000Y-84000000D02*
X85000000Y-89000000D01*
X85000000Y-89000000D02*
X91500000Y-89000000D01*
X91500000Y-89000000D02*
X105000000Y-89000000D01*
X119000000Y-87000000D02*
X107000000Y-87000000D01*
D26*
X54497460Y-60000000D02*
X54497460Y-53340000D01*
X54497460Y-53340000D02*
X57997460Y-49840000D01*
D25*
X67840000Y-105160000D02*
X66000000Y-107000000D01*
X66000000Y-107000000D02*
X66000000Y-110000000D01*
D26*
X67840000Y-105002540D02*
X67840000Y-105160000D01*
D27*
G36*
X52002598Y-36861176D02*
X55000000Y-39858579D01*
X57997402Y-36861176D01*
X57732734Y-36275000D01*
X133725000Y-36275000D01*
X133725000Y-113725000D01*
X51275000Y-113725000D01*
X51275000Y-110554511D01*
X52199515Y-110554511D01*
X52624892Y-111584000D01*
X53411857Y-112372340D01*
X54440602Y-112799513D01*
X55554511Y-112800485D01*
X56584000Y-112375108D01*
X57372340Y-111588143D01*
X57799513Y-110559398D01*
X57800485Y-109445489D01*
X57375108Y-108416000D01*
X56588143Y-107627660D01*
X55559398Y-107200487D01*
X54445489Y-107199515D01*
X53416000Y-107624892D01*
X52627660Y-108411857D01*
X52200487Y-109440602D01*
X52199515Y-110554511D01*
X51275000Y-110554511D01*
X51275000Y-100000000D01*
X53260818Y-100000000D01*
X53413059Y-100765367D01*
X53846604Y-101414214D01*
X54495451Y-101847759D01*
X55260818Y-102000000D01*
X55339182Y-102000000D01*
X56104549Y-101847759D01*
X56325686Y-101700000D01*
X60499995Y-101700000D01*
X60500000Y-101700001D01*
X61150562Y-101570595D01*
X61702082Y-101202082D01*
X63704163Y-99200000D01*
X66166621Y-99200000D01*
X66000348Y-99600430D01*
X65999654Y-100396079D01*
X66303494Y-101131429D01*
X66645623Y-101474155D01*
X66797918Y-101702082D01*
X67898936Y-102803100D01*
X67842569Y-102803051D01*
X67840000Y-102802540D01*
X67837453Y-102803047D01*
X67404414Y-102802669D01*
X67000665Y-102969494D01*
X66998096Y-102970005D01*
X66995937Y-102971448D01*
X66595716Y-103136815D01*
X66286542Y-103445451D01*
X66284365Y-103446905D01*
X66282923Y-103449063D01*
X65976450Y-103755002D01*
X65808920Y-104158458D01*
X65807465Y-104160636D01*
X65806958Y-104163183D01*
X65640892Y-104563115D01*
X65640550Y-104955286D01*
X64797918Y-105797918D01*
X64429405Y-106349438D01*
X64299999Y-107000000D01*
X64300000Y-107000005D01*
X64300000Y-108878788D01*
X64000348Y-109600430D01*
X63999654Y-110396079D01*
X64303494Y-111131429D01*
X64865612Y-111694529D01*
X65600430Y-111999652D01*
X66396079Y-112000346D01*
X67131429Y-111696506D01*
X67694529Y-111134388D01*
X67999652Y-110399570D01*
X68000346Y-109603921D01*
X67700000Y-108877027D01*
X67700000Y-107704164D01*
X68094858Y-107309306D01*
X68681904Y-107192535D01*
X69395635Y-106715635D01*
X69872535Y-106001904D01*
X69933162Y-105697111D01*
X70039108Y-105441965D01*
X70039351Y-105163263D01*
X70040000Y-105160000D01*
X70040000Y-105002540D01*
X70039493Y-104999993D01*
X70039542Y-104943706D01*
X71300456Y-106204619D01*
X71300458Y-106204622D01*
X71662789Y-106446723D01*
X71851978Y-106573135D01*
X72502540Y-106702541D01*
X72502545Y-106702540D01*
X76025289Y-106702540D01*
X76123489Y-106855147D01*
X76300000Y-106975752D01*
X76300000Y-109299995D01*
X76299999Y-109300000D01*
X76429405Y-109950562D01*
X76744907Y-110422746D01*
X76813059Y-110765367D01*
X77246604Y-111414214D01*
X77895451Y-111847759D01*
X78660818Y-112000000D01*
X78739182Y-112000000D01*
X79504549Y-111847759D01*
X80153396Y-111414214D01*
X80586941Y-110765367D01*
X80739182Y-110000000D01*
X80586941Y-109234633D01*
X80153396Y-108585786D01*
X79700000Y-108282837D01*
X79700000Y-106977251D01*
X79852607Y-106879051D01*
X80126604Y-106478044D01*
X80222999Y-106002030D01*
X80222999Y-104627162D01*
X82300000Y-106704163D01*
X82300000Y-107587398D01*
X82080334Y-108116413D01*
X82079667Y-108880236D01*
X82371354Y-109586172D01*
X82910987Y-110126748D01*
X83443846Y-110348010D01*
X85797916Y-112702079D01*
X85797918Y-112702082D01*
X86349438Y-113070595D01*
X86457374Y-113092065D01*
X87000000Y-113200001D01*
X87000005Y-113200000D01*
X92999995Y-113200000D01*
X93000000Y-113200001D01*
X93650562Y-113070595D01*
X94202082Y-112702082D01*
X95904163Y-111000000D01*
X104260818Y-111000000D01*
X104413059Y-111765367D01*
X104846604Y-112414214D01*
X105495451Y-112847759D01*
X106260818Y-113000000D01*
X106339182Y-113000000D01*
X107104549Y-112847759D01*
X107753396Y-112414214D01*
X108186941Y-111765367D01*
X108339182Y-111000000D01*
X108186941Y-110234633D01*
X107753396Y-109585786D01*
X107104549Y-109152241D01*
X106339182Y-109000000D01*
X106260818Y-109000000D01*
X105495451Y-109152241D01*
X104846604Y-109585786D01*
X104413059Y-110234633D01*
X104260818Y-111000000D01*
X95904163Y-111000000D01*
X96556774Y-110347389D01*
X97086172Y-110128646D01*
X97626748Y-109589013D01*
X97919666Y-108883587D01*
X97920333Y-108119764D01*
X97751687Y-107711609D01*
X98156413Y-107879666D01*
X98920236Y-107880333D01*
X99328391Y-107711687D01*
X99160334Y-108116413D01*
X99159667Y-108880236D01*
X99451354Y-109586172D01*
X99990987Y-110126748D01*
X100696413Y-110419666D01*
X101460236Y-110420333D01*
X102166172Y-110128646D01*
X102706748Y-109589013D01*
X102999666Y-108883587D01*
X103000333Y-108119764D01*
X102708646Y-107413828D01*
X102169013Y-106873252D01*
X101463587Y-106580334D01*
X100699764Y-106579667D01*
X100291609Y-106748313D01*
X100459666Y-106343587D01*
X100460333Y-105579764D01*
X100168646Y-104873828D01*
X99629013Y-104333252D01*
X98923587Y-104040334D01*
X98159764Y-104039667D01*
X97626518Y-104260000D01*
X93664163Y-104260000D01*
X89700000Y-100295836D01*
X89700000Y-100150345D01*
X89995451Y-100347759D01*
X90760818Y-100500000D01*
X90839182Y-100500000D01*
X91604549Y-100347759D01*
X92253396Y-99914214D01*
X92686941Y-99265367D01*
X92760396Y-98896079D01*
X101499654Y-98896079D01*
X101803494Y-99631429D01*
X102365612Y-100194529D01*
X103100430Y-100499652D01*
X103896079Y-100500346D01*
X104631429Y-100196506D01*
X105194529Y-99634388D01*
X105499652Y-98899570D01*
X105500346Y-98103921D01*
X105196506Y-97368571D01*
X104634388Y-96805471D01*
X103899570Y-96500348D01*
X103103921Y-96499654D01*
X102368571Y-96803494D01*
X101805471Y-97365612D01*
X101500348Y-98100430D01*
X101499654Y-98896079D01*
X92760396Y-98896079D01*
X92839182Y-98500000D01*
X92686941Y-97734633D01*
X92253396Y-97085786D01*
X91846804Y-96814110D01*
X92131429Y-96696506D01*
X92387105Y-96441276D01*
X92995451Y-96847759D01*
X93760818Y-97000000D01*
X93839182Y-97000000D01*
X94604549Y-96847759D01*
X95253396Y-96414214D01*
X95686941Y-95765367D01*
X95760396Y-95396079D01*
X104499654Y-95396079D01*
X104803494Y-96131429D01*
X105365612Y-96694529D01*
X106100430Y-96999652D01*
X106896079Y-97000346D01*
X107631429Y-96696506D01*
X108194529Y-96134388D01*
X108499652Y-95399570D01*
X108500346Y-94603921D01*
X108196506Y-93868571D01*
X107634388Y-93305471D01*
X106899570Y-93000348D01*
X106103921Y-92999654D01*
X105368571Y-93303494D01*
X104805471Y-93865612D01*
X104500348Y-94600430D01*
X104499654Y-95396079D01*
X95760396Y-95396079D01*
X95839182Y-95000000D01*
X95686941Y-94234633D01*
X95253396Y-93585786D01*
X94604549Y-93152241D01*
X93839182Y-93000000D01*
X93760818Y-93000000D01*
X92995451Y-93152241D01*
X92387162Y-93558686D01*
X92134388Y-93305471D01*
X91399570Y-93000348D01*
X90603921Y-92999654D01*
X89868571Y-93303494D01*
X89305471Y-93865612D01*
X89000348Y-94600430D01*
X88999654Y-95396079D01*
X89303494Y-96131429D01*
X89865612Y-96694529D01*
X89906656Y-96711572D01*
X89379667Y-97063694D01*
X89202082Y-96797918D01*
X89202079Y-96797916D01*
X86202082Y-93797918D01*
X85650562Y-93429405D01*
X85000000Y-93299999D01*
X84999995Y-93300000D01*
X79325686Y-93300000D01*
X79274840Y-93266026D01*
X79838478Y-92889415D01*
X80402087Y-92045914D01*
X80600000Y-91050937D01*
X80600000Y-90949063D01*
X80402087Y-89954086D01*
X79838478Y-89110585D01*
X78994977Y-88546976D01*
X78000000Y-88349063D01*
X77005023Y-88546976D01*
X76161522Y-89110585D01*
X75597913Y-89954086D01*
X75400000Y-90949063D01*
X75400000Y-91050937D01*
X75597913Y-92045914D01*
X76161522Y-92889415D01*
X77005023Y-93453024D01*
X77036058Y-93459197D01*
X76846604Y-93585786D01*
X76413059Y-94234633D01*
X76260818Y-95000000D01*
X76413059Y-95765367D01*
X76846604Y-96414214D01*
X77495451Y-96847759D01*
X78260818Y-97000000D01*
X78339182Y-97000000D01*
X79104549Y-96847759D01*
X79325686Y-96700000D01*
X84295836Y-96700000D01*
X86300000Y-98704163D01*
X86300000Y-100999995D01*
X86299999Y-101000000D01*
X86429405Y-101650562D01*
X86797918Y-102202082D01*
X91757916Y-107162079D01*
X91757918Y-107162082D01*
X92309438Y-107530595D01*
X92960000Y-107660000D01*
X94269853Y-107660000D01*
X94151989Y-107943847D01*
X92295836Y-109800000D01*
X90495392Y-109800000D01*
X90706748Y-109589013D01*
X90999666Y-108883587D01*
X91000333Y-108119764D01*
X90708646Y-107413828D01*
X90169013Y-106873252D01*
X89463587Y-106580334D01*
X88699764Y-106579667D01*
X88291609Y-106748313D01*
X88459666Y-106343587D01*
X88460333Y-105579764D01*
X88168646Y-104873828D01*
X87629013Y-104333252D01*
X86923587Y-104040334D01*
X86159764Y-104039667D01*
X85453828Y-104331354D01*
X85094359Y-104690196D01*
X82599767Y-102195604D01*
X83404284Y-101863185D01*
X84023550Y-101244998D01*
X84359108Y-100436885D01*
X84359871Y-99561874D01*
X84025725Y-98753176D01*
X83407538Y-98133910D01*
X82599425Y-97798352D01*
X81724414Y-97797589D01*
X80915716Y-98131735D01*
X80296450Y-98749922D01*
X79961275Y-99557112D01*
X76702082Y-96297918D01*
X76150562Y-95929405D01*
X75500000Y-95799999D01*
X75499995Y-95800000D01*
X73833379Y-95800000D01*
X73999652Y-95399570D01*
X74000346Y-94603921D01*
X73696506Y-93868571D01*
X73134388Y-93305471D01*
X72399570Y-93000348D01*
X71603921Y-92999654D01*
X70868571Y-93303494D01*
X70305471Y-93865612D01*
X70000348Y-94600430D01*
X69999654Y-95396079D01*
X70166551Y-95800000D01*
X63000005Y-95800000D01*
X63000000Y-95799999D01*
X62349438Y-95929405D01*
X61797918Y-96297918D01*
X61797916Y-96297921D01*
X59795836Y-98300000D01*
X56325686Y-98300000D01*
X56104549Y-98152241D01*
X55339182Y-98000000D01*
X55260818Y-98000000D01*
X54495451Y-98152241D01*
X53846604Y-98585786D01*
X53413059Y-99234633D01*
X53260818Y-100000000D01*
X51275000Y-100000000D01*
X51275000Y-95000000D01*
X57260818Y-95000000D01*
X57413059Y-95765367D01*
X57846604Y-96414214D01*
X58495451Y-96847759D01*
X59260818Y-97000000D01*
X59339182Y-97000000D01*
X60104549Y-96847759D01*
X60753396Y-96414214D01*
X61186941Y-95765367D01*
X61339182Y-95000000D01*
X61186941Y-94234633D01*
X60753396Y-93585786D01*
X60104549Y-93152241D01*
X59339182Y-93000000D01*
X59260818Y-93000000D01*
X58495451Y-93152241D01*
X57846604Y-93585786D01*
X57413059Y-94234633D01*
X57260818Y-95000000D01*
X51275000Y-95000000D01*
X51275000Y-84600000D01*
X58305554Y-84600000D01*
X58305554Y-86200000D01*
X58389229Y-86644693D01*
X58652042Y-87053117D01*
X58976491Y-87274804D01*
X58976491Y-87800000D01*
X59060166Y-88244693D01*
X59322979Y-88653117D01*
X59723986Y-88927114D01*
X60200000Y-89023509D01*
X61800000Y-89023509D01*
X62170628Y-88953770D01*
X62170591Y-88996079D01*
X62474431Y-89731429D01*
X63036549Y-90294529D01*
X63771367Y-90599652D01*
X64567016Y-90600346D01*
X65302366Y-90296506D01*
X65865466Y-89734388D01*
X66170589Y-88999570D01*
X66171283Y-88203921D01*
X65867443Y-87468571D01*
X65499913Y-87100399D01*
X65500346Y-86603921D01*
X65196506Y-85868571D01*
X65028229Y-85700000D01*
X79295836Y-85700000D01*
X83797916Y-90202079D01*
X83797918Y-90202082D01*
X84349438Y-90570595D01*
X84457374Y-90592065D01*
X85000000Y-90700001D01*
X85000005Y-90700000D01*
X104999995Y-90700000D01*
X105000000Y-90700001D01*
X105650562Y-90570595D01*
X106202082Y-90202082D01*
X107704163Y-88700000D01*
X110776006Y-88700000D01*
X110161522Y-89110585D01*
X109597913Y-89954086D01*
X109400000Y-90949063D01*
X109400000Y-91050937D01*
X109597913Y-92045914D01*
X110161522Y-92889415D01*
X111005023Y-93453024D01*
X112000000Y-93650937D01*
X112994977Y-93453024D01*
X113838478Y-92889415D01*
X114402087Y-92045914D01*
X114600000Y-91050937D01*
X114600000Y-90949063D01*
X114402087Y-89954086D01*
X113838478Y-89110585D01*
X113223994Y-88700000D01*
X117300000Y-88700000D01*
X117300000Y-106895837D01*
X113202082Y-102797918D01*
X113152490Y-102764782D01*
X113731429Y-102525569D01*
X114294529Y-101963451D01*
X114599652Y-101228633D01*
X114600346Y-100432984D01*
X114296506Y-99697634D01*
X113734388Y-99134534D01*
X112999570Y-98829411D01*
X112203921Y-98828717D01*
X111468571Y-99132557D01*
X111100399Y-99500087D01*
X110603921Y-99499654D01*
X109868571Y-99803494D01*
X109305471Y-100365612D01*
X109000348Y-101100430D01*
X108999654Y-101896079D01*
X109240424Y-102478787D01*
X109125196Y-102647428D01*
X108600000Y-102647428D01*
X108155307Y-102731103D01*
X107746883Y-102993916D01*
X107472886Y-103394923D01*
X107376491Y-103870937D01*
X107376491Y-105470937D01*
X107460166Y-105915630D01*
X107722979Y-106324054D01*
X108123986Y-106598051D01*
X108600000Y-106694446D01*
X109473652Y-106694446D01*
X109487160Y-106703472D01*
X110329063Y-106870937D01*
X111170966Y-106703472D01*
X111847358Y-106251522D01*
X117005103Y-111409266D01*
X117303494Y-112131429D01*
X117865612Y-112694529D01*
X118600430Y-112999652D01*
X119396079Y-113000346D01*
X120131429Y-112696506D01*
X120694529Y-112134388D01*
X120999652Y-111399570D01*
X121000282Y-110676958D01*
X121525295Y-111202887D01*
X122480559Y-111599548D01*
X123514903Y-111600450D01*
X124470858Y-111205458D01*
X125122941Y-110554511D01*
X127199515Y-110554511D01*
X127624892Y-111584000D01*
X128411857Y-112372340D01*
X129440602Y-112799513D01*
X130554511Y-112800485D01*
X131584000Y-112375108D01*
X132372340Y-111588143D01*
X132799513Y-110559398D01*
X132800485Y-109445489D01*
X132375108Y-108416000D01*
X131588143Y-107627660D01*
X130559398Y-107200487D01*
X129445489Y-107199515D01*
X128416000Y-107624892D01*
X127627660Y-108411857D01*
X127200487Y-109440602D01*
X127199515Y-110554511D01*
X125122941Y-110554511D01*
X125202887Y-110474705D01*
X125599548Y-109519441D01*
X125600450Y-108485097D01*
X125205458Y-107529142D01*
X124474705Y-106797113D01*
X123519441Y-106400452D01*
X122485097Y-106399550D01*
X121529142Y-106794542D01*
X120797113Y-107525295D01*
X120700000Y-107759169D01*
X120700000Y-97160000D01*
X125941227Y-97160000D01*
X126101080Y-97963635D01*
X126556303Y-98644924D01*
X127237592Y-99100147D01*
X128041227Y-99260000D01*
X129958773Y-99260000D01*
X130762408Y-99100147D01*
X131443697Y-98644924D01*
X131898920Y-97963635D01*
X132058773Y-97160000D01*
X131898920Y-96356365D01*
X131443697Y-95675076D01*
X130762408Y-95219853D01*
X129958773Y-95060000D01*
X128041227Y-95060000D01*
X127237592Y-95219853D01*
X126556303Y-95675076D01*
X126101080Y-96356365D01*
X125941227Y-97160000D01*
X120700000Y-97160000D01*
X120700000Y-92080000D01*
X125941227Y-92080000D01*
X126101080Y-92883635D01*
X126556303Y-93564924D01*
X127237592Y-94020147D01*
X128041227Y-94180000D01*
X129958773Y-94180000D01*
X130762408Y-94020147D01*
X131443697Y-93564924D01*
X131898920Y-92883635D01*
X132058773Y-92080000D01*
X131898920Y-91276365D01*
X131443697Y-90595076D01*
X130762408Y-90139853D01*
X129958773Y-89980000D01*
X128041227Y-89980000D01*
X127237592Y-90139853D01*
X126556303Y-90595076D01*
X126101080Y-91276365D01*
X125941227Y-92080000D01*
X120700000Y-92080000D01*
X120700000Y-88700000D01*
X126288799Y-88700000D01*
X126322979Y-88753117D01*
X126723986Y-89027114D01*
X127200000Y-89123509D01*
X130800000Y-89123509D01*
X131244693Y-89039834D01*
X131653117Y-88777021D01*
X131927114Y-88376014D01*
X132023509Y-87900000D01*
X132023509Y-86100000D01*
X131939834Y-85655307D01*
X131677021Y-85246883D01*
X131276014Y-84972886D01*
X130800000Y-84876491D01*
X127200000Y-84876491D01*
X126755307Y-84960166D01*
X126346883Y-85222979D01*
X126294257Y-85300000D01*
X107000005Y-85300000D01*
X107000000Y-85299999D01*
X106349438Y-85429405D01*
X105797918Y-85797918D01*
X105797916Y-85797921D01*
X104295836Y-87300000D01*
X100377024Y-87300000D01*
X100702887Y-86974705D01*
X101099548Y-86019441D01*
X101100450Y-84985097D01*
X100705458Y-84029142D01*
X99974705Y-83297113D01*
X99019441Y-82900452D01*
X97985097Y-82899550D01*
X97029142Y-83294542D01*
X96297113Y-84025295D01*
X95900452Y-84980559D01*
X95899550Y-86014903D01*
X96294542Y-86970858D01*
X96623110Y-87300000D01*
X93200000Y-87300000D01*
X93200000Y-82204164D01*
X94380654Y-81023509D01*
X94800000Y-81023509D01*
X95170628Y-80953770D01*
X95170591Y-80996079D01*
X95474431Y-81731429D01*
X96036549Y-82294529D01*
X96771367Y-82599652D01*
X97567016Y-82600346D01*
X98302366Y-82296506D01*
X98865466Y-81734388D01*
X99170589Y-80999570D01*
X99171283Y-80203921D01*
X99153136Y-80160000D01*
X125941227Y-80160000D01*
X126101080Y-80963635D01*
X126556303Y-81644924D01*
X127237592Y-82100147D01*
X128041227Y-82260000D01*
X129958773Y-82260000D01*
X130762408Y-82100147D01*
X131443697Y-81644924D01*
X131898920Y-80963635D01*
X132058773Y-80160000D01*
X131898920Y-79356365D01*
X131443697Y-78675076D01*
X130762408Y-78219853D01*
X129958773Y-78060000D01*
X128041227Y-78060000D01*
X127237592Y-78219853D01*
X126556303Y-78675076D01*
X126101080Y-79356365D01*
X125941227Y-80160000D01*
X99153136Y-80160000D01*
X98867443Y-79468571D01*
X98499913Y-79100399D01*
X98500346Y-78603921D01*
X98196506Y-77868571D01*
X97634388Y-77305471D01*
X96899570Y-77000348D01*
X96103921Y-76999654D01*
X95927873Y-77072396D01*
X95555635Y-76515302D01*
X95285876Y-76245543D01*
X95268897Y-76155307D01*
X95006084Y-75746883D01*
X94605077Y-75472886D01*
X94208571Y-75392592D01*
X94170966Y-75367465D01*
X93329063Y-75200000D01*
X92487160Y-75367465D01*
X92451931Y-75391005D01*
X92084370Y-75460166D01*
X91675946Y-75722979D01*
X91401949Y-76123986D01*
X91321655Y-76520492D01*
X91296528Y-76558097D01*
X91129063Y-77400000D01*
X91296528Y-78241903D01*
X91320068Y-78277132D01*
X91389229Y-78644693D01*
X91609238Y-78986598D01*
X90297918Y-80297918D01*
X89929405Y-80849438D01*
X89799999Y-81500000D01*
X89800000Y-81500005D01*
X89800000Y-87300000D01*
X85704163Y-87300000D01*
X81202082Y-82797918D01*
X80650562Y-82429405D01*
X80000000Y-82299999D01*
X79999995Y-82300000D01*
X63000005Y-82300000D01*
X63000000Y-82299999D01*
X62349438Y-82429405D01*
X61797918Y-82797918D01*
X61204141Y-83391695D01*
X61129063Y-83376491D01*
X59529063Y-83376491D01*
X59084370Y-83460166D01*
X58675946Y-83722979D01*
X58401949Y-84123986D01*
X58305554Y-84600000D01*
X51275000Y-84600000D01*
X51275000Y-59000510D01*
X52274461Y-59000510D01*
X52274461Y-60999490D01*
X52358136Y-61444183D01*
X52620949Y-61852607D01*
X53021956Y-62126604D01*
X53497970Y-62222999D01*
X55496950Y-62222999D01*
X55941643Y-62139324D01*
X56250089Y-61940845D01*
X56521956Y-62126604D01*
X56997970Y-62222999D01*
X58665731Y-62222999D01*
X58444365Y-62444365D01*
X57967465Y-63158096D01*
X57800000Y-64000000D01*
X57800000Y-66924971D01*
X57762408Y-66899853D01*
X56958773Y-66740000D01*
X55041227Y-66740000D01*
X54237592Y-66899853D01*
X53556303Y-67355076D01*
X53101080Y-68036365D01*
X52941227Y-68840000D01*
X53101080Y-69643635D01*
X53556303Y-70324924D01*
X54237592Y-70780147D01*
X55041227Y-70940000D01*
X56958773Y-70940000D01*
X57762408Y-70780147D01*
X57800000Y-70755029D01*
X57800000Y-72004971D01*
X57762408Y-71979853D01*
X56958773Y-71820000D01*
X55041227Y-71820000D01*
X54237592Y-71979853D01*
X53556303Y-72435076D01*
X53101080Y-73116365D01*
X52941227Y-73920000D01*
X53101080Y-74723635D01*
X53556303Y-75404924D01*
X54237592Y-75860147D01*
X55041227Y-76020000D01*
X56958773Y-76020000D01*
X57762408Y-75860147D01*
X57800000Y-75835029D01*
X57800000Y-76800000D01*
X56000000Y-76800000D01*
X55615454Y-76876491D01*
X54200000Y-76876491D01*
X53755307Y-76960166D01*
X53346883Y-77222979D01*
X53072886Y-77623986D01*
X52976491Y-78100000D01*
X52976491Y-79900000D01*
X53060166Y-80344693D01*
X53322979Y-80753117D01*
X53723986Y-81027114D01*
X54200000Y-81123509D01*
X55615454Y-81123509D01*
X56000000Y-81200000D01*
X59000000Y-81200000D01*
X59841904Y-81032535D01*
X60555635Y-80555635D01*
X61500339Y-79610931D01*
X61499654Y-80396079D01*
X61803494Y-81131429D01*
X62365612Y-81694529D01*
X63100430Y-81999652D01*
X63896079Y-82000346D01*
X64631429Y-81696506D01*
X65194529Y-81134388D01*
X65499652Y-80399570D01*
X65500346Y-79603921D01*
X65196506Y-78868571D01*
X64634388Y-78305471D01*
X63899570Y-78000348D01*
X63103921Y-77999654D01*
X62368571Y-78303494D01*
X62082909Y-78588657D01*
X62200000Y-78000000D01*
X62200000Y-75080000D01*
X125941227Y-75080000D01*
X126101080Y-75883635D01*
X126556303Y-76564924D01*
X127237592Y-77020147D01*
X128041227Y-77180000D01*
X129958773Y-77180000D01*
X130762408Y-77020147D01*
X131443697Y-76564924D01*
X131898920Y-75883635D01*
X132058773Y-75080000D01*
X131898920Y-74276365D01*
X131443697Y-73595076D01*
X130762408Y-73139853D01*
X129958773Y-72980000D01*
X128041227Y-72980000D01*
X127237592Y-73139853D01*
X126556303Y-73595076D01*
X126101080Y-74276365D01*
X125941227Y-75080000D01*
X62200000Y-75080000D01*
X62200000Y-69432981D01*
X92600000Y-69432981D01*
X92600000Y-69527019D01*
X92782689Y-70445459D01*
X93302944Y-71224075D01*
X94081560Y-71744330D01*
X95000000Y-71927019D01*
X95918440Y-71744330D01*
X96697056Y-71224075D01*
X97217311Y-70445459D01*
X97400000Y-69527019D01*
X97400000Y-69432981D01*
X97217311Y-68514541D01*
X96697056Y-67735925D01*
X95918440Y-67215670D01*
X95000000Y-67032981D01*
X94081560Y-67215670D01*
X93302944Y-67735925D01*
X92782689Y-68514541D01*
X92600000Y-69432981D01*
X62200000Y-69432981D01*
X62200000Y-68829711D01*
X62734633Y-69186941D01*
X63500000Y-69339182D01*
X64265367Y-69186941D01*
X64914214Y-68753396D01*
X65347759Y-68104549D01*
X65500000Y-67339182D01*
X65500000Y-67260818D01*
X65347759Y-66495451D01*
X64914214Y-65846604D01*
X64265367Y-65413059D01*
X63500000Y-65260818D01*
X62734633Y-65413059D01*
X62200000Y-65770289D01*
X62200000Y-64911270D01*
X63058175Y-64053095D01*
X63535075Y-63339364D01*
X63702540Y-62497460D01*
X63702540Y-61970996D01*
X63755002Y-62023550D01*
X64563115Y-62359108D01*
X65438126Y-62359871D01*
X66246824Y-62025725D01*
X66866090Y-61407538D01*
X67201648Y-60599425D01*
X67202411Y-59724414D01*
X66868265Y-58915716D01*
X66250078Y-58296450D01*
X65441965Y-57960892D01*
X64566954Y-57960129D01*
X63758256Y-58294275D01*
X63702540Y-58349894D01*
X63702540Y-56408730D01*
X66558175Y-53553095D01*
X67035075Y-52839364D01*
X67202540Y-51997460D01*
X67202540Y-51113063D01*
X67225539Y-50999490D01*
X67225539Y-49000510D01*
X67141864Y-48555817D01*
X66879051Y-48147393D01*
X66478044Y-47873396D01*
X66002030Y-47777001D01*
X64003050Y-47777001D01*
X63558357Y-47860676D01*
X63249911Y-48059155D01*
X62978044Y-47873396D01*
X62502030Y-47777001D01*
X60503050Y-47777001D01*
X60058357Y-47860676D01*
X59649933Y-48123489D01*
X59545036Y-48277011D01*
X59244998Y-47976450D01*
X58841540Y-47808919D01*
X58839363Y-47807465D01*
X58836818Y-47806959D01*
X58436885Y-47640892D01*
X58000029Y-47640511D01*
X57997460Y-47640000D01*
X57994913Y-47640507D01*
X57561874Y-47640129D01*
X57158125Y-47806954D01*
X57155556Y-47807465D01*
X57153397Y-47808908D01*
X56753176Y-47974275D01*
X56444002Y-48282911D01*
X56441825Y-48284365D01*
X56246931Y-48479259D01*
X55744998Y-47976450D01*
X54936885Y-47640892D01*
X54061874Y-47640129D01*
X53253176Y-47974275D01*
X52633910Y-48592462D01*
X52298352Y-49400575D01*
X52297589Y-50275586D01*
X52631735Y-51084284D01*
X53136380Y-51589810D01*
X52941825Y-51784365D01*
X52464925Y-52498096D01*
X52297460Y-53340000D01*
X52297460Y-58886937D01*
X52274461Y-59000510D01*
X51275000Y-59000510D01*
X51275000Y-43138824D01*
X52002598Y-43138824D01*
X52324745Y-43852302D01*
X54002598Y-44582839D01*
X55832297Y-44615681D01*
X57535287Y-43945826D01*
X57675255Y-43852302D01*
X57997402Y-43138824D01*
X55000000Y-40141421D01*
X52002598Y-43138824D01*
X51275000Y-43138824D01*
X51275000Y-42732734D01*
X51861176Y-42997402D01*
X54858579Y-40000000D01*
X55141421Y-40000000D01*
X58138824Y-42997402D01*
X58852302Y-42675255D01*
X59582839Y-40997402D01*
X59615681Y-39167703D01*
X58999040Y-37600000D01*
X75376491Y-37600000D01*
X75376491Y-40400000D01*
X75460166Y-40844693D01*
X75722979Y-41253117D01*
X76123986Y-41527114D01*
X76600000Y-41623509D01*
X79400000Y-41623509D01*
X79844693Y-41539834D01*
X80253117Y-41277021D01*
X80527114Y-40876014D01*
X80623509Y-40400000D01*
X80623509Y-39475295D01*
X92599584Y-39475295D01*
X92964192Y-40357715D01*
X93638734Y-41033435D01*
X94520516Y-41399583D01*
X95475295Y-41400416D01*
X96357715Y-41035808D01*
X97033435Y-40361266D01*
X97399583Y-39479484D01*
X97400416Y-38524705D01*
X97035808Y-37642285D01*
X96993597Y-37600000D01*
X109376491Y-37600000D01*
X109376491Y-40400000D01*
X109460166Y-40844693D01*
X109722979Y-41253117D01*
X109800000Y-41305743D01*
X109800000Y-53000000D01*
X109967465Y-53841904D01*
X110205040Y-54197460D01*
X110444365Y-54555635D01*
X125976491Y-70087761D01*
X125976491Y-70900000D01*
X126060166Y-71344693D01*
X126322979Y-71753117D01*
X126723986Y-72027114D01*
X127200000Y-72123509D01*
X128615452Y-72123509D01*
X129000000Y-72200000D01*
X129384549Y-72123509D01*
X130800000Y-72123509D01*
X131244693Y-72039834D01*
X131653117Y-71777021D01*
X131927114Y-71376014D01*
X132023509Y-70900000D01*
X132023509Y-69100000D01*
X131939834Y-68655307D01*
X131677021Y-68246883D01*
X131276014Y-67972886D01*
X130800000Y-67876491D01*
X129987761Y-67876491D01*
X127158709Y-65047439D01*
X127237592Y-65100147D01*
X128041227Y-65260000D01*
X129958773Y-65260000D01*
X130762408Y-65100147D01*
X131443697Y-64644924D01*
X131898920Y-63963635D01*
X132058773Y-63160000D01*
X131898920Y-62356365D01*
X131443697Y-61675076D01*
X130762408Y-61219853D01*
X129958773Y-61060000D01*
X128041227Y-61060000D01*
X127237592Y-61219853D01*
X126556303Y-61675076D01*
X126101080Y-62356365D01*
X125941227Y-63160000D01*
X126101080Y-63963635D01*
X126153788Y-64042518D01*
X120191270Y-58080000D01*
X125941227Y-58080000D01*
X126101080Y-58883635D01*
X126556303Y-59564924D01*
X127237592Y-60020147D01*
X128041227Y-60180000D01*
X129958773Y-60180000D01*
X130762408Y-60020147D01*
X131443697Y-59564924D01*
X131898920Y-58883635D01*
X132058773Y-58080000D01*
X131898920Y-57276365D01*
X131443697Y-56595076D01*
X130762408Y-56139853D01*
X129958773Y-55980000D01*
X128041227Y-55980000D01*
X127237592Y-56139853D01*
X126556303Y-56595076D01*
X126101080Y-57276365D01*
X125941227Y-58080000D01*
X120191270Y-58080000D01*
X114211270Y-52100000D01*
X125976491Y-52100000D01*
X125976491Y-53900000D01*
X126060166Y-54344693D01*
X126322979Y-54753117D01*
X126723986Y-55027114D01*
X127200000Y-55123509D01*
X130800000Y-55123509D01*
X131244693Y-55039834D01*
X131653117Y-54777021D01*
X131927114Y-54376014D01*
X132023509Y-53900000D01*
X132023509Y-52100000D01*
X131939834Y-51655307D01*
X131677021Y-51246883D01*
X131276014Y-50972886D01*
X130800000Y-50876491D01*
X127200000Y-50876491D01*
X126755307Y-50960166D01*
X126346883Y-51222979D01*
X126072886Y-51623986D01*
X125976491Y-52100000D01*
X114211270Y-52100000D01*
X114200000Y-52088730D01*
X114200000Y-47514903D01*
X126399550Y-47514903D01*
X126794542Y-48470858D01*
X127525295Y-49202887D01*
X128480559Y-49599548D01*
X129514903Y-49600450D01*
X130470858Y-49205458D01*
X131202887Y-48474705D01*
X131599548Y-47519441D01*
X131600450Y-46485097D01*
X131205458Y-45529142D01*
X130474705Y-44797113D01*
X129519441Y-44400452D01*
X128485097Y-44399550D01*
X127529142Y-44794542D01*
X126797113Y-45525295D01*
X126400452Y-46480559D01*
X126399550Y-47514903D01*
X114200000Y-47514903D01*
X114200000Y-41311201D01*
X114253117Y-41277021D01*
X114527114Y-40876014D01*
X114623509Y-40400000D01*
X114623509Y-39514903D01*
X117399550Y-39514903D01*
X117794542Y-40470858D01*
X118525295Y-41202887D01*
X119480559Y-41599548D01*
X120514903Y-41600450D01*
X121470858Y-41205458D01*
X122122941Y-40554511D01*
X127199515Y-40554511D01*
X127624892Y-41584000D01*
X128411857Y-42372340D01*
X129440602Y-42799513D01*
X130554511Y-42800485D01*
X131584000Y-42375108D01*
X132372340Y-41588143D01*
X132799513Y-40559398D01*
X132800485Y-39445489D01*
X132375108Y-38416000D01*
X131588143Y-37627660D01*
X130559398Y-37200487D01*
X129445489Y-37199515D01*
X128416000Y-37624892D01*
X127627660Y-38411857D01*
X127200487Y-39440602D01*
X127199515Y-40554511D01*
X122122941Y-40554511D01*
X122202887Y-40474705D01*
X122599548Y-39519441D01*
X122600450Y-38485097D01*
X122205458Y-37529142D01*
X121474705Y-36797113D01*
X120519441Y-36400452D01*
X119485097Y-36399550D01*
X118529142Y-36794542D01*
X117797113Y-37525295D01*
X117400452Y-38480559D01*
X117399550Y-39514903D01*
X114623509Y-39514903D01*
X114623509Y-37600000D01*
X114539834Y-37155307D01*
X114277021Y-36746883D01*
X113876014Y-36472886D01*
X113400000Y-36376491D01*
X110600000Y-36376491D01*
X110155307Y-36460166D01*
X109746883Y-36722979D01*
X109472886Y-37123986D01*
X109376491Y-37600000D01*
X96993597Y-37600000D01*
X96361266Y-36966565D01*
X95479484Y-36600417D01*
X94524705Y-36599584D01*
X93642285Y-36964192D01*
X92966565Y-37638734D01*
X92600417Y-38520516D01*
X92599584Y-39475295D01*
X80623509Y-39475295D01*
X80623509Y-37600000D01*
X80539834Y-37155307D01*
X80277021Y-36746883D01*
X79876014Y-36472886D01*
X79400000Y-36376491D01*
X76600000Y-36376491D01*
X76155307Y-36460166D01*
X75746883Y-36722979D01*
X75472886Y-37123986D01*
X75376491Y-37600000D01*
X58999040Y-37600000D01*
X58945826Y-37464713D01*
X58852302Y-37324745D01*
X58138824Y-37002598D01*
X55141421Y-40000000D01*
X54858579Y-40000000D01*
X51861176Y-37002598D01*
X51275000Y-37267266D01*
X51275000Y-36275000D01*
X52267266Y-36275000D01*
X52002598Y-36861176D01*
X52002598Y-36861176D01*
G37*
X52002598Y-36861176D02*
X55000000Y-39858579D01*
X57997402Y-36861176D01*
X57732734Y-36275000D01*
X133725000Y-36275000D01*
X133725000Y-113725000D01*
X51275000Y-113725000D01*
X51275000Y-110554511D01*
X52199515Y-110554511D01*
X52624892Y-111584000D01*
X53411857Y-112372340D01*
X54440602Y-112799513D01*
X55554511Y-112800485D01*
X56584000Y-112375108D01*
X57372340Y-111588143D01*
X57799513Y-110559398D01*
X57800485Y-109445489D01*
X57375108Y-108416000D01*
X56588143Y-107627660D01*
X55559398Y-107200487D01*
X54445489Y-107199515D01*
X53416000Y-107624892D01*
X52627660Y-108411857D01*
X52200487Y-109440602D01*
X52199515Y-110554511D01*
X51275000Y-110554511D01*
X51275000Y-100000000D01*
X53260818Y-100000000D01*
X53413059Y-100765367D01*
X53846604Y-101414214D01*
X54495451Y-101847759D01*
X55260818Y-102000000D01*
X55339182Y-102000000D01*
X56104549Y-101847759D01*
X56325686Y-101700000D01*
X60499995Y-101700000D01*
X60500000Y-101700001D01*
X61150562Y-101570595D01*
X61702082Y-101202082D01*
X63704163Y-99200000D01*
X66166621Y-99200000D01*
X66000348Y-99600430D01*
X65999654Y-100396079D01*
X66303494Y-101131429D01*
X66645623Y-101474155D01*
X66797918Y-101702082D01*
X67898936Y-102803100D01*
X67842569Y-102803051D01*
X67840000Y-102802540D01*
X67837453Y-102803047D01*
X67404414Y-102802669D01*
X67000665Y-102969494D01*
X66998096Y-102970005D01*
X66995937Y-102971448D01*
X66595716Y-103136815D01*
X66286542Y-103445451D01*
X66284365Y-103446905D01*
X66282923Y-103449063D01*
X65976450Y-103755002D01*
X65808920Y-104158458D01*
X65807465Y-104160636D01*
X65806958Y-104163183D01*
X65640892Y-104563115D01*
X65640550Y-104955286D01*
X64797918Y-105797918D01*
X64429405Y-106349438D01*
X64299999Y-107000000D01*
X64300000Y-107000005D01*
X64300000Y-108878788D01*
X64000348Y-109600430D01*
X63999654Y-110396079D01*
X64303494Y-111131429D01*
X64865612Y-111694529D01*
X65600430Y-111999652D01*
X66396079Y-112000346D01*
X67131429Y-111696506D01*
X67694529Y-111134388D01*
X67999652Y-110399570D01*
X68000346Y-109603921D01*
X67700000Y-108877027D01*
X67700000Y-107704164D01*
X68094858Y-107309306D01*
X68681904Y-107192535D01*
X69395635Y-106715635D01*
X69872535Y-106001904D01*
X69933162Y-105697111D01*
X70039108Y-105441965D01*
X70039351Y-105163263D01*
X70040000Y-105160000D01*
X70040000Y-105002540D01*
X70039493Y-104999993D01*
X70039542Y-104943706D01*
X71300456Y-106204619D01*
X71300458Y-106204622D01*
X71662789Y-106446723D01*
X71851978Y-106573135D01*
X72502540Y-106702541D01*
X72502545Y-106702540D01*
X76025289Y-106702540D01*
X76123489Y-106855147D01*
X76300000Y-106975752D01*
X76300000Y-109299995D01*
X76299999Y-109300000D01*
X76429405Y-109950562D01*
X76744907Y-110422746D01*
X76813059Y-110765367D01*
X77246604Y-111414214D01*
X77895451Y-111847759D01*
X78660818Y-112000000D01*
X78739182Y-112000000D01*
X79504549Y-111847759D01*
X80153396Y-111414214D01*
X80586941Y-110765367D01*
X80739182Y-110000000D01*
X80586941Y-109234633D01*
X80153396Y-108585786D01*
X79700000Y-108282837D01*
X79700000Y-106977251D01*
X79852607Y-106879051D01*
X80126604Y-106478044D01*
X80222999Y-106002030D01*
X80222999Y-104627162D01*
X82300000Y-106704163D01*
X82300000Y-107587398D01*
X82080334Y-108116413D01*
X82079667Y-108880236D01*
X82371354Y-109586172D01*
X82910987Y-110126748D01*
X83443846Y-110348010D01*
X85797916Y-112702079D01*
X85797918Y-112702082D01*
X86349438Y-113070595D01*
X86457374Y-113092065D01*
X87000000Y-113200001D01*
X87000005Y-113200000D01*
X92999995Y-113200000D01*
X93000000Y-113200001D01*
X93650562Y-113070595D01*
X94202082Y-112702082D01*
X95904163Y-111000000D01*
X104260818Y-111000000D01*
X104413059Y-111765367D01*
X104846604Y-112414214D01*
X105495451Y-112847759D01*
X106260818Y-113000000D01*
X106339182Y-113000000D01*
X107104549Y-112847759D01*
X107753396Y-112414214D01*
X108186941Y-111765367D01*
X108339182Y-111000000D01*
X108186941Y-110234633D01*
X107753396Y-109585786D01*
X107104549Y-109152241D01*
X106339182Y-109000000D01*
X106260818Y-109000000D01*
X105495451Y-109152241D01*
X104846604Y-109585786D01*
X104413059Y-110234633D01*
X104260818Y-111000000D01*
X95904163Y-111000000D01*
X96556774Y-110347389D01*
X97086172Y-110128646D01*
X97626748Y-109589013D01*
X97919666Y-108883587D01*
X97920333Y-108119764D01*
X97751687Y-107711609D01*
X98156413Y-107879666D01*
X98920236Y-107880333D01*
X99328391Y-107711687D01*
X99160334Y-108116413D01*
X99159667Y-108880236D01*
X99451354Y-109586172D01*
X99990987Y-110126748D01*
X100696413Y-110419666D01*
X101460236Y-110420333D01*
X102166172Y-110128646D01*
X102706748Y-109589013D01*
X102999666Y-108883587D01*
X103000333Y-108119764D01*
X102708646Y-107413828D01*
X102169013Y-106873252D01*
X101463587Y-106580334D01*
X100699764Y-106579667D01*
X100291609Y-106748313D01*
X100459666Y-106343587D01*
X100460333Y-105579764D01*
X100168646Y-104873828D01*
X99629013Y-104333252D01*
X98923587Y-104040334D01*
X98159764Y-104039667D01*
X97626518Y-104260000D01*
X93664163Y-104260000D01*
X89700000Y-100295836D01*
X89700000Y-100150345D01*
X89995451Y-100347759D01*
X90760818Y-100500000D01*
X90839182Y-100500000D01*
X91604549Y-100347759D01*
X92253396Y-99914214D01*
X92686941Y-99265367D01*
X92760396Y-98896079D01*
X101499654Y-98896079D01*
X101803494Y-99631429D01*
X102365612Y-100194529D01*
X103100430Y-100499652D01*
X103896079Y-100500346D01*
X104631429Y-100196506D01*
X105194529Y-99634388D01*
X105499652Y-98899570D01*
X105500346Y-98103921D01*
X105196506Y-97368571D01*
X104634388Y-96805471D01*
X103899570Y-96500348D01*
X103103921Y-96499654D01*
X102368571Y-96803494D01*
X101805471Y-97365612D01*
X101500348Y-98100430D01*
X101499654Y-98896079D01*
X92760396Y-98896079D01*
X92839182Y-98500000D01*
X92686941Y-97734633D01*
X92253396Y-97085786D01*
X91846804Y-96814110D01*
X92131429Y-96696506D01*
X92387105Y-96441276D01*
X92995451Y-96847759D01*
X93760818Y-97000000D01*
X93839182Y-97000000D01*
X94604549Y-96847759D01*
X95253396Y-96414214D01*
X95686941Y-95765367D01*
X95760396Y-95396079D01*
X104499654Y-95396079D01*
X104803494Y-96131429D01*
X105365612Y-96694529D01*
X106100430Y-96999652D01*
X106896079Y-97000346D01*
X107631429Y-96696506D01*
X108194529Y-96134388D01*
X108499652Y-95399570D01*
X108500346Y-94603921D01*
X108196506Y-93868571D01*
X107634388Y-93305471D01*
X106899570Y-93000348D01*
X106103921Y-92999654D01*
X105368571Y-93303494D01*
X104805471Y-93865612D01*
X104500348Y-94600430D01*
X104499654Y-95396079D01*
X95760396Y-95396079D01*
X95839182Y-95000000D01*
X95686941Y-94234633D01*
X95253396Y-93585786D01*
X94604549Y-93152241D01*
X93839182Y-93000000D01*
X93760818Y-93000000D01*
X92995451Y-93152241D01*
X92387162Y-93558686D01*
X92134388Y-93305471D01*
X91399570Y-93000348D01*
X90603921Y-92999654D01*
X89868571Y-93303494D01*
X89305471Y-93865612D01*
X89000348Y-94600430D01*
X88999654Y-95396079D01*
X89303494Y-96131429D01*
X89865612Y-96694529D01*
X89906656Y-96711572D01*
X89379667Y-97063694D01*
X89202082Y-96797918D01*
X89202079Y-96797916D01*
X86202082Y-93797918D01*
X85650562Y-93429405D01*
X85000000Y-93299999D01*
X84999995Y-93300000D01*
X79325686Y-93300000D01*
X79274840Y-93266026D01*
X79838478Y-92889415D01*
X80402087Y-92045914D01*
X80600000Y-91050937D01*
X80600000Y-90949063D01*
X80402087Y-89954086D01*
X79838478Y-89110585D01*
X78994977Y-88546976D01*
X78000000Y-88349063D01*
X77005023Y-88546976D01*
X76161522Y-89110585D01*
X75597913Y-89954086D01*
X75400000Y-90949063D01*
X75400000Y-91050937D01*
X75597913Y-92045914D01*
X76161522Y-92889415D01*
X77005023Y-93453024D01*
X77036058Y-93459197D01*
X76846604Y-93585786D01*
X76413059Y-94234633D01*
X76260818Y-95000000D01*
X76413059Y-95765367D01*
X76846604Y-96414214D01*
X77495451Y-96847759D01*
X78260818Y-97000000D01*
X78339182Y-97000000D01*
X79104549Y-96847759D01*
X79325686Y-96700000D01*
X84295836Y-96700000D01*
X86300000Y-98704163D01*
X86300000Y-100999995D01*
X86299999Y-101000000D01*
X86429405Y-101650562D01*
X86797918Y-102202082D01*
X91757916Y-107162079D01*
X91757918Y-107162082D01*
X92309438Y-107530595D01*
X92960000Y-107660000D01*
X94269853Y-107660000D01*
X94151989Y-107943847D01*
X92295836Y-109800000D01*
X90495392Y-109800000D01*
X90706748Y-109589013D01*
X90999666Y-108883587D01*
X91000333Y-108119764D01*
X90708646Y-107413828D01*
X90169013Y-106873252D01*
X89463587Y-106580334D01*
X88699764Y-106579667D01*
X88291609Y-106748313D01*
X88459666Y-106343587D01*
X88460333Y-105579764D01*
X88168646Y-104873828D01*
X87629013Y-104333252D01*
X86923587Y-104040334D01*
X86159764Y-104039667D01*
X85453828Y-104331354D01*
X85094359Y-104690196D01*
X82599767Y-102195604D01*
X83404284Y-101863185D01*
X84023550Y-101244998D01*
X84359108Y-100436885D01*
X84359871Y-99561874D01*
X84025725Y-98753176D01*
X83407538Y-98133910D01*
X82599425Y-97798352D01*
X81724414Y-97797589D01*
X80915716Y-98131735D01*
X80296450Y-98749922D01*
X79961275Y-99557112D01*
X76702082Y-96297918D01*
X76150562Y-95929405D01*
X75500000Y-95799999D01*
X75499995Y-95800000D01*
X73833379Y-95800000D01*
X73999652Y-95399570D01*
X74000346Y-94603921D01*
X73696506Y-93868571D01*
X73134388Y-93305471D01*
X72399570Y-93000348D01*
X71603921Y-92999654D01*
X70868571Y-93303494D01*
X70305471Y-93865612D01*
X70000348Y-94600430D01*
X69999654Y-95396079D01*
X70166551Y-95800000D01*
X63000005Y-95800000D01*
X63000000Y-95799999D01*
X62349438Y-95929405D01*
X61797918Y-96297918D01*
X61797916Y-96297921D01*
X59795836Y-98300000D01*
X56325686Y-98300000D01*
X56104549Y-98152241D01*
X55339182Y-98000000D01*
X55260818Y-98000000D01*
X54495451Y-98152241D01*
X53846604Y-98585786D01*
X53413059Y-99234633D01*
X53260818Y-100000000D01*
X51275000Y-100000000D01*
X51275000Y-95000000D01*
X57260818Y-95000000D01*
X57413059Y-95765367D01*
X57846604Y-96414214D01*
X58495451Y-96847759D01*
X59260818Y-97000000D01*
X59339182Y-97000000D01*
X60104549Y-96847759D01*
X60753396Y-96414214D01*
X61186941Y-95765367D01*
X61339182Y-95000000D01*
X61186941Y-94234633D01*
X60753396Y-93585786D01*
X60104549Y-93152241D01*
X59339182Y-93000000D01*
X59260818Y-93000000D01*
X58495451Y-93152241D01*
X57846604Y-93585786D01*
X57413059Y-94234633D01*
X57260818Y-95000000D01*
X51275000Y-95000000D01*
X51275000Y-84600000D01*
X58305554Y-84600000D01*
X58305554Y-86200000D01*
X58389229Y-86644693D01*
X58652042Y-87053117D01*
X58976491Y-87274804D01*
X58976491Y-87800000D01*
X59060166Y-88244693D01*
X59322979Y-88653117D01*
X59723986Y-88927114D01*
X60200000Y-89023509D01*
X61800000Y-89023509D01*
X62170628Y-88953770D01*
X62170591Y-88996079D01*
X62474431Y-89731429D01*
X63036549Y-90294529D01*
X63771367Y-90599652D01*
X64567016Y-90600346D01*
X65302366Y-90296506D01*
X65865466Y-89734388D01*
X66170589Y-88999570D01*
X66171283Y-88203921D01*
X65867443Y-87468571D01*
X65499913Y-87100399D01*
X65500346Y-86603921D01*
X65196506Y-85868571D01*
X65028229Y-85700000D01*
X79295836Y-85700000D01*
X83797916Y-90202079D01*
X83797918Y-90202082D01*
X84349438Y-90570595D01*
X84457374Y-90592065D01*
X85000000Y-90700001D01*
X85000005Y-90700000D01*
X104999995Y-90700000D01*
X105000000Y-90700001D01*
X105650562Y-90570595D01*
X106202082Y-90202082D01*
X107704163Y-88700000D01*
X110776006Y-88700000D01*
X110161522Y-89110585D01*
X109597913Y-89954086D01*
X109400000Y-90949063D01*
X109400000Y-91050937D01*
X109597913Y-92045914D01*
X110161522Y-92889415D01*
X111005023Y-93453024D01*
X112000000Y-93650937D01*
X112994977Y-93453024D01*
X113838478Y-92889415D01*
X114402087Y-92045914D01*
X114600000Y-91050937D01*
X114600000Y-90949063D01*
X114402087Y-89954086D01*
X113838478Y-89110585D01*
X113223994Y-88700000D01*
X117300000Y-88700000D01*
X117300000Y-106895837D01*
X113202082Y-102797918D01*
X113152490Y-102764782D01*
X113731429Y-102525569D01*
X114294529Y-101963451D01*
X114599652Y-101228633D01*
X114600346Y-100432984D01*
X114296506Y-99697634D01*
X113734388Y-99134534D01*
X112999570Y-98829411D01*
X112203921Y-98828717D01*
X111468571Y-99132557D01*
X111100399Y-99500087D01*
X110603921Y-99499654D01*
X109868571Y-99803494D01*
X109305471Y-100365612D01*
X109000348Y-101100430D01*
X108999654Y-101896079D01*
X109240424Y-102478787D01*
X109125196Y-102647428D01*
X108600000Y-102647428D01*
X108155307Y-102731103D01*
X107746883Y-102993916D01*
X107472886Y-103394923D01*
X107376491Y-103870937D01*
X107376491Y-105470937D01*
X107460166Y-105915630D01*
X107722979Y-106324054D01*
X108123986Y-106598051D01*
X108600000Y-106694446D01*
X109473652Y-106694446D01*
X109487160Y-106703472D01*
X110329063Y-106870937D01*
X111170966Y-106703472D01*
X111847358Y-106251522D01*
X117005103Y-111409266D01*
X117303494Y-112131429D01*
X117865612Y-112694529D01*
X118600430Y-112999652D01*
X119396079Y-113000346D01*
X120131429Y-112696506D01*
X120694529Y-112134388D01*
X120999652Y-111399570D01*
X121000282Y-110676958D01*
X121525295Y-111202887D01*
X122480559Y-111599548D01*
X123514903Y-111600450D01*
X124470858Y-111205458D01*
X125122941Y-110554511D01*
X127199515Y-110554511D01*
X127624892Y-111584000D01*
X128411857Y-112372340D01*
X129440602Y-112799513D01*
X130554511Y-112800485D01*
X131584000Y-112375108D01*
X132372340Y-111588143D01*
X132799513Y-110559398D01*
X132800485Y-109445489D01*
X132375108Y-108416000D01*
X131588143Y-107627660D01*
X130559398Y-107200487D01*
X129445489Y-107199515D01*
X128416000Y-107624892D01*
X127627660Y-108411857D01*
X127200487Y-109440602D01*
X127199515Y-110554511D01*
X125122941Y-110554511D01*
X125202887Y-110474705D01*
X125599548Y-109519441D01*
X125600450Y-108485097D01*
X125205458Y-107529142D01*
X124474705Y-106797113D01*
X123519441Y-106400452D01*
X122485097Y-106399550D01*
X121529142Y-106794542D01*
X120797113Y-107525295D01*
X120700000Y-107759169D01*
X120700000Y-97160000D01*
X125941227Y-97160000D01*
X126101080Y-97963635D01*
X126556303Y-98644924D01*
X127237592Y-99100147D01*
X128041227Y-99260000D01*
X129958773Y-99260000D01*
X130762408Y-99100147D01*
X131443697Y-98644924D01*
X131898920Y-97963635D01*
X132058773Y-97160000D01*
X131898920Y-96356365D01*
X131443697Y-95675076D01*
X130762408Y-95219853D01*
X129958773Y-95060000D01*
X128041227Y-95060000D01*
X127237592Y-95219853D01*
X126556303Y-95675076D01*
X126101080Y-96356365D01*
X125941227Y-97160000D01*
X120700000Y-97160000D01*
X120700000Y-92080000D01*
X125941227Y-92080000D01*
X126101080Y-92883635D01*
X126556303Y-93564924D01*
X127237592Y-94020147D01*
X128041227Y-94180000D01*
X129958773Y-94180000D01*
X130762408Y-94020147D01*
X131443697Y-93564924D01*
X131898920Y-92883635D01*
X132058773Y-92080000D01*
X131898920Y-91276365D01*
X131443697Y-90595076D01*
X130762408Y-90139853D01*
X129958773Y-89980000D01*
X128041227Y-89980000D01*
X127237592Y-90139853D01*
X126556303Y-90595076D01*
X126101080Y-91276365D01*
X125941227Y-92080000D01*
X120700000Y-92080000D01*
X120700000Y-88700000D01*
X126288799Y-88700000D01*
X126322979Y-88753117D01*
X126723986Y-89027114D01*
X127200000Y-89123509D01*
X130800000Y-89123509D01*
X131244693Y-89039834D01*
X131653117Y-88777021D01*
X131927114Y-88376014D01*
X132023509Y-87900000D01*
X132023509Y-86100000D01*
X131939834Y-85655307D01*
X131677021Y-85246883D01*
X131276014Y-84972886D01*
X130800000Y-84876491D01*
X127200000Y-84876491D01*
X126755307Y-84960166D01*
X126346883Y-85222979D01*
X126294257Y-85300000D01*
X107000005Y-85300000D01*
X107000000Y-85299999D01*
X106349438Y-85429405D01*
X105797918Y-85797918D01*
X105797916Y-85797921D01*
X104295836Y-87300000D01*
X100377024Y-87300000D01*
X100702887Y-86974705D01*
X101099548Y-86019441D01*
X101100450Y-84985097D01*
X100705458Y-84029142D01*
X99974705Y-83297113D01*
X99019441Y-82900452D01*
X97985097Y-82899550D01*
X97029142Y-83294542D01*
X96297113Y-84025295D01*
X95900452Y-84980559D01*
X95899550Y-86014903D01*
X96294542Y-86970858D01*
X96623110Y-87300000D01*
X93200000Y-87300000D01*
X93200000Y-82204164D01*
X94380654Y-81023509D01*
X94800000Y-81023509D01*
X95170628Y-80953770D01*
X95170591Y-80996079D01*
X95474431Y-81731429D01*
X96036549Y-82294529D01*
X96771367Y-82599652D01*
X97567016Y-82600346D01*
X98302366Y-82296506D01*
X98865466Y-81734388D01*
X99170589Y-80999570D01*
X99171283Y-80203921D01*
X99153136Y-80160000D01*
X125941227Y-80160000D01*
X126101080Y-80963635D01*
X126556303Y-81644924D01*
X127237592Y-82100147D01*
X128041227Y-82260000D01*
X129958773Y-82260000D01*
X130762408Y-82100147D01*
X131443697Y-81644924D01*
X131898920Y-80963635D01*
X132058773Y-80160000D01*
X131898920Y-79356365D01*
X131443697Y-78675076D01*
X130762408Y-78219853D01*
X129958773Y-78060000D01*
X128041227Y-78060000D01*
X127237592Y-78219853D01*
X126556303Y-78675076D01*
X126101080Y-79356365D01*
X125941227Y-80160000D01*
X99153136Y-80160000D01*
X98867443Y-79468571D01*
X98499913Y-79100399D01*
X98500346Y-78603921D01*
X98196506Y-77868571D01*
X97634388Y-77305471D01*
X96899570Y-77000348D01*
X96103921Y-76999654D01*
X95927873Y-77072396D01*
X95555635Y-76515302D01*
X95285876Y-76245543D01*
X95268897Y-76155307D01*
X95006084Y-75746883D01*
X94605077Y-75472886D01*
X94208571Y-75392592D01*
X94170966Y-75367465D01*
X93329063Y-75200000D01*
X92487160Y-75367465D01*
X92451931Y-75391005D01*
X92084370Y-75460166D01*
X91675946Y-75722979D01*
X91401949Y-76123986D01*
X91321655Y-76520492D01*
X91296528Y-76558097D01*
X91129063Y-77400000D01*
X91296528Y-78241903D01*
X91320068Y-78277132D01*
X91389229Y-78644693D01*
X91609238Y-78986598D01*
X90297918Y-80297918D01*
X89929405Y-80849438D01*
X89799999Y-81500000D01*
X89800000Y-81500005D01*
X89800000Y-87300000D01*
X85704163Y-87300000D01*
X81202082Y-82797918D01*
X80650562Y-82429405D01*
X80000000Y-82299999D01*
X79999995Y-82300000D01*
X63000005Y-82300000D01*
X63000000Y-82299999D01*
X62349438Y-82429405D01*
X61797918Y-82797918D01*
X61204141Y-83391695D01*
X61129063Y-83376491D01*
X59529063Y-83376491D01*
X59084370Y-83460166D01*
X58675946Y-83722979D01*
X58401949Y-84123986D01*
X58305554Y-84600000D01*
X51275000Y-84600000D01*
X51275000Y-59000510D01*
X52274461Y-59000510D01*
X52274461Y-60999490D01*
X52358136Y-61444183D01*
X52620949Y-61852607D01*
X53021956Y-62126604D01*
X53497970Y-62222999D01*
X55496950Y-62222999D01*
X55941643Y-62139324D01*
X56250089Y-61940845D01*
X56521956Y-62126604D01*
X56997970Y-62222999D01*
X58665731Y-62222999D01*
X58444365Y-62444365D01*
X57967465Y-63158096D01*
X57800000Y-64000000D01*
X57800000Y-66924971D01*
X57762408Y-66899853D01*
X56958773Y-66740000D01*
X55041227Y-66740000D01*
X54237592Y-66899853D01*
X53556303Y-67355076D01*
X53101080Y-68036365D01*
X52941227Y-68840000D01*
X53101080Y-69643635D01*
X53556303Y-70324924D01*
X54237592Y-70780147D01*
X55041227Y-70940000D01*
X56958773Y-70940000D01*
X57762408Y-70780147D01*
X57800000Y-70755029D01*
X57800000Y-72004971D01*
X57762408Y-71979853D01*
X56958773Y-71820000D01*
X55041227Y-71820000D01*
X54237592Y-71979853D01*
X53556303Y-72435076D01*
X53101080Y-73116365D01*
X52941227Y-73920000D01*
X53101080Y-74723635D01*
X53556303Y-75404924D01*
X54237592Y-75860147D01*
X55041227Y-76020000D01*
X56958773Y-76020000D01*
X57762408Y-75860147D01*
X57800000Y-75835029D01*
X57800000Y-76800000D01*
X56000000Y-76800000D01*
X55615454Y-76876491D01*
X54200000Y-76876491D01*
X53755307Y-76960166D01*
X53346883Y-77222979D01*
X53072886Y-77623986D01*
X52976491Y-78100000D01*
X52976491Y-79900000D01*
X53060166Y-80344693D01*
X53322979Y-80753117D01*
X53723986Y-81027114D01*
X54200000Y-81123509D01*
X55615454Y-81123509D01*
X56000000Y-81200000D01*
X59000000Y-81200000D01*
X59841904Y-81032535D01*
X60555635Y-80555635D01*
X61500339Y-79610931D01*
X61499654Y-80396079D01*
X61803494Y-81131429D01*
X62365612Y-81694529D01*
X63100430Y-81999652D01*
X63896079Y-82000346D01*
X64631429Y-81696506D01*
X65194529Y-81134388D01*
X65499652Y-80399570D01*
X65500346Y-79603921D01*
X65196506Y-78868571D01*
X64634388Y-78305471D01*
X63899570Y-78000348D01*
X63103921Y-77999654D01*
X62368571Y-78303494D01*
X62082909Y-78588657D01*
X62200000Y-78000000D01*
X62200000Y-75080000D01*
X125941227Y-75080000D01*
X126101080Y-75883635D01*
X126556303Y-76564924D01*
X127237592Y-77020147D01*
X128041227Y-77180000D01*
X129958773Y-77180000D01*
X130762408Y-77020147D01*
X131443697Y-76564924D01*
X131898920Y-75883635D01*
X132058773Y-75080000D01*
X131898920Y-74276365D01*
X131443697Y-73595076D01*
X130762408Y-73139853D01*
X129958773Y-72980000D01*
X128041227Y-72980000D01*
X127237592Y-73139853D01*
X126556303Y-73595076D01*
X126101080Y-74276365D01*
X125941227Y-75080000D01*
X62200000Y-75080000D01*
X62200000Y-69432981D01*
X92600000Y-69432981D01*
X92600000Y-69527019D01*
X92782689Y-70445459D01*
X93302944Y-71224075D01*
X94081560Y-71744330D01*
X95000000Y-71927019D01*
X95918440Y-71744330D01*
X96697056Y-71224075D01*
X97217311Y-70445459D01*
X97400000Y-69527019D01*
X97400000Y-69432981D01*
X97217311Y-68514541D01*
X96697056Y-67735925D01*
X95918440Y-67215670D01*
X95000000Y-67032981D01*
X94081560Y-67215670D01*
X93302944Y-67735925D01*
X92782689Y-68514541D01*
X92600000Y-69432981D01*
X62200000Y-69432981D01*
X62200000Y-68829711D01*
X62734633Y-69186941D01*
X63500000Y-69339182D01*
X64265367Y-69186941D01*
X64914214Y-68753396D01*
X65347759Y-68104549D01*
X65500000Y-67339182D01*
X65500000Y-67260818D01*
X65347759Y-66495451D01*
X64914214Y-65846604D01*
X64265367Y-65413059D01*
X63500000Y-65260818D01*
X62734633Y-65413059D01*
X62200000Y-65770289D01*
X62200000Y-64911270D01*
X63058175Y-64053095D01*
X63535075Y-63339364D01*
X63702540Y-62497460D01*
X63702540Y-61970996D01*
X63755002Y-62023550D01*
X64563115Y-62359108D01*
X65438126Y-62359871D01*
X66246824Y-62025725D01*
X66866090Y-61407538D01*
X67201648Y-60599425D01*
X67202411Y-59724414D01*
X66868265Y-58915716D01*
X66250078Y-58296450D01*
X65441965Y-57960892D01*
X64566954Y-57960129D01*
X63758256Y-58294275D01*
X63702540Y-58349894D01*
X63702540Y-56408730D01*
X66558175Y-53553095D01*
X67035075Y-52839364D01*
X67202540Y-51997460D01*
X67202540Y-51113063D01*
X67225539Y-50999490D01*
X67225539Y-49000510D01*
X67141864Y-48555817D01*
X66879051Y-48147393D01*
X66478044Y-47873396D01*
X66002030Y-47777001D01*
X64003050Y-47777001D01*
X63558357Y-47860676D01*
X63249911Y-48059155D01*
X62978044Y-47873396D01*
X62502030Y-47777001D01*
X60503050Y-47777001D01*
X60058357Y-47860676D01*
X59649933Y-48123489D01*
X59545036Y-48277011D01*
X59244998Y-47976450D01*
X58841540Y-47808919D01*
X58839363Y-47807465D01*
X58836818Y-47806959D01*
X58436885Y-47640892D01*
X58000029Y-47640511D01*
X57997460Y-47640000D01*
X57994913Y-47640507D01*
X57561874Y-47640129D01*
X57158125Y-47806954D01*
X57155556Y-47807465D01*
X57153397Y-47808908D01*
X56753176Y-47974275D01*
X56444002Y-48282911D01*
X56441825Y-48284365D01*
X56246931Y-48479259D01*
X55744998Y-47976450D01*
X54936885Y-47640892D01*
X54061874Y-47640129D01*
X53253176Y-47974275D01*
X52633910Y-48592462D01*
X52298352Y-49400575D01*
X52297589Y-50275586D01*
X52631735Y-51084284D01*
X53136380Y-51589810D01*
X52941825Y-51784365D01*
X52464925Y-52498096D01*
X52297460Y-53340000D01*
X52297460Y-58886937D01*
X52274461Y-59000510D01*
X51275000Y-59000510D01*
X51275000Y-43138824D01*
X52002598Y-43138824D01*
X52324745Y-43852302D01*
X54002598Y-44582839D01*
X55832297Y-44615681D01*
X57535287Y-43945826D01*
X57675255Y-43852302D01*
X57997402Y-43138824D01*
X55000000Y-40141421D01*
X52002598Y-43138824D01*
X51275000Y-43138824D01*
X51275000Y-42732734D01*
X51861176Y-42997402D01*
X54858579Y-40000000D01*
X55141421Y-40000000D01*
X58138824Y-42997402D01*
X58852302Y-42675255D01*
X59582839Y-40997402D01*
X59615681Y-39167703D01*
X58999040Y-37600000D01*
X75376491Y-37600000D01*
X75376491Y-40400000D01*
X75460166Y-40844693D01*
X75722979Y-41253117D01*
X76123986Y-41527114D01*
X76600000Y-41623509D01*
X79400000Y-41623509D01*
X79844693Y-41539834D01*
X80253117Y-41277021D01*
X80527114Y-40876014D01*
X80623509Y-40400000D01*
X80623509Y-39475295D01*
X92599584Y-39475295D01*
X92964192Y-40357715D01*
X93638734Y-41033435D01*
X94520516Y-41399583D01*
X95475295Y-41400416D01*
X96357715Y-41035808D01*
X97033435Y-40361266D01*
X97399583Y-39479484D01*
X97400416Y-38524705D01*
X97035808Y-37642285D01*
X96993597Y-37600000D01*
X109376491Y-37600000D01*
X109376491Y-40400000D01*
X109460166Y-40844693D01*
X109722979Y-41253117D01*
X109800000Y-41305743D01*
X109800000Y-53000000D01*
X109967465Y-53841904D01*
X110205040Y-54197460D01*
X110444365Y-54555635D01*
X125976491Y-70087761D01*
X125976491Y-70900000D01*
X126060166Y-71344693D01*
X126322979Y-71753117D01*
X126723986Y-72027114D01*
X127200000Y-72123509D01*
X128615452Y-72123509D01*
X129000000Y-72200000D01*
X129384549Y-72123509D01*
X130800000Y-72123509D01*
X131244693Y-72039834D01*
X131653117Y-71777021D01*
X131927114Y-71376014D01*
X132023509Y-70900000D01*
X132023509Y-69100000D01*
X131939834Y-68655307D01*
X131677021Y-68246883D01*
X131276014Y-67972886D01*
X130800000Y-67876491D01*
X129987761Y-67876491D01*
X127158709Y-65047439D01*
X127237592Y-65100147D01*
X128041227Y-65260000D01*
X129958773Y-65260000D01*
X130762408Y-65100147D01*
X131443697Y-64644924D01*
X131898920Y-63963635D01*
X132058773Y-63160000D01*
X131898920Y-62356365D01*
X131443697Y-61675076D01*
X130762408Y-61219853D01*
X129958773Y-61060000D01*
X128041227Y-61060000D01*
X127237592Y-61219853D01*
X126556303Y-61675076D01*
X126101080Y-62356365D01*
X125941227Y-63160000D01*
X126101080Y-63963635D01*
X126153788Y-64042518D01*
X120191270Y-58080000D01*
X125941227Y-58080000D01*
X126101080Y-58883635D01*
X126556303Y-59564924D01*
X127237592Y-60020147D01*
X128041227Y-60180000D01*
X129958773Y-60180000D01*
X130762408Y-60020147D01*
X131443697Y-59564924D01*
X131898920Y-58883635D01*
X132058773Y-58080000D01*
X131898920Y-57276365D01*
X131443697Y-56595076D01*
X130762408Y-56139853D01*
X129958773Y-55980000D01*
X128041227Y-55980000D01*
X127237592Y-56139853D01*
X126556303Y-56595076D01*
X126101080Y-57276365D01*
X125941227Y-58080000D01*
X120191270Y-58080000D01*
X114211270Y-52100000D01*
X125976491Y-52100000D01*
X125976491Y-53900000D01*
X126060166Y-54344693D01*
X126322979Y-54753117D01*
X126723986Y-55027114D01*
X127200000Y-55123509D01*
X130800000Y-55123509D01*
X131244693Y-55039834D01*
X131653117Y-54777021D01*
X131927114Y-54376014D01*
X132023509Y-53900000D01*
X132023509Y-52100000D01*
X131939834Y-51655307D01*
X131677021Y-51246883D01*
X131276014Y-50972886D01*
X130800000Y-50876491D01*
X127200000Y-50876491D01*
X126755307Y-50960166D01*
X126346883Y-51222979D01*
X126072886Y-51623986D01*
X125976491Y-52100000D01*
X114211270Y-52100000D01*
X114200000Y-52088730D01*
X114200000Y-47514903D01*
X126399550Y-47514903D01*
X126794542Y-48470858D01*
X127525295Y-49202887D01*
X128480559Y-49599548D01*
X129514903Y-49600450D01*
X130470858Y-49205458D01*
X131202887Y-48474705D01*
X131599548Y-47519441D01*
X131600450Y-46485097D01*
X131205458Y-45529142D01*
X130474705Y-44797113D01*
X129519441Y-44400452D01*
X128485097Y-44399550D01*
X127529142Y-44794542D01*
X126797113Y-45525295D01*
X126400452Y-46480559D01*
X126399550Y-47514903D01*
X114200000Y-47514903D01*
X114200000Y-41311201D01*
X114253117Y-41277021D01*
X114527114Y-40876014D01*
X114623509Y-40400000D01*
X114623509Y-39514903D01*
X117399550Y-39514903D01*
X117794542Y-40470858D01*
X118525295Y-41202887D01*
X119480559Y-41599548D01*
X120514903Y-41600450D01*
X121470858Y-41205458D01*
X122122941Y-40554511D01*
X127199515Y-40554511D01*
X127624892Y-41584000D01*
X128411857Y-42372340D01*
X129440602Y-42799513D01*
X130554511Y-42800485D01*
X131584000Y-42375108D01*
X132372340Y-41588143D01*
X132799513Y-40559398D01*
X132800485Y-39445489D01*
X132375108Y-38416000D01*
X131588143Y-37627660D01*
X130559398Y-37200487D01*
X129445489Y-37199515D01*
X128416000Y-37624892D01*
X127627660Y-38411857D01*
X127200487Y-39440602D01*
X127199515Y-40554511D01*
X122122941Y-40554511D01*
X122202887Y-40474705D01*
X122599548Y-39519441D01*
X122600450Y-38485097D01*
X122205458Y-37529142D01*
X121474705Y-36797113D01*
X120519441Y-36400452D01*
X119485097Y-36399550D01*
X118529142Y-36794542D01*
X117797113Y-37525295D01*
X117400452Y-38480559D01*
X117399550Y-39514903D01*
X114623509Y-39514903D01*
X114623509Y-37600000D01*
X114539834Y-37155307D01*
X114277021Y-36746883D01*
X113876014Y-36472886D01*
X113400000Y-36376491D01*
X110600000Y-36376491D01*
X110155307Y-36460166D01*
X109746883Y-36722979D01*
X109472886Y-37123986D01*
X109376491Y-37600000D01*
X96993597Y-37600000D01*
X96361266Y-36966565D01*
X95479484Y-36600417D01*
X94524705Y-36599584D01*
X93642285Y-36964192D01*
X92966565Y-37638734D01*
X92600417Y-38520516D01*
X92599584Y-39475295D01*
X80623509Y-39475295D01*
X80623509Y-37600000D01*
X80539834Y-37155307D01*
X80277021Y-36746883D01*
X79876014Y-36472886D01*
X79400000Y-36376491D01*
X76600000Y-36376491D01*
X76155307Y-36460166D01*
X75746883Y-36722979D01*
X75472886Y-37123986D01*
X75376491Y-37600000D01*
X58999040Y-37600000D01*
X58945826Y-37464713D01*
X58852302Y-37324745D01*
X58138824Y-37002598D01*
X55141421Y-40000000D01*
X54858579Y-40000000D01*
X51861176Y-37002598D01*
X51275000Y-37267266D01*
X51275000Y-36275000D01*
X52267266Y-36275000D01*
X52002598Y-36861176D01*
M02*
