G04 #@! TF.FileFunction,Soldermask,Top*
%FSLAX46Y46*%
G04 Gerber Fmt 4.6, Leading zero omitted, Abs format (unit mm)*
G04 Created by KiCad (PCBNEW 4.0.7) date Monday, 04 June 2018 'PMt' 21:28:53*
%MOMM*%
%LPD*%
G01*
G04 APERTURE LIST*
%ADD10C,0.100000*%
%ADD11R,4.000000X2.200000*%
%ADD12O,4.000000X2.200000*%
%ADD13R,2.000000X2.000000*%
%ADD14C,2.000000*%
%ADD15O,2.000000X2.000000*%
%ADD16C,2.398980*%
%ADD17R,2.398980X2.398980*%
%ADD18C,1.840000*%
%ADD19C,6.800000*%
%ADD20R,3.200000X3.200000*%
%ADD21O,3.200000X3.200000*%
%ADD22C,3.600000*%
%ADD23C,3.200000*%
%ADD24C,2.800000*%
%ADD25O,2.800000X2.800000*%
G04 APERTURE END LIST*
D10*
D11*
X129000000Y-70000000D03*
D12*
X129000000Y-75080000D03*
X129000000Y-80160000D03*
D13*
X61000000Y-87000000D03*
D14*
X63500000Y-87000000D03*
D13*
X60329063Y-85400000D03*
D14*
X64170937Y-88600000D03*
X72000000Y-95000000D03*
D15*
X59300000Y-95000000D03*
D13*
X94000000Y-79000000D03*
D14*
X96500000Y-79000000D03*
D13*
X93329063Y-77400000D03*
D14*
X97170937Y-80600000D03*
D13*
X111000000Y-104000000D03*
D14*
X111000000Y-101500000D03*
D13*
X109400000Y-104670937D03*
D14*
X112600000Y-100829063D03*
D16*
X82160000Y-99997460D03*
D17*
X72000000Y-99997460D03*
D16*
X67840000Y-105002540D03*
D17*
X78000000Y-105002540D03*
D11*
X56000000Y-79000000D03*
D12*
X56000000Y-73920000D03*
X56000000Y-68840000D03*
D18*
X101080000Y-108500000D03*
X98540000Y-105960000D03*
X96000000Y-108500000D03*
X89080000Y-108500000D03*
X86540000Y-105960000D03*
X84000000Y-108500000D03*
D19*
X55000000Y-40000000D03*
D11*
X129000000Y-53000000D03*
D12*
X129000000Y-58080000D03*
X129000000Y-63160000D03*
D11*
X129000000Y-87000000D03*
D12*
X129000000Y-92080000D03*
X129000000Y-97160000D03*
D20*
X78000000Y-39000000D03*
D21*
X78000000Y-91000000D03*
D20*
X112000000Y-39000000D03*
D21*
X112000000Y-91000000D03*
D14*
X63500000Y-80000000D03*
D15*
X63500000Y-67300000D03*
D14*
X91000000Y-95000000D03*
D15*
X78300000Y-95000000D03*
D14*
X119000000Y-111000000D03*
D15*
X106300000Y-111000000D03*
D14*
X68000000Y-100000000D03*
D15*
X55300000Y-100000000D03*
D14*
X66000000Y-110000000D03*
D15*
X78700000Y-110000000D03*
D22*
X130000000Y-40000000D03*
X130000000Y-110000000D03*
X55000000Y-110000000D03*
D16*
X65002540Y-60160000D03*
D17*
X65002540Y-50000000D03*
D16*
X54497460Y-49840000D03*
D17*
X54497460Y-60000000D03*
D16*
X61502540Y-60160000D03*
D17*
X61502540Y-50000000D03*
D16*
X57997460Y-49840000D03*
D17*
X57997460Y-60000000D03*
D23*
X129000000Y-47000000D03*
X120000000Y-39000000D03*
X98500000Y-85500000D03*
X123000000Y-109000000D03*
D24*
X95000000Y-39000000D03*
D25*
X95000000Y-69480000D03*
D14*
X106500000Y-95000000D03*
D15*
X93800000Y-95000000D03*
D14*
X103500000Y-98500000D03*
D15*
X90800000Y-98500000D03*
M02*
