M48
;DRILL file {KiCad 4.0.7} date Monday, 04 June 2018 'PMt' 21:28:56
;FORMAT={-:-/ absolute / metric / decimal}
FMAT,2
METRIC,TZ
T1C0.800
T2C1.001
T3C1.200
T4C1.270
T5C1.400
T6C1.600
T7C3.200
T8C3.200
%
G90
G05
M71
T1
X55.3Y-100.
X59.3Y-95.
X60.329Y-85.4
X61.Y-87.
X63.5Y-67.3
X63.5Y-80.
X63.5Y-87.
X64.171Y-88.6
X66.Y-110.
X68.Y-100.
X72.Y-95.
X78.3Y-95.
X78.7Y-110.
X84.Y-108.5
X86.54Y-105.96
X89.08Y-108.5
X90.8Y-98.5
X91.Y-95.
X93.329Y-77.4
X93.8Y-95.
X94.Y-79.
X96.Y-108.5
X96.5Y-79.
X97.171Y-80.6
X98.54Y-105.96
X101.08Y-108.5
X103.5Y-98.5
X106.3Y-111.
X106.5Y-95.
X109.4Y-104.671
X111.Y-101.5
X111.Y-104.
X112.6Y-100.829
X119.Y-111.
T2
X54.497Y-60.
X57.997Y-60.
X61.503Y-50.
X65.003Y-50.
X72.Y-99.997
X78.Y-105.003
T3
X56.Y-68.84
X56.Y-73.92
X56.Y-79.
X95.Y-39.
X95.Y-69.48
X129.Y-53.
X129.Y-58.08
X129.Y-63.16
X129.Y-70.
X129.Y-75.08
X129.Y-80.16
X129.Y-87.
X129.Y-92.08
X129.Y-97.16
T4
X54.497Y-49.84
X57.997Y-49.84
X61.503Y-60.16
X65.003Y-60.16
X67.84Y-105.003
X82.16Y-99.997
T5
X78.Y-39.
X78.Y-91.
X112.Y-39.
X112.Y-91.
T6
X98.5Y-85.5
X120.Y-39.
X123.Y-109.
X129.Y-47.
T7
X55.Y-40.
T8
X55.Y-110.
X130.Y-40.
X130.Y-110.
T0
M30
