G04 #@! TF.FileFunction,Legend,Bot*
%FSLAX46Y46*%
G04 Gerber Fmt 4.6, Leading zero omitted, Abs format (unit mm)*
G04 Created by KiCad (PCBNEW 4.0.7) date Monday, 04 June 2018 'PMt' 21:28:53*
%MOMM*%
%LPD*%
G01*
G04 APERTURE LIST*
%ADD10C,0.100000*%
%ADD11C,0.300000*%
%ADD12C,0.120000*%
G04 APERTURE END LIST*
D10*
D11*
X100910714Y-103315476D02*
X100196429Y-103315476D01*
X100553572Y-104565476D02*
X100553572Y-103315476D01*
X99779762Y-104565476D02*
X99779762Y-103732143D01*
X99779762Y-103970238D02*
X99720238Y-103851190D01*
X99660714Y-103791667D01*
X99541667Y-103732143D01*
X99422619Y-103732143D01*
X99005952Y-104565476D02*
X99005952Y-103732143D01*
X99005952Y-103315476D02*
X99065476Y-103375000D01*
X99005952Y-103434524D01*
X98946428Y-103375000D01*
X99005952Y-103315476D01*
X99005952Y-103434524D01*
X98410714Y-104565476D02*
X98410714Y-103732143D01*
X98410714Y-103851190D02*
X98351190Y-103791667D01*
X98232143Y-103732143D01*
X98053571Y-103732143D01*
X97934523Y-103791667D01*
X97875000Y-103910714D01*
X97875000Y-104565476D01*
X97875000Y-103910714D02*
X97815476Y-103791667D01*
X97696428Y-103732143D01*
X97517857Y-103732143D01*
X97398809Y-103791667D01*
X97339285Y-103910714D01*
X97339285Y-104565476D01*
X96803571Y-104208333D02*
X96208333Y-104208333D01*
X96922618Y-104565476D02*
X96505952Y-103315476D01*
X96089285Y-104565476D01*
X89000000Y-103315476D02*
X88285715Y-103315476D01*
X88642858Y-104565476D02*
X88642858Y-103315476D01*
X87869048Y-104565476D02*
X87869048Y-103732143D01*
X87869048Y-103970238D02*
X87809524Y-103851190D01*
X87750000Y-103791667D01*
X87630953Y-103732143D01*
X87511905Y-103732143D01*
X87095238Y-104565476D02*
X87095238Y-103732143D01*
X87095238Y-103315476D02*
X87154762Y-103375000D01*
X87095238Y-103434524D01*
X87035714Y-103375000D01*
X87095238Y-103315476D01*
X87095238Y-103434524D01*
X86500000Y-104565476D02*
X86500000Y-103732143D01*
X86500000Y-103851190D02*
X86440476Y-103791667D01*
X86321429Y-103732143D01*
X86142857Y-103732143D01*
X86023809Y-103791667D01*
X85964286Y-103910714D01*
X85964286Y-104565476D01*
X85964286Y-103910714D02*
X85904762Y-103791667D01*
X85785714Y-103732143D01*
X85607143Y-103732143D01*
X85488095Y-103791667D01*
X85428571Y-103910714D01*
X85428571Y-104565476D01*
X84416666Y-103910714D02*
X84238095Y-103970238D01*
X84178571Y-104029762D01*
X84119047Y-104148810D01*
X84119047Y-104327381D01*
X84178571Y-104446429D01*
X84238095Y-104505952D01*
X84357142Y-104565476D01*
X84833333Y-104565476D01*
X84833333Y-103315476D01*
X84416666Y-103315476D01*
X84297619Y-103375000D01*
X84238095Y-103434524D01*
X84178571Y-103553571D01*
X84178571Y-103672619D01*
X84238095Y-103791667D01*
X84297619Y-103851190D01*
X84416666Y-103910714D01*
X84833333Y-103910714D01*
D12*
X94414000Y-105010000D02*
X94414000Y-111100000D01*
X102665000Y-105010000D02*
X102665000Y-111100000D01*
X94414000Y-105010000D02*
X102665000Y-105010000D01*
X94414000Y-111100000D02*
X102665000Y-111100000D01*
X94670000Y-111100000D02*
X94670000Y-113131000D01*
X102410000Y-111100000D02*
X102410000Y-113131000D01*
X94670000Y-111100000D02*
X102410000Y-111100000D01*
X94670000Y-113131000D02*
X102410000Y-113131000D01*
X82414000Y-105010000D02*
X82414000Y-111100000D01*
X90665000Y-105010000D02*
X90665000Y-111100000D01*
X82414000Y-105010000D02*
X90665000Y-105010000D01*
X82414000Y-111100000D02*
X90665000Y-111100000D01*
X82670000Y-111100000D02*
X82670000Y-113131000D01*
X90410000Y-111100000D02*
X90410000Y-113131000D01*
X82670000Y-111100000D02*
X90410000Y-111100000D01*
X82670000Y-113131000D02*
X90410000Y-113131000D01*
M02*
