%TF.GenerationSoftware,KiCad,Pcbnew,(5.1.5-0-10_14)*%
%TF.CreationDate,2020-09-13T21:19:58+01:00*%
%TF.ProjectId,PowerSupply,506f7765-7253-4757-9070-6c792e6b6963,rev?*%
%TF.SameCoordinates,Original*%
%TF.FileFunction,Copper,L1,Top*%
%TF.FilePolarity,Positive*%
%FSLAX46Y46*%
G04 Gerber Fmt 4.6, Leading zero omitted, Abs format (unit mm)*
G04 Created by KiCad (PCBNEW (5.1.5-0-10_14)) date 2020-09-13 21:19:58*
%MOMM*%
%LPD*%
G04 APERTURE LIST*
%ADD10R,3.600000X1.800000*%
%ADD11O,3.600000X1.800000*%
%ADD12R,1.600000X1.600000*%
%ADD13C,1.600000*%
%ADD14O,1.600000X1.600000*%
%ADD15C,1.998980*%
%ADD16R,1.998980X1.998980*%
%ADD17C,1.440000*%
%ADD18C,6.400000*%
%ADD19R,2.800000X2.800000*%
%ADD20O,2.800000X2.800000*%
%ADD21C,2.800000*%
%ADD22C,2.400000*%
%ADD23O,2.400000X2.400000*%
%ADD24C,1.000000*%
%ADD25C,2.000000*%
%ADD26C,0.800000*%
G04 APERTURE END LIST*
D10*
X129000000Y-70000000D03*
D11*
X129000000Y-75080000D03*
X129000000Y-80160000D03*
D12*
X61000000Y-87000000D03*
D13*
X63500000Y-87000000D03*
D12*
X60329063Y-85400000D03*
D13*
X64170937Y-88600000D03*
X72000000Y-95000000D03*
D14*
X59300000Y-95000000D03*
D12*
X94000000Y-79000000D03*
D13*
X96500000Y-79000000D03*
D12*
X93329063Y-77400000D03*
D13*
X97170937Y-80600000D03*
D12*
X111000000Y-104000000D03*
D13*
X111000000Y-101500000D03*
D12*
X109400000Y-104670937D03*
D13*
X112600000Y-100829063D03*
D15*
X82160000Y-99997460D03*
D16*
X72000000Y-99997460D03*
D15*
X67840000Y-105002540D03*
D16*
X78000000Y-105002540D03*
D10*
X56000000Y-79000000D03*
D11*
X56000000Y-73920000D03*
X56000000Y-68840000D03*
D17*
X101080000Y-108500000D03*
X98540000Y-105960000D03*
X96000000Y-108500000D03*
X89080000Y-108500000D03*
X86540000Y-105960000D03*
X84000000Y-108500000D03*
D18*
X55000000Y-40000000D03*
D10*
X129000000Y-53000000D03*
D11*
X129000000Y-58080000D03*
X129000000Y-63160000D03*
D10*
X129000000Y-87000000D03*
D11*
X129000000Y-92080000D03*
X129000000Y-97160000D03*
D19*
X78000000Y-39000000D03*
D20*
X78000000Y-91000000D03*
D19*
X112000000Y-39000000D03*
D20*
X112000000Y-91000000D03*
D13*
X63500000Y-80000000D03*
D14*
X63500000Y-67300000D03*
D13*
X91000000Y-95000000D03*
D14*
X78300000Y-95000000D03*
D13*
X119000000Y-111000000D03*
D14*
X106300000Y-111000000D03*
D13*
X68000000Y-100000000D03*
D14*
X55300000Y-100000000D03*
D13*
X66000000Y-110000000D03*
D14*
X78700000Y-110000000D03*
D15*
X65002540Y-60160000D03*
D16*
X65002540Y-50000000D03*
D15*
X54497460Y-49840000D03*
D16*
X54497460Y-60000000D03*
D15*
X61502540Y-60160000D03*
D16*
X61502540Y-50000000D03*
D15*
X57997460Y-49840000D03*
D16*
X57997460Y-60000000D03*
D21*
X129000000Y-47000000D03*
X120000000Y-39000000D03*
X98500000Y-85500000D03*
X123000000Y-109000000D03*
D22*
X95000000Y-39000000D03*
D23*
X95000000Y-69480000D03*
D13*
X106500000Y-95000000D03*
D14*
X93800000Y-95000000D03*
D13*
X103500000Y-98500000D03*
D14*
X90800000Y-98500000D03*
D24*
X55300000Y-100000000D02*
X60500000Y-100000000D01*
X84000000Y-106000000D02*
X84000000Y-108500000D01*
X75500000Y-97500000D02*
X84000000Y-106000000D01*
X63000000Y-97500000D02*
X75500000Y-97500000D01*
X60500000Y-100000000D02*
X63000000Y-97500000D01*
X84000000Y-108500000D02*
X87000000Y-111500000D01*
X87000000Y-111500000D02*
X93000000Y-111500000D01*
X93000000Y-111500000D02*
X96000000Y-108500000D01*
X78300000Y-95000000D02*
X85000000Y-95000000D01*
X92960000Y-105960000D02*
X98540000Y-105960000D01*
X88000000Y-101000000D02*
X92960000Y-105960000D01*
X88000000Y-98000000D02*
X88000000Y-101000000D01*
X85000000Y-95000000D02*
X88000000Y-98000000D01*
X78000000Y-105002540D02*
X78000000Y-109300000D01*
X78000000Y-109300000D02*
X78700000Y-110000000D01*
X68000000Y-100000000D02*
X68000000Y-100500000D01*
X68000000Y-100500000D02*
X72502540Y-105002540D01*
X72502540Y-105002540D02*
X78000000Y-105002540D01*
D25*
X61502540Y-60160000D02*
X61502540Y-55497460D01*
X65002540Y-51997460D02*
X65002540Y-50000000D01*
X61502540Y-55497460D02*
X65002540Y-51997460D01*
X56000000Y-79000000D02*
X59000000Y-79000000D01*
X61502540Y-62497460D02*
X61502540Y-60160000D01*
X60000000Y-64000000D02*
X61502540Y-62497460D01*
X60000000Y-78000000D02*
X60000000Y-64000000D01*
X59000000Y-79000000D02*
X60000000Y-78000000D01*
X57997460Y-60000000D02*
X57997460Y-53505080D01*
X57997460Y-53505080D02*
X61502540Y-50000000D01*
X112000000Y-39000000D02*
X112000000Y-53000000D01*
X112000000Y-53000000D02*
X129000000Y-70000000D01*
D24*
X129000000Y-87000000D02*
X119000000Y-87000000D01*
X94000000Y-79000000D02*
X94000000Y-78070937D01*
D25*
X94000000Y-78070937D02*
X93329063Y-77400000D01*
D24*
X91500000Y-89000000D02*
X91500000Y-81500000D01*
X91500000Y-81500000D02*
X94000000Y-79000000D01*
X109400000Y-104670937D02*
X110329063Y-104670937D01*
D25*
X110329063Y-104670937D02*
X111000000Y-104000000D01*
D24*
X111000000Y-104000000D02*
X112000000Y-104000000D01*
X112000000Y-104000000D02*
X119000000Y-111000000D01*
X119000000Y-111000000D02*
X119000000Y-87000000D01*
X60329063Y-85400000D02*
X61600000Y-85400000D01*
X107000000Y-87000000D02*
X105000000Y-89000000D01*
X61600000Y-85400000D02*
X63000000Y-84000000D01*
X63000000Y-84000000D02*
X80000000Y-84000000D01*
X80000000Y-84000000D02*
X85000000Y-89000000D01*
X85000000Y-89000000D02*
X91500000Y-89000000D01*
X91500000Y-89000000D02*
X105000000Y-89000000D01*
X119000000Y-87000000D02*
X107000000Y-87000000D01*
D25*
X54497460Y-60000000D02*
X54497460Y-53340000D01*
X54497460Y-53340000D02*
X57997460Y-49840000D01*
D24*
X67840000Y-105160000D02*
X66000000Y-107000000D01*
X66000000Y-107000000D02*
X66000000Y-110000000D01*
D25*
X67840000Y-105002540D02*
X67840000Y-105160000D01*
D26*
G36*
X52050597Y-36909175D02*
G01*
X55000000Y-39858579D01*
X57949403Y-36909175D01*
X57667531Y-36275000D01*
X133725000Y-36275000D01*
X133725001Y-113725000D01*
X51275000Y-113725000D01*
X51275000Y-109724224D01*
X52200000Y-109724224D01*
X52200000Y-110275776D01*
X52307602Y-110816730D01*
X52518672Y-111326297D01*
X52825098Y-111784896D01*
X53215104Y-112174902D01*
X53673703Y-112481328D01*
X54183270Y-112692398D01*
X54724224Y-112800000D01*
X55275776Y-112800000D01*
X55816730Y-112692398D01*
X56326297Y-112481328D01*
X56784896Y-112174902D01*
X57174902Y-111784896D01*
X57481328Y-111326297D01*
X57692398Y-110816730D01*
X57800000Y-110275776D01*
X57800000Y-109724224D01*
X57692398Y-109183270D01*
X57481328Y-108673703D01*
X57174902Y-108215104D01*
X56784896Y-107825098D01*
X56326297Y-107518672D01*
X55816730Y-107307602D01*
X55275776Y-107200000D01*
X54724224Y-107200000D01*
X54183270Y-107307602D01*
X53673703Y-107518672D01*
X53215104Y-107825098D01*
X52825098Y-108215104D01*
X52518672Y-108673703D01*
X52307602Y-109183270D01*
X52200000Y-109724224D01*
X51275000Y-109724224D01*
X51275000Y-99803017D01*
X53300000Y-99803017D01*
X53300000Y-100196983D01*
X53376859Y-100583378D01*
X53527623Y-100947355D01*
X53746499Y-101274926D01*
X54025074Y-101553501D01*
X54352645Y-101772377D01*
X54716622Y-101923141D01*
X55103017Y-102000000D01*
X55496983Y-102000000D01*
X55883378Y-101923141D01*
X56247355Y-101772377D01*
X56355675Y-101700000D01*
X60416500Y-101700000D01*
X60500000Y-101708224D01*
X60583500Y-101700000D01*
X60583510Y-101700000D01*
X60833258Y-101675402D01*
X61153709Y-101578194D01*
X61449039Y-101420337D01*
X61555145Y-101333258D01*
X61643031Y-101261132D01*
X61643035Y-101261128D01*
X61707897Y-101207897D01*
X61761128Y-101143035D01*
X63704163Y-99200000D01*
X66166587Y-99200000D01*
X66076859Y-99416622D01*
X66000000Y-99803017D01*
X66000000Y-100196983D01*
X66076859Y-100583378D01*
X66227623Y-100947355D01*
X66446499Y-101274926D01*
X66532642Y-101361069D01*
X66579663Y-101449039D01*
X66738868Y-101643031D01*
X66738872Y-101643035D01*
X66792103Y-101707897D01*
X66856964Y-101761127D01*
X67892948Y-102797111D01*
X67840000Y-102791896D01*
X67726752Y-102803050D01*
X67623369Y-102803050D01*
X67521974Y-102823219D01*
X67408725Y-102834373D01*
X67299822Y-102867408D01*
X67198433Y-102887576D01*
X67102930Y-102927134D01*
X66994023Y-102960171D01*
X66893655Y-103013819D01*
X66798151Y-103053378D01*
X66712196Y-103110811D01*
X66611832Y-103164457D01*
X66523865Y-103236650D01*
X66437907Y-103294085D01*
X66364805Y-103367187D01*
X66276839Y-103439379D01*
X66204647Y-103527345D01*
X66131545Y-103600447D01*
X66074110Y-103686405D01*
X66001917Y-103774372D01*
X65948272Y-103874735D01*
X65890838Y-103960691D01*
X65851278Y-104056198D01*
X65797631Y-104156564D01*
X65764596Y-104265468D01*
X65725036Y-104360973D01*
X65704868Y-104462365D01*
X65671833Y-104571266D01*
X65660679Y-104684513D01*
X65640510Y-104785909D01*
X65640510Y-104889293D01*
X65640000Y-104894471D01*
X65640000Y-104955837D01*
X64856965Y-105738872D01*
X64792103Y-105792103D01*
X64738873Y-105856964D01*
X64738868Y-105856969D01*
X64579663Y-106050961D01*
X64495287Y-106208818D01*
X64421806Y-106346292D01*
X64324598Y-106666743D01*
X64300000Y-106916491D01*
X64300000Y-106916500D01*
X64291776Y-107000000D01*
X64300000Y-107083500D01*
X64300001Y-108944324D01*
X64227623Y-109052645D01*
X64076859Y-109416622D01*
X64000000Y-109803017D01*
X64000000Y-110196983D01*
X64076859Y-110583378D01*
X64227623Y-110947355D01*
X64446499Y-111274926D01*
X64725074Y-111553501D01*
X65052645Y-111772377D01*
X65416622Y-111923141D01*
X65803017Y-112000000D01*
X66196983Y-112000000D01*
X66583378Y-111923141D01*
X66947355Y-111772377D01*
X67274926Y-111553501D01*
X67553501Y-111274926D01*
X67772377Y-110947355D01*
X67923141Y-110583378D01*
X68000000Y-110196983D01*
X68000000Y-109803017D01*
X67923141Y-109416622D01*
X67772377Y-109052645D01*
X67700000Y-108944325D01*
X67700000Y-107704163D01*
X68054662Y-107349502D01*
X68271275Y-107328167D01*
X68685977Y-107202369D01*
X69068168Y-106998083D01*
X69403161Y-106723161D01*
X69678083Y-106388168D01*
X69882369Y-106005976D01*
X70008167Y-105591274D01*
X70040000Y-105268069D01*
X70040000Y-104944163D01*
X71241412Y-106145575D01*
X71294643Y-106210437D01*
X71359505Y-106263668D01*
X71359508Y-106263671D01*
X71553500Y-106422877D01*
X71648262Y-106473528D01*
X71848831Y-106580734D01*
X72169282Y-106677942D01*
X72419030Y-106702540D01*
X72419039Y-106702540D01*
X72502539Y-106710764D01*
X72586039Y-106702540D01*
X76023032Y-106702540D01*
X76147876Y-106854664D01*
X76300000Y-106979509D01*
X76300001Y-109216490D01*
X76291776Y-109300000D01*
X76324599Y-109633258D01*
X76421807Y-109953709D01*
X76579663Y-110249039D01*
X76738868Y-110443031D01*
X76738877Y-110443040D01*
X76752164Y-110459231D01*
X76776859Y-110583378D01*
X76927623Y-110947355D01*
X77146499Y-111274926D01*
X77425074Y-111553501D01*
X77752645Y-111772377D01*
X78116622Y-111923141D01*
X78503017Y-112000000D01*
X78896983Y-112000000D01*
X79283378Y-111923141D01*
X79647355Y-111772377D01*
X79974926Y-111553501D01*
X80253501Y-111274926D01*
X80472377Y-110947355D01*
X80623141Y-110583378D01*
X80700000Y-110196983D01*
X80700000Y-109803017D01*
X80623141Y-109416622D01*
X80472377Y-109052645D01*
X80253501Y-108725074D01*
X79974926Y-108446499D01*
X79700000Y-108262799D01*
X79700000Y-106979508D01*
X79852124Y-106854664D01*
X80002081Y-106671940D01*
X80113509Y-106463472D01*
X80182127Y-106237271D01*
X80205296Y-106002030D01*
X80205296Y-104609459D01*
X82300000Y-106704163D01*
X82300001Y-107588320D01*
X82298518Y-107590539D01*
X82153785Y-107939957D01*
X82080000Y-108310897D01*
X82080000Y-108689103D01*
X82153785Y-109060043D01*
X82298518Y-109409461D01*
X82508639Y-109723929D01*
X82776071Y-109991361D01*
X83090539Y-110201482D01*
X83439957Y-110346215D01*
X83442572Y-110346735D01*
X85738872Y-112643035D01*
X85792103Y-112707897D01*
X85856965Y-112761128D01*
X85856969Y-112761132D01*
X85904330Y-112800000D01*
X86050961Y-112920337D01*
X86346291Y-113078194D01*
X86666742Y-113175402D01*
X86916490Y-113200000D01*
X86916498Y-113200000D01*
X87000000Y-113208224D01*
X87083502Y-113200000D01*
X92916500Y-113200000D01*
X93000000Y-113208224D01*
X93083500Y-113200000D01*
X93083510Y-113200000D01*
X93333258Y-113175402D01*
X93653709Y-113078194D01*
X93949039Y-112920337D01*
X94095670Y-112800000D01*
X94143031Y-112761132D01*
X94143035Y-112761128D01*
X94207897Y-112707897D01*
X94261128Y-112643035D01*
X96101146Y-110803017D01*
X104300000Y-110803017D01*
X104300000Y-111196983D01*
X104376859Y-111583378D01*
X104527623Y-111947355D01*
X104746499Y-112274926D01*
X105025074Y-112553501D01*
X105352645Y-112772377D01*
X105716622Y-112923141D01*
X106103017Y-113000000D01*
X106496983Y-113000000D01*
X106883378Y-112923141D01*
X107247355Y-112772377D01*
X107574926Y-112553501D01*
X107853501Y-112274926D01*
X108072377Y-111947355D01*
X108223141Y-111583378D01*
X108300000Y-111196983D01*
X108300000Y-110803017D01*
X108223141Y-110416622D01*
X108072377Y-110052645D01*
X107853501Y-109725074D01*
X107574926Y-109446499D01*
X107247355Y-109227623D01*
X106883378Y-109076859D01*
X106496983Y-109000000D01*
X106103017Y-109000000D01*
X105716622Y-109076859D01*
X105352645Y-109227623D01*
X105025074Y-109446499D01*
X104746499Y-109725074D01*
X104527623Y-110052645D01*
X104376859Y-110416622D01*
X104300000Y-110803017D01*
X96101146Y-110803017D01*
X96557428Y-110346735D01*
X96560043Y-110346215D01*
X96909461Y-110201482D01*
X97223929Y-109991361D01*
X97491361Y-109723929D01*
X97701482Y-109409461D01*
X97846215Y-109060043D01*
X97920000Y-108689103D01*
X97920000Y-108310897D01*
X97846215Y-107939957D01*
X97751646Y-107711646D01*
X97979957Y-107806215D01*
X98350897Y-107880000D01*
X98729103Y-107880000D01*
X99100043Y-107806215D01*
X99328354Y-107711646D01*
X99233785Y-107939957D01*
X99160000Y-108310897D01*
X99160000Y-108689103D01*
X99233785Y-109060043D01*
X99378518Y-109409461D01*
X99588639Y-109723929D01*
X99856071Y-109991361D01*
X100170539Y-110201482D01*
X100519957Y-110346215D01*
X100890897Y-110420000D01*
X101269103Y-110420000D01*
X101640043Y-110346215D01*
X101989461Y-110201482D01*
X102303929Y-109991361D01*
X102571361Y-109723929D01*
X102781482Y-109409461D01*
X102926215Y-109060043D01*
X103000000Y-108689103D01*
X103000000Y-108310897D01*
X102926215Y-107939957D01*
X102781482Y-107590539D01*
X102571361Y-107276071D01*
X102303929Y-107008639D01*
X101989461Y-106798518D01*
X101640043Y-106653785D01*
X101269103Y-106580000D01*
X100890897Y-106580000D01*
X100519957Y-106653785D01*
X100291646Y-106748354D01*
X100386215Y-106520043D01*
X100460000Y-106149103D01*
X100460000Y-105770897D01*
X100386215Y-105399957D01*
X100241482Y-105050539D01*
X100031361Y-104736071D01*
X99763929Y-104468639D01*
X99449461Y-104258518D01*
X99100043Y-104113785D01*
X98729103Y-104040000D01*
X98350897Y-104040000D01*
X97979957Y-104113785D01*
X97630539Y-104258518D01*
X97628321Y-104260000D01*
X93664163Y-104260000D01*
X89700000Y-100295837D01*
X89700000Y-100170383D01*
X89852645Y-100272377D01*
X90216622Y-100423141D01*
X90603017Y-100500000D01*
X90996983Y-100500000D01*
X91383378Y-100423141D01*
X91747355Y-100272377D01*
X92074926Y-100053501D01*
X92353501Y-99774926D01*
X92572377Y-99447355D01*
X92723141Y-99083378D01*
X92800000Y-98696983D01*
X92800000Y-98303017D01*
X101500000Y-98303017D01*
X101500000Y-98696983D01*
X101576859Y-99083378D01*
X101727623Y-99447355D01*
X101946499Y-99774926D01*
X102225074Y-100053501D01*
X102552645Y-100272377D01*
X102916622Y-100423141D01*
X103303017Y-100500000D01*
X103696983Y-100500000D01*
X104083378Y-100423141D01*
X104447355Y-100272377D01*
X104774926Y-100053501D01*
X105053501Y-99774926D01*
X105272377Y-99447355D01*
X105423141Y-99083378D01*
X105500000Y-98696983D01*
X105500000Y-98303017D01*
X105423141Y-97916622D01*
X105272377Y-97552645D01*
X105053501Y-97225074D01*
X104774926Y-96946499D01*
X104447355Y-96727623D01*
X104083378Y-96576859D01*
X103696983Y-96500000D01*
X103303017Y-96500000D01*
X102916622Y-96576859D01*
X102552645Y-96727623D01*
X102225074Y-96946499D01*
X101946499Y-97225074D01*
X101727623Y-97552645D01*
X101576859Y-97916622D01*
X101500000Y-98303017D01*
X92800000Y-98303017D01*
X92723141Y-97916622D01*
X92572377Y-97552645D01*
X92353501Y-97225074D01*
X92074926Y-96946499D01*
X91865239Y-96806391D01*
X91947355Y-96772377D01*
X92274926Y-96553501D01*
X92400000Y-96428427D01*
X92525074Y-96553501D01*
X92852645Y-96772377D01*
X93216622Y-96923141D01*
X93603017Y-97000000D01*
X93996983Y-97000000D01*
X94383378Y-96923141D01*
X94747355Y-96772377D01*
X95074926Y-96553501D01*
X95353501Y-96274926D01*
X95572377Y-95947355D01*
X95723141Y-95583378D01*
X95800000Y-95196983D01*
X95800000Y-94803017D01*
X104500000Y-94803017D01*
X104500000Y-95196983D01*
X104576859Y-95583378D01*
X104727623Y-95947355D01*
X104946499Y-96274926D01*
X105225074Y-96553501D01*
X105552645Y-96772377D01*
X105916622Y-96923141D01*
X106303017Y-97000000D01*
X106696983Y-97000000D01*
X107083378Y-96923141D01*
X107447355Y-96772377D01*
X107774926Y-96553501D01*
X108053501Y-96274926D01*
X108272377Y-95947355D01*
X108423141Y-95583378D01*
X108500000Y-95196983D01*
X108500000Y-94803017D01*
X108423141Y-94416622D01*
X108272377Y-94052645D01*
X108053501Y-93725074D01*
X107774926Y-93446499D01*
X107447355Y-93227623D01*
X107083378Y-93076859D01*
X106696983Y-93000000D01*
X106303017Y-93000000D01*
X105916622Y-93076859D01*
X105552645Y-93227623D01*
X105225074Y-93446499D01*
X104946499Y-93725074D01*
X104727623Y-94052645D01*
X104576859Y-94416622D01*
X104500000Y-94803017D01*
X95800000Y-94803017D01*
X95723141Y-94416622D01*
X95572377Y-94052645D01*
X95353501Y-93725074D01*
X95074926Y-93446499D01*
X94747355Y-93227623D01*
X94383378Y-93076859D01*
X93996983Y-93000000D01*
X93603017Y-93000000D01*
X93216622Y-93076859D01*
X92852645Y-93227623D01*
X92525074Y-93446499D01*
X92400000Y-93571573D01*
X92274926Y-93446499D01*
X91947355Y-93227623D01*
X91583378Y-93076859D01*
X91196983Y-93000000D01*
X90803017Y-93000000D01*
X90416622Y-93076859D01*
X90052645Y-93227623D01*
X89725074Y-93446499D01*
X89446499Y-93725074D01*
X89227623Y-94052645D01*
X89076859Y-94416622D01*
X89000000Y-94803017D01*
X89000000Y-95196983D01*
X89076859Y-95583378D01*
X89227623Y-95947355D01*
X89446499Y-96274926D01*
X89725074Y-96553501D01*
X89934761Y-96693609D01*
X89852645Y-96727623D01*
X89525074Y-96946499D01*
X89420433Y-97051140D01*
X89420337Y-97050961D01*
X89334607Y-96946499D01*
X89261132Y-96856969D01*
X89261128Y-96856965D01*
X89207897Y-96792103D01*
X89143036Y-96738873D01*
X86261128Y-93856965D01*
X86207897Y-93792103D01*
X86143035Y-93738872D01*
X86143031Y-93738868D01*
X85949039Y-93579663D01*
X85934906Y-93572109D01*
X85653709Y-93421806D01*
X85333258Y-93324598D01*
X85083510Y-93300000D01*
X85083500Y-93300000D01*
X85000000Y-93291776D01*
X84916500Y-93300000D01*
X79355675Y-93300000D01*
X79296679Y-93260580D01*
X79657403Y-93019552D01*
X80019552Y-92657403D01*
X80304090Y-92231562D01*
X80500083Y-91758392D01*
X80600000Y-91256078D01*
X80600000Y-90743922D01*
X80500083Y-90241608D01*
X80304090Y-89768438D01*
X80019552Y-89342597D01*
X79657403Y-88980448D01*
X79231562Y-88695910D01*
X78758392Y-88499917D01*
X78256078Y-88400000D01*
X77743922Y-88400000D01*
X77241608Y-88499917D01*
X76768438Y-88695910D01*
X76342597Y-88980448D01*
X75980448Y-89342597D01*
X75695910Y-89768438D01*
X75499917Y-90241608D01*
X75400000Y-90743922D01*
X75400000Y-91256078D01*
X75499917Y-91758392D01*
X75695910Y-92231562D01*
X75980448Y-92657403D01*
X76342597Y-93019552D01*
X76768438Y-93304090D01*
X77058433Y-93424209D01*
X77025074Y-93446499D01*
X76746499Y-93725074D01*
X76527623Y-94052645D01*
X76376859Y-94416622D01*
X76300000Y-94803017D01*
X76300000Y-95196983D01*
X76376859Y-95583378D01*
X76527623Y-95947355D01*
X76746499Y-96274926D01*
X77025074Y-96553501D01*
X77352645Y-96772377D01*
X77716622Y-96923141D01*
X78103017Y-97000000D01*
X78496983Y-97000000D01*
X78883378Y-96923141D01*
X79247355Y-96772377D01*
X79355675Y-96700000D01*
X84295837Y-96700000D01*
X86300000Y-98704163D01*
X86300001Y-100916491D01*
X86291776Y-101000000D01*
X86324599Y-101333258D01*
X86421807Y-101653709D01*
X86579663Y-101949039D01*
X86738868Y-102143031D01*
X86738877Y-102143040D01*
X86792104Y-102207897D01*
X86856961Y-102261124D01*
X91698872Y-107103035D01*
X91752103Y-107167897D01*
X91816965Y-107221128D01*
X91816968Y-107221131D01*
X91883913Y-107276071D01*
X92010961Y-107380337D01*
X92306291Y-107538194D01*
X92626742Y-107635402D01*
X92876490Y-107660000D01*
X92876499Y-107660000D01*
X92959999Y-107668224D01*
X93043499Y-107660000D01*
X94269746Y-107660000D01*
X94153785Y-107939957D01*
X94153265Y-107942572D01*
X92295837Y-109800000D01*
X90495290Y-109800000D01*
X90571361Y-109723929D01*
X90781482Y-109409461D01*
X90926215Y-109060043D01*
X91000000Y-108689103D01*
X91000000Y-108310897D01*
X90926215Y-107939957D01*
X90781482Y-107590539D01*
X90571361Y-107276071D01*
X90303929Y-107008639D01*
X89989461Y-106798518D01*
X89640043Y-106653785D01*
X89269103Y-106580000D01*
X88890897Y-106580000D01*
X88519957Y-106653785D01*
X88291646Y-106748354D01*
X88386215Y-106520043D01*
X88460000Y-106149103D01*
X88460000Y-105770897D01*
X88386215Y-105399957D01*
X88241482Y-105050539D01*
X88031361Y-104736071D01*
X87763929Y-104468639D01*
X87449461Y-104258518D01*
X87100043Y-104113785D01*
X86729103Y-104040000D01*
X86350897Y-104040000D01*
X85979957Y-104113785D01*
X85630539Y-104258518D01*
X85316071Y-104468639D01*
X85094437Y-104690274D01*
X82563869Y-102159706D01*
X82801567Y-102112424D01*
X83201849Y-101946622D01*
X83562093Y-101705915D01*
X83868455Y-101399553D01*
X84109162Y-101039309D01*
X84274964Y-100639027D01*
X84359490Y-100214091D01*
X84359490Y-99780829D01*
X84274964Y-99355893D01*
X84109162Y-98955611D01*
X83868455Y-98595367D01*
X83562093Y-98289005D01*
X83201849Y-98048298D01*
X82801567Y-97882496D01*
X82376631Y-97797970D01*
X81943369Y-97797970D01*
X81518433Y-97882496D01*
X81118151Y-98048298D01*
X80757907Y-98289005D01*
X80451545Y-98595367D01*
X80210838Y-98955611D01*
X80045036Y-99355893D01*
X79997754Y-99593591D01*
X76761128Y-96356965D01*
X76707897Y-96292103D01*
X76643035Y-96238872D01*
X76643031Y-96238868D01*
X76449039Y-96079663D01*
X76153709Y-95921806D01*
X75833258Y-95824598D01*
X75583510Y-95800000D01*
X75583500Y-95800000D01*
X75500000Y-95791776D01*
X75416500Y-95800000D01*
X73833413Y-95800000D01*
X73923141Y-95583378D01*
X74000000Y-95196983D01*
X74000000Y-94803017D01*
X73923141Y-94416622D01*
X73772377Y-94052645D01*
X73553501Y-93725074D01*
X73274926Y-93446499D01*
X72947355Y-93227623D01*
X72583378Y-93076859D01*
X72196983Y-93000000D01*
X71803017Y-93000000D01*
X71416622Y-93076859D01*
X71052645Y-93227623D01*
X70725074Y-93446499D01*
X70446499Y-93725074D01*
X70227623Y-94052645D01*
X70076859Y-94416622D01*
X70000000Y-94803017D01*
X70000000Y-95196983D01*
X70076859Y-95583378D01*
X70166587Y-95800000D01*
X63083500Y-95800000D01*
X63000000Y-95791776D01*
X62916500Y-95800000D01*
X62916490Y-95800000D01*
X62666742Y-95824598D01*
X62346291Y-95921806D01*
X62295342Y-95949039D01*
X62050960Y-96079663D01*
X61856969Y-96238868D01*
X61856965Y-96238872D01*
X61792103Y-96292103D01*
X61738872Y-96356965D01*
X59795837Y-98300000D01*
X56355675Y-98300000D01*
X56247355Y-98227623D01*
X55883378Y-98076859D01*
X55496983Y-98000000D01*
X55103017Y-98000000D01*
X54716622Y-98076859D01*
X54352645Y-98227623D01*
X54025074Y-98446499D01*
X53746499Y-98725074D01*
X53527623Y-99052645D01*
X53376859Y-99416622D01*
X53300000Y-99803017D01*
X51275000Y-99803017D01*
X51275000Y-94803017D01*
X57300000Y-94803017D01*
X57300000Y-95196983D01*
X57376859Y-95583378D01*
X57527623Y-95947355D01*
X57746499Y-96274926D01*
X58025074Y-96553501D01*
X58352645Y-96772377D01*
X58716622Y-96923141D01*
X59103017Y-97000000D01*
X59496983Y-97000000D01*
X59883378Y-96923141D01*
X60247355Y-96772377D01*
X60574926Y-96553501D01*
X60853501Y-96274926D01*
X61072377Y-95947355D01*
X61223141Y-95583378D01*
X61300000Y-95196983D01*
X61300000Y-94803017D01*
X61223141Y-94416622D01*
X61072377Y-94052645D01*
X60853501Y-93725074D01*
X60574926Y-93446499D01*
X60247355Y-93227623D01*
X59883378Y-93076859D01*
X59496983Y-93000000D01*
X59103017Y-93000000D01*
X58716622Y-93076859D01*
X58352645Y-93227623D01*
X58025074Y-93446499D01*
X57746499Y-93725074D01*
X57527623Y-94052645D01*
X57376859Y-94416622D01*
X57300000Y-94803017D01*
X51275000Y-94803017D01*
X51275000Y-84600000D01*
X58323257Y-84600000D01*
X58323257Y-86200000D01*
X58346426Y-86435241D01*
X58415044Y-86661442D01*
X58526472Y-86869910D01*
X58676429Y-87052634D01*
X58859153Y-87202591D01*
X58994194Y-87274772D01*
X58994194Y-87800000D01*
X59017363Y-88035241D01*
X59085981Y-88261442D01*
X59197409Y-88469910D01*
X59347366Y-88652634D01*
X59530090Y-88802591D01*
X59738558Y-88914019D01*
X59964759Y-88982637D01*
X60200000Y-89005806D01*
X61800000Y-89005806D01*
X62035241Y-88982637D01*
X62198043Y-88933251D01*
X62247796Y-89183378D01*
X62398560Y-89547355D01*
X62617436Y-89874926D01*
X62896011Y-90153501D01*
X63223582Y-90372377D01*
X63587559Y-90523141D01*
X63973954Y-90600000D01*
X64367920Y-90600000D01*
X64754315Y-90523141D01*
X65118292Y-90372377D01*
X65445863Y-90153501D01*
X65724438Y-89874926D01*
X65943314Y-89547355D01*
X66094078Y-89183378D01*
X66170937Y-88796983D01*
X66170937Y-88403017D01*
X66094078Y-88016622D01*
X65943314Y-87652645D01*
X65724438Y-87325074D01*
X65500000Y-87100636D01*
X65500000Y-86803017D01*
X65423141Y-86416622D01*
X65272377Y-86052645D01*
X65053501Y-85725074D01*
X65028427Y-85700000D01*
X79295837Y-85700000D01*
X83738872Y-90143035D01*
X83792103Y-90207897D01*
X83856965Y-90261128D01*
X83856969Y-90261132D01*
X83992522Y-90372377D01*
X84050961Y-90420337D01*
X84346291Y-90578194D01*
X84666742Y-90675402D01*
X84916490Y-90700000D01*
X84916500Y-90700000D01*
X85000000Y-90708224D01*
X85083500Y-90700000D01*
X91416490Y-90700000D01*
X91500000Y-90708225D01*
X91583510Y-90700000D01*
X104916500Y-90700000D01*
X105000000Y-90708224D01*
X105083500Y-90700000D01*
X105083510Y-90700000D01*
X105333258Y-90675402D01*
X105653709Y-90578194D01*
X105949039Y-90420337D01*
X106007478Y-90372377D01*
X106143031Y-90261132D01*
X106143035Y-90261128D01*
X106207897Y-90207897D01*
X106261128Y-90143035D01*
X107704163Y-88700000D01*
X110762317Y-88700000D01*
X110342597Y-88980448D01*
X109980448Y-89342597D01*
X109695910Y-89768438D01*
X109499917Y-90241608D01*
X109400000Y-90743922D01*
X109400000Y-91256078D01*
X109499917Y-91758392D01*
X109695910Y-92231562D01*
X109980448Y-92657403D01*
X110342597Y-93019552D01*
X110768438Y-93304090D01*
X111241608Y-93500083D01*
X111743922Y-93600000D01*
X112256078Y-93600000D01*
X112758392Y-93500083D01*
X113231562Y-93304090D01*
X113657403Y-93019552D01*
X114019552Y-92657403D01*
X114304090Y-92231562D01*
X114500083Y-91758392D01*
X114600000Y-91256078D01*
X114600000Y-90743922D01*
X114500083Y-90241608D01*
X114304090Y-89768438D01*
X114019552Y-89342597D01*
X113657403Y-88980448D01*
X113237683Y-88700000D01*
X117300001Y-88700000D01*
X117300000Y-106895837D01*
X113261128Y-102856965D01*
X113207897Y-102792103D01*
X113163981Y-102756062D01*
X113183378Y-102752204D01*
X113547355Y-102601440D01*
X113874926Y-102382564D01*
X114153501Y-102103989D01*
X114372377Y-101776418D01*
X114523141Y-101412441D01*
X114600000Y-101026046D01*
X114600000Y-100632080D01*
X114523141Y-100245685D01*
X114372377Y-99881708D01*
X114153501Y-99554137D01*
X113874926Y-99275562D01*
X113547355Y-99056686D01*
X113183378Y-98905922D01*
X112796983Y-98829063D01*
X112403017Y-98829063D01*
X112016622Y-98905922D01*
X111652645Y-99056686D01*
X111325074Y-99275562D01*
X111100636Y-99500000D01*
X110803017Y-99500000D01*
X110416622Y-99576859D01*
X110052645Y-99727623D01*
X109725074Y-99946499D01*
X109446499Y-100225074D01*
X109227623Y-100552645D01*
X109076859Y-100916622D01*
X109000000Y-101303017D01*
X109000000Y-101696983D01*
X109076859Y-102083378D01*
X109227623Y-102447355D01*
X109244535Y-102472666D01*
X109197409Y-102530090D01*
X109125228Y-102665131D01*
X108600000Y-102665131D01*
X108364759Y-102688300D01*
X108138558Y-102756918D01*
X107930090Y-102868346D01*
X107747366Y-103018303D01*
X107597409Y-103201027D01*
X107485981Y-103409495D01*
X107417363Y-103635696D01*
X107394194Y-103870937D01*
X107394194Y-105470937D01*
X107417363Y-105706178D01*
X107485981Y-105932379D01*
X107597409Y-106140847D01*
X107747366Y-106323571D01*
X107930090Y-106473528D01*
X108138558Y-106584956D01*
X108364759Y-106653574D01*
X108600000Y-106676743D01*
X109414682Y-106676743D01*
X109483087Y-106713306D01*
X109897788Y-106839103D01*
X110329063Y-106881580D01*
X110760338Y-106839103D01*
X111175039Y-106713306D01*
X111557231Y-106509020D01*
X111808280Y-106302988D01*
X111853553Y-106257716D01*
X117051444Y-111455607D01*
X117076859Y-111583378D01*
X117227623Y-111947355D01*
X117446499Y-112274926D01*
X117725074Y-112553501D01*
X118052645Y-112772377D01*
X118416622Y-112923141D01*
X118803017Y-113000000D01*
X119196983Y-113000000D01*
X119583378Y-112923141D01*
X119947355Y-112772377D01*
X120274926Y-112553501D01*
X120553501Y-112274926D01*
X120772377Y-111947355D01*
X120923141Y-111583378D01*
X121000000Y-111196983D01*
X121000000Y-110803017D01*
X120967046Y-110637345D01*
X120980448Y-110657403D01*
X121342597Y-111019552D01*
X121768438Y-111304090D01*
X122241608Y-111500083D01*
X122743922Y-111600000D01*
X123256078Y-111600000D01*
X123758392Y-111500083D01*
X124231562Y-111304090D01*
X124657403Y-111019552D01*
X125019552Y-110657403D01*
X125304090Y-110231562D01*
X125500083Y-109758392D01*
X125506879Y-109724224D01*
X127200000Y-109724224D01*
X127200000Y-110275776D01*
X127307602Y-110816730D01*
X127518672Y-111326297D01*
X127825098Y-111784896D01*
X128215104Y-112174902D01*
X128673703Y-112481328D01*
X129183270Y-112692398D01*
X129724224Y-112800000D01*
X130275776Y-112800000D01*
X130816730Y-112692398D01*
X131326297Y-112481328D01*
X131784896Y-112174902D01*
X132174902Y-111784896D01*
X132481328Y-111326297D01*
X132692398Y-110816730D01*
X132800000Y-110275776D01*
X132800000Y-109724224D01*
X132692398Y-109183270D01*
X132481328Y-108673703D01*
X132174902Y-108215104D01*
X131784896Y-107825098D01*
X131326297Y-107518672D01*
X130816730Y-107307602D01*
X130275776Y-107200000D01*
X129724224Y-107200000D01*
X129183270Y-107307602D01*
X128673703Y-107518672D01*
X128215104Y-107825098D01*
X127825098Y-108215104D01*
X127518672Y-108673703D01*
X127307602Y-109183270D01*
X127200000Y-109724224D01*
X125506879Y-109724224D01*
X125600000Y-109256078D01*
X125600000Y-108743922D01*
X125500083Y-108241608D01*
X125304090Y-107768438D01*
X125019552Y-107342597D01*
X124657403Y-106980448D01*
X124231562Y-106695910D01*
X123758392Y-106499917D01*
X123256078Y-106400000D01*
X122743922Y-106400000D01*
X122241608Y-106499917D01*
X121768438Y-106695910D01*
X121342597Y-106980448D01*
X120980448Y-107342597D01*
X120700000Y-107762317D01*
X120700000Y-97160000D01*
X125989839Y-97160000D01*
X126030385Y-97571672D01*
X126150465Y-97967524D01*
X126345465Y-98332343D01*
X126607891Y-98652109D01*
X126927657Y-98914535D01*
X127292476Y-99109535D01*
X127688328Y-99229615D01*
X127996833Y-99260000D01*
X130003167Y-99260000D01*
X130311672Y-99229615D01*
X130707524Y-99109535D01*
X131072343Y-98914535D01*
X131392109Y-98652109D01*
X131654535Y-98332343D01*
X131849535Y-97967524D01*
X131969615Y-97571672D01*
X132010161Y-97160000D01*
X131969615Y-96748328D01*
X131849535Y-96352476D01*
X131654535Y-95987657D01*
X131392109Y-95667891D01*
X131072343Y-95405465D01*
X130707524Y-95210465D01*
X130311672Y-95090385D01*
X130003167Y-95060000D01*
X127996833Y-95060000D01*
X127688328Y-95090385D01*
X127292476Y-95210465D01*
X126927657Y-95405465D01*
X126607891Y-95667891D01*
X126345465Y-95987657D01*
X126150465Y-96352476D01*
X126030385Y-96748328D01*
X125989839Y-97160000D01*
X120700000Y-97160000D01*
X120700000Y-92080000D01*
X125989839Y-92080000D01*
X126030385Y-92491672D01*
X126150465Y-92887524D01*
X126345465Y-93252343D01*
X126607891Y-93572109D01*
X126927657Y-93834535D01*
X127292476Y-94029535D01*
X127688328Y-94149615D01*
X127996833Y-94180000D01*
X130003167Y-94180000D01*
X130311672Y-94149615D01*
X130707524Y-94029535D01*
X131072343Y-93834535D01*
X131392109Y-93572109D01*
X131654535Y-93252343D01*
X131849535Y-92887524D01*
X131969615Y-92491672D01*
X132010161Y-92080000D01*
X131969615Y-91668328D01*
X131849535Y-91272476D01*
X131654535Y-90907657D01*
X131392109Y-90587891D01*
X131072343Y-90325465D01*
X130707524Y-90130465D01*
X130311672Y-90010385D01*
X130003167Y-89980000D01*
X127996833Y-89980000D01*
X127688328Y-90010385D01*
X127292476Y-90130465D01*
X126927657Y-90325465D01*
X126607891Y-90587891D01*
X126345465Y-90907657D01*
X126150465Y-91272476D01*
X126030385Y-91668328D01*
X125989839Y-92080000D01*
X120700000Y-92080000D01*
X120700000Y-88700000D01*
X126304171Y-88700000D01*
X126347366Y-88752634D01*
X126530090Y-88902591D01*
X126738558Y-89014019D01*
X126964759Y-89082637D01*
X127200000Y-89105806D01*
X130800000Y-89105806D01*
X131035241Y-89082637D01*
X131261442Y-89014019D01*
X131469910Y-88902591D01*
X131652634Y-88752634D01*
X131802591Y-88569910D01*
X131914019Y-88361442D01*
X131982637Y-88135241D01*
X132005806Y-87900000D01*
X132005806Y-86100000D01*
X131982637Y-85864759D01*
X131914019Y-85638558D01*
X131802591Y-85430090D01*
X131652634Y-85247366D01*
X131469910Y-85097409D01*
X131261442Y-84985981D01*
X131035241Y-84917363D01*
X130800000Y-84894194D01*
X127200000Y-84894194D01*
X126964759Y-84917363D01*
X126738558Y-84985981D01*
X126530090Y-85097409D01*
X126347366Y-85247366D01*
X126304171Y-85300000D01*
X119083510Y-85300000D01*
X119000000Y-85291775D01*
X118916490Y-85300000D01*
X107083499Y-85300000D01*
X106999999Y-85291776D01*
X106916499Y-85300000D01*
X106916490Y-85300000D01*
X106666742Y-85324598D01*
X106346291Y-85421806D01*
X106330793Y-85430090D01*
X106050960Y-85579663D01*
X105856968Y-85738869D01*
X105856965Y-85738872D01*
X105792103Y-85792103D01*
X105738872Y-85856965D01*
X104295837Y-87300000D01*
X100376955Y-87300000D01*
X100519552Y-87157403D01*
X100804090Y-86731562D01*
X101000083Y-86258392D01*
X101100000Y-85756078D01*
X101100000Y-85243922D01*
X101000083Y-84741608D01*
X100804090Y-84268438D01*
X100519552Y-83842597D01*
X100157403Y-83480448D01*
X99731562Y-83195910D01*
X99258392Y-82999917D01*
X98756078Y-82900000D01*
X98243922Y-82900000D01*
X97741608Y-82999917D01*
X97268438Y-83195910D01*
X96842597Y-83480448D01*
X96480448Y-83842597D01*
X96195910Y-84268438D01*
X95999917Y-84741608D01*
X95900000Y-85243922D01*
X95900000Y-85756078D01*
X95999917Y-86258392D01*
X96195910Y-86731562D01*
X96480448Y-87157403D01*
X96623045Y-87300000D01*
X93200000Y-87300000D01*
X93200000Y-82204163D01*
X94398357Y-81005806D01*
X94800000Y-81005806D01*
X95035241Y-80982637D01*
X95198043Y-80933251D01*
X95247796Y-81183378D01*
X95398560Y-81547355D01*
X95617436Y-81874926D01*
X95896011Y-82153501D01*
X96223582Y-82372377D01*
X96587559Y-82523141D01*
X96973954Y-82600000D01*
X97367920Y-82600000D01*
X97754315Y-82523141D01*
X98118292Y-82372377D01*
X98445863Y-82153501D01*
X98724438Y-81874926D01*
X98943314Y-81547355D01*
X99094078Y-81183378D01*
X99170937Y-80796983D01*
X99170937Y-80403017D01*
X99122598Y-80160000D01*
X125989839Y-80160000D01*
X126030385Y-80571672D01*
X126150465Y-80967524D01*
X126345465Y-81332343D01*
X126607891Y-81652109D01*
X126927657Y-81914535D01*
X127292476Y-82109535D01*
X127688328Y-82229615D01*
X127996833Y-82260000D01*
X130003167Y-82260000D01*
X130311672Y-82229615D01*
X130707524Y-82109535D01*
X131072343Y-81914535D01*
X131392109Y-81652109D01*
X131654535Y-81332343D01*
X131849535Y-80967524D01*
X131969615Y-80571672D01*
X132010161Y-80160000D01*
X131969615Y-79748328D01*
X131849535Y-79352476D01*
X131654535Y-78987657D01*
X131392109Y-78667891D01*
X131072343Y-78405465D01*
X130707524Y-78210465D01*
X130311672Y-78090385D01*
X130003167Y-78060000D01*
X127996833Y-78060000D01*
X127688328Y-78090385D01*
X127292476Y-78210465D01*
X126927657Y-78405465D01*
X126607891Y-78667891D01*
X126345465Y-78987657D01*
X126150465Y-79352476D01*
X126030385Y-79748328D01*
X125989839Y-80160000D01*
X99122598Y-80160000D01*
X99094078Y-80016622D01*
X98943314Y-79652645D01*
X98724438Y-79325074D01*
X98500000Y-79100636D01*
X98500000Y-78803017D01*
X98423141Y-78416622D01*
X98272377Y-78052645D01*
X98053501Y-77725074D01*
X97774926Y-77446499D01*
X97447355Y-77227623D01*
X97083378Y-77076859D01*
X96696983Y-77000000D01*
X96303017Y-77000000D01*
X95958729Y-77068483D01*
X95838082Y-76842769D01*
X95632051Y-76591719D01*
X95271034Y-76230702D01*
X95243082Y-76138558D01*
X95131654Y-75930090D01*
X94981697Y-75747366D01*
X94798973Y-75597409D01*
X94590505Y-75485981D01*
X94364304Y-75417363D01*
X94269280Y-75408004D01*
X94175039Y-75357631D01*
X93760338Y-75231834D01*
X93329063Y-75189357D01*
X92897788Y-75231834D01*
X92483087Y-75357631D01*
X92388846Y-75408004D01*
X92293822Y-75417363D01*
X92067621Y-75485981D01*
X91859153Y-75597409D01*
X91676429Y-75747366D01*
X91526472Y-75930090D01*
X91415044Y-76138558D01*
X91346426Y-76364759D01*
X91337067Y-76459783D01*
X91286694Y-76554024D01*
X91160897Y-76968725D01*
X91118420Y-77400000D01*
X91160897Y-77831275D01*
X91286694Y-78245976D01*
X91337067Y-78340217D01*
X91346426Y-78435241D01*
X91415044Y-78661442D01*
X91526472Y-78869910D01*
X91616377Y-78979460D01*
X90356961Y-80238876D01*
X90292104Y-80292103D01*
X90238877Y-80356960D01*
X90238868Y-80356969D01*
X90079663Y-80550961D01*
X89921807Y-80846291D01*
X89824599Y-81166742D01*
X89791776Y-81500000D01*
X89800001Y-81583510D01*
X89800000Y-87300000D01*
X85704163Y-87300000D01*
X81261128Y-82856965D01*
X81207897Y-82792103D01*
X81143035Y-82738872D01*
X81143031Y-82738868D01*
X80949039Y-82579663D01*
X80653709Y-82421806D01*
X80333258Y-82324598D01*
X80083510Y-82300000D01*
X80083500Y-82300000D01*
X80000000Y-82291776D01*
X79916500Y-82300000D01*
X63083500Y-82300000D01*
X63000000Y-82291776D01*
X62916500Y-82300000D01*
X62916490Y-82300000D01*
X62666742Y-82324598D01*
X62346291Y-82421806D01*
X62295342Y-82449039D01*
X62050960Y-82579663D01*
X61856968Y-82738868D01*
X61856960Y-82738876D01*
X61792103Y-82792103D01*
X61738876Y-82856960D01*
X61195135Y-83400701D01*
X61129063Y-83394194D01*
X59529063Y-83394194D01*
X59293822Y-83417363D01*
X59067621Y-83485981D01*
X58859153Y-83597409D01*
X58676429Y-83747366D01*
X58526472Y-83930090D01*
X58415044Y-84138558D01*
X58346426Y-84364759D01*
X58323257Y-84600000D01*
X51275000Y-84600000D01*
X51275000Y-53340000D01*
X52286817Y-53340000D01*
X52297461Y-53448070D01*
X52297460Y-58946737D01*
X52292164Y-59000510D01*
X52292164Y-60999490D01*
X52315333Y-61234731D01*
X52383951Y-61460932D01*
X52495379Y-61669400D01*
X52645336Y-61852124D01*
X52828060Y-62002081D01*
X53036528Y-62113509D01*
X53262729Y-62182127D01*
X53497970Y-62205296D01*
X54443161Y-62205296D01*
X54497460Y-62210644D01*
X54551759Y-62205296D01*
X55496950Y-62205296D01*
X55732191Y-62182127D01*
X55958392Y-62113509D01*
X56166860Y-62002081D01*
X56247460Y-61935935D01*
X56328060Y-62002081D01*
X56536528Y-62113509D01*
X56762729Y-62182127D01*
X56997970Y-62205296D01*
X57943161Y-62205296D01*
X57997460Y-62210644D01*
X58051759Y-62205296D01*
X58683436Y-62205296D01*
X58520784Y-62367948D01*
X58436840Y-62436839D01*
X58367949Y-62520783D01*
X58161917Y-62771832D01*
X57957631Y-63154024D01*
X57831834Y-63568725D01*
X57789357Y-64000000D01*
X57800001Y-64108070D01*
X57800001Y-66939895D01*
X57707524Y-66890465D01*
X57311672Y-66770385D01*
X57003167Y-66740000D01*
X54996833Y-66740000D01*
X54688328Y-66770385D01*
X54292476Y-66890465D01*
X53927657Y-67085465D01*
X53607891Y-67347891D01*
X53345465Y-67667657D01*
X53150465Y-68032476D01*
X53030385Y-68428328D01*
X52989839Y-68840000D01*
X53030385Y-69251672D01*
X53150465Y-69647524D01*
X53345465Y-70012343D01*
X53607891Y-70332109D01*
X53927657Y-70594535D01*
X54292476Y-70789535D01*
X54688328Y-70909615D01*
X54996833Y-70940000D01*
X57003167Y-70940000D01*
X57311672Y-70909615D01*
X57707524Y-70789535D01*
X57800001Y-70740105D01*
X57800000Y-72019895D01*
X57707524Y-71970465D01*
X57311672Y-71850385D01*
X57003167Y-71820000D01*
X54996833Y-71820000D01*
X54688328Y-71850385D01*
X54292476Y-71970465D01*
X53927657Y-72165465D01*
X53607891Y-72427891D01*
X53345465Y-72747657D01*
X53150465Y-73112476D01*
X53030385Y-73508328D01*
X52989839Y-73920000D01*
X53030385Y-74331672D01*
X53150465Y-74727524D01*
X53345465Y-75092343D01*
X53607891Y-75412109D01*
X53927657Y-75674535D01*
X54292476Y-75869535D01*
X54688328Y-75989615D01*
X54996833Y-76020000D01*
X57003167Y-76020000D01*
X57311672Y-75989615D01*
X57707524Y-75869535D01*
X57800000Y-75820105D01*
X57800000Y-76800000D01*
X55891930Y-76800000D01*
X55568725Y-76831833D01*
X55363148Y-76894194D01*
X54200000Y-76894194D01*
X53964759Y-76917363D01*
X53738558Y-76985981D01*
X53530090Y-77097409D01*
X53347366Y-77247366D01*
X53197409Y-77430090D01*
X53085981Y-77638558D01*
X53017363Y-77864759D01*
X52994194Y-78100000D01*
X52994194Y-79900000D01*
X53017363Y-80135241D01*
X53085981Y-80361442D01*
X53197409Y-80569910D01*
X53347366Y-80752634D01*
X53530090Y-80902591D01*
X53738558Y-81014019D01*
X53964759Y-81082637D01*
X54200000Y-81105806D01*
X55363148Y-81105806D01*
X55568725Y-81168167D01*
X55891930Y-81200000D01*
X58891940Y-81200000D01*
X59000000Y-81210643D01*
X59108060Y-81200000D01*
X59108070Y-81200000D01*
X59431275Y-81168167D01*
X59845977Y-81042369D01*
X60228168Y-80838083D01*
X60563161Y-80563161D01*
X60632057Y-80479211D01*
X61479215Y-79632053D01*
X61544696Y-79578315D01*
X61500000Y-79803017D01*
X61500000Y-80196983D01*
X61576859Y-80583378D01*
X61727623Y-80947355D01*
X61946499Y-81274926D01*
X62225074Y-81553501D01*
X62552645Y-81772377D01*
X62916622Y-81923141D01*
X63303017Y-82000000D01*
X63696983Y-82000000D01*
X64083378Y-81923141D01*
X64447355Y-81772377D01*
X64774926Y-81553501D01*
X65053501Y-81274926D01*
X65272377Y-80947355D01*
X65423141Y-80583378D01*
X65500000Y-80196983D01*
X65500000Y-79803017D01*
X65423141Y-79416622D01*
X65272377Y-79052645D01*
X65053501Y-78725074D01*
X64774926Y-78446499D01*
X64447355Y-78227623D01*
X64083378Y-78076859D01*
X63696983Y-78000000D01*
X63303017Y-78000000D01*
X62916622Y-78076859D01*
X62552645Y-78227623D01*
X62225074Y-78446499D01*
X62136759Y-78534814D01*
X62168167Y-78431275D01*
X62200000Y-78108070D01*
X62200000Y-78108062D01*
X62210643Y-78000000D01*
X62200000Y-77891938D01*
X62200000Y-75080000D01*
X125989839Y-75080000D01*
X126030385Y-75491672D01*
X126150465Y-75887524D01*
X126345465Y-76252343D01*
X126607891Y-76572109D01*
X126927657Y-76834535D01*
X127292476Y-77029535D01*
X127688328Y-77149615D01*
X127996833Y-77180000D01*
X130003167Y-77180000D01*
X130311672Y-77149615D01*
X130707524Y-77029535D01*
X131072343Y-76834535D01*
X131392109Y-76572109D01*
X131654535Y-76252343D01*
X131849535Y-75887524D01*
X131969615Y-75491672D01*
X132010161Y-75080000D01*
X131969615Y-74668328D01*
X131849535Y-74272476D01*
X131654535Y-73907657D01*
X131392109Y-73587891D01*
X131072343Y-73325465D01*
X130707524Y-73130465D01*
X130311672Y-73010385D01*
X130003167Y-72980000D01*
X127996833Y-72980000D01*
X127688328Y-73010385D01*
X127292476Y-73130465D01*
X126927657Y-73325465D01*
X126607891Y-73587891D01*
X126345465Y-73907657D01*
X126150465Y-74272476D01*
X126030385Y-74668328D01*
X125989839Y-75080000D01*
X62200000Y-75080000D01*
X62200000Y-68828427D01*
X62225074Y-68853501D01*
X62552645Y-69072377D01*
X62916622Y-69223141D01*
X63303017Y-69300000D01*
X63696983Y-69300000D01*
X63980418Y-69243621D01*
X92600000Y-69243621D01*
X92600000Y-69716379D01*
X92692230Y-70180054D01*
X92873147Y-70616826D01*
X93135798Y-71009911D01*
X93470089Y-71344202D01*
X93863174Y-71606853D01*
X94299946Y-71787770D01*
X94763621Y-71880000D01*
X95236379Y-71880000D01*
X95700054Y-71787770D01*
X96136826Y-71606853D01*
X96529911Y-71344202D01*
X96864202Y-71009911D01*
X97126853Y-70616826D01*
X97307770Y-70180054D01*
X97400000Y-69716379D01*
X97400000Y-69243621D01*
X97307770Y-68779946D01*
X97126853Y-68343174D01*
X96864202Y-67950089D01*
X96529911Y-67615798D01*
X96136826Y-67353147D01*
X95700054Y-67172230D01*
X95236379Y-67080000D01*
X94763621Y-67080000D01*
X94299946Y-67172230D01*
X93863174Y-67353147D01*
X93470089Y-67615798D01*
X93135798Y-67950089D01*
X92873147Y-68343174D01*
X92692230Y-68779946D01*
X92600000Y-69243621D01*
X63980418Y-69243621D01*
X64083378Y-69223141D01*
X64447355Y-69072377D01*
X64774926Y-68853501D01*
X65053501Y-68574926D01*
X65272377Y-68247355D01*
X65423141Y-67883378D01*
X65500000Y-67496983D01*
X65500000Y-67103017D01*
X65423141Y-66716622D01*
X65272377Y-66352645D01*
X65053501Y-66025074D01*
X64774926Y-65746499D01*
X64447355Y-65527623D01*
X64083378Y-65376859D01*
X63696983Y-65300000D01*
X63303017Y-65300000D01*
X62916622Y-65376859D01*
X62552645Y-65527623D01*
X62225074Y-65746499D01*
X62200000Y-65771573D01*
X62200000Y-64911269D01*
X62981761Y-64129509D01*
X63065701Y-64060621D01*
X63204143Y-63891930D01*
X63340622Y-63725629D01*
X63422914Y-63571672D01*
X63544909Y-63343437D01*
X63670707Y-62928735D01*
X63702540Y-62605530D01*
X63702540Y-62605521D01*
X63713183Y-62497461D01*
X63702540Y-62389401D01*
X63702540Y-61936671D01*
X63960691Y-62109162D01*
X64360973Y-62274964D01*
X64785909Y-62359490D01*
X65219171Y-62359490D01*
X65644107Y-62274964D01*
X66044389Y-62109162D01*
X66404633Y-61868455D01*
X66710995Y-61562093D01*
X66951702Y-61201849D01*
X67117504Y-60801567D01*
X67202030Y-60376631D01*
X67202030Y-59943369D01*
X67117504Y-59518433D01*
X66951702Y-59118151D01*
X66710995Y-58757907D01*
X66404633Y-58451545D01*
X66044389Y-58210838D01*
X65644107Y-58045036D01*
X65219171Y-57960510D01*
X64785909Y-57960510D01*
X64360973Y-58045036D01*
X63960691Y-58210838D01*
X63702540Y-58383329D01*
X63702540Y-56408728D01*
X66481761Y-53629509D01*
X66565701Y-53560621D01*
X66652308Y-53455091D01*
X66840622Y-53225629D01*
X66961224Y-53000000D01*
X67044909Y-52843437D01*
X67170707Y-52428735D01*
X67202540Y-52105530D01*
X67202540Y-52105521D01*
X67213183Y-51997461D01*
X67202540Y-51889401D01*
X67202540Y-51053262D01*
X67207836Y-50999490D01*
X67207836Y-49000510D01*
X67184667Y-48765269D01*
X67116049Y-48539068D01*
X67004621Y-48330600D01*
X66854664Y-48147876D01*
X66671940Y-47997919D01*
X66463472Y-47886491D01*
X66237271Y-47817873D01*
X66002030Y-47794704D01*
X65056839Y-47794704D01*
X65002540Y-47789356D01*
X64948241Y-47794704D01*
X64003050Y-47794704D01*
X63767809Y-47817873D01*
X63541608Y-47886491D01*
X63333140Y-47997919D01*
X63252540Y-48064065D01*
X63171940Y-47997919D01*
X62963472Y-47886491D01*
X62737271Y-47817873D01*
X62502030Y-47794704D01*
X61556830Y-47794704D01*
X61502540Y-47789357D01*
X61448250Y-47794704D01*
X60503050Y-47794704D01*
X60267809Y-47817873D01*
X60041608Y-47886491D01*
X59833140Y-47997919D01*
X59650416Y-48147876D01*
X59551035Y-48268972D01*
X59472658Y-48204650D01*
X59399553Y-48131545D01*
X59313586Y-48074104D01*
X59225627Y-48001918D01*
X59125275Y-47948279D01*
X59039309Y-47890838D01*
X58943792Y-47851274D01*
X58843436Y-47797632D01*
X58734541Y-47764599D01*
X58639027Y-47725036D01*
X58537626Y-47704866D01*
X58428734Y-47671834D01*
X58315497Y-47660681D01*
X58214091Y-47640510D01*
X58110697Y-47640510D01*
X57997459Y-47629357D01*
X57884221Y-47640510D01*
X57780829Y-47640510D01*
X57679425Y-47660681D01*
X57566184Y-47671834D01*
X57457289Y-47704867D01*
X57355893Y-47725036D01*
X57260384Y-47764597D01*
X57151482Y-47797632D01*
X57051119Y-47851277D01*
X56955611Y-47890838D01*
X56869653Y-47948273D01*
X56769291Y-48001918D01*
X56681324Y-48074110D01*
X56595367Y-48131545D01*
X56522267Y-48204645D01*
X56518241Y-48207949D01*
X56238907Y-48487283D01*
X56205915Y-48437907D01*
X55899553Y-48131545D01*
X55539309Y-47890838D01*
X55139027Y-47725036D01*
X54714091Y-47640510D01*
X54280829Y-47640510D01*
X53855893Y-47725036D01*
X53455611Y-47890838D01*
X53095367Y-48131545D01*
X52789005Y-48437907D01*
X52548298Y-48798151D01*
X52382496Y-49198433D01*
X52297970Y-49623369D01*
X52297970Y-50056631D01*
X52382496Y-50481567D01*
X52548298Y-50881849D01*
X52789005Y-51242093D01*
X53095367Y-51548455D01*
X53144744Y-51581448D01*
X53018244Y-51707948D01*
X52934300Y-51776839D01*
X52865409Y-51860783D01*
X52659377Y-52111832D01*
X52455091Y-52494024D01*
X52329294Y-52908725D01*
X52286817Y-53340000D01*
X51275000Y-53340000D01*
X51275000Y-43090825D01*
X52050597Y-43090825D01*
X52364643Y-43797388D01*
X53156115Y-44238554D01*
X54018446Y-44516836D01*
X54918497Y-44621538D01*
X55821681Y-44548637D01*
X56693287Y-44300935D01*
X57499822Y-43887949D01*
X57635357Y-43797388D01*
X57949403Y-43090825D01*
X55000000Y-40141421D01*
X52050597Y-43090825D01*
X51275000Y-43090825D01*
X51275000Y-42667531D01*
X51909175Y-42949403D01*
X54858579Y-40000000D01*
X55141421Y-40000000D01*
X58090825Y-42949403D01*
X58797388Y-42635357D01*
X59238554Y-41843885D01*
X59516836Y-40981554D01*
X59621538Y-40081503D01*
X59548637Y-39178319D01*
X59300935Y-38306713D01*
X58939063Y-37600000D01*
X75394194Y-37600000D01*
X75394194Y-40400000D01*
X75417363Y-40635241D01*
X75485981Y-40861442D01*
X75597409Y-41069910D01*
X75747366Y-41252634D01*
X75930090Y-41402591D01*
X76138558Y-41514019D01*
X76364759Y-41582637D01*
X76600000Y-41605806D01*
X79400000Y-41605806D01*
X79635241Y-41582637D01*
X79861442Y-41514019D01*
X80069910Y-41402591D01*
X80252634Y-41252634D01*
X80402591Y-41069910D01*
X80514019Y-40861442D01*
X80582637Y-40635241D01*
X80605806Y-40400000D01*
X80605806Y-38763621D01*
X92600000Y-38763621D01*
X92600000Y-39236379D01*
X92692230Y-39700054D01*
X92873147Y-40136826D01*
X93135798Y-40529911D01*
X93470089Y-40864202D01*
X93863174Y-41126853D01*
X94299946Y-41307770D01*
X94763621Y-41400000D01*
X95236379Y-41400000D01*
X95700054Y-41307770D01*
X96136826Y-41126853D01*
X96529911Y-40864202D01*
X96864202Y-40529911D01*
X97126853Y-40136826D01*
X97307770Y-39700054D01*
X97400000Y-39236379D01*
X97400000Y-38763621D01*
X97307770Y-38299946D01*
X97126853Y-37863174D01*
X96951006Y-37600000D01*
X109394194Y-37600000D01*
X109394194Y-40400000D01*
X109417363Y-40635241D01*
X109485981Y-40861442D01*
X109597409Y-41069910D01*
X109747366Y-41252634D01*
X109800000Y-41295830D01*
X109800001Y-52891930D01*
X109789357Y-53000000D01*
X109831834Y-53431275D01*
X109957631Y-53845976D01*
X110161917Y-54228168D01*
X110271293Y-54361442D01*
X110436840Y-54563161D01*
X110520785Y-54632053D01*
X125994194Y-70105464D01*
X125994194Y-70900000D01*
X126017363Y-71135241D01*
X126085981Y-71361442D01*
X126197409Y-71569910D01*
X126347366Y-71752634D01*
X126530090Y-71902591D01*
X126738558Y-72014019D01*
X126964759Y-72082637D01*
X127200000Y-72105806D01*
X128363148Y-72105806D01*
X128568725Y-72168167D01*
X129000000Y-72210643D01*
X129431275Y-72168167D01*
X129636852Y-72105806D01*
X130800000Y-72105806D01*
X131035241Y-72082637D01*
X131261442Y-72014019D01*
X131469910Y-71902591D01*
X131652634Y-71752634D01*
X131802591Y-71569910D01*
X131914019Y-71361442D01*
X131982637Y-71135241D01*
X132005806Y-70900000D01*
X132005806Y-69100000D01*
X131982637Y-68864759D01*
X131914019Y-68638558D01*
X131802591Y-68430090D01*
X131652634Y-68247366D01*
X131469910Y-68097409D01*
X131261442Y-67985981D01*
X131035241Y-67917363D01*
X130800000Y-67894194D01*
X130005464Y-67894194D01*
X127138506Y-65027236D01*
X127292476Y-65109535D01*
X127688328Y-65229615D01*
X127996833Y-65260000D01*
X130003167Y-65260000D01*
X130311672Y-65229615D01*
X130707524Y-65109535D01*
X131072343Y-64914535D01*
X131392109Y-64652109D01*
X131654535Y-64332343D01*
X131849535Y-63967524D01*
X131969615Y-63571672D01*
X132010161Y-63160000D01*
X131969615Y-62748328D01*
X131849535Y-62352476D01*
X131654535Y-61987657D01*
X131392109Y-61667891D01*
X131072343Y-61405465D01*
X130707524Y-61210465D01*
X130311672Y-61090385D01*
X130003167Y-61060000D01*
X127996833Y-61060000D01*
X127688328Y-61090385D01*
X127292476Y-61210465D01*
X126927657Y-61405465D01*
X126607891Y-61667891D01*
X126345465Y-61987657D01*
X126150465Y-62352476D01*
X126030385Y-62748328D01*
X125989839Y-63160000D01*
X126030385Y-63571672D01*
X126150465Y-63967524D01*
X126232764Y-64121495D01*
X120191269Y-58080000D01*
X125989839Y-58080000D01*
X126030385Y-58491672D01*
X126150465Y-58887524D01*
X126345465Y-59252343D01*
X126607891Y-59572109D01*
X126927657Y-59834535D01*
X127292476Y-60029535D01*
X127688328Y-60149615D01*
X127996833Y-60180000D01*
X130003167Y-60180000D01*
X130311672Y-60149615D01*
X130707524Y-60029535D01*
X131072343Y-59834535D01*
X131392109Y-59572109D01*
X131654535Y-59252343D01*
X131849535Y-58887524D01*
X131969615Y-58491672D01*
X132010161Y-58080000D01*
X131969615Y-57668328D01*
X131849535Y-57272476D01*
X131654535Y-56907657D01*
X131392109Y-56587891D01*
X131072343Y-56325465D01*
X130707524Y-56130465D01*
X130311672Y-56010385D01*
X130003167Y-55980000D01*
X127996833Y-55980000D01*
X127688328Y-56010385D01*
X127292476Y-56130465D01*
X126927657Y-56325465D01*
X126607891Y-56587891D01*
X126345465Y-56907657D01*
X126150465Y-57272476D01*
X126030385Y-57668328D01*
X125989839Y-58080000D01*
X120191269Y-58080000D01*
X114211269Y-52100000D01*
X125994194Y-52100000D01*
X125994194Y-53900000D01*
X126017363Y-54135241D01*
X126085981Y-54361442D01*
X126197409Y-54569910D01*
X126347366Y-54752634D01*
X126530090Y-54902591D01*
X126738558Y-55014019D01*
X126964759Y-55082637D01*
X127200000Y-55105806D01*
X130800000Y-55105806D01*
X131035241Y-55082637D01*
X131261442Y-55014019D01*
X131469910Y-54902591D01*
X131652634Y-54752634D01*
X131802591Y-54569910D01*
X131914019Y-54361442D01*
X131982637Y-54135241D01*
X132005806Y-53900000D01*
X132005806Y-52100000D01*
X131982637Y-51864759D01*
X131914019Y-51638558D01*
X131802591Y-51430090D01*
X131652634Y-51247366D01*
X131469910Y-51097409D01*
X131261442Y-50985981D01*
X131035241Y-50917363D01*
X130800000Y-50894194D01*
X127200000Y-50894194D01*
X126964759Y-50917363D01*
X126738558Y-50985981D01*
X126530090Y-51097409D01*
X126347366Y-51247366D01*
X126197409Y-51430090D01*
X126085981Y-51638558D01*
X126017363Y-51864759D01*
X125994194Y-52100000D01*
X114211269Y-52100000D01*
X114200000Y-52088732D01*
X114200000Y-46743922D01*
X126400000Y-46743922D01*
X126400000Y-47256078D01*
X126499917Y-47758392D01*
X126695910Y-48231562D01*
X126980448Y-48657403D01*
X127342597Y-49019552D01*
X127768438Y-49304090D01*
X128241608Y-49500083D01*
X128743922Y-49600000D01*
X129256078Y-49600000D01*
X129758392Y-49500083D01*
X130231562Y-49304090D01*
X130657403Y-49019552D01*
X131019552Y-48657403D01*
X131304090Y-48231562D01*
X131500083Y-47758392D01*
X131600000Y-47256078D01*
X131600000Y-46743922D01*
X131500083Y-46241608D01*
X131304090Y-45768438D01*
X131019552Y-45342597D01*
X130657403Y-44980448D01*
X130231562Y-44695910D01*
X129758392Y-44499917D01*
X129256078Y-44400000D01*
X128743922Y-44400000D01*
X128241608Y-44499917D01*
X127768438Y-44695910D01*
X127342597Y-44980448D01*
X126980448Y-45342597D01*
X126695910Y-45768438D01*
X126499917Y-46241608D01*
X126400000Y-46743922D01*
X114200000Y-46743922D01*
X114200000Y-41295829D01*
X114252634Y-41252634D01*
X114402591Y-41069910D01*
X114514019Y-40861442D01*
X114582637Y-40635241D01*
X114605806Y-40400000D01*
X114605806Y-38743922D01*
X117400000Y-38743922D01*
X117400000Y-39256078D01*
X117499917Y-39758392D01*
X117695910Y-40231562D01*
X117980448Y-40657403D01*
X118342597Y-41019552D01*
X118768438Y-41304090D01*
X119241608Y-41500083D01*
X119743922Y-41600000D01*
X120256078Y-41600000D01*
X120758392Y-41500083D01*
X121231562Y-41304090D01*
X121657403Y-41019552D01*
X122019552Y-40657403D01*
X122304090Y-40231562D01*
X122500083Y-39758392D01*
X122506879Y-39724224D01*
X127200000Y-39724224D01*
X127200000Y-40275776D01*
X127307602Y-40816730D01*
X127518672Y-41326297D01*
X127825098Y-41784896D01*
X128215104Y-42174902D01*
X128673703Y-42481328D01*
X129183270Y-42692398D01*
X129724224Y-42800000D01*
X130275776Y-42800000D01*
X130816730Y-42692398D01*
X131326297Y-42481328D01*
X131784896Y-42174902D01*
X132174902Y-41784896D01*
X132481328Y-41326297D01*
X132692398Y-40816730D01*
X132800000Y-40275776D01*
X132800000Y-39724224D01*
X132692398Y-39183270D01*
X132481328Y-38673703D01*
X132174902Y-38215104D01*
X131784896Y-37825098D01*
X131326297Y-37518672D01*
X130816730Y-37307602D01*
X130275776Y-37200000D01*
X129724224Y-37200000D01*
X129183270Y-37307602D01*
X128673703Y-37518672D01*
X128215104Y-37825098D01*
X127825098Y-38215104D01*
X127518672Y-38673703D01*
X127307602Y-39183270D01*
X127200000Y-39724224D01*
X122506879Y-39724224D01*
X122600000Y-39256078D01*
X122600000Y-38743922D01*
X122500083Y-38241608D01*
X122304090Y-37768438D01*
X122019552Y-37342597D01*
X121657403Y-36980448D01*
X121231562Y-36695910D01*
X120758392Y-36499917D01*
X120256078Y-36400000D01*
X119743922Y-36400000D01*
X119241608Y-36499917D01*
X118768438Y-36695910D01*
X118342597Y-36980448D01*
X117980448Y-37342597D01*
X117695910Y-37768438D01*
X117499917Y-38241608D01*
X117400000Y-38743922D01*
X114605806Y-38743922D01*
X114605806Y-37600000D01*
X114582637Y-37364759D01*
X114514019Y-37138558D01*
X114402591Y-36930090D01*
X114252634Y-36747366D01*
X114069910Y-36597409D01*
X113861442Y-36485981D01*
X113635241Y-36417363D01*
X113400000Y-36394194D01*
X110600000Y-36394194D01*
X110364759Y-36417363D01*
X110138558Y-36485981D01*
X109930090Y-36597409D01*
X109747366Y-36747366D01*
X109597409Y-36930090D01*
X109485981Y-37138558D01*
X109417363Y-37364759D01*
X109394194Y-37600000D01*
X96951006Y-37600000D01*
X96864202Y-37470089D01*
X96529911Y-37135798D01*
X96136826Y-36873147D01*
X95700054Y-36692230D01*
X95236379Y-36600000D01*
X94763621Y-36600000D01*
X94299946Y-36692230D01*
X93863174Y-36873147D01*
X93470089Y-37135798D01*
X93135798Y-37470089D01*
X92873147Y-37863174D01*
X92692230Y-38299946D01*
X92600000Y-38763621D01*
X80605806Y-38763621D01*
X80605806Y-37600000D01*
X80582637Y-37364759D01*
X80514019Y-37138558D01*
X80402591Y-36930090D01*
X80252634Y-36747366D01*
X80069910Y-36597409D01*
X79861442Y-36485981D01*
X79635241Y-36417363D01*
X79400000Y-36394194D01*
X76600000Y-36394194D01*
X76364759Y-36417363D01*
X76138558Y-36485981D01*
X75930090Y-36597409D01*
X75747366Y-36747366D01*
X75597409Y-36930090D01*
X75485981Y-37138558D01*
X75417363Y-37364759D01*
X75394194Y-37600000D01*
X58939063Y-37600000D01*
X58887949Y-37500178D01*
X58797388Y-37364643D01*
X58090825Y-37050597D01*
X55141421Y-40000000D01*
X54858579Y-40000000D01*
X51909175Y-37050597D01*
X51275000Y-37332469D01*
X51275000Y-36275000D01*
X52332469Y-36275000D01*
X52050597Y-36909175D01*
G37*
X52050597Y-36909175D02*
X55000000Y-39858579D01*
X57949403Y-36909175D01*
X57667531Y-36275000D01*
X133725000Y-36275000D01*
X133725001Y-113725000D01*
X51275000Y-113725000D01*
X51275000Y-109724224D01*
X52200000Y-109724224D01*
X52200000Y-110275776D01*
X52307602Y-110816730D01*
X52518672Y-111326297D01*
X52825098Y-111784896D01*
X53215104Y-112174902D01*
X53673703Y-112481328D01*
X54183270Y-112692398D01*
X54724224Y-112800000D01*
X55275776Y-112800000D01*
X55816730Y-112692398D01*
X56326297Y-112481328D01*
X56784896Y-112174902D01*
X57174902Y-111784896D01*
X57481328Y-111326297D01*
X57692398Y-110816730D01*
X57800000Y-110275776D01*
X57800000Y-109724224D01*
X57692398Y-109183270D01*
X57481328Y-108673703D01*
X57174902Y-108215104D01*
X56784896Y-107825098D01*
X56326297Y-107518672D01*
X55816730Y-107307602D01*
X55275776Y-107200000D01*
X54724224Y-107200000D01*
X54183270Y-107307602D01*
X53673703Y-107518672D01*
X53215104Y-107825098D01*
X52825098Y-108215104D01*
X52518672Y-108673703D01*
X52307602Y-109183270D01*
X52200000Y-109724224D01*
X51275000Y-109724224D01*
X51275000Y-99803017D01*
X53300000Y-99803017D01*
X53300000Y-100196983D01*
X53376859Y-100583378D01*
X53527623Y-100947355D01*
X53746499Y-101274926D01*
X54025074Y-101553501D01*
X54352645Y-101772377D01*
X54716622Y-101923141D01*
X55103017Y-102000000D01*
X55496983Y-102000000D01*
X55883378Y-101923141D01*
X56247355Y-101772377D01*
X56355675Y-101700000D01*
X60416500Y-101700000D01*
X60500000Y-101708224D01*
X60583500Y-101700000D01*
X60583510Y-101700000D01*
X60833258Y-101675402D01*
X61153709Y-101578194D01*
X61449039Y-101420337D01*
X61555145Y-101333258D01*
X61643031Y-101261132D01*
X61643035Y-101261128D01*
X61707897Y-101207897D01*
X61761128Y-101143035D01*
X63704163Y-99200000D01*
X66166587Y-99200000D01*
X66076859Y-99416622D01*
X66000000Y-99803017D01*
X66000000Y-100196983D01*
X66076859Y-100583378D01*
X66227623Y-100947355D01*
X66446499Y-101274926D01*
X66532642Y-101361069D01*
X66579663Y-101449039D01*
X66738868Y-101643031D01*
X66738872Y-101643035D01*
X66792103Y-101707897D01*
X66856964Y-101761127D01*
X67892948Y-102797111D01*
X67840000Y-102791896D01*
X67726752Y-102803050D01*
X67623369Y-102803050D01*
X67521974Y-102823219D01*
X67408725Y-102834373D01*
X67299822Y-102867408D01*
X67198433Y-102887576D01*
X67102930Y-102927134D01*
X66994023Y-102960171D01*
X66893655Y-103013819D01*
X66798151Y-103053378D01*
X66712196Y-103110811D01*
X66611832Y-103164457D01*
X66523865Y-103236650D01*
X66437907Y-103294085D01*
X66364805Y-103367187D01*
X66276839Y-103439379D01*
X66204647Y-103527345D01*
X66131545Y-103600447D01*
X66074110Y-103686405D01*
X66001917Y-103774372D01*
X65948272Y-103874735D01*
X65890838Y-103960691D01*
X65851278Y-104056198D01*
X65797631Y-104156564D01*
X65764596Y-104265468D01*
X65725036Y-104360973D01*
X65704868Y-104462365D01*
X65671833Y-104571266D01*
X65660679Y-104684513D01*
X65640510Y-104785909D01*
X65640510Y-104889293D01*
X65640000Y-104894471D01*
X65640000Y-104955837D01*
X64856965Y-105738872D01*
X64792103Y-105792103D01*
X64738873Y-105856964D01*
X64738868Y-105856969D01*
X64579663Y-106050961D01*
X64495287Y-106208818D01*
X64421806Y-106346292D01*
X64324598Y-106666743D01*
X64300000Y-106916491D01*
X64300000Y-106916500D01*
X64291776Y-107000000D01*
X64300000Y-107083500D01*
X64300001Y-108944324D01*
X64227623Y-109052645D01*
X64076859Y-109416622D01*
X64000000Y-109803017D01*
X64000000Y-110196983D01*
X64076859Y-110583378D01*
X64227623Y-110947355D01*
X64446499Y-111274926D01*
X64725074Y-111553501D01*
X65052645Y-111772377D01*
X65416622Y-111923141D01*
X65803017Y-112000000D01*
X66196983Y-112000000D01*
X66583378Y-111923141D01*
X66947355Y-111772377D01*
X67274926Y-111553501D01*
X67553501Y-111274926D01*
X67772377Y-110947355D01*
X67923141Y-110583378D01*
X68000000Y-110196983D01*
X68000000Y-109803017D01*
X67923141Y-109416622D01*
X67772377Y-109052645D01*
X67700000Y-108944325D01*
X67700000Y-107704163D01*
X68054662Y-107349502D01*
X68271275Y-107328167D01*
X68685977Y-107202369D01*
X69068168Y-106998083D01*
X69403161Y-106723161D01*
X69678083Y-106388168D01*
X69882369Y-106005976D01*
X70008167Y-105591274D01*
X70040000Y-105268069D01*
X70040000Y-104944163D01*
X71241412Y-106145575D01*
X71294643Y-106210437D01*
X71359505Y-106263668D01*
X71359508Y-106263671D01*
X71553500Y-106422877D01*
X71648262Y-106473528D01*
X71848831Y-106580734D01*
X72169282Y-106677942D01*
X72419030Y-106702540D01*
X72419039Y-106702540D01*
X72502539Y-106710764D01*
X72586039Y-106702540D01*
X76023032Y-106702540D01*
X76147876Y-106854664D01*
X76300000Y-106979509D01*
X76300001Y-109216490D01*
X76291776Y-109300000D01*
X76324599Y-109633258D01*
X76421807Y-109953709D01*
X76579663Y-110249039D01*
X76738868Y-110443031D01*
X76738877Y-110443040D01*
X76752164Y-110459231D01*
X76776859Y-110583378D01*
X76927623Y-110947355D01*
X77146499Y-111274926D01*
X77425074Y-111553501D01*
X77752645Y-111772377D01*
X78116622Y-111923141D01*
X78503017Y-112000000D01*
X78896983Y-112000000D01*
X79283378Y-111923141D01*
X79647355Y-111772377D01*
X79974926Y-111553501D01*
X80253501Y-111274926D01*
X80472377Y-110947355D01*
X80623141Y-110583378D01*
X80700000Y-110196983D01*
X80700000Y-109803017D01*
X80623141Y-109416622D01*
X80472377Y-109052645D01*
X80253501Y-108725074D01*
X79974926Y-108446499D01*
X79700000Y-108262799D01*
X79700000Y-106979508D01*
X79852124Y-106854664D01*
X80002081Y-106671940D01*
X80113509Y-106463472D01*
X80182127Y-106237271D01*
X80205296Y-106002030D01*
X80205296Y-104609459D01*
X82300000Y-106704163D01*
X82300001Y-107588320D01*
X82298518Y-107590539D01*
X82153785Y-107939957D01*
X82080000Y-108310897D01*
X82080000Y-108689103D01*
X82153785Y-109060043D01*
X82298518Y-109409461D01*
X82508639Y-109723929D01*
X82776071Y-109991361D01*
X83090539Y-110201482D01*
X83439957Y-110346215D01*
X83442572Y-110346735D01*
X85738872Y-112643035D01*
X85792103Y-112707897D01*
X85856965Y-112761128D01*
X85856969Y-112761132D01*
X85904330Y-112800000D01*
X86050961Y-112920337D01*
X86346291Y-113078194D01*
X86666742Y-113175402D01*
X86916490Y-113200000D01*
X86916498Y-113200000D01*
X87000000Y-113208224D01*
X87083502Y-113200000D01*
X92916500Y-113200000D01*
X93000000Y-113208224D01*
X93083500Y-113200000D01*
X93083510Y-113200000D01*
X93333258Y-113175402D01*
X93653709Y-113078194D01*
X93949039Y-112920337D01*
X94095670Y-112800000D01*
X94143031Y-112761132D01*
X94143035Y-112761128D01*
X94207897Y-112707897D01*
X94261128Y-112643035D01*
X96101146Y-110803017D01*
X104300000Y-110803017D01*
X104300000Y-111196983D01*
X104376859Y-111583378D01*
X104527623Y-111947355D01*
X104746499Y-112274926D01*
X105025074Y-112553501D01*
X105352645Y-112772377D01*
X105716622Y-112923141D01*
X106103017Y-113000000D01*
X106496983Y-113000000D01*
X106883378Y-112923141D01*
X107247355Y-112772377D01*
X107574926Y-112553501D01*
X107853501Y-112274926D01*
X108072377Y-111947355D01*
X108223141Y-111583378D01*
X108300000Y-111196983D01*
X108300000Y-110803017D01*
X108223141Y-110416622D01*
X108072377Y-110052645D01*
X107853501Y-109725074D01*
X107574926Y-109446499D01*
X107247355Y-109227623D01*
X106883378Y-109076859D01*
X106496983Y-109000000D01*
X106103017Y-109000000D01*
X105716622Y-109076859D01*
X105352645Y-109227623D01*
X105025074Y-109446499D01*
X104746499Y-109725074D01*
X104527623Y-110052645D01*
X104376859Y-110416622D01*
X104300000Y-110803017D01*
X96101146Y-110803017D01*
X96557428Y-110346735D01*
X96560043Y-110346215D01*
X96909461Y-110201482D01*
X97223929Y-109991361D01*
X97491361Y-109723929D01*
X97701482Y-109409461D01*
X97846215Y-109060043D01*
X97920000Y-108689103D01*
X97920000Y-108310897D01*
X97846215Y-107939957D01*
X97751646Y-107711646D01*
X97979957Y-107806215D01*
X98350897Y-107880000D01*
X98729103Y-107880000D01*
X99100043Y-107806215D01*
X99328354Y-107711646D01*
X99233785Y-107939957D01*
X99160000Y-108310897D01*
X99160000Y-108689103D01*
X99233785Y-109060043D01*
X99378518Y-109409461D01*
X99588639Y-109723929D01*
X99856071Y-109991361D01*
X100170539Y-110201482D01*
X100519957Y-110346215D01*
X100890897Y-110420000D01*
X101269103Y-110420000D01*
X101640043Y-110346215D01*
X101989461Y-110201482D01*
X102303929Y-109991361D01*
X102571361Y-109723929D01*
X102781482Y-109409461D01*
X102926215Y-109060043D01*
X103000000Y-108689103D01*
X103000000Y-108310897D01*
X102926215Y-107939957D01*
X102781482Y-107590539D01*
X102571361Y-107276071D01*
X102303929Y-107008639D01*
X101989461Y-106798518D01*
X101640043Y-106653785D01*
X101269103Y-106580000D01*
X100890897Y-106580000D01*
X100519957Y-106653785D01*
X100291646Y-106748354D01*
X100386215Y-106520043D01*
X100460000Y-106149103D01*
X100460000Y-105770897D01*
X100386215Y-105399957D01*
X100241482Y-105050539D01*
X100031361Y-104736071D01*
X99763929Y-104468639D01*
X99449461Y-104258518D01*
X99100043Y-104113785D01*
X98729103Y-104040000D01*
X98350897Y-104040000D01*
X97979957Y-104113785D01*
X97630539Y-104258518D01*
X97628321Y-104260000D01*
X93664163Y-104260000D01*
X89700000Y-100295837D01*
X89700000Y-100170383D01*
X89852645Y-100272377D01*
X90216622Y-100423141D01*
X90603017Y-100500000D01*
X90996983Y-100500000D01*
X91383378Y-100423141D01*
X91747355Y-100272377D01*
X92074926Y-100053501D01*
X92353501Y-99774926D01*
X92572377Y-99447355D01*
X92723141Y-99083378D01*
X92800000Y-98696983D01*
X92800000Y-98303017D01*
X101500000Y-98303017D01*
X101500000Y-98696983D01*
X101576859Y-99083378D01*
X101727623Y-99447355D01*
X101946499Y-99774926D01*
X102225074Y-100053501D01*
X102552645Y-100272377D01*
X102916622Y-100423141D01*
X103303017Y-100500000D01*
X103696983Y-100500000D01*
X104083378Y-100423141D01*
X104447355Y-100272377D01*
X104774926Y-100053501D01*
X105053501Y-99774926D01*
X105272377Y-99447355D01*
X105423141Y-99083378D01*
X105500000Y-98696983D01*
X105500000Y-98303017D01*
X105423141Y-97916622D01*
X105272377Y-97552645D01*
X105053501Y-97225074D01*
X104774926Y-96946499D01*
X104447355Y-96727623D01*
X104083378Y-96576859D01*
X103696983Y-96500000D01*
X103303017Y-96500000D01*
X102916622Y-96576859D01*
X102552645Y-96727623D01*
X102225074Y-96946499D01*
X101946499Y-97225074D01*
X101727623Y-97552645D01*
X101576859Y-97916622D01*
X101500000Y-98303017D01*
X92800000Y-98303017D01*
X92723141Y-97916622D01*
X92572377Y-97552645D01*
X92353501Y-97225074D01*
X92074926Y-96946499D01*
X91865239Y-96806391D01*
X91947355Y-96772377D01*
X92274926Y-96553501D01*
X92400000Y-96428427D01*
X92525074Y-96553501D01*
X92852645Y-96772377D01*
X93216622Y-96923141D01*
X93603017Y-97000000D01*
X93996983Y-97000000D01*
X94383378Y-96923141D01*
X94747355Y-96772377D01*
X95074926Y-96553501D01*
X95353501Y-96274926D01*
X95572377Y-95947355D01*
X95723141Y-95583378D01*
X95800000Y-95196983D01*
X95800000Y-94803017D01*
X104500000Y-94803017D01*
X104500000Y-95196983D01*
X104576859Y-95583378D01*
X104727623Y-95947355D01*
X104946499Y-96274926D01*
X105225074Y-96553501D01*
X105552645Y-96772377D01*
X105916622Y-96923141D01*
X106303017Y-97000000D01*
X106696983Y-97000000D01*
X107083378Y-96923141D01*
X107447355Y-96772377D01*
X107774926Y-96553501D01*
X108053501Y-96274926D01*
X108272377Y-95947355D01*
X108423141Y-95583378D01*
X108500000Y-95196983D01*
X108500000Y-94803017D01*
X108423141Y-94416622D01*
X108272377Y-94052645D01*
X108053501Y-93725074D01*
X107774926Y-93446499D01*
X107447355Y-93227623D01*
X107083378Y-93076859D01*
X106696983Y-93000000D01*
X106303017Y-93000000D01*
X105916622Y-93076859D01*
X105552645Y-93227623D01*
X105225074Y-93446499D01*
X104946499Y-93725074D01*
X104727623Y-94052645D01*
X104576859Y-94416622D01*
X104500000Y-94803017D01*
X95800000Y-94803017D01*
X95723141Y-94416622D01*
X95572377Y-94052645D01*
X95353501Y-93725074D01*
X95074926Y-93446499D01*
X94747355Y-93227623D01*
X94383378Y-93076859D01*
X93996983Y-93000000D01*
X93603017Y-93000000D01*
X93216622Y-93076859D01*
X92852645Y-93227623D01*
X92525074Y-93446499D01*
X92400000Y-93571573D01*
X92274926Y-93446499D01*
X91947355Y-93227623D01*
X91583378Y-93076859D01*
X91196983Y-93000000D01*
X90803017Y-93000000D01*
X90416622Y-93076859D01*
X90052645Y-93227623D01*
X89725074Y-93446499D01*
X89446499Y-93725074D01*
X89227623Y-94052645D01*
X89076859Y-94416622D01*
X89000000Y-94803017D01*
X89000000Y-95196983D01*
X89076859Y-95583378D01*
X89227623Y-95947355D01*
X89446499Y-96274926D01*
X89725074Y-96553501D01*
X89934761Y-96693609D01*
X89852645Y-96727623D01*
X89525074Y-96946499D01*
X89420433Y-97051140D01*
X89420337Y-97050961D01*
X89334607Y-96946499D01*
X89261132Y-96856969D01*
X89261128Y-96856965D01*
X89207897Y-96792103D01*
X89143036Y-96738873D01*
X86261128Y-93856965D01*
X86207897Y-93792103D01*
X86143035Y-93738872D01*
X86143031Y-93738868D01*
X85949039Y-93579663D01*
X85934906Y-93572109D01*
X85653709Y-93421806D01*
X85333258Y-93324598D01*
X85083510Y-93300000D01*
X85083500Y-93300000D01*
X85000000Y-93291776D01*
X84916500Y-93300000D01*
X79355675Y-93300000D01*
X79296679Y-93260580D01*
X79657403Y-93019552D01*
X80019552Y-92657403D01*
X80304090Y-92231562D01*
X80500083Y-91758392D01*
X80600000Y-91256078D01*
X80600000Y-90743922D01*
X80500083Y-90241608D01*
X80304090Y-89768438D01*
X80019552Y-89342597D01*
X79657403Y-88980448D01*
X79231562Y-88695910D01*
X78758392Y-88499917D01*
X78256078Y-88400000D01*
X77743922Y-88400000D01*
X77241608Y-88499917D01*
X76768438Y-88695910D01*
X76342597Y-88980448D01*
X75980448Y-89342597D01*
X75695910Y-89768438D01*
X75499917Y-90241608D01*
X75400000Y-90743922D01*
X75400000Y-91256078D01*
X75499917Y-91758392D01*
X75695910Y-92231562D01*
X75980448Y-92657403D01*
X76342597Y-93019552D01*
X76768438Y-93304090D01*
X77058433Y-93424209D01*
X77025074Y-93446499D01*
X76746499Y-93725074D01*
X76527623Y-94052645D01*
X76376859Y-94416622D01*
X76300000Y-94803017D01*
X76300000Y-95196983D01*
X76376859Y-95583378D01*
X76527623Y-95947355D01*
X76746499Y-96274926D01*
X77025074Y-96553501D01*
X77352645Y-96772377D01*
X77716622Y-96923141D01*
X78103017Y-97000000D01*
X78496983Y-97000000D01*
X78883378Y-96923141D01*
X79247355Y-96772377D01*
X79355675Y-96700000D01*
X84295837Y-96700000D01*
X86300000Y-98704163D01*
X86300001Y-100916491D01*
X86291776Y-101000000D01*
X86324599Y-101333258D01*
X86421807Y-101653709D01*
X86579663Y-101949039D01*
X86738868Y-102143031D01*
X86738877Y-102143040D01*
X86792104Y-102207897D01*
X86856961Y-102261124D01*
X91698872Y-107103035D01*
X91752103Y-107167897D01*
X91816965Y-107221128D01*
X91816968Y-107221131D01*
X91883913Y-107276071D01*
X92010961Y-107380337D01*
X92306291Y-107538194D01*
X92626742Y-107635402D01*
X92876490Y-107660000D01*
X92876499Y-107660000D01*
X92959999Y-107668224D01*
X93043499Y-107660000D01*
X94269746Y-107660000D01*
X94153785Y-107939957D01*
X94153265Y-107942572D01*
X92295837Y-109800000D01*
X90495290Y-109800000D01*
X90571361Y-109723929D01*
X90781482Y-109409461D01*
X90926215Y-109060043D01*
X91000000Y-108689103D01*
X91000000Y-108310897D01*
X90926215Y-107939957D01*
X90781482Y-107590539D01*
X90571361Y-107276071D01*
X90303929Y-107008639D01*
X89989461Y-106798518D01*
X89640043Y-106653785D01*
X89269103Y-106580000D01*
X88890897Y-106580000D01*
X88519957Y-106653785D01*
X88291646Y-106748354D01*
X88386215Y-106520043D01*
X88460000Y-106149103D01*
X88460000Y-105770897D01*
X88386215Y-105399957D01*
X88241482Y-105050539D01*
X88031361Y-104736071D01*
X87763929Y-104468639D01*
X87449461Y-104258518D01*
X87100043Y-104113785D01*
X86729103Y-104040000D01*
X86350897Y-104040000D01*
X85979957Y-104113785D01*
X85630539Y-104258518D01*
X85316071Y-104468639D01*
X85094437Y-104690274D01*
X82563869Y-102159706D01*
X82801567Y-102112424D01*
X83201849Y-101946622D01*
X83562093Y-101705915D01*
X83868455Y-101399553D01*
X84109162Y-101039309D01*
X84274964Y-100639027D01*
X84359490Y-100214091D01*
X84359490Y-99780829D01*
X84274964Y-99355893D01*
X84109162Y-98955611D01*
X83868455Y-98595367D01*
X83562093Y-98289005D01*
X83201849Y-98048298D01*
X82801567Y-97882496D01*
X82376631Y-97797970D01*
X81943369Y-97797970D01*
X81518433Y-97882496D01*
X81118151Y-98048298D01*
X80757907Y-98289005D01*
X80451545Y-98595367D01*
X80210838Y-98955611D01*
X80045036Y-99355893D01*
X79997754Y-99593591D01*
X76761128Y-96356965D01*
X76707897Y-96292103D01*
X76643035Y-96238872D01*
X76643031Y-96238868D01*
X76449039Y-96079663D01*
X76153709Y-95921806D01*
X75833258Y-95824598D01*
X75583510Y-95800000D01*
X75583500Y-95800000D01*
X75500000Y-95791776D01*
X75416500Y-95800000D01*
X73833413Y-95800000D01*
X73923141Y-95583378D01*
X74000000Y-95196983D01*
X74000000Y-94803017D01*
X73923141Y-94416622D01*
X73772377Y-94052645D01*
X73553501Y-93725074D01*
X73274926Y-93446499D01*
X72947355Y-93227623D01*
X72583378Y-93076859D01*
X72196983Y-93000000D01*
X71803017Y-93000000D01*
X71416622Y-93076859D01*
X71052645Y-93227623D01*
X70725074Y-93446499D01*
X70446499Y-93725074D01*
X70227623Y-94052645D01*
X70076859Y-94416622D01*
X70000000Y-94803017D01*
X70000000Y-95196983D01*
X70076859Y-95583378D01*
X70166587Y-95800000D01*
X63083500Y-95800000D01*
X63000000Y-95791776D01*
X62916500Y-95800000D01*
X62916490Y-95800000D01*
X62666742Y-95824598D01*
X62346291Y-95921806D01*
X62295342Y-95949039D01*
X62050960Y-96079663D01*
X61856969Y-96238868D01*
X61856965Y-96238872D01*
X61792103Y-96292103D01*
X61738872Y-96356965D01*
X59795837Y-98300000D01*
X56355675Y-98300000D01*
X56247355Y-98227623D01*
X55883378Y-98076859D01*
X55496983Y-98000000D01*
X55103017Y-98000000D01*
X54716622Y-98076859D01*
X54352645Y-98227623D01*
X54025074Y-98446499D01*
X53746499Y-98725074D01*
X53527623Y-99052645D01*
X53376859Y-99416622D01*
X53300000Y-99803017D01*
X51275000Y-99803017D01*
X51275000Y-94803017D01*
X57300000Y-94803017D01*
X57300000Y-95196983D01*
X57376859Y-95583378D01*
X57527623Y-95947355D01*
X57746499Y-96274926D01*
X58025074Y-96553501D01*
X58352645Y-96772377D01*
X58716622Y-96923141D01*
X59103017Y-97000000D01*
X59496983Y-97000000D01*
X59883378Y-96923141D01*
X60247355Y-96772377D01*
X60574926Y-96553501D01*
X60853501Y-96274926D01*
X61072377Y-95947355D01*
X61223141Y-95583378D01*
X61300000Y-95196983D01*
X61300000Y-94803017D01*
X61223141Y-94416622D01*
X61072377Y-94052645D01*
X60853501Y-93725074D01*
X60574926Y-93446499D01*
X60247355Y-93227623D01*
X59883378Y-93076859D01*
X59496983Y-93000000D01*
X59103017Y-93000000D01*
X58716622Y-93076859D01*
X58352645Y-93227623D01*
X58025074Y-93446499D01*
X57746499Y-93725074D01*
X57527623Y-94052645D01*
X57376859Y-94416622D01*
X57300000Y-94803017D01*
X51275000Y-94803017D01*
X51275000Y-84600000D01*
X58323257Y-84600000D01*
X58323257Y-86200000D01*
X58346426Y-86435241D01*
X58415044Y-86661442D01*
X58526472Y-86869910D01*
X58676429Y-87052634D01*
X58859153Y-87202591D01*
X58994194Y-87274772D01*
X58994194Y-87800000D01*
X59017363Y-88035241D01*
X59085981Y-88261442D01*
X59197409Y-88469910D01*
X59347366Y-88652634D01*
X59530090Y-88802591D01*
X59738558Y-88914019D01*
X59964759Y-88982637D01*
X60200000Y-89005806D01*
X61800000Y-89005806D01*
X62035241Y-88982637D01*
X62198043Y-88933251D01*
X62247796Y-89183378D01*
X62398560Y-89547355D01*
X62617436Y-89874926D01*
X62896011Y-90153501D01*
X63223582Y-90372377D01*
X63587559Y-90523141D01*
X63973954Y-90600000D01*
X64367920Y-90600000D01*
X64754315Y-90523141D01*
X65118292Y-90372377D01*
X65445863Y-90153501D01*
X65724438Y-89874926D01*
X65943314Y-89547355D01*
X66094078Y-89183378D01*
X66170937Y-88796983D01*
X66170937Y-88403017D01*
X66094078Y-88016622D01*
X65943314Y-87652645D01*
X65724438Y-87325074D01*
X65500000Y-87100636D01*
X65500000Y-86803017D01*
X65423141Y-86416622D01*
X65272377Y-86052645D01*
X65053501Y-85725074D01*
X65028427Y-85700000D01*
X79295837Y-85700000D01*
X83738872Y-90143035D01*
X83792103Y-90207897D01*
X83856965Y-90261128D01*
X83856969Y-90261132D01*
X83992522Y-90372377D01*
X84050961Y-90420337D01*
X84346291Y-90578194D01*
X84666742Y-90675402D01*
X84916490Y-90700000D01*
X84916500Y-90700000D01*
X85000000Y-90708224D01*
X85083500Y-90700000D01*
X91416490Y-90700000D01*
X91500000Y-90708225D01*
X91583510Y-90700000D01*
X104916500Y-90700000D01*
X105000000Y-90708224D01*
X105083500Y-90700000D01*
X105083510Y-90700000D01*
X105333258Y-90675402D01*
X105653709Y-90578194D01*
X105949039Y-90420337D01*
X106007478Y-90372377D01*
X106143031Y-90261132D01*
X106143035Y-90261128D01*
X106207897Y-90207897D01*
X106261128Y-90143035D01*
X107704163Y-88700000D01*
X110762317Y-88700000D01*
X110342597Y-88980448D01*
X109980448Y-89342597D01*
X109695910Y-89768438D01*
X109499917Y-90241608D01*
X109400000Y-90743922D01*
X109400000Y-91256078D01*
X109499917Y-91758392D01*
X109695910Y-92231562D01*
X109980448Y-92657403D01*
X110342597Y-93019552D01*
X110768438Y-93304090D01*
X111241608Y-93500083D01*
X111743922Y-93600000D01*
X112256078Y-93600000D01*
X112758392Y-93500083D01*
X113231562Y-93304090D01*
X113657403Y-93019552D01*
X114019552Y-92657403D01*
X114304090Y-92231562D01*
X114500083Y-91758392D01*
X114600000Y-91256078D01*
X114600000Y-90743922D01*
X114500083Y-90241608D01*
X114304090Y-89768438D01*
X114019552Y-89342597D01*
X113657403Y-88980448D01*
X113237683Y-88700000D01*
X117300001Y-88700000D01*
X117300000Y-106895837D01*
X113261128Y-102856965D01*
X113207897Y-102792103D01*
X113163981Y-102756062D01*
X113183378Y-102752204D01*
X113547355Y-102601440D01*
X113874926Y-102382564D01*
X114153501Y-102103989D01*
X114372377Y-101776418D01*
X114523141Y-101412441D01*
X114600000Y-101026046D01*
X114600000Y-100632080D01*
X114523141Y-100245685D01*
X114372377Y-99881708D01*
X114153501Y-99554137D01*
X113874926Y-99275562D01*
X113547355Y-99056686D01*
X113183378Y-98905922D01*
X112796983Y-98829063D01*
X112403017Y-98829063D01*
X112016622Y-98905922D01*
X111652645Y-99056686D01*
X111325074Y-99275562D01*
X111100636Y-99500000D01*
X110803017Y-99500000D01*
X110416622Y-99576859D01*
X110052645Y-99727623D01*
X109725074Y-99946499D01*
X109446499Y-100225074D01*
X109227623Y-100552645D01*
X109076859Y-100916622D01*
X109000000Y-101303017D01*
X109000000Y-101696983D01*
X109076859Y-102083378D01*
X109227623Y-102447355D01*
X109244535Y-102472666D01*
X109197409Y-102530090D01*
X109125228Y-102665131D01*
X108600000Y-102665131D01*
X108364759Y-102688300D01*
X108138558Y-102756918D01*
X107930090Y-102868346D01*
X107747366Y-103018303D01*
X107597409Y-103201027D01*
X107485981Y-103409495D01*
X107417363Y-103635696D01*
X107394194Y-103870937D01*
X107394194Y-105470937D01*
X107417363Y-105706178D01*
X107485981Y-105932379D01*
X107597409Y-106140847D01*
X107747366Y-106323571D01*
X107930090Y-106473528D01*
X108138558Y-106584956D01*
X108364759Y-106653574D01*
X108600000Y-106676743D01*
X109414682Y-106676743D01*
X109483087Y-106713306D01*
X109897788Y-106839103D01*
X110329063Y-106881580D01*
X110760338Y-106839103D01*
X111175039Y-106713306D01*
X111557231Y-106509020D01*
X111808280Y-106302988D01*
X111853553Y-106257716D01*
X117051444Y-111455607D01*
X117076859Y-111583378D01*
X117227623Y-111947355D01*
X117446499Y-112274926D01*
X117725074Y-112553501D01*
X118052645Y-112772377D01*
X118416622Y-112923141D01*
X118803017Y-113000000D01*
X119196983Y-113000000D01*
X119583378Y-112923141D01*
X119947355Y-112772377D01*
X120274926Y-112553501D01*
X120553501Y-112274926D01*
X120772377Y-111947355D01*
X120923141Y-111583378D01*
X121000000Y-111196983D01*
X121000000Y-110803017D01*
X120967046Y-110637345D01*
X120980448Y-110657403D01*
X121342597Y-111019552D01*
X121768438Y-111304090D01*
X122241608Y-111500083D01*
X122743922Y-111600000D01*
X123256078Y-111600000D01*
X123758392Y-111500083D01*
X124231562Y-111304090D01*
X124657403Y-111019552D01*
X125019552Y-110657403D01*
X125304090Y-110231562D01*
X125500083Y-109758392D01*
X125506879Y-109724224D01*
X127200000Y-109724224D01*
X127200000Y-110275776D01*
X127307602Y-110816730D01*
X127518672Y-111326297D01*
X127825098Y-111784896D01*
X128215104Y-112174902D01*
X128673703Y-112481328D01*
X129183270Y-112692398D01*
X129724224Y-112800000D01*
X130275776Y-112800000D01*
X130816730Y-112692398D01*
X131326297Y-112481328D01*
X131784896Y-112174902D01*
X132174902Y-111784896D01*
X132481328Y-111326297D01*
X132692398Y-110816730D01*
X132800000Y-110275776D01*
X132800000Y-109724224D01*
X132692398Y-109183270D01*
X132481328Y-108673703D01*
X132174902Y-108215104D01*
X131784896Y-107825098D01*
X131326297Y-107518672D01*
X130816730Y-107307602D01*
X130275776Y-107200000D01*
X129724224Y-107200000D01*
X129183270Y-107307602D01*
X128673703Y-107518672D01*
X128215104Y-107825098D01*
X127825098Y-108215104D01*
X127518672Y-108673703D01*
X127307602Y-109183270D01*
X127200000Y-109724224D01*
X125506879Y-109724224D01*
X125600000Y-109256078D01*
X125600000Y-108743922D01*
X125500083Y-108241608D01*
X125304090Y-107768438D01*
X125019552Y-107342597D01*
X124657403Y-106980448D01*
X124231562Y-106695910D01*
X123758392Y-106499917D01*
X123256078Y-106400000D01*
X122743922Y-106400000D01*
X122241608Y-106499917D01*
X121768438Y-106695910D01*
X121342597Y-106980448D01*
X120980448Y-107342597D01*
X120700000Y-107762317D01*
X120700000Y-97160000D01*
X125989839Y-97160000D01*
X126030385Y-97571672D01*
X126150465Y-97967524D01*
X126345465Y-98332343D01*
X126607891Y-98652109D01*
X126927657Y-98914535D01*
X127292476Y-99109535D01*
X127688328Y-99229615D01*
X127996833Y-99260000D01*
X130003167Y-99260000D01*
X130311672Y-99229615D01*
X130707524Y-99109535D01*
X131072343Y-98914535D01*
X131392109Y-98652109D01*
X131654535Y-98332343D01*
X131849535Y-97967524D01*
X131969615Y-97571672D01*
X132010161Y-97160000D01*
X131969615Y-96748328D01*
X131849535Y-96352476D01*
X131654535Y-95987657D01*
X131392109Y-95667891D01*
X131072343Y-95405465D01*
X130707524Y-95210465D01*
X130311672Y-95090385D01*
X130003167Y-95060000D01*
X127996833Y-95060000D01*
X127688328Y-95090385D01*
X127292476Y-95210465D01*
X126927657Y-95405465D01*
X126607891Y-95667891D01*
X126345465Y-95987657D01*
X126150465Y-96352476D01*
X126030385Y-96748328D01*
X125989839Y-97160000D01*
X120700000Y-97160000D01*
X120700000Y-92080000D01*
X125989839Y-92080000D01*
X126030385Y-92491672D01*
X126150465Y-92887524D01*
X126345465Y-93252343D01*
X126607891Y-93572109D01*
X126927657Y-93834535D01*
X127292476Y-94029535D01*
X127688328Y-94149615D01*
X127996833Y-94180000D01*
X130003167Y-94180000D01*
X130311672Y-94149615D01*
X130707524Y-94029535D01*
X131072343Y-93834535D01*
X131392109Y-93572109D01*
X131654535Y-93252343D01*
X131849535Y-92887524D01*
X131969615Y-92491672D01*
X132010161Y-92080000D01*
X131969615Y-91668328D01*
X131849535Y-91272476D01*
X131654535Y-90907657D01*
X131392109Y-90587891D01*
X131072343Y-90325465D01*
X130707524Y-90130465D01*
X130311672Y-90010385D01*
X130003167Y-89980000D01*
X127996833Y-89980000D01*
X127688328Y-90010385D01*
X127292476Y-90130465D01*
X126927657Y-90325465D01*
X126607891Y-90587891D01*
X126345465Y-90907657D01*
X126150465Y-91272476D01*
X126030385Y-91668328D01*
X125989839Y-92080000D01*
X120700000Y-92080000D01*
X120700000Y-88700000D01*
X126304171Y-88700000D01*
X126347366Y-88752634D01*
X126530090Y-88902591D01*
X126738558Y-89014019D01*
X126964759Y-89082637D01*
X127200000Y-89105806D01*
X130800000Y-89105806D01*
X131035241Y-89082637D01*
X131261442Y-89014019D01*
X131469910Y-88902591D01*
X131652634Y-88752634D01*
X131802591Y-88569910D01*
X131914019Y-88361442D01*
X131982637Y-88135241D01*
X132005806Y-87900000D01*
X132005806Y-86100000D01*
X131982637Y-85864759D01*
X131914019Y-85638558D01*
X131802591Y-85430090D01*
X131652634Y-85247366D01*
X131469910Y-85097409D01*
X131261442Y-84985981D01*
X131035241Y-84917363D01*
X130800000Y-84894194D01*
X127200000Y-84894194D01*
X126964759Y-84917363D01*
X126738558Y-84985981D01*
X126530090Y-85097409D01*
X126347366Y-85247366D01*
X126304171Y-85300000D01*
X119083510Y-85300000D01*
X119000000Y-85291775D01*
X118916490Y-85300000D01*
X107083499Y-85300000D01*
X106999999Y-85291776D01*
X106916499Y-85300000D01*
X106916490Y-85300000D01*
X106666742Y-85324598D01*
X106346291Y-85421806D01*
X106330793Y-85430090D01*
X106050960Y-85579663D01*
X105856968Y-85738869D01*
X105856965Y-85738872D01*
X105792103Y-85792103D01*
X105738872Y-85856965D01*
X104295837Y-87300000D01*
X100376955Y-87300000D01*
X100519552Y-87157403D01*
X100804090Y-86731562D01*
X101000083Y-86258392D01*
X101100000Y-85756078D01*
X101100000Y-85243922D01*
X101000083Y-84741608D01*
X100804090Y-84268438D01*
X100519552Y-83842597D01*
X100157403Y-83480448D01*
X99731562Y-83195910D01*
X99258392Y-82999917D01*
X98756078Y-82900000D01*
X98243922Y-82900000D01*
X97741608Y-82999917D01*
X97268438Y-83195910D01*
X96842597Y-83480448D01*
X96480448Y-83842597D01*
X96195910Y-84268438D01*
X95999917Y-84741608D01*
X95900000Y-85243922D01*
X95900000Y-85756078D01*
X95999917Y-86258392D01*
X96195910Y-86731562D01*
X96480448Y-87157403D01*
X96623045Y-87300000D01*
X93200000Y-87300000D01*
X93200000Y-82204163D01*
X94398357Y-81005806D01*
X94800000Y-81005806D01*
X95035241Y-80982637D01*
X95198043Y-80933251D01*
X95247796Y-81183378D01*
X95398560Y-81547355D01*
X95617436Y-81874926D01*
X95896011Y-82153501D01*
X96223582Y-82372377D01*
X96587559Y-82523141D01*
X96973954Y-82600000D01*
X97367920Y-82600000D01*
X97754315Y-82523141D01*
X98118292Y-82372377D01*
X98445863Y-82153501D01*
X98724438Y-81874926D01*
X98943314Y-81547355D01*
X99094078Y-81183378D01*
X99170937Y-80796983D01*
X99170937Y-80403017D01*
X99122598Y-80160000D01*
X125989839Y-80160000D01*
X126030385Y-80571672D01*
X126150465Y-80967524D01*
X126345465Y-81332343D01*
X126607891Y-81652109D01*
X126927657Y-81914535D01*
X127292476Y-82109535D01*
X127688328Y-82229615D01*
X127996833Y-82260000D01*
X130003167Y-82260000D01*
X130311672Y-82229615D01*
X130707524Y-82109535D01*
X131072343Y-81914535D01*
X131392109Y-81652109D01*
X131654535Y-81332343D01*
X131849535Y-80967524D01*
X131969615Y-80571672D01*
X132010161Y-80160000D01*
X131969615Y-79748328D01*
X131849535Y-79352476D01*
X131654535Y-78987657D01*
X131392109Y-78667891D01*
X131072343Y-78405465D01*
X130707524Y-78210465D01*
X130311672Y-78090385D01*
X130003167Y-78060000D01*
X127996833Y-78060000D01*
X127688328Y-78090385D01*
X127292476Y-78210465D01*
X126927657Y-78405465D01*
X126607891Y-78667891D01*
X126345465Y-78987657D01*
X126150465Y-79352476D01*
X126030385Y-79748328D01*
X125989839Y-80160000D01*
X99122598Y-80160000D01*
X99094078Y-80016622D01*
X98943314Y-79652645D01*
X98724438Y-79325074D01*
X98500000Y-79100636D01*
X98500000Y-78803017D01*
X98423141Y-78416622D01*
X98272377Y-78052645D01*
X98053501Y-77725074D01*
X97774926Y-77446499D01*
X97447355Y-77227623D01*
X97083378Y-77076859D01*
X96696983Y-77000000D01*
X96303017Y-77000000D01*
X95958729Y-77068483D01*
X95838082Y-76842769D01*
X95632051Y-76591719D01*
X95271034Y-76230702D01*
X95243082Y-76138558D01*
X95131654Y-75930090D01*
X94981697Y-75747366D01*
X94798973Y-75597409D01*
X94590505Y-75485981D01*
X94364304Y-75417363D01*
X94269280Y-75408004D01*
X94175039Y-75357631D01*
X93760338Y-75231834D01*
X93329063Y-75189357D01*
X92897788Y-75231834D01*
X92483087Y-75357631D01*
X92388846Y-75408004D01*
X92293822Y-75417363D01*
X92067621Y-75485981D01*
X91859153Y-75597409D01*
X91676429Y-75747366D01*
X91526472Y-75930090D01*
X91415044Y-76138558D01*
X91346426Y-76364759D01*
X91337067Y-76459783D01*
X91286694Y-76554024D01*
X91160897Y-76968725D01*
X91118420Y-77400000D01*
X91160897Y-77831275D01*
X91286694Y-78245976D01*
X91337067Y-78340217D01*
X91346426Y-78435241D01*
X91415044Y-78661442D01*
X91526472Y-78869910D01*
X91616377Y-78979460D01*
X90356961Y-80238876D01*
X90292104Y-80292103D01*
X90238877Y-80356960D01*
X90238868Y-80356969D01*
X90079663Y-80550961D01*
X89921807Y-80846291D01*
X89824599Y-81166742D01*
X89791776Y-81500000D01*
X89800001Y-81583510D01*
X89800000Y-87300000D01*
X85704163Y-87300000D01*
X81261128Y-82856965D01*
X81207897Y-82792103D01*
X81143035Y-82738872D01*
X81143031Y-82738868D01*
X80949039Y-82579663D01*
X80653709Y-82421806D01*
X80333258Y-82324598D01*
X80083510Y-82300000D01*
X80083500Y-82300000D01*
X80000000Y-82291776D01*
X79916500Y-82300000D01*
X63083500Y-82300000D01*
X63000000Y-82291776D01*
X62916500Y-82300000D01*
X62916490Y-82300000D01*
X62666742Y-82324598D01*
X62346291Y-82421806D01*
X62295342Y-82449039D01*
X62050960Y-82579663D01*
X61856968Y-82738868D01*
X61856960Y-82738876D01*
X61792103Y-82792103D01*
X61738876Y-82856960D01*
X61195135Y-83400701D01*
X61129063Y-83394194D01*
X59529063Y-83394194D01*
X59293822Y-83417363D01*
X59067621Y-83485981D01*
X58859153Y-83597409D01*
X58676429Y-83747366D01*
X58526472Y-83930090D01*
X58415044Y-84138558D01*
X58346426Y-84364759D01*
X58323257Y-84600000D01*
X51275000Y-84600000D01*
X51275000Y-53340000D01*
X52286817Y-53340000D01*
X52297461Y-53448070D01*
X52297460Y-58946737D01*
X52292164Y-59000510D01*
X52292164Y-60999490D01*
X52315333Y-61234731D01*
X52383951Y-61460932D01*
X52495379Y-61669400D01*
X52645336Y-61852124D01*
X52828060Y-62002081D01*
X53036528Y-62113509D01*
X53262729Y-62182127D01*
X53497970Y-62205296D01*
X54443161Y-62205296D01*
X54497460Y-62210644D01*
X54551759Y-62205296D01*
X55496950Y-62205296D01*
X55732191Y-62182127D01*
X55958392Y-62113509D01*
X56166860Y-62002081D01*
X56247460Y-61935935D01*
X56328060Y-62002081D01*
X56536528Y-62113509D01*
X56762729Y-62182127D01*
X56997970Y-62205296D01*
X57943161Y-62205296D01*
X57997460Y-62210644D01*
X58051759Y-62205296D01*
X58683436Y-62205296D01*
X58520784Y-62367948D01*
X58436840Y-62436839D01*
X58367949Y-62520783D01*
X58161917Y-62771832D01*
X57957631Y-63154024D01*
X57831834Y-63568725D01*
X57789357Y-64000000D01*
X57800001Y-64108070D01*
X57800001Y-66939895D01*
X57707524Y-66890465D01*
X57311672Y-66770385D01*
X57003167Y-66740000D01*
X54996833Y-66740000D01*
X54688328Y-66770385D01*
X54292476Y-66890465D01*
X53927657Y-67085465D01*
X53607891Y-67347891D01*
X53345465Y-67667657D01*
X53150465Y-68032476D01*
X53030385Y-68428328D01*
X52989839Y-68840000D01*
X53030385Y-69251672D01*
X53150465Y-69647524D01*
X53345465Y-70012343D01*
X53607891Y-70332109D01*
X53927657Y-70594535D01*
X54292476Y-70789535D01*
X54688328Y-70909615D01*
X54996833Y-70940000D01*
X57003167Y-70940000D01*
X57311672Y-70909615D01*
X57707524Y-70789535D01*
X57800001Y-70740105D01*
X57800000Y-72019895D01*
X57707524Y-71970465D01*
X57311672Y-71850385D01*
X57003167Y-71820000D01*
X54996833Y-71820000D01*
X54688328Y-71850385D01*
X54292476Y-71970465D01*
X53927657Y-72165465D01*
X53607891Y-72427891D01*
X53345465Y-72747657D01*
X53150465Y-73112476D01*
X53030385Y-73508328D01*
X52989839Y-73920000D01*
X53030385Y-74331672D01*
X53150465Y-74727524D01*
X53345465Y-75092343D01*
X53607891Y-75412109D01*
X53927657Y-75674535D01*
X54292476Y-75869535D01*
X54688328Y-75989615D01*
X54996833Y-76020000D01*
X57003167Y-76020000D01*
X57311672Y-75989615D01*
X57707524Y-75869535D01*
X57800000Y-75820105D01*
X57800000Y-76800000D01*
X55891930Y-76800000D01*
X55568725Y-76831833D01*
X55363148Y-76894194D01*
X54200000Y-76894194D01*
X53964759Y-76917363D01*
X53738558Y-76985981D01*
X53530090Y-77097409D01*
X53347366Y-77247366D01*
X53197409Y-77430090D01*
X53085981Y-77638558D01*
X53017363Y-77864759D01*
X52994194Y-78100000D01*
X52994194Y-79900000D01*
X53017363Y-80135241D01*
X53085981Y-80361442D01*
X53197409Y-80569910D01*
X53347366Y-80752634D01*
X53530090Y-80902591D01*
X53738558Y-81014019D01*
X53964759Y-81082637D01*
X54200000Y-81105806D01*
X55363148Y-81105806D01*
X55568725Y-81168167D01*
X55891930Y-81200000D01*
X58891940Y-81200000D01*
X59000000Y-81210643D01*
X59108060Y-81200000D01*
X59108070Y-81200000D01*
X59431275Y-81168167D01*
X59845977Y-81042369D01*
X60228168Y-80838083D01*
X60563161Y-80563161D01*
X60632057Y-80479211D01*
X61479215Y-79632053D01*
X61544696Y-79578315D01*
X61500000Y-79803017D01*
X61500000Y-80196983D01*
X61576859Y-80583378D01*
X61727623Y-80947355D01*
X61946499Y-81274926D01*
X62225074Y-81553501D01*
X62552645Y-81772377D01*
X62916622Y-81923141D01*
X63303017Y-82000000D01*
X63696983Y-82000000D01*
X64083378Y-81923141D01*
X64447355Y-81772377D01*
X64774926Y-81553501D01*
X65053501Y-81274926D01*
X65272377Y-80947355D01*
X65423141Y-80583378D01*
X65500000Y-80196983D01*
X65500000Y-79803017D01*
X65423141Y-79416622D01*
X65272377Y-79052645D01*
X65053501Y-78725074D01*
X64774926Y-78446499D01*
X64447355Y-78227623D01*
X64083378Y-78076859D01*
X63696983Y-78000000D01*
X63303017Y-78000000D01*
X62916622Y-78076859D01*
X62552645Y-78227623D01*
X62225074Y-78446499D01*
X62136759Y-78534814D01*
X62168167Y-78431275D01*
X62200000Y-78108070D01*
X62200000Y-78108062D01*
X62210643Y-78000000D01*
X62200000Y-77891938D01*
X62200000Y-75080000D01*
X125989839Y-75080000D01*
X126030385Y-75491672D01*
X126150465Y-75887524D01*
X126345465Y-76252343D01*
X126607891Y-76572109D01*
X126927657Y-76834535D01*
X127292476Y-77029535D01*
X127688328Y-77149615D01*
X127996833Y-77180000D01*
X130003167Y-77180000D01*
X130311672Y-77149615D01*
X130707524Y-77029535D01*
X131072343Y-76834535D01*
X131392109Y-76572109D01*
X131654535Y-76252343D01*
X131849535Y-75887524D01*
X131969615Y-75491672D01*
X132010161Y-75080000D01*
X131969615Y-74668328D01*
X131849535Y-74272476D01*
X131654535Y-73907657D01*
X131392109Y-73587891D01*
X131072343Y-73325465D01*
X130707524Y-73130465D01*
X130311672Y-73010385D01*
X130003167Y-72980000D01*
X127996833Y-72980000D01*
X127688328Y-73010385D01*
X127292476Y-73130465D01*
X126927657Y-73325465D01*
X126607891Y-73587891D01*
X126345465Y-73907657D01*
X126150465Y-74272476D01*
X126030385Y-74668328D01*
X125989839Y-75080000D01*
X62200000Y-75080000D01*
X62200000Y-68828427D01*
X62225074Y-68853501D01*
X62552645Y-69072377D01*
X62916622Y-69223141D01*
X63303017Y-69300000D01*
X63696983Y-69300000D01*
X63980418Y-69243621D01*
X92600000Y-69243621D01*
X92600000Y-69716379D01*
X92692230Y-70180054D01*
X92873147Y-70616826D01*
X93135798Y-71009911D01*
X93470089Y-71344202D01*
X93863174Y-71606853D01*
X94299946Y-71787770D01*
X94763621Y-71880000D01*
X95236379Y-71880000D01*
X95700054Y-71787770D01*
X96136826Y-71606853D01*
X96529911Y-71344202D01*
X96864202Y-71009911D01*
X97126853Y-70616826D01*
X97307770Y-70180054D01*
X97400000Y-69716379D01*
X97400000Y-69243621D01*
X97307770Y-68779946D01*
X97126853Y-68343174D01*
X96864202Y-67950089D01*
X96529911Y-67615798D01*
X96136826Y-67353147D01*
X95700054Y-67172230D01*
X95236379Y-67080000D01*
X94763621Y-67080000D01*
X94299946Y-67172230D01*
X93863174Y-67353147D01*
X93470089Y-67615798D01*
X93135798Y-67950089D01*
X92873147Y-68343174D01*
X92692230Y-68779946D01*
X92600000Y-69243621D01*
X63980418Y-69243621D01*
X64083378Y-69223141D01*
X64447355Y-69072377D01*
X64774926Y-68853501D01*
X65053501Y-68574926D01*
X65272377Y-68247355D01*
X65423141Y-67883378D01*
X65500000Y-67496983D01*
X65500000Y-67103017D01*
X65423141Y-66716622D01*
X65272377Y-66352645D01*
X65053501Y-66025074D01*
X64774926Y-65746499D01*
X64447355Y-65527623D01*
X64083378Y-65376859D01*
X63696983Y-65300000D01*
X63303017Y-65300000D01*
X62916622Y-65376859D01*
X62552645Y-65527623D01*
X62225074Y-65746499D01*
X62200000Y-65771573D01*
X62200000Y-64911269D01*
X62981761Y-64129509D01*
X63065701Y-64060621D01*
X63204143Y-63891930D01*
X63340622Y-63725629D01*
X63422914Y-63571672D01*
X63544909Y-63343437D01*
X63670707Y-62928735D01*
X63702540Y-62605530D01*
X63702540Y-62605521D01*
X63713183Y-62497461D01*
X63702540Y-62389401D01*
X63702540Y-61936671D01*
X63960691Y-62109162D01*
X64360973Y-62274964D01*
X64785909Y-62359490D01*
X65219171Y-62359490D01*
X65644107Y-62274964D01*
X66044389Y-62109162D01*
X66404633Y-61868455D01*
X66710995Y-61562093D01*
X66951702Y-61201849D01*
X67117504Y-60801567D01*
X67202030Y-60376631D01*
X67202030Y-59943369D01*
X67117504Y-59518433D01*
X66951702Y-59118151D01*
X66710995Y-58757907D01*
X66404633Y-58451545D01*
X66044389Y-58210838D01*
X65644107Y-58045036D01*
X65219171Y-57960510D01*
X64785909Y-57960510D01*
X64360973Y-58045036D01*
X63960691Y-58210838D01*
X63702540Y-58383329D01*
X63702540Y-56408728D01*
X66481761Y-53629509D01*
X66565701Y-53560621D01*
X66652308Y-53455091D01*
X66840622Y-53225629D01*
X66961224Y-53000000D01*
X67044909Y-52843437D01*
X67170707Y-52428735D01*
X67202540Y-52105530D01*
X67202540Y-52105521D01*
X67213183Y-51997461D01*
X67202540Y-51889401D01*
X67202540Y-51053262D01*
X67207836Y-50999490D01*
X67207836Y-49000510D01*
X67184667Y-48765269D01*
X67116049Y-48539068D01*
X67004621Y-48330600D01*
X66854664Y-48147876D01*
X66671940Y-47997919D01*
X66463472Y-47886491D01*
X66237271Y-47817873D01*
X66002030Y-47794704D01*
X65056839Y-47794704D01*
X65002540Y-47789356D01*
X64948241Y-47794704D01*
X64003050Y-47794704D01*
X63767809Y-47817873D01*
X63541608Y-47886491D01*
X63333140Y-47997919D01*
X63252540Y-48064065D01*
X63171940Y-47997919D01*
X62963472Y-47886491D01*
X62737271Y-47817873D01*
X62502030Y-47794704D01*
X61556830Y-47794704D01*
X61502540Y-47789357D01*
X61448250Y-47794704D01*
X60503050Y-47794704D01*
X60267809Y-47817873D01*
X60041608Y-47886491D01*
X59833140Y-47997919D01*
X59650416Y-48147876D01*
X59551035Y-48268972D01*
X59472658Y-48204650D01*
X59399553Y-48131545D01*
X59313586Y-48074104D01*
X59225627Y-48001918D01*
X59125275Y-47948279D01*
X59039309Y-47890838D01*
X58943792Y-47851274D01*
X58843436Y-47797632D01*
X58734541Y-47764599D01*
X58639027Y-47725036D01*
X58537626Y-47704866D01*
X58428734Y-47671834D01*
X58315497Y-47660681D01*
X58214091Y-47640510D01*
X58110697Y-47640510D01*
X57997459Y-47629357D01*
X57884221Y-47640510D01*
X57780829Y-47640510D01*
X57679425Y-47660681D01*
X57566184Y-47671834D01*
X57457289Y-47704867D01*
X57355893Y-47725036D01*
X57260384Y-47764597D01*
X57151482Y-47797632D01*
X57051119Y-47851277D01*
X56955611Y-47890838D01*
X56869653Y-47948273D01*
X56769291Y-48001918D01*
X56681324Y-48074110D01*
X56595367Y-48131545D01*
X56522267Y-48204645D01*
X56518241Y-48207949D01*
X56238907Y-48487283D01*
X56205915Y-48437907D01*
X55899553Y-48131545D01*
X55539309Y-47890838D01*
X55139027Y-47725036D01*
X54714091Y-47640510D01*
X54280829Y-47640510D01*
X53855893Y-47725036D01*
X53455611Y-47890838D01*
X53095367Y-48131545D01*
X52789005Y-48437907D01*
X52548298Y-48798151D01*
X52382496Y-49198433D01*
X52297970Y-49623369D01*
X52297970Y-50056631D01*
X52382496Y-50481567D01*
X52548298Y-50881849D01*
X52789005Y-51242093D01*
X53095367Y-51548455D01*
X53144744Y-51581448D01*
X53018244Y-51707948D01*
X52934300Y-51776839D01*
X52865409Y-51860783D01*
X52659377Y-52111832D01*
X52455091Y-52494024D01*
X52329294Y-52908725D01*
X52286817Y-53340000D01*
X51275000Y-53340000D01*
X51275000Y-43090825D01*
X52050597Y-43090825D01*
X52364643Y-43797388D01*
X53156115Y-44238554D01*
X54018446Y-44516836D01*
X54918497Y-44621538D01*
X55821681Y-44548637D01*
X56693287Y-44300935D01*
X57499822Y-43887949D01*
X57635357Y-43797388D01*
X57949403Y-43090825D01*
X55000000Y-40141421D01*
X52050597Y-43090825D01*
X51275000Y-43090825D01*
X51275000Y-42667531D01*
X51909175Y-42949403D01*
X54858579Y-40000000D01*
X55141421Y-40000000D01*
X58090825Y-42949403D01*
X58797388Y-42635357D01*
X59238554Y-41843885D01*
X59516836Y-40981554D01*
X59621538Y-40081503D01*
X59548637Y-39178319D01*
X59300935Y-38306713D01*
X58939063Y-37600000D01*
X75394194Y-37600000D01*
X75394194Y-40400000D01*
X75417363Y-40635241D01*
X75485981Y-40861442D01*
X75597409Y-41069910D01*
X75747366Y-41252634D01*
X75930090Y-41402591D01*
X76138558Y-41514019D01*
X76364759Y-41582637D01*
X76600000Y-41605806D01*
X79400000Y-41605806D01*
X79635241Y-41582637D01*
X79861442Y-41514019D01*
X80069910Y-41402591D01*
X80252634Y-41252634D01*
X80402591Y-41069910D01*
X80514019Y-40861442D01*
X80582637Y-40635241D01*
X80605806Y-40400000D01*
X80605806Y-38763621D01*
X92600000Y-38763621D01*
X92600000Y-39236379D01*
X92692230Y-39700054D01*
X92873147Y-40136826D01*
X93135798Y-40529911D01*
X93470089Y-40864202D01*
X93863174Y-41126853D01*
X94299946Y-41307770D01*
X94763621Y-41400000D01*
X95236379Y-41400000D01*
X95700054Y-41307770D01*
X96136826Y-41126853D01*
X96529911Y-40864202D01*
X96864202Y-40529911D01*
X97126853Y-40136826D01*
X97307770Y-39700054D01*
X97400000Y-39236379D01*
X97400000Y-38763621D01*
X97307770Y-38299946D01*
X97126853Y-37863174D01*
X96951006Y-37600000D01*
X109394194Y-37600000D01*
X109394194Y-40400000D01*
X109417363Y-40635241D01*
X109485981Y-40861442D01*
X109597409Y-41069910D01*
X109747366Y-41252634D01*
X109800000Y-41295830D01*
X109800001Y-52891930D01*
X109789357Y-53000000D01*
X109831834Y-53431275D01*
X109957631Y-53845976D01*
X110161917Y-54228168D01*
X110271293Y-54361442D01*
X110436840Y-54563161D01*
X110520785Y-54632053D01*
X125994194Y-70105464D01*
X125994194Y-70900000D01*
X126017363Y-71135241D01*
X126085981Y-71361442D01*
X126197409Y-71569910D01*
X126347366Y-71752634D01*
X126530090Y-71902591D01*
X126738558Y-72014019D01*
X126964759Y-72082637D01*
X127200000Y-72105806D01*
X128363148Y-72105806D01*
X128568725Y-72168167D01*
X129000000Y-72210643D01*
X129431275Y-72168167D01*
X129636852Y-72105806D01*
X130800000Y-72105806D01*
X131035241Y-72082637D01*
X131261442Y-72014019D01*
X131469910Y-71902591D01*
X131652634Y-71752634D01*
X131802591Y-71569910D01*
X131914019Y-71361442D01*
X131982637Y-71135241D01*
X132005806Y-70900000D01*
X132005806Y-69100000D01*
X131982637Y-68864759D01*
X131914019Y-68638558D01*
X131802591Y-68430090D01*
X131652634Y-68247366D01*
X131469910Y-68097409D01*
X131261442Y-67985981D01*
X131035241Y-67917363D01*
X130800000Y-67894194D01*
X130005464Y-67894194D01*
X127138506Y-65027236D01*
X127292476Y-65109535D01*
X127688328Y-65229615D01*
X127996833Y-65260000D01*
X130003167Y-65260000D01*
X130311672Y-65229615D01*
X130707524Y-65109535D01*
X131072343Y-64914535D01*
X131392109Y-64652109D01*
X131654535Y-64332343D01*
X131849535Y-63967524D01*
X131969615Y-63571672D01*
X132010161Y-63160000D01*
X131969615Y-62748328D01*
X131849535Y-62352476D01*
X131654535Y-61987657D01*
X131392109Y-61667891D01*
X131072343Y-61405465D01*
X130707524Y-61210465D01*
X130311672Y-61090385D01*
X130003167Y-61060000D01*
X127996833Y-61060000D01*
X127688328Y-61090385D01*
X127292476Y-61210465D01*
X126927657Y-61405465D01*
X126607891Y-61667891D01*
X126345465Y-61987657D01*
X126150465Y-62352476D01*
X126030385Y-62748328D01*
X125989839Y-63160000D01*
X126030385Y-63571672D01*
X126150465Y-63967524D01*
X126232764Y-64121495D01*
X120191269Y-58080000D01*
X125989839Y-58080000D01*
X126030385Y-58491672D01*
X126150465Y-58887524D01*
X126345465Y-59252343D01*
X126607891Y-59572109D01*
X126927657Y-59834535D01*
X127292476Y-60029535D01*
X127688328Y-60149615D01*
X127996833Y-60180000D01*
X130003167Y-60180000D01*
X130311672Y-60149615D01*
X130707524Y-60029535D01*
X131072343Y-59834535D01*
X131392109Y-59572109D01*
X131654535Y-59252343D01*
X131849535Y-58887524D01*
X131969615Y-58491672D01*
X132010161Y-58080000D01*
X131969615Y-57668328D01*
X131849535Y-57272476D01*
X131654535Y-56907657D01*
X131392109Y-56587891D01*
X131072343Y-56325465D01*
X130707524Y-56130465D01*
X130311672Y-56010385D01*
X130003167Y-55980000D01*
X127996833Y-55980000D01*
X127688328Y-56010385D01*
X127292476Y-56130465D01*
X126927657Y-56325465D01*
X126607891Y-56587891D01*
X126345465Y-56907657D01*
X126150465Y-57272476D01*
X126030385Y-57668328D01*
X125989839Y-58080000D01*
X120191269Y-58080000D01*
X114211269Y-52100000D01*
X125994194Y-52100000D01*
X125994194Y-53900000D01*
X126017363Y-54135241D01*
X126085981Y-54361442D01*
X126197409Y-54569910D01*
X126347366Y-54752634D01*
X126530090Y-54902591D01*
X126738558Y-55014019D01*
X126964759Y-55082637D01*
X127200000Y-55105806D01*
X130800000Y-55105806D01*
X131035241Y-55082637D01*
X131261442Y-55014019D01*
X131469910Y-54902591D01*
X131652634Y-54752634D01*
X131802591Y-54569910D01*
X131914019Y-54361442D01*
X131982637Y-54135241D01*
X132005806Y-53900000D01*
X132005806Y-52100000D01*
X131982637Y-51864759D01*
X131914019Y-51638558D01*
X131802591Y-51430090D01*
X131652634Y-51247366D01*
X131469910Y-51097409D01*
X131261442Y-50985981D01*
X131035241Y-50917363D01*
X130800000Y-50894194D01*
X127200000Y-50894194D01*
X126964759Y-50917363D01*
X126738558Y-50985981D01*
X126530090Y-51097409D01*
X126347366Y-51247366D01*
X126197409Y-51430090D01*
X126085981Y-51638558D01*
X126017363Y-51864759D01*
X125994194Y-52100000D01*
X114211269Y-52100000D01*
X114200000Y-52088732D01*
X114200000Y-46743922D01*
X126400000Y-46743922D01*
X126400000Y-47256078D01*
X126499917Y-47758392D01*
X126695910Y-48231562D01*
X126980448Y-48657403D01*
X127342597Y-49019552D01*
X127768438Y-49304090D01*
X128241608Y-49500083D01*
X128743922Y-49600000D01*
X129256078Y-49600000D01*
X129758392Y-49500083D01*
X130231562Y-49304090D01*
X130657403Y-49019552D01*
X131019552Y-48657403D01*
X131304090Y-48231562D01*
X131500083Y-47758392D01*
X131600000Y-47256078D01*
X131600000Y-46743922D01*
X131500083Y-46241608D01*
X131304090Y-45768438D01*
X131019552Y-45342597D01*
X130657403Y-44980448D01*
X130231562Y-44695910D01*
X129758392Y-44499917D01*
X129256078Y-44400000D01*
X128743922Y-44400000D01*
X128241608Y-44499917D01*
X127768438Y-44695910D01*
X127342597Y-44980448D01*
X126980448Y-45342597D01*
X126695910Y-45768438D01*
X126499917Y-46241608D01*
X126400000Y-46743922D01*
X114200000Y-46743922D01*
X114200000Y-41295829D01*
X114252634Y-41252634D01*
X114402591Y-41069910D01*
X114514019Y-40861442D01*
X114582637Y-40635241D01*
X114605806Y-40400000D01*
X114605806Y-38743922D01*
X117400000Y-38743922D01*
X117400000Y-39256078D01*
X117499917Y-39758392D01*
X117695910Y-40231562D01*
X117980448Y-40657403D01*
X118342597Y-41019552D01*
X118768438Y-41304090D01*
X119241608Y-41500083D01*
X119743922Y-41600000D01*
X120256078Y-41600000D01*
X120758392Y-41500083D01*
X121231562Y-41304090D01*
X121657403Y-41019552D01*
X122019552Y-40657403D01*
X122304090Y-40231562D01*
X122500083Y-39758392D01*
X122506879Y-39724224D01*
X127200000Y-39724224D01*
X127200000Y-40275776D01*
X127307602Y-40816730D01*
X127518672Y-41326297D01*
X127825098Y-41784896D01*
X128215104Y-42174902D01*
X128673703Y-42481328D01*
X129183270Y-42692398D01*
X129724224Y-42800000D01*
X130275776Y-42800000D01*
X130816730Y-42692398D01*
X131326297Y-42481328D01*
X131784896Y-42174902D01*
X132174902Y-41784896D01*
X132481328Y-41326297D01*
X132692398Y-40816730D01*
X132800000Y-40275776D01*
X132800000Y-39724224D01*
X132692398Y-39183270D01*
X132481328Y-38673703D01*
X132174902Y-38215104D01*
X131784896Y-37825098D01*
X131326297Y-37518672D01*
X130816730Y-37307602D01*
X130275776Y-37200000D01*
X129724224Y-37200000D01*
X129183270Y-37307602D01*
X128673703Y-37518672D01*
X128215104Y-37825098D01*
X127825098Y-38215104D01*
X127518672Y-38673703D01*
X127307602Y-39183270D01*
X127200000Y-39724224D01*
X122506879Y-39724224D01*
X122600000Y-39256078D01*
X122600000Y-38743922D01*
X122500083Y-38241608D01*
X122304090Y-37768438D01*
X122019552Y-37342597D01*
X121657403Y-36980448D01*
X121231562Y-36695910D01*
X120758392Y-36499917D01*
X120256078Y-36400000D01*
X119743922Y-36400000D01*
X119241608Y-36499917D01*
X118768438Y-36695910D01*
X118342597Y-36980448D01*
X117980448Y-37342597D01*
X117695910Y-37768438D01*
X117499917Y-38241608D01*
X117400000Y-38743922D01*
X114605806Y-38743922D01*
X114605806Y-37600000D01*
X114582637Y-37364759D01*
X114514019Y-37138558D01*
X114402591Y-36930090D01*
X114252634Y-36747366D01*
X114069910Y-36597409D01*
X113861442Y-36485981D01*
X113635241Y-36417363D01*
X113400000Y-36394194D01*
X110600000Y-36394194D01*
X110364759Y-36417363D01*
X110138558Y-36485981D01*
X109930090Y-36597409D01*
X109747366Y-36747366D01*
X109597409Y-36930090D01*
X109485981Y-37138558D01*
X109417363Y-37364759D01*
X109394194Y-37600000D01*
X96951006Y-37600000D01*
X96864202Y-37470089D01*
X96529911Y-37135798D01*
X96136826Y-36873147D01*
X95700054Y-36692230D01*
X95236379Y-36600000D01*
X94763621Y-36600000D01*
X94299946Y-36692230D01*
X93863174Y-36873147D01*
X93470089Y-37135798D01*
X93135798Y-37470089D01*
X92873147Y-37863174D01*
X92692230Y-38299946D01*
X92600000Y-38763621D01*
X80605806Y-38763621D01*
X80605806Y-37600000D01*
X80582637Y-37364759D01*
X80514019Y-37138558D01*
X80402591Y-36930090D01*
X80252634Y-36747366D01*
X80069910Y-36597409D01*
X79861442Y-36485981D01*
X79635241Y-36417363D01*
X79400000Y-36394194D01*
X76600000Y-36394194D01*
X76364759Y-36417363D01*
X76138558Y-36485981D01*
X75930090Y-36597409D01*
X75747366Y-36747366D01*
X75597409Y-36930090D01*
X75485981Y-37138558D01*
X75417363Y-37364759D01*
X75394194Y-37600000D01*
X58939063Y-37600000D01*
X58887949Y-37500178D01*
X58797388Y-37364643D01*
X58090825Y-37050597D01*
X55141421Y-40000000D01*
X54858579Y-40000000D01*
X51909175Y-37050597D01*
X51275000Y-37332469D01*
X51275000Y-36275000D01*
X52332469Y-36275000D01*
X52050597Y-36909175D01*
M02*
