%TF.GenerationSoftware,KiCad,Pcbnew,(5.1.5-0-10_14)*%
%TF.CreationDate,2020-09-13T21:19:58+01:00*%
%TF.ProjectId,PowerSupply,506f7765-7253-4757-9070-6c792e6b6963,rev?*%
%TF.SameCoordinates,Original*%
%TF.FileFunction,Legend,Top*%
%TF.FilePolarity,Positive*%
%FSLAX46Y46*%
G04 Gerber Fmt 4.6, Leading zero omitted, Abs format (unit mm)*
G04 Created by KiCad (PCBNEW (5.1.5-0-10_14)) date 2020-09-13 21:19:58*
%MOMM*%
%LPD*%
G04 APERTURE LIST*
%ADD10C,0.300000*%
%ADD11C,0.150000*%
%ADD12C,0.120000*%
G04 APERTURE END LIST*
D10*
X58565476Y-55422619D02*
X57315476Y-55422619D01*
X57315476Y-55125000D01*
X57375000Y-54946428D01*
X57494047Y-54827380D01*
X57613095Y-54767857D01*
X57851190Y-54708333D01*
X58029761Y-54708333D01*
X58267857Y-54767857D01*
X58386904Y-54827380D01*
X58505952Y-54946428D01*
X58565476Y-55125000D01*
X58565476Y-55422619D01*
X57315476Y-53636904D02*
X57315476Y-53875000D01*
X57375000Y-53994047D01*
X57434523Y-54053571D01*
X57613095Y-54172619D01*
X57851190Y-54232142D01*
X58327380Y-54232142D01*
X58446428Y-54172619D01*
X58505952Y-54113095D01*
X58565476Y-53994047D01*
X58565476Y-53755952D01*
X58505952Y-53636904D01*
X58446428Y-53577380D01*
X58327380Y-53517857D01*
X58029761Y-53517857D01*
X57910714Y-53577380D01*
X57851190Y-53636904D01*
X57791666Y-53755952D01*
X57791666Y-53994047D01*
X57851190Y-54113095D01*
X57910714Y-54172619D01*
X58029761Y-54232142D01*
X62065476Y-56422619D02*
X60815476Y-56422619D01*
X60815476Y-56125000D01*
X60875000Y-55946428D01*
X60994047Y-55827380D01*
X61113095Y-55767857D01*
X61351190Y-55708333D01*
X61529761Y-55708333D01*
X61767857Y-55767857D01*
X61886904Y-55827380D01*
X62005952Y-55946428D01*
X62065476Y-56125000D01*
X62065476Y-56422619D01*
X60815476Y-54577380D02*
X60815476Y-55172619D01*
X61410714Y-55232142D01*
X61351190Y-55172619D01*
X61291666Y-55053571D01*
X61291666Y-54755952D01*
X61351190Y-54636904D01*
X61410714Y-54577380D01*
X61529761Y-54517857D01*
X61827380Y-54517857D01*
X61946428Y-54577380D01*
X62005952Y-54636904D01*
X62065476Y-54755952D01*
X62065476Y-55053571D01*
X62005952Y-55172619D01*
X61946428Y-55232142D01*
X65565476Y-56422619D02*
X64315476Y-56422619D01*
X64315476Y-56125000D01*
X64375000Y-55946428D01*
X64494047Y-55827380D01*
X64613095Y-55767857D01*
X64851190Y-55708333D01*
X65029761Y-55708333D01*
X65267857Y-55767857D01*
X65386904Y-55827380D01*
X65505952Y-55946428D01*
X65565476Y-56125000D01*
X65565476Y-56422619D01*
X65565476Y-54517857D02*
X65565476Y-55232142D01*
X65565476Y-54875000D02*
X64315476Y-54875000D01*
X64494047Y-54994047D01*
X64613095Y-55113095D01*
X64672619Y-55232142D01*
X55065476Y-55422619D02*
X53815476Y-55422619D01*
X53815476Y-55125000D01*
X53875000Y-54946428D01*
X53994047Y-54827380D01*
X54113095Y-54767857D01*
X54351190Y-54708333D01*
X54529761Y-54708333D01*
X54767857Y-54767857D01*
X54886904Y-54827380D01*
X55005952Y-54946428D01*
X55065476Y-55125000D01*
X55065476Y-55422619D01*
X54232142Y-53636904D02*
X55065476Y-53636904D01*
X53755952Y-53934523D02*
X54648809Y-54232142D01*
X54648809Y-53458333D01*
X116511904Y-102390476D02*
X116511904Y-101140476D01*
X116988095Y-101140476D01*
X117107142Y-101200000D01*
X117166666Y-101259523D01*
X117226190Y-101378571D01*
X117226190Y-101557142D01*
X117166666Y-101676190D01*
X117107142Y-101735714D01*
X116988095Y-101795238D01*
X116511904Y-101795238D01*
X117940476Y-102390476D02*
X117821428Y-102330952D01*
X117761904Y-102271428D01*
X117702380Y-102152380D01*
X117702380Y-101795238D01*
X117761904Y-101676190D01*
X117821428Y-101616666D01*
X117940476Y-101557142D01*
X118119047Y-101557142D01*
X118238095Y-101616666D01*
X118297619Y-101676190D01*
X118357142Y-101795238D01*
X118357142Y-102152380D01*
X118297619Y-102271428D01*
X118238095Y-102330952D01*
X118119047Y-102390476D01*
X117940476Y-102390476D01*
X118773809Y-101557142D02*
X119011904Y-102390476D01*
X119250000Y-101795238D01*
X119488095Y-102390476D01*
X119726190Y-101557142D01*
X120678571Y-102330952D02*
X120559523Y-102390476D01*
X120321428Y-102390476D01*
X120202380Y-102330952D01*
X120142857Y-102211904D01*
X120142857Y-101735714D01*
X120202380Y-101616666D01*
X120321428Y-101557142D01*
X120559523Y-101557142D01*
X120678571Y-101616666D01*
X120738095Y-101735714D01*
X120738095Y-101854761D01*
X120142857Y-101973809D01*
X121273809Y-102390476D02*
X121273809Y-101557142D01*
X121273809Y-101795238D02*
X121333333Y-101676190D01*
X121392857Y-101616666D01*
X121511904Y-101557142D01*
X121630952Y-101557142D01*
X121988095Y-102330952D02*
X122166666Y-102390476D01*
X122464285Y-102390476D01*
X122583333Y-102330952D01*
X122642857Y-102271428D01*
X122702380Y-102152380D01*
X122702380Y-102033333D01*
X122642857Y-101914285D01*
X122583333Y-101854761D01*
X122464285Y-101795238D01*
X122226190Y-101735714D01*
X122107142Y-101676190D01*
X122047619Y-101616666D01*
X121988095Y-101497619D01*
X121988095Y-101378571D01*
X122047619Y-101259523D01*
X122107142Y-101200000D01*
X122226190Y-101140476D01*
X122523809Y-101140476D01*
X122702380Y-101200000D01*
X123773809Y-101557142D02*
X123773809Y-102390476D01*
X123238095Y-101557142D02*
X123238095Y-102211904D01*
X123297619Y-102330952D01*
X123416666Y-102390476D01*
X123595238Y-102390476D01*
X123714285Y-102330952D01*
X123773809Y-102271428D01*
X124369047Y-101557142D02*
X124369047Y-102807142D01*
X124369047Y-101616666D02*
X124488095Y-101557142D01*
X124726190Y-101557142D01*
X124845238Y-101616666D01*
X124904761Y-101676190D01*
X124964285Y-101795238D01*
X124964285Y-102152380D01*
X124904761Y-102271428D01*
X124845238Y-102330952D01*
X124726190Y-102390476D01*
X124488095Y-102390476D01*
X124369047Y-102330952D01*
X125500000Y-101557142D02*
X125500000Y-102807142D01*
X125500000Y-101616666D02*
X125619047Y-101557142D01*
X125857142Y-101557142D01*
X125976190Y-101616666D01*
X126035714Y-101676190D01*
X126095238Y-101795238D01*
X126095238Y-102152380D01*
X126035714Y-102271428D01*
X125976190Y-102330952D01*
X125857142Y-102390476D01*
X125619047Y-102390476D01*
X125500000Y-102330952D01*
X126809523Y-102390476D02*
X126690476Y-102330952D01*
X126630952Y-102211904D01*
X126630952Y-101140476D01*
X127166666Y-101557142D02*
X127464285Y-102390476D01*
X127761904Y-101557142D02*
X127464285Y-102390476D01*
X127345238Y-102688095D01*
X127285714Y-102747619D01*
X127166666Y-102807142D01*
X129190476Y-102390476D02*
X129190476Y-101140476D01*
X129666666Y-101140476D01*
X129785714Y-101200000D01*
X129845238Y-101259523D01*
X129904761Y-101378571D01*
X129904761Y-101557142D01*
X129845238Y-101676190D01*
X129785714Y-101735714D01*
X129666666Y-101795238D01*
X129190476Y-101795238D01*
X131154761Y-102271428D02*
X131095238Y-102330952D01*
X130916666Y-102390476D01*
X130797619Y-102390476D01*
X130619047Y-102330952D01*
X130500000Y-102211904D01*
X130440476Y-102092857D01*
X130380952Y-101854761D01*
X130380952Y-101676190D01*
X130440476Y-101438095D01*
X130500000Y-101319047D01*
X130619047Y-101200000D01*
X130797619Y-101140476D01*
X130916666Y-101140476D01*
X131095238Y-101200000D01*
X131154761Y-101259523D01*
X132107142Y-101735714D02*
X132285714Y-101795238D01*
X132345238Y-101854761D01*
X132404761Y-101973809D01*
X132404761Y-102152380D01*
X132345238Y-102271428D01*
X132285714Y-102330952D01*
X132166666Y-102390476D01*
X131690476Y-102390476D01*
X131690476Y-101140476D01*
X132107142Y-101140476D01*
X132226190Y-101200000D01*
X132285714Y-101259523D01*
X132345238Y-101378571D01*
X132345238Y-101497619D01*
X132285714Y-101616666D01*
X132226190Y-101676190D01*
X132107142Y-101735714D01*
X131690476Y-101735714D01*
X132821428Y-101557142D02*
X133119047Y-102390476D01*
X133416666Y-101557142D01*
X133833333Y-101259523D02*
X133892857Y-101200000D01*
X134011904Y-101140476D01*
X134309523Y-101140476D01*
X134428571Y-101200000D01*
X134488095Y-101259523D01*
X134547619Y-101378571D01*
X134547619Y-101497619D01*
X134488095Y-101676190D01*
X133773809Y-102390476D01*
X134547619Y-102390476D01*
X118773809Y-103315476D02*
X119488095Y-103315476D01*
X119130952Y-104565476D02*
X119130952Y-103315476D01*
X119904761Y-104565476D02*
X119904761Y-103732142D01*
X119904761Y-103970238D02*
X119964285Y-103851190D01*
X120023809Y-103791666D01*
X120142857Y-103732142D01*
X120261904Y-103732142D01*
X120678571Y-104565476D02*
X120678571Y-103732142D01*
X120678571Y-103315476D02*
X120619047Y-103375000D01*
X120678571Y-103434523D01*
X120738095Y-103375000D01*
X120678571Y-103315476D01*
X120678571Y-103434523D01*
X121214285Y-104505952D02*
X121333333Y-104565476D01*
X121571428Y-104565476D01*
X121690476Y-104505952D01*
X121750000Y-104386904D01*
X121750000Y-104327380D01*
X121690476Y-104208333D01*
X121571428Y-104148809D01*
X121392857Y-104148809D01*
X121273809Y-104089285D01*
X121214285Y-103970238D01*
X121214285Y-103910714D01*
X121273809Y-103791666D01*
X121392857Y-103732142D01*
X121571428Y-103732142D01*
X121690476Y-103791666D01*
X122107142Y-103732142D02*
X122583333Y-103732142D01*
X122285714Y-103315476D02*
X122285714Y-104386904D01*
X122345238Y-104505952D01*
X122464285Y-104565476D01*
X122583333Y-104565476D01*
X123535714Y-104565476D02*
X123535714Y-103910714D01*
X123476190Y-103791666D01*
X123357142Y-103732142D01*
X123119047Y-103732142D01*
X123000000Y-103791666D01*
X123535714Y-104505952D02*
X123416666Y-104565476D01*
X123119047Y-104565476D01*
X123000000Y-104505952D01*
X122940476Y-104386904D01*
X122940476Y-104267857D01*
X123000000Y-104148809D01*
X123119047Y-104089285D01*
X123416666Y-104089285D01*
X123535714Y-104029761D01*
X124130952Y-103732142D02*
X124130952Y-104565476D01*
X124130952Y-103851190D02*
X124190476Y-103791666D01*
X124309523Y-103732142D01*
X124488095Y-103732142D01*
X124607142Y-103791666D01*
X124666666Y-103910714D01*
X124666666Y-104565476D01*
X126928571Y-104446428D02*
X126869047Y-104505952D01*
X126690476Y-104565476D01*
X126571428Y-104565476D01*
X126392857Y-104505952D01*
X126273809Y-104386904D01*
X126214285Y-104267857D01*
X126154761Y-104029761D01*
X126154761Y-103851190D01*
X126214285Y-103613095D01*
X126273809Y-103494047D01*
X126392857Y-103375000D01*
X126571428Y-103315476D01*
X126690476Y-103315476D01*
X126869047Y-103375000D01*
X126928571Y-103434523D01*
X127642857Y-104565476D02*
X127523809Y-104505952D01*
X127464285Y-104446428D01*
X127404761Y-104327380D01*
X127404761Y-103970238D01*
X127464285Y-103851190D01*
X127523809Y-103791666D01*
X127642857Y-103732142D01*
X127821428Y-103732142D01*
X127940476Y-103791666D01*
X128000000Y-103851190D01*
X128059523Y-103970238D01*
X128059523Y-104327380D01*
X128000000Y-104446428D01*
X127940476Y-104505952D01*
X127821428Y-104565476D01*
X127642857Y-104565476D01*
X128773809Y-104565476D02*
X128654761Y-104505952D01*
X128595238Y-104386904D01*
X128595238Y-103315476D01*
X129428571Y-104565476D02*
X129309523Y-104505952D01*
X129250000Y-104386904D01*
X129250000Y-103315476D01*
X129904761Y-104565476D02*
X129904761Y-103732142D01*
X129904761Y-103315476D02*
X129845238Y-103375000D01*
X129904761Y-103434523D01*
X129964285Y-103375000D01*
X129904761Y-103315476D01*
X129904761Y-103434523D01*
X130500000Y-103732142D02*
X130500000Y-104565476D01*
X130500000Y-103851190D02*
X130559523Y-103791666D01*
X130678571Y-103732142D01*
X130857142Y-103732142D01*
X130976190Y-103791666D01*
X131035714Y-103910714D01*
X131035714Y-104565476D01*
X131571428Y-104505952D02*
X131690476Y-104565476D01*
X131928571Y-104565476D01*
X132047619Y-104505952D01*
X132107142Y-104386904D01*
X132107142Y-104327380D01*
X132047619Y-104208333D01*
X131928571Y-104148809D01*
X131750000Y-104148809D01*
X131630952Y-104089285D01*
X131571428Y-103970238D01*
X131571428Y-103910714D01*
X131630952Y-103791666D01*
X131750000Y-103732142D01*
X131928571Y-103732142D01*
X132047619Y-103791666D01*
X121154761Y-105490476D02*
X121154761Y-106383333D01*
X121095238Y-106561904D01*
X120976190Y-106680952D01*
X120797619Y-106740476D01*
X120678571Y-106740476D01*
X122285714Y-105907142D02*
X122285714Y-106740476D01*
X121750000Y-105907142D02*
X121750000Y-106561904D01*
X121809523Y-106680952D01*
X121928571Y-106740476D01*
X122107142Y-106740476D01*
X122226190Y-106680952D01*
X122285714Y-106621428D01*
X122880952Y-105907142D02*
X122880952Y-106740476D01*
X122880952Y-106026190D02*
X122940476Y-105966666D01*
X123059523Y-105907142D01*
X123238095Y-105907142D01*
X123357142Y-105966666D01*
X123416666Y-106085714D01*
X123416666Y-106740476D01*
X124488095Y-106680952D02*
X124369047Y-106740476D01*
X124130952Y-106740476D01*
X124011904Y-106680952D01*
X123952380Y-106561904D01*
X123952380Y-106085714D01*
X124011904Y-105966666D01*
X124130952Y-105907142D01*
X124369047Y-105907142D01*
X124488095Y-105966666D01*
X124547619Y-106085714D01*
X124547619Y-106204761D01*
X123952380Y-106323809D01*
X125976190Y-105609523D02*
X126035714Y-105550000D01*
X126154761Y-105490476D01*
X126452380Y-105490476D01*
X126571428Y-105550000D01*
X126630952Y-105609523D01*
X126690476Y-105728571D01*
X126690476Y-105847619D01*
X126630952Y-106026190D01*
X125916666Y-106740476D01*
X126690476Y-106740476D01*
X127464285Y-105490476D02*
X127583333Y-105490476D01*
X127702380Y-105550000D01*
X127761904Y-105609523D01*
X127821428Y-105728571D01*
X127880952Y-105966666D01*
X127880952Y-106264285D01*
X127821428Y-106502380D01*
X127761904Y-106621428D01*
X127702380Y-106680952D01*
X127583333Y-106740476D01*
X127464285Y-106740476D01*
X127345238Y-106680952D01*
X127285714Y-106621428D01*
X127226190Y-106502380D01*
X127166666Y-106264285D01*
X127166666Y-105966666D01*
X127226190Y-105728571D01*
X127285714Y-105609523D01*
X127345238Y-105550000D01*
X127464285Y-105490476D01*
X129071428Y-106740476D02*
X128357142Y-106740476D01*
X128714285Y-106740476D02*
X128714285Y-105490476D01*
X128595238Y-105669047D01*
X128476190Y-105788095D01*
X128357142Y-105847619D01*
X129785714Y-106026190D02*
X129666666Y-105966666D01*
X129607142Y-105907142D01*
X129547619Y-105788095D01*
X129547619Y-105728571D01*
X129607142Y-105609523D01*
X129666666Y-105550000D01*
X129785714Y-105490476D01*
X130023809Y-105490476D01*
X130142857Y-105550000D01*
X130202380Y-105609523D01*
X130261904Y-105728571D01*
X130261904Y-105788095D01*
X130202380Y-105907142D01*
X130142857Y-105966666D01*
X130023809Y-106026190D01*
X129785714Y-106026190D01*
X129666666Y-106085714D01*
X129607142Y-106145238D01*
X129547619Y-106264285D01*
X129547619Y-106502380D01*
X129607142Y-106621428D01*
X129666666Y-106680952D01*
X129785714Y-106740476D01*
X130023809Y-106740476D01*
X130142857Y-106680952D01*
X130202380Y-106621428D01*
X130261904Y-106502380D01*
X130261904Y-106264285D01*
X130202380Y-106145238D01*
X130142857Y-106085714D01*
X130023809Y-106026190D01*
X121095238Y-111323214D02*
X121273809Y-111382738D01*
X121333333Y-111442261D01*
X121392857Y-111561309D01*
X121392857Y-111739880D01*
X121333333Y-111858928D01*
X121273809Y-111918452D01*
X121154761Y-111977976D01*
X120678571Y-111977976D01*
X120678571Y-110727976D01*
X121095238Y-110727976D01*
X121214285Y-110787500D01*
X121273809Y-110847023D01*
X121333333Y-110966071D01*
X121333333Y-111085119D01*
X121273809Y-111204166D01*
X121214285Y-111263690D01*
X121095238Y-111323214D01*
X120678571Y-111323214D01*
X121928571Y-111977976D02*
X121928571Y-111144642D01*
X121928571Y-110727976D02*
X121869047Y-110787500D01*
X121928571Y-110847023D01*
X121988095Y-110787500D01*
X121928571Y-110727976D01*
X121928571Y-110847023D01*
X123059523Y-111977976D02*
X123059523Y-111323214D01*
X123000000Y-111204166D01*
X122880952Y-111144642D01*
X122642857Y-111144642D01*
X122523809Y-111204166D01*
X123059523Y-111918452D02*
X122940476Y-111977976D01*
X122642857Y-111977976D01*
X122523809Y-111918452D01*
X122464285Y-111799404D01*
X122464285Y-111680357D01*
X122523809Y-111561309D01*
X122642857Y-111501785D01*
X122940476Y-111501785D01*
X123059523Y-111442261D01*
X123595238Y-111918452D02*
X123714285Y-111977976D01*
X123952380Y-111977976D01*
X124071428Y-111918452D01*
X124130952Y-111799404D01*
X124130952Y-111739880D01*
X124071428Y-111620833D01*
X123952380Y-111561309D01*
X123773809Y-111561309D01*
X123654761Y-111501785D01*
X123595238Y-111382738D01*
X123595238Y-111323214D01*
X123654761Y-111204166D01*
X123773809Y-111144642D01*
X123952380Y-111144642D01*
X124071428Y-111204166D01*
X125083333Y-111323214D02*
X125261904Y-111382738D01*
X125321428Y-111442261D01*
X125380952Y-111561309D01*
X125380952Y-111739880D01*
X125321428Y-111858928D01*
X125261904Y-111918452D01*
X125142857Y-111977976D01*
X124666666Y-111977976D01*
X124666666Y-110727976D01*
X125083333Y-110727976D01*
X125202380Y-110787500D01*
X125261904Y-110847023D01*
X125321428Y-110966071D01*
X125321428Y-111085119D01*
X125261904Y-111204166D01*
X125202380Y-111263690D01*
X125083333Y-111323214D01*
X124666666Y-111323214D01*
X122017857Y-112902976D02*
X122732142Y-112902976D01*
X122375000Y-114152976D02*
X122375000Y-112902976D01*
X123148809Y-114152976D02*
X123148809Y-112902976D01*
X123625000Y-112902976D01*
X123744047Y-112962500D01*
X123803571Y-113022023D01*
X123863095Y-113141071D01*
X123863095Y-113319642D01*
X123803571Y-113438690D01*
X123744047Y-113498214D01*
X123625000Y-113557738D01*
X123148809Y-113557738D01*
X92184523Y-86323214D02*
X92363095Y-86382738D01*
X92422619Y-86442261D01*
X92482142Y-86561309D01*
X92482142Y-86739880D01*
X92422619Y-86858928D01*
X92363095Y-86918452D01*
X92244047Y-86977976D01*
X91767857Y-86977976D01*
X91767857Y-85727976D01*
X92184523Y-85727976D01*
X92303571Y-85787500D01*
X92363095Y-85847023D01*
X92422619Y-85966071D01*
X92422619Y-86085119D01*
X92363095Y-86204166D01*
X92303571Y-86263690D01*
X92184523Y-86323214D01*
X91767857Y-86323214D01*
X93017857Y-86977976D02*
X93017857Y-86144642D01*
X93017857Y-85727976D02*
X92958333Y-85787500D01*
X93017857Y-85847023D01*
X93077380Y-85787500D01*
X93017857Y-85727976D01*
X93017857Y-85847023D01*
X94148809Y-86977976D02*
X94148809Y-86323214D01*
X94089285Y-86204166D01*
X93970238Y-86144642D01*
X93732142Y-86144642D01*
X93613095Y-86204166D01*
X94148809Y-86918452D02*
X94029761Y-86977976D01*
X93732142Y-86977976D01*
X93613095Y-86918452D01*
X93553571Y-86799404D01*
X93553571Y-86680357D01*
X93613095Y-86561309D01*
X93732142Y-86501785D01*
X94029761Y-86501785D01*
X94148809Y-86442261D01*
X94684523Y-86918452D02*
X94803571Y-86977976D01*
X95041666Y-86977976D01*
X95160714Y-86918452D01*
X95220238Y-86799404D01*
X95220238Y-86739880D01*
X95160714Y-86620833D01*
X95041666Y-86561309D01*
X94863095Y-86561309D01*
X94744047Y-86501785D01*
X94684523Y-86382738D01*
X94684523Y-86323214D01*
X94744047Y-86204166D01*
X94863095Y-86144642D01*
X95041666Y-86144642D01*
X95160714Y-86204166D01*
X95696428Y-86620833D02*
X96291666Y-86620833D01*
X95577380Y-86977976D02*
X95994047Y-85727976D01*
X96410714Y-86977976D01*
X93017857Y-87902976D02*
X93732142Y-87902976D01*
X93375000Y-89152976D02*
X93375000Y-87902976D01*
X94148809Y-89152976D02*
X94148809Y-87902976D01*
X94625000Y-87902976D01*
X94744047Y-87962500D01*
X94803571Y-88022023D01*
X94863095Y-88141071D01*
X94863095Y-88319642D01*
X94803571Y-88438690D01*
X94744047Y-88498214D01*
X94625000Y-88557738D01*
X94148809Y-88557738D01*
X122720238Y-36823214D02*
X122898809Y-36882738D01*
X122958333Y-36942261D01*
X123017857Y-37061309D01*
X123017857Y-37239880D01*
X122958333Y-37358928D01*
X122898809Y-37418452D01*
X122779761Y-37477976D01*
X122303571Y-37477976D01*
X122303571Y-36227976D01*
X122720238Y-36227976D01*
X122839285Y-36287500D01*
X122898809Y-36347023D01*
X122958333Y-36466071D01*
X122958333Y-36585119D01*
X122898809Y-36704166D01*
X122839285Y-36763690D01*
X122720238Y-36823214D01*
X122303571Y-36823214D01*
X123553571Y-37001785D02*
X124505952Y-37001785D01*
X124029761Y-37477976D02*
X124029761Y-36525595D01*
X125041666Y-36347023D02*
X125101190Y-36287500D01*
X125220238Y-36227976D01*
X125517857Y-36227976D01*
X125636904Y-36287500D01*
X125696428Y-36347023D01*
X125755952Y-36466071D01*
X125755952Y-36585119D01*
X125696428Y-36763690D01*
X124982142Y-37477976D01*
X125755952Y-37477976D01*
X123017857Y-38402976D02*
X123732142Y-38402976D01*
X123375000Y-39652976D02*
X123375000Y-38402976D01*
X124148809Y-39652976D02*
X124148809Y-38402976D01*
X124625000Y-38402976D01*
X124744047Y-38462500D01*
X124803571Y-38522023D01*
X124863095Y-38641071D01*
X124863095Y-38819642D01*
X124803571Y-38938690D01*
X124744047Y-38998214D01*
X124625000Y-39057738D01*
X124148809Y-39057738D01*
X124720238Y-43823214D02*
X124898809Y-43882738D01*
X124958333Y-43942261D01*
X125017857Y-44061309D01*
X125017857Y-44239880D01*
X124958333Y-44358928D01*
X124898809Y-44418452D01*
X124779761Y-44477976D01*
X124303571Y-44477976D01*
X124303571Y-43227976D01*
X124720238Y-43227976D01*
X124839285Y-43287500D01*
X124898809Y-43347023D01*
X124958333Y-43466071D01*
X124958333Y-43585119D01*
X124898809Y-43704166D01*
X124839285Y-43763690D01*
X124720238Y-43823214D01*
X124303571Y-43823214D01*
X125553571Y-44001785D02*
X126505952Y-44001785D01*
X126029761Y-44477976D02*
X126029761Y-43525595D01*
X127755952Y-44477976D02*
X127041666Y-44477976D01*
X127398809Y-44477976D02*
X127398809Y-43227976D01*
X127279761Y-43406547D01*
X127160714Y-43525595D01*
X127041666Y-43585119D01*
X125017857Y-45402976D02*
X125732142Y-45402976D01*
X125375000Y-46652976D02*
X125375000Y-45402976D01*
X126148809Y-46652976D02*
X126148809Y-45402976D01*
X126625000Y-45402976D01*
X126744047Y-45462500D01*
X126803571Y-45522023D01*
X126863095Y-45641071D01*
X126863095Y-45819642D01*
X126803571Y-45938690D01*
X126744047Y-45998214D01*
X126625000Y-46057738D01*
X126148809Y-46057738D01*
X96089285Y-103315476D02*
X96803571Y-103315476D01*
X96446428Y-104565476D02*
X96446428Y-103315476D01*
X97220238Y-104565476D02*
X97220238Y-103732142D01*
X97220238Y-103970238D02*
X97279761Y-103851190D01*
X97339285Y-103791666D01*
X97458333Y-103732142D01*
X97577380Y-103732142D01*
X97994047Y-104565476D02*
X97994047Y-103732142D01*
X97994047Y-103315476D02*
X97934523Y-103375000D01*
X97994047Y-103434523D01*
X98053571Y-103375000D01*
X97994047Y-103315476D01*
X97994047Y-103434523D01*
X98589285Y-104565476D02*
X98589285Y-103732142D01*
X98589285Y-103851190D02*
X98648809Y-103791666D01*
X98767857Y-103732142D01*
X98946428Y-103732142D01*
X99065476Y-103791666D01*
X99125000Y-103910714D01*
X99125000Y-104565476D01*
X99125000Y-103910714D02*
X99184523Y-103791666D01*
X99303571Y-103732142D01*
X99482142Y-103732142D01*
X99601190Y-103791666D01*
X99660714Y-103910714D01*
X99660714Y-104565476D01*
X100196428Y-104208333D02*
X100791666Y-104208333D01*
X100077380Y-104565476D02*
X100494047Y-103315476D01*
X100910714Y-104565476D01*
X84000000Y-103315476D02*
X84714285Y-103315476D01*
X84357142Y-104565476D02*
X84357142Y-103315476D01*
X85130952Y-104565476D02*
X85130952Y-103732142D01*
X85130952Y-103970238D02*
X85190476Y-103851190D01*
X85250000Y-103791666D01*
X85369047Y-103732142D01*
X85488095Y-103732142D01*
X85904761Y-104565476D02*
X85904761Y-103732142D01*
X85904761Y-103315476D02*
X85845238Y-103375000D01*
X85904761Y-103434523D01*
X85964285Y-103375000D01*
X85904761Y-103315476D01*
X85904761Y-103434523D01*
X86500000Y-104565476D02*
X86500000Y-103732142D01*
X86500000Y-103851190D02*
X86559523Y-103791666D01*
X86678571Y-103732142D01*
X86857142Y-103732142D01*
X86976190Y-103791666D01*
X87035714Y-103910714D01*
X87035714Y-104565476D01*
X87035714Y-103910714D02*
X87095238Y-103791666D01*
X87214285Y-103732142D01*
X87392857Y-103732142D01*
X87511904Y-103791666D01*
X87571428Y-103910714D01*
X87571428Y-104565476D01*
X88583333Y-103910714D02*
X88761904Y-103970238D01*
X88821428Y-104029761D01*
X88880952Y-104148809D01*
X88880952Y-104327380D01*
X88821428Y-104446428D01*
X88761904Y-104505952D01*
X88642857Y-104565476D01*
X88166666Y-104565476D01*
X88166666Y-103315476D01*
X88583333Y-103315476D01*
X88702380Y-103375000D01*
X88761904Y-103434523D01*
X88821428Y-103553571D01*
X88821428Y-103672619D01*
X88761904Y-103791666D01*
X88702380Y-103851190D01*
X88583333Y-103910714D01*
X88166666Y-103910714D01*
X55208333Y-46910714D02*
X55386904Y-46970238D01*
X55446428Y-47029761D01*
X55505952Y-47148809D01*
X55505952Y-47327380D01*
X55446428Y-47446428D01*
X55386904Y-47505952D01*
X55267857Y-47565476D01*
X54791666Y-47565476D01*
X54791666Y-46315476D01*
X55208333Y-46315476D01*
X55327380Y-46375000D01*
X55386904Y-46434523D01*
X55446428Y-46553571D01*
X55446428Y-46672619D01*
X55386904Y-46791666D01*
X55327380Y-46851190D01*
X55208333Y-46910714D01*
X54791666Y-46910714D01*
X56041666Y-47565476D02*
X56041666Y-46732142D01*
X56041666Y-46970238D02*
X56101190Y-46851190D01*
X56160714Y-46791666D01*
X56279761Y-46732142D01*
X56398809Y-46732142D01*
X56815476Y-47565476D02*
X56815476Y-46732142D01*
X56815476Y-46315476D02*
X56755952Y-46375000D01*
X56815476Y-46434523D01*
X56875000Y-46375000D01*
X56815476Y-46315476D01*
X56815476Y-46434523D01*
X57946428Y-47565476D02*
X57946428Y-46315476D01*
X57946428Y-47505952D02*
X57827380Y-47565476D01*
X57589285Y-47565476D01*
X57470238Y-47505952D01*
X57410714Y-47446428D01*
X57351190Y-47327380D01*
X57351190Y-46970238D01*
X57410714Y-46851190D01*
X57470238Y-46791666D01*
X57589285Y-46732142D01*
X57827380Y-46732142D01*
X57946428Y-46791666D01*
X59077380Y-46732142D02*
X59077380Y-47744047D01*
X59017857Y-47863095D01*
X58958333Y-47922619D01*
X58839285Y-47982142D01*
X58660714Y-47982142D01*
X58541666Y-47922619D01*
X59077380Y-47505952D02*
X58958333Y-47565476D01*
X58720238Y-47565476D01*
X58601190Y-47505952D01*
X58541666Y-47446428D01*
X58482142Y-47327380D01*
X58482142Y-46970238D01*
X58541666Y-46851190D01*
X58601190Y-46791666D01*
X58720238Y-46732142D01*
X58958333Y-46732142D01*
X59077380Y-46791666D01*
X60148809Y-47505952D02*
X60029761Y-47565476D01*
X59791666Y-47565476D01*
X59672619Y-47505952D01*
X59613095Y-47386904D01*
X59613095Y-46910714D01*
X59672619Y-46791666D01*
X59791666Y-46732142D01*
X60029761Y-46732142D01*
X60148809Y-46791666D01*
X60208333Y-46910714D01*
X60208333Y-47029761D01*
X59613095Y-47148809D01*
X62410714Y-47565476D02*
X61994047Y-46970238D01*
X61696428Y-47565476D02*
X61696428Y-46315476D01*
X62172619Y-46315476D01*
X62291666Y-46375000D01*
X62351190Y-46434523D01*
X62410714Y-46553571D01*
X62410714Y-46732142D01*
X62351190Y-46851190D01*
X62291666Y-46910714D01*
X62172619Y-46970238D01*
X61696428Y-46970238D01*
X63422619Y-47505952D02*
X63303571Y-47565476D01*
X63065476Y-47565476D01*
X62946428Y-47505952D01*
X62886904Y-47386904D01*
X62886904Y-46910714D01*
X62946428Y-46791666D01*
X63065476Y-46732142D01*
X63303571Y-46732142D01*
X63422619Y-46791666D01*
X63482142Y-46910714D01*
X63482142Y-47029761D01*
X62886904Y-47148809D01*
X64553571Y-47505952D02*
X64434523Y-47565476D01*
X64196428Y-47565476D01*
X64077380Y-47505952D01*
X64017857Y-47446428D01*
X63958333Y-47327380D01*
X63958333Y-46970238D01*
X64017857Y-46851190D01*
X64077380Y-46791666D01*
X64196428Y-46732142D01*
X64434523Y-46732142D01*
X64553571Y-46791666D01*
X64910714Y-46732142D02*
X65386904Y-46732142D01*
X65089285Y-46315476D02*
X65089285Y-47386904D01*
X65148809Y-47505952D01*
X65267857Y-47565476D01*
X65386904Y-47565476D01*
X123910714Y-94315476D02*
X123970238Y-94136904D01*
X124029761Y-94077380D01*
X124148809Y-94017857D01*
X124327380Y-94017857D01*
X124446428Y-94077380D01*
X124505952Y-94136904D01*
X124565476Y-94255952D01*
X124565476Y-94732142D01*
X123315476Y-94732142D01*
X123315476Y-94315476D01*
X123375000Y-94196428D01*
X123434523Y-94136904D01*
X123553571Y-94077380D01*
X123672619Y-94077380D01*
X123791666Y-94136904D01*
X123851190Y-94196428D01*
X123910714Y-94315476D01*
X123910714Y-94732142D01*
X124565476Y-93482142D02*
X123732142Y-93482142D01*
X123315476Y-93482142D02*
X123375000Y-93541666D01*
X123434523Y-93482142D01*
X123375000Y-93422619D01*
X123315476Y-93482142D01*
X123434523Y-93482142D01*
X124565476Y-92351190D02*
X123910714Y-92351190D01*
X123791666Y-92410714D01*
X123732142Y-92529761D01*
X123732142Y-92767857D01*
X123791666Y-92886904D01*
X124505952Y-92351190D02*
X124565476Y-92470238D01*
X124565476Y-92767857D01*
X124505952Y-92886904D01*
X124386904Y-92946428D01*
X124267857Y-92946428D01*
X124148809Y-92886904D01*
X124089285Y-92767857D01*
X124089285Y-92470238D01*
X124029761Y-92351190D01*
X124505952Y-91815476D02*
X124565476Y-91696428D01*
X124565476Y-91458333D01*
X124505952Y-91339285D01*
X124386904Y-91279761D01*
X124327380Y-91279761D01*
X124208333Y-91339285D01*
X124148809Y-91458333D01*
X124148809Y-91636904D01*
X124089285Y-91755952D01*
X123970238Y-91815476D01*
X123910714Y-91815476D01*
X123791666Y-91755952D01*
X123732142Y-91636904D01*
X123732142Y-91458333D01*
X123791666Y-91339285D01*
X124208333Y-90803571D02*
X124208333Y-90208333D01*
X124565476Y-90922619D02*
X123315476Y-90505952D01*
X124565476Y-90089285D01*
X123910714Y-100404761D02*
X123970238Y-100226190D01*
X124029761Y-100166666D01*
X124148809Y-100107142D01*
X124327380Y-100107142D01*
X124446428Y-100166666D01*
X124505952Y-100226190D01*
X124565476Y-100345238D01*
X124565476Y-100821428D01*
X123315476Y-100821428D01*
X123315476Y-100404761D01*
X123375000Y-100285714D01*
X123434523Y-100226190D01*
X123553571Y-100166666D01*
X123672619Y-100166666D01*
X123791666Y-100226190D01*
X123851190Y-100285714D01*
X123910714Y-100404761D01*
X123910714Y-100821428D01*
X124565476Y-99571428D02*
X123732142Y-99571428D01*
X123315476Y-99571428D02*
X123375000Y-99630952D01*
X123434523Y-99571428D01*
X123375000Y-99511904D01*
X123315476Y-99571428D01*
X123434523Y-99571428D01*
X124565476Y-98440476D02*
X123910714Y-98440476D01*
X123791666Y-98500000D01*
X123732142Y-98619047D01*
X123732142Y-98857142D01*
X123791666Y-98976190D01*
X124505952Y-98440476D02*
X124565476Y-98559523D01*
X124565476Y-98857142D01*
X124505952Y-98976190D01*
X124386904Y-99035714D01*
X124267857Y-99035714D01*
X124148809Y-98976190D01*
X124089285Y-98857142D01*
X124089285Y-98559523D01*
X124029761Y-98440476D01*
X124505952Y-97904761D02*
X124565476Y-97785714D01*
X124565476Y-97547619D01*
X124505952Y-97428571D01*
X124386904Y-97369047D01*
X124327380Y-97369047D01*
X124208333Y-97428571D01*
X124148809Y-97547619D01*
X124148809Y-97726190D01*
X124089285Y-97845238D01*
X123970238Y-97904761D01*
X123910714Y-97904761D01*
X123791666Y-97845238D01*
X123732142Y-97726190D01*
X123732142Y-97547619D01*
X123791666Y-97428571D01*
X123910714Y-96416666D02*
X123970238Y-96238095D01*
X124029761Y-96178571D01*
X124148809Y-96119047D01*
X124327380Y-96119047D01*
X124446428Y-96178571D01*
X124505952Y-96238095D01*
X124565476Y-96357142D01*
X124565476Y-96833333D01*
X123315476Y-96833333D01*
X123315476Y-96416666D01*
X123375000Y-96297619D01*
X123434523Y-96238095D01*
X123553571Y-96178571D01*
X123672619Y-96178571D01*
X123791666Y-96238095D01*
X123851190Y-96297619D01*
X123910714Y-96416666D01*
X123910714Y-96833333D01*
X124208333Y-88702380D02*
X124208333Y-88107142D01*
X124565476Y-88821428D02*
X123315476Y-88404761D01*
X124565476Y-87988095D01*
X123375000Y-86916666D02*
X123315476Y-87035714D01*
X123315476Y-87214285D01*
X123375000Y-87392857D01*
X123494047Y-87511904D01*
X123613095Y-87571428D01*
X123851190Y-87630952D01*
X124029761Y-87630952D01*
X124267857Y-87571428D01*
X124386904Y-87511904D01*
X124505952Y-87392857D01*
X124565476Y-87214285D01*
X124565476Y-87095238D01*
X124505952Y-86916666D01*
X124446428Y-86857142D01*
X124029761Y-86857142D01*
X124029761Y-87095238D01*
X124565476Y-86321428D02*
X123315476Y-86321428D01*
X124565476Y-85607142D01*
X123315476Y-85607142D01*
X124565476Y-85011904D02*
X123315476Y-85011904D01*
X123315476Y-84714285D01*
X123375000Y-84535714D01*
X123494047Y-84416666D01*
X123613095Y-84357142D01*
X123851190Y-84297619D01*
X124029761Y-84297619D01*
X124267857Y-84357142D01*
X124386904Y-84416666D01*
X124505952Y-84535714D01*
X124565476Y-84714285D01*
X124565476Y-85011904D01*
X124208333Y-83202380D02*
X124208333Y-82607142D01*
X124565476Y-83321428D02*
X123315476Y-82904761D01*
X124565476Y-82488095D01*
X123375000Y-81416666D02*
X123315476Y-81535714D01*
X123315476Y-81714285D01*
X123375000Y-81892857D01*
X123494047Y-82011904D01*
X123613095Y-82071428D01*
X123851190Y-82130952D01*
X124029761Y-82130952D01*
X124267857Y-82071428D01*
X124386904Y-82011904D01*
X124505952Y-81892857D01*
X124565476Y-81714285D01*
X124565476Y-81595238D01*
X124505952Y-81416666D01*
X124446428Y-81357142D01*
X124029761Y-81357142D01*
X124029761Y-81595238D01*
X124565476Y-80821428D02*
X123315476Y-80821428D01*
X124565476Y-80107142D01*
X123315476Y-80107142D01*
X124565476Y-79511904D02*
X123315476Y-79511904D01*
X123315476Y-79214285D01*
X123375000Y-79035714D01*
X123494047Y-78916666D01*
X123613095Y-78857142D01*
X123851190Y-78797619D01*
X124029761Y-78797619D01*
X124267857Y-78857142D01*
X124386904Y-78916666D01*
X124505952Y-79035714D01*
X124565476Y-79214285D01*
X124565476Y-79511904D01*
X124208333Y-77202380D02*
X124208333Y-76607142D01*
X124565476Y-77321428D02*
X123315476Y-76904761D01*
X124565476Y-76488095D01*
X123375000Y-75416666D02*
X123315476Y-75535714D01*
X123315476Y-75714285D01*
X123375000Y-75892857D01*
X123494047Y-76011904D01*
X123613095Y-76071428D01*
X123851190Y-76130952D01*
X124029761Y-76130952D01*
X124267857Y-76071428D01*
X124386904Y-76011904D01*
X124505952Y-75892857D01*
X124565476Y-75714285D01*
X124565476Y-75595238D01*
X124505952Y-75416666D01*
X124446428Y-75357142D01*
X124029761Y-75357142D01*
X124029761Y-75595238D01*
X124565476Y-74821428D02*
X123315476Y-74821428D01*
X124565476Y-74107142D01*
X123315476Y-74107142D01*
X124565476Y-73511904D02*
X123315476Y-73511904D01*
X123315476Y-73214285D01*
X123375000Y-73035714D01*
X123494047Y-72916666D01*
X123613095Y-72857142D01*
X123851190Y-72797619D01*
X124029761Y-72797619D01*
X124267857Y-72857142D01*
X124386904Y-72916666D01*
X124505952Y-73035714D01*
X124565476Y-73214285D01*
X124565476Y-73511904D01*
X124208333Y-66202380D02*
X124208333Y-65607142D01*
X124565476Y-66321428D02*
X123315476Y-65904761D01*
X124565476Y-65488095D01*
X123375000Y-64416666D02*
X123315476Y-64535714D01*
X123315476Y-64714285D01*
X123375000Y-64892857D01*
X123494047Y-65011904D01*
X123613095Y-65071428D01*
X123851190Y-65130952D01*
X124029761Y-65130952D01*
X124267857Y-65071428D01*
X124386904Y-65011904D01*
X124505952Y-64892857D01*
X124565476Y-64714285D01*
X124565476Y-64595238D01*
X124505952Y-64416666D01*
X124446428Y-64357142D01*
X124029761Y-64357142D01*
X124029761Y-64595238D01*
X124565476Y-63821428D02*
X123315476Y-63821428D01*
X124565476Y-63107142D01*
X123315476Y-63107142D01*
X124565476Y-62511904D02*
X123315476Y-62511904D01*
X123315476Y-62214285D01*
X123375000Y-62035714D01*
X123494047Y-61916666D01*
X123613095Y-61857142D01*
X123851190Y-61797619D01*
X124029761Y-61797619D01*
X124267857Y-61857142D01*
X124386904Y-61916666D01*
X124505952Y-62035714D01*
X124565476Y-62214285D01*
X124565476Y-62511904D01*
X124208333Y-60202380D02*
X124208333Y-59607142D01*
X124565476Y-60321428D02*
X123315476Y-59904761D01*
X124565476Y-59488095D01*
X123375000Y-58416666D02*
X123315476Y-58535714D01*
X123315476Y-58714285D01*
X123375000Y-58892857D01*
X123494047Y-59011904D01*
X123613095Y-59071428D01*
X123851190Y-59130952D01*
X124029761Y-59130952D01*
X124267857Y-59071428D01*
X124386904Y-59011904D01*
X124505952Y-58892857D01*
X124565476Y-58714285D01*
X124565476Y-58595238D01*
X124505952Y-58416666D01*
X124446428Y-58357142D01*
X124029761Y-58357142D01*
X124029761Y-58595238D01*
X124565476Y-57821428D02*
X123315476Y-57821428D01*
X124565476Y-57107142D01*
X123315476Y-57107142D01*
X124565476Y-56511904D02*
X123315476Y-56511904D01*
X123315476Y-56214285D01*
X123375000Y-56035714D01*
X123494047Y-55916666D01*
X123613095Y-55857142D01*
X123851190Y-55797619D01*
X124029761Y-55797619D01*
X124267857Y-55857142D01*
X124386904Y-55916666D01*
X124505952Y-56035714D01*
X124565476Y-56214285D01*
X124565476Y-56511904D01*
X123910714Y-70779761D02*
X123970238Y-70601190D01*
X124029761Y-70541666D01*
X124148809Y-70482142D01*
X124327380Y-70482142D01*
X124446428Y-70541666D01*
X124505952Y-70601190D01*
X124565476Y-70720238D01*
X124565476Y-71196428D01*
X123315476Y-71196428D01*
X123315476Y-70779761D01*
X123375000Y-70660714D01*
X123434523Y-70601190D01*
X123553571Y-70541666D01*
X123672619Y-70541666D01*
X123791666Y-70601190D01*
X123851190Y-70660714D01*
X123910714Y-70779761D01*
X123910714Y-71196428D01*
X124089285Y-69946428D02*
X124089285Y-68994047D01*
X124565476Y-69470238D02*
X123613095Y-69470238D01*
X123434523Y-68458333D02*
X123375000Y-68398809D01*
X123315476Y-68279761D01*
X123315476Y-67982142D01*
X123375000Y-67863095D01*
X123434523Y-67803571D01*
X123553571Y-67744047D01*
X123672619Y-67744047D01*
X123851190Y-67803571D01*
X124565476Y-68517857D01*
X124565476Y-67744047D01*
X123910714Y-53779761D02*
X123970238Y-53601190D01*
X124029761Y-53541666D01*
X124148809Y-53482142D01*
X124327380Y-53482142D01*
X124446428Y-53541666D01*
X124505952Y-53601190D01*
X124565476Y-53720238D01*
X124565476Y-54196428D01*
X123315476Y-54196428D01*
X123315476Y-53779761D01*
X123375000Y-53660714D01*
X123434523Y-53601190D01*
X123553571Y-53541666D01*
X123672619Y-53541666D01*
X123791666Y-53601190D01*
X123851190Y-53660714D01*
X123910714Y-53779761D01*
X123910714Y-54196428D01*
X124089285Y-52946428D02*
X124089285Y-51994047D01*
X124565476Y-52470238D02*
X123613095Y-52470238D01*
X124565476Y-50744047D02*
X124565476Y-51458333D01*
X124565476Y-51101190D02*
X123315476Y-51101190D01*
X123494047Y-51220238D01*
X123613095Y-51339285D01*
X123672619Y-51458333D01*
X95565476Y-62095238D02*
X94315476Y-62095238D01*
X94315476Y-61797619D01*
X94375000Y-61619047D01*
X94494047Y-61500000D01*
X94613095Y-61440476D01*
X94851190Y-61380952D01*
X95029761Y-61380952D01*
X95267857Y-61440476D01*
X95386904Y-61500000D01*
X95505952Y-61619047D01*
X95565476Y-61797619D01*
X95565476Y-62095238D01*
X95565476Y-60845238D02*
X94732142Y-60845238D01*
X94970238Y-60845238D02*
X94851190Y-60785714D01*
X94791666Y-60726190D01*
X94732142Y-60607142D01*
X94732142Y-60488095D01*
X95565476Y-59892857D02*
X95505952Y-60011904D01*
X95446428Y-60071428D01*
X95327380Y-60130952D01*
X94970238Y-60130952D01*
X94851190Y-60071428D01*
X94791666Y-60011904D01*
X94732142Y-59892857D01*
X94732142Y-59714285D01*
X94791666Y-59595238D01*
X94851190Y-59535714D01*
X94970238Y-59476190D01*
X95327380Y-59476190D01*
X95446428Y-59535714D01*
X95505952Y-59595238D01*
X95565476Y-59714285D01*
X95565476Y-59892857D01*
X94732142Y-58940476D02*
X95982142Y-58940476D01*
X94791666Y-58940476D02*
X94732142Y-58821428D01*
X94732142Y-58583333D01*
X94791666Y-58464285D01*
X94851190Y-58404761D01*
X94970238Y-58345238D01*
X95327380Y-58345238D01*
X95446428Y-58404761D01*
X95505952Y-58464285D01*
X95565476Y-58583333D01*
X95565476Y-58821428D01*
X95505952Y-58940476D01*
X94732142Y-57809523D02*
X95982142Y-57809523D01*
X94791666Y-57809523D02*
X94732142Y-57690476D01*
X94732142Y-57452380D01*
X94791666Y-57333333D01*
X94851190Y-57273809D01*
X94970238Y-57214285D01*
X95327380Y-57214285D01*
X95446428Y-57273809D01*
X95505952Y-57333333D01*
X95565476Y-57452380D01*
X95565476Y-57690476D01*
X95505952Y-57809523D01*
X95565476Y-56678571D02*
X94732142Y-56678571D01*
X94315476Y-56678571D02*
X94375000Y-56738095D01*
X94434523Y-56678571D01*
X94375000Y-56619047D01*
X94315476Y-56678571D01*
X94434523Y-56678571D01*
X94732142Y-56083333D02*
X95565476Y-56083333D01*
X94851190Y-56083333D02*
X94791666Y-56023809D01*
X94732142Y-55904761D01*
X94732142Y-55726190D01*
X94791666Y-55607142D01*
X94910714Y-55547619D01*
X95565476Y-55547619D01*
X94732142Y-54416666D02*
X95744047Y-54416666D01*
X95863095Y-54476190D01*
X95922619Y-54535714D01*
X95982142Y-54654761D01*
X95982142Y-54833333D01*
X95922619Y-54952380D01*
X95505952Y-54416666D02*
X95565476Y-54535714D01*
X95565476Y-54773809D01*
X95505952Y-54892857D01*
X95446428Y-54952380D01*
X95327380Y-55011904D01*
X94970238Y-55011904D01*
X94851190Y-54952380D01*
X94791666Y-54892857D01*
X94732142Y-54773809D01*
X94732142Y-54535714D01*
X94791666Y-54416666D01*
X95565476Y-52154761D02*
X94970238Y-52571428D01*
X95565476Y-52869047D02*
X94315476Y-52869047D01*
X94315476Y-52392857D01*
X94375000Y-52273809D01*
X94434523Y-52214285D01*
X94553571Y-52154761D01*
X94732142Y-52154761D01*
X94851190Y-52214285D01*
X94910714Y-52273809D01*
X94970238Y-52392857D01*
X94970238Y-52869047D01*
X95505952Y-51142857D02*
X95565476Y-51261904D01*
X95565476Y-51500000D01*
X95505952Y-51619047D01*
X95386904Y-51678571D01*
X94910714Y-51678571D01*
X94791666Y-51619047D01*
X94732142Y-51500000D01*
X94732142Y-51261904D01*
X94791666Y-51142857D01*
X94910714Y-51083333D01*
X95029761Y-51083333D01*
X95148809Y-51678571D01*
X95505952Y-50607142D02*
X95565476Y-50488095D01*
X95565476Y-50250000D01*
X95505952Y-50130952D01*
X95386904Y-50071428D01*
X95327380Y-50071428D01*
X95208333Y-50130952D01*
X95148809Y-50250000D01*
X95148809Y-50428571D01*
X95089285Y-50547619D01*
X94970238Y-50607142D01*
X94910714Y-50607142D01*
X94791666Y-50547619D01*
X94732142Y-50428571D01*
X94732142Y-50250000D01*
X94791666Y-50130952D01*
X95565476Y-49535714D02*
X94732142Y-49535714D01*
X94315476Y-49535714D02*
X94375000Y-49595238D01*
X94434523Y-49535714D01*
X94375000Y-49476190D01*
X94315476Y-49535714D01*
X94434523Y-49535714D01*
X95505952Y-49000000D02*
X95565476Y-48880952D01*
X95565476Y-48642857D01*
X95505952Y-48523809D01*
X95386904Y-48464285D01*
X95327380Y-48464285D01*
X95208333Y-48523809D01*
X95148809Y-48642857D01*
X95148809Y-48821428D01*
X95089285Y-48940476D01*
X94970238Y-49000000D01*
X94910714Y-49000000D01*
X94791666Y-48940476D01*
X94732142Y-48821428D01*
X94732142Y-48642857D01*
X94791666Y-48523809D01*
X94732142Y-48107142D02*
X94732142Y-47630952D01*
X94315476Y-47928571D02*
X95386904Y-47928571D01*
X95505952Y-47869047D01*
X95565476Y-47750000D01*
X95565476Y-47630952D01*
X95565476Y-47035714D02*
X95505952Y-47154761D01*
X95446428Y-47214285D01*
X95327380Y-47273809D01*
X94970238Y-47273809D01*
X94851190Y-47214285D01*
X94791666Y-47154761D01*
X94732142Y-47035714D01*
X94732142Y-46857142D01*
X94791666Y-46738095D01*
X94851190Y-46678571D01*
X94970238Y-46619047D01*
X95327380Y-46619047D01*
X95446428Y-46678571D01*
X95505952Y-46738095D01*
X95565476Y-46857142D01*
X95565476Y-47035714D01*
X95565476Y-46083333D02*
X94732142Y-46083333D01*
X94970238Y-46083333D02*
X94851190Y-46023809D01*
X94791666Y-45964285D01*
X94732142Y-45845238D01*
X94732142Y-45726190D01*
X110720238Y-51823214D02*
X110898809Y-51882738D01*
X110958333Y-51942261D01*
X111017857Y-52061309D01*
X111017857Y-52239880D01*
X110958333Y-52358928D01*
X110898809Y-52418452D01*
X110779761Y-52477976D01*
X110303571Y-52477976D01*
X110303571Y-51227976D01*
X110720238Y-51227976D01*
X110839285Y-51287500D01*
X110898809Y-51347023D01*
X110958333Y-51466071D01*
X110958333Y-51585119D01*
X110898809Y-51704166D01*
X110839285Y-51763690D01*
X110720238Y-51823214D01*
X110303571Y-51823214D01*
X111553571Y-52001785D02*
X112505952Y-52001785D01*
X112029761Y-52477976D02*
X112029761Y-51525595D01*
X113041666Y-51347023D02*
X113101190Y-51287500D01*
X113220238Y-51227976D01*
X113517857Y-51227976D01*
X113636904Y-51287500D01*
X113696428Y-51347023D01*
X113755952Y-51466071D01*
X113755952Y-51585119D01*
X113696428Y-51763690D01*
X112982142Y-52477976D01*
X113755952Y-52477976D01*
X108041666Y-53998214D02*
X107625000Y-53998214D01*
X107625000Y-54652976D02*
X107625000Y-53402976D01*
X108220238Y-53402976D01*
X108696428Y-54652976D02*
X108696428Y-53819642D01*
X108696428Y-53402976D02*
X108636904Y-53462500D01*
X108696428Y-53522023D01*
X108755952Y-53462500D01*
X108696428Y-53402976D01*
X108696428Y-53522023D01*
X109470238Y-54652976D02*
X109351190Y-54593452D01*
X109291666Y-54474404D01*
X109291666Y-53402976D01*
X109767857Y-53819642D02*
X110244047Y-53819642D01*
X109946428Y-53402976D02*
X109946428Y-54474404D01*
X110005952Y-54593452D01*
X110125000Y-54652976D01*
X110244047Y-54652976D01*
X111136904Y-54593452D02*
X111017857Y-54652976D01*
X110779761Y-54652976D01*
X110660714Y-54593452D01*
X110601190Y-54474404D01*
X110601190Y-53998214D01*
X110660714Y-53879166D01*
X110779761Y-53819642D01*
X111017857Y-53819642D01*
X111136904Y-53879166D01*
X111196428Y-53998214D01*
X111196428Y-54117261D01*
X110601190Y-54236309D01*
X111732142Y-54652976D02*
X111732142Y-53819642D01*
X111732142Y-54057738D02*
X111791666Y-53938690D01*
X111851190Y-53879166D01*
X111970238Y-53819642D01*
X112089285Y-53819642D01*
X114172619Y-54533928D02*
X114113095Y-54593452D01*
X113934523Y-54652976D01*
X113815476Y-54652976D01*
X113636904Y-54593452D01*
X113517857Y-54474404D01*
X113458333Y-54355357D01*
X113398809Y-54117261D01*
X113398809Y-53938690D01*
X113458333Y-53700595D01*
X113517857Y-53581547D01*
X113636904Y-53462500D01*
X113815476Y-53402976D01*
X113934523Y-53402976D01*
X114113095Y-53462500D01*
X114172619Y-53522023D01*
X115244047Y-54652976D02*
X115244047Y-53998214D01*
X115184523Y-53879166D01*
X115065476Y-53819642D01*
X114827380Y-53819642D01*
X114708333Y-53879166D01*
X115244047Y-54593452D02*
X115125000Y-54652976D01*
X114827380Y-54652976D01*
X114708333Y-54593452D01*
X114648809Y-54474404D01*
X114648809Y-54355357D01*
X114708333Y-54236309D01*
X114827380Y-54176785D01*
X115125000Y-54176785D01*
X115244047Y-54117261D01*
X115839285Y-53819642D02*
X115839285Y-55069642D01*
X115839285Y-53879166D02*
X115958333Y-53819642D01*
X116196428Y-53819642D01*
X116315476Y-53879166D01*
X116375000Y-53938690D01*
X116434523Y-54057738D01*
X116434523Y-54414880D01*
X116375000Y-54533928D01*
X116315476Y-54593452D01*
X116196428Y-54652976D01*
X115958333Y-54652976D01*
X115839285Y-54593452D01*
X72851190Y-53565476D02*
X72434523Y-52970238D01*
X72136904Y-53565476D02*
X72136904Y-52315476D01*
X72613095Y-52315476D01*
X72732142Y-52375000D01*
X72791666Y-52434523D01*
X72851190Y-52553571D01*
X72851190Y-52732142D01*
X72791666Y-52851190D01*
X72732142Y-52910714D01*
X72613095Y-52970238D01*
X72136904Y-52970238D01*
X73863095Y-53505952D02*
X73744047Y-53565476D01*
X73505952Y-53565476D01*
X73386904Y-53505952D01*
X73327380Y-53386904D01*
X73327380Y-52910714D01*
X73386904Y-52791666D01*
X73505952Y-52732142D01*
X73744047Y-52732142D01*
X73863095Y-52791666D01*
X73922619Y-52910714D01*
X73922619Y-53029761D01*
X73327380Y-53148809D01*
X74398809Y-53505952D02*
X74517857Y-53565476D01*
X74755952Y-53565476D01*
X74875000Y-53505952D01*
X74934523Y-53386904D01*
X74934523Y-53327380D01*
X74875000Y-53208333D01*
X74755952Y-53148809D01*
X74577380Y-53148809D01*
X74458333Y-53089285D01*
X74398809Y-52970238D01*
X74398809Y-52910714D01*
X74458333Y-52791666D01*
X74577380Y-52732142D01*
X74755952Y-52732142D01*
X74875000Y-52791666D01*
X75946428Y-53505952D02*
X75827380Y-53565476D01*
X75589285Y-53565476D01*
X75470238Y-53505952D01*
X75410714Y-53386904D01*
X75410714Y-52910714D01*
X75470238Y-52791666D01*
X75589285Y-52732142D01*
X75827380Y-52732142D01*
X75946428Y-52791666D01*
X76005952Y-52910714D01*
X76005952Y-53029761D01*
X75410714Y-53148809D01*
X76422619Y-52732142D02*
X76720238Y-53565476D01*
X77017857Y-52732142D01*
X77672619Y-53565476D02*
X77553571Y-53505952D01*
X77494047Y-53446428D01*
X77434523Y-53327380D01*
X77434523Y-52970238D01*
X77494047Y-52851190D01*
X77553571Y-52791666D01*
X77672619Y-52732142D01*
X77851190Y-52732142D01*
X77970238Y-52791666D01*
X78029761Y-52851190D01*
X78089285Y-52970238D01*
X78089285Y-53327380D01*
X78029761Y-53446428D01*
X77970238Y-53505952D01*
X77851190Y-53565476D01*
X77672619Y-53565476D01*
X78625000Y-53565476D02*
X78625000Y-52732142D01*
X78625000Y-52315476D02*
X78565476Y-52375000D01*
X78625000Y-52434523D01*
X78684523Y-52375000D01*
X78625000Y-52315476D01*
X78625000Y-52434523D01*
X79220238Y-53565476D02*
X79220238Y-52732142D01*
X79220238Y-52970238D02*
X79279761Y-52851190D01*
X79339285Y-52791666D01*
X79458333Y-52732142D01*
X79577380Y-52732142D01*
X81660714Y-53446428D02*
X81601190Y-53505952D01*
X81422619Y-53565476D01*
X81303571Y-53565476D01*
X81125000Y-53505952D01*
X81005952Y-53386904D01*
X80946428Y-53267857D01*
X80886904Y-53029761D01*
X80886904Y-52851190D01*
X80946428Y-52613095D01*
X81005952Y-52494047D01*
X81125000Y-52375000D01*
X81303571Y-52315476D01*
X81422619Y-52315476D01*
X81601190Y-52375000D01*
X81660714Y-52434523D01*
X82732142Y-53565476D02*
X82732142Y-52910714D01*
X82672619Y-52791666D01*
X82553571Y-52732142D01*
X82315476Y-52732142D01*
X82196428Y-52791666D01*
X82732142Y-53505952D02*
X82613095Y-53565476D01*
X82315476Y-53565476D01*
X82196428Y-53505952D01*
X82136904Y-53386904D01*
X82136904Y-53267857D01*
X82196428Y-53148809D01*
X82315476Y-53089285D01*
X82613095Y-53089285D01*
X82732142Y-53029761D01*
X83327380Y-52732142D02*
X83327380Y-53982142D01*
X83327380Y-52791666D02*
X83446428Y-52732142D01*
X83684523Y-52732142D01*
X83803571Y-52791666D01*
X83863095Y-52851190D01*
X83922619Y-52970238D01*
X83922619Y-53327380D01*
X83863095Y-53446428D01*
X83803571Y-53505952D01*
X83684523Y-53565476D01*
X83446428Y-53565476D01*
X83327380Y-53505952D01*
X59577380Y-79208333D02*
X60172619Y-79208333D01*
X59458333Y-79565476D02*
X59875000Y-78315476D01*
X60291666Y-79565476D01*
X61422619Y-79446428D02*
X61363095Y-79505952D01*
X61184523Y-79565476D01*
X61065476Y-79565476D01*
X60886904Y-79505952D01*
X60767857Y-79386904D01*
X60708333Y-79267857D01*
X60648809Y-79029761D01*
X60648809Y-78851190D01*
X60708333Y-78613095D01*
X60767857Y-78494047D01*
X60886904Y-78375000D01*
X61065476Y-78315476D01*
X61184523Y-78315476D01*
X61363095Y-78375000D01*
X61422619Y-78434523D01*
X59577380Y-69208333D02*
X60172619Y-69208333D01*
X59458333Y-69565476D02*
X59875000Y-68315476D01*
X60291666Y-69565476D01*
X61422619Y-69446428D02*
X61363095Y-69505952D01*
X61184523Y-69565476D01*
X61065476Y-69565476D01*
X60886904Y-69505952D01*
X60767857Y-69386904D01*
X60708333Y-69267857D01*
X60648809Y-69029761D01*
X60648809Y-68851190D01*
X60708333Y-68613095D01*
X60767857Y-68494047D01*
X60886904Y-68375000D01*
X61065476Y-68315476D01*
X61184523Y-68315476D01*
X61363095Y-68375000D01*
X61422619Y-68434523D01*
X60410714Y-74446428D02*
X60351190Y-74505952D01*
X60172619Y-74565476D01*
X60053571Y-74565476D01*
X59875000Y-74505952D01*
X59755952Y-74386904D01*
X59696428Y-74267857D01*
X59636904Y-74029761D01*
X59636904Y-73851190D01*
X59696428Y-73613095D01*
X59755952Y-73494047D01*
X59875000Y-73375000D01*
X60053571Y-73315476D01*
X60172619Y-73315476D01*
X60351190Y-73375000D01*
X60410714Y-73434523D01*
X60767857Y-73315476D02*
X61482142Y-73315476D01*
X61125000Y-74565476D02*
X61125000Y-73315476D01*
X58440476Y-37446428D02*
X58380952Y-37505952D01*
X58202380Y-37565476D01*
X58083333Y-37565476D01*
X57904761Y-37505952D01*
X57785714Y-37386904D01*
X57726190Y-37267857D01*
X57666666Y-37029761D01*
X57666666Y-36851190D01*
X57726190Y-36613095D01*
X57785714Y-36494047D01*
X57904761Y-36375000D01*
X58083333Y-36315476D01*
X58202380Y-36315476D01*
X58380952Y-36375000D01*
X58440476Y-36434523D01*
X58976190Y-37565476D02*
X58976190Y-36315476D01*
X59511904Y-37565476D02*
X59511904Y-36910714D01*
X59452380Y-36791666D01*
X59333333Y-36732142D01*
X59154761Y-36732142D01*
X59035714Y-36791666D01*
X58976190Y-36851190D01*
X60642857Y-37565476D02*
X60642857Y-36910714D01*
X60583333Y-36791666D01*
X60464285Y-36732142D01*
X60226190Y-36732142D01*
X60107142Y-36791666D01*
X60642857Y-37505952D02*
X60523809Y-37565476D01*
X60226190Y-37565476D01*
X60107142Y-37505952D01*
X60047619Y-37386904D01*
X60047619Y-37267857D01*
X60107142Y-37148809D01*
X60226190Y-37089285D01*
X60523809Y-37089285D01*
X60642857Y-37029761D01*
X61178571Y-37505952D02*
X61297619Y-37565476D01*
X61535714Y-37565476D01*
X61654761Y-37505952D01*
X61714285Y-37386904D01*
X61714285Y-37327380D01*
X61654761Y-37208333D01*
X61535714Y-37148809D01*
X61357142Y-37148809D01*
X61238095Y-37089285D01*
X61178571Y-36970238D01*
X61178571Y-36910714D01*
X61238095Y-36791666D01*
X61357142Y-36732142D01*
X61535714Y-36732142D01*
X61654761Y-36791666D01*
X62190476Y-37505952D02*
X62309523Y-37565476D01*
X62547619Y-37565476D01*
X62666666Y-37505952D01*
X62726190Y-37386904D01*
X62726190Y-37327380D01*
X62666666Y-37208333D01*
X62547619Y-37148809D01*
X62369047Y-37148809D01*
X62250000Y-37089285D01*
X62190476Y-36970238D01*
X62190476Y-36910714D01*
X62250000Y-36791666D01*
X62369047Y-36732142D01*
X62547619Y-36732142D01*
X62666666Y-36791666D01*
X63261904Y-37565476D02*
X63261904Y-36732142D01*
X63261904Y-36315476D02*
X63202380Y-36375000D01*
X63261904Y-36434523D01*
X63321428Y-36375000D01*
X63261904Y-36315476D01*
X63261904Y-36434523D01*
X63797619Y-37505952D02*
X63916666Y-37565476D01*
X64154761Y-37565476D01*
X64273809Y-37505952D01*
X64333333Y-37386904D01*
X64333333Y-37327380D01*
X64273809Y-37208333D01*
X64154761Y-37148809D01*
X63976190Y-37148809D01*
X63857142Y-37089285D01*
X63797619Y-36970238D01*
X63797619Y-36910714D01*
X63857142Y-36791666D01*
X63976190Y-36732142D01*
X64154761Y-36732142D01*
X64273809Y-36791666D01*
D11*
X126850155Y-70749647D02*
G75*
G03X126850000Y-69250000I-1700155J749647D01*
G01*
X126850155Y-75829647D02*
G75*
G03X126850000Y-74330000I-1700155J749647D01*
G01*
X126850155Y-80909647D02*
G75*
G03X126850000Y-79410000I-1700155J749647D01*
G01*
X133430000Y-67380000D02*
X126020000Y-67380000D01*
X126020000Y-67380000D02*
X126020000Y-82780000D01*
X126020000Y-82780000D02*
X133430000Y-82780000D01*
X133430000Y-82780000D02*
X133430000Y-67380000D01*
X126850000Y-69250000D02*
X126850000Y-68500000D01*
X126850000Y-68500000D02*
X131150000Y-68500000D01*
X131150000Y-68500000D02*
X131150000Y-69250000D01*
X131150000Y-69250000D02*
X131500000Y-69250000D01*
X131500000Y-69250000D02*
X131500000Y-68750000D01*
X131500000Y-68750000D02*
X132500000Y-68500000D01*
X132500000Y-68500000D02*
X132500000Y-71500000D01*
X132500000Y-71500000D02*
X131500000Y-71250000D01*
X131500000Y-71250000D02*
X131500000Y-70750000D01*
X131500000Y-70750000D02*
X131150000Y-70750000D01*
X131150000Y-70750000D02*
X131150000Y-70750000D01*
X131150000Y-70750000D02*
X131150000Y-71500000D01*
X131150000Y-71500000D02*
X126850000Y-71500000D01*
X126850000Y-71500000D02*
X126850000Y-70750000D01*
X126850000Y-74330000D02*
X126850000Y-73580000D01*
X126850000Y-73580000D02*
X131150000Y-73580000D01*
X131150000Y-73580000D02*
X131150000Y-74330000D01*
X131150000Y-74330000D02*
X131500000Y-74330000D01*
X131500000Y-74330000D02*
X131500000Y-73830000D01*
X131500000Y-73830000D02*
X132500000Y-73580000D01*
X132500000Y-73580000D02*
X132500000Y-76580000D01*
X132500000Y-76580000D02*
X131500000Y-76330000D01*
X131500000Y-76330000D02*
X131500000Y-75830000D01*
X131500000Y-75830000D02*
X131150000Y-75830000D01*
X131150000Y-75830000D02*
X131150000Y-75830000D01*
X131150000Y-75830000D02*
X131150000Y-76580000D01*
X131150000Y-76580000D02*
X126850000Y-76580000D01*
X126850000Y-76580000D02*
X126850000Y-75830000D01*
X126850000Y-79410000D02*
X126850000Y-78660000D01*
X126850000Y-78660000D02*
X131150000Y-78660000D01*
X131150000Y-78660000D02*
X131150000Y-79410000D01*
X131150000Y-79410000D02*
X131500000Y-79410000D01*
X131500000Y-79410000D02*
X131500000Y-78910000D01*
X131500000Y-78910000D02*
X132500000Y-78660000D01*
X132500000Y-78660000D02*
X132500000Y-81660000D01*
X132500000Y-81660000D02*
X131500000Y-81410000D01*
X131500000Y-81410000D02*
X131500000Y-80910000D01*
X131500000Y-80910000D02*
X131150000Y-80910000D01*
X131150000Y-80910000D02*
X131150000Y-80910000D01*
X131150000Y-80910000D02*
X131150000Y-81660000D01*
X131150000Y-81660000D02*
X126850000Y-81660000D01*
X126850000Y-81660000D02*
X126850000Y-80910000D01*
X133850000Y-70000000D02*
X134450000Y-70300000D01*
X134450000Y-70300000D02*
X134450000Y-69700000D01*
X134450000Y-69700000D02*
X133850000Y-70000000D01*
D12*
X67340000Y-87000000D02*
G75*
G03X67340000Y-87000000I-5090000J0D01*
G01*
X62250000Y-81950000D02*
X62250000Y-92050000D01*
X62290000Y-81950000D02*
X62290000Y-92050000D01*
X62330000Y-81950000D02*
X62330000Y-92050000D01*
X62370000Y-81951000D02*
X62370000Y-92049000D01*
X62410000Y-81952000D02*
X62410000Y-92048000D01*
X62450000Y-81953000D02*
X62450000Y-92047000D01*
X62490000Y-81955000D02*
X62490000Y-92045000D01*
X62530000Y-81957000D02*
X62530000Y-86020000D01*
X62530000Y-87980000D02*
X62530000Y-92043000D01*
X62570000Y-81960000D02*
X62570000Y-86020000D01*
X62570000Y-87980000D02*
X62570000Y-92040000D01*
X62610000Y-81962000D02*
X62610000Y-86020000D01*
X62610000Y-87980000D02*
X62610000Y-92038000D01*
X62650000Y-81965000D02*
X62650000Y-86020000D01*
X62650000Y-87980000D02*
X62650000Y-92035000D01*
X62690000Y-81969000D02*
X62690000Y-86020000D01*
X62690000Y-87980000D02*
X62690000Y-92031000D01*
X62730000Y-81972000D02*
X62730000Y-86020000D01*
X62730000Y-87980000D02*
X62730000Y-92028000D01*
X62770000Y-81976000D02*
X62770000Y-86020000D01*
X62770000Y-87980000D02*
X62770000Y-92024000D01*
X62810000Y-81980000D02*
X62810000Y-86020000D01*
X62810000Y-87980000D02*
X62810000Y-92020000D01*
X62850000Y-81985000D02*
X62850000Y-86020000D01*
X62850000Y-87980000D02*
X62850000Y-92015000D01*
X62890000Y-81990000D02*
X62890000Y-86020000D01*
X62890000Y-87980000D02*
X62890000Y-92010000D01*
X62930000Y-81995000D02*
X62930000Y-86020000D01*
X62930000Y-87980000D02*
X62930000Y-92005000D01*
X62971000Y-82001000D02*
X62971000Y-86020000D01*
X62971000Y-87980000D02*
X62971000Y-91999000D01*
X63011000Y-82007000D02*
X63011000Y-86020000D01*
X63011000Y-87980000D02*
X63011000Y-91993000D01*
X63051000Y-82013000D02*
X63051000Y-86020000D01*
X63051000Y-87980000D02*
X63051000Y-91987000D01*
X63091000Y-82019000D02*
X63091000Y-86020000D01*
X63091000Y-87980000D02*
X63091000Y-91981000D01*
X63131000Y-82026000D02*
X63131000Y-86020000D01*
X63131000Y-87980000D02*
X63131000Y-91974000D01*
X63171000Y-82033000D02*
X63171000Y-86020000D01*
X63171000Y-87980000D02*
X63171000Y-91967000D01*
X63211000Y-82041000D02*
X63211000Y-86020000D01*
X63211000Y-89580000D02*
X63211000Y-91959000D01*
X63251000Y-82049000D02*
X63251000Y-86020000D01*
X63251000Y-89580000D02*
X63251000Y-91951000D01*
X63291000Y-82057000D02*
X63291000Y-86020000D01*
X63291000Y-89580000D02*
X63291000Y-91943000D01*
X63331000Y-82065000D02*
X63331000Y-86020000D01*
X63331000Y-89580000D02*
X63331000Y-91935000D01*
X63371000Y-82074000D02*
X63371000Y-86020000D01*
X63371000Y-89580000D02*
X63371000Y-91926000D01*
X63411000Y-82083000D02*
X63411000Y-86020000D01*
X63411000Y-89580000D02*
X63411000Y-91917000D01*
X63451000Y-82093000D02*
X63451000Y-86020000D01*
X63451000Y-89580000D02*
X63451000Y-91907000D01*
X63491000Y-82103000D02*
X63491000Y-86020000D01*
X63491000Y-89580000D02*
X63491000Y-91897000D01*
X63531000Y-82113000D02*
X63531000Y-86020000D01*
X63531000Y-89580000D02*
X63531000Y-91887000D01*
X63571000Y-82124000D02*
X63571000Y-86020000D01*
X63571000Y-89580000D02*
X63571000Y-91876000D01*
X63611000Y-82135000D02*
X63611000Y-86020000D01*
X63611000Y-89580000D02*
X63611000Y-91865000D01*
X63651000Y-82146000D02*
X63651000Y-86020000D01*
X63651000Y-89580000D02*
X63651000Y-91854000D01*
X63691000Y-82157000D02*
X63691000Y-86020000D01*
X63691000Y-89580000D02*
X63691000Y-91843000D01*
X63731000Y-82169000D02*
X63731000Y-86020000D01*
X63731000Y-89580000D02*
X63731000Y-91831000D01*
X63771000Y-82182000D02*
X63771000Y-86020000D01*
X63771000Y-89580000D02*
X63771000Y-91818000D01*
X63811000Y-82194000D02*
X63811000Y-86020000D01*
X63811000Y-89580000D02*
X63811000Y-91806000D01*
X63851000Y-82208000D02*
X63851000Y-86020000D01*
X63851000Y-89580000D02*
X63851000Y-91792000D01*
X63891000Y-82221000D02*
X63891000Y-86020000D01*
X63891000Y-89580000D02*
X63891000Y-91779000D01*
X63931000Y-82235000D02*
X63931000Y-86020000D01*
X63931000Y-89580000D02*
X63931000Y-91765000D01*
X63971000Y-82249000D02*
X63971000Y-86020000D01*
X63971000Y-89580000D02*
X63971000Y-91751000D01*
X64011000Y-82263000D02*
X64011000Y-86020000D01*
X64011000Y-89580000D02*
X64011000Y-91737000D01*
X64051000Y-82278000D02*
X64051000Y-86020000D01*
X64051000Y-89580000D02*
X64051000Y-91722000D01*
X64091000Y-82294000D02*
X64091000Y-86020000D01*
X64091000Y-89580000D02*
X64091000Y-91706000D01*
X64131000Y-82309000D02*
X64131000Y-86020000D01*
X64131000Y-89580000D02*
X64131000Y-91691000D01*
X64171000Y-82326000D02*
X64171000Y-86020000D01*
X64171000Y-89580000D02*
X64171000Y-91674000D01*
X64211000Y-82342000D02*
X64211000Y-86020000D01*
X64211000Y-89580000D02*
X64211000Y-91658000D01*
X64251000Y-82359000D02*
X64251000Y-86020000D01*
X64251000Y-89580000D02*
X64251000Y-91641000D01*
X64291000Y-82376000D02*
X64291000Y-86020000D01*
X64291000Y-89580000D02*
X64291000Y-91624000D01*
X64331000Y-82394000D02*
X64331000Y-86020000D01*
X64331000Y-89580000D02*
X64331000Y-91606000D01*
X64371000Y-82412000D02*
X64371000Y-86020000D01*
X64371000Y-89580000D02*
X64371000Y-91588000D01*
X64411000Y-82431000D02*
X64411000Y-86020000D01*
X64411000Y-89580000D02*
X64411000Y-91569000D01*
X64451000Y-82450000D02*
X64451000Y-86020000D01*
X64451000Y-89580000D02*
X64451000Y-91550000D01*
X64491000Y-82469000D02*
X64491000Y-87621000D01*
X64491000Y-89580000D02*
X64491000Y-91531000D01*
X64531000Y-82489000D02*
X64531000Y-87621000D01*
X64531000Y-89580000D02*
X64531000Y-91511000D01*
X64571000Y-82509000D02*
X64571000Y-87621000D01*
X64571000Y-89580000D02*
X64571000Y-91491000D01*
X64611000Y-82530000D02*
X64611000Y-87621000D01*
X64611000Y-89580000D02*
X64611000Y-91470000D01*
X64651000Y-82551000D02*
X64651000Y-87621000D01*
X64651000Y-89580000D02*
X64651000Y-91449000D01*
X64691000Y-82572000D02*
X64691000Y-87621000D01*
X64691000Y-89580000D02*
X64691000Y-91428000D01*
X64731000Y-82595000D02*
X64731000Y-87621000D01*
X64731000Y-89580000D02*
X64731000Y-91405000D01*
X64771000Y-82617000D02*
X64771000Y-87621000D01*
X64771000Y-89580000D02*
X64771000Y-91383000D01*
X64811000Y-82640000D02*
X64811000Y-87621000D01*
X64811000Y-89580000D02*
X64811000Y-91360000D01*
X64851000Y-82664000D02*
X64851000Y-87621000D01*
X64851000Y-89580000D02*
X64851000Y-91336000D01*
X64891000Y-82688000D02*
X64891000Y-87621000D01*
X64891000Y-89580000D02*
X64891000Y-91312000D01*
X64931000Y-82712000D02*
X64931000Y-87621000D01*
X64931000Y-89580000D02*
X64931000Y-91288000D01*
X64971000Y-82737000D02*
X64971000Y-87621000D01*
X64971000Y-89580000D02*
X64971000Y-91263000D01*
X65011000Y-82763000D02*
X65011000Y-87621000D01*
X65011000Y-89580000D02*
X65011000Y-91237000D01*
X65051000Y-82789000D02*
X65051000Y-87621000D01*
X65051000Y-89580000D02*
X65051000Y-91211000D01*
X65091000Y-82815000D02*
X65091000Y-87621000D01*
X65091000Y-89580000D02*
X65091000Y-91185000D01*
X65131000Y-82843000D02*
X65131000Y-87621000D01*
X65131000Y-89580000D02*
X65131000Y-91157000D01*
X65171000Y-82870000D02*
X65171000Y-91130000D01*
X65211000Y-82899000D02*
X65211000Y-91101000D01*
X65251000Y-82928000D02*
X65251000Y-91072000D01*
X65291000Y-82957000D02*
X65291000Y-91043000D01*
X65331000Y-82987000D02*
X65331000Y-91013000D01*
X65371000Y-83018000D02*
X65371000Y-90982000D01*
X65411000Y-83049000D02*
X65411000Y-90951000D01*
X65451000Y-83081000D02*
X65451000Y-90919000D01*
X65491000Y-83114000D02*
X65491000Y-90886000D01*
X65531000Y-83147000D02*
X65531000Y-90853000D01*
X65571000Y-83181000D02*
X65571000Y-90819000D01*
X65611000Y-83216000D02*
X65611000Y-90784000D01*
X65651000Y-83252000D02*
X65651000Y-90748000D01*
X65691000Y-83288000D02*
X65691000Y-90712000D01*
X65731000Y-83325000D02*
X65731000Y-90675000D01*
X65771000Y-83363000D02*
X65771000Y-90637000D01*
X65811000Y-83402000D02*
X65811000Y-90598000D01*
X65851000Y-83441000D02*
X65851000Y-90559000D01*
X65891000Y-83482000D02*
X65891000Y-90518000D01*
X65931000Y-83523000D02*
X65931000Y-90477000D01*
X65971000Y-83565000D02*
X65971000Y-90435000D01*
X66011000Y-83609000D02*
X66011000Y-90391000D01*
X66051000Y-83653000D02*
X66051000Y-90347000D01*
X66091000Y-83698000D02*
X66091000Y-90302000D01*
X66131000Y-83745000D02*
X66131000Y-90255000D01*
X66171000Y-83793000D02*
X66171000Y-90207000D01*
X66211000Y-83842000D02*
X66211000Y-90158000D01*
X66251000Y-83892000D02*
X66251000Y-90108000D01*
X66291000Y-83943000D02*
X66291000Y-90057000D01*
X66331000Y-83996000D02*
X66331000Y-90004000D01*
X66371000Y-84051000D02*
X66371000Y-89949000D01*
X66411000Y-84106000D02*
X66411000Y-89894000D01*
X66451000Y-84164000D02*
X66451000Y-89836000D01*
X66491000Y-84223000D02*
X66491000Y-89777000D01*
X66531000Y-84285000D02*
X66531000Y-89715000D01*
X66571000Y-84348000D02*
X66571000Y-89652000D01*
X66611000Y-84413000D02*
X66611000Y-89587000D01*
X66651000Y-84481000D02*
X66651000Y-89519000D01*
X66691000Y-84551000D02*
X66691000Y-89449000D01*
X66731000Y-84623000D02*
X66731000Y-89377000D01*
X66771000Y-84699000D02*
X66771000Y-89301000D01*
X66811000Y-84778000D02*
X66811000Y-89222000D01*
X66851000Y-84860000D02*
X66851000Y-89140000D01*
X66891000Y-84947000D02*
X66891000Y-89053000D01*
X66931000Y-85038000D02*
X66931000Y-88962000D01*
X66971000Y-85134000D02*
X66971000Y-88866000D01*
X67011000Y-85237000D02*
X67011000Y-88763000D01*
X67051000Y-85346000D02*
X67051000Y-88654000D01*
X67091000Y-85464000D02*
X67091000Y-88536000D01*
X67131000Y-85593000D02*
X67131000Y-88407000D01*
X67171000Y-85735000D02*
X67171000Y-88265000D01*
X67211000Y-85896000D02*
X67211000Y-88104000D01*
X67251000Y-86087000D02*
X67251000Y-87913000D01*
X67291000Y-86328000D02*
X67291000Y-87672000D01*
X67331000Y-86721000D02*
X67331000Y-87279000D01*
X58800000Y-87000000D02*
X60000000Y-87000000D01*
X59400000Y-86350000D02*
X59400000Y-87650000D01*
X70210000Y-96660000D02*
X70210000Y-93340000D01*
X70210000Y-93340000D02*
X61090000Y-93340000D01*
X61090000Y-93340000D02*
X61090000Y-96660000D01*
X61090000Y-96660000D02*
X70210000Y-96660000D01*
X71020000Y-95000000D02*
X70210000Y-95000000D01*
X60280000Y-95000000D02*
X61090000Y-95000000D01*
X100340000Y-79000000D02*
G75*
G03X100340000Y-79000000I-5090000J0D01*
G01*
X95250000Y-73950000D02*
X95250000Y-84050000D01*
X95290000Y-73950000D02*
X95290000Y-84050000D01*
X95330000Y-73950000D02*
X95330000Y-84050000D01*
X95370000Y-73951000D02*
X95370000Y-84049000D01*
X95410000Y-73952000D02*
X95410000Y-84048000D01*
X95450000Y-73953000D02*
X95450000Y-84047000D01*
X95490000Y-73955000D02*
X95490000Y-84045000D01*
X95530000Y-73957000D02*
X95530000Y-78020000D01*
X95530000Y-79980000D02*
X95530000Y-84043000D01*
X95570000Y-73960000D02*
X95570000Y-78020000D01*
X95570000Y-79980000D02*
X95570000Y-84040000D01*
X95610000Y-73962000D02*
X95610000Y-78020000D01*
X95610000Y-79980000D02*
X95610000Y-84038000D01*
X95650000Y-73965000D02*
X95650000Y-78020000D01*
X95650000Y-79980000D02*
X95650000Y-84035000D01*
X95690000Y-73969000D02*
X95690000Y-78020000D01*
X95690000Y-79980000D02*
X95690000Y-84031000D01*
X95730000Y-73972000D02*
X95730000Y-78020000D01*
X95730000Y-79980000D02*
X95730000Y-84028000D01*
X95770000Y-73976000D02*
X95770000Y-78020000D01*
X95770000Y-79980000D02*
X95770000Y-84024000D01*
X95810000Y-73980000D02*
X95810000Y-78020000D01*
X95810000Y-79980000D02*
X95810000Y-84020000D01*
X95850000Y-73985000D02*
X95850000Y-78020000D01*
X95850000Y-79980000D02*
X95850000Y-84015000D01*
X95890000Y-73990000D02*
X95890000Y-78020000D01*
X95890000Y-79980000D02*
X95890000Y-84010000D01*
X95930000Y-73995000D02*
X95930000Y-78020000D01*
X95930000Y-79980000D02*
X95930000Y-84005000D01*
X95971000Y-74001000D02*
X95971000Y-78020000D01*
X95971000Y-79980000D02*
X95971000Y-83999000D01*
X96011000Y-74007000D02*
X96011000Y-78020000D01*
X96011000Y-79980000D02*
X96011000Y-83993000D01*
X96051000Y-74013000D02*
X96051000Y-78020000D01*
X96051000Y-79980000D02*
X96051000Y-83987000D01*
X96091000Y-74019000D02*
X96091000Y-78020000D01*
X96091000Y-79980000D02*
X96091000Y-83981000D01*
X96131000Y-74026000D02*
X96131000Y-78020000D01*
X96131000Y-79980000D02*
X96131000Y-83974000D01*
X96171000Y-74033000D02*
X96171000Y-78020000D01*
X96171000Y-79980000D02*
X96171000Y-83967000D01*
X96211000Y-74041000D02*
X96211000Y-78020000D01*
X96211000Y-81580000D02*
X96211000Y-83959000D01*
X96251000Y-74049000D02*
X96251000Y-78020000D01*
X96251000Y-81580000D02*
X96251000Y-83951000D01*
X96291000Y-74057000D02*
X96291000Y-78020000D01*
X96291000Y-81580000D02*
X96291000Y-83943000D01*
X96331000Y-74065000D02*
X96331000Y-78020000D01*
X96331000Y-81580000D02*
X96331000Y-83935000D01*
X96371000Y-74074000D02*
X96371000Y-78020000D01*
X96371000Y-81580000D02*
X96371000Y-83926000D01*
X96411000Y-74083000D02*
X96411000Y-78020000D01*
X96411000Y-81580000D02*
X96411000Y-83917000D01*
X96451000Y-74093000D02*
X96451000Y-78020000D01*
X96451000Y-81580000D02*
X96451000Y-83907000D01*
X96491000Y-74103000D02*
X96491000Y-78020000D01*
X96491000Y-81580000D02*
X96491000Y-83897000D01*
X96531000Y-74113000D02*
X96531000Y-78020000D01*
X96531000Y-81580000D02*
X96531000Y-83887000D01*
X96571000Y-74124000D02*
X96571000Y-78020000D01*
X96571000Y-81580000D02*
X96571000Y-83876000D01*
X96611000Y-74135000D02*
X96611000Y-78020000D01*
X96611000Y-81580000D02*
X96611000Y-83865000D01*
X96651000Y-74146000D02*
X96651000Y-78020000D01*
X96651000Y-81580000D02*
X96651000Y-83854000D01*
X96691000Y-74157000D02*
X96691000Y-78020000D01*
X96691000Y-81580000D02*
X96691000Y-83843000D01*
X96731000Y-74169000D02*
X96731000Y-78020000D01*
X96731000Y-81580000D02*
X96731000Y-83831000D01*
X96771000Y-74182000D02*
X96771000Y-78020000D01*
X96771000Y-81580000D02*
X96771000Y-83818000D01*
X96811000Y-74194000D02*
X96811000Y-78020000D01*
X96811000Y-81580000D02*
X96811000Y-83806000D01*
X96851000Y-74208000D02*
X96851000Y-78020000D01*
X96851000Y-81580000D02*
X96851000Y-83792000D01*
X96891000Y-74221000D02*
X96891000Y-78020000D01*
X96891000Y-81580000D02*
X96891000Y-83779000D01*
X96931000Y-74235000D02*
X96931000Y-78020000D01*
X96931000Y-81580000D02*
X96931000Y-83765000D01*
X96971000Y-74249000D02*
X96971000Y-78020000D01*
X96971000Y-81580000D02*
X96971000Y-83751000D01*
X97011000Y-74263000D02*
X97011000Y-78020000D01*
X97011000Y-81580000D02*
X97011000Y-83737000D01*
X97051000Y-74278000D02*
X97051000Y-78020000D01*
X97051000Y-81580000D02*
X97051000Y-83722000D01*
X97091000Y-74294000D02*
X97091000Y-78020000D01*
X97091000Y-81580000D02*
X97091000Y-83706000D01*
X97131000Y-74309000D02*
X97131000Y-78020000D01*
X97131000Y-81580000D02*
X97131000Y-83691000D01*
X97171000Y-74326000D02*
X97171000Y-78020000D01*
X97171000Y-81580000D02*
X97171000Y-83674000D01*
X97211000Y-74342000D02*
X97211000Y-78020000D01*
X97211000Y-81580000D02*
X97211000Y-83658000D01*
X97251000Y-74359000D02*
X97251000Y-78020000D01*
X97251000Y-81580000D02*
X97251000Y-83641000D01*
X97291000Y-74376000D02*
X97291000Y-78020000D01*
X97291000Y-81580000D02*
X97291000Y-83624000D01*
X97331000Y-74394000D02*
X97331000Y-78020000D01*
X97331000Y-81580000D02*
X97331000Y-83606000D01*
X97371000Y-74412000D02*
X97371000Y-78020000D01*
X97371000Y-81580000D02*
X97371000Y-83588000D01*
X97411000Y-74431000D02*
X97411000Y-78020000D01*
X97411000Y-81580000D02*
X97411000Y-83569000D01*
X97451000Y-74450000D02*
X97451000Y-78020000D01*
X97451000Y-81580000D02*
X97451000Y-83550000D01*
X97491000Y-74469000D02*
X97491000Y-79621000D01*
X97491000Y-81580000D02*
X97491000Y-83531000D01*
X97531000Y-74489000D02*
X97531000Y-79621000D01*
X97531000Y-81580000D02*
X97531000Y-83511000D01*
X97571000Y-74509000D02*
X97571000Y-79621000D01*
X97571000Y-81580000D02*
X97571000Y-83491000D01*
X97611000Y-74530000D02*
X97611000Y-79621000D01*
X97611000Y-81580000D02*
X97611000Y-83470000D01*
X97651000Y-74551000D02*
X97651000Y-79621000D01*
X97651000Y-81580000D02*
X97651000Y-83449000D01*
X97691000Y-74572000D02*
X97691000Y-79621000D01*
X97691000Y-81580000D02*
X97691000Y-83428000D01*
X97731000Y-74595000D02*
X97731000Y-79621000D01*
X97731000Y-81580000D02*
X97731000Y-83405000D01*
X97771000Y-74617000D02*
X97771000Y-79621000D01*
X97771000Y-81580000D02*
X97771000Y-83383000D01*
X97811000Y-74640000D02*
X97811000Y-79621000D01*
X97811000Y-81580000D02*
X97811000Y-83360000D01*
X97851000Y-74664000D02*
X97851000Y-79621000D01*
X97851000Y-81580000D02*
X97851000Y-83336000D01*
X97891000Y-74688000D02*
X97891000Y-79621000D01*
X97891000Y-81580000D02*
X97891000Y-83312000D01*
X97931000Y-74712000D02*
X97931000Y-79621000D01*
X97931000Y-81580000D02*
X97931000Y-83288000D01*
X97971000Y-74737000D02*
X97971000Y-79621000D01*
X97971000Y-81580000D02*
X97971000Y-83263000D01*
X98011000Y-74763000D02*
X98011000Y-79621000D01*
X98011000Y-81580000D02*
X98011000Y-83237000D01*
X98051000Y-74789000D02*
X98051000Y-79621000D01*
X98051000Y-81580000D02*
X98051000Y-83211000D01*
X98091000Y-74815000D02*
X98091000Y-79621000D01*
X98091000Y-81580000D02*
X98091000Y-83185000D01*
X98131000Y-74843000D02*
X98131000Y-79621000D01*
X98131000Y-81580000D02*
X98131000Y-83157000D01*
X98171000Y-74870000D02*
X98171000Y-83130000D01*
X98211000Y-74899000D02*
X98211000Y-83101000D01*
X98251000Y-74928000D02*
X98251000Y-83072000D01*
X98291000Y-74957000D02*
X98291000Y-83043000D01*
X98331000Y-74987000D02*
X98331000Y-83013000D01*
X98371000Y-75018000D02*
X98371000Y-82982000D01*
X98411000Y-75049000D02*
X98411000Y-82951000D01*
X98451000Y-75081000D02*
X98451000Y-82919000D01*
X98491000Y-75114000D02*
X98491000Y-82886000D01*
X98531000Y-75147000D02*
X98531000Y-82853000D01*
X98571000Y-75181000D02*
X98571000Y-82819000D01*
X98611000Y-75216000D02*
X98611000Y-82784000D01*
X98651000Y-75252000D02*
X98651000Y-82748000D01*
X98691000Y-75288000D02*
X98691000Y-82712000D01*
X98731000Y-75325000D02*
X98731000Y-82675000D01*
X98771000Y-75363000D02*
X98771000Y-82637000D01*
X98811000Y-75402000D02*
X98811000Y-82598000D01*
X98851000Y-75441000D02*
X98851000Y-82559000D01*
X98891000Y-75482000D02*
X98891000Y-82518000D01*
X98931000Y-75523000D02*
X98931000Y-82477000D01*
X98971000Y-75565000D02*
X98971000Y-82435000D01*
X99011000Y-75609000D02*
X99011000Y-82391000D01*
X99051000Y-75653000D02*
X99051000Y-82347000D01*
X99091000Y-75698000D02*
X99091000Y-82302000D01*
X99131000Y-75745000D02*
X99131000Y-82255000D01*
X99171000Y-75793000D02*
X99171000Y-82207000D01*
X99211000Y-75842000D02*
X99211000Y-82158000D01*
X99251000Y-75892000D02*
X99251000Y-82108000D01*
X99291000Y-75943000D02*
X99291000Y-82057000D01*
X99331000Y-75996000D02*
X99331000Y-82004000D01*
X99371000Y-76051000D02*
X99371000Y-81949000D01*
X99411000Y-76106000D02*
X99411000Y-81894000D01*
X99451000Y-76164000D02*
X99451000Y-81836000D01*
X99491000Y-76223000D02*
X99491000Y-81777000D01*
X99531000Y-76285000D02*
X99531000Y-81715000D01*
X99571000Y-76348000D02*
X99571000Y-81652000D01*
X99611000Y-76413000D02*
X99611000Y-81587000D01*
X99651000Y-76481000D02*
X99651000Y-81519000D01*
X99691000Y-76551000D02*
X99691000Y-81449000D01*
X99731000Y-76623000D02*
X99731000Y-81377000D01*
X99771000Y-76699000D02*
X99771000Y-81301000D01*
X99811000Y-76778000D02*
X99811000Y-81222000D01*
X99851000Y-76860000D02*
X99851000Y-81140000D01*
X99891000Y-76947000D02*
X99891000Y-81053000D01*
X99931000Y-77038000D02*
X99931000Y-80962000D01*
X99971000Y-77134000D02*
X99971000Y-80866000D01*
X100011000Y-77237000D02*
X100011000Y-80763000D01*
X100051000Y-77346000D02*
X100051000Y-80654000D01*
X100091000Y-77464000D02*
X100091000Y-80536000D01*
X100131000Y-77593000D02*
X100131000Y-80407000D01*
X100171000Y-77735000D02*
X100171000Y-80265000D01*
X100211000Y-77896000D02*
X100211000Y-80104000D01*
X100251000Y-78087000D02*
X100251000Y-79913000D01*
X100291000Y-78328000D02*
X100291000Y-79672000D01*
X100331000Y-78721000D02*
X100331000Y-79279000D01*
X91800000Y-79000000D02*
X93000000Y-79000000D01*
X92400000Y-78350000D02*
X92400000Y-79650000D01*
X116090000Y-102750000D02*
G75*
G03X116090000Y-102750000I-5090000J0D01*
G01*
X105950000Y-102750000D02*
X116050000Y-102750000D01*
X105950000Y-102710000D02*
X116050000Y-102710000D01*
X105950000Y-102670000D02*
X116050000Y-102670000D01*
X105951000Y-102630000D02*
X116049000Y-102630000D01*
X105952000Y-102590000D02*
X116048000Y-102590000D01*
X105953000Y-102550000D02*
X116047000Y-102550000D01*
X105955000Y-102510000D02*
X116045000Y-102510000D01*
X105957000Y-102470000D02*
X110020000Y-102470000D01*
X111980000Y-102470000D02*
X116043000Y-102470000D01*
X105960000Y-102430000D02*
X110020000Y-102430000D01*
X111980000Y-102430000D02*
X116040000Y-102430000D01*
X105962000Y-102390000D02*
X110020000Y-102390000D01*
X111980000Y-102390000D02*
X116038000Y-102390000D01*
X105965000Y-102350000D02*
X110020000Y-102350000D01*
X111980000Y-102350000D02*
X116035000Y-102350000D01*
X105969000Y-102310000D02*
X110020000Y-102310000D01*
X111980000Y-102310000D02*
X116031000Y-102310000D01*
X105972000Y-102270000D02*
X110020000Y-102270000D01*
X111980000Y-102270000D02*
X116028000Y-102270000D01*
X105976000Y-102230000D02*
X110020000Y-102230000D01*
X111980000Y-102230000D02*
X116024000Y-102230000D01*
X105980000Y-102190000D02*
X110020000Y-102190000D01*
X111980000Y-102190000D02*
X116020000Y-102190000D01*
X105985000Y-102150000D02*
X110020000Y-102150000D01*
X111980000Y-102150000D02*
X116015000Y-102150000D01*
X105990000Y-102110000D02*
X110020000Y-102110000D01*
X111980000Y-102110000D02*
X116010000Y-102110000D01*
X105995000Y-102070000D02*
X110020000Y-102070000D01*
X111980000Y-102070000D02*
X116005000Y-102070000D01*
X106001000Y-102029000D02*
X110020000Y-102029000D01*
X111980000Y-102029000D02*
X115999000Y-102029000D01*
X106007000Y-101989000D02*
X110020000Y-101989000D01*
X111980000Y-101989000D02*
X115993000Y-101989000D01*
X106013000Y-101949000D02*
X110020000Y-101949000D01*
X111980000Y-101949000D02*
X115987000Y-101949000D01*
X106019000Y-101909000D02*
X110020000Y-101909000D01*
X111980000Y-101909000D02*
X115981000Y-101909000D01*
X106026000Y-101869000D02*
X110020000Y-101869000D01*
X111980000Y-101869000D02*
X115974000Y-101869000D01*
X106033000Y-101829000D02*
X110020000Y-101829000D01*
X111980000Y-101829000D02*
X115967000Y-101829000D01*
X106041000Y-101789000D02*
X110020000Y-101789000D01*
X113580000Y-101789000D02*
X115959000Y-101789000D01*
X106049000Y-101749000D02*
X110020000Y-101749000D01*
X113580000Y-101749000D02*
X115951000Y-101749000D01*
X106057000Y-101709000D02*
X110020000Y-101709000D01*
X113580000Y-101709000D02*
X115943000Y-101709000D01*
X106065000Y-101669000D02*
X110020000Y-101669000D01*
X113580000Y-101669000D02*
X115935000Y-101669000D01*
X106074000Y-101629000D02*
X110020000Y-101629000D01*
X113580000Y-101629000D02*
X115926000Y-101629000D01*
X106083000Y-101589000D02*
X110020000Y-101589000D01*
X113580000Y-101589000D02*
X115917000Y-101589000D01*
X106093000Y-101549000D02*
X110020000Y-101549000D01*
X113580000Y-101549000D02*
X115907000Y-101549000D01*
X106103000Y-101509000D02*
X110020000Y-101509000D01*
X113580000Y-101509000D02*
X115897000Y-101509000D01*
X106113000Y-101469000D02*
X110020000Y-101469000D01*
X113580000Y-101469000D02*
X115887000Y-101469000D01*
X106124000Y-101429000D02*
X110020000Y-101429000D01*
X113580000Y-101429000D02*
X115876000Y-101429000D01*
X106135000Y-101389000D02*
X110020000Y-101389000D01*
X113580000Y-101389000D02*
X115865000Y-101389000D01*
X106146000Y-101349000D02*
X110020000Y-101349000D01*
X113580000Y-101349000D02*
X115854000Y-101349000D01*
X106157000Y-101309000D02*
X110020000Y-101309000D01*
X113580000Y-101309000D02*
X115843000Y-101309000D01*
X106169000Y-101269000D02*
X110020000Y-101269000D01*
X113580000Y-101269000D02*
X115831000Y-101269000D01*
X106182000Y-101229000D02*
X110020000Y-101229000D01*
X113580000Y-101229000D02*
X115818000Y-101229000D01*
X106194000Y-101189000D02*
X110020000Y-101189000D01*
X113580000Y-101189000D02*
X115806000Y-101189000D01*
X106208000Y-101149000D02*
X110020000Y-101149000D01*
X113580000Y-101149000D02*
X115792000Y-101149000D01*
X106221000Y-101109000D02*
X110020000Y-101109000D01*
X113580000Y-101109000D02*
X115779000Y-101109000D01*
X106235000Y-101069000D02*
X110020000Y-101069000D01*
X113580000Y-101069000D02*
X115765000Y-101069000D01*
X106249000Y-101029000D02*
X110020000Y-101029000D01*
X113580000Y-101029000D02*
X115751000Y-101029000D01*
X106263000Y-100989000D02*
X110020000Y-100989000D01*
X113580000Y-100989000D02*
X115737000Y-100989000D01*
X106278000Y-100949000D02*
X110020000Y-100949000D01*
X113580000Y-100949000D02*
X115722000Y-100949000D01*
X106294000Y-100909000D02*
X110020000Y-100909000D01*
X113580000Y-100909000D02*
X115706000Y-100909000D01*
X106309000Y-100869000D02*
X110020000Y-100869000D01*
X113580000Y-100869000D02*
X115691000Y-100869000D01*
X106326000Y-100829000D02*
X110020000Y-100829000D01*
X113580000Y-100829000D02*
X115674000Y-100829000D01*
X106342000Y-100789000D02*
X110020000Y-100789000D01*
X113580000Y-100789000D02*
X115658000Y-100789000D01*
X106359000Y-100749000D02*
X110020000Y-100749000D01*
X113580000Y-100749000D02*
X115641000Y-100749000D01*
X106376000Y-100709000D02*
X110020000Y-100709000D01*
X113580000Y-100709000D02*
X115624000Y-100709000D01*
X106394000Y-100669000D02*
X110020000Y-100669000D01*
X113580000Y-100669000D02*
X115606000Y-100669000D01*
X106412000Y-100629000D02*
X110020000Y-100629000D01*
X113580000Y-100629000D02*
X115588000Y-100629000D01*
X106431000Y-100589000D02*
X110020000Y-100589000D01*
X113580000Y-100589000D02*
X115569000Y-100589000D01*
X106450000Y-100549000D02*
X110020000Y-100549000D01*
X113580000Y-100549000D02*
X115550000Y-100549000D01*
X106469000Y-100509000D02*
X111621000Y-100509000D01*
X113580000Y-100509000D02*
X115531000Y-100509000D01*
X106489000Y-100469000D02*
X111621000Y-100469000D01*
X113580000Y-100469000D02*
X115511000Y-100469000D01*
X106509000Y-100429000D02*
X111621000Y-100429000D01*
X113580000Y-100429000D02*
X115491000Y-100429000D01*
X106530000Y-100389000D02*
X111621000Y-100389000D01*
X113580000Y-100389000D02*
X115470000Y-100389000D01*
X106551000Y-100349000D02*
X111621000Y-100349000D01*
X113580000Y-100349000D02*
X115449000Y-100349000D01*
X106572000Y-100309000D02*
X111621000Y-100309000D01*
X113580000Y-100309000D02*
X115428000Y-100309000D01*
X106595000Y-100269000D02*
X111621000Y-100269000D01*
X113580000Y-100269000D02*
X115405000Y-100269000D01*
X106617000Y-100229000D02*
X111621000Y-100229000D01*
X113580000Y-100229000D02*
X115383000Y-100229000D01*
X106640000Y-100189000D02*
X111621000Y-100189000D01*
X113580000Y-100189000D02*
X115360000Y-100189000D01*
X106664000Y-100149000D02*
X111621000Y-100149000D01*
X113580000Y-100149000D02*
X115336000Y-100149000D01*
X106688000Y-100109000D02*
X111621000Y-100109000D01*
X113580000Y-100109000D02*
X115312000Y-100109000D01*
X106712000Y-100069000D02*
X111621000Y-100069000D01*
X113580000Y-100069000D02*
X115288000Y-100069000D01*
X106737000Y-100029000D02*
X111621000Y-100029000D01*
X113580000Y-100029000D02*
X115263000Y-100029000D01*
X106763000Y-99989000D02*
X111621000Y-99989000D01*
X113580000Y-99989000D02*
X115237000Y-99989000D01*
X106789000Y-99949000D02*
X111621000Y-99949000D01*
X113580000Y-99949000D02*
X115211000Y-99949000D01*
X106815000Y-99909000D02*
X111621000Y-99909000D01*
X113580000Y-99909000D02*
X115185000Y-99909000D01*
X106843000Y-99869000D02*
X111621000Y-99869000D01*
X113580000Y-99869000D02*
X115157000Y-99869000D01*
X106870000Y-99829000D02*
X115130000Y-99829000D01*
X106899000Y-99789000D02*
X115101000Y-99789000D01*
X106928000Y-99749000D02*
X115072000Y-99749000D01*
X106957000Y-99709000D02*
X115043000Y-99709000D01*
X106987000Y-99669000D02*
X115013000Y-99669000D01*
X107018000Y-99629000D02*
X114982000Y-99629000D01*
X107049000Y-99589000D02*
X114951000Y-99589000D01*
X107081000Y-99549000D02*
X114919000Y-99549000D01*
X107114000Y-99509000D02*
X114886000Y-99509000D01*
X107147000Y-99469000D02*
X114853000Y-99469000D01*
X107181000Y-99429000D02*
X114819000Y-99429000D01*
X107216000Y-99389000D02*
X114784000Y-99389000D01*
X107252000Y-99349000D02*
X114748000Y-99349000D01*
X107288000Y-99309000D02*
X114712000Y-99309000D01*
X107325000Y-99269000D02*
X114675000Y-99269000D01*
X107363000Y-99229000D02*
X114637000Y-99229000D01*
X107402000Y-99189000D02*
X114598000Y-99189000D01*
X107441000Y-99149000D02*
X114559000Y-99149000D01*
X107482000Y-99109000D02*
X114518000Y-99109000D01*
X107523000Y-99069000D02*
X114477000Y-99069000D01*
X107565000Y-99029000D02*
X114435000Y-99029000D01*
X107609000Y-98989000D02*
X114391000Y-98989000D01*
X107653000Y-98949000D02*
X114347000Y-98949000D01*
X107698000Y-98909000D02*
X114302000Y-98909000D01*
X107745000Y-98869000D02*
X114255000Y-98869000D01*
X107793000Y-98829000D02*
X114207000Y-98829000D01*
X107842000Y-98789000D02*
X114158000Y-98789000D01*
X107892000Y-98749000D02*
X114108000Y-98749000D01*
X107943000Y-98709000D02*
X114057000Y-98709000D01*
X107996000Y-98669000D02*
X114004000Y-98669000D01*
X108051000Y-98629000D02*
X113949000Y-98629000D01*
X108106000Y-98589000D02*
X113894000Y-98589000D01*
X108164000Y-98549000D02*
X113836000Y-98549000D01*
X108223000Y-98509000D02*
X113777000Y-98509000D01*
X108285000Y-98469000D02*
X113715000Y-98469000D01*
X108348000Y-98429000D02*
X113652000Y-98429000D01*
X108413000Y-98389000D02*
X113587000Y-98389000D01*
X108481000Y-98349000D02*
X113519000Y-98349000D01*
X108551000Y-98309000D02*
X113449000Y-98309000D01*
X108623000Y-98269000D02*
X113377000Y-98269000D01*
X108699000Y-98229000D02*
X113301000Y-98229000D01*
X108778000Y-98189000D02*
X113222000Y-98189000D01*
X108860000Y-98149000D02*
X113140000Y-98149000D01*
X108947000Y-98109000D02*
X113053000Y-98109000D01*
X109038000Y-98069000D02*
X112962000Y-98069000D01*
X109134000Y-98029000D02*
X112866000Y-98029000D01*
X109237000Y-97989000D02*
X112763000Y-97989000D01*
X109346000Y-97949000D02*
X112654000Y-97949000D01*
X109464000Y-97909000D02*
X112536000Y-97909000D01*
X109593000Y-97869000D02*
X112407000Y-97869000D01*
X109735000Y-97829000D02*
X112265000Y-97829000D01*
X109896000Y-97789000D02*
X112104000Y-97789000D01*
X110087000Y-97749000D02*
X111913000Y-97749000D01*
X110328000Y-97709000D02*
X111672000Y-97709000D01*
X110721000Y-97669000D02*
X111279000Y-97669000D01*
X111000000Y-106200000D02*
X111000000Y-105000000D01*
X110350000Y-105600000D02*
X111650000Y-105600000D01*
D11*
X79620000Y-99997460D02*
X80636000Y-99997460D01*
X74794000Y-99997460D02*
X73524000Y-99997460D01*
X75048000Y-98727460D02*
X75048000Y-101267460D01*
X75302000Y-98727460D02*
X75302000Y-101267460D01*
X75556000Y-98727460D02*
X75556000Y-101267460D01*
X74794000Y-98727460D02*
X74794000Y-101267460D01*
X75810000Y-98727460D02*
X74540000Y-101267460D01*
X74540000Y-98727460D02*
X75810000Y-101267460D01*
X75810000Y-98727460D02*
X75810000Y-101267460D01*
X75175000Y-98727460D02*
X75175000Y-101267460D01*
X74540000Y-101267460D02*
X74540000Y-98727460D01*
X74540000Y-98727460D02*
X79620000Y-98727460D01*
X79620000Y-98727460D02*
X79620000Y-101267460D01*
X79620000Y-101267460D02*
X74540000Y-101267460D01*
X70380000Y-105002540D02*
X69364000Y-105002540D01*
X75206000Y-105002540D02*
X76476000Y-105002540D01*
X74952000Y-106272540D02*
X74952000Y-103732540D01*
X74698000Y-106272540D02*
X74698000Y-103732540D01*
X74444000Y-106272540D02*
X74444000Y-103732540D01*
X75206000Y-106272540D02*
X75206000Y-103732540D01*
X74190000Y-106272540D02*
X75460000Y-103732540D01*
X75460000Y-106272540D02*
X74190000Y-103732540D01*
X74190000Y-106272540D02*
X74190000Y-103732540D01*
X74825000Y-106272540D02*
X74825000Y-103732540D01*
X75460000Y-103732540D02*
X75460000Y-106272540D01*
X75460000Y-106272540D02*
X70380000Y-106272540D01*
X70380000Y-106272540D02*
X70380000Y-103732540D01*
X70380000Y-103732540D02*
X75460000Y-103732540D01*
X58149845Y-78250353D02*
G75*
G03X58150000Y-79750000I1700155J-749647D01*
G01*
X58149845Y-73170353D02*
G75*
G03X58150000Y-74670000I1700155J-749647D01*
G01*
X58149845Y-68090353D02*
G75*
G03X58150000Y-69590000I1700155J-749647D01*
G01*
X51570000Y-81620000D02*
X58980000Y-81620000D01*
X58980000Y-81620000D02*
X58980000Y-66220000D01*
X58980000Y-66220000D02*
X51570000Y-66220000D01*
X51570000Y-66220000D02*
X51570000Y-81620000D01*
X58150000Y-79750000D02*
X58150000Y-80500000D01*
X58150000Y-80500000D02*
X53850000Y-80500000D01*
X53850000Y-80500000D02*
X53850000Y-79750000D01*
X53850000Y-79750000D02*
X53500000Y-79750000D01*
X53500000Y-79750000D02*
X53500000Y-80250000D01*
X53500000Y-80250000D02*
X52500000Y-80500000D01*
X52500000Y-80500000D02*
X52500000Y-77500000D01*
X52500000Y-77500000D02*
X53500000Y-77750000D01*
X53500000Y-77750000D02*
X53500000Y-78250000D01*
X53500000Y-78250000D02*
X53850000Y-78250000D01*
X53850000Y-78250000D02*
X53850000Y-78250000D01*
X53850000Y-78250000D02*
X53850000Y-77500000D01*
X53850000Y-77500000D02*
X58150000Y-77500000D01*
X58150000Y-77500000D02*
X58150000Y-78250000D01*
X58150000Y-74670000D02*
X58150000Y-75420000D01*
X58150000Y-75420000D02*
X53850000Y-75420000D01*
X53850000Y-75420000D02*
X53850000Y-74670000D01*
X53850000Y-74670000D02*
X53500000Y-74670000D01*
X53500000Y-74670000D02*
X53500000Y-75170000D01*
X53500000Y-75170000D02*
X52500000Y-75420000D01*
X52500000Y-75420000D02*
X52500000Y-72420000D01*
X52500000Y-72420000D02*
X53500000Y-72670000D01*
X53500000Y-72670000D02*
X53500000Y-73170000D01*
X53500000Y-73170000D02*
X53850000Y-73170000D01*
X53850000Y-73170000D02*
X53850000Y-73170000D01*
X53850000Y-73170000D02*
X53850000Y-72420000D01*
X53850000Y-72420000D02*
X58150000Y-72420000D01*
X58150000Y-72420000D02*
X58150000Y-73170000D01*
X58150000Y-69590000D02*
X58150000Y-70340000D01*
X58150000Y-70340000D02*
X53850000Y-70340000D01*
X53850000Y-70340000D02*
X53850000Y-69590000D01*
X53850000Y-69590000D02*
X53500000Y-69590000D01*
X53500000Y-69590000D02*
X53500000Y-70090000D01*
X53500000Y-70090000D02*
X52500000Y-70340000D01*
X52500000Y-70340000D02*
X52500000Y-67340000D01*
X52500000Y-67340000D02*
X53500000Y-67590000D01*
X53500000Y-67590000D02*
X53500000Y-68090000D01*
X53500000Y-68090000D02*
X53850000Y-68090000D01*
X53850000Y-68090000D02*
X53850000Y-68090000D01*
X53850000Y-68090000D02*
X53850000Y-67340000D01*
X53850000Y-67340000D02*
X58150000Y-67340000D01*
X58150000Y-67340000D02*
X58150000Y-68090000D01*
X51150000Y-79000000D02*
X50550000Y-78700000D01*
X50550000Y-78700000D02*
X50550000Y-79300000D01*
X50550000Y-79300000D02*
X51150000Y-79000000D01*
X126850155Y-53749647D02*
G75*
G03X126850000Y-52250000I-1700155J749647D01*
G01*
X126850155Y-58829647D02*
G75*
G03X126850000Y-57330000I-1700155J749647D01*
G01*
X126850155Y-63909647D02*
G75*
G03X126850000Y-62410000I-1700155J749647D01*
G01*
X133430000Y-50380000D02*
X126020000Y-50380000D01*
X126020000Y-50380000D02*
X126020000Y-65780000D01*
X126020000Y-65780000D02*
X133430000Y-65780000D01*
X133430000Y-65780000D02*
X133430000Y-50380000D01*
X126850000Y-52250000D02*
X126850000Y-51500000D01*
X126850000Y-51500000D02*
X131150000Y-51500000D01*
X131150000Y-51500000D02*
X131150000Y-52250000D01*
X131150000Y-52250000D02*
X131500000Y-52250000D01*
X131500000Y-52250000D02*
X131500000Y-51750000D01*
X131500000Y-51750000D02*
X132500000Y-51500000D01*
X132500000Y-51500000D02*
X132500000Y-54500000D01*
X132500000Y-54500000D02*
X131500000Y-54250000D01*
X131500000Y-54250000D02*
X131500000Y-53750000D01*
X131500000Y-53750000D02*
X131150000Y-53750000D01*
X131150000Y-53750000D02*
X131150000Y-53750000D01*
X131150000Y-53750000D02*
X131150000Y-54500000D01*
X131150000Y-54500000D02*
X126850000Y-54500000D01*
X126850000Y-54500000D02*
X126850000Y-53750000D01*
X126850000Y-57330000D02*
X126850000Y-56580000D01*
X126850000Y-56580000D02*
X131150000Y-56580000D01*
X131150000Y-56580000D02*
X131150000Y-57330000D01*
X131150000Y-57330000D02*
X131500000Y-57330000D01*
X131500000Y-57330000D02*
X131500000Y-56830000D01*
X131500000Y-56830000D02*
X132500000Y-56580000D01*
X132500000Y-56580000D02*
X132500000Y-59580000D01*
X132500000Y-59580000D02*
X131500000Y-59330000D01*
X131500000Y-59330000D02*
X131500000Y-58830000D01*
X131500000Y-58830000D02*
X131150000Y-58830000D01*
X131150000Y-58830000D02*
X131150000Y-58830000D01*
X131150000Y-58830000D02*
X131150000Y-59580000D01*
X131150000Y-59580000D02*
X126850000Y-59580000D01*
X126850000Y-59580000D02*
X126850000Y-58830000D01*
X126850000Y-62410000D02*
X126850000Y-61660000D01*
X126850000Y-61660000D02*
X131150000Y-61660000D01*
X131150000Y-61660000D02*
X131150000Y-62410000D01*
X131150000Y-62410000D02*
X131500000Y-62410000D01*
X131500000Y-62410000D02*
X131500000Y-61910000D01*
X131500000Y-61910000D02*
X132500000Y-61660000D01*
X132500000Y-61660000D02*
X132500000Y-64660000D01*
X132500000Y-64660000D02*
X131500000Y-64410000D01*
X131500000Y-64410000D02*
X131500000Y-63910000D01*
X131500000Y-63910000D02*
X131150000Y-63910000D01*
X131150000Y-63910000D02*
X131150000Y-63910000D01*
X131150000Y-63910000D02*
X131150000Y-64660000D01*
X131150000Y-64660000D02*
X126850000Y-64660000D01*
X126850000Y-64660000D02*
X126850000Y-63910000D01*
X133850000Y-53000000D02*
X134450000Y-53300000D01*
X134450000Y-53300000D02*
X134450000Y-52700000D01*
X134450000Y-52700000D02*
X133850000Y-53000000D01*
X126850155Y-87749647D02*
G75*
G03X126850000Y-86250000I-1700155J749647D01*
G01*
X126850155Y-92829647D02*
G75*
G03X126850000Y-91330000I-1700155J749647D01*
G01*
X126850155Y-97909647D02*
G75*
G03X126850000Y-96410000I-1700155J749647D01*
G01*
X133430000Y-84380000D02*
X126020000Y-84380000D01*
X126020000Y-84380000D02*
X126020000Y-99780000D01*
X126020000Y-99780000D02*
X133430000Y-99780000D01*
X133430000Y-99780000D02*
X133430000Y-84380000D01*
X126850000Y-86250000D02*
X126850000Y-85500000D01*
X126850000Y-85500000D02*
X131150000Y-85500000D01*
X131150000Y-85500000D02*
X131150000Y-86250000D01*
X131150000Y-86250000D02*
X131500000Y-86250000D01*
X131500000Y-86250000D02*
X131500000Y-85750000D01*
X131500000Y-85750000D02*
X132500000Y-85500000D01*
X132500000Y-85500000D02*
X132500000Y-88500000D01*
X132500000Y-88500000D02*
X131500000Y-88250000D01*
X131500000Y-88250000D02*
X131500000Y-87750000D01*
X131500000Y-87750000D02*
X131150000Y-87750000D01*
X131150000Y-87750000D02*
X131150000Y-87750000D01*
X131150000Y-87750000D02*
X131150000Y-88500000D01*
X131150000Y-88500000D02*
X126850000Y-88500000D01*
X126850000Y-88500000D02*
X126850000Y-87750000D01*
X126850000Y-91330000D02*
X126850000Y-90580000D01*
X126850000Y-90580000D02*
X131150000Y-90580000D01*
X131150000Y-90580000D02*
X131150000Y-91330000D01*
X131150000Y-91330000D02*
X131500000Y-91330000D01*
X131500000Y-91330000D02*
X131500000Y-90830000D01*
X131500000Y-90830000D02*
X132500000Y-90580000D01*
X132500000Y-90580000D02*
X132500000Y-93580000D01*
X132500000Y-93580000D02*
X131500000Y-93330000D01*
X131500000Y-93330000D02*
X131500000Y-92830000D01*
X131500000Y-92830000D02*
X131150000Y-92830000D01*
X131150000Y-92830000D02*
X131150000Y-92830000D01*
X131150000Y-92830000D02*
X131150000Y-93580000D01*
X131150000Y-93580000D02*
X126850000Y-93580000D01*
X126850000Y-93580000D02*
X126850000Y-92830000D01*
X126850000Y-96410000D02*
X126850000Y-95660000D01*
X126850000Y-95660000D02*
X131150000Y-95660000D01*
X131150000Y-95660000D02*
X131150000Y-96410000D01*
X131150000Y-96410000D02*
X131500000Y-96410000D01*
X131500000Y-96410000D02*
X131500000Y-95910000D01*
X131500000Y-95910000D02*
X132500000Y-95660000D01*
X132500000Y-95660000D02*
X132500000Y-98660000D01*
X132500000Y-98660000D02*
X131500000Y-98410000D01*
X131500000Y-98410000D02*
X131500000Y-97910000D01*
X131500000Y-97910000D02*
X131150000Y-97910000D01*
X131150000Y-97910000D02*
X131150000Y-97910000D01*
X131150000Y-97910000D02*
X131150000Y-98660000D01*
X131150000Y-98660000D02*
X126850000Y-98660000D01*
X126850000Y-98660000D02*
X126850000Y-97910000D01*
X133850000Y-87000000D02*
X134450000Y-87300000D01*
X134450000Y-87300000D02*
X134450000Y-86700000D01*
X134450000Y-86700000D02*
X133850000Y-87000000D01*
D12*
X78000000Y-44050000D02*
X78000000Y-46150000D01*
X79050000Y-45100000D02*
X76950000Y-45100000D01*
X88060000Y-41940000D02*
X67940000Y-41940000D01*
X88060000Y-88060000D02*
X67940000Y-88060000D01*
X88060000Y-41940000D02*
X88060000Y-44040000D01*
X88060000Y-44040000D02*
X87010000Y-45090000D01*
X87010000Y-45090000D02*
X88060000Y-46140000D01*
X88060000Y-46140000D02*
X88060000Y-88060000D01*
X67940000Y-41940000D02*
X67940000Y-44040000D01*
X67940000Y-44040000D02*
X68990000Y-45090000D01*
X68990000Y-45090000D02*
X67940000Y-46140000D01*
X67940000Y-46140000D02*
X67940000Y-88060000D01*
X78000000Y-40580000D02*
X78000000Y-41940000D01*
X78000000Y-89420000D02*
X78000000Y-88060000D01*
X112000000Y-44050000D02*
X112000000Y-46150000D01*
X113050000Y-45100000D02*
X110950000Y-45100000D01*
X122060000Y-41940000D02*
X101940000Y-41940000D01*
X122060000Y-88060000D02*
X101940000Y-88060000D01*
X122060000Y-41940000D02*
X122060000Y-44040000D01*
X122060000Y-44040000D02*
X121010000Y-45090000D01*
X121010000Y-45090000D02*
X122060000Y-46140000D01*
X122060000Y-46140000D02*
X122060000Y-88060000D01*
X101940000Y-41940000D02*
X101940000Y-44040000D01*
X101940000Y-44040000D02*
X102990000Y-45090000D01*
X102990000Y-45090000D02*
X101940000Y-46140000D01*
X101940000Y-46140000D02*
X101940000Y-88060000D01*
X112000000Y-40580000D02*
X112000000Y-41940000D01*
X112000000Y-89420000D02*
X112000000Y-88060000D01*
X61840000Y-78210000D02*
X65160000Y-78210000D01*
X65160000Y-78210000D02*
X65160000Y-69090000D01*
X65160000Y-69090000D02*
X61840000Y-69090000D01*
X61840000Y-69090000D02*
X61840000Y-78210000D01*
X63500000Y-79020000D02*
X63500000Y-78210000D01*
X63500000Y-68280000D02*
X63500000Y-69090000D01*
X89210000Y-96660000D02*
X89210000Y-93340000D01*
X89210000Y-93340000D02*
X80090000Y-93340000D01*
X80090000Y-93340000D02*
X80090000Y-96660000D01*
X80090000Y-96660000D02*
X89210000Y-96660000D01*
X90020000Y-95000000D02*
X89210000Y-95000000D01*
X79280000Y-95000000D02*
X80090000Y-95000000D01*
X117210000Y-112660000D02*
X117210000Y-109340000D01*
X117210000Y-109340000D02*
X108090000Y-109340000D01*
X108090000Y-109340000D02*
X108090000Y-112660000D01*
X108090000Y-112660000D02*
X117210000Y-112660000D01*
X118020000Y-111000000D02*
X117210000Y-111000000D01*
X107280000Y-111000000D02*
X108090000Y-111000000D01*
X66210000Y-101660000D02*
X66210000Y-98340000D01*
X66210000Y-98340000D02*
X57090000Y-98340000D01*
X57090000Y-98340000D02*
X57090000Y-101660000D01*
X57090000Y-101660000D02*
X66210000Y-101660000D01*
X67020000Y-100000000D02*
X66210000Y-100000000D01*
X56280000Y-100000000D02*
X57090000Y-100000000D01*
X67790000Y-108340000D02*
X67790000Y-111660000D01*
X67790000Y-111660000D02*
X76910000Y-111660000D01*
X76910000Y-111660000D02*
X76910000Y-108340000D01*
X76910000Y-108340000D02*
X67790000Y-108340000D01*
X66980000Y-110000000D02*
X67790000Y-110000000D01*
X77720000Y-110000000D02*
X76910000Y-110000000D01*
D11*
X65002540Y-57620000D02*
X65002540Y-58636000D01*
X65002540Y-52794000D02*
X65002540Y-51524000D01*
X66272540Y-53048000D02*
X63732540Y-53048000D01*
X66272540Y-53302000D02*
X63732540Y-53302000D01*
X66272540Y-53556000D02*
X63732540Y-53556000D01*
X66272540Y-52794000D02*
X63732540Y-52794000D01*
X66272540Y-53810000D02*
X63732540Y-52540000D01*
X66272540Y-52540000D02*
X63732540Y-53810000D01*
X66272540Y-53810000D02*
X63732540Y-53810000D01*
X66272540Y-53175000D02*
X63732540Y-53175000D01*
X63732540Y-52540000D02*
X66272540Y-52540000D01*
X66272540Y-52540000D02*
X66272540Y-57620000D01*
X66272540Y-57620000D02*
X63732540Y-57620000D01*
X63732540Y-57620000D02*
X63732540Y-52540000D01*
X54497460Y-52380000D02*
X54497460Y-51364000D01*
X54497460Y-57206000D02*
X54497460Y-58476000D01*
X53227460Y-56952000D02*
X55767460Y-56952000D01*
X53227460Y-56698000D02*
X55767460Y-56698000D01*
X53227460Y-56444000D02*
X55767460Y-56444000D01*
X53227460Y-57206000D02*
X55767460Y-57206000D01*
X53227460Y-56190000D02*
X55767460Y-57460000D01*
X53227460Y-57460000D02*
X55767460Y-56190000D01*
X53227460Y-56190000D02*
X55767460Y-56190000D01*
X53227460Y-56825000D02*
X55767460Y-56825000D01*
X55767460Y-57460000D02*
X53227460Y-57460000D01*
X53227460Y-57460000D02*
X53227460Y-52380000D01*
X53227460Y-52380000D02*
X55767460Y-52380000D01*
X55767460Y-52380000D02*
X55767460Y-57460000D01*
X61502540Y-57620000D02*
X61502540Y-58636000D01*
X61502540Y-52794000D02*
X61502540Y-51524000D01*
X62772540Y-53048000D02*
X60232540Y-53048000D01*
X62772540Y-53302000D02*
X60232540Y-53302000D01*
X62772540Y-53556000D02*
X60232540Y-53556000D01*
X62772540Y-52794000D02*
X60232540Y-52794000D01*
X62772540Y-53810000D02*
X60232540Y-52540000D01*
X62772540Y-52540000D02*
X60232540Y-53810000D01*
X62772540Y-53810000D02*
X60232540Y-53810000D01*
X62772540Y-53175000D02*
X60232540Y-53175000D01*
X60232540Y-52540000D02*
X62772540Y-52540000D01*
X62772540Y-52540000D02*
X62772540Y-57620000D01*
X62772540Y-57620000D02*
X60232540Y-57620000D01*
X60232540Y-57620000D02*
X60232540Y-52540000D01*
X57997460Y-52380000D02*
X57997460Y-51364000D01*
X57997460Y-57206000D02*
X57997460Y-58476000D01*
X56727460Y-56952000D02*
X59267460Y-56952000D01*
X56727460Y-56698000D02*
X59267460Y-56698000D01*
X56727460Y-56444000D02*
X59267460Y-56444000D01*
X56727460Y-57206000D02*
X59267460Y-57206000D01*
X56727460Y-56190000D02*
X59267460Y-57460000D01*
X56727460Y-57460000D02*
X59267460Y-56190000D01*
X56727460Y-56190000D02*
X59267460Y-56190000D01*
X56727460Y-56825000D02*
X59267460Y-56825000D01*
X59267460Y-57460000D02*
X56727460Y-57460000D01*
X56727460Y-57460000D02*
X56727460Y-52380000D01*
X56727460Y-52380000D02*
X59267460Y-52380000D01*
X59267460Y-52380000D02*
X59267460Y-57460000D01*
X130750000Y-47000000D02*
G75*
G03X130750000Y-47000000I-1750000J0D01*
G01*
X121750000Y-39000000D02*
G75*
G03X121750000Y-39000000I-1750000J0D01*
G01*
X100250000Y-85500000D02*
G75*
G03X100250000Y-85500000I-1750000J0D01*
G01*
X124750000Y-109000000D02*
G75*
G03X124750000Y-109000000I-1750000J0D01*
G01*
D12*
X99560000Y-44180000D02*
X90440000Y-44180000D01*
X90440000Y-44180000D02*
X90440000Y-64300000D01*
X90440000Y-64300000D02*
X99560000Y-64300000D01*
X99560000Y-64300000D02*
X99560000Y-44180000D01*
X95000000Y-40380000D02*
X95000000Y-44180000D01*
X95000000Y-68100000D02*
X95000000Y-64300000D01*
X104710000Y-96660000D02*
X104710000Y-93340000D01*
X104710000Y-93340000D02*
X95590000Y-93340000D01*
X95590000Y-93340000D02*
X95590000Y-96660000D01*
X95590000Y-96660000D02*
X104710000Y-96660000D01*
X105520000Y-95000000D02*
X104710000Y-95000000D01*
X94780000Y-95000000D02*
X95590000Y-95000000D01*
X101710000Y-100160000D02*
X101710000Y-96840000D01*
X101710000Y-96840000D02*
X92590000Y-96840000D01*
X92590000Y-96840000D02*
X92590000Y-100160000D01*
X92590000Y-100160000D02*
X101710000Y-100160000D01*
X102520000Y-98500000D02*
X101710000Y-98500000D01*
X91780000Y-98500000D02*
X92590000Y-98500000D01*
M02*
