M48
; DRILL file {KiCad (5.1.5-0-10_14)} date Sunday, 13 September 2020 at 21:20:04
; FORMAT={-:-/ absolute / metric / decimal}
; #@! TF.CreationDate,2020-09-13T21:20:04+01:00
; #@! TF.GenerationSoftware,Kicad,Pcbnew,(5.1.5-0-10_14)
FMAT,2
METRIC
T1C0.800
T2C1.001
T3C1.200
T4C1.270
T5C1.400
T6C1.600
T7C3.200
T8C3.200
%
G90
G05
T1
X84.0Y-108.5
X86.54Y-105.96
X89.08Y-108.5
X93.8Y-95.0
X106.5Y-95.0
X63.5Y-67.3
X63.5Y-80.0
X55.3Y-100.0
X68.0Y-100.0
X59.3Y-95.0
X72.0Y-95.0
X109.4Y-104.671
X111.0Y-101.5
X111.0Y-104.0
X112.6Y-100.829
X78.3Y-95.0
X91.0Y-95.0
X90.8Y-98.5
X103.5Y-98.5
X93.329Y-77.4
X94.0Y-79.0
X96.5Y-79.0
X97.171Y-80.6
X66.0Y-110.0
X78.7Y-110.0
X96.0Y-108.5
X98.54Y-105.96
X101.08Y-108.5
X106.3Y-111.0
X119.0Y-111.0
X60.329Y-85.4
X61.0Y-87.0
X63.5Y-87.0
X64.171Y-88.6
T2
X61.503Y-50.0
X78.0Y-105.003
X54.497Y-60.0
X72.0Y-99.997
X65.003Y-50.0
X57.997Y-60.0
T3
X129.0Y-53.0
X129.0Y-58.08
X129.0Y-63.16
X95.0Y-39.0
X95.0Y-69.48
X129.0Y-70.0
X129.0Y-75.08
X129.0Y-80.16
X56.0Y-68.84
X56.0Y-73.92
X56.0Y-79.0
X129.0Y-87.0
X129.0Y-92.08
X129.0Y-97.16
T4
X54.497Y-49.84
X65.003Y-60.16
X57.997Y-49.84
X61.503Y-60.16
X67.84Y-105.003
X82.16Y-99.997
T5
X78.0Y-39.0
X78.0Y-91.0
X112.0Y-39.0
X112.0Y-91.0
T6
X129.0Y-47.0
X120.0Y-39.0
X98.5Y-85.5
X123.0Y-109.0
T7
X55.0Y-40.0
T8
X130.0Y-40.0
X130.0Y-110.0
X55.0Y-110.0
T0
M30
