%TF.GenerationSoftware,KiCad,Pcbnew,(5.1.5-0-10_14)*%
%TF.CreationDate,2020-09-13T21:19:58+01:00*%
%TF.ProjectId,PowerSupply,506f7765-7253-4757-9070-6c792e6b6963,rev?*%
%TF.SameCoordinates,Original*%
%TF.FileFunction,Soldermask,Bot*%
%TF.FilePolarity,Negative*%
%FSLAX46Y46*%
G04 Gerber Fmt 4.6, Leading zero omitted, Abs format (unit mm)*
G04 Created by KiCad (PCBNEW (5.1.5-0-10_14)) date 2020-09-13 21:19:58*
%MOMM*%
%LPD*%
G04 APERTURE LIST*
%ADD10R,4.000000X2.200000*%
%ADD11O,4.000000X2.200000*%
%ADD12R,2.000000X2.000000*%
%ADD13C,2.000000*%
%ADD14O,2.000000X2.000000*%
%ADD15C,2.398980*%
%ADD16R,2.398980X2.398980*%
%ADD17C,1.840000*%
%ADD18C,6.800000*%
%ADD19R,3.200000X3.200000*%
%ADD20O,3.200000X3.200000*%
%ADD21C,3.600000*%
%ADD22C,3.200000*%
%ADD23C,2.800000*%
%ADD24O,2.800000X2.800000*%
G04 APERTURE END LIST*
D10*
X129000000Y-70000000D03*
D11*
X129000000Y-75080000D03*
X129000000Y-80160000D03*
D12*
X61000000Y-87000000D03*
D13*
X63500000Y-87000000D03*
D12*
X60329063Y-85400000D03*
D13*
X64170937Y-88600000D03*
X72000000Y-95000000D03*
D14*
X59300000Y-95000000D03*
D12*
X94000000Y-79000000D03*
D13*
X96500000Y-79000000D03*
D12*
X93329063Y-77400000D03*
D13*
X97170937Y-80600000D03*
D12*
X111000000Y-104000000D03*
D13*
X111000000Y-101500000D03*
D12*
X109400000Y-104670937D03*
D13*
X112600000Y-100829063D03*
D15*
X82160000Y-99997460D03*
D16*
X72000000Y-99997460D03*
D15*
X67840000Y-105002540D03*
D16*
X78000000Y-105002540D03*
D10*
X56000000Y-79000000D03*
D11*
X56000000Y-73920000D03*
X56000000Y-68840000D03*
D17*
X101080000Y-108500000D03*
X98540000Y-105960000D03*
X96000000Y-108500000D03*
X89080000Y-108500000D03*
X86540000Y-105960000D03*
X84000000Y-108500000D03*
D18*
X55000000Y-40000000D03*
D10*
X129000000Y-53000000D03*
D11*
X129000000Y-58080000D03*
X129000000Y-63160000D03*
D10*
X129000000Y-87000000D03*
D11*
X129000000Y-92080000D03*
X129000000Y-97160000D03*
D19*
X78000000Y-39000000D03*
D20*
X78000000Y-91000000D03*
D19*
X112000000Y-39000000D03*
D20*
X112000000Y-91000000D03*
D13*
X63500000Y-80000000D03*
D14*
X63500000Y-67300000D03*
D13*
X91000000Y-95000000D03*
D14*
X78300000Y-95000000D03*
D13*
X119000000Y-111000000D03*
D14*
X106300000Y-111000000D03*
D13*
X68000000Y-100000000D03*
D14*
X55300000Y-100000000D03*
D13*
X66000000Y-110000000D03*
D14*
X78700000Y-110000000D03*
D21*
X130000000Y-40000000D03*
X130000000Y-110000000D03*
X55000000Y-110000000D03*
D15*
X65002540Y-60160000D03*
D16*
X65002540Y-50000000D03*
D15*
X54497460Y-49840000D03*
D16*
X54497460Y-60000000D03*
D15*
X61502540Y-60160000D03*
D16*
X61502540Y-50000000D03*
D15*
X57997460Y-49840000D03*
D16*
X57997460Y-60000000D03*
D22*
X129000000Y-47000000D03*
X120000000Y-39000000D03*
X98500000Y-85500000D03*
X123000000Y-109000000D03*
D23*
X95000000Y-39000000D03*
D24*
X95000000Y-69480000D03*
D13*
X106500000Y-95000000D03*
D14*
X93800000Y-95000000D03*
D13*
X103500000Y-98500000D03*
D14*
X90800000Y-98500000D03*
M02*
