%TF.GenerationSoftware,KiCad,Pcbnew,(5.1.5-0-10_14)*%
%TF.CreationDate,2020-09-13T21:19:58+01:00*%
%TF.ProjectId,PowerSupply,506f7765-7253-4757-9070-6c792e6b6963,rev?*%
%TF.SameCoordinates,Original*%
%TF.FileFunction,Copper,L2,Bot*%
%TF.FilePolarity,Positive*%
%FSLAX46Y46*%
G04 Gerber Fmt 4.6, Leading zero omitted, Abs format (unit mm)*
G04 Created by KiCad (PCBNEW (5.1.5-0-10_14)) date 2020-09-13 21:19:58*
%MOMM*%
%LPD*%
G04 APERTURE LIST*
%ADD10R,3.600000X1.800000*%
%ADD11O,3.600000X1.800000*%
%ADD12R,1.600000X1.600000*%
%ADD13C,1.600000*%
%ADD14O,1.600000X1.600000*%
%ADD15C,1.998980*%
%ADD16R,1.998980X1.998980*%
%ADD17C,1.440000*%
%ADD18C,6.400000*%
%ADD19R,2.800000X2.800000*%
%ADD20O,2.800000X2.800000*%
%ADD21C,2.800000*%
%ADD22C,2.400000*%
%ADD23O,2.400000X2.400000*%
%ADD24C,1.000000*%
%ADD25C,2.000000*%
%ADD26C,0.800000*%
G04 APERTURE END LIST*
D10*
X129000000Y-70000000D03*
D11*
X129000000Y-75080000D03*
X129000000Y-80160000D03*
D12*
X61000000Y-87000000D03*
D13*
X63500000Y-87000000D03*
D12*
X60329063Y-85400000D03*
D13*
X64170937Y-88600000D03*
X72000000Y-95000000D03*
D14*
X59300000Y-95000000D03*
D12*
X94000000Y-79000000D03*
D13*
X96500000Y-79000000D03*
D12*
X93329063Y-77400000D03*
D13*
X97170937Y-80600000D03*
D12*
X111000000Y-104000000D03*
D13*
X111000000Y-101500000D03*
D12*
X109400000Y-104670937D03*
D13*
X112600000Y-100829063D03*
D15*
X82160000Y-99997460D03*
D16*
X72000000Y-99997460D03*
D15*
X67840000Y-105002540D03*
D16*
X78000000Y-105002540D03*
D10*
X56000000Y-79000000D03*
D11*
X56000000Y-73920000D03*
X56000000Y-68840000D03*
D17*
X101080000Y-108500000D03*
X98540000Y-105960000D03*
X96000000Y-108500000D03*
X89080000Y-108500000D03*
X86540000Y-105960000D03*
X84000000Y-108500000D03*
D18*
X55000000Y-40000000D03*
D10*
X129000000Y-53000000D03*
D11*
X129000000Y-58080000D03*
X129000000Y-63160000D03*
D10*
X129000000Y-87000000D03*
D11*
X129000000Y-92080000D03*
X129000000Y-97160000D03*
D19*
X78000000Y-39000000D03*
D20*
X78000000Y-91000000D03*
D19*
X112000000Y-39000000D03*
D20*
X112000000Y-91000000D03*
D13*
X63500000Y-80000000D03*
D14*
X63500000Y-67300000D03*
D13*
X91000000Y-95000000D03*
D14*
X78300000Y-95000000D03*
D13*
X119000000Y-111000000D03*
D14*
X106300000Y-111000000D03*
D13*
X68000000Y-100000000D03*
D14*
X55300000Y-100000000D03*
D13*
X66000000Y-110000000D03*
D14*
X78700000Y-110000000D03*
D15*
X65002540Y-60160000D03*
D16*
X65002540Y-50000000D03*
D15*
X54497460Y-49840000D03*
D16*
X54497460Y-60000000D03*
D15*
X61502540Y-60160000D03*
D16*
X61502540Y-50000000D03*
D15*
X57997460Y-49840000D03*
D16*
X57997460Y-60000000D03*
D21*
X129000000Y-47000000D03*
X120000000Y-39000000D03*
X98500000Y-85500000D03*
X123000000Y-109000000D03*
D22*
X95000000Y-39000000D03*
D23*
X95000000Y-69480000D03*
D13*
X106500000Y-95000000D03*
D14*
X93800000Y-95000000D03*
D13*
X103500000Y-98500000D03*
D14*
X90800000Y-98500000D03*
D24*
X59300000Y-95000000D02*
X59300000Y-96000000D01*
X59300000Y-96000000D02*
X55300000Y-100000000D01*
X64170937Y-88600000D02*
X64170937Y-90129063D01*
X64170937Y-90129063D02*
X59300000Y-95000000D01*
X63500000Y-87000000D02*
X63500000Y-87929063D01*
X63500000Y-87929063D02*
X64170937Y-88600000D01*
X63500000Y-80000000D02*
X63500000Y-87000000D01*
X106500000Y-95000000D02*
X117500000Y-95000000D01*
X120420000Y-92080000D02*
X129000000Y-92080000D01*
X117500000Y-95000000D02*
X120420000Y-92080000D01*
X103500000Y-98500000D02*
X118500000Y-98500000D01*
X118500000Y-98500000D02*
X119840000Y-97160000D01*
X119840000Y-97160000D02*
X129000000Y-97160000D01*
D25*
X54497460Y-49840000D02*
X54497460Y-50497460D01*
X54497460Y-50497460D02*
X59000000Y-55000000D01*
X59000000Y-55000000D02*
X59842540Y-55000000D01*
X59842540Y-55000000D02*
X65002540Y-60160000D01*
X65002540Y-60160000D02*
X65002540Y-65797460D01*
X65002540Y-65797460D02*
X63500000Y-67300000D01*
D24*
X72000000Y-95000000D02*
X75000000Y-95000000D01*
X75000000Y-95000000D02*
X78300000Y-95000000D01*
X72000000Y-99997460D02*
X72000000Y-98000000D01*
X72000000Y-98000000D02*
X75000000Y-95000000D01*
X78000000Y-105002540D02*
X85582540Y-105002540D01*
X85582540Y-105002540D02*
X86540000Y-105960000D01*
X101080000Y-108500000D02*
X101800000Y-108500000D01*
X101800000Y-108500000D02*
X104300000Y-111000000D01*
X106300000Y-111000000D02*
X104300000Y-111000000D01*
X92000000Y-111500000D02*
X103800000Y-111500000D01*
X92000000Y-111500000D02*
X89080000Y-108580000D01*
X104300000Y-111000000D02*
X103800000Y-111500000D01*
D25*
X89080000Y-108500000D02*
X89080000Y-108580000D01*
X95000000Y-69480000D02*
X95000000Y-56000000D01*
X129000000Y-53000000D02*
X129000000Y-47000000D01*
X61502540Y-50000000D02*
X61502540Y-45497460D01*
X68000000Y-39000000D02*
X78000000Y-39000000D01*
X61502540Y-45497460D02*
X68000000Y-39000000D01*
X77997460Y-39002540D02*
X78000000Y-39000000D01*
X129000000Y-53000000D02*
X98000000Y-53000000D01*
X98000000Y-53000000D02*
X95000000Y-56000000D01*
X95000000Y-56000000D02*
X78000000Y-39000000D01*
X112000000Y-39000000D02*
X120000000Y-39000000D01*
X95000000Y-39000000D02*
X112000000Y-39000000D01*
X129000000Y-80160000D02*
X122840000Y-80160000D01*
X122840000Y-80160000D02*
X112000000Y-91000000D01*
X129000000Y-80160000D02*
X129000000Y-75080000D01*
D24*
X61000000Y-87000000D02*
X61000000Y-86070937D01*
X61000000Y-86070937D02*
X60329063Y-85400000D01*
D25*
X77750000Y-78250000D02*
X82750000Y-78250000D01*
X123920000Y-58080000D02*
X129000000Y-58080000D01*
X109000000Y-73000000D02*
X123920000Y-58080000D01*
X88000000Y-73000000D02*
X109000000Y-73000000D01*
X82750000Y-78250000D02*
X88000000Y-73000000D01*
X56000000Y-73920000D02*
X73420000Y-73920000D01*
X73420000Y-73920000D02*
X77750000Y-78250000D01*
X77750000Y-78250000D02*
X78000000Y-78500000D01*
X129000000Y-63160000D02*
X129000000Y-58080000D01*
X78000000Y-78500000D02*
X78000000Y-91000000D01*
X54497460Y-60000000D02*
X54497460Y-67337460D01*
X54497460Y-67337460D02*
X56000000Y-68840000D01*
D24*
X97170937Y-80600000D02*
X97170937Y-79670937D01*
X97170937Y-79670937D02*
X96500000Y-79000000D01*
X98500000Y-85500000D02*
X98500000Y-81929063D01*
X98500000Y-81929063D02*
X97170937Y-80600000D01*
X93800000Y-95000000D02*
X93800000Y-90200000D01*
X93800000Y-90200000D02*
X98500000Y-85500000D01*
X91000000Y-95000000D02*
X93800000Y-95000000D01*
X91000000Y-95000000D02*
X87157460Y-95000000D01*
X87157460Y-95000000D02*
X82160000Y-99997460D01*
X112600000Y-100829063D02*
X114829063Y-100829063D01*
X114829063Y-100829063D02*
X123000000Y-109000000D01*
X90800000Y-98500000D02*
X99000000Y-98500000D01*
X102000000Y-101500000D02*
X111000000Y-101500000D01*
X99000000Y-98500000D02*
X102000000Y-101500000D01*
X67840000Y-105002540D02*
X68497460Y-105002540D01*
X68497460Y-105002540D02*
X71000000Y-102500000D01*
X86800000Y-102500000D02*
X90800000Y-98500000D01*
X71000000Y-102500000D02*
X86800000Y-102500000D01*
X111000000Y-101500000D02*
X111929063Y-101500000D01*
X111929063Y-101500000D02*
X112600000Y-100829063D01*
D26*
G36*
X52050597Y-36909175D02*
G01*
X55000000Y-39858579D01*
X57949403Y-36909175D01*
X57667531Y-36275000D01*
X133725000Y-36275000D01*
X133725001Y-113725000D01*
X51275000Y-113725000D01*
X51275000Y-109724224D01*
X52200000Y-109724224D01*
X52200000Y-110275776D01*
X52307602Y-110816730D01*
X52518672Y-111326297D01*
X52825098Y-111784896D01*
X53215104Y-112174902D01*
X53673703Y-112481328D01*
X54183270Y-112692398D01*
X54724224Y-112800000D01*
X55275776Y-112800000D01*
X55816730Y-112692398D01*
X56326297Y-112481328D01*
X56784896Y-112174902D01*
X57174902Y-111784896D01*
X57481328Y-111326297D01*
X57692398Y-110816730D01*
X57800000Y-110275776D01*
X57800000Y-109803017D01*
X64000000Y-109803017D01*
X64000000Y-110196983D01*
X64076859Y-110583378D01*
X64227623Y-110947355D01*
X64446499Y-111274926D01*
X64725074Y-111553501D01*
X65052645Y-111772377D01*
X65416622Y-111923141D01*
X65803017Y-112000000D01*
X66196983Y-112000000D01*
X66583378Y-111923141D01*
X66947355Y-111772377D01*
X67274926Y-111553501D01*
X67553501Y-111274926D01*
X67772377Y-110947355D01*
X67923141Y-110583378D01*
X68000000Y-110196983D01*
X68000000Y-109803017D01*
X76700000Y-109803017D01*
X76700000Y-110196983D01*
X76776859Y-110583378D01*
X76927623Y-110947355D01*
X77146499Y-111274926D01*
X77425074Y-111553501D01*
X77752645Y-111772377D01*
X78116622Y-111923141D01*
X78503017Y-112000000D01*
X78896983Y-112000000D01*
X79283378Y-111923141D01*
X79647355Y-111772377D01*
X79974926Y-111553501D01*
X80253501Y-111274926D01*
X80472377Y-110947355D01*
X80623141Y-110583378D01*
X80700000Y-110196983D01*
X80700000Y-109803017D01*
X80623141Y-109416622D01*
X80472377Y-109052645D01*
X80253501Y-108725074D01*
X79974926Y-108446499D01*
X79647355Y-108227623D01*
X79283378Y-108076859D01*
X78896983Y-108000000D01*
X78503017Y-108000000D01*
X78116622Y-108076859D01*
X77752645Y-108227623D01*
X77425074Y-108446499D01*
X77146499Y-108725074D01*
X76927623Y-109052645D01*
X76776859Y-109416622D01*
X76700000Y-109803017D01*
X68000000Y-109803017D01*
X67923141Y-109416622D01*
X67772377Y-109052645D01*
X67553501Y-108725074D01*
X67274926Y-108446499D01*
X66947355Y-108227623D01*
X66583378Y-108076859D01*
X66196983Y-108000000D01*
X65803017Y-108000000D01*
X65416622Y-108076859D01*
X65052645Y-108227623D01*
X64725074Y-108446499D01*
X64446499Y-108725074D01*
X64227623Y-109052645D01*
X64076859Y-109416622D01*
X64000000Y-109803017D01*
X57800000Y-109803017D01*
X57800000Y-109724224D01*
X57692398Y-109183270D01*
X57481328Y-108673703D01*
X57174902Y-108215104D01*
X56784896Y-107825098D01*
X56326297Y-107518672D01*
X55816730Y-107307602D01*
X55275776Y-107200000D01*
X54724224Y-107200000D01*
X54183270Y-107307602D01*
X53673703Y-107518672D01*
X53215104Y-107825098D01*
X52825098Y-108215104D01*
X52518672Y-108673703D01*
X52307602Y-109183270D01*
X52200000Y-109724224D01*
X51275000Y-109724224D01*
X51275000Y-99803017D01*
X53300000Y-99803017D01*
X53300000Y-100196983D01*
X53376859Y-100583378D01*
X53527623Y-100947355D01*
X53746499Y-101274926D01*
X54025074Y-101553501D01*
X54352645Y-101772377D01*
X54716622Y-101923141D01*
X55103017Y-102000000D01*
X55496983Y-102000000D01*
X55883378Y-101923141D01*
X56247355Y-101772377D01*
X56574926Y-101553501D01*
X56853501Y-101274926D01*
X57072377Y-100947355D01*
X57223141Y-100583378D01*
X57248556Y-100455607D01*
X60443035Y-97261128D01*
X60507897Y-97207897D01*
X60613136Y-97079664D01*
X60720336Y-96949040D01*
X60720337Y-96949039D01*
X60878194Y-96653709D01*
X60975402Y-96333258D01*
X61000000Y-96083510D01*
X61000000Y-96083501D01*
X61003214Y-96050864D01*
X61072377Y-95947355D01*
X61223141Y-95583378D01*
X61248556Y-95455607D01*
X65313972Y-91390191D01*
X65378834Y-91336960D01*
X65445213Y-91256078D01*
X65591273Y-91078103D01*
X65633020Y-91000000D01*
X65749131Y-90782772D01*
X65846339Y-90462321D01*
X65870937Y-90212573D01*
X65870937Y-90212564D01*
X65879161Y-90129064D01*
X65870937Y-90045564D01*
X65870937Y-89655675D01*
X65943314Y-89547355D01*
X66094078Y-89183378D01*
X66170937Y-88796983D01*
X66170937Y-88403017D01*
X66094078Y-88016622D01*
X65943314Y-87652645D01*
X65724438Y-87325074D01*
X65500000Y-87100636D01*
X65500000Y-86803017D01*
X65423141Y-86416622D01*
X65272377Y-86052645D01*
X65200000Y-85944325D01*
X65200000Y-81055675D01*
X65272377Y-80947355D01*
X65423141Y-80583378D01*
X65500000Y-80196983D01*
X65500000Y-79803017D01*
X65423141Y-79416622D01*
X65272377Y-79052645D01*
X65053501Y-78725074D01*
X64774926Y-78446499D01*
X64447355Y-78227623D01*
X64083378Y-78076859D01*
X63696983Y-78000000D01*
X63303017Y-78000000D01*
X62916622Y-78076859D01*
X62552645Y-78227623D01*
X62225074Y-78446499D01*
X61946499Y-78725074D01*
X61727623Y-79052645D01*
X61576859Y-79416622D01*
X61500000Y-79803017D01*
X61500000Y-80196983D01*
X61576859Y-80583378D01*
X61727623Y-80947355D01*
X61800000Y-81055675D01*
X61800001Y-83598252D01*
X61798973Y-83597409D01*
X61590505Y-83485981D01*
X61364304Y-83417363D01*
X61129063Y-83394194D01*
X59529063Y-83394194D01*
X59293822Y-83417363D01*
X59067621Y-83485981D01*
X58859153Y-83597409D01*
X58676429Y-83747366D01*
X58526472Y-83930090D01*
X58415044Y-84138558D01*
X58346426Y-84364759D01*
X58323257Y-84600000D01*
X58323257Y-86200000D01*
X58346426Y-86435241D01*
X58415044Y-86661442D01*
X58526472Y-86869910D01*
X58676429Y-87052634D01*
X58859153Y-87202591D01*
X58994194Y-87274772D01*
X58994194Y-87800000D01*
X59017363Y-88035241D01*
X59085981Y-88261442D01*
X59197409Y-88469910D01*
X59347366Y-88652634D01*
X59530090Y-88802591D01*
X59738558Y-88914019D01*
X59964759Y-88982637D01*
X60200000Y-89005806D01*
X61800000Y-89005806D01*
X62035241Y-88982637D01*
X62139498Y-88951011D01*
X62221435Y-89050852D01*
X62247796Y-89183378D01*
X62383893Y-89511944D01*
X58844393Y-93051444D01*
X58716622Y-93076859D01*
X58352645Y-93227623D01*
X58025074Y-93446499D01*
X57746499Y-93725074D01*
X57527623Y-94052645D01*
X57376859Y-94416622D01*
X57300000Y-94803017D01*
X57300000Y-95196983D01*
X57366174Y-95529663D01*
X54844393Y-98051444D01*
X54716622Y-98076859D01*
X54352645Y-98227623D01*
X54025074Y-98446499D01*
X53746499Y-98725074D01*
X53527623Y-99052645D01*
X53376859Y-99416622D01*
X53300000Y-99803017D01*
X51275000Y-99803017D01*
X51275000Y-78100000D01*
X52994194Y-78100000D01*
X52994194Y-79900000D01*
X53017363Y-80135241D01*
X53085981Y-80361442D01*
X53197409Y-80569910D01*
X53347366Y-80752634D01*
X53530090Y-80902591D01*
X53738558Y-81014019D01*
X53964759Y-81082637D01*
X54200000Y-81105806D01*
X57800000Y-81105806D01*
X58035241Y-81082637D01*
X58261442Y-81014019D01*
X58469910Y-80902591D01*
X58652634Y-80752634D01*
X58802591Y-80569910D01*
X58914019Y-80361442D01*
X58982637Y-80135241D01*
X59005806Y-79900000D01*
X59005806Y-78100000D01*
X58982637Y-77864759D01*
X58914019Y-77638558D01*
X58802591Y-77430090D01*
X58652634Y-77247366D01*
X58469910Y-77097409D01*
X58261442Y-76985981D01*
X58035241Y-76917363D01*
X57800000Y-76894194D01*
X54200000Y-76894194D01*
X53964759Y-76917363D01*
X53738558Y-76985981D01*
X53530090Y-77097409D01*
X53347366Y-77247366D01*
X53197409Y-77430090D01*
X53085981Y-77638558D01*
X53017363Y-77864759D01*
X52994194Y-78100000D01*
X51275000Y-78100000D01*
X51275000Y-50497460D01*
X52286817Y-50497460D01*
X52297460Y-50605520D01*
X52297460Y-50605530D01*
X52329293Y-50928735D01*
X52455091Y-51343437D01*
X52659377Y-51725628D01*
X52934300Y-52060621D01*
X53018245Y-52129513D01*
X57367947Y-56479216D01*
X57436839Y-56563161D01*
X57771832Y-56838083D01*
X58154023Y-57042369D01*
X58568725Y-57168167D01*
X58891930Y-57200000D01*
X58891939Y-57200000D01*
X58935569Y-57204297D01*
X60149824Y-58418552D01*
X60100447Y-58451545D01*
X60076817Y-58475175D01*
X59999541Y-58330600D01*
X59849584Y-58147876D01*
X59666860Y-57997919D01*
X59458392Y-57886491D01*
X59232191Y-57817873D01*
X58996950Y-57794704D01*
X56997970Y-57794704D01*
X56762729Y-57817873D01*
X56536528Y-57886491D01*
X56328060Y-57997919D01*
X56247460Y-58064065D01*
X56166860Y-57997919D01*
X55958392Y-57886491D01*
X55732191Y-57817873D01*
X55496950Y-57794704D01*
X54551759Y-57794704D01*
X54497460Y-57789356D01*
X54443161Y-57794704D01*
X53497970Y-57794704D01*
X53262729Y-57817873D01*
X53036528Y-57886491D01*
X52828060Y-57997919D01*
X52645336Y-58147876D01*
X52495379Y-58330600D01*
X52383951Y-58539068D01*
X52315333Y-58765269D01*
X52292164Y-59000510D01*
X52292164Y-60999490D01*
X52297460Y-61053263D01*
X52297461Y-67229390D01*
X52286817Y-67337460D01*
X52329294Y-67768735D01*
X52455091Y-68183436D01*
X52659377Y-68565628D01*
X52719230Y-68638558D01*
X52934300Y-68900621D01*
X53001219Y-68955540D01*
X53030385Y-69251672D01*
X53150465Y-69647524D01*
X53345465Y-70012343D01*
X53607891Y-70332109D01*
X53927657Y-70594535D01*
X54292476Y-70789535D01*
X54688328Y-70909615D01*
X54996833Y-70940000D01*
X55344010Y-70940000D01*
X55568724Y-71008166D01*
X55999999Y-71050643D01*
X56431274Y-71008166D01*
X56655988Y-70940000D01*
X57003167Y-70940000D01*
X57311672Y-70909615D01*
X57707524Y-70789535D01*
X58072343Y-70594535D01*
X58392109Y-70332109D01*
X58654535Y-70012343D01*
X58849535Y-69647524D01*
X58969615Y-69251672D01*
X59010161Y-68840000D01*
X58969615Y-68428328D01*
X58849535Y-68032476D01*
X58654535Y-67667657D01*
X58392109Y-67347891D01*
X58072343Y-67085465D01*
X57707524Y-66890465D01*
X57311672Y-66770385D01*
X57012154Y-66740885D01*
X56697460Y-66426191D01*
X56697460Y-62162328D01*
X56762729Y-62182127D01*
X56997970Y-62205296D01*
X58996950Y-62205296D01*
X59232191Y-62182127D01*
X59458392Y-62113509D01*
X59666860Y-62002081D01*
X59849584Y-61852124D01*
X59955300Y-61723308D01*
X60100447Y-61868455D01*
X60460691Y-62109162D01*
X60860973Y-62274964D01*
X61285909Y-62359490D01*
X61719171Y-62359490D01*
X62144107Y-62274964D01*
X62544389Y-62109162D01*
X62802540Y-61936671D01*
X62802541Y-64886190D01*
X61867949Y-65820783D01*
X61661917Y-66071832D01*
X61457631Y-66454024D01*
X61331834Y-66868725D01*
X61289357Y-67300000D01*
X61331834Y-67731275D01*
X61457631Y-68145976D01*
X61661917Y-68528168D01*
X61936839Y-68863161D01*
X62271832Y-69138083D01*
X62654024Y-69342369D01*
X63068725Y-69468166D01*
X63500000Y-69510643D01*
X63931275Y-69468166D01*
X64345976Y-69342369D01*
X64728168Y-69138083D01*
X64979217Y-68932051D01*
X66481761Y-67429509D01*
X66565701Y-67360621D01*
X66840623Y-67025628D01*
X67044909Y-66643437D01*
X67170707Y-66228735D01*
X67202540Y-65905530D01*
X67202540Y-65905521D01*
X67213183Y-65797461D01*
X67202540Y-65689401D01*
X67202540Y-60268060D01*
X67213183Y-60160000D01*
X67202540Y-60051940D01*
X67202540Y-60051930D01*
X67202030Y-60046752D01*
X67202030Y-59943369D01*
X67181861Y-59841974D01*
X67170707Y-59728725D01*
X67137672Y-59619822D01*
X67117504Y-59518433D01*
X67077946Y-59422930D01*
X67044909Y-59314023D01*
X67011940Y-59252343D01*
X66991260Y-59213654D01*
X66951702Y-59118151D01*
X66894271Y-59032199D01*
X66840623Y-58931831D01*
X66768428Y-58843862D01*
X66710995Y-58757907D01*
X66637891Y-58684803D01*
X66634591Y-58680782D01*
X66565701Y-58596839D01*
X66481756Y-58527947D01*
X61474597Y-53520789D01*
X61405701Y-53436839D01*
X61070708Y-53161917D01*
X60688517Y-52957631D01*
X60273815Y-52831833D01*
X59950610Y-52800000D01*
X59950600Y-52800000D01*
X59906972Y-52795703D01*
X58941107Y-51829838D01*
X59039309Y-51789162D01*
X59399553Y-51548455D01*
X59423183Y-51524825D01*
X59500459Y-51669400D01*
X59650416Y-51852124D01*
X59833140Y-52002081D01*
X60041608Y-52113509D01*
X60267809Y-52182127D01*
X60503050Y-52205296D01*
X61448241Y-52205296D01*
X61502540Y-52210644D01*
X61556839Y-52205296D01*
X62502030Y-52205296D01*
X62737271Y-52182127D01*
X62963472Y-52113509D01*
X63171940Y-52002081D01*
X63252540Y-51935935D01*
X63333140Y-52002081D01*
X63541608Y-52113509D01*
X63767809Y-52182127D01*
X64003050Y-52205296D01*
X66002030Y-52205296D01*
X66237271Y-52182127D01*
X66463472Y-52113509D01*
X66671940Y-52002081D01*
X66854664Y-51852124D01*
X67004621Y-51669400D01*
X67116049Y-51460932D01*
X67184667Y-51234731D01*
X67207836Y-50999490D01*
X67207836Y-49000510D01*
X67184667Y-48765269D01*
X67116049Y-48539068D01*
X67004621Y-48330600D01*
X66854664Y-48147876D01*
X66671940Y-47997919D01*
X66463472Y-47886491D01*
X66237271Y-47817873D01*
X66002030Y-47794704D01*
X64003050Y-47794704D01*
X63767809Y-47817873D01*
X63702540Y-47837672D01*
X63702540Y-46408728D01*
X68911269Y-41200000D01*
X75704171Y-41200000D01*
X75747366Y-41252634D01*
X75930090Y-41402591D01*
X76138558Y-41514019D01*
X76364759Y-41582637D01*
X76600000Y-41605806D01*
X77494538Y-41605806D01*
X92800001Y-56911271D01*
X92800000Y-68519766D01*
X92692230Y-68779946D01*
X92600000Y-69243621D01*
X92600000Y-69716379D01*
X92692230Y-70180054D01*
X92873147Y-70616826D01*
X92995540Y-70800000D01*
X88108059Y-70800000D01*
X87999999Y-70789357D01*
X87891939Y-70800000D01*
X87891930Y-70800000D01*
X87568725Y-70831833D01*
X87154023Y-70957631D01*
X86771832Y-71161917D01*
X86771830Y-71161918D01*
X86771831Y-71161918D01*
X86520781Y-71367949D01*
X86520778Y-71367952D01*
X86436839Y-71436839D01*
X86367951Y-71520779D01*
X81838732Y-76050000D01*
X78661270Y-76050000D01*
X75052057Y-72440789D01*
X74983161Y-72356839D01*
X74648168Y-72081917D01*
X74265977Y-71877631D01*
X73851275Y-71751833D01*
X73528070Y-71720000D01*
X73528060Y-71720000D01*
X73420000Y-71709357D01*
X73311940Y-71720000D01*
X55891930Y-71720000D01*
X55568725Y-71751833D01*
X55344008Y-71820000D01*
X54996833Y-71820000D01*
X54688328Y-71850385D01*
X54292476Y-71970465D01*
X53927657Y-72165465D01*
X53607891Y-72427891D01*
X53345465Y-72747657D01*
X53150465Y-73112476D01*
X53030385Y-73508328D01*
X52989839Y-73920000D01*
X53030385Y-74331672D01*
X53150465Y-74727524D01*
X53345465Y-75092343D01*
X53607891Y-75412109D01*
X53927657Y-75674535D01*
X54292476Y-75869535D01*
X54688328Y-75989615D01*
X54996833Y-76020000D01*
X55344008Y-76020000D01*
X55568725Y-76088167D01*
X55891930Y-76120000D01*
X72508732Y-76120000D01*
X75800000Y-79411270D01*
X75800001Y-89612655D01*
X75695910Y-89768438D01*
X75499917Y-90241608D01*
X75400000Y-90743922D01*
X75400000Y-91256078D01*
X75499917Y-91758392D01*
X75695910Y-92231562D01*
X75980448Y-92657403D01*
X76342597Y-93019552D01*
X76762317Y-93300000D01*
X75083502Y-93300000D01*
X75000000Y-93291776D01*
X74916498Y-93300000D01*
X73055675Y-93300000D01*
X72947355Y-93227623D01*
X72583378Y-93076859D01*
X72196983Y-93000000D01*
X71803017Y-93000000D01*
X71416622Y-93076859D01*
X71052645Y-93227623D01*
X70725074Y-93446499D01*
X70446499Y-93725074D01*
X70227623Y-94052645D01*
X70076859Y-94416622D01*
X70000000Y-94803017D01*
X70000000Y-95196983D01*
X70076859Y-95583378D01*
X70227623Y-95947355D01*
X70446499Y-96274926D01*
X70725074Y-96553501D01*
X70915259Y-96680578D01*
X70856961Y-96738876D01*
X70792104Y-96792103D01*
X70738877Y-96856960D01*
X70738868Y-96856969D01*
X70579663Y-97050961D01*
X70421807Y-97346291D01*
X70324599Y-97666742D01*
X70291776Y-98000000D01*
X70294258Y-98025204D01*
X70147876Y-98145336D01*
X69997919Y-98328060D01*
X69886491Y-98536528D01*
X69817873Y-98762729D01*
X69794704Y-98997970D01*
X69794704Y-99106547D01*
X69772377Y-99052645D01*
X69553501Y-98725074D01*
X69274926Y-98446499D01*
X68947355Y-98227623D01*
X68583378Y-98076859D01*
X68196983Y-98000000D01*
X67803017Y-98000000D01*
X67416622Y-98076859D01*
X67052645Y-98227623D01*
X66725074Y-98446499D01*
X66446499Y-98725074D01*
X66227623Y-99052645D01*
X66076859Y-99416622D01*
X66000000Y-99803017D01*
X66000000Y-100196983D01*
X66076859Y-100583378D01*
X66227623Y-100947355D01*
X66446499Y-101274926D01*
X66725074Y-101553501D01*
X67052645Y-101772377D01*
X67416622Y-101923141D01*
X67803017Y-102000000D01*
X68196983Y-102000000D01*
X68583378Y-101923141D01*
X68947355Y-101772377D01*
X69274926Y-101553501D01*
X69553501Y-101274926D01*
X69772377Y-100947355D01*
X69794704Y-100893453D01*
X69794704Y-100996950D01*
X69817873Y-101232191D01*
X69827288Y-101263227D01*
X69792103Y-101292103D01*
X69738876Y-101356960D01*
X68253605Y-102842231D01*
X68056631Y-102803050D01*
X67623369Y-102803050D01*
X67198433Y-102887576D01*
X66798151Y-103053378D01*
X66437907Y-103294085D01*
X66131545Y-103600447D01*
X65890838Y-103960691D01*
X65725036Y-104360973D01*
X65640510Y-104785909D01*
X65640510Y-105219171D01*
X65725036Y-105644107D01*
X65890838Y-106044389D01*
X66131545Y-106404633D01*
X66437907Y-106710995D01*
X66798151Y-106951702D01*
X67198433Y-107117504D01*
X67623369Y-107202030D01*
X68056631Y-107202030D01*
X68481567Y-107117504D01*
X68881849Y-106951702D01*
X69242093Y-106710995D01*
X69548455Y-106404633D01*
X69645255Y-106259762D01*
X69705357Y-106210437D01*
X69758588Y-106145575D01*
X71704164Y-104200000D01*
X75794704Y-104200000D01*
X75794704Y-106002030D01*
X75817873Y-106237271D01*
X75886491Y-106463472D01*
X75997919Y-106671940D01*
X76147876Y-106854664D01*
X76330600Y-107004621D01*
X76539068Y-107116049D01*
X76765269Y-107184667D01*
X77000510Y-107207836D01*
X78999490Y-107207836D01*
X79234731Y-107184667D01*
X79460932Y-107116049D01*
X79669400Y-107004621D01*
X79852124Y-106854664D01*
X79976968Y-106702540D01*
X83322251Y-106702540D01*
X83090539Y-106798518D01*
X82776071Y-107008639D01*
X82508639Y-107276071D01*
X82298518Y-107590539D01*
X82153785Y-107939957D01*
X82080000Y-108310897D01*
X82080000Y-108689103D01*
X82153785Y-109060043D01*
X82298518Y-109409461D01*
X82508639Y-109723929D01*
X82776071Y-109991361D01*
X83090539Y-110201482D01*
X83439957Y-110346215D01*
X83810897Y-110420000D01*
X84189103Y-110420000D01*
X84560043Y-110346215D01*
X84909461Y-110201482D01*
X85223929Y-109991361D01*
X85491361Y-109723929D01*
X85701482Y-109409461D01*
X85846215Y-109060043D01*
X85920000Y-108689103D01*
X85920000Y-108310897D01*
X85846215Y-107939957D01*
X85751646Y-107711646D01*
X85979957Y-107806215D01*
X86350897Y-107880000D01*
X86729103Y-107880000D01*
X86984492Y-107829200D01*
X86911833Y-108068726D01*
X86880000Y-108391931D01*
X86880000Y-108688070D01*
X86911833Y-109011275D01*
X87037631Y-109425977D01*
X87241917Y-109808168D01*
X87516839Y-110143161D01*
X87851833Y-110418083D01*
X88234024Y-110622369D01*
X88648726Y-110748167D01*
X88865339Y-110769502D01*
X90738872Y-112643035D01*
X90792103Y-112707897D01*
X90856965Y-112761128D01*
X90856969Y-112761132D01*
X91050961Y-112920337D01*
X91346290Y-113078194D01*
X91666739Y-113175401D01*
X91666742Y-113175402D01*
X91916490Y-113200000D01*
X91916498Y-113200000D01*
X92000000Y-113208224D01*
X92083502Y-113200000D01*
X103716500Y-113200000D01*
X103800000Y-113208224D01*
X103883500Y-113200000D01*
X103883510Y-113200000D01*
X104133258Y-113175402D01*
X104453709Y-113078194D01*
X104749039Y-112920337D01*
X104895670Y-112800000D01*
X104943031Y-112761132D01*
X104943035Y-112761128D01*
X105007897Y-112707897D01*
X105014378Y-112700000D01*
X105244325Y-112700000D01*
X105352645Y-112772377D01*
X105716622Y-112923141D01*
X106103017Y-113000000D01*
X106496983Y-113000000D01*
X106883378Y-112923141D01*
X107247355Y-112772377D01*
X107574926Y-112553501D01*
X107853501Y-112274926D01*
X108072377Y-111947355D01*
X108223141Y-111583378D01*
X108300000Y-111196983D01*
X108300000Y-110803017D01*
X108223141Y-110416622D01*
X108072377Y-110052645D01*
X107853501Y-109725074D01*
X107574926Y-109446499D01*
X107247355Y-109227623D01*
X106883378Y-109076859D01*
X106496983Y-109000000D01*
X106103017Y-109000000D01*
X105716622Y-109076859D01*
X105352645Y-109227623D01*
X105244325Y-109300000D01*
X105004163Y-109300000D01*
X103061128Y-107356965D01*
X103007897Y-107292103D01*
X102943035Y-107238872D01*
X102943031Y-107238868D01*
X102749039Y-107079663D01*
X102453709Y-106921806D01*
X102133258Y-106824598D01*
X102010380Y-106812496D01*
X101989461Y-106798518D01*
X101640043Y-106653785D01*
X101269103Y-106580000D01*
X100890897Y-106580000D01*
X100519957Y-106653785D01*
X100291646Y-106748354D01*
X100386215Y-106520043D01*
X100460000Y-106149103D01*
X100460000Y-105770897D01*
X100386215Y-105399957D01*
X100241482Y-105050539D01*
X100031361Y-104736071D01*
X99763929Y-104468639D01*
X99449461Y-104258518D01*
X99100043Y-104113785D01*
X98729103Y-104040000D01*
X98350897Y-104040000D01*
X97979957Y-104113785D01*
X97630539Y-104258518D01*
X97316071Y-104468639D01*
X97048639Y-104736071D01*
X96838518Y-105050539D01*
X96693785Y-105399957D01*
X96620000Y-105770897D01*
X96620000Y-106149103D01*
X96693785Y-106520043D01*
X96788354Y-106748354D01*
X96560043Y-106653785D01*
X96189103Y-106580000D01*
X95810897Y-106580000D01*
X95439957Y-106653785D01*
X95090539Y-106798518D01*
X94776071Y-107008639D01*
X94508639Y-107276071D01*
X94298518Y-107590539D01*
X94153785Y-107939957D01*
X94080000Y-108310897D01*
X94080000Y-108689103D01*
X94153785Y-109060043D01*
X94298518Y-109409461D01*
X94508639Y-109723929D01*
X94584710Y-109800000D01*
X92704163Y-109800000D01*
X91278242Y-108374079D01*
X91248167Y-108068725D01*
X91122369Y-107654023D01*
X90918083Y-107271832D01*
X90643161Y-106936839D01*
X90308168Y-106661917D01*
X89925976Y-106457631D01*
X89511274Y-106331833D01*
X89080000Y-106289356D01*
X88648725Y-106331833D01*
X88409200Y-106404492D01*
X88460000Y-106149103D01*
X88460000Y-105770897D01*
X88386215Y-105399957D01*
X88241482Y-105050539D01*
X88031361Y-104736071D01*
X87763929Y-104468639D01*
X87449461Y-104258518D01*
X87199955Y-104155170D01*
X87453709Y-104078194D01*
X87749039Y-103920337D01*
X87823158Y-103859509D01*
X87943031Y-103761132D01*
X87943035Y-103761128D01*
X88007897Y-103707897D01*
X88061131Y-103643032D01*
X91255607Y-100448556D01*
X91383378Y-100423141D01*
X91747355Y-100272377D01*
X91855675Y-100200000D01*
X98295837Y-100200000D01*
X100738872Y-102643035D01*
X100792103Y-102707897D01*
X100856965Y-102761128D01*
X100856969Y-102761132D01*
X101050961Y-102920337D01*
X101346291Y-103078194D01*
X101666742Y-103175402D01*
X101916490Y-103200000D01*
X101916498Y-103200000D01*
X102000000Y-103208224D01*
X102083502Y-103200000D01*
X107598252Y-103200000D01*
X107597409Y-103201027D01*
X107485981Y-103409495D01*
X107417363Y-103635696D01*
X107394194Y-103870937D01*
X107394194Y-105470937D01*
X107417363Y-105706178D01*
X107485981Y-105932379D01*
X107597409Y-106140847D01*
X107747366Y-106323571D01*
X107930090Y-106473528D01*
X108138558Y-106584956D01*
X108364759Y-106653574D01*
X108600000Y-106676743D01*
X110200000Y-106676743D01*
X110435241Y-106653574D01*
X110661442Y-106584956D01*
X110869910Y-106473528D01*
X111052634Y-106323571D01*
X111202591Y-106140847D01*
X111274772Y-106005806D01*
X111800000Y-106005806D01*
X112035241Y-105982637D01*
X112261442Y-105914019D01*
X112469910Y-105802591D01*
X112652634Y-105652634D01*
X112802591Y-105469910D01*
X112914019Y-105261442D01*
X112982637Y-105035241D01*
X113005806Y-104800000D01*
X113005806Y-103200000D01*
X112982637Y-102964759D01*
X112951011Y-102860502D01*
X113050852Y-102778565D01*
X113183378Y-102752204D01*
X113547355Y-102601440D01*
X113655675Y-102529063D01*
X114124900Y-102529063D01*
X120400000Y-108804163D01*
X120400000Y-109256078D01*
X120478339Y-109649912D01*
X120274926Y-109446499D01*
X119947355Y-109227623D01*
X119583378Y-109076859D01*
X119196983Y-109000000D01*
X118803017Y-109000000D01*
X118416622Y-109076859D01*
X118052645Y-109227623D01*
X117725074Y-109446499D01*
X117446499Y-109725074D01*
X117227623Y-110052645D01*
X117076859Y-110416622D01*
X117000000Y-110803017D01*
X117000000Y-111196983D01*
X117076859Y-111583378D01*
X117227623Y-111947355D01*
X117446499Y-112274926D01*
X117725074Y-112553501D01*
X118052645Y-112772377D01*
X118416622Y-112923141D01*
X118803017Y-113000000D01*
X119196983Y-113000000D01*
X119583378Y-112923141D01*
X119947355Y-112772377D01*
X120274926Y-112553501D01*
X120553501Y-112274926D01*
X120772377Y-111947355D01*
X120923141Y-111583378D01*
X121000000Y-111196983D01*
X121000000Y-110803017D01*
X120967046Y-110637345D01*
X120980448Y-110657403D01*
X121342597Y-111019552D01*
X121768438Y-111304090D01*
X122241608Y-111500083D01*
X122743922Y-111600000D01*
X123256078Y-111600000D01*
X123758392Y-111500083D01*
X124231562Y-111304090D01*
X124657403Y-111019552D01*
X125019552Y-110657403D01*
X125304090Y-110231562D01*
X125500083Y-109758392D01*
X125506879Y-109724224D01*
X127200000Y-109724224D01*
X127200000Y-110275776D01*
X127307602Y-110816730D01*
X127518672Y-111326297D01*
X127825098Y-111784896D01*
X128215104Y-112174902D01*
X128673703Y-112481328D01*
X129183270Y-112692398D01*
X129724224Y-112800000D01*
X130275776Y-112800000D01*
X130816730Y-112692398D01*
X131326297Y-112481328D01*
X131784896Y-112174902D01*
X132174902Y-111784896D01*
X132481328Y-111326297D01*
X132692398Y-110816730D01*
X132800000Y-110275776D01*
X132800000Y-109724224D01*
X132692398Y-109183270D01*
X132481328Y-108673703D01*
X132174902Y-108215104D01*
X131784896Y-107825098D01*
X131326297Y-107518672D01*
X130816730Y-107307602D01*
X130275776Y-107200000D01*
X129724224Y-107200000D01*
X129183270Y-107307602D01*
X128673703Y-107518672D01*
X128215104Y-107825098D01*
X127825098Y-108215104D01*
X127518672Y-108673703D01*
X127307602Y-109183270D01*
X127200000Y-109724224D01*
X125506879Y-109724224D01*
X125600000Y-109256078D01*
X125600000Y-108743922D01*
X125500083Y-108241608D01*
X125304090Y-107768438D01*
X125019552Y-107342597D01*
X124657403Y-106980448D01*
X124231562Y-106695910D01*
X123758392Y-106499917D01*
X123256078Y-106400000D01*
X122804163Y-106400000D01*
X116604163Y-100200000D01*
X118416500Y-100200000D01*
X118500000Y-100208224D01*
X118583500Y-100200000D01*
X118583510Y-100200000D01*
X118833258Y-100175402D01*
X119153709Y-100078194D01*
X119449039Y-99920337D01*
X119643031Y-99761132D01*
X119643035Y-99761128D01*
X119707897Y-99707897D01*
X119761131Y-99643032D01*
X120544163Y-98860000D01*
X126861206Y-98860000D01*
X126927657Y-98914535D01*
X127292476Y-99109535D01*
X127688328Y-99229615D01*
X127996833Y-99260000D01*
X130003167Y-99260000D01*
X130311672Y-99229615D01*
X130707524Y-99109535D01*
X131072343Y-98914535D01*
X131392109Y-98652109D01*
X131654535Y-98332343D01*
X131849535Y-97967524D01*
X131969615Y-97571672D01*
X132010161Y-97160000D01*
X131969615Y-96748328D01*
X131849535Y-96352476D01*
X131654535Y-95987657D01*
X131392109Y-95667891D01*
X131072343Y-95405465D01*
X130707524Y-95210465D01*
X130311672Y-95090385D01*
X130003167Y-95060000D01*
X127996833Y-95060000D01*
X127688328Y-95090385D01*
X127292476Y-95210465D01*
X126927657Y-95405465D01*
X126861206Y-95460000D01*
X119923499Y-95460000D01*
X119839999Y-95451776D01*
X119756499Y-95460000D01*
X119756490Y-95460000D01*
X119506742Y-95484598D01*
X119381605Y-95522558D01*
X121124163Y-93780000D01*
X126861206Y-93780000D01*
X126927657Y-93834535D01*
X127292476Y-94029535D01*
X127688328Y-94149615D01*
X127996833Y-94180000D01*
X130003167Y-94180000D01*
X130311672Y-94149615D01*
X130707524Y-94029535D01*
X131072343Y-93834535D01*
X131392109Y-93572109D01*
X131654535Y-93252343D01*
X131849535Y-92887524D01*
X131969615Y-92491672D01*
X132010161Y-92080000D01*
X131969615Y-91668328D01*
X131849535Y-91272476D01*
X131654535Y-90907657D01*
X131392109Y-90587891D01*
X131072343Y-90325465D01*
X130707524Y-90130465D01*
X130311672Y-90010385D01*
X130003167Y-89980000D01*
X127996833Y-89980000D01*
X127688328Y-90010385D01*
X127292476Y-90130465D01*
X126927657Y-90325465D01*
X126861206Y-90380000D01*
X120503502Y-90380000D01*
X120420000Y-90371776D01*
X120336498Y-90380000D01*
X120336490Y-90380000D01*
X120086742Y-90404598D01*
X119766290Y-90501806D01*
X119470961Y-90659663D01*
X119276969Y-90818868D01*
X119276965Y-90818872D01*
X119212103Y-90872103D01*
X119158872Y-90936965D01*
X116795837Y-93300000D01*
X113237683Y-93300000D01*
X113657403Y-93019552D01*
X114019552Y-92657403D01*
X114304090Y-92231562D01*
X114500083Y-91758392D01*
X114536635Y-91574633D01*
X120011268Y-86100000D01*
X125994194Y-86100000D01*
X125994194Y-87900000D01*
X126017363Y-88135241D01*
X126085981Y-88361442D01*
X126197409Y-88569910D01*
X126347366Y-88752634D01*
X126530090Y-88902591D01*
X126738558Y-89014019D01*
X126964759Y-89082637D01*
X127200000Y-89105806D01*
X130800000Y-89105806D01*
X131035241Y-89082637D01*
X131261442Y-89014019D01*
X131469910Y-88902591D01*
X131652634Y-88752634D01*
X131802591Y-88569910D01*
X131914019Y-88361442D01*
X131982637Y-88135241D01*
X132005806Y-87900000D01*
X132005806Y-86100000D01*
X131982637Y-85864759D01*
X131914019Y-85638558D01*
X131802591Y-85430090D01*
X131652634Y-85247366D01*
X131469910Y-85097409D01*
X131261442Y-84985981D01*
X131035241Y-84917363D01*
X130800000Y-84894194D01*
X127200000Y-84894194D01*
X126964759Y-84917363D01*
X126738558Y-84985981D01*
X126530090Y-85097409D01*
X126347366Y-85247366D01*
X126197409Y-85430090D01*
X126085981Y-85638558D01*
X126017363Y-85864759D01*
X125994194Y-86100000D01*
X120011268Y-86100000D01*
X123751269Y-82360000D01*
X128891930Y-82360000D01*
X129000000Y-82370644D01*
X129108070Y-82360000D01*
X129431275Y-82328167D01*
X129655992Y-82260000D01*
X130003167Y-82260000D01*
X130311672Y-82229615D01*
X130707524Y-82109535D01*
X131072343Y-81914535D01*
X131392109Y-81652109D01*
X131654535Y-81332343D01*
X131849535Y-80967524D01*
X131969615Y-80571672D01*
X132010161Y-80160000D01*
X131969615Y-79748328D01*
X131849535Y-79352476D01*
X131654535Y-78987657D01*
X131392109Y-78667891D01*
X131200000Y-78510231D01*
X131200000Y-76729769D01*
X131392109Y-76572109D01*
X131654535Y-76252343D01*
X131849535Y-75887524D01*
X131969615Y-75491672D01*
X132010161Y-75080000D01*
X131969615Y-74668328D01*
X131849535Y-74272476D01*
X131654535Y-73907657D01*
X131392109Y-73587891D01*
X131072343Y-73325465D01*
X130707524Y-73130465D01*
X130311672Y-73010385D01*
X130003167Y-72980000D01*
X129655992Y-72980000D01*
X129431275Y-72911833D01*
X129000000Y-72869356D01*
X128568726Y-72911833D01*
X128344009Y-72980000D01*
X127996833Y-72980000D01*
X127688328Y-73010385D01*
X127292476Y-73130465D01*
X126927657Y-73325465D01*
X126607891Y-73587891D01*
X126345465Y-73907657D01*
X126150465Y-74272476D01*
X126030385Y-74668328D01*
X125989839Y-75080000D01*
X126030385Y-75491672D01*
X126150465Y-75887524D01*
X126345465Y-76252343D01*
X126607891Y-76572109D01*
X126800001Y-76729770D01*
X126800000Y-77960000D01*
X122948059Y-77960000D01*
X122839999Y-77949357D01*
X122731939Y-77960000D01*
X122731930Y-77960000D01*
X122408725Y-77991833D01*
X122052145Y-78100000D01*
X121994023Y-78117631D01*
X121611831Y-78321917D01*
X121439873Y-78463040D01*
X121276839Y-78596839D01*
X121207947Y-78680784D01*
X111425367Y-88463365D01*
X111241608Y-88499917D01*
X110768438Y-88695910D01*
X110342597Y-88980448D01*
X109980448Y-89342597D01*
X109695910Y-89768438D01*
X109499917Y-90241608D01*
X109400000Y-90743922D01*
X109400000Y-91256078D01*
X109499917Y-91758392D01*
X109695910Y-92231562D01*
X109980448Y-92657403D01*
X110342597Y-93019552D01*
X110762317Y-93300000D01*
X107555675Y-93300000D01*
X107447355Y-93227623D01*
X107083378Y-93076859D01*
X106696983Y-93000000D01*
X106303017Y-93000000D01*
X105916622Y-93076859D01*
X105552645Y-93227623D01*
X105225074Y-93446499D01*
X104946499Y-93725074D01*
X104727623Y-94052645D01*
X104576859Y-94416622D01*
X104500000Y-94803017D01*
X104500000Y-95196983D01*
X104576859Y-95583378D01*
X104727623Y-95947355D01*
X104946499Y-96274926D01*
X105225074Y-96553501D01*
X105552645Y-96772377D01*
X105619333Y-96800000D01*
X104555675Y-96800000D01*
X104447355Y-96727623D01*
X104083378Y-96576859D01*
X103696983Y-96500000D01*
X103303017Y-96500000D01*
X102916622Y-96576859D01*
X102552645Y-96727623D01*
X102225074Y-96946499D01*
X101946499Y-97225074D01*
X101727623Y-97552645D01*
X101576859Y-97916622D01*
X101500000Y-98303017D01*
X101500000Y-98595837D01*
X100261128Y-97356965D01*
X100207897Y-97292103D01*
X100143035Y-97238872D01*
X100143031Y-97238868D01*
X99949039Y-97079663D01*
X99895341Y-97050961D01*
X99653709Y-96921806D01*
X99333258Y-96824598D01*
X99083510Y-96800000D01*
X99083500Y-96800000D01*
X99000000Y-96791776D01*
X98916500Y-96800000D01*
X94680667Y-96800000D01*
X94747355Y-96772377D01*
X95074926Y-96553501D01*
X95353501Y-96274926D01*
X95572377Y-95947355D01*
X95723141Y-95583378D01*
X95800000Y-95196983D01*
X95800000Y-94803017D01*
X95723141Y-94416622D01*
X95572377Y-94052645D01*
X95500000Y-93944325D01*
X95500000Y-90904163D01*
X98304163Y-88100000D01*
X98756078Y-88100000D01*
X99258392Y-88000083D01*
X99731562Y-87804090D01*
X100157403Y-87519552D01*
X100519552Y-87157403D01*
X100804090Y-86731562D01*
X101000083Y-86258392D01*
X101100000Y-85756078D01*
X101100000Y-85243922D01*
X101000083Y-84741608D01*
X100804090Y-84268438D01*
X100519552Y-83842597D01*
X100200000Y-83523045D01*
X100200000Y-82012563D01*
X100208224Y-81929063D01*
X100200000Y-81845563D01*
X100200000Y-81845553D01*
X100175402Y-81595805D01*
X100078194Y-81275354D01*
X99938508Y-81014019D01*
X99920337Y-80980023D01*
X99761132Y-80786032D01*
X99761128Y-80786028D01*
X99707897Y-80721166D01*
X99643035Y-80667935D01*
X99119493Y-80144393D01*
X99094078Y-80016622D01*
X98943314Y-79652645D01*
X98865958Y-79536873D01*
X98846339Y-79337679D01*
X98749131Y-79017228D01*
X98591274Y-78721898D01*
X98449502Y-78549149D01*
X98423141Y-78416622D01*
X98272377Y-78052645D01*
X98053501Y-77725074D01*
X97774926Y-77446499D01*
X97447355Y-77227623D01*
X97083378Y-77076859D01*
X96696983Y-77000000D01*
X96303017Y-77000000D01*
X95916622Y-77076859D01*
X95552645Y-77227623D01*
X95527334Y-77244535D01*
X95469910Y-77197409D01*
X95334869Y-77125228D01*
X95334869Y-76600000D01*
X95311700Y-76364759D01*
X95243082Y-76138558D01*
X95131654Y-75930090D01*
X94981697Y-75747366D01*
X94798973Y-75597409D01*
X94590505Y-75485981D01*
X94364304Y-75417363D01*
X94129063Y-75394194D01*
X92529063Y-75394194D01*
X92293822Y-75417363D01*
X92067621Y-75485981D01*
X91859153Y-75597409D01*
X91676429Y-75747366D01*
X91526472Y-75930090D01*
X91415044Y-76138558D01*
X91346426Y-76364759D01*
X91323257Y-76600000D01*
X91323257Y-78200000D01*
X91346426Y-78435241D01*
X91415044Y-78661442D01*
X91526472Y-78869910D01*
X91676429Y-79052634D01*
X91859153Y-79202591D01*
X91994194Y-79274772D01*
X91994194Y-79800000D01*
X92017363Y-80035241D01*
X92085981Y-80261442D01*
X92197409Y-80469910D01*
X92347366Y-80652634D01*
X92530090Y-80802591D01*
X92738558Y-80914019D01*
X92964759Y-80982637D01*
X93200000Y-81005806D01*
X94800000Y-81005806D01*
X95035241Y-80982637D01*
X95198043Y-80933251D01*
X95247796Y-81183378D01*
X95398560Y-81547355D01*
X95617436Y-81874926D01*
X95896011Y-82153501D01*
X96223582Y-82372377D01*
X96587559Y-82523141D01*
X96715330Y-82548556D01*
X96800001Y-82633227D01*
X96800001Y-83523044D01*
X96480448Y-83842597D01*
X96195910Y-84268438D01*
X95999917Y-84741608D01*
X95900000Y-85243922D01*
X95900000Y-85695837D01*
X92656961Y-88938876D01*
X92592104Y-88992103D01*
X92538877Y-89056960D01*
X92538868Y-89056969D01*
X92379663Y-89250961D01*
X92221807Y-89546291D01*
X92124599Y-89866742D01*
X92091776Y-90200000D01*
X92100001Y-90283510D01*
X92100000Y-93300000D01*
X92055675Y-93300000D01*
X91947355Y-93227623D01*
X91583378Y-93076859D01*
X91196983Y-93000000D01*
X90803017Y-93000000D01*
X90416622Y-93076859D01*
X90052645Y-93227623D01*
X89944325Y-93300000D01*
X87240962Y-93300000D01*
X87157460Y-93291776D01*
X87073958Y-93300000D01*
X87073950Y-93300000D01*
X86824202Y-93324598D01*
X86503751Y-93421806D01*
X86457554Y-93446499D01*
X86208421Y-93579663D01*
X86014429Y-93738868D01*
X86014425Y-93738872D01*
X85949563Y-93792103D01*
X85896332Y-93856965D01*
X81955327Y-97797970D01*
X81943369Y-97797970D01*
X81518433Y-97882496D01*
X81118151Y-98048298D01*
X80757907Y-98289005D01*
X80451545Y-98595367D01*
X80210838Y-98955611D01*
X80045036Y-99355893D01*
X79960510Y-99780829D01*
X79960510Y-100214091D01*
X80045036Y-100639027D01*
X80111713Y-100800000D01*
X74205296Y-100800000D01*
X74205296Y-98997970D01*
X74182127Y-98762729D01*
X74113509Y-98536528D01*
X74027865Y-98376298D01*
X75704163Y-96700000D01*
X77244325Y-96700000D01*
X77352645Y-96772377D01*
X77716622Y-96923141D01*
X78103017Y-97000000D01*
X78496983Y-97000000D01*
X78883378Y-96923141D01*
X79247355Y-96772377D01*
X79574926Y-96553501D01*
X79853501Y-96274926D01*
X80072377Y-95947355D01*
X80223141Y-95583378D01*
X80300000Y-95196983D01*
X80300000Y-94803017D01*
X80223141Y-94416622D01*
X80072377Y-94052645D01*
X79853501Y-93725074D01*
X79574926Y-93446499D01*
X79296679Y-93260580D01*
X79657403Y-93019552D01*
X80019552Y-92657403D01*
X80304090Y-92231562D01*
X80500083Y-91758392D01*
X80600000Y-91256078D01*
X80600000Y-90743922D01*
X80500083Y-90241608D01*
X80304090Y-89768438D01*
X80200000Y-89612656D01*
X80200000Y-80450000D01*
X82641940Y-80450000D01*
X82750000Y-80460643D01*
X82858060Y-80450000D01*
X82858070Y-80450000D01*
X83181275Y-80418167D01*
X83595977Y-80292369D01*
X83978168Y-80088083D01*
X84313161Y-79813161D01*
X84382057Y-79729211D01*
X88911270Y-75200000D01*
X108891940Y-75200000D01*
X109000000Y-75210643D01*
X109108060Y-75200000D01*
X109108070Y-75200000D01*
X109431275Y-75168167D01*
X109845977Y-75042369D01*
X110228168Y-74838083D01*
X110563161Y-74563161D01*
X110632057Y-74479211D01*
X116011268Y-69100000D01*
X125994194Y-69100000D01*
X125994194Y-70900000D01*
X126017363Y-71135241D01*
X126085981Y-71361442D01*
X126197409Y-71569910D01*
X126347366Y-71752634D01*
X126530090Y-71902591D01*
X126738558Y-72014019D01*
X126964759Y-72082637D01*
X127200000Y-72105806D01*
X130800000Y-72105806D01*
X131035241Y-72082637D01*
X131261442Y-72014019D01*
X131469910Y-71902591D01*
X131652634Y-71752634D01*
X131802591Y-71569910D01*
X131914019Y-71361442D01*
X131982637Y-71135241D01*
X132005806Y-70900000D01*
X132005806Y-69100000D01*
X131982637Y-68864759D01*
X131914019Y-68638558D01*
X131802591Y-68430090D01*
X131652634Y-68247366D01*
X131469910Y-68097409D01*
X131261442Y-67985981D01*
X131035241Y-67917363D01*
X130800000Y-67894194D01*
X127200000Y-67894194D01*
X126964759Y-67917363D01*
X126738558Y-67985981D01*
X126530090Y-68097409D01*
X126347366Y-68247366D01*
X126197409Y-68430090D01*
X126085981Y-68638558D01*
X126017363Y-68864759D01*
X125994194Y-69100000D01*
X116011268Y-69100000D01*
X124831270Y-60280000D01*
X126800001Y-60280000D01*
X126800000Y-61510230D01*
X126607891Y-61667891D01*
X126345465Y-61987657D01*
X126150465Y-62352476D01*
X126030385Y-62748328D01*
X125989839Y-63160000D01*
X126030385Y-63571672D01*
X126150465Y-63967524D01*
X126345465Y-64332343D01*
X126607891Y-64652109D01*
X126927657Y-64914535D01*
X127292476Y-65109535D01*
X127688328Y-65229615D01*
X127996833Y-65260000D01*
X128344008Y-65260000D01*
X128568725Y-65328167D01*
X129000000Y-65370644D01*
X129431274Y-65328167D01*
X129655991Y-65260000D01*
X130003167Y-65260000D01*
X130311672Y-65229615D01*
X130707524Y-65109535D01*
X131072343Y-64914535D01*
X131392109Y-64652109D01*
X131654535Y-64332343D01*
X131849535Y-63967524D01*
X131969615Y-63571672D01*
X132010161Y-63160000D01*
X131969615Y-62748328D01*
X131849535Y-62352476D01*
X131654535Y-61987657D01*
X131392109Y-61667891D01*
X131200000Y-61510231D01*
X131200000Y-59729769D01*
X131392109Y-59572109D01*
X131654535Y-59252343D01*
X131849535Y-58887524D01*
X131969615Y-58491672D01*
X132010161Y-58080000D01*
X131969615Y-57668328D01*
X131849535Y-57272476D01*
X131654535Y-56907657D01*
X131392109Y-56587891D01*
X131072343Y-56325465D01*
X130707524Y-56130465D01*
X130311672Y-56010385D01*
X130003167Y-55980000D01*
X129655992Y-55980000D01*
X129431275Y-55911833D01*
X129108070Y-55880000D01*
X129000000Y-55869356D01*
X128891930Y-55880000D01*
X124028059Y-55880000D01*
X123919999Y-55869357D01*
X123811939Y-55880000D01*
X123811930Y-55880000D01*
X123488725Y-55911833D01*
X123074023Y-56037631D01*
X122691832Y-56241917D01*
X122691830Y-56241918D01*
X122691831Y-56241918D01*
X122440781Y-56447949D01*
X122440778Y-56447952D01*
X122356839Y-56516839D01*
X122287952Y-56600778D01*
X108088732Y-70800000D01*
X97004460Y-70800000D01*
X97126853Y-70616826D01*
X97307770Y-70180054D01*
X97400000Y-69716379D01*
X97400000Y-69243621D01*
X97307770Y-68779946D01*
X97200000Y-68519766D01*
X97200000Y-56911268D01*
X98911270Y-55200000D01*
X128891930Y-55200000D01*
X129000000Y-55210644D01*
X129108070Y-55200000D01*
X129431275Y-55168167D01*
X129636852Y-55105806D01*
X130800000Y-55105806D01*
X131035241Y-55082637D01*
X131261442Y-55014019D01*
X131469910Y-54902591D01*
X131652634Y-54752634D01*
X131802591Y-54569910D01*
X131914019Y-54361442D01*
X131982637Y-54135241D01*
X132005806Y-53900000D01*
X132005806Y-52100000D01*
X131982637Y-51864759D01*
X131914019Y-51638558D01*
X131802591Y-51430090D01*
X131652634Y-51247366D01*
X131469910Y-51097409D01*
X131261442Y-50985981D01*
X131200000Y-50967343D01*
X131200000Y-48387344D01*
X131304090Y-48231562D01*
X131500083Y-47758392D01*
X131600000Y-47256078D01*
X131600000Y-46743922D01*
X131500083Y-46241608D01*
X131304090Y-45768438D01*
X131019552Y-45342597D01*
X130657403Y-44980448D01*
X130231562Y-44695910D01*
X129758392Y-44499917D01*
X129256078Y-44400000D01*
X128743922Y-44400000D01*
X128241608Y-44499917D01*
X127768438Y-44695910D01*
X127342597Y-44980448D01*
X126980448Y-45342597D01*
X126695910Y-45768438D01*
X126499917Y-46241608D01*
X126400000Y-46743922D01*
X126400000Y-47256078D01*
X126499917Y-47758392D01*
X126695910Y-48231562D01*
X126800001Y-48387345D01*
X126800000Y-50800000D01*
X98108062Y-50800000D01*
X98000000Y-50789357D01*
X97891938Y-50800000D01*
X97891930Y-50800000D01*
X97568725Y-50831833D01*
X97154023Y-50957631D01*
X96771832Y-51161917D01*
X96520782Y-51367948D01*
X96520778Y-51367952D01*
X96436839Y-51436839D01*
X96367951Y-51520779D01*
X95000000Y-52888731D01*
X80874890Y-38763621D01*
X92600000Y-38763621D01*
X92600000Y-39236379D01*
X92692230Y-39700054D01*
X92873147Y-40136826D01*
X93135798Y-40529911D01*
X93470089Y-40864202D01*
X93863174Y-41126853D01*
X94299946Y-41307770D01*
X94763621Y-41400000D01*
X95236379Y-41400000D01*
X95700054Y-41307770D01*
X95960234Y-41200000D01*
X109704171Y-41200000D01*
X109747366Y-41252634D01*
X109930090Y-41402591D01*
X110138558Y-41514019D01*
X110364759Y-41582637D01*
X110600000Y-41605806D01*
X113400000Y-41605806D01*
X113635241Y-41582637D01*
X113861442Y-41514019D01*
X114069910Y-41402591D01*
X114252634Y-41252634D01*
X114295829Y-41200000D01*
X118612656Y-41200000D01*
X118768438Y-41304090D01*
X119241608Y-41500083D01*
X119743922Y-41600000D01*
X120256078Y-41600000D01*
X120758392Y-41500083D01*
X121231562Y-41304090D01*
X121657403Y-41019552D01*
X122019552Y-40657403D01*
X122304090Y-40231562D01*
X122500083Y-39758392D01*
X122506879Y-39724224D01*
X127200000Y-39724224D01*
X127200000Y-40275776D01*
X127307602Y-40816730D01*
X127518672Y-41326297D01*
X127825098Y-41784896D01*
X128215104Y-42174902D01*
X128673703Y-42481328D01*
X129183270Y-42692398D01*
X129724224Y-42800000D01*
X130275776Y-42800000D01*
X130816730Y-42692398D01*
X131326297Y-42481328D01*
X131784896Y-42174902D01*
X132174902Y-41784896D01*
X132481328Y-41326297D01*
X132692398Y-40816730D01*
X132800000Y-40275776D01*
X132800000Y-39724224D01*
X132692398Y-39183270D01*
X132481328Y-38673703D01*
X132174902Y-38215104D01*
X131784896Y-37825098D01*
X131326297Y-37518672D01*
X130816730Y-37307602D01*
X130275776Y-37200000D01*
X129724224Y-37200000D01*
X129183270Y-37307602D01*
X128673703Y-37518672D01*
X128215104Y-37825098D01*
X127825098Y-38215104D01*
X127518672Y-38673703D01*
X127307602Y-39183270D01*
X127200000Y-39724224D01*
X122506879Y-39724224D01*
X122600000Y-39256078D01*
X122600000Y-38743922D01*
X122500083Y-38241608D01*
X122304090Y-37768438D01*
X122019552Y-37342597D01*
X121657403Y-36980448D01*
X121231562Y-36695910D01*
X120758392Y-36499917D01*
X120256078Y-36400000D01*
X119743922Y-36400000D01*
X119241608Y-36499917D01*
X118768438Y-36695910D01*
X118612656Y-36800000D01*
X114295829Y-36800000D01*
X114252634Y-36747366D01*
X114069910Y-36597409D01*
X113861442Y-36485981D01*
X113635241Y-36417363D01*
X113400000Y-36394194D01*
X110600000Y-36394194D01*
X110364759Y-36417363D01*
X110138558Y-36485981D01*
X109930090Y-36597409D01*
X109747366Y-36747366D01*
X109704171Y-36800000D01*
X95960234Y-36800000D01*
X95700054Y-36692230D01*
X95236379Y-36600000D01*
X94763621Y-36600000D01*
X94299946Y-36692230D01*
X93863174Y-36873147D01*
X93470089Y-37135798D01*
X93135798Y-37470089D01*
X92873147Y-37863174D01*
X92692230Y-38299946D01*
X92600000Y-38763621D01*
X80874890Y-38763621D01*
X80605806Y-38494538D01*
X80605806Y-37600000D01*
X80582637Y-37364759D01*
X80514019Y-37138558D01*
X80402591Y-36930090D01*
X80252634Y-36747366D01*
X80069910Y-36597409D01*
X79861442Y-36485981D01*
X79635241Y-36417363D01*
X79400000Y-36394194D01*
X76600000Y-36394194D01*
X76364759Y-36417363D01*
X76138558Y-36485981D01*
X75930090Y-36597409D01*
X75747366Y-36747366D01*
X75704171Y-36800000D01*
X68108059Y-36800000D01*
X67999999Y-36789357D01*
X67891939Y-36800000D01*
X67891930Y-36800000D01*
X67568725Y-36831833D01*
X67244814Y-36930090D01*
X67154023Y-36957631D01*
X66771831Y-37161917D01*
X66594315Y-37307602D01*
X66436839Y-37436839D01*
X66367947Y-37520784D01*
X60023325Y-43865407D01*
X59939380Y-43934299D01*
X59870489Y-44018243D01*
X59664457Y-44269292D01*
X59460171Y-44651484D01*
X59334374Y-45066185D01*
X59291897Y-45497460D01*
X59302541Y-45605530D01*
X59302540Y-48066723D01*
X59039309Y-47890838D01*
X58639027Y-47725036D01*
X58214091Y-47640510D01*
X57780829Y-47640510D01*
X57355893Y-47725036D01*
X56955611Y-47890838D01*
X56595367Y-48131545D01*
X56289005Y-48437907D01*
X56247460Y-48500084D01*
X56205915Y-48437907D01*
X56132813Y-48364805D01*
X56060621Y-48276839D01*
X55972655Y-48204647D01*
X55899553Y-48131545D01*
X55813595Y-48074110D01*
X55725628Y-48001917D01*
X55625265Y-47948272D01*
X55539309Y-47890838D01*
X55443802Y-47851278D01*
X55343436Y-47797631D01*
X55234532Y-47764596D01*
X55139027Y-47725036D01*
X55037635Y-47704868D01*
X54928734Y-47671833D01*
X54815486Y-47660679D01*
X54714091Y-47640510D01*
X54610708Y-47640510D01*
X54497460Y-47629356D01*
X54384212Y-47640510D01*
X54280829Y-47640510D01*
X54179434Y-47660679D01*
X54066185Y-47671833D01*
X53957282Y-47704868D01*
X53855893Y-47725036D01*
X53760390Y-47764594D01*
X53651483Y-47797631D01*
X53551115Y-47851279D01*
X53455611Y-47890838D01*
X53369656Y-47948271D01*
X53269292Y-48001917D01*
X53181325Y-48074110D01*
X53095367Y-48131545D01*
X53022265Y-48204647D01*
X52934299Y-48276839D01*
X52862107Y-48364805D01*
X52789005Y-48437907D01*
X52731570Y-48523865D01*
X52659377Y-48611832D01*
X52605732Y-48712195D01*
X52548298Y-48798151D01*
X52508738Y-48893658D01*
X52455091Y-48994024D01*
X52422056Y-49102928D01*
X52382496Y-49198433D01*
X52362328Y-49299825D01*
X52329293Y-49408726D01*
X52318139Y-49521973D01*
X52297970Y-49623369D01*
X52297970Y-49726753D01*
X52297460Y-49731931D01*
X52297460Y-50389400D01*
X52286817Y-50497460D01*
X51275000Y-50497460D01*
X51275000Y-43090825D01*
X52050597Y-43090825D01*
X52364643Y-43797388D01*
X53156115Y-44238554D01*
X54018446Y-44516836D01*
X54918497Y-44621538D01*
X55821681Y-44548637D01*
X56693287Y-44300935D01*
X57499822Y-43887949D01*
X57635357Y-43797388D01*
X57949403Y-43090825D01*
X55000000Y-40141421D01*
X52050597Y-43090825D01*
X51275000Y-43090825D01*
X51275000Y-42667531D01*
X51909175Y-42949403D01*
X54858579Y-40000000D01*
X55141421Y-40000000D01*
X58090825Y-42949403D01*
X58797388Y-42635357D01*
X59238554Y-41843885D01*
X59516836Y-40981554D01*
X59621538Y-40081503D01*
X59548637Y-39178319D01*
X59300935Y-38306713D01*
X58887949Y-37500178D01*
X58797388Y-37364643D01*
X58090825Y-37050597D01*
X55141421Y-40000000D01*
X54858579Y-40000000D01*
X51909175Y-37050597D01*
X51275000Y-37332469D01*
X51275000Y-36275000D01*
X52332469Y-36275000D01*
X52050597Y-36909175D01*
G37*
X52050597Y-36909175D02*
X55000000Y-39858579D01*
X57949403Y-36909175D01*
X57667531Y-36275000D01*
X133725000Y-36275000D01*
X133725001Y-113725000D01*
X51275000Y-113725000D01*
X51275000Y-109724224D01*
X52200000Y-109724224D01*
X52200000Y-110275776D01*
X52307602Y-110816730D01*
X52518672Y-111326297D01*
X52825098Y-111784896D01*
X53215104Y-112174902D01*
X53673703Y-112481328D01*
X54183270Y-112692398D01*
X54724224Y-112800000D01*
X55275776Y-112800000D01*
X55816730Y-112692398D01*
X56326297Y-112481328D01*
X56784896Y-112174902D01*
X57174902Y-111784896D01*
X57481328Y-111326297D01*
X57692398Y-110816730D01*
X57800000Y-110275776D01*
X57800000Y-109803017D01*
X64000000Y-109803017D01*
X64000000Y-110196983D01*
X64076859Y-110583378D01*
X64227623Y-110947355D01*
X64446499Y-111274926D01*
X64725074Y-111553501D01*
X65052645Y-111772377D01*
X65416622Y-111923141D01*
X65803017Y-112000000D01*
X66196983Y-112000000D01*
X66583378Y-111923141D01*
X66947355Y-111772377D01*
X67274926Y-111553501D01*
X67553501Y-111274926D01*
X67772377Y-110947355D01*
X67923141Y-110583378D01*
X68000000Y-110196983D01*
X68000000Y-109803017D01*
X76700000Y-109803017D01*
X76700000Y-110196983D01*
X76776859Y-110583378D01*
X76927623Y-110947355D01*
X77146499Y-111274926D01*
X77425074Y-111553501D01*
X77752645Y-111772377D01*
X78116622Y-111923141D01*
X78503017Y-112000000D01*
X78896983Y-112000000D01*
X79283378Y-111923141D01*
X79647355Y-111772377D01*
X79974926Y-111553501D01*
X80253501Y-111274926D01*
X80472377Y-110947355D01*
X80623141Y-110583378D01*
X80700000Y-110196983D01*
X80700000Y-109803017D01*
X80623141Y-109416622D01*
X80472377Y-109052645D01*
X80253501Y-108725074D01*
X79974926Y-108446499D01*
X79647355Y-108227623D01*
X79283378Y-108076859D01*
X78896983Y-108000000D01*
X78503017Y-108000000D01*
X78116622Y-108076859D01*
X77752645Y-108227623D01*
X77425074Y-108446499D01*
X77146499Y-108725074D01*
X76927623Y-109052645D01*
X76776859Y-109416622D01*
X76700000Y-109803017D01*
X68000000Y-109803017D01*
X67923141Y-109416622D01*
X67772377Y-109052645D01*
X67553501Y-108725074D01*
X67274926Y-108446499D01*
X66947355Y-108227623D01*
X66583378Y-108076859D01*
X66196983Y-108000000D01*
X65803017Y-108000000D01*
X65416622Y-108076859D01*
X65052645Y-108227623D01*
X64725074Y-108446499D01*
X64446499Y-108725074D01*
X64227623Y-109052645D01*
X64076859Y-109416622D01*
X64000000Y-109803017D01*
X57800000Y-109803017D01*
X57800000Y-109724224D01*
X57692398Y-109183270D01*
X57481328Y-108673703D01*
X57174902Y-108215104D01*
X56784896Y-107825098D01*
X56326297Y-107518672D01*
X55816730Y-107307602D01*
X55275776Y-107200000D01*
X54724224Y-107200000D01*
X54183270Y-107307602D01*
X53673703Y-107518672D01*
X53215104Y-107825098D01*
X52825098Y-108215104D01*
X52518672Y-108673703D01*
X52307602Y-109183270D01*
X52200000Y-109724224D01*
X51275000Y-109724224D01*
X51275000Y-99803017D01*
X53300000Y-99803017D01*
X53300000Y-100196983D01*
X53376859Y-100583378D01*
X53527623Y-100947355D01*
X53746499Y-101274926D01*
X54025074Y-101553501D01*
X54352645Y-101772377D01*
X54716622Y-101923141D01*
X55103017Y-102000000D01*
X55496983Y-102000000D01*
X55883378Y-101923141D01*
X56247355Y-101772377D01*
X56574926Y-101553501D01*
X56853501Y-101274926D01*
X57072377Y-100947355D01*
X57223141Y-100583378D01*
X57248556Y-100455607D01*
X60443035Y-97261128D01*
X60507897Y-97207897D01*
X60613136Y-97079664D01*
X60720336Y-96949040D01*
X60720337Y-96949039D01*
X60878194Y-96653709D01*
X60975402Y-96333258D01*
X61000000Y-96083510D01*
X61000000Y-96083501D01*
X61003214Y-96050864D01*
X61072377Y-95947355D01*
X61223141Y-95583378D01*
X61248556Y-95455607D01*
X65313972Y-91390191D01*
X65378834Y-91336960D01*
X65445213Y-91256078D01*
X65591273Y-91078103D01*
X65633020Y-91000000D01*
X65749131Y-90782772D01*
X65846339Y-90462321D01*
X65870937Y-90212573D01*
X65870937Y-90212564D01*
X65879161Y-90129064D01*
X65870937Y-90045564D01*
X65870937Y-89655675D01*
X65943314Y-89547355D01*
X66094078Y-89183378D01*
X66170937Y-88796983D01*
X66170937Y-88403017D01*
X66094078Y-88016622D01*
X65943314Y-87652645D01*
X65724438Y-87325074D01*
X65500000Y-87100636D01*
X65500000Y-86803017D01*
X65423141Y-86416622D01*
X65272377Y-86052645D01*
X65200000Y-85944325D01*
X65200000Y-81055675D01*
X65272377Y-80947355D01*
X65423141Y-80583378D01*
X65500000Y-80196983D01*
X65500000Y-79803017D01*
X65423141Y-79416622D01*
X65272377Y-79052645D01*
X65053501Y-78725074D01*
X64774926Y-78446499D01*
X64447355Y-78227623D01*
X64083378Y-78076859D01*
X63696983Y-78000000D01*
X63303017Y-78000000D01*
X62916622Y-78076859D01*
X62552645Y-78227623D01*
X62225074Y-78446499D01*
X61946499Y-78725074D01*
X61727623Y-79052645D01*
X61576859Y-79416622D01*
X61500000Y-79803017D01*
X61500000Y-80196983D01*
X61576859Y-80583378D01*
X61727623Y-80947355D01*
X61800000Y-81055675D01*
X61800001Y-83598252D01*
X61798973Y-83597409D01*
X61590505Y-83485981D01*
X61364304Y-83417363D01*
X61129063Y-83394194D01*
X59529063Y-83394194D01*
X59293822Y-83417363D01*
X59067621Y-83485981D01*
X58859153Y-83597409D01*
X58676429Y-83747366D01*
X58526472Y-83930090D01*
X58415044Y-84138558D01*
X58346426Y-84364759D01*
X58323257Y-84600000D01*
X58323257Y-86200000D01*
X58346426Y-86435241D01*
X58415044Y-86661442D01*
X58526472Y-86869910D01*
X58676429Y-87052634D01*
X58859153Y-87202591D01*
X58994194Y-87274772D01*
X58994194Y-87800000D01*
X59017363Y-88035241D01*
X59085981Y-88261442D01*
X59197409Y-88469910D01*
X59347366Y-88652634D01*
X59530090Y-88802591D01*
X59738558Y-88914019D01*
X59964759Y-88982637D01*
X60200000Y-89005806D01*
X61800000Y-89005806D01*
X62035241Y-88982637D01*
X62139498Y-88951011D01*
X62221435Y-89050852D01*
X62247796Y-89183378D01*
X62383893Y-89511944D01*
X58844393Y-93051444D01*
X58716622Y-93076859D01*
X58352645Y-93227623D01*
X58025074Y-93446499D01*
X57746499Y-93725074D01*
X57527623Y-94052645D01*
X57376859Y-94416622D01*
X57300000Y-94803017D01*
X57300000Y-95196983D01*
X57366174Y-95529663D01*
X54844393Y-98051444D01*
X54716622Y-98076859D01*
X54352645Y-98227623D01*
X54025074Y-98446499D01*
X53746499Y-98725074D01*
X53527623Y-99052645D01*
X53376859Y-99416622D01*
X53300000Y-99803017D01*
X51275000Y-99803017D01*
X51275000Y-78100000D01*
X52994194Y-78100000D01*
X52994194Y-79900000D01*
X53017363Y-80135241D01*
X53085981Y-80361442D01*
X53197409Y-80569910D01*
X53347366Y-80752634D01*
X53530090Y-80902591D01*
X53738558Y-81014019D01*
X53964759Y-81082637D01*
X54200000Y-81105806D01*
X57800000Y-81105806D01*
X58035241Y-81082637D01*
X58261442Y-81014019D01*
X58469910Y-80902591D01*
X58652634Y-80752634D01*
X58802591Y-80569910D01*
X58914019Y-80361442D01*
X58982637Y-80135241D01*
X59005806Y-79900000D01*
X59005806Y-78100000D01*
X58982637Y-77864759D01*
X58914019Y-77638558D01*
X58802591Y-77430090D01*
X58652634Y-77247366D01*
X58469910Y-77097409D01*
X58261442Y-76985981D01*
X58035241Y-76917363D01*
X57800000Y-76894194D01*
X54200000Y-76894194D01*
X53964759Y-76917363D01*
X53738558Y-76985981D01*
X53530090Y-77097409D01*
X53347366Y-77247366D01*
X53197409Y-77430090D01*
X53085981Y-77638558D01*
X53017363Y-77864759D01*
X52994194Y-78100000D01*
X51275000Y-78100000D01*
X51275000Y-50497460D01*
X52286817Y-50497460D01*
X52297460Y-50605520D01*
X52297460Y-50605530D01*
X52329293Y-50928735D01*
X52455091Y-51343437D01*
X52659377Y-51725628D01*
X52934300Y-52060621D01*
X53018245Y-52129513D01*
X57367947Y-56479216D01*
X57436839Y-56563161D01*
X57771832Y-56838083D01*
X58154023Y-57042369D01*
X58568725Y-57168167D01*
X58891930Y-57200000D01*
X58891939Y-57200000D01*
X58935569Y-57204297D01*
X60149824Y-58418552D01*
X60100447Y-58451545D01*
X60076817Y-58475175D01*
X59999541Y-58330600D01*
X59849584Y-58147876D01*
X59666860Y-57997919D01*
X59458392Y-57886491D01*
X59232191Y-57817873D01*
X58996950Y-57794704D01*
X56997970Y-57794704D01*
X56762729Y-57817873D01*
X56536528Y-57886491D01*
X56328060Y-57997919D01*
X56247460Y-58064065D01*
X56166860Y-57997919D01*
X55958392Y-57886491D01*
X55732191Y-57817873D01*
X55496950Y-57794704D01*
X54551759Y-57794704D01*
X54497460Y-57789356D01*
X54443161Y-57794704D01*
X53497970Y-57794704D01*
X53262729Y-57817873D01*
X53036528Y-57886491D01*
X52828060Y-57997919D01*
X52645336Y-58147876D01*
X52495379Y-58330600D01*
X52383951Y-58539068D01*
X52315333Y-58765269D01*
X52292164Y-59000510D01*
X52292164Y-60999490D01*
X52297460Y-61053263D01*
X52297461Y-67229390D01*
X52286817Y-67337460D01*
X52329294Y-67768735D01*
X52455091Y-68183436D01*
X52659377Y-68565628D01*
X52719230Y-68638558D01*
X52934300Y-68900621D01*
X53001219Y-68955540D01*
X53030385Y-69251672D01*
X53150465Y-69647524D01*
X53345465Y-70012343D01*
X53607891Y-70332109D01*
X53927657Y-70594535D01*
X54292476Y-70789535D01*
X54688328Y-70909615D01*
X54996833Y-70940000D01*
X55344010Y-70940000D01*
X55568724Y-71008166D01*
X55999999Y-71050643D01*
X56431274Y-71008166D01*
X56655988Y-70940000D01*
X57003167Y-70940000D01*
X57311672Y-70909615D01*
X57707524Y-70789535D01*
X58072343Y-70594535D01*
X58392109Y-70332109D01*
X58654535Y-70012343D01*
X58849535Y-69647524D01*
X58969615Y-69251672D01*
X59010161Y-68840000D01*
X58969615Y-68428328D01*
X58849535Y-68032476D01*
X58654535Y-67667657D01*
X58392109Y-67347891D01*
X58072343Y-67085465D01*
X57707524Y-66890465D01*
X57311672Y-66770385D01*
X57012154Y-66740885D01*
X56697460Y-66426191D01*
X56697460Y-62162328D01*
X56762729Y-62182127D01*
X56997970Y-62205296D01*
X58996950Y-62205296D01*
X59232191Y-62182127D01*
X59458392Y-62113509D01*
X59666860Y-62002081D01*
X59849584Y-61852124D01*
X59955300Y-61723308D01*
X60100447Y-61868455D01*
X60460691Y-62109162D01*
X60860973Y-62274964D01*
X61285909Y-62359490D01*
X61719171Y-62359490D01*
X62144107Y-62274964D01*
X62544389Y-62109162D01*
X62802540Y-61936671D01*
X62802541Y-64886190D01*
X61867949Y-65820783D01*
X61661917Y-66071832D01*
X61457631Y-66454024D01*
X61331834Y-66868725D01*
X61289357Y-67300000D01*
X61331834Y-67731275D01*
X61457631Y-68145976D01*
X61661917Y-68528168D01*
X61936839Y-68863161D01*
X62271832Y-69138083D01*
X62654024Y-69342369D01*
X63068725Y-69468166D01*
X63500000Y-69510643D01*
X63931275Y-69468166D01*
X64345976Y-69342369D01*
X64728168Y-69138083D01*
X64979217Y-68932051D01*
X66481761Y-67429509D01*
X66565701Y-67360621D01*
X66840623Y-67025628D01*
X67044909Y-66643437D01*
X67170707Y-66228735D01*
X67202540Y-65905530D01*
X67202540Y-65905521D01*
X67213183Y-65797461D01*
X67202540Y-65689401D01*
X67202540Y-60268060D01*
X67213183Y-60160000D01*
X67202540Y-60051940D01*
X67202540Y-60051930D01*
X67202030Y-60046752D01*
X67202030Y-59943369D01*
X67181861Y-59841974D01*
X67170707Y-59728725D01*
X67137672Y-59619822D01*
X67117504Y-59518433D01*
X67077946Y-59422930D01*
X67044909Y-59314023D01*
X67011940Y-59252343D01*
X66991260Y-59213654D01*
X66951702Y-59118151D01*
X66894271Y-59032199D01*
X66840623Y-58931831D01*
X66768428Y-58843862D01*
X66710995Y-58757907D01*
X66637891Y-58684803D01*
X66634591Y-58680782D01*
X66565701Y-58596839D01*
X66481756Y-58527947D01*
X61474597Y-53520789D01*
X61405701Y-53436839D01*
X61070708Y-53161917D01*
X60688517Y-52957631D01*
X60273815Y-52831833D01*
X59950610Y-52800000D01*
X59950600Y-52800000D01*
X59906972Y-52795703D01*
X58941107Y-51829838D01*
X59039309Y-51789162D01*
X59399553Y-51548455D01*
X59423183Y-51524825D01*
X59500459Y-51669400D01*
X59650416Y-51852124D01*
X59833140Y-52002081D01*
X60041608Y-52113509D01*
X60267809Y-52182127D01*
X60503050Y-52205296D01*
X61448241Y-52205296D01*
X61502540Y-52210644D01*
X61556839Y-52205296D01*
X62502030Y-52205296D01*
X62737271Y-52182127D01*
X62963472Y-52113509D01*
X63171940Y-52002081D01*
X63252540Y-51935935D01*
X63333140Y-52002081D01*
X63541608Y-52113509D01*
X63767809Y-52182127D01*
X64003050Y-52205296D01*
X66002030Y-52205296D01*
X66237271Y-52182127D01*
X66463472Y-52113509D01*
X66671940Y-52002081D01*
X66854664Y-51852124D01*
X67004621Y-51669400D01*
X67116049Y-51460932D01*
X67184667Y-51234731D01*
X67207836Y-50999490D01*
X67207836Y-49000510D01*
X67184667Y-48765269D01*
X67116049Y-48539068D01*
X67004621Y-48330600D01*
X66854664Y-48147876D01*
X66671940Y-47997919D01*
X66463472Y-47886491D01*
X66237271Y-47817873D01*
X66002030Y-47794704D01*
X64003050Y-47794704D01*
X63767809Y-47817873D01*
X63702540Y-47837672D01*
X63702540Y-46408728D01*
X68911269Y-41200000D01*
X75704171Y-41200000D01*
X75747366Y-41252634D01*
X75930090Y-41402591D01*
X76138558Y-41514019D01*
X76364759Y-41582637D01*
X76600000Y-41605806D01*
X77494538Y-41605806D01*
X92800001Y-56911271D01*
X92800000Y-68519766D01*
X92692230Y-68779946D01*
X92600000Y-69243621D01*
X92600000Y-69716379D01*
X92692230Y-70180054D01*
X92873147Y-70616826D01*
X92995540Y-70800000D01*
X88108059Y-70800000D01*
X87999999Y-70789357D01*
X87891939Y-70800000D01*
X87891930Y-70800000D01*
X87568725Y-70831833D01*
X87154023Y-70957631D01*
X86771832Y-71161917D01*
X86771830Y-71161918D01*
X86771831Y-71161918D01*
X86520781Y-71367949D01*
X86520778Y-71367952D01*
X86436839Y-71436839D01*
X86367951Y-71520779D01*
X81838732Y-76050000D01*
X78661270Y-76050000D01*
X75052057Y-72440789D01*
X74983161Y-72356839D01*
X74648168Y-72081917D01*
X74265977Y-71877631D01*
X73851275Y-71751833D01*
X73528070Y-71720000D01*
X73528060Y-71720000D01*
X73420000Y-71709357D01*
X73311940Y-71720000D01*
X55891930Y-71720000D01*
X55568725Y-71751833D01*
X55344008Y-71820000D01*
X54996833Y-71820000D01*
X54688328Y-71850385D01*
X54292476Y-71970465D01*
X53927657Y-72165465D01*
X53607891Y-72427891D01*
X53345465Y-72747657D01*
X53150465Y-73112476D01*
X53030385Y-73508328D01*
X52989839Y-73920000D01*
X53030385Y-74331672D01*
X53150465Y-74727524D01*
X53345465Y-75092343D01*
X53607891Y-75412109D01*
X53927657Y-75674535D01*
X54292476Y-75869535D01*
X54688328Y-75989615D01*
X54996833Y-76020000D01*
X55344008Y-76020000D01*
X55568725Y-76088167D01*
X55891930Y-76120000D01*
X72508732Y-76120000D01*
X75800000Y-79411270D01*
X75800001Y-89612655D01*
X75695910Y-89768438D01*
X75499917Y-90241608D01*
X75400000Y-90743922D01*
X75400000Y-91256078D01*
X75499917Y-91758392D01*
X75695910Y-92231562D01*
X75980448Y-92657403D01*
X76342597Y-93019552D01*
X76762317Y-93300000D01*
X75083502Y-93300000D01*
X75000000Y-93291776D01*
X74916498Y-93300000D01*
X73055675Y-93300000D01*
X72947355Y-93227623D01*
X72583378Y-93076859D01*
X72196983Y-93000000D01*
X71803017Y-93000000D01*
X71416622Y-93076859D01*
X71052645Y-93227623D01*
X70725074Y-93446499D01*
X70446499Y-93725074D01*
X70227623Y-94052645D01*
X70076859Y-94416622D01*
X70000000Y-94803017D01*
X70000000Y-95196983D01*
X70076859Y-95583378D01*
X70227623Y-95947355D01*
X70446499Y-96274926D01*
X70725074Y-96553501D01*
X70915259Y-96680578D01*
X70856961Y-96738876D01*
X70792104Y-96792103D01*
X70738877Y-96856960D01*
X70738868Y-96856969D01*
X70579663Y-97050961D01*
X70421807Y-97346291D01*
X70324599Y-97666742D01*
X70291776Y-98000000D01*
X70294258Y-98025204D01*
X70147876Y-98145336D01*
X69997919Y-98328060D01*
X69886491Y-98536528D01*
X69817873Y-98762729D01*
X69794704Y-98997970D01*
X69794704Y-99106547D01*
X69772377Y-99052645D01*
X69553501Y-98725074D01*
X69274926Y-98446499D01*
X68947355Y-98227623D01*
X68583378Y-98076859D01*
X68196983Y-98000000D01*
X67803017Y-98000000D01*
X67416622Y-98076859D01*
X67052645Y-98227623D01*
X66725074Y-98446499D01*
X66446499Y-98725074D01*
X66227623Y-99052645D01*
X66076859Y-99416622D01*
X66000000Y-99803017D01*
X66000000Y-100196983D01*
X66076859Y-100583378D01*
X66227623Y-100947355D01*
X66446499Y-101274926D01*
X66725074Y-101553501D01*
X67052645Y-101772377D01*
X67416622Y-101923141D01*
X67803017Y-102000000D01*
X68196983Y-102000000D01*
X68583378Y-101923141D01*
X68947355Y-101772377D01*
X69274926Y-101553501D01*
X69553501Y-101274926D01*
X69772377Y-100947355D01*
X69794704Y-100893453D01*
X69794704Y-100996950D01*
X69817873Y-101232191D01*
X69827288Y-101263227D01*
X69792103Y-101292103D01*
X69738876Y-101356960D01*
X68253605Y-102842231D01*
X68056631Y-102803050D01*
X67623369Y-102803050D01*
X67198433Y-102887576D01*
X66798151Y-103053378D01*
X66437907Y-103294085D01*
X66131545Y-103600447D01*
X65890838Y-103960691D01*
X65725036Y-104360973D01*
X65640510Y-104785909D01*
X65640510Y-105219171D01*
X65725036Y-105644107D01*
X65890838Y-106044389D01*
X66131545Y-106404633D01*
X66437907Y-106710995D01*
X66798151Y-106951702D01*
X67198433Y-107117504D01*
X67623369Y-107202030D01*
X68056631Y-107202030D01*
X68481567Y-107117504D01*
X68881849Y-106951702D01*
X69242093Y-106710995D01*
X69548455Y-106404633D01*
X69645255Y-106259762D01*
X69705357Y-106210437D01*
X69758588Y-106145575D01*
X71704164Y-104200000D01*
X75794704Y-104200000D01*
X75794704Y-106002030D01*
X75817873Y-106237271D01*
X75886491Y-106463472D01*
X75997919Y-106671940D01*
X76147876Y-106854664D01*
X76330600Y-107004621D01*
X76539068Y-107116049D01*
X76765269Y-107184667D01*
X77000510Y-107207836D01*
X78999490Y-107207836D01*
X79234731Y-107184667D01*
X79460932Y-107116049D01*
X79669400Y-107004621D01*
X79852124Y-106854664D01*
X79976968Y-106702540D01*
X83322251Y-106702540D01*
X83090539Y-106798518D01*
X82776071Y-107008639D01*
X82508639Y-107276071D01*
X82298518Y-107590539D01*
X82153785Y-107939957D01*
X82080000Y-108310897D01*
X82080000Y-108689103D01*
X82153785Y-109060043D01*
X82298518Y-109409461D01*
X82508639Y-109723929D01*
X82776071Y-109991361D01*
X83090539Y-110201482D01*
X83439957Y-110346215D01*
X83810897Y-110420000D01*
X84189103Y-110420000D01*
X84560043Y-110346215D01*
X84909461Y-110201482D01*
X85223929Y-109991361D01*
X85491361Y-109723929D01*
X85701482Y-109409461D01*
X85846215Y-109060043D01*
X85920000Y-108689103D01*
X85920000Y-108310897D01*
X85846215Y-107939957D01*
X85751646Y-107711646D01*
X85979957Y-107806215D01*
X86350897Y-107880000D01*
X86729103Y-107880000D01*
X86984492Y-107829200D01*
X86911833Y-108068726D01*
X86880000Y-108391931D01*
X86880000Y-108688070D01*
X86911833Y-109011275D01*
X87037631Y-109425977D01*
X87241917Y-109808168D01*
X87516839Y-110143161D01*
X87851833Y-110418083D01*
X88234024Y-110622369D01*
X88648726Y-110748167D01*
X88865339Y-110769502D01*
X90738872Y-112643035D01*
X90792103Y-112707897D01*
X90856965Y-112761128D01*
X90856969Y-112761132D01*
X91050961Y-112920337D01*
X91346290Y-113078194D01*
X91666739Y-113175401D01*
X91666742Y-113175402D01*
X91916490Y-113200000D01*
X91916498Y-113200000D01*
X92000000Y-113208224D01*
X92083502Y-113200000D01*
X103716500Y-113200000D01*
X103800000Y-113208224D01*
X103883500Y-113200000D01*
X103883510Y-113200000D01*
X104133258Y-113175402D01*
X104453709Y-113078194D01*
X104749039Y-112920337D01*
X104895670Y-112800000D01*
X104943031Y-112761132D01*
X104943035Y-112761128D01*
X105007897Y-112707897D01*
X105014378Y-112700000D01*
X105244325Y-112700000D01*
X105352645Y-112772377D01*
X105716622Y-112923141D01*
X106103017Y-113000000D01*
X106496983Y-113000000D01*
X106883378Y-112923141D01*
X107247355Y-112772377D01*
X107574926Y-112553501D01*
X107853501Y-112274926D01*
X108072377Y-111947355D01*
X108223141Y-111583378D01*
X108300000Y-111196983D01*
X108300000Y-110803017D01*
X108223141Y-110416622D01*
X108072377Y-110052645D01*
X107853501Y-109725074D01*
X107574926Y-109446499D01*
X107247355Y-109227623D01*
X106883378Y-109076859D01*
X106496983Y-109000000D01*
X106103017Y-109000000D01*
X105716622Y-109076859D01*
X105352645Y-109227623D01*
X105244325Y-109300000D01*
X105004163Y-109300000D01*
X103061128Y-107356965D01*
X103007897Y-107292103D01*
X102943035Y-107238872D01*
X102943031Y-107238868D01*
X102749039Y-107079663D01*
X102453709Y-106921806D01*
X102133258Y-106824598D01*
X102010380Y-106812496D01*
X101989461Y-106798518D01*
X101640043Y-106653785D01*
X101269103Y-106580000D01*
X100890897Y-106580000D01*
X100519957Y-106653785D01*
X100291646Y-106748354D01*
X100386215Y-106520043D01*
X100460000Y-106149103D01*
X100460000Y-105770897D01*
X100386215Y-105399957D01*
X100241482Y-105050539D01*
X100031361Y-104736071D01*
X99763929Y-104468639D01*
X99449461Y-104258518D01*
X99100043Y-104113785D01*
X98729103Y-104040000D01*
X98350897Y-104040000D01*
X97979957Y-104113785D01*
X97630539Y-104258518D01*
X97316071Y-104468639D01*
X97048639Y-104736071D01*
X96838518Y-105050539D01*
X96693785Y-105399957D01*
X96620000Y-105770897D01*
X96620000Y-106149103D01*
X96693785Y-106520043D01*
X96788354Y-106748354D01*
X96560043Y-106653785D01*
X96189103Y-106580000D01*
X95810897Y-106580000D01*
X95439957Y-106653785D01*
X95090539Y-106798518D01*
X94776071Y-107008639D01*
X94508639Y-107276071D01*
X94298518Y-107590539D01*
X94153785Y-107939957D01*
X94080000Y-108310897D01*
X94080000Y-108689103D01*
X94153785Y-109060043D01*
X94298518Y-109409461D01*
X94508639Y-109723929D01*
X94584710Y-109800000D01*
X92704163Y-109800000D01*
X91278242Y-108374079D01*
X91248167Y-108068725D01*
X91122369Y-107654023D01*
X90918083Y-107271832D01*
X90643161Y-106936839D01*
X90308168Y-106661917D01*
X89925976Y-106457631D01*
X89511274Y-106331833D01*
X89080000Y-106289356D01*
X88648725Y-106331833D01*
X88409200Y-106404492D01*
X88460000Y-106149103D01*
X88460000Y-105770897D01*
X88386215Y-105399957D01*
X88241482Y-105050539D01*
X88031361Y-104736071D01*
X87763929Y-104468639D01*
X87449461Y-104258518D01*
X87199955Y-104155170D01*
X87453709Y-104078194D01*
X87749039Y-103920337D01*
X87823158Y-103859509D01*
X87943031Y-103761132D01*
X87943035Y-103761128D01*
X88007897Y-103707897D01*
X88061131Y-103643032D01*
X91255607Y-100448556D01*
X91383378Y-100423141D01*
X91747355Y-100272377D01*
X91855675Y-100200000D01*
X98295837Y-100200000D01*
X100738872Y-102643035D01*
X100792103Y-102707897D01*
X100856965Y-102761128D01*
X100856969Y-102761132D01*
X101050961Y-102920337D01*
X101346291Y-103078194D01*
X101666742Y-103175402D01*
X101916490Y-103200000D01*
X101916498Y-103200000D01*
X102000000Y-103208224D01*
X102083502Y-103200000D01*
X107598252Y-103200000D01*
X107597409Y-103201027D01*
X107485981Y-103409495D01*
X107417363Y-103635696D01*
X107394194Y-103870937D01*
X107394194Y-105470937D01*
X107417363Y-105706178D01*
X107485981Y-105932379D01*
X107597409Y-106140847D01*
X107747366Y-106323571D01*
X107930090Y-106473528D01*
X108138558Y-106584956D01*
X108364759Y-106653574D01*
X108600000Y-106676743D01*
X110200000Y-106676743D01*
X110435241Y-106653574D01*
X110661442Y-106584956D01*
X110869910Y-106473528D01*
X111052634Y-106323571D01*
X111202591Y-106140847D01*
X111274772Y-106005806D01*
X111800000Y-106005806D01*
X112035241Y-105982637D01*
X112261442Y-105914019D01*
X112469910Y-105802591D01*
X112652634Y-105652634D01*
X112802591Y-105469910D01*
X112914019Y-105261442D01*
X112982637Y-105035241D01*
X113005806Y-104800000D01*
X113005806Y-103200000D01*
X112982637Y-102964759D01*
X112951011Y-102860502D01*
X113050852Y-102778565D01*
X113183378Y-102752204D01*
X113547355Y-102601440D01*
X113655675Y-102529063D01*
X114124900Y-102529063D01*
X120400000Y-108804163D01*
X120400000Y-109256078D01*
X120478339Y-109649912D01*
X120274926Y-109446499D01*
X119947355Y-109227623D01*
X119583378Y-109076859D01*
X119196983Y-109000000D01*
X118803017Y-109000000D01*
X118416622Y-109076859D01*
X118052645Y-109227623D01*
X117725074Y-109446499D01*
X117446499Y-109725074D01*
X117227623Y-110052645D01*
X117076859Y-110416622D01*
X117000000Y-110803017D01*
X117000000Y-111196983D01*
X117076859Y-111583378D01*
X117227623Y-111947355D01*
X117446499Y-112274926D01*
X117725074Y-112553501D01*
X118052645Y-112772377D01*
X118416622Y-112923141D01*
X118803017Y-113000000D01*
X119196983Y-113000000D01*
X119583378Y-112923141D01*
X119947355Y-112772377D01*
X120274926Y-112553501D01*
X120553501Y-112274926D01*
X120772377Y-111947355D01*
X120923141Y-111583378D01*
X121000000Y-111196983D01*
X121000000Y-110803017D01*
X120967046Y-110637345D01*
X120980448Y-110657403D01*
X121342597Y-111019552D01*
X121768438Y-111304090D01*
X122241608Y-111500083D01*
X122743922Y-111600000D01*
X123256078Y-111600000D01*
X123758392Y-111500083D01*
X124231562Y-111304090D01*
X124657403Y-111019552D01*
X125019552Y-110657403D01*
X125304090Y-110231562D01*
X125500083Y-109758392D01*
X125506879Y-109724224D01*
X127200000Y-109724224D01*
X127200000Y-110275776D01*
X127307602Y-110816730D01*
X127518672Y-111326297D01*
X127825098Y-111784896D01*
X128215104Y-112174902D01*
X128673703Y-112481328D01*
X129183270Y-112692398D01*
X129724224Y-112800000D01*
X130275776Y-112800000D01*
X130816730Y-112692398D01*
X131326297Y-112481328D01*
X131784896Y-112174902D01*
X132174902Y-111784896D01*
X132481328Y-111326297D01*
X132692398Y-110816730D01*
X132800000Y-110275776D01*
X132800000Y-109724224D01*
X132692398Y-109183270D01*
X132481328Y-108673703D01*
X132174902Y-108215104D01*
X131784896Y-107825098D01*
X131326297Y-107518672D01*
X130816730Y-107307602D01*
X130275776Y-107200000D01*
X129724224Y-107200000D01*
X129183270Y-107307602D01*
X128673703Y-107518672D01*
X128215104Y-107825098D01*
X127825098Y-108215104D01*
X127518672Y-108673703D01*
X127307602Y-109183270D01*
X127200000Y-109724224D01*
X125506879Y-109724224D01*
X125600000Y-109256078D01*
X125600000Y-108743922D01*
X125500083Y-108241608D01*
X125304090Y-107768438D01*
X125019552Y-107342597D01*
X124657403Y-106980448D01*
X124231562Y-106695910D01*
X123758392Y-106499917D01*
X123256078Y-106400000D01*
X122804163Y-106400000D01*
X116604163Y-100200000D01*
X118416500Y-100200000D01*
X118500000Y-100208224D01*
X118583500Y-100200000D01*
X118583510Y-100200000D01*
X118833258Y-100175402D01*
X119153709Y-100078194D01*
X119449039Y-99920337D01*
X119643031Y-99761132D01*
X119643035Y-99761128D01*
X119707897Y-99707897D01*
X119761131Y-99643032D01*
X120544163Y-98860000D01*
X126861206Y-98860000D01*
X126927657Y-98914535D01*
X127292476Y-99109535D01*
X127688328Y-99229615D01*
X127996833Y-99260000D01*
X130003167Y-99260000D01*
X130311672Y-99229615D01*
X130707524Y-99109535D01*
X131072343Y-98914535D01*
X131392109Y-98652109D01*
X131654535Y-98332343D01*
X131849535Y-97967524D01*
X131969615Y-97571672D01*
X132010161Y-97160000D01*
X131969615Y-96748328D01*
X131849535Y-96352476D01*
X131654535Y-95987657D01*
X131392109Y-95667891D01*
X131072343Y-95405465D01*
X130707524Y-95210465D01*
X130311672Y-95090385D01*
X130003167Y-95060000D01*
X127996833Y-95060000D01*
X127688328Y-95090385D01*
X127292476Y-95210465D01*
X126927657Y-95405465D01*
X126861206Y-95460000D01*
X119923499Y-95460000D01*
X119839999Y-95451776D01*
X119756499Y-95460000D01*
X119756490Y-95460000D01*
X119506742Y-95484598D01*
X119381605Y-95522558D01*
X121124163Y-93780000D01*
X126861206Y-93780000D01*
X126927657Y-93834535D01*
X127292476Y-94029535D01*
X127688328Y-94149615D01*
X127996833Y-94180000D01*
X130003167Y-94180000D01*
X130311672Y-94149615D01*
X130707524Y-94029535D01*
X131072343Y-93834535D01*
X131392109Y-93572109D01*
X131654535Y-93252343D01*
X131849535Y-92887524D01*
X131969615Y-92491672D01*
X132010161Y-92080000D01*
X131969615Y-91668328D01*
X131849535Y-91272476D01*
X131654535Y-90907657D01*
X131392109Y-90587891D01*
X131072343Y-90325465D01*
X130707524Y-90130465D01*
X130311672Y-90010385D01*
X130003167Y-89980000D01*
X127996833Y-89980000D01*
X127688328Y-90010385D01*
X127292476Y-90130465D01*
X126927657Y-90325465D01*
X126861206Y-90380000D01*
X120503502Y-90380000D01*
X120420000Y-90371776D01*
X120336498Y-90380000D01*
X120336490Y-90380000D01*
X120086742Y-90404598D01*
X119766290Y-90501806D01*
X119470961Y-90659663D01*
X119276969Y-90818868D01*
X119276965Y-90818872D01*
X119212103Y-90872103D01*
X119158872Y-90936965D01*
X116795837Y-93300000D01*
X113237683Y-93300000D01*
X113657403Y-93019552D01*
X114019552Y-92657403D01*
X114304090Y-92231562D01*
X114500083Y-91758392D01*
X114536635Y-91574633D01*
X120011268Y-86100000D01*
X125994194Y-86100000D01*
X125994194Y-87900000D01*
X126017363Y-88135241D01*
X126085981Y-88361442D01*
X126197409Y-88569910D01*
X126347366Y-88752634D01*
X126530090Y-88902591D01*
X126738558Y-89014019D01*
X126964759Y-89082637D01*
X127200000Y-89105806D01*
X130800000Y-89105806D01*
X131035241Y-89082637D01*
X131261442Y-89014019D01*
X131469910Y-88902591D01*
X131652634Y-88752634D01*
X131802591Y-88569910D01*
X131914019Y-88361442D01*
X131982637Y-88135241D01*
X132005806Y-87900000D01*
X132005806Y-86100000D01*
X131982637Y-85864759D01*
X131914019Y-85638558D01*
X131802591Y-85430090D01*
X131652634Y-85247366D01*
X131469910Y-85097409D01*
X131261442Y-84985981D01*
X131035241Y-84917363D01*
X130800000Y-84894194D01*
X127200000Y-84894194D01*
X126964759Y-84917363D01*
X126738558Y-84985981D01*
X126530090Y-85097409D01*
X126347366Y-85247366D01*
X126197409Y-85430090D01*
X126085981Y-85638558D01*
X126017363Y-85864759D01*
X125994194Y-86100000D01*
X120011268Y-86100000D01*
X123751269Y-82360000D01*
X128891930Y-82360000D01*
X129000000Y-82370644D01*
X129108070Y-82360000D01*
X129431275Y-82328167D01*
X129655992Y-82260000D01*
X130003167Y-82260000D01*
X130311672Y-82229615D01*
X130707524Y-82109535D01*
X131072343Y-81914535D01*
X131392109Y-81652109D01*
X131654535Y-81332343D01*
X131849535Y-80967524D01*
X131969615Y-80571672D01*
X132010161Y-80160000D01*
X131969615Y-79748328D01*
X131849535Y-79352476D01*
X131654535Y-78987657D01*
X131392109Y-78667891D01*
X131200000Y-78510231D01*
X131200000Y-76729769D01*
X131392109Y-76572109D01*
X131654535Y-76252343D01*
X131849535Y-75887524D01*
X131969615Y-75491672D01*
X132010161Y-75080000D01*
X131969615Y-74668328D01*
X131849535Y-74272476D01*
X131654535Y-73907657D01*
X131392109Y-73587891D01*
X131072343Y-73325465D01*
X130707524Y-73130465D01*
X130311672Y-73010385D01*
X130003167Y-72980000D01*
X129655992Y-72980000D01*
X129431275Y-72911833D01*
X129000000Y-72869356D01*
X128568726Y-72911833D01*
X128344009Y-72980000D01*
X127996833Y-72980000D01*
X127688328Y-73010385D01*
X127292476Y-73130465D01*
X126927657Y-73325465D01*
X126607891Y-73587891D01*
X126345465Y-73907657D01*
X126150465Y-74272476D01*
X126030385Y-74668328D01*
X125989839Y-75080000D01*
X126030385Y-75491672D01*
X126150465Y-75887524D01*
X126345465Y-76252343D01*
X126607891Y-76572109D01*
X126800001Y-76729770D01*
X126800000Y-77960000D01*
X122948059Y-77960000D01*
X122839999Y-77949357D01*
X122731939Y-77960000D01*
X122731930Y-77960000D01*
X122408725Y-77991833D01*
X122052145Y-78100000D01*
X121994023Y-78117631D01*
X121611831Y-78321917D01*
X121439873Y-78463040D01*
X121276839Y-78596839D01*
X121207947Y-78680784D01*
X111425367Y-88463365D01*
X111241608Y-88499917D01*
X110768438Y-88695910D01*
X110342597Y-88980448D01*
X109980448Y-89342597D01*
X109695910Y-89768438D01*
X109499917Y-90241608D01*
X109400000Y-90743922D01*
X109400000Y-91256078D01*
X109499917Y-91758392D01*
X109695910Y-92231562D01*
X109980448Y-92657403D01*
X110342597Y-93019552D01*
X110762317Y-93300000D01*
X107555675Y-93300000D01*
X107447355Y-93227623D01*
X107083378Y-93076859D01*
X106696983Y-93000000D01*
X106303017Y-93000000D01*
X105916622Y-93076859D01*
X105552645Y-93227623D01*
X105225074Y-93446499D01*
X104946499Y-93725074D01*
X104727623Y-94052645D01*
X104576859Y-94416622D01*
X104500000Y-94803017D01*
X104500000Y-95196983D01*
X104576859Y-95583378D01*
X104727623Y-95947355D01*
X104946499Y-96274926D01*
X105225074Y-96553501D01*
X105552645Y-96772377D01*
X105619333Y-96800000D01*
X104555675Y-96800000D01*
X104447355Y-96727623D01*
X104083378Y-96576859D01*
X103696983Y-96500000D01*
X103303017Y-96500000D01*
X102916622Y-96576859D01*
X102552645Y-96727623D01*
X102225074Y-96946499D01*
X101946499Y-97225074D01*
X101727623Y-97552645D01*
X101576859Y-97916622D01*
X101500000Y-98303017D01*
X101500000Y-98595837D01*
X100261128Y-97356965D01*
X100207897Y-97292103D01*
X100143035Y-97238872D01*
X100143031Y-97238868D01*
X99949039Y-97079663D01*
X99895341Y-97050961D01*
X99653709Y-96921806D01*
X99333258Y-96824598D01*
X99083510Y-96800000D01*
X99083500Y-96800000D01*
X99000000Y-96791776D01*
X98916500Y-96800000D01*
X94680667Y-96800000D01*
X94747355Y-96772377D01*
X95074926Y-96553501D01*
X95353501Y-96274926D01*
X95572377Y-95947355D01*
X95723141Y-95583378D01*
X95800000Y-95196983D01*
X95800000Y-94803017D01*
X95723141Y-94416622D01*
X95572377Y-94052645D01*
X95500000Y-93944325D01*
X95500000Y-90904163D01*
X98304163Y-88100000D01*
X98756078Y-88100000D01*
X99258392Y-88000083D01*
X99731562Y-87804090D01*
X100157403Y-87519552D01*
X100519552Y-87157403D01*
X100804090Y-86731562D01*
X101000083Y-86258392D01*
X101100000Y-85756078D01*
X101100000Y-85243922D01*
X101000083Y-84741608D01*
X100804090Y-84268438D01*
X100519552Y-83842597D01*
X100200000Y-83523045D01*
X100200000Y-82012563D01*
X100208224Y-81929063D01*
X100200000Y-81845563D01*
X100200000Y-81845553D01*
X100175402Y-81595805D01*
X100078194Y-81275354D01*
X99938508Y-81014019D01*
X99920337Y-80980023D01*
X99761132Y-80786032D01*
X99761128Y-80786028D01*
X99707897Y-80721166D01*
X99643035Y-80667935D01*
X99119493Y-80144393D01*
X99094078Y-80016622D01*
X98943314Y-79652645D01*
X98865958Y-79536873D01*
X98846339Y-79337679D01*
X98749131Y-79017228D01*
X98591274Y-78721898D01*
X98449502Y-78549149D01*
X98423141Y-78416622D01*
X98272377Y-78052645D01*
X98053501Y-77725074D01*
X97774926Y-77446499D01*
X97447355Y-77227623D01*
X97083378Y-77076859D01*
X96696983Y-77000000D01*
X96303017Y-77000000D01*
X95916622Y-77076859D01*
X95552645Y-77227623D01*
X95527334Y-77244535D01*
X95469910Y-77197409D01*
X95334869Y-77125228D01*
X95334869Y-76600000D01*
X95311700Y-76364759D01*
X95243082Y-76138558D01*
X95131654Y-75930090D01*
X94981697Y-75747366D01*
X94798973Y-75597409D01*
X94590505Y-75485981D01*
X94364304Y-75417363D01*
X94129063Y-75394194D01*
X92529063Y-75394194D01*
X92293822Y-75417363D01*
X92067621Y-75485981D01*
X91859153Y-75597409D01*
X91676429Y-75747366D01*
X91526472Y-75930090D01*
X91415044Y-76138558D01*
X91346426Y-76364759D01*
X91323257Y-76600000D01*
X91323257Y-78200000D01*
X91346426Y-78435241D01*
X91415044Y-78661442D01*
X91526472Y-78869910D01*
X91676429Y-79052634D01*
X91859153Y-79202591D01*
X91994194Y-79274772D01*
X91994194Y-79800000D01*
X92017363Y-80035241D01*
X92085981Y-80261442D01*
X92197409Y-80469910D01*
X92347366Y-80652634D01*
X92530090Y-80802591D01*
X92738558Y-80914019D01*
X92964759Y-80982637D01*
X93200000Y-81005806D01*
X94800000Y-81005806D01*
X95035241Y-80982637D01*
X95198043Y-80933251D01*
X95247796Y-81183378D01*
X95398560Y-81547355D01*
X95617436Y-81874926D01*
X95896011Y-82153501D01*
X96223582Y-82372377D01*
X96587559Y-82523141D01*
X96715330Y-82548556D01*
X96800001Y-82633227D01*
X96800001Y-83523044D01*
X96480448Y-83842597D01*
X96195910Y-84268438D01*
X95999917Y-84741608D01*
X95900000Y-85243922D01*
X95900000Y-85695837D01*
X92656961Y-88938876D01*
X92592104Y-88992103D01*
X92538877Y-89056960D01*
X92538868Y-89056969D01*
X92379663Y-89250961D01*
X92221807Y-89546291D01*
X92124599Y-89866742D01*
X92091776Y-90200000D01*
X92100001Y-90283510D01*
X92100000Y-93300000D01*
X92055675Y-93300000D01*
X91947355Y-93227623D01*
X91583378Y-93076859D01*
X91196983Y-93000000D01*
X90803017Y-93000000D01*
X90416622Y-93076859D01*
X90052645Y-93227623D01*
X89944325Y-93300000D01*
X87240962Y-93300000D01*
X87157460Y-93291776D01*
X87073958Y-93300000D01*
X87073950Y-93300000D01*
X86824202Y-93324598D01*
X86503751Y-93421806D01*
X86457554Y-93446499D01*
X86208421Y-93579663D01*
X86014429Y-93738868D01*
X86014425Y-93738872D01*
X85949563Y-93792103D01*
X85896332Y-93856965D01*
X81955327Y-97797970D01*
X81943369Y-97797970D01*
X81518433Y-97882496D01*
X81118151Y-98048298D01*
X80757907Y-98289005D01*
X80451545Y-98595367D01*
X80210838Y-98955611D01*
X80045036Y-99355893D01*
X79960510Y-99780829D01*
X79960510Y-100214091D01*
X80045036Y-100639027D01*
X80111713Y-100800000D01*
X74205296Y-100800000D01*
X74205296Y-98997970D01*
X74182127Y-98762729D01*
X74113509Y-98536528D01*
X74027865Y-98376298D01*
X75704163Y-96700000D01*
X77244325Y-96700000D01*
X77352645Y-96772377D01*
X77716622Y-96923141D01*
X78103017Y-97000000D01*
X78496983Y-97000000D01*
X78883378Y-96923141D01*
X79247355Y-96772377D01*
X79574926Y-96553501D01*
X79853501Y-96274926D01*
X80072377Y-95947355D01*
X80223141Y-95583378D01*
X80300000Y-95196983D01*
X80300000Y-94803017D01*
X80223141Y-94416622D01*
X80072377Y-94052645D01*
X79853501Y-93725074D01*
X79574926Y-93446499D01*
X79296679Y-93260580D01*
X79657403Y-93019552D01*
X80019552Y-92657403D01*
X80304090Y-92231562D01*
X80500083Y-91758392D01*
X80600000Y-91256078D01*
X80600000Y-90743922D01*
X80500083Y-90241608D01*
X80304090Y-89768438D01*
X80200000Y-89612656D01*
X80200000Y-80450000D01*
X82641940Y-80450000D01*
X82750000Y-80460643D01*
X82858060Y-80450000D01*
X82858070Y-80450000D01*
X83181275Y-80418167D01*
X83595977Y-80292369D01*
X83978168Y-80088083D01*
X84313161Y-79813161D01*
X84382057Y-79729211D01*
X88911270Y-75200000D01*
X108891940Y-75200000D01*
X109000000Y-75210643D01*
X109108060Y-75200000D01*
X109108070Y-75200000D01*
X109431275Y-75168167D01*
X109845977Y-75042369D01*
X110228168Y-74838083D01*
X110563161Y-74563161D01*
X110632057Y-74479211D01*
X116011268Y-69100000D01*
X125994194Y-69100000D01*
X125994194Y-70900000D01*
X126017363Y-71135241D01*
X126085981Y-71361442D01*
X126197409Y-71569910D01*
X126347366Y-71752634D01*
X126530090Y-71902591D01*
X126738558Y-72014019D01*
X126964759Y-72082637D01*
X127200000Y-72105806D01*
X130800000Y-72105806D01*
X131035241Y-72082637D01*
X131261442Y-72014019D01*
X131469910Y-71902591D01*
X131652634Y-71752634D01*
X131802591Y-71569910D01*
X131914019Y-71361442D01*
X131982637Y-71135241D01*
X132005806Y-70900000D01*
X132005806Y-69100000D01*
X131982637Y-68864759D01*
X131914019Y-68638558D01*
X131802591Y-68430090D01*
X131652634Y-68247366D01*
X131469910Y-68097409D01*
X131261442Y-67985981D01*
X131035241Y-67917363D01*
X130800000Y-67894194D01*
X127200000Y-67894194D01*
X126964759Y-67917363D01*
X126738558Y-67985981D01*
X126530090Y-68097409D01*
X126347366Y-68247366D01*
X126197409Y-68430090D01*
X126085981Y-68638558D01*
X126017363Y-68864759D01*
X125994194Y-69100000D01*
X116011268Y-69100000D01*
X124831270Y-60280000D01*
X126800001Y-60280000D01*
X126800000Y-61510230D01*
X126607891Y-61667891D01*
X126345465Y-61987657D01*
X126150465Y-62352476D01*
X126030385Y-62748328D01*
X125989839Y-63160000D01*
X126030385Y-63571672D01*
X126150465Y-63967524D01*
X126345465Y-64332343D01*
X126607891Y-64652109D01*
X126927657Y-64914535D01*
X127292476Y-65109535D01*
X127688328Y-65229615D01*
X127996833Y-65260000D01*
X128344008Y-65260000D01*
X128568725Y-65328167D01*
X129000000Y-65370644D01*
X129431274Y-65328167D01*
X129655991Y-65260000D01*
X130003167Y-65260000D01*
X130311672Y-65229615D01*
X130707524Y-65109535D01*
X131072343Y-64914535D01*
X131392109Y-64652109D01*
X131654535Y-64332343D01*
X131849535Y-63967524D01*
X131969615Y-63571672D01*
X132010161Y-63160000D01*
X131969615Y-62748328D01*
X131849535Y-62352476D01*
X131654535Y-61987657D01*
X131392109Y-61667891D01*
X131200000Y-61510231D01*
X131200000Y-59729769D01*
X131392109Y-59572109D01*
X131654535Y-59252343D01*
X131849535Y-58887524D01*
X131969615Y-58491672D01*
X132010161Y-58080000D01*
X131969615Y-57668328D01*
X131849535Y-57272476D01*
X131654535Y-56907657D01*
X131392109Y-56587891D01*
X131072343Y-56325465D01*
X130707524Y-56130465D01*
X130311672Y-56010385D01*
X130003167Y-55980000D01*
X129655992Y-55980000D01*
X129431275Y-55911833D01*
X129108070Y-55880000D01*
X129000000Y-55869356D01*
X128891930Y-55880000D01*
X124028059Y-55880000D01*
X123919999Y-55869357D01*
X123811939Y-55880000D01*
X123811930Y-55880000D01*
X123488725Y-55911833D01*
X123074023Y-56037631D01*
X122691832Y-56241917D01*
X122691830Y-56241918D01*
X122691831Y-56241918D01*
X122440781Y-56447949D01*
X122440778Y-56447952D01*
X122356839Y-56516839D01*
X122287952Y-56600778D01*
X108088732Y-70800000D01*
X97004460Y-70800000D01*
X97126853Y-70616826D01*
X97307770Y-70180054D01*
X97400000Y-69716379D01*
X97400000Y-69243621D01*
X97307770Y-68779946D01*
X97200000Y-68519766D01*
X97200000Y-56911268D01*
X98911270Y-55200000D01*
X128891930Y-55200000D01*
X129000000Y-55210644D01*
X129108070Y-55200000D01*
X129431275Y-55168167D01*
X129636852Y-55105806D01*
X130800000Y-55105806D01*
X131035241Y-55082637D01*
X131261442Y-55014019D01*
X131469910Y-54902591D01*
X131652634Y-54752634D01*
X131802591Y-54569910D01*
X131914019Y-54361442D01*
X131982637Y-54135241D01*
X132005806Y-53900000D01*
X132005806Y-52100000D01*
X131982637Y-51864759D01*
X131914019Y-51638558D01*
X131802591Y-51430090D01*
X131652634Y-51247366D01*
X131469910Y-51097409D01*
X131261442Y-50985981D01*
X131200000Y-50967343D01*
X131200000Y-48387344D01*
X131304090Y-48231562D01*
X131500083Y-47758392D01*
X131600000Y-47256078D01*
X131600000Y-46743922D01*
X131500083Y-46241608D01*
X131304090Y-45768438D01*
X131019552Y-45342597D01*
X130657403Y-44980448D01*
X130231562Y-44695910D01*
X129758392Y-44499917D01*
X129256078Y-44400000D01*
X128743922Y-44400000D01*
X128241608Y-44499917D01*
X127768438Y-44695910D01*
X127342597Y-44980448D01*
X126980448Y-45342597D01*
X126695910Y-45768438D01*
X126499917Y-46241608D01*
X126400000Y-46743922D01*
X126400000Y-47256078D01*
X126499917Y-47758392D01*
X126695910Y-48231562D01*
X126800001Y-48387345D01*
X126800000Y-50800000D01*
X98108062Y-50800000D01*
X98000000Y-50789357D01*
X97891938Y-50800000D01*
X97891930Y-50800000D01*
X97568725Y-50831833D01*
X97154023Y-50957631D01*
X96771832Y-51161917D01*
X96520782Y-51367948D01*
X96520778Y-51367952D01*
X96436839Y-51436839D01*
X96367951Y-51520779D01*
X95000000Y-52888731D01*
X80874890Y-38763621D01*
X92600000Y-38763621D01*
X92600000Y-39236379D01*
X92692230Y-39700054D01*
X92873147Y-40136826D01*
X93135798Y-40529911D01*
X93470089Y-40864202D01*
X93863174Y-41126853D01*
X94299946Y-41307770D01*
X94763621Y-41400000D01*
X95236379Y-41400000D01*
X95700054Y-41307770D01*
X95960234Y-41200000D01*
X109704171Y-41200000D01*
X109747366Y-41252634D01*
X109930090Y-41402591D01*
X110138558Y-41514019D01*
X110364759Y-41582637D01*
X110600000Y-41605806D01*
X113400000Y-41605806D01*
X113635241Y-41582637D01*
X113861442Y-41514019D01*
X114069910Y-41402591D01*
X114252634Y-41252634D01*
X114295829Y-41200000D01*
X118612656Y-41200000D01*
X118768438Y-41304090D01*
X119241608Y-41500083D01*
X119743922Y-41600000D01*
X120256078Y-41600000D01*
X120758392Y-41500083D01*
X121231562Y-41304090D01*
X121657403Y-41019552D01*
X122019552Y-40657403D01*
X122304090Y-40231562D01*
X122500083Y-39758392D01*
X122506879Y-39724224D01*
X127200000Y-39724224D01*
X127200000Y-40275776D01*
X127307602Y-40816730D01*
X127518672Y-41326297D01*
X127825098Y-41784896D01*
X128215104Y-42174902D01*
X128673703Y-42481328D01*
X129183270Y-42692398D01*
X129724224Y-42800000D01*
X130275776Y-42800000D01*
X130816730Y-42692398D01*
X131326297Y-42481328D01*
X131784896Y-42174902D01*
X132174902Y-41784896D01*
X132481328Y-41326297D01*
X132692398Y-40816730D01*
X132800000Y-40275776D01*
X132800000Y-39724224D01*
X132692398Y-39183270D01*
X132481328Y-38673703D01*
X132174902Y-38215104D01*
X131784896Y-37825098D01*
X131326297Y-37518672D01*
X130816730Y-37307602D01*
X130275776Y-37200000D01*
X129724224Y-37200000D01*
X129183270Y-37307602D01*
X128673703Y-37518672D01*
X128215104Y-37825098D01*
X127825098Y-38215104D01*
X127518672Y-38673703D01*
X127307602Y-39183270D01*
X127200000Y-39724224D01*
X122506879Y-39724224D01*
X122600000Y-39256078D01*
X122600000Y-38743922D01*
X122500083Y-38241608D01*
X122304090Y-37768438D01*
X122019552Y-37342597D01*
X121657403Y-36980448D01*
X121231562Y-36695910D01*
X120758392Y-36499917D01*
X120256078Y-36400000D01*
X119743922Y-36400000D01*
X119241608Y-36499917D01*
X118768438Y-36695910D01*
X118612656Y-36800000D01*
X114295829Y-36800000D01*
X114252634Y-36747366D01*
X114069910Y-36597409D01*
X113861442Y-36485981D01*
X113635241Y-36417363D01*
X113400000Y-36394194D01*
X110600000Y-36394194D01*
X110364759Y-36417363D01*
X110138558Y-36485981D01*
X109930090Y-36597409D01*
X109747366Y-36747366D01*
X109704171Y-36800000D01*
X95960234Y-36800000D01*
X95700054Y-36692230D01*
X95236379Y-36600000D01*
X94763621Y-36600000D01*
X94299946Y-36692230D01*
X93863174Y-36873147D01*
X93470089Y-37135798D01*
X93135798Y-37470089D01*
X92873147Y-37863174D01*
X92692230Y-38299946D01*
X92600000Y-38763621D01*
X80874890Y-38763621D01*
X80605806Y-38494538D01*
X80605806Y-37600000D01*
X80582637Y-37364759D01*
X80514019Y-37138558D01*
X80402591Y-36930090D01*
X80252634Y-36747366D01*
X80069910Y-36597409D01*
X79861442Y-36485981D01*
X79635241Y-36417363D01*
X79400000Y-36394194D01*
X76600000Y-36394194D01*
X76364759Y-36417363D01*
X76138558Y-36485981D01*
X75930090Y-36597409D01*
X75747366Y-36747366D01*
X75704171Y-36800000D01*
X68108059Y-36800000D01*
X67999999Y-36789357D01*
X67891939Y-36800000D01*
X67891930Y-36800000D01*
X67568725Y-36831833D01*
X67244814Y-36930090D01*
X67154023Y-36957631D01*
X66771831Y-37161917D01*
X66594315Y-37307602D01*
X66436839Y-37436839D01*
X66367947Y-37520784D01*
X60023325Y-43865407D01*
X59939380Y-43934299D01*
X59870489Y-44018243D01*
X59664457Y-44269292D01*
X59460171Y-44651484D01*
X59334374Y-45066185D01*
X59291897Y-45497460D01*
X59302541Y-45605530D01*
X59302540Y-48066723D01*
X59039309Y-47890838D01*
X58639027Y-47725036D01*
X58214091Y-47640510D01*
X57780829Y-47640510D01*
X57355893Y-47725036D01*
X56955611Y-47890838D01*
X56595367Y-48131545D01*
X56289005Y-48437907D01*
X56247460Y-48500084D01*
X56205915Y-48437907D01*
X56132813Y-48364805D01*
X56060621Y-48276839D01*
X55972655Y-48204647D01*
X55899553Y-48131545D01*
X55813595Y-48074110D01*
X55725628Y-48001917D01*
X55625265Y-47948272D01*
X55539309Y-47890838D01*
X55443802Y-47851278D01*
X55343436Y-47797631D01*
X55234532Y-47764596D01*
X55139027Y-47725036D01*
X55037635Y-47704868D01*
X54928734Y-47671833D01*
X54815486Y-47660679D01*
X54714091Y-47640510D01*
X54610708Y-47640510D01*
X54497460Y-47629356D01*
X54384212Y-47640510D01*
X54280829Y-47640510D01*
X54179434Y-47660679D01*
X54066185Y-47671833D01*
X53957282Y-47704868D01*
X53855893Y-47725036D01*
X53760390Y-47764594D01*
X53651483Y-47797631D01*
X53551115Y-47851279D01*
X53455611Y-47890838D01*
X53369656Y-47948271D01*
X53269292Y-48001917D01*
X53181325Y-48074110D01*
X53095367Y-48131545D01*
X53022265Y-48204647D01*
X52934299Y-48276839D01*
X52862107Y-48364805D01*
X52789005Y-48437907D01*
X52731570Y-48523865D01*
X52659377Y-48611832D01*
X52605732Y-48712195D01*
X52548298Y-48798151D01*
X52508738Y-48893658D01*
X52455091Y-48994024D01*
X52422056Y-49102928D01*
X52382496Y-49198433D01*
X52362328Y-49299825D01*
X52329293Y-49408726D01*
X52318139Y-49521973D01*
X52297970Y-49623369D01*
X52297970Y-49726753D01*
X52297460Y-49731931D01*
X52297460Y-50389400D01*
X52286817Y-50497460D01*
X51275000Y-50497460D01*
X51275000Y-43090825D01*
X52050597Y-43090825D01*
X52364643Y-43797388D01*
X53156115Y-44238554D01*
X54018446Y-44516836D01*
X54918497Y-44621538D01*
X55821681Y-44548637D01*
X56693287Y-44300935D01*
X57499822Y-43887949D01*
X57635357Y-43797388D01*
X57949403Y-43090825D01*
X55000000Y-40141421D01*
X52050597Y-43090825D01*
X51275000Y-43090825D01*
X51275000Y-42667531D01*
X51909175Y-42949403D01*
X54858579Y-40000000D01*
X55141421Y-40000000D01*
X58090825Y-42949403D01*
X58797388Y-42635357D01*
X59238554Y-41843885D01*
X59516836Y-40981554D01*
X59621538Y-40081503D01*
X59548637Y-39178319D01*
X59300935Y-38306713D01*
X58887949Y-37500178D01*
X58797388Y-37364643D01*
X58090825Y-37050597D01*
X55141421Y-40000000D01*
X54858579Y-40000000D01*
X51909175Y-37050597D01*
X51275000Y-37332469D01*
X51275000Y-36275000D01*
X52332469Y-36275000D01*
X52050597Y-36909175D01*
M02*
