M48
; DRILL file {KiCad (5.1.5-0-10_14)} date Sunday, 26 April 2020 at 22:00:15
; FORMAT={-:-/ absolute / metric / decimal}
; #@! TF.CreationDate,2020-04-26T22:00:15+01:00
; #@! TF.GenerationSoftware,Kicad,Pcbnew,(5.1.5-0-10_14)
FMAT,2
METRIC
T1C0.700
T2C0.800
T3C0.900
T4C1.000
T5C1.100
T6C1.199
T7C1.200
T8C2.000
T9C3.200
T10C3.200
T11C5.000
%
G90
G05
T1
X167.0Y-99.5
X169.5Y-99.5
X164.5Y-67.0
X167.0Y-67.0
T2
X166.0Y-113.0
X173.62Y-113.0
X223.0Y-64.0
X223.0Y-71.62
X223.0Y-94.38
X223.0Y-102.0
X196.88Y-100.5
X204.5Y-100.5
X155.38Y-110.0
X163.0Y-110.0
X149.0Y-54.0
X156.62Y-54.0
X232.5Y-64.0
X232.5Y-66.5
X232.5Y-103.0
X232.5Y-105.5
X142.88Y-70.0
X150.5Y-70.0
X227.5Y-94.38
X227.5Y-102.0
X227.0Y-67.0
X227.0Y-74.62
X192.38Y-69.5
X200.0Y-69.5
X105.5Y-101.0
X105.5Y-108.62
X97.0Y-62.38
X97.0Y-70.0
X149.0Y-47.0
X156.62Y-47.0
X149.88Y-101.0
X157.5Y-101.0
T3
X177.0Y-113.0
X177.0Y-118.0
X177.0Y-52.0
X177.0Y-57.0
T4
X105.0Y-120.5
X105.0Y-128.0
X96.5Y-55.0
X96.5Y-58.0
X232.5Y-94.0
X232.5Y-97.0
X222.5Y-85.0
X222.5Y-88.0
X93.5Y-118.0
X93.5Y-121.0
X232.5Y-83.5
X232.5Y-86.5
X102.0Y-55.0
X102.0Y-62.5
X232.5Y-72.5
X232.5Y-75.5
T5
X200.38Y-66.0
X208.0Y-66.0
X101.38Y-69.0
X109.0Y-69.0
X214.5Y-64.88
X214.5Y-72.5
X200.5Y-105.0
X208.12Y-105.0
X131.0Y-66.0
X131.0Y-81.0
X214.5Y-96.5
X214.5Y-104.12
X117.0Y-105.5
X132.0Y-105.5
X188.0Y-58.0
X203.0Y-58.0
X219.0Y-64.88
X219.0Y-72.5
X219.0Y-96.5
X219.0Y-104.12
X100.0Y-100.38
X100.0Y-108.0
X187.5Y-111.0
X202.5Y-111.0
T6
X172.0Y-125.5
X177.001Y-125.5
X182.003Y-125.5
X160.997Y-60.0
X165.999Y-60.0
X171.0Y-60.0
X166.997Y-106.0
X171.999Y-106.0
X177.0Y-106.0
X172.0Y-46.5
X177.001Y-46.5
X182.003Y-46.5
T7
X113.0Y-42.0
X113.0Y-47.0
X208.26Y-131.0
X223.5Y-131.0
X225.5Y-112.5
X225.5Y-117.5
X185.0Y-76.5
X185.0Y-81.5
X182.5Y-55.5
X182.5Y-68.2
X156.26Y-131.0
X171.5Y-131.0
X165.0Y-74.5
X177.7Y-74.5
X226.0Y-51.0
X226.0Y-56.0
X134.5Y-40.0
X134.5Y-47.5
X123.0Y-65.76
X123.0Y-81.0
X110.0Y-52.3
X110.0Y-65.0
X215.5Y-47.0
X215.5Y-59.7
X150.3Y-105.5
X163.0Y-105.5
X112.0Y-97.0
X112.0Y-109.7
X143.8Y-63.5
X156.5Y-63.5
X145.76Y-39.0
X161.0Y-39.0
X122.0Y-45.0
X122.0Y-57.7
X137.0Y-55.0
X137.0Y-70.24
X99.0Y-115.0
X111.7Y-115.0
X116.0Y-123.0
X116.0Y-128.0
X142.5Y-96.5
X142.5Y-109.2
X195.0Y-122.0
X195.0Y-129.5
X176.26Y-97.0
X191.5Y-97.0
X131.0Y-94.5
X136.0Y-94.5
X208.5Y-44.76
X208.5Y-60.0
X195.0Y-40.5
X195.0Y-48.0
X133.0Y-122.0
X133.0Y-129.5
X208.0Y-110.5
X208.0Y-125.74
X117.0Y-115.0
X129.7Y-115.0
X182.0Y-106.3
X182.0Y-119.0
X157.3Y-117.0
X170.0Y-117.0
X144.3Y-58.0
X157.0Y-58.0
X116.0Y-57.0
X116.0Y-69.7
X216.0Y-110.3
X216.0Y-123.0
X207.26Y-39.0
X222.5Y-39.0
X93.5Y-98.5
X93.5Y-113.74
T8
X93.068Y-78.511
X93.068Y-91.489
X98.588Y-74.5
X98.588Y-95.5
X105.412Y-74.5
X105.412Y-95.5
X110.932Y-78.511
X110.932Y-91.489
X113.04Y-85.0
X145.068Y-78.511
X145.068Y-91.489
X150.588Y-74.5
X150.588Y-95.5
X157.412Y-74.5
X157.412Y-95.5
X162.932Y-78.511
X162.932Y-91.489
X165.04Y-85.0
X195.068Y-78.511
X195.068Y-91.489
X200.588Y-74.5
X200.588Y-95.5
X207.412Y-74.5
X207.412Y-95.5
X212.932Y-78.511
X212.932Y-91.489
X215.04Y-85.0
T9
X232.0Y-127.5
T10
X232.0Y-42.0
X164.0Y-46.0
X97.0Y-127.5
X164.0Y-123.5
X97.0Y-42.0
T11
X102.0Y-85.0
X154.0Y-85.0
X204.0Y-85.0
T0
M30
