G04 #@! TF.GenerationSoftware,KiCad,Pcbnew,(5.1.5-0-10_14)*
G04 #@! TF.CreationDate,2020-04-26T22:00:10+01:00*
G04 #@! TF.ProjectId,Preamp-Trial,50726561-6d70-42d5-9472-69616c2e6b69,rev?*
G04 #@! TF.SameCoordinates,Original*
G04 #@! TF.FileFunction,Legend,Bot*
G04 #@! TF.FilePolarity,Positive*
%FSLAX46Y46*%
G04 Gerber Fmt 4.6, Leading zero omitted, Abs format (unit mm)*
G04 Created by KiCad (PCBNEW (5.1.5-0-10_14)) date 2020-04-26 22:00:10*
%MOMM*%
%LPD*%
G04 APERTURE LIST*
%ADD10C,0.150000*%
G04 APERTURE END LIST*
D10*
X115061887Y-85000000D02*
G75*
G03X115061887Y-85000000I-13061887J0D01*
G01*
X167061887Y-85000000D02*
G75*
G03X167061887Y-85000000I-13061887J0D01*
G01*
X217061887Y-85000000D02*
G75*
G03X217061887Y-85000000I-13061887J0D01*
G01*
X116692380Y-82968095D02*
X117501904Y-82968095D01*
X117597142Y-83015714D01*
X117644761Y-83063333D01*
X117692380Y-83158571D01*
X117692380Y-83349047D01*
X117644761Y-83444285D01*
X117597142Y-83491904D01*
X117501904Y-83539523D01*
X116692380Y-83539523D01*
X117692380Y-84539523D02*
X117692380Y-83968095D01*
X117692380Y-84253809D02*
X116692380Y-84253809D01*
X116835238Y-84158571D01*
X116930476Y-84063333D01*
X116978095Y-83968095D01*
X168692380Y-82968095D02*
X169501904Y-82968095D01*
X169597142Y-83015714D01*
X169644761Y-83063333D01*
X169692380Y-83158571D01*
X169692380Y-83349047D01*
X169644761Y-83444285D01*
X169597142Y-83491904D01*
X169501904Y-83539523D01*
X168692380Y-83539523D01*
X168787619Y-83968095D02*
X168740000Y-84015714D01*
X168692380Y-84110952D01*
X168692380Y-84349047D01*
X168740000Y-84444285D01*
X168787619Y-84491904D01*
X168882857Y-84539523D01*
X168978095Y-84539523D01*
X169120952Y-84491904D01*
X169692380Y-83920476D01*
X169692380Y-84539523D01*
X218692380Y-82968095D02*
X219501904Y-82968095D01*
X219597142Y-83015714D01*
X219644761Y-83063333D01*
X219692380Y-83158571D01*
X219692380Y-83349047D01*
X219644761Y-83444285D01*
X219597142Y-83491904D01*
X219501904Y-83539523D01*
X218692380Y-83539523D01*
X218692380Y-83920476D02*
X218692380Y-84539523D01*
X219073333Y-84206190D01*
X219073333Y-84349047D01*
X219120952Y-84444285D01*
X219168571Y-84491904D01*
X219263809Y-84539523D01*
X219501904Y-84539523D01*
X219597142Y-84491904D01*
X219644761Y-84444285D01*
X219692380Y-84349047D01*
X219692380Y-84063333D01*
X219644761Y-83968095D01*
X219597142Y-83920476D01*
M02*
